<REAPER_PROJECT 0.1 "4.76/x64" 1419920528
  RIPPLE 0
  GROUPOVERRIDE 0 0 0
  AUTOXFADE 1
  ENVATTACH 1
  MIXERUIFLAGS 11 48
  PEAKGAIN 1
  FEEDBACK 0
  PANLAW 1
  PROJOFFS 0 0
  MAXPROJLEN 0 600
  GRID 3199 8 0.5 8 1 0 0
  TIMEMODE 1 0 -1 24 2
  PANMODE 3
  CURSOR 48.96
  ZOOM 8.95768042514984 0 0
  VZOOMEX 9
  USE_REC_CFG 0
  RECMODE 1
  SMPTESYNC 4 23.976024 100 40 1000 300 4159 0 1
  LOOP 0
  LOOPGRAN 0 4
  RECORD_PATH "D:\Recording" "D:\Recording"
  <RECORD_CFG
    ZXZhdxgA
  >
  <APPLYFX_CFG
  >
  RENDER_FILE ""
  RENDER_PATTERN ""
  RENDER_FMT 0 2 0
  RENDER_1X 0
  RENDER_RANGE 1 0 0
  RENDER_RESAMPLE 3 0 1
  RENDER_ADDTOPROJ 0
  RENDER_STEMS 0
  RENDER_DITHER 0
  TIMELOCKMODE 1
  TEMPOENVLOCKMODE 1
  ITEMMIX 0
  DEFPITCHMODE 589824
  TAKELANE 0
  SAMPLERATE 44100 0 0
  <RENDER_CFG
  >
  LOCK 1
  <METRONOME 18 2
    VOL 0.25 0.125
    FREQ 800 1600 1
    BEATLEN 4
    SAMPLES "" ""
  >
  GLOBAL_AUTO -1
  TEMPO 125 4 4
  PLAYRATE 1 0 0.25 4
  SELECTION 121.44 96
  SELECTION2 121.44 96
  MASTERAUTOMODE 0
  MASTERTRACKHEIGHT 0
  MASTERPEAKCOL 16576
  MASTERMUTESOLO 0
  MASTERTRACKVIEW 0 0.6667 0.5 0.5 -1 -1 -1
  MASTERHWOUT 0 0 1 0 0 0 0 -1
  MASTER_NCH 2 2
  MASTER_VOLUME 1.31685926188868 0 -1 -1 1
  MASTER_FX 1
  MASTER_SEL 0
  <MASTERPLAYSPEEDENV
    ACT 0
    VIS 0 1 1
    LANEHEIGHT 0 0
    ARM 0
    DEFSHAPE 0 -1 -1
  >
  <TEMPOENVEX
    ACT 0
    VIS 1 0 1
    LANEHEIGHT 0 0
    ARM 0
    DEFSHAPE 1 -1 -1
  >
  MARKER 1 3.84 start 0 0 1
  MARKER 2 34.56 "Chorus 1" 0 0 1
  MARKER 3 80.64 "Chorus 2" 0 0 1
  MARKER 4 132.48 "Chorus 3" 0 0 1
  <PROJBAY
  >
  <TRACK {D5326A41-AF59-4B11-BE93-48DD990EF343}
    NAME "EZdrummer Demo"
    PEAKCOL 16576
    BEAT -1
    AUTOMODE 0
    VOLPAN 1.08125952860623 0 -1 -1 1
    MUTESOLO 0 0 0
    IPHASE 0
    ISBUS 0 0
    BUSCOMP 0 0
    SHOWINMIX 1 0.6667 0.5 1 0.5 -1 -1 -1
    FREEMODE 0
    SEL 0
    REC 0 4160 2 0 0 0 0
    VU 2
    TRACKHEIGHT 0 0
    INQ 0 0 0 0.5 100 0 0 100
    NCHAN 2
    FX 1
    TRACKID {D5326A41-AF59-4B11-BE93-48DD990EF343}
    PERF 0
    MIDIOUT -1
    MAINSEND 1 0
    <FXCHAIN
      WNDRECT 1300 174 1021 769
      SHOW 0
      LASTSEL 0
      DOCKED 0
      BYPASS 0 0 0
      <VST "VSTi: EZdrummer (Toontrack) (32 out)" EZdrummer.dll 0 ""
        ZWhmZO5e7f4AAAAAIAAAAAEAAAAAAAAAAgAAAAAAAAAEAAAAAAAAAAgAAAAAAAAAEAAAAAAAAAAgAAAAAAAAAEAAAAAAAAAAgAAAAAAAAAAAAQAAAAAAAAACAAAAAAAA
        AAQAAAAAAAAACAAAAAAAAAAQAAAAAAAAACAAAAAAAAAAQAAAAAAAAACAAAAAAAAAAAABAAAAAAAAAAIAAAAAAAAABAAAAAAAAAAIAAAAAAAAABAAAAAAAAAAIAAAAAAA
        AABAAAAAAAAAAIAAAAAAAAAAAAEAAAAAAAAAAgAAAAAAAAAEAAAAAAAAAAgAAAAAAAAAEAAAAAAAAAAgAAAAAAAAAEAAAAAAAAAAgAAAAAD3CgAAAQAAAMoAEAB2ZXJz
        aW9uIDEKRVpYICJFWlgyX0VaZHJ1bW1lcjJfVmludGFnZSIKaHVtYW5pemUgMQpwb3MgIktpY2siICJWaXN0YWxpdGUiCnBvcyAiU25hcmUiICIxNEJyYXNzIgpwb3Mg
        IkhhdHMiICIxNFNhYmlhbiIKcG9zICJSYWNrdG9tIiAiUlRfVmlzdGFsaXRlIgpwb3MgIkZsb29ydG9tIiAiRlRfVmlzdGFsaXRlIgpwb3MgIlJpZGUxIiAiMjFTYWJp
        YW4iCnBvcyAiQ3ltYmFsMSIgIjE4UGFpc3RlIgpwb3MgIkN5bWJhbDIiICIxOFNhYmlhbiIKbWl4ZXIgewpLaWNrIHsKcGFuIDAuNQp2b2x1bWUgMS4zMTgyNgpwaGFz
        ZXJldmVyc2UgMApub2JsZWVkIDAKeHRyYWZhZGUgMC41MzcxMzgKbGVha3ZvbCAxCnNvbG8gMAptdXRlIDAKcm91dGUgMAp9ClNuYXJlVG9wIHsKcGFuIDAuNQp2b2x1
        bWUgMS4zMjk5OQpwaGFzZXJldmVyc2UgMApub2JsZWVkIDAKeHRyYWZhZGUgMApsZWFrdm9sIDEKc29sbyAwCm11dGUgMApyb3V0ZSAwCn0KT2ggewpwYW4gMC4yNQp2
        b2x1bWUgMS4xMTQxCnBoYXNlcmV2ZXJzZSAwCm5vYmxlZWQgMAp4dHJhZmFkZSAwCmxlYWt2b2wgMQpzb2xvIDAKbXV0ZSAwCnJvdXRlIDAKfQpPaFIgewpwYW4gMQp2
        b2x1bWUgMS4xMTQxCnBoYXNlcmV2ZXJzZSAwCm5vYmxlZWQgMAp4dHJhZmFkZSAwCmxlYWt2b2wgMQpzb2xvIDAKbXV0ZSAwCnJvdXRlIDAKfQpBbWIgewpwYW4gMAp2
        b2x1bWUgMC4wOTU0OTkzCnBoYXNlcmV2ZXJzZSAwCm5vYmxlZWQgMAp4dHJhZmFkZSAwCmxlYWt2b2wgMQpzb2xvIDAKbXV0ZSAwCnJvdXRlIDAKfQpBbWJSIHsKcGFu
        IDEKdm9sdW1lIDAuMDk1NDk5MwpwaGFzZXJldmVyc2UgMApub2JsZWVkIDAKeHRyYWZhZGUgMApsZWFrdm9sIDEKc29sbyAwCm11dGUgMApyb3V0ZSAwCn0KYnVzcyAw
        IHsKcGFuIDAKdm9sdW1lIDAuNTg4ODQ1CnBoYXNlcmV2ZXJzZSAwCnNvbG8gMAptdXRlIDAKcm91dGUgMAp9CmJ1c3MgMSB7CnBhbiAxCnZvbHVtZSAwLjU4ODg0NQpw
        aGFzZXJldmVyc2UgMApzb2xvIDAKbXV0ZSAwCnJvdXRlIDAKfQpidXNzIDIgewpwYW4gMC41CnZvbHVtZSAwLjU4ODg0NQpwaGFzZXJldmVyc2UgMApzb2xvIDAKbXV0
        ZSAwCnJvdXRlIDAKfQpidXNzIDMgewpwYW4gMC41CnZvbHVtZSAwLjU4ODg0NQpwaGFzZXJldmVyc2UgMApzb2xvIDAKbXV0ZSAwCnJvdXRlIDAKfQpidXNzIDQgewpw
        YW4gMAp2b2x1bWUgMC41MzcwMzMKcGhhc2VyZXZlcnNlIDAKc29sbyAwCm11dGUgMApyb3V0ZSAwCn0KYnVzcyA1IHsKcGFuIDAKdm9sdW1lIDAuNTM3MDMzCnBoYXNl
        cmV2ZXJzZSAwCnNvbG8gMAptdXRlIDAKcm91dGUgMAp9CmJ1c3MgNiB7CnBhbiAxCnZvbHVtZSAwLjY1MjMzNgpwaGFzZXJldmVyc2UgMApzb2xvIDAKbXV0ZSAwCnJv
        dXRlIDAKfQpidXNzIDcgewpwYW4gMQp2b2x1bWUgMC42NTIzMzYKcGhhc2VyZXZlcnNlIDAKc29sbyAwCm11dGUgMApyb3V0ZSAwCn0KYnVzcyA4IHsKcGFuIDAKdm9s
        dW1lIDAuMzE2MjI4CnBoYXNlcmV2ZXJzZSAwCnNvbG8gMAptdXRlIDAKcm91dGUgMAp9CmJ1c3MgOSB7CnBhbiAxCnZvbHVtZSAwLjMxNjIyOApwaGFzZXJldmVyc2Ug
        MApzb2xvIDAKbXV0ZSAwCnJvdXRlIDAKfQp9CkVaMXN0dWZmRU5EIHsKfQpzYW1wbGVyIHsKbWFzdGVydm9sIDEKcmV2ZXJzZSAwCnByZXNldCAiT2xkIFNjaG9vbCBQ
        bGF0ZSIKa25vYiAwIDAuMjk3MDMKa25vYiAxIDAuMjk3MDMKa25vYiAyIDAuMzM5ODY2Cmtub2IgMyAwLjMwMDg0OQprbm9iIDQgMQprbm9iIDUgMQpkcnVtcHJvcHMg
        ewoiWFBlcmMtMCIgeCAiRVpYUF9FWmRydW1tZXIyX1BlcmN1c3Npb24iICJPbmVzaG90IiAiQ2xhcHMyIgoiWFBlcmMtMSIgeCAiRVpYUF9FWmRydW1tZXIyX1BlcmN1
        c3Npb24iICJTaGFrZXIiICJTaGFrZXIxIgoiWFBlcmMtMiIgeCAiRVpYUF9FWmRydW1tZXIyX1BlcmN1c3Npb24iICJUYW1ib3VyaW5lIiAiVGFtYjEiCn0KfQplZHJ1
        bSBub25lIG5vbmUKbWlkaWxlYXJuIHsKfQpFZGl0b3IgeyAKU29uZ1RyYWNrIHsKVmlzaWJsZUFyZWEgNjUuMDY1OCAxMzAuMDY2ClRyYWNrTmFtZSAiIgpDbGVhclRy
        YWNrRmlyc3QKVGltZVNpZyA0IDQKR3JpZFJlcyAzMgpMb29wQXJlYSAwIDAKTG9vcEFjdGl2ZSAwCn0KVmlzaWJsZVJlc3VsdENvbHVtbnMgMTYsMjgsMCwwOzE3LDI4
        LDAsMDswLDE4NSwwLDA7MTEsMjAwLDAsMDs0LDE1MCwwLDA7NiwxMzAsMCwwOzcsNDUsMCwwOzgsNDUsMCwwOzMsNDUsMCwwOwpWaXNpYmxlRmlsdGVyQ29sdW1ucyA0
        Ozc7NTsxOzU7Mjs2OzI7CkJyb3dzZXJIZWlnaHQgMTY2ClNlbGVjdGVkVGFncyAsMCwwLDAsMCwwLDAsMCwwLDAsMCwwLDAsMCwwLDAsMCwwLDAsMCwwLDAsMCwwLDAs
        MCwwLDAsMCwwLDAsMCwwLDAsMCwwLDAsMCwwLDAsMCwwLDAsMCwwLDAsMCwwLDAsMCwwLDAsMCwwLDAsMCwwLDAsMCwwLDAsMCwwLDAsMCwwLDAsMCwwLDAsMCwwLDAs
        MCwwLDAsMCwwLDAsMCwwLDAsMCwwLDAsMCwwLDAsMCwwLDAsMCwwLDAsMCwwLDAsMCwwLDAsMCwwLDAsMCwwLDAsMCwwLDAsMCwwLDAsMCwwLDAsMCwwLDAsMCwwLDAs
        MCwwLDAsMCwwLDAsMCwwLDAKU2VsZWN0ZWRGaWxlIApTZWxlY3RlZEJyb3dzZXJQYXRoICIwMl9ARVpEUlVNTUVSXzJfTU9ERVJOI1ZJTlRBR0UvNTA1QFNUUkFJR0hU
        XzQjNC8xNTctUzE0NkBGSUxMUy9WYXJpYXRpb25fMDgubWlkIgpCcm93c2VySW50ZW5zaXR5IDA7MzM7MDs1OTsKQ2xlYXJUYXAyRmluZApCcm93c2VySXNGYXZvcml0
        ZSAwClByZXZpZXdJbk9yaWdpbmFsVGVtcG8gMApDbGVhclNvbmdDcmVhdG9yIDAKVmlzaWJsZVRhYiAyCn0KU3luY1RvSG9zdCAwIDEyNQpNaWRpT3V0RW5hYmxlZCAw
        Ck1pZGlJbkNoYW5uZWwgLTEKAABLUUNYUVMwMDAyOUEAEAAAAA==
      >
      FLOATPOS 1391 188 917 722
      FXID {ACC57D8B-80A8-40FB-98FA-D035A7F87B3E}
      WAK 0
    >
    <ITEM
      POSITION 3.8399999999674
      SNAPOFFS 0
      LENGTH 30.7200000000326
      LOOP 1
      ALLTAKES 0
      FADEIN 1 0 0 1 0 0
      FADEOUT 1 0 0 1 0 0
      MUTE 0
      SEL 0
      IGUID {2C007CE0-5286-4CA0-B53F-60CF30FF6542}
      IID 6
      NAME "Variation 05 - Variation_05.mid"
      VOLPAN 1 0 1 -1
      SOFFS 0 0
      PLAYRATE 1 1 0 -1 0 0.0025
      CHANMODE 0
      GUID {C5B2557A-7054-4705-90E9-D94AB786DA17}
      <SOURCE MIDI
        HASDATA 1 960 QN
        POOLEDEVTS {97389587-4F7C-4EBD-B001-4E47F79556B9}
        <X 0 0
          /wNWYXJpYXRpb24gMDU=
        >
        E 0 90 24 70
        E 5 90 39 79
        E 136 90 24 00
        E 11 90 39 00
        E 108 90 26 1a
        E 148 90 26 00
        E 76 90 24 79
        E 6 90 3e 49
        E 136 90 24 00
        E 1 90 3e 00
        E 335 90 26 78
        E 7 90 3e 74
        E 133 90 26 00
        E 2 90 3e 00
        E 349 90 3e 39
        E 144 90 3e 00
        E 91 90 3e 32
        E 147 90 3e 00
        E 95 90 3e 78
        E 137 90 3e 00
        E 113 90 26 35
        E 146 90 26 00
        E 78 90 3e 45
        E 3 90 24 6e
        E 137 90 3e 00
        E 9 90 24 00
        E 327 90 26 7b
        E 5 90 3e 74
        E 137 90 26 00
        E 6 90 3e 00
        E 335 90 3e 25
        E 134 90 3e 00
        E 98 90 26 13
        E 107 90 26 00
        E 2 90 26 10
        E 136 90 26 00
        E 0 90 24 72
        E 5 90 3e 77
        E 137 90 3e 00
        E 1 90 24 00
        E 335 90 24 7a
        E 7 90 3e 45
        E 128 90 24 00
        E 18 90 3e 00
        E 333 90 26 7a
        E 8 90 3e 77
        E 127 90 26 00
        E 21 90 3e 00
        E 331 90 3e 3a
        E 148 90 3e 00
        E 90 90 3e 30
        E 142 90 3e 00
        E 95 90 3e 74
        E 136 90 3e 00
        E 104 90 26 22
        E 141 90 26 00
        E 94 90 24 6e
        E 6 90 3e 40
        E 135 90 24 00
        E 9 90 3e 00
        E 329 90 26 7a
        E 3 90 3e 79
        E 135 90 26 00
        E 5 90 3e 00
        E 335 90 3e 35
        E 146 90 3e 00
        E 104 90 26 18
        E 117 90 26 00
        E 0 90 26 13
        E 114 90 3e 76
        E 1 90 26 00
        E 0 90 24 71
        E 137 90 3e 00
        E 12 90 24 00
        E 68 90 26 36
        E 145 90 26 00
        E 114 90 24 79
        E 4 90 3e 3b
        E 138 90 3e 00
        E 9 90 24 00
        E 332 90 3e 74
        E 1 90 26 74
        E 137 90 26 00
        E 12 90 3e 00
        E 332 90 3e 3f
        E 145 90 3e 00
        E 94 90 3e 35
        E 140 90 3e 00
        E 102 90 3e 76
        E 148 90 3e 00
        E 89 90 26 1e
        E 144 90 26 00
        E 98 90 24 70
        E 2 90 3e 3b
        E 137 90 24 00
        E 11 90 3e 00
        E 330 90 26 7c
        E 3 90 3e 77
        E 136 90 26 00
        E 11 90 3e 00
        E 330 90 3e 2c
        E 139 90 3e 00
        E 13 90 26 17
        E 122 90 26 00
        E 4 90 26 11
        E 139 90 26 00
        E 62 90 24 71
        E 0 90 3e 74
        E 147 90 3e 00
        E 3 90 24 00
        E 89 90 26 21
        E 139 90 26 00
        E 102 90 24 7a
        E 4 90 3e 3b
        E 137 90 24 00
        E 11 90 3e 00
        E 327 90 26 79
        E 2 90 3e 75
        E 135 90 26 00
        E 2 90 3e 00
        E 346 90 3e 3a
        E 144 90 3e 00
        E 98 90 3e 35
        E 141 90 3e 00
        E 98 90 3e 77
        E 146 90 3e 00
        E 98 90 26 1b
        E 147 90 26 00
        E 81 90 24 70
        E 5 90 3e 41
        E 142 90 24 00
        E 7 90 3e 00
        E 329 90 26 79
        E 3 90 3e 79
        E 135 90 26 00
        E 15 90 3e 00
        E 333 90 3e 1d
        E 144 90 3e 00
        E 44 90 26 16
        E 124 90 26 00
        E 2 90 26 12
        E 138 90 26 00
        E 22 90 24 71
        E 3 90 3e 78
        E 140 90 24 00
        E 3 90 3e 00
        E 105 90 26 1d
        E 148 90 26 00
        E 79 90 24 79
        E 5 90 3e 32
        E 135 90 24 00
        E 12 90 3e 00
        E 330 90 26 7b
        E 6 90 3e 77
        E 139 90 26 00
        E 11 90 3e 00
        E 331 90 3e 3b
        E 143 90 3e 00
        E 98 90 3e 39
        E 140 90 3e 00
        E 97 90 3e 73
        E 137 90 3e 00
        E 106 90 26 33
        E 139 90 26 00
        E 94 90 24 70
        E 4 90 3e 47
        E 137 90 24 00
        E 4 90 3e 00
        E 337 90 26 7b
        E 9 90 3e 78
        E 138 90 3e 00
        E 1 90 26 00
        E 337 90 3e 26
        E 143 90 3e 00
        E 85 90 26 14
        E 147 90 26 00
        E 100 90 24 70
        E 3 90 3e 77
        E 137 90 3e 00
        E 3 90 24 00
        E 107 90 26 1f
        E 137 90 26 00
        E 93 90 24 7b
        E 4 90 3e 4b
        E 142 90 24 00
        E 6 90 3e 00
        E 326 90 26 79
        E 5 90 3e 79
        E 137 90 3e 00
        E 3 90 26 00
        E 339 90 3e 34
        E 143 90 3e 00
        E 98 90 3e 3c
        E 140 90 3e 00
        E 97 90 3e 75
        E 138 90 3e 00
        E 98 90 26 1b
        E 138 90 26 00
        E 103 90 24 70
        E 3 90 3e 51
        E 136 90 24 00
        E 3 90 3e 00
        E 339 90 26 79
        E 4 90 3e 77
        E 143 90 26 00
        E 3 90 3e 00
        E 334 90 3e 30
        E 146 90 3e 00
        E 76 90 26 11
        E 148 90 26 00
        E 105 90 24 70
        E 2 90 3e 77
        E 135 90 24 00
        E 11 90 3e 00
        E 100 90 26 1c
        E 146 90 26 00
        E 86 90 24 79
        E 3 90 3e 35
        E 139 90 24 00
        E 4 90 3e 00
        E 333 90 26 7a
        E 3 90 3e 74
        E 146 90 26 00
        E 1 90 3e 00
        E 332 90 3e 3f
        E 136 90 3e 00
        E 106 90 3e 39
        E 144 90 3e 00
        E 91 90 3e 77
        E 137 90 3e 00
        E 102 90 26 66
        E 149 90 26 00
        E 85 90 24 70
        E 8 90 3e 78
        E 137 90 24 00
        E 12 90 3e 00
        E 332 90 26 7c
        E 1 90 3e 77
        E 134 90 26 00
        E 8 90 3e 00
        E 97 90 26 0e
        E 150 90 26 00
        E 95 90 3e 35
        E 137 90 3e 00
        E 48 90 26 16
        E 126 90 26 00
        E 1 90 26 10
        E 142 90 26 00
        E 21 90 24 71
        E 5 90 3e 77
        E 138 90 3e 00
        E 4 90 24 00
        E 101 90 26 19
        E 143 90 26 00
        E 92 90 24 79
        E 3 90 3e 25
        E 143 90 3e 00
        E 2 90 24 00
        E 330 90 26 79
        E 5 90 3e 73
        E 144 90 26 00
        E 9 90 3e 00
        E 331 90 3e 48
        E 138 90 3e 00
        E 103 90 3e 37
        E 139 90 3e 00
        E 99 90 3e 73
        E 152 90 3e 00
        E 83 90 26 7b
        E 143 90 26 00
        E 99 90 24 70
        E 8 90 3e 35
        E 137 90 24 00
        E 15 90 3e 00
        E 59 90 26 19
        E 108 90 26 00
        E 155 90 26 7f
        E 149 90 26 00
        E 75 90 26 6b
        E 139 90 26 00
        E 109 90 26 7b
        E 149 90 26 00
        E 91 90 26 62
        E 146 90 26 00
        E 94 b0 7b 00
        GUID {FC4990DB-1553-459E-89F8-9322DD8B01EC}
        IGNTEMPO 0 120 4 4
        SRCCOLOR 226
        VELLANE -1 100 0
      >
    >
    <ITEM
      POSITION 34.56000000005588
      SNAPOFFS 0
      LENGTH 13.09617177041245
      LOOP 1
      ALLTAKES 0
      FADEIN 1 0 0 1 0 0
      FADEOUT 1 0 0 1 0 0
      MUTE 0
      SEL 0
      IGUID {3F916D27-236C-40F0-9B4F-92F946EE6DD0}
      IID 25
      NAME "Variation 04 - Variation_04.mid"
      VOLPAN 1 0 1 -1
      SOFFS 0 0
      PLAYRATE 1 1 0 -1 0 0.0025
      CHANMODE 0
      GUID {EE76A241-D9F3-4527-A970-CE367D74EED5}
      <SOURCE MIDI
        HASDATA 1 960 QN
        POOLEDEVTS {D09A47D9-4815-490D-AC16-FBC04C55C7EA}
        <X 0 0
          /wNWYXJpYXRpb24gMDQ=
        >
        E 0 90 39 70
        E 0 90 24 76
        E 137 90 24 00
        E 9 90 39 00
        E 331 90 2b 5a
        E 3 90 35 5d
        E 136 90 2b 00
        E 2 90 35 00
        E 342 90 26 79
        E 8 90 31 4d
        E 136 90 26 00
        E 1 90 31 00
        E 330 90 2b 6e
        E 5 90 35 5e
        E 135 90 2b 00
        E 3 90 35 00
        E 342 90 24 76
        E 1 90 2b 6e
        E 139 90 24 00
        E 10 90 2b 00
        E 89 90 26 12
        E 136 90 26 00
        E 98 90 35 5f
        E 5 90 2b 38
        E 133 90 35 00
        E 17 90 2b 00
        E 332 90 26 79
        E 0 90 2b 6e
        E 136 90 26 00
        E 6 90 2b 00
        E 332 90 35 5e
        E 8 90 2b 3a
        E 133 90 35 00
        E 8 90 2b 00
        E 337 90 24 77
        E 2 90 2b 6e
        E 132 90 24 00
        E 8 90 2b 00
        E 326 90 35 5f
        E 9 90 2b 38
        E 130 90 35 00
        E 15 90 2b 00
        E 338 90 26 79
        E 1 90 2b 60
        E 136 90 26 00
        E 6 90 2b 00
        E 329 90 35 5f
        E 7 90 2b 35
        E 140 90 35 00
        E 6 90 2b 00
        E 335 90 24 77
        E 2 90 2b 64
        E 135 90 24 00
        E 12 90 2b 00
        E 318 90 35 5f
        E 14 90 2b 35
        E 122 90 35 00
        E 15 90 2b 00
        E 342 90 26 79
        E 4 90 2b 6d
        E 138 90 2b 00
        E 3 90 26 00
        E 328 90 35 5e
        E 13 90 2b 2f
        E 121 90 35 00
        E 20 90 2b 00
        E 333 90 24 76
        E 1 90 2b 6e
        E 148 90 2b 00
        E 3 90 24 00
        E 314 90 35 5e
        E 9 90 2b 27
        E 131 90 35 00
        E 17 90 2b 00
        E 337 90 26 7a
        E 4 90 2b 6c
        E 143 90 26 00
        E 7 90 2b 00
        E 318 90 35 5e
        E 9 90 2b 2c
        E 135 90 35 00
        E 17 90 2b 00
        E 327 90 24 76
        E 1 90 2b 6c
        E 147 90 2b 00
        E 1 90 24 00
        E 321 90 35 5d
        E 14 90 2b 36
        E 128 90 35 00
        E 18 90 2b 00
        E 331 90 26 79
        E 5 90 2b 66
        E 135 90 26 00
        E 12 90 2b 00
        E 321 90 35 5d
        E 9 90 2b 38
        E 139 90 35 00
        E 5 90 2b 00
        E 333 90 24 76
        E 2 90 2b 6c
        E 139 90 2b 00
        E 1 90 24 00
        E 327 90 35 5e
        E 8 90 2b 2f
        E 134 90 35 00
        E 6 90 2b 00
        E 344 90 26 7a
        E 3 90 2b 6e
        E 139 90 2b 00
        E 3 90 26 00
        E 326 90 35 5f
        E 6 90 2b 32
        E 135 90 35 00
        E 9 90 2b 00
        E 337 90 24 76
        E 0 90 2b 5f
        E 138 90 2b 00
        E 6 90 24 00
        E 333 90 35 5e
        E 3 90 2b 31
        E 136 90 35 00
        E 0 90 2b 00
        E 345 90 26 7a
        E 4 90 2b 6e
        E 116 90 26 00
        E 26 90 2b 00
        E 318 90 26 5a
        E 9 90 35 5d
        E 133 90 26 00
        E 6 90 35 00
        E 112 90 26 7a
        E 135 90 26 00
        E 101 90 31 5d
        E 0 90 24 76
        E 142 90 24 00
        E 3 90 31 00
        E 321 90 35 5d
        E 5 90 2b 57
        E 133 90 35 00
        E 3 90 2b 00
        E 315 90 31 6f
        E 35 90 26 79
        E 104 90 31 00
        E 33 90 26 00
        E 335 90 35 5f
        E 2 90 2b 39
        E 135 90 35 00
        E 7 90 2b 00
        E 343 90 2b 66
        E 2 90 24 75
        E 138 90 2b 00
        E 5 90 24 00
        E 97 90 26 0c
        E 147 90 26 00
        E 90 90 35 5e
        E 1 90 2b 31
        E 136 90 35 00
        E 8 90 2b 00
        E 340 90 26 7a
        E 3 90 2b 6d
        E 139 90 26 00
        E 8 90 2b 00
        E 330 90 35 5f
        E 1 90 2b 2e
        E 139 90 35 00
        E 4 90 2b 00
        E 335 90 24 76
        E 1 90 2b 6d
        E 145 90 24 00
        E 5 90 2b 00
        E 320 90 35 5d
        E 10 90 2b 2a
        E 126 90 35 00
        E 14 90 2b 00
        E 341 90 26 79
        E 5 90 2b 6e
        E 136 90 26 00
        E 10 90 2b 00
        E 320 90 35 5f
        E 7 90 2b 2b
        E 143 90 35 00
        E 6 90 2b 00
        E 332 90 24 74
        E 2 90 2b 6e
        E 141 90 2b 00
        E 6 90 24 00
        E 328 90 35 5e
        E 2 90 2b 2d
        E 138 90 35 00
        E 4 90 2b 00
        E 339 90 26 7a
        E 4 90 2b 6e
        E 140 90 2b 00
        E 6 90 26 00
        E 320 90 35 5d
        E 6 90 2b 29
        E 121 90 2b 00
        E 13 90 35 00
        E 83 90 2b 2d
        E 38 90 2b 00
        E 0 90 2b 49
        E 108 90 2b 00
        E 119 90 2b 6e
        E 2 90 24 76
        E 138 90 2b 00
        E 9 90 24 00
        E 331 90 35 5f
        E 2 90 2b 2d
        E 137 90 2b 00
        E 1 90 35 00
        E 342 90 26 79
        E 2 90 2b 5e
        E 141 90 26 00
        E 5 90 2b 00
        E 321 90 35 5e
        E 6 90 2b 31
        E 138 90 35 00
        E 9 90 2b 00
        E 332 90 2b 6d
        E 5 90 24 76
        E 135 90 2b 00
        E 12 90 24 00
        E 326 90 35 5d
        E 2 90 2b 30
        E 137 90 35 00
        E 9 90 2b 00
        E 340 90 2b 6d
        E 0 90 26 7a
        E 138 90 2b 00
        E 12 90 26 00
        E 317 90 35 5f
        E 9 90 2b 35
        E 139 90 35 00
        E 2 90 2b 00
        E 343 90 24 76
        E 1 90 2b 6e
        E 137 90 2b 00
        E 3 90 24 00
        E 331 90 35 5e
        E 6 90 2b 32
        E 136 90 35 00
        E 9 90 2b 00
        E 338 90 26 79
        E 4 90 2b 6d
        E 140 90 26 00
        E 1 90 2b 00
        E 327 90 35 5f
        E 7 90 2b 3c
        E 135 90 35 00
        E 9 90 2b 00
        E 337 90 24 76
        E 4 90 2b 6c
        E 134 90 24 00
        E 13 90 2b 00
        E 328 90 35 5f
        E 1 90 26 79
        E 6 90 30 7f
        E 128 90 26 00
        E 10 90 35 00
        E 4 90 30 00
        E 346 90 26 7c
        E 7 90 30 7b
        E 137 90 26 00
        E 1 90 30 00
        E 314 90 26 7c
        E 2 90 30 7f
        E 143 90 26 00
        E 6 90 30 00
        E 335 b0 7b 00
        GUID {09AD4CD2-D1D4-4167-97B3-04FE55BE9186}
        IGNTEMPO 0 120 4 4
        SRCCOLOR 252
        VELLANE -1 100 0
      >
    >
    <ITEM
      POSITION 47.73516862940932
      SNAPOFFS 0
      LENGTH 0.48
      LOOP 1
      ALLTAKES 0
      FADEIN 1 0 0 1 0 0
      FADEOUT 1 0 0 1 0 0
      MUTE 0
      SEL 0
      IGUID {57D152F7-C662-4FD6-B3DA-D3F19A9437F5}
      IID 26
      NAME "Variation 01 - Variation_01.mid"
      VOLPAN 1 0 1 -1
      SOFFS 0 0
      PLAYRATE 1 1 0 -1 0 0.0025
      CHANMODE 0
      GUID {E5038C79-3E0C-4A42-BFAB-22FE8AD5F9A2}
      <SOURCE MIDI
        HASDATA 1 960 QN
        POOLEDEVTS {5B98850D-F0A1-4DDA-A9CF-0E897FF93751}
        <X 0 0
          /wNWYXJpYXRpb24gMDE=
        >
        E 0 90 31 5b
        E 0 90 24 66
        E 5 90 39 79
        E 136 90 24 00
        E 7 90 31 00
        E 4 90 39 00
        E 808 b0 7b 00
        GUID {00B809E5-A11B-4969-832B-0A4A3D83BB3F}
        IGNTEMPO 0 120 4 4
        SRCCOLOR 254
        VELLANE -1 100 0
      >
    >
    <ITEM
      POSITION 49.92
      SNAPOFFS 0
      LENGTH 7.08842537414898
      LOOP 1
      ALLTAKES 0
      FADEIN 1 0 0 1 0 0
      FADEOUT 1 0 0 1 0 0
      MUTE 0
      SEL 0
      IGUID {EC935E32-C1AA-4A62-AF79-4017FC262093}
      IID 6
      NAME "Variation 05 - Variation_05.mid"
      VOLPAN 1 0 1 -1
      SOFFS 0.0000000000326 0.00000000006791
      PLAYRATE 1 1 0 -1 0 0.0025
      CHANMODE 0
      GUID {9BFE03AA-C5BA-430E-AF1A-141BB49C862E}
      <SOURCE MIDI
        HASDATA 1 960 QN
        POOLEDEVTS {93C08302-B069-48D5-88CF-EA3DF0CA4405}
        <X 0 0
          /wNWYXJpYXRpb24gMDU=
        >
        E 0 90 24 70
        E 5 90 39 79
        E 136 90 24 00
        E 11 90 39 00
        E 108 90 26 1a
        E 148 90 26 00
        E 76 90 24 79
        E 6 90 3e 49
        E 136 90 24 00
        E 1 90 3e 00
        E 335 90 26 78
        E 7 90 3e 74
        E 133 90 26 00
        E 2 90 3e 00
        E 349 90 3e 39
        E 144 90 3e 00
        E 91 90 3e 32
        E 147 90 3e 00
        E 95 90 3e 78
        E 137 90 3e 00
        E 113 90 26 35
        E 146 90 26 00
        E 78 90 3e 45
        E 3 90 24 6e
        E 137 90 3e 00
        E 9 90 24 00
        E 327 90 26 7b
        E 5 90 3e 74
        E 137 90 26 00
        E 6 90 3e 00
        E 335 90 3e 25
        E 134 90 3e 00
        E 98 90 26 13
        E 107 90 26 00
        E 2 90 26 10
        E 136 90 26 00
        E 0 90 24 72
        E 5 90 3e 77
        E 137 90 3e 00
        E 1 90 24 00
        E 335 90 24 7a
        E 7 90 3e 45
        E 128 90 24 00
        E 18 90 3e 00
        E 333 90 26 7a
        E 8 90 3e 77
        E 127 90 26 00
        E 21 90 3e 00
        E 331 90 3e 3a
        E 148 90 3e 00
        E 90 90 3e 30
        E 142 90 3e 00
        E 95 90 3e 74
        E 136 90 3e 00
        E 104 90 26 22
        E 141 90 26 00
        E 94 90 24 6e
        E 6 90 3e 40
        E 135 90 24 00
        E 9 90 3e 00
        E 329 90 26 7a
        E 3 90 3e 79
        E 135 90 26 00
        E 5 90 3e 00
        E 335 90 3e 35
        E 146 90 3e 00
        E 104 90 26 18
        E 117 90 26 00
        E 0 90 26 13
        E 114 90 3e 76
        E 1 90 26 00
        E 0 90 24 71
        E 137 90 3e 00
        E 12 90 24 00
        E 68 90 26 36
        E 145 90 26 00
        E 114 90 24 79
        E 4 90 3e 3b
        E 138 90 3e 00
        E 9 90 24 00
        E 332 90 3e 74
        E 1 90 26 74
        E 137 90 26 00
        E 12 90 3e 00
        E 332 90 3e 3f
        E 145 90 3e 00
        E 94 90 3e 35
        E 140 90 3e 00
        E 102 90 3e 76
        E 148 90 3e 00
        E 89 90 26 1e
        E 144 90 26 00
        E 98 90 24 70
        E 2 90 3e 3b
        E 137 90 24 00
        E 11 90 3e 00
        E 330 90 26 7c
        E 3 90 3e 77
        E 136 90 26 00
        E 11 90 3e 00
        E 330 90 3e 2c
        E 139 90 3e 00
        E 13 90 26 17
        E 122 90 26 00
        E 4 90 26 11
        E 139 90 26 00
        E 62 90 24 71
        E 0 90 3e 74
        E 147 90 3e 00
        E 3 90 24 00
        E 89 90 26 21
        E 139 90 26 00
        E 102 90 24 7a
        E 4 90 3e 3b
        E 137 90 24 00
        E 11 90 3e 00
        E 327 90 26 79
        E 2 90 3e 75
        E 135 90 26 00
        E 2 90 3e 00
        E 346 90 3e 3a
        E 144 90 3e 00
        E 98 90 3e 35
        E 141 90 3e 00
        E 98 90 3e 77
        E 146 90 3e 00
        E 98 90 26 1b
        E 147 90 26 00
        E 81 90 24 70
        E 5 90 3e 41
        E 142 90 24 00
        E 7 90 3e 00
        E 329 90 26 79
        E 3 90 3e 79
        E 135 90 26 00
        E 15 90 3e 00
        E 333 90 3e 1d
        E 144 90 3e 00
        E 44 90 26 16
        E 124 90 26 00
        E 2 90 26 12
        E 138 90 26 00
        E 22 90 24 71
        E 3 90 3e 78
        E 140 90 24 00
        E 3 90 3e 00
        E 105 90 26 1d
        E 148 90 26 00
        E 79 90 24 79
        E 5 90 3e 32
        E 135 90 24 00
        E 12 90 3e 00
        E 330 90 26 7b
        E 6 90 3e 77
        E 139 90 26 00
        E 11 90 3e 00
        E 331 90 3e 3b
        E 143 90 3e 00
        E 98 90 3e 39
        E 140 90 3e 00
        E 97 90 3e 73
        E 137 90 3e 00
        E 106 90 26 33
        E 139 90 26 00
        E 94 90 24 70
        E 4 90 3e 47
        E 137 90 24 00
        E 4 90 3e 00
        E 337 90 26 7b
        E 9 90 3e 78
        E 138 90 3e 00
        E 1 90 26 00
        E 337 90 3e 26
        E 143 90 3e 00
        E 85 90 26 14
        E 147 90 26 00
        E 100 90 24 70
        E 3 90 3e 77
        E 137 90 3e 00
        E 3 90 24 00
        E 107 90 26 1f
        E 137 90 26 00
        E 93 90 24 7b
        E 4 90 3e 4b
        E 142 90 24 00
        E 6 90 3e 00
        E 326 90 26 79
        E 5 90 3e 79
        E 137 90 3e 00
        E 3 90 26 00
        E 339 90 3e 34
        E 143 90 3e 00
        E 98 90 3e 3c
        E 140 90 3e 00
        E 97 90 3e 75
        E 138 90 3e 00
        E 98 90 26 1b
        E 138 90 26 00
        E 103 90 24 70
        E 3 90 3e 51
        E 136 90 24 00
        E 3 90 3e 00
        E 339 90 26 79
        E 4 90 3e 77
        E 143 90 26 00
        E 3 90 3e 00
        E 334 90 3e 30
        E 146 90 3e 00
        E 76 90 26 11
        E 148 90 26 00
        E 105 90 24 70
        E 2 90 3e 77
        E 135 90 24 00
        E 11 90 3e 00
        E 100 90 26 1c
        E 146 90 26 00
        E 86 90 24 79
        E 3 90 3e 35
        E 139 90 24 00
        E 4 90 3e 00
        E 333 90 26 7a
        E 3 90 3e 74
        E 146 90 26 00
        E 1 90 3e 00
        E 332 90 3e 3f
        E 136 90 3e 00
        E 106 90 3e 39
        E 144 90 3e 00
        E 91 90 3e 77
        E 137 90 3e 00
        E 102 90 26 66
        E 149 90 26 00
        E 85 90 24 70
        E 8 90 3e 78
        E 137 90 24 00
        E 12 90 3e 00
        E 109 b0 7b 00
        GUID {BD463C92-F213-46DC-A508-1B2A2048230A}
        IGNTEMPO 0 120 4 4
        SRCCOLOR 240
        VELLANE -1 100 0
      >
    >
    <ITEM
      POSITION 57.00842537414898
      SNAPOFFS 0
      LENGTH 8.27157462585102
      LOOP 1
      ALLTAKES 0
      FADEIN 1 0 0 1 0 0
      FADEOUT 1 0 0 1 0 0
      MUTE 0
      SEL 0
      IGUID {719E5DF6-5207-4058-8572-1726C2BA183A}
      IID 6
      NAME "Variation 05 - Variation_05.mid"
      VOLPAN 1 0 1 -1
      SOFFS 7.08842537418158 14.7675528628783
      PLAYRATE 1 1 0 -1 0 0.0025
      CHANMODE 0
      GUID {1520694F-B892-40AD-B526-F30769DB746D}
      <SOURCE MIDI
        HASDATA 1 960 QN
        POOLEDEVTS {04775D37-28E2-486E-B0B8-6CDC99B867CC}
        <X 0 0
          /wNWYXJpYXRpb24gMDU=
        >
        E 0 90 24 70
        E 5 90 39 79
        E 136 90 24 00
        E 11 90 39 00
        E 108 90 26 1a
        E 148 90 26 00
        E 76 90 24 79
        E 6 90 3e 49
        E 136 90 24 00
        E 1 90 3e 00
        E 335 90 26 78
        E 7 90 3e 74
        E 133 90 26 00
        E 2 90 3e 00
        E 349 90 3e 39
        E 144 90 3e 00
        E 91 90 3e 32
        E 147 90 3e 00
        E 95 90 3e 78
        E 137 90 3e 00
        E 113 90 26 35
        E 146 90 26 00
        E 78 90 3e 45
        E 3 90 24 6e
        E 137 90 3e 00
        E 9 90 24 00
        E 327 90 26 7b
        E 5 90 3e 74
        E 137 90 26 00
        E 6 90 3e 00
        E 335 90 3e 25
        E 134 90 3e 00
        E 98 90 26 13
        E 107 90 26 00
        E 2 90 26 10
        E 136 90 26 00
        E 0 90 24 72
        E 5 90 3e 77
        E 137 90 3e 00
        E 1 90 24 00
        E 335 90 24 7a
        E 7 90 3e 45
        E 128 90 24 00
        E 18 90 3e 00
        E 333 90 26 7a
        E 8 90 3e 77
        E 127 90 26 00
        E 21 90 3e 00
        E 331 90 3e 3a
        E 148 90 3e 00
        E 90 90 3e 30
        E 142 90 3e 00
        E 95 90 3e 74
        E 136 90 3e 00
        E 104 90 26 22
        E 141 90 26 00
        E 94 90 24 6e
        E 6 90 3e 40
        E 135 90 24 00
        E 9 90 3e 00
        E 329 90 26 7a
        E 3 90 3e 79
        E 135 90 26 00
        E 5 90 3e 00
        E 335 90 3e 35
        E 146 90 3e 00
        E 104 90 26 18
        E 117 90 26 00
        E 0 90 26 13
        E 114 90 3e 76
        E 1 90 26 00
        E 0 90 24 71
        E 137 90 3e 00
        E 12 90 24 00
        E 68 90 26 36
        E 145 90 26 00
        E 114 90 24 79
        E 4 90 3e 3b
        E 138 90 3e 00
        E 9 90 24 00
        E 332 90 3e 74
        E 1 90 26 74
        E 137 90 26 00
        E 12 90 3e 00
        E 332 90 3e 3f
        E 145 90 3e 00
        E 94 90 3e 35
        E 140 90 3e 00
        E 102 90 3e 76
        E 148 90 3e 00
        E 89 90 26 1e
        E 144 90 26 00
        E 98 90 24 70
        E 2 90 3e 3b
        E 137 90 24 00
        E 11 90 3e 00
        E 330 90 26 7c
        E 3 90 3e 77
        E 136 90 26 00
        E 11 90 3e 00
        E 330 90 3e 2c
        E 139 90 3e 00
        E 13 90 26 17
        E 122 90 26 00
        E 4 90 26 11
        E 139 90 26 00
        E 62 90 24 71
        E 0 90 3e 74
        E 147 90 3e 00
        E 3 90 24 00
        E 89 90 26 21
        E 139 90 26 00
        E 102 90 24 7a
        E 4 90 3e 3b
        E 137 90 24 00
        E 11 90 3e 00
        E 327 90 26 79
        E 2 90 3e 75
        E 135 90 26 00
        E 2 90 3e 00
        E 346 90 3e 3a
        E 144 90 3e 00
        E 98 90 3e 35
        E 141 90 3e 00
        E 98 90 3e 77
        E 146 90 3e 00
        E 98 90 26 1b
        E 147 90 26 00
        E 81 90 24 70
        E 5 90 3e 41
        E 142 90 24 00
        E 7 90 3e 00
        E 329 90 26 79
        E 3 90 3e 79
        E 135 90 26 00
        E 15 90 3e 00
        E 333 90 3e 1d
        E 144 90 3e 00
        E 44 90 26 16
        E 124 90 26 00
        E 2 90 26 12
        E 138 90 26 00
        E 22 90 24 71
        E 3 90 3e 78
        E 140 90 24 00
        E 3 90 3e 00
        E 105 90 26 1d
        E 148 90 26 00
        E 79 90 24 79
        E 5 90 3e 32
        E 135 90 24 00
        E 12 90 3e 00
        E 330 90 26 7b
        E 6 90 3e 77
        E 139 90 26 00
        E 11 90 3e 00
        E 331 90 3e 3b
        E 143 90 3e 00
        E 98 90 3e 39
        E 140 90 3e 00
        E 97 90 3e 73
        E 137 90 3e 00
        E 106 90 26 33
        E 139 90 26 00
        E 94 90 24 70
        E 4 90 3e 47
        E 137 90 24 00
        E 4 90 3e 00
        E 337 90 26 7b
        E 9 90 3e 78
        E 138 90 3e 00
        E 1 90 26 00
        E 337 90 3e 26
        E 143 90 3e 00
        E 85 90 26 14
        E 147 90 26 00
        E 100 90 24 70
        E 3 90 3e 77
        E 137 90 3e 00
        E 3 90 24 00
        E 107 90 26 1f
        E 137 90 26 00
        E 93 90 24 7b
        E 4 90 3e 4b
        E 142 90 24 00
        E 6 90 3e 00
        E 326 90 26 79
        E 5 90 3e 79
        E 137 90 3e 00
        E 3 90 26 00
        E 339 90 3e 34
        E 143 90 3e 00
        E 98 90 3e 3c
        E 140 90 3e 00
        E 97 90 3e 75
        E 138 90 3e 00
        E 98 90 26 1b
        E 138 90 26 00
        E 103 90 24 70
        E 3 90 3e 51
        E 136 90 24 00
        E 3 90 3e 00
        E 339 90 26 79
        E 4 90 3e 77
        E 143 90 26 00
        E 3 90 3e 00
        E 334 90 3e 30
        E 146 90 3e 00
        E 76 90 26 11
        E 148 90 26 00
        E 105 90 24 70
        E 2 90 3e 77
        E 135 90 24 00
        E 11 90 3e 00
        E 100 90 26 1c
        E 146 90 26 00
        E 86 90 24 79
        E 3 90 3e 35
        E 139 90 24 00
        E 4 90 3e 00
        E 333 90 26 7a
        E 3 90 3e 74
        E 146 90 26 00
        E 1 90 3e 00
        E 332 90 3e 3f
        E 136 90 3e 00
        E 106 90 3e 39
        E 144 90 3e 00
        E 91 90 3e 77
        E 137 90 3e 00
        E 102 90 26 66
        E 149 90 26 00
        E 85 90 24 70
        E 8 90 3e 78
        E 137 90 24 00
        E 12 90 3e 00
        E 332 90 26 7c
        E 1 90 3e 77
        E 134 90 26 00
        E 8 90 3e 00
        E 97 90 26 0e
        E 150 90 26 00
        E 95 90 3e 35
        E 137 90 3e 00
        E 48 90 26 16
        E 126 90 26 00
        E 1 90 26 10
        E 142 90 26 00
        E 21 90 24 71
        E 5 90 3e 77
        E 138 90 3e 00
        E 4 90 24 00
        E 101 90 26 19
        E 143 90 26 00
        E 92 90 24 79
        E 3 90 3e 25
        E 143 90 3e 00
        E 2 90 24 00
        E 330 90 26 79
        E 5 90 3e 73
        E 144 90 26 00
        E 9 90 3e 00
        E 331 90 3e 48
        E 138 90 3e 00
        E 103 90 3e 37
        E 139 90 3e 00
        E 99 90 3e 73
        E 152 90 3e 00
        E 83 90 26 7b
        E 143 90 26 00
        E 99 90 24 70
        E 8 90 3e 35
        E 137 90 24 00
        E 15 90 3e 00
        E 59 90 26 19
        E 108 90 26 00
        E 155 90 26 7f
        E 149 90 26 00
        E 75 90 26 6b
        E 139 90 26 00
        E 109 90 26 7b
        E 149 90 26 00
        E 91 90 26 62
        E 146 90 26 00
        E 94 b0 7b 00
        GUID {6E86C229-A74B-448A-882B-E7B8DF54D95D}
        IGNTEMPO 0 120 4 4
        SRCCOLOR 303
        VELLANE -1 100 0
      >
    >
    <ITEM
      POSITION 65.28
      SNAPOFFS 0
      LENGTH 15.36
      LOOP 1
      ALLTAKES 0
      FADEIN 1 0 0 1 0 0
      FADEOUT 1 0 0 1 0 0
      MUTE 0
      SEL 0
      IGUID {5CFBE0B0-B372-4957-88B2-003788A6D48D}
      IID 6
      NAME "Variation 05 - Variation_05.mid"
      VOLPAN 1 0 1 -1
      SOFFS 0 0
      PLAYRATE 1 1 0 -1 0 0.0025
      CHANMODE 0
      GUID {2E05FE3E-653A-4E01-8EC2-94129E6C8A59}
      <SOURCE MIDI
        HASDATA 1 960 QN
        POOLEDEVTS {7FBFA885-B754-46A8-877E-43CA380CF9CE}
        <X 0 0
          /wNWYXJpYXRpb24gMDU=
        >
        E 0 90 24 70
        E 5 90 39 79
        E 136 90 24 00
        E 11 90 39 00
        E 108 90 26 1a
        E 148 90 26 00
        E 76 90 24 79
        E 6 90 3e 49
        E 136 90 24 00
        E 1 90 3e 00
        E 335 90 26 78
        E 7 90 3e 74
        E 133 90 26 00
        E 2 90 3e 00
        E 349 90 3e 39
        E 144 90 3e 00
        E 91 90 3e 32
        E 147 90 3e 00
        E 95 90 3e 78
        E 137 90 3e 00
        E 113 90 26 35
        E 146 90 26 00
        E 78 90 3e 45
        E 3 90 24 6e
        E 137 90 3e 00
        E 9 90 24 00
        E 327 90 26 7b
        E 5 90 3e 74
        E 137 90 26 00
        E 6 90 3e 00
        E 335 90 3e 25
        E 134 90 3e 00
        E 98 90 26 13
        E 107 90 26 00
        E 2 90 26 10
        E 136 90 26 00
        E 0 90 24 72
        E 5 90 3e 77
        E 137 90 3e 00
        E 1 90 24 00
        E 335 90 24 7a
        E 7 90 3e 45
        E 128 90 24 00
        E 18 90 3e 00
        E 333 90 26 7a
        E 8 90 3e 77
        E 127 90 26 00
        E 21 90 3e 00
        E 331 90 3e 3a
        E 148 90 3e 00
        E 90 90 3e 30
        E 142 90 3e 00
        E 95 90 3e 74
        E 136 90 3e 00
        E 104 90 26 22
        E 141 90 26 00
        E 94 90 24 6e
        E 6 90 3e 40
        E 135 90 24 00
        E 9 90 3e 00
        E 329 90 26 7a
        E 3 90 3e 79
        E 135 90 26 00
        E 5 90 3e 00
        E 335 90 3e 35
        E 146 90 3e 00
        E 104 90 26 18
        E 117 90 26 00
        E 0 90 26 13
        E 114 90 3e 76
        E 1 90 26 00
        E 0 90 24 71
        E 137 90 3e 00
        E 12 90 24 00
        E 68 90 26 36
        E 145 90 26 00
        E 114 90 24 79
        E 4 90 3e 3b
        E 138 90 3e 00
        E 9 90 24 00
        E 332 90 3e 74
        E 1 90 26 74
        E 137 90 26 00
        E 12 90 3e 00
        E 332 90 3e 3f
        E 145 90 3e 00
        E 94 90 3e 35
        E 140 90 3e 00
        E 102 90 3e 76
        E 148 90 3e 00
        E 89 90 26 1e
        E 144 90 26 00
        E 98 90 24 70
        E 2 90 3e 3b
        E 137 90 24 00
        E 11 90 3e 00
        E 330 90 26 7c
        E 3 90 3e 77
        E 136 90 26 00
        E 11 90 3e 00
        E 330 90 3e 2c
        E 139 90 3e 00
        E 13 90 26 17
        E 122 90 26 00
        E 4 90 26 11
        E 139 90 26 00
        E 62 90 24 71
        E 0 90 3e 74
        E 147 90 3e 00
        E 3 90 24 00
        E 89 90 26 21
        E 139 90 26 00
        E 102 90 24 7a
        E 4 90 3e 3b
        E 137 90 24 00
        E 11 90 3e 00
        E 327 90 26 79
        E 2 90 3e 75
        E 135 90 26 00
        E 2 90 3e 00
        E 346 90 3e 3a
        E 144 90 3e 00
        E 98 90 3e 35
        E 141 90 3e 00
        E 98 90 3e 77
        E 146 90 3e 00
        E 98 90 26 1b
        E 147 90 26 00
        E 81 90 24 70
        E 5 90 3e 41
        E 142 90 24 00
        E 7 90 3e 00
        E 329 90 26 79
        E 3 90 3e 79
        E 135 90 26 00
        E 15 90 3e 00
        E 333 90 3e 1d
        E 144 90 3e 00
        E 44 90 26 16
        E 124 90 26 00
        E 2 90 26 12
        E 138 90 26 00
        E 22 90 24 71
        E 3 90 3e 78
        E 140 90 24 00
        E 3 90 3e 00
        E 105 90 26 1d
        E 148 90 26 00
        E 79 90 24 79
        E 5 90 3e 32
        E 135 90 24 00
        E 12 90 3e 00
        E 330 90 26 7b
        E 6 90 3e 77
        E 139 90 26 00
        E 11 90 3e 00
        E 331 90 3e 3b
        E 143 90 3e 00
        E 98 90 3e 39
        E 140 90 3e 00
        E 97 90 3e 73
        E 137 90 3e 00
        E 106 90 26 33
        E 139 90 26 00
        E 94 90 24 70
        E 4 90 3e 47
        E 137 90 24 00
        E 4 90 3e 00
        E 337 90 26 7b
        E 9 90 3e 78
        E 138 90 3e 00
        E 1 90 26 00
        E 337 90 3e 26
        E 143 90 3e 00
        E 85 90 26 14
        E 147 90 26 00
        E 100 90 24 70
        E 3 90 3e 77
        E 137 90 3e 00
        E 3 90 24 00
        E 107 90 26 1f
        E 137 90 26 00
        E 93 90 24 7b
        E 4 90 3e 4b
        E 142 90 24 00
        E 6 90 3e 00
        E 326 90 26 79
        E 5 90 3e 79
        E 137 90 3e 00
        E 3 90 26 00
        E 339 90 3e 34
        E 143 90 3e 00
        E 98 90 3e 3c
        E 140 90 3e 00
        E 97 90 3e 75
        E 138 90 3e 00
        E 98 90 26 1b
        E 138 90 26 00
        E 103 90 24 70
        E 3 90 3e 51
        E 136 90 24 00
        E 3 90 3e 00
        E 339 90 26 79
        E 4 90 3e 77
        E 143 90 26 00
        E 3 90 3e 00
        E 334 90 3e 30
        E 146 90 3e 00
        E 76 90 26 11
        E 148 90 26 00
        E 105 90 24 70
        E 2 90 3e 77
        E 135 90 24 00
        E 11 90 3e 00
        E 100 90 26 1c
        E 146 90 26 00
        E 86 90 24 79
        E 3 90 3e 35
        E 139 90 24 00
        E 4 90 3e 00
        E 333 90 26 7a
        E 3 90 3e 74
        E 146 90 26 00
        E 1 90 3e 00
        E 332 90 3e 3f
        E 136 90 3e 00
        E 106 90 3e 39
        E 144 90 3e 00
        E 91 90 3e 77
        E 137 90 3e 00
        E 102 90 26 66
        E 149 90 26 00
        E 85 90 24 70
        E 8 90 3e 78
        E 137 90 24 00
        E 12 90 3e 00
        E 332 90 26 7c
        E 1 90 3e 77
        E 134 90 26 00
        E 8 90 3e 00
        E 97 90 26 0e
        E 150 90 26 00
        E 95 90 3e 35
        E 137 90 3e 00
        E 48 90 26 16
        E 126 90 26 00
        E 1 90 26 10
        E 142 90 26 00
        E 21 90 24 71
        E 5 90 3e 77
        E 138 90 3e 00
        E 4 90 24 00
        E 101 90 26 19
        E 143 90 26 00
        E 92 90 24 79
        E 3 90 3e 25
        E 143 90 3e 00
        E 2 90 24 00
        E 330 90 26 79
        E 5 90 3e 73
        E 144 90 26 00
        E 9 90 3e 00
        E 331 90 3e 48
        E 138 90 3e 00
        E 103 90 3e 37
        E 139 90 3e 00
        E 99 90 3e 73
        E 152 90 3e 00
        E 83 90 26 7b
        E 143 90 26 00
        E 99 90 24 70
        E 8 90 3e 35
        E 137 90 24 00
        E 15 90 3e 00
        E 59 90 26 19
        E 108 90 26 00
        E 155 90 26 7f
        E 149 90 26 00
        E 75 90 26 6b
        E 139 90 26 00
        E 109 90 26 7b
        E 149 90 26 00
        E 91 90 26 62
        E 146 90 26 00
        E 94 b0 7b 00
        GUID {FC4990DB-1553-459E-89F8-9322DD8B01EC}
        IGNTEMPO 0 120 4 4
        SRCCOLOR 226
        VELLANE -1 100 0
      >
    >
    <ITEM
      POSITION 80.64000000001397
      SNAPOFFS 0
      LENGTH 13.09617177041245
      LOOP 1
      ALLTAKES 0
      FADEIN 1 0 0 1 0 0
      FADEOUT 1 0 0 1 0 0
      MUTE 0
      SEL 0
      IGUID {5C167580-0F72-4265-B3D0-187B7CAF20DD}
      IID 25
      NAME "Variation 04 - Variation_04.mid"
      VOLPAN 1 0 1 -1
      SOFFS 0 0
      PLAYRATE 1 1 0 -1 0 0.0025
      CHANMODE 0
      GUID {63ABDDFB-1E97-46AC-AEBB-4F677EBF8FD9}
      <SOURCE MIDI
        HASDATA 1 960 QN
        POOLEDEVTS {AAF80ECB-4A55-49D8-9514-CBBDBEA39F6E}
        <X 0 0
          /wNWYXJpYXRpb24gMDQ=
        >
        E 0 90 39 70
        E 0 90 24 76
        E 137 90 24 00
        E 9 90 39 00
        E 331 90 2b 5a
        E 3 90 35 5d
        E 136 90 2b 00
        E 2 90 35 00
        E 342 90 26 79
        E 8 90 31 4d
        E 136 90 26 00
        E 1 90 31 00
        E 330 90 2b 6e
        E 5 90 35 5e
        E 135 90 2b 00
        E 3 90 35 00
        E 342 90 24 76
        E 1 90 2b 6e
        E 139 90 24 00
        E 10 90 2b 00
        E 89 90 26 12
        E 136 90 26 00
        E 98 90 35 5f
        E 5 90 2b 38
        E 133 90 35 00
        E 17 90 2b 00
        E 332 90 26 79
        E 0 90 2b 6e
        E 136 90 26 00
        E 6 90 2b 00
        E 332 90 35 5e
        E 8 90 2b 3a
        E 133 90 35 00
        E 8 90 2b 00
        E 337 90 24 77
        E 2 90 2b 6e
        E 132 90 24 00
        E 8 90 2b 00
        E 326 90 35 5f
        E 9 90 2b 38
        E 130 90 35 00
        E 15 90 2b 00
        E 338 90 26 79
        E 1 90 2b 60
        E 136 90 26 00
        E 6 90 2b 00
        E 329 90 35 5f
        E 7 90 2b 35
        E 140 90 35 00
        E 6 90 2b 00
        E 335 90 24 77
        E 2 90 2b 64
        E 135 90 24 00
        E 12 90 2b 00
        E 318 90 35 5f
        E 14 90 2b 35
        E 122 90 35 00
        E 15 90 2b 00
        E 342 90 26 79
        E 4 90 2b 6d
        E 138 90 2b 00
        E 3 90 26 00
        E 328 90 35 5e
        E 13 90 2b 2f
        E 121 90 35 00
        E 20 90 2b 00
        E 333 90 24 76
        E 1 90 2b 6e
        E 148 90 2b 00
        E 3 90 24 00
        E 314 90 35 5e
        E 9 90 2b 27
        E 131 90 35 00
        E 17 90 2b 00
        E 337 90 26 7a
        E 4 90 2b 6c
        E 143 90 26 00
        E 7 90 2b 00
        E 318 90 35 5e
        E 9 90 2b 2c
        E 135 90 35 00
        E 17 90 2b 00
        E 327 90 24 76
        E 1 90 2b 6c
        E 147 90 2b 00
        E 1 90 24 00
        E 321 90 35 5d
        E 14 90 2b 36
        E 128 90 35 00
        E 18 90 2b 00
        E 331 90 26 79
        E 5 90 2b 66
        E 135 90 26 00
        E 12 90 2b 00
        E 321 90 35 5d
        E 9 90 2b 38
        E 139 90 35 00
        E 5 90 2b 00
        E 333 90 24 76
        E 2 90 2b 6c
        E 139 90 2b 00
        E 1 90 24 00
        E 327 90 35 5e
        E 8 90 2b 2f
        E 134 90 35 00
        E 6 90 2b 00
        E 344 90 26 7a
        E 3 90 2b 6e
        E 139 90 2b 00
        E 3 90 26 00
        E 326 90 35 5f
        E 6 90 2b 32
        E 135 90 35 00
        E 9 90 2b 00
        E 337 90 24 76
        E 0 90 2b 5f
        E 138 90 2b 00
        E 6 90 24 00
        E 333 90 35 5e
        E 3 90 2b 31
        E 136 90 35 00
        E 0 90 2b 00
        E 345 90 26 7a
        E 4 90 2b 6e
        E 116 90 26 00
        E 26 90 2b 00
        E 318 90 26 5a
        E 9 90 35 5d
        E 133 90 26 00
        E 6 90 35 00
        E 112 90 26 7a
        E 135 90 26 00
        E 101 90 31 5d
        E 0 90 24 76
        E 142 90 24 00
        E 3 90 31 00
        E 321 90 35 5d
        E 5 90 2b 57
        E 133 90 35 00
        E 3 90 2b 00
        E 315 90 31 6f
        E 35 90 26 79
        E 104 90 31 00
        E 33 90 26 00
        E 335 90 35 5f
        E 2 90 2b 39
        E 135 90 35 00
        E 7 90 2b 00
        E 343 90 2b 66
        E 2 90 24 75
        E 138 90 2b 00
        E 5 90 24 00
        E 97 90 26 0c
        E 147 90 26 00
        E 90 90 35 5e
        E 1 90 2b 31
        E 136 90 35 00
        E 8 90 2b 00
        E 340 90 26 7a
        E 3 90 2b 6d
        E 139 90 26 00
        E 8 90 2b 00
        E 330 90 35 5f
        E 1 90 2b 2e
        E 139 90 35 00
        E 4 90 2b 00
        E 335 90 24 76
        E 1 90 2b 6d
        E 145 90 24 00
        E 5 90 2b 00
        E 320 90 35 5d
        E 10 90 2b 2a
        E 126 90 35 00
        E 14 90 2b 00
        E 341 90 26 79
        E 5 90 2b 6e
        E 136 90 26 00
        E 10 90 2b 00
        E 320 90 35 5f
        E 7 90 2b 2b
        E 143 90 35 00
        E 6 90 2b 00
        E 332 90 24 74
        E 2 90 2b 6e
        E 141 90 2b 00
        E 6 90 24 00
        E 328 90 35 5e
        E 2 90 2b 2d
        E 138 90 35 00
        E 4 90 2b 00
        E 339 90 26 7a
        E 4 90 2b 6e
        E 140 90 2b 00
        E 6 90 26 00
        E 320 90 35 5d
        E 6 90 2b 29
        E 121 90 2b 00
        E 13 90 35 00
        E 83 90 2b 2d
        E 38 90 2b 00
        E 0 90 2b 49
        E 108 90 2b 00
        E 119 90 2b 6e
        E 2 90 24 76
        E 138 90 2b 00
        E 9 90 24 00
        E 331 90 35 5f
        E 2 90 2b 2d
        E 137 90 2b 00
        E 1 90 35 00
        E 342 90 26 79
        E 2 90 2b 5e
        E 141 90 26 00
        E 5 90 2b 00
        E 321 90 35 5e
        E 6 90 2b 31
        E 138 90 35 00
        E 9 90 2b 00
        E 332 90 2b 6d
        E 5 90 24 76
        E 135 90 2b 00
        E 12 90 24 00
        E 326 90 35 5d
        E 2 90 2b 30
        E 137 90 35 00
        E 9 90 2b 00
        E 340 90 2b 6d
        E 0 90 26 7a
        E 138 90 2b 00
        E 12 90 26 00
        E 317 90 35 5f
        E 9 90 2b 35
        E 139 90 35 00
        E 2 90 2b 00
        E 343 90 24 76
        E 1 90 2b 6e
        E 137 90 2b 00
        E 3 90 24 00
        E 331 90 35 5e
        E 6 90 2b 32
        E 136 90 35 00
        E 9 90 2b 00
        E 338 90 26 79
        E 4 90 2b 6d
        E 140 90 26 00
        E 1 90 2b 00
        E 327 90 35 5f
        E 7 90 2b 3c
        E 135 90 35 00
        E 9 90 2b 00
        E 337 90 24 76
        E 4 90 2b 6c
        E 134 90 24 00
        E 13 90 2b 00
        E 328 90 35 5f
        E 1 90 26 79
        E 6 90 30 7f
        E 128 90 26 00
        E 10 90 35 00
        E 4 90 30 00
        E 346 90 26 7c
        E 7 90 30 7b
        E 137 90 26 00
        E 1 90 30 00
        E 314 90 26 7c
        E 2 90 30 7f
        E 143 90 26 00
        E 6 90 30 00
        E 335 b0 7b 00
        GUID {09AD4CD2-D1D4-4167-97B3-04FE55BE9186}
        IGNTEMPO 0 120 4 4
        SRCCOLOR 252
        VELLANE -1 100 0
      >
    >
    <ITEM
      POSITION 96.00052204437256
      SNAPOFFS 0
      LENGTH 2.39947795562745
      LOOP 1
      ALLTAKES 0
      FADEIN 1 0 0 1 0 0
      FADEOUT 1 0 0 1 0 0
      MUTE 0
      SEL 0
      IGUID {DC019255-FAF4-4C63-AA30-E49866A845F7}
      IID 83
      NAME "Variation 06.mid - Variation 06.mid"
      VOLPAN 1 0 1 -1
      SOFFS 0.95999999999069 1.99999999998059
      PLAYRATE 1 1 0 -1 0 0.0025
      CHANMODE 0
      GUID {4A8DBA6F-B0B1-4470-84EF-3E1D8D732557}
      <SOURCE MIDI
        HASDATA 1 960 QN
        POOLEDEVTS {05FD8908-D683-44F8-B957-CA05272BB6B3}
        <X 0 0
          /wNWYXJpYXRpb24gMDYubWlk
        >
        E 0 90 24 7f
        E 36 90 31 7f
        E 91 90 24 00
        E 36 90 31 00
        E 319 90 24 7f
        E 8 90 19 57
        E 119 90 24 00
        E 8 90 19 00
        E 344 90 19 7f
        E 4 90 26 7e
        E 123 90 19 00
        E 4 90 26 00
        E 338 90 24 63
        E 2 90 19 53
        E 125 90 24 00
        E 2 90 19 00
        E 116 90 26 35
        E 127 90 26 00
        E 113 90 19 7f
        E 7 90 24 7f
        E 120 90 19 00
        E 7 90 24 00
        E 117 90 26 48
        E 127 90 26 00
        E 113 90 26 63
        E 126 90 26 00
        E 110 90 26 78
        E 127 90 26 00
        E 108 90 24 7d
        E 127 90 24 00
        E 120 90 26 66
        E 127 90 26 00
        E 109 90 26 7c
        E 127 90 26 00
        E 113 90 26 42
        E 126 90 26 00
        E 109 90 30 7b
        E 14 90 24 7f
        E 1 90 15 54
        E 111 90 30 00
        E 14 90 24 00
        E 2 90 15 00
        E 344 90 30 5e
        E 127 90 30 00
        E 112 90 30 7a
        E 127 90 30 00
        E 110 90 24 7f
        E 13 90 15 56
        E 114 90 24 00
        E 13 90 15 00
        E 111 90 30 7b
        E 127 90 30 00
        E 105 90 2f 7d
        E 127 90 2f 00
        E 349 90 2f 7b
        E 4 90 15 56
        E 0 90 24 7f
        E 123 90 2f 00
        E 4 90 15 00
        E 0 90 24 00
        E 123 90 2f 6b
        E 127 90 2f 00
        E 93 90 2d 79
        E 126 90 2d 00
        E 117 90 2d 7b
        E 127 90 2d 00
        E 117 90 15 58
        E 8 90 2b 74
        E 119 90 15 00
        E 8 90 2b 00
        E 102 90 2b 71
        E 127 90 2b 00
        E 106 90 31 7f
        E 13 90 24 7f
        E 114 90 31 00
        E 13 90 24 00
        E 353 b0 7b 00
        GUID {B46513AC-1C7A-4966-A619-11E702C9AAD9}
        IGNTEMPO 0 120 4 4
        SRCCOLOR 277
        VELLANE -1 100 0
      >
    >
    <ITEM
      POSITION 98.4
      SNAPOFFS 0
      LENGTH 3.36
      LOOP 1
      ALLTAKES 0
      FADEIN 1 0 0 1 0 0
      FADEOUT 1 0 0 1 0 0
      MUTE 0
      SEL 0
      IGUID {11830946-0D2C-4A38-AA4B-BBEFE33A02A4}
      IID 82
      NAME "Variation 01 - Variation_01.mid"
      VOLPAN 1 0 1 -1
      SOFFS 0.48 1
      PLAYRATE 1 1 0 -1 0 0.0025
      CHANMODE 0
      GUID {084DD774-0647-4623-B9ED-C321C8D58E36}
      <SOURCE MIDI
        HASDATA 1 960 QN
        POOLEDEVTS {DE888B7D-66A4-4277-B16A-9E9D155A7D3D}
        <X 0 0
          /wNWYXJpYXRpb24gMDE=
        >
        E 0 90 24 7d
        E 8 90 31 7f
        E 112 90 24 00
        E 8 90 31 00
        E 828 90 2b 72
        E 2 90 24 7d
        E 118 90 2b 00
        E 2 90 24 00
        E 358 90 2b 52
        E 120 90 2b 00
        E 359 90 2b 69
        E 9 90 24 7a
        E 111 90 2b 00
        E 9 90 24 00
        E 366 90 2b 4d
        E 120 90 2b 00
        E 350 90 24 7b
        E 3 90 2b 72
        E 117 90 24 00
        E 3 90 2b 00
        E 357 90 2b 50
        E 120 90 2b 00
        E 352 90 24 79
        E 6 90 2b 6c
        E 114 90 24 00
        E 6 90 2b 00
        E 358 90 2b 55
        E 120 90 2b 00
        E 356 90 24 7c
        E 3 90 2b 78
        E 117 90 24 00
        E 3 90 2b 00
        E 369 90 2b 50
        E 120 90 2b 00
        E 356 90 2b 6e
        E 3 90 24 79
        E 117 90 2b 00
        E 3 90 24 00
        E 353 90 2b 52
        E 120 90 2b 00
        E 358 90 24 7d
        E 3 90 2b 73
        E 117 90 24 00
        E 3 90 2b 00
        E 371 90 2b 4d
        E 120 90 2b 00
        E 351 90 24 7a
        E 7 90 2b 6d
        E 113 90 24 00
        E 7 90 2b 00
        E 361 90 2b 4b
        E 120 90 2b 00
        E 356 90 24 78
        E 4 90 2b 79
        E 116 90 24 00
        E 4 90 2b 00
        E 355 90 2b 46
        E 120 90 2b 00
        E 358 90 24 7c
        E 6 90 2b 69
        E 114 90 24 00
        E 6 90 2b 00
        E 351 90 2b 51
        E 120 90 2b 00
        E 363 90 2b 77
        E 3 90 24 79
        E 117 90 2b 00
        E 3 90 24 00
        E 348 90 2b 4c
        E 120 90 2b 00
        E 360 90 24 7d
        E 8 90 2b 6c
        E 112 90 24 00
        E 8 90 2b 00
        E 362 90 2b 50
        E 120 90 2b 00
        E 359 90 2b 79
        E 3 90 24 7d
        E 117 90 2b 00
        E 3 90 24 00
        E 363 90 2b 4d
        E 120 90 2b 00
        E 355 90 2b 6d
        E 2 90 24 7a
        E 118 90 2b 00
        E 2 90 24 00
        E 355 90 2b 4b
        E 120 90 2b 00
        E 361 90 24 7d
        E 1 90 2b 77
        E 119 90 24 00
        E 1 90 2b 00
        E 357 90 2b 50
        E 120 90 2b 00
        E 123 90 2b 49
        E 120 90 2b 00
        E 120 90 24 7a
        E 5 90 2b 76
        E 115 90 24 00
        E 5 90 2b 00
        E 351 90 2b 48
        E 120 90 2b 00
        E 354 90 2b 77
        E 8 90 24 7c
        E 113 90 2b 00
        E 7 90 24 00
        E 353 90 2b 50
        E 120 90 2b 00
        E 369 90 2b 69
        E 2 90 24 7d
        E 118 90 2b 00
        E 2 90 24 00
        E 356 90 2b 4c
        E 120 90 2b 00
        E 362 90 24 79
        E 5 90 2b 76
        E 115 90 24 00
        E 5 90 2b 00
        E 354 90 2b 4f
        E 120 90 2b 00
        E 361 90 24 7d
        E 0 90 2b 6d
        E 120 90 24 00
        E 0 90 2b 00
        E 365 90 2b 4b
        E 120 90 2b 00
        E 352 90 24 79
        E 1 90 2b 7b
        E 119 90 24 00
        E 1 90 2b 00
        E 366 90 2b 53
        E 120 90 2b 00
        E 355 90 2b 6c
        E 0 90 24 7d
        E 120 90 2b 00
        E 0 90 24 00
        E 360 90 2b 4a
        E 120 90 2b 00
        E 356 90 2b 77
        E 7 90 24 7b
        E 113 90 2b 00
        E 7 90 24 00
        E 353 90 2b 4f
        E 120 90 2b 00
        E 362 90 2b 6b
        E 0 90 24 7d
        E 120 90 2b 00
        E 0 90 24 00
        E 361 90 2b 4c
        E 120 90 2b 00
        E 365 90 24 7d
        E 1 90 2b 78
        E 119 90 24 00
        E 1 90 2b 00
        E 351 90 2b 4f
        E 120 90 2b 00
        E 358 90 2b 6f
        E 3 90 24 79
        E 117 90 2b 00
        E 3 90 24 00
        E 368 90 2b 54
        E 120 90 2b 00
        E 361 90 2b 7b
        E 0 90 24 7b
        E 120 90 2b 00
        E 0 90 24 00
        E 364 90 2b 50
        E 120 90 2b 00
        E 354 90 24 7d
        E 0 90 2b 6c
        E 120 90 24 00
        E 0 90 2b 00
        E 356 90 2b 4b
        E 120 90 2b 00
        E 363 90 2b 78
        E 0 90 24 79
        E 120 90 2b 00
        E 0 90 24 00
        E 355 90 2b 55
        E 120 90 2b 00
        E 123 90 2b 50
        E 120 90 2b 00
        E 120 90 24 7d
        E 0 90 2b 7b
        E 120 90 24 00
        E 0 90 2b 00
        E 358 90 2b 4e
        E 120 90 2b 00
        E 356 90 2b 73
        E 1 90 24 7b
        E 119 90 2b 00
        E 1 90 24 00
        E 365 90 2b 77
        E 120 90 2b 00
        E 360 b0 7b 00
        GUID {7025E123-9A18-43C4-80B8-3FA0E583AE10}
        IGNTEMPO 0 120 4 4
        SRCCOLOR 274
        VELLANE -1 100 0
      >
    >
    <ITEM
      POSITION 103.68
      SNAPOFFS 0
      LENGTH 3.36
      LOOP 1
      ALLTAKES 0
      FADEIN 1 0 0 1 0 0
      FADEOUT 1 0 0 1 0 0
      MUTE 0
      SEL 0
      IGUID {9F698C51-C747-4DCF-8AA1-C914BF5ECF14}
      IID 82
      NAME "Variation 01 - Variation_01.mid"
      VOLPAN 1 0 1 -1
      SOFFS 0.48 1
      PLAYRATE 1 1 0 -1 0 0.0025
      CHANMODE 0
      GUID {1DE0203C-223A-4A3C-A92A-010703808522}
      <SOURCE MIDI
        HASDATA 1 960 QN
        POOLEDEVTS {BE3AF9FF-0784-4651-92B9-020EE25ED9D9}
        <X 0 0
          /wNWYXJpYXRpb24gMDE=
        >
        E 0 90 24 7d
        E 8 90 31 7f
        E 112 90 24 00
        E 8 90 31 00
        E 828 90 2b 72
        E 2 90 24 7d
        E 118 90 2b 00
        E 2 90 24 00
        E 358 90 2b 52
        E 120 90 2b 00
        E 359 90 2b 69
        E 9 90 24 7a
        E 111 90 2b 00
        E 9 90 24 00
        E 366 90 2b 4d
        E 120 90 2b 00
        E 350 90 24 7b
        E 3 90 2b 72
        E 117 90 24 00
        E 3 90 2b 00
        E 357 90 2b 50
        E 120 90 2b 00
        E 352 90 24 79
        E 6 90 2b 6c
        E 114 90 24 00
        E 6 90 2b 00
        E 358 90 2b 55
        E 120 90 2b 00
        E 356 90 24 7c
        E 3 90 2b 78
        E 117 90 24 00
        E 3 90 2b 00
        E 369 90 2b 50
        E 120 90 2b 00
        E 356 90 2b 6e
        E 3 90 24 79
        E 117 90 2b 00
        E 3 90 24 00
        E 353 90 2b 52
        E 120 90 2b 00
        E 358 90 24 7d
        E 3 90 2b 73
        E 117 90 24 00
        E 3 90 2b 00
        E 371 90 2b 4d
        E 120 90 2b 00
        E 351 90 24 7a
        E 7 90 2b 6d
        E 113 90 24 00
        E 7 90 2b 00
        E 361 90 2b 4b
        E 120 90 2b 00
        E 356 90 24 78
        E 4 90 2b 79
        E 116 90 24 00
        E 4 90 2b 00
        E 355 90 2b 46
        E 120 90 2b 00
        E 358 90 24 7c
        E 6 90 2b 69
        E 114 90 24 00
        E 6 90 2b 00
        E 351 90 2b 51
        E 120 90 2b 00
        E 363 90 2b 77
        E 3 90 24 79
        E 117 90 2b 00
        E 3 90 24 00
        E 348 90 2b 4c
        E 120 90 2b 00
        E 360 90 24 7d
        E 8 90 2b 6c
        E 112 90 24 00
        E 8 90 2b 00
        E 362 90 2b 50
        E 120 90 2b 00
        E 359 90 2b 79
        E 3 90 24 7d
        E 117 90 2b 00
        E 3 90 24 00
        E 363 90 2b 4d
        E 120 90 2b 00
        E 355 90 2b 6d
        E 2 90 24 7a
        E 118 90 2b 00
        E 2 90 24 00
        E 355 90 2b 4b
        E 120 90 2b 00
        E 361 90 24 7d
        E 1 90 2b 77
        E 119 90 24 00
        E 1 90 2b 00
        E 357 90 2b 50
        E 120 90 2b 00
        E 123 90 2b 49
        E 120 90 2b 00
        E 120 90 24 7a
        E 5 90 2b 76
        E 115 90 24 00
        E 5 90 2b 00
        E 351 90 2b 48
        E 120 90 2b 00
        E 354 90 2b 77
        E 8 90 24 7c
        E 113 90 2b 00
        E 7 90 24 00
        E 353 90 2b 50
        E 120 90 2b 00
        E 369 90 2b 69
        E 2 90 24 7d
        E 118 90 2b 00
        E 2 90 24 00
        E 356 90 2b 4c
        E 120 90 2b 00
        E 362 90 24 79
        E 5 90 2b 76
        E 115 90 24 00
        E 5 90 2b 00
        E 354 90 2b 4f
        E 120 90 2b 00
        E 361 90 24 7d
        E 0 90 2b 6d
        E 120 90 24 00
        E 0 90 2b 00
        E 365 90 2b 4b
        E 120 90 2b 00
        E 352 90 24 79
        E 1 90 2b 7b
        E 119 90 24 00
        E 1 90 2b 00
        E 366 90 2b 53
        E 120 90 2b 00
        E 355 90 2b 6c
        E 0 90 24 7d
        E 120 90 2b 00
        E 0 90 24 00
        E 360 90 2b 4a
        E 120 90 2b 00
        E 356 90 2b 77
        E 7 90 24 7b
        E 113 90 2b 00
        E 7 90 24 00
        E 353 90 2b 4f
        E 120 90 2b 00
        E 362 90 2b 6b
        E 0 90 24 7d
        E 120 90 2b 00
        E 0 90 24 00
        E 361 90 2b 4c
        E 120 90 2b 00
        E 365 90 24 7d
        E 1 90 2b 78
        E 119 90 24 00
        E 1 90 2b 00
        E 351 90 2b 4f
        E 120 90 2b 00
        E 358 90 2b 6f
        E 3 90 24 79
        E 117 90 2b 00
        E 3 90 24 00
        E 368 90 2b 54
        E 120 90 2b 00
        E 361 90 2b 7b
        E 0 90 24 7b
        E 120 90 2b 00
        E 0 90 24 00
        E 364 90 2b 50
        E 120 90 2b 00
        E 354 90 24 7d
        E 0 90 2b 6c
        E 120 90 24 00
        E 0 90 2b 00
        E 356 90 2b 4b
        E 120 90 2b 00
        E 363 90 2b 78
        E 0 90 24 79
        E 120 90 2b 00
        E 0 90 24 00
        E 355 90 2b 55
        E 120 90 2b 00
        E 123 90 2b 50
        E 120 90 2b 00
        E 120 90 24 7d
        E 0 90 2b 7b
        E 120 90 24 00
        E 0 90 2b 00
        E 358 90 2b 4e
        E 120 90 2b 00
        E 356 90 2b 73
        E 1 90 24 7b
        E 119 90 2b 00
        E 1 90 24 00
        E 365 90 2b 77
        E 120 90 2b 00
        E 360 b0 7b 00
        GUID {7025E123-9A18-43C4-80B8-3FA0E583AE10}
        IGNTEMPO 0 120 4 4
        SRCCOLOR 274
        VELLANE -1 100 0
      >
    >
    <ITEM
      POSITION 109.92
      SNAPOFFS 0
      LENGTH 3.36
      LOOP 1
      ALLTAKES 0
      FADEIN 1 0 0 1 0 0
      FADEOUT 1 0 0 1 0 0
      MUTE 0
      SEL 0
      IGUID {FB1C8B14-35B9-424A-AC83-60F3BC546850}
      IID 82
      NAME "Variation 01 - Variation_01.mid"
      VOLPAN 1 0 1 -1
      SOFFS 0.48 1
      PLAYRATE 1 1 0 -1 0 0.0025
      CHANMODE 0
      GUID {80511BB4-B5B7-4AE1-B15C-4CA031113E9B}
      <SOURCE MIDI
        HASDATA 1 960 QN
        POOLEDEVTS {2AABB6A8-1D44-48F3-A139-A26F10E6EE9E}
        <X 0 0
          /wNWYXJpYXRpb24gMDE=
        >
        E 0 90 24 7d
        E 8 90 31 7f
        E 112 90 24 00
        E 8 90 31 00
        E 828 90 2b 72
        E 2 90 24 7d
        E 118 90 2b 00
        E 2 90 24 00
        E 358 90 2b 52
        E 120 90 2b 00
        E 359 90 2b 69
        E 9 90 24 7a
        E 111 90 2b 00
        E 9 90 24 00
        E 366 90 2b 4d
        E 120 90 2b 00
        E 350 90 24 7b
        E 3 90 2b 72
        E 117 90 24 00
        E 3 90 2b 00
        E 357 90 2b 50
        E 120 90 2b 00
        E 352 90 24 79
        E 6 90 2b 6c
        E 114 90 24 00
        E 6 90 2b 00
        E 358 90 2b 55
        E 120 90 2b 00
        E 356 90 24 7c
        E 3 90 2b 78
        E 117 90 24 00
        E 3 90 2b 00
        E 369 90 2b 50
        E 120 90 2b 00
        E 356 90 2b 6e
        E 3 90 24 79
        E 117 90 2b 00
        E 3 90 24 00
        E 353 90 2b 52
        E 120 90 2b 00
        E 358 90 24 7d
        E 3 90 2b 73
        E 117 90 24 00
        E 3 90 2b 00
        E 371 90 2b 4d
        E 120 90 2b 00
        E 351 90 24 7a
        E 7 90 2b 6d
        E 113 90 24 00
        E 7 90 2b 00
        E 361 90 2b 4b
        E 120 90 2b 00
        E 356 90 24 78
        E 4 90 2b 79
        E 116 90 24 00
        E 4 90 2b 00
        E 355 90 2b 46
        E 120 90 2b 00
        E 358 90 24 7c
        E 6 90 2b 69
        E 114 90 24 00
        E 6 90 2b 00
        E 351 90 2b 51
        E 120 90 2b 00
        E 363 90 2b 77
        E 3 90 24 79
        E 117 90 2b 00
        E 3 90 24 00
        E 348 90 2b 4c
        E 120 90 2b 00
        E 360 90 24 7d
        E 8 90 2b 6c
        E 112 90 24 00
        E 8 90 2b 00
        E 362 90 2b 50
        E 120 90 2b 00
        E 359 90 2b 79
        E 3 90 24 7d
        E 117 90 2b 00
        E 3 90 24 00
        E 363 90 2b 4d
        E 120 90 2b 00
        E 355 90 2b 6d
        E 2 90 24 7a
        E 118 90 2b 00
        E 2 90 24 00
        E 355 90 2b 4b
        E 120 90 2b 00
        E 361 90 24 7d
        E 1 90 2b 77
        E 119 90 24 00
        E 1 90 2b 00
        E 357 90 2b 50
        E 120 90 2b 00
        E 123 90 2b 49
        E 120 90 2b 00
        E 120 90 24 7a
        E 5 90 2b 76
        E 115 90 24 00
        E 5 90 2b 00
        E 351 90 2b 48
        E 120 90 2b 00
        E 354 90 2b 77
        E 8 90 24 7c
        E 113 90 2b 00
        E 7 90 24 00
        E 353 90 2b 50
        E 120 90 2b 00
        E 369 90 2b 69
        E 2 90 24 7d
        E 118 90 2b 00
        E 2 90 24 00
        E 356 90 2b 4c
        E 120 90 2b 00
        E 362 90 24 79
        E 5 90 2b 76
        E 115 90 24 00
        E 5 90 2b 00
        E 354 90 2b 4f
        E 120 90 2b 00
        E 361 90 24 7d
        E 0 90 2b 6d
        E 120 90 24 00
        E 0 90 2b 00
        E 365 90 2b 4b
        E 120 90 2b 00
        E 352 90 24 79
        E 1 90 2b 7b
        E 119 90 24 00
        E 1 90 2b 00
        E 366 90 2b 53
        E 120 90 2b 00
        E 355 90 2b 6c
        E 0 90 24 7d
        E 120 90 2b 00
        E 0 90 24 00
        E 360 90 2b 4a
        E 120 90 2b 00
        E 356 90 2b 77
        E 7 90 24 7b
        E 113 90 2b 00
        E 7 90 24 00
        E 353 90 2b 4f
        E 120 90 2b 00
        E 362 90 2b 6b
        E 0 90 24 7d
        E 120 90 2b 00
        E 0 90 24 00
        E 361 90 2b 4c
        E 120 90 2b 00
        E 365 90 24 7d
        E 1 90 2b 78
        E 119 90 24 00
        E 1 90 2b 00
        E 351 90 2b 4f
        E 120 90 2b 00
        E 358 90 2b 6f
        E 3 90 24 79
        E 117 90 2b 00
        E 3 90 24 00
        E 368 90 2b 54
        E 120 90 2b 00
        E 361 90 2b 7b
        E 0 90 24 7b
        E 120 90 2b 00
        E 0 90 24 00
        E 364 90 2b 50
        E 120 90 2b 00
        E 354 90 24 7d
        E 0 90 2b 6c
        E 120 90 24 00
        E 0 90 2b 00
        E 356 90 2b 4b
        E 120 90 2b 00
        E 363 90 2b 78
        E 0 90 24 79
        E 120 90 2b 00
        E 0 90 24 00
        E 355 90 2b 55
        E 120 90 2b 00
        E 123 90 2b 50
        E 120 90 2b 00
        E 120 90 24 7d
        E 0 90 2b 7b
        E 120 90 24 00
        E 0 90 2b 00
        E 358 90 2b 4e
        E 120 90 2b 00
        E 356 90 2b 73
        E 1 90 24 7b
        E 119 90 2b 00
        E 1 90 24 00
        E 365 90 2b 77
        E 120 90 2b 00
        E 360 b0 7b 00
        GUID {7025E123-9A18-43C4-80B8-3FA0E583AE10}
        IGNTEMPO 0 120 4 4
        SRCCOLOR 274
        VELLANE -1 100 0
      >
    >
    <ITEM
      POSITION 114.24
      SNAPOFFS 0
      LENGTH 1.92
      LOOP 1
      ALLTAKES 0
      FADEIN 1 0 0 1 0 0
      FADEOUT 1 0 0 1 0 0
      MUTE 0
      SEL 0
      IGUID {954C32E1-8CA6-427B-A4BE-EFF6E7CF21F7}
      IID 89
      NAME "Variation 01 - Variation_01.mid"
      VOLPAN 1 0 1 -1
      SOFFS 0 0
      PLAYRATE 1 1 0 -1 0 0.0025
      CHANMODE 0
      GUID {8D069A17-B53D-434B-B2E5-A83A33F615C5}
      <SOURCE MIDI
        HASDATA 1 960 QN
        POOLEDEVTS {4011A726-590A-4791-95D4-0BC3BCB2E97B}
        <X 0 0
          /wNWYXJpYXRpb24gMDE=
        >
        E 0 90 24 79
        E 3 90 3e 76
        E 117 90 24 00
        E 3 90 3e 00
        E 354 90 24 7e
        E 2 90 3f 48
        E 118 90 24 00
        E 2 90 3f 00
        E 357 90 26 7c
        E 12 90 3e 7e
        E 108 90 26 00
        E 12 90 3e 00
        E 345 90 26 75
        E 120 90 26 00
        E 126 90 26 6a
        E 120 90 26 00
        E 122 90 24 7c
        E 5 90 39 7c
        E 115 90 24 00
        E 5 90 39 00
        E 359 90 26 78
        E 120 90 26 00
        E 122 90 26 6e
        E 120 90 26 00
        E 110 90 24 7c
        E 1 90 31 7c
        E 119 90 24 00
        E 1 90 31 00
        E 363 90 26 72
        E 120 90 26 00
        E 100 90 26 7d
        E 120 90 26 00
        E 139 b0 7b 00
        GUID {3656FC4B-BDE8-4518-A6F2-DF865EF3EF6E}
        IGNTEMPO 0 120 4 4
        SRCCOLOR 290
        VELLANE -1 100 0
      >
    >
    <ITEM
      POSITION 115.68
      SNAPOFFS 0
      LENGTH 3.36
      LOOP 1
      ALLTAKES 0
      FADEIN 1 0 0 1 0 0
      FADEOUT 1 0 0 1 0 0
      MUTE 0
      SEL 0
      IGUID {EED80C2E-1FEE-4764-A6C8-24D903814228}
      IID 82
      NAME "Variation 01 - Variation_01.mid"
      VOLPAN 1 0 1 -1
      SOFFS 0.48 1
      PLAYRATE 1 1 0 -1 0 0.0025
      CHANMODE 0
      GUID {9CE5C942-41C3-45E3-B511-0301ACDF34F6}
      <SOURCE MIDI
        HASDATA 1 960 QN
        POOLEDEVTS {28F5386C-FD5A-4874-A075-C13548BE05E1}
        <X 0 0
          /wNWYXJpYXRpb24gMDE=
        >
        E 0 90 24 7d
        E 8 90 31 7f
        E 112 90 24 00
        E 8 90 31 00
        E 828 90 2b 72
        E 2 90 24 7d
        E 118 90 2b 00
        E 2 90 24 00
        E 358 90 2b 52
        E 120 90 2b 00
        E 359 90 2b 69
        E 9 90 24 7a
        E 111 90 2b 00
        E 9 90 24 00
        E 366 90 2b 4d
        E 120 90 2b 00
        E 350 90 24 7b
        E 3 90 2b 72
        E 117 90 24 00
        E 3 90 2b 00
        E 357 90 2b 50
        E 120 90 2b 00
        E 352 90 24 79
        E 6 90 2b 6c
        E 114 90 24 00
        E 6 90 2b 00
        E 358 90 2b 55
        E 120 90 2b 00
        E 356 90 24 7c
        E 3 90 2b 78
        E 117 90 24 00
        E 3 90 2b 00
        E 369 90 2b 50
        E 120 90 2b 00
        E 356 90 2b 6e
        E 3 90 24 79
        E 117 90 2b 00
        E 3 90 24 00
        E 353 90 2b 52
        E 120 90 2b 00
        E 358 90 24 7d
        E 3 90 2b 73
        E 117 90 24 00
        E 3 90 2b 00
        E 371 90 2b 4d
        E 120 90 2b 00
        E 351 90 24 7a
        E 7 90 2b 6d
        E 113 90 24 00
        E 7 90 2b 00
        E 361 90 2b 4b
        E 120 90 2b 00
        E 356 90 24 78
        E 4 90 2b 79
        E 116 90 24 00
        E 4 90 2b 00
        E 355 90 2b 46
        E 120 90 2b 00
        E 358 90 24 7c
        E 6 90 2b 69
        E 114 90 24 00
        E 6 90 2b 00
        E 351 90 2b 51
        E 120 90 2b 00
        E 363 90 2b 77
        E 3 90 24 79
        E 117 90 2b 00
        E 3 90 24 00
        E 348 90 2b 4c
        E 120 90 2b 00
        E 360 90 24 7d
        E 8 90 2b 6c
        E 112 90 24 00
        E 8 90 2b 00
        E 362 90 2b 50
        E 120 90 2b 00
        E 359 90 2b 79
        E 3 90 24 7d
        E 117 90 2b 00
        E 3 90 24 00
        E 363 90 2b 4d
        E 120 90 2b 00
        E 355 90 2b 6d
        E 2 90 24 7a
        E 118 90 2b 00
        E 2 90 24 00
        E 355 90 2b 4b
        E 120 90 2b 00
        E 361 90 24 7d
        E 1 90 2b 77
        E 119 90 24 00
        E 1 90 2b 00
        E 357 90 2b 50
        E 120 90 2b 00
        E 123 90 2b 49
        E 120 90 2b 00
        E 120 90 24 7a
        E 5 90 2b 76
        E 115 90 24 00
        E 5 90 2b 00
        E 351 90 2b 48
        E 120 90 2b 00
        E 354 90 2b 77
        E 8 90 24 7c
        E 113 90 2b 00
        E 7 90 24 00
        E 353 90 2b 50
        E 120 90 2b 00
        E 369 90 2b 69
        E 2 90 24 7d
        E 118 90 2b 00
        E 2 90 24 00
        E 356 90 2b 4c
        E 120 90 2b 00
        E 362 90 24 79
        E 5 90 2b 76
        E 115 90 24 00
        E 5 90 2b 00
        E 354 90 2b 4f
        E 120 90 2b 00
        E 361 90 24 7d
        E 0 90 2b 6d
        E 120 90 24 00
        E 0 90 2b 00
        E 365 90 2b 4b
        E 120 90 2b 00
        E 352 90 24 79
        E 1 90 2b 7b
        E 119 90 24 00
        E 1 90 2b 00
        E 366 90 2b 53
        E 120 90 2b 00
        E 355 90 2b 6c
        E 0 90 24 7d
        E 120 90 2b 00
        E 0 90 24 00
        E 360 90 2b 4a
        E 120 90 2b 00
        E 356 90 2b 77
        E 7 90 24 7b
        E 113 90 2b 00
        E 7 90 24 00
        E 353 90 2b 4f
        E 120 90 2b 00
        E 362 90 2b 6b
        E 0 90 24 7d
        E 120 90 2b 00
        E 0 90 24 00
        E 361 90 2b 4c
        E 120 90 2b 00
        E 365 90 24 7d
        E 1 90 2b 78
        E 119 90 24 00
        E 1 90 2b 00
        E 351 90 2b 4f
        E 120 90 2b 00
        E 358 90 2b 6f
        E 3 90 24 79
        E 117 90 2b 00
        E 3 90 24 00
        E 368 90 2b 54
        E 120 90 2b 00
        E 361 90 2b 7b
        E 0 90 24 7b
        E 120 90 2b 00
        E 0 90 24 00
        E 364 90 2b 50
        E 120 90 2b 00
        E 354 90 24 7d
        E 0 90 2b 6c
        E 120 90 24 00
        E 0 90 2b 00
        E 356 90 2b 4b
        E 120 90 2b 00
        E 363 90 2b 78
        E 0 90 24 79
        E 120 90 2b 00
        E 0 90 24 00
        E 355 90 2b 55
        E 120 90 2b 00
        E 123 90 2b 50
        E 120 90 2b 00
        E 120 90 24 7d
        E 0 90 2b 7b
        E 120 90 24 00
        E 0 90 2b 00
        E 358 90 2b 4e
        E 120 90 2b 00
        E 356 90 2b 73
        E 1 90 24 7b
        E 119 90 2b 00
        E 1 90 24 00
        E 365 90 2b 77
        E 120 90 2b 00
        E 360 b0 7b 00
        GUID {7025E123-9A18-43C4-80B8-3FA0E583AE10}
        IGNTEMPO 0 120 4 4
        SRCCOLOR 274
        VELLANE -1 100 0
      >
    >
    <ITEM
      POSITION 138.24
      SNAPOFFS 0
      LENGTH 6.72
      LOOP 1
      ALLTAKES 0
      FADEIN 1 0 0 1 0 0
      FADEOUT 1 0 0 1 0 0
      MUTE 0
      SEL 0
      IGUID {6319C064-8352-4630-9E83-9CC766354452}
      IID 88
      NAME "Variation 07 - Variation_07.mid"
      VOLPAN 1 0 1 -1
      SOFFS 0 0
      PLAYRATE 1 1 0 -1 0 0.0025
      CHANMODE 0
      GUID {24FAB6FE-0228-4DBE-9380-375757B2686B}
      <SOURCE MIDI
        HASDATA 1 960 QN
        POOLEDEVTS {7674A635-A150-4030-B913-53696F8E3C1F}
        <X 0 0
          /wNWYXJpYXRpb24gMDc=
        >
        E 0 90 24 7e
        E 3 90 39 78
        E 117 90 24 00
        E 3 90 39 00
        E 348 90 24 7b
        E 120 90 24 00
        E 368 90 39 7b
        E 6 90 26 7e
        E 114 90 39 00
        E 6 90 26 00
        E 835 90 24 7e
        E 4 90 39 66
        E 116 90 24 00
        E 4 90 39 00
        E 353 90 24 79
        E 120 90 24 00
        E 362 90 39 7b
        E 5 90 26 7c
        E 115 90 39 00
        E 5 90 26 00
        E 358 90 26 7c
        E 120 90 26 00
        E 120 90 26 73
        E 120 90 26 00
        E 122 90 24 7b
        E 1 90 3c 78
        E 119 90 24 00
        E 1 90 3c 00
        E 356 90 26 5c
        E 120 90 26 00
        E 112 90 26 77
        E 120 90 26 00
        E 124 90 24 7e
        E 8 90 3c 78
        E 112 90 24 00
        E 8 90 3c 00
        E 357 90 26 6b
        E 120 90 26 00
        E 122 90 26 76
        E 120 90 26 00
        E 108 90 24 7e
        E 11 90 3c 78
        E 109 90 24 00
        E 11 90 3c 00
        E 351 90 26 4f
        E 120 90 26 00
        E 118 90 26 68
        E 120 90 26 00
        E 128 90 26 77
        E 120 90 26 00
        E 129 90 26 75
        E 120 90 26 00
        E 108 90 26 7b
        E 120 90 26 00
        E 136 90 26 7e
        E 120 90 26 00
        E 107 b0 7b 00
        GUID {107571BB-D61B-4F3B-80F4-238D729C4B44}
        IGNTEMPO 0 120 4 4
        SRCCOLOR 284
        VELLANE -1 100 0
      >
    >
    <ITEM
      POSITION 144.96
      SNAPOFFS 0
      LENGTH 1.92
      LOOP 1
      ALLTAKES 0
      FADEIN 1 0 0 1 0 0
      FADEOUT 1 0 0 1 0 0
      MUTE 0
      SEL 0
      IGUID {37C23614-6805-4C9A-BC33-0AFB0602CE64}
      IID 90
      NAME "Variation 04 - Variation_04.mid"
      VOLPAN 1 0 1 -1
      SOFFS 0 0
      PLAYRATE 1 1 0 -1 0 0.0025
      CHANMODE 0
      GUID {CD9F3156-8A71-4F83-BC80-333B32E8FDA2}
      <SOURCE MIDI
        HASDATA 1 960 QN
        POOLEDEVTS {97661DDF-27F5-44AF-9794-960326776C3C}
        <X 0 0
          /wNWYXJpYXRpb24gMDQ=
        >
        E 0 90 1a 7c
        E 0 90 24 7f
        E 111 90 24 00
        E 13 90 1a 00
        E 352 90 24 74
        E 120 90 24 00
        E 363 90 26 7c
        E 3 90 1a 7e
        E 117 90 26 00
        E 3 90 1a 00
        E 356 90 1a 47
        E 120 90 1a 00
        E 126 90 26 5b
        E 120 90 26 00
        E 124 90 26 73
        E 120 90 26 00
        E 113 90 26 7c
        E 120 90 26 00
        E 126 90 30 6d
        E 120 90 30 00
        E 18 90 24 71
        E 120 90 24 00
        E 79 90 24 6e
        E 120 90 24 00
        E 16 90 2b 7b
        E 0 90 26 7c
        E 120 90 26 00
        E 0 90 2b 00
        E 360 90 24 73
        E 120 90 24 00
        E 360 b0 7b 00
        GUID {0A4BE341-09FB-4DCA-AE41-F488467BEAD4}
        IGNTEMPO 0 120 4 4
        SRCCOLOR 293
        VELLANE -1 100 0
      >
    >
    <ITEM
      POSITION 146.88
      SNAPOFFS 0
      LENGTH 3.84
      LOOP 1
      ALLTAKES 0
      FADEIN 1 0 0 1 0 0
      FADEOUT 1 0 0 1 0 0
      MUTE 0
      SEL 0
      IGUID {FA198B20-1351-48BE-BFCB-3C06084739C5}
      IID 91
      NAME "Variation 10 - Variation_10.mid"
      VOLPAN 1 0 1 -1
      SOFFS 0 0
      PLAYRATE 1 1 0 -1 0 0.0025
      CHANMODE 0
      GUID {A5485D8C-2EE4-432D-B695-3944972FE80F}
      <SOURCE MIDI
        HASDATA 1 960 QN
        POOLEDEVTS {0D88E81D-E05A-4DE3-9A06-EDF71F9CFCBF}
        <X 0 0
          /wNWYXJpYXRpb24gMTA=
        >
        E 0 90 26 7d
        E 0 90 37 7e
        E 10 90 15 52
        E 110 90 26 00
        E 0 90 37 00
        E 10 90 15 00
        E 352 90 24 77
        E 15 90 39 60
        E 105 90 24 00
        E 15 90 39 00
        E 343 90 37 7e
        E 4 90 26 7b
        E 9 90 15 4e
        E 107 90 37 00
        E 4 90 26 00
        E 9 90 15 00
        e 347 90 39 66
        e 120 90 39 00
        E 113 90 24 7a
        E 120 90 24 00
        E 121 90 30 7d
        E 120 90 30 00
        E 48 90 2b 6c
        E 120 90 2b 00
        E 43 90 24 7c
        E 120 90 24 00
        E 28 90 30 72
        E 120 90 30 00
        E 40 90 2b 78
        E 120 90 2b 00
        E 43 90 24 7d
        E 120 90 24 00
        E 43 90 26 7d
        E 8 90 31 7e
        E 112 90 26 00
        E 8 90 31 00
        E 355 90 24 69
        E 8 90 39 72
        E 112 90 24 00
        E 8 90 39 00
        E 114 90 26 29
        E 120 90 26 00
        E 116 90 24 7d
        E 16 90 39 7e
        E 104 90 24 00
        E 16 90 39 00
        E 83 90 26 30
        E 120 90 26 00
        E 143 90 26 3a
        E 120 90 26 00
        E 105 90 26 5a
        E 120 90 26 00
        E 126 90 26 7d
        E 120 90 26 00
        E 133 90 26 2a
        E 120 90 26 00
        E 104 90 2f 7d
        E 120 90 2f 00
        E 124 90 26 3b
        E 120 90 26 00
        E 133 90 26 2f
        E 1 90 15 4f
        E 119 90 26 00
        E 1 90 15 00
        E 110 90 26 68
        E 120 90 26 00
        E 117 90 26 79
        E 120 90 26 00
        E 115 90 26 44
        E 120 90 26 00
        E 119 90 26 2d
        E 8 90 15 53
        E 112 90 26 00
        E 8 90 15 00
        E 115 90 26 74
        E 120 90 26 00
        E 114 90 26 7d
        E 120 90 26 00
        E 131 90 26 79
        E 120 90 26 00
        E 123 b0 7b 00
        GUID {9D966EE4-5ED7-4386-8315-6975714A291F}
        IGNTEMPO 0 120 4 4
        SRCCOLOR 296
        VELLANE -1 100 0
        CFGEDITVIEW 0 0.089063 70 12 0 0 0 0 0
        KEYSNAP 0 0 102034050607 0 Major
        TRACKSEL 0 0 0 ""
        EVTFILTER 0 -1 -1 -1 -1 0 0 0 0 -1 -1 -1 -1 0 -1 0 -1 -1
        CFGEDIT 1 1 0 1 0 0 1 1 1 1 1 0.125 981 123 2564 969 0 0 0 0 0 0 0 0 0 0.5 0 0 1 64
      >
    >
  >
  <TRACK {17EA2C61-83FB-46CA-B8B6-C0B4B6C02368}
    NAME "DM Midi"
    PEAKCOL 16576
    BEAT -1
    AUTOMODE 0
    VOLPAN 0.43424937126806 0 -1 -1 1
    MUTESOLO 1 0 0
    IPHASE 0
    ISBUS 0 0
    BUSCOMP 0 0
    SHOWINMIX 1 0.6667 0.5 1 0.5 -1 -1 -1
    FREEMODE 0
    SEL 0
    REC 0 4224 0 0 0 0 0
    VU 2
    TRACKHEIGHT 0 0
    INQ 0 0 0 0.5 100 0 0 100
    NCHAN 2
    FX 1
    TRACKID {17EA2C61-83FB-46CA-B8B6-C0B4B6C02368}
    PERF 0
    MIDIOUT -1
    MAINSEND 1 0
    <FXCHAIN
      WNDRECT 538 111 1021 769
      SHOW 0
      LASTSEL 0
      DOCKED 0
      BYPASS 0 0 0
      <VST "VSTi: EZdrummer (Toontrack) (32 out)" EZdrummer.dll 0 ""
        ZWhmZO5e7f4AAAAAIAAAAAEAAAAAAAAAAgAAAAAAAAAEAAAAAAAAAAgAAAAAAAAAEAAAAAAAAAAgAAAAAAAAAEAAAAAAAAAAgAAAAAAAAAAAAQAAAAAAAAACAAAAAAAA
        AAQAAAAAAAAACAAAAAAAAAAQAAAAAAAAACAAAAAAAAAAQAAAAAAAAACAAAAAAAAAAAABAAAAAAAAAAIAAAAAAAAABAAAAAAAAAAIAAAAAAAAABAAAAAAAAAAIAAAAAAA
        AABAAAAAAAAAAIAAAAAAAAAAAAEAAAAAAAAAAgAAAAAAAAAEAAAAAAAAAAgAAAAAAAAAEAAAAAAAAAAgAAAAAAAAAEAAAAAAAAAAgAAAAADDCwAAAQAAAMgAEAB2ZXJz
        aW9uIDEKRVpYICJFWlgyX0VaZHJ1bW1lcjJfVmludGFnZSIKaHVtYW5pemUgMQpwb3MgIktpY2siICJWaXN0YWxpdGUiCnBvcyAiU25hcmUiICIxNEx1ZHdpZyIKcG9z
        ICJIYXRzIiAiMTRTYWJpYW4iCnBvcyAiUmFja3RvbSIgIlJUX0x1ZHdpZyIKcG9zICJGbG9vcnRvbSIgIkZUX0x1ZHdpZyIKcG9zICJSaWRlMSIgIjIxU2FiaWFuIgpw
        b3MgIkN5bWJhbDEiICIxOFBhaXN0ZSIKcG9zICJDeW1iYWwyIiAiMThTYWJpYW4iCm1peGVyIHsKS2ljayB7CnBhbiAwLjUKdm9sdW1lIDAuODk5MTc5CnBoYXNlcmV2
        ZXJzZSAwCm5vYmxlZWQgMAp4dHJhZmFkZSAwCmxlYWt2b2wgMQpzb2xvIDAKbXV0ZSAwCnJvdXRlIDAKfQpTbmFyZVRvcCB7CnBhbiAwLjUKdm9sdW1lIDAuNTg3ODAy
        CnBoYXNlcmV2ZXJzZSAwCm5vYmxlZWQgMAp4dHJhZmFkZSAwCmxlYWt2b2wgMQpzb2xvIDAKbXV0ZSAwCnJvdXRlIDAKfQpPaCB7CnBhbiAwCnZvbHVtZSAwLjQ3NTI1
        MQpwaGFzZXJldmVyc2UgMApub2JsZWVkIDAKeHRyYWZhZGUgLTAKbGVha3ZvbCAxCnNvbG8gMAptdXRlIDAKcm91dGUgMAp9Ck9oUiB7CnBhbiAxCnZvbHVtZSAwLjQ3
        NTI1MQpwaGFzZXJldmVyc2UgMApub2JsZWVkIDAKeHRyYWZhZGUgLTAKbGVha3ZvbCAxCnNvbG8gMAptdXRlIDAKcm91dGUgMAp9CkFtYiB7CnBhbiAwCnZvbHVtZSAx
        LjExMjEzCnBoYXNlcmV2ZXJzZSAwCm5vYmxlZWQgMAp4dHJhZmFkZSAwCmxlYWt2b2wgMQpzb2xvIDAKbXV0ZSAwCnJvdXRlIDAKfQpBbWJSIHsKcGFuIDEKdm9sdW1l
        IDEuMTEyMTMKcGhhc2VyZXZlcnNlIDAKbm9ibGVlZCAwCnh0cmFmYWRlIDAKbGVha3ZvbCAxCnNvbG8gMAptdXRlIDAKcm91dGUgMAp9CkFtYk1vbm8gewpwYW4gMC41
        CnZvbHVtZSAwLjgwODUyMwpwaGFzZXJldmVyc2UgMApub2JsZWVkIDAKeHRyYWZhZGUgMApsZWFrdm9sIDEKc29sbyAwCm11dGUgMApyb3V0ZSAwCn0KQ29tcCB7CnBh
        biAwCnZvbHVtZSAwLjI3OTM1MwpwaGFzZXJldmVyc2UgMApub2JsZWVkIDAKeHRyYWZhZGUgMApsZWFrdm9sIDEKc29sbyAwCm11dGUgMApyb3V0ZSAwCn0KQ29tcFIg
        ewpwYW4gMQp2b2x1bWUgMC4yNzkzNTMKcGhhc2VyZXZlcnNlIDAKbm9ibGVlZCAwCnh0cmFmYWRlIDAKbGVha3ZvbCAxCnNvbG8gMAptdXRlIDAKcm91dGUgMAp9CmJ1
        c3MgMCB7CnBhbiAwCnZvbHVtZSAwLjU4NzgwMgpwaGFzZXJldmVyc2UgMApzb2xvIDAKbXV0ZSAwCnJvdXRlIDAKfQpidXNzIDEgewpwYW4gMQp2b2x1bWUgMC41ODc4
        MDIKcGhhc2VyZXZlcnNlIDAKc29sbyAwCm11dGUgMApyb3V0ZSAwCn0KYnVzcyAyIHsKcGFuIDAuNQp2b2x1bWUgMC41ODc4MDIKcGhhc2VyZXZlcnNlIDAKc29sbyAw
        Cm11dGUgMApyb3V0ZSAwCn0KYnVzcyAzIHsKcGFuIDAuNQp2b2x1bWUgMC41ODc4MDIKcGhhc2VyZXZlcnNlIDAKc29sbyAwCm11dGUgMApyb3V0ZSAwCn0KYnVzcyA0
        IHsKcGFuIDAKdm9sdW1lIDAuMzg0MjUxCnBoYXNlcmV2ZXJzZSAwCnNvbG8gMAptdXRlIDAKcm91dGUgMAp9CmJ1c3MgNSB7CnBhbiAwCnZvbHVtZSAwLjM4NDI1MQpw
        aGFzZXJldmVyc2UgMApzb2xvIDAKbXV0ZSAwCnJvdXRlIDAKfQpidXNzIDYgewpwYW4gMQp2b2x1bWUgMC40MjczMzYKcGhhc2VyZXZlcnNlIDAKc29sbyAwCm11dGUg
        MApyb3V0ZSAwCn0KYnVzcyA3IHsKcGFuIDEKdm9sdW1lIDAuNDI3MzM2CnBoYXNlcmV2ZXJzZSAwCnNvbG8gMAptdXRlIDAKcm91dGUgMAp9CmJ1c3MgOCB7CnBhbiAw
        CnZvbHVtZSAwLjQyNzMzNgpwaGFzZXJldmVyc2UgMApzb2xvIDAKbXV0ZSAwCnJvdXRlIDAKfQpidXNzIDkgewpwYW4gMQp2b2x1bWUgMC40MjczMzYKcGhhc2VyZXZl
        cnNlIDAKc29sbyAwCm11dGUgMApyb3V0ZSAwCn0KfQpFWjFzdHVmZkVORCB7Cn0Kc2FtcGxlciB7Cm1hc3RlcnZvbCAxCnJldmVyc2UgMApwcmVzZXQgIkxldmVlIgpr
        bm9iIDAgMC40OTUwNQprbm9iIDEgMC40OTUwNQprbm9iIDIgMAprbm9iIDMgMQprbm9iIDQgMC40MzU2NDQKa25vYiA1IDAKa25vYiA2IDAKZHJ1bXByb3BzIHsKIlhQ
        ZXJjLTAiIHggIkVaWFBfRVpkcnVtbWVyMl9QZXJjdXNzaW9uIiAiT25lc2hvdCIgIkNsYXBzMiIKIlhQZXJjLTEiIHggIkVaWFBfRVpkcnVtbWVyMl9QZXJjdXNzaW9u
        IiAiU2hha2VyIiAiU2hha2VyMSIKIlhQZXJjLTIiIHggIkVaWFBfRVpkcnVtbWVyMl9QZXJjdXNzaW9uIiAiVGFtYm91cmluZSIgIlRhbWIxIgp9Cn0KZWRydW0gbm9u
        ZSBub25lCm1pZGlsZWFybiB7Cn0KRWRpdG9yIHsgClNvbmdUcmFjayB7ClZpc2libGVBcmVhIDcxLjA4ODQgMTM2LjA4OApUcmFja05hbWUgIiIKQ2xlYXJUcmFja0Zp
        cnN0ClRpbWVTaWcgNCA0CkdyaWRSZXMgMzIKTG9vcEFyZWEgMCAwCkxvb3BBY3RpdmUgMAp9ClZpc2libGVSZXN1bHRDb2x1bW5zIDE2LDI4LDAsMDsxNywyOCwwLDA7
        MCwxODUsMCwwOzExLDIwMCwwLDA7NCwxNTAsMCwwOzYsMTMwLDAsMDs3LDQ1LDAsMDs4LDQ1LDAsMDszLDQ1LDAsMDsKVmlzaWJsZUZpbHRlckNvbHVtbnMgNDs3OzU7
        MTs1OzI7NjsyOwpCcm93c2VySGVpZ2h0IDE2NgpTZWxlY3RlZFRhZ3MgLDAsMCwwLDAsMCwwLDAsMCwwLDAsMCwwLDAsMCwwLDAsMCwwLDAsMCwwLDAsMCwwLDAsMCww
        LDAsMCwwLDAsMCwwLDAsMCwwLDAsMCwwLDAsMCwwLDAsMCwwLDAsMCwwLDAsMCwwLDAsMCwwLDAsMCwwLDAsMCwwLDAsMCwwLDAsMCwwLDAsMCwwLDAsMCwwLDAsMCww
        LDAsMCwwLDAsMCwwLDAsMCwwLDAsMCwwLDAsMCwwLDAsMCwwLDAsMCwwLDAsMCwwLDAsMCwwLDAsMCwwLDAsMCwwLDAsMCwwLDAsMCwwLDAsMCwwLDAsMCwwLDAsMCww
        LDAsMCwwLDAsMCwwClNlbGVjdGVkRmlsZSAKU2VsZWN0ZWRCcm93c2VyUGF0aCAiIgpCcm93c2VySW50ZW5zaXR5IDA7MzM7MDs1OTsKQ2xlYXJUYXAyRmluZApCcm93
        c2VySXNGYXZvcml0ZSAwClByZXZpZXdJbk9yaWdpbmFsVGVtcG8gMApDbGVhclNvbmdDcmVhdG9yIDAKVmlzaWJsZVRhYiAxCn0KU3luY1RvSG9zdCAxIDEyMApNaWRp
        T3V0RW5hYmxlZCAwCk1pZGlJbkNoYW5uZWwgLTEKAABLUUNYUVMwMDAyOUEAEAAAAA==
      >
      FLOATPOS 1248 421 917 722
      FXID {97D72AB7-8046-48A2-9055-9DB8B50E6BA0}
      WAK 0
    >
    <ITEM
      POSITION 49.92
      SNAPOFFS 0
      LENGTH 7.08842537414898
      LOOP 1
      ALLTAKES 0
      FADEIN 1 0 0 1 0 0
      FADEOUT 1 0 0 1 0 0
      MUTE 0
      SEL 0
      IGUID {6B6F561C-6CD2-494D-A01D-B25414E7FC42}
      IID 10
      NAME "02-Recorded MIDI"
      VOLPAN 0.756098 0 1 -1
      SOFFS 48.87549788944504 101.82395393634384
      PLAYRATE 1 1 0 -1 0 0.0025
      CHANMODE 0
      GUID {D32E1275-5F16-4CFE-9CAE-0C46553EC50D}
      RECPASS 1
      <SOURCE MIDI
        HASDATA 1 960 QN
        POOLEDEVTS {8CCF21A6-2609-4C34-956C-6AFB1FB5124A}
        E 5591 9a 24 7f
        E 16 9c 53 7f
        E 235 9a 35 7f
        E 185 9a 35 00
        E 74 9a 35 7f
        E 195 9a 35 00
        E 12 9a 24 00
        E 257 9a 26 7f
        E 222 9a 24 7f
        E 102 9a 26 00
        E 58 9c 53 00
        E 238 9a 24 00
        E 324 9a 24 7f
        E 14 9c 51 7f
        E 6 9a 41 56
        E 340 9a 24 00
        E 316 9a 41 00
        E 42 9a 24 77
        E 82 9a 24 00
        E 178 9a 26 7f
        E 102 9c 51 00
        E 390 9a 24 7f
        E 11 9c 53 7f
        E 27 9a 26 00
        E 440 9a 24 00
        E 482 9a 24 7f
        E 434 9a 24 00
        E 34 9a 26 7f
        E 703 9a 29 7f
        E 37 9a 29 00
        E 30 9c 53 00
        E 107 9a 26 00
        E 63 9a 24 7f
        E 16 9c 51 7f
        E 14 9a 29 7f
        E 130 9a 29 00
        E 120 9a 24 00
        E 230 9a 26 7f
        E 13 9a 29 13
        E 103 9a 26 00
        E 278 9a 29 00
        E 75 9a 23 7f
        E 3 9a 23 00
        E 0 9a 23 7f
        E 74 9a 23 00
        E 64 9c 51 00
        E 88 9a 29 7f
        E 630 9a 29 00
        E 80 9a 24 7f
        E 11 9c 4e 7f
        E 465 9a 24 00
        E 502 9a 26 7f
        E 223 9a 24 7f
        E 102 9a 26 00
        E 55 9c 4e 00
        E 2 9a 24 00
        E 562 9a 24 7f
        E 16 9c 4c 7f
        E 298 9a 24 00
        E 190 9a 24 37
        E 84 9a 24 00
        E 132 9a 26 7f
        E 598 9c 4c 00
        E 38 9a 26 00
        E 114 9a 24 7f
        E 10 9c 4e 7f
        E 186 9a 24 00
        E 762 9a 24 7f
        E 212 9a 26 7f
        E 187 9a 24 00
        E 331 9a 26 00
        E 186 9c 4e 00
        E 42 9a 24 7f
        E 156 9a 24 00
        E 68 9c 4e 7f
        E 228 9a 24 7f
        E 22 9a 29 7f
        E 17 9c 4e 00
        E 39 9a 29 00
        E 158 9a 24 00
        E 8 9c 4c 7f
        E 264 9a 26 7f
        E 12 9a 29 7f
        E 68 9a 26 00
        E 134 9a 26 13
        E 154 9a 26 00
        E 31 9a 29 00
        E 69 9a 23 7f
        E 4 9a 23 00
        E 0 9a 23 4b
        E 4 9a 24 37
        E 72 9a 23 00
        E 80 9a 24 00
        E 68 9a 26 7f
        E 13 9a 29 7f
        E 421 9a 26 00
        E 162 9a 29 00
        E 116 9c 4c 00
        E 10 9a 24 7f
        E 14 9c 53 7f
        E 228 9a 35 7f
        E 190 9a 35 00
        E 67 9a 35 7f
        E 202 9a 35 00
        E 11 9a 24 00
        E 262 9a 26 7f
        E 218 9a 24 7f
        E 96 9a 26 00
        E 64 9c 53 00
        E 240 9a 24 00
        E 324 9a 24 7f
        E 16 9c 51 7f
        E 6 9a 41 56
        E 330 9a 24 00
        E 324 9a 41 00
        E 40 9a 24 77
        E 76 9a 24 00
        E 181 9a 26 7f
        E 101 9c 51 00
        E 389 9a 24 7f
        E 9 9c 53 7f
        E 28 9a 26 00
        E 448 9a 24 00
        E 474 9a 24 7f
        E 438 9a 24 00
        E 36 9a 26 7f
        E 700 9a 29 7f
        E 32 9a 29 00
        E 32 9c 53 00
        E 114 9a 26 00
        E 62 9a 24 7f
        E 16 9c 51 7f
        E 14 9a 29 7f
        E 126 9a 29 00
        E 122 9a 24 00
        E 232 9a 26 7f
        E 12 9a 29 13
        E 106 9a 26 00
        E 276 9a 29 00
        E 74 9a 23 7f
        E 4 9a 23 00
        E 0 9a 23 7f
        E 70 9a 23 00
        E 60 9c 51 00
        E 88 9a 29 7f
        E 638 9a 29 00
        E 80 9a 24 7f
        E 8 9c 4e 7f
        E 468 9a 24 00
        E 502 9a 26 7f
        E 222 9a 24 7f
        E 98 9a 26 00
        E 58 9c 4e 00
        E 3 9a 24 00
        E 563 9a 24 7f
        E 14 9c 4c 7f
        E 298 9a 24 00
        E 192 9a 24 37
        E 76 9a 24 00
        E 136 9a 26 7f
        E 602 9c 4c 00
        E 38 9a 26 00
        E 112 9a 24 7f
        E 10 9c 4e 7f
        E 182 9a 24 00
        E 768 9a 24 7f
        E 206 9a 26 7f
        E 190 9a 24 00
        E 328 9a 26 00
        E 190 9c 4e 00
        E 44 9a 24 7f
        E 156 9a 24 00
        E 61 9c 4e 7f
        E 233 9a 24 7f
        E 24 9a 29 7f
        E 16 9c 4e 00
        E 38 9a 29 00
        E 162 9a 24 00
        E 8 9c 4c 7f
        E 262 9a 26 7f
        E 10 9a 29 7f
        E 64 9a 26 00
        E 136 9a 26 13
        E 158 9a 26 00
        E 30 9a 29 00
        E 70 9a 23 7f
        E 4 9a 23 00
        E 0 9a 23 4b
        E 4 9a 24 37
        E 72 9a 23 00
        E 80 9a 24 00
        E 64 9a 26 7f
        E 10 9a 29 7f
        E 422 9a 26 00
        E 164 9a 29 00
        E 118 9c 4c 00
        E 10 9a 24 7f
        E 16 9c 53 7f
        E 226 9a 35 7f
        E 192 9a 35 00
        E 64 9a 35 7f
        E 202 9a 35 00
        E 12 9a 24 00
        E 262 9a 26 7f
        E 220 9a 24 7f
        E 96 9a 26 00
        E 58 9c 53 00
        E 244 9a 24 00
        E 324 9a 24 7f
        E 16 9c 51 7f
        E 6 9a 41 56
        E 334 9a 24 00
        E 320 9a 41 00
        E 42 9a 24 77
        E 76 9a 24 00
        E 178 9a 26 7f
        E 104 9c 51 00
        E 388 9a 24 7f
        E 10 9c 53 7f
        E 30 9a 26 00
        E 440 9a 24 00
        E 480 9a 24 7f
        E 440 9a 24 00
        E 30 9a 26 7f
        E 706 9a 29 7f
        E 30 9a 29 00
        E 30 9c 53 00
        E 112 9a 26 00
        E 67 9a 24 7f
        E 17 9c 51 7f
        E 14 9a 29 7f
        E 124 9a 29 00
        E 116 9a 24 00
        E 234 9a 26 7f
        E 12 9a 29 13
        E 102 9a 26 00
        E 280 9a 29 00
        E 72 9a 23 7f
        E 6 9a 23 00
        E 0 9a 23 7f
        E 74 9a 23 00
        E 62 9c 51 00
        E 86 9a 29 7f
        E 632 9a 29 00
        E 86 9a 24 7f
        E 10 9c 4e 7f
        E 468 9a 24 00
        E 502 9a 26 7f
        E 220 9a 24 7f
        E 92 9a 26 00
        E 64 9c 4e 00
        E 2 9a 24 00
        E 560 9a 24 7f
        E 14 9c 4c 7f
        E 302 9a 24 00
        E 194 9a 24 37
        E 76 9a 24 00
        E 134 9a 26 7f
        E 598 9c 4c 00
        E 40 9a 26 00
        E 108 9a 24 7f
        E 10 9c 4e 7f
        E 188 9a 24 00
        E 764 9a 24 7f
        E 210 9a 26 7f
        E 184 9a 24 00
        E 332 9a 26 00
        E 192 9c 4e 00
        E 44 9a 24 7f
        E 152 9a 24 00
        E 66 9c 4e 7f
        E 231 9a 24 7f
        E 23 9a 29 7f
        E 16 9c 4e 00
        E 36 9a 29 00
        E 158 9a 24 00
        E 8 9c 4c 7f
        E 268 9a 26 7f
        E 12 9a 29 7f
        E 64 9a 26 00
        E 134 9a 26 13
        E 158 9a 26 00
        E 30 9a 29 00
        E 68 9a 23 7f
        E 6 9a 23 00
        E 0 9a 23 4b
        E 4 9a 24 37
        E 74 9a 23 00
        E 80 9a 24 00
        E 64 9a 26 7f
        E 9 9a 29 7f
        E 425 9a 26 00
        E 160 9a 29 00
        E 118 9c 4c 00
        E 12 9a 24 7f
        E 14 9c 53 7f
        E 225 9a 35 7f
        E 187 9a 35 00
        E 71 9a 35 7f
        E 199 9a 35 00
        E 10 9a 24 00
        E 266 9a 26 7f
        E 217 9a 24 7f
        E 99 9a 26 00
        E 60 9c 53 00
        E 238 9a 24 00
        E 328 9a 24 7f
        E 16 9c 51 7f
        E 6 9a 41 56
        E 332 9a 24 00
        E 318 9a 41 00
        E 48 9a 24 77
        E 72 9a 24 00
        E 180 9a 26 7f
        E 102 9c 51 00
        E 390 9a 24 7f
        E 10 9c 53 7f
        E 26 9a 26 00
        E 444 9a 24 00
        E 480 9a 24 7f
        E 440 9a 24 00
        E 28 9a 26 7f
        E 708 9a 29 7f
        E 34 9a 29 00
        E 28 9c 53 00
        E 110 9a 26 00
        E 62 9a 24 7f
        E 16 9c 51 7f
        E 14 9a 29 7f
        E 130 9a 29 00
        E 118 9a 24 00
        E 232 9a 26 7f
        E 12 9a 29 13
        E 102 9a 26 00
        E 280 9a 29 00
        E 74 9a 23 7f
        E 4 9a 23 00
        E 0 9a 23 7f
        E 74 9a 23 00
        E 62 9c 51 00
        E 82 9a 29 7f
        E 636 9a 29 00
        E 88 9a 24 7f
        E 8 9c 4e 7f
        E 462 9a 24 00
        E 502 9a 26 7f
        E 220 9a 24 7f
        E 102 9a 26 00
        E 58 9c 4e 00
        E 2 9a 24 00
        E 562 9a 24 7f
        E 15 9c 4c 7f
        E 299 9a 24 00
        E 196 9a 24 37
        E 73 9a 24 00
        E 137 9a 26 7f
        E 598 9c 4c 00
        E 38 9a 26 00
        E 112 9a 24 7f
        E 10 9c 4e 7f
        E 188 9a 24 00
        E 762 9a 24 7f
        E 210 9a 26 7f
        E 186 9a 24 00
        E 332 9a 26 00
        E 186 9c 4e 00
        E 44 9a 24 7f
        E 155 9a 24 00
        E 67 9c 4e 7f
        E 230 9a 24 7f
        E 22 9a 29 7f
        E 16 9c 4e 00
        E 40 9a 29 00
        E 158 9a 24 00
        E 8 9c 4c 7f
        E 264 9a 26 7f
        E 10 9a 29 7f
        E 70 9a 26 00
        E 134 9a 26 13
        E 154 9a 26 00
        E 28 9a 29 00
        E 72 9a 23 7f
        E 4 9a 23 00
        E 0 9a 23 4b
        E 4 9a 24 37
        E 69 9a 23 00
        E 82 9a 24 00
        E 69 9a 26 7f
        E 10 9a 29 7f
        E 418 9a 26 00
        E 162 9a 29 00
        E 122 9c 4c 00
        E 9 9a 24 7f
        E 14 9c 53 7f
        E 229 9a 35 7f
        E 189 9a 35 00
        E 67 9a 35 7f
        E 202 9a 35 00
        E 10 9a 24 00
        E 262 9a 26 7f
        E 222 9a 24 7f
        E 94 9a 26 00
        E 64 9c 53 00
        E 240 9a 24 00
        E 324 9a 24 7f
        E 16 9c 51 7f
        E 4 9a 41 56
        E 330 9a 24 00
        E 326 9a 41 00
        E 39 9a 24 77
        E 74 9a 24 00
        E 183 9a 26 7f
        E 102 9c 51 00
        E 389 9a 24 7f
        E 8 9c 53 7f
        E 29 9a 26 00
        E 442 9a 24 00
        E 482 9a 24 7f
        E 438 9a 24 00
        E 30 9a 26 7f
        E 706 9a 29 7f
        E 34 9a 29 00
        E 28 9c 53 00
        E 108 9a 26 00
        E 70 9a 24 7f
        E 14 9c 51 7f
        E 16 9a 29 7f
        E 126 9a 29 00
        E 116 9a 24 00
        E 230 9a 26 7f
        E 14 9a 29 13
        E 104 9a 26 00
        E 282 9a 29 00
        E 74 9a 23 7f
        E 4 9a 23 00
        E 0 9a 23 7f
        E 70 9a 23 00
        E 63 9c 51 00
        E 87 9a 29 7f
        E 630 9a 29 00
        E 85 9a 24 7f
        E 9 9c 4e 7f
        E 468 9a 24 00
        E 501 9a 26 7f
        E 225 9a 24 7f
        E 92 9a 26 00
        E 64 9c 4e 00
        E 2 9a 24 00
        E 563 9a 24 7f
        E 14 9c 4c 7f
        E 301 9a 24 00
        E 190 9a 24 37
        E 77 9a 24 00
        E 135 9a 26 7f
        E 594 9c 4c 00
        E 38 9a 26 00
        E 114 9a 24 7f
        E 8 9c 4e 7f
        E 192 9a 24 00
        E 760 9a 24 7f
        E 212 9a 26 7f
        E 184 9a 24 00
        E 333 9a 26 00
        E 191 9c 4e 00
        E 44 9a 24 7f
        E 152 9a 24 00
        E 66 9c 4e 7f
        E 232 9a 24 7f
        E 21 9a 29 7f
        E 19 9c 4e 00
        E 34 9a 29 00
        E 160 9a 24 00
        E 8 9c 4c 7f
        E 259 9a 26 7f
        E 12 9a 29 7f
        E 71 9a 26 00
        E 134 9a 26 13
        E 153 9a 26 00
        E 29 9a 29 00
        E 75 9a 23 7f
        E 6 9a 23 00
        E 0 9a 23 4b
        E 4 9a 24 37
        E 71 9a 23 00
        E 80 9a 24 00
        E 66 9a 26 7f
        E 9 9a 29 7f
        E 422 9a 26 00
        E 163 9a 29 00
        E 116 9c 4c 00
        E 10 9a 24 7f
        E 13 9c 53 7f
        E 230 9a 35 7f
        E 189 9a 35 00
        E 71 9a 35 7f
        E 197 9a 35 00
        E 14 9a 24 00
        E 260 9a 26 7f
        E 219 9a 24 7f
        E 97 9a 26 00
        E 64 9c 53 00
        E 236 9a 24 00
        E 326 9a 24 7f
        E 16 9c 51 7f
        E 4 9a 41 56
        E 334 9a 24 00
        E 319 9a 41 00
        E 43 9a 24 77
        E 76 9a 24 00
        E 186 9a 26 7f
        E 95 9c 51 00
        E 395 9a 24 7f
        E 11 9c 53 7f
        E 15 9a 26 00
        E 456 9a 24 00
        E 472 9a 24 7f
        E 440 9a 24 00
        E 36 9a 26 7f
        E 698 9a 29 7f
        E 40 9a 29 00
        E 30 9c 53 00
        E 104 9a 26 00
        E 68 9a 24 7f
        E 15 9c 51 7f
        E 14 9a 29 7f
        E 124 9a 29 00
        E 125 9a 24 00
        E 231 9a 26 7f
        E 13 9a 29 13
        E 104 9a 26 00
        E 278 9a 29 00
        E 73 9a 23 7f
        E 4 9a 23 00
        E 0 9a 23 7f
        E 75 9a 23 00
        E 62 9c 51 00
        E 79 9a 29 7f
        E 641 9a 29 00
        E 80 9a 24 7f
        E 8 9c 4e 7f
        E 467 9a 24 00
        E 502 9a 26 7f
        E 221 9a 24 7f
        E 100 9a 26 00
        E 56 9c 4e 00
        E 2 9a 24 00
        E 568 9a 24 7f
        E 14 9c 4c 7f
        E 296 9a 24 00
        E 191 9a 24 37
        E 78 9a 24 00
        E 139 9a 26 7f
        E 596 9c 4c 00
        E 37 9a 26 00
        E 108 9a 24 7f
        E 10 9c 4e 7f
        E 188 9a 24 00
        E 763 9a 24 7f
        E 217 9a 26 7f
        E 185 9a 24 00
        E 328 9a 26 00
        E 190 9c 4e 00
        E 46 9a 24 7f
        E 156 9a 24 00
        E 60 9c 4e 7f
        E 231 9a 24 7f
        E 22 9a 29 7f
        E 17 9c 4e 00
        E 42 9a 29 00
        E 158 9a 24 00
        E 7 9c 4c 7f
        E 265 9a 26 7f
        E 12 9a 29 7f
        E 61 9a 26 00
        E 135 9a 26 13
        E 160 9a 26 00
        E 28 9a 29 00
        E 69 9a 23 7f
        E 4 9a 23 00
        E 0 9a 23 4b
        E 6 9a 24 37
        E 73 9a 23 00
        E 82 9a 24 00
        E 59 9a 26 7f
        E 12 9a 29 7f
        E 425 9a 26 00
        E 160 9a 29 00
        E 121 9c 4c 00
        E 10 9a 24 7f
        E 708 9a 24 00
        E 259 9a 26 7f
        E 223 9a 24 7f
        E 97 9a 26 00
        E 300 9a 24 00
        E 325 9a 24 7f
        E 358 9a 24 00
        E 363 9a 24 77
        E 73 9a 24 00
        E 184 9a 26 7f
        E 492 9a 24 7f
        E 25 9a 26 00
        E 447 9a 24 00
        E 482 9a 24 7f
        E 441 9a 24 00
        E 28 9a 26 7f
        E 877 9a 26 00
        E 68 9a 24 7f
        E 273 9a 24 00
        E 237 9a 26 7f
        E 117 9a 26 00
        E 354 9a 23 7f
        E 2 9a 23 00
        E 0 9a 23 7f
        E 76 9a 23 00
        E 857 9a 24 7f
        E 482 9a 24 00
        E 501 9a 26 7f
        E 218 9a 24 7f
        E 95 9a 26 00
        E 64 9a 24 00
        E 560 9a 24 7f
        E 318 9a 24 00
        E 194 9a 24 37
        E 79 9a 24 00
        E 130 9a 26 7f
        E 639 9a 26 00
        E 110 9a 24 7f
        E 197 9a 24 00
        E 763 9a 24 7f
        E 210 9a 26 7f
        E 184 9a 24 00
        E 337 9a 26 00
        E 230 9a 24 7f
        E 156 9a 24 00
        E 293 9a 24 7f
        E 239 9a 24 00
        E 266 9a 26 7f
        E 79 9a 26 00
        E 138 9a 26 13
        E 156 9a 26 00
        E 98 9a 23 7f
        E 5 9a 23 00
        E 0 9a 23 4b
        E 3 9a 24 37
        E 70 9a 23 00
        E 84 9a 24 00
        E 62 9a 26 7f
        E 434 9a 26 00
        E 291 9a 24 7f
        E 714 9a 24 00
        E 255 9a 26 7f
        E 226 9a 24 7f
        E 98 9a 26 00
        E 298 9a 24 00
        E 322 9a 24 7f
        E 360 9a 24 00
        E 358 9a 24 77
        E 80 9a 24 00
        E 180 9a 26 7f
        E 493 9a 24 7f
        E 34 9a 26 00
        E 439 9a 24 00
        E 487 9a 24 7f
        E 434 9a 24 00
        E 35 9a 26 7f
        E 876 9a 26 00
        E 66 9a 24 7f
        E 272 9a 24 00
        E 234 9a 26 7f
        E 116 9a 26 00
        E 350 9a 23 7f
        E 7 9a 23 00
        E 0 9a 23 7f
        E 75 9a 23 00
        E 863 9a 24 7f
        E 473 9a 24 00
        E 502 9a 26 7f
        E 224 9a 24 7f
        E 98 9a 26 00
        E 57 9a 24 00
        E 565 9a 24 7f
        E 312 9a 24 00
        E 193 9a 24 37
        E 82 9a 24 00
        E 135 9a 26 7f
        E 62 8a 26 00
        E 0 b0 7b 00
        GUID {017317C0-E86E-4310-BD9E-56E2D73FBBA7}
        IGNTEMPO 0 120 4 4
        SRCCOLOR 235
        VELLANE -1 100 0
        CFGEDITVIEW -10494.578798 0.003832 75 12 0 0 0 0 100
        KEYSNAP 0 0 102034050607 0 Major
        TRACKSEL 0 0 0 ""
        EVTFILTER 0 -1 -1 -1 -1 0 0 0 0 -1 -1 -1 -1 0 -1 0 -1 -1
        CFGEDIT 1 1 0 1 0 0 1 1 1 1 1 0.125 981 123 2564 969 0 0 0 0 0 0 0 0 0 0.5 0 0 1 64
      >
    >
    <ITEM
      POSITION 57.00842537414898
      SNAPOFFS 0
      LENGTH 8.27157462585102
      LOOP 1
      ALLTAKES 0
      FADEIN 1 0 0 1 0 0
      FADEOUT 1 0 0 1 0 0
      MUTE 0
      SEL 0
      IGUID {1BE837C6-7872-4416-9252-32C1C9BE4942}
      IID 10
      NAME "02-Recorded MIDI"
      VOLPAN 0.756098 0 1 -1
      SOFFS 127.51699 265.66039583333333
      PLAYRATE 1 1 0 -1 0 0.0025
      CHANMODE 0
      GUID {8AD5F53E-DD24-4AFD-877D-95BAA4EDAC1E}
      RECPASS 1
      <SOURCE MIDI
        HASDATA 1 960 QN
        POOLEDEVTS {2D226177-41B4-4BF0-9677-2E754FBAEFDB}
        E 0 9a 26 7f
        E 571 9a 26 00
        E 115 9a 24 7f
        E 192 9a 24 00
        E 762 9a 24 7f
        E 218 9a 26 7f
        E 182 9a 24 00
        E 330 9a 26 00
        E 230 9a 24 7f
        E 158 9a 24 00
        E 299 9a 24 7f
        E 235 9a 24 00
        E 271 9a 26 7f
        E 77 9a 26 00
        E 134 9a 26 13
        E 154 9a 26 00
        E 102 9a 23 7f
        E 4 9a 23 00
        E 0 9a 23 4b
        E 6 9a 24 37
        E 70 9a 23 00
        E 78 9a 24 00
        E 64 9a 26 7f
        E 440 9a 26 00
        E 282 9a 24 7f
        E 714 9a 24 00
        E 262 9a 26 7f
        E 222 9a 24 7f
        E 98 9a 26 00
        E 302 9a 24 00
        E 324 9a 24 7f
        E 356 9a 24 00
        E 360 9a 24 77
        E 76 9a 24 00
        E 184 9a 26 7f
        E 487 9a 24 7f
        E 29 9a 26 00
        E 448 9a 24 00
        E 482 9a 24 7f
        E 440 9a 24 00
        E 28 9a 26 7f
        E 882 9a 26 00
        E 568 9a 26 7f
        E 122 9a 26 00
        E 2268 9a 26 7f
        E 318 9a 26 00
        E 1350 9a 26 7f
        E 630 9a 26 00
        E 1286 9a 26 7f
        E 512 9a 26 00
        E 1196 9a 26 7f
        E 78 9a 26 00
        E 132 9a 26 13
        E 154 9a 26 00
        E 326 9a 26 7f
        E 432 9a 26 00
        E 1264 9a 26 7f
        E 320 9a 26 00
        E 1600 9a 26 7f
        E 492 9c 53 7f
        E 22 9a 26 00
        E 938 9a 24 7f
        E 434 9a 24 00
        E 34 9a 26 7f
        E 702 9a 29 7f
        E 38 9a 29 00
        E 24 9c 53 00
        E 116 9a 26 00
        E 62 9a 24 7f
        E 14 9c 51 7f
        E 16 9a 29 7f
        E 124 9a 29 00
        E 124 9a 24 00
        E 230 9a 26 7f
        E 12 9a 29 13
        E 104 9a 26 00
        E 278 9a 29 00
        E 76 9a 23 7f
        E 4 9a 23 00
        E 0 9a 23 7f
        E 72 9a 23 00
        E 64 9c 51 00
        E 82 9a 29 7f
        E 636 9a 29 00
        E 80 9a 24 7f
        E 10 9c 4e 7f
        E 469 9a 24 00
        E 499 9a 26 7f
        E 224 9a 24 7f
        E 98 9a 26 00
        E 58 9c 4e 00
        E 2 9a 24 00
        E 564 9a 24 7f
        E 14 9c 4c 7f
        E 298 9a 24 00
        E 191 9a 24 37
        E 77 9a 24 00
        E 140 9a 26 7f
        E 592 9c 4c 00
        E 44 9a 26 00
        E 105 9a 24 7f
        E 10 9c 4e 7f
        E 195 9a 24 00
        E 762 9a 24 7f
        E 210 9a 26 7f
        E 186 9a 24 00
        E 326 9a 26 00
        E 192 9c 4e 00
        E 44 9a 24 7f
        E 156 9a 24 00
        E 60 9c 4e 7f
        E 233 9a 24 7f
        E 23 9a 29 7f
        E 18 9c 4e 00
        E 38 9a 29 00
        E 158 9a 24 00
        E 8 9c 4c 7f
        E 264 9a 26 7f
        E 12 9a 29 7f
        E 62 9a 26 00
        E 140 9a 26 13
        E 154 9a 26 00
        E 30 9a 29 00
        E 70 9a 23 7f
        E 4 9a 23 00
        E 0 9a 23 4b
        E 4 9a 24 37
        E 72 9a 23 00
        E 80 9a 24 00
        E 68 9a 26 7f
        E 10 9a 29 7f
        E 426 9a 26 00
        E 154 9a 29 00
        E 122 9c 4c 00
        E 10 9a 24 7f
        E 14 9c 53 7f
        E 226 9a 35 7f
        E 186 9a 35 00
        E 72 9a 35 7f
        E 202 9a 35 00
        E 10 9a 24 00
        E 262 9a 26 7f
        E 220 9a 24 7f
        E 96 9a 26 00
        E 60 9c 53 00
        E 244 9a 24 00
        E 323 9a 24 7f
        E 17 9c 51 7f
        E 4 9a 41 56
        E 332 9a 24 00
        E 322 9a 41 00
        E 42 9a 24 77
        E 74 9a 24 00
        E 182 9a 26 7f
        E 102 9c 51 00
        E 387 9a 24 7f
        E 11 9c 53 7f
        E 28 9a 26 00
        E 442 9a 24 00
        E 480 9a 24 7f
        E 440 9a 24 00
        E 28 9a 26 7f
        E 706 9a 29 7f
        E 32 9a 29 00
        E 30 9c 53 00
        E 116 9a 26 00
        E 64 9a 24 7f
        E 16 9c 51 7f
        E 14 9a 29 7f
        E 122 9a 29 00
        E 120 9a 24 00
        E 232 9a 26 7f
        E 12 9a 29 13
        E 104 9a 26 00
        E 280 9a 29 00
        E 72 9a 23 7f
        E 4 9a 23 00
        E 0 9a 23 7f
        E 74 9a 23 00
        E 62 9c 51 00
        E 86 9a 29 7f
        E 632 9a 29 00
        E 83 9a 24 7f
        E 11 9c 4e 7f
        E 468 9a 24 00
        E 502 9a 26 7f
        E 224 9a 24 7f
        E 90 9a 26 00
        E 63 9c 4e 00
        E 2 9a 24 00
        E 565 9a 24 7f
        E 14 9c 4c 7f
        E 300 9a 24 00
        E 189 9a 24 37
        E 78 9a 24 00
        E 135 9a 26 7f
        E 594 9c 4c 00
        E 46 9a 26 00
        E 104 9a 24 7f
        E 12 9c 4e 7f
        E 190 9a 24 00
        E 758 9a 24 7f
        E 214 9a 26 7f
        E 190 9a 24 00
        E 326 9a 26 00
        E 192 9c 4e 00
        E 42 9a 24 7f
        E 154 9a 24 00
        E 66 9c 4e 7f
        E 232 9a 24 7f
        E 24 9a 29 7f
        E 16 9c 4e 00
        E 38 9a 29 00
        E 160 9a 24 00
        E 9 9c 4c 7f
        E 261 9a 26 7f
        E 12 9a 29 7f
        E 62 9a 26 00
        E 138 9a 26 13
        E 158 9a 26 00
        E 28 9a 29 00
        E 72 9a 23 7f
        E 4 9a 23 00
        E 0 9a 23 4b
        E 4 9a 24 37
        E 72 9a 23 00
        E 74 9a 24 00
        E 70 9a 26 7f
        E 10 9a 29 7f
        E 424 9a 26 00
        E 162 9a 29 00
        E 118 9c 4c 00
        E 10 9a 24 7f
        E 15 9c 53 7f
        E 225 9a 35 7f
        E 186 9a 35 00
        E 74 9a 35 7f
        E 196 9a 35 00
        E 12 9a 24 00
        E 260 9a 26 7f
        E 222 9a 24 7f
        E 100 9a 26 00
        E 57 9c 53 00
        E 241 9a 24 00
        E 328 9a 24 7f
        E 16 9c 51 7f
        E 6 9a 41 56
        E 334 9a 24 00
        E 314 9a 41 00
        E 44 9a 24 77
        E 80 9a 24 00
        E 180 9a 26 7f
        E 96 9c 51 00
        E 394 9a 24 7f
        E 10 9c 53 7f
        E 30 9a 26 00
        E 440 9a 24 00
        E 480 9a 24 7f
        E 440 9a 24 00
        E 30 9a 26 7f
        E 704 9a 29 7f
        E 32 9a 29 00
        E 34 9c 53 00
        E 108 9a 26 00
        E 62 9a 24 7f
        E 15 9c 51 7f
        E 15 9a 29 7f
        E 129 9a 29 00
        E 117 9a 24 00
        E 232 9a 26 7f
        E 14 9a 29 13
        E 102 9a 26 00
        E 280 9a 29 00
        E 74 9a 23 7f
        E 4 9a 23 00
        E 0 9a 23 7f
        E 74 9a 23 00
        E 62 9c 51 00
        E 86 9a 29 7f
        E 631 9a 29 00
        E 87 9a 24 7f
        E 10 9c 4e 7f
        E 462 9a 24 00
        E 500 9a 26 7f
        E 222 9a 24 7f
        E 98 9a 26 00
        E 60 9c 4e 00
        E 2 9a 24 00
        E 564 9a 24 7f
        E 14 9c 4c 7f
        E 304 9a 24 00
        E 192 9a 24 37
        E 72 9a 24 00
        E 138 9a 26 7f
        E 591 9c 4c 00
        E 41 9a 26 00
        E 116 9a 24 7f
        E 10 9c 4e 7f
        E 184 9a 24 00
        E 764 9a 24 7f
        E 212 9a 26 7f
        E 184 9a 24 00
        E 332 9a 26 00
        E 188 9c 4e 00
        E 42 9a 24 7f
        E 158 9a 24 00
        E 64 9c 4e 7f
        E 230 9a 24 7f
        E 21 9a 29 7f
        E 17 9c 4e 00
        E 40 9a 29 00
        E 158 9a 24 00
        E 8 9c 4c 7f
        E 264 9a 26 7f
        E 12 9a 29 7f
        E 68 9a 26 00
        E 136 9a 26 13
        E 156 9a 26 00
        E 24 9a 29 00
        E 79 9a 23 7f
        E 4 9a 23 00
        E 0 9a 23 4b
        E 4 9a 24 37
        E 64 9a 23 00
        E 81 9a 24 00
        E 68 9a 26 7f
        E 11 9a 29 7f
        E 424 9a 26 00
        E 157 9a 29 00
        E 123 9c 4c 00
        E 10 9a 24 7f
        E 16 9c 53 7f
        E 222 9a 35 7f
        E 188 9a 35 00
        E 77 9a 35 7f
        E 191 9a 35 00
        E 13 9a 24 00
        E 260 9a 26 7f
        E 223 9a 24 7f
        E 95 9a 26 00
        E 64 9c 53 00
        E 240 9a 24 00
        E 322 9a 24 7f
        E 16 9c 51 7f
        E 4 9a 41 56
        E 340 9a 24 00
        E 318 9a 41 00
        E 40 9a 24 77
        E 79 9a 24 00
        E 179 9a 26 7f
        E 99 9c 51 00
        E 393 9a 24 7f
        E 12 9c 53 7f
        E 11 9a 26 00
        E 457 9a 24 00
        E 482 9a 24 7f
        E 432 9a 24 00
        E 36 9a 26 7f
        E 701 9a 29 7f
        E 39 9a 29 00
        E 28 9c 53 00
        E 110 9a 26 00
        E 62 9a 24 7f
        E 16 9c 51 7f
        E 14 9a 29 7f
        E 123 9a 29 00
        E 124 9a 24 00
        E 231 9a 26 7f
        E 11 9a 29 13
        E 107 9a 26 00
        E 277 9a 29 00
        E 73 9a 23 7f
        E 4 9a 23 00
        E 0 9a 23 7f
        E 76 9a 23 00
        E 64 9c 51 00
        E 80 9a 29 7f
        E 638 9a 29 00
        E 77 9a 24 7f
        E 11 9c 4e 7f
        E 470 9a 24 00
        E 498 9a 26 7f
        E 225 9a 24 7f
        E 99 9a 26 00
        E 56 9c 4e 00
        E 2 9a 24 00
        E 564 9a 24 7f
        E 14 9c 4c 7f
        E 300 9a 24 00
        E 190 9a 24 37
        E 78 9a 24 00
        E 142 9a 26 7f
        E 593 9c 4c 00
        E 38 9a 26 00
        E 113 9a 24 7f
        E 9 9c 4e 7f
        E 189 9a 24 00
        E 761 9a 24 7f
        E 211 9a 26 7f
        E 188 9a 24 00
        E 327 9a 26 00
        E 189 9c 4e 00
        E 43 9a 24 7f
        E 159 9a 24 00
        E 58 9c 4e 7f
        E 236 9a 24 7f
        E 21 9a 29 7f
        E 18 9c 4e 00
        E 39 9a 29 00
        E 158 9a 24 00
        E 8 9c 4c 7f
        E 264 9a 26 7f
        E 10 9a 29 7f
        E 64 9a 26 00
        E 140 9a 26 13
        E 153 9a 26 00
        E 30 9a 29 00
        E 68 9a 23 7f
        E 6 9a 23 00
        E 0 9a 23 4b
        E 4 9a 24 37
        E 73 9a 23 00
        E 79 9a 24 00
        E 63 9a 26 7f
        E 9 9a 29 7f
        E 424 9a 26 00
        E 167 9a 29 00
        E 117 9c 4c 00
        E 10 9a 24 7f
        E 14 9c 53 7f
        E 226 9a 35 7f
        E 192 9a 35 00
        E 67 9a 35 7f
        E 199 9a 35 00
        E 12 9a 24 00
        E 263 9a 26 7f
        E 219 9a 24 7f
        E 97 9a 26 00
        E 60 9c 53 00
        E 244 9a 24 00
        E 324 9a 24 7f
        E 16 9c 51 7f
        E 4 9a 41 56
        E 331 9a 24 00
        E 325 9a 41 00
        E 39 9a 24 77
        E 75 9a 24 00
        E 180 9a 26 7f
        E 103 9c 51 00
        E 389 9a 24 7f
        E 10 9c 53 7f
        E 28 9a 26 00
        E 441 9a 24 00
        E 482 9a 24 7f
        E 441 9a 24 00
        E 27 9a 26 7f
        E 707 9a 29 7f
        E 32 9a 29 00
        E 29 9c 53 00
        E 109 9a 26 00
        E 66 9a 24 7f
        E 15 9c 51 7f
        E 15 9a 29 7f
        E 127 9a 29 00
        E 119 9a 24 00
        E 231 9a 26 7f
        E 12 9a 29 13
        E 104 9a 26 00
        E 282 9a 29 00
        E 70 9a 23 7f
        E 4 9a 23 00
        E 0 9a 23 7f
        E 77 9a 23 00
        E 62 9c 51 00
        E 85 9a 29 7f
        E 631 9a 29 00
        E 86 9a 24 7f
        E 10 9c 4e 7f
        E 465 9a 24 00
        E 503 9a 26 7f
        E 217 9a 24 7f
        E 99 9a 26 00
        E 64 9c 4e 00
        E 1 9a 24 00
        E 558 9a 24 7f
        E 14 9c 4c 7f
        E 306 9a 24 00
        E 190 9a 24 37
        E 75 9a 24 00
        E 137 9a 26 7f
        E 594 9c 4c 00
        E 40 9a 26 00
        E 112 9a 24 7f
        E 10 9c 4e 7f
        E 190 9a 24 00
        E 760 9a 24 7f
        E 212 9a 26 7f
        E 186 9a 24 00
        E 334 9a 26 00
        E 183 9c 4e 00
        E 43 9a 24 7f
        E 161 9a 24 00
        E 57 9c 4e 7f
        E 234 9a 24 7f
        E 22 9a 29 7f
        E 16 9c 4e 00
        E 40 9a 29 00
        E 160 9a 24 00
        E 8 9c 4c 7f
        E 262 9a 26 7f
        E 12 9a 29 7f
        E 70 9a 26 00
        E 130 9a 26 13
        E 157 9a 26 00
        E 29 9a 29 00
        E 70 9a 23 7f
        E 4 9a 23 00
        E 0 9a 23 4b
        E 4 9a 24 37
        E 73 9a 23 00
        E 81 9a 24 00
        E 62 9a 26 7f
        E 12 9a 29 7f
        E 425 9a 26 00
        E 158 9a 29 00
        E 121 9c 4c 00
        E 11 9a 24 7f
        E 16 9c 53 7f
        E 229 9a 35 7f
        E 188 9a 35 00
        E 67 9a 35 7f
        E 201 9a 35 00
        E 6 9a 24 00
        E 267 9a 26 7f
        E 223 9a 24 7f
        E 94 9a 26 00
        E 58 9c 53 00
        E 244 9a 24 00
        E 325 9a 24 7f
        E 16 9c 51 7f
        E 3 9a 41 56
        E 335 9a 24 00
        E 321 9a 41 00
        E 43 9a 24 77
        E 73 9a 24 00
        E 179 9a 26 7f
        E 104 9c 51 00
        E 387 9a 24 7f
        E 11 9c 53 7f
        E 28 9a 26 00
        E 441 9a 24 00
        E 483 9a 24 7f
        E 438 9a 24 00
        E 29 9a 26 7f
        E 706 9a 29 7f
        E 35 9a 29 00
        E 29 9c 53 00
        E 108 9a 26 00
        E 64 9a 24 7f
        E 16 9c 51 7f
        E 12 9a 29 7f
        E 131 9a 29 00
        E 116 9a 24 00
        E 234 9a 26 7f
        E 11 9a 29 13
        E 105 9a 26 00
        E 284 9a 29 00
        E 68 9a 23 7f
        E 4 9a 23 00
        E 0 9a 23 7f
        E 75 9a 23 00
        E 60 9c 51 00
        E 88 9a 29 7f
        E 632 9a 29 00
        E 86 9a 24 7f
        E 11 9c 4e 7f
        E 462 9a 24 00
        E 499 9a 26 7f
        E 231 9a 24 7f
        E 89 9a 26 00
        E 61 9c 4e 00
        E 2 9a 24 00
        E 563 9a 24 7f
        E 15 9c 4c 7f
        E 301 9a 24 00
        E 194 9a 24 37
        E 77 9a 24 00
        E 133 9a 26 7f
        E 594 9c 4c 00
        E 40 9a 26 00
        E 114 9a 24 7f
        E 11 9c 4e 7f
        E 185 9a 24 00
        E 764 9a 24 7f
        E 210 9a 26 7f
        E 188 9a 24 00
        E 330 9a 26 00
        E 186 9c 4e 00
        E 45 9a 24 7f
        E 155 9a 24 00
        E 66 9c 4e 7f
        E 230 9a 24 7f
        E 22 9a 29 7f
        E 16 9c 4e 00
        E 41 9a 29 00
        E 155 9a 24 00
        E 11 9c 4c 7f
        E 261 9a 26 7f
        E 13 9a 29 7f
        E 67 9a 26 00
        E 136 9a 26 13
        E 152 9a 26 00
        E 28 9a 29 00
        E 72 9a 23 7f
        E 6 9a 23 00
        E 0 9a 23 4b
        E 4 9a 24 37
        E 72 9a 23 00
        E 80 9a 24 00
        E 63 9a 26 7f
        E 10 9a 29 7f
        E 423 9a 26 00
        E 163 9a 29 00
        E 127 9c 4c 00
        E 10 9a 24 7f
        E 14 9c 53 7f
        E 220 9a 35 7f
        E 188 9a 35 00
        E 70 9a 35 7f
        E 202 9a 35 00
        E 12 9a 24 00
        E 260 9a 26 7f
        E 220 9a 24 7f
        E 94 9a 26 00
        E 66 9c 53 00
        E 234 9a 24 00
        E 328 9a 24 7f
        E 14 9c 51 7f
        E 6 9a 41 56
        E 334 9a 24 00
        E 323 9a 41 00
        E 41 9a 24 77
        E 74 9a 24 00
        E 184 9a 26 7f
        E 100 9c 51 00
        E 386 9a 24 7f
        E 8 9c 53 7f
        E 34 9a 26 00
        E 444 9a 24 00
        E 472 9a 24 7f
        E 442 9a 24 00
        E 35 9a 26 7f
        E 701 9a 29 7f
        E 32 9a 29 00
        E 32 9c 53 00
        E 108 9a 26 00
        E 68 9a 24 7f
        E 16 9c 51 7f
        E 14 9a 29 7f
        E 124 9a 29 00
        E 118 9a 24 00
        E 230 9a 26 7f
        E 12 9a 29 13
        E 108 9a 26 00
        E 282 9a 29 00
        E 75 9a 23 7f
        E 3 9a 23 00
        E 0 9a 23 7f
        E 76 9a 23 00
        E 56 9c 51 00
        E 88 9a 29 7f
        E 629 9a 29 00
        E 85 9a 24 7f
        E 11 9c 4e 7f
        E 467 9a 24 00
        E 502 9a 26 7f
        E 222 9a 24 7f
        E 95 9a 26 00
        E 61 9c 4e 00
        E 4 9a 24 00
        E 562 9a 24 7f
        E 16 9c 4c 7f
        E 296 9a 24 00
        E 192 9a 24 37
        E 76 9a 24 00
        E 138 9a 26 7f
        E 592 9c 4c 00
        E 40 9a 26 00
        E 114 9a 24 7f
        E 8 9c 4e 7f
        E 186 9a 24 00
        E 764 9a 24 7f
        E 210 9a 26 7f
        E 188 9a 24 00
        E 334 9a 26 00
        E 190 9c 4e 00
        E 42 9a 24 7f
        E 158 9a 24 00
        E 59 9c 4e 7f
        E 235 9a 24 7f
        E 24 9a 29 7f
        E 14 9c 4e 00
        E 40 9a 29 00
        E 158 9a 24 00
        E 8 9c 4c 7f
        E 264 9a 26 7f
        E 10 9a 29 7f
        E 64 9a 26 00
        E 134 9a 26 13
        E 160 9a 26 00
        E 28 9a 29 00
        E 72 9a 23 7f
        E 4 9a 23 00
        E 0 9a 23 4b
        E 4 9a 24 37
        E 72 9a 23 00
        E 80 9a 24 00
        E 62 9a 26 7f
        E 10 9a 29 7f
        E 424 9a 26 00
        E 164 9a 29 00
        E 118 9c 4c 00
        E 10 9a 24 7f
        E 16 9c 53 7f
        E 228 9a 35 7f
        E 182 9a 35 00
        E 74 9a 35 7f
        E 200 9a 35 00
        E 4 9a 24 00
        E 264 9a 26 7f
        E 226 9a 24 7f
        E 96 9a 26 00
        E 60 9c 53 00
        E 238 9a 24 00
        E 322 9a 24 7f
        E 16 9c 51 7f
        E 6 9a 41 56
        E 338 9a 24 00
        E 315 9a 41 00
        E 49 9a 24 77
        E 72 9a 24 00
        E 180 9a 26 7f
        E 106 9c 51 00
        E 388 9a 24 7f
        E 10 9c 53 7f
        E 28 9a 26 00
        E 440 9a 24 00
        E 482 9a 24 7f
        E 434 9a 24 00
        E 35 9a 26 7f
        E 705 9a 29 7f
        E 32 9a 29 00
        E 30 9c 53 00
        E 110 9a 26 00
        E 62 9a 24 7f
        E 18 9c 51 7f
        E 14 9a 29 7f
        E 128 9a 29 00
        E 116 9a 24 00
        E 234 9a 26 7f
        E 12 9a 29 13
        E 102 9a 26 00
        E 286 9a 29 00
        E 68 9a 23 7f
        E 3 9a 23 00
        E 0 9a 23 7f
        E 75 9a 23 00
        E 62 9c 51 00
        E 88 9a 29 7f
        E 630 9a 29 00
        E 88 9a 24 7f
        E 10 9c 4e 7f
        E 462 9a 24 00
        E 500 9a 26 7f
        E 222 9a 24 7f
        E 98 9a 26 00
        E 64 9c 4e 00
        E 2 9a 24 00
        E 562 9a 24 7f
        E 16 9c 4c 7f
        E 298 9a 24 00
        E 190 9a 24 37
        E 80 9a 24 00
        E 135 9a 26 7f
        E 597 9c 4c 00
        E 34 9a 26 00
        E 112 9a 24 7f
        E 10 9c 4e 7f
        E 188 9a 24 00
        E 760 9a 24 7f
        E 214 9a 26 7f
        E 186 9a 24 00
        E 330 9a 26 00
        E 192 9c 4e 00
        E 41 9a 24 7f
        E 155 9a 24 00
        E 66 9c 4e 7f
        E 232 9a 24 7f
        E 24 9a 29 7f
        E 16 9c 4e 00
        E 38 9a 29 00
        E 154 9a 24 00
        E 10 9c 4c 7f
        E 266 9a 26 7f
        E 12 9a 29 7f
        E 64 9a 26 00
        E 134 9a 26 13
        E 160 9a 26 00
        E 30 9a 29 00
        E 68 9a 23 7f
        E 6 9a 23 00
        E 0 9a 23 4b
        E 4 9a 24 37
        E 70 9a 23 00
        E 78 9a 24 00
        E 69 9a 26 7f
        E 9 9a 29 7f
        E 426 9a 26 00
        E 154 9a 29 00
        E 126 9c 4c 00
        E 8 9a 24 7f
        E 16 9c 53 7f
        E 224 9a 35 7f
        E 186 9a 35 00
        E 74 9a 35 7f
        E 196 9a 35 00
        E 10 9a 24 00
        E 260 9a 26 7f
        E 224 9a 24 7f
        E 100 9a 26 00
        E 58 9c 53 00
        E 238 9a 24 00
        E 324 9a 24 7f
        E 16 9c 51 7f
        E 5 9a 41 56
        E 339 9a 24 00
        E 316 9a 41 00
        E 42 9a 24 77
        E 82 9a 24 00
        E 178 9a 26 7f
        E 102 9c 51 00
        E 390 9a 24 7f
        E 9 9c 53 7f
        E 29 9a 26 00
        E 440 9a 24 00
        E 482 9a 24 7f
        E 440 9a 24 00
        E 28 9a 26 7f
        E 706 9a 29 7f
        E 34 9a 29 00
        E 30 9c 53 00
        E 108 9a 26 00
        E 62 9a 24 7f
        E 14 9c 51 7f
        E 14 9a 29 7f
        E 132 9a 29 00
        E 120 9a 24 00
        E 230 9a 26 7f
        E 12 9a 29 13
        E 104 9a 26 00
        E 277 9a 29 00
        E 75 9a 23 7f
        E 4 9a 23 00
        E 0 9a 23 7f
        E 74 9a 23 00
        E 64 9c 51 00
        E 86 9a 29 7f
        E 632 9a 29 00
        E 79 9a 24 7f
        E 10 9c 4e 7f
        E 469 9a 24 00
        E 500 9a 26 7f
        E 221 9a 24 7f
        E 103 9a 26 00
        E 56 9c 4e 00
        E 4 9a 24 00
        E 562 9a 24 7f
        E 14 9c 4c 7f
        E 298 9a 24 00
        E 190 9a 24 37
        E 80 9a 24 00
        E 138 9a 26 7f
        E 596 9c 4c 00
        E 42 9a 26 00
        E 104 9a 24 7f
        E 10 9c 4e 7f
        E 194 9a 24 00
        E 756 9a 24 7f
        E 218 9a 26 7f
        E 185 9a 24 00
        E 325 9a 26 00
        E 192 9c 4e 00
        E 44 9a 24 7f
        E 157 9a 24 00
        E 59 9c 4e 7f
        E 234 9a 24 7f
        E 24 9a 29 7f
        E 16 9c 4e 00
        E 40 9a 29 00
        E 158 9a 24 00
        E 8 9c 4c 7f
        E 264 9a 26 7f
        E 10 9a 29 7f
        E 64 9a 26 00
        E 140 9a 26 13
        E 152 9a 26 00
        E 28 9a 29 00
        E 74 9a 23 7f
        E 4 9a 23 00
        E 0 9a 23 4b
        E 4 9a 24 37
        E 69 9a 23 00
        E 83 9a 24 00
        E 62 9a 26 7f
        E 9 9a 29 7f
        E 425 9a 26 00
        E 166 9a 29 00
        E 116 9c 4c 00
        E 8 9a 24 7f
        E 709 9a 24 00
        E 265 9a 26 7f
        E 218 9a 24 7f
        E 98 9a 26 00
        E 304 9a 24 00
        E 321 9a 24 7f
        E 356 9a 24 00
        E 365 9a 24 77
        E 74 9a 24 00
        E 182 9a 26 7f
        E 492 9a 24 7f
        E 26 9a 26 00
        E 448 9a 24 00
        E 488 9a 24 7f
        E 434 9a 24 00
        E 34 9a 26 7f
        E 878 9a 26 00
        E 62 9a 24 7f
        E 278 9a 24 00
        E 232 9a 26 7f
        E 118 9a 26 00
        E 350 9a 23 7f
        E 4 9a 23 00
        E 0 9a 23 7f
        E 74 9a 23 00
        E 866 9a 24 7f
        E 474 9a 24 00
        E 502 9a 26 7f
        E 224 9a 24 7f
        E 92 9a 26 00
        E 60 9a 24 00
        E 568 9a 24 7f
        E 312 9a 24 00
        E 194 9a 24 37
        E 76 9a 24 00
        E 134 9a 26 7f
        E 636 9a 26 00
        E 112 9a 24 7f
        E 196 9a 24 00
        E 764 9a 24 7f
        E 210 9a 26 7f
        E 184 9a 24 00
        E 330 9a 26 00
        E 234 9a 24 7f
        E 156 9a 24 00
        E 300 9a 24 7f
        E 232 9a 24 00
        E 276 9a 26 7f
        E 76 9a 26 00
        E 132 9a 26 13
        E 158 9a 26 00
        E 102 9a 23 7f
        E 4 9a 23 00
        E 0 9a 23 4b
        E 4 9a 24 37
        E 65 9a 23 00
        E 85 9a 24 00
        E 68 9a 26 7f
        E 434 9a 26 00
        E 284 9a 24 7f
        E 714 9a 24 00
        E 261 9a 26 7f
        E 219 9a 24 7f
        E 95 9a 26 00
        E 301 9a 24 00
        E 326 9a 24 7f
        E 354 9a 24 00
        E 362 9a 24 77
        E 82 9a 24 00
        E 178 9a 26 7f
        E 492 9a 24 7f
        E 32 9a 26 00
        E 450 9a 24 00
        E 478 9a 24 7f
        E 434 9a 24 00
        E 36 9a 26 7f
        E 877 9a 26 00
        E 61 9a 24 7f
        E 276 9a 24 00
        E 233 9a 26 7f
        E 115 9a 26 00
        E 354 9a 23 7f
        E 4 9a 23 00
        E 0 9a 23 7f
        E 76 9a 23 00
        E 864 9a 24 7f
        E 474 9a 24 00
        E 502 9a 26 7f
        E 222 9a 24 7f
        E 96 9a 26 00
        E 63 9a 24 00
        E 561 9a 24 7f
        E 318 9a 24 00
        E 190 9a 24 37
        E 76 9a 24 00
        E 137 9a 26 7f
        E 638 9a 26 00
        E 109 9a 24 7f
        E 199 9a 24 00
        E 761 9a 24 7f
        E 212 9a 26 7f
        E 184 9a 24 00
        E 329 9a 26 00
        E 235 9a 24 7f
        E 154 9a 24 00
        E 296 9a 24 7f
        E 235 9a 24 00
        E 273 9a 26 7f
        E 77 9a 26 00
        E 133 9a 26 13
        E 155 9a 26 00
        E 103 9a 23 7f
        E 3 9a 23 00
        E 0 9a 23 4b
        E 4 9a 24 37
        E 73 9a 23 00
        E 80 9a 24 00
        E 68 9a 26 7f
        E 433 9a 26 00
        E 291 9a 24 7f
        E 708 9a 24 00
        E 259 9a 26 7f
        E 222 9a 24 7f
        E 99 9a 26 00
        E 297 9a 24 00
        E 326 9a 24 7f
        E 358 9a 24 00
        E 363 9a 24 77
        E 74 9a 24 00
        E 184 9a 26 7f
        E 492 9a 24 7f
        E 24 9a 26 00
        E 448 9a 24 00
        E 482 9a 24 7f
        E 439 9a 24 00
        E 30 9a 26 7f
        E 884 9a 26 00
        E 61 9a 24 7f
        E 277 9a 24 00
        E 232 9a 26 7f
        E 114 9a 26 00
        E 355 9a 23 7f
        E 3 9a 23 00
        E 0 9a 23 7f
        E 76 9a 23 00
        E 865 9a 24 7f
        E 473 9a 24 00
        E 503 9a 26 7f
        E 219 9a 24 7f
        E 95 9a 26 00
        E 63 9a 24 00
        E 562 9a 24 7f
        E 313 9a 24 00
        E 198 9a 24 37
        E 76 9a 24 00
        E 131 9a 26 7f
        E 641 9a 26 00
        E 110 9a 24 7f
        E 195 9a 24 00
        E 764 9a 24 7f
        E 211 9a 26 7f
        E 184 9a 24 00
        E 333 9a 26 00
        E 232 9a 24 7f
        E 157 9a 24 00
        E 292 9a 24 7f
        E 239 9a 24 00
        E 266 9a 26 7f
        E 85 9a 26 00
        E 131 9a 26 13
        E 157 9a 26 00
        E 103 9a 23 7f
        E 6 9a 23 00
        E 0 9a 23 4b
        E 4 9a 24 37
        E 65 9a 23 00
        E 82 9a 24 00
        E 63 9a 26 7f
        E 441 9a 26 00
        E 283 9a 24 7f
        E 714 9a 24 00
        E 262 9a 26 7f
        E 218 9a 24 7f
        E 101 9a 26 00
        E 295 9a 24 00
        E 330 9a 24 7f
        E 354 9a 24 00
        E 359 9a 24 77
        E 80 9a 24 00
        E 179 9a 26 7f
        E 490 9a 24 7f
        E 32 9a 26 00
        E 446 9a 24 00
        E 482 9a 24 7f
        E 441 9a 24 00
        E 27 9a 26 7f
        E 881 9a 26 00
        E 66 9a 24 7f
        E 271 9a 24 00
        E 233 9a 26 7f
        E 116 9a 26 00
        E 351 9a 23 7f
        E 4 9a 23 00
        E 0 9a 23 7f
        E 79 9a 23 00
        E 862 9a 24 7f
        E 474 9a 24 00
        E 502 9a 26 7f
        E 224 9a 24 7f
        E 97 9a 26 00
        E 58 9a 24 00
        E 567 9a 24 7f
        E 312 9a 24 00
        E 192 9a 24 37
        E 77 9a 24 00
        E 139 9a 26 7f
        E 632 9a 26 00
        E 115 9a 24 7f
        E 193 9a 24 00
        E 767 9a 24 7f
        E 212 9a 26 7f
        E 184 9a 24 00
        E 328 9a 26 00
        E 230 9a 24 7f
        E 163 9a 24 00
        E 293 9a 24 7f
        E 233 9a 24 00
        E 274 9a 26 7f
        E 75 9a 26 00
        E 140 9a 26 13
        E 150 9a 26 00
        E 103 9a 23 7f
        E 3 9a 23 00
        E 0 9a 23 4b
        E 4 9a 24 37
        E 73 9a 23 00
        E 77 9a 24 00
        E 68 9a 26 7f
        E 435 9a 26 00
        E 285 9a 24 7f
        E 712 9a 24 00
        E 262 9a 26 7f
        E 221 9a 24 7f
        E 99 9a 26 00
        E 302 9a 24 00
        E 324 9a 24 7f
        E 356 9a 24 00
        E 361 9a 24 77
        E 73 9a 24 00
        E 186 9a 26 7f
        E 486 9a 24 7f
        E 34 9a 26 00
        E 446 9a 24 00
        E 482 9a 24 7f
        E 440 9a 24 00
        E 28 9a 26 7f
        E 878 9a 26 00
        E 68 9a 24 7f
        E 276 9a 24 00
        E 229 9a 26 7f
        E 119 9a 26 00
        E 354 9a 23 7f
        E 4 9a 23 00
        E 0 9a 23 7f
        E 68 9a 23 00
        E 866 9a 24 7f
        E 480 9a 24 00
        E 502 9a 26 7f
        E 220 9a 24 7f
        E 92 9a 26 00
        E 64 9a 24 00
        E 562 9a 24 7f
        E 316 9a 24 00
        E 190 9a 24 37
        E 76 9a 24 00
        E 138 9a 26 7f
        E 636 9a 26 00
        E 112 9a 24 7f
        E 198 9a 24 00
        E 760 9a 24 7f
        E 212 9a 26 7f
        E 184 9a 24 00
        E 330 9a 26 00
        E 234 9a 24 7f
        E 160 9a 24 00
        E 296 9a 24 7f
        E 236 9a 24 00
        E 270 9a 26 7f
        E 74 9a 26 00
        E 138 9a 26 13
        E 154 9a 26 00
        E 102 9a 23 7f
        E 6 9a 23 00
        E 0 9a 23 4b
        E 4 9a 24 37
        E 66 9a 23 00
        E 84 9a 24 00
        E 62 9a 26 7f
        E 434 9a 26 00
        E 290 9a 24 7f
        E 714 9a 24 00
        E 256 9a 26 7f
        E 224 9a 24 7f
        E 96 9a 26 00
        E 300 9a 24 00
        E 324 9a 24 7f
        E 14 9c 51 7f
        E 6 9a 41 56
        E 338 9a 24 00
        E 318 9a 41 00
        E 46 9a 24 77
        E 74 9a 24 00
        E 180 9a 26 7f
        E 102 9c 51 00
        E 390 9a 24 7f
        E 10 9c 53 7f
        E 26 9a 26 00
        E 444 9a 24 00
        E 482 9a 24 7f
        E 438 9a 24 00
        E 28 9a 26 7f
        E 708 9a 29 7f
        E 32 9a 29 00
        E 32 9c 53 00
        E 108 9a 26 00
        E 68 9a 24 7f
        E 16 9c 51 7f
        E 14 9a 29 7f
        E 124 9a 29 00
        E 118 9a 24 00
        E 232 9a 26 7f
        E 12 9a 29 13
        E 104 9a 26 00
        E 284 9a 29 00
        E 66 9a 23 7f
        E 6 9a 23 00
        E 0 9a 23 7f
        E 74 9a 23 00
        E 62 9c 51 00
        E 86 9a 29 7f
        E 633 9a 29 00
        E 87 9a 24 7f
        E 8 9c 4e 7f
        E 468 9a 24 00
        E 500 9a 26 7f
        E 222 9a 24 7f
        E 94 9a 26 00
        E 58 9c 4e 00
        E 2 9a 24 00
        E 564 9a 24 7f
        E 16 9c 4c 7f
        E 302 9a 24 00
        E 192 9a 24 37
        E 77 9a 24 00
        E 133 9a 26 7f
        E 598 9c 4c 00
        E 39 9a 26 00
        E 111 9a 24 7f
        E 10 9c 4e 7f
        E 188 9a 24 00
        E 762 9a 24 7f
        E 210 9a 26 7f
        E 186 9a 24 00
        E 332 9a 26 00
        E 186 9c 4e 00
        E 42 9a 24 7f
        E 158 9a 24 00
        E 66 9c 4e 7f
        E 230 9a 24 7f
        E 22 9a 29 7f
        E 16 9c 4e 00
        E 38 9a 29 00
        E 160 9a 24 00
        E 8 9c 4c 7f
        E 264 9a 26 7f
        E 12 9a 29 7f
        E 68 9a 26 00
        E 134 9a 26 13
        E 154 9a 26 00
        E 30 9a 29 00
        E 70 9a 23 7f
        E 4 9a 23 00
        E 0 9a 23 4b
        E 4 9a 24 37
        E 70 9a 23 00
        E 82 9a 24 00
        E 69 9a 26 7f
        E 9 9a 29 7f
        E 424 9a 26 00
        E 160 9a 29 00
        E 119 9c 4c 00
        E 9 9a 24 7f
        E 14 9c 53 7f
        E 228 9a 35 7f
        E 192 9a 35 00
        E 64 9a 35 7f
        E 202 9a 35 00
        E 12 9a 24 00
        E 260 9a 26 7f
        E 220 9a 24 7f
        E 94 9a 26 00
        E 66 9c 53 00
        E 240 9a 24 00
        E 324 9a 24 7f
        E 15 9c 51 7f
        E 7 9a 41 56
        E 330 9a 24 00
        E 322 9a 41 00
        E 42 9a 24 77
        E 74 9a 24 00
        E 182 9a 26 7f
        E 102 9c 51 00
        E 388 9a 24 7f
        E 10 9c 53 7f
        E 28 9a 26 00
        E 450 9a 24 00
        E 474 9a 24 7f
        E 436 9a 24 00
        E 36 9a 26 7f
        E 702 9a 29 7f
        E 32 9a 29 00
        E 30 9c 53 00
        E 110 9a 26 00
        E 66 9a 24 7f
        E 16 9c 51 7f
        E 14 9a 29 7f
        E 126 9a 29 00
        E 118 9a 24 00
        E 236 9a 26 7f
        E 14 9a 29 13
        E 98 9a 26 00
        E 282 9a 29 00
        E 73 9a 23 7f
        E 4 9a 23 00
        E 0 9a 23 7f
        E 73 9a 23 00
        E 60 9c 51 00
        E 87 9a 29 7f
        E 631 9a 29 00
        E 86 9a 24 7f
        E 10 9c 4e 7f
        E 468 9a 24 00
        E 502 9a 26 7f
        E 222 9a 24 7f
        E 92 9a 26 00
        E 64 9c 4e 00
        E 2 9a 24 00
        E 564 9a 24 7f
        E 14 9c 4c 7f
        E 298 9a 24 00
        E 192 9a 24 37
        E 76 9a 24 00
        E 135 9a 26 7f
        E 595 9c 4c 00
        E 40 9a 26 00
        E 112 9a 24 7f
        E 10 9c 4e 7f
        E 190 9a 24 00
        E 758 9a 24 7f
        E 214 9a 26 7f
        E 184 9a 24 00
        E 334 9a 26 00
        E 190 9c 4e 00
        E 44 9a 24 7f
        E 156 9a 24 00
        E 62 9c 4e 7f
        E 234 9a 24 7f
        E 22 9a 29 7f
        E 16 9c 4e 00
        E 38 9a 29 00
        E 156 9a 24 00
        E 8 9c 4c 7f
        E 266 9a 26 7f
        E 12 9a 29 7f
        E 61 9a 26 00
        E 137 9a 26 13
        E 160 9a 26 00
        E 22 9a 29 00
        E 76 9a 23 7f
        E 6 9a 23 00
        E 0 9a 23 4b
        E 4 9a 24 37
        E 72 9a 23 00
        E 78 9a 24 00
        E 64 9a 26 7f
        E 12 9a 29 7f
        E 422 9a 26 00
        E 155 9a 29 00
        E 127 9c 4c 00
        E 10 9a 24 7f
        E 16 9c 53 7f
        E 226 9a 35 7f
        E 186 9a 35 00
        E 72 9a 35 7f
        E 58 8a 24 00
        E 0 8a 35 00
        E 0 8c 53 00
        E 0 b0 7b 00
        GUID {64D80FFE-2ED5-4872-9092-B41A7E4A714F}
        IGNTEMPO 0 120 4 4
        SRCCOLOR 304
        VELLANE -1 100 0
        CFGEDITVIEW 0 0 75 12 0 0 0 0 0
        KEYSNAP 0 0 102034050607 0 Major
        TRACKSEL 0 0 0 ""
        EVTFILTER 0 -1 -1 -1 -1 0 0 0 0 -1 -1 -1 -1 0 -1 0 -1 -1
        CFGEDIT 1 1 0 1 0 0 1 1 1 1 1 0.125 981 123 2564 969 0 0 0 0 0 0 0 0 0 0.5 0 0 1 64
      >
    >
    <ITEM
      POSITION 65.28
      SNAPOFFS 0
      LENGTH 30.72
      LOOP 1
      ALLTAKES 0
      FADEIN 1 0 0 1 0 0
      FADEOUT 1 0 0 1 0 0
      MUTE 0
      SEL 0
      IGUID {C58D97AF-E0B9-4F7D-A665-CFD157CE8F3D}
      IID 10
      NAME "02-Recorded MIDI"
      VOLPAN 0.756098 0 1 -1
      SOFFS 2.79549788944504 5.82395393634383
      PLAYRATE 1 1 0 -1 0 0.0025
      CHANMODE 0
      GUID {44E465D1-4C70-48F9-A683-533BBEBDB05D}
      RECPASS 1
      <SOURCE MIDI
        HASDATA 1 960 QN
        POOLEDEVTS {B1AEC249-E5F6-4FEE-8033-36D43177E2FD}
        E 5591 9a 24 7f
        E 16 9c 53 7f
        E 235 9a 35 7f
        E 185 9a 35 00
        E 74 9a 35 7f
        E 195 9a 35 00
        E 12 9a 24 00
        E 257 9a 26 7f
        E 222 9a 24 7f
        E 102 9a 26 00
        E 58 9c 53 00
        E 238 9a 24 00
        E 324 9a 24 7f
        E 14 9c 51 7f
        E 6 9a 41 56
        E 340 9a 24 00
        E 316 9a 41 00
        E 42 9a 24 77
        E 82 9a 24 00
        E 178 9a 26 7f
        E 102 9c 51 00
        E 390 9a 24 7f
        E 11 9c 53 7f
        E 27 9a 26 00
        E 440 9a 24 00
        E 482 9a 24 7f
        E 434 9a 24 00
        E 34 9a 26 7f
        E 703 9a 29 7f
        E 37 9a 29 00
        E 30 9c 53 00
        E 107 9a 26 00
        E 63 9a 24 7f
        E 16 9c 51 7f
        E 14 9a 29 7f
        E 130 9a 29 00
        E 120 9a 24 00
        E 230 9a 26 7f
        E 13 9a 29 13
        E 103 9a 26 00
        E 278 9a 29 00
        E 75 9a 23 7f
        E 3 9a 23 00
        E 0 9a 23 7f
        E 74 9a 23 00
        E 64 9c 51 00
        E 88 9a 29 7f
        E 630 9a 29 00
        E 80 9a 24 7f
        E 11 9c 4e 7f
        E 465 9a 24 00
        E 502 9a 26 7f
        E 223 9a 24 7f
        E 102 9a 26 00
        E 55 9c 4e 00
        E 2 9a 24 00
        E 562 9a 24 7f
        E 16 9c 4c 7f
        E 298 9a 24 00
        E 190 9a 24 37
        E 84 9a 24 00
        E 132 9a 26 7f
        E 598 9c 4c 00
        E 38 9a 26 00
        E 114 9a 24 7f
        E 10 9c 4e 7f
        E 186 9a 24 00
        E 762 9a 24 7f
        E 212 9a 26 7f
        E 187 9a 24 00
        E 331 9a 26 00
        E 186 9c 4e 00
        E 42 9a 24 7f
        E 156 9a 24 00
        E 68 9c 4e 7f
        E 228 9a 24 7f
        E 22 9a 29 7f
        E 17 9c 4e 00
        E 39 9a 29 00
        E 158 9a 24 00
        E 8 9c 4c 7f
        E 264 9a 26 7f
        E 12 9a 29 7f
        E 68 9a 26 00
        E 134 9a 26 13
        E 154 9a 26 00
        E 31 9a 29 00
        E 69 9a 23 7f
        E 4 9a 23 00
        E 0 9a 23 4b
        E 4 9a 24 37
        E 72 9a 23 00
        E 80 9a 24 00
        E 68 9a 26 7f
        E 13 9a 29 7f
        E 421 9a 26 00
        E 162 9a 29 00
        E 116 9c 4c 00
        E 10 9a 24 7f
        E 14 9c 53 7f
        E 228 9a 35 7f
        E 190 9a 35 00
        E 67 9a 35 7f
        E 202 9a 35 00
        E 11 9a 24 00
        E 262 9a 26 7f
        E 218 9a 24 7f
        E 96 9a 26 00
        E 64 9c 53 00
        E 240 9a 24 00
        E 324 9a 24 7f
        E 16 9c 51 7f
        E 6 9a 41 56
        E 330 9a 24 00
        E 324 9a 41 00
        E 40 9a 24 77
        E 76 9a 24 00
        E 181 9a 26 7f
        E 101 9c 51 00
        E 389 9a 24 7f
        E 9 9c 53 7f
        E 28 9a 26 00
        E 448 9a 24 00
        E 474 9a 24 7f
        E 438 9a 24 00
        E 36 9a 26 7f
        E 700 9a 29 7f
        E 32 9a 29 00
        E 32 9c 53 00
        E 114 9a 26 00
        E 62 9a 24 7f
        E 16 9c 51 7f
        E 14 9a 29 7f
        E 126 9a 29 00
        E 122 9a 24 00
        E 232 9a 26 7f
        E 12 9a 29 13
        E 106 9a 26 00
        E 276 9a 29 00
        E 74 9a 23 7f
        E 4 9a 23 00
        E 0 9a 23 7f
        E 70 9a 23 00
        E 60 9c 51 00
        E 88 9a 29 7f
        E 638 9a 29 00
        E 80 9a 24 7f
        E 8 9c 4e 7f
        E 468 9a 24 00
        E 502 9a 26 7f
        E 222 9a 24 7f
        E 98 9a 26 00
        E 58 9c 4e 00
        E 3 9a 24 00
        E 563 9a 24 7f
        E 14 9c 4c 7f
        E 298 9a 24 00
        E 192 9a 24 37
        E 76 9a 24 00
        E 136 9a 26 7f
        E 602 9c 4c 00
        E 38 9a 26 00
        E 112 9a 24 7f
        E 10 9c 4e 7f
        E 182 9a 24 00
        E 768 9a 24 7f
        E 206 9a 26 7f
        E 190 9a 24 00
        E 328 9a 26 00
        E 190 9c 4e 00
        E 44 9a 24 7f
        E 156 9a 24 00
        E 61 9c 4e 7f
        E 233 9a 24 7f
        E 24 9a 29 7f
        E 16 9c 4e 00
        E 38 9a 29 00
        E 162 9a 24 00
        E 8 9c 4c 7f
        E 262 9a 26 7f
        E 10 9a 29 7f
        E 64 9a 26 00
        E 136 9a 26 13
        E 158 9a 26 00
        E 30 9a 29 00
        E 70 9a 23 7f
        E 4 9a 23 00
        E 0 9a 23 4b
        E 4 9a 24 37
        E 72 9a 23 00
        E 80 9a 24 00
        E 64 9a 26 7f
        E 10 9a 29 7f
        E 422 9a 26 00
        E 164 9a 29 00
        E 118 9c 4c 00
        E 10 9a 24 7f
        E 16 9c 53 7f
        E 226 9a 35 7f
        E 192 9a 35 00
        E 64 9a 35 7f
        E 202 9a 35 00
        E 12 9a 24 00
        E 262 9a 26 7f
        E 220 9a 24 7f
        E 96 9a 26 00
        E 58 9c 53 00
        E 244 9a 24 00
        E 324 9a 24 7f
        E 16 9c 51 7f
        E 6 9a 41 56
        E 334 9a 24 00
        E 320 9a 41 00
        E 42 9a 24 77
        E 76 9a 24 00
        E 178 9a 26 7f
        E 104 9c 51 00
        E 388 9a 24 7f
        E 10 9c 53 7f
        E 30 9a 26 00
        E 440 9a 24 00
        E 480 9a 24 7f
        E 440 9a 24 00
        E 30 9a 26 7f
        E 706 9a 29 7f
        E 30 9a 29 00
        E 30 9c 53 00
        E 112 9a 26 00
        E 67 9a 24 7f
        E 17 9c 51 7f
        E 14 9a 29 7f
        E 124 9a 29 00
        E 116 9a 24 00
        E 234 9a 26 7f
        E 12 9a 29 13
        E 102 9a 26 00
        E 280 9a 29 00
        E 72 9a 23 7f
        E 6 9a 23 00
        E 0 9a 23 7f
        E 74 9a 23 00
        E 62 9c 51 00
        E 86 9a 29 7f
        E 632 9a 29 00
        E 86 9a 24 7f
        E 10 9c 4e 7f
        E 468 9a 24 00
        E 502 9a 26 7f
        E 220 9a 24 7f
        E 92 9a 26 00
        E 64 9c 4e 00
        E 2 9a 24 00
        E 560 9a 24 7f
        E 14 9c 4c 7f
        E 302 9a 24 00
        E 194 9a 24 37
        E 76 9a 24 00
        E 134 9a 26 7f
        E 598 9c 4c 00
        E 40 9a 26 00
        E 108 9a 24 7f
        E 10 9c 4e 7f
        E 188 9a 24 00
        E 764 9a 24 7f
        E 210 9a 26 7f
        E 184 9a 24 00
        E 332 9a 26 00
        E 192 9c 4e 00
        E 44 9a 24 7f
        E 152 9a 24 00
        E 66 9c 4e 7f
        E 231 9a 24 7f
        E 23 9a 29 7f
        E 16 9c 4e 00
        E 36 9a 29 00
        E 158 9a 24 00
        E 8 9c 4c 7f
        E 268 9a 26 7f
        E 12 9a 29 7f
        E 64 9a 26 00
        E 134 9a 26 13
        E 158 9a 26 00
        E 30 9a 29 00
        E 68 9a 23 7f
        E 6 9a 23 00
        E 0 9a 23 4b
        E 4 9a 24 37
        E 74 9a 23 00
        E 80 9a 24 00
        E 64 9a 26 7f
        E 9 9a 29 7f
        E 425 9a 26 00
        E 160 9a 29 00
        E 118 9c 4c 00
        E 12 9a 24 7f
        E 14 9c 53 7f
        E 225 9a 35 7f
        E 187 9a 35 00
        E 71 9a 35 7f
        E 199 9a 35 00
        E 10 9a 24 00
        E 266 9a 26 7f
        E 217 9a 24 7f
        E 99 9a 26 00
        E 60 9c 53 00
        E 238 9a 24 00
        E 328 9a 24 7f
        E 16 9c 51 7f
        E 6 9a 41 56
        E 332 9a 24 00
        E 318 9a 41 00
        E 48 9a 24 77
        E 72 9a 24 00
        E 180 9a 26 7f
        E 102 9c 51 00
        E 390 9a 24 7f
        E 10 9c 53 7f
        E 26 9a 26 00
        E 444 9a 24 00
        E 480 9a 24 7f
        E 440 9a 24 00
        E 28 9a 26 7f
        E 708 9a 29 7f
        E 34 9a 29 00
        E 28 9c 53 00
        E 110 9a 26 00
        E 62 9a 24 7f
        E 16 9c 51 7f
        E 14 9a 29 7f
        E 130 9a 29 00
        E 118 9a 24 00
        E 232 9a 26 7f
        E 12 9a 29 13
        E 102 9a 26 00
        E 280 9a 29 00
        E 74 9a 23 7f
        E 4 9a 23 00
        E 0 9a 23 7f
        E 74 9a 23 00
        E 62 9c 51 00
        E 82 9a 29 7f
        E 636 9a 29 00
        E 88 9a 24 7f
        E 8 9c 4e 7f
        E 462 9a 24 00
        E 502 9a 26 7f
        E 220 9a 24 7f
        E 102 9a 26 00
        E 58 9c 4e 00
        E 2 9a 24 00
        E 562 9a 24 7f
        E 15 9c 4c 7f
        E 299 9a 24 00
        E 196 9a 24 37
        E 73 9a 24 00
        E 137 9a 26 7f
        E 598 9c 4c 00
        E 38 9a 26 00
        E 112 9a 24 7f
        E 10 9c 4e 7f
        E 188 9a 24 00
        E 762 9a 24 7f
        E 210 9a 26 7f
        E 186 9a 24 00
        E 332 9a 26 00
        E 186 9c 4e 00
        E 44 9a 24 7f
        E 155 9a 24 00
        E 67 9c 4e 7f
        E 230 9a 24 7f
        E 22 9a 29 7f
        E 16 9c 4e 00
        E 40 9a 29 00
        E 158 9a 24 00
        E 8 9c 4c 7f
        E 264 9a 26 7f
        E 10 9a 29 7f
        E 70 9a 26 00
        E 134 9a 26 13
        E 154 9a 26 00
        E 28 9a 29 00
        E 72 9a 23 7f
        E 4 9a 23 00
        E 0 9a 23 4b
        E 4 9a 24 37
        E 69 9a 23 00
        E 82 9a 24 00
        E 69 9a 26 7f
        E 10 9a 29 7f
        E 418 9a 26 00
        E 162 9a 29 00
        E 122 9c 4c 00
        E 9 9a 24 7f
        E 14 9c 53 7f
        E 5 8a 24 00
        E 0 8c 53 00
        E 0 b0 7b 00
        GUID {017317C0-E86E-4310-BD9E-56E2D73FBBA7}
        IGNTEMPO 0 120 4 4
        SRCCOLOR 235
        VELLANE -1 100 0
        CFGEDITVIEW -10494.578798 0.003832 75 12 0 0 0 0 100
        KEYSNAP 0 0 102034050607 0 Major
        TRACKSEL 0 0 0 ""
        EVTFILTER 0 -1 -1 -1 -1 0 0 0 0 -1 -1 -1 -1 0 -1 0 -1 -1
        CFGEDIT 1 1 0 1 0 0 1 1 1 1 1 0.125 981 123 2564 969 0 0 0 0 0 0 0 0 0 0.5 0 0 1 64
      >
    >
    <ITEM
      POSITION 96
      SNAPOFFS 0
      LENGTH 5.76
      LOOP 1
      ALLTAKES 0
      FADEIN 1 0 0 1 0 0
      FADEOUT 1 0 0 1 0 0
      MUTE 0
      SEL 0
      IGUID {B461FFCA-86A0-4640-84C5-4CF37334231D}
      IID 10
      NAME "02-Recorded MIDI"
      VOLPAN 0.756098 0 1 -1
      SOFFS 0 0
      PLAYRATE 1 1 0 -1 0 0.0025
      CHANMODE 0
      GUID {225CE972-963D-4B84-A9EE-0E34B7261FD9}
      RECPASS 1
      <SOURCE MIDI
        HASDATA 1 960 QN
        POOLEDEVTS {37FD1FAC-E25C-4D56-80E0-BA93E0C500CA}
        E 0 9a 24 7f
        E 0 9c 53 7f
        E 224 9a 35 7f
        E 189 9a 35 00
        E 67 9a 35 7f
        E 202 9a 35 00
        E 10 9a 24 00
        E 262 9a 26 7f
        E 222 9a 24 7f
        E 94 9a 26 00
        E 64 9c 53 00
        E 240 9a 24 00
        E 324 9a 24 7f
        E 16 9c 51 7f
        E 4 9a 41 56
        E 330 9a 24 00
        E 326 9a 41 00
        E 39 9a 24 77
        E 74 9a 24 00
        E 183 9a 26 7f
        E 102 9c 51 00
        E 389 9a 24 7f
        E 8 9c 53 7f
        E 29 9a 26 00
        E 442 9a 24 00
        E 482 9a 24 7f
        E 438 9a 24 00
        E 30 9a 26 7f
        E 706 9a 29 7f
        E 34 9a 29 00
        E 28 9c 53 00
        E 108 9a 26 00
        E 70 9a 24 7f
        E 14 9c 51 7f
        E 16 9a 29 7f
        E 126 9a 29 00
        E 116 9a 24 00
        E 230 9a 26 7f
        E 14 9a 29 13
        E 104 9a 26 00
        E 282 9a 29 00
        E 74 9a 23 7f
        E 4 9a 23 00
        E 0 9a 23 7f
        E 70 9a 23 00
        E 63 9c 51 00
        E 87 9a 29 7f
        E 630 9a 29 00
        E 85 9a 24 7f
        E 9 9c 4e 7f
        E 468 9a 24 00
        E 501 9a 26 7f
        E 225 9a 24 7f
        E 92 9a 26 00
        E 64 9c 4e 00
        E 2 9a 24 00
        E 563 9a 24 7f
        E 14 9c 4c 7f
        E 301 9a 24 00
        E 190 9a 24 37
        E 77 9a 24 00
        E 135 9a 26 7f
        E 594 9c 4c 00
        E 38 9a 26 00
        E 114 9a 24 7f
        E 8 9c 4e 7f
        E 192 9a 24 00
        E 282 8c 4e 00
        E 0 b0 7b 00
        GUID {F643B96C-18A4-46F3-9AE4-F7ACB5D5D46F}
        IGNTEMPO 0 120 4 4
        SRCCOLOR 264
        VELLANE -1 100 0
        CFGEDITVIEW 0 0 75 12 0 0 0 0 0
        KEYSNAP 0 0 102034050607 0 Major
        TRACKSEL 0 0 0 ""
        EVTFILTER 0 -1 -1 -1 -1 0 0 0 0 -1 -1 -1 -1 0 -1 0 -1 -1
        CFGEDIT 1 1 0 1 0 0 1 1 1 1 1 0.125 981 123 2564 969 0 0 0 0 0 0 0 0 0 0.5 0 0 1 64
      >
    >
    <ITEM
      POSITION 101.76000000000931
      SNAPOFFS 0
      LENGTH 5.76
      LOOP 1
      ALLTAKES 0
      FADEIN 1 0 0 1 0 0
      FADEOUT 1 0 0 1 0 0
      MUTE 0
      SEL 0
      IGUID {EF78017B-FA81-444C-B7E4-60E7900A3BED}
      IID 10
      NAME "02-Recorded MIDI"
      VOLPAN 0.756098 0 1 -1
      SOFFS 0 0
      PLAYRATE 1 1 0 -1 0 0.0025
      CHANMODE 0
      GUID {F2E77DF1-D2B6-4FC0-8845-D13D8BB748D6}
      RECPASS 1
      <SOURCE MIDI
        HASDATA 1 960 QN
        POOLEDEVTS {821BD17E-7A3F-4966-8478-245079EB85C6}
        E 0 9a 24 7f
        E 0 9c 53 7f
        E 224 9a 35 7f
        E 189 9a 35 00
        E 67 9a 35 7f
        E 202 9a 35 00
        E 10 9a 24 00
        E 262 9a 26 7f
        E 222 9a 24 7f
        E 94 9a 26 00
        E 64 9c 53 00
        E 240 9a 24 00
        E 324 9a 24 7f
        E 16 9c 51 7f
        E 4 9a 41 56
        E 330 9a 24 00
        E 326 9a 41 00
        E 39 9a 24 77
        E 74 9a 24 00
        E 183 9a 26 7f
        E 102 9c 51 00
        E 389 9a 24 7f
        E 8 9c 53 7f
        E 29 9a 26 00
        E 442 9a 24 00
        E 482 9a 24 7f
        E 438 9a 24 00
        E 30 9a 26 7f
        E 706 9a 29 7f
        E 34 9a 29 00
        E 28 9c 53 00
        E 108 9a 26 00
        E 70 9a 24 7f
        E 14 9c 51 7f
        E 16 9a 29 7f
        E 126 9a 29 00
        E 116 9a 24 00
        E 230 9a 26 7f
        E 14 9a 29 13
        E 104 9a 26 00
        E 282 9a 29 00
        E 74 9a 23 7f
        E 4 9a 23 00
        E 0 9a 23 7f
        E 70 9a 23 00
        E 63 9c 51 00
        E 87 9a 29 7f
        E 630 9a 29 00
        E 85 9a 24 7f
        E 9 9c 4e 7f
        E 468 9a 24 00
        E 501 9a 26 7f
        E 225 9a 24 7f
        E 92 9a 26 00
        E 64 9c 4e 00
        E 2 9a 24 00
        E 563 9a 24 7f
        E 14 9c 4c 7f
        E 301 9a 24 00
        E 190 9a 24 37
        E 77 9a 24 00
        E 135 9a 26 7f
        E 594 9c 4c 00
        E 38 9a 26 00
        E 114 9a 24 7f
        E 8 9c 4e 7f
        E 192 9a 24 00
        E 282 8c 4e 00
        E 0 b0 7b 00
        GUID {F643B96C-18A4-46F3-9AE4-F7ACB5D5D46F}
        IGNTEMPO 0 120 4 4
        SRCCOLOR 264
        VELLANE -1 100 0
        CFGEDITVIEW 0 0 75 12 0 0 0 0 0
        KEYSNAP 0 0 102034050607 0 Major
        TRACKSEL 0 0 0 ""
        EVTFILTER 0 -1 -1 -1 -1 0 0 0 0 -1 -1 -1 -1 0 -1 0 -1 -1
        CFGEDIT 1 1 0 1 0 0 1 1 1 1 1 0.125 981 123 2564 969 0 0 0 0 0 0 0 0 0 0.5 0 0 1 64
      >
    >
    <ITEM
      POSITION 107.52
      SNAPOFFS 0
      LENGTH 24.96
      LOOP 1
      ALLTAKES 0
      FADEIN 1 0 0 1 0 0
      FADEOUT 1 0 0 1 0 0
      MUTE 0
      SEL 0
      IGUID {CBA437F4-DA2C-4FB0-9895-FBAFEAF090B1}
      IID 10
      NAME "02-Recorded MIDI"
      VOLPAN 0.756098 0 1 -1
      SOFFS 0 0
      PLAYRATE 1 1 0 -1 0 0.0025
      CHANMODE 0
      GUID {D229940D-C787-4AEA-9659-6E549A55708B}
      RECPASS 1
      <SOURCE MIDI
        HASDATA 1 960 QN
        POOLEDEVTS {82BDEB18-4C75-4FF9-AE73-0C6DBA1ECAA8}
        E 0 9c 4e 7f
        E 478 9a 24 7f
        E 212 9a 26 7f
        E 184 9a 24 00
        E 333 9a 26 00
        E 191 9c 4e 00
        E 44 9a 24 7f
        E 152 9a 24 00
        E 66 9c 4e 7f
        E 232 9a 24 7f
        E 21 9a 29 7f
        E 19 9c 4e 00
        E 34 9a 29 00
        E 160 9a 24 00
        E 8 9c 4c 7f
        E 259 9a 26 7f
        E 12 9a 29 7f
        E 71 9a 26 00
        E 134 9a 26 13
        E 153 9a 26 00
        E 29 9a 29 00
        E 75 9a 23 7f
        E 6 9a 23 00
        E 0 9a 23 4b
        E 4 9a 24 37
        E 71 9a 23 00
        E 80 9a 24 00
        E 66 9a 26 7f
        E 9 9a 29 7f
        E 422 9a 26 00
        E 163 9a 29 00
        E 116 9c 4c 00
        E 10 9a 24 7f
        E 13 9c 53 7f
        E 230 9a 35 7f
        E 189 9a 35 00
        E 71 9a 35 7f
        E 197 9a 35 00
        E 14 9a 24 00
        E 260 9a 26 7f
        E 219 9a 24 7f
        E 97 9a 26 00
        E 64 9c 53 00
        E 236 9a 24 00
        E 326 9a 24 7f
        E 16 9c 51 7f
        E 4 9a 41 56
        E 334 9a 24 00
        E 319 9a 41 00
        E 43 9a 24 77
        E 76 9a 24 00
        E 186 9a 26 7f
        E 95 9c 51 00
        E 395 9a 24 7f
        E 11 9c 53 7f
        E 15 9a 26 00
        E 456 9a 24 00
        E 472 9a 24 7f
        E 440 9a 24 00
        E 36 9a 26 7f
        E 698 9a 29 7f
        E 40 9a 29 00
        E 30 9c 53 00
        E 104 9a 26 00
        E 68 9a 24 7f
        E 15 9c 51 7f
        E 14 9a 29 7f
        E 124 9a 29 00
        E 125 9a 24 00
        E 231 9a 26 7f
        E 13 9a 29 13
        E 104 9a 26 00
        E 278 9a 29 00
        E 73 9a 23 7f
        E 4 9a 23 00
        E 0 9a 23 7f
        E 75 9a 23 00
        E 62 9c 51 00
        E 79 9a 29 7f
        E 641 9a 29 00
        E 80 9a 24 7f
        E 8 9c 4e 7f
        E 467 9a 24 00
        E 502 9a 26 7f
        E 221 9a 24 7f
        E 100 9a 26 00
        E 56 9c 4e 00
        E 2 9a 24 00
        E 568 9a 24 7f
        E 14 9c 4c 7f
        E 296 9a 24 00
        E 191 9a 24 37
        E 78 9a 24 00
        E 139 9a 26 7f
        E 596 9c 4c 00
        E 37 9a 26 00
        E 108 9a 24 7f
        E 10 9c 4e 7f
        E 188 9a 24 00
        E 763 9a 24 7f
        E 217 9a 26 7f
        E 185 9a 24 00
        E 328 9a 26 00
        E 190 9c 4e 00
        E 46 9a 24 7f
        E 156 9a 24 00
        E 60 9c 4e 7f
        E 231 9a 24 7f
        E 22 9a 29 7f
        E 17 9c 4e 00
        E 42 9a 29 00
        E 158 9a 24 00
        E 7 9c 4c 7f
        E 265 9a 26 7f
        E 12 9a 29 7f
        E 61 9a 26 00
        E 135 9a 26 13
        E 160 9a 26 00
        E 28 9a 29 00
        E 69 9a 23 7f
        E 4 9a 23 00
        E 0 9a 23 4b
        E 6 9a 24 37
        E 73 9a 23 00
        E 82 9a 24 00
        E 59 9a 26 7f
        E 12 9a 29 7f
        E 425 9a 26 00
        E 160 9a 29 00
        E 121 9c 4c 00
        E 10 9a 24 7f
        E 708 9a 24 00
        E 259 9a 26 7f
        E 223 9a 24 7f
        E 97 9a 26 00
        E 300 9a 24 00
        E 325 9a 24 7f
        E 358 9a 24 00
        E 363 9a 24 77
        E 73 9a 24 00
        E 184 9a 26 7f
        E 492 9a 24 7f
        E 25 9a 26 00
        E 447 9a 24 00
        E 482 9a 24 7f
        E 441 9a 24 00
        E 28 9a 26 7f
        E 877 9a 26 00
        E 68 9a 24 7f
        E 273 9a 24 00
        E 237 9a 26 7f
        E 117 9a 26 00
        E 354 9a 23 7f
        E 2 9a 23 00
        E 0 9a 23 7f
        E 76 9a 23 00
        E 857 9a 24 7f
        E 482 9a 24 00
        E 501 9a 26 7f
        E 218 9a 24 7f
        E 95 9a 26 00
        E 64 9a 24 00
        E 560 9a 24 7f
        E 318 9a 24 00
        E 194 9a 24 37
        E 79 9a 24 00
        E 130 9a 26 7f
        E 639 9a 26 00
        E 110 9a 24 7f
        E 197 9a 24 00
        E 763 9a 24 7f
        E 210 9a 26 7f
        E 184 9a 24 00
        E 337 9a 26 00
        E 230 9a 24 7f
        E 156 9a 24 00
        E 293 9a 24 7f
        E 239 9a 24 00
        E 266 9a 26 7f
        E 79 9a 26 00
        E 138 9a 26 13
        E 156 9a 26 00
        E 98 9a 23 7f
        E 5 9a 23 00
        E 0 9a 23 4b
        E 3 9a 24 37
        E 70 9a 23 00
        E 84 9a 24 00
        E 62 9a 26 7f
        E 434 9a 26 00
        E 291 9a 24 7f
        E 714 9a 24 00
        E 255 9a 26 7f
        E 226 9a 24 7f
        E 98 9a 26 00
        E 298 9a 24 00
        E 322 9a 24 7f
        E 360 9a 24 00
        E 358 9a 24 77
        E 80 9a 24 00
        E 180 9a 26 7f
        E 493 9a 24 7f
        E 34 9a 26 00
        E 439 9a 24 00
        E 487 9a 24 7f
        E 434 9a 24 00
        E 35 9a 26 7f
        E 876 9a 26 00
        E 66 9a 24 7f
        E 272 9a 24 00
        E 234 9a 26 7f
        E 116 9a 26 00
        E 350 9a 23 7f
        E 7 9a 23 00
        E 0 9a 23 7f
        E 75 9a 23 00
        E 863 9a 24 7f
        E 473 9a 24 00
        E 502 9a 26 7f
        E 224 9a 24 7f
        E 98 9a 26 00
        E 57 9a 24 00
        E 565 9a 24 7f
        E 312 9a 24 00
        E 193 9a 24 37
        E 82 9a 24 00
        E 135 9a 26 7f
        E 633 9a 26 00
        E 115 9a 24 7f
        E 192 9a 24 00
        E 762 9a 24 7f
        E 218 9a 26 7f
        E 182 9a 24 00
        E 330 9a 26 00
        E 230 9a 24 7f
        E 158 9a 24 00
        E 299 9a 24 7f
        E 235 9a 24 00
        E 271 9a 26 7f
        E 77 9a 26 00
        E 134 9a 26 13
        E 154 9a 26 00
        E 102 9a 23 7f
        E 4 9a 23 00
        E 0 9a 23 4b
        E 6 9a 24 37
        E 70 9a 23 00
        E 78 9a 24 00
        E 64 9a 26 7f
        E 440 9a 26 00
        E 282 9a 24 7f
        E 714 9a 24 00
        E 262 9a 26 7f
        E 222 9a 24 7f
        E 98 9a 26 00
        E 302 9a 24 00
        E 324 9a 24 7f
        E 356 9a 24 00
        E 360 9a 24 77
        E 76 9a 24 00
        E 184 9a 26 7f
        E 487 9a 24 7f
        E 29 9a 26 00
        E 448 9a 24 00
        E 482 9a 24 7f
        E 440 9a 24 00
        E 28 9a 26 7f
        E 882 9a 26 00
        E 568 9a 26 7f
        E 122 9a 26 00
        E 2268 9a 26 7f
        E 318 9a 26 00
        E 1350 9a 26 7f
        E 630 9a 26 00
        E 1286 9a 26 7f
        E 512 9a 26 00
        E 1196 9a 26 7f
        E 78 9a 26 00
        E 132 9a 26 13
        E 154 9a 26 00
        E 326 9a 26 7f
        E 432 9a 26 00
        E 1264 9a 26 7f
        E 320 9a 26 00
        E 1600 9a 26 7f
        E 492 9c 53 7f
        E 22 9a 26 00
        E 938 9a 24 7f
        E 434 9a 24 00
        E 34 9a 26 7f
        E 702 9a 29 7f
        E 38 9a 29 00
        E 24 9c 53 00
        E 116 9a 26 00
        E 62 9a 24 7f
        E 14 9c 51 7f
        E 16 9a 29 7f
        E 124 9a 29 00
        E 124 9a 24 00
        E 230 9a 26 7f
        E 12 9a 29 13
        E 104 9a 26 00
        E 278 9a 29 00
        E 76 9a 23 7f
        E 4 9a 23 00
        E 0 9a 23 7f
        E 72 9a 23 00
        E 64 9c 51 00
        E 82 9a 29 7f
        E 636 9a 29 00
        E 80 9a 24 7f
        E 10 9c 4e 7f
        E 469 9a 24 00
        E 499 9a 26 7f
        E 224 9a 24 7f
        E 98 9a 26 00
        E 58 9c 4e 00
        E 2 9a 24 00
        E 564 9a 24 7f
        E 14 9c 4c 7f
        E 298 9a 24 00
        E 191 9a 24 37
        E 77 9a 24 00
        E 140 9a 26 7f
        E 592 9c 4c 00
        E 44 9a 26 00
        E 105 9a 24 7f
        E 10 9c 4e 7f
        E 195 9a 24 00
        E 762 9a 24 7f
        E 210 9a 26 7f
        E 186 9a 24 00
        E 326 9a 26 00
        E 192 9c 4e 00
        E 44 9a 24 7f
        E 156 9a 24 00
        E 60 9c 4e 7f
        E 233 9a 24 7f
        E 23 9a 29 7f
        E 18 9c 4e 00
        E 38 9a 29 00
        E 158 9a 24 00
        E 8 9c 4c 7f
        E 264 9a 26 7f
        E 12 9a 29 7f
        E 62 9a 26 00
        E 140 9a 26 13
        E 154 9a 26 00
        E 30 9a 29 00
        E 70 9a 23 7f
        E 4 9a 23 00
        E 0 9a 23 4b
        E 4 9a 24 37
        E 72 9a 23 00
        E 80 9a 24 00
        E 68 9a 26 7f
        E 10 9a 29 7f
        E 426 9a 26 00
        E 154 9a 29 00
        E 122 9c 4c 00
        E 10 9a 24 7f
        E 14 9c 53 7f
        E 226 9a 35 7f
        E 186 9a 35 00
        E 72 9a 35 7f
        E 202 9a 35 00
        E 10 9a 24 00
        E 262 9a 26 7f
        E 220 9a 24 7f
        E 96 9a 26 00
        E 60 9c 53 00
        E 244 9a 24 00
        E 323 9a 24 7f
        E 17 9c 51 7f
        E 4 9a 41 56
        E 332 9a 24 00
        E 322 9a 41 00
        E 42 9a 24 77
        E 74 9a 24 00
        E 182 9a 26 7f
        E 102 9c 51 00
        E 387 9a 24 7f
        E 11 9c 53 7f
        E 28 9a 26 00
        E 442 9a 24 00
        E 480 9a 24 7f
        E 440 9a 24 00
        E 28 9a 26 7f
        E 706 9a 29 7f
        E 32 9a 29 00
        E 30 9c 53 00
        E 116 9a 26 00
        E 64 9a 24 7f
        E 16 9c 51 7f
        E 14 9a 29 7f
        E 122 9a 29 00
        E 120 9a 24 00
        E 232 9a 26 7f
        E 12 9a 29 13
        E 104 9a 26 00
        E 280 9a 29 00
        E 72 9a 23 7f
        E 4 9a 23 00
        E 0 9a 23 7f
        E 74 9a 23 00
        E 62 9c 51 00
        E 86 9a 29 7f
        E 632 9a 29 00
        E 83 9a 24 7f
        E 11 9c 4e 7f
        E 468 9a 24 00
        E 502 9a 26 7f
        E 224 9a 24 7f
        E 90 9a 26 00
        E 63 9c 4e 00
        E 2 9a 24 00
        E 565 9a 24 7f
        E 14 9c 4c 7f
        E 300 9a 24 00
        E 189 9a 24 37
        E 78 9a 24 00
        E 135 9a 26 7f
        E 594 9c 4c 00
        E 46 9a 26 00
        E 104 9a 24 7f
        E 12 9c 4e 7f
        E 190 9a 24 00
        E 758 9a 24 7f
        E 214 9a 26 7f
        E 190 9a 24 00
        E 326 9a 26 00
        E 192 9c 4e 00
        E 42 9a 24 7f
        E 154 9a 24 00
        E 66 9c 4e 7f
        E 232 9a 24 7f
        E 24 9a 29 7f
        E 16 9c 4e 00
        E 38 9a 29 00
        E 160 9a 24 00
        E 9 9c 4c 7f
        E 261 9a 26 7f
        E 12 9a 29 7f
        E 62 9a 26 00
        E 138 9a 26 13
        E 158 9a 26 00
        E 28 9a 29 00
        E 72 9a 23 7f
        E 4 9a 23 00
        E 0 9a 23 4b
        E 4 9a 24 37
        E 72 9a 23 00
        E 74 9a 24 00
        E 70 9a 26 7f
        E 10 9a 29 7f
        E 424 9a 26 00
        E 162 9a 29 00
        E 118 9c 4c 00
        E 10 9a 24 7f
        E 15 9c 53 7f
        E 225 9a 35 7f
        E 186 9a 35 00
        E 74 9a 35 7f
        E 196 9a 35 00
        E 12 9a 24 00
        E 260 9a 26 7f
        E 222 9a 24 7f
        E 100 9a 26 00
        E 57 9c 53 00
        E 241 9a 24 00
        E 328 9a 24 7f
        E 16 9c 51 7f
        E 6 9a 41 56
        E 334 9a 24 00
        E 314 9a 41 00
        E 44 9a 24 77
        E 80 9a 24 00
        E 180 9a 26 7f
        E 96 9c 51 00
        E 394 9a 24 7f
        E 10 9c 53 7f
        E 30 9a 26 00
        E 440 9a 24 00
        E 480 9a 24 7f
        E 440 9a 24 00
        E 30 9a 26 7f
        E 704 9a 29 7f
        E 32 9a 29 00
        E 34 9c 53 00
        E 108 9a 26 00
        E 62 9a 24 7f
        E 15 9c 51 7f
        E 15 9a 29 7f
        E 129 9a 29 00
        E 117 9a 24 00
        E 232 9a 26 7f
        E 14 9a 29 13
        E 102 9a 26 00
        E 280 9a 29 00
        E 74 9a 23 7f
        E 4 9a 23 00
        E 0 9a 23 7f
        E 74 9a 23 00
        E 62 9c 51 00
        E 86 9a 29 7f
        E 631 9a 29 00
        E 87 9a 24 7f
        E 10 9c 4e 7f
        E 462 9a 24 00
        E 500 9a 26 7f
        E 222 9a 24 7f
        E 98 9a 26 00
        E 60 9c 4e 00
        E 2 9a 24 00
        E 564 9a 24 7f
        E 14 9c 4c 7f
        E 304 9a 24 00
        E 192 9a 24 37
        E 72 9a 24 00
        E 138 9a 26 7f
        E 591 9c 4c 00
        E 41 9a 26 00
        E 116 9a 24 7f
        E 10 9c 4e 7f
        E 184 9a 24 00
        E 764 9a 24 7f
        E 212 9a 26 7f
        E 184 9a 24 00
        E 332 9a 26 00
        E 188 9c 4e 00
        E 42 9a 24 7f
        E 158 9a 24 00
        E 64 9c 4e 7f
        E 230 9a 24 7f
        E 21 9a 29 7f
        E 17 9c 4e 00
        E 40 9a 29 00
        E 158 9a 24 00
        E 8 9c 4c 7f
        E 264 9a 26 7f
        E 12 9a 29 7f
        E 68 9a 26 00
        E 136 9a 26 13
        E 156 9a 26 00
        E 24 9a 29 00
        E 79 9a 23 7f
        E 4 9a 23 00
        E 0 9a 23 4b
        E 4 9a 24 37
        E 64 9a 23 00
        E 81 9a 24 00
        E 68 9a 26 7f
        E 11 9a 29 7f
        E 424 9a 26 00
        E 157 9a 29 00
        E 123 9c 4c 00
        E 10 9a 24 7f
        E 16 9c 53 7f
        E 222 9a 35 7f
        E 188 9a 35 00
        E 77 9a 35 7f
        E 191 9a 35 00
        E 13 9a 24 00
        E 260 9a 26 7f
        E 223 9a 24 7f
        E 95 9a 26 00
        E 64 9c 53 00
        E 240 9a 24 00
        E 322 9a 24 7f
        E 16 9c 51 7f
        E 4 9a 41 56
        E 340 9a 24 00
        E 318 9a 41 00
        E 40 9a 24 77
        E 79 9a 24 00
        E 179 9a 26 7f
        E 99 9c 51 00
        E 393 9a 24 7f
        E 12 9c 53 7f
        E 11 9a 26 00
        E 457 9a 24 00
        E 482 9a 24 7f
        E 432 9a 24 00
        E 36 9a 26 7f
        E 701 9a 29 7f
        E 39 9a 29 00
        E 28 9c 53 00
        E 110 9a 26 00
        E 62 9a 24 7f
        E 16 9c 51 7f
        E 14 9a 29 7f
        E 123 9a 29 00
        E 124 9a 24 00
        E 231 9a 26 7f
        E 11 9a 29 13
        E 107 9a 26 00
        E 277 9a 29 00
        E 73 9a 23 7f
        E 4 9a 23 00
        E 0 9a 23 7f
        E 76 9a 23 00
        E 64 9c 51 00
        E 80 9a 29 7f
        E 638 9a 29 00
        E 77 9a 24 7f
        E 11 9c 4e 7f
        E 470 9a 24 00
        E 498 9a 26 7f
        E 225 9a 24 7f
        E 99 9a 26 00
        E 56 9c 4e 00
        E 2 9a 24 00
        E 564 9a 24 7f
        E 14 9c 4c 7f
        E 300 9a 24 00
        E 190 9a 24 37
        E 78 9a 24 00
        E 142 9a 26 7f
        E 593 9c 4c 00
        E 38 9a 26 00
        E 113 9a 24 7f
        E 9 9c 4e 7f
        E 189 9a 24 00
        E 761 9a 24 7f
        E 211 9a 26 7f
        E 188 9a 24 00
        E 327 9a 26 00
        E 189 9c 4e 00
        E 43 9a 24 7f
        E 159 9a 24 00
        E 58 9c 4e 7f
        E 236 9a 24 7f
        E 21 9a 29 7f
        E 18 9c 4e 00
        E 39 9a 29 00
        E 158 9a 24 00
        E 8 9c 4c 7f
        E 264 9a 26 7f
        E 10 9a 29 7f
        E 64 9a 26 00
        E 140 9a 26 13
        E 153 9a 26 00
        E 30 9a 29 00
        E 68 9a 23 7f
        E 6 9a 23 00
        E 0 9a 23 4b
        E 4 9a 24 37
        E 73 9a 23 00
        E 79 9a 24 00
        E 63 9a 26 7f
        E 9 9a 29 7f
        E 424 9a 26 00
        E 167 9a 29 00
        E 117 9c 4c 00
        E 10 9a 24 7f
        E 14 9c 53 7f
        E 226 9a 35 7f
        E 192 9a 35 00
        E 67 9a 35 7f
        E 199 9a 35 00
        E 12 9a 24 00
        E 263 9a 26 7f
        E 219 9a 24 7f
        E 97 9a 26 00
        E 60 9c 53 00
        E 244 9a 24 00
        E 324 9a 24 7f
        E 16 9c 51 7f
        E 4 9a 41 56
        E 331 9a 24 00
        E 325 9a 41 00
        E 39 9a 24 77
        E 75 9a 24 00
        E 180 9a 26 7f
        E 103 9c 51 00
        E 389 9a 24 7f
        E 10 9c 53 7f
        E 28 9a 26 00
        E 441 9a 24 00
        E 482 9a 24 7f
        E 441 9a 24 00
        E 27 9a 26 7f
        E 707 9a 29 7f
        E 32 9a 29 00
        E 29 9c 53 00
        E 109 9a 26 00
        E 66 9a 24 7f
        E 15 9c 51 7f
        E 15 9a 29 7f
        E 127 9a 29 00
        E 119 9a 24 00
        E 231 9a 26 7f
        E 12 9a 29 13
        E 104 9a 26 00
        E 282 9a 29 00
        E 70 9a 23 7f
        E 4 9a 23 00
        E 0 9a 23 7f
        E 77 9a 23 00
        E 62 9c 51 00
        E 85 9a 29 7f
        E 631 9a 29 00
        E 86 9a 24 7f
        E 10 9c 4e 7f
        E 465 9a 24 00
        E 503 9a 26 7f
        E 217 9a 24 7f
        E 99 9a 26 00
        E 64 9c 4e 00
        E 1 9a 24 00
        E 558 9a 24 7f
        E 14 9c 4c 7f
        E 306 9a 24 00
        E 190 9a 24 37
        E 75 9a 24 00
        E 137 9a 26 7f
        E 594 9c 4c 00
        E 40 9a 26 00
        E 112 9a 24 7f
        E 10 9c 4e 7f
        E 190 9a 24 00
        E 760 9a 24 7f
        E 212 9a 26 7f
        E 186 9a 24 00
        E 334 9a 26 00
        E 183 9c 4e 00
        E 43 9a 24 7f
        E 161 9a 24 00
        E 57 9c 4e 7f
        E 234 9a 24 7f
        E 22 9a 29 7f
        E 16 9c 4e 00
        E 40 9a 29 00
        E 160 9a 24 00
        E 8 9c 4c 7f
        E 262 9a 26 7f
        E 12 9a 29 7f
        E 70 9a 26 00
        E 130 9a 26 13
        E 157 9a 26 00
        E 29 9a 29 00
        E 70 9a 23 7f
        E 4 9a 23 00
        E 0 9a 23 4b
        E 4 9a 24 37
        E 73 9a 23 00
        E 81 9a 24 00
        E 62 9a 26 7f
        E 12 9a 29 7f
        E 425 9a 26 00
        E 158 9a 29 00
        E 121 9c 4c 00
        E 11 9a 24 7f
        E 16 9c 53 7f
        E 229 9a 35 7f
        E 188 9a 35 00
        E 67 9a 35 7f
        E 201 9a 35 00
        E 6 9a 24 00
        E 267 9a 26 7f
        E 223 9a 24 7f
        E 94 9a 26 00
        E 58 9c 53 00
        E 244 9a 24 00
        E 325 9a 24 7f
        E 16 9c 51 7f
        E 3 9a 41 56
        E 335 9a 24 00
        E 321 9a 41 00
        E 43 9a 24 77
        E 73 9a 24 00
        E 179 9a 26 7f
        E 104 9c 51 00
        E 387 9a 24 7f
        E 11 9c 53 7f
        E 28 9a 26 00
        E 441 9a 24 00
        E 483 9a 24 7f
        E 438 9a 24 00
        E 29 9a 26 7f
        E 706 9a 29 7f
        E 35 9a 29 00
        E 29 9c 53 00
        E 108 9a 26 00
        E 64 9a 24 7f
        E 16 9c 51 7f
        E 12 9a 29 7f
        E 131 9a 29 00
        E 116 9a 24 00
        E 234 9a 26 7f
        E 11 9a 29 13
        E 105 9a 26 00
        E 284 9a 29 00
        E 68 9a 23 7f
        E 4 9a 23 00
        E 0 9a 23 7f
        E 75 9a 23 00
        E 60 9c 51 00
        E 88 9a 29 7f
        E 632 9a 29 00
        E 86 9a 24 7f
        E 11 9c 4e 7f
        E 462 9a 24 00
        E 499 9a 26 7f
        E 231 9a 24 7f
        E 89 9a 26 00
        E 61 9c 4e 00
        E 2 9a 24 00
        E 563 9a 24 7f
        E 15 9c 4c 7f
        E 301 9a 24 00
        E 194 9a 24 37
        E 77 9a 24 00
        E 133 9a 26 7f
        E 594 9c 4c 00
        E 40 9a 26 00
        E 114 9a 24 7f
        E 11 9c 4e 7f
        E 185 9a 24 00
        E 764 9a 24 7f
        E 210 9a 26 7f
        E 188 9a 24 00
        E 330 9a 26 00
        E 186 9c 4e 00
        E 45 9a 24 7f
        E 155 9a 24 00
        E 66 9c 4e 7f
        E 230 9a 24 7f
        E 22 9a 29 7f
        E 16 9c 4e 00
        E 41 9a 29 00
        E 155 9a 24 00
        E 11 9c 4c 7f
        E 261 9a 26 7f
        E 13 9a 29 7f
        E 67 9a 26 00
        E 136 9a 26 13
        E 152 9a 26 00
        E 28 9a 29 00
        E 72 9a 23 7f
        E 6 9a 23 00
        E 0 9a 23 4b
        E 4 9a 24 37
        E 72 9a 23 00
        E 80 9a 24 00
        E 63 9a 26 7f
        E 10 9a 29 7f
        E 423 9a 26 00
        E 163 9a 29 00
        E 127 9c 4c 00
        E 10 9a 24 7f
        E 14 9c 53 7f
        E 220 9a 35 7f
        E 188 9a 35 00
        E 70 9a 35 7f
        E 202 9a 35 00
        E 12 9a 24 00
        E 260 9a 26 7f
        E 220 9a 24 7f
        E 94 9a 26 00
        E 66 9c 53 00
        E 234 9a 24 00
        E 328 9a 24 7f
        E 14 9c 51 7f
        E 6 9a 41 56
        E 334 9a 24 00
        E 323 9a 41 00
        E 41 9a 24 77
        E 74 9a 24 00
        E 184 9a 26 7f
        E 100 9c 51 00
        E 386 9a 24 7f
        E 8 9c 53 7f
        E 34 9a 26 00
        E 444 9a 24 00
        E 472 9a 24 7f
        E 442 9a 24 00
        E 35 9a 26 7f
        E 701 9a 29 7f
        E 32 9a 29 00
        E 32 9c 53 00
        E 108 9a 26 00
        E 68 9a 24 7f
        E 16 9c 51 7f
        E 14 9a 29 7f
        E 124 9a 29 00
        E 118 9a 24 00
        E 230 9a 26 7f
        E 12 9a 29 13
        E 108 9a 26 00
        E 282 9a 29 00
        E 75 9a 23 7f
        E 3 9a 23 00
        E 0 9a 23 7f
        E 76 9a 23 00
        E 56 9c 51 00
        E 88 9a 29 7f
        E 629 9a 29 00
        E 85 9a 24 7f
        E 11 9c 4e 7f
        E 467 9a 24 00
        E 502 9a 26 7f
        E 222 9a 24 7f
        E 95 9a 26 00
        E 61 9c 4e 00
        E 4 9a 24 00
        E 562 9a 24 7f
        E 16 9c 4c 7f
        E 296 9a 24 00
        E 192 9a 24 37
        E 76 9a 24 00
        E 138 9a 26 7f
        E 592 9c 4c 00
        E 40 9a 26 00
        E 114 9a 24 7f
        E 8 9c 4e 7f
        E 186 9a 24 00
        E 764 9a 24 7f
        E 210 9a 26 7f
        E 188 9a 24 00
        E 334 9a 26 00
        E 190 9c 4e 00
        E 42 9a 24 7f
        E 158 9a 24 00
        E 59 9c 4e 7f
        E 235 9a 24 7f
        E 24 9a 29 7f
        E 14 9c 4e 00
        E 40 9a 29 00
        E 158 9a 24 00
        E 8 9c 4c 7f
        E 264 9a 26 7f
        E 10 9a 29 7f
        E 64 9a 26 00
        E 134 9a 26 13
        E 160 9a 26 00
        E 28 9a 29 00
        E 72 9a 23 7f
        E 4 9a 23 00
        E 0 9a 23 4b
        E 4 9a 24 37
        E 72 9a 23 00
        E 80 9a 24 00
        E 62 9a 26 7f
        E 10 9a 29 7f
        E 424 9a 26 00
        E 164 9a 29 00
        E 118 9c 4c 00
        E 10 9a 24 7f
        E 16 9c 53 7f
        E 228 9a 35 7f
        E 182 9a 35 00
        E 74 9a 35 7f
        E 200 9a 35 00
        E 4 9a 24 00
        E 264 9a 26 7f
        E 226 9a 24 7f
        E 96 9a 26 00
        E 60 9c 53 00
        E 238 9a 24 00
        E 322 9a 24 7f
        E 16 9c 51 7f
        E 6 9a 41 56
        E 338 9a 24 00
        E 315 9a 41 00
        E 49 9a 24 77
        E 72 9a 24 00
        E 180 9a 26 7f
        E 106 9c 51 00
        E 388 9a 24 7f
        E 10 9c 53 7f
        E 28 9a 26 00
        E 440 9a 24 00
        E 482 9a 24 7f
        E 434 9a 24 00
        E 35 9a 26 7f
        E 705 9a 29 7f
        E 32 9a 29 00
        E 30 9c 53 00
        E 110 9a 26 00
        E 62 9a 24 7f
        E 18 9c 51 7f
        E 14 9a 29 7f
        E 128 9a 29 00
        E 116 9a 24 00
        E 234 9a 26 7f
        E 12 9a 29 13
        E 102 9a 26 00
        E 286 9a 29 00
        E 68 9a 23 7f
        E 3 9a 23 00
        E 0 9a 23 7f
        E 75 9a 23 00
        E 62 9c 51 00
        E 88 9a 29 7f
        E 630 9a 29 00
        E 88 9a 24 7f
        E 10 9c 4e 7f
        E 462 9a 24 00
        E 500 9a 26 7f
        E 222 9a 24 7f
        E 98 9a 26 00
        E 64 9c 4e 00
        E 2 9a 24 00
        E 562 9a 24 7f
        E 16 9c 4c 7f
        E 298 9a 24 00
        E 190 9a 24 37
        E 80 9a 24 00
        E 135 9a 26 7f
        E 597 9c 4c 00
        E 34 9a 26 00
        E 112 9a 24 7f
        E 10 9c 4e 7f
        E 188 9a 24 00
        E 760 9a 24 7f
        E 214 9a 26 7f
        E 186 9a 24 00
        E 330 9a 26 00
        E 192 9c 4e 00
        E 41 9a 24 7f
        E 155 9a 24 00
        E 66 9c 4e 7f
        E 232 9a 24 7f
        E 24 9a 29 7f
        E 16 9c 4e 00
        E 38 9a 29 00
        E 154 9a 24 00
        E 10 9c 4c 7f
        E 266 9a 26 7f
        E 12 9a 29 7f
        E 64 9a 26 00
        E 134 9a 26 13
        E 160 9a 26 00
        E 30 9a 29 00
        E 68 9a 23 7f
        E 6 9a 23 00
        E 0 9a 23 4b
        E 4 9a 24 37
        E 70 9a 23 00
        E 78 9a 24 00
        E 69 9a 26 7f
        E 9 9a 29 7f
        E 426 9a 26 00
        E 154 9a 29 00
        E 126 9c 4c 00
        E 8 9a 24 7f
        E 16 9c 53 7f
        E 224 9a 35 7f
        E 186 9a 35 00
        E 74 9a 35 7f
        E 196 9a 35 00
        E 10 9a 24 00
        E 260 9a 26 7f
        E 224 9a 24 7f
        E 100 9a 26 00
        E 58 9c 53 00
        E 238 9a 24 00
        E 324 9a 24 7f
        E 16 9c 51 7f
        E 5 9a 41 56
        E 339 9a 24 00
        E 316 9a 41 00
        E 42 9a 24 77
        E 82 9a 24 00
        E 178 9a 26 7f
        E 102 9c 51 00
        E 390 9a 24 7f
        E 9 9c 53 7f
        E 29 9a 26 00
        E 440 9a 24 00
        E 482 9a 24 7f
        E 440 9a 24 00
        E 28 9a 26 7f
        E 706 9a 29 7f
        E 34 9a 29 00
        E 30 9c 53 00
        E 108 9a 26 00
        E 62 9a 24 7f
        E 14 9c 51 7f
        E 14 9a 29 7f
        E 132 9a 29 00
        E 120 9a 24 00
        E 230 9a 26 7f
        E 12 9a 29 13
        E 104 9a 26 00
        E 277 9a 29 00
        E 75 9a 23 7f
        E 4 9a 23 00
        E 0 9a 23 7f
        E 74 9a 23 00
        E 64 9c 51 00
        E 86 9a 29 7f
        E 632 9a 29 00
        E 79 9a 24 7f
        E 10 9c 4e 7f
        E 469 9a 24 00
        E 500 9a 26 7f
        E 221 9a 24 7f
        E 103 9a 26 00
        E 56 9c 4e 00
        E 4 9a 24 00
        E 562 9a 24 7f
        E 14 9c 4c 7f
        E 298 9a 24 00
        E 190 9a 24 37
        E 80 9a 24 00
        E 138 9a 26 7f
        E 596 9c 4c 00
        E 42 9a 26 00
        E 104 9a 24 7f
        E 10 9c 4e 7f
        E 194 9a 24 00
        E 756 9a 24 7f
        E 218 9a 26 7f
        E 185 9a 24 00
        E 325 9a 26 00
        E 192 9c 4e 00
        E 44 9a 24 7f
        E 157 9a 24 00
        E 59 9c 4e 7f
        E 234 9a 24 7f
        E 24 9a 29 7f
        E 16 9c 4e 00
        E 40 9a 29 00
        E 158 9a 24 00
        E 8 9c 4c 7f
        E 264 9a 26 7f
        E 10 9a 29 7f
        E 64 9a 26 00
        E 140 9a 26 13
        E 152 9a 26 00
        E 28 9a 29 00
        E 74 9a 23 7f
        E 4 9a 23 00
        E 0 9a 23 4b
        E 4 9a 24 37
        E 69 9a 23 00
        E 83 9a 24 00
        E 62 9a 26 7f
        E 9 9a 29 7f
        E 425 9a 26 00
        E 166 9a 29 00
        E 116 9c 4c 00
        E 8 9a 24 7f
        E 709 9a 24 00
        E 265 9a 26 7f
        E 218 9a 24 7f
        E 98 9a 26 00
        E 304 9a 24 00
        E 321 9a 24 7f
        E 356 9a 24 00
        E 365 9a 24 77
        E 74 9a 24 00
        E 182 9a 26 7f
        E 492 9a 24 7f
        E 26 9a 26 00
        E 448 9a 24 00
        E 488 9a 24 7f
        E 434 9a 24 00
        E 34 9a 26 7f
        E 878 9a 26 00
        E 62 9a 24 7f
        E 278 9a 24 00
        E 232 9a 26 7f
        E 118 9a 26 00
        E 350 9a 23 7f
        E 4 9a 23 00
        E 0 9a 23 7f
        E 74 9a 23 00
        E 866 9a 24 7f
        E 474 9a 24 00
        E 502 9a 26 7f
        E 224 9a 24 7f
        E 92 9a 26 00
        E 60 9a 24 00
        E 568 9a 24 7f
        E 312 9a 24 00
        E 194 9a 24 37
        E 76 9a 24 00
        E 134 9a 26 7f
        E 636 9a 26 00
        E 112 9a 24 7f
        E 196 9a 24 00
        E 764 9a 24 7f
        E 210 9a 26 7f
        E 184 9a 24 00
        E 330 9a 26 00
        E 234 9a 24 7f
        E 156 9a 24 00
        E 300 9a 24 7f
        E 232 9a 24 00
        E 276 9a 26 7f
        E 76 9a 26 00
        E 132 9a 26 13
        E 158 9a 26 00
        E 102 9a 23 7f
        E 4 9a 23 00
        E 0 9a 23 4b
        E 4 9a 24 37
        E 65 9a 23 00
        E 85 9a 24 00
        E 68 9a 26 7f
        E 434 9a 26 00
        E 284 9a 24 7f
        E 714 9a 24 00
        E 261 9a 26 7f
        E 219 9a 24 7f
        E 95 9a 26 00
        E 301 9a 24 00
        E 326 9a 24 7f
        E 354 9a 24 00
        E 362 9a 24 77
        E 82 9a 24 00
        E 178 9a 26 7f
        E 492 9a 24 7f
        E 32 9a 26 00
        E 450 9a 24 00
        E 478 9a 24 7f
        E 434 9a 24 00
        E 36 9a 26 7f
        E 877 9a 26 00
        E 61 9a 24 7f
        E 276 9a 24 00
        E 233 9a 26 7f
        E 115 9a 26 00
        E 354 9a 23 7f
        E 4 9a 23 00
        E 0 9a 23 7f
        E 76 9a 23 00
        E 864 9a 24 7f
        E 474 9a 24 00
        E 502 9a 26 7f
        E 222 9a 24 7f
        E 96 9a 26 00
        E 63 9a 24 00
        E 561 9a 24 7f
        E 318 9a 24 00
        E 190 9a 24 37
        E 76 9a 24 00
        E 137 9a 26 7f
        E 638 9a 26 00
        E 109 9a 24 7f
        E 199 9a 24 00
        E 761 9a 24 7f
        E 212 9a 26 7f
        E 184 9a 24 00
        E 329 9a 26 00
        E 235 9a 24 7f
        E 154 9a 24 00
        E 296 9a 24 7f
        E 235 9a 24 00
        E 273 9a 26 7f
        E 77 9a 26 00
        E 133 9a 26 13
        E 155 9a 26 00
        E 103 9a 23 7f
        E 3 9a 23 00
        E 0 9a 23 4b
        E 4 9a 24 37
        E 73 9a 23 00
        E 80 9a 24 00
        E 68 9a 26 7f
        E 433 9a 26 00
        E 291 9a 24 7f
        E 708 9a 24 00
        E 259 9a 26 7f
        E 222 9a 24 7f
        E 99 9a 26 00
        E 297 9a 24 00
        E 326 9a 24 7f
        E 358 9a 24 00
        E 363 9a 24 77
        E 74 9a 24 00
        E 184 9a 26 7f
        E 492 9a 24 7f
        E 24 9a 26 00
        E 448 9a 24 00
        E 482 9a 24 7f
        E 439 9a 24 00
        E 30 9a 26 7f
        E 884 9a 26 00
        E 61 9a 24 7f
        E 277 9a 24 00
        E 232 9a 26 7f
        E 114 9a 26 00
        E 355 9a 23 7f
        E 3 9a 23 00
        E 0 9a 23 7f
        E 76 9a 23 00
        E 865 9a 24 7f
        E 473 9a 24 00
        E 503 9a 26 7f
        E 219 9a 24 7f
        E 95 9a 26 00
        E 63 9a 24 00
        E 562 9a 24 7f
        E 313 9a 24 00
        E 198 9a 24 37
        E 76 9a 24 00
        E 131 9a 26 7f
        E 641 9a 26 00
        E 110 9a 24 7f
        E 195 9a 24 00
        E 764 9a 24 7f
        E 211 9a 26 7f
        E 184 9a 24 00
        E 333 9a 26 00
        E 232 9a 24 7f
        E 157 9a 24 00
        E 292 9a 24 7f
        E 239 9a 24 00
        E 266 9a 26 7f
        E 85 9a 26 00
        E 131 9a 26 13
        E 157 9a 26 00
        E 103 9a 23 7f
        E 6 9a 23 00
        E 0 9a 23 4b
        E 4 9a 24 37
        E 65 9a 23 00
        E 82 9a 24 00
        E 63 9a 26 7f
        E 441 9a 26 00
        E 283 9a 24 7f
        E 714 9a 24 00
        E 262 9a 26 7f
        E 218 9a 24 7f
        E 101 9a 26 00
        E 295 9a 24 00
        E 330 9a 24 7f
        E 354 9a 24 00
        E 359 9a 24 77
        E 80 9a 24 00
        E 179 9a 26 7f
        E 490 9a 24 7f
        E 32 9a 26 00
        E 446 9a 24 00
        E 482 9a 24 7f
        E 441 9a 24 00
        E 27 9a 26 7f
        E 881 9a 26 00
        E 66 9a 24 7f
        E 271 9a 24 00
        E 233 9a 26 7f
        E 116 9a 26 00
        E 351 9a 23 7f
        E 4 9a 23 00
        E 0 9a 23 7f
        E 79 9a 23 00
        E 862 9a 24 7f
        E 474 9a 24 00
        E 502 9a 26 7f
        E 224 9a 24 7f
        E 97 9a 26 00
        E 58 9a 24 00
        E 567 9a 24 7f
        E 312 9a 24 00
        E 192 9a 24 37
        E 77 9a 24 00
        E 139 9a 26 7f
        E 632 9a 26 00
        E 115 9a 24 7f
        E 193 9a 24 00
        E 767 9a 24 7f
        E 212 9a 26 7f
        E 184 9a 24 00
        E 328 9a 26 00
        E 230 9a 24 7f
        E 163 9a 24 00
        E 293 9a 24 7f
        E 233 9a 24 00
        E 274 9a 26 7f
        E 75 9a 26 00
        E 140 9a 26 13
        E 150 9a 26 00
        E 103 9a 23 7f
        E 3 9a 23 00
        E 0 9a 23 4b
        E 4 9a 24 37
        E 73 9a 23 00
        E 77 9a 24 00
        E 68 9a 26 7f
        E 435 9a 26 00
        E 285 9a 24 7f
        E 712 9a 24 00
        E 262 9a 26 7f
        E 221 9a 24 7f
        E 99 9a 26 00
        E 302 9a 24 00
        E 324 9a 24 7f
        E 356 9a 24 00
        E 361 9a 24 77
        E 73 9a 24 00
        E 186 9a 26 7f
        E 486 9a 24 7f
        E 34 9a 26 00
        E 446 9a 24 00
        E 482 9a 24 7f
        E 440 9a 24 00
        E 28 9a 26 7f
        E 878 9a 26 00
        E 68 9a 24 7f
        E 276 9a 24 00
        E 229 9a 26 7f
        E 119 9a 26 00
        E 354 9a 23 7f
        E 4 9a 23 00
        E 0 9a 23 7f
        E 68 9a 23 00
        E 866 9a 24 7f
        E 480 9a 24 00
        E 502 9a 26 7f
        E 220 9a 24 7f
        E 92 9a 26 00
        E 64 9a 24 00
        E 562 9a 24 7f
        E 316 9a 24 00
        E 190 9a 24 37
        E 76 9a 24 00
        E 138 9a 26 7f
        E 636 9a 26 00
        E 112 9a 24 7f
        E 198 9a 24 00
        E 760 9a 24 7f
        E 212 9a 26 7f
        E 184 9a 24 00
        E 330 9a 26 00
        E 234 9a 24 7f
        E 160 9a 24 00
        E 296 9a 24 7f
        E 236 9a 24 00
        E 270 9a 26 7f
        E 74 9a 26 00
        E 138 9a 26 13
        E 154 9a 26 00
        E 102 9a 23 7f
        E 6 9a 23 00
        E 0 9a 23 4b
        E 4 9a 24 37
        E 66 9a 23 00
        E 84 9a 24 00
        E 62 9a 26 7f
        E 434 9a 26 00
        E 290 9a 24 7f
        E 714 9a 24 00
        E 256 9a 26 7f
        E 224 9a 24 7f
        E 96 9a 26 00
        E 300 9a 24 00
        E 324 9a 24 7f
        E 14 9c 51 7f
        E 6 9a 41 56
        E 338 9a 24 00
        E 318 9a 41 00
        E 46 9a 24 77
        E 74 9a 24 00
        E 180 9a 26 7f
        E 102 9c 51 00
        E 390 9a 24 7f
        E 10 9c 53 7f
        E 26 9a 26 00
        E 444 9a 24 00
        E 482 9a 24 7f
        E 438 9a 24 00
        E 28 9a 26 7f
        E 708 9a 29 7f
        E 32 9a 29 00
        E 32 9c 53 00
        E 108 9a 26 00
        E 68 9a 24 7f
        E 16 9c 51 7f
        E 14 9a 29 7f
        E 124 9a 29 00
        E 118 9a 24 00
        E 232 9a 26 7f
        E 12 9a 29 13
        E 104 9a 26 00
        E 284 9a 29 00
        E 66 9a 23 7f
        E 6 9a 23 00
        E 0 9a 23 7f
        E 74 9a 23 00
        E 62 9c 51 00
        E 86 9a 29 7f
        E 633 9a 29 00
        E 87 9a 24 7f
        E 8 9c 4e 7f
        E 468 9a 24 00
        E 500 9a 26 7f
        E 222 9a 24 7f
        E 94 9a 26 00
        E 58 9c 4e 00
        E 2 9a 24 00
        E 564 9a 24 7f
        E 16 9c 4c 7f
        E 302 9a 24 00
        E 192 9a 24 37
        E 77 9a 24 00
        E 133 9a 26 7f
        E 598 9c 4c 00
        E 39 9a 26 00
        E 111 9a 24 7f
        E 10 9c 4e 7f
        E 188 9a 24 00
        E 762 9a 24 7f
        E 210 9a 26 7f
        E 186 9a 24 00
        E 332 9a 26 00
        E 186 9c 4e 00
        E 42 9a 24 7f
        E 158 9a 24 00
        E 66 9c 4e 7f
        E 230 9a 24 7f
        E 22 9a 29 7f
        E 16 9c 4e 00
        E 38 9a 29 00
        E 160 9a 24 00
        E 8 9c 4c 7f
        E 264 9a 26 7f
        E 12 9a 29 7f
        E 68 9a 26 00
        E 134 9a 26 13
        E 154 9a 26 00
        E 30 9a 29 00
        E 70 9a 23 7f
        E 4 9a 23 00
        E 0 9a 23 4b
        E 4 9a 24 37
        E 70 9a 23 00
        E 82 9a 24 00
        E 69 9a 26 7f
        E 9 9a 29 7f
        E 424 9a 26 00
        E 160 9a 29 00
        E 119 9c 4c 00
        E 9 9a 24 7f
        E 14 9c 53 7f
        E 228 9a 35 7f
        E 192 9a 35 00
        E 64 9a 35 7f
        E 202 9a 35 00
        E 12 9a 24 00
        E 260 9a 26 7f
        E 220 9a 24 7f
        E 94 9a 26 00
        E 66 9c 53 00
        E 240 9a 24 00
        E 324 9a 24 7f
        E 15 9c 51 7f
        E 7 9a 41 56
        E 330 9a 24 00
        E 322 9a 41 00
        E 42 9a 24 77
        E 74 9a 24 00
        E 182 9a 26 7f
        E 102 9c 51 00
        E 388 9a 24 7f
        E 10 9c 53 7f
        E 28 9a 26 00
        E 450 9a 24 00
        E 474 9a 24 7f
        E 436 9a 24 00
        E 36 9a 26 7f
        E 702 9a 29 7f
        E 32 9a 29 00
        E 30 9c 53 00
        E 110 9a 26 00
        E 66 9a 24 7f
        E 16 9c 51 7f
        E 14 9a 29 7f
        E 126 9a 29 00
        E 118 9a 24 00
        E 236 9a 26 7f
        E 14 9a 29 13
        E 98 9a 26 00
        E 282 9a 29 00
        E 73 9a 23 7f
        E 4 9a 23 00
        E 0 9a 23 7f
        E 73 9a 23 00
        E 60 9c 51 00
        E 87 9a 29 7f
        E 631 9a 29 00
        E 86 9a 24 7f
        E 10 9c 4e 7f
        E 468 9a 24 00
        E 502 9a 26 7f
        E 222 9a 24 7f
        E 92 9a 26 00
        E 64 9c 4e 00
        E 2 9a 24 00
        E 564 9a 24 7f
        E 14 9c 4c 7f
        E 298 9a 24 00
        E 192 9a 24 37
        E 76 9a 24 00
        E 135 9a 26 7f
        E 595 9c 4c 00
        E 40 9a 26 00
        E 112 9a 24 7f
        E 10 9c 4e 7f
        E 190 9a 24 00
        E 758 9a 24 7f
        E 214 9a 26 7f
        E 184 9a 24 00
        E 334 9a 26 00
        E 190 9c 4e 00
        E 44 9a 24 7f
        E 156 9a 24 00
        E 62 9c 4e 7f
        E 234 9a 24 7f
        E 22 9a 29 7f
        E 16 9c 4e 00
        E 38 9a 29 00
        E 156 9a 24 00
        E 8 9c 4c 7f
        E 266 9a 26 7f
        E 12 9a 29 7f
        E 61 9a 26 00
        E 137 9a 26 13
        E 160 9a 26 00
        E 22 9a 29 00
        E 76 9a 23 7f
        E 6 9a 23 00
        E 0 9a 23 4b
        E 4 9a 24 37
        E 72 9a 23 00
        E 78 9a 24 00
        E 64 9a 26 7f
        E 12 9a 29 7f
        E 422 9a 26 00
        E 155 9a 29 00
        E 127 9c 4c 00
        E 10 9a 24 7f
        E 16 9c 53 7f
        E 226 9a 35 7f
        E 186 9a 35 00
        E 72 9a 35 7f
        E 58 8a 24 00
        E 0 8a 35 00
        E 0 8c 53 00
        E 0 b0 7b 00
        GUID {69E55B00-AB42-49E6-B9DF-DFBBAFC29376}
        IGNTEMPO 0 120 4 4
        SRCCOLOR 261
        VELLANE -1 100 0
        CFGEDITVIEW 0 0 75 12 0 0 0 0 0
        KEYSNAP 0 0 102034050607 0 Major
        TRACKSEL 0 0 0 ""
        EVTFILTER 0 -1 -1 -1 -1 0 0 0 0 -1 -1 -1 -1 0 -1 0 -1 -1
        CFGEDIT 1 1 0 1 0 0 1 1 1 1 1 0.125 981 123 2564 969 0 0 0 0 0 0 0 0 0 0.5 0 0 1 64
      >
    >
    <ITEM
      POSITION 126.72
      SNAPOFFS 0
      LENGTH 37.91999999996744
      LOOP 1
      ALLTAKES 0
      FADEIN 1 0 0 1 0 0
      FADEOUT 1 0 0 1 0 0
      MUTE 0
      SEL 0
      IGUID {90C1C159-7E98-470C-AB01-4F865F3ED53C}
      IID 10
      NAME "02-Recorded MIDI"
      VOLPAN 0.756098 0 1 -1
      SOFFS 2.79549788944502 5.8239539363438
      PLAYRATE 1 1 0 -1 0 0.0025
      CHANMODE 0
      GUID {1D14B43F-B8E7-4359-8D5D-5EF9DB094DD5}
      RECPASS 1
      <SOURCE MIDI
        HASDATA 1 960 QN
        POOLEDEVTS {7FF85F33-C06A-4F52-8C5F-73FEDB482A78}
        E 5591 9a 24 7f
        E 16 9c 53 7f
        E 235 9a 35 7f
        E 185 9a 35 00
        E 74 9a 35 7f
        E 195 9a 35 00
        E 12 9a 24 00
        E 257 9a 26 7f
        E 222 9a 24 7f
        E 102 9a 26 00
        E 58 9c 53 00
        E 238 9a 24 00
        E 324 9a 24 7f
        E 14 9c 51 7f
        E 6 9a 41 56
        E 340 9a 24 00
        E 316 9a 41 00
        E 42 9a 24 77
        E 82 9a 24 00
        E 178 9a 26 7f
        E 102 9c 51 00
        E 390 9a 24 7f
        E 11 9c 53 7f
        E 27 9a 26 00
        E 440 9a 24 00
        E 482 9a 24 7f
        E 434 9a 24 00
        E 34 9a 26 7f
        E 703 9a 29 7f
        E 37 9a 29 00
        E 30 9c 53 00
        E 107 9a 26 00
        E 63 9a 24 7f
        E 16 9c 51 7f
        E 14 9a 29 7f
        E 130 9a 29 00
        E 120 9a 24 00
        E 230 9a 26 7f
        E 13 9a 29 13
        E 103 9a 26 00
        E 278 9a 29 00
        E 75 9a 23 7f
        E 3 9a 23 00
        E 0 9a 23 7f
        E 74 9a 23 00
        E 64 9c 51 00
        E 88 9a 29 7f
        E 630 9a 29 00
        E 80 9a 24 7f
        E 11 9c 4e 7f
        E 465 9a 24 00
        E 502 9a 26 7f
        E 223 9a 24 7f
        E 102 9a 26 00
        E 55 9c 4e 00
        E 2 9a 24 00
        E 562 9a 24 7f
        E 16 9c 4c 7f
        E 298 9a 24 00
        E 190 9a 24 37
        E 84 9a 24 00
        E 132 9a 26 7f
        E 598 9c 4c 00
        E 38 9a 26 00
        E 114 9a 24 7f
        E 10 9c 4e 7f
        E 186 9a 24 00
        E 762 9a 24 7f
        E 212 9a 26 7f
        E 187 9a 24 00
        E 331 9a 26 00
        E 186 9c 4e 00
        E 42 9a 24 7f
        E 156 9a 24 00
        E 68 9c 4e 7f
        E 228 9a 24 7f
        E 22 9a 29 7f
        E 17 9c 4e 00
        E 39 9a 29 00
        E 158 9a 24 00
        E 8 9c 4c 7f
        E 264 9a 26 7f
        E 12 9a 29 7f
        E 68 9a 26 00
        E 134 9a 26 13
        E 154 9a 26 00
        E 31 9a 29 00
        E 69 9a 23 7f
        E 4 9a 23 00
        E 0 9a 23 4b
        E 4 9a 24 37
        E 72 9a 23 00
        E 80 9a 24 00
        E 68 9a 26 7f
        E 13 9a 29 7f
        E 421 9a 26 00
        E 162 9a 29 00
        E 116 9c 4c 00
        E 10 9a 24 7f
        E 14 9c 53 7f
        E 228 9a 35 7f
        E 190 9a 35 00
        E 67 9a 35 7f
        E 202 9a 35 00
        E 11 9a 24 00
        E 262 9a 26 7f
        E 218 9a 24 7f
        E 96 9a 26 00
        E 64 9c 53 00
        E 240 9a 24 00
        E 324 9a 24 7f
        E 16 9c 51 7f
        E 6 9a 41 56
        E 330 9a 24 00
        E 324 9a 41 00
        E 40 9a 24 77
        E 76 9a 24 00
        E 181 9a 26 7f
        E 101 9c 51 00
        E 389 9a 24 7f
        E 9 9c 53 7f
        E 28 9a 26 00
        E 448 9a 24 00
        E 474 9a 24 7f
        E 438 9a 24 00
        E 36 9a 26 7f
        E 700 9a 29 7f
        E 32 9a 29 00
        E 32 9c 53 00
        E 114 9a 26 00
        E 62 9a 24 7f
        E 16 9c 51 7f
        E 14 9a 29 7f
        E 126 9a 29 00
        E 122 9a 24 00
        E 232 9a 26 7f
        E 12 9a 29 13
        E 106 9a 26 00
        E 276 9a 29 00
        E 74 9a 23 7f
        E 4 9a 23 00
        E 0 9a 23 7f
        E 70 9a 23 00
        E 60 9c 51 00
        E 88 9a 29 7f
        E 638 9a 29 00
        E 80 9a 24 7f
        E 8 9c 4e 7f
        E 468 9a 24 00
        E 502 9a 26 7f
        E 222 9a 24 7f
        E 98 9a 26 00
        E 58 9c 4e 00
        E 3 9a 24 00
        E 563 9a 24 7f
        E 14 9c 4c 7f
        E 298 9a 24 00
        E 192 9a 24 37
        E 76 9a 24 00
        E 136 9a 26 7f
        E 602 9c 4c 00
        E 38 9a 26 00
        E 112 9a 24 7f
        E 10 9c 4e 7f
        E 182 9a 24 00
        E 768 9a 24 7f
        E 206 9a 26 7f
        E 190 9a 24 00
        E 328 9a 26 00
        E 190 9c 4e 00
        E 44 9a 24 7f
        E 156 9a 24 00
        E 61 9c 4e 7f
        E 233 9a 24 7f
        E 24 9a 29 7f
        E 16 9c 4e 00
        E 38 9a 29 00
        E 162 9a 24 00
        E 8 9c 4c 7f
        E 262 9a 26 7f
        E 10 9a 29 7f
        E 64 9a 26 00
        E 136 9a 26 13
        E 158 9a 26 00
        E 30 9a 29 00
        E 70 9a 23 7f
        E 4 9a 23 00
        E 0 9a 23 4b
        E 4 9a 24 37
        E 72 9a 23 00
        E 80 9a 24 00
        E 64 9a 26 7f
        E 10 9a 29 7f
        E 422 9a 26 00
        E 164 9a 29 00
        E 118 9c 4c 00
        E 10 9a 24 7f
        E 16 9c 53 7f
        E 226 9a 35 7f
        E 192 9a 35 00
        E 64 9a 35 7f
        E 202 9a 35 00
        E 12 9a 24 00
        E 262 9a 26 7f
        E 220 9a 24 7f
        E 96 9a 26 00
        E 58 9c 53 00
        E 244 9a 24 00
        E 324 9a 24 7f
        E 16 9c 51 7f
        E 6 9a 41 56
        E 334 9a 24 00
        E 320 9a 41 00
        E 42 9a 24 77
        E 76 9a 24 00
        E 178 9a 26 7f
        E 104 9c 51 00
        E 388 9a 24 7f
        E 10 9c 53 7f
        E 30 9a 26 00
        E 440 9a 24 00
        E 480 9a 24 7f
        E 440 9a 24 00
        E 30 9a 26 7f
        E 706 9a 29 7f
        E 30 9a 29 00
        E 30 9c 53 00
        E 112 9a 26 00
        E 67 9a 24 7f
        E 17 9c 51 7f
        E 14 9a 29 7f
        E 124 9a 29 00
        E 116 9a 24 00
        E 234 9a 26 7f
        E 12 9a 29 13
        E 102 9a 26 00
        E 280 9a 29 00
        E 72 9a 23 7f
        E 6 9a 23 00
        E 0 9a 23 7f
        E 74 9a 23 00
        E 62 9c 51 00
        E 86 9a 29 7f
        E 632 9a 29 00
        E 86 9a 24 7f
        E 10 9c 4e 7f
        E 468 9a 24 00
        E 502 9a 26 7f
        E 220 9a 24 7f
        E 92 9a 26 00
        E 64 9c 4e 00
        E 2 9a 24 00
        E 560 9a 24 7f
        E 14 9c 4c 7f
        E 302 9a 24 00
        E 194 9a 24 37
        E 76 9a 24 00
        E 134 9a 26 7f
        E 598 9c 4c 00
        E 40 9a 26 00
        E 108 9a 24 7f
        E 10 9c 4e 7f
        E 188 9a 24 00
        E 764 9a 24 7f
        E 210 9a 26 7f
        E 184 9a 24 00
        E 332 9a 26 00
        E 192 9c 4e 00
        E 44 9a 24 7f
        E 152 9a 24 00
        E 66 9c 4e 7f
        E 231 9a 24 7f
        E 23 9a 29 7f
        E 16 9c 4e 00
        E 36 9a 29 00
        E 158 9a 24 00
        E 8 9c 4c 7f
        E 268 9a 26 7f
        E 12 9a 29 7f
        E 64 9a 26 00
        E 134 9a 26 13
        E 158 9a 26 00
        E 30 9a 29 00
        E 68 9a 23 7f
        E 6 9a 23 00
        E 0 9a 23 4b
        E 4 9a 24 37
        E 74 9a 23 00
        E 80 9a 24 00
        E 64 9a 26 7f
        E 9 9a 29 7f
        E 425 9a 26 00
        E 160 9a 29 00
        E 118 9c 4c 00
        E 12 9a 24 7f
        E 14 9c 53 7f
        E 225 9a 35 7f
        E 187 9a 35 00
        E 71 9a 35 7f
        E 199 9a 35 00
        E 10 9a 24 00
        E 266 9a 26 7f
        E 217 9a 24 7f
        E 99 9a 26 00
        E 60 9c 53 00
        E 238 9a 24 00
        E 328 9a 24 7f
        E 16 9c 51 7f
        E 6 9a 41 56
        E 332 9a 24 00
        E 318 9a 41 00
        E 48 9a 24 77
        E 72 9a 24 00
        E 180 9a 26 7f
        E 102 9c 51 00
        E 390 9a 24 7f
        E 10 9c 53 7f
        E 26 9a 26 00
        E 444 9a 24 00
        E 480 9a 24 7f
        E 440 9a 24 00
        E 28 9a 26 7f
        E 708 9a 29 7f
        E 34 9a 29 00
        E 28 9c 53 00
        E 110 9a 26 00
        E 62 9a 24 7f
        E 16 9c 51 7f
        E 14 9a 29 7f
        E 130 9a 29 00
        E 118 9a 24 00
        E 232 9a 26 7f
        E 12 9a 29 13
        E 102 9a 26 00
        E 280 9a 29 00
        E 74 9a 23 7f
        E 4 9a 23 00
        E 0 9a 23 7f
        E 74 9a 23 00
        E 62 9c 51 00
        E 82 9a 29 7f
        E 636 9a 29 00
        E 88 9a 24 7f
        E 8 9c 4e 7f
        E 462 9a 24 00
        E 502 9a 26 7f
        E 220 9a 24 7f
        E 102 9a 26 00
        E 58 9c 4e 00
        E 2 9a 24 00
        E 562 9a 24 7f
        E 15 9c 4c 7f
        E 299 9a 24 00
        E 196 9a 24 37
        E 73 9a 24 00
        E 137 9a 26 7f
        E 598 9c 4c 00
        E 38 9a 26 00
        E 112 9a 24 7f
        E 10 9c 4e 7f
        E 188 9a 24 00
        E 762 9a 24 7f
        E 210 9a 26 7f
        E 186 9a 24 00
        E 332 9a 26 00
        E 186 9c 4e 00
        E 44 9a 24 7f
        E 155 9a 24 00
        E 67 9c 4e 7f
        E 230 9a 24 7f
        E 22 9a 29 7f
        E 16 9c 4e 00
        E 40 9a 29 00
        E 158 9a 24 00
        E 8 9c 4c 7f
        E 264 9a 26 7f
        E 10 9a 29 7f
        E 70 9a 26 00
        E 134 9a 26 13
        E 154 9a 26 00
        E 28 9a 29 00
        E 72 9a 23 7f
        E 4 9a 23 00
        E 0 9a 23 4b
        E 4 9a 24 37
        E 69 9a 23 00
        E 82 9a 24 00
        E 69 9a 26 7f
        E 10 9a 29 7f
        E 418 9a 26 00
        E 162 9a 29 00
        E 122 9c 4c 00
        E 9 9a 24 7f
        E 14 9c 53 7f
        E 229 9a 35 7f
        E 189 9a 35 00
        E 67 9a 35 7f
        E 202 9a 35 00
        E 10 9a 24 00
        E 262 9a 26 7f
        E 222 9a 24 7f
        E 94 9a 26 00
        E 64 9c 53 00
        E 240 9a 24 00
        E 324 9a 24 7f
        E 16 9c 51 7f
        E 4 9a 41 56
        E 330 9a 24 00
        E 326 9a 41 00
        E 39 9a 24 77
        E 74 9a 24 00
        E 183 9a 26 7f
        E 102 9c 51 00
        E 389 9a 24 7f
        E 8 9c 53 7f
        E 29 9a 26 00
        E 442 9a 24 00
        E 482 9a 24 7f
        E 438 9a 24 00
        E 30 9a 26 7f
        E 706 9a 29 7f
        E 34 9a 29 00
        E 28 9c 53 00
        E 108 9a 26 00
        E 70 9a 24 7f
        E 14 9c 51 7f
        E 16 9a 29 7f
        E 126 9a 29 00
        E 116 9a 24 00
        E 230 9a 26 7f
        E 14 9a 29 13
        E 104 9a 26 00
        E 282 9a 29 00
        E 74 9a 23 7f
        E 4 9a 23 00
        E 0 9a 23 7f
        E 70 9a 23 00
        E 63 9c 51 00
        E 87 9a 29 7f
        E 630 9a 29 00
        E 85 9a 24 7f
        E 9 9c 4e 7f
        E 468 9a 24 00
        E 501 9a 26 7f
        E 225 9a 24 7f
        E 92 9a 26 00
        E 64 9c 4e 00
        E 2 9a 24 00
        E 563 9a 24 7f
        E 14 9c 4c 7f
        E 301 9a 24 00
        E 190 9a 24 37
        E 77 9a 24 00
        E 135 9a 26 7f
        E 594 9c 4c 00
        E 38 9a 26 00
        E 114 9a 24 7f
        E 8 9c 4e 7f
        E 192 9a 24 00
        E 760 9a 24 7f
        E 212 9a 26 7f
        E 184 9a 24 00
        E 333 9a 26 00
        E 191 9c 4e 00
        E 44 9a 24 7f
        E 152 9a 24 00
        E 66 9c 4e 7f
        E 232 9a 24 7f
        E 21 9a 29 7f
        E 19 9c 4e 00
        E 34 9a 29 00
        E 160 9a 24 00
        E 8 9c 4c 7f
        E 259 9a 26 7f
        E 12 9a 29 7f
        E 71 9a 26 00
        E 134 9a 26 13
        E 153 9a 26 00
        E 29 9a 29 00
        E 75 9a 23 7f
        E 6 9a 23 00
        E 0 9a 23 4b
        E 4 9a 24 37
        E 71 9a 23 00
        E 80 9a 24 00
        E 66 9a 26 7f
        E 9 9a 29 7f
        E 422 9a 26 00
        E 163 9a 29 00
        E 116 9c 4c 00
        E 10 9a 24 7f
        E 13 9c 53 7f
        E 230 9a 35 7f
        E 189 9a 35 00
        E 71 9a 35 7f
        E 197 9a 35 00
        E 14 9a 24 00
        E 260 9a 26 7f
        E 219 9a 24 7f
        E 97 9a 26 00
        E 64 9c 53 00
        E 236 9a 24 00
        E 326 9a 24 7f
        E 16 9c 51 7f
        E 4 9a 41 56
        E 334 9a 24 00
        E 319 9a 41 00
        E 43 9a 24 77
        E 76 9a 24 00
        E 186 9a 26 7f
        E 95 9c 51 00
        E 395 9a 24 7f
        E 11 9c 53 7f
        E 15 9a 26 00
        E 456 9a 24 00
        E 472 9a 24 7f
        E 440 9a 24 00
        E 36 9a 26 7f
        E 698 9a 29 7f
        E 40 9a 29 00
        E 30 9c 53 00
        E 104 9a 26 00
        E 68 9a 24 7f
        E 15 9c 51 7f
        E 14 9a 29 7f
        E 124 9a 29 00
        E 125 9a 24 00
        E 231 9a 26 7f
        E 13 9a 29 13
        E 104 9a 26 00
        E 278 9a 29 00
        E 73 9a 23 7f
        E 4 9a 23 00
        E 0 9a 23 7f
        E 75 9a 23 00
        E 62 9c 51 00
        E 79 9a 29 7f
        E 641 9a 29 00
        E 80 9a 24 7f
        E 8 9c 4e 7f
        E 467 9a 24 00
        E 502 9a 26 7f
        E 221 9a 24 7f
        E 100 9a 26 00
        E 56 9c 4e 00
        E 2 9a 24 00
        E 568 9a 24 7f
        E 14 9c 4c 7f
        E 296 9a 24 00
        E 191 9a 24 37
        E 78 9a 24 00
        E 139 9a 26 7f
        E 596 9c 4c 00
        E 37 9a 26 00
        E 108 9a 24 7f
        E 10 9c 4e 7f
        E 188 9a 24 00
        E 763 9a 24 7f
        E 217 9a 26 7f
        E 185 9a 24 00
        E 328 9a 26 00
        E 190 9c 4e 00
        E 46 9a 24 7f
        E 156 9a 24 00
        E 60 9c 4e 7f
        E 231 9a 24 7f
        E 22 9a 29 7f
        E 17 9c 4e 00
        E 42 9a 29 00
        E 158 9a 24 00
        E 7 9c 4c 7f
        E 265 9a 26 7f
        E 12 9a 29 7f
        E 61 9a 26 00
        E 135 9a 26 13
        E 160 9a 26 00
        E 28 9a 29 00
        E 69 9a 23 7f
        E 4 9a 23 00
        E 0 9a 23 4b
        E 6 9a 24 37
        E 73 9a 23 00
        E 82 9a 24 00
        E 59 9a 26 7f
        E 12 9a 29 7f
        E 425 9a 26 00
        E 160 9a 29 00
        E 121 9c 4c 00
        E 10 9a 24 7f
        E 708 9a 24 00
        E 259 9a 26 7f
        E 223 9a 24 7f
        E 97 9a 26 00
        E 300 9a 24 00
        E 325 9a 24 7f
        E 358 9a 24 00
        E 363 9a 24 77
        E 73 9a 24 00
        E 184 9a 26 7f
        E 492 9a 24 7f
        E 25 9a 26 00
        E 447 9a 24 00
        E 482 9a 24 7f
        E 441 9a 24 00
        E 28 9a 26 7f
        E 877 9a 26 00
        E 68 9a 24 7f
        E 273 9a 24 00
        E 237 9a 26 7f
        E 117 9a 26 00
        E 354 9a 23 7f
        E 2 9a 23 00
        E 0 9a 23 7f
        E 76 9a 23 00
        E 857 9a 24 7f
        E 482 9a 24 00
        E 501 9a 26 7f
        E 218 9a 24 7f
        E 95 9a 26 00
        E 64 9a 24 00
        E 560 9a 24 7f
        E 318 9a 24 00
        E 194 9a 24 37
        E 79 9a 24 00
        E 130 9a 26 7f
        E 639 9a 26 00
        E 110 9a 24 7f
        E 197 9a 24 00
        E 763 9a 24 7f
        E 210 9a 26 7f
        E 184 9a 24 00
        E 337 9a 26 00
        E 230 9a 24 7f
        E 156 9a 24 00
        E 293 9a 24 7f
        E 239 9a 24 00
        E 266 9a 26 7f
        E 79 9a 26 00
        E 138 9a 26 13
        E 156 9a 26 00
        E 98 9a 23 7f
        E 5 9a 23 00
        E 0 9a 23 4b
        E 3 9a 24 37
        E 70 9a 23 00
        E 84 9a 24 00
        E 62 9a 26 7f
        E 434 9a 26 00
        E 291 9a 24 7f
        E 714 9a 24 00
        E 255 9a 26 7f
        E 226 9a 24 7f
        E 98 9a 26 00
        E 298 9a 24 00
        E 322 9a 24 7f
        E 360 9a 24 00
        E 358 9a 24 77
        E 80 9a 24 00
        E 180 9a 26 7f
        E 493 9a 24 7f
        E 34 9a 26 00
        E 439 9a 24 00
        E 487 9a 24 7f
        E 434 9a 24 00
        E 35 9a 26 7f
        E 876 9a 26 00
        E 66 9a 24 7f
        E 272 9a 24 00
        E 234 9a 26 7f
        E 116 9a 26 00
        E 350 9a 23 7f
        E 7 9a 23 00
        E 0 9a 23 7f
        E 75 9a 23 00
        E 863 9a 24 7f
        E 473 9a 24 00
        E 502 9a 26 7f
        E 224 9a 24 7f
        E 98 9a 26 00
        E 57 9a 24 00
        E 565 9a 24 7f
        E 312 9a 24 00
        E 193 9a 24 37
        E 82 9a 24 00
        E 135 9a 26 7f
        E 633 9a 26 00
        E 115 9a 24 7f
        E 192 9a 24 00
        E 762 9a 24 7f
        E 218 9a 26 7f
        E 182 9a 24 00
        E 330 9a 26 00
        E 230 9a 24 7f
        E 158 9a 24 00
        E 299 9a 24 7f
        E 235 9a 24 00
        E 271 9a 26 7f
        E 77 9a 26 00
        E 134 9a 26 13
        E 154 9a 26 00
        E 102 9a 23 7f
        E 4 9a 23 00
        E 0 9a 23 4b
        E 6 9a 24 37
        E 70 9a 23 00
        E 78 9a 24 00
        E 64 9a 26 7f
        E 440 9a 26 00
        E 282 9a 24 7f
        E 714 9a 24 00
        E 262 9a 26 7f
        E 222 9a 24 7f
        E 98 9a 26 00
        E 302 9a 24 00
        E 324 9a 24 7f
        E 356 9a 24 00
        E 360 9a 24 77
        E 76 9a 24 00
        E 184 9a 26 7f
        E 487 9a 24 7f
        E 29 9a 26 00
        E 448 9a 24 00
        E 482 9a 24 7f
        E 440 9a 24 00
        E 28 9a 26 7f
        E 882 9a 26 00
        E 568 9a 26 7f
        E 122 9a 26 00
        E 2268 9a 26 7f
        E 318 9a 26 00
        E 1350 9a 26 7f
        E 630 9a 26 00
        E 1286 9a 26 7f
        E 512 9a 26 00
        E 1196 9a 26 7f
        E 78 9a 26 00
        E 132 9a 26 13
        E 154 9a 26 00
        E 326 9a 26 7f
        E 432 9a 26 00
        E 1264 9a 26 7f
        E 320 9a 26 00
        E 1600 9a 26 7f
        E 492 9c 53 7f
        E 22 9a 26 00
        E 938 9a 24 7f
        E 434 9a 24 00
        E 34 9a 26 7f
        E 702 9a 29 7f
        E 38 9a 29 00
        E 24 9c 53 00
        E 116 9a 26 00
        E 62 9a 24 7f
        E 14 9c 51 7f
        E 16 9a 29 7f
        E 124 9a 29 00
        E 124 9a 24 00
        E 230 9a 26 7f
        E 12 9a 29 13
        E 104 9a 26 00
        E 278 9a 29 00
        E 76 9a 23 7f
        E 4 9a 23 00
        E 0 9a 23 7f
        E 72 9a 23 00
        E 64 9c 51 00
        E 82 9a 29 7f
        E 636 9a 29 00
        E 80 9a 24 7f
        E 10 9c 4e 7f
        E 469 9a 24 00
        E 499 9a 26 7f
        E 224 9a 24 7f
        E 98 9a 26 00
        E 58 9c 4e 00
        E 2 9a 24 00
        E 564 9a 24 7f
        E 14 9c 4c 7f
        E 298 9a 24 00
        E 191 9a 24 37
        E 77 9a 24 00
        E 140 9a 26 7f
        E 592 9c 4c 00
        E 44 9a 26 00
        E 105 9a 24 7f
        E 10 9c 4e 7f
        E 195 9a 24 00
        E 762 9a 24 7f
        E 210 9a 26 7f
        E 186 9a 24 00
        E 326 9a 26 00
        E 192 9c 4e 00
        E 44 9a 24 7f
        E 156 9a 24 00
        E 60 9c 4e 7f
        E 233 9a 24 7f
        E 23 9a 29 7f
        E 18 9c 4e 00
        E 38 9a 29 00
        E 158 9a 24 00
        E 8 9c 4c 7f
        E 264 9a 26 7f
        E 12 9a 29 7f
        E 62 9a 26 00
        E 140 9a 26 13
        E 154 9a 26 00
        E 30 9a 29 00
        E 70 9a 23 7f
        E 4 9a 23 00
        E 0 9a 23 4b
        E 4 9a 24 37
        E 72 9a 23 00
        E 80 9a 24 00
        E 68 9a 26 7f
        E 10 9a 29 7f
        E 426 9a 26 00
        E 154 9a 29 00
        E 122 9c 4c 00
        E 10 9a 24 7f
        E 14 9c 53 7f
        E 226 9a 35 7f
        E 186 9a 35 00
        E 72 9a 35 7f
        E 202 9a 35 00
        E 10 9a 24 00
        E 262 9a 26 7f
        E 220 9a 24 7f
        E 96 9a 26 00
        E 60 9c 53 00
        E 244 9a 24 00
        E 323 9a 24 7f
        E 17 9c 51 7f
        E 4 9a 41 56
        E 332 9a 24 00
        E 322 9a 41 00
        E 42 9a 24 77
        E 74 9a 24 00
        E 182 9a 26 7f
        E 102 9c 51 00
        E 387 9a 24 7f
        E 11 9c 53 7f
        E 28 9a 26 00
        E 442 9a 24 00
        E 480 9a 24 7f
        E 440 9a 24 00
        E 28 9a 26 7f
        E 706 9a 29 7f
        E 32 9a 29 00
        E 30 9c 53 00
        E 116 9a 26 00
        E 64 9a 24 7f
        E 16 9c 51 7f
        E 14 9a 29 7f
        E 122 9a 29 00
        E 120 9a 24 00
        E 232 9a 26 7f
        E 12 9a 29 13
        E 104 9a 26 00
        E 280 9a 29 00
        E 72 9a 23 7f
        E 4 9a 23 00
        E 0 9a 23 7f
        E 74 9a 23 00
        E 62 9c 51 00
        E 86 9a 29 7f
        E 632 9a 29 00
        E 83 9a 24 7f
        E 11 9c 4e 7f
        E 468 9a 24 00
        E 502 9a 26 7f
        E 224 9a 24 7f
        E 90 9a 26 00
        E 63 9c 4e 00
        E 2 9a 24 00
        E 565 9a 24 7f
        E 14 9c 4c 7f
        E 300 9a 24 00
        E 189 9a 24 37
        E 78 9a 24 00
        E 135 9a 26 7f
        E 594 9c 4c 00
        E 46 9a 26 00
        E 104 9a 24 7f
        E 12 9c 4e 7f
        E 190 9a 24 00
        E 758 9a 24 7f
        E 214 9a 26 7f
        E 190 9a 24 00
        E 326 9a 26 00
        E 192 9c 4e 00
        E 42 9a 24 7f
        E 154 9a 24 00
        E 66 9c 4e 7f
        E 232 9a 24 7f
        E 24 9a 29 7f
        E 16 9c 4e 00
        E 38 9a 29 00
        E 160 9a 24 00
        E 9 9c 4c 7f
        E 261 9a 26 7f
        E 12 9a 29 7f
        E 62 9a 26 00
        E 138 9a 26 13
        E 158 9a 26 00
        E 28 9a 29 00
        E 72 9a 23 7f
        E 4 9a 23 00
        E 0 9a 23 4b
        E 4 9a 24 37
        E 72 9a 23 00
        E 74 9a 24 00
        E 70 9a 26 7f
        E 10 9a 29 7f
        E 424 9a 26 00
        E 162 9a 29 00
        E 118 9c 4c 00
        E 10 9a 24 7f
        E 15 9c 53 7f
        E 225 9a 35 7f
        E 186 9a 35 00
        E 74 9a 35 7f
        E 196 9a 35 00
        E 12 9a 24 00
        E 260 9a 26 7f
        E 222 9a 24 7f
        E 100 9a 26 00
        E 57 9c 53 00
        E 241 9a 24 00
        E 328 9a 24 7f
        E 16 9c 51 7f
        E 6 9a 41 56
        E 334 9a 24 00
        E 314 9a 41 00
        E 44 9a 24 77
        E 80 9a 24 00
        E 180 9a 26 7f
        E 96 9c 51 00
        E 394 9a 24 7f
        E 10 9c 53 7f
        E 30 9a 26 00
        E 440 9a 24 00
        E 480 9a 24 7f
        E 440 9a 24 00
        E 30 9a 26 7f
        E 704 9a 29 7f
        E 32 9a 29 00
        E 34 9c 53 00
        E 108 9a 26 00
        E 62 9a 24 7f
        E 15 9c 51 7f
        E 15 9a 29 7f
        E 129 9a 29 00
        E 117 9a 24 00
        E 232 9a 26 7f
        E 14 9a 29 13
        E 102 9a 26 00
        E 280 9a 29 00
        E 74 9a 23 7f
        E 4 9a 23 00
        E 0 9a 23 7f
        E 74 9a 23 00
        E 62 9c 51 00
        E 86 9a 29 7f
        E 631 9a 29 00
        E 87 9a 24 7f
        E 10 9c 4e 7f
        E 462 9a 24 00
        E 500 9a 26 7f
        E 222 9a 24 7f
        E 98 9a 26 00
        E 60 9c 4e 00
        E 2 9a 24 00
        E 564 9a 24 7f
        E 14 9c 4c 7f
        E 304 9a 24 00
        E 192 9a 24 37
        E 72 9a 24 00
        E 138 9a 26 7f
        E 591 9c 4c 00
        E 41 9a 26 00
        E 116 9a 24 7f
        E 10 9c 4e 7f
        E 184 9a 24 00
        E 764 9a 24 7f
        E 212 9a 26 7f
        E 184 9a 24 00
        E 332 9a 26 00
        E 188 9c 4e 00
        E 42 9a 24 7f
        E 158 9a 24 00
        E 64 9c 4e 7f
        E 230 9a 24 7f
        E 21 9a 29 7f
        E 17 9c 4e 00
        E 40 9a 29 00
        E 158 9a 24 00
        E 8 9c 4c 7f
        E 264 9a 26 7f
        E 12 9a 29 7f
        E 68 9a 26 00
        E 136 9a 26 13
        E 156 9a 26 00
        E 24 9a 29 00
        E 79 9a 23 7f
        E 4 9a 23 00
        E 0 9a 23 4b
        E 4 9a 24 37
        E 64 9a 23 00
        E 81 9a 24 00
        E 68 9a 26 7f
        E 11 9a 29 7f
        E 424 9a 26 00
        E 157 9a 29 00
        E 123 9c 4c 00
        E 10 9a 24 7f
        E 16 9c 53 7f
        E 222 9a 35 7f
        E 188 9a 35 00
        E 77 9a 35 7f
        E 191 9a 35 00
        E 13 9a 24 00
        E 260 9a 26 7f
        E 223 9a 24 7f
        E 95 9a 26 00
        E 64 9c 53 00
        E 240 9a 24 00
        E 322 9a 24 7f
        E 16 9c 51 7f
        E 4 9a 41 56
        E 340 9a 24 00
        E 318 9a 41 00
        E 40 9a 24 77
        E 79 9a 24 00
        E 179 9a 26 7f
        E 99 9c 51 00
        E 393 9a 24 7f
        E 12 9c 53 7f
        E 11 9a 26 00
        E 457 9a 24 00
        E 482 9a 24 7f
        E 432 9a 24 00
        E 36 9a 26 7f
        E 701 9a 29 7f
        E 39 9a 29 00
        E 28 9c 53 00
        E 110 9a 26 00
        E 62 9a 24 7f
        E 16 9c 51 7f
        E 14 9a 29 7f
        E 123 9a 29 00
        E 124 9a 24 00
        E 231 9a 26 7f
        E 11 9a 29 13
        E 107 9a 26 00
        E 277 9a 29 00
        E 73 9a 23 7f
        E 4 9a 23 00
        E 0 9a 23 7f
        E 76 9a 23 00
        E 64 9c 51 00
        E 80 9a 29 7f
        E 638 9a 29 00
        E 77 9a 24 7f
        E 11 9c 4e 7f
        E 470 9a 24 00
        E 498 9a 26 7f
        E 225 9a 24 7f
        E 99 9a 26 00
        E 56 9c 4e 00
        E 2 9a 24 00
        E 564 9a 24 7f
        E 14 9c 4c 7f
        E 300 9a 24 00
        E 190 9a 24 37
        E 78 9a 24 00
        E 142 9a 26 7f
        E 593 9c 4c 00
        E 38 9a 26 00
        E 113 9a 24 7f
        E 9 9c 4e 7f
        E 189 9a 24 00
        E 761 9a 24 7f
        E 211 9a 26 7f
        E 188 9a 24 00
        E 327 9a 26 00
        E 189 9c 4e 00
        E 43 9a 24 7f
        E 159 9a 24 00
        E 58 9c 4e 7f
        E 236 9a 24 7f
        E 21 9a 29 7f
        E 18 9c 4e 00
        E 39 9a 29 00
        E 158 9a 24 00
        E 8 9c 4c 7f
        E 264 9a 26 7f
        E 10 9a 29 7f
        E 64 9a 26 00
        E 140 9a 26 13
        E 153 9a 26 00
        E 30 9a 29 00
        E 68 9a 23 7f
        E 6 9a 23 00
        E 0 9a 23 4b
        E 4 9a 24 37
        E 73 9a 23 00
        E 79 9a 24 00
        E 63 9a 26 7f
        E 9 9a 29 7f
        E 424 9a 26 00
        E 167 9a 29 00
        E 117 9c 4c 00
        E 10 9a 24 7f
        E 14 9c 53 7f
        E 226 9a 35 7f
        E 192 9a 35 00
        E 67 9a 35 7f
        E 199 9a 35 00
        E 12 9a 24 00
        E 263 9a 26 7f
        E 219 9a 24 7f
        E 97 9a 26 00
        E 60 9c 53 00
        E 244 9a 24 00
        E 324 9a 24 7f
        E 16 9c 51 7f
        E 4 9a 41 56
        E 331 9a 24 00
        E 325 9a 41 00
        E 39 9a 24 77
        E 75 9a 24 00
        E 180 9a 26 7f
        E 103 9c 51 00
        E 389 9a 24 7f
        E 10 9c 53 7f
        E 28 9a 26 00
        E 441 9a 24 00
        E 482 9a 24 7f
        E 441 9a 24 00
        E 27 9a 26 7f
        E 707 9a 29 7f
        E 32 9a 29 00
        E 29 9c 53 00
        E 109 9a 26 00
        E 66 9a 24 7f
        E 15 9c 51 7f
        E 15 9a 29 7f
        E 127 9a 29 00
        E 119 9a 24 00
        E 231 9a 26 7f
        E 12 9a 29 13
        E 104 9a 26 00
        E 282 9a 29 00
        E 70 9a 23 7f
        E 4 9a 23 00
        E 0 9a 23 7f
        E 77 9a 23 00
        E 62 9c 51 00
        E 85 9a 29 7f
        E 631 9a 29 00
        E 86 9a 24 7f
        E 10 9c 4e 7f
        E 465 9a 24 00
        E 503 9a 26 7f
        E 217 9a 24 7f
        E 99 9a 26 00
        E 64 9c 4e 00
        E 1 9a 24 00
        E 558 9a 24 7f
        E 14 9c 4c 7f
        E 306 9a 24 00
        E 190 9a 24 37
        E 75 9a 24 00
        E 137 9a 26 7f
        E 594 9c 4c 00
        E 40 9a 26 00
        E 112 9a 24 7f
        E 10 9c 4e 7f
        E 190 9a 24 00
        E 760 9a 24 7f
        E 212 9a 26 7f
        E 186 9a 24 00
        E 334 9a 26 00
        E 183 9c 4e 00
        E 43 9a 24 7f
        E 161 9a 24 00
        E 57 9c 4e 7f
        E 234 9a 24 7f
        E 22 9a 29 7f
        E 16 9c 4e 00
        E 40 9a 29 00
        E 160 9a 24 00
        E 8 9c 4c 7f
        E 262 9a 26 7f
        E 12 9a 29 7f
        E 70 9a 26 00
        E 130 9a 26 13
        E 157 9a 26 00
        E 29 9a 29 00
        E 70 9a 23 7f
        E 4 9a 23 00
        E 0 9a 23 4b
        E 4 9a 24 37
        E 73 9a 23 00
        E 81 9a 24 00
        E 62 9a 26 7f
        E 12 9a 29 7f
        E 425 9a 26 00
        E 158 9a 29 00
        E 121 9c 4c 00
        E 11 9a 24 7f
        E 16 9c 53 7f
        E 229 9a 35 7f
        E 188 9a 35 00
        E 67 9a 35 7f
        E 201 9a 35 00
        E 6 9a 24 00
        E 267 9a 26 7f
        E 223 9a 24 7f
        E 94 9a 26 00
        E 58 9c 53 00
        E 244 9a 24 00
        E 325 9a 24 7f
        E 16 9c 51 7f
        E 3 9a 41 56
        E 335 9a 24 00
        E 321 9a 41 00
        E 43 9a 24 77
        E 73 9a 24 00
        E 179 9a 26 7f
        E 104 9c 51 00
        E 387 9a 24 7f
        E 11 9c 53 7f
        E 28 9a 26 00
        E 441 9a 24 00
        E 483 9a 24 7f
        E 438 9a 24 00
        E 29 9a 26 7f
        E 706 9a 29 7f
        E 35 9a 29 00
        E 29 9c 53 00
        E 108 9a 26 00
        E 64 9a 24 7f
        E 16 9c 51 7f
        E 12 9a 29 7f
        E 131 9a 29 00
        E 116 9a 24 00
        E 234 9a 26 7f
        E 11 9a 29 13
        E 105 9a 26 00
        E 284 9a 29 00
        E 68 9a 23 7f
        E 4 9a 23 00
        E 0 9a 23 7f
        E 75 9a 23 00
        E 60 9c 51 00
        E 88 9a 29 7f
        E 632 9a 29 00
        E 86 9a 24 7f
        E 11 9c 4e 7f
        E 462 9a 24 00
        E 499 9a 26 7f
        E 231 9a 24 7f
        E 89 9a 26 00
        E 61 9c 4e 00
        E 2 9a 24 00
        E 563 9a 24 7f
        E 15 9c 4c 7f
        E 301 9a 24 00
        E 194 9a 24 37
        E 77 9a 24 00
        E 133 9a 26 7f
        E 594 9c 4c 00
        E 40 9a 26 00
        E 114 9a 24 7f
        E 11 9c 4e 7f
        E 185 9a 24 00
        E 764 9a 24 7f
        E 210 9a 26 7f
        E 188 9a 24 00
        E 330 9a 26 00
        E 186 9c 4e 00
        E 45 9a 24 7f
        E 155 9a 24 00
        E 66 9c 4e 7f
        E 230 9a 24 7f
        E 22 9a 29 7f
        E 16 9c 4e 00
        E 41 9a 29 00
        E 155 9a 24 00
        E 11 9c 4c 7f
        E 261 9a 26 7f
        E 13 9a 29 7f
        E 67 9a 26 00
        E 136 9a 26 13
        E 152 9a 26 00
        E 28 9a 29 00
        E 72 9a 23 7f
        E 6 9a 23 00
        E 0 9a 23 4b
        E 4 9a 24 37
        E 72 9a 23 00
        E 80 9a 24 00
        E 63 9a 26 7f
        E 10 9a 29 7f
        E 423 9a 26 00
        E 163 9a 29 00
        E 127 9c 4c 00
        E 10 9a 24 7f
        E 14 9c 53 7f
        E 220 9a 35 7f
        E 188 9a 35 00
        E 70 9a 35 7f
        E 202 9a 35 00
        E 12 9a 24 00
        E 260 9a 26 7f
        E 220 9a 24 7f
        E 94 9a 26 00
        E 66 9c 53 00
        E 234 9a 24 00
        E 328 9a 24 7f
        E 14 9c 51 7f
        E 6 9a 41 56
        E 334 9a 24 00
        E 323 9a 41 00
        E 41 9a 24 77
        E 74 9a 24 00
        E 184 9a 26 7f
        E 100 9c 51 00
        E 386 9a 24 7f
        E 8 9c 53 7f
        E 34 9a 26 00
        E 444 9a 24 00
        E 472 9a 24 7f
        E 442 9a 24 00
        E 35 9a 26 7f
        E 701 9a 29 7f
        E 32 9a 29 00
        E 32 9c 53 00
        E 108 9a 26 00
        E 68 9a 24 7f
        E 16 9c 51 7f
        E 14 9a 29 7f
        E 124 9a 29 00
        E 118 9a 24 00
        E 230 9a 26 7f
        E 12 9a 29 13
        E 108 9a 26 00
        E 282 9a 29 00
        E 75 9a 23 7f
        E 3 9a 23 00
        E 0 9a 23 7f
        E 76 9a 23 00
        E 56 9c 51 00
        E 88 9a 29 7f
        E 629 9a 29 00
        E 85 9a 24 7f
        E 11 9c 4e 7f
        E 467 9a 24 00
        E 502 9a 26 7f
        E 222 9a 24 7f
        E 95 9a 26 00
        E 61 9c 4e 00
        E 4 9a 24 00
        E 562 9a 24 7f
        E 16 9c 4c 7f
        E 296 9a 24 00
        E 192 9a 24 37
        E 76 9a 24 00
        E 138 9a 26 7f
        E 592 9c 4c 00
        E 40 9a 26 00
        E 114 9a 24 7f
        E 8 9c 4e 7f
        E 186 9a 24 00
        E 764 9a 24 7f
        E 210 9a 26 7f
        E 188 9a 24 00
        E 334 9a 26 00
        E 190 9c 4e 00
        E 42 9a 24 7f
        E 158 9a 24 00
        E 59 9c 4e 7f
        E 235 9a 24 7f
        E 24 9a 29 7f
        E 14 9c 4e 00
        E 40 9a 29 00
        E 158 9a 24 00
        E 8 9c 4c 7f
        E 264 9a 26 7f
        E 10 9a 29 7f
        E 64 9a 26 00
        E 134 9a 26 13
        E 160 9a 26 00
        E 28 9a 29 00
        E 72 9a 23 7f
        E 4 9a 23 00
        E 0 9a 23 4b
        E 4 9a 24 37
        E 72 9a 23 00
        E 80 9a 24 00
        E 62 9a 26 7f
        E 10 9a 29 7f
        E 424 9a 26 00
        E 164 9a 29 00
        E 118 9c 4c 00
        E 10 9a 24 7f
        E 16 9c 53 7f
        E 228 9a 35 7f
        E 182 9a 35 00
        E 74 9a 35 7f
        E 200 9a 35 00
        E 4 9a 24 00
        E 264 9a 26 7f
        E 226 9a 24 7f
        E 96 9a 26 00
        E 60 9c 53 00
        E 238 9a 24 00
        E 322 9a 24 7f
        E 16 9c 51 7f
        E 6 9a 41 56
        E 338 9a 24 00
        E 315 9a 41 00
        E 49 9a 24 77
        E 72 9a 24 00
        E 180 9a 26 7f
        E 106 9c 51 00
        E 388 9a 24 7f
        E 10 9c 53 7f
        E 28 9a 26 00
        E 440 9a 24 00
        E 482 9a 24 7f
        E 434 9a 24 00
        E 35 9a 26 7f
        E 705 9a 29 7f
        E 32 9a 29 00
        E 30 9c 53 00
        E 110 9a 26 00
        E 62 9a 24 7f
        E 18 9c 51 7f
        E 14 9a 29 7f
        E 128 9a 29 00
        E 116 9a 24 00
        E 234 9a 26 7f
        E 12 9a 29 13
        E 102 9a 26 00
        E 286 9a 29 00
        E 68 9a 23 7f
        E 3 9a 23 00
        E 0 9a 23 7f
        E 75 9a 23 00
        E 62 9c 51 00
        E 88 9a 29 7f
        E 630 9a 29 00
        E 88 9a 24 7f
        E 10 9c 4e 7f
        E 462 9a 24 00
        E 500 9a 26 7f
        E 222 9a 24 7f
        E 98 9a 26 00
        E 64 9c 4e 00
        E 2 9a 24 00
        E 562 9a 24 7f
        E 16 9c 4c 7f
        E 298 9a 24 00
        E 190 9a 24 37
        E 80 9a 24 00
        E 135 9a 26 7f
        E 597 9c 4c 00
        E 34 9a 26 00
        E 112 9a 24 7f
        E 10 9c 4e 7f
        E 188 9a 24 00
        E 760 9a 24 7f
        E 214 9a 26 7f
        E 186 9a 24 00
        E 330 9a 26 00
        E 192 9c 4e 00
        E 41 9a 24 7f
        E 155 9a 24 00
        E 66 9c 4e 7f
        E 232 9a 24 7f
        E 24 9a 29 7f
        E 16 9c 4e 00
        E 38 9a 29 00
        E 154 9a 24 00
        E 10 9c 4c 7f
        E 266 9a 26 7f
        E 12 9a 29 7f
        E 64 9a 26 00
        E 134 9a 26 13
        E 160 9a 26 00
        E 30 9a 29 00
        E 68 9a 23 7f
        E 6 9a 23 00
        E 0 9a 23 4b
        E 4 9a 24 37
        E 70 9a 23 00
        E 78 9a 24 00
        E 69 9a 26 7f
        E 9 9a 29 7f
        E 426 9a 26 00
        E 154 9a 29 00
        E 126 9c 4c 00
        E 8 9a 24 7f
        E 16 9c 53 7f
        E 224 9a 35 7f
        E 186 9a 35 00
        E 74 9a 35 7f
        E 196 9a 35 00
        E 10 9a 24 00
        E 260 9a 26 7f
        E 224 9a 24 7f
        E 100 9a 26 00
        E 58 9c 53 00
        E 238 9a 24 00
        E 324 9a 24 7f
        E 16 9c 51 7f
        E 5 9a 41 56
        E 339 9a 24 00
        E 316 9a 41 00
        E 42 9a 24 77
        E 82 9a 24 00
        E 178 9a 26 7f
        E 102 9c 51 00
        E 390 9a 24 7f
        E 9 9c 53 7f
        E 29 9a 26 00
        E 440 9a 24 00
        E 482 9a 24 7f
        E 440 9a 24 00
        E 28 9a 26 7f
        E 706 9a 29 7f
        E 34 9a 29 00
        E 30 9c 53 00
        E 108 9a 26 00
        E 62 9a 24 7f
        E 14 9c 51 7f
        E 14 9a 29 7f
        E 132 9a 29 00
        E 120 9a 24 00
        E 230 9a 26 7f
        E 12 9a 29 13
        E 104 9a 26 00
        E 277 9a 29 00
        E 75 9a 23 7f
        E 4 9a 23 00
        E 0 9a 23 7f
        E 74 9a 23 00
        E 64 9c 51 00
        E 86 9a 29 7f
        E 632 9a 29 00
        E 79 9a 24 7f
        E 10 9c 4e 7f
        E 469 9a 24 00
        E 500 9a 26 7f
        E 221 9a 24 7f
        E 103 9a 26 00
        E 56 9c 4e 00
        E 4 9a 24 00
        E 562 9a 24 7f
        E 14 9c 4c 7f
        E 298 9a 24 00
        E 190 9a 24 37
        E 80 9a 24 00
        E 138 9a 26 7f
        E 596 9c 4c 00
        E 42 9a 26 00
        E 104 9a 24 7f
        E 10 9c 4e 7f
        E 194 9a 24 00
        E 756 9a 24 7f
        E 218 9a 26 7f
        E 185 9a 24 00
        E 325 9a 26 00
        E 192 9c 4e 00
        E 44 9a 24 7f
        E 157 9a 24 00
        E 59 9c 4e 7f
        E 234 9a 24 7f
        E 24 9a 29 7f
        E 16 9c 4e 00
        E 40 9a 29 00
        E 158 9a 24 00
        E 8 9c 4c 7f
        E 264 9a 26 7f
        E 10 9a 29 7f
        E 64 9a 26 00
        E 140 9a 26 13
        E 152 9a 26 00
        E 28 9a 29 00
        E 74 9a 23 7f
        E 4 9a 23 00
        E 0 9a 23 4b
        E 4 9a 24 37
        E 69 9a 23 00
        E 83 9a 24 00
        E 62 9a 26 7f
        E 9 9a 29 7f
        E 425 9a 26 00
        E 166 9a 29 00
        E 116 9c 4c 00
        E 8 9a 24 7f
        E 709 9a 24 00
        E 265 9a 26 7f
        E 218 9a 24 7f
        E 98 9a 26 00
        E 304 9a 24 00
        E 321 9a 24 7f
        E 356 9a 24 00
        E 365 9a 24 77
        E 74 9a 24 00
        E 182 9a 26 7f
        E 492 9a 24 7f
        E 26 9a 26 00
        E 448 9a 24 00
        E 488 9a 24 7f
        E 434 9a 24 00
        E 34 9a 26 7f
        E 878 9a 26 00
        E 62 9a 24 7f
        E 278 9a 24 00
        E 232 9a 26 7f
        E 118 9a 26 00
        E 350 9a 23 7f
        E 4 9a 23 00
        E 0 9a 23 7f
        E 74 9a 23 00
        E 866 9a 24 7f
        E 474 9a 24 00
        E 502 9a 26 7f
        E 224 9a 24 7f
        E 92 9a 26 00
        E 60 9a 24 00
        E 568 9a 24 7f
        E 312 9a 24 00
        E 194 9a 24 37
        E 76 9a 24 00
        E 134 9a 26 7f
        E 636 9a 26 00
        E 112 9a 24 7f
        E 196 9a 24 00
        E 764 9a 24 7f
        E 210 9a 26 7f
        E 184 9a 24 00
        E 330 9a 26 00
        E 234 9a 24 7f
        E 156 9a 24 00
        E 300 9a 24 7f
        E 232 9a 24 00
        E 276 9a 26 7f
        E 76 9a 26 00
        E 132 9a 26 13
        E 158 9a 26 00
        E 102 9a 23 7f
        E 4 9a 23 00
        E 0 9a 23 4b
        E 4 9a 24 37
        E 65 9a 23 00
        E 85 9a 24 00
        E 68 9a 26 7f
        E 434 9a 26 00
        E 284 9a 24 7f
        E 714 9a 24 00
        E 261 9a 26 7f
        E 219 9a 24 7f
        E 95 9a 26 00
        E 301 9a 24 00
        E 326 9a 24 7f
        E 354 9a 24 00
        E 362 9a 24 77
        E 82 9a 24 00
        E 178 9a 26 7f
        E 492 9a 24 7f
        E 32 9a 26 00
        E 450 9a 24 00
        E 478 9a 24 7f
        E 434 9a 24 00
        E 36 9a 26 7f
        E 877 9a 26 00
        E 61 9a 24 7f
        E 276 9a 24 00
        E 233 9a 26 7f
        E 115 9a 26 00
        E 354 9a 23 7f
        E 4 9a 23 00
        E 0 9a 23 7f
        E 76 9a 23 00
        E 864 9a 24 7f
        E 474 9a 24 00
        E 502 9a 26 7f
        E 222 9a 24 7f
        E 96 9a 26 00
        E 63 9a 24 00
        E 561 9a 24 7f
        E 318 9a 24 00
        E 190 9a 24 37
        E 76 9a 24 00
        E 137 9a 26 7f
        E 638 9a 26 00
        E 109 9a 24 7f
        E 199 9a 24 00
        E 761 9a 24 7f
        E 212 9a 26 7f
        E 184 9a 24 00
        E 329 9a 26 00
        E 235 9a 24 7f
        E 154 9a 24 00
        E 296 9a 24 7f
        E 235 9a 24 00
        E 273 9a 26 7f
        E 77 9a 26 00
        E 133 9a 26 13
        E 155 9a 26 00
        E 103 9a 23 7f
        E 3 9a 23 00
        E 0 9a 23 4b
        E 4 9a 24 37
        E 73 9a 23 00
        E 80 9a 24 00
        E 68 9a 26 7f
        E 433 9a 26 00
        E 291 9a 24 7f
        E 708 9a 24 00
        E 259 9a 26 7f
        E 222 9a 24 7f
        E 99 9a 26 00
        E 297 9a 24 00
        E 326 9a 24 7f
        E 358 9a 24 00
        E 363 9a 24 77
        E 74 9a 24 00
        E 184 9a 26 7f
        E 492 9a 24 7f
        E 24 9a 26 00
        E 448 9a 24 00
        E 482 9a 24 7f
        E 439 9a 24 00
        E 30 9a 26 7f
        E 884 9a 26 00
        E 61 9a 24 7f
        E 277 9a 24 00
        E 232 9a 26 7f
        E 114 9a 26 00
        E 355 9a 23 7f
        E 3 9a 23 00
        E 0 9a 23 7f
        E 76 9a 23 00
        E 865 9a 24 7f
        E 473 9a 24 00
        E 503 9a 26 7f
        E 219 9a 24 7f
        E 95 9a 26 00
        E 63 9a 24 00
        E 562 9a 24 7f
        E 313 9a 24 00
        E 198 9a 24 37
        E 76 9a 24 00
        E 131 9a 26 7f
        E 641 9a 26 00
        E 110 9a 24 7f
        E 195 9a 24 00
        E 764 9a 24 7f
        E 211 9a 26 7f
        E 184 9a 24 00
        E 333 9a 26 00
        E 232 9a 24 7f
        E 157 9a 24 00
        E 292 9a 24 7f
        E 239 9a 24 00
        E 266 9a 26 7f
        E 85 9a 26 00
        E 131 9a 26 13
        E 157 9a 26 00
        E 103 9a 23 7f
        E 6 9a 23 00
        E 0 9a 23 4b
        E 4 9a 24 37
        E 65 9a 23 00
        E 82 9a 24 00
        E 63 9a 26 7f
        E 441 9a 26 00
        E 283 9a 24 7f
        E 714 9a 24 00
        E 262 9a 26 7f
        E 218 9a 24 7f
        E 101 9a 26 00
        E 295 9a 24 00
        E 330 9a 24 7f
        E 354 9a 24 00
        E 359 9a 24 77
        E 80 9a 24 00
        E 179 9a 26 7f
        E 490 9a 24 7f
        E 32 9a 26 00
        E 446 9a 24 00
        E 482 9a 24 7f
        E 441 9a 24 00
        E 27 9a 26 7f
        E 881 9a 26 00
        E 66 9a 24 7f
        E 271 9a 24 00
        E 233 9a 26 7f
        E 116 9a 26 00
        E 351 9a 23 7f
        E 4 9a 23 00
        E 0 9a 23 7f
        E 79 9a 23 00
        E 862 9a 24 7f
        E 474 9a 24 00
        E 502 9a 26 7f
        E 224 9a 24 7f
        E 97 9a 26 00
        E 58 9a 24 00
        E 567 9a 24 7f
        E 312 9a 24 00
        E 192 9a 24 37
        E 77 9a 24 00
        E 139 9a 26 7f
        E 632 9a 26 00
        E 115 9a 24 7f
        E 193 9a 24 00
        E 767 9a 24 7f
        E 212 9a 26 7f
        E 184 9a 24 00
        E 328 9a 26 00
        E 230 9a 24 7f
        E 163 9a 24 00
        E 293 9a 24 7f
        E 233 9a 24 00
        E 274 9a 26 7f
        E 75 9a 26 00
        E 140 9a 26 13
        E 150 9a 26 00
        E 103 9a 23 7f
        E 3 9a 23 00
        E 0 9a 23 4b
        E 4 9a 24 37
        E 73 9a 23 00
        E 77 9a 24 00
        E 68 9a 26 7f
        E 435 9a 26 00
        E 285 9a 24 7f
        E 712 9a 24 00
        E 262 9a 26 7f
        E 221 9a 24 7f
        E 99 9a 26 00
        E 302 9a 24 00
        E 324 9a 24 7f
        E 356 9a 24 00
        E 361 9a 24 77
        E 73 9a 24 00
        E 186 9a 26 7f
        E 486 9a 24 7f
        E 34 9a 26 00
        E 446 9a 24 00
        E 482 9a 24 7f
        E 440 9a 24 00
        E 28 9a 26 7f
        E 878 9a 26 00
        E 68 9a 24 7f
        E 276 9a 24 00
        E 229 9a 26 7f
        E 119 9a 26 00
        E 354 9a 23 7f
        E 4 9a 23 00
        E 0 9a 23 7f
        E 68 9a 23 00
        E 866 9a 24 7f
        E 480 9a 24 00
        E 502 9a 26 7f
        E 220 9a 24 7f
        E 92 9a 26 00
        E 64 9a 24 00
        E 562 9a 24 7f
        E 316 9a 24 00
        E 190 9a 24 37
        E 76 9a 24 00
        E 138 9a 26 7f
        E 636 9a 26 00
        E 112 9a 24 7f
        E 198 9a 24 00
        E 760 9a 24 7f
        E 212 9a 26 7f
        E 184 9a 24 00
        E 330 9a 26 00
        E 234 9a 24 7f
        E 160 9a 24 00
        E 296 9a 24 7f
        E 236 9a 24 00
        E 270 9a 26 7f
        E 74 9a 26 00
        E 138 9a 26 13
        E 154 9a 26 00
        E 102 9a 23 7f
        E 6 9a 23 00
        E 0 9a 23 4b
        E 4 9a 24 37
        E 66 9a 23 00
        E 84 9a 24 00
        E 62 9a 26 7f
        E 434 9a 26 00
        E 290 9a 24 7f
        E 714 9a 24 00
        E 256 9a 26 7f
        E 224 9a 24 7f
        E 96 9a 26 00
        E 300 9a 24 00
        E 324 9a 24 7f
        E 14 9c 51 7f
        E 6 9a 41 56
        E 338 9a 24 00
        E 318 9a 41 00
        E 46 9a 24 77
        E 74 9a 24 00
        E 180 9a 26 7f
        E 102 9c 51 00
        E 390 9a 24 7f
        E 10 9c 53 7f
        E 26 9a 26 00
        E 444 9a 24 00
        E 482 9a 24 7f
        E 438 9a 24 00
        E 28 9a 26 7f
        E 708 9a 29 7f
        E 32 9a 29 00
        E 32 9c 53 00
        E 108 9a 26 00
        E 68 9a 24 7f
        E 16 9c 51 7f
        E 14 9a 29 7f
        E 124 9a 29 00
        E 118 9a 24 00
        E 232 9a 26 7f
        E 12 9a 29 13
        E 104 9a 26 00
        E 284 9a 29 00
        E 66 9a 23 7f
        E 6 9a 23 00
        E 0 9a 23 7f
        E 74 9a 23 00
        E 62 9c 51 00
        E 86 9a 29 7f
        E 633 9a 29 00
        E 87 9a 24 7f
        E 8 9c 4e 7f
        E 468 9a 24 00
        E 500 9a 26 7f
        E 222 9a 24 7f
        E 94 9a 26 00
        E 58 9c 4e 00
        E 2 9a 24 00
        E 564 9a 24 7f
        E 16 9c 4c 7f
        E 302 9a 24 00
        E 192 9a 24 37
        E 77 9a 24 00
        E 133 9a 26 7f
        E 598 9c 4c 00
        E 39 9a 26 00
        E 111 9a 24 7f
        E 10 9c 4e 7f
        E 188 9a 24 00
        E 762 9a 24 7f
        E 210 9a 26 7f
        E 186 9a 24 00
        E 332 9a 26 00
        E 186 9c 4e 00
        E 42 9a 24 7f
        E 158 9a 24 00
        E 66 9c 4e 7f
        E 230 9a 24 7f
        E 22 9a 29 7f
        E 16 9c 4e 00
        E 38 9a 29 00
        E 160 9a 24 00
        E 8 9c 4c 7f
        E 264 9a 26 7f
        E 12 9a 29 7f
        E 68 9a 26 00
        E 134 9a 26 13
        E 154 9a 26 00
        E 30 9a 29 00
        E 70 9a 23 7f
        E 4 9a 23 00
        E 0 9a 23 4b
        E 4 9a 24 37
        E 70 9a 23 00
        E 82 9a 24 00
        E 69 9a 26 7f
        E 9 9a 29 7f
        E 424 9a 26 00
        E 160 9a 29 00
        E 119 9c 4c 00
        E 9 9a 24 7f
        E 14 9c 53 7f
        E 228 9a 35 7f
        E 192 9a 35 00
        E 64 9a 35 7f
        E 202 9a 35 00
        E 12 9a 24 00
        E 260 9a 26 7f
        E 220 9a 24 7f
        E 94 9a 26 00
        E 66 9c 53 00
        E 240 9a 24 00
        E 324 9a 24 7f
        E 15 9c 51 7f
        E 7 9a 41 56
        E 330 9a 24 00
        E 322 9a 41 00
        E 42 9a 24 77
        E 74 9a 24 00
        E 182 9a 26 7f
        E 102 9c 51 00
        E 388 9a 24 7f
        E 10 9c 53 7f
        E 28 9a 26 00
        E 450 9a 24 00
        E 474 9a 24 7f
        E 436 9a 24 00
        E 36 9a 26 7f
        E 702 9a 29 7f
        E 32 9a 29 00
        E 30 9c 53 00
        E 110 9a 26 00
        E 66 9a 24 7f
        E 16 9c 51 7f
        E 14 9a 29 7f
        E 126 9a 29 00
        E 118 9a 24 00
        E 236 9a 26 7f
        E 14 9a 29 13
        E 98 9a 26 00
        E 282 9a 29 00
        E 73 9a 23 7f
        E 4 9a 23 00
        E 0 9a 23 7f
        E 73 9a 23 00
        E 60 9c 51 00
        E 87 9a 29 7f
        E 631 9a 29 00
        E 86 9a 24 7f
        E 10 9c 4e 7f
        E 468 9a 24 00
        E 502 9a 26 7f
        E 222 9a 24 7f
        E 92 9a 26 00
        E 64 9c 4e 00
        E 2 9a 24 00
        E 564 9a 24 7f
        E 14 9c 4c 7f
        E 298 9a 24 00
        E 192 9a 24 37
        E 76 9a 24 00
        E 135 9a 26 7f
        E 595 9c 4c 00
        E 40 9a 26 00
        E 112 9a 24 7f
        E 10 9c 4e 7f
        E 190 9a 24 00
        E 758 9a 24 7f
        E 214 9a 26 7f
        E 184 9a 24 00
        E 334 9a 26 00
        E 190 9c 4e 00
        E 44 9a 24 7f
        E 156 9a 24 00
        E 62 9c 4e 7f
        E 234 9a 24 7f
        E 22 9a 29 7f
        E 16 9c 4e 00
        E 38 9a 29 00
        E 156 9a 24 00
        E 8 9c 4c 7f
        E 266 9a 26 7f
        E 12 9a 29 7f
        E 61 9a 26 00
        E 137 9a 26 13
        E 160 9a 26 00
        E 22 9a 29 00
        E 76 9a 23 7f
        E 6 9a 23 00
        E 0 9a 23 4b
        E 4 9a 24 37
        E 72 9a 23 00
        E 78 9a 24 00
        E 64 9a 26 7f
        E 12 9a 29 7f
        E 422 9a 26 00
        E 155 9a 29 00
        E 127 9c 4c 00
        E 10 9a 24 7f
        E 16 9c 53 7f
        E 226 9a 35 7f
        E 186 9a 35 00
        E 72 9a 35 7f
        E 58 8a 24 00
        E 0 8a 35 00
        E 0 8c 53 00
        E 0 b0 7b 00
        GUID {017317C0-E86E-4310-BD9E-56E2D73FBBA7}
        IGNTEMPO 0 120 4 4
        SRCCOLOR 235
        VELLANE -1 100 0
        CFGEDITVIEW -10494.578798 0.003832 75 12 0 0 0 0 100
        KEYSNAP 0 0 102034050607 0 Major
        TRACKSEL 0 0 0 ""
        EVTFILTER 0 -1 -1 -1 -1 0 0 0 0 -1 -1 -1 -1 0 -1 0 -1 -1
        CFGEDIT 1 1 0 1 0 0 1 1 1 1 1 0.125 981 123 2564 969 0 0 0 0 0 0 0 0 0 0.5 0 0 1 64
      >
    >
  >
  <TRACK {D42B0EE2-7656-4C0D-8441-EB67F4308635}
    NAME "Vox Effect"
    PEAKCOL 16576
    BEAT -1
    AUTOMODE 0
    VOLPAN 0.07480397668843 0 -1 -1 1
    MUTESOLO 0 0 0
    IPHASE 0
    ISBUS 0 0
    BUSCOMP 0 0
    SHOWINMIX 1 0.6667 0.5 1 0.5 -1 -1 -1
    FREEMODE 0
    SEL 1
    REC 0 0 0 0 0 0 0
    VU 2
    TRACKHEIGHT 0 0
    INQ 0 0 0 0.5 100 0 0 100
    NCHAN 2
    FX 1
    TRACKID {D42B0EE2-7656-4C0D-8441-EB67F4308635}
    PERF 0
    MIDIOUT -1
    MAINSEND 1 0
    <FXCHAIN
      WNDRECT 1092 62 1139 944
      SHOW 0
      LASTSEL 0
      DOCKED 0
      BYPASS 0 0 0
      <VST "VST: Guitar Rig 5 (Native Instruments GmbH)" "Guitar Rig 5.dll" 0 ""
        NUdpTu5e7f4EAAAAAQAAAAAAAAACAAAAAAAAAAQAAAAAAAAACAAAAAAAAAACAAAAAQAAAAAAAAACAAAAAAAAAAcXAAABAAAAkQAQAC1pbi0CAAAAI05JI0NTI0RvY3Vt
        ZW50IyNOSSNTb3VuZFNoZWxsI1NvdW5kIwAAAAAAAAAAAAAARQEAAGF0YWQCAAAAZG5zc2JpbHoWAAAAEAAAAHjaY2JgYND19NM1dc/0AzIZABGlAidhdGFkAgAAAG9m
        bmliaWx6KAEAAA8DAAB42p1SW0vDMBR+tr/ikPeZChNEsgxBt5cho1MQxIesPa1h68lI0unPt7d1tWBR3/J957vkJuaf+R6OaJ02NGNXlyEDpNgkmrIZe35aTG4YOK8o
        UXtDOGNkGMxlIJwpqBSl5myehiGTQQAgDtYc0HqNTpawJEjlKF9XmBuCFardm+A11UxV4d+NlfdI2sHS4C5RGXDYbBYvgrfDKpb3cytiq2h3qqjWclloryxEOoOp4DVV
        G1thtY5NfihPQv5k7IiB+8yP6WBtzUDbg22n8t7qbeG7++iIBpfMUe0LlHekc+UxEbzBp2nh0E4cehmtbzl/SFOMvbs4q7t5E88H+T/2NUnf2v5qdr/a6/+3+IgfoAmW
        0fV4UV832tWD1fMI3n1lGXwBxYryzGF0YWQCAAAAdHNycGJpbHoXFQAA8/EAAHja7V1ZV+LKtz/39XyKLF//iyaVOWfZ578QxVZEQXBo13kpkgIiGTCDaH/h+3y/wa1A
        hsqADKJUe+iXlkqy61e7du2pJuaidf8/f/zxx//+3x9/HP73xTKZZ+R6hmN/PwDf2AMG2ZqjG/bw+8FNr1FRDhjPh7YOTcdG3w9s54D5799/Hg7dimF7vhtYyPYr2iiw
        x0w/MEy9YgdWH7nfDzhJAAeM5lgT/CF+ZwK1ccXQcSWqzAqqpCjcATNwoYWmjjt/giu34KPjVhJAIi4xNNdJS8J3DJt8B9cycZGHFlThGxbG3QsQc4w0hmcZFvzFcX+x
        CsOxQDj4+88/GebQcwJbr+jQh33oIWZoOn1oVizku47tWLNaRwaupGI5OopA6AZuN7RtZOIKpYPqnBJmjIthEDzFVTD43+HAeKkk7PAYzKeK4SPLw68I0Tv5t5iwMYrK
        srhCG4btuG4mr+KXwxdN5KO0KCpc/DUTBGHx9Ef79vXhAQk3p+eyeqV0WF0A0+/fD0hSJLHKMDCyz/DTZwNNiS7GrZmY0EeVPrTH3w8Oyh7NgYRC5bhIr4QUIqYKB0z+
        l2f0Tfz3AJoeChmcqbz6BjYCNwx0w0m7gzsotGICQyn08RtY9iGuEX/jOxb0Y4ELuyp9aSZxeEz4hpZ5ERQok7RnnWHU4p44s8NRpaGa5hvPCLcVmsFMsIo0MJVQKAkE
        jIssB/PSgi8zMPFPYwa3WgKjmnxcaH36yFvM4BkTM1KWPiTksVoUyMNkbLp+guywmhHzN4RfIqXXGDJNx8Zj0lxzECyiEg2Gs1v9WTofgC7LDdFrFdab2rk43A+GlQYD
        u2AwVGmUJr5cEBhuXYFaTCiSqavrJzBEval20n1xf920f1Sl3n/2MrVXsJQNCWWRJPPrOhqLCUVD4sk5nV5Xj5WHmwDa7tPrSJpUe7X9kNgPCbqGBEcIcm3Wk2f2moOh
        lEQ0DJ6B1HxVuU6XhT3510tnPGi24W4tA8gMA7D3NrYiR4DQhzgkXFOE8l9H0lM7FpoXtt9RWSQ228r4GE3Z871fUSI9oCg98qZKlNChk8BnTqFhp/rzm/jpGrQA8DQG
        eIr7irmyq1eDQYIQ7B5fL4OvN8IDa+SYOsFECkC2bmOULeiFhbeOGViEpfymSCIvKbtHehEDvTAsIyzM9ThLAcR6ghENfKY+T5XRJJPXdcJdHRUh7h2jfPhM5hJ7cIKO
        kTZmwLqx8wIqkYG7Gz0B6fyyeXHD6S3OaP2s6nL3Cxk4H7dYxy0GMCigjp+FIlaQnHVM4ybGUS01jgsGQXYkmclQd5zJkvGzhRG0ZJgX4PkoETfc2U6qg1h6ILoJRBfa
        3sTxEIV8DBKQgU0hvslzjK9ouAVJArTgdBOc10hzXD3vZ1AD1GgTuQPk+kzb8YxQL9DX96ZH6iCm62MTRyFKlEF5Yus77/TFPscSryN8vMCYfVqELQDCl+gaGMoIh2bM
        LEpbN95+k1bknNw3QL061NAT+zq5g4ps3XLTVmenzgmbcU5YiqNvwK7sYeSGzS27ULFTEHufgBjdyQsus6EZCw09sc4Fl0aMOLS1aYoUW3wSdgc+oiqGFcgYlqrYVczE
        rjRBa0gxtIZh4kLA1PFopys50ZCzGLk8Rhr4qGQxUjUw1NSPwcH70d2/JGmSIeDFPkLFCNV9ZcF777Nm7+LcQq6934J9Cq41rNan4FnZUn0Od1a1Tp+CZnWL9ClwNrBC
        n4NrfcvzObhWtzafI9xrWJiPAHRYXUm946+LxasHsAKZCg9szPb1gtbi91Gg2mjL/eFLQ3wcPz3DqT5wHi8azd0GqlwmUOUoDlSlTePUhpMMIscd0+Sw9ZJMXg+zjWkb
        vjZK8Enq7gF6vqvZfpJ+8V2nj6r1cKU8TWzUJ+um6T8VnjtIE8sD5CJbS+EJAgUAvVaaYDNDJdbCyuD3ix3CqbpQ2zJx0q26k+wnucqsFe1VQeumPcuJRGZkVKsp4+Nr
        rc0awYXvyK7z0u11vs5atXiHDwwYzQx3Dw2MkFL9r3/arjPEksFgbwh5/9Qdy3Ls6MclDNdPMmfJ/ifvn9PA8KHLhMteRfyyjWMV/5+Em/+YzhSTf0bfpvAZN9c0cE19
        w7egN541YV7yMXWPDKJqKzB9Y2LOGTfnsVDFYYQXjkYNpaAq4Xy8rYcbufDjYDKZ//XZc9Li5nPS7WkypbrScqgdzAZ17UQbvtoaffh61mTBxDkn0oKxFZSG5NTw8NZc
        c+qC8hm/VGNuN5kW0yXDrEgvzjUzVk2VRGFm9BihvKI3BE4VVEnmVHEFLfYeof+YyLOMF1sLOSVyM1zNmtRsaL56a0eeC8nEe+rO3YerTlU/uzGgik7754+gx+43e3y9
        Ve6iSAhCe0YqXs+ynkS9QSjeOaF4R5YaNC/YrlBzDDQc3Yw7+9n3bbtSeUfqlubJ9+ME3bH7utpCqk/Fd5fguyPkmR58rfvEfzJeaALWvid0ARNugWEwQsMe/hunGmck
        K84ak4xrjdpPyeivOVI/Z0JvRen/FDCbSPynAFtTh32MU7xkCLzTK5bZsk0J6x4LsIhK5L94d7fKaMS1TPapPrDgyS/1SGA7X29rA0fb1gZp8zTS77KmnPItGEaXTHUx
        PYeZb7HbLyT/MgvJf5ttDltZ8c7tZsW7Sm6ei3apNu7XNFMLiMQ7zF86jw8sVz++6Z5JZ1fN9v3gntsfDbbiGvdNd5ivO11B56xo+lRzbB8a4RypNp+Sqsz6zDAN/zXJ
        eaXH4ZV5gri3A3PGQb3PGDamlR76J8QEcLEWvuIlRDHTXTxuXGc6LyP6N1/DyPF8oqNwNYX+VD98bjdXGHH80HbsStmD4mgmnc56zPbkoL/HE+214zod77UqyMbP4Wvb
        4rLbaReP5I8cxeTMre8GmUG8cACvOng3GLjySj7iO0bt5wS0dUCKQnj+Etj5qtk6l8fE7Z5PfB4TT7j2PCeIwq6QCXlkwu65JeYxibtPKLXqUh6VtHtOyXlMMsEpQZZY
        eVfIlDwyhUSmCOzO+lHNI1NpkC7AFlQpSwWuoooHVOAqqHnAUYGroOoBTwWugqIHAhW4CsoeUKHtQUHdA+nTcZXHRm/ERaHL2jdsiN3hyGedByma62jzZniha1wtdXLf
        jqJAMYoCOT84JRUebk7463G6emFUnyS0k8TdBNcahxXKr4kMWfm6Vw+ku2nX69mtR1hMZS9LE3xsiMG+EWKskCn4+Lz0og3x1bXTUiVRafarsPvXkAxluWgoubkO5kQb
        ObF88ELNPdVbD10L6bx3e8KrPP9run35OL0W3hCRs8uz3hcQE47/0stgfS+z4I6hczHsKPG6fiCoM7XtIvzGqbwgK1sBymWAHm0bKK9i92kLOL3UsCBEngQpAEmSZFr6
        PdlS08Ao+7OTWBOkHAs4WnD2Y5xH0PMoWGVcHObp1inUNxGNEFEyYxXaMmqP5SIn1rCp6RfOKaVm1tfKnpu7wvkuO0CpW+TCJDq3Efj9jKuVG+MCUHiJGqh+BmphtAsC
        JyrU9L2b9r0zcYKl2013gDHZJXTpGDQeCzlNVodBN9vVEs8q1MjliHSLXMexaLRAMNlSoWnIRC7MnrZID9CRlfEyyeWT1AimR+wnRy5yKLTkfs6S9wyLSs/IM1Nv3TXs
        IXOB7KE/+t13s205bSItT5tIZNok3DTlDJkuegrCHWzJpH376OlFrt3ynR/Nc//5Ujwbj8eXw332ZLPsifSlsyceIJTchJjtpwchl0HIUWgo+AxCnkKEQgahQCFCMYNQ
        pBChlEEoUYhQziCUKUSoZBAqFCJUMwhVChGmCwvmKpulEWPOrAAaMWYNC6DRsoCsaQE02haQNS6ARusCsuYF0GhfQNbAAAotTJJf6JqGTmEuyTbTZJePilGmJNE0N2Qn
        c1iXgcWEnZ6mD8FWEl/fAM8KvLiVZLyXJuM1XEkYkWYh05ORT6AeI8qhWnpiKFuOzhyjiT9iAI04uSJOcnke4OiZQrB0vgiWpzEvZulCEamwT4tl0mKAU5fmxaJ3MmcQ
        h0mqOCXGTUbB8KJ1XD15PTsWtK77yzKVD1lQJH79lBj42imxbhpfjQziZHQ8GllepQcmEWK5iDyQl/0mqBKr0gL0mktnKchpZyByIjU244hPF8DYerRYlTYrTBzZf52D
        SI9Na0mrHwm0i2Ej0z6rd6SQokjuzZBUanr5SCVBcpSCTFNlIUqeVpSARCnQipIjUYq0oszocYlWlAKJUqYVpUiiVKhASVNgIi6PS0QyLLloXMXxiNP/afP12t21IbWf
        Hnrw6AKNqvsp+g3jEW6/wYGmZXzPaOC46fo4kcLlUpBcSfyNB4ICqIE5Sa6BaY9w1QwWSg9R6epDhzjCGYcjgU412qT7a1hLMD3XGA5pPEJsWU74mywC4bdJDIv7rPCX
        yQoXg2nywut6eNvZzofTV3EQbd2FjnffG0NdqSn2sGdO+vsdsHsHce8g7h3EvYO4dxD3DuLeQdw7iP9eB/H52e/ajZt+Z2Q15Vul9vPnmV+r7R3EvYO4dxD3DuLeQdw7
        iHsHce8g7h3E333tq7zC2lfynMVbw/bhEDG3yO3HvmLj+dZ3LxuTzhgh5f7UV/7zci/U9qtfN/IVha+9+DWxHGfXHjKR5tPnhbW4shWG7DdAz5rXFl96r/RepX0/kIXl
        h4MKhEI7CYXQNTTmAuqvsUbr31z7z654cf10Zx65t3LzyWxq++mRzTSa+rVPuCCvDqPPV9fSU6lNxyW1Welh/7sKfNMddZPsuT2sQt3m1FxsDmSgUMNIK119Ho44Cg9d
        TLd5YjVD4SaIJGNw7fiQxsMWX8jzIO8ymQwgyJy89wEOAA+WhzXzd+ItfdDzmTp+ITlC/qo5avSd6/MTiKr3+vODcPqzvt/Rt5kHIH5pD+CMzZwjS57ArPAiNTCv0qQd
        HKNgQmO6ppaEXjXfz5xmTU0AK+4zSm+p3uVnDCr5WzvCQ+DnSrf3YLea/AnqcOjlP0H35/ReP2/U9vd2fJF7O5bPRqsF2ZilYObSof04Mn+wg6tr8ery4fr1YvDLPLOG
        lEkH+Mq2GNq1ZOYP2sQtExSZEAzsiAR5RCPI+wbUkzuy667jeQP43gOP2CxOsA2cx60k2AigybQc26EwpGxnY0pmNiv9r7LK5JPkVi7i8bqXFYsllxWLBwvvs03Jk2SK
        ZPO+cPmHDLScwPa/H1TCmWROwQrLCVwNEYcYxyWRpUh+LzmgmPGhO0R+Za4pZ70clRB3RsUlto5eyFfmdQ2S30uukspdzFzOos/gYphEyzExWvSVYaKZY+LCHQJvMzE+
        KSfLRTbHxS6bY+PCA3R+ezYu2om7FTaCfwsbFy5H3AYbw3NPfjM2VsBOtWKeg+FVOh+iFsk39D5RDpEJX7EDEDEyvKnSRG7hYMPD6NkcXDLJgL+NLjPwTMeft8cZDk0U
        h3iFKGVGZWbQSy8jZAjmYQeikuSoGOw/VNKE0PweNSaJJDNcHBHGJrD6s+YULv7cGpTZTWmLkHDLkIQeB8HZpTzvoqf4kMQ5y8HmLJfWaWd0ROWChoZnZG63ode2zsxn
        iObt5DZvZ6QYV2rnogaGUyzvkakPwsBRgIF/X0c37ufJiXk385t381utYzOtA4taF8WT25XkSzRloruM41YK+VZWN6EiboWKtBUq8laoKFuhom6FCmC3QwZshwy3HTL8
        dshsR4DBWxJ8WI18k9JbtpnUWQm/ZWdjOVsGyspKXyx9kysr5MsKhbJCsaSwjGQZxTKCZfSkkjK5pEwpKVMz7C5kSg6rNvYlB8YLcfF4+OSwOnQrLtTGf/8Z/nIRNH3s
        AEa09X6a24g98cO03jDZMssW4aKBMSw6nXyi7omvGNPRxrMWRJ5Bk2kjHZpETjbK2kETPcfWgFMEMJez2c9kMGeb/WYtTUMbHztTe0lFrMwTFYG0IrBqRd2p4Wuzpf9v
        VQRYQSUq4javiFtSEc+KREX85hXxSyoSJbKPhM0rEpZUpACZqEhcsSJQrEjMVAQKwkAyTiKrIbRYmnZNHZgo0e4iDytM/N/zmn4a5vSMbDLBMpmRqgSuGf7y4bCCS/B4
        nv9KwtK8B1RwfiogqyViFq3FNWkJ1xRSDORN2XaJXvw12cZRyLZeYIe7ld5imMiT4qyszbCoinUjAZJVXcMMZxtbTugwr8g1gUyBzMl4rbfc7Y0FTnmbf7JKqmx1bf61
        EEZgO2Hi4z087MHJyrwDXJF5vcn7mUcq05MX3FgbmnP7uswecTxH2iOwiYnN1bjEMHGiQupXANatMeODvlWTwKmCKsmcmqmPK6mP5HLOv4leWJhiK3o72QxI4ucsSK5V
        l32eOjCluSKwnELqmZRmYVanwC0I8FenwC8InlenICwInFenIC4ImjNqI5OiINVDZKiLAzSbSFiCQVoQcq+BgdsMQ2Q1SkP11XmoLAjTV6BQ1E9LQ/UVSXErhOvvDtVz
        Ee3as8lsyWwym5lNjiuaz7mXBGUCqXJimzZXe6bh+cgOJ/DDSnJl2anqwxTWfH1SQj+7avowYlU2Tzf3AlJNWCEdmRXN6Ro+RCTjJN5ttSSyyWVNUTdrytsW/Y2mkCsX
        cn2XvOLZcOKNHJ+cF0rKZr2e/FogWGE9OSqH1ZywRcUjx/OJpVFYCAuneaTbAA+jF2cLr1K3K/085QZQli4tr65PVoyJLp9wWwMrxy9dc7cBWU6UY7K1Y6F5YfsdlUVi
        s62Mj9GUPd+QLK8kaGsvnccHlqsf33TPpLOrZvt+cM9tyIQwtFuyEmKT/uKXXhm0CWclLtmL3Zb7w5eG+Dh+eoZTfeA8XjSanQ3Jqgla7+5WGY24lsk+1QcWPPmlHgns
        pmSVZCiMajXc+ddamzWCC9+RXeel29uUrCglhxcp3pGlBs0LtivUHAMNRzfjzoZkUx4sXIOwyRBjxaW75zciqy7dwroBWTYmOn080V47rtPxXquCbPwcvrYtbsNxK6lL
        T6vfRArkRAruRk9AOr9sXtxweoszWj+rutzdlGwCduEyik1UF5uAvW+AenWooSf2dXIHFdm65aYtQmQPqwXDNE9rFzLZ8wQ3rhOGdrY6/4nriGI8Jjz6yII2HIYIBtD0
        ZmuUw5cgNs/PqDIL5aE/YqLfUaDvuDr2PGNBE6RczB/RIF827CF2BE1zbvarf89y8Ibt+W5gzVYqjgJ7/Pef/w85lDGFYXRhZAIAAABETlNTYmlsehYAAAAQAAAAeNpj
        YmBg0PX00zV1z/QDMhkAEaUCJwAAEAAAAA==
      >
      FLOATPOS 1272 0 1035 897
      FXID {D55E515E-A9E7-466E-B612-B366ECED6F4E}
      WAK 0
    >
    <ITEM
      POSITION 52.8
      SNAPOFFS 0
      LENGTH 9.968435374149
      LOOP 1
      ALLTAKES 0
      FADEIN 1 6.032195 0 1 0 0
      FADEOUT 1 3.936241 0 1 0 0
      MUTE 0
      SEL 0
      IGUID {33236AC7-2912-47E5-B304-B4804A882FAD}
      IID 122
      NAME 02-Vox-141121_1056.wav
      VOLPAN 1 0 1 -1
      SOFFS 52.8
      PLAYRATE 1 1 0 -1 0 0.0025
      CHANMODE 0
      GUID {8AA9C2E3-2CEF-43E6-9857-DCD2B87EA549}
      <SOURCE WAVE
        FILE "02-Vox-141121_1056.wav"
      >
      TAKE SEL
      NAME "02-Vox-141121_1056 render 002.wav"
      TAKEVOLPAN 0 1 -1
      SOFFS 52.8
      PLAYRATE 1 1 0 -1 0 0.0025
      CHANMODE 0
      GUID {2F739199-D563-4CA8-A6D8-1FE3CE12200C}
      <SOURCE WAVE
        FILE "D:\Recording\02-Vox-141121_1056 render 002.wav"
      >
    >
    <ITEM
      POSITION 98.88
      SNAPOFFS 0
      LENGTH 80.64
      LOOP 1
      ALLTAKES 0
      FADEIN 1 0.01 0 1 0 0
      FADEOUT 1 0.01 0 1 0 0
      MUTE 0
      SEL 0
      IGUID {3B409951-3BF9-4C16-881A-7E9B965DF6A3}
      IID 122
      NAME 02-Vox-141121_1056.wav
      VOLPAN 1 0 1 -1
      SOFFS 98.88
      PLAYRATE 1 1 0 -1 0 0.0025
      CHANMODE 0
      GUID {2F75E732-0911-41BF-8CE9-45630AAB8B5E}
      <SOURCE WAVE
        FILE "02-Vox-141121_1056.wav"
      >
      TAKE SEL
      NAME "02-Vox-141121_1056 render 002.wav"
      TAKEVOLPAN 0 1 -1
      SOFFS 98.88
      PLAYRATE 1 1 0 -1 0 0.0025
      CHANMODE 0
      GUID {506517DA-84CA-42AD-9BEB-0157BB6ED886}
      <SOURCE WAVE
        FILE "D:\Recording\02-Vox-141121_1056 render 002.wav"
      >
    >
  >
  <TRACK {580CDCAA-256F-4B08-A244-49803A8A2D50}
    NAME Vox
    PEAKCOL 16576
    BEAT -1
    AUTOMODE 0
    VOLPAN 1.17557512663634 0 -1 -1 1
    MUTESOLO 0 0 0
    IPHASE 0
    ISBUS 0 0
    BUSCOMP 0 0
    SHOWINMIX 1 0.6667 0.5 1 0.5 -1 -1 -1
    FREEMODE 0
    SEL 0
    REC 0 0 0 0 0 0 0
    VU 2
    TRACKHEIGHT 0 0
    INQ 0 0 0 0.5 100 0 0 100
    NCHAN 2
    FX 1
    TRACKID {580CDCAA-256F-4B08-A244-49803A8A2D50}
    PERF 0
    MIDIOUT -1
    MAINSEND 1 0
    <FXCHAIN
      SHOW 0
      LASTSEL 0
      DOCKED 0
      BYPASS 0 0 0
      <VST "VST: Guitar Rig 5 (Native Instruments GmbH)" "Guitar Rig 5.dll" 0 ""
        NUdpTu5e7f4EAAAAAQAAAAAAAAACAAAAAAAAAAQAAAAAAAAACAAAAAAAAAACAAAAAQAAAAAAAAACAAAAAAAAAEcSAAABAAAAKAAQAC1pbi0CAAAAI05JI0NTI0RvY3Vt
        ZW50IyNOSSNTb3VuZFNoZWxsI1NvdW5kIwAAAAAAAAAAAAAARQEAAGF0YWQCAAAAZG5zc2JpbHoWAAAAEAAAAHjaY2JgYND19NM1dc/0AzIZABGlAidhdGFkAgAAAG9m
        bmliaWx6JwEAANMCAAB42pWSQU8CMRCFz+6vmPQOxYSDMaVcRK+EaDwYD93dARt2p5tOl+i/t7uFBYlBvPV9fa+vbUbNP+sKdujZOpqJ2/FEAFLhSkubmXh5fhzdCeBg
        qDSVI5wJcgLmOlPsWoqmtTuGp5OJ0FkGoBrvGvTBIusoIyBTo357Nb6GBTHWeYXvSvY0GUwbPpzXjIWjEnhrSck9S4bC1TVS0P0ZjSl5rOSBdZXytLMDuaHtob5b66fW
        BuNhZTcwVbJHfXBvzFJJE19JgY+tCZylj/ySD5benXlP5L7ThOBt3obhrwaQdCQ7U7WoF+s1FkHJpJJXnpn/CPOPdNxsGf2IMejV8l7KwTTgf7asMA5DzhDHBR6wMl/X
        Fd78lrt4hxPZfaOSwzjq7Bu6MORqYXRhZAIAAAB0c3JwYmlselgQAAAiowAAeNrtXdly2kwWztzmAeZaxW0Kox3xF8kUxgY7GC+Al6Ry00gNtNGCtdjYrzMvOi2hpQUI
        kGwjOePcxGg5/fXps/ci6qx7968vX778+79fvtT/M9dU6hGaFjL07yXmgC5RUJcNBenj76XrQasslSjLBroCVEOH30u6UaL+8+NrfWyWkW7ZpqNB3S7LE0efUkMHqUpZ
        d7QhNL+XWJFnSpRsaDP8In5mBuRpGSm4kVqV5muiJLElamQCDT4Z5uIOblwD94ZZDgEJ+AqSTSO64j6DdPIZ3MrMhBZMaMJGGsY9cCB1BGWKoyma+Ydl/6EliqUZvvTj
        61eKqluGoytlBdhgCCxIjVVjCNSyBm3T0A3Na3WCcCNlzVCgD0JBuN9A16GKGxRLlQUlzBgTwyB4ipug8L/6CM3LITssCvOpjGyoWfgR3n9m+SnK7YxUo2ncoA7cfvQ6
        4aP4YfdBFdowuuRfTH6bchzv8tXoqjKZDs/p/vPtL+H3vSqBh6fv30skKZJYeeyg+D189xHBJ2KIcW9mKrBheQj06fdSad2tBRBXqAwTKmWXgs9UvkQt/7LQUMV/j4Bq
        QZfBscYrG7ARuIGjICMaDra00osZcKXQxk9g2Qe4RfyObWjADgTOHaroIU/isE7YSI49yKxQJml7g4EawUic6q5WybAh2+gR4r4C1fEEa5UGpuIKJYGAMqFmYF5qYO6B
        CX4iD25lDYxK+PJK76NbVjKDPSbGpCy6SchjZVUg66FumnaIrF6JifkG4RdJ6UVjqmPoWCfVlEqQRMVXhpeXX2d3l+iam6KX0cuvDuiw2vNVrsrAxJSBKbAy0AnKUCmi
        NHHrBYFi0wpUMiFfphqTtnzY+HVhTeH5o/IyafySHsWrTwP7aWCLpRJSkiRzaQONZEK+Spwqg9+1pxn8eY0uxFHlpNMa2epnzPGpEgVTCZYQ5IY3kqd6SmVYS8JXA7lx
        dqSC6xm67g8umjQyNfhz/hlt/H3RBkPYQ5wSphSh5bd96am2a625dNY/pZ3qCd3rdVuNG6bxaURXpYdZlZ5qViNK2NCZY1NtgPTIfh4Ie7egKwDbAcA2HivqQq9cjEYh
        QiZ/fIMYvsEEK9bEUBWCiQUA2b0JUHaB5V68MVRHIzzlgSQKnCjlj/QsAHqGNOReXBpxugAQmyFGOLKp5qJUViSZ7DWJcHWyCvEzMFpOn8la4gDM4BGUpxSTNndOoOI7
        OOPBGcDuoTG5fqDln/ctp9pmH/4iB2fjHiu4xwxwVlAH91wRW5GcNK4xi3OsrXWOCUoQ1yQ1VHXDmG3RnzfQoC1qvgLPhqG44cE2IhtEFweiGUI0gW7NDAsWkI9OCNLR
        C4hv9hjgW3XcvCgyRcFphjh7UDZMZTnOKAxQdEnUDqBpU5eGhVy7ULyxVy3SBlF9G7u4AqKEMZTHupL7oCfHHFuiDvd2gjPbW4bNM0Qs0UcYygSnZpSXpaXNtzfS8oOT
        8eimc3V3/sucimcX9/JLm/kmVsa5Bid0LDihC5x9M/TOEcaS2tzQiYa9ALn3MROgO57jazpQA6EpTq5zxkYZI05t9SJlil0uTLsdGxYqh+XJHLZQuasQy12LBK0lBtBa
        SMUXGaqJtb1YxYlWNY6RXcZYBD5KcYyFUoxaFMfg5P3w9v+kaBIjYAUxQhm55r6c8NzrvNmrOJfItdd7sL3gSuG19oJnZ0+1H+7s6p32gmZ3j7QXOBm80H5wpfc8+8G1
        u7fZj3Cn8DDvAahe2cm847dXL++ewPJkKdzRMdvTJa2r7/uJ6tQ57j4N79W7aRtxDW6IHm6+dfKtorOxRJUtcKIqZs1TW0aoRIY5LVLANggreQPMNuoS2fIkxCfW8gdo
        2aas22H5xTaNIaw03ZXyRWKjMktbpt8rPHMUFZZH0IS6HMHj+QIAtLpRgU11jVgXG4OPlzu4U3WutaWColsll+onucqs6+9VgWnLnuuJ+G7kqIvE84kqXNBg+lPlbtl7
        cw7Gf89atWCHD3AoWXV3D42QS6n5z59L0xhjyaBwNAStP01D0wzd/3EO3PWT1Gm4/8n603aQDUzKXfYq4Id1nKvYf0Ju/lGNJ0z+ER48gUfcXRXhlobI1oA19bqwuPI+
        bU8Q0bTmqDaaqQvGLXjMV3AaYbnaKMMIVNmdj9cVdyMXvu3MZou/9j0nLWSfk758CqdUd1oOlcNsUF8PreGzLhcP30CbJUycs0JRMHadtSl5YXh4o6acuij4jF9kMd+2
        mBbQJdMs3y4uLDM2TeXQYMbsGGG8/Cd4tsbXxCpbE3awYq8R+vfJPNfx4s1STpHcDNfQZg0dqM9W6swzkYwfOZi8yjzeIaNzfaGPR7e9aW08yDly+DibPT7SKndBIATh
        0iMVrGdJJ1EbCPkypZwez+8fVEhPner0mRdrj+zssvE5+/7GodRyIHWTvKoqKRDYa1J5FAI8Mp93W0u1V3y3Ib5bQqSLg697F4ZQaF4kYJd3hDmg3F0wFEaI9PH/42yj
        R7JspJhnTKu4e6nrp1TW/Uzr7agAewGTRej3AiylGXuf0HiLFrwyNq7S67YmpD0cIIlKMDVT7XbF39fHd9Pbo+tT9nB+XRVuirTBgXmbDQ5s0TY4iNmLSR9lZXnBN2Kg
        PlnwogYGtdho97mc/K9ZTv5hNju8ybp3Np917zVyC52/V7V1l9JNJRDxvdTVWWfebDrDy2s0Ph9Nb9oPvdnx5z7zHVe6Z91nnnbSophzo9Fd2dBtgNyZUnkxMVX2xgyp
        yH4OK1/RoXjrIkE82o7qcVAZUkjHtKKj//iAAL4su49YIVHMdBPrjWk8La4R47vcwsSwbGKgcDMr48m/+wzv0kWf43Xd0MvrbqyeOBJfCjSEVBPfx61bRliTfUBnSmfy
        e25OnYuXw97sstW7PYofwJOsz1t0uQVkrLDPG1Q6wJMuALVNJ6bZiVq9q0Zn0GZmp8DxFaq8n8w78sR9YDsmiG/kO+DygXWqx8/WKMqa6MEk1KY1p1VwtCCIOS20taNz
        YfAQEqDEak686oRj2NFh7uWco+cQDv4TaEgmeMTX8gHVsMNhw396B/rkW87pqVFcrkJALmQ7YHKyBRdOyCT851prUK2yfE6K1yc3hzYnsTOA9lT+WheRJUZja6KUpaCB
        Ixd/HV9RbRPMJq66LOKFkfpQm+snqHbsSHf3Q2PYtjVw9TbxwqtWfdEFCxC4vyJAuCnatiQNRXV5nWqZ8KEAmECUMs8LgsmMDtfCfOoBfVyAwRuGKwwPga645/tEPpjL
        CxMbw8QWgEtcDBFXAER8DBFfAERCDJFAIuJzgiTGIIkFYFI1hqhaBCZJMUjS3pn05vESS5ZMj3ULakM1XJ007AwepratN67RVD6/aD1/Q5XJ+0dLp+eng3Tr5D8jpjer
        EfRjS0Wp2DLunPK6GyN5xXFOaV1XCWOmzdt99oKmeRqgaU4M07GoU7cybZHWqcZyecXgR+HgoaEJbIM6gjN7QibAjMBJOYHrLYPrATu+rCg3bIeRr7Gs/N1xF0Uyj5QC
        VDPNYbRzEXpeK3cWzYn1RPnDOVKfw6ohVMFz/oiiehO+Ao2/IHwiPxFx5QCF8jntT089TtRvrV7z9/EF12B6lnLcUE6ePgOozwBqv4agH7MDhcA0iEMaoPgStKrI0DmN
        4O16I84yUl4zLa3wDAYIlWFspuWAE6u1ak5iFQ4hGo0ca/MhqnuaeX2Mpl6xZbLzBnRyWbQY5eyyYGFlNPnbDdfFLEfhjCQKeeE7WodvOYVh8b+cUlHUja82yOEcr7ef
        xSPDqr7tBRo9iBV6GERW1rcXcWwOxPvji/Pnk6v2rfJyNWsUYCKvYFGV9FcEVZ4nXuuUa6KU1xKRgUZsaykvZ1hslcsLWP8lXAdhGBrVRy8F8DsnodsxY4fp5ecIEz2z
        JLBcThMMzYmZkCIzBfQuzMf0LgwrkR92hJYhTwxTCVzL5MhUxyozfblud+8m41tL1b5ZjX2tKT2muu7HwKmPt6aUfVtXk9eBqPTayn5O6tdnInPwHDNSjCjlVZhusuR0
        A1kKZnmmlhOofrjsoD8zIVByrwOFiw46kIwLOI7JqYpwKMRdsA5j+V+V50Up95NtVwscEsvzeRU4qlGRSo5FdxJdy0v7utK6rd30gSjRUk6h1Glt88ckBVrIa56WoT98
        dlyvrN8yU6+MzbKJleXHV/cXNnqqjTQoLz5SrQwj1x6YwLp/T4WmAmzg9RVfGqFxsOnIv+tV44noKbhOqYY8XWxIWsROHeoSKkAlogGfTUDF6TrumjdJIvHufhPVWPzE
        b9vGeKwuDQAxchFnltelLEKRxYFZYF4OTTyFR6Qcjmp4iCXl0SyvnRv39zE5puqm9TYYu/vvMZcXv8wx9MEvFsj4V3xKp9EFRxt6/CpVyAEMGLYbDztInh4ZT3qMjfQK
        G+kqR7CRidhINr6xof6Te0ouxWxuiKH5GtEQm70hdrNgMBwtEA1xZEN7FIwg8HyFRHhh7FuKhM9AbgsDBZHULD41A5dqa6/hImlfd+SkX+aLcdJNON+BkfwWRkpMlWCk
        kJqR5NzvnrnIvhMXmVUuClsMPanNYmoe+iek4f8eUzKRizNxZ9Yts22FaeW34Jq4zT2SOlzNyrZzOLdTso0tINv8M/83MUzgSF2VUjPMb+I1aho763tHrvGramq9j5pK
        m/lXrZFxRC01/4gztV/DwwGY7cw7/0zvGPMGs7f1FOGHgryQdluQxHIsGSQxsai2kqlFdkuLgkTaV4ZJ2+I5fKKai7ubBYQ8bDZqj02vaMSnsF8jKZeeW91RVMQ14dlM
        TScq5JWlTMl/ALiuHnd5h7xp0fBKxuQylkiGVs7dT3o9ShYWFJg4BWY7hSgLWFBgs1JgAwpcVgpcQIHPSoEPKAhZKQgBBXGZQqxs7pHwpDImy378sSpMi9Z2xCAGGKqZ
        MbDZMPjOcNG6lJWHUkChlprCqtn15Tq9aqzaU58Uk45UzFD6JJKUpF7xTYH/890Od6kvak9ryjt8aXWiq7yw5qr3kTm3kOU2snTNlba4ePmwyq7Ni+jHq691n1VRU0RS
        HJnCMlnv2dH4pyiy+EJOAt5DV7hsXdlSHXjHvvgZ9rq+8Nn6sjmzfM9hSe6K8MG6wif2RMrWEyuvnvhx+bqu1LJ1ZXNU/45dEZPV3jX+WfqyOezc0BdycmDJaIePWDqY
        WRPDJucUwmueuQ9/JR4XVq8sUalXlryMf3mnA8VCqv6D3qqBKDuIXg+5wUnc1tP5KunJivTW88EyUGUlaetHpDKQ5WgxIDse3XSu7s5/mVPx7OJefmkz38RKRrJsNSRr
        PDgD2D00JtcPtPzzvuVU2+xDRtby0tZlMlmo0lvXdWZhgSBu/c5CBrIMt3V/dBawIrv1S5cZyNJbT77JxNhqQLbarrXm0ln/lHaqJ3Sv1201bpis41Xjtp4onYmzW7dj
        hbH8ip1bTLSuzK0uplxxk8A125XFT9yGXyugRoapaUAHYxdAeJan+xCQ3c+dlb3yBbAnlP/bL24YpoIzmEArmKUyh0+CfBbpY5xPYHflOZHKD29SGIXfUivLE0ef/vj6
        PwJjgGdhdGFkAgAAAEROU1NiaWx6FgAAABAAAAB42mNiYGDQ9fTTNXXP9AMyGQARpQInAAAQAAAA
      >
      FLOATPOS 1275 20 1035 897
      FXID {DA93C5C9-8C12-436F-A1EE-C15E35D9461B}
      WAK 0
    >
    <ITEM
      POSITION 18.24
      SNAPOFFS 0
      LENGTH 31.68
      LOOP 1
      ALLTAKES 0
      FADEIN 1 0.01 0 1 0 0
      FADEOUT 1 0.01 0 1 0 0
      MUTE 0
      SEL 0
      IGUID {593E2F39-4F72-4843-8E3A-E8AA28B374E1}
      IID 122
      NAME 02-Vox-141121_1056.wav
      VOLPAN 1 0 3.006174 -1
      SOFFS 18.24
      PLAYRATE 1 1 0 -1 0 0.0025
      CHANMODE 0
      GUID {8B9FCCC1-0FBF-4FF9-A9F4-8569AD4B053B}
      <SOURCE WAVE
        FILE "02-Vox-141121_1056.wav"
      >
    >
    <ITEM
      POSITION 52.8
      SNAPOFFS 0
      LENGTH 9.968435374149
      LOOP 1
      ALLTAKES 0
      FADEIN 1 0.01 0 1 0 0
      FADEOUT 1 0.01 0 1 0 0
      MUTE 0
      SEL 0
      IGUID {A8A5D029-52C8-4BB5-B878-F39D1E4C1DDC}
      IID 122
      NAME 02-Vox-141121_1056.wav
      VOLPAN 1 0 3.006174 -1
      SOFFS 52.8
      PLAYRATE 1 1 0 -1 0 0.0025
      CHANMODE 0
      GUID {3B593BEC-4982-461F-9520-FCEF0CEE0C4A}
      <SOURCE WAVE
        FILE "02-Vox-141121_1056.wav"
      >
    >
    <ITEM
      POSITION 62.76843537414899
      SNAPOFFS 0
      LENGTH 109.34832199546537
      LOOP 1
      ALLTAKES 0
      FADEIN 1 0.01 0 1 0 0
      FADEOUT 1 0.01 0 1 0 0
      MUTE 0
      SEL 0
      IGUID {3D9C35D3-3182-48AD-AEE1-3D8C3F9CC8D3}
      IID 122
      NAME 02-Vox-141121_1056.wav
      VOLPAN 1 0 3.006174 -1
      SOFFS 62.76843537414899
      PLAYRATE 1 1 0 -1 0 0.0025
      CHANMODE 0
      GUID {67EF0A8F-3516-401A-9BDD-DD13E6D1C719}
      <SOURCE WAVE
        FILE "02-Vox-141121_1056.wav"
      >
    >
  >
  <TRACK {84DA78DE-F413-4204-8E21-204381EECBFE}
    NAME Bass
    PEAKCOL 16576
    BEAT -1
    AUTOMODE 0
    VOLPAN 0.42118287246328 0 -1 -1 1
    MUTESOLO 0 0 0
    IPHASE 0
    ISBUS 0 0
    BUSCOMP 0 0
    SHOWINMIX 1 0.6667 0.5 1 0.5 -1 -1 -1
    FREEMODE 0
    SEL 0
    REC 0 4 2 0 0 0 0
    VU 2
    TRACKHEIGHT 0 0
    INQ 0 0 0 0.5 100 0 0 100
    NCHAN 2
    FX 1
    TRACKID {84DA78DE-F413-4204-8E21-204381EECBFE}
    PERF 0
    MIDIOUT -1
    MAINSEND 1 0
    <FXCHAIN
      WNDRECT 1181 32 1139 944
      SHOW 0
      LASTSEL 0
      DOCKED 0
      BYPASS 0 0 0
      <VST "VST: Guitar Rig 5 (Native Instruments GmbH)" "Guitar Rig 5.dll" 0 ""
        NUdpTu5e7f4EAAAAAQAAAAAAAAACAAAAAAAAAAQAAAAAAAAACAAAAAAAAAACAAAAAQAAAAAAAAACAAAAAAAAAG4SAAABAAAAAQAQAC1pbi0CAAAAI05JI0NTI0RvY3Vt
        ZW50IyNOSSNTb3VuZFNoZWxsI1NvdW5kIwAAAAAAAAAAAAAARQEAAGF0YWQCAAAAZG5zc2JpbHoWAAAAEAAAAHjaY2JgYND19NM1dc/0AzIZABGlAidhdGFkAgAAAG9m
        bmliaWx6JwEAAA8DAAB42p1Sy06EMBRdy1fcdI/FZEyMKZ1o1IkLzQR1ZVwU5jI2QkvaMvpx7vwxeYMsyMRdz7nncVtg6688gwMaK7UKydlpQABVondS7UPy8nznXxCw
        TqidyLTCkChNYM09ZnWpKlGqR/MqCAj3PABWGF2gcRItr2BFKJEjf72596+FtW+MNrgdidK9a8OfMBbWSaHg4ec7y9Aw2k3qQDpNrIlYqI8+vD7zTSmdMBDJPawYbajG
        2Anrc6LzorqDcr1xIGbukV/SwdbomXYCu07hnJFx6YaXGIgWV8xBZCXy+mHgKi8soy3Rj0uLxrfoeLS9pHQiGwZtMJ0lLzc1ux9VdDLq/9t4m6aYuD99x5sf8ROkgk10
        vrzwVLe46ATWH4nR4Vfm3i+ouvMQYXRhZAIAAAB0c3JwYmlsen8QAACxtAAAeNrtXdl22roa7rntU3hx20XxbLMX7V4pmRMSkpChe/XGGAEqnuIh0/ucNzgPeGTwINkQ
        MEmQmp3eNB749fkfPunXyB13bv7z6dOn//7v06fW3w+2xd0BP4Cu860mfOVrHHBMdwCd0bfaZW+3rte4IDScgWG5DvhWc9wa9/f3z62RX4dOEPqRDZywbo4jZ8L1I2gN
        6k5k94H/rSaqslDjTNf20A/RO55hTupwgApparzcVHVdrHFD37DBvevPnqDCbeO369czQAq6A03fze/E70AHfweV4vkgAAuKCKGNcPciwG0Dk5N4jhf+EsW/eJ0TeUGu
        ff/8meNagRs5g/rACI2+EQBuZLl9w6rbIPRdx7WnpY4hKqRuuwOQgBhA9N2G4wALFajWGjNJSDE+goHpFBXBoX+tIXyoZ+oIOKSnOgyBHaBX5OSd4ltc/DF6k+dRgY4R
        f8f5UfYqejl+0QIhyG8lNxf/moui+Hbvy4gXXbdzdml8GQWR5vUBGIy+favhonBh9VEEyWfo6R0E95iJ0dd4lhGCet9wJt9qtXmPZkBip3J9MKjHEhKlyjWueBXAvoX+
        HhpWAGIFE4U3nsGG4TaiAXRzc4i10ld4RuyFIXoD+b6BSkS/CV3bCFOHi02VvzT1OBQTITSJF4WSZFz21BhwK7XEgRNHlQm2zBDeAfSthhVNHassA0mJnRJDwPnAdpEu
        beNhCia9hFO4jTkwGtmPS1+fPwoWK3iqRMLL8oeYPzbKDtnKYtMPM2StBuHmzzi/insvHHFHroNi0qoYBIukJMHwNDmyLF02+MkXcbgvhM7Z7dPJPdVgEIhgEBgOBn5B
        MDRY9CZpviNwYlWHWiwo8and2237d9++FCfXI8/jt6535H3h7INgPwiWrZDQF3myVLWhsVhQEhJb9pfHnz/Ph8cT+8j3DieR7TXkrY+Q+AgJtkJCxBx5a2rJA6diMMwV
        kYRBt3cr3uw/7DR2Hvv3Nxc/evaxD0cfrY1319oQMD5EKWFFFyr+OvGeK6un3Mn3vcYEtK+c8y/Qtfe3Pkh0jvcIZe/R1iVRjEO9KOT2DOjk/PlV2TiDlgDupQD3kK24
        U6dxOhxmCAX6+HoEvt4YBdbYtQaYEiWBl3T6QDtXKdKOEcQ3r1wrsrHa8quuKpLKANLjFOgxtGF8s2B1ngGI7QwjGIZce9ZdxpJfnrexJuu4DPGjcVRMofH+xJ7hgW1g
        Tjihav68QEpSyU0kuX3YO7FHfNvaG7dH9kV3+PMd9U6G6IsH6IsFIyqhTp/FLlbynCrV4zoVZHNuBbkgCMhIsrJQd11vSfy8QgQtCfMSvBBk7oaM7eYcxLMD0c8g+oYT
        eG4AGNRjlIGMHAbxeXcpvnLFLauqwApOP8N5DkzXHxTbGcwAhV2s/wD4Idd1AxjzAnu2twKcg7iLEFVxDKIEBModZ0Dd6IvbHEtaHfHjBZXZxrJsWcDaEhcQQRmj9Iyb
        ZmpVc+5nZSWNky/3hqz/7mg3/J588c/hSHDP4QXdnn2eaJzwDGfgAr9yC6MQNlf8QmJnIP/eEVJ0Ow/onmNYqdOwk+sci3nGiFJbh6VMsSNlaXcUAqZyWBnPYZnKXRUi
        d2UJ2q6aQtuFFropcG0U7Wx1TuxqJEaxiJEFPeokRqYCo5m3Y1Dy/uP6X9JpQggI0jZCHcZ0X1/w3stqsxdpbqHWXl6DbQRXhVprI3hWrqk2o51Va6eNoFm9RtoInDVq
        oc3gql7zbAbX6rXNZpy7Qg3zFoBajZXoHf26fHv1BFbGu8IjB6m9WtJa/n2SqP5oX55Gj0+NIX80kJq3/bP9h7Me3WmNIpGoiliiGvoRS3mqum6auutmMeT6E5baa72s
        I6+H1MZ1YWiOM3xqkz7AIPRNJ8x6X0Lf7YNGO54sz5IaB17VXvqNwvOHeb/yEPjAMXN4sswAwKCT969ZMYd1EBf8ealDPFIXky2X9rk1qHR+4hPNOslyFVC113O+kKQW
        gWf7j+7p037nEgb6/SN/uBtdg3c0XS1d5GNEnGnFC4iGMJbU/utX13dHyDM41BgCwa+2a9uuk1ycGPEUSu4gWwIV/NqLYGj4XDzzVUEvOyhVCX9l2vxlufdI/B34em/c
        oc+1ICqpD0PbCCbTT5jdeZuyxxAr2o6sEHrWTHEzHcsNlEUEcTSaIAdVj4fjnUG8lgs9jjxv9temh6SV9Yeku/fZiOpKM6IoDAZdOBkbPjome/h6trdg3FxUWMHYieZm
        5Mzo8MqqOHLB+IBfzpiv25eWysWzrIQXZ8yMqKmeESbBYxh5JW/IYlNuqprYVFZgsZc4/dsknvN08WoZp4qvh9uyvS3HsB6DyonnQjFJy0E7Oz06PhUP7ibGYXAZDq+H
        PyT4scb0/U10VxTMEbpTUel0lmoe9YygdPBd75wfmxPthD9SrpQvHacpwv2PwffXbkoVG1JXC2swWRLp55TbGb5t/3G1mVQbxXed4bvGPJodfJ2brAUFH1gC1r3B2ICL
        18FwCCF0Rv/GscapyLpbYZSxYtxupFO/YqxuZkxvRf/fCJh1fH4jwCqy2Ns0jJcEwQtbxho/b11C1d0BFklJ2jDN0yfz8CQ8hBPYP4yU27Pf3j/BO1zdILK2ukFdvyvp
        T5lWzvgqDHiBd3dxPZebrbL7mEv+buaS/zErHV5l0rtIZ9J7E18/lyxU3b2pWE0tEJLUUrK07Zw4j117Z29b61y5ztN2JH1sYLPiNPd1F5pXHbJgc2Q0f2q6TmjAeJzU
        nA1L1ac2gxYMH7N+r3xXvHktQWTtyJpqcNDnoINk5Xv/yakAdNuMXwkyoUjpPoob372f3cPsWyxh7AYhZihUTMmewpuP7xZuJhpvOa5Tn/egPIor4WtXdlE4c2037sie
        hbN+ejTe7bvnhzsGaNwM7v6R9362yclAi0N5SRjvxfP+FkbywclBb3k0C8/MBVoYyKsG8Vt1lb0geDeSsR3wxL4V+MCToPIyHVCnQl7nTEDk0Z/6vJVNMd4Kw+leK3TN
        dqHgS9DaY2K3kQ3l2fOofyHtz6HDYs8+PkvxhxEEXNd3U24an2s/T2zzyZ2IodNuSE1p97cwejVu4nbjTp2F/LR9wMWAlk9XZIyiRPldcFR76+ICm/QHfODS7uha3Guq
        CLyq0QGF7fBDbD4kNBVKiLbzjtzn95PbCJofOLtg+tF0SWtS6lbOe5UH9Gs5exeDw+364DYCjvmIjwnoc3Zg2gi2Xj6nFvQtBlZDRdnuSpdW6BvcMXVS6me8/cNnYXFN
        tE9qaB/S1tBoJ6NI3/DG0OR2zmhrSc4aPTLP7T/hvCRKTZUOqGYGqlkARSnaBD1DhP5kApKUN1fRnyQkCSVPEh1YSg5LKcISFZGnZcDMfNyEBetlCZ3IBp5slaZcwCOo
        WpNS803IY44nUdHBA86ygYKdM46VZdF7ctaK2zuXly1W+SNycUHAO/7byTbd565r40n58fVob9/Rt7uXhrgrH0Jwc+uPz2h2GK6+eJBCNt58Hz2G+aaiwPCpr7V/ZtBd
        FyRKvDkS8Ew83rSSrslGIoFHpM+ZI4lAJDGASCYQyQwgUghECgOIVAKRygAijUCkMYBIJxDp9BF5GRt1DZyM6AEScUAMsJEn4YAYICNPxgExwEWeggNigIo8FQfEABN5
        Gg6IASLydBwQAzxkC/giTJyIKOERCTwidTzEtlE4DVHCIxN4ZOp4FAKPQh2PSuBRqePRCDwadTw6gUenjSfI+OfCtVz6/BOIBB7q/BNIBB7q/BPIBB7q/BMoBB7q/BOo
        BB7q/BNoBB7q/BPoBB7q/OPBPBEbo/IOnDv6JORBsQRKpA9KKoGS6IOSS6Bk+qCUEiiFPii1BEqlD0orgdLog9JLoOjz1JjkKQZIakySFAMMNSYZigF6GpP0xAA3jUlu
        YoCYxiQxMcBKY5KVGKCkMUlJ9PnIz+hoOgBNnY18kcBDnYt8icBDnYl8mcBDnYd8hcBDnYV8lcBDnYN8jcBDnYF8ncBDn39skoDY6L32bbGMij4X2VIZFX1GsuUyKvq8
        ZCtlVPTZyVbLqOhzlK2VUdFnKlsvo6Lfz83YWikjWzoJqZ8X0V+wBEgWNYnSYtdw8cIWVVYorbZpG/2s0kN/QweE9Ku8DjTzIWRoMgCo6wYEInRNHxWyl1i0nUh9/zRo
        irimRBZsJxZtJzJgO6loO4kB20m4piQWbCcVbScxYDu5aDuZAdvJuKZkFmwnF20nM2A7pWg7hQHbKbimFBZspxRtpzBgO7VoO5UB26m4plQWbKcWbacyYDutaDuNAdtp
        uKY0FmynFW2nMWA7vWg7nQHb6bimdBZspxdtp/9hCwRbjfmbjLUaI7/uG+bk++f4ygeGFUIbmLMFg4N+vngudYdW8swC/sAIjem3oltDOEq3aUuextuV1bDliel9znLN
        yWwLt1nHyxHXBQPDwtbbTZ/GWMBd/GnT1b66HG+4Z7mzS/Q8dEcjizyW6/lSjqA52XbvnSUF8ZqEFSTkBQmrFnRxH5+7xwnPFyTwchMrSFy/IHFJQRKvYAVJ6xckLSlI
        UXEbyesXJC8pSBc0rCBlxYKEckEKUZBQcgZccSpeDL79X0YXeTQSx1ug/+5qyRrT2bk2xkM9Y1kOEUE9I5PkrDmk6anYbKfMZI/ByLfiq9AYxXtjo3ieXfkjkMfF7Cr9
        YXoZ2f04Juu4hhq5iippTV2iNR13A21dtZ2Ah7Ci2kQG1Zac1/qcwhQJd2e9ssKSIiqpiidVRRzUuKLWZvu9EYqLT34sqO41HE5/Xn9aE6fsZmX9YQcivkSHPcNbWXfJ
        gYyE8nrey5WHk2l2yPu0fl1WH4mSiNdHwjpVbKHEJRWTqOg4vwpC1RJPwD2X7G3wvIPgJ4Xl5YnVAy3d6F94mad0LeNxZVdRm2VX8axqroLfKTTbkhcMgDChT16hETcr
        uNR8ixWLtcxKh6Yu+nneLptJEEgJwnIJeYNrJkFcV4KYSpDWlSClEuR1JcipBGVdCUoqQS1KIHbJmIqYeiXhy0n7o+xMs9JWxKCmGLS1MYjrYUgqw1np+ro61FMJzcoS
        yrSb+HX10CjzaSJKqCaKIMpExKIgaTUSKkgu32xv7tYsEZ6Ta8q18rY29RmbWzAIgRNn1XEhhXux35LulcCqx5yXyyd3FWklqsqLyhs3ORPW8fbZitxfoWmU+DiO97W+
        JGlqzPuU5nqf8nxD5Q0/JakK531K7M/rfMvzNekz34J3vhT8MHslcAwvGLsh3meT3Zt6cHa1cAP7VqMgpdUoBE5ye6Ut7jOpyYvTfY/yBk/+80wb/NLt5RvVhYra0j2o
        1pEa5wFLDmBaC6yaip1Icvuwd2KP+La1N26P7Ivu8Oe6YhV16ZGXa4hVlm65vYZQSZeWHhqyjgp0fekZ9OuIVbODuH60L0+jx6fGkD8aSM3b/tn+w1lvXadVMq+9snrK
        nXzfa0xA+8o5/wJde39ra03d8rkf3Buy/ruj3fB78sU/hyPBPYcXmG5bjVKQz3pxSx23s/5cVKYRc1ZjdonKSNr+3ND1bdtwjFGMIDtaJX7JMOOz5+vTdMQIx1xynSQr
        rj9ALZJUIYWsJZGAvwqdEWoeIKqeEmjj+7TDGWbn2tfNceRMvn/+Py4yqzVhdGFkAgAAAEROU1NiaWx6FgAAABAAAAB42mNiYGDQ9fTTNXXP9AMyGQARpQInAAAQAAAA
      >
      FLOATPOS 1358 65 1035 897
      FXID {54022E28-9298-4205-8015-EDD7084B7DAF}
      WAK 0
    >
    <ITEM
      POSITION 3.36
      SNAPOFFS 0
      LENGTH 27.3933560090703
      LOOP 1
      ALLTAKES 0
      FADEIN 1 0.378109 0 1 0 0
      FADEOUT 1 0.01 0 1 0 0
      MUTE 0
      SEL 0
      IGUID {C0FE6B18-3574-4E8B-ADCD-2164923CB620}
      IID 17
      NAME 06-141113_2336.wav
      VOLPAN 1 0 1 -1
      SOFFS 3.36
      PLAYRATE 1 1 0 -1 0 0.0025
      CHANMODE 0
      GUID {9E54912B-D49C-453D-AAED-42B6CB735B81}
      RECPASS 2
      <SOURCE WAVE
        FILE "06-141113_2336.wav"
      >
      TAKE NULL
    >
    <ITEM
      POSITION 30.75335600907029
      SNAPOFFS 0
      LENGTH 3.80664399092971
      LOOP 1
      ALLTAKES 0
      FADEIN 1 0.01 0 1 0 0
      FADEOUT 1.1 0.01 0.024043 1 1 0
      MUTE 0
      SEL 0
      IGUID {3965E7AF-DB02-4383-9BFF-6B67CDCF2521}
      IID 17
      VOLPAN 1
      TAKE SEL
      NAME 06-141115_1941.wav
      TAKEVOLPAN 0 1 -1
      SOFFS 0
      PLAYRATE 1 1 0 -1 0 0.0025
      CHANMODE 0
      TAKECOLOR 26446472
      GUID {BE3EEF2C-13BC-4B83-B4F8-8A29EF3A21D0}
      RECPASS 13
      <SOURCE WAVE
        FILE "06-141115_1941.wav"
      >
    >
    <ITEM
      POSITION 34.53595741835354
      SNAPOFFS 0
      LENGTH 28.23247795579545
      LOOP 1
      ALLTAKES 0
      FADEIN 1.1 0.01 0.024043 1 1 0
      FADEOUT 1 0.01 0 1 0 0
      MUTE 0
      SEL 0
      IGUID {BA7F0D50-42F0-4031-89BE-5362AC3459DA}
      IID 17
      NAME 06-141113_2336.wav
      VOLPAN 1 0 1 -1
      SOFFS 34.53595741835354
      PLAYRATE 1 1 0 -1 0 0.0025
      CHANMODE 0
      GUID {563C0061-47D7-4295-8FD7-E2C205A6842F}
      RECPASS 2
      <SOURCE WAVE
        FILE "06-141113_2336.wav"
      >
      TAKE NULL
    >
    <ITEM
      POSITION 62.76843537414899
      SNAPOFFS 0
      LENGTH 33.23156462585101
      LOOP 1
      ALLTAKES 0
      FADEIN 1 0.01 0 1 0 0
      FADEOUT 1 0.01 0 1 0 0
      MUTE 0
      SEL 0
      IGUID {140F4E31-DA38-4C65-B37C-D2A003C14109}
      IID 17
      NAME 06-141113_2336.wav
      VOLPAN 1 0 1 -1
      SOFFS 62.76843537414899
      PLAYRATE 1 1 0 -1 0 0.0025
      CHANMODE 0
      GUID {6DC5A052-B214-4CAA-B659-5CDB793DDA88}
      RECPASS 2
      <SOURCE WAVE
        FILE "06-141113_2336.wav"
      >
      TAKE NULL
    >
    <ITEM
      POSITION 96
      SNAPOFFS 0
      LENGTH 5.76
      LOOP 1
      ALLTAKES 0
      FADEIN 1 0.01 0 1 0 0
      FADEOUT 1 0.01 0 1 0 0
      MUTE 0
      SEL 0
      IGUID {37D4D85F-37DF-4997-9527-735695F2CB2E}
      IID 17
      NAME 06-141113_2336.wav
      VOLPAN 1 0 1 -1
      SOFFS 96
      PLAYRATE 1 1 0 -1 0 0.0025
      CHANMODE 0
      GUID {153B99BD-02C2-4DAF-8234-CC837C6E0F5E}
      RECPASS 2
      <SOURCE WAVE
        FILE "06-141113_2336.wav"
      >
      TAKE NULL
    >
    <ITEM
      POSITION 101.76000000000931
      SNAPOFFS 0
      LENGTH 5.76
      LOOP 1
      ALLTAKES 0
      FADEIN 1 0.01 0 1 0 0
      FADEOUT 1 0.01 0 1 0 0
      MUTE 0
      SEL 0
      IGUID {2A92D813-756E-412B-A050-D16F6F9E2DE1}
      IID 17
      NAME 06-141113_2336.wav
      VOLPAN 1 0 1 -1
      SOFFS 96
      PLAYRATE 1 1 0 -1 0 0.0025
      CHANMODE 0
      GUID {873E81FA-B571-4456-BDBC-6D853C9D4DBB}
      RECPASS 2
      <SOURCE WAVE
        FILE "06-141113_2336.wav"
      >
      TAKE NULL
    >
    <ITEM
      POSITION 107.52
      SNAPOFFS 0
      LENGTH 14.4
      LOOP 1
      ALLTAKES 0
      FADEIN 1 0.01 0 1 0 0
      FADEOUT 1 0.01 0 1 0 0
      MUTE 0
      SEL 0
      IGUID {7BC43130-6F02-408F-894C-D77DF3D10758}
      IID 17
      NAME 06-141113_2336.wav
      VOLPAN 1 0 1 -1
      SOFFS 101.76
      PLAYRATE 1 1 0 -1 0 0.0025
      CHANMODE 0
      GUID {EA5A25FD-5629-4E09-912A-0B7B38F6D900}
      RECPASS 2
      <SOURCE WAVE
        FILE "06-141113_2336.wav"
      >
      TAKE NULL
    >
    <ITEM
      POSITION 121.92
      SNAPOFFS 0
      LENGTH 51.20827664399123
      LOOP 1
      ALLTAKES 0
      FADEIN 1 0.01 0 1 0 0
      FADEOUT 1 0.01 0 1 0 0
      MUTE 0
      SEL 0
      IGUID {54008A31-0A54-462D-878F-4776C9B1D811}
      IID 17
      NAME 06-141113_2336.wav
      VOLPAN 1 0 1 -1
      SOFFS 116.16
      PLAYRATE 1 1 0 -1 0 0.0025
      CHANMODE 0
      GUID {9411C8FF-AB48-47DF-974B-E24A499BB7D6}
      RECPASS 2
      <SOURCE WAVE
        FILE "06-141113_2336.wav"
      >
      TAKE NULL
    >
  >
  <TRACK {16D521EF-5C8D-47BC-8978-C251263A68DE}
    NAME "Guit Chorus"
    PEAKCOL 16576
    BEAT -1
    AUTOMODE 0
    VOLPAN 0.26529707233193 0 -1 -1 1
    MUTESOLO 0 0 0
    IPHASE 0
    ISBUS 0 0
    BUSCOMP 0 0
    SHOWINMIX 1 0.6667 0.5 1 0.5 -1 -1 -1
    FREEMODE 0
    SEL 0
    REC 0 4 1 0 0 0 0
    VU 2
    TRACKHEIGHT 0 0
    INQ 0 0 0 0.5 100 0 0 100
    NCHAN 2
    FX 1
    TRACKID {16D521EF-5C8D-47BC-8978-C251263A68DE}
    PERF 0
    MIDIOUT -1
    MAINSEND 1 0
    <FXCHAIN
      WNDRECT 1007 72 1139 944
      SHOW 0
      LASTSEL 0
      DOCKED 0
      BYPASS 0 0 0
      <VST "VST: Guitar Rig 5 (Native Instruments GmbH)" "Guitar Rig 5.dll" 0 ""
        NUdpTu5e7f4EAAAAAQAAAAAAAAACAAAAAAAAAAQAAAAAAAAACAAAAAAAAAACAAAAAQAAAAAAAAACAAAAAAAAAEMTAAABAAAAEQAQAC1pbi0CAAAAI05JI0NTI0RvY3Vt
        ZW50IyNOSSNTb3VuZFNoZWxsI1NvdW5kIwAAAAAAAAAAAAAARQEAAGF0YWQCAAAAZG5zc2JpbHoWAAAAEAAAAHjaY2JgYND19NM1dc/0AzIZABGlAidhdGFkAgAAAG9m
        bmliaWx6BwEAAHgCAAB42o1Sy07DMBA8k6+wfC8OUg8IOa6EBFyjFE6Ig9tuikWyjuxNRf4e59kQCdqLtTM7M7u2LDffZcFO4LyxmPC725gzwL09GDwm/O31eXXPmSeN
        B11YhISj5WyjIultjUGU27N5HcdcRRFjsnK2AkcGvAowEKhLUO9bChENSy02LGvoE8oPKbpWaxJzV0vsNH6NAW2tXmpD2rHMHNlaio7qjIOwrfe2rMIQpNE4EQv3mf9P
        x1JnF9oZHGZqImd2NU23nYgeB+akixrUYzi8FD0YW7UHt/JAKksfhNhSU4C/GZRTr88Vi+A/Bz3lOezp16Trzf0K16x5YcEZbF9KiunPqOgHCSDGC2F0YWQCAAAAdHNy
        cGJpbHp0EQAAosYAAHja7V3ZdtrKEs19zVdo+fUsjObhLCdnYfCAJ7CB2MnKSyNkkNEAGszwIfeT7nfdltDQYpZs04qP8hIjRPVWqaq6qnt3N3Fz+/SfL1++/Pd/X76c
        /DPVNeJVsWzVNL4dUcfkEaEYstlTjf63o077vCQeEbYDjB7QTEP5dmSYR8Q/37+e9K2SatiO5eqK4ZTkgWsMia6rar2S4epdxfp2RPMsdUTIpj6CP4T3jIA8LKk92Igk
        kKzEiyJ9RDxbQFcmprX4BjaugxfTKkWAOHhFlS0zvuLdoxroPbCVkaXYyoYmHFWHuNuuQtQUmWBIgqT+pum/SZGgSYo9+v71K0Gc2KZr9Eo94IAusBWir5ldoJV0xbFM
        w9T9VgcqbKSkmz0lANFT4XMDw1A02CB/VF5IgoqxIAxEp7AJAv47eVanpUgdNgH1VFIdRbfhLWxwz/JdhPcwokSSsEEDeM/xcB3dCm/2btQUR4kvBRc3/5pwXe9y78l8
        nNFG1ero9cb12cSVH4Zm5du3I1QUKqzUd9Xkd/DbV1WZIK8YPs1IA45S6gJj+O3oaN1XCyCeUZmW0it5EgKlskfE8idb7Wrw72eg2Yqn4ETj5S3YENzA7alm/Droo5Wn
        GAHPCh14B7R9AFuEv3FMHTihwXmvKr7JtzjoE44qJ26kViSjsv2XoVbCN1E3PK+SlYrsqK8KfFagub5hrcqAUjyjRBAQlqKbUJc6mPpgwo+qD7e8BkY5+vHK08df2ZsV
        7CsxYWXxl4g9llcN8iTyTcuJkJ2UE2a+xfh51HrVPnFtGtAntZROsElK4AwXteHFZbNDM6cXnNGvPFzdOlYDrzNQCWegcuwM5AZnKOfRmpj1hkDQaQ1qs6DApto3ovaq
        dFiqM56ovHvpXL3ovUkRYIsAmy+XEDdZMpM20dgsKHCJs/Fg+qI9NWtDcD8Uh+POk3A3LVyicImcuQSNGHLFf5N1I6UzrBURuIHJXHTqhthukNVxGThlptlr3PaLbOPT
        ZRsUEg9hSZjShJZ/HVhP6xL8GrSvn/pDZSQ0Kn2q0q7eFEF0jfVQq9YjZA2iSAwduQ5xAVQjjp/H3MEj6ArAixDgBXxXRMMoN56fI4QUfnztBL72ADrWwNR6iBJzAPL2
        R4jyFtjexR+m5upIT3ks8hzDi/iR3oRAb1Rd9S4uvXEyBxCrEUbl2SGqi6GyPNnkQxVJVwerEIvEaLl8RscS22Ck1BR5SFBpa+cNUsLC+arTmT1NymOy0Rx2Tyl3ev74
        6/7zdHAOfOIefGIKuCuow+88E1uxnDRdY5bOUVrbOW5wgqQnaZGrm+Zoh/+8gwftcPMVeI4SmRt82WYcg8j8QLQiiBYw7JFpKznUoxuBdI0c4hu9hvhWO26W56m84LQi
        nA+KbFq95TwjN0DVJjJ2oFgO0TRt1YsL+Xv3mo3GIKLlwC4uhyiVBMozo4f9pW/OOXZkHd7XGzqzg1XYLIXkEi0VQhnA0ozwq7S09fZWWUFyojNjY1gR7qfDmXPzPJ/M
        53dnL3iTEzKRnJA5rr4pcu8MY8ltfpAbA3sOau8zKkR3NoXXDKCFRpOfWueGjitGWNoaeaoUb5mo7HYdJVc1LIvWsLmqXblE7ZonaOd8CO1c1eBFiqhCb8/X4MS5kMRI
        L2PMgx7FJMZcOYYU5zGweD99/JcMmiQE2GGOUFK9cF/acN/berM3aW6j1t7egx0EV4pe6yB49u6pDqOdfXung6DZv0c6CJwMvdBhcKXveQ6Da//e5jDGnaKH+QhAJ+W9
        wjv89erl/QtYFh0Kdw2o9nRF6+rvg0L1Vq6T4nXjfj6suvQ9rFM1+ucEL8mAThSqNFKoOpabpzqVz1qmnpuRD5nWME/5WjsayGtDtRFN1ZEHET5ewg/QdizZcKLRF8cy
        u0q56hHl86TG3ijtKP1B4VnP8bjys2IphhzDY9kcALRv4/E1zYthtzAW/HmlgzdT5wVbIhxzK2MZ/ERJZrfBUhUl7ajneiFBL3I/psCL8aTNzsatev1hVusYvZtPRIwP
        F/gAl5A1b/HQs+pJqv79u2mZfWgZBEyGFPt31dR10wg+3AGPPknUo+VP9u8LV3WARXisVw7ebMBSxfkdafO3Zk6g+FfleAJe4eNqKmypqzo6sIf+IyyufEzbAxVpWnc1
        Rx1pC8UtdMyWYRVhe94oKzGokjcdb/S8dVzwa3c0Wvx16ClpLvuUdHMSzajuxYbCMBnUMqJoODPk/OFr66MN8+Y0lxeMt+7aijw3OvyhpZy5yPmEXxwx33csLZSLVllB
        XFxEZhiaSlHATMQxJHgFd7C0xEq8QEvcHlHsLUb/MYXnOl28W8XJo2vhKvqoYgBtZqcuPDeKCTIHqjMRfpI6JQ8frWbT4Z8nDYEtaMqfj+TOcYghNH1RIZ0lnUVtERTY
        lNyajIVLdtbuuGzNmoyu5d68Nikm3985lVpOpH5s7MEEMgez77UIX82a7cekOii+xwjfI2LR+cF3+xRlUOo0T8CaT0g0ILw1MAREqBr9f+Ncoy+yZKaYZUzptwcZ1E/p
        q4eZ09vT/g8CJovNHwRYyij2MYnxDid4Y2YskOvWJaTdGWCTlHDfFfdpfn01uDsnH/UhZwlsg7p0J59vdQOdt9UNfPahpD+FVp7zVRhqCx3uItomsVhlV3DJPw2X/I9Z
        6fAupHcaD+ldQtfPBQtVz59SdlMbhAS91ORiyF+dzh/FjvIkA67P391Ld8XuYHvS3LMuMk87ZZHPmdH4W9k0HKB686TyYlqq5L8zVVOdWTTuFe+Ity4ThG/b1XwN9rqE
        akBZ8b5/bCgAXpa9W+xIKFS6Bf3GMieLa8j7XW5hYNoO8qJgMyvvk/vw+d2li4HGTwzTKK37Ym3SGXWuI6jf0JGfzav5vDu/u39Sa6PGeFw9v1LOkutVNjvxRzowuYX+
        s9F39/Xb9D67aWXKBlQJu19jD8uT7Ohg+YUFpT+r8VD5FdsYMuLFS/vxgnSkX9NGTdCv+h/+jup39fbu90Tl6z1R7F5p/BsC60Gq6Wql1ULIToqlmNipzTAHSOYDSJlD
        87Qk4sF1YcQ7hyQ2XeFZgeffFxP8ueV1JZ53lvoe89N2LAX4fQw0YQ/Slp5kzwc6jYqLU2Aj7LZjUuJJCdPLV3vxIFgPt3e0rW5Ms1O6WqLgJilcSmpadmJ6CmXXYQX2
        A0ThDf6pAhn/gpJWP4puoI8fzoM9iutQG3ZNNvbFGxETMkGBpPGAOVVBHJX8v/FGgMt55Gnm5OBrEdbXPm/J/0h0ULga7Iv5YJp6mAPyDndONUbjhzvFmZ/a6l1zWjnr
        Y8nT6Tznf4z0KfK/zQPKEslKmIJkn0IzLW9DJnTbM0HAhIpOoKJxx+0+k8DDJLQkUJgCeJ9NoGKxa4lL4OGw4+ETeHjseIQEHgE7HjGBR8SNZxTFoiZIhiJMwXFEo4Do
        HABiUEBMDgCxKCDsEWjEoXC4HOiHRwHxOQAkoICEHAASUUAifkA6hS4uQMMQJjx0Ag+NO43VE9shoEEIEx42gYfFrh8ugYfDjodP4OGx4xESeATseMQEHhE3HjuKPy1T
        M/HHH5tO4MFei9lMAg/2+GOzCTzYcyCbS+DBXoXZfAIP9irMFhJ4sFdhtpjAg70Kiwl7iuPGjEIWk3ZyNmMKouVvKvbdcrob5hQxJc7Opvm7P3P8Xlym1xCn4cB9/bV6
        Wn9R5w8VtS7dW7Vr+KCjSUGwyRPB5k5+cflHimr9BQBP0ZKgPM7OJwXBpiDY5IdgI0hMzvg1Iimw0qfi17AkxeaKXwPfOyuy+SPZ8LzIUnkk2cDoTYn5I9mIHC0wBdFm
        F9HmmKLp96bsfS66DXks0Twl5It0Q31W0o1NXfDqA3Xf6qunl6QiPqvnLaMg3fz7SDciKfFS3kg3Bd1mO92mINpsJ9ocizyNK7ncTLeBqCiaL0g3BemmIN18JOkGG6CC
        dlPQbj6KdkMVtJuttBuqoN1spd2QOaPdkAXtpqDdFLSbgnZT0G4K2k1BuyloNx9FuzmmBEbk/sxxfGmFfOPv0xnsb1PrS9MOW77/0ZhS5FiqK5fL2yniod/kbAifyzSC
        D4wKWhpWcLsbBHGKAjrFnSk+nYNetAtf1TJt+xn0cnCeZy2a7qy5QCNuTQN72FajE8jqPteDaA6A/cczAxmUeNa0Z/JAqSkamIXx6ecZ33i97tXaPG11LKv28Fdn7BR7
        O62nnjHvO82IK3vzjvJZc6wPJjg1ZN9mlAzFUBKmaZh2FJs8TyHaanJvcpbCdYDtqx1zVzyrxr5HTM2JVeUdOIe/YzmPDrhUlF4XyEOUyybyEqYapeW0k0XKslWRtMCJ
        uLA9vC6By4l5tZzaUm1HLNsZJvaulcipiFVjw5R/Rj194vxUbN6o3sY51ciFhdHhDyV//4yKQes9x08xfH/pRvtldsbyX70W9/ATiPOR3eMufhp6Qedfm1OJn4K55acu
        67IYGpPjtXWEpFwKMv4IFcOIDC46cMTh9IiOREudJ+jTpMQImFR2GQ2VWWp/gL5EgRJxgbrZOGAmSKyEiR1cHVgbRlypopvJ2M2clNfvpX1S7lslC6YW379+9VenAM2B
        maO8YAv3unEkDnV/EnynKVYPOMB/VnjpWe2Hu5EH3/oFLdLJhdcJzZSHi53KF456TTSVHtCQ4O1/62GB/R58NO8d0N6KDMLWzMVH+L1j9vta8vTp7a1cq/KwZk6MHQ2R
        AoM0RMUNUfs21Jp46RFBbW+IIlkJaYjO3hC9oyGG5JCGmOwNMYmGqJWGOB59RyzaELorfORcsfWuTXcWXfziwFMwLUVBgICuU4rcLzqEnPAFl1Y9NdiG3rU0L8FxQN87
        Pgn6wuKT1VcCxSwyr+DKQozn+uEFV+/6Vo0orRxrLZUi2R2KFCkBUSSXWpGJkbhDq5H/GDVSq2rktquRRs2eT6/ExRmc8L/XlEpkkkrcW3XLaltRWuk9tMbv0JqIOrGQ
        VW13ytRJqTY6h2pru4a3FGibwjgGdVYxtcKCJt7ipi3vCGjop/7arj21xq66qf0xbipu15+39DfWn5Raf7fBcdHK23TYBqO9dUfRq8prj963qzibwoc1gLbIjnZlEzRD
        o9kElSVBWmpxR1pBcyIaXykqbYt3yoQIlqVtbwk9zjxub13ChGp5KTsNbgBenwix7JGrLl7mSpbqIUAS0NCWyrt+HqefCwlUUgK1W0KcVy4k0Fkl0KEEJqsEJpTAZpXA
        hhK4rBK4UAK/LCExsuSL8E0rER6CjnrVQRet7YmBDzEImTHQ2TAEvcaidTGrDsVQgpRawmp8Cuw6vWusBp5AFJVOVCKiBCI2OclJOQgFwccPO2nrZFHvrymp2aPVMeDS
        Iuxpqu0ohjd44DWydC1JhTuJYZW8mBfLT66jPglUFTeFFD1xKCyh9due/WmKXD8wchTwuz0Kv/FRuD/sUdiNTyJmexIb15MEmdK6R5GyPcr2PGvLo6CjZUseFd1iG2Bk
        D0wHHWSLrvm+GH3aeLDeSXlJykl5KQQEl/c6ei+SGtzoz3rEyXD880gbjMjsPMeynF4sLTE7D3HOIpYTQrGtS/Br0L5+6g+VkdCo9KlKu3qTUSzP7tzlIAtYUQzF3o8p
        8GI8abOzcatef5jVOkbvJqNqGZIPxerM2BhWhPvpcObcPM8n8/nd2ct9NrEUKezkYWUSS++kn2bRrRApoX3V6cyeJuUx2WgOu6eUOz1//JVVCczOM2YySCV3Hl6YQShH
        7dyxLZODRXqVW5OxcMnO2h2XrVmT0bXcm9eyiuUjK7iV66R43bifD6sufQ9NVqN/TrIaF03tnOeOMriVALqY0liZxVhMbsA2gdcflBcfYRtBhUg8m5auAwP0PQTRcbre
        TQB2I69KyR8IAM6ACD4HwwSm1YN5a4hcXBowCESg96pGH2aRsBv0e6fyd3/6RTVsx3J1/8TYgWsMv3/9P8LpHERhdGFkAgAAAEROU1NiaWx6FgAAABAAAAB42mNiYGDQ
        9fTTNXXP9AMyGQARpQInAAAQAAAA
      >
      FLOATPOS 1280 88 1035 897
      FXID {835AAA6F-33E6-49F0-8BCF-4FC37CE1DF4E}
      WAK 0
    >
    <ITEM
      POSITION 27.84
      SNAPOFFS 0
      LENGTH 24.01988662131519
      LOOP 1
      ALLTAKES 0
      FADEIN 1 0.01 0 1 0 0
      FADEOUT 1 0.01 0 1 0 0
      MUTE 0
      SEL 0
      IGUID {0B4824BC-B0A7-4211-BD71-FDABE322FD6C}
      IID 41
      NAME "04-Guit Chorus-141115_2340.wav"
      VOLPAN 1 0 1 -1
      SOFFS 0
      PLAYRATE 1 1 0 -1 0 0.0025
      CHANMODE 0
      GUID {BC6FA5AB-2634-46E6-AF4D-000DABE2BB33}
      RECPASS 15
      <SOURCE WAVE
        FILE "04-Guit Chorus-141115_2340.wav"
      >
    >
    <ITEM
      POSITION 77.1827664399093
      SNAPOFFS 0
      LENGTH 18.8172335600907
      LOOP 1
      ALLTAKES 0
      FADEIN 1 0.01 0 1 0 0
      FADEOUT 1 0.01 0 1 0 0
      MUTE 0
      SEL 0
      IGUID {B2C05D4C-17A6-4ED1-93B9-F63BA5EF820C}
      IID 42
      NAME "04-Guit Chorus-141115_2342.wav"
      VOLPAN 1 0 1 -1
      SOFFS 0
      PLAYRATE 1 1 0 -1 0 0.0025
      CHANMODE 0
      GUID {45033CED-6C9C-4264-88F8-5FCCE7102F86}
      RECPASS 16
      <SOURCE WAVE
        FILE "04-Guit Chorus-141115_2342.wav"
      >
    >
    <ITEM
      POSITION 96
      SNAPOFFS 0
      LENGTH 5.76
      LOOP 1
      ALLTAKES 0
      FADEIN 1 0.01 0 1 0 0
      FADEOUT 1 0.01 0 1 0 0
      MUTE 0
      SEL 0
      IGUID {F0A66076-EF00-4CF8-BA60-3D6CC8530110}
      IID 42
      NAME "04-Guit Chorus-141115_2342.wav"
      VOLPAN 1 0 1 -1
      SOFFS 18.8172335600907
      PLAYRATE 1 1 0 -1 0 0.0025
      CHANMODE 0
      GUID {55CE75E3-0E77-4C3A-8398-50224A3AE7E1}
      RECPASS 16
      <SOURCE WAVE
        FILE "04-Guit Chorus-141115_2342.wav"
      >
    >
    <ITEM
      POSITION 101.76000000000931
      SNAPOFFS 0
      LENGTH 5.76
      LOOP 1
      ALLTAKES 0
      FADEIN 1 0.01 0 1 0 0
      FADEOUT 1 0.01 0 1 0 0
      MUTE 0
      SEL 0
      IGUID {750AA8D4-5672-446B-97B6-8693D074B5BF}
      IID 42
      NAME "04-Guit Chorus-141115_2342.wav"
      VOLPAN 1 0 1 -1
      SOFFS 18.8172335600907
      PLAYRATE 1 1 0 -1 0 0.0025
      CHANMODE 0
      GUID {00161506-5C21-4242-907D-1BB4099CFA64}
      RECPASS 16
      <SOURCE WAVE
        FILE "04-Guit Chorus-141115_2342.wav"
      >
    >
    <ITEM
      POSITION 107.52
      SNAPOFFS 0
      LENGTH 18.40174603174603
      LOOP 1
      ALLTAKES 0
      FADEIN 1 0.01 0 1 0 0
      FADEOUT 1 0.01 0 1 0 0
      MUTE 0
      SEL 0
      IGUID {3CCE2F83-BBB7-406A-A531-16231DB15EDD}
      IID 42
      NAME "04-Guit Chorus-141115_2342.wav"
      VOLPAN 1 0 1 -1
      SOFFS 24.5772335600907
      PLAYRATE 1 1 0 -1 0 0.0025
      CHANMODE 0
      GUID {A38ABAFF-1364-4B80-BF92-602140714440}
      RECPASS 16
      <SOURCE WAVE
        FILE "04-Guit Chorus-141115_2342.wav"
      >
    >
    <ITEM
      POSITION 137.28
      SNAPOFFS 0
      LENGTH 36.8757596371882
      LOOP 1
      ALLTAKES 0
      FADEIN 1 0.01 0 1 0 0
      FADEOUT 1 0.01 0 1 0 0
      MUTE 0
      SEL 0
      IGUID {757F68FF-9DBE-4347-90A2-50197CFE7B65}
      IID 45
      NAME "04-Guit Chorus-141115_2354.wav"
      VOLPAN 1 0 1 -1
      SOFFS 0.96
      PLAYRATE 1 1 0 -1 0 0.0025
      CHANMODE 0
      GUID {99015BD1-C09A-4AC4-80A9-9037A9835503}
      RECPASS 19
      <SOURCE WAVE
        FILE "04-Guit Chorus-141115_2354.wav"
      >
    >
  >
  <TRACK {BB197DF3-AF71-4054-8B64-38181941EDE3}
    NAME "Bends Left"
    PEAKCOL 16576
    BEAT -1
    AUTOMODE 0
    VOLPAN 0.33613221313416 -1 -1 -1 1
    MUTESOLO 0 0 0
    IPHASE 0
    ISBUS 0 0
    BUSCOMP 0 0
    SHOWINMIX 1 0.6667 0.5 1 0.5 -1 -1 -1
    FREEMODE 0
    SEL 0
    REC 0 4 1 0 0 0 0
    VU 2
    TRACKHEIGHT 0 0
    INQ 0 0 0 0.5 100 0 0 100
    NCHAN 2
    FX 1
    TRACKID {BB197DF3-AF71-4054-8B64-38181941EDE3}
    PERF 0
    MIDIOUT -1
    MAINSEND 1 0
    <FXCHAIN
      WNDRECT 1163 26 1139 944
      SHOW 0
      LASTSEL 0
      DOCKED 0
      BYPASS 0 0 0
      <VST "VST: Guitar Rig 5 (Native Instruments GmbH)" "Guitar Rig 5.dll" 0 ""
        NUdpTu5e7f4EAAAAAQAAAAAAAAACAAAAAAAAAAQAAAAAAAAACAAAAAAAAAACAAAAAQAAAAAAAAACAAAAAAAAAEkTAAABAAAAEQAQAC1pbi0CAAAAI05JI0NTI0RvY3Vt
        ZW50IyNOSSNTb3VuZFNoZWxsI1NvdW5kIwAAAAAAAAAAAAAARQEAAGF0YWQCAAAAZG5zc2JpbHoWAAAAEAAAAHjaY2JgYND19NM1dc/0AzIZABGlAidhdGFkAgAAAG9m
        bmliaWx6BwEAAHgCAAB42o1Sy07DMBA8k6+wfC8OUg8IOa6EBFyjFE6Ig9tuikWyjuxNRf4e59kQCdqLtTM7M7u2LDffZcFO4LyxmPC725gzwL09GDwm/O31eXXPmSeN
        B11YhISj5WyjIultjUGU27N5HcdcRRFjsnK2AkcGvAowEKhLUO9bChENSy02LGvoE8oPKbpWaxJzV0vsNH6NAW2tXmpD2rHMHNlaio7qjIOwrfe2rMIQpNE4EQv3mf9P
        x1JnF9oZHGZqImd2NU23nYgeB+akixrUYzi8FD0YW7UHt/JAKksfhNhSU4C/GZRTr88Vi+A/Bz3lOezp16Trzf0K16x5YcEZbF9KiunPqOgHCSDGC2F0YWQCAAAAdHNy
        cGJpbHp6EQAAo8YAAHja7V3ZVuJM1+7vtK8iy1MXknl4l93fQiZRERRs7V59UoQQIhkwg6g38t/Rf11fJWSoMAiJSkVf+qQlhF1P7ey9a++qp1LERfvuP9++ffu////2
        7fi/T4ZOPCq2o1nmjwPqiDwgFFO2hpqp/ji46TdK4gHhuMAcAt0ylR8HpnVA/Pfn92PVLmmm49qeoZhuSR575oQYeJo+LJmeMVDsHwc0z1IHhGwZU/hDeM8UyJOSNoSN
        SALJSrwo0gfEyAaGMrPs+TewcQPcW3YpBsTBK5psW8kV/x7NRO+BrUxtxVHWNOFqBsTd9xSipsgEQxIk9Q9N/0OKBE1S7MHP798J4tixPHNYGgIXDICjEKpuDYBeMhTX
        tkzLCFoda7CRkmENlRDEUIP9Bqap6LBB/qA8lwQVY0MYiE5hEwT8dzzSnkqxOhwC6qmkuYrhwFvY8J7Fuwi/M6JEkrBBE/j9uD6Pb4U3+zfqiqskl8KL639NeF6goctL
        Trq8n1Qmz1P24tdh87T6cK7++HGAikKFlVRPS38Hv33UlBnyiGFvpjpwldIAmJMfBwervpoD8Y3KspVhyZcQKpU9IBY/OdpAh3+PgO4ovoJTjZdfwYbgBt5Qs5LHQR8s
        9WIKfCt04R3Q9gFsEf7GtQzgRgbnP6rkpsDioE+4mpy6kVqSjMoOHoZWiZ5Ey/S9SlYqsqs9KrCvQPcCw1qWAaX4RokgIGzFsKAuDfAUgIk+agHc8goY5fjHS71PvnLW
        KzhQYsrKki8ReywvG+Rx7Ju2GyM7LqfM/BXj51Hr1VTi3DKhT+oZnWCdlNAZmrVJ87R7QzMnTc5UK9dnbdfuVLA6A5VyBqrAzkCucYZyEa2JWW0IBJ3VoNYLCm2qbo0b
        1GB8N5s8/3k8YeriTL17vtoH2H2ALZZLiOssmcmaaKwXFIVZxeMeWyZ/UwdVRpM40Sufdvc5x94lCuYSNGLIleBJtsyMzrBSROgGyu/WdbVepW1SubPB4YP8p3zWne2z
        jS+XbVBIPIQlYUYTWvx1aD1/HnqTMdkZt+pG+bw3ofnbITmt7IPosvVQy9Yj5A2iSAydei7RBJqZxM8jbucRdAlgMwLYhM+K6JjlzmgUI6Tw4+un8PXH0LHGlj5ElFgA
        kO1fEco2cPyLvyzdM5CR8kjkOYYX8SO9iIBeaIbmX1x44mQBIFZjjMrIJarzqbIi2eR1FUlXx8sQ94nRYvmMziX2wVSpKfKEoLLWzmukhAOc2rCNpyvy9HTCt92O3pN+
        N+7BF6oSXNjjIewxBbwl1NF3voktWU6WoTHP4CitHBzXOEHak/TY1S1rusF/3sGDNrj5EjxXic0NPmwriUFkcSDaMUQbmM7UcpQC6tGLQXpmAfFNHyN8ywM3y/NUUXDa
        Mc5rRbbs4WKeURigWheZO1Bsl+hajubHheI9e91BYxDRc+EQV0CUSgpl3Rxif+jrc44NWYf/9ZrBbGcVNkshuURPg1DGsDQjgiota739qqwwObk6G53rbcWT6s8v1Fn3
        7kq/Bbd4kxMylZyQBa6+KXLrDGPBbX6RawN7AWrvOhWhqz/BaybQI6MpTq1zQScVIyxtzSJVim0mLrs9VylUDcuiNWyhalcuVbsWCVqDj6A1NB1epIgq9PZiTU40hDRG
        ehFjEfQopjEWyjGkJI+BxfvJ7b9k0iQlwIlyhJLmh/vSmvveNpq9SXNrtfb2EWwnuDKMWjvBs/VItRvtbDs67QTN9iPSTuDkGIV2gyv7yLMbXNuPNrsx7gwjzEcAOi5v
        Fd7hr5cvb1/AsuhUuGdCtWcrWpd/HxaqM0NQVK4+q9c77Zbs3Vd5tdrESzKgU4UqXeBClc9bpzas2Ikse1KkhK0fz+T1odqIrubK4xgfL+EH6Li2bLrx9ItrWwOlXPWZ
        8kVS43CadZp+p/DsUTKxPFJsxZQTeCxbAIBOO5lg0/0g1obB4PPVDv5SnR9tiWjSrYxl9hNlmbXDvSpK1mnP1ULCYaTC9cWHxgzwk6Zt/7mtX43di/YXYsZHO3yAR8i6
        v3topPmSqv/87dqWCi2DgNmQ4vytWoZhmeGHS+DzJ4lWvP/J+dv0NBfYhE975eDNJqxV3L+xNv/q1gyKf1SOZuARdlfXYEsDzTWAMwm6ML/yMW2PNaRpw9NdbarPFTfX
        MVuGZYTje6OsJKBK/nq8OfQ3csGvvel0/teu16S5/GvS3Vm8pLoVHQrDalDPjKPhsykXD1/fmK5ZOKe5omBseytL8sLo8Jeecemi4Ct+ScR838m0SC5aZoVxcR6ZYWgq
        xQEzFceQ4BXewdISK/ECLXFbRLG3GP3HVJ6rdPFuJSePboarGNOKCfRnJ3PluVZMxHJv3pcpvnE/uXm+PDy15NNOr3c/2/OUvxzLneMQQ+gGoiI+SzaLekVQaFOjq8f6
        vcXWx/Xq/dPdodkfXI8w75z4PKvvXN5Jje6vtSOYQBZg+b0W46vZz9tRqXaK7zbGd4tYdHHwte/iDEp7KhKw7h0SDQh/EwwBEWqm+m9cbAxElqwMy4wZ/XYns/oZfXU3
        i3pb2v9OwOSx+Z0AyxjFPiYx3uAEb8yMBXLVxoSsrwZYJyXMYeSB7M0at0yHfLiuDLo1S6pfv3zB7Q100bY38Pmnkj4Lr7zg2zC0HjrdRfQtYr7Nbk8m/zJk8k+z1eFd
        WO80Hta7hG6gC3eqNu4yDlNrhISj1IM5vH+otWz3RpOfyU77+bApT/dvr9mS5553l3nWJYtirowm38qW6QLNXyeV58tSpeCZabrmPsfzXskr8VZlgvBpe3qgweGA0Ewo
        K3nxHxsJgJdl/xYnFgqVbkO/sa3Z/BryfBdbGFuOizwo2MzS8+Q+fH134WKo8WPTMkurvliZdMaD6xTqN54ys85eXgYvl1d3Wm3aeXioNs6UetqR1zvxRzowOlXm2l7K
        f9f67rZ+m91n121NWYMqZfcr7GFxkR2dLG/aUPpIS6bKz9jOhBGb9/3bJulKf546NcE4Uz/8GbUuW/3Nz4kq1nOi2K3S+DcE1p1U09VKr4eQnRRbsbBzm2EOkM4HkDKH
        5mlJxIOraSavDkm9dYVnBZ5/X0zw57Y/lPjeWVJ96qfj2goIxhhowj6kV0aSLTt0EhcXJ8BB2G1HpMSTEqaHrw2TSbAhbu/o24OEZqcM9FTBTVK4lNS1ndTyFMquwwrs
        F4jDG/xTAzL+HSU9NY5uQMUP59qZJnWoA4cmB/vujZgJmaJA0njAnGggiUrB33gjwOlL7GnWbOebEVbXPm/J/0h0Urgavhjz2rKMKAfkXa5BdaYP15eK+3LiaJfdp0pd
        xZKn00XO/xjpS+R/6yeUJZKVMAVJlUIzLf+NTOh7zwQBEyo6hYrGHbdVJoWHSWlJoDAFcJVNoWKxa4lL4eGw4+FTeHjseIQUHgE7HjGFR8SNZxrHoi5IhyJMwXFKo4Do
        AgBiUEBMAQCxKCDsEWjKoXC4AuiHRwHxBQAkoICEAgASUUAifkAGhW4uQMMQJjx0Cg+NO401Uu9DQIMQJjxsCg+LXT9cCg+HHQ+fwsNjxyOk8AjY8YgpPCJuPE4cf3qW
        buGPPw6dwoO9FnOYFB7s8cdhU3iw50AOl8KDvQpz+BQe7FWYI6TwYK/CHDGFB3sVlhD2FNdLGIUsJu0UbMUUxNvfNOyvyxmsWVPElDi769bvPuf8vbhIryFOoon71mP1
        pHWvvVxXtJZ0ZdfOYUensz3BpkgEm0v53uNvKap3CABP0ZKg3D43ZnuCzZ5gUxyCjSAxBePXiKTASl+KX8OSFFsofg187qzIFo9kw/MiSxWRZAOjNyUWj2QjcrTA7Ik2
        m4g2RxRNvzdl72vRbcgjieYpoVikG+qrkm4cqslr19RVT9VOTklFHGmNnrkn3fz7SDciKfFS0Ug3e7rN63SbPdHmdaLNkcjTuJLL9XQbiIqi+T3pZk+62ZNuPpJ0gw3Q
        nnazp918FO2G2tNuXqXdUHvazau0G7JgtBtyT7vZ0272tJs97WZPu9nTbva0mz3t5qNoN0eUwIjc55zHl5bIN8F7OsP329RU6emGLV/96jxR5IPUUk5PvSLQbwo2hc/l
        msEHZgUtDSu43Q2COEEBneDOFO8aYBi/ha9qW44zAsMCHOhZi5c7ax7QibZlYg/bWnwCWSvgehDdMXA+PTOQQYlnXedZHis1RQfPUXz6Xec7j+fDWp+n7Rvbrl0f3jy4
        +3c7raaeMe+7zIgre/OP8llxrA8mODXkvc0oGYqhJEzLMP04NvmeQvS19LvJWQrXCbaPTsJd8a0a+ztiam6iKv/AOfwDSyM+4FJRhgMgT1Aum8hLmGqUnttPFymLVkXS
        Aifiwnb9uACuIObVc2sLtR2xaGeY2Lt2Kqcilo0NU/4Zj/Sp81OxeaPWTnKqqQcLo92fSv7+GRWD1ntukGIE/jKI35d58yAfDnvc9W8gvkydIdf8bRp7Ov/KnEr8Esyt
        IHVZlcXQmByvbyAk5VKY8ceoGEZkcNGBYw6nT3QketpLij5NSoyASWWn8VSZralj9CEKlIgL1MXaCTNBYiVM7ODq2F4z40oVcJj5HOzg4/Lqd2kfl1W7ZMPU4uf378Hu
        FKC7MHOU52zh4SCJxFE/j8PvdMUeAhcEfYWXRpoavY08/DYoaJFBLrpO6JY8mb+pfO6o50RXGQIdCd7Btz4WOO7BrvnPgPZ3ZBCObs0/wu9dS1X19OnTr7dyrsmTmjUz
        NzRECgzSEJU0RG3bUG/mp0cE9XpDFMlKSEN0/oboDQ0xJIc0xORviEk1RC01xPHoM2LRhtC3wsfOlVjvynRnPsTPDzwFT6XY4QjoOqU4y4sPIScCwaVlTw1fQ+/Zup/g
        uED1j0+CvjD/ZKtKqJh55hVemYvxXT+64BmDwKoRpZUTrWVSJLtBkSIlIIrkMisyNRO3azXyH6NGalmN3OtqpFGz57MrcX4GJ/zvMaMSmbQSt1bdotqWlFZ6D63xG7Qm
        ok4s5FXbpfLkZlQbXUC19T3T3wr0msI4BnVWMbPCwibe4qY9/who6KfB3q4ttcYuu6nzMW4qvq4/f+tvoj8ps/7a4XHRytt02AfTrXVH0cvK60/fd6ioP8HOmkCfZ0eb
        sgmaodFsgsqTIC20uCGtoDkRja8UlbXFS2VGhNvSXm8JPc48aW9VwoRqeSE7DW8A/pgIsWyRq84f5lKW6iNAEtDIlsqbfp6kn3MJVFoCtVlCklfOJdB5JdCRBCavBCaS
        wOaVwEYSuLwSuEgCvyghNbMUiAhMKxUewoF62UHnrW2JgY8wCLkx0PkwhKPGvHUxrw7FSIKUWcJyfArtOrtrLAeeUBSVTVQqooQi1jnJcTkMBeHHDztp63he768oqdmD
        5Tng0jzs6ZrjKqY/eeA3snAtTYU7TmCV/JiXyE/voz4OVZU0hRQ9SSgsofXbluNphlw/NHIU8Lt1hV/bFe6TdYVd2xMxX08cXD0JM6VVXZHydeX1POuVrqCzZQseFd/i
        mGDqjC0XnWSLrwW+GH9ae7DecXlBynF5IQSEl7c6ei+WGt4YrHokyXDy81gbNB+ftjwzBEXl6rN6vdNuyd59lVerTX+pqJxDLCdEYv889CZjsjNu1Y3yeW9C87dDclrJ
        J5ZnN76OIBdYPqZIXj3W7y22Pq5X75/uDs3+4HrUzakDhozFXp2NzvW24kn15xfqrHt3pd+C25xoGZHZePJoHiWIYiS2wvXFh8YM8JOmbf+5rV+N3Yt2zidGkcJGelce
        tBKz8ZDwXGjpjWTZPGiF2BLUhm08XZGnpxO+7Xb0nvS7cQ/yomU2noiTQyq58ajFHEI5auP75fIogKY2rnPHGdxSAJ0vaSytYswXN2CbwB8PyvOPsI2wQiRGlm0YwASq
        jyA+Tte/CcBh5FEpBRMBwB0T4edwmsCyhzBvjZCLCxMGoQj0Xs1UYRYJh8FgdCr/DJZfNNNxbc8ITowde+bk5/f/AQg+GQNhdGFkAgAAAEROU1NiaWx6FgAAABAAAAB4
        2mNiYGDQ9fTTNXXP9AMyGQARpQInAAAQAAAA
      >
      FLOATPOS 1124 78 1035 897
      FXID {F0793945-9DEE-403B-A584-B17A47D3031D}
      WAK 0
    >
    <ITEM
      POSITION 27.84
      SNAPOFFS 0
      LENGTH 22.08
      LOOP 1
      ALLTAKES 0
      FADEIN 1 0.01 0 1 0 0
      FADEOUT 1 1.235748 0 1 0 0
      MUTE 0
      SEL 0
      IGUID {F5943B8A-519C-44FB-9034-E5F5F2307FDB}
      IID 50
      NAME "05-Bends Left-141116_0017.wav"
      VOLPAN 1 0 1 -1
      SOFFS 0
      PLAYRATE 1 1 0 -1 0 0.0025
      CHANMODE 0
      GUID {2ACF6809-C541-4AEB-A9E9-186C99941837}
      RECPASS 21
      <SOURCE WAVE
        FILE "05-Bends Left-141116_0017.wav"
      >
    >
    <ITEM
      POSITION 79.68
      SNAPOFFS 0
      LENGTH 16.31142160622255
      LOOP 1
      ALLTAKES 0
      FADEIN 1 0.01 0 1 0 0
      FADEOUT 1 1.228559 0 1 0 0
      MUTE 0
      SEL 0
      IGUID {EC1D6B02-406B-4637-8EA3-1C7018A4B9E7}
      IID 55
      NAME "05-Bends Left-141116_0036.wav"
      VOLPAN 1 0 1 -1
      SOFFS 2.88
      PLAYRATE 1 1 0 -1 0 0.0025
      CHANMODE 0
      GUID {7A3233AA-052D-49B8-87E9-74313C674043}
      RECPASS 25
      <SOURCE WAVE
        FILE "05-Bends Left-141116_0036.wav"
      >
    >
    <ITEM
      POSITION 138.24
      SNAPOFFS 0
      LENGTH 36.33768707482994
      LOOP 1
      ALLTAKES 0
      FADEIN 1 0.01 0 1 0 0
      FADEOUT 1 0.01 0 1 0 0
      MUTE 0
      SEL 0
      IGUID {8C9DDF4B-7AE8-47D8-8B45-4485487C7F89}
      IID 57
      NAME "05-Bends Left-141116_0039.wav"
      VOLPAN 1 0 1 -1
      SOFFS 3.80845804988661
      PLAYRATE 1 1 0 -1 0 0.0025
      CHANMODE 0
      GUID {BA6259FE-E94D-467B-9174-0C0452CDAC55}
      RECPASS 27
      <SOURCE WAVE
        FILE "05-Bends Left-141116_0039.wav"
      >
    >
  >
  <TRACK {DEAC3FEB-510A-44EF-8EC3-79F60E20FC1D}
    NAME "Bends Right"
    PEAKCOL 16576
    BEAT -1
    AUTOMODE 0
    VOLPAN 0.35790764284478 1 -1 -1 1
    MUTESOLO 0 0 0
    IPHASE 0
    ISBUS 0 0
    BUSCOMP 0 0
    SHOWINMIX 1 0.6667 0.5 1 0.5 -1 -1 -1
    FREEMODE 0
    SEL 0
    REC 0 4 1 0 0 0 0
    VU 2
    TRACKHEIGHT 0 0
    INQ 0 0 0 0.5 100 0 0 100
    NCHAN 2
    FX 1
    TRACKID {DEAC3FEB-510A-44EF-8EC3-79F60E20FC1D}
    PERF 0
    MIDIOUT -1
    MAINSEND 1 0
    <FXCHAIN
      WNDRECT 1163 26 1139 944
      SHOW 0
      LASTSEL 0
      DOCKED 0
      BYPASS 0 0 0
      <VST "VST: Guitar Rig 5 (Native Instruments GmbH)" "Guitar Rig 5.dll" 0 ""
        NUdpTu5e7f4EAAAAAQAAAAAAAAACAAAAAAAAAAQAAAAAAAAACAAAAAAAAAACAAAAAQAAAAAAAAACAAAAAAAAAEYTAAABAAAAEQAQAC1pbi0CAAAAI05JI0NTI0RvY3Vt
        ZW50IyNOSSNTb3VuZFNoZWxsI1NvdW5kIwAAAAAAAAAAAAAARQEAAGF0YWQCAAAAZG5zc2JpbHoWAAAAEAAAAHjaY2JgYND19NM1dc/0AzIZABGlAidhdGFkAgAAAG9m
        bmliaWx6BwEAAHgCAAB42o1Sy07DMBA8k6+wfC8OUg8IOa6EBFyjFE6Ig9tuikWyjuxNRf4e59kQCdqLtTM7M7u2LDffZcFO4LyxmPC725gzwL09GDwm/O31eXXPmSeN
        B11YhISj5WyjIultjUGU27N5HcdcRRFjsnK2AkcGvAowEKhLUO9bChENSy02LGvoE8oPKbpWaxJzV0vsNH6NAW2tXmpD2rHMHNlaio7qjIOwrfe2rMIQpNE4EQv3mf9P
        x1JnF9oZHGZqImd2NU23nYgeB+akixrUYzi8FD0YW7UHt/JAKksfhNhSU4C/GZRTr88Vi+A/Bz3lOezp16Trzf0K16x5YcEZbF9KiunPqOgHCSDGC2F0YWQCAAAAdHNy
        cGJpbHp3EQAAosYAAHja7V3ZVuO60u5z20/hxW2vEM/DXnSfFTIRIJ1AQkP36hslcRwTD8EDAR7kf6T/uY7seJAz20Bk2O6bJrJd+lSqKlVJJYm4bN/958uXL//3/1++
        nPz3SdeIR9myVdP4fkQdk0eEbAzNkWoo349u+o2SeETYDjBGQDMN+fuRYR4R//3x9USxSqphO5ary4ZTGk5cY0oMXFUblQxXH8jW9yOaZ6kjYmjqM/ghfGcGhtOSOoKV
        SALJSrwo0kfE2AK6PDetxRNYuQ7uTasUAeJgiTq0zLjEe0c10HdgLTNLtuUNVTiqDnH3XZmoyUOCIQmS+oem/yFFgiYp9ujH168EcWKbrjEqjYADBsCWCUUzB0Ar6bJj
        mYap+7VOVFhJSTdHcgBipMJ2A8OQNVghf1ReUIKMsSAMhKewCgL+OxmrT6WIHTYB+VRSHVm34Sts8M7yW4TXGFEiSVihAbx2XF9Er8KXvRc12ZHjoqBw89eE63rFA0f5
        c9+wK6B++zRoSaeaY4L+1ffvRygplFhJcdXkM/j0UZXnSBfD1sw04MilATCm34+O1j1aAPGEyrTkUcmjEDCVPSKWf9nqQIN/j4Fmyx6DE5WXt2BDcAN3pJpxd9BHK62Y
        AU8KHfgGlH0Aa4TfOKYOnFDgvK6KX/IlDuqEow4TL1IrlFHafmeolbAnWoanVUO5MnTURxm2FWiuL1irNCAVTygRBIQl6ybkpQ6efDDhT9WHW14Doxx9vNL6+JG9mcE+
        ExNSFj9E5LG8KpAnkW5aToTspJwQ8y3Cz6PSqyrEhWlAndRSKsEmKoEyNGvT5ln3hmZOm5yhVK7P247VqWBVBiqhDFSOlYHcoAzlPEoTs14QCDqtQG0mFMhU3Zw0qMHk
        bj59/vN4ytTFuXL3XBjYwsDmTCXETZLMpHU0NhMKzazsco8tg7+pgyqjSpzols+6SqEShUrkSyVoRJArfk+2jJTKsJZEoAYPpjq7ms1vayT98rt29ke9dgeaUngbn87b
        oBB7CEPClCK0/HUgPX8eetMJ2Zm06nr5ojel+dsROasURnRVeqhV6RGyGlHEhs5ch2gC1Yjt5zF3cAu6ArAZAmzCviI6RrkzHkcIKfz4+gl8/QlUrImpjRAm5gBk+1eI
        sg1sr/CXqbk6MlIeizzH8CJ+pJch0EtVV73CpR4ncwCxGmGUxw5RXUyV5Ukmr6uIuzpZhVg4RsvhMzqX2AczuSYPpwSVNnbeQCUY4JSGpT9dkWdnU77tdLSe9LtxDz5R
        lODAFo9giyngrqAOn3kitiI5aYbGLIOjtHZw3KAESU3SIlU3zdkO/XkDDdqh5ivwHDkSN9jZZmyDyPxAtCKIFjDsmWnLOeSjG4F0jRzimz2G+FYHbpbnqbzgtCKc1/LQ
        tEbLfkZugKpdZO5Athyia9qqZxfy1/eajdogoufAIS6HKOUEyroxwt7pm32OHV6H93jDYHawCJulEF+ip0IoExiaEX6Uljbe3korcE6uzscXWlt2pfrzC3XevbvSbsEt
        XueETDgnZI6jb4rc28NYUptf5EbDnoPYu06F6OpPsMwAWig0+Yl1Luk4YoShrZGnSLHNRGG368i5imFZNIbNVezKJWLXPEFr8CG0hqrBQoqoQm3P1+REQ0hipJcx5oGP
        YhJjrhRDiv0YGLyf3v5LJk0SBOzQRyipnrkvbXjvdaPZqzi3kWuvH8EOgivFqHUQPHuPVIfhzr6j00HQ7D8iHQROhlHoMLjSjzyHwbX/aHMY4U4xwrwHoJPyXuYdfr1a
        vH8Ay6JT4a4B2Z4uaF39PghU57ogK1x9Xq932q2he1/llWpzjjVQpROBKo0Eqo7l5ilO5bOGqQ0z0iHTmubJX+tHE3l9yDaiqzrDSYSPl/ADtB1raDjR7ItjmQO5XPUS
        5fPExtEs7Sz9QeFZ43heeSxbsjGM4bFsDgDa7Xh+TfNsWBvago8XOngrdZ6xJcI5tzKWyU80yawdbFWR0856ricSjCIVri8+NOaAnzYt689t/WriXLY/UWJ8uMEHuMRQ
        8zYPjVWPUvWfv13LVKBkENAZku2/VVPXTSP48RN46ZNEK9r+ZP9tuqoDLMLLeuXgywYMVZy/ETf/auYckn+Uj+fgETZXU2FNA9XRgT31m7AoeZ+6JypSte5qjjrTFoxb
        8JgtwyjC9rRxKMegSt5yvDHy9nHBx+5stvjr0EvSXPYl6e48WlHdKxsKw2JQz4is4bMxzB++vj7bsG5Oc3nB2HbXRuS54eEvLeXKRc4X/GKL+bZzaSFdNMoK7OLCMkPT
        VIoMZsKOIcYreIOlJVbiBVri9rBirxH69wk81/HizSJOHt0LV9FnFQNoz3bqwHMjmcBz6NwwGvesqK2b51N30r05v3ycdIrtT58vyZ3jEEHo+qTCdJZ0ErWFUCBT46vH
        +r3J1if16v3T3TejP7ged+fF4vsbu1LLjtSvjSOYQOZg9b0W4atZz/tlUh0U322E7xaR6Pzga99FHpT6lCdg3TvEGhDeHhgCIlQN5d+41uiTLJkpVhlT6u1BJvVT6uph
        1vT2lP+DgMki8wcBltKKvY9jvEMJXukZC+S6fQlpTwbYRCXwYYaDoTtv3DId8uG6MujWTKl+/fIJdzfQedvdwGefSvooaeU534Wh9tDpLqJvEotddkUu+afJJf8wOx3e
        JOmdxpP0LqH754KNqo27lMPUBiLhEQXG6P6h1rKcG3X4THbaz9+aw1kxe7NnmnvWTeZplyzyuTIaPx2ahgNUb510uFiWKvl9pmqq8xzNe8Un4q3zBGFvu5rPwdGAUA1I
        Kz73jw0JwOKh94odEYVMt6DeWOZ8UYb073INE9N2kI6C1az0J/fu67tLhQHHTwzTKK17sNbpjAbXGeRvNGVmnr+8DF5+Xt2ptVnn4aHaOJfrSUXerMTvqcDklvSfjbq7
        r96m19lNO1M2oErI/Rp5WF5kRyfLmxakPlbjqfJztjNlxOZ9/7ZJOtKfp05N0M+Vd++j1s9Wf3c/UfnqJ4rdy41/hWE9SDRdrfR6SLKTbMkm9tRm6AMk/QEkzKF5WhLx
        4Goa8ckhiUNXeFbg+bfFBD+3vKHE086S4mV+2o4lA3+MgSLsQdoykuzZoNMouDgFNpLddkxKPClh6nx1FE+CjXBrR98axGl28kBLBNwkhYtJXctOLE+h2XVYgf0CkXmD
        f6pgiH9DSU+JrBtQ8MO5tmdxHGrDocnGvnkjyoRMpEDSeMCcqiC2Sv7feC3A2Uukaeb84HsR1sc+r/H/SHRSuBqci3ltmnroA/IO16A6s4frn7LzcmqrP7tPlbqCxU+n
        8+z/MdKn8P82TyhLJCthMpIKhXpa3oFM6LFngoAJFZ1AReO22wqTwMMkuCRQmAy4wiZQsdi5xCXwcNjx8Ak8PHY8QgKPgB2PmMAj4sYzi2xRFyRNESbjOKNRQHQOADEo
        ICYHgFgUEHYLNONQOFwO+MOjgPgcABJQQEIOAIkoIBE/IJ1CNxegZggTHjqBh8btxuqJ4xBQI4QJD5vAw2LnD5fAw2HHwyfw8NjxCAk8AnY8YgKPiBuPHdmfnqmZ+O2P
        TSfwYI/FbCaBB7v9sdkEHuw+kM0l8GCPwmw+gQd7FGYLCTzYozBbTODBHoXFCXuy48YZhSwm7uRsxRRE299U7KflDDasKWJynJ1N63cfc/5eXE6vIU7DifvWY/W0da++
        XFfUlnRl1S5gQ2fzIsEmTwk2P4f3Ln9LUb1vAPAULQny7XNjXiTYFAk2+UmwESQmZ/k1Iimw0qfKr2FJis1Vfg3sd1Zk85dkw/MiS+UxyQZab0rMX5KNyNECUyTa7Eq0
        OaZo+q1T9j5Xug15LNE8JeQr6Yb6rEk3NtXk1Wvqqqeop2ekLI7VRs8okm7+fUk3IinxUt6Sbop0m+3pNkWizfZEm2ORp3E5l5vTbSAqiuaLpJsi6aZIunnPpBtsgIq0
        myLt5r3Sbqgi7WZr2g1VpN1sTbshc5Z2QxZpN0XaTZF2U6TdFGk3RdpNkXZTpN28V9rNMSUwIvcx5/GlleQb/5zO4HybmiI93bDlq1+dJ4p8kFry2Zmbh/SbnE3hc5lm
        8IFRQUPDCm51gyBOUUCnuD3FuwYYRafwVS3TtsdglIP7PGvRcmfNBRrRNg3sZluNbiBr+bkeRHcC7A+fGcigiWdd+3k4kWuyBp5D+/S7znceL0a1Pk9bN5ZVu/528+AU
        ZzutTz1j3naZEZf35l3ls+ZaH0xwasi5zWgyFENJmJZh+pFt8jSF6KvJs8lZCtcFto92nLviSTX2M2JqTswq78I5/ANLI7rgUpZHAzCcorlsIi9hilF6Tj8ZpCxLFUkL
        nIgL2/XjEriciFfPqS3FdsSynGHK3rUSPhWxKmyY/M9opE/cn4pNG9V27FPNXBgYbb8C7WN4VAwa7zm+i+HryyA6L/PmYfht1OOufwPxZWaPuOZvQy/S+df6VOKnyNzy
        XZd1XgyNSfH6OpKkXAo8/ggVw4gMrnTgKIfTS3QkeupLIn2alBgBE8vOoqkyS1UmaCcKlIgL1OXGCTNBYiVM2cHVibVhxpXK4TDzMQL3k/L6s7RPyopVsqBr8ePrV393
        CtAc6DkOF9nCo0FsiUPenwTPNNkaAQf4bYVFY1UJTyMPnvoBLTLIheWEZg6ni5PKF4p6QXTlEdAQ4+0/9bDAcQ82zesD2tuRQdiaufgJnzumomjJ26e313KhDqc1c27s
        qIgUGKQiKq6I2rei3txzjwhqe0UUyUpIRXT2iugdFTEkh1TEZK+ISVRErVTE8WgfsWhF6KnwkXLF0rvW3VkM8YsLT8FTKTICBFSdUqR+0SXkhE+4tKqpwTH0rqV5Do4D
        FO/6JKgLi1+WIgeMWXheQcmCjKf6YYGrD3ypRphWjrmWipHsDkaKlIAwkkvNyMRM3KHZyL8PG6lVNnLb2UijYs+nZ+LiDk7432NKJjJJJu7NumW2rTCt9BZc43dwTUSV
        WMjKtp/yk5OSbXQO2dZ3DW8r0DaGcQyqrGJqhgVVvEZNe94V0FBP/b1de3KNXVVT+33UVNzOP2/rb8w/KTX/2sF10fLreNgHs715R9GrzOvP3naoqD/BxhpAW3hHu7wJ
        mqFRb4LK4iAt1bjDraA5EbWvFJW2xp/ynAi2pW2vCb3OPK5vncOEcnnJOw1eAN6YCLHs4asuOnPFS/UQIA5oKEvlXZ/H7ueCApWkQO2mEPuVCwp0Vgp0SIHJSoEJKbBZ
        KbAhBS4rBS6kwC9TSMws+SR80UqYh2CgXlXQRW17YuBDDEJmDHQ2DMGosahdzMpDMaQgpaawap8CuU6vGquGJyBFpSOVsCgBiU1KclIOTEHw891u2jpZxPtrQmr2aHUO
        uLQwe5pqO7LhTR54lSyVJVPhTmJYJc/mxfST+6hPAlbFVSFBT2wKS2j8tud4msLXD4QcBfxmTeE3NoX7YE1hN7ZEzNYSG1dLAk9pXVOkbE3Z7mdtaQo6W7akUdErtgFm
        9sR00Em2qMzXxejXxov1TspLVE7KSyYgKN7r6r2IavCiv+oRO8Px5xE3aD66bXmuC7LC1ef1eqfdGrr3VV6pNr2lonIGspwQkv3z0JtOyM6kVdfLF70pzd+OyFklG1me
        3XkcQSawfJQiefVYvzfZ+qRevX+6+2b0B9fjbkYeMGRE9up8fKG1ZVeqP79Q5927K+0W3GZEy4jMzptHszBBFEOyFa4vPjTmgJ82LevPbf1q4ly2M/YYRQo707uyoJWY
        nZeEZ0JL70yWzYJWiCRBaVj60xV5djbl205H60m/G/cgK1pm5404GaiSO69azECUo3aeL5eFATS1c5078uBWDOhiSWNlFWOxuAHrBN54UF78hHUEESIxNi1dBwZQPATR
        dbreSwAOI49yyZ8IAM6ECH4H0wSmNYJ+a4hcXJowCEig76qGAr1IOAz6o1P5h7/8ohq2Y7m6f2PsxDWmP77+DyuTGw5hdGFkAgAAAEROU1NiaWx6FgAAABAAAAB42mNi
        YGDQ9fTTNXXP9AMyGQARpQInAAAQAAAA
      >
      FLOATPOS 1124 78 1035 897
      FXID {F0793945-9DEE-403B-A584-B17A47D3031D}
      WAK 0
    >
    <ITEM
      POSITION 27.84
      SNAPOFFS 0
      LENGTH 22.08
      LOOP 1
      ALLTAKES 0
      FADEIN 1 0.01 0 1 0 0
      FADEOUT 1 1.235748 0 1 0 0
      MUTE 0
      SEL 0
      IGUID {8D52C61D-9653-4BEF-B70A-59BD7036EFA0}
      IID 54
      NAME "06-Bends Right-141116_0025.wav"
      VOLPAN 1 0 1 -1
      SOFFS 0
      PLAYRATE 1 1 0 -1 0 0.0025
      CHANMODE 0
      GUID {E86C5229-2A8A-43C4-8810-EAEDA002B8EB}
      RECPASS 24
      <SOURCE WAVE
        FILE "06-Bends Right-141116_0025.wav"
      >
    >
    <ITEM
      POSITION 79.68
      SNAPOFFS 0
      LENGTH 16.32052204437255
      LOOP 1
      ALLTAKES 0
      FADEIN 1 0.01 0 1 0 0
      FADEOUT 1 1.23766 0 1 0 0
      MUTE 0
      SEL 0
      IGUID {9C066175-CC6D-4C6B-B65F-73F9CFADA6F5}
      IID 56
      NAME "06-Bends Right-141116_0038.wav"
      VOLPAN 1 0 1 -1
      SOFFS 2.88
      PLAYRATE 1 1 0 -1 0 0.0025
      CHANMODE 0
      GUID {F302A501-1BD1-43A2-BEEA-E0A072F4DD87}
      RECPASS 26
      <SOURCE WAVE
        FILE "06-Bends Right-141116_0038.wav"
      >
    >
    <ITEM
      POSITION 138.24
      SNAPOFFS 0
      LENGTH 37.18523809523811
      LOOP 1
      ALLTAKES 0
      FADEIN 1 0.01 0 1 0 0
      FADEOUT 1 0.01 0 1 0 0
      MUTE 0
      SEL 0
      IGUID {5D80C0FD-2563-4C26-A4D5-23E2F08ACB7C}
      IID 58
      NAME "06-Bends Right-141116_0040.wav"
      VOLPAN 1 0 1 -1
      SOFFS 2.84480725623584
      PLAYRATE 1 1 0 -1 0 0.0025
      CHANMODE 0
      GUID {3B3BEB20-5B84-4F8C-9F08-D6C0AB54C1FB}
      RECPASS 28
      <SOURCE WAVE
        FILE "06-Bends Right-141116_0040.wav"
      >
    >
  >
  <TRACK {64C33791-B706-41B0-8010-AEFBB11F8A08}
    NAME "DM L"
    PEAKCOL 16576
    BEAT -1
    AUTOMODE 0
    VOLPAN 0.26709158557142 -1 -1 -1 1
    MUTESOLO 1 0 0
    IPHASE 0
    ISBUS 0 0
    BUSCOMP 0 0
    SHOWINMIX 1 0.6667 0.5 1 0.5 -1 -1 -1
    FREEMODE 0
    SEL 0
    REC 0 0 0 0 0 0 0
    VU 2
    TRACKHEIGHT 0 0
    INQ 0 0 0 0.5 100 0 0 100
    NCHAN 2
    FX 1
    TRACKID {64C33791-B706-41B0-8010-AEFBB11F8A08}
    PERF 0
    MIDIOUT -1
    MAINSEND 1 0
    <ITEM
      POSITION 0.02679183813443
      SNAPOFFS 0
      LENGTH 62.74164353601456
      LOOP 1
      ALLTAKES 0
      FADEIN 1 0.01 0 1 0 0
      FADEOUT 1 0.01 0 1 0 0
      MUTE 0
      SEL 0
      IGUID {14445D50-0991-49C7-A6FD-E451C6C888F7}
      IID 3
      NAME MONO-000.WAV
      VOLPAN 1 0 1 -1
      SOFFS 0
      PLAYRATE 1 1 0 -1 0 0.0025
      CHANMODE 0
      GUID {7C4B0DE3-12CE-43A8-9979-A19AFA303FC1}
      <SOURCE WAVE
        FILE "D:\2014\Zoom\PROJECT\STNPNY\AUDIO\MONO-000.WAV"
      >
    >
    <ITEM
      POSITION 62.76843537414899
      SNAPOFFS 0
      LENGTH 137.31949025083358
      LOOP 1
      ALLTAKES 0
      FADEIN 1 0.01 0 1 0 0
      FADEOUT 1 0.01 0 1 0 0
      MUTE 0
      SEL 0
      IGUID {D5274DBC-6045-4543-9F31-45BED220FA6D}
      IID 3
      NAME MONO-000.WAV
      VOLPAN 1 0 1 -1
      SOFFS 62.74164353601456
      PLAYRATE 1 1 0 -1 0 0.0025
      CHANMODE 0
      GUID {A7EBE5D8-BD92-4C12-A2EE-E9C767999E71}
      <SOURCE WAVE
        FILE "D:\2014\Zoom\PROJECT\STNPNY\AUDIO\MONO-000.WAV"
      >
    >
  >
  <TRACK {050B220B-AD4F-4BEA-B412-A30BCB575EA2}
    NAME "DM R"
    PEAKCOL 16576
    BEAT -1
    AUTOMODE 0
    VOLPAN 1.08125952860623 1 -1 -1 1
    MUTESOLO 1 0 0
    IPHASE 0
    ISBUS 0 0
    BUSCOMP 0 0
    SHOWINMIX 1 0.6667 0.5 1 0.5 -1 -1 -1
    FREEMODE 0
    SEL 0
    REC 0 0 0 0 0 0 0
    VU 2
    TRACKHEIGHT 0 0
    INQ 0 0 0 0.5 100 0 0 100
    NCHAN 2
    FX 1
    TRACKID {050B220B-AD4F-4BEA-B412-A30BCB575EA2}
    PERF 0
    MIDIOUT -1
    MAINSEND 1 0
    <ITEM
      POSITION 0.02679183813443
      SNAPOFFS 0
      LENGTH 62.74164353601456
      LOOP 1
      ALLTAKES 0
      FADEIN 1 0.01 0 1 0 0
      FADEOUT 1 0.01 0 1 0 0
      MUTE 0
      SEL 0
      IGUID {3F73CBD7-9677-43E0-A61C-0918DFACB0B0}
      IID 4
      NAME MONO-001.WAV
      VOLPAN 1 0 1 -1
      SOFFS 0
      PLAYRATE 1 1 0 -1 0 0.0025
      CHANMODE 0
      GUID {04A61E90-3623-45EE-BB8B-ED121C6AD0BC}
      <SOURCE WAVE
        FILE "D:\2014\Zoom\PROJECT\STNPNY\AUDIO\MONO-001.WAV"
      >
    >
    <ITEM
      POSITION 62.76843537414899
      SNAPOFFS 0
      LENGTH 137.31949025083358
      LOOP 1
      ALLTAKES 0
      FADEIN 1 0.01 0 1 0 0
      FADEOUT 1 0.01 0 1 0 0
      MUTE 0
      SEL 0
      IGUID {E60DD750-14E8-405C-B175-CF78E265B7C4}
      IID 4
      NAME MONO-001.WAV
      VOLPAN 1 0 1 -1
      SOFFS 62.74164353601456
      PLAYRATE 1 1 0 -1 0 0.0025
      CHANMODE 0
      GUID {696A9EA7-403C-47C0-94F9-7735C7C4403E}
      <SOURCE WAVE
        FILE "D:\2014\Zoom\PROJECT\STNPNY\AUDIO\MONO-001.WAV"
      >
    >
  >
  <TRACK {5E3F3D3D-F2CF-4068-8938-02FC50E5EE4A}
    NAME timelords3
    PEAKCOL 16576
    BEAT -1
    AUTOMODE 0
    VOLPAN 0.12007554149779 0 -1 -1 1
    MUTESOLO 1 0 0
    IPHASE 0
    ISBUS 0 0
    BUSCOMP 0 0
    SHOWINMIX 1 0.6667 0.5 1 0.5 -1 -1 -1
    FREEMODE 0
    SEL 0
    REC 0 0 0 0 0 0 0
    VU 2
    TRACKHEIGHT 0 0
    INQ 0 0 0 0.5 100 0 0 100
    NCHAN 2
    FX 1
    TRACKID {5E3F3D3D-F2CF-4068-8938-02FC50E5EE4A}
    PERF 0
    MIDIOUT -1
    MAINSEND 1 0
    <ITEM
      POSITION 3.72
      SNAPOFFS 0
      LENGTH 59.04843537414899
      LOOP 1
      ALLTAKES 0
      FADEIN 1 0.01 0 1 0 0
      FADEOUT 1 0.01 0 1 0 0
      MUTE 0
      SEL 0
      IGUID {4463239F-93D5-43D2-8A4C-65602BE04715}
      IID 5
      NAME timelords3.mp3
      VOLPAN 1 0 1 -1
      SOFFS 2.86
      PLAYRATE 1 1 0 -1 0 0.0025
      CHANMODE 0
      GUID {AB1A689E-0145-4189-B08F-7EF53E634F86}
      <SOURCE MP3
        FILE "D:\Music\Rob Clarkson\AtomicRavens\Demos\timelords3.mp3" 1
      >
    >
    <ITEM
      POSITION 62.76843537414899
      SNAPOFFS 0
      LENGTH 123.24852607709818
      LOOP 1
      ALLTAKES 0
      FADEIN 1 0.01 0 1 0 0
      FADEOUT 1 0.01 0 1 0 0
      MUTE 0
      SEL 0
      IGUID {90F06B3F-4192-4418-B540-E28AA7DE09BE}
      IID 5
      NAME timelords3.mp3
      VOLPAN 1 0 1 -1
      SOFFS 61.90843537414899
      PLAYRATE 1 1 0 -1 0 0.0025
      CHANMODE 0
      GUID {62AE9070-EEDD-4061-849D-4CBBD0893F0E}
      <SOURCE MP3
        FILE "D:\Music\Rob Clarkson\AtomicRavens\Demos\timelords3.mp3" 1
      >
    >
  >
>
