<REAPER_PROJECT 0.1 "5.22/x64" 1473559940
  RIPPLE 0
  GROUPOVERRIDE 0 0 0
  AUTOXFADE 1
  ENVATTACH 1
  MIXERUIFLAGS 11 48
  PEAKGAIN 1
  FEEDBACK 0
  PANLAW 1
  PROJOFFS 0 0
  MAXPROJLEN 0 600
  GRID 3199 8 0.5 8 1 0 0
  TIMEMODE 1 5 -1 30 0
  PANMODE 3
  CURSOR 677.31958762886597
  ZOOM 25.69558301988843 16333 0
  VZOOMEX 3
  USE_REC_CFG 0
  RECMODE 1
  SMPTESYNC 0 30 100 40 1000 300 0 0 1
  LOOP 0
  LOOPGRAN 0 4
  RECORD_PATH "" "D:\Recording"
  <RECORD_CFG
    ZXZhdxgA
  >
  <APPLYFX_CFG
  >
  RENDER_FILE "D:\2016\Render\Book-tree.mp3"
  RENDER_FMT 0 2 44100
  RENDER_1X 0
  RENDER_RANGE 2 0 0 18 1000
  RENDER_RESAMPLE 4 0 1
  RENDER_ADDTOPROJ 0
  RENDER_STEMS 0
  RENDER_DITHER 0
  TIMELOCKMODE 1
  TEMPOENVLOCKMODE 1
  ITEMMIX 0
  DEFPITCHMODE 589824
  TAKELANE 1
  SAMPLERATE 44100 0 0
  <RENDER_CFG
    bDNwbUABAAABAAAABQAAAP////8EAAAAQAEAAAAAAAA=
  >
  LOCK 1
  <METRONOME 4 2
    VOL 1.399978 2.041028
    FREQ 800 800 1
    BEATLEN 4
    SAMPLES "" ""
    PATTERN 2863311530 2863311529
  >
  GLOBAL_AUTO -1
  TEMPO 194 4 4
  PLAYRATE 1 0 0.25 4
  SELECTION 715.67010309278351 523.29896907216494
  SELECTION2 715.67010309278351 523.29896907216494
  MASTERAUTOMODE 0
  MASTERTRACKHEIGHT 0
  MASTERPEAKCOL 16576
  MASTERMUTESOLO 0
  MASTERTRACKVIEW 0 0.6667 0.5 0.5 0 0 0
  MASTERHWOUT 0 0 1 0 0 0 0 -1
  MASTER_NCH 2 2
  MASTER_VOLUME 0.18536257719148 0 -1 -1 1
  MASTER_FX 1
  MASTER_SEL 0
  <MASTERPLAYSPEEDENV
    ACT 0
    VIS 0 1 1
    LANEHEIGHT 0 0
    ARM 0
    DEFSHAPE 0 -1 -1
  >
  <TEMPOENVEX
    ACT 0
    VIS 1 0 1
    LANEHEIGHT 0 0
    ARM 0
    DEFSHAPE 1 -1 -1
  >
  MARKER 1 517.42268041237116 "keys Yes" 0 0 1 R
  <PROJBAY
  >
  <TRACK {E2A896FA-0360-4103-AFCB-2E5A63C29C02}
    NAME EZdrummer
    PEAKCOL 16576
    BEAT -1
    AUTOMODE 0
    VOLPAN 3.98107170553497 0 -1 -1 1
    MUTESOLO 1 0 0
    IPHASE 0
    ISBUS 0 0
    BUSCOMP 0 0
    SHOWINMIX 1 0.6667 0.5 1 0.5 0 0 0
    FREEMODE 0
    SEL 0
    REC 0 4160 1 0 0 0 0
    VU 2
    TRACKHEIGHT 0 0
    INQ 0 0 0 0.5 100 0 0 100
    NCHAN 2
    FX 1
    TRACKID {E2A896FA-0360-4103-AFCB-2E5A63C29C02}
    PERF 0
    MIDIOUT -1
    MAINSEND 1 0
    <FXCHAIN
      WNDRECT 33 60 655 403
      SHOW 0
      LASTSEL 0
      DOCKED 0
      BYPASS 0 0 0
      <VST "VSTi: EZdrummer (Toontrack) (32 out)" EZdrummer.dll 0 "" 1684432997
        ZWhmZO5e7f4AAAAAIAAAAAEAAAAAAAAAAgAAAAAAAAAEAAAAAAAAAAgAAAAAAAAAEAAAAAAAAAAgAAAAAAAAAEAAAAAAAAAAgAAAAAAAAAAAAQAAAAAAAAACAAAAAAAA
        AAQAAAAAAAAACAAAAAAAAAAQAAAAAAAAACAAAAAAAAAAQAAAAAAAAACAAAAAAAAAAAABAAAAAAAAAAIAAAAAAAAABAAAAAAAAAAIAAAAAAAAABAAAAAAAAAAIAAAAAAA
        AABAAAAAAAAAAIAAAAAAAAAAAAEAAAAAAAAAAgAAAAAAAAAEAAAAAAAAAAgAAAAAAAAAEAAAAAAAAAAgAAAAAAAAAEAAAAAAAAAAgAAAAACXDQAAAQAAALYAEAA=
        dmVyc2lvbiAxCkVaWCAiRVpYMl9FWmRydW1tZXIyX01vZGVybiIKaHVtYW5pemUgMQpwb3MgIktpY2siICIxNDI0R01TMjMiCnBvcyAiU25hcmUiICIxM0dNUzciCnBv
        cyAiSGF0cyIgIjEzSEhYIgpwb3MgIlRvbTEiICIxMEdNUzEiCnBvcyAiVG9tMiIgIjEyR01TMSIKcG9zICJUb20zIiAiMTRHTVMxIgpwb3MgIlRvbTQiICIxNkdNUzEi
        CnBvcyAiVG9tNSIgIjE4R01TMSIKcG9zICJSaWRlNCIgIjIxUmlkZVZpbnRhZ2UiCnBvcyAiQ3Jhc2gxIiAiMjBTYWJpYW4xIgpwb3MgIkNyYXNoMiIgIjIwU2FiaWFu
        MiIKcG9zICJDcmFzaDMiICIxOC0yU2FiaWFuMyIKcG9zICJDcmFzaDQiICIxOC0yU2FiaWFuNSIKbWl4ZXIgewpLaWNrIHsKcGFuIDAuNQp2b2x1bWUgMC41MzcwMzMK
        cGhhc2VyZXZlcnNlIDAKbm9ibGVlZCAwCnh0cmFmYWRlIDAKbGVha3ZvbCAxCnNvbG8gMAptdXRlIDAKcm91dGUgMAp9CktpY2tFeHQgewpwYW4gMC41CnZvbHVtZSAw
        LjcwNzk0NwpwaGFzZXJldmVyc2UgMApub2JsZWVkIDAKeHRyYWZhZGUgMApsZWFrdm9sIDEKc29sbyAwCm11dGUgMApyb3V0ZSAwCn0KU25hcmVUb3AgewpwYW4gMC41
        CnZvbHVtZSAwLjUwMTE4OApwaGFzZXJldmVyc2UgMApub2JsZWVkIDAKeHRyYWZhZGUgMC41MzcxMzgKbGVha3ZvbCAxCnNvbG8gMAptdXRlIDAKcm91dGUgMAp9ClNu
        YXJlQm90dG9tIHsKcGFuIDAuNQp2b2x1bWUgMC40MzY1MTYKcGhhc2VyZXZlcnNlIDAKbm9ibGVlZCAwCnh0cmFmYWRlIDAuMjg4NTE3CmxlYWt2b2wgMQpzb2xvIDAK
        bXV0ZSAwCnJvdXRlIDAKfQpIYXRzIHsKcGFuIDAuMzc1CnZvbHVtZSAwLjE5MDU0NgpwaGFzZXJldmVyc2UgMApub2JsZWVkIDAKeHRyYWZhZGUgMApsZWFrdm9sIDEK
        c29sbyAwCm11dGUgMApyb3V0ZSAwCn0KVG9tcyB7CnBhbiAwCnZvbHVtZSAwLjIyNTg2NApwaGFzZXJldmVyc2UgMApub2JsZWVkIDAKeHRyYWZhZGUgMApsZWFrdm9s
        IDEKc29sbyAwCm11dGUgMApyb3V0ZSAwCn0KVG9tc1IgewpwYW4gMQp2b2x1bWUgMC4yMjU4NjQKcGhhc2VyZXZlcnNlIDAKbm9ibGVlZCAwCnh0cmFmYWRlIDAKbGVh
        a3ZvbCAxCnNvbG8gMAptdXRlIDAKcm91dGUgMAp9Ck9oIHsKcGFuIDAuMQp2b2x1bWUgMC4zNjMwNzkKcGhhc2VyZXZlcnNlIDAKbm9ibGVlZCAwCnh0cmFmYWRlIDAK
        bGVha3ZvbCAxCnNvbG8gMAptdXRlIDAKcm91dGUgMAp9Ck9oUiB7CnBhbiAwLjkKdm9sdW1lIDAuMzYzMDc5CnBoYXNlcmV2ZXJzZSAwCm5vYmxlZWQgMAp4dHJhZmFk
        ZSAwCmxlYWt2b2wgMQpzb2xvIDAKbXV0ZSAwCnJvdXRlIDAKfQpBbWIgewpwYW4gMAp2b2x1bWUgMC4wODkxMjUyCnBoYXNlcmV2ZXJzZSAwCm5vYmxlZWQgMAp4dHJh
        ZmFkZSAwCmxlYWt2b2wgMQpzb2xvIDAKbXV0ZSAwCnJvdXRlIDAKfQpBbWJSIHsKcGFuIDEKdm9sdW1lIDAuMDg5MTI1MgpwaGFzZXJldmVyc2UgMApub2JsZWVkIDAK
        eHRyYWZhZGUgMApsZWFrdm9sIDEKc29sbyAwCm11dGUgMApyb3V0ZSAwCn0KQW1iTW9ubyB7CnBhbiAwLjUKdm9sdW1lIDAuMDkxMjg0MwpwaGFzZXJldmVyc2UgMApu
        b2JsZWVkIDAKeHRyYWZhZGUgMApsZWFrdm9sIDEKc29sbyAwCm11dGUgMApyb3V0ZSAwCn0KYnVzcyAwIHsKcGFuIDAKdm9sdW1lIDAuMDgxODIyMgpwaGFzZXJldmVy
        c2UgMApzb2xvIDAKbXV0ZSAwCnJvdXRlIDAKfQpidXNzIDEgewpwYW4gMQp2b2x1bWUgMC4wODE4MjIyCnBoYXNlcmV2ZXJzZSAwCnNvbG8gMAptdXRlIDAKcm91dGUg
        MAp9CmJ1c3MgNCB7CnBhbiAwLjUKdm9sdW1lIDAuOTYxODE1CnBoYXNlcmV2ZXJzZSAwCnNvbG8gMAptdXRlIDAKcm91dGUgMAp9CmJ1c3MgNSB7CnBhbiAwLjUKdm9s
        dW1lIDAuOTYxODE1CnBoYXNlcmV2ZXJzZSAwCnNvbG8gMAptdXRlIDAKcm91dGUgMAp9CmJ1c3MgNiB7CnBhbiAwCnZvbHVtZSAwLjU4ODg0NQpwaGFzZXJldmVyc2Ug
        MApzb2xvIDAKbXV0ZSAwCnJvdXRlIDAKfQpidXNzIDcgewpwYW4gMAp2b2x1bWUgMC41ODg4NDUKcGhhc2VyZXZlcnNlIDAKc29sbyAwCm11dGUgMApyb3V0ZSAwCn0K
        YnVzcyA4IHsKcGFuIDEKdm9sdW1lIDAuODcwOTY3CnBoYXNlcmV2ZXJzZSAwCnNvbG8gMAptdXRlIDAKcm91dGUgMAp9CmJ1c3MgOSB7CnBhbiAxCnZvbHVtZSAwLjg3
        MDk2NwpwaGFzZXJldmVyc2UgMApzb2xvIDAKbXV0ZSAwCnJvdXRlIDAKfQpidXNzIDEwIHsKcGFuIDAKdm9sdW1lIDAuMTU4NDg5CnBoYXNlcmV2ZXJzZSAwCnNvbG8g
        MAptdXRlIDAKcm91dGUgMAp9CmJ1c3MgMTEgewpwYW4gMQp2b2x1bWUgMC4xNTg0ODkKcGhhc2VyZXZlcnNlIDAKc29sbyAwCm11dGUgMApyb3V0ZSAwCn0KfQpFWjFz
        dHVmZkVORCB7Cn0Kc2FtcGxlciB7Cm1hc3RlcnZvbCAxCnJldmVyc2UgMApwcmVzZXQgIkRyeSBSb2NrIgprbm9iIDAgMC4xOTgwMgprbm9iIDEgMC4xOTgwMgprbm9i
        IDIgMC44Cmtub2IgMyA0Ljk2NzA1ZS0wMDgKZHJ1bXByb3BzIHsKIlhQZXJjLTAiIHggIkVaWFBfRVpkcnVtbWVyMl9QZXJjdXNzaW9uIiAiT25lc2hvdCIgIkNsYXBz
        MiIKIlhQZXJjLTEiIHggIkVaWFBfRVpkcnVtbWVyMl9QZXJjdXNzaW9uIiAiU2hha2VyIiAiU2hha2VyMSIKIlhQZXJjLTIiIHggIkVaWFBfRVpkcnVtbWVyMl9QZXJj
        dXNzaW9uIiAiVGFtYm91cmluZSIgIlRhbWIxIgp9Cn0KZWRydW0gbm9uZSBub25lCm1pZGlsZWFybiB7Cn0KRWRpdG9yIHsgClNvbmdUcmFjayB7ClZpc2libGVBcmVh
        IDc1Ni4yMDUgODIxLjIwNQpUcmFja05hbWUgIiIKQ2xlYXJUcmFja0ZpcnN0ClRpbWVTaWcgNCA0CkdyaWRSZXMgMzIKTG9vcEFyZWEgMCAwCkxvb3BBY3RpdmUgMApT
        dGFydE51bWJlciAxCn0KVmlzaWJsZVJlc3VsdENvbHVtbnMgMjEsMjgsMCwwOzIyLDI4LDAsMDswLDE4NSwwLDA7MTEsMjAwLDAsMDs0LDE1MCwwLDA7NiwxMzAsMCww
        OzcsNDUsMCwwOzgsNDYsMCwwOzMsNDUsMCwwOwpWaXNpYmxlRmlsdGVyQ29sdW1ucyA0Ozc7NTsxOzU7Mjs2OzI7CkJyb3dzZXJIZWlnaHQgMTY2ClNlbGVjdGVkVGFn
        cyAsMCwwLDAsMCwwLDAsMCwwLDAsMCwwLDAsMCwwLDAsMCwwLDAsMCwwLDAsMCwwLDAsMCwwLDAsMCwwLDAsMCwwLDAsMCwwLDAsMCwwLDAsMCwwLDAsMCwwLDAsMCww
        LDAsMCwwLDAsMCwwLDAsMCwwLDAsMCwwLDAsMCwwLDAsMCwwLDAsMCwwLDAsMCwwLDAsMCwwLDAsMCwwLDAsMCwwLDAsMCwwLDAsMCwwLDAsMCwwLDAsMCwwLDAsMCww
        LDAsMCwwLDAsMCwwLDAsMCwwLDAsMCwwLDAsMCwwLDAsMCwwLDAsMCwwLDAsMCwwLDAsMCwwLDAsMCwwLDAsMCwwLDAsMCwwLDAsMCwwLDAsMCwwLDAsMCwwClNlbGVj
        dGVkRmlsZSAKU2VsZWN0ZWRCcm93c2VyUGF0aCAiIgpDbGVhclRhcDJGaW5kCkJyb3dzZXJJc0Zhdm9yaXRlIDAKUHJldmlld0luT3JpZ2luYWxUZW1wbyAwCk1pZGlT
        dHJldGNoRmFjdG9yIDEKQnJvd3NlclZlbG9jaXR5IDAKQ2xlYXJTb25nQ3JlYXRvciAwClZpc2libGVUYWIgMAp9ClN5bmNUb0hvc3QgMSAxOTQKTWlkaU91dEVuYWJs
        ZWQgMApNaWRpSW5DaGFubmVsIC0xCgA=
        AAAQAAAA
      >
      FLOATPOS 24 52 917 722
      FXID {1D091DB2-5BDE-4D24-A1E6-F6D8D67496E6}
      WAK 0
    >
    <ITEM
      POSITION 0
      SNAPOFFS 0
      LENGTH 210.61856079201442
      LOOP 1
      ALLTAKES 0
      FADEIN 1 0 0 1 0 0
      FADEOUT 1 0 0 1 0 0
      MUTE 0
      SEL 0
      IGUID {53339900-351D-4053-8262-33664BFF62F7}
      IID 1
      NAME "01-EZdrummer-Recorded MIDI"
      VOLPAN 1 0 1 -1
      SOFFS 0 0
      PLAYRATE 1 1 0 -1 0 0.0025
      CHANMODE 0
      GUID {EB03D070-9583-4783-9836-A29B4E1F990B}
      RECPASS 1
      <SOURCE MIDI
        HASDATA 1 960 QN
        POOLEDEVTS {68A3B16D-ABB9-4097-91DC-2E731D6071C6}
        E 13555 99 24 5a
        E 244 89 24 40
        E 316 99 24 52
        E 245 89 24 40
        E 226 99 26 62
        E 114 89 26 40
        E 2 99 26 62
        E 243 89 26 40
        E 200 99 24 55
        E 243 89 24 40
        E 296 99 24 5a
        E 243 89 24 40
        E 1909 99 24 6a
        E 244 89 24 40
        E 326 99 24 63
        E 244 89 24 40
        E 249 99 26 74
        E 114 89 26 40
        E 2 99 26 6c
        E 242 89 26 40
        E 168 99 24 58
        E 245 89 24 40
        E 340 99 24 67
        E 245 89 24 40
        E 1944 99 24 7e
        E 244 89 24 40
        E 302 99 24 62
        E 244 89 24 40
        E 273 99 26 76
        E 97 89 26 40
        E 2 99 26 73
        E 242 89 26 40
        E 193 99 24 56
        E 244 89 24 40
        E 333 99 24 6d
        E 244 89 24 40
        E 1919 99 24 73
        E 244 89 24 40
        E 290 99 24 64
        E 244 89 24 40
        E 285 99 26 6c
        E 97 89 26 40
        E 2 99 26 6d
        E 241 89 26 40
        E 189 99 24 5b
        E 244 89 24 40
        E 288 99 24 60
        E 243 89 24 40
        E 324 99 26 73
        E 210 89 26 40
        E 2 99 26 69
        E 242 89 26 40
        E 24 99 26 7f
        E 244 89 26 40
        E 3 99 26 73
        E 244 89 26 40
        E 5 99 26 74
        E 243 89 26 40
        E 308 99 24 61
        E 244 89 24 40
        E 294 99 24 63
        E 242 89 24 40
        E 237 99 26 7c
        E 96 89 26 40
        E 3 99 26 6b
        E 241 89 26 40
        E 223 99 24 58
        E 244 89 24 40
        E 287 99 24 5a
        E 244 89 24 40
        E 1737 99 24 69
        E 244 89 24 40
        E 302 99 24 62
        E 244 89 24 40
        E 253 99 26 70
        E 117 89 26 40
        E 2 99 26 75
        E 242 89 26 40
        E 179 99 24 4f
        E 244 89 24 40
        E 314 99 24 61
        E 242 89 24 40
        E 1877 99 24 62
        E 243 89 24 40
        E 300 99 24 5d
        E 245 89 24 40
        E 297 99 26 7f
        E 99 89 26 40
        E 2 99 26 70
        E 241 89 26 40
        E 223 99 24 58
        E 244 89 24 40
        E 297 99 24 63
        E 244 89 24 40
        E 1879 99 24 6c
        E 245 89 24 40
        E 299 99 24 62
        E 244 89 24 40
        E 237 99 24 52
        E 244 89 24 40
        E 2899 99 24 63
        E 244 89 24 40
        E 254 99 24 52
        E 244 89 24 40
        E 312 99 24 5d
        E 244 89 24 40
        E 3022 99 24 64
        E 244 89 24 40
        E 251 99 24 4d
        E 244 89 24 40
        E 309 99 24 63
        E 243 89 24 40
        E 3155 99 24 64
        E 243 89 24 40
        E 266 99 24 55
        E 244 89 24 40
        E 324 99 24 60
        E 244 89 24 40
        E 3017 99 24 6b
        E 245 89 24 40
        E 278 99 24 56
        E 243 89 24 40
        E 198 99 26 7f
        E 145 89 26 40
        E 3 99 26 6d
        E 242 89 26 40
        E 195 99 24 5a
        E 244 89 24 40
        E 297 99 24 5d
        E 243 89 24 40
        E 781 99 26 7f
        E 114 89 26 40
        E 2 99 26 7f
        E 243 89 26 40
        E 813 99 24 65
        E 244 89 24 40
        E 278 99 24 58
        E 245 89 24 40
        E 260 99 26 7f
        E 104 89 26 40
        E 3 99 26 6a
        E 241 89 26 40
        E 208 99 24 55
        E 242 89 24 40
        E 294 99 24 5d
        E 244 89 24 40
        E 780 99 26 7f
        E 107 89 26 40
        E 3 99 26 77
        E 241 89 26 40
        E 775 99 24 61
        E 244 89 24 40
        E 286 99 24 57
        E 244 89 24 40
        E 243 99 26 65
        E 107 89 26 40
        E 2 99 26 74
        E 242 89 26 40
        E 193 99 24 58
        E 244 89 24 40
        E 302 99 24 5a
        E 244 89 24 40
        E 800 99 26 7e
        E 113 89 26 40
        E 3 99 26 7a
        E 241 89 26 40
        E 793 99 24 5e
        E 242 89 24 40
        E 284 99 24 57
        E 244 89 24 40
        E 252 99 26 7f
        E 99 89 26 40
        E 2 99 26 7f
        E 242 89 26 40
        E 205 99 24 57
        E 244 89 24 40
        E 298 99 24 5f
        E 244 89 24 40
        E 828 99 26 7f
        E 101 89 26 40
        E 3 99 26 7f
        E 241 89 26 40
        E 805 99 24 59
        E 244 89 24 40
        E 297 99 24 5a
        E 244 89 24 40
        E 254 99 26 7f
        E 104 89 26 40
        E 2 99 26 7c
        E 242 89 26 40
        E 210 99 24 51
        E 245 89 24 40
        E 296 99 24 5a
        E 244 89 24 40
        E 802 99 26 7f
        E 102 89 26 40
        E 2 99 26 7b
        E 242 89 26 40
        E 831 99 24 5d
        E 244 89 24 40
        E 278 99 24 59
        E 244 89 24 40
        E 275 99 26 7f
        E 90 89 26 40
        E 3 99 26 78
        E 240 89 26 40
        E 184 99 24 4e
        E 245 89 24 40
        E 294 99 24 60
        E 244 89 24 40
        E 292 99 26 7f
        E 230 89 26 40
        E 3 99 26 5b
        E 241 89 26 40
        E 14 99 26 6f
        E 245 89 26 40
        E 7 99 26 5e
        E 244 89 26 40
        E 2 99 26 55
        E 242 89 26 40
        E 297 99 24 60
        E 244 89 24 40
        E 290 99 24 62
        E 244 89 24 40
        E 234 99 26 77
        E 109 89 26 40
        E 3 99 26 7f
        E 241 89 26 40
        E 201 99 24 50
        E 243 89 24 40
        E 300 99 24 58
        E 244 89 24 40
        E 798 99 26 7f
        E 134 89 26 40
        E 3 99 26 7f
        E 242 89 26 40
        E 746 99 24 57
        E 244 89 24 40
        E 283 99 24 53
        E 243 89 24 40
        E 281 99 26 7f
        E 104 89 26 40
        E 2 99 26 69
        E 242 89 26 40
        E 191 99 24 4f
        E 244 89 24 40
        E 309 99 24 58
        E 244 89 24 40
        E 797 99 26 7f
        E 104 99 28 60
        E 138 89 26 40
        E 106 89 28 40
        E 757 99 24 50
        E 244 89 24 40
        E 297 99 24 56
        E 245 89 24 40
        E 257 99 26 7f
        E 109 89 26 40
        E 2 99 26 67
        E 242 89 26 40
        E 181 99 24 45
        E 244 89 24 40
        E 305 99 24 59
        E 243 89 24 40
        E 796 99 26 7f
        E 123 89 26 40
        E 2 99 26 79
        E 242 89 26 40
        E 763 99 24 59
        E 244 89 24 40
        E 290 99 24 53
        E 244 89 24 40
        E 269 99 26 7f
        E 125 89 26 40
        E 2 99 26 74
        E 242 89 26 40
        E 164 99 24 57
        E 244 89 24 40
        E 266 99 24 59
        E 244 89 24 40
        E 355 99 26 7f
        E 227 89 26 40
        E 3 99 26 6f
        E 241 89 26 40
        E 29 99 28 5c
        E 244 89 28 40
        E 3 99 26 6a
        E 244 89 26 40
        E 10 99 26 63
        E 243 89 26 40
        E 291 99 24 5a
        E 243 89 24 40
        E 283 99 24 5b
        E 244 89 24 40
        E 237 99 28 66
        E 106 99 26 75
        E 138 89 28 40
        E 106 89 26 40
        E 196 99 24 50
        E 244 89 24 40
        E 302 99 24 59
        E 244 89 24 40
        E 807 99 26 7f
        E 130 89 26 40
        E 3 99 26 78
        E 241 89 26 40
        E 764 99 24 55
        E 244 89 24 40
        E 285 99 24 52
        E 244 89 24 40
        E 285 99 26 7f
        E 118 89 26 40
        E 3 99 26 78
        E 241 89 26 40
        E 155 99 24 4a
        E 243 89 24 40
        E 308 99 24 59
        E 244 89 24 40
        E 821 99 26 7f
        E 116 99 28 5e
        E 126 89 26 40
        E 118 89 28 40
        E 735 99 24 56
        E 243 89 24 40
        E 295 99 24 58
        E 244 89 24 40
        E 264 99 26 7f
        E 104 89 26 40
        E 2 99 26 7f
        E 242 89 26 40
        E 173 99 24 4e
        E 244 89 24 40
        E 312 99 24 5d
        E 244 89 24 40
        E 834 99 26 7f
        E 101 89 26 40
        E 2 99 26 7f
        E 242 89 26 40
        E 732 99 24 54
        E 245 89 24 40
        E 292 99 24 53
        E 244 89 24 40
        E 261 99 26 7f
        E 127 89 26 40
        E 3 99 26 7f
        E 242 89 26 40
        E 174 99 24 4f
        E 244 89 24 40
        E 280 99 24 57
        E 244 89 24 40
        E 326 99 26 7f
        E 223 89 26 40
        E 2 99 26 67
        E 242 89 26 40
        E 50 99 26 6f
        E 236 89 26 40
        E 3 99 26 50
        E 242 89 26 40
        E 7 99 26 7d
        E 244 89 26 40
        E 353 99 24 59
        E 244 89 24 40
        E 285 99 24 56
        E 244 89 24 40
        E 247 99 26 7f
        E 103 89 26 40
        E 3 99 26 7f
        E 241 89 26 40
        E 218 99 24 4d
        E 244 89 24 40
        E 307 99 24 5a
        E 244 89 24 40
        E 797 99 26 7f
        E 92 89 26 40
        E 2 99 26 6d
        E 242 89 26 40
        E 741 99 24 4d
        E 244 89 24 40
        E 307 99 24 58
        E 244 89 24 40
        E 266 99 26 7f
        E 92 89 26 40
        E 2 99 26 5e
        E 242 89 26 40
        E 200 99 24 4d
        E 245 89 24 40
        E 306 99 24 5a
        E 244 89 24 40
        E 824 99 26 7f
        E 244 89 26 40
        E 855 99 24 51
        E 245 89 24 40
        E 280 99 24 51
        E 244 89 24 40
        E 278 99 26 6a
        E 98 99 28 42
        E 145 89 26 40
        E 100 89 28 40
        E 200 99 24 4e
        E 244 89 24 40
        E 287 99 24 56
        E 244 89 24 40
        E 803 99 26 7b
        E 118 89 26 40
        E 3 99 26 6f
        E 241 89 26 40
        E 751 99 24 55
        E 245 89 24 40
        E 299 99 24 53
        E 244 89 24 40
        E 264 99 28 62
        E 108 89 28 40
        E 3 99 28 66
        E 241 89 28 40
        E 162 99 24 4c
        E 244 89 24 40
        E 285 99 24 57
        E 242 89 24 40
        E 321 99 26 6a
        E 196 99 28 2f
        E 48 89 26 40
        E 196 89 28 40
        E 65 99 26 53
        E 220 99 28 37
        E 24 89 26 40
        E 220 89 28 40
        E 10 99 28 49
        E 244 89 28 40
        E 321 99 24 5d
        E 243 89 24 40
        E 820 99 24 63
        E 244 89 24 40
        E 319 99 26 5e
        E 106 89 26 40
        E 3 99 26 7f
        E 241 89 26 40
        E 785 99 24 68
        E 245 89 24 40
        E 326 99 26 7f
        E 84 89 26 40
        E 1 99 26 7f
        E 243 89 26 40
        E 771 99 24 58
        E 244 89 24 40
        E 838 99 24 57
        E 244 89 24 40
        E 319 99 28 31
        E 102 99 26 7c
        E 142 89 28 40
        E 102 89 26 40
        E 780 99 24 58
        E 243 89 24 40
        E 284 99 26 7b
        E 91 89 26 40
        E 3 99 26 7f
        E 241 89 26 40
        E 751 99 24 5b
        E 245 89 24 40
        E 841 99 24 56
        E 244 89 24 40
        E 345 99 26 79
        E 97 89 26 40
        E 2 99 26 7f
        E 242 89 26 40
        E 742 99 24 5c
        E 244 89 24 40
        E 263 99 26 7f
        E 94 89 26 40
        E 2 99 26 7f
        E 242 89 26 40
        E 773 99 24 5a
        E 244 89 24 40
        E 273 99 2d 7f
        E 15 99 30 7f
        E 229 89 2d 40
        E 15 89 30 40
        E 326 99 24 58
        E 244 89 24 40
        E 275 99 29 71
        E 17 99 2d 7f
        E 227 89 29 40
        E 17 89 2d 40
        E 276 99 24 5c
        E 244 89 24 40
        E 275 99 24 53
        E 244 89 24 40
        E 222 99 26 78
        E 107 89 26 40
        E 3 99 26 7f
        E 241 89 26 40
        E 749 99 24 54
        E 244 89 24 40
        E 816 99 24 59
        E 244 89 24 40
        E 307 99 26 7b
        E 101 89 26 40
        E 3 99 26 7f
        E 241 89 26 40
        E 747 99 24 67
        E 244 89 24 40
        E 256 99 26 7f
        E 94 89 26 40
        E 3 99 26 7f
        E 242 89 26 40
        E 749 99 24 5e
        E 243 89 24 40
        E 795 99 24 58
        E 244 89 24 40
        E 292 99 26 7f
        E 119 89 26 40
        E 2 99 26 7f
        E 241 89 26 40
        E 733 99 24 6a
        E 244 89 24 40
        E 239 99 26 78
        E 87 89 26 40
        E 3 99 26 7f
        E 241 89 26 40
        E 804 99 24 5c
        E 244 89 24 40
        E 803 99 24 61
        E 243 89 24 40
        E 313 99 26 76
        E 78 89 26 40
        E 2 99 26 7f
        E 242 89 26 40
        E 774 99 24 64
        E 244 89 24 40
        E 293 99 26 7c
        E 72 89 26 40
        E 3 99 26 7f
        E 241 89 26 40
        E 822 99 24 57
        E 244 89 24 40
        E 277 99 2d 7f
        E 8 99 30 7f
        E 237 89 2d 40
        E 6 89 30 40
        E 276 99 24 58
        E 245 89 24 40
        E 279 99 24 55
        E 244 89 24 40
        E 293 99 29 66
        E 2 99 2d 7f
        E 241 89 29 40
        E 3 89 2d 40
        E 271 99 24 6a
        E 244 89 24 40
        E 271 99 26 7f
        E 99 89 26 40
        E 2 99 26 7f
        E 239 89 26 40
        E 773 99 24 59
        E 244 89 24 40
        E 787 99 24 5c
        E 245 89 24 40
        E 277 99 26 7f
        E 97 89 26 40
        E 3 99 26 7d
        E 241 89 26 40
        E 790 99 24 5e
        E 244 89 24 40
        E 261 99 26 7f
        E 73 89 26 40
        E 2 99 26 7f
        E 242 89 26 40
        E 739 99 24 58
        E 242 89 24 40
        E 824 99 24 5e
        E 244 89 24 40
        E 333 99 26 7f
        E 114 89 26 40
        E 2 99 26 7c
        E 242 89 26 40
        E 746 99 24 62
        E 244 89 24 40
        E 261 99 26 7f
        E 104 89 26 40
        E 2 99 26 7c
        E 242 89 26 40
        E 741 99 24 54
        E 245 89 24 40
        E 809 99 24 69
        E 243 89 24 40
        E 286 99 26 76
        E 99 89 26 40
        E 2 99 26 75
        E 242 89 26 40
        E 773 99 24 67
        E 245 89 24 40
        E 289 99 26 70
        E 63 89 26 40
        E 3 99 26 73
        E 241 89 26 40
        E 800 99 24 5f
        E 244 89 24 40
        E 215 99 30 79
        E 6 99 2d 7f
        E 238 89 30 40
        E 4 89 2d 40
        E 305 99 2d 7f
        E 3 99 30 7f
        E 241 89 2d 40
        E 0 89 30 40
        E 257 99 24 5d
        E 242 89 24 40
        E 272 99 29 7f
        E 11 99 2d 7f
        E 233 89 29 40
        E 11 89 2d 40
        E 271 99 24 61
        E 244 89 24 40
        E 266 99 26 79
        E 111 89 26 40
        E 3 99 26 7f
        E 241 89 26 40
        E 206 99 24 51
        E 243 89 24 40
        E 315 99 24 62
        E 244 89 24 40
        E 814 99 24 61
        E 245 89 24 40
        E 296 99 26 7c
        E 80 89 26 40
        E 2 99 26 7f
        E 241 89 26 40
        E 1347 99 26 7b
        E 65 89 26 40
        E 2 99 26 7b
        E 242 89 26 40
        E 701 99 24 67
        E 243 89 24 40
        E 790 99 24 6a
        E 244 89 24 40
        E 303 99 26 7f
        E 125 89 26 40
        E 3 99 26 7f
        E 241 89 26 40
        E 768 99 24 6a
        E 245 89 24 40
        E 263 99 26 7f
        E 94 89 26 40
        E 2 99 26 78
        E 243 89 26 40
        E 789 99 24 62
        E 242 89 24 40
        E 765 99 24 6f
        E 245 89 24 40
        E 299 99 26 70
        E 244 89 26 40
        E 1220 99 26 7f
        E 102 89 26 40
        E 2 99 26 7f
        E 242 89 26 40
        E 756 99 24 5f
        E 244 89 24 40
        E 244 99 2d 7f
        E 17 99 30 7f
        E 226 89 2d 40
        E 16 89 30 40
        E 263 99 2d 7f
        E 17 99 30 7f
        E 227 89 2d 40
        E 17 89 30 40
        E 222 99 24 59
        E 244 89 24 40
        E 293 99 29 52
        E 14 99 2d 7f
        E 229 89 29 40
        E 15 89 2d 40
        E 248 99 24 5a
        E 244 89 24 40
        E 228 99 26 7e
        E 130 89 26 40
        E 3 99 26 7c
        E 241 89 26 40
        E 722 99 24 72
        E 241 89 24 40
        E 320 99 24 6e
        E 244 89 24 40
        E 285 99 24 5d
        E 244 89 24 40
        E 264 99 26 70
        E 104 89 26 40
        E 1 99 26 67
        E 243 89 26 40
        E 198 99 24 56
        E 241 89 24 40
        E 273 99 24 5f
        E 242 89 24 40
        E 271 99 26 7f
        E 101 89 26 40
        E 2 99 26 7f
        E 242 89 26 40
        E 758 99 24 5d
        E 244 89 24 40
        E 303 99 24 63
        E 244 89 24 40
        E 270 99 24 5d
        E 244 89 24 40
        E 280 99 26 7f
        E 102 89 26 40
        E 2 99 26 7a
        E 242 89 26 40
        E 232 99 24 58
        E 244 89 24 40
        E 273 99 24 61
        E 244 89 24 40
        E 291 99 26 7f
        E 105 89 26 40
        E 3 99 26 7f
        E 241 89 26 40
        E 810 99 24 62
        E 243 89 24 40
        E 266 99 24 52
        E 244 89 24 40
        E 276 99 24 63
        E 244 89 24 40
        E 248 99 26 7e
        E 100 89 26 40
        E 2 99 26 7f
        E 241 89 26 40
        E 244 99 24 5b
        E 244 89 24 40
        E 276 99 24 5d
        E 244 89 24 40
        E 302 99 26 70
        E 113 89 26 40
        E 3 99 26 7f
        E 242 89 26 40
        E 755 99 24 59
        E 245 89 24 40
        E 277 99 24 56
        E 242 89 24 40
        E 268 99 24 58
        E 244 89 24 40
        E 208 99 26 7f
        E 126 89 26 40
        E 2 99 26 7f
        E 242 89 26 40
        E 188 99 24 5a
        E 244 89 24 40
        E 276 99 24 5c
        E 244 89 24 40
        E 270 99 26 7f
        E 97 89 26 40
        E 3 99 26 6e
        E 241 89 26 40
        E 815 99 24 5f
        E 243 89 24 40
        E 256 99 24 51
        E 245 89 24 40
        E 282 99 24 66
        E 244 89 24 40
        E 225 99 26 7f
        E 121 89 26 40
        E 2 99 26 7f
        E 242 89 26 40
        E 195 99 24 4d
        E 244 89 24 40
        E 285 99 24 5e
        E 244 89 24 40
        E 293 99 26 7f
        E 92 89 26 40
        E 2 99 26 7f
        E 242 89 26 40
        E 804 99 24 66
        E 244 89 24 40
        E 268 99 24 52
        E 243 89 24 40
        E 255 99 24 55
        E 244 89 24 40
        E 231 99 26 7f
        E 114 89 26 40
        E 3 99 26 7f
        E 242 89 26 40
        E 250 99 24 4b
        E 245 89 24 40
        E 256 99 24 60
        E 243 89 24 40
        E 257 99 26 7c
        E 103 89 26 40
        E 3 99 26 7f
        E 242 89 26 40
        E 792 99 24 59
        E 244 89 24 40
        E 278 99 24 56
        E 244 89 24 40
        E 268 99 24 62
        E 244 89 24 40
        E 247 99 26 7f
        E 79 89 26 40
        E 3 99 26 7f
        E 242 89 26 40
        E 246 99 24 53
        E 244 89 24 40
        E 270 99 24 58
        E 244 89 24 40
        E 307 99 26 7f
        E 97 89 26 40
        E 3 99 26 7f
        E 241 89 26 40
        E 766 99 24 5b
        E 244 89 24 40
        E 309 99 24 64
        E 245 89 24 40
        E 236 99 24 4c
        E 244 89 24 40
        E 263 99 26 7f
        E 80 89 26 40
        E 2 99 26 78
        E 242 89 26 40
        E 256 99 24 58
        E 244 89 24 40
        E 259 99 24 5d
        E 243 89 24 40
        E 276 99 26 7f
        E 113 89 26 40
        E 3 99 26 7f
        E 241 89 26 40
        E 733 99 24 7c
        E 41 b9 04 00
        E 2 99 2e 7f
        E 200 89 24 40
        E 44 89 2e 40
        E 280 b9 04 00
        E 0 99 2e 33
        E 215 b9 04 0c
        E 29 89 2e 40
        E 157 b9 04 1a
        E 128 99 26 58
        E 10 b9 04 27
        E 2 99 2e 7f
        E 31 b9 04 2c
        E 202 89 26 40
        E 11 89 2e 40
        E 15 b9 04 34
        E 201 b9 04 41
        E 113 b9 04 43
        E 3 99 2e 2e
        E 241 89 2e 40
        E 234 99 24 5c
        E 32 b9 04 44
        E 3 99 2e 7f
        E 209 89 24 40
        E 32 89 2e 40
        E 261 99 24 54
        E 50 b9 04 36
        E 3 99 2e 24
        E 5 b9 04 36
        E 186 89 24 40
        E 53 89 2e 40
        E 268 99 26 6a
        E 15 b9 04 36
        E 2 99 2e 7f
        E 227 89 26 40
        E 15 89 2e 40
        E 292 b9 04 36
        E 2 99 2e 3e
        E 242 89 2e 40
        E 235 99 24 6d
        E 19 b9 04 36
        E 2 99 2e 7f
        E 222 89 24 40
        E 22 89 2e 40
        E 271 b9 04 36
        E 2 99 2e 3b
        E 244 89 2e 40
        E 36 b9 04 30
        E 283 b9 04 34
        E 2 99 2e 7f
        E 5 b9 04 34
        E 0 99 26 71
        E 240 89 2e 40
        E 4 89 26 40
        E 283 b9 04 38
        E 0 99 2e 4a
        E 94 b9 04 38
        E 150 89 2e 40
        E 264 99 24 58
        E 36 b9 04 3e
        E 2 99 2e 7f
        E 2 b9 04 3c
        E 203 89 24 40
        E 37 89 2e 40
        E 169 b9 04 46
        E 65 99 24 4e
        E 48 b9 04 44
        E 0 99 2e 57
        E 116 b9 04 36
        E 80 89 24 40
        E 48 89 2e 40
        E 276 99 26 75
        E 33 b9 04 46
        E 5 99 2e 7f
        E 0 b9 04 46
        E 20 b9 04 4c
        E 116 b9 04 4c
        E 69 89 26 40
        E 11 b9 04 3c
        E 26 89 2e 40
        E 111 b9 04 34
        E 131 99 24 59
        E 19 b9 04 43
        E 2 99 2e 60
        E 7 b9 04 44
        E 215 89 24 40
        E 22 89 2e 40
        E 49 b9 04 38
        E 234 99 24 5f
        E 39 b9 04 3c
        E 2 99 2e 7f
        E 203 89 24 40
        E 39 89 2e 40
        E 285 b9 04 3c
        E 0 99 2e 50
        E 220 b9 04 2e
        E 24 89 2e 40
        E 261 99 26 68
        E 24 b9 04 30
        E 2 99 2e 7f
        E 218 89 26 40
        E 26 89 2e 40
        E 17 b9 04 27
        E 210 b9 04 36
        E 63 b9 04 36
        E 3 99 2e 4e
        E 241 89 2e 40
        E 235 99 24 67
        E 31 b9 04 38
        E 1 99 2e 7f
        E 212 89 24 40
        E 31 89 2e 40
        E 114 b9 04 3e
        E 147 99 24 50
        E 24 b9 04 3c
        E 2 99 2e 4f
        E 218 89 24 40
        E 26 89 2e 40
        E 281 99 26 7b
        E 26 b9 04 3a
        E 2 99 2e 7f
        E 216 89 26 40
        E 26 89 2e 40
        E 271 b9 04 3c
        E 2 99 2e 69
        E 245 89 2e 40
        E 229 99 24 63
        E 56 b9 04 3e
        E 2 99 2e 7f
        E 186 89 24 40
        E 55 89 2e 40
        E 257 b9 04 3a
        E 0 99 2e 51
        E 127 b9 04 38
        E 117 89 2e 40
        E 222 b9 04 3e
        E 45 99 28 43
        E 40 b9 04 3e
        E 2 99 2e 7f
        E 202 89 28 40
        E 40 89 2e 40
        E 280 b9 04 3e
        E 3 99 2e 5a
        E 241 89 2e 40
        E 237 99 24 62
        E 48 b9 04 3f
        E 4 99 2e 7f
        E 191 89 24 40
        E 51 89 2e 40
        E 244 99 24 55
        E 19 b9 04 3f
        E 3 99 2e 3e
        E 222 89 24 40
        E 20 89 2e 40
        E 253 99 26 69
        E 43 b9 04 3f
        E 3 99 2e 7f
        E 198 89 26 40
        E 43 89 2e 40
        E 274 b9 04 3f
        E 2 99 2e 46
        E 242 89 2e 40
        E 229 99 24 62
        E 51 b9 04 3f
        E 0 99 2e 7f
        E 193 89 24 40
        E 51 89 2e 40
        E 242 b9 04 3f
        E 0 99 2e 60
        E 244 89 2e 40
        E 335 99 26 78
        E 30 b9 04 3e
        E 2 99 2e 7f
        E 213 89 26 40
        E 28 89 2e 40
        E 273 b9 04 41
        E 3 99 2e 6c
        E 241 89 2e 40
        E 254 99 24 5d
        E 70 b9 04 41
        E 2 99 2e 7f
        E 172 89 24 40
        E 73 89 2e 40
        E 210 99 24 51
        E 17 b9 04 41
        E 2 99 2e 5b
        E 225 89 24 40
        E 17 89 2e 40
        E 302 99 28 50
        E 34 b9 04 3e
        E 2 99 2e 7f
        E 208 89 28 40
        E 36 89 2e 40
        E 263 b9 04 3e
        E 1 99 2e 63
        E 243 89 2e 40
        E 232 99 24 63
        E 37 b9 04 3e
        E 2 99 2e 7f
        E 206 89 24 40
        E 36 89 2e 40
        E 231 b9 04 3c
        E 5 99 2e 4f
        E 242 89 2e 40
        E 26 b9 04 3a
        E 283 99 26 6a
        E 17 b9 04 3c
        E 3 99 2e 7f
        E 224 89 26 40
        E 17 89 2e 40
        E 273 b9 04 3e
        E 0 99 2e 67
        E 71 b9 04 3e
        E 173 89 2e 40
        E 292 99 24 55
        E 29 b9 04 3e
        E 3 99 2e 7f
        E 213 89 24 40
        E 26 89 2e 40
        E 246 b9 04 3f
        E 2 99 2e 5b
        E 2 99 24 54
        E 238 89 2e 40
        E 8 89 24 40
        E 285 99 26 7f
        E 24 b9 04 3e
        E 2 99 2e 7f
        E 217 89 26 40
        E 25 89 2e 40
        E 268 b9 04 3e
        E 2 99 2e 5d
        E 241 89 2e 40
        E 230 99 24 54
        E 29 b9 04 3f
        E 3 99 2e 7f
        E 213 89 24 40
        E 31 89 2e 40
        E 256 b9 04 3e
        E 2 99 2e 51
        E 242 89 2e 40
        E 278 99 26 50
        E 31 b9 04 3f
        E 2 99 2e 7f
        E 211 89 26 40
        E 31 89 2e 40
        E 268 b9 04 41
        E 3 99 2e 55
        E 244 89 2e 40
        E 225 99 24 5f
        E 36 b9 04 43
        E 2 99 2e 7f
        E 205 89 24 40
        E 37 89 2e 40
        E 234 99 24 4a
        E 3 b9 04 41
        E 2 99 2e 4d
        E 239 89 24 40
        E 5 89 2e 40
        E 285 99 26 55
        E 29 b9 04 3f
        E 2 99 2e 7f
        E 213 89 26 40
        E 32 89 2e 40
        E 255 b9 04 3f
        E 3 99 2e 4a
        E 244 89 2e 40
        E 263 99 24 5f
        E 24 b9 04 41
        E 2 99 2e 7f
        E 218 89 24 40
        E 24 89 2e 40
        E 266 b9 04 3c
        E 3 99 2e 42
        E 239 89 2e 40
        E 24 b9 04 3a
        E 285 99 26 6c
        E 17 b9 04 3e
        E 2 99 2e 7f
        E 3 b9 04 3e
        E 222 89 26 40
        E 17 89 2e 40
        E 258 b9 04 3a
        E 54 99 30 76
        E 217 89 30 40
        E 2 99 30 7f
        E 80 b9 04 41
        E 161 89 30 40
        E 62 99 30 7f
        E 243 89 30 40
        E 307 99 2d 7f
        E 198 89 2d 40
        E 2 99 2d 7f
        E 213 b9 04 3a
        E 29 89 2d 40
        E 20 99 2d 7f
        E 244 89 2d 40
        E 62 99 2d 79
        E 240 99 29 7f
        E 4 89 2d 40
        E 240 89 29 40
        E 331 99 24 7f
        E 60 99 33 7f
        E 53 b9 04 32
        E 131 89 24 40
        E 38 b9 04 29
        E 20 89 33 40
        E 401 b9 04 30
        E 280 b9 04 38
        E 159 99 24 5c
        E 6 99 33 55
        E 239 89 24 40
        E 4 89 33 40
        E 261 99 26 7f
        E 31 99 33 7f
        E 213 89 26 40
        E 33 89 33 40
        E 301 99 33 3f
        E 244 89 33 40
        E 263 99 24 55
        E 17 99 33 35
        E 227 89 24 40
        E 17 89 33 40
        E 278 99 30 7f
        E 14 99 33 4f
        E 230 89 30 40
        E 14 89 33 40
        E 257 99 30 7f
        E 29 99 33 6e
        E 214 89 30 40
        E 29 89 33 40
        E 107 b9 04 3c
        E 166 99 24 67
        E 47 99 33 6a
        E 89 b9 04 36
        E 109 89 24 40
        E 45 89 33 40
        E 83 b9 04 30
        E 178 99 33 4a
        E 245 89 33 40
        E 122 b9 04 36
        E 153 99 24 5b
        E 21 99 33 59
        E 174 b9 04 2e
        E 49 89 24 40
        E 21 89 33 40
        E 293 99 26 7d
        E 2 99 33 73
        E 48 b9 04 32
        E 194 89 26 40
        E 2 89 33 40
        E 305 99 33 59
        E 244 89 33 40
        E 190 b9 04 36
        E 47 99 33 32
        E 50 99 24 57
        E 193 89 33 40
        E 51 89 24 40
        E 271 99 33 3c
        E 16 99 29 7b
        E 76 b9 04 32
        E 152 89 33 40
        E 17 89 29 40
        E 278 99 29 7f
        E 31 99 33 44
        E 213 89 29 40
        E 31 89 33 40
        E 251 99 24 5b
        E 53 99 33 59
        E 191 89 24 40
        E 32 b9 04 2c
        E 22 89 33 40
        E 244 99 33 3e
        E 244 89 33 40
        E 181 b9 04 3c
        E 98 99 24 57
        E 2 99 33 5b
        E 18 b9 04 2c
        E 38 b9 04 1a
        E 58 b9 04 09
        E 27 b9 04 00
        E 101 89 24 40
        E 3 89 33 40
        E 285 99 26 7f
        E 20 b9 04 12
        E 8 b9 04 25
        E 11 99 33 5d
        E 3 b9 04 36
        E 26 b9 04 46
        E 5 b9 04 4c
        E 4 99 2c 1a
        E 0 b9 04 56
        E 15 b9 04 66
        E 82 b9 04 56
        E 27 b9 04 46
        E 21 b9 04 36
        E 22 89 26 40
        E 3 b9 04 22
        E 36 89 33 40
        E 2 b9 04 12
        E 34 89 2c 40
        E 239 b9 04 22
        E 34 99 33 4c
        E 3 b9 04 32
        E 43 b9 04 43
        E 171 b9 04 32
        E 27 89 33 40
        E 247 99 33 56
        E 2 99 24 53
        E 14 b9 04 3a
        E 87 b9 04 29
        E 78 b9 04 18
        E 62 89 33 40
        E 3 89 24 40
        E 58 b9 04 06
        E 210 99 30 7f
        E 10 b9 04 18
        E 12 99 33 62
        E 16 b9 04 29
        E 23 b9 04 3a
        E 21 b9 04 4a
        E 5 b9 04 4d
        E 2 99 2c 0c
        E 88 b9 04 3a
        E 43 b9 04 29
        E 24 89 30 40
        E 22 89 33 40
        E 17 b9 04 18
        E 48 89 2c 40
        E 155 b9 04 29
        E 46 b9 04 3a
        E 12 99 30 7f
        E 72 b9 04 4a
        E 99 b9 04 3a
        E 73 89 30 40
        E 7 b9 04 29
        E 273 99 24 6e
        E 39 99 33 4c
        E 138 b9 04 34
        E 67 89 24 40
        E 39 89 33 40
        E 5 b9 04 22
        E 268 99 33 41
        E 152 b9 04 30
        E 92 89 33 40
        E 251 99 33 64
        E 7 99 24 5c
        E 17 b9 04 20
        E 67 b9 04 0f
        E 71 b9 04 00
        E 82 89 33 40
        E 7 89 24 40
        E 297 99 26 7f
        E 3 b9 04 12
        E 9 b9 04 22
        E 10 b9 04 32
        E 5 99 33 6c
        E 24 b9 04 44
        E 5 b9 04 4d
        E 3 99 2c 20
        E 2 b9 04 55
        E 36 b9 04 44
        E 41 b9 04 34
        E 36 b9 04 20
        E 71 89 26 40
        E 2 b9 04 0f
        E 24 89 33 40
        E 31 89 2c 40
        E 186 b9 04 20
        E 42 b9 04 30
        E 50 99 33 56
        E 3 b9 04 41
        E 149 b9 04 30
        E 89 b9 04 20
        E 3 89 33 40
        E 147 b9 04 30
        E 107 99 33 4f
        E 9 99 24 57
        E 27 b9 04 3a
        E 150 b9 04 29
        E 58 89 33 40
        E 9 89 24 40
        E 97 b9 04 20
        E 160 99 29 65
        E 14 99 33 37
        E 68 b9 04 30
        E 161 89 29 40
        E 15 89 33 40
        E 24 b9 04 20
        E 245 99 29 7f
        E 69 b9 04 30
        E 174 89 29 40
        E 107 b9 04 20
        E 181 99 24 5e
        E 51 99 33 4c
        E 62 b9 04 2e
        E 129 b9 04 1d
        E 2 89 24 40
        E 51 89 33 40
        E 261 99 33 44
        E 127 b9 04 2e
        E 116 89 33 40
        E 208 b9 04 29
        E 66 99 24 58
        E 5 99 33 4b
        E 103 b9 04 18
        E 61 b9 04 06
        E 31 b9 04 00
        E 44 89 24 40
        E 4 89 33 40
        E 281 99 26 61
        E 46 b9 04 12
        E 4 99 33 7a
        E 2 b9 04 25
        E 8 b9 04 36
        E 29 b9 04 46
        E 5 b9 04 4d
        E 2 99 2c 1a
        E 3 b9 04 56
        E 10 b9 04 66
        E 48 b9 04 56
        E 31 b9 04 46
        E 24 b9 04 36
        E 32 89 26 40
        E 5 b9 04 25
        E 34 b9 04 15
        E 11 89 33 40
        E 46 89 2c 40
        E 82 b9 04 0c
        E 114 b9 04 1d
        E 36 99 33 56
        E 5 b9 04 2e
        E 51 b9 04 3e
        E 154 b9 04 2e
        E 32 89 33 40
        E 38 b9 04 1d
        E 189 b9 04 2e
        E 14 99 33 54
        E 41 99 24 57
        E 17 b9 04 3e
        E 172 b9 04 2e
        E 14 89 33 40
        E 42 89 24 40
        E 41 b9 04 1d
        E 190 99 30 7f
        E 37 99 33 6d
        E 92 b9 04 2e
        E 36 b9 04 3e
        E 51 b9 04 4d
        E 2 99 2c 08
        E 26 89 30 40
        E 37 89 33 40
        E 70 b9 04 2e
        E 53 b9 04 1d
        E 58 89 2c 40
        E 80 99 30 7f
        E 12 99 33 56
        E 29 b9 04 2e
        E 118 b9 04 3e
        E 85 89 30 40
        E 10 89 33 40
        E 134 b9 04 32
        E 121 99 24 50
        E 49 99 33 58
        E 195 89 24 40
        E 49 89 33 40
        E 97 b9 04 2e
        E 145 99 33 3d
        E 48 b9 04 3c
        E 195 89 33 40
        E 179 b9 04 38
        E 94 99 24 58
        E 15 99 33 56
        E 102 b9 04 3c
        E 127 89 24 40
        E 13 89 33 40
        E 43 b9 04 2e
        E 145 b9 04 20
        E 68 99 26 7f
        E 53 99 33 7d
        E 7 b9 04 30
        E 138 b9 04 36
        E 45 89 26 40
        E 54 89 33 40
        E 31 b9 04 27
        E 256 99 33 43
        E 27 b9 04 38
        E 217 89 33 40
        E 77 b9 04 2c
        E 169 99 24 52
        E 10 99 33 48
        E 58 b9 04 34
        E 177 89 24 40
        E 10 89 33 40
        E 7 b9 04 27
        E 295 99 33 51
        E 9 99 29 78
        E 34 b9 04 32
        E 118 b9 04 22
        E 83 89 33 40
        E 9 89 29 40
        E 60 b9 04 15
        E 203 99 33 49
        E 15 99 29 7f
        E 48 b9 04 25
        E 145 b9 04 2c
        E 36 89 33 40
        E 15 89 29 40
        E 121 b9 04 20
        E 137 99 24 5a
        E 37 99 33 48
        E 152 b9 04 12
        E 55 89 24 40
        E 36 89 33 40
        E 249 99 33 5b
        E 37 b9 04 1a
        E 208 89 33 40
        E 50 b9 04 2c
        E 68 b9 04 3c
        E 106 b9 04 2c
        E 41 99 24 56
        E 5 b9 04 1a
        E 12 99 33 58
        E 34 b9 04 09
        E 29 b9 04 00
        E 164 89 24 40
        E 17 89 33 40
        E 241 99 26 56
        E 5 b9 04 12
        E 15 b9 04 22
        E 22 99 33 65
        E 12 b9 04 32
        E 10 b9 04 43
        E 4 b9 04 4d
        E 2 99 2c 22
        E 3 b9 04 53
        E 29 b9 04 43
        E 32 b9 04 32
        E 29 b9 04 22
        E 58 b9 04 12
        E 24 89 26 40
        E 40 89 33 40
        E 30 89 2c 40
        E 63 b9 04 09
        E 113 b9 04 1a
        E 61 b9 04 2c
        E 9 99 33 4a
        E 124 b9 04 36
        E 109 b9 04 25
        E 11 89 33 40
        E 123 b9 04 1d
        E 111 b9 04 2e
        E 39 99 33 38
        E 10 99 24 55
        E 101 b9 04 36
        E 133 89 33 40
        E 3 b9 04 25
        E 7 89 24 40
        E 133 b9 04 1d
        E 102 99 30 7f
        E 41 99 33 74
        E 57 b9 04 2e
        E 34 b9 04 3e
        E 53 b9 04 4d
        E 3 99 2c 08
        E 12 b9 04 4f
        E 43 89 30 40
        E 41 89 33 40
        E 13 b9 04 3f
        E 55 b9 04 2e
        E 75 b9 04 1d
        E 2 89 2c 40
        E 100 99 30 7f
        E 26 99 33 51
        E 99 b9 04 2e
        E 118 89 30 40
        E 25 89 33 40
        E 2 b9 04 36
        E 123 b9 04 25
        E 119 99 24 59
        E 29 b9 04 20
        E 14 99 33 62
        E 174 b9 04 2c
        E 27 89 24 40
        E 43 89 33 40
        E 182 b9 04 27
        E 58 99 33 4e
        E 144 b9 04 2e
        E 99 89 33 40
        E 259 99 33 4b
        E 12 99 24 51
        E 12 b9 04 36
        E 171 b9 04 29
        E 49 89 33 40
        E 12 89 24 40
        E 125 b9 04 22
        E 187 99 26 7f
        E 9 99 33 77
        E 143 b9 04 2c
        E 92 89 26 40
        E 6 89 33 40
        E 112 b9 04 1d
        E 148 99 33 3e
        E 171 b9 04 29
        E 72 89 33 40
        E 111 b9 04 1d
        E 192 99 30 7f
        E 222 89 30 40
        E 2 99 30 7f
        E 29 b9 04 25
        E 172 b9 04 1d
        E 43 89 30 40
        E 10 99 30 7f
        E 140 b9 04 27
        E 104 89 30 40
        E 24 99 30 5c
        E 237 99 29 7f
        E 7 89 30 40
        E 39 b9 04 2e
        E 198 89 29 40
        E 21 99 29 64
        E 244 89 29 40
        E 46 99 24 6a
        E 12 99 33 7f
        E 233 89 24 40
        E 11 89 33 40
        E 63 b9 04 27
        E 206 99 33 44
        E 42 b9 04 2e
        E 201 89 33 40
        E 204 b9 04 3e
        E 43 99 24 51
        E 46 99 33 7f
        E 53 b9 04 2e
        E 44 b9 04 1d
        E 68 b9 04 0c
        E 33 89 24 40
        E 15 b9 04 00
        E 31 89 33 40
        E 293 99 26 62
        E 16 b9 04 12
        E 5 99 33 7f
        E 17 b9 04 25
        E 11 b9 04 36
        E 10 b9 04 46
        E 6 b9 04 4c
        E 2 99 2c 16
        E 104 b9 04 36
        E 34 b9 04 25
        E 38 b9 04 15
        E 3 89 26 40
        E 19 89 33 40
        E 46 89 2c 40
        E 70 b9 04 06
        E 123 b9 04 18
        E 58 99 33 48
        E 8 b9 04 29
        E 132 b9 04 32
        E 75 b9 04 22
        E 30 89 33 40
        E 118 b9 04 1d
        E 116 99 33 38
        E 5 b9 04 2e
        E 5 99 24 4d
        E 234 89 33 40
        E 10 89 24 40
        E 16 b9 04 1d
        E 220 99 30 7f
        E 55 99 33 44
        E 61 b9 04 2e
        E 128 89 30 40
        E 5 b9 04 36
        E 50 89 33 40
        E 32 b9 04 25
        E 128 b9 04 18
        E 89 99 33 69
        E 28 99 30 7f
        E 6 b9 04 29
        E 104 b9 04 3a
        E 107 89 33 40
        E 29 89 30 40
        E 13 b9 04 29
        E 153 b9 04 1d
        E 111 99 24 55
        E 32 99 33 56
        E 212 89 24 40
        E 31 89 33 40
        E 69 b9 04 15
        E 163 b9 04 25
        E 13 99 33 4c
        E 244 89 33 40
        E 53 b9 04 20
        E 196 b9 04 30
        E 19 99 24 4e
        E 9 99 33 4e
        E 129 b9 04 20
        E 80 b9 04 0f
        E 24 89 24 40
        E 11 89 33 40
        E 27 b9 04 00
        E 278 99 26 7c
        E 10 99 33 7f
        E 14 b9 04 12
        E 24 b9 04 22
        E 7 b9 04 32
        E 8 b9 04 43
        E 7 b9 04 4c
        E 3 99 2c 1e
        E 31 b9 04 32
        E 72 b9 04 22
        E 66 89 26 40
        E 12 89 33 40
        E 17 b9 04 12
        E 43 89 2c 40
        E 186 b9 04 22
        E 60 99 33 39
        E 2 b9 04 32
        E 134 b9 04 36
        E 109 89 33 40
        E 23 b9 04 25
        E 225 99 33 44
        E 17 99 24 4e
        E 89 b9 04 2c
        E 138 89 33 40
        E 17 89 24 40
        E 4 b9 04 1a
        E 294 99 29 7b
        E 12 99 33 35
        E 94 b9 04 2c
        E 138 89 29 40
        E 9 89 33 40
        E 36 b9 04 1a
        E 174 b9 04 15
        E 74 99 29 7f
        E 86 b9 04 25
        E 140 b9 04 30
        E 15 89 29 40
        E 92 b9 04 20
        E 197 99 24 57
        E 34 99 33 4c
        E 210 89 24 40
        E 34 89 33 40
        E 38 b9 04 0f
        E 226 99 33 45
        E 77 b9 04 20
        E 55 b9 04 30
        E 112 89 33 40
        E 64 b9 04 20
        E 230 99 24 54
        E 7 99 33 3c
        E 237 89 24 40
        E 5 89 33 40
        E 31 b9 04 12
        E 252 99 26 6e
        E 67 99 33 78
        E 3 b9 04 20
        E 171 89 26 40
        E 71 89 33 40
        E 72 b9 04 18
        E 193 99 33 34
        E 94 b9 04 20
        E 150 89 33 40
        E 261 99 33 3b
        E 2 99 24 4d
        E 59 b9 04 27
        E 179 b9 04 1a
        E 4 89 33 40
        E 2 89 24 40
        E 264 99 30 7f
        E 34 b9 04 2c
        E 19 99 33 3a
        E 191 89 30 40
        E 53 89 33 40
        E 32 b9 04 1d
        E 219 99 30 7f
        E 3 99 33 44
        E 154 b9 04 2c
        E 85 89 30 40
        E 3 89 33 40
        E 193 b9 04 25
        E 58 99 33 30
        E 244 89 33 40
        E 278 99 33 49
        E 243 89 33 40
        E 304 99 33 44
        E 245 89 33 40
        E 321 99 33 45
        E 150 b9 04 20
        E 92 89 33 40
        E 246 99 33 2f
        E 244 89 33 40
        E 309 99 30 7f
        E 230 89 30 40
        E 3 99 30 7f
        E 33 b9 04 25
        E 196 89 30 40
        E 3 99 30 6b
        E 241 89 30 40
        E 41 99 30 6c
        E 237 99 29 66
        E 7 89 30 40
        E 237 89 29 40
        E 39 99 29 2a
        E 244 89 29 40
        E 22 99 29 7f
        E 4 99 24 72
        E 56 b9 04 20
        E 183 89 29 40
        E 5 89 24 40
        E 247 99 29 40
        E 244 89 29 40
        E 316 99 24 51
        E 33 b9 04 25
        E 13 99 29 5c
        E 147 b9 04 20
        E 51 89 24 40
        E 46 89 29 40
        E 259 99 26 66
        E 33 99 29 7d
        E 211 89 26 40
        E 33 89 29 40
        E 269 99 26 52
        E 2 99 29 6b
        E 239 89 26 40
        E 3 89 29 40
        E 323 99 24 50
        E 3 99 29 45
        E 239 89 24 40
        E 2 89 29 40
        E 296 99 26 78
        E 4 99 29 74
        E 242 89 26 40
        E 2 89 29 40
        E 217 b9 04 30
        E 70 99 29 37
        E 37 b9 04 20
        E 89 b9 04 0f
        E 60 b9 04 00
        E 58 89 29 40
        E 235 b9 04 12
        E 22 b9 04 25
        E 14 b9 04 36
        E 10 99 24 4e
        E 14 99 29 62
        E 91 b9 04 25
        E 71 b9 04 15
        E 68 89 24 40
        E 14 89 29 40
        E 176 b9 04 25
        E 66 b9 04 36
        E 50 99 29 35
        E 66 b9 04 25
        E 50 b9 04 15
        E 56 b9 04 03
        E 22 b9 04 00
        E 51 89 29 40
        E 268 b9 04 12
        E 0 99 24 44
        E 12 99 29 50
        E 14 b9 04 22
        E 22 b9 04 32
        E 38 b9 04 22
        E 78 b9 04 12
        E 80 89 24 40
        E 11 89 29 40
        E 72 b9 04 06
        E 151 b9 04 18
        E 36 b9 04 29
        E 0 99 26 7a
        E 53 99 29 64
        E 126 b9 04 18
        E 63 b9 04 06
        E 3 89 26 40
        E 28 b9 04 00
        E 24 89 29 40
        E 254 99 26 60
        E 24 99 29 64
        E 17 b9 04 12
        E 27 b9 04 22
        E 14 b9 04 32
        E 31 b9 04 43
        E 42 b9 04 32
        E 46 b9 04 20
        E 43 89 26 40
        E 22 b9 04 0f
        E 2 89 29 40
        E 143 b9 04 06
        E 94 b9 04 18
        E 41 b9 04 29
        E 29 99 29 41
        E 5 99 24 50
        E 135 b9 04 18
        E 51 b9 04 06
        E 31 b9 04 00
        E 20 89 29 40
        E 7 89 24 40
        E 288 99 26 64
        E 19 99 29 6b
        E 19 b9 04 12
        E 15 b9 04 22
        E 31 b9 04 32
        E 10 b9 04 43
        E 2 b9 04 4c
        E 2 99 2c 20
        E 5 b9 04 53
        E 27 b9 04 43
        E 51 b9 04 32
        E 33 b9 04 22
        E 30 89 26 40
        E 16 89 29 40
        E 10 b9 04 12
        E 73 89 2c 40
        E 77 b9 04 09
        E 80 b9 04 1a
        E 19 99 29 39
        E 29 b9 04 2c
        E 143 b9 04 1a
        E 50 b9 04 09
        E 22 89 29 40
        E 12 b9 04 00
        E 273 99 24 50
        E 21 b9 04 12
        E 19 99 29 71
        E 16 b9 04 25
        E 9 b9 04 36
        E 10 b9 04 46
        E 5 b9 04 4c
        E 2 99 2c 1a
        E 22 b9 04 36
        E 70 b9 04 25
        E 65 b9 04 15
        E 4 89 24 40
        E 42 89 29 40
        E 41 89 2c 40
        E 63 b9 04 0f
        E 87 b9 04 20
        E 34 b9 04 30
        E 60 99 29 2e
        E 97 b9 04 20
        E 53 b9 04 0f
        E 43 b9 04 00
        E 51 89 29 40
        E 269 99 24 47
        E 2 b9 04 12
        E 9 99 29 49
        E 27 b9 04 25
        E 12 b9 04 36
        E 41 b9 04 25
        E 78 b9 04 15
        E 74 89 24 40
        E 10 89 29 40
        E 17 b9 04 03
        E 203 b9 04 15
        E 28 99 26 78
        E 11 b9 04 25
        E 29 99 29 67
        E 154 b9 04 15
        E 51 89 26 40
        E 19 b9 04 03
        E 17 b9 04 00
        E 3 89 29 40
        E 267 99 26 59
        E 15 99 29 61
        E 59 b9 04 12
        E 35 b9 04 22
        E 19 b9 04 32
        E 68 b9 04 22
        E 48 89 26 40
        E 15 89 29 40
        E 8 b9 04 12
        E 176 b9 04 0c
        E 106 99 29 4d
        E 14 b9 04 1d
        E 78 b9 04 2e
        E 133 b9 04 1d
        E 19 89 29 40
        E 80 b9 04 0c
        E 67 b9 04 00
        E 170 99 29 7e
        E 4 99 26 7b
        E 95 b9 04 12
        E 31 b9 04 22
        E 20 b9 04 32
        E 38 b9 04 22
        E 56 89 29 40
        E 4 89 26 40
        E 25 b9 04 12
        E 217 b9 04 22
        E 39 99 29 3a
        E 157 b9 04 12
        E 63 b9 04 00
        E 24 89 29 40
        E 258 99 24 4b
        E 10 b9 04 12
        E 27 b9 04 22
        E 7 99 29 63
        E 2 b9 04 32
        E 15 b9 04 43
        E 17 b9 04 32
        E 16 b9 04 22
        E 111 b9 04 12
        E 39 89 24 40
        E 44 89 29 40
        E 205 b9 04 22
        E 26 b9 04 32
        E 49 99 29 35
        E 87 b9 04 22
        E 43 b9 04 12
        E 65 b9 04 00
        E 49 89 29 40
        E 261 99 24 46
        E 9 b9 04 12
        E 17 99 29 54
        E 27 b9 04 25
        E 12 b9 04 36
        E 7 b9 04 46
        E 5 b9 04 4c
        E 3 99 2c 1a
        E 23 b9 04 36
        E 57 b9 04 25
        E 43 b9 04 15
        E 41 89 24 40
        E 27 89 29 40
        E 14 b9 04 03
        E 24 b9 04 00
        E 15 89 2c 40
        E 169 b9 04 12
        E 38 b9 04 25
        E 15 99 26 74
        E 12 b9 04 36
        E 10 99 29 71
        E 130 b9 04 22
        E 46 b9 04 12
        E 46 89 26 40
        E 19 89 29 40
        E 17 b9 04 00
        E 239 99 26 41
        E 8 99 29 5e
        E 82 b9 04 12
        E 24 b9 04 25
        E 19 b9 04 36
        E 25 b9 04 46
        E 26 b9 04 36
        E 51 b9 04 25
        E 10 89 26 40
        E 7 89 29 40
        E 36 b9 04 15
        E 154 b9 04 0f
        E 90 b9 04 20
        E 32 99 24 51
        E 9 99 29 43
        E 3 b9 04 30
        E 113 b9 04 20
        E 53 b9 04 0f
        E 55 b9 04 00
        E 10 89 24 40
        E 10 89 29 40
        E 285 99 26 6a
        E 12 99 29 72
        E 20 b9 04 12
        E 12 b9 04 25
        E 33 b9 04 36
        E 8 b9 04 46
        E 2 b9 04 4c
        E 5 99 2c 22
        E 2 b9 04 56
        E 17 b9 04 46
        E 9 b9 04 36
        E 61 b9 04 25
        E 51 b9 04 15
        E 12 89 26 40
        E 12 89 29 40
        E 80 89 2c 40
        E 51 b9 04 09
        E 87 b9 04 1a
        E 60 b9 04 2c
        E 10 99 29 2f
        E 113 b9 04 1a
        E 56 b9 04 09
        E 28 b9 04 00
        E 47 89 29 40
        E 253 b9 04 12
        E 17 99 24 50
        E 13 99 29 74
        E 2 b9 04 22
        E 10 b9 04 32
        E 7 b9 04 43
        E 7 b9 04 4c
        E 2 99 2c 1e
        E 20 b9 04 32
        E 50 b9 04 22
        E 126 b9 04 12
        E 7 89 24 40
        E 13 89 29 40
        E 28 89 2c 40
        E 126 b9 04 25
        E 41 b9 04 36
        E 75 b9 04 46
        E 12 99 29 31
        E 60 b9 04 36
        E 39 b9 04 25
        E 36 b9 04 15
        E 65 b9 04 03
        E 13 b9 04 00
        E 29 89 29 40
        E 269 b9 04 12
        E 23 b9 04 25
        E 9 b9 04 36
        E 8 99 24 4e
        E 2 b9 04 46
        E 2 b9 04 4c
        E 3 99 2c 1a
        E 17 b9 04 56
        E 10 99 29 43
        E 48 b9 04 46
        E 34 b9 04 36
        E 34 b9 04 25
        E 36 b9 04 15
        E 58 89 24 40
        E 8 89 2c 40
        E 26 89 29 40
        E 51 b9 04 06
        E 106 b9 04 18
        E 36 b9 04 29
        E 19 b9 04 3a
        E 34 99 26 79
        E 5 b9 04 4a
        E 19 b9 04 4d
        E 3 99 2c 08
        E 12 99 29 7f
        E 65 b9 04 3a
        E 31 b9 04 29
        E 34 b9 04 18
        E 36 b9 04 06
        E 13 b9 04 00
        E 26 89 26 40
        E 25 89 2c 40
        E 14 89 29 40
        E 220 b9 04 12
        E 17 b9 04 25
        E 7 99 24 51
        E 14 b9 04 36
        E 10 b9 04 46
        E 3 b9 04 4c
        E 0 99 2c 20
        E 5 b9 04 56
        E 38 99 29 43
        E 58 b9 04 46
        E 34 b9 04 36
        E 34 b9 04 25
        E 34 b9 04 15
        E 14 89 24 40
        E 27 89 2c 40
        E 43 89 29 40
        E 55 b9 04 0c
        E 56 b9 04 1d
        E 31 b9 04 2e
        E 29 b9 04 3e
        E 34 99 24 3f
        E 78 99 29 39
        E 43 b9 04 2e
        E 29 b9 04 1d
        E 53 b9 04 0c
        E 29 b9 04 00
        E 12 89 24 40
        E 78 89 29 40
        E 227 99 26 7c
        E 17 b9 04 12
        E 12 b9 04 25
        E 14 b9 04 36
        E 10 99 29 6b
        E 14 b9 04 47
        E 2 b9 04 4d
        E 3 99 2c 20
        E 2 b9 04 57
        E 35 b9 04 47
        E 45 b9 04 36
        E 39 b9 04 25
        E 36 b9 04 15
        E 15 89 26 40
        E 43 b9 04 03
        E 8 89 29 40
        E 16 b9 04 00
        E 2 89 2c 40
        E 136 b9 04 12
        E 41 b9 04 22
        E 27 b9 04 32
        E 43 99 29 35
        E 101 b9 04 22
        E 39 b9 04 12
        E 49 b9 04 00
        E 56 89 29 40
        E 236 b9 04 12
        E 24 b9 04 22
        E 2 99 24 4d
        E 15 b9 04 32
        E 13 b9 04 43
        E 4 b9 04 4c
        E 1 99 2c 1e
        E 3 b9 04 53
        E 5 99 29 5b
        E 58 b9 04 43
        E 39 b9 04 32
        E 41 b9 04 20
        E 66 89 24 40
        E 2 b9 04 0f
        E 28 89 2c 40
        E 9 89 29 40
        E 166 b9 04 20
        E 24 b9 04 30
        E 32 b9 04 41
        E 21 99 29 36
        E 92 b9 04 30
        E 24 b9 04 20
        E 39 b9 04 0f
        E 39 b9 04 00
        E 50 89 29 40
        E 268 b9 04 12
        E 17 99 24 49
        E 5 b9 04 22
        E 29 b9 04 32
        E 8 99 29 4a
        E 2 b9 04 44
        E 2 b9 04 4c
        E 3 99 2c 22
        E 2 b9 04 55
        E 32 b9 04 44
        E 41 b9 04 34
        E 36 b9 04 20
        E 53 b9 04 0f
        E 32 89 24 40
        E 41 89 29 40
        E 6 89 2c 40
        E 3 b9 04 00
        E 145 b9 04 12
        E 39 b9 04 22
        E 17 b9 04 32
        E 26 99 26 7f
        E 3 b9 04 43
        E 53 99 29 6d
        E 70 b9 04 32
        E 27 b9 04 22
        E 38 b9 04 12
        E 48 b9 04 00
        E 3 89 26 40
        E 58 89 29 40
        E 210 b9 04 12
        E 22 b9 04 22
        E 9 99 24 49
        E 8 b9 04 32
        E 9 b9 04 44
        E 3 b9 04 4c
        E 2 99 2c 22
        E 5 b9 04 54
        E 19 99 29 40
        E 73 b9 04 44
        E 38 b9 04 34
        E 29 b9 04 22
        E 39 b9 04 12
        E 19 89 24 40
        E 21 89 2c 40
        E 25 89 29 40
        E 80 b9 04 0c
        E 51 b9 04 1d
        E 31 b9 04 2e
        E 34 b9 04 3e
        E 51 99 24 48
        E 12 99 29 39
        E 55 b9 04 2e
        E 30 b9 04 1d
        E 39 b9 04 0c
        E 31 b9 04 00
        E 76 89 24 40
        E 13 89 29 40
        E 247 99 26 77
        E 17 b9 04 12
        E 9 b9 04 25
        E 6 b9 04 36
        E 30 b9 04 46
        E 2 99 29 53
        E 2 b9 04 4d
        E 3 99 2c 1a
        E 2 b9 04 57
        E 10 b9 04 68
        E 32 b9 04 58
        E 38 b9 04 47
        E 29 b9 04 36
        E 27 b9 04 25
        E 27 b9 04 15
        E 9 89 26 40
        E 46 b9 04 03
        E 20 89 29 40
        E 5 89 2c 40
        E 1 b9 04 00
        E 148 b9 04 12
        E 39 b9 04 22
        E 21 b9 04 32
        E 37 b9 04 43
        E 9 99 29 37
        E 88 b9 04 32
        E 26 b9 04 22
        E 31 b9 04 12
        E 41 b9 04 00
        E 58 89 29 40
        E 252 b9 04 12
        E 9 99 24 4b
        E 2 b9 04 25
        E 32 b9 04 36
        E 10 b9 04 46
        E 3 b9 04 4c
        E 2 99 2c 20
        E 5 b9 04 56
        E 2 99 29 63
        E 17 b9 04 46
        E 12 b9 04 36
        E 61 b9 04 25
        E 45 b9 04 15
        E 53 89 24 40
        E 22 b9 04 03
        E 27 89 2c 40
        E 7 89 29 40
        E 128 b9 04 15
        E 36 b9 04 25
        E 27 b9 04 36
        E 89 99 29 33
        E 66 b9 04 25
        E 33 b9 04 15
        E 43 b9 04 03
        E 10 b9 04 00
        E 92 89 29 40
        E 201 b9 04 12
        E 15 99 24 49
        E 7 b9 04 22
        E 19 b9 04 32
        E 10 b9 04 43
        E 7 b9 04 4c
        E 2 99 2c 1c
        E 3 b9 04 53
        E 2 99 29 4e
        E 53 b9 04 43
        E 39 b9 04 32
        E 34 b9 04 22
        E 40 b9 04 12
        E 25 89 24 40
        E 46 89 2c 40
        E 4 89 29 40
        E 73 b9 04 03
        E 126 b9 04 15
        E 19 b9 04 25
        E 15 b9 04 36
        E 19 99 26 7d
        E 2 b9 04 46
        E 15 b9 04 4d
        E 0 99 2c 0e
        E 33 99 29 66
        E 93 b9 04 36
        E 26 b9 04 25
        E 24 b9 04 15
        E 32 b9 04 03
        E 5 b9 04 00
        E 14 89 26 40
        E 17 89 2c 40
        E 33 89 29 40
        E 220 b9 04 12
        E 13 99 24 43
        E 2 b9 04 22
        E 19 b9 04 32
        E 14 b9 04 43
        E 3 b9 04 4c
        E 2 99 2c 1c
        E 2 b9 04 53
        E 11 99 29 3a
        E 96 b9 04 43
        E 25 b9 04 32
        E 21 b9 04 22
        E 32 b9 04 12
        E 17 89 24 40
        E 34 b9 04 00
        E 7 89 2c 40
        E 12 89 29 40
        E 164 b9 04 12
        E 31 b9 04 22
        E 21 b9 04 32
        E 28 99 29 37
        E 14 99 24 4b
        E 104 b9 04 22
        E 33 b9 04 12
        E 56 b9 04 00
        E 37 89 29 40
        E 14 89 24 40
        E 283 99 26 75
        E 10 b9 04 12
        E 7 b9 04 22
        E 12 b9 04 32
        E 19 99 29 61
        E 10 b9 04 43
        E 5 b9 04 4d
        E 2 99 2c 20
        E 2 b9 04 54
        E 59 b9 04 44
        E 29 b9 04 34
        E 34 b9 04 22
        E 37 b9 04 12
        E 18 89 26 40
        E 46 b9 04 00
        E 2 89 29 40
        E 18 89 2c 40
        E 161 b9 04 12
        E 34 b9 04 25
        E 26 b9 04 36
        E 63 99 29 31
        E 84 b9 04 25
        E 32 b9 04 15
        E 39 b9 04 03
        E 12 b9 04 00
        E 77 89 29 40
        E 208 99 24 46
        E 24 b9 04 12
        E 22 b9 04 22
        E 27 99 29 6a
        E 2 b9 04 32
        E 12 b9 04 43
        E 21 b9 04 32
        E 13 b9 04 20
        E 108 b9 04 0f
        E 15 89 24 40
        E 72 89 29 40
        E 71 b9 04 06
        E 94 b9 04 18
        E 46 b9 04 29
        E 38 99 29 37
        E 18 b9 04 3a
        E 81 b9 04 29
        E 44 b9 04 18
        E 49 b9 04 06
        E 23 b9 04 00
        E 30 89 29 40
        E 284 b9 04 12
        E 26 99 29 59
        E 3 99 24 48
        E 5 b9 04 22
        E 15 b9 04 32
        E 9 b9 04 43
        E 6 b9 04 4c
        E 2 99 2c 1a
        E 76 b9 04 32
        E 35 b9 04 22
        E 43 b9 04 12
        E 48 89 29 40
        E 3 89 24 40
        E 39 89 2c 40
        E 2 b9 04 00
        E 167 b9 04 12
        E 39 b9 04 22
        E 29 b9 04 32
        E 11 99 26 7f
        E 37 99 29 7f
        E 77 b9 04 22
        E 41 b9 04 12
        E 44 b9 04 00
        E 46 89 26 40
        E 36 89 29 40
        E 205 b9 04 12
        E 24 99 24 43
        E 10 b9 04 25
        E 12 b9 04 36
        E 7 b9 04 47
        E 2 b9 04 4c
        E 3 99 2c 1e
        E 34 99 29 3f
        E 73 b9 04 36
        E 35 b9 04 25
        E 39 b9 04 15
        E 29 89 24 40
        E 34 89 2c 40
        E 5 b9 04 03
        E 29 89 29 40
        E 124 b9 04 15
        E 36 b9 04 27
        E 33 b9 04 38
        E 37 99 24 46
        E 57 99 29 3d
        E 41 b9 04 27
        E 46 b9 04 15
        E 46 b9 04 03
        E 9 b9 04 00
        E 44 89 24 40
        E 58 89 29 40
        E 245 b9 04 12
        E 16 b9 04 25
        E 3 99 26 7c
        E 29 b9 04 36
        E 10 b9 04 46
        E 2 99 29 6a
        E 3 b9 04 4d
        E 2 99 2c 20
        E 3 b9 04 57
        E 55 b9 04 47
        E 33 b9 04 36
        E 32 b9 04 25
        E 32 b9 04 15
        E 41 89 26 40
        E 9 b9 04 03
        E 20 b9 04 00
        E 12 89 29 40
        E 2 89 2c 40
        E 174 b9 04 12
        E 31 b9 04 22
        E 17 b9 04 32
        E 27 b9 04 43
        E 28 b9 04 4c
        E 3 99 2c 0a
        E 7 99 29 3f
        E 95 b9 04 32
        E 24 b9 04 22
        E 41 b9 04 12
        E 46 b9 04 00
        E 31 89 2c 40
        E 5 89 29 40
        E 254 b9 04 12
        E 22 99 24 56
        E 2 b9 04 25
        E 12 b9 04 36
        E 13 b9 04 46
        E 2 b9 04 4c
        E 2 99 2c 1a
        E 5 b9 04 56
        E 70 b9 04 46
        E 37 b9 04 36
        E 35 b9 04 22
        E 51 b9 04 12
        E 15 89 24 40
        E 28 89 2c 40
        E 230 b9 04 22
        E 22 b9 04 32
        E 2 99 26 46
        E 29 b9 04 43
        E 19 89 26 40
        E 3 99 26 6c
        E 21 b9 04 4d
        E 5 99 2c 08
        E 143 b9 04 32
        E 75 89 26 40
        E 2 b9 04 22
        E 24 89 2c 40
        E 250 b9 04 32
        E 2 99 26 5e
        E 36 b9 04 43
        E 176 b9 04 32
        E 31 89 26 40
        E 231 99 24 53
        E 50 b9 04 3a
        E 188 b9 04 2e
        E 5 89 24 40
        E 307 b9 04 3e
        E 162 b9 04 44
        E 481 99 24 50
        E 222 b9 04 3a
        E 21 89 24 40
        E 284 b9 04 2e
        E 11 99 26 7f
        E 92 89 26 40
        E 3 99 26 7f
        E 46 b9 04 36
        E 101 b9 04 25
        E 92 89 26 40
        E 227 b9 04 32
        E 522 b9 04 3e
        E 29 99 24 53
        E 186 b9 04 36
        E 55 89 24 40
        E 288 99 26 74
        E 242 89 26 40
        E 79 b9 04 32
        E 179 99 26 57
        E 107 89 26 40
        E 2 99 26 6e
        E 159 b9 04 38
        E 80 89 26 40
        E 239 99 24 57
        E 242 89 24 40
        E 109 b9 04 30
        E 702 b9 04 3a
        E 66 99 24 4b
        E 231 b9 04 32
        E 13 89 24 40
        E 311 99 26 7f
        E 97 99 28 60
        E 145 89 26 40
        E 5 b9 04 22
        E 92 89 28 40
        E 191 b9 04 32
        E 113 b9 04 43
        E 227 b9 04 34
        E 109 b9 04 22
        E 159 99 24 53
        E 34 b9 04 1d
        E 44 b9 04 2e
        E 89 b9 04 1d
        E 77 89 24 40
        E 208 99 26 64
        E 145 b9 04 29
        E 97 89 26 40
        E 275 99 26 6f
        E 94 89 26 40
        E 3 99 26 75
        E 80 b9 04 34
        E 159 89 26 40
        E 49 b9 04 2c
        E 202 99 24 57
        E 244 89 24 40
        E 126 b9 04 27
        E 560 b9 04 36
        E 141 99 24 50
        E 79 b9 04 25
        E 78 b9 04 15
        E 84 89 24 40
        E 3 b9 04 03
        E 21 b9 04 00
        E 269 b9 04 12
        E 2 99 26 7f
        E 29 b9 04 22
        E 63 b9 04 12
        E 27 89 26 40
        E 2 99 26 7f
        E 128 b9 04 06
        E 114 89 26 40
        E 48 b9 04 18
        E 67 b9 04 29
        E 135 b9 04 2e
        E 54 b9 04 1d
        E 51 b9 04 0c
        E 31 b9 04 00
        E 302 b9 04 12
        E 19 b9 04 25
        E 12 b9 04 36
        E 17 99 24 4d
        E 10 b9 04 46
        E 43 b9 04 36
        E 70 b9 04 25
        E 66 b9 04 15
        E 53 89 24 40
        E 152 b9 04 25
        E 67 b9 04 36
        E 83 99 26 75
        E 55 b9 04 3c
        E 87 b9 04 2c
        E 99 89 26 40
        E 32 b9 04 1a
        E 232 99 26 64
        E 16 b9 04 2c
        E 66 89 26 40
        E 2 99 26 68
        E 32 b9 04 1a
        E 178 b9 04 0f
        E 32 89 26 40
        E 253 b9 04 1a
        E 25 99 24 55
        E 241 89 24 40
        E 270 b9 04 27
        E 436 b9 04 34
        E 103 99 24 57
        E 47 b9 04 3a
        E 151 b9 04 29
        E 44 89 24 40
        E 131 b9 04 1d
        E 111 99 26 7f
        E 106 b9 04 2e
        E 2 89 26 40
        E 3 99 26 7f
        E 104 b9 04 1d
        E 138 89 26 40
        E 142 b9 04 2e
        E 121 b9 04 3e
        E 179 b9 04 2e
        E 135 b9 04 1d
        E 198 99 24 65
        E 7 b9 04 2e
        E 39 b9 04 1d
        E 196 89 24 40
        E 275 99 26 7f
        E 225 89 26 40
        E 2 99 26 52
        E 239 89 26 40
        E 10 99 26 56
        E 82 b9 04 2e
        E 160 89 26 40
        E 16 99 26 5e
        E 13 b9 04 34
        E 181 b9 04 22
        E 48 89 26 40
        E 27 b9 04 12
        E 29 99 24 68
        E 26 b9 04 03
        E 3 99 2e 7f
        E 29 b9 04 00
        E 186 89 24 40
        E 29 89 2e 40
        E 79 b9 04 12
        E 34 b9 04 22
        E 25 b9 04 32
        E 48 b9 04 43
        E 147 b9 04 47
        E 159 b9 04 3e
        E 210 b9 04 4c
        E 3 99 2c 06
        E 29 b9 04 4c
        E 97 99 24 59
        E 92 b9 04 3c
        E 23 89 2c 40
        E 126 89 24 40
        E 12 b9 04 34
        E 239 b9 04 2c
        E 61 99 26 73
        E 15 b9 04 2c
        E 2 99 2e 7f
        E 172 b9 04 20
        E 52 89 26 40
        E 20 89 2e 40
        E 99 b9 04 30
        E 176 b9 04 3a
        E 365 b9 04 32
        E 124 b9 04 22
        E 74 99 24 6e
        E 8 b9 04 12
        E 174 b9 04 06
        E 60 89 24 40
        E 162 b9 04 18
        E 139 99 26 76
        E 30 b9 04 27
        E 181 89 26 40
        E 3 99 26 53
        E 224 b9 04 36
        E 15 89 26 40
        E 21 99 26 4c
        E 187 b9 04 3a
        E 58 89 26 40
        E 9 99 26 42
        E 113 b9 04 49
        E 131 89 26 40
        E 20 b9 04 38
        E 17 99 24 7c
        E 2 b9 04 34
        E 2 99 2e 7f
        E 39 b9 04 27
        E 58 b9 04 15
        E 82 b9 04 03
        E 61 89 24 40
        E 4 89 2e 40
        E 87 b9 04 15
        E 54 b9 04 25
        E 52 b9 04 36
        E 143 b9 04 3c
        E 167 b9 04 36
        E 213 b9 04 43
        E 144 99 24 62
        E 192 b9 04 36
        E 50 89 24 40
        E 268 99 26 7f
        E 119 b9 04 43
        E 5 89 26 40
        E 2 99 26 7d
        E 146 b9 04 36
        E 93 89 26 40
        E 191 b9 04 46
        E 265 b9 04 3a
        E 230 b9 04 29
        E 70 b9 04 18
        E 22 99 24 68
        E 28 b9 04 06
        E 5 b9 04 06
        E 2 99 2e 7f
        E 52 b9 04 00
        E 155 89 24 40
        E 38 89 2e 40
        E 191 b9 04 12
        E 58 b9 04 22
        E 41 99 26 33
        E 17 b9 04 32
        E 135 b9 04 38
        E 53 89 26 40
        E 3 99 26 48
        E 244 89 26 40
        E 21 99 26 40
        E 97 b9 04 43
        E 145 89 26 40
        E 10 99 26 4c
        E 24 b9 04 3a
        E 140 b9 04 29
        E 56 b9 04 18
        E 24 89 26 40
        E 17 b9 04 06
        E 9 99 24 7f
        E 20 b9 04 00
        E 16 b9 04 00
        E 2 99 2e 7f
        E 207 89 24 40
        E 35 89 2e 40
        E 806 99 24 53
        E 242 89 24 40
        E 272 99 26 7f
        E 4 b9 04 12
        E 95 89 26 40
        E 2 99 26 7f
        E 34 b9 04 22
        E 147 b9 04 27
        E 61 89 26 40
        E 560 b9 04 18
        E 90 b9 04 06
        E 75 b9 04 00
        E 14 99 24 69
        E 17 b9 04 00
        E 2 99 2e 7f
        E 225 89 24 40
        E 20 89 2e 40
        E 263 b9 04 12
        E 41 99 26 44
        E 72 b9 04 22
        E 141 b9 04 29
        E 14 89 26 40
        E 2 99 26 50
        E 242 89 26 40
        E 5 99 26 64
        E 10 b9 04 36
        E 232 89 26 40
        E 12 99 26 50
        E 113 b9 04 25
        E 53 b9 04 15
        E 73 b9 04 03
        E 5 89 26 40
        E 19 b9 04 00
        E 34 99 24 7b
        E 12 b9 04 00
        E 2 99 2e 7f
        E 230 89 24 40
        E 14 89 2e 40
        E 781 99 24 59
        E 241 89 24 40
        E 227 b9 04 12
        E 20 99 26 7f
        E 80 89 26 40
        E 2 99 26 7f
        E 55 b9 04 20
        E 186 89 26 40
        E 506 b9 04 0f
        E 142 b9 04 00
        E 104 99 24 67
        E 84 b9 04 00
        E 2 99 2e 7f
        E 156 89 24 40
        E 86 89 2e 40
        E 242 b9 04 12
        E 15 99 26 46
        E 105 b9 04 22
        E 119 89 26 40
        E 3 99 26 4b
        E 31 b9 04 27
        E 210 89 26 40
        E 2 99 26 5d
        E 116 b9 04 2e
        E 129 89 26 40
        E 9 99 26 52
        E 114 b9 04 1d
        E 94 b9 04 0c
        E 34 89 26 40
        E 36 b9 04 00
        E 29 99 24 7f
        E 7 b9 04 00
        E 3 99 2e 7f
        E 234 89 24 40
        E 10 89 2e 40
        E 807 99 24 56
        E 243 89 24 40
        E 257 99 26 7f
        E 12 b9 04 12
        E 77 89 26 40
        E 3 99 26 7f
        E 71 b9 04 20
        E 171 89 26 40
        E 407 b9 04 0f
        E 175 b9 04 03
        E 161 99 24 62
        E 3 b9 04 00
        E 34 b9 04 03
        E 1 99 2e 7f
        E 206 89 24 40
        E 39 89 2e 40
        E 309 99 26 50
        E 128 b9 04 12
        E 109 89 26 40
        E 3 99 26 5d
        E 63 b9 04 1d
        E 177 89 26 40
        E 30 99 28 44
        E 242 89 28 40
        E 303 99 30 43
        E 242 89 30 40
        E 30 99 30 52
        E 222 89 30 40
        E 2 99 30 3e
        E 68 99 26 0a
        E 174 89 30 40
        E 4 b9 04 18
        E 61 89 26 40
        E 331 99 2d 73
        E 118 b9 04 12
        E 120 89 2d 40
        E 1 99 2d 7f
        E 230 89 2d 40
        E 2 99 2d 7a
        E 242 89 2d 40
        E 260 b9 04 1d
        E 32 99 29 7f
        E 186 b9 04 25
        E 44 89 29 40
        E 2 99 29 45
        E 138 b9 04 1d
        E 104 89 29 40
        E 46 99 24 7a
        E 244 89 24 40
        E 338 99 24 62
        E 181 b9 04 29
        E 63 89 24 40
        E 116 b9 04 3a
        E 162 99 24 66
        E 55 b9 04 29
        E 162 b9 04 1d
        E 27 89 24 40
        E 302 99 26 7f
        E 91 89 26 40
        E 3 99 26 7f
        E 2 b9 04 25
        E 138 b9 04 20
        E 104 89 26 40
        E 116 b9 04 29
        E 476 b9 04 32
        E 152 99 24 6a
        E 244 89 24 40
        E 36 b9 04 2c
        E 224 99 26 7f
        E 121 89 26 40
        E 3 99 26 7f
        E 242 89 26 40
        E 239 b9 04 32
        E 295 b9 04 29
        E 193 99 24 68
        E 242 89 24 40
        E 288 99 24 60
        E 243 89 24 40
        E 114 b9 04 32
        E 169 99 24 61
        E 169 b9 04 29
        E 72 89 24 40
        E 305 99 26 7f
        E 36 b9 04 2e
        E 71 89 26 40
        E 1 99 26 7f
        E 240 89 26 40
        E 647 b9 04 38
        E 65 99 24 62
        E 128 b9 04 27
        E 117 89 24 40
        E 36 b9 04 20
        E 229 99 26 7a
        E 58 b9 04 30
        E 85 99 28 62
        E 101 89 26 40
        E 112 b9 04 29
        E 28 89 28 40
        E 215 b9 04 36
        E 230 b9 04 2e
        E 253 99 24 62
        E 242 89 24 40
        E 312 99 24 67
        E 63 b9 04 32
        E 178 89 24 40
        E 129 b9 04 3e
        E 140 99 24 54
        E 125 b9 04 34
        E 116 89 24 40
        E 299 99 26 7f
        E 83 b9 04 38
        E 17 89 26 40
        E 2 99 26 7f
        E 200 b9 04 32
        E 39 89 26 40
        E 325 b9 04 38
        E 466 99 24 5c
        E 207 b9 04 2e
        E 34 89 24 40
        E 223 99 26 7f
        E 91 89 26 40
        E 2 99 26 7f
        E 240 89 26 40
        E 311 b9 04 38
        E 200 b9 04 2e
        E 228 99 24 5a
        E 85 b9 04 36
        E 157 89 24 40
        E 294 99 24 67
        E 242 89 24 40
        E 143 b9 04 3e
        E 108 99 24 59
        E 152 b9 04 36
        E 90 89 24 40
        E 278 99 26 7f
        E 89 89 26 40
        E 2 99 26 7f
        E 196 b9 04 32
        E 44 89 26 40
        E 212 99 2d 7f
        E 15 99 30 71
        E 232 89 2d 40
        E 9 89 30 40
        E 235 99 2d 7f
        E 28 99 30 71
        E 216 89 2d 40
        E 29 89 30 40
        E 270 99 29 51
        E 20 99 2d 7d
        E 222 89 29 40
        E 22 89 2d 40
        E 181 b9 04 2e
        E 61 99 2d 7f
        E 21 99 29 63
        E 220 89 2d 40
        E 24 89 29 40
        E 249 99 24 78
        E 65 99 33 7e
        E 48 b9 04 1d
        E 131 89 24 40
        E 65 89 33 40
        E 261 99 33 34
        E 60 b9 04 0c
        E 47 b9 04 00
        E 137 89 33 40
        E 220 b9 04 12
        E 9 b9 04 22
        E 10 99 26 6a
        E 12 b9 04 32
        E 15 b9 04 43
        E 5 b9 04 4c
        E 2 99 2c 20
        E 3 b9 04 53
        E 4 99 33 52
        E 5 b9 04 63
        E 22 b9 04 53
        E 45 b9 04 43
        E 42 b9 04 32
        E 36 b9 04 22
        E 53 89 26 40
        E 24 b9 04 12
        E 10 89 2c 40
        E 8 89 33 40
        E 164 b9 04 22
        E 33 b9 04 32
        E 32 b9 04 43
        E 34 b9 04 4f
        E 3 99 2c 08
        E 26 b9 04 53
        E 4 99 33 26
        E 66 b9 04 43
        E 33 b9 04 32
        E 27 b9 04 22
        E 48 b9 04 12
        E 37 89 2c 40
        E 33 89 33 40
        E 2 b9 04 00
        E 223 b9 04 12
        E 17 b9 04 22
        E 5 99 24 57
        E 4 b9 04 32
        E 10 b9 04 43
        E 10 b9 04 4c
        E 3 99 2c 14
        E 4 b9 04 53
        E 13 99 33 6b
        E 125 b9 04 43
        E 31 b9 04 32
        E 29 b9 04 22
        E 15 89 24 40
        E 27 89 2c 40
        E 16 89 33 40
        E 78 b9 04 18
        E 65 b9 04 29
        E 38 b9 04 3a
        E 37 b9 04 4a
        E 15 b9 04 4f
        E 2 99 2c 08
        E 12 99 24 4c
        E 24 99 33 2b
        E 70 b9 04 3a
        E 31 b9 04 29
        E 32 b9 04 18
        E 43 b9 04 06
        E 22 b9 04 00
        E 9 89 2c 40
        E 13 89 24 40
        E 24 89 33 40
        E 266 b9 04 12
        E 7 b9 04 25
        E 10 99 26 52
        E 2 b9 04 36
        E 22 b9 04 46
        E 2 99 33 7f
        E 3 b9 04 4c
        E 2 99 2c 16
        E 4 b9 04 56
        E 8 b9 04 66
        E 53 b9 04 56
        E 29 b9 04 46
        E 32 b9 04 36
        E 26 b9 04 25
        E 36 b9 04 15
        E 24 89 26 40
        E 27 89 33 40
        E 5 89 2c 40
        E 89 b9 04 0c
        E 83 b9 04 1d
        E 21 b9 04 2e
        E 17 b9 04 3e
        E 27 b9 04 4d
        E 3 99 2c 0e
        E 4 b9 04 4f
        E 53 99 33 38
        E 56 b9 04 3f
        E 28 b9 04 2e
        E 28 b9 04 1d
        E 38 b9 04 0c
        E 24 b9 04 00
        E 10 89 2c 40
        E 58 89 33 40
        E 195 b9 04 12
        E 22 b9 04 25
        E 8 99 24 55
        E 7 b9 04 36
        E 12 b9 04 46
        E 0 b9 04 4c
        E 2 99 2c 22
        E 2 b9 04 56
        E 17 99 33 7f
        E 99 b9 04 46
        E 30 b9 04 36
        E 29 b9 04 25
        E 31 b9 04 15
        E 14 89 24 40
        E 20 89 2c 40
        E 19 89 33 40
        E 155 b9 04 25
        E 22 b9 04 36
        E 24 b9 04 46
        E 19 b9 04 4d
        E 3 99 2c 0a
        E 48 99 33 37
        E 68 b9 04 36
        E 31 b9 04 25
        E 29 b9 04 15
        E 34 b9 04 03
        E 14 b9 04 00
        E 17 89 2c 40
        E 48 89 33 40
        E 215 99 26 7c
        E 17 b9 04 12
        E 12 b9 04 22
        E 15 b9 04 32
        E 5 99 33 4a
        E 10 b9 04 43
        E 4 b9 04 4c
        E 2 99 2c 1c
        E 3 b9 04 53
        E 12 b9 04 63
        E 56 b9 04 53
        E 34 b9 04 43
        E 31 b9 04 32
        E 22 b9 04 22
        E 22 89 26 40
        E 17 b9 04 12
        E 31 89 33 40
        E 17 89 2c 40
        E 169 b9 04 22
        E 19 b9 04 32
        E 29 b9 04 43
        E 24 99 33 28
        E 99 b9 04 32
        E 25 b9 04 22
        E 30 b9 04 12
        E 42 b9 04 00
        E 46 89 33 40
        E 227 b9 04 12
        E 12 99 24 41
        E 7 b9 04 22
        E 15 b9 04 32
        E 7 b9 04 43
        E 2 99 33 51
        E 3 b9 04 4c
        E 4 99 2c 20
        E 3 b9 04 53
        E 12 b9 04 63
        E 89 b9 04 53
        E 32 b9 04 43
        E 24 b9 04 32
        E 22 b9 04 22
        E 24 89 24 40
        E 8 b9 04 12
        E 21 89 33 40
        E 9 89 2c 40
        E 112 b9 04 0c
        E 56 b9 04 1d
        E 23 b9 04 2e
        E 20 b9 04 3e
        E 26 b9 04 4d
        E 3 99 2c 0e
        E 2 b9 04 4f
        E 27 99 33 38
        E 3 99 24 4d
        E 96 b9 04 3f
        E 26 b9 04 2e
        E 25 b9 04 1d
        E 41 b9 04 0c
        E 24 89 2c 40
        E 2 b9 04 00
        E 27 89 33 40
        E 2 89 24 40
        E 264 99 26 70
        E 7 b9 04 12
        E 15 b9 04 25
        E 14 b9 04 36
        E 7 99 33 55
        E 5 b9 04 46
        E 2 b9 04 4c
        E 3 99 2c 1e
        E 2 b9 04 57
        E 12 b9 04 68
        E 19 b9 04 58
        E 44 b9 04 47
        E 42 b9 04 36
        E 38 b9 04 25
        E 34 89 26 40
        E 13 b9 04 15
        E 30 89 33 40
        E 10 89 2c 40
        E 174 b9 04 25
        E 22 b9 04 36
        E 21 b9 04 46
        E 22 b9 04 4d
        E 3 99 2c 0a
        E 45 99 33 2f
        E 73 b9 04 36
        E 27 b9 04 25
        E 28 b9 04 15
        E 37 b9 04 03
        E 12 b9 04 00
        E 21 89 2c 40
        E 41 89 33 40
        E 201 b9 04 12
        E 22 b9 04 22
        E 5 99 24 4b
        E 5 b9 04 32
        E 9 b9 04 44
        E 3 b9 04 4c
        E 2 99 2c 24
        E 2 b9 04 54
        E 27 99 33 76
        E 97 b9 04 44
        E 29 b9 04 34
        E 29 b9 04 22
        E 38 89 24 40
        E 14 b9 04 12
        E 5 89 2c 40
        E 31 89 33 40
        E 146 b9 04 22
        E 22 b9 04 32
        E 26 b9 04 43
        E 25 b9 04 4d
        E 2 99 2c 0a
        E 39 99 33 3b
        E 84 b9 04 32
        E 19 b9 04 22
        E 37 b9 04 12
        E 41 b9 04 00
        E 24 89 2c 40
        E 38 89 33 40
        E 232 b9 04 12
        E 15 b9 04 22
        E 3 99 26 72
        E 11 b9 04 32
        E 15 b9 04 43
        E 5 b9 04 4c
        E 2 99 2c 1c
        E 2 b9 04 53
        E 7 b9 04 63
        E 5 99 33 7f
        E 83 b9 04 53
        E 31 b9 04 43
        E 20 b9 04 32
        E 19 b9 04 22
        E 36 b9 04 12
        E 8 89 26 40
        E 33 89 2c 40
        E 15 89 33 40
        E 84 b9 04 06
        E 53 b9 04 18
        E 31 b9 04 29
        E 18 b9 04 3a
        E 31 b9 04 4a
        E 7 b9 04 4d
        E 3 99 2c 0a
        E 43 99 33 48
        E 73 b9 04 3a
        E 29 b9 04 29
        E 32 b9 04 18
        E 35 b9 04 06
        E 15 b9 04 00
        E 16 89 2c 40
        E 44 89 33 40
        E 208 b9 04 12
        E 17 b9 04 25
        E 7 99 24 46
        E 3 b9 04 36
        E 12 b9 04 47
        E 2 b9 04 4c
        E 3 99 2c 1a
        E 9 b9 04 57
        E 17 99 33 6d
        E 56 b9 04 47
        E 48 b9 04 36
        E 41 b9 04 25
        E 51 89 24 40
        E 2 b9 04 15
        E 17 89 2c 40
        E 29 89 33 40
        E 126 b9 04 25
        E 21 b9 04 36
        E 22 b9 04 46
        E 14 b9 04 4f
        E 3 99 2c 0e
        E 22 b9 04 56
        E 26 99 24 43
        E 22 99 33 41
        E 51 b9 04 46
        E 31 b9 04 36
        E 24 b9 04 25
        E 32 b9 04 15
        E 33 89 2c 40
        E 10 b9 04 03
        E 12 b9 04 00
        E 27 89 24 40
        E 24 89 33 40
        E 249 99 26 70
        E 2 b9 04 12
        E 17 b9 04 22
        E 17 b9 04 32
        E 10 99 33 56
        E 2 b9 04 43
        E 5 b9 04 4c
        E 2 99 2c 1e
        E 3 b9 04 54
        E 12 b9 04 64
        E 37 b9 04 54
        E 33 b9 04 44
        E 39 b9 04 34
        E 26 b9 04 22
        E 37 b9 04 12
        E 2 89 26 40
        E 46 89 33 40
        E 5 89 2c 40
        E 94 b9 04 09
        E 56 b9 04 1a
        E 31 b9 04 2c
        E 22 b9 04 3c
        E 55 99 33 46
        E 102 b9 04 2c
        E 33 b9 04 1a
        E 34 b9 04 09
        E 22 b9 04 00
        E 53 89 33 40
        E 210 b9 04 12
        E 22 b9 04 22
        E 10 b9 04 32
        E 7 99 24 4e
        E 5 b9 04 43
        E 3 b9 04 4d
        E 2 99 2c 22
        E 2 b9 04 53
        E 22 99 33 6b
        E 104 b9 04 43
        E 24 b9 04 32
        E 22 b9 04 22
        E 38 b9 04 12
        E 22 89 24 40
        E 8 89 2c 40
        E 24 89 33 40
        E 132 b9 04 22
        E 20 b9 04 32
        E 22 b9 04 43
        E 17 b9 04 4d
        E 2 99 2c 0c
        E 15 b9 04 53
        E 77 99 33 2b
        E 34 b9 04 43
        E 29 b9 04 32
        E 21 b9 04 22
        E 36 b9 04 12
        E 30 89 2c 40
        E 26 b9 04 00
        E 68 89 33 40
        E 217 99 28 29
        E 17 b9 04 12
        E 15 99 33 70
        E 5 b9 04 25
        E 13 b9 04 36
        E 8 b9 04 46
        E 2 b9 04 4d
        E 3 99 2c 24
        E 5 b9 04 56
        E 9 b9 04 66
        E 32 b9 04 56
        E 39 b9 04 46
        E 38 b9 04 36
        E 31 b9 04 25
        E 27 89 28 40
        E 17 b9 04 15
        E 12 89 33 40
        E 34 89 2c 40
        E 143 b9 04 25
        E 26 b9 04 36
        E 27 b9 04 46
        E 12 b9 04 4d
        E 2 99 2c 0a
        E 24 99 33 39
        E 112 b9 04 36
        E 28 b9 04 25
        E 30 b9 04 15
        E 34 b9 04 03
        E 14 b9 04 00
        E 2 89 2c 40
        E 23 89 33 40
        E 233 b9 04 12
        E 7 99 24 4c
        E 10 b9 04 25
        E 9 b9 04 36
        E 8 b9 04 46
        E 0 b9 04 4c
        E 2 99 2c 22
        E 7 b9 04 56
        E 5 99 33 64
        E 25 b9 04 66
        E 86 b9 04 56
        E 27 b9 04 46
        E 27 b9 04 36
        E 29 b9 04 25
        E 9 89 24 40
        E 30 89 2c 40
        E 2 b9 04 15
        E 10 89 33 40
        E 166 b9 04 25
        E 21 b9 04 36
        E 25 b9 04 46
        E 12 b9 04 4d
        E 3 99 2c 0c
        E 24 99 24 47
        E 2 b9 04 56
        E 17 99 33 3d
        E 92 b9 04 46
        E 29 b9 04 36
        E 29 b9 04 25
        E 34 b9 04 15
        E 14 89 2c 40
        E 27 89 24 40
        E 3 b9 04 03
        E 13 b9 04 00
        E 3 89 33 40
        E 268 b9 04 12
        E 22 b9 04 22
        E 3 99 26 70
        E 7 b9 04 32
        E 7 b9 04 44
        E 5 b9 04 4c
        E 2 99 2c 20
        E 3 b9 04 54
        E 9 99 33 72
        E 5 b9 04 64
        E 76 b9 04 54
        E 31 b9 04 44
        E 22 b9 04 34
        E 24 b9 04 22
        E 41 b9 04 12
        E 11 89 26 40
        E 20 89 2c 40
        E 14 89 33 40
        E 107 b9 04 0c
        E 60 b9 04 1d
        E 22 b9 04 2e
        E 17 b9 04 3e
        E 26 b9 04 4d
        E 3 99 2c 0e
        E 4 b9 04 4f
        E 51 99 33 26
        E 63 b9 04 3f
        E 27 b9 04 2e
        E 24 b9 04 1d
        E 38 b9 04 0c
        E 29 b9 04 00
        E 5 89 2c 40
        E 56 89 33 40
        E 201 b9 04 12
        E 19 b9 04 22
        E 2 99 24 4b
        E 10 b9 04 32
        E 9 b9 04 44
        E 5 b9 04 4c
        E 3 99 2c 1e
        E 2 b9 04 54
        E 8 99 33 5e
        E 29 b9 04 64
        E 58 b9 04 54
        E 36 b9 04 44
        E 24 b9 04 34
        E 27 b9 04 22
        E 33 89 24 40
        E 3 b9 04 12
        E 24 89 2c 40
        E 9 89 33 40
        E 170 b9 04 22
        E 18 b9 04 32
        E 23 b9 04 43
        E 24 b9 04 4d
        E 2 99 2c 0a
        E 26 b9 04 53
        E 13 99 33 20
        E 67 b9 04 43
        E 34 b9 04 32
        E 25 b9 04 22
        E 41 b9 04 12
        E 38 89 2c 40
        E 10 b9 04 00
        E 26 89 33 40
        E 261 b9 04 12
        E 20 b9 04 25
        E 9 b9 04 36
        E 2 99 28 65
        E 8 b9 04 46
        E 2 b9 04 4c
        E 3 99 2c 1e
        E 5 99 33 51
        E 2 b9 04 56
        E 109 b9 04 46
        E 24 b9 04 36
        E 29 b9 04 25
        E 36 b9 04 15
        E 27 89 28 40
        E 10 89 2c 40
        E 9 89 33 40
        E 102 b9 04 0c
        E 58 b9 04 1d
        E 28 b9 04 2e
        E 18 b9 04 3e
        E 28 b9 04 4d
        E 2 99 2c 0c
        E 6 b9 04 4f
        E 44 99 33 1f
        E 67 b9 04 3f
        E 34 b9 04 2e
        E 26 b9 04 1d
        E 39 b9 04 0c
        E 21 b9 04 00
        E 7 89 2c 40
        E 49 89 33 40
        E 201 b9 04 12
        E 16 b9 04 25
        E 10 99 24 45
        E 3 b9 04 36
        E 7 b9 04 46
        E 5 b9 04 4c
        E 2 99 2c 1a
        E 8 b9 04 56
        E 50 99 33 54
        E 83 b9 04 46
        E 26 b9 04 36
        E 27 b9 04 25
        E 31 b9 04 15
        E 3 89 24 40
        E 14 89 2c 40
        E 60 89 33 40
        E 63 b9 04 0f
        E 51 b9 04 20
        E 22 b9 04 30
        E 21 b9 04 41
        E 17 b9 04 4d
        E 2 99 2c 0c
        E 10 b9 04 51
        E 50 99 24 4a
        E 45 99 33 2b
        E 31 b9 04 41
        E 31 b9 04 30
        E 22 b9 04 20
        E 41 b9 04 0f
        E 15 89 2c 40
        E 21 b9 04 00
        E 37 89 24 40
        E 43 89 33 40
        E 230 b9 04 12
        E 16 99 26 7f
        E 5 b9 04 25
        E 10 b9 04 36
        E 10 b9 04 47
        E 4 b9 04 4d
        E 2 99 2c 22
        E 2 b9 04 57
        E 23 99 33 3e
        E 7 b9 04 67
        E 42 b9 04 57
        E 33 b9 04 47
        E 27 b9 04 36
        E 29 b9 04 25
        E 31 b9 04 15
        E 17 89 26 40
        E 31 89 2c 40
        E 25 89 33 40
        E 70 b9 04 06
        E 73 b9 04 18
        E 28 b9 04 29
        E 20 b9 04 3a
        E 26 b9 04 4a
        E 10 b9 04 4d
        E 3 99 2c 0c
        E 19 99 33 17
        E 89 b9 04 3a
        E 32 b9 04 29
        E 26 b9 04 18
        E 28 b9 04 06
        E 23 b9 04 00
        E 26 89 2c 40
        E 18 89 33 40
        E 228 b9 04 12
        E 18 b9 04 22
        E 19 b9 04 32
        E 7 b9 04 43
        E 5 b9 04 4c
        E 2 99 2c 1c
        E 3 99 24 4b
        E 2 b9 04 53
        E 12 b9 04 63
        E 15 99 33 4a
        E 84 b9 04 53
        E 27 b9 04 43
        E 22 b9 04 32
        E 19 b9 04 22
        E 31 b9 04 12
        E 30 89 2c 40
        E 2 89 24 40
        E 29 89 33 40
        E 80 b9 04 06
        E 57 b9 04 18
        E 27 b9 04 29
        E 19 b9 04 3a
        E 30 b9 04 4a
        E 7 b9 04 4d
        E 2 99 2c 0c
        E 24 99 33 28
        E 91 b9 04 3a
        E 30 b9 04 29
        E 32 b9 04 18
        E 34 b9 04 06
        E 21 b9 04 00
        E 8 89 2c 40
        E 26 89 33 40
        E 261 99 26 7f
        E 2 b9 04 12
        E 19 b9 04 25
        E 14 b9 04 36
        E 11 b9 04 46
        E 2 b9 04 4d
        E 3 99 2c 1e
        E 2 b9 04 56
        E 10 99 33 3d
        E 15 b9 04 66
        E 52 b9 04 56
        E 36 b9 04 46
        E 25 b9 04 36
        E 29 b9 04 25
        E 24 89 26 40
        E 5 b9 04 15
        E 46 89 2c 40
        E 12 89 33 40
        E 80 b9 04 06
        E 74 b9 04 18
        E 27 b9 04 29
        E 20 b9 04 3a
        E 31 b9 04 4a
        E 9 b9 04 4d
        E 3 99 2c 0a
        E 12 99 33 1a
        E 92 b9 04 3a
        E 26 b9 04 29
        E 29 b9 04 18
        E 32 b9 04 06
        E 16 b9 04 00
        E 35 89 2c 40
        E 13 89 33 40
        E 221 b9 04 12
        E 19 b9 04 22
        E 12 b9 04 32
        E 2 99 24 4e
        E 12 b9 04 43
        E 6 b9 04 4d
        E 0 99 2c 1a
        E 2 b9 04 53
        E 14 b9 04 63
        E 25 99 33 44
        E 81 b9 04 53
        E 27 b9 04 43
        E 24 b9 04 32
        E 17 b9 04 22
        E 34 b9 04 12
        E 2 89 24 40
        E 17 89 2c 40
        E 39 89 33 40
        E 82 b9 04 0c
        E 43 b9 04 1d
        E 22 b9 04 2e
        E 20 b9 04 3e
        E 20 b9 04 4d
        E 2 99 2c 0e
        E 2 b9 04 4f
        E 48 99 24 48
        E 19 99 33 35
        E 75 b9 04 3f
        E 27 b9 04 2e
        E 28 b9 04 1d
        E 42 b9 04 0c
        E 2 89 2c 40
        E 17 b9 04 00
        E 32 89 24 40
        E 21 89 33 40
        E 250 99 26 7f
        E 4 b9 04 12
        E 12 b9 04 25
        E 12 b9 04 36
        E 15 b9 04 46
        E 2 b9 04 4c
        E 3 99 2c 16
        E 5 b9 04 56
        E 11 99 33 5b
        E 3 b9 04 67
        E 94 b9 04 57
        E 27 b9 04 47
        E 19 b9 04 36
        E 16 b9 04 22
        E 20 89 26 40
        E 15 b9 04 12
        E 33 89 2c 40
        E 18 89 33 40
        E 31 b9 04 00
        E 123 b9 04 12
        E 27 b9 04 22
        E 12 b9 04 32
        E 19 b9 04 43
        E 20 b9 04 4c
        E 2 99 2c 0c
        E 14 b9 04 53
        E 3 99 33 2f
        E 92 b9 04 43
        E 26 b9 04 32
        E 20 b9 04 22
        E 31 b9 04 12
        E 36 b9 04 00
        E 19 89 2c 40
        E 20 89 33 40
        E 229 b9 04 12
        E 15 b9 04 25
        E 2 99 24 4e
        E 17 b9 04 36
        E 15 b9 04 46
        E 2 b9 04 4c
        E 0 99 2c 1e
        E 5 b9 04 56
        E 10 99 33 4d
        E 89 b9 04 46
        E 29 b9 04 36
        E 26 b9 04 25
        E 30 b9 04 15
        E 22 89 24 40
        E 31 89 2c 40
        E 17 89 33 40
        E 75 b9 04 0f
        E 62 b9 04 20
        E 24 b9 04 30
        E 34 b9 04 41
        E 15 99 33 19
        E 104 b9 04 30
        E 24 b9 04 20
        E 46 b9 04 0f
        E 36 b9 04 00
        E 34 89 33 40
        E 292 b9 04 12
        E 20 99 28 59
        E 2 b9 04 22
        E 10 b9 04 32
        E 11 99 33 67
        E 3 b9 04 43
        E 3 b9 04 4c
        E 2 99 2c 1c
        E 0 b9 04 53
        E 12 b9 04 63
        E 94 b9 04 53
        E 27 b9 04 43
        E 22 b9 04 32
        E 19 b9 04 22
        E 39 89 28 40
        E 2 b9 04 12
        E 19 89 33 40
        E 5 89 2c 40
        E 121 b9 04 0c
        E 55 b9 04 1d
        E 24 b9 04 2e
        E 22 b9 04 3e
        E 24 b9 04 4d
        E 3 99 2c 0c
        E 5 b9 04 4f
        E 30 99 33 28
        E 91 b9 04 3f
        E 26 b9 04 2e
        E 22 b9 04 1d
        E 36 b9 04 0c
        E 24 b9 04 00
        E 10 89 2c 40
        E 36 89 33 40
        E 214 b9 04 12
        E 23 99 24 47
        E 2 b9 04 25
        E 15 b9 04 36
        E 7 b9 04 46
        E 2 b9 04 4c
        E 2 99 2c 20
        E 3 b9 04 56
        E 47 99 33 66
        E 79 b9 04 46
        E 22 b9 04 36
        E 26 b9 04 25
        E 29 b9 04 15
        E 10 89 24 40
        E 29 89 2c 40
        E 48 89 33 40
        E 51 b9 04 0c
        E 56 b9 04 1d
        E 26 b9 04 2e
        E 19 b9 04 3e
        E 27 b9 04 4d
        E 3 99 2c 0c
        E 4 b9 04 4f
        E 20 99 24 45
        E 45 99 33 26
        E 49 b9 04 3f
        E 33 b9 04 2e
        E 28 b9 04 1d
        E 30 b9 04 0c
        E 25 b9 04 00
        E 9 89 2c 40
        E 22 89 24 40
        E 49 89 33 40
        E 232 b9 04 12
        E 12 b9 04 25
        E 14 b9 04 36
        E 15 99 28 59
        E 3 b9 04 46
        E 1 b9 04 4c
        E 3 99 2c 16
        E 4 b9 04 56
        E 13 b9 04 66
        E 16 99 33 5b
        E 76 b9 04 56
        E 26 b9 04 46
        E 22 b9 04 36
        E 22 b9 04 25
        E 26 b9 04 15
        E 32 89 28 40
        E 4 89 2c 40
        E 30 b9 04 03
        E 6 89 33 40
        E 140 b9 04 15
        E 25 b9 04 25
        E 17 b9 04 36
        E 24 b9 04 46
        E 17 b9 04 4d
        E 2 99 2c 0a
        E 20 99 33 1f
        E 102 b9 04 36
        E 24 b9 04 22
        E 29 b9 04 12
        E 37 b9 04 00
        E 30 89 2c 40
        E 22 89 33 40
        E 225 b9 04 12
        E 9 99 24 50
        E 7 b9 04 25
        E 19 b9 04 36
        E 5 99 33 2f
        E 5 b9 04 46
        E 3 b9 04 4d
        E 4 99 2c 1c
        E 2 b9 04 56
        E 90 b9 04 46
        E 30 b9 04 36
        E 26 b9 04 25
        E 36 b9 04 15
        E 15 89 24 40
        E 31 89 33 40
        E 14 89 2c 40
        E 123 b9 04 25
        E 39 b9 04 36
        E 92 99 28 52
        E 54 b9 04 25
        E 34 b9 04 15
        E 38 b9 04 03
        E 14 b9 04 00
        E 90 99 26 7f
        E 12 89 28 40
        E 152 b9 04 12
        E 17 b9 04 22
        E 9 b9 04 32
        E 12 b9 04 43
        E 8 b9 04 4c
        E 3 99 2c 14
        E 6 b9 04 53
        E 17 89 26 40
        E 3 99 26 73
        E 87 b9 04 43
        E 29 b9 04 32
        E 21 b9 04 22
        E 36 b9 04 12
        E 44 89 2c 40
        E 28 89 26 40
        E 83 b9 04 0c
        E 46 b9 04 1d
        E 37 b9 04 2e
        E 154 b9 04 1d
        E 7 99 30 7f
        E 37 b9 04 0c
        E 29 b9 04 00
        E 178 89 30 40
        E 5 99 30 7f
        E 80 b9 04 12
        E 19 b9 04 25
        E 13 b9 04 36
        E 8 b9 04 46
        E 8 b9 04 4c
        E 3 99 2c 14
        E 16 b9 04 56
        E 97 89 30 40
        E 3 99 30 44
        E 7 b9 04 46
        E 24 b9 04 36
        E 32 b9 04 25
        E 34 b9 04 15
        E 31 89 2c 40
        E 111 89 30 40
        E 24 b9 04 25
        E 26 b9 04 36
        E 32 b9 04 46
        E 25 b9 04 4d
        E 2 99 2c 0a
        E 144 b9 04 36
        E 42 b9 04 25
        E 24 99 2d 66
        E 24 b9 04 15
        E 7 89 2c 40
        E 41 b9 04 03
        E 13 b9 04 00
        E 140 89 2d 40
        E 0 99 2d 7f
        E 86 b9 04 12
        E 22 b9 04 25
        E 12 b9 04 36
        E 15 b9 04 46
        E 2 b9 04 4c
        E 3 99 2c 16
        E 7 b9 04 56
        E 26 b9 04 66
        E 49 b9 04 56
        E 7 89 2d 40
        E 3 99 2d 7d
        E 21 b9 04 46
        E 29 b9 04 36
        E 27 b9 04 25
        E 38 b9 04 15
        E 34 89 2c 40
        E 93 89 2d 40
        E 69 99 2d 7f
        E 24 b9 04 25
        E 32 b9 04 36
        E 24 b9 04 46
        E 11 b9 04 4d
        E 3 99 2c 0c
        E 24 b9 04 56
        E 102 99 29 7e
        E 22 89 2d 40
        E 2 b9 04 46
        E 29 b9 04 36
        E 29 b9 04 25
        E 36 89 2c 40
        E 5 b9 04 15
        E 44 b9 04 03
        E 9 b9 04 00
        E 68 89 29 40
        E 24 99 29 63
        E 184 b9 04 12
        E 19 b9 04 25
        E 10 b9 04 36
        E 8 b9 04 46
        E 4 b9 04 4c
        E 2 99 2c 1c
        E 8 b9 04 56
        E 2 99 24 7a
        E 7 89 29 40
        E 17 b9 04 46
        E 24 99 33 6d
        E 15 b9 04 36
        E 41 b9 04 25
        E 55 b9 04 15
        E 75 89 2c 40
        E 8 89 24 40
        E 50 89 33 40
        E 151 b9 04 25
        E 132 b9 04 29
        E 169 b9 04 1d
        E 326 b9 04 27
        E 181 b9 04 20
        E 428 99 26 7f
        E 72 b9 04 18
        E 41 89 26 40
        E 3 99 26 7f
        E 239 89 26 40
        E 832 99 30 7f
        E 43 89 30 40
        E 2 99 30 7f
        E 242 89 30 40
        E 720 99 2d 7f
        E 92 89 2d 40
        E 0 99 2d 7c
        E 241 89 2d 40
        E 686 99 29 7f
        E 45 89 29 40
        E 3 99 29 7f
        E 242 89 29 40
        E 223 99 29 7f
        E 79 89 29 40
        E 3 99 29 44
        E 239 89 29 40
        E 620 b9 04 12
        E 44 99 26 7e
        E 109 89 26 40
        E 2 99 26 7f
        E 242 89 26 40
        E 198 99 2d 7f
        E 53 99 30 6f
        E 136 b9 04 1d
        E 55 89 2d 40
        E 51 89 30 40
        E 251 99 2d 7f
        E 24 99 30 7f
        E 217 89 2d 40
        E 25 89 30 40
        E 305 b9 04 25
        E 424 99 24 7f
        E 10 b9 04 1a
        E 46 99 3b 7f
        E 128 b9 04 09
        E 59 89 24 40
        E 55 89 3b 40
        E 28 b9 04 00
        E 1226 99 26 6c
        E 104 89 26 40
        E 2 99 26 7f
        E 241 89 26 40
        E 730 99 2d 7f
        E 24 99 30 7f
        E 220 89 2d 40
        E 22 89 30 40
        E 635 99 2d 7f
        E 34 99 30 7f
        E 213 89 2d 40
        E 31 89 30 40
        E 723 99 2d 7f
        E 33 99 29 6a
        E 211 89 2d 40
        E 30 89 29 40
        E 262 99 2d 7f
        E 26 99 29 73
        E 218 89 2d 40
        E 26 89 29 40
        E 766 99 26 6b
        E 85 89 26 40
        E 2 99 26 7f
        E 239 89 26 40
        E 34 b9 04 09
        E 167 b9 04 15
        E 24 99 2d 7f
        E 3 99 30 75
        E 88 b9 04 25
        E 150 89 2d 40
        E 3 89 30 40
        E 8 b9 04 30
        E 260 99 30 44
        E 12 99 2d 7f
        E 232 89 30 40
        E 13 89 2d 40
        E 67 b9 04 2c
        E 387 b9 04 20
        E 229 b9 04 0f
        E 97 99 24 7f
        E 2 99 31 7f
        E 65 b9 04 00
        E 174 89 24 40
        E 3 89 31 40
        E 1340 99 26 6e
        E 87 99 28 62
        E 158 89 26 40
        E 86 89 28 40
        E 776 99 2d 7f
        E 12 99 30 7f
        E 84 b9 04 12
        E 119 b9 04 22
        E 27 89 2d 40
        E 12 89 30 40
        E 94 b9 04 2c
        E 300 b9 04 36
        E 312 99 2d 7f
        E 16 99 30 71
        E 186 b9 04 3f
        E 38 89 2d 40
        E 20 89 30 40
        E 254 b9 04 36
        E 466 99 2d 7f
        E 17 99 29 64
        E 5 b9 04 29
        E 190 b9 04 20
        E 30 89 2d 40
        E 19 89 29 40
        E 261 99 29 7f
        E 58 99 2d 7f
        E 186 89 29 40
        E 55 89 2d 40
        E 726 99 24 73
        E 6 b9 04 29
        E 233 b9 04 1d
        E 5 89 24 40
        E 302 99 26 7f
        E 224 89 26 40
        E 3 99 26 64
        E 241 89 26 40
        E 10 99 26 64
        E 244 89 26 40
        E 21 99 26 70
        E 5 b9 04 0c
        E 111 b9 04 00
        E 128 89 26 40
        E 5 99 24 51
        E 47 99 33 46
        E 198 89 24 40
        E 35 99 24 4e
        E 8 89 33 40
        E 14 b9 04 12
        E 27 99 31 7f
        E 195 89 24 40
        E 44 99 24 70
        E 5 89 31 40
        E 58 99 33 7f
        E 167 b9 04 09
        E 14 89 24 40
        E 60 89 33 40
        E 501 b9 04 0f
        E 775 99 2d 7f
        E 10 99 30 7f
        E 145 b9 04 18
        E 87 89 2d 40
        E 9 89 30 40
        E 880 99 29 7f
        E 5 99 2d 7f
        E 239 89 29 40
        E 5 89 2d 40
        E 705 99 26 7f
        E 114 89 26 40
        E 2 99 26 7f
        E 242 89 26 40
        E 219 b9 04 29
        E 211 b9 04 18
        E 94 b9 04 06
        E 78 b9 04 00
        E 140 99 30 5c
        E 13 99 2d 7b
        E 52 b9 04 12
        E 174 89 30 40
        E 19 89 2d 40
        E 107 b9 04 09
        E 183 99 2d 7f
        E 3 b9 04 12
        E 40 99 30 54
        E 167 b9 04 1a
        E 31 89 2d 40
        E 47 89 30 40
        E 108 b9 04 2c
        E 192 b9 04 1a
        E 170 b9 04 12
        E 223 99 26 7e
        E 63 b9 04 22
        E 23 89 26 40
        E 3 99 26 7f
        E 239 b9 04 1a
        E 3 89 26 40
        E 190 b9 04 15
        E 66 99 26 7f
        E 242 89 26 40
        E 9 99 26 5b
        E 244 89 26 40
        E 2 99 26 7f
        E 240 89 26 40
        E 31 99 26 48
        E 48 99 30 26
        E 20 b9 04 03
        E 38 b9 04 00
        E 32 89 30 40
        E 2 99 30 1f
        E 104 89 26 40
        E 6 99 24 4e
        E 28 99 33 53
        E 101 89 30 40
        E 68 89 24 40
        E 3 99 24 0b
        E 53 b9 04 12
        E 19 89 33 40
        E 24 89 24 40
        E 2 99 24 58
        E 240 89 24 40
        E 50 99 24 70
        E 7 99 33 56
        E 63 b9 04 06
        E 95 b9 04 00
        E 79 89 24 40
        E 8 89 33 40
        E 804 b9 04 06
        E 281 b9 04 0c
        E 280 b9 04 15
        E 20 99 33 7d
        E 4 99 28 4d
        E 238 89 33 40
        E 5 89 28 40
        E 385 b9 04 1a
        E 441 99 24 7f
        E 33 99 33 3e
        E 209 89 24 40
        E 32 89 33 40
        E 749 b9 04 12
        E 32 99 24 7d
        E 31 99 33 68
        E 181 b9 04 09
        E 29 89 24 40
        E 34 89 33 40
        E 790 99 24 63
        E 244 89 24 40
        E 14 b9 04 0f
        E 262 b9 04 12
        E 3 99 2e 7f
        E 6 99 26 6b
        E 143 b9 04 18
        E 91 89 2e 40
        E 10 89 26 40
        E 167 b9 04 27
        E 133 b9 04 32
        E 85 b9 04 22
        E 67 b9 04 12
        E 94 b9 04 00
        E 237 b9 04 12
        E 27 b9 04 25
        E 19 b9 04 36
        E 24 b9 04 46
        E 75 b9 04 36
        E 70 b9 04 25
        E 128 b9 04 1d
        E 232 b9 04 27
        E 98 99 26 7f
        E 158 b9 04 1d
        E 79 89 26 40
        E 3 99 26 5e
        E 51 b9 04 2e
        E 188 89 26 40
        E 15 99 28 1d
        E 27 b9 04 27
        E 217 89 28 40
        E 24 99 26 66
        E 126 b9 04 15
        E 117 89 26 40
        E 37 99 24 4f
        E 17 b9 04 0f
        E 3 99 1a 40
        E 130 b9 04 0f
        E 32 89 24 40
        E 1 99 24 0c
        E 80 89 1a 40
        E 10 b9 04 12
        E 2 99 2e 7f
        E 3 89 24 40
        E 3 99 24 48
        E 237 89 2e 40
        E 4 89 24 40
        E 29 b9 04 0f
        E 2 99 2e 7f
        E 15 99 24 7e
        E 146 b9 04 03
        E 81 89 2e 40
        E 17 89 24 40
        E 29 b9 04 00
        E 1092 b9 04 12
        E 48 b9 04 22
        E 44 b9 04 32
        E 135 b9 04 3a
        E 56 b9 04 34
        E 2 99 2e 7f
        E 7 99 26 60
        E 85 b9 04 34
        E 150 89 2e 40
        E 7 89 26 40
        E 154 b9 04 44
        E 54 b9 04 4c
        E 190 b9 04 34
        E 402 99 24 7f
        E 38 b9 04 3c
        E 3 99 2e 7f
        E 2 b9 04 3c
        E 186 b9 04 38
        E 12 89 24 40
        E 41 89 2e 40
        E 131 b9 04 3e
        E 299 b9 04 3a
        E 351 99 24 7c
        E 36 b9 04 3a
        E 3 99 2e 7f
        E 202 89 24 40
        E 39 89 2e 40
        E 167 b9 04 36
        E 343 b9 04 3c
        E 207 99 24 62
        E 53 b9 04 3a
        E 2 99 2e 75
        E 187 89 24 40
        E 55 89 2e 40
        E 290 b9 04 3e
        E 3 99 2e 7f
        E 2 99 28 5b
        E 239 89 2e 40
        E 3 89 28 40
        E 120 b9 04 41
        E 648 b9 04 47
        E 3 99 2e 7f
        E 53 b9 04 47
        E 191 89 2e 40
        E 82 b9 04 3c
        E 285 99 26 75
        E 103 b9 04 34
        E 144 89 26 40
        E 4 b9 04 41
        E 5 99 26 6b
        E 172 b9 04 38
        E 71 89 26 40
        E 2 99 26 62
        E 240 89 26 40
        E 10 99 26 66
        E 116 b9 04 27
        E 126 89 26 40
        E 12 99 24 45
        E 16 b9 04 1d
        E 34 b9 04 1d
        E 3 99 2e 7f
        E 191 89 24 40
        E 29 99 24 47
        E 24 89 2e 40
        E 5 b9 04 2c
        E 2 99 2e 7d
        E 3 b9 04 2c
        E 142 b9 04 36
        E 66 89 24 40
        E 29 89 2e 40
        E 24 99 24 7b
        E 22 b9 04 34
        E 2 99 1a 7f
        E 150 b9 04 2e
        E 67 89 24 40
        E 26 89 1a 40
        E 144 b9 04 29
        E 391 b9 04 30
        E 164 b9 04 3a
        E 56 99 24 17
        E 91 b9 04 3e
        E 2 99 2e 60
        E 13 b9 04 3f
        E 138 89 24 40
        E 91 89 2e 40
        E 170 b9 04 44
        E 137 99 28 6c
        E 17 b9 04 44
        E 2 99 2e 7a
        E 223 89 28 40
        E 19 89 2e 40
        E 290 b9 04 46
        E 2 99 2e 4a
        E 242 89 2e 40
        E 278 99 24 7f
        E 39 b9 04 44
        E 2 99 2e 7f
        E 203 89 24 40
        E 36 89 2e 40
        E 288 b9 04 43
        E 2 99 2e 4a
        E 242 89 2e 40
        E 229 99 24 7f
        E 56 b9 04 41
        E 2 99 2e 7f
        E 165 b9 04 3f
        E 19 89 24 40
        E 58 89 2e 40
        E 270 b9 04 41
        E 3 99 2e 59
        E 241 89 2e 40
        E 227 b9 04 43
        E 19 99 24 63
        E 13 b9 04 43
        E 3 99 2e 7f
        E 197 b9 04 3e
        E 29 89 24 40
        E 12 89 2e 40
        E 337 b9 04 3f
        E 2 99 2e 7f
        E 2 99 28 66
        E 242 89 2e 40
        E 2 89 28 40
        E 293 b9 04 41
        E 2 99 2e 4e
        E 242 89 2e 40
        E 215 99 24 7f
        E 48 b9 04 43
        E 2 99 2e 7f
        E 10 b9 04 43
        E 180 89 24 40
        E 20 b9 04 3f
        E 32 89 2e 40
        E 292 99 26 72
        E 10 b9 04 36
        E 232 89 26 40
        E 4 99 26 6b
        E 174 b9 04 3e
        E 70 89 26 40
        E 0 99 26 52
        E 242 89 26 40
        E 3 99 26 74
        E 82 b9 04 30
        E 77 b9 04 20
        E 82 89 26 40
        E 44 99 24 41
        E 29 b9 04 1d
        E 2 99 2e 7f
        E 184 b9 04 30
        E 24 89 24 40
        E 36 99 24 3b
        E 3 89 2e 40
        E 14 b9 04 32
        E 2 99 2e 7f
        E 129 b9 04 38
        E 94 89 24 40
        E 12 99 24 7f
        E 7 89 2e 40
        E 27 b9 04 36
        E 2 99 1a 7f
        E 143 b9 04 2e
        E 62 89 24 40
        E 37 89 1a 40
        E 328 b9 04 30
        E 3 99 2e 52
        E 137 b9 04 36
        E 102 89 2e 40
        E 256 99 24 5d
        E 46 b9 04 32
        E 3 99 2e 7b
        E 81 b9 04 30
        E 112 89 24 40
        E 48 89 2e 40
        E 283 99 26 7f
        E 36 b9 04 34
        E 2 99 2e 7f
        E 27 b9 04 36
        E 176 89 26 40
        E 36 89 2e 40
        E 298 b9 04 38
        E 2 99 2e 56
        E 242 89 2e 40
        E 212 b9 04 3c
        E 58 99 24 7f
        E 10 b9 04 3e
        E 5 99 2e 7f
        E 228 89 24 40
        E 11 89 2e 40
        E 278 b9 04 3a
        E 2 99 2e 62
        E 240 89 2e 40
        E 62 b9 04 38
        E 227 99 24 7f
        E 44 b9 04 3c
        E 5 b9 04 3c
        E 2 99 2e 7f
        E 190 89 24 40
        E 49 89 2e 40
        E 261 b9 04 3c
        E 2 99 2e 63
        E 245 89 2e 40
        E 227 99 24 76
        E 46 b9 04 38
        E 2 99 2e 7f
        E 82 b9 04 36
        E 111 89 24 40
        E 49 89 2e 40
        E 307 99 28 69
        E 9 b9 04 3a
        E 2 99 2e 7f
        E 179 b9 04 3a
        E 51 89 28 40
        E 12 89 2e 40
        E 251 b9 04 3c
        E 2 99 2e 63
        E 243 89 2e 40
        E 212 b9 04 3f
        E 29 99 24 7f
        E 38 b9 04 3f
        E 3 99 2e 7f
        E 203 89 24 40
        E 36 89 2e 40
        E 237 b9 04 36
        E 62 99 26 72
        E 242 89 26 40
        E 10 99 26 76
        E 230 89 26 40
        E 2 99 26 46
        E 41 b9 04 3e
        E 201 89 26 40
        E 24 99 26 60
        E 28 b9 04 3a
        E 196 b9 04 29
        E 17 89 26 40
        E 42 b9 04 27
        E 1 99 1a 73
        E 5 99 24 45
        E 181 89 24 40
        E 0 99 24 0e
        E 59 89 1a 40
        E 20 89 24 40
        E 0 99 24 41
        E 9 b9 04 32
        E 2 99 2e 7f
        E 17 b9 04 32
        E 165 b9 04 3a
        E 50 89 24 40
        E 12 89 2e 40
        E 23 99 24 6e
        E 11 b9 04 38
        E 3 99 2e 7f
        E 137 b9 04 30
        E 92 89 24 40
        E 15 89 2e 40
        E 116 b9 04 29
        E 205 b9 04 2c
        E 2 99 2e 4c
        E 242 89 2e 40
        E 96 b9 04 30
        E 128 99 24 63
        E 58 b9 04 30
        E 3 99 1a 63
        E 186 89 24 40
        E 55 89 1a 40
        E 276 99 26 7f
        E 31 b9 04 34
        E 2 99 2e 7f
        E 61 b9 04 38
        E 148 89 26 40
        E 35 89 2e 40
        E 288 b9 04 3c
        E 3 99 2e 48
        E 48 b9 04 3c
        E 191 89 2e 40
        E 261 99 24 7f
        E 36 b9 04 3c
        E 3 99 2e 7f
        E 202 89 24 40
        E 36 89 2e 40
        E 249 b9 04 3a
        E 3 99 2e 56
        E 212 b9 04 36
        E 29 89 2e 40
        E 300 99 24 7f
        E 7 b9 04 3a
        E 2 99 2e 7f
        E 32 b9 04 3a
        E 201 89 24 40
        E 9 89 2e 40
        E 271 b9 04 3c
        E 2 99 2e 54
        E 242 89 2e 40
        E 285 99 24 75
        E 2 b9 04 3a
        E 3 99 2e 6d
        E 218 b9 04 36
        E 21 89 24 40
        E 2 89 2e 40
        E 290 99 26 65
        E 36 b9 04 38
        E 2 99 2e 7f
        E 204 89 26 40
        E 39 89 2e 40
        E 275 b9 04 3a
        E 8 b9 04 3c
        E 2 99 2e 7f
        E 242 89 2e 40
        E 250 99 24 7f
        E 49 b9 04 3c
        E 2 99 2e 7f
        E 194 89 24 40
        E 45 89 2e 40
        E 261 b9 04 36
        E 40 99 26 71
        E 241 89 26 40
        E 2 99 26 6e
        E 58 b9 04 30
        E 182 89 26 40
        E 4 99 26 43
        E 2 b9 04 38
        E 241 89 26 40
        E 18 99 26 6a
        E 111 b9 04 2e
        E 94 b9 04 1d
        E 39 89 26 40
        E 2 99 24 41
        E 41 b9 04 20
        E 3 99 1a 58
        E 198 b9 04 2c
        E 5 89 24 40
        E 17 99 24 41
        E 22 89 1a 40
        E 11 b9 04 30
        E 3 99 2e 7f
        E 104 b9 04 38
        E 102 89 24 40
        E 38 89 2e 40
        E 17 99 24 7f
        E 26 b9 04 3a
        E 3 99 2e 7f
        E 215 89 24 40
        E 17 b9 04 30
        E 9 89 2e 40
        E 167 b9 04 2c
        E 160 b9 04 2e
        E 2 99 2e 41
        E 242 89 2e 40
        E 261 99 24 62
        E 31 b9 04 2e
        E 3 99 2e 52
        E 207 89 24 40
        E 32 89 2e 40
        E 285 99 26 7f
        E 26 b9 04 30
        E 3 99 2e 7f
        E 14 b9 04 30
        E 196 89 26 40
        E 32 89 2e 40
        E 14 b9 04 34
        E 302 b9 04 36
        E 2 99 2e 4f
        E 242 89 2e 40
        E 174 b9 04 3a
        E 77 99 24 7f
        E 37 b9 04 38
        E 1 99 2e 7f
        E 204 89 24 40
        E 38 89 2e 40
        E 260 b9 04 38
        E 2 99 2e 54
        E 241 89 2e 40
        E 292 99 24 7f
        E 32 b9 04 3a
        E 3 99 2e 7f
        E 207 89 24 40
        E 34 89 2e 40
        E 271 b9 04 3a
        E 2 99 2e 57
        E 244 89 2e 40
        E 249 99 24 71
        E 21 b9 04 38
        E 3 99 2e 7f
        E 219 89 24 40
        E 3 b9 04 36
        E 19 89 2e 40
        E 275 99 26 7f
        E 37 b9 04 3a
        E 2 99 2e 7f
        E 102 b9 04 3a
        E 101 89 26 40
        E 37 89 2e 40
        E 258 b9 04 3c
        E 3 99 2e 6b
        E 242 89 2e 40
        E 219 b9 04 3e
        E 29 99 24 6a
        E 58 b9 04 3c
        E 3 99 2e 7f
        E 181 89 24 40
        E 60 89 2e 40
        E 157 b9 04 36
        E 124 99 26 5f
        E 241 89 26 40
        E 12 99 26 76
        E 234 89 26 40
        E 3 99 26 67
        E 86 b9 04 2e
        E 92 b9 04 1d
        E 65 89 26 40
        E 15 99 26 4c
        E 80 b9 04 0c
        E 149 99 24 42
        E 13 89 26 40
        E 7 b9 04 06
        E 55 99 33 4a
        E 77 b9 04 18
        E 25 89 24 40
        E 2 99 24 0f
        E 68 89 24 40
        E 2 99 24 43
        E 34 b9 04 29
        E 40 89 33 40
        E 146 b9 04 2e
        E 19 89 24 40
        E 51 99 24 7f
        E 99 99 33 71
        E 78 b9 04 20
        E 65 89 24 40
        E 99 89 33 40
        E 790 99 24 54
        E 31 b9 04 22
        E 3 99 2e 7f
        E 210 89 24 40
        E 31 89 2e 40
        E 140 b9 04 25
        E 165 b9 04 29
        E 5 99 2e 7f
        E 0 99 26 7f
        E 77 b9 04 2e
        E 162 89 2e 40
        E 2 89 26 40
        E 307 b9 04 32
        E 3 99 2e 54
        E 241 89 2e 40
        E 97 b9 04 34
        E 241 99 24 75
        E 15 b9 04 36
        E 2 99 2e 7f
        E 225 89 24 40
        E 15 89 2e 40
        E 272 b9 04 36
        E 1 99 2e 5c
        E 241 89 2e 40
        E 302 99 24 71
        E 27 b9 04 36
        E 2 99 2e 7f
        E 212 89 24 40
        E 27 89 2e 40
        E 261 b9 04 36
        E 3 99 2e 52
        E 241 89 2e 40
        E 160 b9 04 3a
        E 118 99 24 66
        E 19 b9 04 38
        E 2 99 2e 67
        E 146 b9 04 36
        E 77 89 24 40
        E 20 89 2e 40
        E 287 99 28 66
        E 7 b9 04 36
        E 3 99 2e 7f
        E 232 89 28 40
        E 7 89 2e 40
        E 270 b9 04 36
        E 3 99 2e 4e
        E 241 89 2e 40
        E 266 99 24 7f
        E 7 b9 04 38
        E 2 99 2e 7f
        E 233 89 24 40
        E 11 89 2e 40
        E 242 b9 04 30
        E 78 99 26 73
        E 236 89 26 40
        E 1 99 26 71
        E 226 b9 04 34
        E 15 89 26 40
        E 3 99 26 53
        E 208 b9 04 2e
        E 30 89 26 40
        E 23 99 26 49
        E 26 b9 04 1d
        E 174 b9 04 0f
        E 2 99 24 41
        E 39 89 26 40
        E 53 b9 04 12
        E 2 99 2e 78
        E 117 b9 04 20
        E 31 89 24 40
        E 7 99 24 45
        E 72 b9 04 30
        E 15 89 2e 40
        E 17 b9 04 32
        E 3 99 2e 7f
        E 120 b9 04 3e
        E 15 89 24 40
        E 63 99 24 7b
        E 45 89 2e 40
        E 27 b9 04 3e
        E 2 99 1a 7f
        E 168 89 24 40
        E 74 89 1a 40
        E 3 b9 04 3a
        E 309 b9 04 3e
        E 2 99 2e 33
        E 242 89 2e 40
        E 217 99 24 6f
        E 51 b9 04 36
        E 2 99 2e 5c
        E 99 b9 04 30
        E 90 89 24 40
        E 56 89 2e 40
        E 253 99 26 7f
        E 51 b9 04 32
        E 2 99 2e 7f
        E 174 b9 04 36
        E 15 89 26 40
        E 55 89 2e 40
        E 288 b9 04 38
        E 2 99 2e 46
        E 244 89 2e 40
        E 201 b9 04 3e
        E 80 b9 04 3e
        E 2 99 2e 7f
        E 4 99 24 7f
        E 238 89 2e 40
        E 6 89 24 40
        E 259 b9 04 3a
        E 2 99 2e 51
        E 242 b9 04 3a
        E 3 89 2e 40
        E 316 99 24 7f
        E 17 b9 04 3a
        E 0 99 2e 7f
        E 224 89 24 40
        E 18 89 2e 40
        E 273 b9 04 38
        E 2 99 2e 51
        E 242 89 2e 40
        E 258 99 24 75
        E 3 b9 04 3a
        E 2 99 2e 5e
        E 222 b9 04 36
        E 15 89 24 40
        E 4 89 2e 40
        E 334 99 28 69
        E 31 b9 04 36
        E 2 99 2e 7f
        E 211 89 28 40
        E 31 89 2e 40
        E 254 b9 04 38
        E 2 99 2e 52
        E 242 89 2e 40
        E 249 99 24 7b
        E 44 b9 04 38
        E 2 99 2e 7f
        E 198 89 24 40
        E 46 89 2e 40
        E 106 b9 04 3a
        E 131 99 24 69
        E 24 b9 04 36
        E 2 99 2e 4a
        E 114 b9 04 36
        E 100 89 24 40
        E 28 89 2e 40
        E 270 99 28 56
        E 60 b9 04 36
        E 3 99 2e 7f
        E 182 89 28 40
        E 60 89 2e 40
        E 242 b9 04 36
        E 2 99 2e 53
        E 239 89 2e 40
        E 220 99 24 7f
        E 75 b9 04 2e
        E 2 99 2e 7f
        E 3 b9 04 2e
        E 157 b9 04 27
        E 7 89 24 40
        E 75 89 2e 40
        E 275 b9 04 20
        E 2 99 2e 47
        E 46 b9 04 20
        E 196 89 2e 40
        E 247 99 26 75
        E 60 b9 04 27
        E 5 b9 04 27
        E 2 99 2e 7f
        E 177 89 26 40
        E 65 89 2e 40
        E 237 b9 04 2c
        E 41 b9 04 29
        E 2 99 2e 57
        E 240 89 2e 40
        E 233 99 24 72
        E 68 b9 04 2e
        E 0 99 2e 7f
        E 176 89 24 40
        E 66 89 2e 40
        E 94 b9 04 32
        E 135 99 24 59
        E 3 b9 04 32
        E 2 99 2e 3c
        E 237 89 24 40
        E 2 89 2e 40
        E 326 99 26 75
        E 27 b9 04 30
        E 2 99 2e 7f
        E 216 89 26 40
        E 26 89 2e 40
        E 261 b9 04 30
        E 2 99 2e 4e
        E 242 89 2e 40
        E 227 99 24 77
        E 53 b9 04 30
        E 3 99 2e 7f
        E 188 89 24 40
        E 2 b9 04 2c
        E 54 89 2e 40
        E 256 b9 04 27
        E 3 99 2e 40
        E 130 b9 04 20
        E 111 89 2e 40
        E 290 99 28 4c
        E 21 b9 04 25
        E 3 99 1a 7f
        E 39 b9 04 27
        E 179 89 28 40
        E 23 89 1a 40
        E 290 b9 04 29
        E 3 99 2e 4c
        E 242 89 2e 40
        E 226 99 24 70
        E 48 b9 04 2c
        E 3 99 2e 7f
        E 41 b9 04 2c
        E 151 89 24 40
        E 50 89 2e 40
        E 251 99 24 60
        E 20 b9 04 29
        E 1 99 2e 39
        E 221 89 24 40
        E 22 89 2e 40
        E 302 99 28 5b
        E 17 b9 04 27
        E 2 99 2e 7f
        E 222 89 28 40
        E 19 89 2e 40
        E 298 b9 04 29
        E 3 99 2e 41
        E 132 b9 04 27
        E 109 89 2e 40
        E 251 99 24 6b
        E 55 b9 04 25
        E 3 99 2e 7f
        E 138 b9 04 20
        E 46 89 24 40
        E 60 89 2e 40
        E 268 99 26 51
        E 20 b9 04 1d
        E 2 99 2e 7f
        E 222 89 26 40
        E 19 89 2e 40
        E 264 99 24 5b
        E 29 b9 04 1d
        E 3 99 2e 65
        E 210 89 24 40
        E 31 89 2e 40
        E 256 99 24 59
        E 31 b9 04 1d
        E 3 99 2e 60
        E 210 89 24 40
        E 34 89 2e 40
        E 138 b9 04 1a
        E 133 99 26 41
        E 38 b9 04 1a
        E 2 99 2e 7f
        E 201 89 26 40
        E 44 89 2e 40
        E 222 99 24 60
        E 31 b9 04 1a
        E 2 99 2e 50
        E 208 89 24 40
        E 34 89 2e 40
        E 270 99 28 3a
        E 15 b9 04 1a
        E 2 99 2e 7f
        E 225 89 28 40
        E 20 89 2e 40
        E 272 99 24 5a
        E 13 b9 04 1a
        E 2 99 2e 65
        E 227 89 24 40
        E 15 89 2e 40
        E 243 b9 04 1a
        E 2 99 2e 50
        E 25 99 24 50
        E 215 b9 04 12
        E 5 89 2e 40
        E 25 89 24 40
        E 280 99 28 35
        E 31 b9 04 12
        E 3 99 2e 7f
        E 207 89 28 40
        E 34 89 2e 40
        E 225 99 24 5a
        E 92 b9 04 12
        E 2 99 2e 67
        E 150 89 24 40
        E 92 89 2e 40
        E 219 99 24 59
        E 27 b9 04 0f
        E 2 99 2e 56
        E 184 b9 04 0c
        E 29 89 24 40
        E 29 89 2e 40
        E 254 99 28 4e
        E 55 b9 04 0c
        E 3 99 2e 7f
        E 188 89 28 40
        E 54 89 2e 40
        E 224 99 24 57
        E 24 b9 04 0c
        E 2 99 2e 5c
        E 215 89 24 40
        E 27 89 2e 40
        E 261 99 28 51
        E 51 b9 04 0f
        E 3 99 2e 7f
        E 188 89 28 40
        E 53 89 2e 40
        E 224 99 24 5d
        E 17 b9 04 0f
        E 2 99 2e 5f
        E 223 89 24 40
        E 22 89 2e 40
        E 267 99 24 57
        E 0 b9 04 0c
        E 3 99 2e 7d
        E 240 89 24 40
        E 5 89 2e 40
        E 313 99 26 6e
        E 21 b9 04 0f
        E 2 99 2e 7f
        E 224 89 26 40
        E 18 89 2e 40
        E 219 99 24 59
        E 92 b9 04 0f
        E 2 99 2e 66
        E 147 89 24 40
        E 95 89 2e 40
        E 200 99 24 5b
        E 34 b9 04 0c
        E 5 99 2e 4f
        E 203 89 24 40
        E 38 89 2e 40
        E 288 99 28 58
        E 36 b9 04 0f
        E 3 99 2e 7f
        E 203 89 28 40
        E 36 89 2e 40
        E 227 99 24 66
        E 43 b9 04 0f
        E 2 99 2e 39
        E 197 89 24 40
        E 45 89 2e 40
        E 232 99 26 54
        E 60 b9 04 0f
        E 5 99 2e 7f
        E 177 89 26 40
        E 65 89 2e 40
        E 252 99 24 64
        E 6 b9 04 0f
        E 2 99 2e 5f
        E 232 89 24 40
        E 10 89 2e 40
        E 264 b9 04 0f
        E 1 99 2e 63
        E 13 99 24 56
        E 230 89 2e 40
        E 12 89 24 40
        E 297 99 26 7d
        E 27 b9 04 0f
        E 2 99 2e 7f
        E 213 89 26 40
        E 29 89 2e 40
        E 214 99 24 5f
        E 66 b9 04 0f
        E 2 99 2e 69
        E 177 89 24 40
        E 63 89 2e 40
        E 228 99 24 58
        E 23 b9 04 0c
        E 2 99 2e 75
        E 218 89 24 40
        E 24 89 2e 40
        E 108 b9 04 06
        E 165 99 26 7a
        E 48 b9 04 06
        E 1 99 2e 7f
        E 195 89 26 40
        E 46 89 2e 40
        E 227 99 24 66
        E 46 b9 04 06
        E 2 99 2e 69
        E 194 89 24 40
        E 50 89 2e 40
        E 252 99 26 6a
        E 45 b9 04 09
        E 5 99 2e 7f
        E 194 89 26 40
        E 50 89 2e 40
        E 224 99 24 5a
        E 51 b9 04 09
        E 3 99 2e 5b
        E 191 89 24 40
        E 50 89 2e 40
        E 247 b9 04 09
        E 3 99 2e 78
        E 9 99 24 54
        E 235 89 2e 40
        E 9 89 24 40
        E 285 99 26 68
        E 53 b9 04 09
        E 3 99 2e 7f
        E 186 89 26 40
        E 58 89 2e 40
        E 186 99 24 53
        E 73 b9 04 09
        E 2 99 2e 57
        E 166 89 24 40
        E 76 89 2e 40
        E 234 99 24 5e
        E 29 b9 04 09
        E 2 99 2e 69
        E 212 89 24 40
        E 30 89 2e 40
        E 258 99 26 66
        E 60 b9 04 09
        E 3 99 2e 7f
        E 179 89 26 40
        E 65 89 2e 40
        E 203 99 24 5e
        E 70 b9 04 06
        E 2 99 2e 4f
        E 170 89 24 40
        E 72 89 2e 40
        E 244 99 26 4a
        E 51 b9 04 09
        E 2 99 2e 7f
        E 191 89 26 40
        E 51 89 2e 40
        E 210 99 24 65
        E 51 b9 04 06
        E 2 99 2e 54
        E 189 89 24 40
        E 52 89 2e 40
        E 252 99 24 5b
        E 10 b9 04 09
        E 1 99 2e 7f
        E 230 89 24 40
        E 15 89 2e 40
        E 297 99 26 70
        E 34 b9 04 06
        E 2 99 2e 7f
        E 206 89 26 40
        E 36 89 2e 40
        E 164 99 24 50
        E 121 b9 04 06
        E 2 99 2e 5f
        E 119 89 24 40
        E 126 89 2e 40
        E 217 99 24 6f
        E 32 b9 04 06
        E 2 99 2e 74
        E 210 89 24 40
        E 31 89 2e 40
        E 286 99 26 41
        E 40 b9 04 06
        E 3 99 2e 7f
        E 201 89 26 40
        E 40 89 2e 40
        E 223 99 24 73
        E 36 b9 04 03
        E 3 99 2e 6a
        E 33 b9 04 00
        E 170 89 24 40
        E 38 89 2e 40
        E 269 99 26 7f
        E 33 b9 04 03
        E 2 99 2e 7f
        E 206 89 26 40
        E 36 89 2e 40
        E 220 b9 04 00
        E 2 99 2e 54
        E 242 89 2e 40
        E 157 99 24 78
        E 41 b9 04 12
        E 166 b9 04 20
        E 37 89 24 40
        E 7 99 26 6d
        E 13 99 29 76
        E 100 b9 04 27
        E 129 89 26 40
        E 14 99 24 54
        E 3 89 29 40
        E 65 b9 04 2e
        E 174 89 24 40
        E 41 99 29 3e
        E 172 b9 04 27
        E 46 99 24 58
        E 24 89 29 40
        E 217 89 24 40
        E 46 99 26 73
        E 34 99 29 7f
        E 207 89 26 40
        E 37 89 29 40
        E 7 99 24 5b
        E 242 89 24 40
        E 50 99 29 3e
        E 242 89 29 40
        E 22 99 24 5d
        E 241 89 24 40
        E 36 99 26 68
        E 13 99 29 7f
        E 231 89 26 40
        E 10 89 29 40
        E 90 99 24 5e
        E 239 99 29 35
        E 3 89 24 40
        E 241 89 29 40
        E 51 99 24 58
        E 183 b9 04 20
        E 58 89 24 40
        E 17 99 29 7f
        E 12 99 28 44
        E 232 89 29 40
        E 9 89 28 40
        E 97 99 24 63
        E 225 99 29 23
        E 17 89 24 40
        E 225 89 29 40
        E 70 99 24 57
        E 244 89 24 40
        E 2 99 29 7f
        E 17 99 28 31
        E 225 89 29 40
        E 17 89 28 40
        E 89 99 24 59
        E 244 89 24 40
        E 15 99 29 25
        E 244 89 29 40
        E 33 99 24 57
        E 242 89 24 40
        E 32 99 28 30
        E 4 99 29 7f
        E 237 89 28 40
        E 5 89 29 40
        E 68 99 24 62
        E 241 89 24 40
        E 11 99 29 2e
        E 240 89 29 40
        E 34 99 24 5b
        E 242 89 24 40
        E 41 99 26 52
        E 2 99 29 7f
        E 240 89 26 40
        E 5 89 29 40
        E 74 99 24 5d
        E 242 89 24 40
        E 22 99 29 32
        E 241 89 29 40
        E 30 99 24 58
        E 241 89 24 40
        E 38 99 28 5c
        E 7 99 29 7f
        E 235 89 28 40
        E 9 89 29 40
        E 75 99 24 60
        E 242 89 24 40
        E 31 99 29 24
        E 245 89 29 40
        E 14 99 24 58
        E 246 89 24 40
        E 51 99 29 7b
        E 3 99 28 2d
        E 239 89 29 40
        E 5 89 28 40
        E 50 99 24 64
        E 244 89 24 40
        E 37 99 29 25
        E 244 89 29 40
        E 31 99 24 5b
        E 245 89 24 40
        E 52 99 26 37
        E 8 99 29 76
        E 234 89 26 40
        E 7 89 29 40
        E 38 99 24 60
        E 242 89 24 40
        E 58 99 29 30
        E 242 89 29 40
        E 19 99 24 5f
        E 242 89 24 40
        E 41 99 28 5d
        E 10 99 29 7f
        E 234 89 28 40
        E 7 89 29 40
        E 82 99 24 5d
        E 242 89 24 40
        E 22 99 29 32
        E 241 89 29 40
        E 49 99 24 59
        E 241 89 24 40
        E 39 99 28 44
        E 4 99 29 7f
        E 5 89 28 40
        E 2 99 28 5d
        E 235 89 29 40
        E 5 89 28 40
        E 62 99 24 5c
        E 242 89 24 40
        E 32 99 29 24
        E 244 89 29 40
        E 31 99 24 5c
        E 242 89 24 40
        E 46 99 28 2d
        E 9 99 26 6a
        E 13 99 29 78
        E 222 89 28 40
        E 9 89 26 40
        E 11 89 29 40
        E 55 99 24 5c
        E 239 89 24 40
        E 39 99 29 2d
        E 242 89 29 40
        E 33 99 24 59
        E 242 89 24 40
        E 43 99 28 4a
        E 12 99 29 7f
        E 230 89 28 40
        E 11 89 29 40
        E 68 99 24 5c
        E 242 89 24 40
        E 29 99 29 23
        E 244 89 29 40
        E 51 99 24 5a
        E 241 89 24 40
        E 27 99 28 42
        E 4 99 29 77
        E 237 89 28 40
        E 5 89 29 40
        E 80 99 24 57
        E 242 89 24 40
        E 9 99 29 24
        E 242 89 29 40
        E 75 99 24 5e
        E 244 89 24 40
        E 46 99 29 6a
        E 2 99 26 25
        E 240 89 29 40
        E 2 89 26 40
        E 50 99 24 4f
        E 155 89 24 40
        E 0 99 24 15
        E 116 99 29 40
        E 128 89 24 40
        E 114 89 29 40
        E 21 99 24 6f
        E 242 89 24 40
        E 60 99 26 7f
        E 85 89 26 40
        E 2 99 26 7f
        E 242 89 26 40
        E 213 99 26 77
        E 69 89 26 40
        E 4 99 26 71
        E 241 89 26 40
        E 232 99 24 55
        E 244 89 24 40
        E 259 99 30 7f
        E 67 89 30 40
        E 3 99 30 7f
        E 239 89 30 40
        E 751 b9 04 25
        E 73 99 24 51
        E 243 89 24 40
        E 15 b9 04 20
        E 278 99 2d 7f
        E 2 99 29 7f
        E 242 89 2d 40
        E 2 89 29 40
        E 155 b9 04 25
        E 657 99 26 7f
        E 85 99 28 74
        E 113 b9 04 30
        E 44 89 26 40
        E 84 89 28 40
        E 2 b9 04 41
        E 227 b9 04 47
        E 467 b9 04 3c
        E 94 99 24 49
        E 53 b9 04 30
        E 189 89 24 40
        E 326 99 30 7f
        E 41 b9 04 36
        E 36 89 30 40
        E 0 99 30 7f
        E 242 89 30 40
        E 620 b9 04 32
        E 105 99 24 5f
        E 241 89 24 40
        E 25 b9 04 2c
        E 241 99 29 7f
        E 9 99 2d 7f
        E 232 89 29 40
        E 10 89 2d 40
        E 128 b9 04 32
        E 418 b9 04 2e
        E 249 99 26 7f
        E 72 89 26 40
        E 3 99 26 72
        E 203 b9 04 25
        E 36 89 26 40
        E 230 99 26 4f
        E 198 b9 04 2c
        E 43 89 26 40
        E 264 99 24 5c
        E 243 89 24 40
        E 298 99 2d 7f
        E 12 99 30 7f
        E 229 89 2d 40
        E 12 89 30 40
        E 467 b9 04 30
        E 253 99 24 5a
        E 244 89 24 40
        E 314 99 29 7f
        E 5 99 2d 7f
        E 240 89 29 40
        E 2 89 2d 40
        E 534 b9 04 2c
        E 197 99 26 7f
        E 95 99 28 7f
        E 147 89 26 40
        E 95 89 28 40
        E 259 99 26 73
        E 229 89 26 40
        E 2 99 26 4b
        E 239 89 26 40
        E 37 99 26 7c
        E 60 b9 04 27
        E 179 89 26 40
        E 9 99 26 5b
        E 243 89 26 40
        E 45 99 30 64
        E 244 89 30 40
        E 27 99 30 4d
        E 227 89 30 40
        E 1 99 30 7f
        E 240 89 30 40
        E 31 99 30 6b
        E 242 89 30 40
        E 39 99 2d 7f
        E 241 89 2d 40
        E 17 99 2d 3d
        E 228 89 2d 40
        E 4 99 2d 76
        E 239 89 2d 40
        E 47 99 2d 5c
        E 244 89 2d 40
        E 21 99 29 5c
        E 237 89 29 40
        E 2 99 29 51
        E 17 b9 04 20
        E 225 89 29 40
        E 24 b9 04 18
        E 34 99 24 7f
        E 43 99 3b 7f
        E 119 b9 04 0f
        E 82 89 24 40
        E 40 89 3b 40
        E 542 b9 04 15
        E 1222 b9 04 0f
        E 324 b9 04 06
        E 1148 b9 04 00
        E 34346 b0 7b 00
        GUID {CCCEAB10-33E4-4F4B-9224-2761D2867833}
        IGNTEMPO 0 120 4 4
        SRCCOLOR 485
      >
      TAKE NULL
    >
    <ITEM
      POSITION 210.61856079201442
      SNAPOFFS 0
      LENGTH 2.75643920798558
      LOOP 1
      ALLTAKES 0
      FADEIN 1 0 0 1 0 0
      FADEOUT 1 0 0 1 0 0
      MUTE 0
      SEL 0
      IGUID {78770973-46A7-4F59-BB06-BC3B9634916D}
      IID 1
      NAME "01-EZdrummer-Recorded MIDI"
      VOLPAN 1 0 1 -1
      SOFFS 210.61856079201442 681.00001322751325
      PLAYRATE 1 1 0 -1 0 0.0025
      CHANMODE 0
      GUID {63DBBB5C-2A55-4FBF-8508-F6317C302CFB}
      RECPASS 1
      <SOURCE MIDI
        HASDATA 1 960 QN
        POOLEDEVTS {A48B8BD7-CDF4-4BCC-8784-92E0B48FB912}
        E 13555 99 24 5a
        E 244 89 24 40
        E 316 99 24 52
        E 245 89 24 40
        E 226 99 26 62
        E 114 89 26 40
        E 2 99 26 62
        E 243 89 26 40
        E 200 99 24 55
        E 243 89 24 40
        E 296 99 24 5a
        E 243 89 24 40
        E 1909 99 24 6a
        E 244 89 24 40
        E 326 99 24 63
        E 244 89 24 40
        E 249 99 26 74
        E 114 89 26 40
        E 2 99 26 6c
        E 242 89 26 40
        E 168 99 24 58
        E 245 89 24 40
        E 340 99 24 67
        E 245 89 24 40
        E 1944 99 24 7e
        E 244 89 24 40
        E 302 99 24 62
        E 244 89 24 40
        E 273 99 26 76
        E 97 89 26 40
        E 2 99 26 73
        E 242 89 26 40
        E 193 99 24 56
        E 244 89 24 40
        E 333 99 24 6d
        E 244 89 24 40
        E 1919 99 24 73
        E 244 89 24 40
        E 290 99 24 64
        E 244 89 24 40
        E 285 99 26 6c
        E 97 89 26 40
        E 2 99 26 6d
        E 241 89 26 40
        E 189 99 24 5b
        E 244 89 24 40
        E 288 99 24 60
        E 243 89 24 40
        E 324 99 26 73
        E 210 89 26 40
        E 2 99 26 69
        E 242 89 26 40
        E 24 99 26 7f
        E 244 89 26 40
        E 3 99 26 73
        E 244 89 26 40
        E 5 99 26 74
        E 243 89 26 40
        E 308 99 24 61
        E 244 89 24 40
        E 294 99 24 63
        E 242 89 24 40
        E 237 99 26 7c
        E 96 89 26 40
        E 3 99 26 6b
        E 241 89 26 40
        E 223 99 24 58
        E 244 89 24 40
        E 287 99 24 5a
        E 244 89 24 40
        E 1737 99 24 69
        E 244 89 24 40
        E 302 99 24 62
        E 244 89 24 40
        E 253 99 26 70
        E 117 89 26 40
        E 2 99 26 75
        E 242 89 26 40
        E 179 99 24 4f
        E 244 89 24 40
        E 314 99 24 61
        E 242 89 24 40
        E 1877 99 24 62
        E 243 89 24 40
        E 300 99 24 5d
        E 245 89 24 40
        E 297 99 26 7f
        E 99 89 26 40
        E 2 99 26 70
        E 241 89 26 40
        E 223 99 24 58
        E 244 89 24 40
        E 297 99 24 63
        E 244 89 24 40
        E 1879 99 24 6c
        E 245 89 24 40
        E 299 99 24 62
        E 244 89 24 40
        E 237 99 24 52
        E 244 89 24 40
        E 2899 99 24 63
        E 244 89 24 40
        E 254 99 24 52
        E 244 89 24 40
        E 312 99 24 5d
        E 244 89 24 40
        E 3022 99 24 64
        E 244 89 24 40
        E 251 99 24 4d
        E 244 89 24 40
        E 309 99 24 63
        E 243 89 24 40
        E 3155 99 24 64
        E 243 89 24 40
        E 266 99 24 55
        E 244 89 24 40
        E 324 99 24 60
        E 244 89 24 40
        E 3017 99 24 6b
        E 245 89 24 40
        E 278 99 24 56
        E 243 89 24 40
        E 198 99 26 7f
        E 145 89 26 40
        E 3 99 26 6d
        E 242 89 26 40
        E 195 99 24 5a
        E 244 89 24 40
        E 297 99 24 5d
        E 243 89 24 40
        E 781 99 26 7f
        E 114 89 26 40
        E 2 99 26 7f
        E 243 89 26 40
        E 813 99 24 65
        E 244 89 24 40
        E 278 99 24 58
        E 245 89 24 40
        E 260 99 26 7f
        E 104 89 26 40
        E 3 99 26 6a
        E 241 89 26 40
        E 208 99 24 55
        E 242 89 24 40
        E 294 99 24 5d
        E 244 89 24 40
        E 780 99 26 7f
        E 107 89 26 40
        E 3 99 26 77
        E 241 89 26 40
        E 775 99 24 61
        E 244 89 24 40
        E 286 99 24 57
        E 244 89 24 40
        E 243 99 26 65
        E 107 89 26 40
        E 2 99 26 74
        E 242 89 26 40
        E 193 99 24 58
        E 244 89 24 40
        E 302 99 24 5a
        E 244 89 24 40
        E 800 99 26 7e
        E 113 89 26 40
        E 3 99 26 7a
        E 241 89 26 40
        E 793 99 24 5e
        E 242 89 24 40
        E 284 99 24 57
        E 244 89 24 40
        E 252 99 26 7f
        E 99 89 26 40
        E 2 99 26 7f
        E 242 89 26 40
        E 205 99 24 57
        E 244 89 24 40
        E 298 99 24 5f
        E 244 89 24 40
        E 828 99 26 7f
        E 101 89 26 40
        E 3 99 26 7f
        E 241 89 26 40
        E 805 99 24 59
        E 244 89 24 40
        E 297 99 24 5a
        E 244 89 24 40
        E 254 99 26 7f
        E 104 89 26 40
        E 2 99 26 7c
        E 242 89 26 40
        E 210 99 24 51
        E 245 89 24 40
        E 296 99 24 5a
        E 244 89 24 40
        E 802 99 26 7f
        E 102 89 26 40
        E 2 99 26 7b
        E 242 89 26 40
        E 831 99 24 5d
        E 244 89 24 40
        E 278 99 24 59
        E 244 89 24 40
        E 275 99 26 7f
        E 90 89 26 40
        E 3 99 26 78
        E 240 89 26 40
        E 184 99 24 4e
        E 245 89 24 40
        E 294 99 24 60
        E 244 89 24 40
        E 292 99 26 7f
        E 230 89 26 40
        E 3 99 26 5b
        E 241 89 26 40
        E 14 99 26 6f
        E 245 89 26 40
        E 7 99 26 5e
        E 244 89 26 40
        E 2 99 26 55
        E 242 89 26 40
        E 297 99 24 60
        E 244 89 24 40
        E 290 99 24 62
        E 244 89 24 40
        E 234 99 26 77
        E 109 89 26 40
        E 3 99 26 7f
        E 241 89 26 40
        E 201 99 24 50
        E 243 89 24 40
        E 300 99 24 58
        E 244 89 24 40
        E 798 99 26 7f
        E 134 89 26 40
        E 3 99 26 7f
        E 242 89 26 40
        E 746 99 24 57
        E 244 89 24 40
        E 283 99 24 53
        E 243 89 24 40
        E 281 99 26 7f
        E 104 89 26 40
        E 2 99 26 69
        E 242 89 26 40
        E 191 99 24 4f
        E 244 89 24 40
        E 309 99 24 58
        E 244 89 24 40
        E 797 99 26 7f
        E 104 99 28 60
        E 138 89 26 40
        E 106 89 28 40
        E 757 99 24 50
        E 244 89 24 40
        E 297 99 24 56
        E 245 89 24 40
        E 257 99 26 7f
        E 109 89 26 40
        E 2 99 26 67
        E 242 89 26 40
        E 181 99 24 45
        E 244 89 24 40
        E 305 99 24 59
        E 243 89 24 40
        E 796 99 26 7f
        E 123 89 26 40
        E 2 99 26 79
        E 242 89 26 40
        E 763 99 24 59
        E 244 89 24 40
        E 290 99 24 53
        E 244 89 24 40
        E 269 99 26 7f
        E 125 89 26 40
        E 2 99 26 74
        E 242 89 26 40
        E 164 99 24 57
        E 244 89 24 40
        E 266 99 24 59
        E 244 89 24 40
        E 355 99 26 7f
        E 227 89 26 40
        E 3 99 26 6f
        E 241 89 26 40
        E 29 99 28 5c
        E 244 89 28 40
        E 3 99 26 6a
        E 244 89 26 40
        E 10 99 26 63
        E 243 89 26 40
        E 291 99 24 5a
        E 243 89 24 40
        E 283 99 24 5b
        E 244 89 24 40
        E 237 99 28 66
        E 106 99 26 75
        E 138 89 28 40
        E 106 89 26 40
        E 196 99 24 50
        E 244 89 24 40
        E 302 99 24 59
        E 244 89 24 40
        E 807 99 26 7f
        E 130 89 26 40
        E 3 99 26 78
        E 241 89 26 40
        E 764 99 24 55
        E 244 89 24 40
        E 285 99 24 52
        E 244 89 24 40
        E 285 99 26 7f
        E 118 89 26 40
        E 3 99 26 78
        E 241 89 26 40
        E 155 99 24 4a
        E 243 89 24 40
        E 308 99 24 59
        E 244 89 24 40
        E 821 99 26 7f
        E 116 99 28 5e
        E 126 89 26 40
        E 118 89 28 40
        E 735 99 24 56
        E 243 89 24 40
        E 295 99 24 58
        E 244 89 24 40
        E 264 99 26 7f
        E 104 89 26 40
        E 2 99 26 7f
        E 242 89 26 40
        E 173 99 24 4e
        E 244 89 24 40
        E 312 99 24 5d
        E 244 89 24 40
        E 834 99 26 7f
        E 101 89 26 40
        E 2 99 26 7f
        E 242 89 26 40
        E 732 99 24 54
        E 245 89 24 40
        E 292 99 24 53
        E 244 89 24 40
        E 261 99 26 7f
        E 127 89 26 40
        E 3 99 26 7f
        E 242 89 26 40
        E 174 99 24 4f
        E 244 89 24 40
        E 280 99 24 57
        E 244 89 24 40
        E 326 99 26 7f
        E 223 89 26 40
        E 2 99 26 67
        E 242 89 26 40
        E 50 99 26 6f
        E 236 89 26 40
        E 3 99 26 50
        E 242 89 26 40
        E 7 99 26 7d
        E 244 89 26 40
        E 353 99 24 59
        E 244 89 24 40
        E 285 99 24 56
        E 244 89 24 40
        E 247 99 26 7f
        E 103 89 26 40
        E 3 99 26 7f
        E 241 89 26 40
        E 218 99 24 4d
        E 244 89 24 40
        E 307 99 24 5a
        E 244 89 24 40
        E 797 99 26 7f
        E 92 89 26 40
        E 2 99 26 6d
        E 242 89 26 40
        E 741 99 24 4d
        E 244 89 24 40
        E 307 99 24 58
        E 244 89 24 40
        E 266 99 26 7f
        E 92 89 26 40
        E 2 99 26 5e
        E 242 89 26 40
        E 200 99 24 4d
        E 245 89 24 40
        E 306 99 24 5a
        E 244 89 24 40
        E 824 99 26 7f
        E 244 89 26 40
        E 855 99 24 51
        E 245 89 24 40
        E 280 99 24 51
        E 244 89 24 40
        E 278 99 26 6a
        E 98 99 28 42
        E 145 89 26 40
        E 100 89 28 40
        E 200 99 24 4e
        E 244 89 24 40
        E 287 99 24 56
        E 244 89 24 40
        E 803 99 26 7b
        E 118 89 26 40
        E 3 99 26 6f
        E 241 89 26 40
        E 751 99 24 55
        E 245 89 24 40
        E 299 99 24 53
        E 244 89 24 40
        E 264 99 28 62
        E 108 89 28 40
        E 3 99 28 66
        E 241 89 28 40
        E 162 99 24 4c
        E 244 89 24 40
        E 285 99 24 57
        E 242 89 24 40
        E 321 99 26 6a
        E 196 99 28 2f
        E 48 89 26 40
        E 196 89 28 40
        E 65 99 26 53
        E 220 99 28 37
        E 24 89 26 40
        E 220 89 28 40
        E 10 99 28 49
        E 244 89 28 40
        E 321 99 24 5d
        E 243 89 24 40
        E 820 99 24 63
        E 244 89 24 40
        E 319 99 26 5e
        E 106 89 26 40
        E 3 99 26 7f
        E 241 89 26 40
        E 785 99 24 68
        E 245 89 24 40
        E 326 99 26 7f
        E 84 89 26 40
        E 1 99 26 7f
        E 243 89 26 40
        E 771 99 24 58
        E 244 89 24 40
        E 838 99 24 57
        E 244 89 24 40
        E 319 99 28 31
        E 102 99 26 7c
        E 142 89 28 40
        E 102 89 26 40
        E 780 99 24 58
        E 243 89 24 40
        E 284 99 26 7b
        E 91 89 26 40
        E 3 99 26 7f
        E 241 89 26 40
        E 751 99 24 5b
        E 245 89 24 40
        E 841 99 24 56
        E 244 89 24 40
        E 345 99 26 79
        E 97 89 26 40
        E 2 99 26 7f
        E 242 89 26 40
        E 742 99 24 5c
        E 244 89 24 40
        E 263 99 26 7f
        E 94 89 26 40
        E 2 99 26 7f
        E 242 89 26 40
        E 773 99 24 5a
        E 244 89 24 40
        E 273 99 2d 7f
        E 15 99 30 7f
        E 229 89 2d 40
        E 15 89 30 40
        E 326 99 24 58
        E 244 89 24 40
        E 275 99 29 71
        E 17 99 2d 7f
        E 227 89 29 40
        E 17 89 2d 40
        E 276 99 24 5c
        E 244 89 24 40
        E 275 99 24 53
        E 244 89 24 40
        E 222 99 26 78
        E 107 89 26 40
        E 3 99 26 7f
        E 241 89 26 40
        E 749 99 24 54
        E 244 89 24 40
        E 816 99 24 59
        E 244 89 24 40
        E 307 99 26 7b
        E 101 89 26 40
        E 3 99 26 7f
        E 241 89 26 40
        E 747 99 24 67
        E 244 89 24 40
        E 256 99 26 7f
        E 94 89 26 40
        E 3 99 26 7f
        E 242 89 26 40
        E 749 99 24 5e
        E 243 89 24 40
        E 795 99 24 58
        E 244 89 24 40
        E 292 99 26 7f
        E 119 89 26 40
        E 2 99 26 7f
        E 241 89 26 40
        E 733 99 24 6a
        E 244 89 24 40
        E 239 99 26 78
        E 87 89 26 40
        E 3 99 26 7f
        E 241 89 26 40
        E 804 99 24 5c
        E 244 89 24 40
        E 803 99 24 61
        E 243 89 24 40
        E 313 99 26 76
        E 78 89 26 40
        E 2 99 26 7f
        E 242 89 26 40
        E 774 99 24 64
        E 244 89 24 40
        E 293 99 26 7c
        E 72 89 26 40
        E 3 99 26 7f
        E 241 89 26 40
        E 822 99 24 57
        E 244 89 24 40
        E 277 99 2d 7f
        E 8 99 30 7f
        E 237 89 2d 40
        E 6 89 30 40
        E 276 99 24 58
        E 245 89 24 40
        E 279 99 24 55
        E 244 89 24 40
        E 293 99 29 66
        E 2 99 2d 7f
        E 241 89 29 40
        E 3 89 2d 40
        E 271 99 24 6a
        E 244 89 24 40
        E 271 99 26 7f
        E 99 89 26 40
        E 2 99 26 7f
        E 239 89 26 40
        E 773 99 24 59
        E 244 89 24 40
        E 787 99 24 5c
        E 245 89 24 40
        E 277 99 26 7f
        E 97 89 26 40
        E 3 99 26 7d
        E 241 89 26 40
        E 790 99 24 5e
        E 244 89 24 40
        E 261 99 26 7f
        E 73 89 26 40
        E 2 99 26 7f
        E 242 89 26 40
        E 739 99 24 58
        E 242 89 24 40
        E 824 99 24 5e
        E 244 89 24 40
        E 333 99 26 7f
        E 114 89 26 40
        E 2 99 26 7c
        E 242 89 26 40
        E 746 99 24 62
        E 244 89 24 40
        E 261 99 26 7f
        E 104 89 26 40
        E 2 99 26 7c
        E 242 89 26 40
        E 741 99 24 54
        E 245 89 24 40
        E 809 99 24 69
        E 243 89 24 40
        E 286 99 26 76
        E 99 89 26 40
        E 2 99 26 75
        E 242 89 26 40
        E 773 99 24 67
        E 245 89 24 40
        E 289 99 26 70
        E 63 89 26 40
        E 3 99 26 73
        E 241 89 26 40
        E 800 99 24 5f
        E 244 89 24 40
        E 215 99 30 79
        E 6 99 2d 7f
        E 238 89 30 40
        E 4 89 2d 40
        E 305 99 2d 7f
        E 3 99 30 7f
        E 241 89 2d 40
        E 0 89 30 40
        E 257 99 24 5d
        E 242 89 24 40
        E 272 99 29 7f
        E 11 99 2d 7f
        E 233 89 29 40
        E 11 89 2d 40
        E 271 99 24 61
        E 244 89 24 40
        E 266 99 26 79
        E 111 89 26 40
        E 3 99 26 7f
        E 241 89 26 40
        E 206 99 24 51
        E 243 89 24 40
        E 315 99 24 62
        E 244 89 24 40
        E 814 99 24 61
        E 245 89 24 40
        E 296 99 26 7c
        E 80 89 26 40
        E 2 99 26 7f
        E 241 89 26 40
        E 1347 99 26 7b
        E 65 89 26 40
        E 2 99 26 7b
        E 242 89 26 40
        E 701 99 24 67
        E 243 89 24 40
        E 790 99 24 6a
        E 244 89 24 40
        E 303 99 26 7f
        E 125 89 26 40
        E 3 99 26 7f
        E 241 89 26 40
        E 768 99 24 6a
        E 245 89 24 40
        E 263 99 26 7f
        E 94 89 26 40
        E 2 99 26 78
        E 243 89 26 40
        E 789 99 24 62
        E 242 89 24 40
        E 765 99 24 6f
        E 245 89 24 40
        E 299 99 26 70
        E 244 89 26 40
        E 1220 99 26 7f
        E 102 89 26 40
        E 2 99 26 7f
        E 242 89 26 40
        E 756 99 24 5f
        E 244 89 24 40
        E 244 99 2d 7f
        E 17 99 30 7f
        E 226 89 2d 40
        E 16 89 30 40
        E 263 99 2d 7f
        E 17 99 30 7f
        E 227 89 2d 40
        E 17 89 30 40
        E 222 99 24 59
        E 244 89 24 40
        E 293 99 29 52
        E 14 99 2d 7f
        E 229 89 29 40
        E 15 89 2d 40
        E 248 99 24 5a
        E 244 89 24 40
        E 228 99 26 7e
        E 130 89 26 40
        E 3 99 26 7c
        E 241 89 26 40
        E 722 99 24 72
        E 241 89 24 40
        E 320 99 24 6e
        E 244 89 24 40
        E 285 99 24 5d
        E 244 89 24 40
        E 264 99 26 70
        E 104 89 26 40
        E 1 99 26 67
        E 243 89 26 40
        E 198 99 24 56
        E 241 89 24 40
        E 273 99 24 5f
        E 242 89 24 40
        E 271 99 26 7f
        E 101 89 26 40
        E 2 99 26 7f
        E 242 89 26 40
        E 758 99 24 5d
        E 244 89 24 40
        E 303 99 24 63
        E 244 89 24 40
        E 270 99 24 5d
        E 244 89 24 40
        E 280 99 26 7f
        E 102 89 26 40
        E 2 99 26 7a
        E 242 89 26 40
        E 232 99 24 58
        E 244 89 24 40
        E 273 99 24 61
        E 244 89 24 40
        E 291 99 26 7f
        E 105 89 26 40
        E 3 99 26 7f
        E 241 89 26 40
        E 810 99 24 62
        E 243 89 24 40
        E 266 99 24 52
        E 244 89 24 40
        E 276 99 24 63
        E 244 89 24 40
        E 248 99 26 7e
        E 100 89 26 40
        E 2 99 26 7f
        E 241 89 26 40
        E 244 99 24 5b
        E 244 89 24 40
        E 276 99 24 5d
        E 244 89 24 40
        E 302 99 26 70
        E 113 89 26 40
        E 3 99 26 7f
        E 242 89 26 40
        E 755 99 24 59
        E 245 89 24 40
        E 277 99 24 56
        E 242 89 24 40
        E 268 99 24 58
        E 244 89 24 40
        E 208 99 26 7f
        E 126 89 26 40
        E 2 99 26 7f
        E 242 89 26 40
        E 188 99 24 5a
        E 244 89 24 40
        E 276 99 24 5c
        E 244 89 24 40
        E 270 99 26 7f
        E 97 89 26 40
        E 3 99 26 6e
        E 241 89 26 40
        E 815 99 24 5f
        E 243 89 24 40
        E 256 99 24 51
        E 245 89 24 40
        E 282 99 24 66
        E 244 89 24 40
        E 225 99 26 7f
        E 121 89 26 40
        E 2 99 26 7f
        E 242 89 26 40
        E 195 99 24 4d
        E 244 89 24 40
        E 285 99 24 5e
        E 244 89 24 40
        E 293 99 26 7f
        E 92 89 26 40
        E 2 99 26 7f
        E 242 89 26 40
        E 804 99 24 66
        E 244 89 24 40
        E 268 99 24 52
        E 243 89 24 40
        E 255 99 24 55
        E 244 89 24 40
        E 231 99 26 7f
        E 114 89 26 40
        E 3 99 26 7f
        E 242 89 26 40
        E 250 99 24 4b
        E 245 89 24 40
        E 256 99 24 60
        E 243 89 24 40
        E 257 99 26 7c
        E 103 89 26 40
        E 3 99 26 7f
        E 242 89 26 40
        E 792 99 24 59
        E 244 89 24 40
        E 278 99 24 56
        E 244 89 24 40
        E 268 99 24 62
        E 244 89 24 40
        E 247 99 26 7f
        E 79 89 26 40
        E 3 99 26 7f
        E 242 89 26 40
        E 246 99 24 53
        E 244 89 24 40
        E 270 99 24 58
        E 244 89 24 40
        E 307 99 26 7f
        E 97 89 26 40
        E 3 99 26 7f
        E 241 89 26 40
        E 766 99 24 5b
        E 244 89 24 40
        E 309 99 24 64
        E 245 89 24 40
        E 236 99 24 4c
        E 244 89 24 40
        E 263 99 26 7f
        E 80 89 26 40
        E 2 99 26 78
        E 242 89 26 40
        E 256 99 24 58
        E 244 89 24 40
        E 259 99 24 5d
        E 243 89 24 40
        E 276 99 26 7f
        E 113 89 26 40
        E 3 99 26 7f
        E 241 89 26 40
        E 733 99 24 7c
        E 41 b9 04 00
        E 2 99 2e 7f
        E 200 89 24 40
        E 44 89 2e 40
        E 280 b9 04 00
        E 0 99 2e 33
        E 215 b9 04 0c
        E 29 89 2e 40
        E 157 b9 04 1a
        E 128 99 26 58
        E 10 b9 04 27
        E 2 99 2e 7f
        E 31 b9 04 2c
        E 202 89 26 40
        E 11 89 2e 40
        E 15 b9 04 34
        E 201 b9 04 41
        E 113 b9 04 43
        E 3 99 2e 2e
        E 241 89 2e 40
        E 234 99 24 5c
        E 32 b9 04 44
        E 3 99 2e 7f
        E 209 89 24 40
        E 32 89 2e 40
        E 261 99 24 54
        E 50 b9 04 36
        E 3 99 2e 24
        E 5 b9 04 36
        E 186 89 24 40
        E 53 89 2e 40
        E 268 99 26 6a
        E 15 b9 04 36
        E 2 99 2e 7f
        E 227 89 26 40
        E 15 89 2e 40
        E 292 b9 04 36
        E 2 99 2e 3e
        E 242 89 2e 40
        E 235 99 24 6d
        E 19 b9 04 36
        E 2 99 2e 7f
        E 222 89 24 40
        E 22 89 2e 40
        E 271 b9 04 36
        E 2 99 2e 3b
        E 244 89 2e 40
        E 36 b9 04 30
        E 283 b9 04 34
        E 2 99 2e 7f
        E 5 b9 04 34
        E 0 99 26 71
        E 240 89 2e 40
        E 4 89 26 40
        E 283 b9 04 38
        E 0 99 2e 4a
        E 94 b9 04 38
        E 150 89 2e 40
        E 264 99 24 58
        E 36 b9 04 3e
        E 2 99 2e 7f
        E 2 b9 04 3c
        E 203 89 24 40
        E 37 89 2e 40
        E 169 b9 04 46
        E 65 99 24 4e
        E 48 b9 04 44
        E 0 99 2e 57
        E 116 b9 04 36
        E 80 89 24 40
        E 48 89 2e 40
        E 276 99 26 75
        E 33 b9 04 46
        E 5 99 2e 7f
        E 0 b9 04 46
        E 20 b9 04 4c
        E 116 b9 04 4c
        E 69 89 26 40
        E 11 b9 04 3c
        E 26 89 2e 40
        E 111 b9 04 34
        E 131 99 24 59
        E 19 b9 04 43
        E 2 99 2e 60
        E 7 b9 04 44
        E 215 89 24 40
        E 22 89 2e 40
        E 49 b9 04 38
        E 234 99 24 5f
        E 39 b9 04 3c
        E 2 99 2e 7f
        E 203 89 24 40
        E 39 89 2e 40
        E 285 b9 04 3c
        E 0 99 2e 50
        E 220 b9 04 2e
        E 24 89 2e 40
        E 261 99 26 68
        E 24 b9 04 30
        E 2 99 2e 7f
        E 218 89 26 40
        E 26 89 2e 40
        E 17 b9 04 27
        E 210 b9 04 36
        E 63 b9 04 36
        E 3 99 2e 4e
        E 241 89 2e 40
        E 235 99 24 67
        E 31 b9 04 38
        E 1 99 2e 7f
        E 212 89 24 40
        E 31 89 2e 40
        E 114 b9 04 3e
        E 147 99 24 50
        E 24 b9 04 3c
        E 2 99 2e 4f
        E 218 89 24 40
        E 26 89 2e 40
        E 281 99 26 7b
        E 26 b9 04 3a
        E 2 99 2e 7f
        E 216 89 26 40
        E 26 89 2e 40
        E 271 b9 04 3c
        E 2 99 2e 69
        E 245 89 2e 40
        E 229 99 24 63
        E 56 b9 04 3e
        E 2 99 2e 7f
        E 186 89 24 40
        E 55 89 2e 40
        E 257 b9 04 3a
        E 0 99 2e 51
        E 127 b9 04 38
        E 117 89 2e 40
        E 222 b9 04 3e
        E 45 99 28 43
        E 40 b9 04 3e
        E 2 99 2e 7f
        E 202 89 28 40
        E 40 89 2e 40
        E 280 b9 04 3e
        E 3 99 2e 5a
        E 241 89 2e 40
        E 237 99 24 62
        E 48 b9 04 3f
        E 4 99 2e 7f
        E 191 89 24 40
        E 51 89 2e 40
        E 244 99 24 55
        E 19 b9 04 3f
        E 3 99 2e 3e
        E 222 89 24 40
        E 20 89 2e 40
        E 253 99 26 69
        E 43 b9 04 3f
        E 3 99 2e 7f
        E 198 89 26 40
        E 43 89 2e 40
        E 274 b9 04 3f
        E 2 99 2e 46
        E 242 89 2e 40
        E 229 99 24 62
        E 51 b9 04 3f
        E 0 99 2e 7f
        E 193 89 24 40
        E 51 89 2e 40
        E 242 b9 04 3f
        E 0 99 2e 60
        E 244 89 2e 40
        E 335 99 26 78
        E 30 b9 04 3e
        E 2 99 2e 7f
        E 213 89 26 40
        E 28 89 2e 40
        E 273 b9 04 41
        E 3 99 2e 6c
        E 241 89 2e 40
        E 254 99 24 5d
        E 70 b9 04 41
        E 2 99 2e 7f
        E 172 89 24 40
        E 73 89 2e 40
        E 210 99 24 51
        E 17 b9 04 41
        E 2 99 2e 5b
        E 225 89 24 40
        E 17 89 2e 40
        E 302 99 28 50
        E 34 b9 04 3e
        E 2 99 2e 7f
        E 208 89 28 40
        E 36 89 2e 40
        E 263 b9 04 3e
        E 1 99 2e 63
        E 243 89 2e 40
        E 232 99 24 63
        E 37 b9 04 3e
        E 2 99 2e 7f
        E 206 89 24 40
        E 36 89 2e 40
        E 231 b9 04 3c
        E 5 99 2e 4f
        E 242 89 2e 40
        E 26 b9 04 3a
        E 283 99 26 6a
        E 17 b9 04 3c
        E 3 99 2e 7f
        E 224 89 26 40
        E 17 89 2e 40
        E 273 b9 04 3e
        E 0 99 2e 67
        E 71 b9 04 3e
        E 173 89 2e 40
        E 292 99 24 55
        E 29 b9 04 3e
        E 3 99 2e 7f
        E 213 89 24 40
        E 26 89 2e 40
        E 246 b9 04 3f
        E 2 99 2e 5b
        E 2 99 24 54
        E 238 89 2e 40
        E 8 89 24 40
        E 285 99 26 7f
        E 24 b9 04 3e
        E 2 99 2e 7f
        E 217 89 26 40
        E 25 89 2e 40
        E 268 b9 04 3e
        E 2 99 2e 5d
        E 241 89 2e 40
        E 230 99 24 54
        E 29 b9 04 3f
        E 3 99 2e 7f
        E 213 89 24 40
        E 31 89 2e 40
        E 256 b9 04 3e
        E 2 99 2e 51
        E 242 89 2e 40
        E 278 99 26 50
        E 31 b9 04 3f
        E 2 99 2e 7f
        E 211 89 26 40
        E 31 89 2e 40
        E 268 b9 04 41
        E 3 99 2e 55
        E 244 89 2e 40
        E 225 99 24 5f
        E 36 b9 04 43
        E 2 99 2e 7f
        E 205 89 24 40
        E 37 89 2e 40
        E 234 99 24 4a
        E 3 b9 04 41
        E 2 99 2e 4d
        E 239 89 24 40
        E 5 89 2e 40
        E 285 99 26 55
        E 29 b9 04 3f
        E 2 99 2e 7f
        E 213 89 26 40
        E 32 89 2e 40
        E 255 b9 04 3f
        E 3 99 2e 4a
        E 244 89 2e 40
        E 263 99 24 5f
        E 24 b9 04 41
        E 2 99 2e 7f
        E 218 89 24 40
        E 24 89 2e 40
        E 266 b9 04 3c
        E 3 99 2e 42
        E 239 89 2e 40
        E 24 b9 04 3a
        E 285 99 26 6c
        E 17 b9 04 3e
        E 2 99 2e 7f
        E 3 b9 04 3e
        E 222 89 26 40
        E 17 89 2e 40
        E 258 b9 04 3a
        E 54 99 30 76
        E 217 89 30 40
        E 2 99 30 7f
        E 80 b9 04 41
        E 161 89 30 40
        E 62 99 30 7f
        E 243 89 30 40
        E 307 99 2d 7f
        E 198 89 2d 40
        E 2 99 2d 7f
        E 213 b9 04 3a
        E 29 89 2d 40
        E 20 99 2d 7f
        E 244 89 2d 40
        E 62 99 2d 79
        E 240 99 29 7f
        E 4 89 2d 40
        E 240 89 29 40
        E 331 99 24 7f
        E 60 99 33 7f
        E 53 b9 04 32
        E 131 89 24 40
        E 38 b9 04 29
        E 20 89 33 40
        E 401 b9 04 30
        E 280 b9 04 38
        E 159 99 24 5c
        E 6 99 33 55
        E 239 89 24 40
        E 4 89 33 40
        E 261 99 26 7f
        E 31 99 33 7f
        E 213 89 26 40
        E 33 89 33 40
        E 301 99 33 3f
        E 244 89 33 40
        E 263 99 24 55
        E 17 99 33 35
        E 227 89 24 40
        E 17 89 33 40
        E 278 99 30 7f
        E 14 99 33 4f
        E 230 89 30 40
        E 14 89 33 40
        E 257 99 30 7f
        E 29 99 33 6e
        E 214 89 30 40
        E 29 89 33 40
        E 107 b9 04 3c
        E 166 99 24 67
        E 47 99 33 6a
        E 89 b9 04 36
        E 109 89 24 40
        E 45 89 33 40
        E 83 b9 04 30
        E 178 99 33 4a
        E 245 89 33 40
        E 122 b9 04 36
        E 153 99 24 5b
        E 21 99 33 59
        E 174 b9 04 2e
        E 49 89 24 40
        E 21 89 33 40
        E 293 99 26 7d
        E 2 99 33 73
        E 48 b9 04 32
        E 194 89 26 40
        E 2 89 33 40
        E 305 99 33 59
        E 244 89 33 40
        E 190 b9 04 36
        E 47 99 33 32
        E 50 99 24 57
        E 193 89 33 40
        E 51 89 24 40
        E 271 99 33 3c
        E 16 99 29 7b
        E 76 b9 04 32
        E 152 89 33 40
        E 17 89 29 40
        E 278 99 29 7f
        E 31 99 33 44
        E 213 89 29 40
        E 31 89 33 40
        E 251 99 24 5b
        E 53 99 33 59
        E 191 89 24 40
        E 32 b9 04 2c
        E 22 89 33 40
        E 244 99 33 3e
        E 244 89 33 40
        E 181 b9 04 3c
        E 98 99 24 57
        E 2 99 33 5b
        E 18 b9 04 2c
        E 38 b9 04 1a
        E 58 b9 04 09
        E 27 b9 04 00
        E 101 89 24 40
        E 3 89 33 40
        E 285 99 26 7f
        E 20 b9 04 12
        E 8 b9 04 25
        E 11 99 33 5d
        E 3 b9 04 36
        E 26 b9 04 46
        E 5 b9 04 4c
        E 4 99 2c 1a
        E 0 b9 04 56
        E 15 b9 04 66
        E 82 b9 04 56
        E 27 b9 04 46
        E 21 b9 04 36
        E 22 89 26 40
        E 3 b9 04 22
        E 36 89 33 40
        E 2 b9 04 12
        E 34 89 2c 40
        E 239 b9 04 22
        E 34 99 33 4c
        E 3 b9 04 32
        E 43 b9 04 43
        E 171 b9 04 32
        E 27 89 33 40
        E 247 99 33 56
        E 2 99 24 53
        E 14 b9 04 3a
        E 87 b9 04 29
        E 78 b9 04 18
        E 62 89 33 40
        E 3 89 24 40
        E 58 b9 04 06
        E 210 99 30 7f
        E 10 b9 04 18
        E 12 99 33 62
        E 16 b9 04 29
        E 23 b9 04 3a
        E 21 b9 04 4a
        E 5 b9 04 4d
        E 2 99 2c 0c
        E 88 b9 04 3a
        E 43 b9 04 29
        E 24 89 30 40
        E 22 89 33 40
        E 17 b9 04 18
        E 48 89 2c 40
        E 155 b9 04 29
        E 46 b9 04 3a
        E 12 99 30 7f
        E 72 b9 04 4a
        E 99 b9 04 3a
        E 73 89 30 40
        E 7 b9 04 29
        E 273 99 24 6e
        E 39 99 33 4c
        E 138 b9 04 34
        E 67 89 24 40
        E 39 89 33 40
        E 5 b9 04 22
        E 268 99 33 41
        E 152 b9 04 30
        E 92 89 33 40
        E 251 99 33 64
        E 7 99 24 5c
        E 17 b9 04 20
        E 67 b9 04 0f
        E 71 b9 04 00
        E 82 89 33 40
        E 7 89 24 40
        E 297 99 26 7f
        E 3 b9 04 12
        E 9 b9 04 22
        E 10 b9 04 32
        E 5 99 33 6c
        E 24 b9 04 44
        E 5 b9 04 4d
        E 3 99 2c 20
        E 2 b9 04 55
        E 36 b9 04 44
        E 41 b9 04 34
        E 36 b9 04 20
        E 71 89 26 40
        E 2 b9 04 0f
        E 24 89 33 40
        E 31 89 2c 40
        E 186 b9 04 20
        E 42 b9 04 30
        E 50 99 33 56
        E 3 b9 04 41
        E 149 b9 04 30
        E 89 b9 04 20
        E 3 89 33 40
        E 147 b9 04 30
        E 107 99 33 4f
        E 9 99 24 57
        E 27 b9 04 3a
        E 150 b9 04 29
        E 58 89 33 40
        E 9 89 24 40
        E 97 b9 04 20
        E 160 99 29 65
        E 14 99 33 37
        E 68 b9 04 30
        E 161 89 29 40
        E 15 89 33 40
        E 24 b9 04 20
        E 245 99 29 7f
        E 69 b9 04 30
        E 174 89 29 40
        E 107 b9 04 20
        E 181 99 24 5e
        E 51 99 33 4c
        E 62 b9 04 2e
        E 129 b9 04 1d
        E 2 89 24 40
        E 51 89 33 40
        E 261 99 33 44
        E 127 b9 04 2e
        E 116 89 33 40
        E 208 b9 04 29
        E 66 99 24 58
        E 5 99 33 4b
        E 103 b9 04 18
        E 61 b9 04 06
        E 31 b9 04 00
        E 44 89 24 40
        E 4 89 33 40
        E 281 99 26 61
        E 46 b9 04 12
        E 4 99 33 7a
        E 2 b9 04 25
        E 8 b9 04 36
        E 29 b9 04 46
        E 5 b9 04 4d
        E 2 99 2c 1a
        E 3 b9 04 56
        E 10 b9 04 66
        E 48 b9 04 56
        E 31 b9 04 46
        E 24 b9 04 36
        E 32 89 26 40
        E 5 b9 04 25
        E 34 b9 04 15
        E 11 89 33 40
        E 46 89 2c 40
        E 82 b9 04 0c
        E 114 b9 04 1d
        E 36 99 33 56
        E 5 b9 04 2e
        E 51 b9 04 3e
        E 154 b9 04 2e
        E 32 89 33 40
        E 38 b9 04 1d
        E 189 b9 04 2e
        E 14 99 33 54
        E 41 99 24 57
        E 17 b9 04 3e
        E 172 b9 04 2e
        E 14 89 33 40
        E 42 89 24 40
        E 41 b9 04 1d
        E 190 99 30 7f
        E 37 99 33 6d
        E 92 b9 04 2e
        E 36 b9 04 3e
        E 51 b9 04 4d
        E 2 99 2c 08
        E 26 89 30 40
        E 37 89 33 40
        E 70 b9 04 2e
        E 53 b9 04 1d
        E 58 89 2c 40
        E 80 99 30 7f
        E 12 99 33 56
        E 29 b9 04 2e
        E 118 b9 04 3e
        E 85 89 30 40
        E 10 89 33 40
        E 134 b9 04 32
        E 121 99 24 50
        E 49 99 33 58
        E 195 89 24 40
        E 49 89 33 40
        E 97 b9 04 2e
        E 145 99 33 3d
        E 48 b9 04 3c
        E 195 89 33 40
        E 179 b9 04 38
        E 94 99 24 58
        E 15 99 33 56
        E 102 b9 04 3c
        E 127 89 24 40
        E 13 89 33 40
        E 43 b9 04 2e
        E 145 b9 04 20
        E 68 99 26 7f
        E 53 99 33 7d
        E 7 b9 04 30
        E 138 b9 04 36
        E 45 89 26 40
        E 54 89 33 40
        E 31 b9 04 27
        E 256 99 33 43
        E 27 b9 04 38
        E 217 89 33 40
        E 77 b9 04 2c
        E 169 99 24 52
        E 10 99 33 48
        E 58 b9 04 34
        E 177 89 24 40
        E 10 89 33 40
        E 7 b9 04 27
        E 295 99 33 51
        E 9 99 29 78
        E 34 b9 04 32
        E 118 b9 04 22
        E 83 89 33 40
        E 9 89 29 40
        E 60 b9 04 15
        E 203 99 33 49
        E 15 99 29 7f
        E 48 b9 04 25
        E 145 b9 04 2c
        E 36 89 33 40
        E 15 89 29 40
        E 121 b9 04 20
        E 137 99 24 5a
        E 37 99 33 48
        E 152 b9 04 12
        E 55 89 24 40
        E 36 89 33 40
        E 249 99 33 5b
        E 37 b9 04 1a
        E 208 89 33 40
        E 50 b9 04 2c
        E 68 b9 04 3c
        E 106 b9 04 2c
        E 41 99 24 56
        E 5 b9 04 1a
        E 12 99 33 58
        E 34 b9 04 09
        E 29 b9 04 00
        E 164 89 24 40
        E 17 89 33 40
        E 241 99 26 56
        E 5 b9 04 12
        E 15 b9 04 22
        E 22 99 33 65
        E 12 b9 04 32
        E 10 b9 04 43
        E 4 b9 04 4d
        E 2 99 2c 22
        E 3 b9 04 53
        E 29 b9 04 43
        E 32 b9 04 32
        E 29 b9 04 22
        E 58 b9 04 12
        E 24 89 26 40
        E 40 89 33 40
        E 30 89 2c 40
        E 63 b9 04 09
        E 113 b9 04 1a
        E 61 b9 04 2c
        E 9 99 33 4a
        E 124 b9 04 36
        E 109 b9 04 25
        E 11 89 33 40
        E 123 b9 04 1d
        E 111 b9 04 2e
        E 39 99 33 38
        E 10 99 24 55
        E 101 b9 04 36
        E 133 89 33 40
        E 3 b9 04 25
        E 7 89 24 40
        E 133 b9 04 1d
        E 102 99 30 7f
        E 41 99 33 74
        E 57 b9 04 2e
        E 34 b9 04 3e
        E 53 b9 04 4d
        E 3 99 2c 08
        E 12 b9 04 4f
        E 43 89 30 40
        E 41 89 33 40
        E 13 b9 04 3f
        E 55 b9 04 2e
        E 75 b9 04 1d
        E 2 89 2c 40
        E 100 99 30 7f
        E 26 99 33 51
        E 99 b9 04 2e
        E 118 89 30 40
        E 25 89 33 40
        E 2 b9 04 36
        E 123 b9 04 25
        E 119 99 24 59
        E 29 b9 04 20
        E 14 99 33 62
        E 174 b9 04 2c
        E 27 89 24 40
        E 43 89 33 40
        E 182 b9 04 27
        E 58 99 33 4e
        E 144 b9 04 2e
        E 99 89 33 40
        E 259 99 33 4b
        E 12 99 24 51
        E 12 b9 04 36
        E 171 b9 04 29
        E 49 89 33 40
        E 12 89 24 40
        E 125 b9 04 22
        E 187 99 26 7f
        E 9 99 33 77
        E 143 b9 04 2c
        E 92 89 26 40
        E 6 89 33 40
        E 112 b9 04 1d
        E 148 99 33 3e
        E 171 b9 04 29
        E 72 89 33 40
        E 111 b9 04 1d
        E 192 99 30 7f
        E 222 89 30 40
        E 2 99 30 7f
        E 29 b9 04 25
        E 172 b9 04 1d
        E 43 89 30 40
        E 10 99 30 7f
        E 140 b9 04 27
        E 104 89 30 40
        E 24 99 30 5c
        E 237 99 29 7f
        E 7 89 30 40
        E 39 b9 04 2e
        E 198 89 29 40
        E 21 99 29 64
        E 244 89 29 40
        E 46 99 24 6a
        E 12 99 33 7f
        E 233 89 24 40
        E 11 89 33 40
        E 63 b9 04 27
        E 206 99 33 44
        E 42 b9 04 2e
        E 201 89 33 40
        E 204 b9 04 3e
        E 43 99 24 51
        E 46 99 33 7f
        E 53 b9 04 2e
        E 44 b9 04 1d
        E 68 b9 04 0c
        E 33 89 24 40
        E 15 b9 04 00
        E 31 89 33 40
        E 293 99 26 62
        E 16 b9 04 12
        E 5 99 33 7f
        E 17 b9 04 25
        E 11 b9 04 36
        E 10 b9 04 46
        E 6 b9 04 4c
        E 2 99 2c 16
        E 104 b9 04 36
        E 34 b9 04 25
        E 38 b9 04 15
        E 3 89 26 40
        E 19 89 33 40
        E 46 89 2c 40
        E 70 b9 04 06
        E 123 b9 04 18
        E 58 99 33 48
        E 8 b9 04 29
        E 132 b9 04 32
        E 75 b9 04 22
        E 30 89 33 40
        E 118 b9 04 1d
        E 116 99 33 38
        E 5 b9 04 2e
        E 5 99 24 4d
        E 234 89 33 40
        E 10 89 24 40
        E 16 b9 04 1d
        E 220 99 30 7f
        E 55 99 33 44
        E 61 b9 04 2e
        E 128 89 30 40
        E 5 b9 04 36
        E 50 89 33 40
        E 32 b9 04 25
        E 128 b9 04 18
        E 89 99 33 69
        E 28 99 30 7f
        E 6 b9 04 29
        E 104 b9 04 3a
        E 107 89 33 40
        E 29 89 30 40
        E 13 b9 04 29
        E 153 b9 04 1d
        E 111 99 24 55
        E 32 99 33 56
        E 212 89 24 40
        E 31 89 33 40
        E 69 b9 04 15
        E 163 b9 04 25
        E 13 99 33 4c
        E 244 89 33 40
        E 53 b9 04 20
        E 196 b9 04 30
        E 19 99 24 4e
        E 9 99 33 4e
        E 129 b9 04 20
        E 80 b9 04 0f
        E 24 89 24 40
        E 11 89 33 40
        E 27 b9 04 00
        E 278 99 26 7c
        E 10 99 33 7f
        E 14 b9 04 12
        E 24 b9 04 22
        E 7 b9 04 32
        E 8 b9 04 43
        E 7 b9 04 4c
        E 3 99 2c 1e
        E 31 b9 04 32
        E 72 b9 04 22
        E 66 89 26 40
        E 12 89 33 40
        E 17 b9 04 12
        E 43 89 2c 40
        E 186 b9 04 22
        E 60 99 33 39
        E 2 b9 04 32
        E 134 b9 04 36
        E 109 89 33 40
        E 23 b9 04 25
        E 225 99 33 44
        E 17 99 24 4e
        E 89 b9 04 2c
        E 138 89 33 40
        E 17 89 24 40
        E 4 b9 04 1a
        E 294 99 29 7b
        E 12 99 33 35
        E 94 b9 04 2c
        E 138 89 29 40
        E 9 89 33 40
        E 36 b9 04 1a
        E 174 b9 04 15
        E 74 99 29 7f
        E 86 b9 04 25
        E 140 b9 04 30
        E 15 89 29 40
        E 92 b9 04 20
        E 197 99 24 57
        E 34 99 33 4c
        E 210 89 24 40
        E 34 89 33 40
        E 38 b9 04 0f
        E 226 99 33 45
        E 77 b9 04 20
        E 55 b9 04 30
        E 112 89 33 40
        E 64 b9 04 20
        E 230 99 24 54
        E 7 99 33 3c
        E 237 89 24 40
        E 5 89 33 40
        E 31 b9 04 12
        E 252 99 26 6e
        E 67 99 33 78
        E 3 b9 04 20
        E 171 89 26 40
        E 71 89 33 40
        E 72 b9 04 18
        E 193 99 33 34
        E 94 b9 04 20
        E 150 89 33 40
        E 261 99 33 3b
        E 2 99 24 4d
        E 59 b9 04 27
        E 179 b9 04 1a
        E 4 89 33 40
        E 2 89 24 40
        E 264 99 30 7f
        E 34 b9 04 2c
        E 19 99 33 3a
        E 191 89 30 40
        E 53 89 33 40
        E 32 b9 04 1d
        E 219 99 30 7f
        E 3 99 33 44
        E 154 b9 04 2c
        E 85 89 30 40
        E 3 89 33 40
        E 193 b9 04 25
        E 58 99 33 30
        E 244 89 33 40
        E 278 99 33 49
        E 243 89 33 40
        E 304 99 33 44
        E 245 89 33 40
        E 321 99 33 45
        E 150 b9 04 20
        E 92 89 33 40
        E 246 99 33 2f
        E 244 89 33 40
        E 309 99 30 7f
        E 230 89 30 40
        E 3 99 30 7f
        E 33 b9 04 25
        E 196 89 30 40
        E 3 99 30 6b
        E 241 89 30 40
        E 41 99 30 6c
        E 237 99 29 66
        E 7 89 30 40
        E 237 89 29 40
        E 39 99 29 2a
        E 244 89 29 40
        E 22 99 29 7f
        E 4 99 24 72
        E 56 b9 04 20
        E 183 89 29 40
        E 5 89 24 40
        E 247 99 29 40
        E 244 89 29 40
        E 316 99 24 51
        E 33 b9 04 25
        E 13 99 29 5c
        E 147 b9 04 20
        E 51 89 24 40
        E 46 89 29 40
        E 259 99 26 66
        E 33 99 29 7d
        E 211 89 26 40
        E 33 89 29 40
        E 269 99 26 52
        E 2 99 29 6b
        E 239 89 26 40
        E 3 89 29 40
        E 323 99 24 50
        E 3 99 29 45
        E 239 89 24 40
        E 2 89 29 40
        E 296 99 26 78
        E 4 99 29 74
        E 242 89 26 40
        E 2 89 29 40
        E 217 b9 04 30
        E 70 99 29 37
        E 37 b9 04 20
        E 89 b9 04 0f
        E 60 b9 04 00
        E 58 89 29 40
        E 235 b9 04 12
        E 22 b9 04 25
        E 14 b9 04 36
        E 10 99 24 4e
        E 14 99 29 62
        E 91 b9 04 25
        E 71 b9 04 15
        E 68 89 24 40
        E 14 89 29 40
        E 176 b9 04 25
        E 66 b9 04 36
        E 50 99 29 35
        E 66 b9 04 25
        E 50 b9 04 15
        E 56 b9 04 03
        E 22 b9 04 00
        E 51 89 29 40
        E 268 b9 04 12
        E 0 99 24 44
        E 12 99 29 50
        E 14 b9 04 22
        E 22 b9 04 32
        E 38 b9 04 22
        E 78 b9 04 12
        E 80 89 24 40
        E 11 89 29 40
        E 72 b9 04 06
        E 151 b9 04 18
        E 36 b9 04 29
        E 0 99 26 7a
        E 53 99 29 64
        E 126 b9 04 18
        E 63 b9 04 06
        E 3 89 26 40
        E 28 b9 04 00
        E 24 89 29 40
        E 254 99 26 60
        E 24 99 29 64
        E 17 b9 04 12
        E 27 b9 04 22
        E 14 b9 04 32
        E 31 b9 04 43
        E 42 b9 04 32
        E 46 b9 04 20
        E 43 89 26 40
        E 22 b9 04 0f
        E 2 89 29 40
        E 143 b9 04 06
        E 94 b9 04 18
        E 41 b9 04 29
        E 29 99 29 41
        E 5 99 24 50
        E 135 b9 04 18
        E 51 b9 04 06
        E 31 b9 04 00
        E 20 89 29 40
        E 7 89 24 40
        E 288 99 26 64
        E 19 99 29 6b
        E 19 b9 04 12
        E 15 b9 04 22
        E 31 b9 04 32
        E 10 b9 04 43
        E 2 b9 04 4c
        E 2 99 2c 20
        E 5 b9 04 53
        E 27 b9 04 43
        E 51 b9 04 32
        E 33 b9 04 22
        E 30 89 26 40
        E 16 89 29 40
        E 10 b9 04 12
        E 73 89 2c 40
        E 77 b9 04 09
        E 80 b9 04 1a
        E 19 99 29 39
        E 29 b9 04 2c
        E 143 b9 04 1a
        E 50 b9 04 09
        E 22 89 29 40
        E 12 b9 04 00
        E 273 99 24 50
        E 21 b9 04 12
        E 19 99 29 71
        E 16 b9 04 25
        E 9 b9 04 36
        E 10 b9 04 46
        E 5 b9 04 4c
        E 2 99 2c 1a
        E 22 b9 04 36
        E 70 b9 04 25
        E 65 b9 04 15
        E 4 89 24 40
        E 42 89 29 40
        E 41 89 2c 40
        E 63 b9 04 0f
        E 87 b9 04 20
        E 34 b9 04 30
        E 60 99 29 2e
        E 97 b9 04 20
        E 53 b9 04 0f
        E 43 b9 04 00
        E 51 89 29 40
        E 269 99 24 47
        E 2 b9 04 12
        E 9 99 29 49
        E 27 b9 04 25
        E 12 b9 04 36
        E 41 b9 04 25
        E 78 b9 04 15
        E 74 89 24 40
        E 10 89 29 40
        E 17 b9 04 03
        E 203 b9 04 15
        E 28 99 26 78
        E 11 b9 04 25
        E 29 99 29 67
        E 154 b9 04 15
        E 51 89 26 40
        E 19 b9 04 03
        E 17 b9 04 00
        E 3 89 29 40
        E 267 99 26 59
        E 15 99 29 61
        E 59 b9 04 12
        E 35 b9 04 22
        E 19 b9 04 32
        E 68 b9 04 22
        E 48 89 26 40
        E 15 89 29 40
        E 8 b9 04 12
        E 176 b9 04 0c
        E 106 99 29 4d
        E 14 b9 04 1d
        E 78 b9 04 2e
        E 133 b9 04 1d
        E 19 89 29 40
        E 80 b9 04 0c
        E 67 b9 04 00
        E 170 99 29 7e
        E 4 99 26 7b
        E 95 b9 04 12
        E 31 b9 04 22
        E 20 b9 04 32
        E 38 b9 04 22
        E 56 89 29 40
        E 4 89 26 40
        E 25 b9 04 12
        E 217 b9 04 22
        E 39 99 29 3a
        E 157 b9 04 12
        E 63 b9 04 00
        E 24 89 29 40
        E 258 99 24 4b
        E 10 b9 04 12
        E 27 b9 04 22
        E 7 99 29 63
        E 2 b9 04 32
        E 15 b9 04 43
        E 17 b9 04 32
        E 16 b9 04 22
        E 111 b9 04 12
        E 39 89 24 40
        E 44 89 29 40
        E 205 b9 04 22
        E 26 b9 04 32
        E 49 99 29 35
        E 87 b9 04 22
        E 43 b9 04 12
        E 65 b9 04 00
        E 49 89 29 40
        E 261 99 24 46
        E 9 b9 04 12
        E 17 99 29 54
        E 27 b9 04 25
        E 12 b9 04 36
        E 7 b9 04 46
        E 5 b9 04 4c
        E 3 99 2c 1a
        E 23 b9 04 36
        E 57 b9 04 25
        E 43 b9 04 15
        E 41 89 24 40
        E 27 89 29 40
        E 14 b9 04 03
        E 24 b9 04 00
        E 15 89 2c 40
        E 169 b9 04 12
        E 38 b9 04 25
        E 15 99 26 74
        E 12 b9 04 36
        E 10 99 29 71
        E 130 b9 04 22
        E 46 b9 04 12
        E 46 89 26 40
        E 19 89 29 40
        E 17 b9 04 00
        E 239 99 26 41
        E 8 99 29 5e
        E 82 b9 04 12
        E 24 b9 04 25
        E 19 b9 04 36
        E 25 b9 04 46
        E 26 b9 04 36
        E 51 b9 04 25
        E 10 89 26 40
        E 7 89 29 40
        E 36 b9 04 15
        E 154 b9 04 0f
        E 90 b9 04 20
        E 32 99 24 51
        E 9 99 29 43
        E 3 b9 04 30
        E 113 b9 04 20
        E 53 b9 04 0f
        E 55 b9 04 00
        E 10 89 24 40
        E 10 89 29 40
        E 285 99 26 6a
        E 12 99 29 72
        E 20 b9 04 12
        E 12 b9 04 25
        E 33 b9 04 36
        E 8 b9 04 46
        E 2 b9 04 4c
        E 5 99 2c 22
        E 2 b9 04 56
        E 17 b9 04 46
        E 9 b9 04 36
        E 61 b9 04 25
        E 51 b9 04 15
        E 12 89 26 40
        E 12 89 29 40
        E 80 89 2c 40
        E 51 b9 04 09
        E 87 b9 04 1a
        E 60 b9 04 2c
        E 10 99 29 2f
        E 113 b9 04 1a
        E 56 b9 04 09
        E 28 b9 04 00
        E 47 89 29 40
        E 253 b9 04 12
        E 17 99 24 50
        E 13 99 29 74
        E 2 b9 04 22
        E 10 b9 04 32
        E 7 b9 04 43
        E 7 b9 04 4c
        E 2 99 2c 1e
        E 20 b9 04 32
        E 50 b9 04 22
        E 126 b9 04 12
        E 7 89 24 40
        E 13 89 29 40
        E 28 89 2c 40
        E 126 b9 04 25
        E 41 b9 04 36
        E 75 b9 04 46
        E 12 99 29 31
        E 60 b9 04 36
        E 39 b9 04 25
        E 36 b9 04 15
        E 65 b9 04 03
        E 13 b9 04 00
        E 29 89 29 40
        E 269 b9 04 12
        E 23 b9 04 25
        E 9 b9 04 36
        E 8 99 24 4e
        E 2 b9 04 46
        E 2 b9 04 4c
        E 3 99 2c 1a
        E 17 b9 04 56
        E 10 99 29 43
        E 48 b9 04 46
        E 34 b9 04 36
        E 34 b9 04 25
        E 36 b9 04 15
        E 58 89 24 40
        E 8 89 2c 40
        E 26 89 29 40
        E 51 b9 04 06
        E 106 b9 04 18
        E 36 b9 04 29
        E 19 b9 04 3a
        E 34 99 26 79
        E 5 b9 04 4a
        E 19 b9 04 4d
        E 3 99 2c 08
        E 12 99 29 7f
        E 65 b9 04 3a
        E 31 b9 04 29
        E 34 b9 04 18
        E 36 b9 04 06
        E 13 b9 04 00
        E 26 89 26 40
        E 25 89 2c 40
        E 14 89 29 40
        E 220 b9 04 12
        E 17 b9 04 25
        E 7 99 24 51
        E 14 b9 04 36
        E 10 b9 04 46
        E 3 b9 04 4c
        E 0 99 2c 20
        E 5 b9 04 56
        E 38 99 29 43
        E 58 b9 04 46
        E 34 b9 04 36
        E 34 b9 04 25
        E 34 b9 04 15
        E 14 89 24 40
        E 27 89 2c 40
        E 43 89 29 40
        E 55 b9 04 0c
        E 56 b9 04 1d
        E 31 b9 04 2e
        E 29 b9 04 3e
        E 34 99 24 3f
        E 78 99 29 39
        E 43 b9 04 2e
        E 29 b9 04 1d
        E 53 b9 04 0c
        E 29 b9 04 00
        E 12 89 24 40
        E 78 89 29 40
        E 227 99 26 7c
        E 17 b9 04 12
        E 12 b9 04 25
        E 14 b9 04 36
        E 10 99 29 6b
        E 14 b9 04 47
        E 2 b9 04 4d
        E 3 99 2c 20
        E 2 b9 04 57
        E 35 b9 04 47
        E 45 b9 04 36
        E 39 b9 04 25
        E 36 b9 04 15
        E 15 89 26 40
        E 43 b9 04 03
        E 8 89 29 40
        E 16 b9 04 00
        E 2 89 2c 40
        E 136 b9 04 12
        E 41 b9 04 22
        E 27 b9 04 32
        E 43 99 29 35
        E 101 b9 04 22
        E 39 b9 04 12
        E 49 b9 04 00
        E 56 89 29 40
        E 236 b9 04 12
        E 24 b9 04 22
        E 2 99 24 4d
        E 15 b9 04 32
        E 13 b9 04 43
        E 4 b9 04 4c
        E 1 99 2c 1e
        E 3 b9 04 53
        E 5 99 29 5b
        E 58 b9 04 43
        E 39 b9 04 32
        E 41 b9 04 20
        E 66 89 24 40
        E 2 b9 04 0f
        E 28 89 2c 40
        E 9 89 29 40
        E 166 b9 04 20
        E 24 b9 04 30
        E 32 b9 04 41
        E 21 99 29 36
        E 92 b9 04 30
        E 24 b9 04 20
        E 39 b9 04 0f
        E 39 b9 04 00
        E 50 89 29 40
        E 268 b9 04 12
        E 17 99 24 49
        E 5 b9 04 22
        E 29 b9 04 32
        E 8 99 29 4a
        E 2 b9 04 44
        E 2 b9 04 4c
        E 3 99 2c 22
        E 2 b9 04 55
        E 32 b9 04 44
        E 41 b9 04 34
        E 36 b9 04 20
        E 53 b9 04 0f
        E 32 89 24 40
        E 41 89 29 40
        E 6 89 2c 40
        E 3 b9 04 00
        E 145 b9 04 12
        E 39 b9 04 22
        E 17 b9 04 32
        E 26 99 26 7f
        E 3 b9 04 43
        E 53 99 29 6d
        E 70 b9 04 32
        E 27 b9 04 22
        E 38 b9 04 12
        E 48 b9 04 00
        E 3 89 26 40
        E 58 89 29 40
        E 210 b9 04 12
        E 22 b9 04 22
        E 9 99 24 49
        E 8 b9 04 32
        E 9 b9 04 44
        E 3 b9 04 4c
        E 2 99 2c 22
        E 5 b9 04 54
        E 19 99 29 40
        E 73 b9 04 44
        E 38 b9 04 34
        E 29 b9 04 22
        E 39 b9 04 12
        E 19 89 24 40
        E 21 89 2c 40
        E 25 89 29 40
        E 80 b9 04 0c
        E 51 b9 04 1d
        E 31 b9 04 2e
        E 34 b9 04 3e
        E 51 99 24 48
        E 12 99 29 39
        E 55 b9 04 2e
        E 30 b9 04 1d
        E 39 b9 04 0c
        E 31 b9 04 00
        E 76 89 24 40
        E 13 89 29 40
        E 247 99 26 77
        E 17 b9 04 12
        E 9 b9 04 25
        E 6 b9 04 36
        E 30 b9 04 46
        E 2 99 29 53
        E 2 b9 04 4d
        E 3 99 2c 1a
        E 2 b9 04 57
        E 10 b9 04 68
        E 32 b9 04 58
        E 38 b9 04 47
        E 29 b9 04 36
        E 27 b9 04 25
        E 27 b9 04 15
        E 9 89 26 40
        E 46 b9 04 03
        E 20 89 29 40
        E 5 89 2c 40
        E 1 b9 04 00
        E 148 b9 04 12
        E 39 b9 04 22
        E 21 b9 04 32
        E 37 b9 04 43
        E 9 99 29 37
        E 88 b9 04 32
        E 26 b9 04 22
        E 31 b9 04 12
        E 41 b9 04 00
        E 58 89 29 40
        E 252 b9 04 12
        E 9 99 24 4b
        E 2 b9 04 25
        E 32 b9 04 36
        E 10 b9 04 46
        E 3 b9 04 4c
        E 2 99 2c 20
        E 5 b9 04 56
        E 2 99 29 63
        E 17 b9 04 46
        E 12 b9 04 36
        E 61 b9 04 25
        E 45 b9 04 15
        E 53 89 24 40
        E 22 b9 04 03
        E 27 89 2c 40
        E 7 89 29 40
        E 128 b9 04 15
        E 36 b9 04 25
        E 27 b9 04 36
        E 89 99 29 33
        E 66 b9 04 25
        E 33 b9 04 15
        E 43 b9 04 03
        E 10 b9 04 00
        E 92 89 29 40
        E 201 b9 04 12
        E 15 99 24 49
        E 7 b9 04 22
        E 19 b9 04 32
        E 10 b9 04 43
        E 7 b9 04 4c
        E 2 99 2c 1c
        E 3 b9 04 53
        E 2 99 29 4e
        E 53 b9 04 43
        E 39 b9 04 32
        E 34 b9 04 22
        E 40 b9 04 12
        E 25 89 24 40
        E 46 89 2c 40
        E 4 89 29 40
        E 73 b9 04 03
        E 126 b9 04 15
        E 19 b9 04 25
        E 15 b9 04 36
        E 19 99 26 7d
        E 2 b9 04 46
        E 15 b9 04 4d
        E 0 99 2c 0e
        E 33 99 29 66
        E 93 b9 04 36
        E 26 b9 04 25
        E 24 b9 04 15
        E 32 b9 04 03
        E 5 b9 04 00
        E 14 89 26 40
        E 17 89 2c 40
        E 33 89 29 40
        E 220 b9 04 12
        E 13 99 24 43
        E 2 b9 04 22
        E 19 b9 04 32
        E 14 b9 04 43
        E 3 b9 04 4c
        E 2 99 2c 1c
        E 2 b9 04 53
        E 11 99 29 3a
        E 96 b9 04 43
        E 25 b9 04 32
        E 21 b9 04 22
        E 32 b9 04 12
        E 17 89 24 40
        E 34 b9 04 00
        E 7 89 2c 40
        E 12 89 29 40
        E 164 b9 04 12
        E 31 b9 04 22
        E 21 b9 04 32
        E 28 99 29 37
        E 14 99 24 4b
        E 104 b9 04 22
        E 33 b9 04 12
        E 56 b9 04 00
        E 37 89 29 40
        E 14 89 24 40
        E 283 99 26 75
        E 10 b9 04 12
        E 7 b9 04 22
        E 12 b9 04 32
        E 19 99 29 61
        E 10 b9 04 43
        E 5 b9 04 4d
        E 2 99 2c 20
        E 2 b9 04 54
        E 59 b9 04 44
        E 29 b9 04 34
        E 34 b9 04 22
        E 37 b9 04 12
        E 18 89 26 40
        E 46 b9 04 00
        E 2 89 29 40
        E 18 89 2c 40
        E 161 b9 04 12
        E 34 b9 04 25
        E 26 b9 04 36
        E 63 99 29 31
        E 84 b9 04 25
        E 32 b9 04 15
        E 39 b9 04 03
        E 12 b9 04 00
        E 77 89 29 40
        E 208 99 24 46
        E 24 b9 04 12
        E 22 b9 04 22
        E 27 99 29 6a
        E 2 b9 04 32
        E 12 b9 04 43
        E 21 b9 04 32
        E 13 b9 04 20
        E 108 b9 04 0f
        E 15 89 24 40
        E 72 89 29 40
        E 71 b9 04 06
        E 94 b9 04 18
        E 46 b9 04 29
        E 38 99 29 37
        E 18 b9 04 3a
        E 81 b9 04 29
        E 44 b9 04 18
        E 49 b9 04 06
        E 23 b9 04 00
        E 30 89 29 40
        E 284 b9 04 12
        E 26 99 29 59
        E 3 99 24 48
        E 5 b9 04 22
        E 15 b9 04 32
        E 9 b9 04 43
        E 6 b9 04 4c
        E 2 99 2c 1a
        E 76 b9 04 32
        E 35 b9 04 22
        E 43 b9 04 12
        E 48 89 29 40
        E 3 89 24 40
        E 39 89 2c 40
        E 2 b9 04 00
        E 167 b9 04 12
        E 39 b9 04 22
        E 29 b9 04 32
        E 11 99 26 7f
        E 37 99 29 7f
        E 77 b9 04 22
        E 41 b9 04 12
        E 44 b9 04 00
        E 46 89 26 40
        E 36 89 29 40
        E 205 b9 04 12
        E 24 99 24 43
        E 10 b9 04 25
        E 12 b9 04 36
        E 7 b9 04 47
        E 2 b9 04 4c
        E 3 99 2c 1e
        E 34 99 29 3f
        E 73 b9 04 36
        E 35 b9 04 25
        E 39 b9 04 15
        E 29 89 24 40
        E 34 89 2c 40
        E 5 b9 04 03
        E 29 89 29 40
        E 124 b9 04 15
        E 36 b9 04 27
        E 33 b9 04 38
        E 37 99 24 46
        E 57 99 29 3d
        E 41 b9 04 27
        E 46 b9 04 15
        E 46 b9 04 03
        E 9 b9 04 00
        E 44 89 24 40
        E 58 89 29 40
        E 245 b9 04 12
        E 16 b9 04 25
        E 3 99 26 7c
        E 29 b9 04 36
        E 10 b9 04 46
        E 2 99 29 6a
        E 3 b9 04 4d
        E 2 99 2c 20
        E 3 b9 04 57
        E 55 b9 04 47
        E 33 b9 04 36
        E 32 b9 04 25
        E 32 b9 04 15
        E 41 89 26 40
        E 9 b9 04 03
        E 20 b9 04 00
        E 12 89 29 40
        E 2 89 2c 40
        E 174 b9 04 12
        E 31 b9 04 22
        E 17 b9 04 32
        E 27 b9 04 43
        E 28 b9 04 4c
        E 3 99 2c 0a
        E 7 99 29 3f
        E 95 b9 04 32
        E 24 b9 04 22
        E 41 b9 04 12
        E 46 b9 04 00
        E 31 89 2c 40
        E 5 89 29 40
        E 254 b9 04 12
        E 22 99 24 56
        E 2 b9 04 25
        E 12 b9 04 36
        E 13 b9 04 46
        E 2 b9 04 4c
        E 2 99 2c 1a
        E 5 b9 04 56
        E 70 b9 04 46
        E 37 b9 04 36
        E 35 b9 04 22
        E 51 b9 04 12
        E 15 89 24 40
        E 28 89 2c 40
        E 230 b9 04 22
        E 22 b9 04 32
        E 2 99 26 46
        E 29 b9 04 43
        E 19 89 26 40
        E 3 99 26 6c
        E 21 b9 04 4d
        E 5 99 2c 08
        E 143 b9 04 32
        E 75 89 26 40
        E 2 b9 04 22
        E 24 89 2c 40
        E 250 b9 04 32
        E 2 99 26 5e
        E 36 b9 04 43
        E 176 b9 04 32
        E 31 89 26 40
        E 231 99 24 53
        E 50 b9 04 3a
        E 188 b9 04 2e
        E 5 89 24 40
        E 307 b9 04 3e
        E 162 b9 04 44
        E 481 99 24 50
        E 222 b9 04 3a
        E 21 89 24 40
        E 284 b9 04 2e
        E 11 99 26 7f
        E 92 89 26 40
        E 3 99 26 7f
        E 46 b9 04 36
        E 101 b9 04 25
        E 92 89 26 40
        E 227 b9 04 32
        E 522 b9 04 3e
        E 29 99 24 53
        E 186 b9 04 36
        E 55 89 24 40
        E 288 99 26 74
        E 242 89 26 40
        E 79 b9 04 32
        E 179 99 26 57
        E 107 89 26 40
        E 2 99 26 6e
        E 159 b9 04 38
        E 80 89 26 40
        E 239 99 24 57
        E 242 89 24 40
        E 109 b9 04 30
        E 702 b9 04 3a
        E 66 99 24 4b
        E 231 b9 04 32
        E 13 89 24 40
        E 311 99 26 7f
        E 97 99 28 60
        E 145 89 26 40
        E 5 b9 04 22
        E 92 89 28 40
        E 191 b9 04 32
        E 113 b9 04 43
        E 227 b9 04 34
        E 109 b9 04 22
        E 159 99 24 53
        E 34 b9 04 1d
        E 44 b9 04 2e
        E 89 b9 04 1d
        E 77 89 24 40
        E 208 99 26 64
        E 145 b9 04 29
        E 97 89 26 40
        E 275 99 26 6f
        E 94 89 26 40
        E 3 99 26 75
        E 80 b9 04 34
        E 159 89 26 40
        E 49 b9 04 2c
        E 202 99 24 57
        E 244 89 24 40
        E 126 b9 04 27
        E 560 b9 04 36
        E 141 99 24 50
        E 79 b9 04 25
        E 78 b9 04 15
        E 84 89 24 40
        E 3 b9 04 03
        E 21 b9 04 00
        E 269 b9 04 12
        E 2 99 26 7f
        E 29 b9 04 22
        E 63 b9 04 12
        E 27 89 26 40
        E 2 99 26 7f
        E 128 b9 04 06
        E 114 89 26 40
        E 48 b9 04 18
        E 67 b9 04 29
        E 135 b9 04 2e
        E 54 b9 04 1d
        E 51 b9 04 0c
        E 31 b9 04 00
        E 302 b9 04 12
        E 19 b9 04 25
        E 12 b9 04 36
        E 17 99 24 4d
        E 10 b9 04 46
        E 43 b9 04 36
        E 70 b9 04 25
        E 66 b9 04 15
        E 53 89 24 40
        E 152 b9 04 25
        E 67 b9 04 36
        E 83 99 26 75
        E 55 b9 04 3c
        E 87 b9 04 2c
        E 99 89 26 40
        E 32 b9 04 1a
        E 232 99 26 64
        E 16 b9 04 2c
        E 66 89 26 40
        E 2 99 26 68
        E 32 b9 04 1a
        E 178 b9 04 0f
        E 32 89 26 40
        E 253 b9 04 1a
        E 25 99 24 55
        E 241 89 24 40
        E 270 b9 04 27
        E 436 b9 04 34
        E 103 99 24 57
        E 47 b9 04 3a
        E 151 b9 04 29
        E 44 89 24 40
        E 131 b9 04 1d
        E 111 99 26 7f
        E 106 b9 04 2e
        E 2 89 26 40
        E 3 99 26 7f
        E 104 b9 04 1d
        E 138 89 26 40
        E 142 b9 04 2e
        E 121 b9 04 3e
        E 179 b9 04 2e
        E 135 b9 04 1d
        E 198 99 24 65
        E 7 b9 04 2e
        E 39 b9 04 1d
        E 196 89 24 40
        E 275 99 26 7f
        E 225 89 26 40
        E 2 99 26 52
        E 239 89 26 40
        E 10 99 26 56
        E 82 b9 04 2e
        E 160 89 26 40
        E 16 99 26 5e
        E 13 b9 04 34
        E 181 b9 04 22
        E 48 89 26 40
        E 27 b9 04 12
        E 29 99 24 68
        E 26 b9 04 03
        E 3 99 2e 7f
        E 29 b9 04 00
        E 186 89 24 40
        E 29 89 2e 40
        E 79 b9 04 12
        E 34 b9 04 22
        E 25 b9 04 32
        E 48 b9 04 43
        E 147 b9 04 47
        E 159 b9 04 3e
        E 210 b9 04 4c
        E 3 99 2c 06
        E 29 b9 04 4c
        E 97 99 24 59
        E 92 b9 04 3c
        E 23 89 2c 40
        E 126 89 24 40
        E 12 b9 04 34
        E 239 b9 04 2c
        E 61 99 26 73
        E 15 b9 04 2c
        E 2 99 2e 7f
        E 172 b9 04 20
        E 52 89 26 40
        E 20 89 2e 40
        E 99 b9 04 30
        E 176 b9 04 3a
        E 365 b9 04 32
        E 124 b9 04 22
        E 74 99 24 6e
        E 8 b9 04 12
        E 174 b9 04 06
        E 60 89 24 40
        E 162 b9 04 18
        E 139 99 26 76
        E 30 b9 04 27
        E 181 89 26 40
        E 3 99 26 53
        E 224 b9 04 36
        E 15 89 26 40
        E 21 99 26 4c
        E 187 b9 04 3a
        E 58 89 26 40
        E 9 99 26 42
        E 113 b9 04 49
        E 131 89 26 40
        E 20 b9 04 38
        E 17 99 24 7c
        E 2 b9 04 34
        E 2 99 2e 7f
        E 39 b9 04 27
        E 58 b9 04 15
        E 82 b9 04 03
        E 61 89 24 40
        E 4 89 2e 40
        E 87 b9 04 15
        E 54 b9 04 25
        E 52 b9 04 36
        E 143 b9 04 3c
        E 167 b9 04 36
        E 213 b9 04 43
        E 144 99 24 62
        E 192 b9 04 36
        E 50 89 24 40
        E 268 99 26 7f
        E 119 b9 04 43
        E 5 89 26 40
        E 2 99 26 7d
        E 146 b9 04 36
        E 93 89 26 40
        E 191 b9 04 46
        E 265 b9 04 3a
        E 230 b9 04 29
        E 70 b9 04 18
        E 22 99 24 68
        E 28 b9 04 06
        E 5 b9 04 06
        E 2 99 2e 7f
        E 52 b9 04 00
        E 155 89 24 40
        E 38 89 2e 40
        E 191 b9 04 12
        E 58 b9 04 22
        E 41 99 26 33
        E 17 b9 04 32
        E 135 b9 04 38
        E 53 89 26 40
        E 3 99 26 48
        E 244 89 26 40
        E 21 99 26 40
        E 97 b9 04 43
        E 145 89 26 40
        E 10 99 26 4c
        E 24 b9 04 3a
        E 140 b9 04 29
        E 56 b9 04 18
        E 24 89 26 40
        E 17 b9 04 06
        E 9 99 24 7f
        E 20 b9 04 00
        E 16 b9 04 00
        E 2 99 2e 7f
        E 207 89 24 40
        E 35 89 2e 40
        E 806 99 24 53
        E 242 89 24 40
        E 272 99 26 7f
        E 4 b9 04 12
        E 95 89 26 40
        E 2 99 26 7f
        E 34 b9 04 22
        E 147 b9 04 27
        E 61 89 26 40
        E 560 b9 04 18
        E 90 b9 04 06
        E 75 b9 04 00
        E 14 99 24 69
        E 17 b9 04 00
        E 2 99 2e 7f
        E 225 89 24 40
        E 20 89 2e 40
        E 263 b9 04 12
        E 41 99 26 44
        E 72 b9 04 22
        E 141 b9 04 29
        E 14 89 26 40
        E 2 99 26 50
        E 242 89 26 40
        E 5 99 26 64
        E 10 b9 04 36
        E 232 89 26 40
        E 12 99 26 50
        E 113 b9 04 25
        E 53 b9 04 15
        E 73 b9 04 03
        E 5 89 26 40
        E 19 b9 04 00
        E 34 99 24 7b
        E 12 b9 04 00
        E 2 99 2e 7f
        E 230 89 24 40
        E 14 89 2e 40
        E 781 99 24 59
        E 241 89 24 40
        E 227 b9 04 12
        E 20 99 26 7f
        E 80 89 26 40
        E 2 99 26 7f
        E 55 b9 04 20
        E 186 89 26 40
        E 506 b9 04 0f
        E 142 b9 04 00
        E 104 99 24 67
        E 84 b9 04 00
        E 2 99 2e 7f
        E 156 89 24 40
        E 86 89 2e 40
        E 242 b9 04 12
        E 15 99 26 46
        E 105 b9 04 22
        E 119 89 26 40
        E 3 99 26 4b
        E 31 b9 04 27
        E 210 89 26 40
        E 2 99 26 5d
        E 116 b9 04 2e
        E 129 89 26 40
        E 9 99 26 52
        E 114 b9 04 1d
        E 94 b9 04 0c
        E 34 89 26 40
        E 36 b9 04 00
        E 29 99 24 7f
        E 7 b9 04 00
        E 3 99 2e 7f
        E 234 89 24 40
        E 10 89 2e 40
        E 807 99 24 56
        E 243 89 24 40
        E 257 99 26 7f
        E 12 b9 04 12
        E 77 89 26 40
        E 3 99 26 7f
        E 71 b9 04 20
        E 171 89 26 40
        E 407 b9 04 0f
        E 175 b9 04 03
        E 161 99 24 62
        E 3 b9 04 00
        E 34 b9 04 03
        E 1 99 2e 7f
        E 206 89 24 40
        E 39 89 2e 40
        E 309 99 26 50
        E 128 b9 04 12
        E 109 89 26 40
        E 3 99 26 5d
        E 63 b9 04 1d
        E 177 89 26 40
        E 30 99 28 44
        E 242 89 28 40
        E 303 99 30 43
        E 242 89 30 40
        E 30 99 30 52
        E 222 89 30 40
        E 2 99 30 3e
        E 68 99 26 0a
        E 174 89 30 40
        E 4 b9 04 18
        E 61 89 26 40
        E 331 99 2d 73
        E 118 b9 04 12
        E 120 89 2d 40
        E 1 99 2d 7f
        E 230 89 2d 40
        E 2 99 2d 7a
        E 242 89 2d 40
        E 260 b9 04 1d
        E 32 99 29 7f
        E 186 b9 04 25
        E 44 89 29 40
        E 2 99 29 45
        E 138 b9 04 1d
        E 104 89 29 40
        E 46 99 24 7a
        E 244 89 24 40
        E 338 99 24 62
        E 181 b9 04 29
        E 63 89 24 40
        E 116 b9 04 3a
        E 162 99 24 66
        E 55 b9 04 29
        E 162 b9 04 1d
        E 27 89 24 40
        E 302 99 26 7f
        E 91 89 26 40
        E 3 99 26 7f
        E 2 b9 04 25
        E 138 b9 04 20
        E 104 89 26 40
        E 116 b9 04 29
        E 476 b9 04 32
        E 152 99 24 6a
        E 244 89 24 40
        E 36 b9 04 2c
        E 224 99 26 7f
        E 121 89 26 40
        E 3 99 26 7f
        E 242 89 26 40
        E 239 b9 04 32
        E 295 b9 04 29
        E 193 99 24 68
        E 242 89 24 40
        E 288 99 24 60
        E 243 89 24 40
        E 114 b9 04 32
        E 169 99 24 61
        E 169 b9 04 29
        E 72 89 24 40
        E 305 99 26 7f
        E 36 b9 04 2e
        E 71 89 26 40
        E 1 99 26 7f
        E 240 89 26 40
        E 647 b9 04 38
        E 65 99 24 62
        E 128 b9 04 27
        E 117 89 24 40
        E 36 b9 04 20
        E 229 99 26 7a
        E 58 b9 04 30
        E 85 99 28 62
        E 101 89 26 40
        E 112 b9 04 29
        E 28 89 28 40
        E 215 b9 04 36
        E 230 b9 04 2e
        E 253 99 24 62
        E 242 89 24 40
        E 312 99 24 67
        E 63 b9 04 32
        E 178 89 24 40
        E 129 b9 04 3e
        E 140 99 24 54
        E 125 b9 04 34
        E 116 89 24 40
        E 299 99 26 7f
        E 83 b9 04 38
        E 17 89 26 40
        E 2 99 26 7f
        E 200 b9 04 32
        E 39 89 26 40
        E 325 b9 04 38
        E 466 99 24 5c
        E 207 b9 04 2e
        E 34 89 24 40
        E 223 99 26 7f
        E 91 89 26 40
        E 2 99 26 7f
        E 240 89 26 40
        E 311 b9 04 38
        E 200 b9 04 2e
        E 228 99 24 5a
        E 85 b9 04 36
        E 157 89 24 40
        E 294 99 24 67
        E 242 89 24 40
        E 143 b9 04 3e
        E 108 99 24 59
        E 152 b9 04 36
        E 90 89 24 40
        E 278 99 26 7f
        E 89 89 26 40
        E 2 99 26 7f
        E 196 b9 04 32
        E 44 89 26 40
        E 212 99 2d 7f
        E 15 99 30 71
        E 232 89 2d 40
        E 9 89 30 40
        E 235 99 2d 7f
        E 28 99 30 71
        E 216 89 2d 40
        E 29 89 30 40
        E 270 99 29 51
        E 20 99 2d 7d
        E 222 89 29 40
        E 22 89 2d 40
        E 181 b9 04 2e
        E 61 99 2d 7f
        E 21 99 29 63
        E 220 89 2d 40
        E 24 89 29 40
        E 249 99 24 78
        E 65 99 33 7e
        E 48 b9 04 1d
        E 131 89 24 40
        E 65 89 33 40
        E 261 99 33 34
        E 60 b9 04 0c
        E 47 b9 04 00
        E 137 89 33 40
        E 220 b9 04 12
        E 9 b9 04 22
        E 10 99 26 6a
        E 12 b9 04 32
        E 15 b9 04 43
        E 5 b9 04 4c
        E 2 99 2c 20
        E 3 b9 04 53
        E 4 99 33 52
        E 5 b9 04 63
        E 22 b9 04 53
        E 45 b9 04 43
        E 42 b9 04 32
        E 36 b9 04 22
        E 53 89 26 40
        E 24 b9 04 12
        E 10 89 2c 40
        E 8 89 33 40
        E 164 b9 04 22
        E 33 b9 04 32
        E 32 b9 04 43
        E 34 b9 04 4f
        E 3 99 2c 08
        E 26 b9 04 53
        E 4 99 33 26
        E 66 b9 04 43
        E 33 b9 04 32
        E 27 b9 04 22
        E 48 b9 04 12
        E 37 89 2c 40
        E 33 89 33 40
        E 2 b9 04 00
        E 223 b9 04 12
        E 17 b9 04 22
        E 5 99 24 57
        E 4 b9 04 32
        E 10 b9 04 43
        E 10 b9 04 4c
        E 3 99 2c 14
        E 4 b9 04 53
        E 13 99 33 6b
        E 125 b9 04 43
        E 31 b9 04 32
        E 29 b9 04 22
        E 15 89 24 40
        E 27 89 2c 40
        E 16 89 33 40
        E 78 b9 04 18
        E 65 b9 04 29
        E 38 b9 04 3a
        E 37 b9 04 4a
        E 15 b9 04 4f
        E 2 99 2c 08
        E 12 99 24 4c
        E 24 99 33 2b
        E 70 b9 04 3a
        E 31 b9 04 29
        E 32 b9 04 18
        E 43 b9 04 06
        E 22 b9 04 00
        E 9 89 2c 40
        E 13 89 24 40
        E 24 89 33 40
        E 266 b9 04 12
        E 7 b9 04 25
        E 10 99 26 52
        E 2 b9 04 36
        E 22 b9 04 46
        E 2 99 33 7f
        E 3 b9 04 4c
        E 2 99 2c 16
        E 4 b9 04 56
        E 8 b9 04 66
        E 53 b9 04 56
        E 29 b9 04 46
        E 32 b9 04 36
        E 26 b9 04 25
        E 36 b9 04 15
        E 24 89 26 40
        E 27 89 33 40
        E 5 89 2c 40
        E 89 b9 04 0c
        E 83 b9 04 1d
        E 21 b9 04 2e
        E 17 b9 04 3e
        E 27 b9 04 4d
        E 3 99 2c 0e
        E 4 b9 04 4f
        E 53 99 33 38
        E 56 b9 04 3f
        E 28 b9 04 2e
        E 28 b9 04 1d
        E 38 b9 04 0c
        E 24 b9 04 00
        E 10 89 2c 40
        E 58 89 33 40
        E 195 b9 04 12
        E 22 b9 04 25
        E 8 99 24 55
        E 7 b9 04 36
        E 12 b9 04 46
        E 0 b9 04 4c
        E 2 99 2c 22
        E 2 b9 04 56
        E 17 99 33 7f
        E 99 b9 04 46
        E 30 b9 04 36
        E 29 b9 04 25
        E 31 b9 04 15
        E 14 89 24 40
        E 20 89 2c 40
        E 19 89 33 40
        E 155 b9 04 25
        E 22 b9 04 36
        E 24 b9 04 46
        E 19 b9 04 4d
        E 3 99 2c 0a
        E 48 99 33 37
        E 68 b9 04 36
        E 31 b9 04 25
        E 29 b9 04 15
        E 34 b9 04 03
        E 14 b9 04 00
        E 17 89 2c 40
        E 48 89 33 40
        E 215 99 26 7c
        E 17 b9 04 12
        E 12 b9 04 22
        E 15 b9 04 32
        E 5 99 33 4a
        E 10 b9 04 43
        E 4 b9 04 4c
        E 2 99 2c 1c
        E 3 b9 04 53
        E 12 b9 04 63
        E 56 b9 04 53
        E 34 b9 04 43
        E 31 b9 04 32
        E 22 b9 04 22
        E 22 89 26 40
        E 17 b9 04 12
        E 31 89 33 40
        E 17 89 2c 40
        E 169 b9 04 22
        E 19 b9 04 32
        E 29 b9 04 43
        E 24 99 33 28
        E 99 b9 04 32
        E 25 b9 04 22
        E 30 b9 04 12
        E 42 b9 04 00
        E 46 89 33 40
        E 227 b9 04 12
        E 12 99 24 41
        E 7 b9 04 22
        E 15 b9 04 32
        E 7 b9 04 43
        E 2 99 33 51
        E 3 b9 04 4c
        E 4 99 2c 20
        E 3 b9 04 53
        E 12 b9 04 63
        E 89 b9 04 53
        E 32 b9 04 43
        E 24 b9 04 32
        E 22 b9 04 22
        E 24 89 24 40
        E 8 b9 04 12
        E 21 89 33 40
        E 9 89 2c 40
        E 112 b9 04 0c
        E 56 b9 04 1d
        E 23 b9 04 2e
        E 20 b9 04 3e
        E 26 b9 04 4d
        E 3 99 2c 0e
        E 2 b9 04 4f
        E 27 99 33 38
        E 3 99 24 4d
        E 96 b9 04 3f
        E 26 b9 04 2e
        E 25 b9 04 1d
        E 41 b9 04 0c
        E 24 89 2c 40
        E 2 b9 04 00
        E 27 89 33 40
        E 2 89 24 40
        E 264 99 26 70
        E 7 b9 04 12
        E 15 b9 04 25
        E 14 b9 04 36
        E 7 99 33 55
        E 5 b9 04 46
        E 2 b9 04 4c
        E 3 99 2c 1e
        E 2 b9 04 57
        E 12 b9 04 68
        E 19 b9 04 58
        E 44 b9 04 47
        E 42 b9 04 36
        E 38 b9 04 25
        E 34 89 26 40
        E 13 b9 04 15
        E 30 89 33 40
        E 10 89 2c 40
        E 174 b9 04 25
        E 22 b9 04 36
        E 21 b9 04 46
        E 22 b9 04 4d
        E 3 99 2c 0a
        E 45 99 33 2f
        E 73 b9 04 36
        E 27 b9 04 25
        E 28 b9 04 15
        E 37 b9 04 03
        E 12 b9 04 00
        E 21 89 2c 40
        E 41 89 33 40
        E 201 b9 04 12
        E 22 b9 04 22
        E 5 99 24 4b
        E 5 b9 04 32
        E 9 b9 04 44
        E 3 b9 04 4c
        E 2 99 2c 24
        E 2 b9 04 54
        E 27 99 33 76
        E 97 b9 04 44
        E 29 b9 04 34
        E 29 b9 04 22
        E 38 89 24 40
        E 14 b9 04 12
        E 5 89 2c 40
        E 31 89 33 40
        E 146 b9 04 22
        E 22 b9 04 32
        E 26 b9 04 43
        E 25 b9 04 4d
        E 2 99 2c 0a
        E 39 99 33 3b
        E 84 b9 04 32
        E 19 b9 04 22
        E 37 b9 04 12
        E 41 b9 04 00
        E 24 89 2c 40
        E 38 89 33 40
        E 232 b9 04 12
        E 15 b9 04 22
        E 3 99 26 72
        E 11 b9 04 32
        E 15 b9 04 43
        E 5 b9 04 4c
        E 2 99 2c 1c
        E 2 b9 04 53
        E 7 b9 04 63
        E 5 99 33 7f
        E 83 b9 04 53
        E 31 b9 04 43
        E 20 b9 04 32
        E 19 b9 04 22
        E 36 b9 04 12
        E 8 89 26 40
        E 33 89 2c 40
        E 15 89 33 40
        E 84 b9 04 06
        E 53 b9 04 18
        E 31 b9 04 29
        E 18 b9 04 3a
        E 31 b9 04 4a
        E 7 b9 04 4d
        E 3 99 2c 0a
        E 43 99 33 48
        E 73 b9 04 3a
        E 29 b9 04 29
        E 32 b9 04 18
        E 35 b9 04 06
        E 15 b9 04 00
        E 16 89 2c 40
        E 44 89 33 40
        E 208 b9 04 12
        E 17 b9 04 25
        E 7 99 24 46
        E 3 b9 04 36
        E 12 b9 04 47
        E 2 b9 04 4c
        E 3 99 2c 1a
        E 9 b9 04 57
        E 17 99 33 6d
        E 56 b9 04 47
        E 48 b9 04 36
        E 41 b9 04 25
        E 51 89 24 40
        E 2 b9 04 15
        E 17 89 2c 40
        E 29 89 33 40
        E 126 b9 04 25
        E 21 b9 04 36
        E 22 b9 04 46
        E 14 b9 04 4f
        E 3 99 2c 0e
        E 22 b9 04 56
        E 26 99 24 43
        E 22 99 33 41
        E 51 b9 04 46
        E 31 b9 04 36
        E 24 b9 04 25
        E 32 b9 04 15
        E 33 89 2c 40
        E 10 b9 04 03
        E 12 b9 04 00
        E 27 89 24 40
        E 24 89 33 40
        E 249 99 26 70
        E 2 b9 04 12
        E 17 b9 04 22
        E 17 b9 04 32
        E 10 99 33 56
        E 2 b9 04 43
        E 5 b9 04 4c
        E 2 99 2c 1e
        E 3 b9 04 54
        E 12 b9 04 64
        E 37 b9 04 54
        E 33 b9 04 44
        E 39 b9 04 34
        E 26 b9 04 22
        E 37 b9 04 12
        E 2 89 26 40
        E 46 89 33 40
        E 5 89 2c 40
        E 94 b9 04 09
        E 56 b9 04 1a
        E 31 b9 04 2c
        E 22 b9 04 3c
        E 55 99 33 46
        E 102 b9 04 2c
        E 33 b9 04 1a
        E 34 b9 04 09
        E 22 b9 04 00
        E 53 89 33 40
        E 210 b9 04 12
        E 22 b9 04 22
        E 10 b9 04 32
        E 7 99 24 4e
        E 5 b9 04 43
        E 3 b9 04 4d
        E 2 99 2c 22
        E 2 b9 04 53
        E 22 99 33 6b
        E 104 b9 04 43
        E 24 b9 04 32
        E 22 b9 04 22
        E 38 b9 04 12
        E 22 89 24 40
        E 8 89 2c 40
        E 24 89 33 40
        E 132 b9 04 22
        E 20 b9 04 32
        E 22 b9 04 43
        E 17 b9 04 4d
        E 2 99 2c 0c
        E 15 b9 04 53
        E 77 99 33 2b
        E 34 b9 04 43
        E 29 b9 04 32
        E 21 b9 04 22
        E 36 b9 04 12
        E 30 89 2c 40
        E 26 b9 04 00
        E 68 89 33 40
        E 217 99 28 29
        E 17 b9 04 12
        E 15 99 33 70
        E 5 b9 04 25
        E 13 b9 04 36
        E 8 b9 04 46
        E 2 b9 04 4d
        E 3 99 2c 24
        E 5 b9 04 56
        E 9 b9 04 66
        E 32 b9 04 56
        E 39 b9 04 46
        E 38 b9 04 36
        E 31 b9 04 25
        E 27 89 28 40
        E 17 b9 04 15
        E 12 89 33 40
        E 34 89 2c 40
        E 143 b9 04 25
        E 26 b9 04 36
        E 27 b9 04 46
        E 12 b9 04 4d
        E 2 99 2c 0a
        E 24 99 33 39
        E 112 b9 04 36
        E 28 b9 04 25
        E 30 b9 04 15
        E 34 b9 04 03
        E 14 b9 04 00
        E 2 89 2c 40
        E 23 89 33 40
        E 233 b9 04 12
        E 7 99 24 4c
        E 10 b9 04 25
        E 9 b9 04 36
        E 8 b9 04 46
        E 0 b9 04 4c
        E 2 99 2c 22
        E 7 b9 04 56
        E 5 99 33 64
        E 25 b9 04 66
        E 86 b9 04 56
        E 27 b9 04 46
        E 27 b9 04 36
        E 29 b9 04 25
        E 9 89 24 40
        E 30 89 2c 40
        E 2 b9 04 15
        E 10 89 33 40
        E 166 b9 04 25
        E 21 b9 04 36
        E 25 b9 04 46
        E 12 b9 04 4d
        E 3 99 2c 0c
        E 24 99 24 47
        E 2 b9 04 56
        E 17 99 33 3d
        E 92 b9 04 46
        E 29 b9 04 36
        E 29 b9 04 25
        E 34 b9 04 15
        E 14 89 2c 40
        E 27 89 24 40
        E 3 b9 04 03
        E 13 b9 04 00
        E 3 89 33 40
        E 268 b9 04 12
        E 22 b9 04 22
        E 3 99 26 70
        E 7 b9 04 32
        E 7 b9 04 44
        E 5 b9 04 4c
        E 2 99 2c 20
        E 3 b9 04 54
        E 9 99 33 72
        E 5 b9 04 64
        E 76 b9 04 54
        E 31 b9 04 44
        E 22 b9 04 34
        E 24 b9 04 22
        E 41 b9 04 12
        E 11 89 26 40
        E 20 89 2c 40
        E 14 89 33 40
        E 107 b9 04 0c
        E 60 b9 04 1d
        E 22 b9 04 2e
        E 17 b9 04 3e
        E 26 b9 04 4d
        E 3 99 2c 0e
        E 4 b9 04 4f
        E 51 99 33 26
        E 63 b9 04 3f
        E 27 b9 04 2e
        E 24 b9 04 1d
        E 38 b9 04 0c
        E 29 b9 04 00
        E 5 89 2c 40
        E 56 89 33 40
        E 201 b9 04 12
        E 19 b9 04 22
        E 2 99 24 4b
        E 10 b9 04 32
        E 9 b9 04 44
        E 5 b9 04 4c
        E 3 99 2c 1e
        E 2 b9 04 54
        E 8 99 33 5e
        E 29 b9 04 64
        E 58 b9 04 54
        E 36 b9 04 44
        E 24 b9 04 34
        E 27 b9 04 22
        E 33 89 24 40
        E 3 b9 04 12
        E 24 89 2c 40
        E 9 89 33 40
        E 170 b9 04 22
        E 18 b9 04 32
        E 23 b9 04 43
        E 24 b9 04 4d
        E 2 99 2c 0a
        E 26 b9 04 53
        E 13 99 33 20
        E 67 b9 04 43
        E 34 b9 04 32
        E 25 b9 04 22
        E 41 b9 04 12
        E 38 89 2c 40
        E 10 b9 04 00
        E 26 89 33 40
        E 261 b9 04 12
        E 20 b9 04 25
        E 9 b9 04 36
        E 2 99 28 65
        E 8 b9 04 46
        E 2 b9 04 4c
        E 3 99 2c 1e
        E 5 99 33 51
        E 2 b9 04 56
        E 109 b9 04 46
        E 24 b9 04 36
        E 29 b9 04 25
        E 36 b9 04 15
        E 27 89 28 40
        E 10 89 2c 40
        E 9 89 33 40
        E 102 b9 04 0c
        E 58 b9 04 1d
        E 28 b9 04 2e
        E 18 b9 04 3e
        E 28 b9 04 4d
        E 2 99 2c 0c
        E 6 b9 04 4f
        E 44 99 33 1f
        E 67 b9 04 3f
        E 34 b9 04 2e
        E 26 b9 04 1d
        E 39 b9 04 0c
        E 21 b9 04 00
        E 7 89 2c 40
        E 49 89 33 40
        E 201 b9 04 12
        E 16 b9 04 25
        E 10 99 24 45
        E 3 b9 04 36
        E 7 b9 04 46
        E 5 b9 04 4c
        E 2 99 2c 1a
        E 8 b9 04 56
        E 50 99 33 54
        E 83 b9 04 46
        E 26 b9 04 36
        E 27 b9 04 25
        E 31 b9 04 15
        E 3 89 24 40
        E 14 89 2c 40
        E 60 89 33 40
        E 63 b9 04 0f
        E 51 b9 04 20
        E 22 b9 04 30
        E 21 b9 04 41
        E 17 b9 04 4d
        E 2 99 2c 0c
        E 10 b9 04 51
        E 50 99 24 4a
        E 45 99 33 2b
        E 31 b9 04 41
        E 31 b9 04 30
        E 22 b9 04 20
        E 41 b9 04 0f
        E 15 89 2c 40
        E 21 b9 04 00
        E 37 89 24 40
        E 43 89 33 40
        E 230 b9 04 12
        E 16 99 26 7f
        E 5 b9 04 25
        E 10 b9 04 36
        E 10 b9 04 47
        E 4 b9 04 4d
        E 2 99 2c 22
        E 2 b9 04 57
        E 23 99 33 3e
        E 7 b9 04 67
        E 42 b9 04 57
        E 33 b9 04 47
        E 27 b9 04 36
        E 29 b9 04 25
        E 31 b9 04 15
        E 17 89 26 40
        E 31 89 2c 40
        E 25 89 33 40
        E 70 b9 04 06
        E 73 b9 04 18
        E 28 b9 04 29
        E 20 b9 04 3a
        E 26 b9 04 4a
        E 10 b9 04 4d
        E 3 99 2c 0c
        E 19 99 33 17
        E 89 b9 04 3a
        E 32 b9 04 29
        E 26 b9 04 18
        E 28 b9 04 06
        E 23 b9 04 00
        E 26 89 2c 40
        E 18 89 33 40
        E 228 b9 04 12
        E 18 b9 04 22
        E 19 b9 04 32
        E 7 b9 04 43
        E 5 b9 04 4c
        E 2 99 2c 1c
        E 3 99 24 4b
        E 2 b9 04 53
        E 12 b9 04 63
        E 15 99 33 4a
        E 84 b9 04 53
        E 27 b9 04 43
        E 22 b9 04 32
        E 19 b9 04 22
        E 31 b9 04 12
        E 30 89 2c 40
        E 2 89 24 40
        E 29 89 33 40
        E 80 b9 04 06
        E 57 b9 04 18
        E 27 b9 04 29
        E 19 b9 04 3a
        E 30 b9 04 4a
        E 7 b9 04 4d
        E 2 99 2c 0c
        E 24 99 33 28
        E 91 b9 04 3a
        E 30 b9 04 29
        E 32 b9 04 18
        E 34 b9 04 06
        E 21 b9 04 00
        E 8 89 2c 40
        E 26 89 33 40
        E 261 99 26 7f
        E 2 b9 04 12
        E 19 b9 04 25
        E 14 b9 04 36
        E 11 b9 04 46
        E 2 b9 04 4d
        E 3 99 2c 1e
        E 2 b9 04 56
        E 10 99 33 3d
        E 15 b9 04 66
        E 52 b9 04 56
        E 36 b9 04 46
        E 25 b9 04 36
        E 29 b9 04 25
        E 24 89 26 40
        E 5 b9 04 15
        E 46 89 2c 40
        E 12 89 33 40
        E 80 b9 04 06
        E 74 b9 04 18
        E 27 b9 04 29
        E 20 b9 04 3a
        E 31 b9 04 4a
        E 9 b9 04 4d
        E 3 99 2c 0a
        E 12 99 33 1a
        E 92 b9 04 3a
        E 26 b9 04 29
        E 29 b9 04 18
        E 32 b9 04 06
        E 16 b9 04 00
        E 35 89 2c 40
        E 13 89 33 40
        E 221 b9 04 12
        E 19 b9 04 22
        E 12 b9 04 32
        E 2 99 24 4e
        E 12 b9 04 43
        E 6 b9 04 4d
        E 0 99 2c 1a
        E 2 b9 04 53
        E 14 b9 04 63
        E 25 99 33 44
        E 81 b9 04 53
        E 27 b9 04 43
        E 24 b9 04 32
        E 17 b9 04 22
        E 34 b9 04 12
        E 2 89 24 40
        E 17 89 2c 40
        E 39 89 33 40
        E 82 b9 04 0c
        E 43 b9 04 1d
        E 22 b9 04 2e
        E 20 b9 04 3e
        E 20 b9 04 4d
        E 2 99 2c 0e
        E 2 b9 04 4f
        E 48 99 24 48
        E 19 99 33 35
        E 75 b9 04 3f
        E 27 b9 04 2e
        E 28 b9 04 1d
        E 42 b9 04 0c
        E 2 89 2c 40
        E 17 b9 04 00
        E 32 89 24 40
        E 21 89 33 40
        E 250 99 26 7f
        E 4 b9 04 12
        E 12 b9 04 25
        E 12 b9 04 36
        E 15 b9 04 46
        E 2 b9 04 4c
        E 3 99 2c 16
        E 5 b9 04 56
        E 11 99 33 5b
        E 3 b9 04 67
        E 94 b9 04 57
        E 27 b9 04 47
        E 19 b9 04 36
        E 16 b9 04 22
        E 20 89 26 40
        E 15 b9 04 12
        E 33 89 2c 40
        E 18 89 33 40
        E 31 b9 04 00
        E 123 b9 04 12
        E 27 b9 04 22
        E 12 b9 04 32
        E 19 b9 04 43
        E 20 b9 04 4c
        E 2 99 2c 0c
        E 14 b9 04 53
        E 3 99 33 2f
        E 92 b9 04 43
        E 26 b9 04 32
        E 20 b9 04 22
        E 31 b9 04 12
        E 36 b9 04 00
        E 19 89 2c 40
        E 20 89 33 40
        E 229 b9 04 12
        E 15 b9 04 25
        E 2 99 24 4e
        E 17 b9 04 36
        E 15 b9 04 46
        E 2 b9 04 4c
        E 0 99 2c 1e
        E 5 b9 04 56
        E 10 99 33 4d
        E 89 b9 04 46
        E 29 b9 04 36
        E 26 b9 04 25
        E 30 b9 04 15
        E 22 89 24 40
        E 31 89 2c 40
        E 17 89 33 40
        E 75 b9 04 0f
        E 62 b9 04 20
        E 24 b9 04 30
        E 34 b9 04 41
        E 15 99 33 19
        E 104 b9 04 30
        E 24 b9 04 20
        E 46 b9 04 0f
        E 36 b9 04 00
        E 34 89 33 40
        E 292 b9 04 12
        E 20 99 28 59
        E 2 b9 04 22
        E 10 b9 04 32
        E 11 99 33 67
        E 3 b9 04 43
        E 3 b9 04 4c
        E 2 99 2c 1c
        E 0 b9 04 53
        E 12 b9 04 63
        E 94 b9 04 53
        E 27 b9 04 43
        E 22 b9 04 32
        E 19 b9 04 22
        E 39 89 28 40
        E 2 b9 04 12
        E 19 89 33 40
        E 5 89 2c 40
        E 121 b9 04 0c
        E 55 b9 04 1d
        E 24 b9 04 2e
        E 22 b9 04 3e
        E 24 b9 04 4d
        E 3 99 2c 0c
        E 5 b9 04 4f
        E 30 99 33 28
        E 91 b9 04 3f
        E 26 b9 04 2e
        E 22 b9 04 1d
        E 36 b9 04 0c
        E 24 b9 04 00
        E 10 89 2c 40
        E 36 89 33 40
        E 214 b9 04 12
        E 23 99 24 47
        E 2 b9 04 25
        E 15 b9 04 36
        E 7 b9 04 46
        E 2 b9 04 4c
        E 2 99 2c 20
        E 3 b9 04 56
        E 47 99 33 66
        E 79 b9 04 46
        E 22 b9 04 36
        E 26 b9 04 25
        E 29 b9 04 15
        E 10 89 24 40
        E 29 89 2c 40
        E 48 89 33 40
        E 51 b9 04 0c
        E 56 b9 04 1d
        E 26 b9 04 2e
        E 19 b9 04 3e
        E 27 b9 04 4d
        E 3 99 2c 0c
        E 4 b9 04 4f
        E 20 99 24 45
        E 45 99 33 26
        E 49 b9 04 3f
        E 33 b9 04 2e
        E 28 b9 04 1d
        E 30 b9 04 0c
        E 25 b9 04 00
        E 9 89 2c 40
        E 22 89 24 40
        E 49 89 33 40
        E 232 b9 04 12
        E 12 b9 04 25
        E 14 b9 04 36
        E 15 99 28 59
        E 3 b9 04 46
        E 1 b9 04 4c
        E 3 99 2c 16
        E 4 b9 04 56
        E 13 b9 04 66
        E 16 99 33 5b
        E 76 b9 04 56
        E 26 b9 04 46
        E 22 b9 04 36
        E 22 b9 04 25
        E 26 b9 04 15
        E 32 89 28 40
        E 4 89 2c 40
        E 30 b9 04 03
        E 6 89 33 40
        E 140 b9 04 15
        E 25 b9 04 25
        E 17 b9 04 36
        E 24 b9 04 46
        E 17 b9 04 4d
        E 2 99 2c 0a
        E 20 99 33 1f
        E 102 b9 04 36
        E 24 b9 04 22
        E 29 b9 04 12
        E 37 b9 04 00
        E 30 89 2c 40
        E 22 89 33 40
        E 225 b9 04 12
        E 9 99 24 50
        E 7 b9 04 25
        E 19 b9 04 36
        E 5 99 33 2f
        E 5 b9 04 46
        E 3 b9 04 4d
        E 4 99 2c 1c
        E 2 b9 04 56
        E 90 b9 04 46
        E 30 b9 04 36
        E 26 b9 04 25
        E 36 b9 04 15
        E 15 89 24 40
        E 31 89 33 40
        E 14 89 2c 40
        E 123 b9 04 25
        E 39 b9 04 36
        E 92 99 28 52
        E 54 b9 04 25
        E 34 b9 04 15
        E 38 b9 04 03
        E 14 b9 04 00
        E 90 99 26 7f
        E 12 89 28 40
        E 152 b9 04 12
        E 17 b9 04 22
        E 9 b9 04 32
        E 12 b9 04 43
        E 8 b9 04 4c
        E 3 99 2c 14
        E 6 b9 04 53
        E 17 89 26 40
        E 3 99 26 73
        E 87 b9 04 43
        E 29 b9 04 32
        E 21 b9 04 22
        E 36 b9 04 12
        E 44 89 2c 40
        E 28 89 26 40
        E 83 b9 04 0c
        E 46 b9 04 1d
        E 37 b9 04 2e
        E 154 b9 04 1d
        E 7 99 30 7f
        E 37 b9 04 0c
        E 29 b9 04 00
        E 178 89 30 40
        E 5 99 30 7f
        E 80 b9 04 12
        E 19 b9 04 25
        E 13 b9 04 36
        E 8 b9 04 46
        E 8 b9 04 4c
        E 3 99 2c 14
        E 16 b9 04 56
        E 97 89 30 40
        E 3 99 30 44
        E 7 b9 04 46
        E 24 b9 04 36
        E 32 b9 04 25
        E 34 b9 04 15
        E 31 89 2c 40
        E 111 89 30 40
        E 24 b9 04 25
        E 26 b9 04 36
        E 32 b9 04 46
        E 25 b9 04 4d
        E 2 99 2c 0a
        E 144 b9 04 36
        E 42 b9 04 25
        E 24 99 2d 66
        E 24 b9 04 15
        E 7 89 2c 40
        E 41 b9 04 03
        E 13 b9 04 00
        E 140 89 2d 40
        E 0 99 2d 7f
        E 86 b9 04 12
        E 22 b9 04 25
        E 12 b9 04 36
        E 15 b9 04 46
        E 2 b9 04 4c
        E 3 99 2c 16
        E 7 b9 04 56
        E 26 b9 04 66
        E 49 b9 04 56
        E 7 89 2d 40
        E 3 99 2d 7d
        E 21 b9 04 46
        E 29 b9 04 36
        E 27 b9 04 25
        E 38 b9 04 15
        E 34 89 2c 40
        E 93 89 2d 40
        E 69 99 2d 7f
        E 24 b9 04 25
        E 32 b9 04 36
        E 24 b9 04 46
        E 11 b9 04 4d
        E 3 99 2c 0c
        E 24 b9 04 56
        E 102 99 29 7e
        E 22 89 2d 40
        E 2 b9 04 46
        E 29 b9 04 36
        E 29 b9 04 25
        E 36 89 2c 40
        E 5 b9 04 15
        E 44 b9 04 03
        E 9 b9 04 00
        E 68 89 29 40
        E 24 99 29 63
        E 184 b9 04 12
        E 19 b9 04 25
        E 10 b9 04 36
        E 8 b9 04 46
        E 4 b9 04 4c
        E 2 99 2c 1c
        E 8 b9 04 56
        E 2 99 24 7a
        E 7 89 29 40
        E 17 b9 04 46
        E 24 99 33 6d
        E 15 b9 04 36
        E 41 b9 04 25
        E 55 b9 04 15
        E 75 89 2c 40
        E 8 89 24 40
        E 50 89 33 40
        E 151 b9 04 25
        E 132 b9 04 29
        E 169 b9 04 1d
        E 326 b9 04 27
        E 181 b9 04 20
        E 428 99 26 7f
        E 72 b9 04 18
        E 41 89 26 40
        E 3 99 26 7f
        E 239 89 26 40
        E 832 99 30 7f
        E 43 89 30 40
        E 2 99 30 7f
        E 242 89 30 40
        E 720 99 2d 7f
        E 92 89 2d 40
        E 0 99 2d 7c
        E 241 89 2d 40
        E 686 99 29 7f
        E 45 89 29 40
        E 3 99 29 7f
        E 242 89 29 40
        E 223 99 29 7f
        E 79 89 29 40
        E 3 99 29 44
        E 239 89 29 40
        E 620 b9 04 12
        E 44 99 26 7e
        E 109 89 26 40
        E 2 99 26 7f
        E 242 89 26 40
        E 198 99 2d 7f
        E 53 99 30 6f
        E 136 b9 04 1d
        E 55 89 2d 40
        E 51 89 30 40
        E 251 99 2d 7f
        E 24 99 30 7f
        E 217 89 2d 40
        E 25 89 30 40
        E 305 b9 04 25
        E 424 99 24 7f
        E 10 b9 04 1a
        E 46 99 3b 7f
        E 128 b9 04 09
        E 59 89 24 40
        E 55 89 3b 40
        E 28 b9 04 00
        E 1226 99 26 6c
        E 104 89 26 40
        E 2 99 26 7f
        E 241 89 26 40
        E 730 99 2d 7f
        E 24 99 30 7f
        E 220 89 2d 40
        E 22 89 30 40
        E 635 99 2d 7f
        E 34 99 30 7f
        E 213 89 2d 40
        E 31 89 30 40
        E 723 99 2d 7f
        E 33 99 29 6a
        E 211 89 2d 40
        E 30 89 29 40
        E 262 99 2d 7f
        E 26 99 29 73
        E 218 89 2d 40
        E 26 89 29 40
        E 766 99 26 6b
        E 85 89 26 40
        E 2 99 26 7f
        E 239 89 26 40
        E 34 b9 04 09
        E 167 b9 04 15
        E 24 99 2d 7f
        E 3 99 30 75
        E 88 b9 04 25
        E 150 89 2d 40
        E 3 89 30 40
        E 8 b9 04 30
        E 260 99 30 44
        E 12 99 2d 7f
        E 232 89 30 40
        E 13 89 2d 40
        E 67 b9 04 2c
        E 387 b9 04 20
        E 229 b9 04 0f
        E 97 99 24 7f
        E 2 99 31 7f
        E 65 b9 04 00
        E 174 89 24 40
        E 3 89 31 40
        E 1340 99 26 6e
        E 87 99 28 62
        E 158 89 26 40
        E 86 89 28 40
        E 776 99 2d 7f
        E 12 99 30 7f
        E 84 b9 04 12
        E 119 b9 04 22
        E 27 89 2d 40
        E 12 89 30 40
        E 94 b9 04 2c
        E 300 b9 04 36
        E 312 99 2d 7f
        E 16 99 30 71
        E 186 b9 04 3f
        E 38 89 2d 40
        E 20 89 30 40
        E 254 b9 04 36
        E 466 99 2d 7f
        E 17 99 29 64
        E 5 b9 04 29
        E 190 b9 04 20
        E 30 89 2d 40
        E 19 89 29 40
        E 261 99 29 7f
        E 58 99 2d 7f
        E 186 89 29 40
        E 55 89 2d 40
        E 726 99 24 73
        E 6 b9 04 29
        E 233 b9 04 1d
        E 5 89 24 40
        E 302 99 26 7f
        E 224 89 26 40
        E 3 99 26 64
        E 241 89 26 40
        E 10 99 26 64
        E 244 89 26 40
        E 21 99 26 70
        E 5 b9 04 0c
        E 111 b9 04 00
        E 128 89 26 40
        E 5 99 24 51
        E 47 99 33 46
        E 198 89 24 40
        E 35 99 24 4e
        E 8 89 33 40
        E 14 b9 04 12
        E 27 99 31 7f
        E 195 89 24 40
        E 44 99 24 70
        E 5 89 31 40
        E 58 99 33 7f
        E 167 b9 04 09
        E 14 89 24 40
        E 60 89 33 40
        E 501 b9 04 0f
        E 775 99 2d 7f
        E 10 99 30 7f
        E 145 b9 04 18
        E 87 89 2d 40
        E 9 89 30 40
        E 880 99 29 7f
        E 5 99 2d 7f
        E 239 89 29 40
        E 5 89 2d 40
        E 705 99 26 7f
        E 114 89 26 40
        E 2 99 26 7f
        E 242 89 26 40
        E 219 b9 04 29
        E 211 b9 04 18
        E 94 b9 04 06
        E 78 b9 04 00
        E 140 99 30 5c
        E 13 99 2d 7b
        E 52 b9 04 12
        E 174 89 30 40
        E 19 89 2d 40
        E 107 b9 04 09
        E 183 99 2d 7f
        E 3 b9 04 12
        E 40 99 30 54
        E 167 b9 04 1a
        E 31 89 2d 40
        E 47 89 30 40
        E 108 b9 04 2c
        E 192 b9 04 1a
        E 170 b9 04 12
        E 223 99 26 7e
        E 63 b9 04 22
        E 23 89 26 40
        E 3 99 26 7f
        E 239 b9 04 1a
        E 3 89 26 40
        E 190 b9 04 15
        E 66 99 26 7f
        E 242 89 26 40
        E 9 99 26 5b
        E 244 89 26 40
        E 2 99 26 7f
        E 240 89 26 40
        E 31 99 26 48
        E 48 99 30 26
        E 20 b9 04 03
        E 38 b9 04 00
        E 32 89 30 40
        E 2 99 30 1f
        E 104 89 26 40
        E 6 99 24 4e
        E 28 99 33 53
        E 101 89 30 40
        E 68 89 24 40
        E 3 99 24 0b
        E 53 b9 04 12
        E 19 89 33 40
        E 24 89 24 40
        E 2 99 24 58
        E 240 89 24 40
        E 50 99 24 70
        E 7 99 33 56
        E 63 b9 04 06
        E 95 b9 04 00
        E 79 89 24 40
        E 8 89 33 40
        E 804 b9 04 06
        E 281 b9 04 0c
        E 280 b9 04 15
        E 20 99 33 7d
        E 4 99 28 4d
        E 238 89 33 40
        E 5 89 28 40
        E 385 b9 04 1a
        E 441 99 24 7f
        E 33 99 33 3e
        E 209 89 24 40
        E 32 89 33 40
        E 749 b9 04 12
        E 32 99 24 7d
        E 31 99 33 68
        E 181 b9 04 09
        E 29 89 24 40
        E 34 89 33 40
        E 790 99 24 63
        E 244 89 24 40
        E 14 b9 04 0f
        E 262 b9 04 12
        E 3 99 2e 7f
        E 6 99 26 6b
        E 143 b9 04 18
        E 91 89 2e 40
        E 10 89 26 40
        E 167 b9 04 27
        E 133 b9 04 32
        E 85 b9 04 22
        E 67 b9 04 12
        E 94 b9 04 00
        E 237 b9 04 12
        E 27 b9 04 25
        E 19 b9 04 36
        E 24 b9 04 46
        E 75 b9 04 36
        E 70 b9 04 25
        E 128 b9 04 1d
        E 232 b9 04 27
        E 98 99 26 7f
        E 158 b9 04 1d
        E 79 89 26 40
        E 3 99 26 5e
        E 51 b9 04 2e
        E 188 89 26 40
        E 15 99 28 1d
        E 27 b9 04 27
        E 217 89 28 40
        E 24 99 26 66
        E 126 b9 04 15
        E 117 89 26 40
        E 37 99 24 4f
        E 17 b9 04 0f
        E 3 99 1a 40
        E 130 b9 04 0f
        E 32 89 24 40
        E 1 99 24 0c
        E 80 89 1a 40
        E 10 b9 04 12
        E 2 99 2e 7f
        E 3 89 24 40
        E 3 99 24 48
        E 237 89 2e 40
        E 4 89 24 40
        E 29 b9 04 0f
        E 2 99 2e 7f
        E 15 99 24 7e
        E 146 b9 04 03
        E 81 89 2e 40
        E 17 89 24 40
        E 29 b9 04 00
        E 1092 b9 04 12
        E 48 b9 04 22
        E 44 b9 04 32
        E 135 b9 04 3a
        E 56 b9 04 34
        E 2 99 2e 7f
        E 7 99 26 60
        E 85 b9 04 34
        E 150 89 2e 40
        E 7 89 26 40
        E 154 b9 04 44
        E 54 b9 04 4c
        E 190 b9 04 34
        E 402 99 24 7f
        E 38 b9 04 3c
        E 3 99 2e 7f
        E 2 b9 04 3c
        E 186 b9 04 38
        E 12 89 24 40
        E 41 89 2e 40
        E 131 b9 04 3e
        E 299 b9 04 3a
        E 351 99 24 7c
        E 36 b9 04 3a
        E 3 99 2e 7f
        E 202 89 24 40
        E 39 89 2e 40
        E 167 b9 04 36
        E 343 b9 04 3c
        E 207 99 24 62
        E 53 b9 04 3a
        E 2 99 2e 75
        E 187 89 24 40
        E 55 89 2e 40
        E 290 b9 04 3e
        E 3 99 2e 7f
        E 2 99 28 5b
        E 239 89 2e 40
        E 3 89 28 40
        E 120 b9 04 41
        E 648 b9 04 47
        E 3 99 2e 7f
        E 53 b9 04 47
        E 191 89 2e 40
        E 82 b9 04 3c
        E 285 99 26 75
        E 103 b9 04 34
        E 144 89 26 40
        E 4 b9 04 41
        E 5 99 26 6b
        E 172 b9 04 38
        E 71 89 26 40
        E 2 99 26 62
        E 240 89 26 40
        E 10 99 26 66
        E 116 b9 04 27
        E 126 89 26 40
        E 12 99 24 45
        E 16 b9 04 1d
        E 34 b9 04 1d
        E 3 99 2e 7f
        E 191 89 24 40
        E 29 99 24 47
        E 24 89 2e 40
        E 5 b9 04 2c
        E 2 99 2e 7d
        E 3 b9 04 2c
        E 142 b9 04 36
        E 66 89 24 40
        E 29 89 2e 40
        E 24 99 24 7b
        E 22 b9 04 34
        E 2 99 1a 7f
        E 150 b9 04 2e
        E 67 89 24 40
        E 26 89 1a 40
        E 144 b9 04 29
        E 391 b9 04 30
        E 164 b9 04 3a
        E 56 99 24 17
        E 91 b9 04 3e
        E 2 99 2e 60
        E 13 b9 04 3f
        E 138 89 24 40
        E 91 89 2e 40
        E 170 b9 04 44
        E 137 99 28 6c
        E 17 b9 04 44
        E 2 99 2e 7a
        E 223 89 28 40
        E 19 89 2e 40
        E 290 b9 04 46
        E 2 99 2e 4a
        E 242 89 2e 40
        E 278 99 24 7f
        E 39 b9 04 44
        E 2 99 2e 7f
        E 203 89 24 40
        E 36 89 2e 40
        E 288 b9 04 43
        E 2 99 2e 4a
        E 242 89 2e 40
        E 229 99 24 7f
        E 56 b9 04 41
        E 2 99 2e 7f
        E 165 b9 04 3f
        E 19 89 24 40
        E 58 89 2e 40
        E 270 b9 04 41
        E 3 99 2e 59
        E 241 89 2e 40
        E 227 b9 04 43
        E 19 99 24 63
        E 13 b9 04 43
        E 3 99 2e 7f
        E 197 b9 04 3e
        E 29 89 24 40
        E 12 89 2e 40
        E 337 b9 04 3f
        E 2 99 2e 7f
        E 2 99 28 66
        E 242 89 2e 40
        E 2 89 28 40
        E 293 b9 04 41
        E 2 99 2e 4e
        E 242 89 2e 40
        E 215 99 24 7f
        E 48 b9 04 43
        E 2 99 2e 7f
        E 10 b9 04 43
        E 180 89 24 40
        E 20 b9 04 3f
        E 32 89 2e 40
        E 292 99 26 72
        E 10 b9 04 36
        E 232 89 26 40
        E 4 99 26 6b
        E 174 b9 04 3e
        E 70 89 26 40
        E 0 99 26 52
        E 242 89 26 40
        E 3 99 26 74
        E 82 b9 04 30
        E 77 b9 04 20
        E 82 89 26 40
        E 44 99 24 41
        E 29 b9 04 1d
        E 2 99 2e 7f
        E 184 b9 04 30
        E 24 89 24 40
        E 36 99 24 3b
        E 3 89 2e 40
        E 14 b9 04 32
        E 2 99 2e 7f
        E 129 b9 04 38
        E 94 89 24 40
        E 12 99 24 7f
        E 7 89 2e 40
        E 27 b9 04 36
        E 2 99 1a 7f
        E 143 b9 04 2e
        E 62 89 24 40
        E 37 89 1a 40
        E 328 b9 04 30
        E 3 99 2e 52
        E 137 b9 04 36
        E 102 89 2e 40
        E 256 99 24 5d
        E 46 b9 04 32
        E 3 99 2e 7b
        E 81 b9 04 30
        E 112 89 24 40
        E 48 89 2e 40
        E 283 99 26 7f
        E 36 b9 04 34
        E 2 99 2e 7f
        E 27 b9 04 36
        E 176 89 26 40
        E 36 89 2e 40
        E 298 b9 04 38
        E 2 99 2e 56
        E 242 89 2e 40
        E 212 b9 04 3c
        E 58 99 24 7f
        E 10 b9 04 3e
        E 5 99 2e 7f
        E 228 89 24 40
        E 11 89 2e 40
        E 278 b9 04 3a
        E 2 99 2e 62
        E 240 89 2e 40
        E 62 b9 04 38
        E 227 99 24 7f
        E 44 b9 04 3c
        E 5 b9 04 3c
        E 2 99 2e 7f
        E 190 89 24 40
        E 49 89 2e 40
        E 261 b9 04 3c
        E 2 99 2e 63
        E 245 89 2e 40
        E 227 99 24 76
        E 46 b9 04 38
        E 2 99 2e 7f
        E 82 b9 04 36
        E 111 89 24 40
        E 49 89 2e 40
        E 307 99 28 69
        E 9 b9 04 3a
        E 2 99 2e 7f
        E 179 b9 04 3a
        E 51 89 28 40
        E 12 89 2e 40
        E 251 b9 04 3c
        E 2 99 2e 63
        E 243 89 2e 40
        E 212 b9 04 3f
        E 29 99 24 7f
        E 38 b9 04 3f
        E 3 99 2e 7f
        E 203 89 24 40
        E 36 89 2e 40
        E 237 b9 04 36
        E 62 99 26 72
        E 242 89 26 40
        E 10 99 26 76
        E 230 89 26 40
        E 2 99 26 46
        E 41 b9 04 3e
        E 201 89 26 40
        E 24 99 26 60
        E 28 b9 04 3a
        E 196 b9 04 29
        E 17 89 26 40
        E 42 b9 04 27
        E 1 99 1a 73
        E 5 99 24 45
        E 181 89 24 40
        E 0 99 24 0e
        E 59 89 1a 40
        E 20 89 24 40
        E 0 99 24 41
        E 9 b9 04 32
        E 2 99 2e 7f
        E 17 b9 04 32
        E 165 b9 04 3a
        E 50 89 24 40
        E 12 89 2e 40
        E 23 99 24 6e
        E 11 b9 04 38
        E 3 99 2e 7f
        E 137 b9 04 30
        E 92 89 24 40
        E 15 89 2e 40
        E 116 b9 04 29
        E 205 b9 04 2c
        E 2 99 2e 4c
        E 242 89 2e 40
        E 96 b9 04 30
        E 128 99 24 63
        E 58 b9 04 30
        E 3 99 1a 63
        E 186 89 24 40
        E 55 89 1a 40
        E 276 99 26 7f
        E 31 b9 04 34
        E 2 99 2e 7f
        E 61 b9 04 38
        E 148 89 26 40
        E 35 89 2e 40
        E 288 b9 04 3c
        E 3 99 2e 48
        E 48 b9 04 3c
        E 191 89 2e 40
        E 261 99 24 7f
        E 36 b9 04 3c
        E 3 99 2e 7f
        E 202 89 24 40
        E 36 89 2e 40
        E 249 b9 04 3a
        E 3 99 2e 56
        E 212 b9 04 36
        E 29 89 2e 40
        E 300 99 24 7f
        E 7 b9 04 3a
        E 2 99 2e 7f
        E 32 b9 04 3a
        E 201 89 24 40
        E 9 89 2e 40
        E 271 b9 04 3c
        E 2 99 2e 54
        E 242 89 2e 40
        E 285 99 24 75
        E 2 b9 04 3a
        E 3 99 2e 6d
        E 218 b9 04 36
        E 21 89 24 40
        E 2 89 2e 40
        E 290 99 26 65
        E 36 b9 04 38
        E 2 99 2e 7f
        E 204 89 26 40
        E 39 89 2e 40
        E 275 b9 04 3a
        E 8 b9 04 3c
        E 2 99 2e 7f
        E 242 89 2e 40
        E 250 99 24 7f
        E 49 b9 04 3c
        E 2 99 2e 7f
        E 194 89 24 40
        E 45 89 2e 40
        E 261 b9 04 36
        E 40 99 26 71
        E 241 89 26 40
        E 2 99 26 6e
        E 58 b9 04 30
        E 182 89 26 40
        E 4 99 26 43
        E 2 b9 04 38
        E 241 89 26 40
        E 18 99 26 6a
        E 111 b9 04 2e
        E 94 b9 04 1d
        E 39 89 26 40
        E 2 99 24 41
        E 41 b9 04 20
        E 3 99 1a 58
        E 198 b9 04 2c
        E 5 89 24 40
        E 17 99 24 41
        E 22 89 1a 40
        E 11 b9 04 30
        E 3 99 2e 7f
        E 104 b9 04 38
        E 102 89 24 40
        E 38 89 2e 40
        E 17 99 24 7f
        E 26 b9 04 3a
        E 3 99 2e 7f
        E 215 89 24 40
        E 17 b9 04 30
        E 9 89 2e 40
        E 167 b9 04 2c
        E 160 b9 04 2e
        E 2 99 2e 41
        E 242 89 2e 40
        E 261 99 24 62
        E 31 b9 04 2e
        E 3 99 2e 52
        E 207 89 24 40
        E 32 89 2e 40
        E 285 99 26 7f
        E 26 b9 04 30
        E 3 99 2e 7f
        E 14 b9 04 30
        E 196 89 26 40
        E 32 89 2e 40
        E 14 b9 04 34
        E 302 b9 04 36
        E 2 99 2e 4f
        E 242 89 2e 40
        E 174 b9 04 3a
        E 77 99 24 7f
        E 37 b9 04 38
        E 1 99 2e 7f
        E 204 89 24 40
        E 38 89 2e 40
        E 260 b9 04 38
        E 2 99 2e 54
        E 241 89 2e 40
        E 292 99 24 7f
        E 32 b9 04 3a
        E 3 99 2e 7f
        E 207 89 24 40
        E 34 89 2e 40
        E 271 b9 04 3a
        E 2 99 2e 57
        E 244 89 2e 40
        E 249 99 24 71
        E 21 b9 04 38
        E 3 99 2e 7f
        E 219 89 24 40
        E 3 b9 04 36
        E 19 89 2e 40
        E 275 99 26 7f
        E 37 b9 04 3a
        E 2 99 2e 7f
        E 102 b9 04 3a
        E 101 89 26 40
        E 37 89 2e 40
        E 258 b9 04 3c
        E 3 99 2e 6b
        E 242 89 2e 40
        E 219 b9 04 3e
        E 29 99 24 6a
        E 58 b9 04 3c
        E 3 99 2e 7f
        E 181 89 24 40
        E 60 89 2e 40
        E 157 b9 04 36
        E 124 99 26 5f
        E 241 89 26 40
        E 12 99 26 76
        E 234 89 26 40
        E 3 99 26 67
        E 86 b9 04 2e
        E 92 b9 04 1d
        E 65 89 26 40
        E 15 99 26 4c
        E 80 b9 04 0c
        E 149 99 24 42
        E 13 89 26 40
        E 7 b9 04 06
        E 55 99 33 4a
        E 77 b9 04 18
        E 25 89 24 40
        E 2 99 24 0f
        E 68 89 24 40
        E 2 99 24 43
        E 34 b9 04 29
        E 40 89 33 40
        E 146 b9 04 2e
        E 19 89 24 40
        E 51 99 24 7f
        E 99 99 33 71
        E 78 b9 04 20
        E 65 89 24 40
        E 99 89 33 40
        E 790 99 24 54
        E 31 b9 04 22
        E 3 99 2e 7f
        E 210 89 24 40
        E 31 89 2e 40
        E 140 b9 04 25
        E 165 b9 04 29
        E 5 99 2e 7f
        E 0 99 26 7f
        E 77 b9 04 2e
        E 162 89 2e 40
        E 2 89 26 40
        E 307 b9 04 32
        E 3 99 2e 54
        E 241 89 2e 40
        E 97 b9 04 34
        E 241 99 24 75
        E 15 b9 04 36
        E 2 99 2e 7f
        E 225 89 24 40
        E 15 89 2e 40
        E 272 b9 04 36
        E 1 99 2e 5c
        E 241 89 2e 40
        E 302 99 24 71
        E 27 b9 04 36
        E 2 99 2e 7f
        E 212 89 24 40
        E 27 89 2e 40
        E 261 b9 04 36
        E 3 99 2e 52
        E 241 89 2e 40
        E 160 b9 04 3a
        E 118 99 24 66
        E 19 b9 04 38
        E 2 99 2e 67
        E 146 b9 04 36
        E 77 89 24 40
        E 20 89 2e 40
        E 287 99 28 66
        E 7 b9 04 36
        E 3 99 2e 7f
        E 232 89 28 40
        E 7 89 2e 40
        E 270 b9 04 36
        E 3 99 2e 4e
        E 241 89 2e 40
        E 266 99 24 7f
        E 7 b9 04 38
        E 2 99 2e 7f
        E 233 89 24 40
        E 11 89 2e 40
        E 242 b9 04 30
        E 78 99 26 73
        E 236 89 26 40
        E 1 99 26 71
        E 226 b9 04 34
        E 15 89 26 40
        E 3 99 26 53
        E 208 b9 04 2e
        E 30 89 26 40
        E 23 99 26 49
        E 26 b9 04 1d
        E 174 b9 04 0f
        E 2 99 24 41
        E 39 89 26 40
        E 53 b9 04 12
        E 2 99 2e 78
        E 117 b9 04 20
        E 31 89 24 40
        E 7 99 24 45
        E 72 b9 04 30
        E 15 89 2e 40
        E 17 b9 04 32
        E 3 99 2e 7f
        E 120 b9 04 3e
        E 15 89 24 40
        E 63 99 24 7b
        E 45 89 2e 40
        E 27 b9 04 3e
        E 2 99 1a 7f
        E 168 89 24 40
        E 74 89 1a 40
        E 3 b9 04 3a
        E 309 b9 04 3e
        E 2 99 2e 33
        E 242 89 2e 40
        E 217 99 24 6f
        E 51 b9 04 36
        E 2 99 2e 5c
        E 99 b9 04 30
        E 90 89 24 40
        E 56 89 2e 40
        E 253 99 26 7f
        E 51 b9 04 32
        E 2 99 2e 7f
        E 174 b9 04 36
        E 15 89 26 40
        E 55 89 2e 40
        E 288 b9 04 38
        E 2 99 2e 46
        E 244 89 2e 40
        E 201 b9 04 3e
        E 80 b9 04 3e
        E 2 99 2e 7f
        E 4 99 24 7f
        E 238 89 2e 40
        E 6 89 24 40
        E 259 b9 04 3a
        E 2 99 2e 51
        E 242 b9 04 3a
        E 3 89 2e 40
        E 316 99 24 7f
        E 17 b9 04 3a
        E 0 99 2e 7f
        E 224 89 24 40
        E 18 89 2e 40
        E 273 b9 04 38
        E 2 99 2e 51
        E 242 89 2e 40
        E 258 99 24 75
        E 3 b9 04 3a
        E 2 99 2e 5e
        E 222 b9 04 36
        E 15 89 24 40
        E 4 89 2e 40
        E 334 99 28 69
        E 31 b9 04 36
        E 2 99 2e 7f
        E 211 89 28 40
        E 31 89 2e 40
        E 254 b9 04 38
        E 2 99 2e 52
        E 242 89 2e 40
        E 249 99 24 7b
        E 44 b9 04 38
        E 2 99 2e 7f
        E 198 89 24 40
        E 46 89 2e 40
        E 106 b9 04 3a
        E 131 99 24 69
        E 24 b9 04 36
        E 2 99 2e 4a
        E 114 b9 04 36
        E 100 89 24 40
        E 28 89 2e 40
        E 270 99 28 56
        E 60 b9 04 36
        E 3 99 2e 7f
        E 182 89 28 40
        E 60 89 2e 40
        E 242 b9 04 36
        E 2 99 2e 53
        E 239 89 2e 40
        E 220 99 24 7f
        E 75 b9 04 2e
        E 2 99 2e 7f
        E 3 b9 04 2e
        E 157 b9 04 27
        E 7 89 24 40
        E 75 89 2e 40
        E 275 b9 04 20
        E 2 99 2e 47
        E 46 b9 04 20
        E 196 89 2e 40
        E 247 99 26 75
        E 60 b9 04 27
        E 5 b9 04 27
        E 2 99 2e 7f
        E 177 89 26 40
        E 65 89 2e 40
        E 237 b9 04 2c
        E 41 b9 04 29
        E 2 99 2e 57
        E 240 89 2e 40
        E 233 99 24 72
        E 68 b9 04 2e
        E 0 99 2e 7f
        E 176 89 24 40
        E 66 89 2e 40
        E 94 b9 04 32
        E 135 99 24 59
        E 3 b9 04 32
        E 2 99 2e 3c
        E 237 89 24 40
        E 2 89 2e 40
        E 326 99 26 75
        E 27 b9 04 30
        E 2 99 2e 7f
        E 216 89 26 40
        E 26 89 2e 40
        E 261 b9 04 30
        E 2 99 2e 4e
        E 242 89 2e 40
        E 227 99 24 77
        E 53 b9 04 30
        E 3 99 2e 7f
        E 188 89 24 40
        E 2 b9 04 2c
        E 54 89 2e 40
        E 256 b9 04 27
        E 3 99 2e 40
        E 130 b9 04 20
        E 111 89 2e 40
        E 290 99 28 4c
        E 21 b9 04 25
        E 3 99 1a 7f
        E 39 b9 04 27
        E 179 89 28 40
        E 23 89 1a 40
        E 290 b9 04 29
        E 3 99 2e 4c
        E 242 89 2e 40
        E 226 99 24 70
        E 48 b9 04 2c
        E 3 99 2e 7f
        E 41 b9 04 2c
        E 151 89 24 40
        E 50 89 2e 40
        E 251 99 24 60
        E 20 b9 04 29
        E 1 99 2e 39
        E 221 89 24 40
        E 22 89 2e 40
        E 302 99 28 5b
        E 17 b9 04 27
        E 2 99 2e 7f
        E 222 89 28 40
        E 19 89 2e 40
        E 298 b9 04 29
        E 3 99 2e 41
        E 132 b9 04 27
        E 109 89 2e 40
        E 251 99 24 6b
        E 55 b9 04 25
        E 3 99 2e 7f
        E 138 b9 04 20
        E 46 89 24 40
        E 60 89 2e 40
        E 268 99 26 51
        E 20 b9 04 1d
        E 2 99 2e 7f
        E 222 89 26 40
        E 19 89 2e 40
        E 264 99 24 5b
        E 29 b9 04 1d
        E 3 99 2e 65
        E 210 89 24 40
        E 31 89 2e 40
        E 256 99 24 59
        E 31 b9 04 1d
        E 3 99 2e 60
        E 210 89 24 40
        E 34 89 2e 40
        E 138 b9 04 1a
        E 133 99 26 41
        E 38 b9 04 1a
        E 2 99 2e 7f
        E 201 89 26 40
        E 44 89 2e 40
        E 222 99 24 60
        E 31 b9 04 1a
        E 2 99 2e 50
        E 208 89 24 40
        E 34 89 2e 40
        E 270 99 28 3a
        E 15 b9 04 1a
        E 2 99 2e 7f
        E 225 89 28 40
        E 20 89 2e 40
        E 272 99 24 5a
        E 13 b9 04 1a
        E 2 99 2e 65
        E 227 89 24 40
        E 15 89 2e 40
        E 243 b9 04 1a
        E 2 99 2e 50
        E 25 99 24 50
        E 215 b9 04 12
        E 5 89 2e 40
        E 25 89 24 40
        E 280 99 28 35
        E 31 b9 04 12
        E 3 99 2e 7f
        E 207 89 28 40
        E 34 89 2e 40
        E 225 99 24 5a
        E 92 b9 04 12
        E 2 99 2e 67
        E 150 89 24 40
        E 92 89 2e 40
        E 219 99 24 59
        E 27 b9 04 0f
        E 2 99 2e 56
        E 184 b9 04 0c
        E 29 89 24 40
        E 29 89 2e 40
        E 254 99 28 4e
        E 55 b9 04 0c
        E 3 99 2e 7f
        E 188 89 28 40
        E 54 89 2e 40
        E 224 99 24 57
        E 24 b9 04 0c
        E 2 99 2e 5c
        E 215 89 24 40
        E 27 89 2e 40
        E 261 99 28 51
        E 51 b9 04 0f
        E 3 99 2e 7f
        E 188 89 28 40
        E 53 89 2e 40
        E 224 99 24 5d
        E 17 b9 04 0f
        E 2 99 2e 5f
        E 223 89 24 40
        E 22 89 2e 40
        E 267 99 24 57
        E 0 b9 04 0c
        E 3 99 2e 7d
        E 240 89 24 40
        E 5 89 2e 40
        E 313 99 26 6e
        E 21 b9 04 0f
        E 2 99 2e 7f
        E 224 89 26 40
        E 18 89 2e 40
        E 219 99 24 59
        E 92 b9 04 0f
        E 2 99 2e 66
        E 147 89 24 40
        E 95 89 2e 40
        E 200 99 24 5b
        E 34 b9 04 0c
        E 5 99 2e 4f
        E 203 89 24 40
        E 38 89 2e 40
        E 288 99 28 58
        E 36 b9 04 0f
        E 3 99 2e 7f
        E 203 89 28 40
        E 36 89 2e 40
        E 227 99 24 66
        E 43 b9 04 0f
        E 2 99 2e 39
        E 197 89 24 40
        E 45 89 2e 40
        E 232 99 26 54
        E 60 b9 04 0f
        E 5 99 2e 7f
        E 177 89 26 40
        E 65 89 2e 40
        E 252 99 24 64
        E 6 b9 04 0f
        E 2 99 2e 5f
        E 232 89 24 40
        E 10 89 2e 40
        E 264 b9 04 0f
        E 1 99 2e 63
        E 13 99 24 56
        E 230 89 2e 40
        E 12 89 24 40
        E 297 99 26 7d
        E 27 b9 04 0f
        E 2 99 2e 7f
        E 213 89 26 40
        E 29 89 2e 40
        E 214 99 24 5f
        E 66 b9 04 0f
        E 2 99 2e 69
        E 177 89 24 40
        E 63 89 2e 40
        E 228 99 24 58
        E 23 b9 04 0c
        E 2 99 2e 75
        E 218 89 24 40
        E 24 89 2e 40
        E 108 b9 04 06
        E 165 99 26 7a
        E 48 b9 04 06
        E 1 99 2e 7f
        E 195 89 26 40
        E 46 89 2e 40
        E 227 99 24 66
        E 46 b9 04 06
        E 2 99 2e 69
        E 194 89 24 40
        E 50 89 2e 40
        E 252 99 26 6a
        E 45 b9 04 09
        E 5 99 2e 7f
        E 194 89 26 40
        E 50 89 2e 40
        E 224 99 24 5a
        E 51 b9 04 09
        E 3 99 2e 5b
        E 191 89 24 40
        E 50 89 2e 40
        E 247 b9 04 09
        E 3 99 2e 78
        E 9 99 24 54
        E 235 89 2e 40
        E 9 89 24 40
        E 285 99 26 68
        E 53 b9 04 09
        E 3 99 2e 7f
        E 186 89 26 40
        E 58 89 2e 40
        E 186 99 24 53
        E 73 b9 04 09
        E 2 99 2e 57
        E 166 89 24 40
        E 76 89 2e 40
        E 234 99 24 5e
        E 29 b9 04 09
        E 2 99 2e 69
        E 212 89 24 40
        E 30 89 2e 40
        E 258 99 26 66
        E 60 b9 04 09
        E 3 99 2e 7f
        E 179 89 26 40
        E 65 89 2e 40
        E 203 99 24 5e
        E 70 b9 04 06
        E 2 99 2e 4f
        E 170 89 24 40
        E 72 89 2e 40
        E 244 99 26 4a
        E 51 b9 04 09
        E 2 99 2e 7f
        E 191 89 26 40
        E 51 89 2e 40
        E 210 99 24 65
        E 51 b9 04 06
        E 2 99 2e 54
        E 189 89 24 40
        E 52 89 2e 40
        E 252 99 24 5b
        E 10 b9 04 09
        E 1 99 2e 7f
        E 230 89 24 40
        E 15 89 2e 40
        E 297 99 26 70
        E 34 b9 04 06
        E 2 99 2e 7f
        E 206 89 26 40
        E 36 89 2e 40
        E 164 99 24 50
        E 121 b9 04 06
        E 2 99 2e 5f
        E 119 89 24 40
        E 126 89 2e 40
        E 217 99 24 6f
        E 32 b9 04 06
        E 2 99 2e 74
        E 210 89 24 40
        E 31 89 2e 40
        E 286 99 26 41
        E 40 b9 04 06
        E 3 99 2e 7f
        E 201 89 26 40
        E 40 89 2e 40
        E 223 99 24 73
        E 36 b9 04 03
        E 3 99 2e 6a
        E 33 b9 04 00
        E 170 89 24 40
        E 38 89 2e 40
        E 269 99 26 7f
        E 33 b9 04 03
        E 2 99 2e 7f
        E 206 89 26 40
        E 36 89 2e 40
        E 220 b9 04 00
        E 2 99 2e 54
        E 242 89 2e 40
        E 157 99 24 78
        E 41 b9 04 12
        E 166 b9 04 20
        E 37 89 24 40
        E 7 99 26 6d
        E 13 99 29 76
        E 100 b9 04 27
        E 129 89 26 40
        E 14 99 24 54
        E 3 89 29 40
        E 65 b9 04 2e
        E 174 89 24 40
        E 41 99 29 3e
        E 172 b9 04 27
        E 46 99 24 58
        E 24 89 29 40
        E 217 89 24 40
        E 46 99 26 73
        E 34 99 29 7f
        E 207 89 26 40
        E 37 89 29 40
        E 7 99 24 5b
        E 242 89 24 40
        E 50 99 29 3e
        E 242 89 29 40
        E 22 99 24 5d
        E 241 89 24 40
        E 36 99 26 68
        E 13 99 29 7f
        E 231 89 26 40
        E 10 89 29 40
        E 90 99 24 5e
        E 239 99 29 35
        E 3 89 24 40
        E 241 89 29 40
        E 51 99 24 58
        E 183 b9 04 20
        E 58 89 24 40
        E 17 99 29 7f
        E 12 99 28 44
        E 232 89 29 40
        E 9 89 28 40
        E 97 99 24 63
        E 225 99 29 23
        E 17 89 24 40
        E 225 89 29 40
        E 70 99 24 57
        E 244 89 24 40
        E 2 99 29 7f
        E 17 99 28 31
        E 225 89 29 40
        E 17 89 28 40
        E 89 99 24 59
        E 244 89 24 40
        E 15 99 29 25
        E 244 89 29 40
        E 33 99 24 57
        E 242 89 24 40
        E 32 99 28 30
        E 4 99 29 7f
        E 237 89 28 40
        E 5 89 29 40
        E 68 99 24 62
        E 241 89 24 40
        E 11 99 29 2e
        E 240 89 29 40
        E 34 99 24 5b
        E 242 89 24 40
        E 41 99 26 52
        E 2 99 29 7f
        E 240 89 26 40
        E 5 89 29 40
        E 74 99 24 5d
        E 242 89 24 40
        E 22 99 29 32
        E 241 89 29 40
        E 30 99 24 58
        E 241 89 24 40
        E 38 99 28 5c
        E 7 99 29 7f
        E 235 89 28 40
        E 9 89 29 40
        E 75 99 24 60
        E 242 89 24 40
        E 31 99 29 24
        E 245 89 29 40
        E 14 99 24 58
        E 246 89 24 40
        E 51 99 29 7b
        E 3 99 28 2d
        E 239 89 29 40
        E 5 89 28 40
        E 50 99 24 64
        E 244 89 24 40
        E 37 99 29 25
        E 244 89 29 40
        E 31 99 24 5b
        E 245 89 24 40
        E 52 99 26 37
        E 8 99 29 76
        E 234 89 26 40
        E 7 89 29 40
        E 38 99 24 60
        E 242 89 24 40
        E 58 99 29 30
        E 242 89 29 40
        E 19 99 24 5f
        E 242 89 24 40
        E 41 99 28 5d
        E 10 99 29 7f
        E 234 89 28 40
        E 7 89 29 40
        E 82 99 24 5d
        E 242 89 24 40
        E 22 99 29 32
        E 241 89 29 40
        E 49 99 24 59
        E 241 89 24 40
        E 39 99 28 44
        E 4 99 29 7f
        E 5 89 28 40
        E 2 99 28 5d
        E 235 89 29 40
        E 5 89 28 40
        E 62 99 24 5c
        E 242 89 24 40
        E 32 99 29 24
        E 244 89 29 40
        E 31 99 24 5c
        E 242 89 24 40
        E 46 99 28 2d
        E 9 99 26 6a
        E 13 99 29 78
        E 222 89 28 40
        E 9 89 26 40
        E 11 89 29 40
        E 55 99 24 5c
        E 239 89 24 40
        E 39 99 29 2d
        E 242 89 29 40
        E 33 99 24 59
        E 242 89 24 40
        E 43 99 28 4a
        E 12 99 29 7f
        E 230 89 28 40
        E 11 89 29 40
        E 68 99 24 5c
        E 242 89 24 40
        E 29 99 29 23
        E 244 89 29 40
        E 51 99 24 5a
        E 241 89 24 40
        E 27 99 28 42
        E 4 99 29 77
        E 237 89 28 40
        E 5 89 29 40
        E 80 99 24 57
        E 242 89 24 40
        E 9 99 29 24
        E 242 89 29 40
        E 75 99 24 5e
        E 244 89 24 40
        E 46 99 29 6a
        E 2 99 26 25
        E 240 89 29 40
        E 2 89 26 40
        E 50 99 24 4f
        E 155 89 24 40
        E 0 99 24 15
        E 116 99 29 40
        E 128 89 24 40
        E 114 89 29 40
        E 21 99 24 6f
        E 242 89 24 40
        E 60 99 26 7f
        E 85 89 26 40
        E 2 99 26 7f
        E 242 89 26 40
        E 213 99 26 77
        E 69 89 26 40
        E 4 99 26 71
        E 241 89 26 40
        E 232 99 24 55
        E 244 89 24 40
        E 259 99 30 7f
        E 67 89 30 40
        E 3 99 30 7f
        E 239 89 30 40
        E 751 b9 04 25
        E 73 99 24 51
        E 243 89 24 40
        E 15 b9 04 20
        E 278 99 2d 7f
        E 2 99 29 7f
        E 242 89 2d 40
        E 2 89 29 40
        E 155 b9 04 25
        E 657 99 26 7f
        E 85 99 28 74
        E 113 b9 04 30
        E 44 89 26 40
        E 84 89 28 40
        E 2 b9 04 41
        E 227 b9 04 47
        E 467 b9 04 3c
        E 94 99 24 49
        E 53 b9 04 30
        E 189 89 24 40
        E 326 99 30 7f
        E 41 b9 04 36
        E 36 89 30 40
        E 0 99 30 7f
        E 242 89 30 40
        E 620 b9 04 32
        E 105 99 24 5f
        E 241 89 24 40
        E 25 b9 04 2c
        E 241 99 29 7f
        E 9 99 2d 7f
        E 232 89 29 40
        E 10 89 2d 40
        E 128 b9 04 32
        E 418 b9 04 2e
        E 249 99 26 7f
        E 72 89 26 40
        E 3 99 26 72
        E 203 b9 04 25
        E 36 89 26 40
        E 230 99 26 4f
        E 198 b9 04 2c
        E 43 89 26 40
        E 264 99 24 5c
        E 243 89 24 40
        E 298 99 2d 7f
        E 12 99 30 7f
        E 229 89 2d 40
        E 12 89 30 40
        E 467 b9 04 30
        E 253 99 24 5a
        E 244 89 24 40
        E 314 99 29 7f
        E 5 99 2d 7f
        E 240 89 29 40
        E 2 89 2d 40
        E 534 b9 04 2c
        E 197 99 26 7f
        E 95 99 28 7f
        E 147 89 26 40
        E 95 89 28 40
        E 259 99 26 73
        E 229 89 26 40
        E 2 99 26 4b
        E 239 89 26 40
        E 37 99 26 7c
        E 60 b9 04 27
        E 179 89 26 40
        E 9 99 26 5b
        E 243 89 26 40
        E 45 99 30 64
        E 244 89 30 40
        E 27 99 30 4d
        E 227 89 30 40
        E 1 99 30 7f
        E 240 89 30 40
        E 31 99 30 6b
        E 242 89 30 40
        E 39 99 2d 7f
        E 241 89 2d 40
        E 17 99 2d 3d
        E 228 89 2d 40
        E 4 99 2d 76
        E 239 89 2d 40
        E 47 99 2d 5c
        E 244 89 2d 40
        E 21 99 29 5c
        E 237 89 29 40
        E 2 99 29 51
        E 17 b9 04 20
        E 225 89 29 40
        E 24 b9 04 18
        E 34 99 24 7f
        E 43 99 3b 7f
        E 119 b9 04 0f
        E 82 89 24 40
        E 40 89 3b 40
        E 542 b9 04 15
        E 1222 b9 04 0f
        E 324 b9 04 06
        E 1148 b9 04 00
        E 34346 b0 7b 00
        GUID {D99A441D-C0B3-46D5-902C-F7424684DDD4}
        IGNTEMPO 0 120 4 4
        SRCCOLOR 505
      >
      TAKE SEL
      NAME "01-EZdrummer-Recorded MIDI"
      TAKEVOLPAN 0 1 -1
      SOFFS 0 0
      PLAYRATE 1 1 0 -1 0 0.0025
      CHANMODE 0
      TAKECOLOR 30590805 R
      GUID {5EF3F127-3ED5-49D6-B6C7-327D325D21A3}
      RECPASS 4
      <SOURCE MIDI
        HASDATA 1 960 QN
        POOLEDEVTS {6B3EAAE7-AA4F-4F42-AA49-253F5128FC8D}
        E 2009 b9 04 0f
        E 280 b9 04 1a
        E 314 b9 04 22
        E 713 b9 04 1d
        E 1196 b9 04 18
        E 330 b9 04 12
        E 281 b9 04 09
        E 282 b9 04 03
        E 216 b9 04 00
        E 649 b9 04 06
        E 334 b9 04 0f
        E 1357 b9 04 09
        E 5144 b9 04 12
        E 251 b9 04 1d
        E 256 b9 04 2c
        E 181 b9 04 36
        E 1494 b9 04 3a
        E 546 b9 04 32
        E 113 b9 04 22
        E 162 b9 04 1a
        E 227 b9 04 12
        E 2460 b9 04 1a
        E 526 b9 04 27
        E 1006 b9 04 20
        E 203 b9 04 27
        E 819 b9 04 1d
        E 91 99 24 7f
        E 206 b9 04 15
        E 38 89 24 40
        E 447 b9 04 1a
        E 123 99 24 7f
        E 244 89 24 40
        E 220 99 26 7f
        E 100 89 26 40
        E 2 99 26 7f
        E 239 89 26 40
        E 432 b9 04 25
        E 201 b9 04 20
        E 2706 99 30 7f
        E 17 99 2d 7f
        E 227 89 30 40
        E 19 89 2d 40
        E 534 99 2d 7f
        E 2 99 29 7f
        E 239 89 2d 40
        E 3 89 29 40
        E 332 b9 04 15
        E 270 99 24 7f
        E 244 89 24 40
        E 548 99 24 7f
        E 36 b9 04 0c
        E 208 89 24 40
        E 182 99 26 7f
        E 118 99 28 7f
        E 29 b9 04 12
        E 96 89 26 40
        E 88 b9 04 18
        E 28 89 28 40
        E 362 b9 04 25
        E 303 b9 04 20
        E 401 b9 04 30
        E 282 b9 04 25
        E 411 b9 04 30
        E 177 b9 04 20
        E 302 99 30 7f
        E 33 99 2d 7f
        E 5 b9 04 27
        E 206 89 30 40
        E 31 89 2d 40
        E 16 b9 04 20
        E 83 99 30 7f
        E 32 99 2d 7f
        E 212 89 30 40
        E 31 89 2d 40
        E 90 99 30 7f
        E 26 99 2d 7f
        E 218 89 30 40
        E 26 89 2d 40
        E 119 99 2d 7f
        E 2 99 30 7f
        E 242 89 2d 40
        E 0 89 30 40
        E 133 99 29 65
        E 26 99 2d 7f
        E 111 b9 04 1a
        E 107 89 29 40
        E 27 89 2d 40
        E 106 99 29 7f
        E 48 99 2d 7f
        E 196 89 29 40
        E 45 89 2d 40
        E 404 b9 04 0f
        E 70 99 24 7f
        E 244 89 24 40
        E 355 b9 04 20
        E 41 b9 04 30
        E 131 b9 04 34
        E 19 99 24 7f
        E 17 b9 04 22
        E 44 b9 04 12
        E 53 b9 04 00
        E 130 89 24 40
        E 172 99 26 7f
        E 104 b9 04 12
        E 4 99 28 7f
        E 39 b9 04 22
        E 21 b9 04 32
        E 20 b9 04 43
        E 51 b9 04 32
        E 5 89 26 40
        E 55 b9 04 22
        E 53 89 28 40
        E 87 b9 04 15
        E 109 b9 04 25
        E 51 b9 04 36
        E 53 b9 04 46
        E 90 b9 04 36
        E 43 b9 04 25
        E 31 b9 04 15
        E 4 99 24 67
        E 40 b9 04 03
        E 14 b9 04 00
        E 191 89 24 40
        E 189 99 2d 7f
        E 9 99 30 7f
        E 44 b9 04 12
        E 16 b9 04 22
        E 49 b9 04 32
        E 10 b9 04 44
        E 2 b9 04 4d
        E 2 99 2c 26
        E 3 b9 04 54
        E 12 b9 04 44
        E 5 b9 04 34
        E 8 b9 04 22
        E 16 b9 04 12
        E 68 89 2d 40
        E 9 89 30 40
        E 123 89 2c 40
        E 186 b9 04 1d
        E 90 b9 04 2e
        E 26 b9 04 3e
        E 49 b9 04 4f
        E 2 99 2c 06
        E 2 b9 04 4f
        E 153 b9 04 3f
        E 34 b9 04 2e
        E 29 b9 04 1d
        E 24 89 2c 40
        E 26 b9 04 0c
        E 34 b9 04 00
        E 34 99 24 6d
        E 242 89 24 40
        E 128 b9 04 12
        E 7 99 26 7f
        E 43 b9 04 22
        E 12 b9 04 32
        E 5 b9 04 43
        E 2 b9 04 4c
        E 3 99 2c 2a
        E 20 b9 04 32
        E 4 b9 04 20
        E 5 89 26 40
        E 2 99 26 7f
        E 10 b9 04 0f
        E 135 b9 04 20
        E 47 b9 04 30
        E 21 89 2c 40
        E 29 89 26 40
        E 104 b9 04 20
        E 29 99 24 5f
        E 26 b9 04 0f
        E 42 b9 04 00
        E 176 89 24 40
        E 123 b9 04 12
        E 7 99 30 7f
        E 17 99 2d 7f
        E 5 b9 04 22
        E 17 b9 04 32
        E 10 b9 04 43
        E 4 b9 04 4d
        E 0 99 2c 22
        E 5 b9 04 53
        E 24 b9 04 43
        E 10 b9 04 32
        E 153 89 30 40
        E 16 89 2d 40
        E 37 89 2c 40
        E 75 b9 04 22
        E 41 b9 04 12
        E 9 99 24 68
        E 34 b9 04 00
        E 210 89 24 40
        E 119 b9 04 12
        E 15 b9 04 22
        E 0 99 29 7f
        E 2 99 2d 7f
        E 28 b9 04 32
        E 8 b9 04 43
        E 7 b9 04 4c
        E 3 99 2c 22
        E 14 b9 04 32
        E 7 b9 04 20
        E 135 b9 04 30
        E 39 89 29 40
        E 3 89 2d 40
        E 43 89 2c 40
        E 60 b9 04 20
        E 66 b9 04 0f
        E 45 b9 04 00
        E 334 b9 04 12
        E 10 b9 04 25
        E 14 99 24 7c
        E 15 b9 04 36
        E 9 b9 04 47
        E 3 b9 04 4c
        E 2 99 2c 28
        E 19 b9 04 36
        E 10 b9 04 25
        E 32 b9 04 15
        E 154 89 24 40
        E 27 89 2c 40
        E 36 b9 04 25
        E 87 b9 04 36
        E 87 b9 04 46
        E 31 b9 04 4f
        E 3 99 2c 06
        E 29 b9 04 56
        E 118 b9 04 46
        E 32 b9 04 36
        E 31 b9 04 22
        E 31 89 2c 40
        E 5 99 24 64
        E 2 b9 04 12
        E 46 b9 04 00
        E 196 89 24 40
        E 193 99 26 7f
        E 32 b9 04 12
        E 15 b9 04 22
        E 45 b9 04 32
        E 7 b9 04 44
        E 3 b9 04 4d
        E 2 99 2c 2e
        E 2 b9 04 54
        E 7 89 26 40
        E 3 99 26 7f
        E 8 b9 04 44
        E 7 b9 04 34
        E 7 b9 04 20
        E 128 b9 04 12
        E 81 89 2c 40
        E 11 89 26 40
        E 157 b9 04 22
        E 34 b9 04 32
        E 17 b9 04 43
        E 14 b9 04 4d
        E 3 99 2c 0e
        E 8 b9 04 53
        E 60 b9 04 63
        E 86 b9 04 53
        E 30 b9 04 43
        E 23 b9 04 32
        E 20 b9 04 22
        E 17 89 2c 40
        E 7 b9 04 12
        E 39 b9 04 00
        E 50 99 24 64
        E 245 89 24 40
        E 99 99 2d 7f
        E 17 99 30 7f
        E 19 b9 04 12
        E 17 b9 04 22
        E 36 b9 04 34
        E 3 b9 04 47
        E 2 b9 04 4c
        E 2 99 2c 4a
        E 3 b9 04 5c
        E 16 b9 04 49
        E 5 b9 04 36
        E 9 b9 04 25
        E 50 b9 04 36
        E 65 89 2d 40
        E 14 89 30 40
        E 79 89 2c 40
        E 20 b9 04 25
        E 56 b9 04 15
        E 147 b9 04 06
        E 140 b9 04 18
        E 20 b9 04 29
        E 19 b9 04 3a
        E 16 b9 04 4a
        E 2 b9 04 4d
        E 3 99 2c 10
        E 13 b9 04 5a
        E 29 b9 04 4a
        E 57 b9 04 3a
        E 145 89 2c 40
        E 46 b9 04 46
        E 58 b9 04 36
        E 39 b9 04 25
        E 38 b9 04 15
        E 10 99 24 63
        E 48 b9 04 03
        E 15 b9 04 00
        E 181 89 24 40
        E 138 99 26 7f
        E 17 b9 04 12
        E 10 b9 04 22
        E 12 b9 04 32
        E 29 b9 04 43
        E 2 b9 04 4c
        E 0 99 2c 2a
        E 2 b9 04 54
        E 20 b9 04 44
        E 4 b9 04 34
        E 3 89 26 40
        E 3 99 26 7f
        E 4 b9 04 22
        E 109 b9 04 32
        E 99 89 2c 40
        E 29 89 26 40
        E 46 b9 04 22
        E 41 b9 04 12
        E 7 99 24 60
        E 37 b9 04 00
        E 208 89 24 40
        E 77 b9 04 12
        E 36 b9 04 22
        E 14 b9 04 32
        E 6 b9 04 44
        E 1 b9 04 4d
        E 2 99 2c 30
        E 3 b9 04 54
        E 2 99 30 7f
        E 11 99 2d 7f
        E 2 b9 04 44
        E 7 b9 04 32
        E 13 b9 04 22
        E 75 b9 04 32
        E 45 b9 04 43
        E 87 89 2c 40
        E 2 89 30 40
        E 13 89 2d 40
        E 29 b9 04 32
        E 33 b9 04 22
        E 37 b9 04 12
        E 31 99 24 64
        E 17 b9 04 00
        E 227 89 24 40
        E 101 b9 04 12
        E 15 b9 04 22
        E 37 b9 04 32
        E 5 b9 04 43
        E 6 99 2d 7f
        E 3 b9 04 4c
        E 2 99 2c 24
        E 5 99 29 7c
        E 7 b9 04 32
        E 7 b9 04 20
        E 17 b9 04 0f
        E 119 b9 04 20
        E 32 b9 04 30
        E 53 89 2d 40
        E 2 b9 04 41
        E 2 89 2c 40
        E 5 89 29 40
        E 84 b9 04 30
        E 8 99 24 68
        E 27 b9 04 20
        E 36 b9 04 0f
        E 29 b9 04 00
        E 151 89 24 40
        E 182 b9 04 12
        E 7 b9 04 25
        E 3 99 24 7f
        E 2 b9 04 38
        E 3 b9 04 49
        E 2 b9 04 4c
        E 2 99 2c 34
        E 35 b9 04 5b
        E 6 b9 04 6b
        E 15 b9 04 58
        E 7 b9 04 47
        E 15 b9 04 36
        E 50 b9 04 25
        E 73 b9 04 15
        E 34 89 24 40
        E 7 89 2c 40
        E 94 b9 04 25
        E 130 b9 04 36
        E 76 b9 04 46
        E 40 b9 04 4f
        E 0 99 2c 06
        E 97 b9 04 4a
        E 46 b9 04 3a
        E 22 99 24 5e
        E 14 b9 04 29
        E 39 b9 04 18
        E 27 89 2c 40
        E 26 b9 04 06
        E 37 b9 04 00
        E 100 89 24 40
        E 265 99 26 7f
        E 4 99 2d 7f
        E 61 b9 04 12
        E 27 b9 04 22
        E 19 b9 04 32
        E 11 b9 04 43
        E 2 b9 04 4c
        E 3 99 2c 22
        E 5 b9 04 53
        E 12 b9 04 43
        E 8 b9 04 32
        E 6 b9 04 22
        E 23 b9 04 12
        E 60 89 26 40
        E 2 89 2d 40
        E 127 89 2c 40
        E 98 b9 04 22
        E 29 b9 04 32
        E 22 b9 04 43
        E 14 b9 04 4d
        E 3 99 2c 0c
        E 9 b9 04 53
        E 155 b9 04 43
        E 26 b9 04 32
        E 22 b9 04 22
        E 26 b9 04 12
        E 6 89 2c 40
        E 17 99 24 5d
        E 19 b9 04 00
        E 222 89 24 40
        E 135 99 30 7f
        E 8 99 2d 7f
        E 48 b9 04 12
        E 15 b9 04 22
        E 40 b9 04 34
        E 6 b9 04 44
        E 2 b9 04 4d
        E 2 99 2c 44
        E 3 b9 04 55
        E 14 b9 04 43
        E 4 b9 04 32
        E 8 b9 04 20
        E 92 89 30 40
        E 2 b9 04 30
        E 5 89 2d 40
        E 113 89 2c 40
        E 51 b9 04 20
        E 83 b9 04 0f
        E 84 b9 04 00
        E 194 b9 04 12
        E 21 b9 04 22
        E 10 b9 04 32
        E 17 b9 04 43
        E 5 b9 04 4c
        E 2 99 2c 12
        E 5 b9 04 53
        E 34 b9 04 43
        E 202 89 2c 40
        E 47 b9 04 32
        E 26 b9 04 22
        E 41 99 24 5f
        E 3 b9 04 12
        E 53 b9 04 00
        E 186 89 24 40
        E 116 99 26 7f
        E 24 b9 04 12
        E 9 b9 04 22
        E 27 b9 04 32
        E 15 b9 04 44
        E 2 b9 04 4d
        E 2 99 2c 2c
        E 3 b9 04 56
        E 3 89 26 40
        E 2 99 26 7f
        E 14 b9 04 46
        E 5 b9 04 36
        E 14 b9 04 25
        E 202 89 2c 40
        E 9 89 26 40
        E 14 b9 04 30
        E 49 b9 04 20
        E 38 99 24 58
        E 27 b9 04 0f
        E 43 b9 04 00
        E 172 89 24 40
        E 109 b9 04 12
        E 22 99 2d 7f
        E 7 b9 04 22
        E 7 99 30 7f
        E 7 b9 04 32
        E 5 b9 04 44
        E 5 b9 04 4d
        E 2 99 2c 32
        E 2 b9 04 54
        E 19 b9 04 43
        E 8 b9 04 32
        E 145 b9 04 43
        E 37 89 2d 40
        E 14 89 30 40
        E 17 89 2c 40
        E 60 b9 04 32
        E 32 b9 04 22
        E 34 b9 04 12
        E 7 99 24 65
        E 38 b9 04 00
        E 206 89 24 40
        E 135 99 2d 7f
        E 3 b9 04 12
        E 9 b9 04 22
        E 17 99 29 7f
        E 12 b9 04 32
        E 7 b9 04 43
        E 5 b9 04 4c
        E 2 99 2c 26
        E 3 b9 04 53
        E 10 b9 04 43
        E 7 b9 04 32
        E 8 b9 04 20
        E 23 b9 04 0f
        E 73 b9 04 20
        E 50 b9 04 30
        E 15 89 2d 40
        E 27 89 29 40
        E 26 89 2c 40
        E 77 b9 04 20
        E 58 b9 04 0f
        E 39 b9 04 00
        E 331 b9 04 12
        E 11 99 24 72
        E 3 b9 04 25
        E 32 b9 04 36
        E 5 b9 04 46
        E 2 b9 04 4d
        E 2 99 2c 26
        E 19 b9 04 36
        E 11 b9 04 22
        E 21 b9 04 12
        E 150 89 24 40
        E 44 89 2c 40
        E 112 b9 04 22
        E 146 b9 04 32
        E 46 b9 04 43
        E 31 b9 04 4f
        E 2 99 2c 08
        E 8 b9 04 53
        E 145 b9 04 43
        E 29 b9 04 32
        E 5 99 24 77
        E 17 b9 04 22
        E 33 b9 04 12
        E 5 89 2c 40
        E 39 b9 04 00
        E 150 89 24 40
        E 215 99 26 7f
        E 24 b9 04 12
        E 12 b9 04 25
        E 41 89 26 40
        E 3 99 26 7f
        E 5 b9 04 36
        E 9 b9 04 46
        E 3 b9 04 4d
        E 2 99 2c 28
        E 3 b9 04 56
        E 22 b9 04 46
        E 4 b9 04 34
        E 10 b9 04 22
        E 55 b9 04 12
        E 128 89 26 40
        E 22 89 2c 40
        E 116 b9 04 22
        E 24 b9 04 32
        E 19 b9 04 43
        E 15 b9 04 4d
        E 2 99 2c 0e
        E 7 b9 04 53
        E 52 b9 04 63
        E 89 b9 04 53
        E 24 b9 04 43
        E 27 b9 04 32
        E 17 b9 04 22
        E 23 b9 04 12
        E 3 89 2c 40
        E 29 99 24 5c
        E 12 b9 04 00
        E 232 89 24 40
        E 145 99 2d 7f
        E 5 99 30 7f
        E 9 b9 04 12
        E 15 b9 04 22
        E 36 b9 04 32
        E 5 b9 04 43
        E 2 b9 04 4c
        E 3 99 2c 40
        E 2 b9 04 53
        E 15 b9 04 41
        E 5 b9 04 30
        E 7 b9 04 20
        E 140 89 2d 40
        E 5 89 30 40
        E 7 b9 04 30
        E 61 89 2c 40
        E 86 b9 04 36
        E 66 b9 04 25
        E 43 b9 04 15
        E 53 b9 04 03
        E 19 b9 04 00
        E 183 b9 04 12
        E 23 b9 04 25
        E 9 b9 04 36
        E 13 b9 04 46
        E 2 b9 04 4c
        E 2 99 2c 18
        E 8 b9 04 56
        E 77 b9 04 46
        E 153 b9 04 51
        E 4 89 2c 40
        E 61 b9 04 41
        E 31 b9 04 30
        E 5 99 24 5d
        E 21 b9 04 20
        E 49 b9 04 0f
        E 48 b9 04 00
        E 126 89 24 40
        E 169 99 26 7f
        E 31 b9 04 12
        E 54 b9 04 22
        E 9 b9 04 34
        E 5 b9 04 44
        E 2 b9 04 4c
        E 3 99 2c 36
        E 2 b9 04 55
        E 17 b9 04 44
        E 0 b9 04 34
        E 7 b9 04 22
        E 15 b9 04 12
        E 99 89 26 40
        E 101 89 2c 40
        E 34 99 26 7f
        E 114 b9 04 22
        E 130 89 26 40
        E 7 b9 04 2c
        E 141 99 30 7f
        E 35 b9 04 25
        E 209 89 30 40
        E 128 99 30 7f
        E 110 b9 04 1a
        E 133 89 30 40
        E 119 99 2d 7f
        E 145 b9 04 2c
        E 37 b9 04 3c
        E 33 b9 04 4c
        E 2 b9 04 4d
        E 2 99 2c 08
        E 25 89 2d 40
        E 102 99 2d 7f
        E 26 b9 04 3c
        E 39 b9 04 2c
        E 34 b9 04 1a
        E 19 89 2c 40
        E 14 b9 04 09
        E 20 b9 04 00
        E 89 89 2d 40
        E 155 99 24 7f
        E 29 b9 04 12
        E 26 b9 04 22
        E 10 b9 04 32
        E 9 b9 04 43
        E 3 b9 04 4c
        E 2 99 2c 24
        E 5 b9 04 53
        E 17 b9 04 41
        E 7 b9 04 30
        E 37 b9 04 20
        E 96 89 24 40
        E 3 b9 04 0f
        E 80 89 2c 40
        E 113 b9 04 20
        E 36 b9 04 30
        E 37 b9 04 41
        E 24 b9 04 4d
        E 2 99 2c 0a
        E 7 b9 04 51
        E 134 b9 04 58
        E 40 b9 04 47
        E 32 b9 04 36
        E 26 b9 04 25
        E 3 89 2c 40
        E 22 99 24 60
        E 4 b9 04 15
        E 39 b9 04 03
        E 9 b9 04 00
        E 189 89 24 40
        E 162 99 26 7f
        E 22 b9 04 12
        E 14 b9 04 22
        E 46 b9 04 32
        E 7 b9 04 43
        E 3 b9 04 4c
        E 2 99 2c 2e
        E 2 b9 04 54
        E 8 99 28 7f
        E 7 b9 04 44
        E 7 b9 04 32
        E 7 b9 04 20
        E 20 b9 04 0f
        E 99 89 26 40
        E 94 89 2c 40
        E 10 89 28 40
        E 123 b9 04 20
        E 29 b9 04 30
        E 24 b9 04 41
        E 15 b9 04 4d
        E 2 99 2c 0c
        E 7 b9 04 51
        E 42 b9 04 61
        E 135 b9 04 51
        E 29 b9 04 41
        E 23 b9 04 30
        E 5 89 2c 40
        E 15 b9 04 20
        E 39 b9 04 0f
        E 39 b9 04 00
        E 24 99 24 66
        E 241 89 24 40
        E 123 99 30 7f
        E 3 99 2d 7f
        E 19 b9 04 12
        E 44 b9 04 22
        E 5 b9 04 34
        E 2 b9 04 47
        E 3 b9 04 4c
        E 2 99 2c 44
        E 4 b9 04 58
        E 13 b9 04 46
        E 5 b9 04 34
        E 7 b9 04 22
        E 17 b9 04 12
        E 120 89 30 40
        E 3 89 2d 40
        E 29 b9 04 1d
        E 45 89 2c 40
        E 87 b9 04 29
        E 170 b9 04 18
        E 157 b9 04 0f
        E 41 b9 04 20
        E 24 b9 04 30
        E 22 b9 04 41
        E 15 b9 04 4d
        E 2 99 2c 10
        E 7 b9 04 51
        E 56 b9 04 41
        E 154 b9 04 51
        E 27 89 2c 40
        E 106 b9 04 41
        E 36 b9 04 30
        E 29 b9 04 20
        E 36 b9 04 0f
        E 13 99 24 6c
        E 20 b9 04 00
        E 221 89 24 40
        E 102 99 26 7f
        E 2 b9 04 12
        E 3 b9 04 22
        E 7 b9 04 32
        E 34 b9 04 43
        E 5 b9 04 4c
        E 2 99 2c 1c
        E 2 b9 04 54
        E 5 b9 04 65
        E 15 b9 04 55
        E 7 b9 04 44
        E 7 b9 04 34
        E 8 89 26 40
        E 2 99 26 7f
        E 36 b9 04 22
        E 160 89 2c 40
        E 41 b9 04 30
        E 2 89 26 40
        E 65 b9 04 20
        E 39 99 24 50
        E 24 b9 04 0f
        E 42 b9 04 00
        E 178 89 24 40
        E 99 b9 04 12
        E 36 99 2d 7f
        E 2 b9 04 22
        E 8 b9 04 32
        E 0 99 30 7f
        E 7 b9 04 43
        E 2 b9 04 4c
        E 5 99 2c 28
        E 12 b9 04 32
        E 10 b9 04 20
        E 114 b9 04 30
        E 46 b9 04 41
        E 38 89 2d 40
        E 10 89 30 40
        E 12 89 2c 40
        E 75 b9 04 30
        E 26 b9 04 20
        E 32 99 24 5f
        E 10 b9 04 0f
        E 30 b9 04 00
        E 202 89 24 40
        E 130 b9 04 12
        E 2 99 2d 7f
        E 10 b9 04 22
        E 9 99 29 7f
        E 25 b9 04 32
        E 7 b9 04 43
        E 5 b9 04 4c
        E 2 99 2c 26
        E 17 b9 04 32
        E 7 b9 04 22
        E 13 b9 04 12
        E 123 b9 04 22
        E 26 89 2d 40
        E 13 b9 04 32
        E 6 89 29 40
        E 39 89 2c 40
        E 124 b9 04 22
        E 38 b9 04 12
        E 49 b9 04 00
        E 331 b9 04 12
        E 7 99 24 79
        E 5 b9 04 25
        E 12 b9 04 36
        E 26 b9 04 46
        E 3 b9 04 4c
        E 2 99 2c 28
        E 2 b9 04 56
        E 22 b9 04 46
        E 3 b9 04 36
        E 19 b9 04 25
        E 63 b9 04 15
        E 87 89 24 40
        E 48 89 2c 40
        E 111 b9 04 25
        E 155 b9 04 36
        E 63 b9 04 46
        E 24 b9 04 4f
        E 3 99 2c 08
        E 31 b9 04 56
        E 113 b9 04 46
        E 32 b9 04 36
        E 19 99 24 6e
        E 9 b9 04 25
        E 32 b9 04 15
        E 7 89 2c 40
        E 39 b9 04 03
        E 19 b9 04 00
        E 138 89 24 40
        E 191 99 26 7f
        E 51 b9 04 12
        E 36 89 26 40
        E 3 99 26 7f
        E 86 b9 04 22
        E 16 b9 04 32
        E 11 b9 04 44
        E 5 b9 04 4c
        E 2 99 2c 1c
        E 4 b9 04 54
        E 15 b9 04 44
        E 12 b9 04 34
        E 68 b9 04 22
        E 22 89 26 40
        E 108 b9 04 18
        E 15 89 2c 40
        E 73 b9 04 29
        E 28 b9 04 3a
        E 25 b9 04 4a
        E 10 b9 04 4f
        E 1 99 2c 0a
        E 32 b9 04 5a
        E 121 b9 04 4a
        E 24 b9 04 3a
        E 26 b9 04 29
        E 27 99 24 60
        E 2 b9 04 18
        E 13 89 2c 40
        E 19 b9 04 06
        E 19 b9 04 00
        E 191 89 24 40
        E 174 99 2d 7f
        E 3 99 30 7f
        E 36 b9 04 12
        E 11 b9 04 25
        E 42 b9 04 36
        E 12 b9 04 47
        E 3 b9 04 4c
        E 0 99 2c 2a
        E 2 b9 04 58
        E 19 b9 04 47
        E 7 b9 04 36
        E 11 b9 04 25
        E 47 b9 04 15
        E 48 89 2d 40
        E 2 89 30 40
        E 108 89 2c 40
        E 75 b9 04 0f
        E 224 b9 04 20
        E 61 b9 04 30
        E 215 b9 04 41
        E 135 b9 04 30
        E 46 b9 04 20
        E 72 b9 04 0f
        E 40 99 26 7f
        E 88 b9 04 00
        E 82 89 26 40
        E 3 99 26 7f
        E 92 b9 04 12
        E 50 b9 04 22
        E 54 89 26 40
        E 2 99 26 6b
        E 31 b9 04 12
        E 165 b9 04 09
        E 17 89 26 40
        E 2 99 26 77
        E 152 b9 04 15
        E 53 89 26 40
        E 3 99 26 7a
        E 198 89 26 40
        E 0 99 26 6e
        E 159 b9 04 20
        E 37 99 30 7f
        E 48 89 26 40
        E 147 89 30 40
        E 2 99 30 7f
        E 168 89 30 40
        E 2 99 30 7f
        E 217 89 30 40
        E 3 99 30 7f
        E 34 b9 04 18
        E 147 99 2d 7f
        E 60 89 30 40
        E 148 89 2d 40
        E 2 99 2d 7f
        E 147 89 2d 40
        E 3 99 2d 74
        E 14 b9 04 29
        E 150 b9 04 30
        E 17 89 2d 40
        E 2 99 2d 7f
        E 56 b9 04 20
        E 85 b9 04 0f
        E 82 99 24 7a
        E 19 89 2d 40
        E 225 89 24 40
        E 161 b9 04 1a
        E 177 b9 04 2c
        E 58 b9 04 3c
        E 44 b9 04 4c
        E 2 99 2c 06
        E 2 b9 04 4c
        E 89 99 24 72
        E 44 b9 04 3c
        E 37 b9 04 2c
        E 38 b9 04 1a
        E 34 89 2c 40
        E 14 b9 04 09
        E 44 b9 04 00
        E 33 89 24 40
        E 177 99 26 7f
        E 82 99 28 66
        E 109 b9 04 12
        E 34 b9 04 22
        E 16 b9 04 32
        E 3 89 26 40
        E 20 b9 04 43
        E 9 b9 04 4c
        E 0 99 2c 10
        E 19 b9 04 32
        E 12 b9 04 20
        E 22 89 28 40
        E 68 b9 04 0f
        E 123 89 2c 40
        E 17 b9 04 20
        E 22 b9 04 30
        E 26 b9 04 41
        E 36 b9 04 4f
        E 2 99 2c 08
        E 131 b9 04 30
        E 27 b9 04 20
        E 36 b9 04 0f
        E 10 99 24 57
        E 22 b9 04 00
        E 19 89 2c 40
        E 202 89 24 40
        E 127 99 2d 7f
        E 2 99 30 7f
        E 34 b9 04 12
        E 11 b9 04 22
        E 44 b9 04 32
        E 5 b9 04 43
        E 3 b9 04 4d
        E 2 99 2c 36
        E 2 b9 04 53
        E 18 b9 04 43
        E 4 b9 04 32
        E 5 b9 04 22
        E 11 b9 04 12
        E 100 89 2d 40
        E 3 89 30 40
        E 26 b9 04 22
        E 75 89 2c 40
        E 167 b9 04 12
        E 133 b9 04 00
        E 162 b9 04 12
        E 28 b9 04 22
        E 17 b9 04 32
        E 15 b9 04 43
        E 9 b9 04 4c
        E 2 99 2c 14
        E 242 89 2c 40
        E 31 b9 04 32
        E 35 b9 04 22
        E 33 99 24 55
        E 3 b9 04 12
        E 58 b9 04 00
        E 184 89 24 40
        E 99 99 26 7f
        E 12 b9 04 12
        E 19 b9 04 22
        E 24 b9 04 32
        E 9 b9 04 44
        E 0 b9 04 4c
        E 3 99 2c 2c
        E 2 b9 04 55
        E 8 89 26 40
        E 2 99 26 7f
        E 13 b9 04 44
        E 6 b9 04 34
        E 56 b9 04 22
        E 150 b9 04 32
        E 8 89 2c 40
        E 8 89 26 40
        E 98 b9 04 20
        E 5 99 24 56
        E 50 b9 04 0f
        E 39 b9 04 00
        E 152 89 24 40
        E 118 b9 04 12
        E 8 99 2d 7f
        E 7 99 30 7f
        E 5 b9 04 22
        E 11 b9 04 32
        E 10 b9 04 43
        E 6 b9 04 4c
        E 2 99 2c 1e
        E 2 b9 04 53
        E 14 b9 04 43
        E 10 b9 04 32
        E 142 b9 04 43
        E 35 89 2d 40
        E 6 89 30 40
        E 32 89 2c 40
        E 61 b9 04 32
        E 35 b9 04 22
        E 20 99 24 64
        E 20 b9 04 12
        E 47 b9 04 00
        E 178 89 24 40
        E 120 99 2d 7f
        E 15 b9 04 12
        E 0 99 29 7f
        E 32 b9 04 22
        E 18 b9 04 34
        E 5 b9 04 44
        E 3 b9 04 4d
        E 2 99 2c 30
        E 2 b9 04 55
        E 14 b9 04 43
        E 8 b9 04 32
        E 5 b9 04 22
        E 99 b9 04 32
        E 41 89 2d 40
        E 15 89 29 40
        E 58 89 2c 40
        E 63 b9 04 22
        E 43 b9 04 12
        E 46 b9 04 00
        E 345 b9 04 12
        E 5 99 24 7a
        E 3 b9 04 22
        E 9 b9 04 32
        E 29 b9 04 44
        E 5 b9 04 4d
        E 2 99 2c 26
        E 3 b9 04 55
        E 17 b9 04 43
        E 7 b9 04 32
        E 12 b9 04 20
        E 158 89 24 40
        E 4 b9 04 12
        E 43 89 2c 40
        E 119 b9 04 22
        E 119 b9 04 32
        E 62 b9 04 43
        E 34 b9 04 4f
        E 2 99 2c 08
        E 9 b9 04 53
        E 153 b9 04 43
        E 34 b9 04 32
        E 21 b9 04 22
        E 2 99 24 6c
        E 25 89 2c 40
        E 12 b9 04 12
        E 46 b9 04 00
        E 160 89 24 40
        E 184 99 26 7f
        E 18 b9 04 12
        E 18 b9 04 22
        E 34 b9 04 32
        E 9 99 28 7f
        E 7 b9 04 43
        E 3 b9 04 4d
        E 2 99 2c 1c
        E 3 b9 04 53
        E 24 b9 04 41
        E 7 b9 04 30
        E 10 b9 04 20
        E 109 89 26 40
        E 16 b9 04 0f
        E 63 89 28 40
        E 12 89 2c 40
        E 135 b9 04 20
        E 29 b9 04 30
        E 29 b9 04 41
        E 15 b9 04 4d
        E 2 99 2c 0e
        E 3 b9 04 51
        E 35 b9 04 61
        E 134 b9 04 51
        E 26 b9 04 41
        E 22 b9 04 30
        E 20 b9 04 20
        E 2 89 2c 40
        E 36 b9 04 0f
        E 31 99 24 65
        E 7 b9 04 00
        E 235 89 24 40
        E 148 99 2d 7f
        E 14 99 30 7f
        E 5 b9 04 12
        E 12 b9 04 25
        E 41 b9 04 36
        E 2 b9 04 47
        E 3 b9 04 4c
        E 2 99 2c 3e
        E 5 b9 04 58
        E 11 b9 04 47
        E 9 b9 04 36
        E 7 b9 04 20
        E 106 b9 04 30
        E 27 89 2d 40
        E 12 89 30 40
        E 65 89 2c 40
        E 109 b9 04 20
        E 161 b9 04 0f
        E 184 b9 04 20
        E 17 b9 04 30
        E 20 b9 04 41
        E 12 b9 04 4d
        E 2 99 2c 10
        E 2 b9 04 51
        E 145 b9 04 41
        E 27 b9 04 30
        E 23 b9 04 20
        E 47 89 2c 40
        E 0 b9 04 0f
        E 48 b9 04 00
        E 104 99 26 7f
        E 34 89 26 40
        E 2 99 26 7f
        E 160 b9 04 12
        E 79 89 26 40
        E 105 99 26 79
        E 33 89 26 40
        E 2 99 26 7f
        E 129 b9 04 22
        E 36 b9 04 32
        E 45 b9 04 43
        E 30 89 26 40
        E 138 b9 04 32
        E 6 99 24 5b
        E 32 b9 04 22
        E 50 b9 04 12
        E 105 b9 04 00
        E 55 89 24 40
        E 119 99 2d 7f
        E 7 99 30 7f
        E 58 b9 04 12
        E 29 b9 04 22
        E 22 b9 04 32
        E 16 b9 04 43
        E 15 b9 04 4c
        E 0 99 2c 0e
        E 39 b9 04 32
        E 58 89 2d 40
        E 7 89 30 40
        E 140 89 2c 40
        E 44 b9 04 22
        E 1 99 24 52
        E 93 b9 04 12
        E 149 89 24 40
        E 58 b9 04 03
        E 83 99 2d 7f
        E 2 99 29 7f
        E 39 b9 04 15
        E 41 b9 04 25
        E 56 b9 04 15
        E 106 89 2d 40
        E 2 89 29 40
        E 58 b9 04 25
        E 49 b9 04 36
        E 2 99 29 7f
        E 41 99 2d 7f
        E 77 b9 04 25
        E 39 b9 04 15
        E 44 b9 04 03
        E 12 b9 04 00
        E 31 89 29 40
        E 41 89 2d 40
        E 155 99 24 65
        E 43 b9 04 12
        E 20 b9 04 22
        E 11 b9 04 32
        E 10 b9 04 43
        E 29 b9 04 32
        E 19 b9 04 22
        E 81 b9 04 12
        E 31 89 24 40
        E 203 b9 04 22
        E 41 b9 04 32
        E 37 b9 04 43
        E 22 b9 04 4c
        E 3 99 2c 08
        E 16 b9 04 53
        E 158 b9 04 43
        E 30 b9 04 32
        E 24 b9 04 22
        E 16 99 24 60
        E 3 89 2c 40
        E 15 b9 04 12
        E 50 b9 04 00
        E 174 89 24 40
        E 198 b9 04 12
        E 7 b9 04 25
        E 3 99 26 7f
        E 14 b9 04 36
        E 27 b9 04 46
        E 2 b9 04 4c
        E 2 99 2c 28
        E 3 b9 04 56
        E 22 b9 04 44
        E 5 b9 04 34
        E 12 b9 04 20
        E 15 89 26 40
        E 2 99 26 7f
        E 46 b9 04 0f
        E 140 89 2c 40
        E 55 89 26 40
        E 93 b9 04 20
        E 40 b9 04 30
        E 32 b9 04 41
        E 24 b9 04 4d
        E 2 99 2c 0a
        E 8 b9 04 51
        E 154 b9 04 41
        E 29 b9 04 30
        E 20 b9 04 20
        E 33 89 2c 40
        E 2 b9 04 0f
        E 44 b9 04 00
        E 19 99 24 56
        E 245 89 24 40
        E 145 99 2d 7f
        E 2 b9 04 12
        E 7 99 30 7f
        E 41 b9 04 22
        E 10 b9 04 34
        E 2 b9 04 46
        E 3 b9 04 4f
        E 2 99 2c 42
        E 5 b9 04 56
        E 12 b9 04 44
        E 7 b9 04 32
        E 7 b9 04 20
        E 126 b9 04 1a
        E 19 89 2d 40
        E 10 89 30 40
        E 58 89 2c 40
        E 240 b9 04 2c
        E 33 b9 04 3c
        E 36 b9 04 4c
        E 5 b9 04 4f
        E 2 99 2c 08
        E 182 b9 04 3c
        E 48 b9 04 2c
        E 11 89 2c 40
        E 37 b9 04 1a
        E 61 b9 04 09
        E 34 b9 04 00
        E 212 99 26 7f
        E 65 89 26 40
        E 3 99 26 7f
        E 39 b9 04 12
        E 24 b9 04 22
        E 14 b9 04 32
        E 22 b9 04 43
        E 10 b9 04 4c
        E 2 99 2c 12
        E 29 b9 04 32
        E 101 89 26 40
        E 13 b9 04 22
        E 77 b9 04 12
        E 22 89 2c 40
        E 10 99 26 77
        E 88 b9 04 00
        E 102 89 26 40
        E 2 99 26 75
        E 102 b9 04 12
        E 31 b9 04 22
        E 27 b9 04 32
        E 38 89 26 40
        E 2 99 26 6f
        E 100 b9 04 22
        E 75 b9 04 12
        E 32 89 26 40
        E 2 99 26 79
        E 215 89 26 40
        E 2 99 26 6b
        E 34 b9 04 22
        E 130 b9 04 27
        E 78 89 26 40
        E 80 b9 04 1a
        E 133 99 30 7f
        E 49 b9 04 2c
        E 195 89 30 40
        E 133 b9 04 20
        E 65 99 26 7e
        E 176 99 30 7f
        E 65 89 26 40
        E 80 b9 04 2e
        E 27 b9 04 3e
        E 21 99 26 7f
        E 10 b9 04 4c
        E 2 99 2c 0a
        E 8 b9 04 4f
        E 31 89 30 40
        E 87 b9 04 3f
        E 38 b9 04 2e
        E 26 b9 04 1d
        E 32 b9 04 0c
        E 8 89 26 40
        E 12 b9 04 00
        E 2 89 2c 40
        E 242 99 24 7f
        E 27 b9 04 12
        E 11 b9 04 22
        E 15 b9 04 32
        E 17 b9 04 44
        E 0 b9 04 4c
        E 3 99 2c 1e
        E 4 b9 04 54
        E 16 b9 04 44
        E 13 b9 04 34
        E 58 b9 04 22
        E 80 89 24 40
        E 7 b9 04 12
        E 65 89 2c 40
        E 70 b9 04 22
        E 51 b9 04 32
        E 138 b9 04 3a
        E 157 b9 04 2e
        E 82 99 24 67
        E 100 b9 04 27
        E 141 89 24 40
        E 180 b9 04 1d
        E 10 99 26 7f
        E 93 99 28 75
        E 57 b9 04 18
        E 57 b9 04 29
        E 34 89 26 40
        E 96 89 28 40
        E 15 b9 04 18
        E 201 b9 04 29
        E 33 b9 04 3a
        E 32 b9 04 4a
        E 12 b9 04 4f
        E 3 99 2c 08
        E 140 b9 04 3a
        E 33 b9 04 29
        E 36 b9 04 18
        E 32 89 2c 40
        E 7 b9 04 06
        E 5 99 24 59
        E 22 b9 04 00
        E 222 89 24 40
        E 132 99 2d 7f
        E 10 99 30 7f
        E 19 b9 04 12
        E 42 b9 04 22
        E 12 b9 04 32
        E 10 b9 04 43
        E 2 b9 04 4c
        E 2 99 2c 26
        E 3 b9 04 53
        E 22 b9 04 43
        E 4 b9 04 32
        E 14 b9 04 20
        E 105 89 2d 40
        E 9 89 30 40
        E 85 89 2c 40
        E 3 b9 04 27
        E 89 b9 04 15
        E 84 b9 04 03
        E 32 b9 04 00
        E 218 b9 04 12
        E 28 b9 04 22
        E 19 b9 04 32
        E 51 b9 04 22
        E 95 b9 04 32
        E 164 b9 04 22
        E 36 b9 04 12
        E 34 99 24 5c
        E 24 b9 04 00
        E 220 89 24 40
        E 104 b9 04 12
        E 9 99 26 7f
        E 15 b9 04 22
        E 22 b9 04 32
        E 7 b9 04 44
        E 2 b9 04 4c
        E 3 99 2c 26
        E 2 b9 04 55
        E 17 b9 04 44
        E 7 b9 04 34
        E 12 89 26 40
        E 3 99 26 7f
        E 2 b9 04 22
        E 121 b9 04 1d
        E 46 b9 04 2e
        E 31 89 2c 40
        E 41 89 26 40
        E 82 99 24 5c
        E 17 b9 04 1d
        E 63 b9 04 0c
        E 34 b9 04 00
        E 130 89 24 40
        E 155 99 2d 7f
        E 5 b9 04 12
        E 7 99 30 7f
        E 12 b9 04 25
        E 13 b9 04 36
        E 12 b9 04 46
        E 2 b9 04 4c
        E 3 99 2c 1c
        E 4 b9 04 56
        E 17 b9 04 46
        E 7 b9 04 36
        E 44 b9 04 25
        E 77 b9 04 36
        E 41 89 2d 40
        E 12 89 30 40
        E 41 89 2c 40
        E 90 b9 04 22
        E 19 99 24 61
        E 17 b9 04 12
        E 48 b9 04 00
        E 179 89 24 40
        E 157 99 2d 7f
        E 15 b9 04 12
        E 24 b9 04 22
        E 7 b9 04 32
        E 5 b9 04 43
        E 22 b9 04 32
        E 9 b9 04 20
        E 27 b9 04 0f
        E 135 89 2d 40
        E 52 b9 04 20
        E 21 b9 04 30
        E 36 b9 04 41
        E 31 99 29 7f
        E 34 99 2d 7f
        E 58 b9 04 30
        E 22 b9 04 20
        E 36 b9 04 0f
        E 29 b9 04 00
        E 65 89 29 40
        E 32 89 2d 40
        E 154 99 24 71
        E 17 b9 04 12
        E 20 b9 04 22
        E 16 b9 04 32
        E 8 b9 04 43
        E 2 b9 04 4c
        E 3 99 2c 22
        E 4 b9 04 54
        E 20 b9 04 44
        E 12 b9 04 34
        E 62 b9 04 22
        E 80 89 24 40
        E 2 b9 04 12
        E 63 89 2c 40
        E 138 b9 04 22
        E 32 b9 04 32
        E 36 b9 04 43
        E 34 b9 04 4f
        E 2 99 2c 08
        E 17 b9 04 53
        E 152 b9 04 43
        E 34 b9 04 32
        E 21 b9 04 22
        E 7 99 24 5f
        E 13 89 2c 40
        E 19 b9 04 12
        E 51 b9 04 00
        E 160 89 24 40
        E 207 99 26 7f
        E 3 b9 04 12
        E 14 b9 04 22
        E 36 b9 04 32
        E 10 b9 04 44
        E 2 b9 04 4c
        E 3 99 2c 2c
        E 3 b9 04 54
        E 16 b9 04 44
        E 5 b9 04 34
        E 12 b9 04 20
        E 5 89 26 40
        E 2 99 26 7f
        E 58 b9 04 0f
        E 143 89 2c 40
        E 41 89 26 40
        E 85 b9 04 20
        E 34 b9 04 30
        E 34 b9 04 41
        E 23 b9 04 4d
        E 3 99 2c 0a
        E 12 b9 04 51
        E 135 b9 04 58
        E 41 b9 04 47
        E 30 b9 04 36
        E 26 89 2c 40
        E 5 b9 04 22
        E 34 b9 04 12
        E 36 99 24 5c
        E 14 b9 04 00
        E 229 89 24 40
        E 151 b9 04 12
        E 2 99 2d 7f
        E 8 b9 04 25
        E 4 99 30 7f
        E 36 b9 04 36
        E 10 b9 04 47
        E 3 b9 04 4d
        E 2 99 2c 2c
        E 2 b9 04 58
        E 17 b9 04 47
        E 7 b9 04 36
        E 10 b9 04 25
        E 121 b9 04 1d
        E 24 89 2d 40
        E 12 89 30 40
        E 51 89 2c 40
        E 11 b9 04 2e
        E 252 b9 04 1d
        E 90 b9 04 0c
        E 65 b9 04 00
        E 132 b9 04 12
        E 30 b9 04 25
        E 21 b9 04 36
        E 18 b9 04 46
        E 7 b9 04 4c
        E 2 99 2c 10
        E 67 b9 04 36
        E 177 89 2c 40
        E 75 b9 04 3c
        E 53 b9 04 2c
        E 5 99 24 53
        E 36 b9 04 1a
        E 41 b9 04 09
        E 27 b9 04 00
        E 137 89 24 40
        E 90 99 26 7f
        E 63 b9 04 12
        E 19 b9 04 22
        E 3 99 28 6d
        E 9 b9 04 32
        E 5 b9 04 43
        E 2 b9 04 4c
        E 2 99 2c 24
        E 25 b9 04 32
        E 9 b9 04 22
        E 107 89 26 40
        E 40 b9 04 32
        E 44 89 28 40
        E 18 89 2c 40
        E 94 b9 04 22
        E 9 99 24 55
        E 46 b9 04 12
        E 75 b9 04 00
        E 123 89 24 40
        E 172 99 30 7f
        E 17 b9 04 12
        E 16 99 2d 7f
        E 15 b9 04 22
        E 15 b9 04 32
        E 36 b9 04 20
        E 46 b9 04 0f
        E 99 89 30 40
        E 29 89 2d 40
        E 126 99 30 7f
        E 9 99 2d 7f
        E 8 b9 04 20
        E 84 b9 04 30
        E 142 89 30 40
        E 11 89 2d 40
        E 142 b9 04 20
        E 24 99 2d 7f
        E 2 99 30 7f
        E 239 89 2d 40
        E 3 89 30 40
        E 118 99 2d 7f
        E 7 b9 04 30
        E 34 b9 04 41
        E 8 99 30 7f
        E 24 b9 04 4c
        E 2 99 2c 08
        E 143 b9 04 30
        E 24 b9 04 20
        E 2 89 2d 40
        E 27 b9 04 0f
        E 21 89 30 40
        E 8 b9 04 00
        E 19 89 2c 40
        E 170 99 24 7e
        E 70 b9 04 12
        E 14 b9 04 22
        E 7 b9 04 32
        E 7 b9 04 43
        E 5 b9 04 4c
        E 3 99 2c 20
        E 4 b9 04 53
        E 22 b9 04 43
        E 41 b9 04 32
        E 71 89 24 40
        E 0 b9 04 22
        E 106 89 2c 40
        E 31 b9 04 18
        E 155 b9 04 29
        E 21 b9 04 3a
        E 30 b9 04 4a
        E 14 b9 04 4f
        E 2 99 2c 0a
        E 160 b9 04 3a
        E 24 99 24 5d
        E 5 b9 04 29
        E 34 b9 04 18
        E 21 89 2c 40
        E 24 b9 04 06
        E 27 b9 04 00
        E 133 89 24 40
        E 181 99 26 7f
        E 73 b9 04 12
        E 36 b9 04 22
        E 10 99 28 7a
        E 4 b9 04 32
        E 7 b9 04 44
        E 3 b9 04 4c
        E 2 99 2c 2c
        E 3 b9 04 54
        E 17 b9 04 44
        E 7 b9 04 32
        E 9 b9 04 20
        E 71 89 26 40
        E 58 b9 04 15
        E 62 89 28 40
        E 17 89 2c 40
        E 102 b9 04 25
        E 58 b9 04 36
        E 31 b9 04 46
        E 15 b9 04 4f
        E 2 99 2c 0a
        E 12 b9 04 56
        E 162 b9 04 46
        E 24 b9 04 36
        E 27 b9 04 25
        E 17 89 2c 40
        E 12 b9 04 15
        E 34 b9 04 03
        E 9 99 24 6c
        E 3 b9 04 00
        E 242 89 24 40
        E 135 99 2d 7f
        E 5 b9 04 12
        E 14 99 30 7f
        E 39 b9 04 22
        E 9 b9 04 32
        E 8 b9 04 44
        E 0 b9 04 4c
        E 4 99 2c 2e
        E 0 b9 04 54
        E 13 b9 04 44
        E 4 b9 04 34
        E 10 b9 04 20
        E 24 b9 04 0f
        E 111 89 2d 40
        E 20 89 30 40
        E 60 89 2c 40
        E 167 b9 04 20
        E 139 b9 04 2c
        E 285 b9 04 3c
        E 33 b9 04 4c
        E 7 b9 04 4f
        E 2 99 2c 0c
        E 39 b9 04 5c
        E 109 b9 04 4c
        E 28 b9 04 3c
        E 34 b9 04 2c
        E 24 99 24 5c
        E 7 b9 04 1a
        E 2 89 2c 40
        E 35 b9 04 09
        E 19 b9 04 00
        E 182 89 24 40
        E 156 b9 04 12
        E 5 99 26 7f
        E 13 b9 04 25
        E 33 b9 04 36
        E 10 b9 04 46
        E 2 b9 04 4d
        E 3 99 2c 28
        E 1 b9 04 56
        E 22 b9 04 46
        E 5 b9 04 36
        E 2 99 28 70
        E 23 b9 04 25
        E 130 89 26 40
        E 59 89 2c 40
        E 30 89 28 40
        E 44 b9 04 2c
        E 51 b9 04 1a
        E 24 99 24 58
        E 25 b9 04 09
        E 21 b9 04 00
        E 193 89 24 40
        E 140 99 30 7f
        E 8 99 2d 7f
        E 24 b9 04 12
        E 43 b9 04 22
        E 19 b9 04 32
        E 12 b9 04 43
        E 10 b9 04 4c
        E 3 99 2c 12
        E 22 b9 04 32
        E 12 b9 04 22
        E 50 b9 04 12
        E 39 89 30 40
        E 10 89 2d 40
        E 111 89 2c 40
        E 53 99 30 7f
        E 16 99 2d 7f
        E 42 b9 04 22
        E 80 b9 04 32
        E 106 89 30 40
        E 16 89 2d 40
        E 138 99 2d 7f
        E 5 99 30 7f
        E 131 b9 04 29
        E 108 89 2d 40
        E 5 89 30 40
        E 143 99 2d 7f
        E 22 b9 04 3a
        E 7 99 30 7f
        E 126 b9 04 44
        E 80 b9 04 34
        E 9 89 2d 40
        E 28 89 30 40
        E 29 b9 04 22
        E 90 b9 04 12
        E 68 99 24 7d
        E 171 b9 04 22
        E 73 89 24 40
        E 87 b9 04 15
        E 224 b9 04 25
        E 56 b9 04 36
        E 51 b9 04 46
        E 121 b9 04 36
        E 40 b9 04 25
        E 6 99 24 68
        E 33 b9 04 15
        E 63 b9 04 03
        E 15 b9 04 00
        E 133 89 24 40
        E 202 99 26 7f
        E 27 b9 04 12
        E 39 b9 04 25
        E 17 b9 04 36
        E 9 b9 04 46
        E 3 b9 04 4c
        E 2 99 2c 1e
        E 5 b9 04 56
        E 17 99 28 7f
        E 17 b9 04 46
        E 29 b9 04 36
        E 31 b9 04 25
        E 34 b9 04 15
        E 12 89 26 40
        E 68 b9 04 03
        E 26 89 2c 40
        E 27 89 28 40
        E 162 b9 04 15
        E 55 b9 04 25
        E 30 b9 04 36
        E 49 b9 04 46
        E 115 b9 04 36
        E 34 b9 04 25
        E 31 b9 04 15
        E 51 b9 04 03
        E 16 99 24 56
        E 3 b9 04 00
        E 242 89 24 40
        E 142 b9 04 12
        E 8 99 30 7f
        E 2 99 2d 7f
        E 4 b9 04 22
        E 37 b9 04 32
        E 12 b9 04 43
        E 3 b9 04 4c
        E 2 99 2c 20
        E 4 b9 04 54
        E 20 b9 04 43
        E 7 b9 04 32
        E 15 b9 04 22
        E 113 b9 04 12
        E 24 89 30 40
        E 3 89 2d 40
        E 57 89 2c 40
        E 100 b9 04 22
        E 63 b9 04 32
        E 147 b9 04 3a
        E 104 b9 04 29
        E 73 b9 04 18
        E 221 b9 04 29
        E 17 b9 04 3a
        E 18 b9 04 4a
        E 7 b9 04 4f
        E 2 99 2c 0e
        E 15 b9 04 5a
        E 148 b9 04 4a
        E 28 b9 04 3a
        E 26 b9 04 29
        E 27 89 2c 40
        E 5 b9 04 18
        E 7 99 24 57
        E 39 b9 04 06
        E 27 b9 04 00
        E 178 89 24 40
        E 126 99 26 7f
        E 36 b9 04 12
        E 38 b9 04 22
        E 10 b9 04 32
        E 8 b9 04 44
        E 2 b9 04 4c
        E 3 99 2c 26
        E 7 89 26 40
        E 2 99 26 7f
        E 12 b9 04 32
        E 8 b9 04 20
        E 188 b9 04 30
        E 27 89 2c 40
        E 7 89 26 40
        E 116 b9 04 20
        E 2 99 24 5c
        E 63 b9 04 0f
        E 44 b9 04 00
        E 135 89 24 40
        E 203 b9 04 12
        E 9 99 30 7d
        E 10 99 2d 7f
        E 32 b9 04 22
        E 14 b9 04 32
        E 7 b9 04 43
        E 8 b9 04 4c
        E 3 99 2c 1e
        E 16 b9 04 32
        E 8 b9 04 22
        E 21 b9 04 12
        E 125 89 30 40
        E 8 89 2d 40
        E 63 89 2c 40
        E 86 99 30 7f
        E 20 99 2d 7f
        E 2 b9 04 22
        E 53 b9 04 32
        E 131 b9 04 3f
        E 39 89 30 40
        E 17 89 2d 40
        E 45 b9 04 2e
        E 97 99 30 7f
        E 29 99 2d 7f
        E 24 b9 04 20
        E 188 89 30 40
        E 29 89 2d 40
        E 141 b9 04 30
        E 4 99 2d 7f
        E 22 99 30 7f
        E 159 b9 04 20
        E 63 89 2d 40
        E 22 89 30 40
        E 114 b9 04 18
        E 41 99 24 6c
        E 234 b9 04 1d
        E 10 89 24 40
        E 336 b9 04 2c
        E 79 b9 04 3c
        E 177 b9 04 2c
        E 7 99 24 68
        E 38 b9 04 1a
        E 51 b9 04 09
        E 32 b9 04 00
        E 123 89 24 40
        E 174 99 26 7f
        E 53 b9 04 12
        E 12 b9 04 25
        E 29 99 28 7f
        E 10 b9 04 36
        E 7 b9 04 47
        E 3 b9 04 4c
        E 2 99 2c 22
        E 3 b9 04 57
        E 21 b9 04 46
        E 7 b9 04 36
        E 46 b9 04 25
        E 41 b9 04 15
        E 10 89 26 40
        E 94 89 28 40
        E 20 89 2c 40
        E 38 b9 04 09
        E 97 b9 04 1a
        E 36 b9 04 2c
        E 24 b9 04 3c
        E 32 b9 04 4c
        E 4 b9 04 4d
        E 3 99 2c 0a
        E 125 b9 04 3c
        E 30 b9 04 2c
        E 28 b9 04 1a
        E 27 99 24 65
        E 10 b9 04 09
        E 22 89 2c 40
        E 2 b9 04 00
        E 208 89 24 40
        E 198 99 2d 7f
        E 2 99 30 7f
        E 27 b9 04 12
        E 22 b9 04 22
        E 36 b9 04 32
        E 5 b9 04 43
        E 4 b9 04 4c
        E 3 99 2c 2c
        E 17 b9 04 30
        E 7 b9 04 20
        E 19 b9 04 0f
        E 100 89 2d 40
        E 2 89 30 40
        E 89 b9 04 18
        E 8 89 2c 40
        E 77 b9 04 29
        E 150 b9 04 32
        E 96 b9 04 22
        E 75 b9 04 12
        E 150 b9 04 03
        E 56 b9 04 15
        E 19 b9 04 25
        E 17 b9 04 36
        E 17 b9 04 46
        E 7 b9 04 4d
        E 2 99 2c 10
        E 10 b9 04 56
        E 127 b9 04 46
        E 40 b9 04 36
        E 41 b9 04 25
        E 24 89 2c 40
        E 14 99 24 56
        E 0 b9 04 15
        E 52 b9 04 03
        E 13 b9 04 00
        E 177 89 24 40
        E 131 99 26 7f
        E 16 b9 04 12
        E 22 b9 04 22
        E 12 b9 04 32
        E 10 b9 04 43
        E 5 b9 04 4c
        E 2 99 2c 1e
        E 5 89 26 40
        E 2 99 26 7f
        E 11 b9 04 32
        E 11 b9 04 20
        E 130 b9 04 1a
        E 52 b9 04 2c
        E 33 89 2c 40
        E 2 89 26 40
        E 117 99 24 56
        E 36 b9 04 1a
        E 53 b9 04 09
        E 31 b9 04 00
        E 121 89 24 40
        E 196 99 29 7f
        E 4 b9 04 12
        E 18 b9 04 22
        E 7 99 2d 7f
        E 22 b9 04 32
        E 9 b9 04 43
        E 7 b9 04 4c
        E 2 99 2c 1a
        E 3 b9 04 53
        E 37 b9 04 43
        E 31 b9 04 32
        E 29 b9 04 22
        E 55 b9 04 12
        E 18 89 29 40
        E 26 89 2d 40
        E 43 89 2c 40
        E 102 99 29 7f
        E 34 99 2d 7f
        E 82 b9 04 22
        E 128 89 29 40
        E 33 89 2d 40
        E 51 b9 04 12
        E 107 99 29 7f
        E 25 99 2d 7f
        E 65 b9 04 0c
        E 152 89 29 40
        E 26 89 2d 40
        E 12 b9 04 1d
        E 116 99 29 7f
        E 20 99 2d 7f
        E 159 b9 04 2e
        E 65 89 29 40
        E 17 89 2d 40
        E 41 b9 04 1d
        E 73 b9 04 0c
        E 57 b9 04 00
        E 5 99 24 59
        E 186 b9 04 12
        E 42 b9 04 22
        E 16 89 24 40
        E 73 b9 04 12
        E 304 b9 04 22
        E 39 b9 04 32
        E 48 b9 04 43
        E 117 b9 04 32
        E 5 99 24 57
        E 28 b9 04 22
        E 49 b9 04 12
        E 53 b9 04 00
        E 115 89 24 40
        E 204 99 26 7f
        E 45 b9 04 12
        E 44 b9 04 22
        E 10 b9 04 32
        E 10 b9 04 43
        E 4 89 26 40
        E 3 99 26 7f
        E 2 b9 04 4c
        E 2 99 2c 1e
        E 22 b9 04 32
        E 36 b9 04 22
        E 51 b9 04 12
        E 128 89 26 40
        E 5 89 2c 40
        E 41 b9 04 09
        E 82 b9 04 1a
        E 32 b9 04 2c
        E 21 b9 04 3c
        E 24 b9 04 4c
        E 2 b9 04 4d
        E 3 99 2c 0c
        E 149 b9 04 3c
        E 27 b9 04 2c
        E 29 b9 04 1a
        E 34 b9 04 09
        E 3 89 2c 40
        E 22 99 24 60
        E 4 b9 04 00
        E 240 89 24 40
        E 168 99 2d 7f
        E 10 99 30 7f
        E 3 b9 04 12
        E 9 b9 04 25
        E 34 b9 04 36
        E 10 b9 04 46
        E 2 b9 04 4d
        E 2 99 2c 2a
        E 3 b9 04 58
        E 17 b9 04 47
        E 7 b9 04 36
        E 12 b9 04 25
        E 124 b9 04 1d
        E 12 89 2d 40
        E 9 89 30 40
        E 61 89 2c 40
        E 108 b9 04 2e
        E 261 b9 04 1d
        E 158 b9 04 0f
        E 113 b9 04 20
        E 22 b9 04 30
        E 19 b9 04 41
        E 14 b9 04 4d
        E 3 99 2c 0e
        E 203 b9 04 30
        E 38 89 2c 40
        E 5 b9 04 20
        E 20 99 24 52
        E 43 b9 04 0f
        E 48 b9 04 00
        E 150 89 24 40
        E 114 99 26 7f
        E 43 b9 04 12
        E 24 b9 04 22
        E 7 b9 04 32
        E 13 b9 04 43
        E 2 b9 04 4c
        E 2 99 2c 1e
        E 3 b9 04 53
        E 21 b9 04 43
        E 8 99 28 7f
        E 2 b9 04 32
        E 48 b9 04 22
        E 70 89 26 40
        E 61 b9 04 18
        E 29 89 2c 40
        E 32 b9 04 29
        E 2 89 28 40
        E 85 99 24 4a
        E 48 b9 04 30
        E 50 b9 04 20
        E 68 b9 04 0f
        E 46 b9 04 00
        E 31 89 24 40
        E 213 99 2d 7f
        E 10 b9 04 12
        E 4 99 30 73
        E 15 b9 04 25
        E 15 b9 04 36
        E 14 b9 04 46
        E 5 b9 04 4c
        E 2 99 2c 14
        E 8 b9 04 56
        E 29 b9 04 46
        E 38 b9 04 36
        E 104 89 2d 40
        E 14 89 30 40
        E 13 b9 04 2c
        E 38 89 2c 40
        E 12 b9 04 3c
        E 107 99 24 54
        E 56 b9 04 2c
        E 48 b9 04 1a
        E 44 b9 04 09
        E 26 b9 04 00
        E 70 89 24 40
        E 133 99 26 7f
        E 85 89 26 40
        E 2 99 26 7f
        E 2 b9 04 12
        E 34 b9 04 25
        E 7 b9 04 36
        E 5 b9 04 46
        E 5 b9 04 4c
        E 2 99 2c 24
        E 13 b9 04 36
        E 7 b9 04 25
        E 12 b9 04 15
        E 144 b9 04 25
        E 10 89 26 40
        E 58 89 2c 40
        E 109 b9 04 15
        E 60 b9 04 03
        E 10 b9 04 00
        E 358 99 24 7f
        E 2 99 31 7f
        E 2 b9 04 12
        E 7 b9 04 25
        E 5 99 3b 7f
        E 29 b9 04 36
        E 13 b9 04 46
        E 2 b9 04 4d
        E 1 99 2c 24
        E 1 b9 04 56
        E 17 b9 04 46
        E 5 b9 04 36
        E 12 b9 04 25
        E 148 89 24 40
        E 2 89 31 40
        E 14 89 3b 40
        E 44 89 2c 40
        E 58 b9 04 29
        E 77 b9 04 18
        E 71 b9 04 06
        E 26 b9 04 00
        E 247 b9 04 12
        E 19 b9 04 22
        E 14 b9 04 32
        E 10 b9 04 43
        E 29 b9 04 32
        E 125 b9 04 2e
        E 44 b9 04 3e
        E 67 b9 04 4c
        E 4 99 2c 06
        E 67 b9 04 47
        E 60 99 24 47
        E 9 b9 04 36
        E 61 b9 04 22
        E 44 89 2c 40
        E 29 b9 04 12
        E 99 89 24 40
        E 7 b9 04 00
        E 280 b9 04 12
        E 35 b9 04 22
        E 11 b9 04 32
        E 7 b9 04 43
        E 7 b9 04 4c
        E 3 99 2c 1e
        E 17 b9 04 32
        E 14 b9 04 22
        E 34 b9 04 32
        E 174 89 2c 40
        E 3 b9 04 22
        E 53 b9 04 12
        E 99 b9 04 00
        E 234 99 26 7f
        E 63 b9 04 12
        E 24 b9 04 22
        E 14 b9 04 32
        E 13 b9 04 43
        E 5 99 28 48
        E 2 b9 04 4c
        E 3 99 2c 1a
        E 21 b9 04 32
        E 10 b9 04 22
        E 89 89 26 40
        E 116 89 28 40
        E 5 89 2c 40
        E 5 b9 04 2e
        E 87 b9 04 1d
        E 96 b9 04 0c
        E 58 b9 04 00
        E 247 b9 04 12
        E 27 b9 04 25
        E 11 b9 04 36
        E 34 b9 04 25
        E 99 b9 04 36
        E 138 b9 04 3e
        E 43 b9 04 2e
        E 30 99 24 51
        E 12 b9 04 1d
        E 53 b9 04 0c
        E 43 b9 04 00
        E 133 89 24 40
        E 164 99 2d 7f
        E 3 b9 04 12
        E 6 99 30 7f
        E 28 b9 04 22
        E 12 b9 04 32
        E 12 b9 04 43
        E 2 b9 04 4c
        E 2 99 2c 1e
        E 3 b9 04 54
        E 24 b9 04 44
        E 7 b9 04 34
        E 46 b9 04 22
        E 102 89 2d 40
        E 7 89 30 40
        E 20 b9 04 32
        E 33 89 2c 40
        E 121 99 24 4c
        E 26 b9 04 22
        E 46 b9 04 12
        E 41 b9 04 00
        E 126 89 24 40
        E 143 99 26 68
        E 38 b9 04 12
        E 15 b9 04 22
        E 27 89 26 40
        E 2 99 26 7f
        E 3 b9 04 32
        E 7 b9 04 44
        E 4 b9 04 4d
        E 3 99 2c 26
        E 2 b9 04 54
        E 15 b9 04 44
        E 5 b9 04 34
        E 9 b9 04 22
        E 181 b9 04 32
        E 10 89 26 40
        E 20 89 2c 40
        E 101 b9 04 22
        E 7 99 24 5b
        E 49 b9 04 12
        E 53 b9 04 00
        E 142 89 24 40
        E 150 99 2d 7f
        E 7 99 30 7f
        E 29 b9 04 12
        E 44 b9 04 22
        E 9 b9 04 32
        E 5 b9 04 43
        E 3 b9 04 4c
        E 2 99 2c 26
        E 17 b9 04 32
        E 7 b9 04 20
        E 19 b9 04 0f
        E 102 89 2d 40
        E 7 89 30 40
        E 42 b9 04 20
        E 49 89 2c 40
        E 81 b9 04 27
        E 50 b9 04 15
        E 56 b9 04 03
        E 12 b9 04 00
        E 334 99 24 7f
        E 2 b9 04 12
        E 5 99 31 7f
        E 2 b9 04 25
        E 10 99 33 7f
        E 2 b9 04 36
        E 29 b9 04 47
        E 3 b9 04 4c
        E 2 99 2c 20
        E 22 b9 04 36
        E 12 b9 04 25
        E 154 89 24 40
        E 8 89 31 40
        E 12 89 33 40
        E 14 b9 04 36
        E 20 89 2c 40
        E 118 b9 04 25
        E 58 b9 04 15
        E 118 b9 04 03
        E 39 b9 04 00
        E 111 b9 04 12
        E 27 b9 04 22
        E 14 b9 04 32
        E 17 b9 04 43
        E 10 b9 04 4c
        E 2 99 2c 0e
        E 7 b9 04 53
        E 235 89 2c 40
        E 237 b9 04 5c
        E 427 b9 04 58
        E 305 b9 04 47
        E 51 b9 04 36
        E 53 b9 04 25
        E 67 b9 04 15
        E 53 b9 04 03
        E 24 b9 04 00
        E 199 b9 04 12
        E 21 b9 04 22
        E 12 b9 04 32
        E 13 b9 04 43
        E 2 99 26 7f
        E 7 b9 04 4c
        E 2 99 2c 14
        E 15 b9 04 53
        E 46 b9 04 43
        E 16 89 26 40
        E 3 99 26 7f
        E 17 b9 04 32
        E 136 b9 04 27
        E 11 89 2c 40
        E 78 89 26 40
        E 36 b9 04 38
        E 170 b9 04 3c
        E 115 99 24 1b
        E 65 b9 04 36
        E 160 b9 04 46
        E 19 89 24 40
        E 8 b9 04 4f
        E 2 99 2c 08
        E 36 b9 04 56
        E 147 b9 04 5e
        E 61 89 2c 40
        E 7 b9 04 4d
        E 41 b9 04 3c
        E 32 b9 04 2c
        E 12 99 24 60
        E 22 b9 04 1a
        E 41 b9 04 09
        E 29 b9 04 00
        E 150 89 24 40
        E 133 99 2d 7f
        E 21 99 30 7f
        E 2 b9 04 12
        E 7 b9 04 25
        E 18 b9 04 36
        E 19 b9 04 46
        E 4 b9 04 4d
        E 3 99 2c 1a
        E 3 b9 04 56
        E 9 b9 04 66
        E 17 b9 04 56
        E 8 b9 04 46
        E 40 b9 04 36
        E 28 b9 04 25
        E 62 89 2d 40
        E 22 89 30 40
        E 43 b9 04 20
        E 7 89 2c 40
        E 39 b9 04 30
        E 48 b9 04 41
        E 61 99 24 4a
        E 70 b9 04 30
        E 33 b9 04 20
        E 44 b9 04 0f
        E 34 b9 04 00
        E 60 89 24 40
        E 133 99 26 75
        E 58 89 26 40
        E 2 99 26 7f
        E 3 b9 04 12
        E 19 b9 04 25
        E 12 b9 04 36
        E 10 b9 04 46
        E 3 b9 04 4c
        E 2 99 2c 18
        E 9 b9 04 56
        E 27 b9 04 46
        E 25 b9 04 36
        E 48 b9 04 25
        E 84 89 26 40
        E 34 b9 04 36
        E 15 89 2c 40
        E 103 99 24 52
        E 35 b9 04 25
        E 45 b9 04 15
        E 61 b9 04 03
        E 12 b9 04 00
        E 91 89 24 40
        E 145 99 30 7f
        E 3 99 2d 7f
        E 34 b9 04 12
        E 29 b9 04 22
        E 14 b9 04 32
        E 9 b9 04 44
        E 5 b9 04 4c
        E 3 99 2c 22
        E 2 b9 04 54
        E 22 b9 04 44
        E 8 b9 04 34
        E 19 b9 04 22
        E 97 89 30 40
        E 2 89 2d 40
        E 53 b9 04 32
        E 38 89 2c 40
        E 134 b9 04 22
        E 43 b9 04 12
        E 46 b9 04 00
        E 309 99 24 7f
        E 3 b9 04 12
        E 2 99 31 7f
        E 7 b9 04 25
        E 10 99 3b 7f
        E 2 b9 04 36
        E 27 b9 04 46
        E 2 b9 04 4c
        E 3 99 2c 1e
        E 5 b9 04 56
        E 4 b9 04 66
        E 14 b9 04 55
        E 8 b9 04 44
        E 17 b9 04 34
        E 45 b9 04 20
        E 95 89 24 40
        E 5 89 31 40
        E 17 89 3b 40
        E 34 89 2c 40
        E 19 b9 04 30
        E 133 b9 04 38
        E 73 b9 04 27
        E 91 b9 04 15
        E 138 b9 04 03
        E 46 b9 04 00
        E 172 b9 04 12
        E 25 b9 04 22
        E 11 b9 04 32
        E 9 b9 04 43
        E 17 b9 04 32
        E 7 b9 04 22
        E 107 b9 04 32
        E 174 b9 04 22
        E 75 b9 04 12
        E 157 b9 04 00
        E 159 b9 04 12
        E 19 b9 04 22
        E 10 b9 04 32
        E 16 b9 04 43
        E 9 b9 04 4c
        E 2 99 2c 12
        E 7 b9 04 53
        E 29 b9 04 63
        E 130 b9 04 53
        E 39 b9 04 43
        E 36 b9 04 32
        E 2 89 2c 40
        E 25 b9 04 22
        E 41 b9 04 12
        E 75 b9 04 00
        E 396 99 26 7f
        E 10 b9 04 12
        E 14 b9 04 22
        E 5 b9 04 34
        E 5 b9 04 46
        E 2 b9 04 4d
        E 3 99 2c 40
        E 2 b9 04 56
        E 12 b9 04 46
        E 5 b9 04 36
        E 5 b9 04 22
        E 24 89 26 40
        E 3 99 26 7f
        E 190 89 2c 40
        E 51 89 26 40
        E 34 b9 04 12
        E 128 b9 04 00
        E 256 b9 04 12
        E 24 b9 04 25
        E 20 b9 04 36
        E 12 b9 04 46
        E 9 b9 04 4c
        E 3 99 2c 12
        E 17 b9 04 36
        E 65 b9 04 25
        E 92 b9 04 36
        E 50 b9 04 46
        E 18 89 2c 40
        E 118 b9 04 36
        E 38 b9 04 22
        E 47 b9 04 12
        E 7 99 24 6c
        E 45 b9 04 00
        E 197 89 24 40
        E 120 b9 04 12
        E 14 b9 04 22
        E 20 99 2d 7f
        E 2 b9 04 32
        E 3 99 30 7f
        E 11 b9 04 43
        E 3 b9 04 4c
        E 3 99 2c 24
        E 5 b9 04 54
        E 4 b9 04 65
        E 12 b9 04 54
        E 5 b9 04 44
        E 7 b9 04 34
        E 41 b9 04 22
        E 145 89 2d 40
        E 5 89 30 40
        E 19 89 2c 40
        E 10 b9 04 32
        E 48 b9 04 43
        E 107 b9 04 32
        E 2 99 24 50
        E 34 b9 04 22
        E 48 b9 04 12
        E 46 b9 04 00
        E 116 89 24 40
        E 111 99 26 75
        E 63 89 26 40
        E 2 99 26 7f
        E 5 b9 04 12
        E 10 b9 04 22
        E 10 b9 04 32
        E 26 b9 04 43
        E 5 b9 04 4c
        E 3 99 2c 1e
        E 2 b9 04 54
        E 5 b9 04 65
        E 14 b9 04 54
        E 8 b9 04 44
        E 7 b9 04 34
        E 147 89 26 40
        E 56 89 2c 40
        E 45 b9 04 22
        E 42 99 24 58
        E 11 b9 04 12
        E 61 b9 04 00
        E 169 89 24 40
        E 140 99 2d 7f
        E 8 99 30 7f
        E 34 b9 04 12
        E 11 b9 04 22
        E 39 b9 04 32
        E 3 b9 04 43
        E 5 b9 04 4d
        E 2 99 2c 2c
        E 5 b9 04 54
        E 12 b9 04 44
        E 4 b9 04 32
        E 8 b9 04 20
        E 111 89 2d 40
        E 10 89 30 40
        E 31 b9 04 30
        E 60 89 2c 40
        E 111 b9 04 20
        E 46 b9 04 0f
        E 35 b9 04 00
        E 337 99 24 7f
        E 3 b9 04 12
        E 5 99 31 7f
        E 2 b9 04 25
        E 5 b9 04 36
        E 7 99 33 7f
        E 23 b9 04 46
        E 4 b9 04 4c
        E 2 99 2c 1c
        E 2 b9 04 57
        E 17 b9 04 47
        E 8 b9 04 36
        E 14 b9 04 25
        E 63 b9 04 36
        E 90 89 24 40
        E 7 89 31 40
        E 14 89 33 40
        E 27 89 2c 40
        E 36 b9 04 25
        E 36 b9 04 15
        E 42 b9 04 03
        E 9 b9 04 00
        E 353 b9 04 12
        E 7 b9 04 25
        E 31 99 33 6d
        E 3 99 24 6c
        E 7 b9 04 36
        E 10 b9 04 46
        E 2 b9 04 4c
        E 5 99 2c 1e
        E 14 b9 04 36
        E 10 b9 04 22
        E 95 b9 04 32
        E 82 b9 04 22
        E 16 89 33 40
        E 2 89 24 40
        E 25 89 2c 40
        E 17 b9 04 12
        E 65 b9 04 00
        E 124 99 28 6c
        E 202 b9 04 12
        E 12 b9 04 22
        E 27 89 28 40
        E 2 b9 04 32
        E 39 b9 04 22
        E 16 b9 04 12
        E 97 99 33 5d
        E 85 b9 04 22
        E 23 b9 04 32
        E 36 b9 04 43
        E 26 b9 04 4c
        E 2 99 2c 08
        E 73 89 33 40
        E 55 b9 04 32
        E 24 b9 04 22
        E 29 b9 04 12
        E 35 b9 04 00
        E 5 99 24 71
        E 23 89 2c 40
        E 220 89 24 40
        E 128 b9 04 12
        E 7 b9 04 22
        E 5 b9 04 32
        E 17 99 26 7f
        E 22 99 33 7f
        E 2 b9 04 44
        E 3 b9 04 4c
        E 2 99 2c 24
        E 17 b9 04 32
        E 7 b9 04 20
        E 16 b9 04 0f
        E 139 b9 04 20
        E 36 89 26 40
        E 19 89 33 40
        E 8 89 2c 40
        E 114 b9 04 0f
        E 45 b9 04 00
        E 322 b9 04 12
        E 36 b9 04 22
        E 14 b9 04 32
        E 7 b9 04 43
        E 5 b9 04 4c
        E 2 99 2c 22
        E 3 99 33 7c
        E 15 b9 04 32
        E 6 b9 04 22
        E 117 b9 04 32
        E 101 b9 04 22
        E 3 89 2c 40
        E 2 89 33 40
        E 53 b9 04 12
        E 51 b9 04 00
        E 97 99 26 7f
        E 239 b9 04 12
        E 5 89 26 40
        E 5 b9 04 25
        E 9 b9 04 36
        E 34 b9 04 46
        E 0 b9 04 4c
        E 2 99 2c 1c
        E 5 b9 04 56
        E 26 b9 04 44
        E 23 b9 04 34
        E 46 b9 04 22
        E 16 99 33 7f
        E 35 b9 04 12
        E 91 89 2c 40
        E 53 b9 04 25
        E 29 b9 04 36
        E 39 89 33 40
        E 111 99 24 5c
        E 17 b9 04 25
        E 34 b9 04 15
        E 36 b9 04 03
        E 7 b9 04 00
        E 150 89 24 40
        E 173 b9 04 12
        E 8 99 26 70
        E 3 b9 04 25
        E 5 b9 04 36
        E 11 99 33 6b
        E 20 b9 04 47
        E 2 b9 04 4c
        E 5 99 2c 1e
        E 3 b9 04 58
        E 16 b9 04 47
        E 10 b9 04 36
        E 37 b9 04 25
        E 130 89 26 40
        E 19 89 33 40
        E 22 b9 04 36
        E 5 89 2c 40
        E 128 b9 04 25
        E 19 99 24 56
        E 22 b9 04 15
        E 38 b9 04 03
        E 15 b9 04 00
        E 167 89 24 40
        E 137 99 33 7f
        E 8 99 26 69
        E 2 b9 04 12
        E 12 b9 04 22
        E 27 b9 04 32
        E 13 b9 04 43
        E 6 b9 04 4c
        E 2 99 2c 2a
        E 3 b9 04 54
        E 17 b9 04 43
        E 7 b9 04 32
        E 7 b9 04 22
        E 141 89 33 40
        E 4 89 26 40
        E 17 b9 04 32
        E 46 89 2c 40
        E 77 b9 04 22
        E 39 b9 04 12
        E 20 99 26 78
        E 21 b9 04 00
        E 221 89 26 40
        E 95 b9 04 12
        E 12 b9 04 25
        E 24 b9 04 36
        E 3 99 24 78
        E 13 b9 04 46
        E 2 b9 04 4c
        E 5 99 2c 1e
        E 6 99 33 7f
        E 15 b9 04 36
        E 12 b9 04 25
        E 61 b9 04 15
        E 128 89 24 40
        E 16 b9 04 25
        E 3 89 2c 40
        E 7 89 33 40
        E 121 b9 04 29
        E 51 b9 04 18
        E 36 b9 04 06
        E 14 b9 04 00
        E 317 b9 04 12
        E 10 99 33 73
        E 2 b9 04 22
        E 5 99 24 6b
        E 7 b9 04 32
        E 27 b9 04 43
        E 24 b9 04 32
        E 6 b9 04 22
        E 52 b9 04 12
        E 118 89 33 40
        E 8 89 24 40
        E 43 b9 04 22
        E 130 99 26 7a
        E 39 b9 04 12
        E 53 b9 04 00
        E 153 89 26 40
        E 144 b9 04 12
        E 13 b9 04 25
        E 26 99 33 7f
        E 5 b9 04 36
        E 36 b9 04 25
        E 70 b9 04 15
        E 95 b9 04 25
        E 36 89 33 40
        E 14 b9 04 36
        E 128 b9 04 22
        E 37 99 24 62
        E 2 b9 04 12
        E 46 b9 04 00
        E 196 89 24 40
        E 147 b9 04 12
        E 7 99 28 7e
        E 3 b9 04 25
        E 7 b9 04 36
        E 29 b9 04 46
        E 2 99 33 7f
        E 2 b9 04 4c
        E 8 99 2c 16
        E 10 b9 04 36
        E 9 b9 04 25
        E 15 b9 04 15
        E 121 b9 04 25
        E 36 89 28 40
        E 43 89 33 40
        E 7 89 2c 40
        E 73 b9 04 15
        E 53 b9 04 03
        E 7 b9 04 00
        E 319 b9 04 12
        E 10 b9 04 22
        E 10 b9 04 32
        E 31 b9 04 43
        E 3 b9 04 4d
        E 2 99 2c 22
        E 3 b9 04 53
        E 7 b9 04 63
        E 12 b9 04 51
        E 9 b9 04 41
        E 15 99 33 79
        E 29 b9 04 30
        E 21 b9 04 20
        E 133 b9 04 15
        E 12 89 2c 40
        E 25 b9 04 25
        E 21 89 33 40
        E 30 b9 04 36
        E 128 b9 04 25
        E 9 99 26 7f
        E 32 b9 04 15
        E 38 b9 04 03
        E 14 b9 04 00
        E 158 89 26 40
        E 115 b9 04 12
        E 25 b9 04 22
        E 14 b9 04 32
        E 10 99 33 4b
        E 1 b9 04 44
        E 5 b9 04 4c
        E 2 99 2c 22
        E 4 b9 04 54
        E 13 b9 04 44
        E 8 b9 04 34
        E 52 b9 04 22
        E 142 b9 04 32
        E 16 89 33 40
        E 5 89 2c 40
        E 20 b9 04 43
        E 119 b9 04 32
        E 26 99 24 68
        E 9 b9 04 22
        E 32 b9 04 12
        E 41 b9 04 00
        E 162 89 24 40
        E 126 99 26 71
        E 31 99 33 7f
        E 20 b9 04 12
        E 4 b9 04 22
        E 5 b9 04 32
        E 5 b9 04 43
        E 31 b9 04 4c
        E 3 99 2c 24
        E 2 b9 04 53
        E 19 b9 04 43
        E 8 b9 04 32
        E 9 b9 04 22
        E 54 b9 04 12
        E 51 89 26 40
        E 33 89 33 40
        E 66 89 2c 40
        E 4 b9 04 22
        E 46 b9 04 32
        E 136 b9 04 22
        E 65 b9 04 12
        E 79 b9 04 00
        E 343 99 33 7f
        E 10 b9 04 12
        E 34 b9 04 25
        E 10 b9 04 36
        E 4 b9 04 47
        E 2 b9 04 4c
        E 3 99 2c 2e
        E 17 b9 04 36
        E 10 b9 04 20
        E 27 b9 04 0f
        E 128 89 33 40
        E 5 b9 04 20
        E 37 b9 04 30
        E 15 89 2c 40
        E 25 b9 04 41
        E 142 b9 04 30
        E 34 b9 04 20
        E 48 b9 04 0f
        E 34 b9 04 00
        E 301 b9 04 12
        E 13 99 24 7e
        E 0 b9 04 22
        E 12 99 33 7f
        E 0 b9 04 32
        E 22 b9 04 43
        E 3 b9 04 4c
        E 2 99 2c 22
        E 5 b9 04 54
        E 17 b9 04 44
        E 5 b9 04 34
        E 16 b9 04 22
        E 95 b9 04 32
        E 67 89 24 40
        E 7 89 33 40
        E 30 89 2c 40
        E 29 b9 04 22
        E 55 b9 04 12
        E 55 b9 04 00
        E 346 b9 04 12
        E 12 b9 04 22
        E 5 b9 04 32
        E 29 99 24 6a
        E 2 b9 04 43
        E 5 b9 04 4c
        E 2 99 2c 1e
        E 2 b9 04 53
        E 3 99 33 7f
        E 15 b9 04 41
        E 7 b9 04 30
        E 13 b9 04 20
        E 79 b9 04 0f
        E 115 89 24 40
        E 11 89 2c 40
        E 2 89 33 40
        E 49 b9 04 20
        E 34 b9 04 30
        E 93 99 26 7f
        E 48 b9 04 20
        E 52 b9 04 0f
        E 36 b9 04 00
        E 106 89 26 40
        E 176 b9 04 12
        E 8 99 33 46
        E 22 b9 04 25
        E 14 b9 04 36
        E 30 b9 04 22
        E 124 b9 04 1a
        E 41 b9 04 2c
        E 10 89 33 40
        E 43 b9 04 3c
        E 107 b9 04 2c
        E 48 b9 04 1a
        E 15 99 24 63
        E 34 b9 04 09
        E 26 b9 04 00
        E 184 89 24 40
        E 133 99 26 7f
        E 14 b9 04 12
        E 8 b9 04 25
        E 12 b9 04 36
        E 16 99 33 7f
        E 11 b9 04 46
        E 1 b9 04 4c
        E 5 99 2c 1e
        E 20 b9 04 36
        E 12 b9 04 25
        E 56 b9 04 15
        E 89 89 26 40
        E 19 b9 04 25
        E 26 89 33 40
        E 23 89 2c 40
        E 145 b9 04 15
        E 55 b9 04 03
        E 10 b9 04 00
        E 292 b9 04 12
        E 24 b9 04 22
        E 8 b9 04 32
        E 7 99 33 7e
        E 2 b9 04 43
        E 18 b9 04 32
        E 9 b9 04 22
        E 164 b9 04 32
        E 51 89 33 40
        E 134 b9 04 22
        E 28 99 24 5a
        E 24 b9 04 12
        E 50 b9 04 00
        E 170 89 24 40
        E 91 99 26 71
        E 34 b9 04 12
        E 15 b9 04 25
        E 19 99 33 7f
        E 2 b9 04 36
        E 10 b9 04 46
        E 0 b9 04 4c
        E 2 99 2c 20
        E 22 b9 04 36
        E 12 b9 04 25
        E 67 b9 04 15
        E 61 89 26 40
        E 37 b9 04 25
        E 31 89 33 40
        E 2 b9 04 36
        E 12 89 2c 40
        E 124 b9 04 3a
        E 43 b9 04 29
        E 22 99 24 5f
        E 19 b9 04 18
        E 39 b9 04 06
        E 17 b9 04 00
        E 169 89 24 40
        E 162 99 28 61
        E 4 99 33 7f
        E 13 b9 04 12
        E 9 b9 04 22
        E 27 b9 04 32
        E 15 b9 04 43
        E 2 b9 04 4c
        E 2 99 2c 22
        E 22 b9 04 32
        E 8 b9 04 22
        E 24 b9 04 12
        E 118 89 28 40
        E 5 89 33 40
        E 29 b9 04 22
        E 36 89 2c 40
        E 5 b9 04 32
        E 150 b9 04 22
        E 69 b9 04 12
        E 69 b9 04 00
        E 275 b9 04 12
        E 19 99 33 73
        E 2 b9 04 22
        E 15 b9 04 32
        E 7 b9 04 43
        E 22 b9 04 32
        E 7 b9 04 22
        E 39 b9 04 12
        E 106 b9 04 22
        E 36 b9 04 32
        E 11 89 33 40
        E 154 b9 04 22
        E 51 b9 04 12
        E 43 b9 04 00
        E 307 b9 04 12
        E 7 99 24 73
        E 7 b9 04 22
        E 19 b9 04 32
        E 8 99 33 7f
        E 4 b9 04 43
        E 23 b9 04 32
        E 9 b9 04 20
        E 55 b9 04 0f
        E 114 89 24 40
        E 34 89 33 40
        E 16 b9 04 20
        E 199 b9 04 0f
        E 40 b9 04 00
        E 330 99 24 62
        E 7 99 33 6d
        E 0 b9 04 12
        E 9 b9 04 22
        E 8 b9 04 32
        E 19 b9 04 43
        E 16 b9 04 32
        E 13 b9 04 20
        E 43 b9 04 0f
        E 129 89 24 40
        E 7 89 33 40
        E 19 b9 04 09
        E 46 b9 04 1a
        E 31 b9 04 2c
        E 64 b9 04 3c
        E 66 99 26 77
        E 22 b9 04 2c
        E 49 b9 04 1a
        E 43 b9 04 09
        E 25 b9 04 00
        E 105 89 26 40
        E 182 99 33 7f
        E 14 b9 04 12
        E 18 b9 04 22
        E 18 b9 04 32
        E 15 b9 04 43
        E 17 b9 04 32
        E 12 b9 04 20
        E 129 b9 04 15
        E 21 89 33 40
        E 32 b9 04 25
        E 45 b9 04 36
        E 133 b9 04 25
        E 25 99 24 5f
        E 22 b9 04 15
        E 47 b9 04 03
        E 16 b9 04 00
        E 156 89 24 40
        E 154 99 28 55
        E 17 b9 04 12
        E 9 99 33 7f
        E 2 b9 04 25
        E 18 b9 04 36
        E 17 b9 04 46
        E 5 b9 04 4c
        E 2 99 2c 1a
        E 15 b9 04 36
        E 10 b9 04 25
        E 24 b9 04 15
        E 126 89 28 40
        E 23 89 33 40
        E 47 89 2c 40
        E 10 b9 04 25
        E 195 b9 04 15
        E 55 b9 04 03
        E 17 b9 04 00
        E 265 b9 04 12
        E 13 99 33 5d
        E 10 b9 04 25
        E 10 b9 04 36
        E 9 b9 04 46
        E 15 b9 04 36
        E 12 b9 04 25
        E 36 b9 04 15
        E 107 b9 04 25
        E 31 b9 04 36
        E 14 89 33 40
        E 35 b9 04 46
        E 111 b9 04 36
        E 24 99 24 55
        E 17 b9 04 25
        E 29 b9 04 15
        E 29 b9 04 03
        E 9 b9 04 00
        E 157 89 24 40
        E 110 99 26 79
        E 14 b9 04 12
        E 19 b9 04 25
        E 16 b9 04 36
        E 5 b9 04 46
        E 3 99 33 7f
        E 2 b9 04 4c
        E 5 99 2c 22
        E 13 b9 04 36
        E 9 b9 04 25
        E 38 b9 04 15
        E 118 89 26 40
        E 21 b9 04 25
        E 28 b9 04 36
        E 7 89 33 40
        E 3 89 2c 40
        E 27 b9 04 46
        E 147 b9 04 36
        E 7 99 24 53
        E 32 b9 04 25
        E 31 b9 04 15
        E 41 b9 04 03
        E 12 b9 04 00
        E 126 89 24 40
        E 193 99 26 72
        E 5 99 33 7f
        E 17 b9 04 12
        E 9 b9 04 25
        E 10 b9 04 36
        E 24 b9 04 46
        E 20 b9 04 36
        E 7 b9 04 22
        E 21 b9 04 12
        E 129 89 26 40
        E 4 89 33 40
        E 17 b9 04 22
        E 48 b9 04 32
        E 146 b9 04 22
        E 55 b9 04 12
        E 54 b9 04 00
        E 277 99 33 7f
        E 5 b9 04 12
        E 32 b9 04 22
        E 9 b9 04 32
        E 12 b9 04 43
        E 12 b9 04 32
        E 7 b9 04 22
        E 18 b9 04 12
        E 147 89 33 40
        E 2 b9 04 22
        E 32 b9 04 32
        E 159 b9 04 22
        E 51 b9 04 12
        E 51 b9 04 00
        E 277 b9 04 12
        E 15 99 24 74
        E 4 b9 04 22
        E 18 b9 04 32
        E 2 99 33 7f
        E 9 b9 04 43
        E 18 b9 04 32
        E 6 b9 04 20
        E 68 b9 04 0f
        E 116 89 24 40
        E 25 89 33 40
        E 12 b9 04 20
        E 26 b9 04 30
        E 152 b9 04 20
        E 51 b9 04 0f
        E 39 b9 04 00
        E 295 b9 04 12
        E 9 99 24 60
        E 3 99 33 7f
        E 5 b9 04 22
        E 16 b9 04 32
        E 30 b9 04 20
        E 19 b9 04 0f
        E 171 89 24 40
        E 3 89 33 40
        E 22 b9 04 20
        E 37 b9 04 30
        E 126 b9 04 20
        E 44 99 26 7d
        E 8 b9 04 0f
        E 33 b9 04 00
        E 201 89 26 40
        E 89 b9 04 12
        E 29 b9 04 22
        E 10 b9 04 32
        E 22 99 33 7f
        E 6 b9 04 22
        E 20 b9 04 12
        E 160 b9 04 22
        E 33 b9 04 32
        E 22 89 33 40
        E 104 b9 04 36
        E 51 b9 04 25
        E 8 99 24 64
        E 33 b9 04 15
        E 46 b9 04 03
        E 9 b9 04 00
        E 153 89 24 40
        E 164 99 28 54
        E 17 b9 04 12
        E 15 b9 04 22
        E 14 99 33 7f
        E 7 b9 04 32
        E 12 b9 04 43
        E 15 b9 04 32
        E 10 b9 04 22
        E 16 b9 04 12
        E 135 89 28 40
        E 39 b9 04 22
        E 10 89 33 40
        E 116 b9 04 27
        E 69 b9 04 15
        E 61 b9 04 03
        E 17 b9 04 00
        E 271 b9 04 12
        E 12 99 33 43
        E 7 b9 04 22
        E 12 b9 04 32
        E 34 b9 04 20
        E 125 b9 04 1a
        E 46 b9 04 2c
        E 20 89 33 40
        E 17 b9 04 3c
        E 145 b9 04 2c
        E 27 99 24 60
        E 16 b9 04 1a
        E 44 b9 04 09
        E 26 b9 04 00
        E 155 89 24 40
        E 128 b9 04 12
        E 8 99 26 71
        E 16 b9 04 22
        E 15 b9 04 32
        E 7 b9 04 43
        E 22 99 33 63
        E 2 b9 04 32
        E 8 b9 04 20
        E 128 b9 04 12
        E 45 89 26 40
        E 19 b9 04 22
        E 29 b9 04 32
        E 10 89 33 40
        E 116 b9 04 36
        E 51 b9 04 25
        E 5 99 24 5e
        E 36 b9 04 15
        E 44 b9 04 03
        E 14 b9 04 00
        E 150 89 24 40
        E 159 b9 04 12
        E 8 b9 04 22
        E 7 b9 04 32
        E 7 99 26 7f
        E 15 99 33 62
        E 4 b9 04 43
        E 5 b9 04 4c
        E 3 99 2c 1e
        E 2 b9 04 53
        E 19 b9 04 43
        E 7 b9 04 32
        E 187 89 26 40
        E 12 b9 04 3a
        E 2 89 33 40
        E 13 89 2c 40
        E 42 b9 04 29
        E 37 b9 04 18
        E 17 99 24 7f
        E 33 b9 04 06
        E 39 b9 04 00
        E 169 89 24 40
        E 235 b9 04 12
        E 22 b9 04 25
        E 9 b9 04 36
        E 5 b9 04 47
        E 3 b9 04 4c
        E 2 99 2c 26
        E 10 99 33 5e
        E 2 b9 04 36
        E 10 b9 04 20
        E 17 b9 04 0f
        E 186 b9 04 20
        E 18 89 2c 40
        E 11 89 33 40
        E 19 b9 04 30
        E 162 b9 04 20
        E 65 b9 04 0f
        E 56 b9 04 00
        E 326 99 24 7f
        E 0 b9 04 12
        E 11 b9 04 22
        E 25 b9 04 32
        E 12 b9 04 43
        E 2 99 33 73
        E 5 b9 04 4c
        E 3 99 2c 1c
        E 14 b9 04 32
        E 12 b9 04 20
        E 128 b9 04 18
        E 30 89 24 40
        E 26 b9 04 29
        E 24 89 33 40
        E 7 89 2c 40
        E 140 b9 04 18
        E 54 b9 04 06
        E 18 b9 04 00
        E 322 b9 04 12
        E 12 b9 04 22
        E 5 99 24 71
        E 15 b9 04 32
        E 14 99 33 62
        E 17 b9 04 22
        E 12 b9 04 12
        E 133 b9 04 09
        E 51 89 24 40
        E 14 b9 04 1a
        E 15 89 33 40
        E 31 b9 04 2c
        E 139 b9 04 1a
        E 26 99 26 78
        E 26 b9 04 09
        E 26 b9 04 00
        E 189 89 26 40
        E 109 b9 04 12
        E 21 b9 04 22
        E 44 b9 04 12
        E 29 99 33 62
        E 157 b9 04 22
        E 29 b9 04 32
        E 58 89 33 40
        E 84 b9 04 22
        E 54 b9 04 12
        E 16 99 24 6e
        E 49 b9 04 00
        E 194 89 24 40
        E 147 b9 04 12
        E 4 99 26 77
        E 5 b9 04 25
        E 26 b9 04 36
        E 13 99 33 60
        E 19 b9 04 25
        E 12 b9 04 15
        E 167 89 26 40
        E 19 b9 04 25
        E 24 89 33 40
        E 147 b9 04 15
        E 64 b9 04 03
        E 14 b9 04 00
        E 292 b9 04 12
        E 30 99 33 49
        E 0 b9 04 22
        E 9 b9 04 32
        E 32 b9 04 22
        E 29 b9 04 12
        E 159 b9 04 25
        E 12 89 33 40
        E 43 b9 04 36
        E 118 b9 04 25
        E 33 99 24 64
        E 11 b9 04 15
        E 49 b9 04 03
        E 12 b9 04 00
        E 169 89 24 40
        E 142 b9 04 12
        E 2 99 26 50
        E 11 b9 04 25
        E 12 99 33 7f
        E 4 b9 04 36
        E 20 b9 04 46
        E 14 b9 04 36
        E 10 b9 04 25
        E 39 b9 04 15
        E 135 89 26 40
        E 21 89 33 40
        E 3 b9 04 25
        E 39 b9 04 36
        E 135 99 24 5b
        E 24 b9 04 25
        E 39 b9 04 15
        E 48 b9 04 03
        E 10 b9 04 00
        E 120 89 24 40
        E 143 99 26 7a
        E 54 b9 04 12
        E 6 b9 04 22
        E 17 b9 04 32
        E 17 89 26 40
        E 2 99 26 70
        E 3 b9 04 43
        E 5 b9 04 4c
        E 3 99 2c 1e
        E 19 b9 04 32
        E 10 b9 04 22
        E 57 b9 04 12
        E 119 b9 04 22
        E 26 89 26 40
        E 10 b9 04 32
        E 2 89 2c 40
        E 114 99 24 5d
        E 34 b9 04 22
        E 60 b9 04 12
        E 50 b9 04 00
        E 98 89 24 40
        E 159 99 2d 7f
        E 24 99 30 7f
        E 17 b9 04 12
        E 36 b9 04 22
        E 8 b9 04 32
        E 7 b9 04 43
        E 19 b9 04 32
        E 7 b9 04 20
        E 27 b9 04 0f
        E 99 89 2d 40
        E 22 b9 04 20
        E 2 89 30 40
        E 24 b9 04 30
        E 114 99 24 50
        E 17 b9 04 34
        E 36 b9 04 22
        E 44 b9 04 12
        E 43 b9 04 00
        E 102 89 24 40
        E 248 99 24 7f
        E 2 b9 04 12
        E 8 b9 04 22
        E 5 b9 04 32
        E 7 99 3b 7f
        E 2 b9 04 43
        E 15 b9 04 4c
        E 2 99 2c 1c
        E 24 b9 04 32
        E 10 b9 04 22
        E 34 b9 04 12
        E 138 89 24 40
        E 19 89 3b 40
        E 12 b9 04 22
        E 5 89 2c 40
        E 121 b9 04 2c
        E 65 b9 04 1a
        E 80 b9 04 09
        E 39 b9 04 00
        E 256 99 33 38
        E 26 b9 04 12
        E 26 b9 04 22
        E 15 b9 04 32
        E 17 b9 04 43
        E 22 b9 04 32
        E 24 b9 04 22
        E 111 89 33 40
        E 169 99 26 7f
        E 10 b9 04 12
        E 116 b9 04 00
        E 119 89 26 40
        E 110 b9 04 12
        E 41 b9 04 25
        E 64 99 26 42
        E 11 b9 04 15
        E 157 b9 04 25
        E 34 b9 04 36
        E 41 89 26 40
        E 8 b9 04 46
        E 106 b9 04 36
        E 36 99 24 5c
        E 12 b9 04 25
        E 34 b9 04 15
        E 44 b9 04 03
        E 21 b9 04 00
        E 131 89 24 40
        E 174 99 2d 7f
        E 19 b9 04 12
        E 15 b9 04 22
        E 24 99 26 7f
        E 4 b9 04 32
        E 10 b9 04 43
        E 5 b9 04 4d
        E 3 99 2c 28
        E 0 b9 04 54
        E 21 b9 04 44
        E 7 b9 04 34
        E 46 b9 04 22
        E 89 89 2d 40
        E 39 b9 04 1a
        E 17 89 26 40
        E 25 89 2c 40
        E 40 b9 04 2c
        E 216 b9 04 1a
        E 50 b9 04 09
        E 36 b9 04 00
        E 215 b9 04 12
        E 27 b9 04 22
        E 12 b9 04 32
        E 12 b9 04 43
        E 39 b9 04 32
        E 121 b9 04 43
        E 106 b9 04 32
        E 33 b9 04 22
        E 28 99 24 64
        E 16 b9 04 12
        E 66 b9 04 00
        E 159 89 24 40
        E 142 99 26 7f
        E 34 b9 04 12
        E 10 b9 04 22
        E 22 b9 04 32
        E 17 b9 04 43
        E 2 b9 04 4c
        E 3 99 2c 26
        E 2 b9 04 54
        E 19 b9 04 43
        E 3 89 26 40
        E 2 99 26 7f
        E 3 b9 04 32
        E 5 b9 04 22
        E 65 b9 04 12
        E 144 89 2c 40
        E 5 b9 04 22
        E 18 89 26 40
        E 14 b9 04 32
        E 114 99 24 57
        E 60 b9 04 22
        E 50 b9 04 12
        E 49 b9 04 00
        E 84 89 24 40
        E 129 99 2d 7f
        E 24 99 30 7f
        E 38 b9 04 12
        E 19 b9 04 22
        E 12 b9 04 32
        E 8 b9 04 43
        E 5 b9 04 4c
        E 2 99 2c 20
        E 22 b9 04 32
        E 7 b9 04 22
        E 53 b9 04 12
        E 51 89 2d 40
        E 27 89 30 40
        E 24 b9 04 22
        E 34 b9 04 32
        E 26 89 2c 40
        E 118 99 24 5a
        E 35 b9 04 22
        E 43 b9 04 12
        E 48 b9 04 00
        E 116 89 24 40
        E 116 99 2d 7f
        E 22 99 29 7f
        E 50 b9 04 12
        E 37 b9 04 22
        E 10 b9 04 32
        E 26 b9 04 20
        E 19 b9 04 0f
        E 82 89 2d 40
        E 15 89 29 40
        E 21 b9 04 20
        E 40 b9 04 30
        E 118 b9 04 20
        E 63 b9 04 0f
        E 38 b9 04 00
        E 343 99 24 7f
        E 5 b9 04 12
        E 8 99 33 7f
        E 2 b9 04 25
        E 5 99 31 7f
        E 12 b9 04 36
        E 19 b9 04 46
        E 3 b9 04 4c
        E 2 99 2c 1a
        E 17 b9 04 36
        E 8 b9 04 25
        E 14 b9 04 15
        E 128 b9 04 25
        E 18 89 24 40
        E 15 89 33 40
        E 8 89 31 40
        E 36 89 2c 40
        E 63 b9 04 2c
        E 75 b9 04 1a
        E 137 b9 04 09
        E 71 b9 04 00
        E 195 b9 04 12
        E 32 b9 04 22
        E 7 b9 04 32
        E 31 b9 04 20
        E 343 b9 04 0f
        E 10 99 28 7f
        E 154 b9 04 03
        E 88 89 28 40
        E 14 b9 04 15
        E 31 b9 04 25
        E 29 b9 04 36
        E 73 b9 04 25
        E 132 b9 04 20
        E 49 b9 04 30
        E 39 b9 04 41
        E 22 b9 04 4c
        E 2 99 2c 0a
        E 10 b9 04 51
        E 130 b9 04 58
        E 46 b9 04 47
        E 34 b9 04 36
        E 14 99 24 6e
        E 7 89 2c 40
        E 5 b9 04 25
        E 29 b9 04 15
        E 41 b9 04 03
        E 7 b9 04 00
        E 153 89 24 40
        E 135 99 26 7f
        E 51 b9 04 12
        E 10 b9 04 25
        E 28 b9 04 36
        E 11 b9 04 46
        E 2 99 28 7f
        E 2 b9 04 4d
        E 3 99 2c 22
        E 16 b9 04 36
        E 10 b9 04 25
        E 19 b9 04 15
        E 92 89 26 40
        E 87 b9 04 25
        E 12 89 28 40
        E 2 89 2c 40
        E 119 b9 04 15
        E 58 b9 04 03
        E 19 b9 04 00
        E 285 b9 04 12
        E 25 b9 04 22
        E 7 b9 04 32
        E 9 b9 04 43
        E 22 b9 04 32
        E 13 b9 04 20
        E 145 b9 04 30
        E 45 b9 04 41
        E 147 99 24 5c
        E 3 b9 04 30
        E 32 b9 04 20
        E 43 b9 04 0f
        E 38 b9 04 00
        E 126 89 24 40
        E 179 b9 04 12
        E 10 b9 04 25
        E 10 99 2d 7f
        E 2 99 30 7f
        E 5 b9 04 36
        E 19 b9 04 46
        E 4 b9 04 4d
        E 3 99 2c 24
        E 2 b9 04 57
        E 20 b9 04 46
        E 7 b9 04 36
        E 41 b9 04 25
        E 129 b9 04 1d
        E 9 89 2d 40
        E 2 89 30 40
        E 29 b9 04 2e
        E 2 89 2c 40
        E 134 b9 04 36
        E 2 99 24 53
        E 53 b9 04 25
        E 34 b9 04 15
        E 36 b9 04 03
        E 10 b9 04 00
        E 109 89 24 40
        E 154 99 26 72
        E 17 b9 04 12
        E 26 b9 04 22
        E 17 b9 04 32
        E 5 89 26 40
        E 3 99 26 7f
        E 2 b9 04 44
        E 3 b9 04 4d
        E 2 99 2c 26
        E 19 b9 04 34
        E 13 b9 04 20
        E 130 b9 04 15
        E 51 b9 04 25
        E 22 89 26 40
        E 9 89 2c 40
        E 7 b9 04 36
        E 152 99 24 5f
        E 13 b9 04 25
        E 38 b9 04 15
        E 46 b9 04 03
        E 17 b9 04 00
        E 130 89 24 40
        E 155 99 30 7f
        E 12 99 29 51
        E 27 b9 04 12
        E 34 b9 04 22
        E 14 b9 04 32
        E 29 b9 04 20
        E 21 b9 04 0f
        E 105 89 30 40
        E 11 89 29 40
        E 18 b9 04 20
        E 41 b9 04 30
        E 106 99 30 7f
        E 34 b9 04 20
        E 48 b9 04 0f
        E 32 b9 04 00
        E 126 89 30 40
        E 173 99 24 75
        E 3 b9 04 12
        E 7 b9 04 25
        E 7 b9 04 36
        E 26 b9 04 46
        E 3 b9 04 4c
        E 2 99 2c 16
        E 6 b9 04 56
        E 17 b9 04 44
        E 9 b9 04 34
        E 49 b9 04 20
        E 93 b9 04 0f
        E 20 89 24 40
        E 48 89 2c 40
        E 140 b9 04 20
        E 66 b9 04 30
        E 60 b9 04 41
        E 39 b9 04 4d
        E 2 99 2c 08
        E 17 b9 04 51
        E 133 b9 04 41
        E 33 b9 04 30
        E 30 b9 04 20
        E 31 89 2c 40
        E 5 99 24 6d
        E 7 b9 04 0f
        E 41 b9 04 00
        E 193 89 24 40
        E 160 b9 04 12
        E 7 99 26 7f
        E 3 b9 04 25
        E 36 b9 04 36
        E 10 b9 04 46
        E 2 b9 04 4d
        E 0 99 2c 28
        E 3 b9 04 56
        E 16 b9 04 46
        E 5 b9 04 36
        E 7 b9 04 25
        E 26 99 28 7a
        E 13 b9 04 15
        E 123 89 26 40
        E 48 89 2c 40
        E 61 89 28 40
        E 87 b9 04 25
        E 82 b9 04 36
        E 36 b9 04 46
        E 19 b9 04 4f
        E 3 99 2c 08
        E 22 b9 04 56
        E 147 b9 04 46
        E 34 b9 04 36
        E 31 b9 04 22
        E 7 89 2c 40
        E 32 b9 04 12
        E 49 99 24 62
        E 4 b9 04 00
        E 237 89 24 40
        E 159 99 2d 7f
        E 5 b9 04 12
        E 10 b9 04 22
        E 4 99 30 7f
        E 32 b9 04 32
        E 7 b9 04 43
        E 3 b9 04 4c
        E 2 99 2c 2c
        E 3 b9 04 53
        E 14 b9 04 43
        E 5 b9 04 32
        E 4 b9 04 20
        E 27 b9 04 0f
        E 102 b9 04 20
        E 24 89 2d 40
        E 22 89 30 40
        E 24 b9 04 30
        E 19 89 2c 40
        E 108 b9 04 20
        E 78 b9 04 0f
        E 44 b9 04 00
        E 270 b9 04 12
        E 22 b9 04 22
        E 7 b9 04 32
        E 10 b9 04 43
        E 2 b9 04 4c
        E 3 99 2c 28
        E 2 b9 04 53
        E 12 b9 04 43
        E 10 b9 04 32
        E 10 b9 04 20
        E 198 b9 04 30
        E 7 89 2c 40
        E 34 b9 04 41
        E 152 99 24 5e
        E 12 b9 04 30
        E 35 b9 04 20
        E 43 b9 04 0f
        E 40 b9 04 00
        E 112 89 24 40
        E 133 99 26 7f
        E 55 b9 04 12
        E 8 b9 04 22
        E 9 b9 04 32
        E 10 89 26 40
        E 3 99 26 7f
        E 16 b9 04 43
        E 2 b9 04 4d
        E 3 99 2c 20
        E 5 b9 04 53
        E 14 b9 04 41
        E 7 b9 04 30
        E 15 b9 04 20
        E 179 89 26 40
        E 7 b9 04 30
        E 17 89 2c 40
        E 26 b9 04 41
        E 95 99 24 55
        E 41 b9 04 30
        E 31 b9 04 20
        E 48 b9 04 0f
        E 44 b9 04 00
        E 79 89 24 40
        E 168 99 30 7f
        E 89 b9 04 12
        E 12 b9 04 22
        E 36 b9 04 32
        E 7 b9 04 43
        E 7 89 30 40
        E 3 99 30 5a
        E 12 b9 04 32
        E 5 b9 04 20
        E 24 b9 04 0f
        E 167 89 30 40
        E 0 99 30 6c
        E 7 b9 04 20
        E 27 b9 04 30
        E 129 b9 04 34
        E 37 b9 04 22
        E 24 89 30 40
        E 2 99 30 7f
        E 16 b9 04 12
        E 40 b9 04 00
        E 133 89 30 40
        E 3 99 30 7f
        E 195 b9 04 12
        E 13 b9 04 22
        E 7 89 30 40
        E 2 99 30 78
        E 24 b9 04 32
        E 10 b9 04 44
        E 2 b9 04 4c
        E 3 99 2c 22
        E 15 b9 04 34
        E 11 b9 04 20
        E 82 b9 04 30
        E 25 89 30 40
        E 2 99 30 72
        E 106 89 2c 40
        E 25 b9 04 20
        E 41 b9 04 0f
        E 29 89 30 40
        E 2 99 30 7f
        E 2 b9 04 00
        E 237 89 30 40
        E 7 99 33 7f
        E 10 99 24 66
        E 49 b9 04 12
        E 9 b9 04 25
        E 19 b9 04 36
        E 20 b9 04 46
        E 4 b9 04 4c
        E 3 99 2c 18
        E 14 b9 04 36
        E 12 b9 04 25
        E 51 b9 04 15
        E 52 89 33 40
        E 8 89 24 40
        E 95 b9 04 25
        E 10 89 2c 40
        E 121 b9 04 2c
        E 48 b9 04 1a
        E 46 b9 04 09
        E 21 b9 04 00
        E 230 99 24 58
        E 39 b9 04 12
        E 26 b9 04 22
        E 14 b9 04 32
        E 40 b9 04 22
        E 74 b9 04 12
        E 48 89 24 40
        E 126 b9 04 22
        E 43 b9 04 32
        E 51 99 26 7f
        E 86 99 28 7d
        E 3 b9 04 3c
        E 153 89 26 40
        E 5 b9 04 2c
        E 80 89 28 40
        E 36 b9 04 1a
        E 189 b9 04 2c
        E 14 b9 04 3c
        E 17 b9 04 4c
        E 2 99 2c 12
        E 2 b9 04 4c
        E 22 b9 04 5c
        E 152 b9 04 4c
        E 21 b9 04 3c
        E 22 b9 04 2c
        E 23 89 2c 40
        E 2 b9 04 1a
        E 19 99 24 6a
        E 12 b9 04 09
        E 27 b9 04 00
        E 203 89 24 40
        E 152 99 2d 7f
        E 30 99 30 7f
        E 14 b9 04 12
        E 38 b9 04 22
        E 10 b9 04 32
        E 7 b9 04 44
        E 17 b9 04 34
        E 9 b9 04 20
        E 17 b9 04 0f
        E 59 b9 04 20
        E 45 89 2d 40
        E 27 89 30 40
        E 54 b9 04 27
        E 60 b9 04 15
        E 53 b9 04 03
        E 14 b9 04 00
        E 279 b9 04 12
        E 21 b9 04 22
        E 7 b9 04 32
        E 7 b9 04 43
        E 8 b9 04 4c
        E 1 99 2c 1e
        E 18 b9 04 32
        E 10 b9 04 22
        E 151 b9 04 32
        E 62 b9 04 43
        E 1 89 2c 40
        E 105 b9 04 32
        E 36 b9 04 22
        E 29 99 24 61
        E 19 b9 04 12
        E 48 b9 04 00
        E 174 89 24 40
        E 152 99 26 7f
        E 10 b9 04 12
        E 7 b9 04 22
        E 10 b9 04 32
        E 29 b9 04 43
        E 5 b9 04 4c
        E 2 99 2c 20
        E 3 b9 04 53
        E 21 b9 04 43
        E 7 b9 04 32
        E 3 99 28 7f
        E 42 b9 04 22
        E 58 b9 04 12
        E 47 89 26 40
        E 64 89 2c 40
        E 9 b9 04 22
        E 24 b9 04 32
        E 3 89 28 40
        E 27 b9 04 43
        E 125 99 24 55
        E 29 b9 04 32
        E 29 b9 04 22
        E 39 b9 04 12
        E 37 b9 04 00
        E 108 89 24 40
        E 164 99 2d 7f
        E 79 b9 04 12
        E 37 b9 04 22
        E 19 b9 04 32
        E 5 b9 04 43
        E 4 89 2d 40
        E 3 99 2d 7f
        E 2 b9 04 4c
        E 2 99 2c 20
        E 13 b9 04 30
        E 5 b9 04 20
        E 24 b9 04 0f
        E 135 b9 04 20
        E 29 b9 04 30
        E 3 89 2d 40
        E 2 99 2d 7f
        E 29 89 2c 40
        E 19 b9 04 41
        E 100 b9 04 30
        E 36 b9 04 20
        E 24 89 2d 40
        E 2 99 2d 7f
        E 15 b9 04 0f
        E 29 b9 04 00
        E 196 89 2d 40
        E 21 99 29 6e
        E 111 b9 04 12
        E 12 b9 04 22
        E 37 b9 04 32
        E 9 b9 04 43
        E 19 b9 04 32
        E 11 b9 04 20
        E 19 89 29 40
        E 2 99 29 7e
        E 22 b9 04 0f
        E 135 b9 04 20
        E 10 89 29 40
        E 3 99 29 66
        E 173 b9 04 0f
        E 15 89 29 40
        E 2 99 29 6d
        E 21 b9 04 00
        E 218 89 29 40
        E 3 99 24 7f
        E 24 99 33 7c
        E 39 b9 04 12
        E 21 b9 04 22
        E 15 b9 04 32
        E 34 b9 04 20
        E 111 89 24 40
        E 14 b9 04 18
        E 9 89 33 40
        E 33 b9 04 29
        E 40 b9 04 3a
        E 153 b9 04 29
        E 70 b9 04 18
        E 253 99 24 58
        E 66 b9 04 22
        E 128 b9 04 29
        E 50 89 24 40
        E 37 b9 04 18
        E 69 b9 04 06
        E 39 b9 04 00
        E 126 99 26 7f
        E 16 99 33 7f
        E 5 b9 04 12
        E 24 b9 04 22
        E 13 b9 04 32
        E 17 b9 04 43
        E 7 b9 04 4c
        E 2 99 2c 14
        E 8 b9 04 53
        E 24 b9 04 43
        E 19 b9 04 32
        E 41 b9 04 22
        E 48 b9 04 12
        E 20 89 26 40
        E 15 89 33 40
        E 68 89 2c 40
        E 139 b9 04 22
        E 21 b9 04 32
        E 27 b9 04 43
        E 22 b9 04 4d
        E 3 99 2c 0a
        E 9 b9 04 53
        E 143 b9 04 43
        E 29 b9 04 32
        E 17 b9 04 22
        E 34 b9 04 12
        E 9 89 2c 40
        E 17 99 24 5f
        E 22 b9 04 00
        E 220 89 24 40
        E 147 99 2d 7f
        E 27 b9 04 12
        E 2 99 30 7f
        E 7 b9 04 22
        E 39 b9 04 32
        E 7 b9 04 44
        E 3 b9 04 4c
        E 2 99 2c 36
        E 3 b9 04 55
        E 17 b9 04 44
        E 4 b9 04 34
        E 7 b9 04 20
        E 126 89 2d 40
        E 29 89 30 40
        E 29 b9 04 30
        E 27 89 2c 40
        E 99 b9 04 20
        E 72 b9 04 0f
        E 51 b9 04 00
        E 256 b9 04 12
        E 17 b9 04 25
        E 12 b9 04 36
        E 7 b9 04 46
        E 2 b9 04 4c
        E 3 99 2c 1c
        E 29 b9 04 36
        E 97 b9 04 46
        E 115 89 2c 40
        E 23 b9 04 36
        E 36 b9 04 25
        E 28 b9 04 15
        E 23 99 24 63
        E 17 b9 04 03
        E 14 b9 04 00
        E 212 89 24 40
        E 116 99 26 7f
        E 2 b9 04 12
        E 10 b9 04 25
        E 13 b9 04 36
        E 26 b9 04 47
        E 3 b9 04 4c
        E 2 99 2c 24
        E 5 b9 04 57
        E 12 b9 04 46
        E 7 b9 04 36
        E 10 b9 04 25
        E 21 99 28 7f
        E 27 b9 04 15
        E 106 89 26 40
        E 56 89 2c 40
        E 12 b9 04 25
        E 34 b9 04 36
        E 5 89 28 40
        E 132 99 24 5a
        E 30 b9 04 25
        E 38 b9 04 15
        E 41 b9 04 03
        E 12 b9 04 00
        E 124 89 24 40
        E 137 99 2d 7f
        E 22 b9 04 12
        E 5 99 30 7f
        E 9 b9 04 22
        E 17 b9 04 32
        E 17 b9 04 43
        E 2 b9 04 4c
        E 3 99 2c 1e
        E 6 b9 04 54
        E 9 b9 04 64
        E 12 b9 04 54
        E 7 b9 04 44
        E 44 b9 04 34
        E 30 b9 04 22
        E 59 89 2d 40
        E 32 89 30 40
        E 11 b9 04 32
        E 34 89 2c 40
        E 13 b9 04 43
        E 139 99 24 64
        E 5 b9 04 32
        E 32 b9 04 22
        E 33 b9 04 12
        E 44 b9 04 00
        E 130 89 24 40
        E 126 99 26 5c
        E 63 b9 04 12
        E 14 b9 04 22
        E 3 99 28 7a
        E 27 b9 04 32
        E 7 b9 04 43
        E 4 b9 04 4c
        E 3 99 2c 22
        E 17 b9 04 32
        E 7 b9 04 20
        E 96 89 26 40
        E 22 b9 04 30
        E 59 89 28 40
        E 43 89 2c 40
        E 38 b9 04 20
        E 59 b9 04 0f
        E 50 b9 04 00
        E 374 b9 04 12
        E 13 b9 04 25
        E 5 99 24 7f
        E 21 b9 04 36
        E 10 99 33 7f
        E 2 b9 04 46
        E 15 b9 04 36
        E 10 b9 04 25
        E 12 b9 04 15
        E 89 b9 04 25
        E 85 89 24 40
        E 31 89 33 40
        E 34 b9 04 2c
        E 61 b9 04 1a
        E 60 b9 04 09
        E 36 b9 04 00
        E 300 b9 04 12
        E 23 b9 04 22
        E 20 b9 04 32
        E 10 b9 04 43
        E 5 b9 04 4c
        E 2 99 2c 24
        E 3 b9 04 53
        E 28 b9 04 43
        E 44 b9 04 32
        E 31 b9 04 22
        E 129 b9 04 1d
        E 4 89 2c 40
        E 39 b9 04 2e
        E 135 b9 04 36
        E 45 99 28 7f
        E 42 b9 04 25
        E 53 b9 04 15
        E 80 b9 04 03
        E 40 b9 04 00
        E 30 89 28 40
        E 121 b9 04 12
        E 36 b9 04 22
        E 15 b9 04 32
        E 14 b9 04 43
        E 19 b9 04 32
        E 94 b9 04 43
        E 42 b9 04 4c
        E 2 99 2c 08
        E 126 b9 04 32
        E 26 b9 04 22
        E 37 b9 04 12
        E 7 99 24 6e
        E 39 b9 04 00
        E 7 89 2c 40
        E 195 89 24 40
        E 158 99 2d 7f
        E 2 99 30 7b
        E 14 b9 04 12
        E 44 b9 04 22
        E 7 b9 04 32
        E 3 b9 04 44
        E 2 b9 04 4c
        E 2 99 2c 38
        E 2 b9 04 54
        E 15 b9 04 44
        E 5 b9 04 32
        E 7 b9 04 20
        E 85 b9 04 30
        E 53 89 2d 40
        E 2 89 30 40
        E 68 b9 04 20
        E 7 89 2c 40
        E 46 b9 04 0f
        E 41 b9 04 00
        E 288 b9 04 12
        E 34 b9 04 25
        E 12 b9 04 36
        E 6 b9 04 46
        E 3 b9 04 4c
        E 3 99 2c 28
        E 2 b9 04 56
        E 15 b9 04 46
        E 6 b9 04 36
        E 13 b9 04 25
        E 70 b9 04 36
        E 46 b9 04 46
        E 89 89 2c 40
        E 56 b9 04 36
        E 34 b9 04 25
        E 31 b9 04 15
        E 20 99 24 65
        E 19 b9 04 03
        E 14 b9 04 00
        E 211 89 24 40
        E 116 99 26 7f
        E 65 b9 04 12
        E 36 89 26 40
        E 2 99 26 7e
        E 8 b9 04 22
        E 7 b9 04 32
        E 5 b9 04 43
        E 14 b9 04 32
        E 5 b9 04 22
        E 12 b9 04 12
        E 104 b9 04 22
        E 51 b9 04 32
        E 34 89 26 40
        E 67 b9 04 22
        E 5 99 26 6a
        E 33 b9 04 12
        E 40 b9 04 00
        E 60 99 30 7f
        E 108 89 26 40
        E 44 99 2d 6a
        E 87 b9 04 12
        E 3 89 30 40
        E 7 b9 04 25
        E 17 b9 04 36
        E 9 99 24 7f
        E 15 b9 04 46
        E 2 b9 04 4d
        E 3 99 2c 1c
        E 2 b9 04 56
        E 22 b9 04 46
        E 12 b9 04 36
        E 63 89 2d 40
        E 123 89 24 40
        E 3 b9 04 46
        E 19 89 2c 40
        E 142 b9 04 36
        E 17 99 24 5a
        E 20 b9 04 22
        E 28 b9 04 12
        E 32 b9 04 00
        E 162 89 24 40
        E 132 99 26 7f
        E 23 b9 04 12
        E 9 b9 04 25
        E 34 b9 04 36
        E 7 b9 04 46
        E 3 b9 04 4c
        E 2 99 2c 24
        E 14 99 28 7f
        E 5 b9 04 36
        E 8 b9 04 25
        E 12 b9 04 15
        E 128 89 26 40
        E 53 b9 04 25
        E 21 89 2c 40
        E 17 89 28 40
        E 6 b9 04 36
        E 106 99 24 64
        E 18 b9 04 25
        E 37 b9 04 15
        E 42 b9 04 03
        E 7 b9 04 00
        E 137 89 24 40
        E 182 b9 04 12
        E 9 b9 04 22
        E 3 99 24 7f
        E 2 b9 04 32
        E 29 99 33 7f
        E 2 b9 04 43
        E 7 99 31 7f
        E 0 b9 04 4c
        E 5 99 2c 20
        E 3 b9 04 53
        E 14 b9 04 43
        E 7 b9 04 32
        E 17 b9 04 22
        E 68 b9 04 12
        E 87 89 24 40
        E 15 b9 04 22
        E 19 89 33 40
        E 10 89 31 40
        E 2 89 2c 40
        E 0 b9 04 32
        E 145 b9 04 22
        E 39 b9 04 12
        E 40 b9 04 00
        E 291 99 33 6a
        E 9 b9 04 12
        E 7 99 24 63
        E 3 b9 04 22
        E 7 b9 04 32
        E 31 b9 04 43
        E 5 b9 04 4c
        E 2 99 2c 1c
        E 5 b9 04 53
        E 22 b9 04 43
        E 123 b9 04 36
        E 27 89 33 40
        E 19 89 24 40
        E 15 b9 04 25
        E 34 89 2c 40
        E 17 b9 04 15
        E 65 b9 04 03
        E 12 b9 04 00
        E 31 99 26 6c
        E 242 89 26 40
        E 53 b9 04 12
        E 32 b9 04 25
        E 10 b9 04 36
        E 9 b9 04 47
        E 0 b9 04 4c
        E 2 99 2c 22
        E 18 b9 04 36
        E 11 b9 04 25
        E 56 99 33 50
        E 5 b9 04 15
        E 152 89 2c 40
        E 10 b9 04 25
        E 28 b9 04 36
        E 35 b9 04 46
        E 11 89 33 40
        E 126 b9 04 36
        E 37 b9 04 25
        E 26 99 24 6b
        E 5 b9 04 15
        E 33 b9 04 03
        E 13 b9 04 00
        E 191 89 24 40
        E 171 b9 04 12
        E 10 b9 04 25
        E 7 99 26 7f
        E 17 b9 04 36
        E 5 99 33 7f
        E 7 b9 04 46
        E 17 b9 04 36
        E 10 b9 04 22
        E 14 b9 04 12
        E 162 b9 04 22
        E 12 89 26 40
        E 22 89 33 40
        E 9 b9 04 32
        E 107 b9 04 22
        E 48 b9 04 12
        E 49 b9 04 00
        E 306 99 33 3d
        E 7 b9 04 12
        E 24 b9 04 22
        E 8 b9 04 32
        E 7 b9 04 43
        E 5 b9 04 4c
        E 2 99 2c 24
        E 17 b9 04 32
        E 10 b9 04 22
        E 162 89 33 40
        E 56 89 2c 40
        E 43 b9 04 29
        E 68 b9 04 18
        E 33 99 28 69
        E 22 b9 04 06
        E 27 b9 04 00
        E 192 89 28 40
        E 110 b9 04 12
        E 29 b9 04 22
        E 12 b9 04 32
        E 5 b9 04 43
        E 4 b9 04 4c
        E 3 99 2c 24
        E 7 99 33 42
        E 15 b9 04 32
        E 12 b9 04 20
        E 161 b9 04 18
        E 47 89 2c 40
        E 2 b9 04 29
        E 5 89 33 40
        E 51 b9 04 3a
        E 108 99 24 62
        E 2 b9 04 29
        E 45 b9 04 18
        E 35 b9 04 06
        E 15 b9 04 00
        E 145 89 24 40
        E 167 b9 04 12
        E 16 b9 04 22
        E 5 99 33 46
        E 17 b9 04 32
        E 12 b9 04 43
        E 3 b9 04 4c
        E 2 99 2c 26
        E 2 b9 04 53
        E 15 b9 04 43
        E 7 b9 04 32
        E 7 b9 04 22
        E 123 b9 04 1d
        E 47 b9 04 2e
        E 7 89 33 40
        E 26 b9 04 3e
        E 10 89 2c 40
        E 130 99 24 65
        E 15 b9 04 2e
        E 34 b9 04 1d
        E 39 b9 04 0c
        E 24 b9 04 00
        E 130 89 24 40
        E 155 99 26 79
        E 43 99 33 54
        E 2 b9 04 12
        E 10 b9 04 25
        E 16 b9 04 36
        E 20 b9 04 46
        E 5 b9 04 4c
        E 3 99 2c 1c
        E 17 b9 04 36
        E 7 b9 04 25
        E 12 b9 04 15
        E 109 89 26 40
        E 32 b9 04 25
        E 11 89 33 40
        E 53 89 2c 40
        E 114 b9 04 15
        E 46 b9 04 03
        E 7 b9 04 00
        E 336 b9 04 12
        E 10 b9 04 22
        E 2 99 24 79
        E 5 99 33 7f
        E 2 b9 04 32
        E 22 b9 04 43
        E 22 b9 04 32
        E 9 b9 04 20
        E 34 b9 04 0f
        E 107 b9 04 20
        E 40 b9 04 30
        E 3 89 24 40
        E 4 89 33 40
        E 107 b9 04 20
        E 56 b9 04 0f
        E 41 b9 04 00
        E 326 b9 04 12
        E 9 b9 04 25
        E 13 99 24 66
        E 2 b9 04 36
        E 17 99 33 53
        E 26 b9 04 25
        E 15 b9 04 15
        E 152 b9 04 09
        E 29 89 24 40
        E 22 89 33 40
        E 15 b9 04 1a
        E 33 b9 04 2c
        E 129 b9 04 34
        E 14 99 26 7f
        E 41 b9 04 22
        E 41 b9 04 12
        E 44 b9 04 00
        E 118 89 26 40
        E 159 b9 04 12
        E 24 99 33 3d
        E 2 b9 04 22
        E 8 b9 04 32
        E 12 b9 04 43
        E 15 b9 04 32
        E 9 b9 04 22
        E 126 b9 04 1a
        E 36 b9 04 2c
        E 34 89 33 40
        E 5 b9 04 3c
        E 2 99 33 0d
        E 146 b9 04 2c
        E 31 99 24 5e
        E 9 b9 04 1a
        E 46 b9 04 09
        E 10 89 33 40
        E 14 b9 04 00
        E 165 89 24 40
        E 166 b9 04 12
        E 10 b9 04 25
        E 10 99 28 7f
        E 17 b9 04 36
        E 7 99 33 4d
        E 5 b9 04 46
        E 2 b9 04 4c
        E 3 99 2c 1c
        E 14 b9 04 36
        E 12 b9 04 25
        E 32 b9 04 15
        E 140 b9 04 25
        E 12 89 28 40
        E 24 89 33 40
        E 7 89 2c 40
        E 147 b9 04 15
        E 56 b9 04 03
        E 15 b9 04 00
        E 285 b9 04 12
        E 22 99 33 4e
        E 7 b9 04 22
        E 12 b9 04 32
        E 7 b9 04 43
        E 5 b9 04 4d
        E 2 99 2c 24
        E 22 b9 04 32
        E 14 b9 04 22
        E 150 b9 04 18
        E 24 89 33 40
        E 25 b9 04 29
        E 6 89 2c 40
        E 23 b9 04 3a
        E 67 b9 04 4a
        E 51 99 24 51
        E 41 b9 04 3a
        E 44 b9 04 29
        E 38 b9 04 18
        E 29 b9 04 06
        E 17 b9 04 00
        E 75 89 24 40
        E 186 99 26 7f
        E 13 99 33 6d
        E 28 b9 04 12
        E 24 b9 04 22
        E 15 b9 04 32
        E 7 b9 04 43
        E 5 b9 04 4c
        E 2 99 2c 22
        E 17 b9 04 32
        E 5 b9 04 22
        E 29 b9 04 12
        E 97 89 26 40
        E 12 89 33 40
        E 34 b9 04 22
        E 43 b9 04 32
        E 7 89 2c 40
        E 94 b9 04 22
        E 41 b9 04 12
        E 46 b9 04 00
        E 303 b9 04 12
        E 4 99 24 68
        E 9 b9 04 25
        E 18 99 33 56
        E 5 b9 04 36
        E 43 b9 04 22
        E 68 b9 04 12
        E 101 89 24 40
        E 24 89 33 40
        E 21 b9 04 22
        E 20 b9 04 32
        E 32 b9 04 43
        E 26 b9 04 4c
        E 3 99 2c 08
        E 131 b9 04 32
        E 26 b9 04 22
        E 34 b9 04 12
        E 36 b9 04 00
        E 17 89 2c 40
        E 261 99 26 7f
        E 34 b9 04 12
        E 7 99 33 7f
        E 2 b9 04 22
        E 10 b9 04 32
        E 17 b9 04 43
        E 22 b9 04 32
        E 9 b9 04 20
        E 32 b9 04 0f
        E 109 89 26 40
        E 36 b9 04 20
        E 7 89 33 40
        E 19 b9 04 30
        E 128 b9 04 36
        E 51 b9 04 25
        E 31 b9 04 15
        E 39 b9 04 03
        E 10 b9 04 00
        E 319 b9 04 12
        E 9 b9 04 25
        E 7 99 24 7f
        E 5 b9 04 36
        E 27 99 33 7f
        E 24 b9 04 25
        E 24 b9 04 15
        E 158 b9 04 0c
        E 4 89 24 40
        E 37 89 33 40
        E 8 b9 04 1d
        E 26 b9 04 2e
        E 40 b9 04 3e
        E 131 b9 04 2e
        E 34 b9 04 1d
        E 48 b9 04 0c
        E 29 b9 04 00
        E 253 99 26 7f
        E 17 b9 04 12
        E 8 99 33 7f
        E 2 b9 04 22
        E 7 b9 04 32
        E 17 b9 04 43
        E 7 b9 04 4c
        E 3 99 2c 14
        E 3 b9 04 54
        E 33 b9 04 44
        E 58 b9 04 34
        E 63 b9 04 22
        E 26 89 26 40
        E 24 89 33 40
        E 37 89 2c 40
        E 63 b9 04 32
        E 37 b9 04 43
        E 55 b9 04 4f
        E 2 99 2c 06
        E 58 99 24 68
        E 58 b9 04 32
        E 29 b9 04 22
        E 34 b9 04 12
        E 43 b9 04 00
        E 20 89 2c 40
        E 63 89 24 40
        E 174 b9 04 12
        E 21 b9 04 25
        E 7 99 33 79
        E 5 b9 04 36
        E 7 b9 04 46
        E 2 b9 04 4c
        E 3 99 2c 24
        E 2 b9 04 56
        E 22 b9 04 46
        E 15 b9 04 36
        E 55 b9 04 25
        E 78 b9 04 15
        E 53 89 33 40
        E 22 89 2c 40
        E 19 b9 04 25
        E 29 b9 04 36
        E 31 b9 04 46
        E 138 99 24 65
        E 10 b9 04 36
        E 36 b9 04 22
        E 39 b9 04 12
        E 36 b9 04 00
        E 121 89 24 40
        E 164 99 26 79
        E 19 b9 04 12
        E 7 b9 04 25
        E 10 b9 04 36
        E 15 99 33 7f
        E 12 b9 04 46
        E 2 b9 04 4c
        E 3 99 2c 1a
        E 2 b9 04 57
        E 25 b9 04 46
        E 9 b9 04 36
        E 48 b9 04 25
        E 32 b9 04 15
        E 60 89 26 40
        E 53 89 33 40
        E 12 89 2c 40
        E 17 b9 04 25
        E 61 b9 04 36
        E 98 b9 04 25
        E 37 b9 04 15
        E 36 b9 04 03
        E 8 b9 04 00
        E 287 b9 04 12
        E 5 b9 04 25
        E 7 b9 04 36
        E 2 99 33 7f
        E 5 b9 04 46
        E 13 b9 04 4c
        E 2 99 2c 26
        E 12 b9 04 56
        E 31 b9 04 46
        E 46 b9 04 36
        E 48 b9 04 25
        E 49 b9 04 15
        E 39 89 33 40
        E 17 89 2c 40
        E 45 b9 04 25
        E 27 b9 04 36
        E 31 b9 04 46
        E 31 b9 04 4f
        E 5 99 2c 08
        E 37 99 24 5c
        E 92 b9 04 36
        E 33 b9 04 22
        E 34 b9 04 12
        E 37 b9 04 00
        E 9 89 2c 40
        E 36 89 24 40
        E 189 99 26 7f
        E 24 99 33 7f
        E 2 b9 04 12
        E 14 b9 04 22
        E 13 b9 04 32
        E 10 b9 04 43
        E 5 b9 04 4f
        E 2 99 2c 30
        E 4 b9 04 54
        E 18 b9 04 43
        E 7 b9 04 32
        E 7 b9 04 22
        E 136 89 26 40
        E 23 89 33 40
        E 30 b9 04 32
        E 17 89 2c 40
        E 57 99 24 4e
        E 68 b9 04 22
        E 44 b9 04 12
        E 36 b9 04 00
        E 94 89 24 40
        E 177 b9 04 12
        E 7 b9 04 25
        E 9 99 24 62
        E 2 b9 04 36
        E 18 b9 04 46
        E 4 b9 04 4c
        E 3 99 2c 14
        E 14 99 33 71
        E 8 b9 04 36
        E 14 b9 04 25
        E 56 b9 04 15
        E 123 89 24 40
        E 17 b9 04 25
        E 10 89 2c 40
        E 11 b9 04 36
        E 5 89 33 40
        E 20 b9 04 46
        E 16 b9 04 4f
        E 3 99 2c 0c
        E 15 b9 04 56
        E 89 99 24 4c
        E 26 b9 04 46
        E 32 b9 04 36
        E 24 b9 04 22
        E 27 b9 04 12
        E 26 89 2c 40
        E 3 b9 04 00
        E 103 89 24 40
        E 189 b9 04 12
        E 2 b9 04 22
        E 5 b9 04 34
        E 5 b9 04 46
        E 3 b9 04 4d
        E 2 99 2c 34
        E 2 99 28 67
        E 29 b9 04 57
        E 5 99 33 71
        E 2 b9 04 69
        E 15 b9 04 57
        E 12 b9 04 47
        E 41 b9 04 36
        E 22 b9 04 25
        E 39 b9 04 15
        E 77 89 2c 40
        E 3 89 28 40
        E 33 89 33 40
        E 43 b9 04 25
        E 27 b9 04 36
        E 36 99 24 60
        E 129 b9 04 25
        E 23 b9 04 15
        E 29 b9 04 03
        E 7 b9 04 00
        E 54 89 24 40
        E 193 99 24 63
        E 20 b9 04 12
        E 4 b9 04 22
        E 7 b9 04 32
        E 5 b9 04 43
        E 3 99 33 5d
        E 19 b9 04 4c
        E 3 99 2c 26
        E 6 b9 04 53
        E 23 b9 04 43
        E 14 b9 04 32
        E 46 b9 04 22
        E 68 b9 04 12
        E 24 89 24 40
        E 38 89 33 40
        E 13 b9 04 25
        E 9 89 2c 40
        E 12 b9 04 36
        E 25 b9 04 46
        E 14 b9 04 4f
        E 2 99 2c 0a
        E 17 b9 04 56
        E 73 99 33 2f
        E 16 99 24 60
        E 42 b9 04 46
        E 29 b9 04 36
        E 22 b9 04 22
        E 24 b9 04 12
        E 21 89 2c 40
        E 15 b9 04 00
        E 73 89 33 40
        E 16 89 24 40
        E 165 b9 04 12
        E 5 b9 04 22
        E 4 b9 04 32
        E 8 b9 04 43
        E 5 99 26 7e
        E 14 b9 04 4c
        E 2 99 2c 20
        E 5 99 33 7f
        E 2 b9 04 54
        E 7 b9 04 64
        E 20 b9 04 53
        E 10 b9 04 43
        E 43 b9 04 32
        E 25 b9 04 22
        E 55 b9 04 12
        E 58 89 26 40
        E 17 89 2c 40
        E 5 89 33 40
        E 41 b9 04 22
        E 24 b9 04 32
        E 32 b9 04 43
        E 17 99 24 4e
        E 31 99 33 43
        E 96 b9 04 32
        E 22 b9 04 22
        E 25 b9 04 12
        E 30 b9 04 00
        E 35 89 24 40
        E 33 89 33 40
        E 181 99 24 60
        E 8 b9 04 12
        E 7 b9 04 22
        E 5 99 33 7f
        E 0 b9 04 32
        E 8 b9 04 44
        E 19 b9 04 4c
        E 2 99 2c 24
        E 7 b9 04 54
        E 10 b9 04 64
        E 19 b9 04 54
        E 34 b9 04 44
        E 21 b9 04 34
        E 32 b9 04 22
        E 53 b9 04 12
        E 20 89 24 40
        E 19 89 33 40
        E 26 89 2c 40
        E 32 b9 04 25
        E 21 b9 04 36
        E 24 b9 04 46
        E 17 b9 04 4f
        E 3 99 2c 0c
        E 24 b9 04 56
        E 22 99 33 43
        E 15 99 24 51
        E 74 b9 04 46
        E 32 b9 04 36
        E 22 b9 04 25
        E 21 b9 04 15
        E 27 b9 04 03
        E 7 89 2c 40
        E 2 b9 04 00
        E 47 89 33 40
        E 9 89 24 40
        E 186 99 26 7f
        E 5 b9 04 12
        E 5 b9 04 22
        E 5 b9 04 32
        E 7 b9 04 43
        E 7 99 33 7f
        E 7 b9 04 4c
        E 3 99 2c 22
        E 7 b9 04 53
        E 11 b9 04 64
        E 18 b9 04 54
        E 12 b9 04 44
        E 39 b9 04 34
        E 32 b9 04 22
        E 45 b9 04 12
        E 38 89 26 40
        E 30 89 33 40
        E 9 89 2c 40
        E 49 b9 04 22
        E 19 b9 04 32
        E 27 b9 04 43
        E 24 99 24 59
        E 5 b9 04 4f
        E 4 99 2c 0a
        E 7 b9 04 53
        E 8 99 33 3d
        E 94 b9 04 43
        E 27 b9 04 32
        E 14 b9 04 22
        E 24 b9 04 12
        E 27 b9 04 00
        E 31 89 24 40
        E 12 89 2c 40
        E 12 89 33 40
        E 170 99 24 57
        E 31 b9 04 12
        E 12 99 33 7f
        E 3 b9 04 22
        E 2 b9 04 34
        E 0 b9 04 46
        E 2 b9 04 4c
        E 3 99 2c 30
        E 27 b9 04 56
        E 11 b9 04 66
        E 12 b9 04 56
        E 13 b9 04 46
        E 36 b9 04 36
        E 24 b9 04 25
        E 39 b9 04 15
        E 28 89 24 40
        E 44 89 33 40
        E 9 89 2c 40
        E 22 b9 04 25
        E 25 b9 04 36
        E 24 b9 04 46
        E 22 b9 04 4f
        E 1 99 2c 0a
        E 30 b9 04 56
        E 29 99 33 4f
        E 7 99 24 51
        E 49 b9 04 46
        E 26 b9 04 36
        E 25 b9 04 22
        E 21 b9 04 12
        E 31 b9 04 00
        E 27 89 2c 40
        E 56 89 33 40
        E 7 89 24 40
        E 167 b9 04 12
        E 4 b9 04 25
        E 5 b9 04 36
        E 3 b9 04 47
        E 2 b9 04 4d
        E 3 99 2c 3a
        E 2 99 26 7f
        E 24 b9 04 57
        E 8 b9 04 67
        E 7 99 33 7f
        E 19 b9 04 57
        E 39 b9 04 47
        E 29 b9 04 36
        E 26 b9 04 25
        E 34 b9 04 15
        E 55 89 2c 40
        E 2 89 26 40
        E 37 89 33 40
        E 55 b9 04 25
        E 17 b9 04 36
        E 24 b9 04 46
        E 15 b9 04 4d
        E 2 99 2c 0c
        E 8 99 24 57
        E 17 b9 04 56
        E 29 99 33 4c
        E 72 b9 04 46
        E 25 b9 04 36
        E 19 b9 04 25
        E 19 b9 04 15
        E 26 b9 04 03
        E 11 b9 04 00
        E 16 89 2c 40
        E 10 89 24 40
        E 43 89 33 40
        E 148 99 24 51
        E 22 b9 04 12
        E 7 b9 04 25
        E 9 b9 04 36
        E 3 b9 04 46
        E 2 b9 04 4c
        E 5 99 2c 2c
        E 5 99 33 7f
        E 12 b9 04 56
        E 17 b9 04 46
        E 17 b9 04 36
        E 48 b9 04 25
        E 36 b9 04 15
        E 61 89 24 40
        E 43 89 2c 40
        E 10 89 33 40
        E 8 b9 04 25
        E 23 b9 04 36
        E 30 b9 04 46
        E 21 b9 04 4f
        E 3 99 2c 08
        E 28 b9 04 56
        E 42 99 24 53
        E 14 99 33 48
        E 37 b9 04 46
        E 26 b9 04 36
        E 24 b9 04 22
        E 24 b9 04 12
        E 37 b9 04 00
        E 9 89 2c 40
        E 70 89 24 40
        E 14 89 33 40
        E 143 b9 04 12
        E 10 99 26 7f
        E 3 b9 04 22
        E 7 b9 04 32
        E 19 b9 04 43
        E 5 b9 04 4c
        E 2 99 2c 16
        E 3 b9 04 53
        E 14 99 33 7f
        E 14 b9 04 43
        E 39 b9 04 32
        E 17 b9 04 22
        E 41 b9 04 12
        E 77 89 26 40
        E 37 89 2c 40
        E 14 b9 04 22
        E 5 89 33 40
        E 19 b9 04 32
        E 31 b9 04 43
        E 27 99 24 53
        E 32 b9 04 4f
        E 2 99 2c 06
        E 36 99 33 3d
        E 52 b9 04 32
        E 21 b9 04 22
        E 24 b9 04 12
        E 31 b9 04 00
        E 44 89 24 40
        E 34 89 2c 40
        E 37 89 33 40
        E 122 b9 04 12
        E 5 99 24 59
        E 8 b9 04 25
        E 6 b9 04 36
        E 10 b9 04 46
        E 7 b9 04 4c
        E 3 99 2c 16
        E 19 99 33 7f
        E 17 b9 04 36
        E 53 b9 04 25
        E 49 b9 04 15
        E 69 89 24 40
        E 35 89 2c 40
        E 22 b9 04 25
        E 4294967295 89 33 40
        E 7 b9 04 36
        E 27 b9 04 46
        E 15 b9 04 4f
        E 2 99 2c 0a
        E 20 b9 04 56
        E 99 99 24 53
        E 4 99 33 53
        E 29 b9 04 46
        E 22 b9 04 36
        E 19 b9 04 22
        E 22 b9 04 12
        E 26 89 2c 40
        E 7 b9 04 00
        E 112 89 24 40
        E 4 89 33 40
        E 131 b9 04 12
        E 10 b9 04 25
        E 8 b9 04 36
        E 6 b9 04 46
        E 8 b9 04 4c
        E 2 99 2c 1e
        E 2 99 26 7f
        E 8 b9 04 56
        E 9 b9 04 67
        E 17 99 33 7f
        E 5 b9 04 57
        E 36 b9 04 47
        E 20 b9 04 36
        E 34 b9 04 25
        E 32 b9 04 15
        E 81 89 2c 40
        E 3 89 26 40
        E 31 89 33 40
        E 38 b9 04 27
        E 24 b9 04 38
        E 32 b9 04 49
        E 12 b9 04 4d
        E 3 99 2c 0a
        E 24 99 24 5c
        E 21 99 33 4b
        E 73 b9 04 38
        E 27 b9 04 27
        E 23 b9 04 15
        E 25 b9 04 03
        E 5 b9 04 00
        E 46 89 2c 40
        E 21 89 24 40
        E 25 89 33 40
        E 144 99 24 49
        E 20 b9 04 12
        E 6 b9 04 25
        E 6 b9 04 38
        E 5 b9 04 49
        E 2 b9 04 4c
        E 0 99 2c 3c
        E 12 99 33 7f
        E 15 b9 04 5a
        E 34 b9 04 4a
        E 43 b9 04 3a
        E 32 b9 04 29
        E 50 b9 04 18
        E 17 89 24 40
        E 41 89 2c 40
        E 10 89 33 40
        E 31 b9 04 29
        E 20 b9 04 3a
        E 23 b9 04 4a
        E 8 b9 04 4f
        E 2 99 2c 0c
        E 22 b9 04 5a
        E 56 99 33 6d
        E 9 99 24 50
        E 64 b9 04 4a
        E 26 b9 04 3a
        E 21 b9 04 29
        E 22 b9 04 18
        E 22 89 2c 40
        E 2 b9 04 06
        E 12 b9 04 00
        E 65 89 33 40
        E 8 89 24 40
        E 178 b9 04 12
        E 7 b9 04 25
        E 4 99 26 7f
        E 4 b9 04 36
        E 5 b9 04 46
        E 5 b9 04 4c
        E 2 99 2c 26
        E 15 b9 04 56
        E 10 99 33 7a
        E 2 b9 04 67
        E 16 b9 04 57
        E 13 b9 04 47
        E 38 b9 04 36
        E 29 b9 04 25
        E 39 b9 04 15
        E 63 89 26 40
        E 20 89 2c 40
        E 21 89 33 40
        E 42 b9 04 25
        E 23 b9 04 36
        E 29 b9 04 46
        E 17 99 24 58
        E 5 b9 04 4d
        E 1 99 2c 0a
        E 52 99 33 53
        E 68 b9 04 36
        E 26 b9 04 25
        E 22 b9 04 15
        E 26 b9 04 03
        E 8 b9 04 00
        E 34 89 24 40
        E 8 89 2c 40
        E 50 89 33 40
        E 154 99 24 54
        E 7 b9 04 12
        E 8 b9 04 25
        E 5 b9 04 38
        E 5 b9 04 4a
        E 2 b9 04 4d
        E 2 99 2c 36
        E 20 99 33 77
        E 7 b9 04 5a
        E 26 b9 04 4a
        E 39 b9 04 3a
        E 31 b9 04 29
        E 54 b9 04 18
        E 36 89 24 40
        E 29 89 2c 40
        E 22 89 33 40
        E 12 b9 04 29
        E 21 b9 04 3a
        E 25 b9 04 4a
        E 7 b9 04 4f
        E 2 99 2c 0a
        E 32 b9 04 5a
        E 67 99 33 60
        E 17 99 24 58
        E 27 b9 04 4a
        E 29 b9 04 3a
        E 19 b9 04 29
        E 24 b9 04 18
        E 25 b9 04 06
        E 2 89 2c 40
        E 12 b9 04 00
        E 87 89 33 40
        E 17 89 24 40
        E 136 b9 04 12
        E 9 b9 04 27
        E 7 b9 04 38
        E 5 99 26 7f
        E 5 b9 04 49
        E 2 b9 04 4c
        E 2 99 2c 1e
        E 10 b9 04 5a
        E 15 b9 04 6a
        E 12 99 33 7e
        E 14 b9 04 5a
        E 44 b9 04 4a
        E 31 b9 04 3a
        E 24 b9 04 29
        E 39 b9 04 18
        E 43 89 26 40
        E 8 89 2c 40
        E 39 89 33 40
        E 53 b9 04 29
        E 27 b9 04 3a
        E 36 99 24 51
        E 0 b9 04 4a
        E 11 b9 04 4f
        E 2 99 2c 08
        E 34 99 33 4c
        E 73 b9 04 3a
        E 24 b9 04 29
        E 22 b9 04 18
        E 21 b9 04 06
        E 13 b9 04 00
        E 41 89 24 40
        E 14 89 2c 40
        E 35 89 33 40
        E 142 99 24 52
        E 15 b9 04 12
        E 4 b9 04 27
        E 7 b9 04 3a
        E 5 b9 04 4a
        E 2 b9 04 4c
        E 6 99 2c 2c
        E 19 99 33 75
        E 2 b9 04 5a
        E 61 b9 04 4a
        E 24 b9 04 3a
        E 37 b9 04 29
        E 45 b9 04 18
        E 17 89 24 40
        E 34 89 2c 40
        E 21 89 33 40
        E 20 b9 04 29
        E 22 b9 04 3a
        E 26 b9 04 4a
        E 10 b9 04 4f
        E 2 99 2c 0a
        E 53 b9 04 5a
        E 27 99 24 51
        E 2 99 33 60
        E 46 b9 04 4a
        E 27 b9 04 3a
        E 24 b9 04 29
        E 22 b9 04 18
        E 24 b9 04 06
        E 12 b9 04 00
        E 4 89 2c 40
        E 83 89 24 40
        E 2 89 33 40
        E 148 b9 04 12
        E 7 b9 04 25
        E 5 b9 04 36
        E 5 99 26 7f
        E 5 b9 04 46
        E 7 b9 04 4c
        E 2 99 2c 20
        E 10 b9 04 56
        E 9 b9 04 66
        E 15 99 33 77
        E 15 b9 04 56
        E 43 b9 04 46
        E 31 b9 04 36
        E 32 b9 04 25
        E 41 b9 04 15
        E 31 89 26 40
        E 14 89 2c 40
        E 34 89 33 40
        E 34 b9 04 25
        E 25 b9 04 36
        E 26 b9 04 46
        E 18 b9 04 4f
        E 3 99 2c 0a
        E 13 99 24 4e
        E 14 b9 04 56
        E 22 99 33 53
        E 75 b9 04 46
        E 24 b9 04 36
        E 24 b9 04 22
        E 24 b9 04 12
        E 29 b9 04 00
        E 18 89 2c 40
        E 11 89 24 40
        E 37 89 33 40
        E 157 99 24 51
        E 4 b9 04 12
        E 13 b9 04 25
        E 2 b9 04 36
        E 7 b9 04 46
        E 3 b9 04 4c
        E 1 99 2c 24
        E 13 b9 04 56
        E 5 99 33 7c
        E 65 b9 04 46
        E 36 b9 04 36
        E 42 b9 04 25
        E 50 89 24 40
        E 15 b9 04 15
        E 19 89 2c 40
        E 15 89 33 40
        E 34 b9 04 25
        E 19 b9 04 36
        E 26 b9 04 46
        E 20 b9 04 4f
        E 2 99 2c 0a
        E 17 b9 04 56
        E 53 99 24 50
        E 5 99 33 5b
        E 65 b9 04 46
        E 27 b9 04 36
        E 22 b9 04 22
        E 26 b9 04 12
        E 27 b9 04 00
        E 2 89 2c 40
        E 70 89 24 40
        E 5 89 33 40
        E 167 b9 04 12
        E 7 99 26 65
        E 3 b9 04 27
        E 5 b9 04 38
        E 11 b9 04 49
        E 3 b9 04 4c
        E 2 99 2c 1c
        E 10 b9 04 5a
        E 5 99 33 7f
        E 7 b9 04 6a
        E 20 b9 04 58
        E 40 b9 04 47
        E 20 b9 04 36
        E 40 b9 04 25
        E 39 b9 04 15
        E 39 89 26 40
        E 24 89 2c 40
        E 14 89 33 40
        E 48 b9 04 25
        E 23 b9 04 36
        E 21 b9 04 46
        E 20 b9 04 4f
        E 2 99 2c 0e
        E 5 99 24 53
        E 15 b9 04 56
        E 45 99 33 59
        E 73 b9 04 46
        E 29 b9 04 36
        E 19 b9 04 25
        E 20 b9 04 15
        E 24 b9 04 03
        E 5 b9 04 00
        E 7 89 2c 40
        E 6 89 24 40
        E 61 89 33 40
        E 160 99 24 54
        E 15 b9 04 12
        E 6 b9 04 22
        E 2 b9 04 32
        E 8 b9 04 43
        E 5 b9 04 4c
        E 2 99 2c 24
        E 7 b9 04 53
        E 8 99 33 6f
        E 15 b9 04 63
        E 11 b9 04 51
        E 42 b9 04 41
        E 26 b9 04 30
        E 37 b9 04 20
        E 60 89 24 40
        E 36 89 2c 40
        E 15 89 33 40
        E 41 b9 04 30
        E 19 b9 04 41
        E 24 b9 04 4f
        E 3 99 2c 0c
        E 2 b9 04 51
        E 77 99 33 5d
        E 5 99 24 43
        E 66 b9 04 41
        E 28 b9 04 30
        E 17 b9 04 20
        E 27 b9 04 0f
        E 19 89 2c 40
        E 8 b9 04 00
        E 74 89 33 40
        E 2 89 24 40
        E 173 b9 04 12
        E 7 b9 04 22
        E 4 b9 04 34
        E 5 b9 04 46
        E 3 b9 04 4d
        E 2 99 2c 32
        E 2 99 26 7e
        E 16 b9 04 56
        E 11 b9 04 66
        E 12 99 33 7f
        E 20 b9 04 56
        E 40 b9 04 46
        E 37 b9 04 36
        E 27 b9 04 25
        E 41 b9 04 15
        E 37 89 2c 40
        E 3 89 26 40
        E 37 89 33 40
        E 46 b9 04 25
        E 21 b9 04 36
        E 22 b9 04 46
        E 15 99 24 51
        E 2 b9 04 4f
        E 5 99 2c 0c
        E 14 b9 04 56
        E 56 99 33 58
        E 65 b9 04 46
        E 27 b9 04 36
        E 24 b9 04 25
        E 19 b9 04 15
        E 29 b9 04 03
        E 3 89 24 40
        E 2 b9 04 00
        E 5 89 2c 40
        E 68 89 33 40
        E 152 99 24 4b
        E 9 b9 04 12
        E 8 b9 04 22
        E 7 b9 04 32
        E 5 b9 04 43
        E 10 b9 04 4c
        E 2 99 2c 20
        E 5 b9 04 53
        E 17 99 33 6c
        E 2 b9 04 64
        E 27 b9 04 54
        E 38 b9 04 44
        E 32 b9 04 34
        E 31 b9 04 22
        E 46 b9 04 12
        E 3 89 24 40
        E 42 89 2c 40
        E 23 89 33 40
        E 26 b9 04 22
        E 17 b9 04 32
        E 22 b9 04 43
        E 24 b9 04 4f
        E 2 99 2c 0a
        E 10 b9 04 53
        E 60 99 24 47
        E 22 99 33 53
        E 42 b9 04 43
        E 30 b9 04 32
        E 15 b9 04 22
        E 27 b9 04 12
        E 33 b9 04 00
        E 5 89 2c 40
        E 71 89 24 40
        E 16 89 33 40
        E 143 b9 04 12
        E 9 b9 04 25
        E 6 99 26 78
        E 2 b9 04 36
        E 7 b9 04 46
        E 7 b9 04 4c
        E 3 99 2c 20
        E 12 b9 04 56
        E 9 b9 04 67
        E 22 99 33 7f
        E 3 b9 04 57
        E 41 b9 04 47
        E 34 b9 04 36
        E 31 b9 04 25
        E 37 b9 04 15
        E 36 89 26 40
        E 14 89 2c 40
        E 46 89 33 40
        E 41 b9 04 25
        E 22 b9 04 36
        E 24 b9 04 46
        E 12 99 24 4c
        E 5 b9 04 4d
        E 4 99 2c 0a
        E 25 b9 04 56
        E 19 99 33 4c
        E 75 b9 04 46
        E 27 b9 04 36
        E 21 b9 04 22
        E 24 b9 04 12
        E 27 b9 04 00
        E 14 89 24 40
        E 13 89 2c 40
        E 43 89 33 40
        E 149 99 24 4f
        E 32 b9 04 12
        E 8 b9 04 25
        E 2 b9 04 36
        E 5 b9 04 46
        E 2 b9 04 4c
        E 3 99 2c 2e
        E 6 99 33 74
        E 13 b9 04 56
        E 15 b9 04 66
        E 19 b9 04 56
        E 39 b9 04 46
        E 19 b9 04 36
        E 36 b9 04 25
        E 31 b9 04 15
        E 12 89 24 40
        E 54 89 2c 40
        E 4 89 33 40
        E 49 b9 04 25
        E 21 b9 04 36
        E 32 b9 04 46
        E 24 b9 04 4d
        E 3 99 2c 08
        E 29 99 24 4a
        E 7 99 33 5b
        E 96 b9 04 36
        E 25 b9 04 22
        E 26 b9 04 12
        E 36 b9 04 00
        E 24 89 2c 40
        E 27 89 24 40
        E 8 89 33 40
        E 171 b9 04 12
        E 10 99 26 7b
        E 2 b9 04 25
        E 7 b9 04 36
        E 10 b9 04 46
        E 5 b9 04 4c
        E 2 99 2c 18
        E 7 b9 04 56
        E 12 99 33 74
        E 3 b9 04 66
        E 14 b9 04 55
        E 39 b9 04 44
        E 29 b9 04 34
        E 39 b9 04 22
        E 60 b9 04 12
        E 14 89 26 40
        E 28 89 2c 40
        E 19 89 33 40
        E 43 b9 04 22
        E 19 b9 04 32
        E 22 b9 04 43
        E 27 99 24 51
        E 2 b9 04 4f
        E 2 99 2c 0a
        E 10 b9 04 53
        E 49 99 33 62
        E 58 b9 04 43
        E 30 b9 04 32
        E 17 b9 04 22
        E 25 b9 04 12
        E 29 b9 04 00
        E 22 89 24 40
        E 2 89 2c 40
        E 60 89 33 40
        E 158 99 24 54
        E 7 b9 04 12
        E 7 b9 04 25
        E 5 b9 04 36
        E 7 b9 04 46
        E 2 b9 04 4c
        E 2 99 2c 2e
        E 10 99 33 78
        E 8 b9 04 56
        E 9 b9 04 66
        E 22 b9 04 56
        E 39 b9 04 46
        E 24 b9 04 36
        E 39 b9 04 25
        E 36 b9 04 15
        E 24 89 24 40
        E 34 89 2c 40
        E 9 89 33 40
        E 34 b9 04 25
        E 20 b9 04 36
        E 23 b9 04 46
        E 15 b9 04 4f
        E 3 99 2c 0c
        E 19 b9 04 56
        E 60 99 24 49
        E 8 99 33 67
        E 56 b9 04 46
        E 23 b9 04 36
        E 19 b9 04 25
        E 23 b9 04 15
        E 26 b9 04 03
        E 8 b9 04 00
        E 2 89 2c 40
        E 77 89 24 40
        E 5 89 33 40
        E 160 b9 04 12
        E 7 b9 04 22
        E 5 b9 04 32
        E 4 99 26 7c
        E 3 b9 04 43
        E 7 b9 04 4c
        E 3 99 2c 22
        E 7 b9 04 53
        E 7 99 33 7f
        E 7 b9 04 64
        E 24 b9 04 54
        E 41 b9 04 44
        E 30 b9 04 34
        E 30 b9 04 22
        E 61 b9 04 12
        E 27 89 26 40
        E 7 89 2c 40
        E 17 89 33 40
        E 46 b9 04 22
        E 21 b9 04 32
        E 37 b9 04 43
        E 9 99 24 53
        E 35 b9 04 4f
        E 2 99 2c 08
        E 14 99 33 5e
        E 78 b9 04 32
        E 17 b9 04 22
        E 23 b9 04 12
        E 32 b9 04 00
        E 44 89 24 40
        E 33 89 2c 40
        E 17 89 33 40
        E 142 99 24 4c
        E 18 b9 04 12
        E 4 b9 04 22
        E 5 b9 04 34
        E 3 b9 04 44
        E 5 b9 04 4d
        E 2 99 2c 38
        E 2 b9 04 54
        E 10 99 33 76
        E 19 b9 04 65
        E 32 b9 04 55
        E 45 b9 04 44
        E 39 b9 04 34
        E 27 b9 04 22
        E 34 89 24 40
        E 34 89 2c 40
        E 12 89 33 40
        E 60 b9 04 32
        E 26 b9 04 43
        E 28 b9 04 4f
        E 2 99 2c 08
        E 9 b9 04 53
        E 36 99 24 46
        E 8 99 33 67
        E 67 b9 04 43
        E 29 b9 04 32
        E 20 b9 04 22
        E 26 b9 04 12
        E 29 b9 04 00
        E 17 89 2c 40
        E 46 89 24 40
        E 12 89 33 40
        E 153 b9 04 12
        E 11 99 26 7b
        E 1 b9 04 22
        E 7 b9 04 32
        E 9 b9 04 43
        E 5 b9 04 4c
        E 3 99 2c 1a
        E 2 b9 04 54
        E 12 b9 04 64
        E 7 99 33 78
        E 8 b9 04 54
        E 12 b9 04 44
        E 43 b9 04 34
        E 39 b9 04 22
        E 96 89 26 40
        E 22 89 2c 40
        E 15 b9 04 1d
        E 4 89 33 40
        E 25 b9 04 2e
        E 26 b9 04 3e
        E 39 b9 04 4f
        E 3 99 2c 08
        E 4 b9 04 4f
        E 36 99 24 50
        E 37 99 33 54
        E 55 b9 04 3f
        E 27 b9 04 2e
        E 19 b9 04 1d
        E 27 b9 04 0c
        E 17 b9 04 00
        E 19 89 2c 40
        E 41 89 24 40
        E 39 89 33 40
        E 152 99 24 4b
        E 12 b9 04 12
        E 5 b9 04 22
        E 4 b9 04 32
        E 5 b9 04 43
        E 3 b9 04 4c
        E 2 99 2c 34
        E 3 b9 04 53
        E 12 99 33 6b
        E 17 b9 04 63
        E 26 b9 04 53
        E 39 b9 04 43
        E 19 b9 04 32
        E 34 b9 04 22
        E 46 b9 04 12
        E 17 89 24 40
        E 29 89 2c 40
        E 15 89 33 40
        E 24 b9 04 22
        E 19 b9 04 32
        E 29 b9 04 43
        E 29 b9 04 4f
        E 2 99 2c 0a
        E 10 b9 04 53
        E 34 99 24 47
        E 29 99 33 58
        E 50 b9 04 43
        E 27 b9 04 32
        E 17 b9 04 22
        E 24 b9 04 12
        E 34 b9 04 00
        E 17 89 2c 40
        E 46 89 24 40
        E 26 89 33 40
        E 135 b9 04 12
        E 11 b9 04 22
        E 7 99 26 7c
        E 2 b9 04 32
        E 7 b9 04 44
        E 5 b9 04 4c
        E 2 99 2c 1a
        E 2 b9 04 54
        E 13 99 33 7c
        E 2 b9 04 64
        E 24 b9 04 54
        E 39 b9 04 44
        E 36 b9 04 34
        E 27 b9 04 22
        E 51 b9 04 12
        E 29 89 26 40
        E 22 89 2c 40
        E 13 89 33 40
        E 47 b9 04 22
        E 22 b9 04 32
        E 31 b9 04 43
        E 29 99 24 4d
        E 2 b9 04 4d
        E 5 99 2c 08
        E 30 99 33 56
        E 83 b9 04 32
        E 18 b9 04 22
        E 22 b9 04 12
        E 26 b9 04 00
        E 56 89 24 40
        E 5 89 2c 40
        E 30 89 33 40
        E 138 99 24 49
        E 25 b9 04 12
        E 5 b9 04 25
        E 5 b9 04 38
        E 5 b9 04 49
        E 1 b9 04 4c
        E 3 99 2c 3a
        E 2 99 33 7a
        E 25 b9 04 5b
        E 10 b9 04 6c
        E 17 b9 04 5b
        E 40 b9 04 4a
        E 22 b9 04 3a
        E 41 b9 04 29
        E 44 89 24 40
        E 41 89 2c 40
        E 5 89 33 40
        E 48 b9 04 3a
        E 26 b9 04 4a
        E 8 b9 04 4f
        E 2 99 2c 0a
        E 31 b9 04 5a
        E 39 99 24 47
        E 17 99 33 3b
        E 60 b9 04 4a
        E 30 b9 04 3a
        E 23 b9 04 29
        E 25 b9 04 18
        E 17 89 2c 40
        E 4 b9 04 06
        E 15 b9 04 00
        E 51 89 24 40
        E 16 89 33 40
        E 153 b9 04 12
        E 8 99 26 76
        E 5 b9 04 22
        E 9 b9 04 32
        E 6 b9 04 43
        E 5 b9 04 4d
        E 3 99 2c 24
        E 2 b9 04 53
        E 13 99 33 70
        E 2 b9 04 63
        E 68 b9 04 53
        E 19 b9 04 43
        E 32 b9 04 32
        E 26 b9 04 22
        E 56 89 26 40
        E 5 b9 04 12
        E 21 89 2c 40
        E 13 89 33 40
        E 55 b9 04 22
        E 22 b9 04 32
        E 31 b9 04 43
        E 5 99 24 4e
        E 29 b9 04 4f
        E 2 99 2c 0a
        E 12 b9 04 53
        E 8 99 33 63
        E 81 b9 04 43
        E 27 b9 04 32
        E 17 b9 04 22
        E 22 b9 04 12
        E 27 b9 04 00
        E 16 89 24 40
        E 32 89 2c 40
        E 19 89 33 40
        E 153 99 24 50
        E 33 b9 04 12
        E 7 99 33 6b
        E 3 b9 04 22
        E 2 b9 04 32
        E 3 b9 04 43
        E 2 b9 04 4d
        E 3 99 2c 3a
        E 2 b9 04 54
        E 29 b9 04 65
        E 24 b9 04 55
        E 41 b9 04 44
        E 29 b9 04 34
        E 34 b9 04 22
        E 31 89 24 40
        E 39 89 33 40
        E 14 89 2c 40
        E 56 b9 04 32
        E 45 b9 04 43
        E 52 b9 04 4f
        E 3 99 2c 06
        E 2 99 33 43
        E 4 99 24 46
        E 95 b9 04 32
        E 14 b9 04 22
        E 26 b9 04 12
        E 32 b9 04 00
        E 65 89 2c 40
        E 5 89 33 40
        E 7 89 24 40
        E 145 99 26 7f
        E 10 b9 04 12
        E 10 b9 04 25
        E 7 b9 04 36
        E 10 99 33 7f
        E 3 b9 04 46
        E 1 b9 04 4c
        E 5 99 2c 18
        E 5 b9 04 56
        E 12 b9 04 66
        E 16 b9 04 56
        E 15 b9 04 46
        E 39 b9 04 36
        E 38 b9 04 25
        E 45 b9 04 15
        E 28 89 26 40
        E 34 89 33 40
        E 10 89 2c 40
        E 43 b9 04 25
        E 27 b9 04 36
        E 25 99 24 4e
        E 9 b9 04 46
        E 31 b9 04 4f
        E 3 99 2c 08
        E 14 99 33 68
        E 92 b9 04 36
        E 24 b9 04 25
        E 22 b9 04 15
        E 22 b9 04 03
        E 9 b9 04 00
        E 19 89 24 40
        E 39 89 2c 40
        E 17 89 33 40
        E 138 99 24 4e
        E 39 b9 04 12
        E 1 99 33 75
        E 5 b9 04 22
        E 5 b9 04 32
        E 5 b9 04 46
        E 3 b9 04 4d
        E 2 99 2c 38
        E 17 b9 04 56
        E 17 b9 04 66
        E 14 b9 04 56
        E 41 b9 04 46
        E 22 b9 04 36
        E 46 b9 04 25
        E 24 89 24 40
        E 42 89 33 40
        E 21 89 2c 40
        E 54 b9 04 36
        E 33 b9 04 46
        E 24 b9 04 4f
        E 3 99 2c 08
        E 33 99 33 51
        E 17 99 24 4d
        E 88 b9 04 36
        E 21 b9 04 25
        E 24 b9 04 15
        E 25 b9 04 03
        E 12 b9 04 00
        E 21 89 2c 40
        E 36 89 33 40
        E 17 89 24 40
        E 160 b9 04 12
        E 8 99 26 7e
        E 2 b9 04 22
        E 4 b9 04 32
        E 8 b9 04 43
        E 5 b9 04 4c
        E 2 99 2c 22
        E 7 b9 04 53
        E 7 99 33 67
        E 8 b9 04 64
        E 31 b9 04 54
        E 43 b9 04 44
        E 39 b9 04 34
        E 29 b9 04 22
        E 59 89 26 40
        E 18 89 2c 40
        E 15 89 33 40
        E 39 b9 04 1d
        E 31 b9 04 2e
        E 25 b9 04 3e
        E 28 99 24 55
        E 5 b9 04 4f
        E 4 99 2c 0a
        E 3 b9 04 4f
        E 29 99 33 51
        E 87 b9 04 3f
        E 25 b9 04 2e
        E 19 b9 04 1d
        E 26 b9 04 0c
        E 17 b9 04 00
        E 29 89 24 40
        E 10 89 2c 40
        E 26 89 33 40
        E 155 99 24 4b
        E 32 b9 04 12
        E 7 b9 04 25
        E 5 b9 04 38
        E 2 99 33 68
        E 2 b9 04 49
        E 3 b9 04 4c
        E 2 99 2c 38
        E 24 b9 04 5a
        E 10 b9 04 6a
        E 21 b9 04 5a
        E 40 b9 04 4a
        E 21 b9 04 3a
        E 36 b9 04 29
        E 37 b9 04 18
        E 2 89 24 40
        E 43 89 33 40
        E 10 89 2c 40
        E 48 b9 04 29
        E 25 b9 04 3a
        E 38 b9 04 4a
        E 17 b9 04 4f
        E 3 99 2c 08
        E 29 99 33 59
        E 3 99 24 4a
        E 84 b9 04 3a
        E 24 b9 04 29
        E 22 b9 04 18
        E 26 b9 04 06
        E 15 b9 04 00
        E 38 89 2c 40
        E 32 89 33 40
        E 2 89 24 40
        E 157 b9 04 12
        E 12 99 26 7d
        E 5 b9 04 25
        E 9 b9 04 36
        E 8 b9 04 46
        E 3 b9 04 4d
        E 2 99 2c 28
        E 3 b9 04 56
        E 7 99 33 62
        E 2 b9 04 66
        E 16 b9 04 56
        E 44 b9 04 46
        E 22 b9 04 36
        E 48 b9 04 25
        E 53 b9 04 15
        E 22 89 26 40
        E 27 89 2c 40
        E 9 89 33 40
        E 58 b9 04 25
        E 23 b9 04 36
        E 33 b9 04 46
        E 15 99 24 51
        E 7 b9 04 4f
        E 5 99 2c 08
        E 36 99 33 53
        E 84 b9 04 36
        E 22 b9 04 22
        E 24 b9 04 12
        E 29 b9 04 00
        E 34 89 24 40
        E 12 89 2c 40
        E 39 89 33 40
        E 140 99 24 4d
        E 36 b9 04 12
        E 8 b9 04 25
        E 4 b9 04 36
        E 0 99 33 68
        E 3 b9 04 46
        E 2 b9 04 4c
        E 3 99 2c 3c
        E 5 b9 04 56
        E 28 b9 04 68
        E 29 b9 04 58
        E 39 b9 04 47
        E 20 b9 04 36
        E 35 b9 04 25
        E 30 b9 04 15
        E 2 89 24 40
        E 46 89 33 40
        E 8 89 2c 40
        E 55 b9 04 25
        E 30 b9 04 36
        E 45 b9 04 46
        E 24 99 33 54
        E 7 99 24 4a
        E 72 b9 04 36
        E 25 b9 04 22
        E 29 b9 04 12
        E 36 b9 04 00
        E 72 89 33 40
        E 8 89 24 40
        E 161 b9 04 12
        E 10 99 26 7f
        E 2 b9 04 22
        E 8 b9 04 32
        E 12 b9 04 43
        E 7 b9 04 4d
        E 2 99 2c 1a
        E 3 b9 04 53
        E 5 99 33 68
        E 7 b9 04 64
        E 56 b9 04 54
        E 19 b9 04 44
        E 21 b9 04 34
        E 34 b9 04 22
        E 61 b9 04 12
        E 5 89 26 40
        E 31 89 2c 40
        E 10 89 33 40
        E 41 b9 04 22
        E 19 b9 04 32
        E 27 b9 04 43
        E 26 99 24 4f
        E 10 b9 04 4f
        E 0 99 2c 08
        E 17 b9 04 53
        E 27 99 33 5b
        E 74 b9 04 43
        E 22 b9 04 32
        E 20 b9 04 22
        E 19 b9 04 12
        E 31 b9 04 00
        E 22 89 24 40
        E 11 89 2c 40
        E 42 89 33 40
        E 150 99 24 4d
        E 22 b9 04 12
        E 9 b9 04 25
        E 5 b9 04 36
        E 7 b9 04 46
        E 5 b9 04 4c
        E 2 99 2c 24
        E 6 99 33 68
        E 2 b9 04 56
        E 19 b9 04 66
        E 15 b9 04 56
        E 39 b9 04 46
        E 16 b9 04 36
        E 37 b9 04 25
        E 43 b9 04 15
        E 15 89 24 40
        E 53 89 2c 40
        E 4 89 33 40
        E 15 b9 04 25
        E 24 b9 04 36
        E 27 b9 04 46
        E 19 b9 04 4f
        E 3 99 2c 08
        E 24 b9 04 56
        E 34 99 33 63
        E 5 99 24 45
        E 69 b9 04 46
        E 22 b9 04 36
        E 20 b9 04 22
        E 21 b9 04 12
        E 32 b9 04 00
        E 14 89 2c 40
        E 59 89 33 40
        E 6 89 24 40
        E 164 b9 04 12
        E 8 b9 04 22
        E 3 b9 04 34
        E 7 b9 04 47
        E 0 b9 04 4c
        E 2 99 2c 38
        E 2 99 26 7f
        E 20 99 33 6d
        E 2 b9 04 57
        E 7 b9 04 68
        E 27 b9 04 57
        E 39 b9 04 47
        E 29 b9 04 36
        E 28 b9 04 25
        E 34 b9 04 15
        E 54 89 2c 40
        E 4 89 26 40
        E 19 89 33 40
        E 52 b9 04 25
        E 19 b9 04 36
        E 31 b9 04 46
        E 17 b9 04 4d
        E 2 99 2c 0a
        E 5 99 24 52
        E 42 b9 04 56
        E 7 99 33 5e
        E 58 b9 04 46
        E 26 b9 04 36
        E 22 b9 04 22
        E 21 b9 04 12
        E 27 b9 04 00
        E 34 89 2c 40
        E 5 89 24 40
        E 49 89 33 40
        E 147 99 24 50
        E 16 b9 04 12
        E 8 b9 04 25
        E 5 b9 04 38
        E 4 b9 04 4a
        E 2 b9 04 4d
        E 3 99 2c 32
        E 20 b9 04 5a
        E 9 99 33 75
        E 4 b9 04 6a
        E 18 b9 04 5a
        E 39 b9 04 4a
        E 19 b9 04 3a
        E 36 b9 04 29
        E 39 b9 04 18
        E 21 89 24 40
        E 37 89 2c 40
        E 28 89 33 40
        E 20 b9 04 29
        E 20 b9 04 3a
        E 24 b9 04 4a
        E 9 b9 04 4f
        E 3 99 2c 0a
        E 34 b9 04 5a
        E 53 99 24 4c
        E 5 99 33 38
        E 37 b9 04 4a
        E 28 b9 04 3a
        E 19 b9 04 29
        E 22 b9 04 18
        E 24 b9 04 06
        E 12 b9 04 00
        E 7 89 2c 40
        E 87 89 24 40
        E 5 89 33 40
        E 147 b9 04 12
        E 7 b9 04 25
        E 5 99 26 7f
        E 3 b9 04 36
        E 5 b9 04 46
        E 5 b9 04 4c
        E 2 99 2c 24
        E 16 b9 04 56
        E 11 b9 04 67
        E 11 99 33 6b
        E 13 b9 04 57
        E 41 b9 04 47
        E 27 b9 04 36
        E 33 b9 04 25
        E 39 b9 04 15
        E 36 89 26 40
        E 15 89 2c 40
        E 41 89 33 40
        E 32 b9 04 25
        E 18 b9 04 36
        E 22 b9 04 46
        E 15 b9 04 4d
        E 2 99 2c 0a
        E 17 99 24 50
        E 5 b9 04 56
        E 60 99 33 54
        E 48 b9 04 46
        E 25 b9 04 36
        E 18 b9 04 25
        E 23 b9 04 15
        E 22 b9 04 03
        E 7 b9 04 00
        E 17 89 2c 40
        E 17 89 24 40
        E 65 89 33 40
        E 135 99 24 4b
        E 25 b9 04 12
        E 5 b9 04 22
        E 7 b9 04 34
        E 2 b9 04 46
        E 3 b9 04 4f
        E 2 99 2c 44
        E 4 b9 04 56
        E 3 99 33 62
        E 24 b9 04 66
        E 24 b9 04 56
        E 41 b9 04 46
        E 17 b9 04 36
        E 38 b9 04 25
        E 40 b9 04 15
        E 9 89 24 40
        E 41 89 2c 40
        E 10 89 33 40
        E 14 b9 04 25
        E 22 b9 04 36
        E 22 b9 04 46
        E 19 b9 04 4f
        E 3 99 2c 0c
        E 19 b9 04 56
        E 48 99 33 37
        E 10 99 24 49
        E 65 b9 04 46
        E 22 b9 04 36
        E 19 b9 04 22
        E 22 b9 04 12
        E 29 b9 04 00
        E 7 89 2c 40
        E 71 89 33 40
        E 7 89 24 40
        E 162 b9 04 12
        E 7 99 26 7f
        E 2 b9 04 25
        E 4 b9 04 36
        E 6 b9 04 46
        E 2 b9 04 4d
        E 2 99 2c 2a
        E 15 b9 04 56
        E 10 99 33 7f
        E 7 b9 04 66
        E 63 b9 04 56
        E 29 b9 04 46
        E 19 b9 04 36
        E 22 b9 04 25
        E 29 b9 04 15
        E 32 89 26 40
        E 16 89 2c 40
        E 25 89 33 40
        E 77 b9 04 25
        E 19 b9 04 36
        E 29 b9 04 46
        E 2 99 24 56
        E 15 b9 04 4d
        E 2 99 2c 08
        E 10 99 33 65
        E 108 b9 04 36
        E 22 b9 04 22
        E 22 b9 04 12
        E 29 b9 04 00
        E 34 89 24 40
        E 20 89 2c 40
        E 7 89 33 40
        E 147 99 24 43
        E 34 b9 04 12
        E 7 b9 04 27
        E 4 b9 04 38
        E 6 b9 04 49
        E 2 b9 04 4d
        E 3 99 2c 2e
        E 2 99 33 7f
        E 16 b9 04 5a
        E 37 b9 04 4a
        E 46 b9 04 3a
        E 41 b9 04 29
        E 46 89 24 40
        E 2 b9 04 18
        E 51 89 2c 40
        E 5 89 33 40
        E 19 b9 04 29
        E 34 b9 04 3a
        E 40 b9 04 4a
        E 45 b9 04 4f
        E 2 99 2c 06
        E 29 99 24 4c
        E 17 99 33 37
        E 24 b9 04 3a
        E 25 b9 04 29
        E 25 b9 04 18
        E 25 b9 04 06
        E 13 b9 04 00
        E 83 89 2c 40
        E 30 89 24 40
        E 16 89 33 40
        E 126 b9 04 12
        E 7 b9 04 22
        E 5 99 26 7f
        E 3 b9 04 34
        E 2 b9 04 44
        E 5 b9 04 4c
        E 2 99 2c 2c
        E 3 b9 04 54
        E 22 b9 04 65
        E 21 99 33 7f
        E 2 b9 04 55
        E 40 b9 04 44
        E 14 b9 04 34
        E 34 b9 04 22
        E 38 b9 04 12
        E 56 89 26 40
        E 9 89 2c 40
        E 49 89 33 40
        E 32 b9 04 22
        E 14 b9 04 32
        E 19 b9 04 43
        E 24 b9 04 4d
        E 3 99 2c 0a
        E 14 b9 04 53
        E 10 99 24 58
        E 43 99 33 5b
        E 49 b9 04 43
        E 25 b9 04 32
        E 13 b9 04 22
        E 22 b9 04 12
        E 29 b9 04 00
        E 38 89 2c 40
        E 28 89 24 40
        E 38 89 33 40
        E 140 99 24 4d
        E 19 b9 04 12
        E 8 b9 04 25
        E 2 b9 04 36
        E 5 b9 04 46
        E 2 b9 04 4c
        E 2 99 2c 3c
        E 3 b9 04 56
        E 6 99 33 75
        E 23 b9 04 66
        E 20 b9 04 56
        E 38 b9 04 46
        E 17 b9 04 36
        E 36 b9 04 25
        E 44 b9 04 15
        E 19 89 24 40
        E 39 89 2c 40
        E 5 89 33 40
        E 29 b9 04 25
        E 26 b9 04 36
        E 35 b9 04 46
        E 30 b9 04 4f
        E 3 99 2c 08
        E 36 99 33 59
        E 15 99 24 55
        E 60 b9 04 36
        E 24 b9 04 25
        E 22 b9 04 15
        E 29 b9 04 03
        E 7 b9 04 00
        E 51 89 2c 40
        E 39 89 33 40
        E 11 89 24 40
        E 150 b9 04 12
        E 5 99 26 7f
        E 5 b9 04 25
        E 7 b9 04 36
        E 10 b9 04 46
        E 5 b9 04 4c
        E 3 99 2c 1e
        E 7 99 33 7a
        E 4 b9 04 56
        E 10 b9 04 66
        E 60 b9 04 56
        E 22 b9 04 46
        E 27 b9 04 36
        E 24 b9 04 25
        E 36 b9 04 15
        E 25 89 26 40
        E 28 89 2c 40
        E 5 89 33 40
        E 70 b9 04 25
        E 24 b9 04 36
        E 22 99 24 58
        E 7 b9 04 46
        E 29 b9 04 4d
        E 3 99 2c 08
        E 15 99 33 4f
        E 84 b9 04 36
        E 19 b9 04 25
        E 18 b9 04 15
        E 26 b9 04 03
        E 9 b9 04 00
        E 32 89 24 40
        E 39 89 2c 40
        E 14 89 33 40
        E 142 99 24 54
        E 32 99 33 76
        E 9 b9 04 12
        E 8 b9 04 25
        E 7 b9 04 36
        E 2 b9 04 46
        E 3 b9 04 4c
        E 2 99 2c 36
        E 22 b9 04 56
        E 10 b9 04 66
        E 27 b9 04 56
        E 37 b9 04 46
        E 18 b9 04 36
        E 31 b9 04 25
        E 36 89 24 40
        E 5 b9 04 15
        E 24 89 33 40
        E 29 89 2c 40
        E 41 b9 04 25
        E 24 b9 04 36
        E 34 b9 04 46
        E 13 99 33 3c
        E 9 b9 04 4f
        E 2 99 2c 08
        E 44 99 24 59
        E 92 b9 04 36
        E 24 b9 04 25
        E 19 b9 04 15
        E 28 b9 04 03
        E 9 b9 04 00
        E 14 89 33 40
        E 12 89 2c 40
        E 46 89 24 40
        E 159 99 26 7f
        E 22 99 33 7c
        E 7 b9 04 12
        E 10 b9 04 22
        E 5 b9 04 32
        E 10 b9 04 43
        E 9 b9 04 4c
        E 3 99 2c 1c
        E 7 b9 04 53
        E 12 b9 04 64
        E 22 b9 04 54
        E 37 b9 04 44
        E 18 b9 04 34
        E 32 b9 04 22
        E 50 89 26 40
        E 5 b9 04 12
        E 20 89 33 40
        E 41 89 2c 40
        E 24 b9 04 22
        E 21 99 24 63
        E 3 b9 04 32
        E 24 b9 04 43
        E 7 99 33 3e
        E 37 b9 04 4f
        E 5 99 2c 08
        E 96 b9 04 32
        E 20 b9 04 22
        E 24 b9 04 12
        E 26 89 24 40
        E 5 b9 04 00
        E 29 89 33 40
        E 41 89 2c 40
        E 179 99 24 6e
        E 19 99 26 76
        E 19 b9 04 12
        E 10 b9 04 22
        E 5 b9 04 34
        E 5 b9 04 44
        E 19 b9 04 4c
        E 3 99 2c 26
        E 4 b9 04 55
        E 24 b9 04 44
        E 12 b9 04 34
        E 46 b9 04 20
        E 27 89 26 40
        E 2 99 26 51
        E 46 89 24 40
        E 17 b9 04 0f
        E 63 89 2c 40
        E 17 b9 04 20
        E 19 b9 04 30
        E 25 b9 04 41
        E 29 b9 04 4f
        E 2 99 2c 08
        E 8 b9 04 51
        E 13 89 26 40
        E 3 99 26 21
        E 3 99 24 4f
        E 79 b9 04 41
        E 29 b9 04 30
        E 17 b9 04 20
        E 27 b9 04 0f
        E 22 b9 04 00
        E 41 89 2c 40
        E 4 89 26 40
        E 5 99 26 39
        E 20 89 24 40
        E 181 99 24 52
        E 22 89 26 40
        E 0 99 26 44
        E 2 b9 04 12
        E 5 b9 04 25
        E 5 b9 04 36
        E 2 b9 04 46
        E 4 b9 04 4c
        E 3 99 2c 2e
        E 22 b9 04 57
        E 29 b9 04 47
        E 42 b9 04 36
        E 28 b9 04 25
        E 53 b9 04 15
        E 18 89 26 40
        E 4 99 26 41
        E 5 89 24 40
        E 44 89 2c 40
        E 47 b9 04 25
        E 25 b9 04 36
        E 24 b9 04 46
        E 22 b9 04 4f
        E 2 99 2c 0a
        E 31 99 24 5a
        E 15 89 26 40
        E 2 99 26 17
        E 75 b9 04 36
        E 22 b9 04 25
        E 20 b9 04 15
        E 26 b9 04 03
        E 10 b9 04 00
        E 42 89 2c 40
        E 7 89 26 40
        E 2 99 26 44
        E 24 89 24 40
        E 174 99 24 4f
        E 28 89 26 40
        E 3 99 26 5d
        E 5 b9 04 12
        E 7 b9 04 25
        E 5 b9 04 36
        E 2 b9 04 47
        E 3 b9 04 4d
        E 2 99 2c 36
        E 24 b9 04 57
        E 22 b9 04 47
        E 12 b9 04 36
        E 48 b9 04 25
        E 39 b9 04 15
        E 27 89 26 40
        E 2 99 26 41
        E 13 89 24 40
        E 57 89 2c 40
        E 61 b9 04 25
        E 24 b9 04 36
        E 26 b9 04 46
        E 10 99 24 57
        E 10 b9 04 4d
        E 2 99 2c 08
        E 12 89 26 40
        E 3 99 26 1a
        E 94 b9 04 36
        E 24 b9 04 25
        E 19 b9 04 15
        E 23 b9 04 03
        E 6 b9 04 00
        E 32 89 26 40
        E 2 99 26 57
        E 17 89 24 40
        E 10 89 2c 40
        E 162 99 24 55
        E 33 89 26 40
        E 3 99 26 5f
        E 29 b9 04 12
        E 7 b9 04 25
        E 10 b9 04 36
        E 28 b9 04 46
        E 5 b9 04 4c
        E 3 99 2c 1c
        E 2 b9 04 56
        E 20 b9 04 46
        E 7 b9 04 36
        E 38 b9 04 25
        E 31 b9 04 15
        E 3 89 26 40
        E 2 99 26 40
        E 20 89 24 40
        E 121 89 2c 40
        E 14 b9 04 25
        E 22 b9 04 36
        E 15 99 24 53
        E 16 b9 04 46
        E 3 89 26 40
        E 2 99 26 49
        E 107 b9 04 36
        E 27 b9 04 22
        E 21 b9 04 12
        E 31 b9 04 00
        E 34 89 24 40
        E 19 89 26 40
        E 177 99 24 7f
        E 9 99 28 40
        E 44 b9 04 12
        E 7 b9 04 27
        E 6 b9 04 3a
        E 2 b9 04 4a
        E 2 b9 04 4d
        E 3 99 2c 36
        E 4 99 26 7f
        E 27 b9 04 5b
        E 20 b9 04 4a
        E 11 b9 04 3a
        E 44 b9 04 29
        E 36 b9 04 18
        E 27 89 24 40
        E 7 89 28 40
        E 65 89 2c 40
        E 5 89 26 40
        E 50 b9 04 12
        E 61 b9 04 22
        E 49 b9 04 32
        E 139 b9 04 3c
        E 337 99 24 7f
        E 101 b9 04 36
        E 140 89 24 40
        E 196 99 30 7f
        E 2 99 2d 7f
        E 239 89 30 40
        E 2 89 2d 40
        E 164 b9 04 3e
        E 281 b9 04 4d
        E 2 99 2c 04
        E 22 b9 04 4d
        E 68 99 24 6b
        E 65 b9 04 3c
        E 88 89 2c 40
        E 14 b9 04 2c
        E 75 89 24 40
        E 45 b9 04 1a
        E 116 99 26 7f
        E 83 b9 04 2c
        E 14 89 26 40
        E 2 99 26 7f
        E 126 b9 04 1a
        E 113 89 26 40
        E 27 b9 04 2c
        E 73 b9 04 3c
        E 321 b9 04 2e
        E 145 b9 04 27
        E 48 b9 04 38
        E 27 b9 04 49
        E 14 b9 04 4f
        E 0 99 2c 0a
        E 29 b9 04 5a
        E 155 b9 04 4a
        E 41 b9 04 3a
        E 12 99 24 65
        E 7 89 2c 40
        E 14 b9 04 29
        E 42 b9 04 18
        E 55 b9 04 06
        E 29 b9 04 00
        E 95 89 24 40
        E 159 99 26 7f
        E 11 b9 04 12
        E 15 b9 04 22
        E 9 b9 04 32
        E 6 b9 04 43
        E 2 b9 04 4c
        E 3 99 2c 28
        E 2 b9 04 53
        E 17 b9 04 43
        E 5 b9 04 32
        E 10 b9 04 22
        E 22 99 28 7f
        E 48 b9 04 12
        E 92 89 26 40
        E 46 b9 04 22
        E 0 89 2c 40
        E 24 b9 04 32
        E 29 b9 04 43
        E 4 89 28 40
        E 109 99 24 50
        E 65 b9 04 32
        E 37 b9 04 22
        E 39 b9 04 12
        E 60 b9 04 00
        E 41 89 24 40
        E 174 99 2d 7f
        E 0 99 30 7f
        E 9 b9 04 12
        E 20 b9 04 25
        E 14 b9 04 36
        E 15 b9 04 46
        E 5 b9 04 4c
        E 2 99 2c 14
        E 5 b9 04 56
        E 17 b9 04 46
        E 9 b9 04 36
        E 53 b9 04 25
        E 92 89 2d 40
        E 6 89 30 40
        E 21 b9 04 36
        E 39 89 2c 40
        E 95 b9 04 3e
        E 28 99 24 59
        E 24 b9 04 2e
        E 39 b9 04 1d
        E 50 b9 04 0c
        E 29 b9 04 00
        E 102 89 24 40
        E 116 99 2d 7f
        E 65 b9 04 12
        E 22 b9 04 22
        E 10 b9 04 32
        E 33 b9 04 22
        E 19 b9 04 12
        E 95 89 2d 40
        E 24 b9 04 22
        E 31 b9 04 32
        E 148 b9 04 22
        E 46 b9 04 12
        E 48 b9 04 00
        E 326 99 24 7f
        E 10 b9 04 12
        E 12 b9 04 22
        E 2 99 33 7f
        E 3 99 31 7f
        E 21 b9 04 32
        E 8 b9 04 44
        E 4 b9 04 4c
        E 3 99 2c 2a
        E 5 b9 04 55
        E 12 b9 04 44
        E 5 b9 04 32
        E 9 b9 04 22
        E 150 89 24 40
        E 8 b9 04 32
        E 16 89 33 40
        E 3 89 31 40
        E 34 89 2c 40
        E 123 b9 04 22
        E 135 b9 04 1a
        E 102 b9 04 2c
        E 159 b9 04 3c
        E 31 99 24 61
        E 133 b9 04 44
        E 109 89 24 40
        E 17 b9 04 34
        E 144 b9 04 22
        E 73 99 26 7f
        E 92 99 28 7f
        E 3 b9 04 32
        E 147 89 26 40
        E 7 b9 04 22
        E 85 89 28 40
        E 56 b9 04 1d
        E 106 b9 04 2e
        E 43 b9 04 3e
        E 44 b9 04 4f
        E 2 99 2c 08
        E 2 b9 04 4f
        E 129 b9 04 57
        E 43 b9 04 47
        E 33 b9 04 36
        E 32 b9 04 22
        E 2 89 2c 40
        E 37 b9 04 12
        E 9 99 24 58
        E 42 b9 04 00
        E 202 89 24 40
        E 146 b9 04 12
        E 10 99 2d 7f
        E 16 b9 04 22
        E 3 99 30 7f
        E 22 b9 04 32
        E 6 b9 04 43
        E 6 b9 04 4d
        E 1 99 2c 2a
        E 3 b9 04 53
        E 19 b9 04 41
        E 5 b9 04 30
        E 8 b9 04 20
        E 127 b9 04 15
        E 25 89 2d 40
        E 19 89 30 40
        E 36 89 2c 40
        E 210 b9 04 1d
        E 131 b9 04 2e
        E 155 b9 04 36
        E 121 b9 04 46
        E 24 b9 04 4f
        E 2 99 2c 06
        E 19 b9 04 56
        E 116 b9 04 46
        E 31 b9 04 36
        E 34 b9 04 22
        E 20 99 24 6f
        E 19 b9 04 12
        E 2 89 2c 40
        E 39 b9 04 00
        E 182 89 24 40
        E 142 b9 04 12
        E 7 99 26 7f
        E 3 b9 04 25
        E 12 b9 04 36
        E 27 b9 04 46
        E 4 b9 04 4c
        E 3 99 2c 1c
        E 2 b9 04 56
        E 7 b9 04 66
        E 15 b9 04 56
        E 5 b9 04 46
        E 9 b9 04 36
        E 29 99 28 7f
        E 19 b9 04 25
        E 30 b9 04 15
        E 77 89 26 40
        E 48 89 2c 40
        E 36 b9 04 25
        E 25 b9 04 36
        E 7 89 28 40
        E 21 b9 04 46
        E 39 b9 04 4f
        E 3 99 2c 0a
        E 65 99 24 5c
        E 46 b9 04 36
        E 39 b9 04 25
        E 26 b9 04 15
        E 36 b9 04 03
        E 8 b9 04 00
        E 21 89 2c 40
        E 68 89 24 40
        E 147 99 2d 7f
        E 20 99 30 7f
        E 29 b9 04 12
        E 18 b9 04 22
        E 10 b9 04 32
        E 13 b9 04 43
        E 2 b9 04 4c
        E 3 99 2c 1e
        E 5 b9 04 54
        E 23 b9 04 44
        E 8 b9 04 34
        E 46 b9 04 22
        E 67 89 2d 40
        E 20 89 30 40
        E 34 b9 04 32
        E 38 b9 04 43
        E 3 89 2c 40
        E 133 99 24 6c
        E 14 b9 04 32
        E 31 b9 04 22
        E 39 b9 04 12
        E 43 b9 04 00
        E 114 89 24 40
        E 137 99 2d 7f
        E 1 99 29 7f
        E 46 b9 04 12
        E 34 b9 04 22
        E 9 b9 04 32
        E 10 b9 04 43
        E 5 b9 04 4c
        E 0 99 2c 20
        E 4 b9 04 53
        E 17 b9 04 43
        E 10 b9 04 32
        E 9 b9 04 22
        E 56 b9 04 12
        E 41 89 2d 40
        E 3 89 29 40
        E 104 89 2c 40
        E 19 b9 04 22
        E 17 b9 04 32
        E 7 99 2d 7f
        E 22 99 29 7f
        E 12 b9 04 43
        E 101 b9 04 32
        E 25 b9 04 22
        E 29 b9 04 12
        E 34 b9 04 00
        E 19 89 2d 40
        E 24 89 29 40
        E 174 99 24 7f
        E 41 99 33 79
        E 2 99 31 7f
        E 30 b9 04 12
        E 8 b9 04 22
        E 11 b9 04 32
        E 21 b9 04 43
        E 7 b9 04 4c
        E 3 99 2c 18
        E 2 b9 04 53
        E 30 b9 04 43
        E 50 b9 04 32
        E 39 89 24 40
        E 7 b9 04 22
        E 34 89 33 40
        E 2 89 31 40
        E 80 89 2c 40
        E 31 b9 04 32
        E 164 b9 04 22
        E 63 b9 04 12
        E 100 b9 04 00
        E 96 99 24 5f
        E 6 b9 04 12
        E 23 b9 04 22
        E 19 b9 04 32
        E 30 b9 04 43
        E 21 b9 04 4c
        E 5 99 2c 08
        E 104 b9 04 47
        E 33 89 24 40
        E 13 b9 04 36
        E 43 b9 04 25
        E 49 b9 04 15
        E 2 89 2c 40
        E 75 b9 04 03
        E 15 b9 04 00
        E 47 99 26 7f
        E 88 99 28 68
        E 62 b9 04 12
        E 39 b9 04 22
        E 17 b9 04 32
        E 39 89 26 40
        E 2 b9 04 22
        E 82 89 28 40
        E 44 b9 04 18
        E 152 b9 04 29
        E 43 b9 04 3a
        E 37 b9 04 4a
        E 2 b9 04 4c
        E 3 99 2c 0a
        E 41 b9 04 5a
        E 96 b9 04 4a
        E 29 b9 04 3a
        E 24 b9 04 29
        E 27 b9 04 18
        E 22 89 2c 40
        E 15 b9 04 06
        E 19 b9 04 00
        E 26 99 24 6f
        E 242 89 24 40
        E 114 b9 04 12
        E 9 b9 04 22
        E 9 b9 04 32
        E 8 99 2d 7f
        E 22 99 30 7f
        E 7 b9 04 43
        E 2 b9 04 4f
        E 3 99 2c 32
        E 2 b9 04 54
        E 19 b9 04 43
        E 5 b9 04 32
        E 7 b9 04 22
        E 124 b9 04 1d
        E 51 89 2d 40
        E 11 b9 04 2e
        E 13 89 30 40
        E 12 89 2c 40
        E 135 b9 04 1d
        E 60 b9 04 0c
        E 32 b9 04 00
        E 276 b9 04 12
        E 23 b9 04 22
        E 10 b9 04 32
        E 8 b9 04 43
        E 4 b9 04 4c
        E 3 99 2c 24
        E 2 b9 04 53
        E 21 b9 04 43
        E 13 b9 04 32
        E 157 b9 04 2c
        E 48 89 2c 40
        E 20 b9 04 3c
        E 101 b9 04 2c
        E 7 99 24 65
        E 44 b9 04 1a
        E 46 b9 04 09
        E 26 b9 04 00
        E 129 89 24 40
        E 145 99 26 7f
        E 55 b9 04 12
        E 10 b9 04 25
        E 28 b9 04 36
        E 8 b9 04 47
        E 5 b9 04 4c
        E 2 99 2c 20
        E 2 89 26 40
        E 3 99 26 7f
        E 9 b9 04 36
        E 7 b9 04 25
        E 15 b9 04 15
        E 157 b9 04 25
        E 29 b9 04 36
        E 22 89 2c 40
        E 2 89 26 40
        E 20 b9 04 46
        E 87 99 30 3b
        E 5 b9 04 36
        E 43 b9 04 25
        E 32 b9 04 15
        E 45 b9 04 03
        E 13 b9 04 00
        E 33 89 30 40
        E 2 99 30 73
        E 213 99 26 59
        E 27 89 30 40
        E 109 b9 04 12
        E 43 b9 04 22
        E 10 b9 04 32
        E 7 b9 04 43
        E 14 b9 04 32
        E 5 89 26 40
        E 5 99 26 73
        E 2 b9 04 22
        E 5 b9 04 12
        E 152 b9 04 22
        E 37 89 26 40
        E 0 99 26 4b
        E 12 b9 04 32
        E 101 b9 04 20
        E 63 b9 04 0f
        E 34 89 26 40
        E 2 99 26 70
        E 5 b9 04 00
        E 215 89 26 40
        E 3 99 26 71
        E 120 b9 04 12
        E 36 b9 04 22
        E 13 b9 04 32
        E 7 b9 04 43
        E 20 b9 04 32
        E 2 89 26 40
        E 3 99 26 7b
        E 2 b9 04 20
        E 29 b9 04 0f
        E 106 b9 04 20
        E 34 b9 04 30
        E 31 89 26 40
        E 2 99 26 74
        E 90 b9 04 20
        E 51 b9 04 0f
        E 33 b9 04 00
        E 15 89 26 40
        E 3 99 26 79
        E 241 89 26 40
        E 17 99 24 7f
        E 22 99 33 7f
        E 17 b9 04 12
        E 9 b9 04 22
        E 13 b9 04 32
        E 21 b9 04 43
        E 7 b9 04 4c
        E 3 99 2c 18
        E 16 b9 04 32
        E 10 b9 04 20
        E 104 b9 04 0f
        E 20 89 24 40
        E 21 89 33 40
        E 73 89 2c 40
        E 9 b9 04 20
        E 34 b9 04 30
        E 44 b9 04 41
        E 104 b9 04 4f
        E 2 99 2c 04
        E 39 b9 04 4d
        E 150 b9 04 43
        E 55 89 2c 40
        E 106 99 24 72
        E 37 b9 04 32
        E 86 b9 04 22
        E 109 b9 04 12
        E 10 89 24 40
        E 147 b9 04 03
        E 10 b9 04 00
        E 22 99 26 7f
        E 77 b9 04 12
        E 22 99 28 7f
        E 12 b9 04 22
        E 34 b9 04 32
        E 24 b9 04 43
        E 34 b9 04 32
        E 26 b9 04 22
        E 15 89 26 40
        E 99 89 28 40
        E 24 b9 04 1a
        E 145 b9 04 2c
        E 68 b9 04 3c
        E 29 b9 04 4c
        E 2 99 2c 0a
        E 2 b9 04 4c
        E 39 b9 04 5c
        E 135 b9 04 4c
        E 27 b9 04 3c
        E 22 b9 04 2c
        E 17 89 2c 40
        E 9 b9 04 1a
        E 17 99 24 72
        E 20 b9 04 09
        E 29 b9 04 00
        E 192 89 24 40
        E 139 99 2d 7f
        E 53 99 30 7f
        E 16 b9 04 12
        E 58 b9 04 22
        E 15 b9 04 32
        E 5 b9 04 43
        E 2 b9 04 4c
        E 3 99 2c 34
        E 2 b9 04 55
        E 17 b9 04 44
        E 5 b9 04 32
        E 7 b9 04 22
        E 15 b9 04 12
        E 43 89 2d 40
        E 56 89 30 40
        E 96 89 2c 40
        E 191 b9 04 22
        E 36 b9 04 32
        E 126 b9 04 3f
        E 133 b9 04 4f
        E 2 99 2c 08
        E 3 b9 04 4f
        E 159 b9 04 3f
        E 32 b9 04 2e
        E 24 b9 04 1d
        E 24 89 2c 40
        E 17 b9 04 0c
        E 29 b9 04 00
        E 38 99 24 7c
        E 242 89 24 40
        E 116 99 26 7f
        E 3 b9 04 12
        E 47 b9 04 22
        E 8 b9 04 32
        E 29 b9 04 22
        E 10 b9 04 12
        E 7 99 28 7f
        E 121 b9 04 03
        E 17 89 26 40
        E 60 b9 04 15
        E 27 b9 04 25
        E 17 89 28 40
        E 7 b9 04 36
        E 77 99 26 63
        E 96 b9 04 25
        E 25 b9 04 15
        E 12 99 30 7f
        E 19 b9 04 03
        E 12 b9 04 00
        E 78 89 26 40
        E 55 99 2d 7f
        E 78 89 30 40
        E 43 99 24 77
        E 27 b9 04 12
        E 26 b9 04 22
        E 10 b9 04 32
        E 9 b9 04 43
        E 5 b9 04 4c
        E 3 99 2c 20
        E 2 b9 04 53
        E 39 89 2d 40
        E 7 b9 04 43
        E 34 b9 04 32
        E 84 89 24 40
        E 76 89 2c 40
        E 101 b9 04 38
        E 58 99 24 62
        E 2 b9 04 27
        E 44 b9 04 15
        E 53 b9 04 03
        E 19 b9 04 00
        E 125 89 24 40
        E 160 99 26 7f
        E 19 b9 04 12
        E 32 b9 04 22
        E 7 b9 04 32
        E 5 b9 04 43
        E 7 b9 04 4c
        E 1 99 2c 28
        E 16 b9 04 30
        E 7 b9 04 20
        E 13 99 28 7f
        E 9 b9 04 0f
        E 126 89 26 40
        E 72 89 2c 40
        E 22 b9 04 20
        E 12 89 28 40
        E 8 b9 04 30
        E 19 b9 04 41
        E 31 b9 04 4f
        E 2 99 2c 0a
        E 8 b9 04 51
        E 48 99 24 4e
        E 70 b9 04 41
        E 32 b9 04 30
        E 23 b9 04 20
        E 45 b9 04 0f
        E 17 89 2c 40
        E 29 b9 04 00
        E 26 89 24 40
        E 343 99 24 7f
        E 11 b9 04 12
        E 13 b9 04 22
        E 29 99 31 7f
        E 3 b9 04 32
        E 4 99 33 7f
        E 3 b9 04 44
        E 2 b9 04 4d
        E 4 99 2c 30
        E 5 b9 04 54
        E 8 b9 04 43
        E 5 b9 04 30
        E 4 b9 04 20
        E 18 b9 04 0f
        E 135 89 24 40
        E 53 89 31 40
        E 10 b9 04 20
        E 2 89 33 40
        E 2 89 2c 40
        E 22 b9 04 30
        E 44 b9 04 41
        E 104 b9 04 30
        E 36 b9 04 20
        E 51 b9 04 0f
        E 45 b9 04 00
        E 305 99 33 74
        E 56 b9 04 12
        E 23 b9 04 22
        E 10 b9 04 32
        E 12 b9 04 43
        E 5 b9 04 4c
        E 3 99 2c 1c
        E 21 b9 04 32
        E 13 b9 04 22
        E 101 89 33 40
        E 58 b9 04 2e
        E 48 89 2c 40
        E 19 b9 04 1d
        E 80 b9 04 0c
        E 6 99 26 7f
        E 50 b9 04 00
        E 193 89 26 40
        E 89 b9 04 12
        E 32 b9 04 22
        E 19 b9 04 32
        E 15 b9 04 43
        E 19 b9 04 32
        E 14 b9 04 22
        E 3 99 33 59
        E 123 b9 04 15
        E 82 b9 04 25
        E 32 b9 04 36
        E 5 89 33 40
        E 28 b9 04 46
        E 126 b9 04 36
        E 37 b9 04 25
        E 6 99 24 78
        E 22 b9 04 15
        E 43 b9 04 03
        E 16 b9 04 00
        E 161 89 24 40
        E 189 99 28 7f
        E 12 99 33 7f
        E 2 b9 04 12
        E 10 b9 04 25
        E 8 b9 04 36
        E 33 b9 04 47
        E 0 b9 04 4d
        E 5 99 2c 28
        E 2 b9 04 57
        E 13 b9 04 47
        E 7 b9 04 36
        E 7 b9 04 25
        E 12 b9 04 15
        E 94 b9 04 25
        E 36 89 28 40
        E 12 89 33 40
        E 56 89 2c 40
        E 87 b9 04 15
        E 68 b9 04 03
        E 19 b9 04 00
        E 302 99 33 69
        E 58 b9 04 12
        E 19 b9 04 22
        E 19 b9 04 32
        E 10 b9 04 44
        E 3 b9 04 4c
        E 2 99 2c 26
        E 3 b9 04 54
        E 6 b9 04 65
        E 13 b9 04 55
        E 7 b9 04 44
        E 22 b9 04 34
        E 79 89 33 40
        E 80 b9 04 22
        E 31 89 2c 40
        E 18 b9 04 12
        E 70 b9 04 00
        E 7 99 30 7f
        E 241 89 30 40
        E 100 b9 04 12
        E 33 b9 04 22
        E 15 b9 04 32
        E 7 b9 04 43
        E 5 b9 04 4d
        E 2 99 2c 2a
        E 3 b9 04 53
        E 2 99 33 4d
        E 12 b9 04 43
        E 7 b9 04 32
        E 10 b9 04 22
        E 208 b9 04 32
        E 2 89 2c 40
        E 3 89 33 40
        E 106 b9 04 22
        E 42 99 24 6b
        E 13 b9 04 12
        E 76 b9 04 00
        E 152 89 24 40
        E 186 b9 04 12
        E 12 b9 04 22
        E 16 99 2d 7f
        E 10 b9 04 32
        E 17 b9 04 43
        E 5 b9 04 4c
        E 3 99 2c 20
        E 2 b9 04 53
        E 22 b9 04 43
        E 9 b9 04 32
        E 44 b9 04 22
        E 86 b9 04 12
        E 44 89 2d 40
        E 34 89 2c 40
        E 39 b9 04 22
        E 24 b9 04 32
        E 27 b9 04 43
        E 40 b9 04 4f
        E 2 99 2c 08
        E 98 99 24 5d
        E 21 b9 04 32
        E 29 b9 04 22
        E 37 b9 04 12
        E 41 b9 04 00
        E 16 89 2c 40
        E 97 89 24 40
        E 167 99 29 7f
        E 5 99 33 47
        E 77 b9 04 12
        E 11 b9 04 25
        E 36 b9 04 36
        E 28 b9 04 25
        E 10 b9 04 15
        E 75 89 29 40
        E 7 89 33 40
        E 9 b9 04 25
        E 148 b9 04 15
        E 60 b9 04 03
        E 17 b9 04 00
        E 382 b9 04 12
        E 10 99 31 7f
        E 0 b9 04 22
        E 7 99 24 7f
        E 9 b9 04 32
        E 10 99 33 7f
        E 10 b9 04 43
        E 16 b9 04 32
        E 8 b9 04 22
        E 17 b9 04 12
        E 104 b9 04 22
        E 50 b9 04 32
        E 11 89 31 40
        E 7 89 24 40
        E 19 89 33 40
        E 128 b9 04 22
        E 43 b9 04 12
        E 61 b9 04 00
        E 317 99 24 70
        E 2 b9 04 12
        E 7 b9 04 22
        E 12 b9 04 32
        E 12 99 33 7f
        E 15 b9 04 43
        E 4 b9 04 4c
        E 1 99 2c 1c
        E 24 b9 04 32
        E 6 b9 04 22
        E 69 b9 04 12
        E 88 89 24 40
        E 37 89 33 40
        E 19 89 2c 40
        E 61 b9 04 22
        E 24 b9 04 32
        E 108 99 26 7f
        E 18 b9 04 36
        E 45 b9 04 25
        E 37 b9 04 15
        E 41 b9 04 03
        E 12 b9 04 00
        E 89 89 26 40
        E 174 99 33 6b
        E 55 b9 04 12
        E 13 b9 04 22
        E 9 b9 04 32
        E 27 b9 04 43
        E 7 b9 04 4c
        E 3 99 2c 1a
        E 22 b9 04 32
        E 12 b9 04 20
        E 94 89 33 40
        E 63 b9 04 18
        E 48 b9 04 29
        E 3 89 2c 40
        E 142 99 24 75
        E 43 b9 04 18
        E 51 b9 04 06
        E 27 b9 04 00
        E 120 89 24 40
        E 148 99 30 7f
        E 39 99 33 77
        E 43 b9 04 12
        E 12 b9 04 22
        E 31 b9 04 32
        E 10 b9 04 43
        E 17 b9 04 32
        E 7 b9 04 20
        E 19 b9 04 0f
        E 63 89 30 40
        E 31 b9 04 20
        E 11 89 33 40
        E 120 b9 04 25
        E 56 b9 04 15
        E 58 b9 04 03
        E 16 b9 04 00
        E 309 99 33 5a
        E 18 b9 04 12
        E 15 b9 04 22
        E 26 b9 04 32
        E 12 b9 04 43
        E 3 b9 04 4c
        E 2 99 2c 26
        E 2 b9 04 53
        E 20 b9 04 41
        E 7 b9 04 30
        E 17 b9 04 20
        E 123 89 33 40
        E 73 89 2c 40
        E 5 b9 04 30
        E 132 99 24 6d
        E 5 b9 04 20
        E 65 b9 04 0f
        E 51 b9 04 00
        E 121 89 24 40
        E 135 99 26 7f
        E 50 b9 04 12
        E 13 b9 04 25
        E 29 b9 04 36
        E 9 b9 04 46
        E 3 b9 04 4d
        E 2 99 2c 26
        E 3 b9 04 57
        E 12 89 26 40
        E 0 99 26 7f
        E 7 b9 04 47
        E 7 b9 04 36
        E 44 b9 04 25
        E 33 b9 04 15
        E 136 89 2c 40
        E 14 b9 04 25
        E 3 89 26 40
        E 22 b9 04 36
        E 115 99 24 65
        E 15 b9 04 3a
        E 38 b9 04 29
        E 37 b9 04 18
        E 39 b9 04 06
        E 14 b9 04 00
        E 99 89 24 40
        E 159 99 30 7f
        E 3 99 2d 7f
        E 123 b9 04 12
        E 46 b9 04 22
        E 8 b9 04 32
        E 7 b9 04 43
        E 5 b9 04 4c
        E 2 99 2c 28
        E 12 b9 04 32
        E 7 b9 04 20
        E 12 b9 04 0f
        E 17 89 30 40
        E 5 89 2d 40
        E 152 99 2d 7f
        E 32 99 30 7f
        E 4 89 2c 40
        E 71 b9 04 20
        E 50 b9 04 30
        E 44 b9 04 41
        E 27 b9 04 4f
        E 2 99 2c 08
        E 5 b9 04 51
        E 7 89 2d 40
        E 34 89 30 40
        E 126 b9 04 41
        E 29 b9 04 30
        E 21 b9 04 20
        E 12 99 24 76
        E 8 89 2c 40
        E 14 b9 04 0f
        E 31 b9 04 00
        E 189 89 24 40
        E 152 b9 04 12
        E 7 b9 04 25
        E 10 b9 04 36
        E 2 99 2d 7f
        E 12 b9 04 46
        E 15 b9 04 4c
        E 2 99 2c 14
        E 5 b9 04 56
        E 12 b9 04 66
        E 90 b9 04 56
        E 22 b9 04 46
        E 16 b9 04 36
        E 18 b9 04 22
        E 16 b9 04 12
        E 26 b9 04 00
        E 8 89 2d 40
        E 29 89 2c 40
        E 154 99 24 7f
        E 73 99 33 79
        E 10 99 31 79
        E 75 b9 04 12
        E 7 b9 04 22
        E 5 b9 04 32
        E 5 b9 04 43
        E 4 b9 04 4d
        E 2 99 2c 2e
        E 2 b9 04 53
        E 13 b9 04 43
        E 8 b9 04 32
        E 7 b9 04 20
        E 12 b9 04 0f
        E 19 89 24 40
        E 75 89 33 40
        E 8 89 31 40
        E 45 b9 04 20
        E 32 b9 04 30
        E 21 89 2c 40
        E 114 b9 04 20
        E 44 b9 04 0f
        E 38 b9 04 00
        E 287 99 33 7f
        E 3 99 24 69
        E 10 b9 04 12
        E 24 b9 04 22
        E 21 b9 04 32
        E 13 b9 04 43
        E 5 b9 04 4c
        E 2 99 2c 1e
        E 24 b9 04 32
        E 14 b9 04 22
        E 126 89 33 40
        E 3 89 24 40
        E 23 b9 04 1d
        E 52 89 2c 40
        E 19 b9 04 2e
        E 101 b9 04 1d
        E 51 99 26 7f
        E 27 b9 04 0c
        E 36 b9 04 00
        E 179 89 26 40
        E 130 b9 04 12
        E 24 b9 04 22
        E 17 b9 04 32
        E 12 99 33 4f
        E 2 b9 04 43
        E 17 b9 04 32
        E 10 b9 04 20
        E 130 b9 04 12
        E 74 b9 04 22
        E 11 89 33 40
        E 17 b9 04 32
        E 150 99 24 64
        E 2 b9 04 22
        E 41 b9 04 12
        E 58 b9 04 00
        E 143 89 24 40
        E 125 99 26 7f
        E 76 b9 04 12
        E 9 89 26 40
        E 2 99 26 7e
        E 3 b9 04 25
        E 31 b9 04 36
        E 10 b9 04 46
        E 3 b9 04 4d
        E 2 99 2c 22
        E 24 b9 04 36
        E 9 b9 04 25
        E 56 b9 04 15
        E 101 89 26 40
        E 51 89 2c 40
        E 59 b9 04 25
        E 29 99 2d 7f
        E 2 b9 04 36
        E 12 99 30 7f
        E 24 b9 04 46
        E 41 b9 04 4f
        E 3 99 2c 06
        E 159 89 2d 40
        E 15 89 30 40
        E 53 b9 04 36
        E 14 89 2c 40
        E 43 b9 04 25
        E 32 99 24 5c
        E 13 b9 04 15
        E 91 b9 04 03
        E 24 b9 04 00
        E 114 89 24 40
        E 183 b9 04 12
        E 14 b9 04 22
        E 17 b9 04 32
        E 17 b9 04 43
        E 5 99 30 7f
        E 3 b9 04 4c
        E 2 99 2c 18
        E 2 b9 04 53
        E 3 99 2d 7f
        E 5 b9 04 63
        E 17 b9 04 51
        E 7 b9 04 41
        E 20 b9 04 30
        E 43 b9 04 20
        E 142 89 30 40
        E 6 89 2c 40
        E 2 89 2d 40
        E 36 b9 04 30
        E 36 b9 04 41
        E 39 b9 04 4f
        E 3 99 2c 08
        E 7 b9 04 51
        E 50 99 2d 7f
        E 89 b9 04 5c
        E 95 89 2c 40
        E 57 89 2d 40
        E 175 b9 04 54
        E 292 b9 04 44
        E 73 b9 04 34
        E 89 b9 04 22
        E 37 99 2d 7f
        E 9 99 30 7f
        E 111 b9 04 32
        E 27 b9 04 43
        E 22 b9 04 4f
        E 2 99 2c 0a
        E 5 b9 04 53
        E 58 b9 04 63
        E 7 89 2d 40
        E 12 89 30 40
        E 113 b9 04 53
        E 29 b9 04 43
        E 18 89 2c 40
        E 14 b9 04 32
        E 20 b9 04 22
        E 35 b9 04 12
        E 53 b9 04 00
        E 314 99 2d 7f
        E 10 99 29 7f
        E 39 b9 04 12
        E 22 b9 04 25
        E 7 b9 04 36
        E 5 b9 04 46
        E 17 b9 04 36
        E 9 b9 04 22
        E 123 b9 04 32
        E 13 89 2d 40
        E 6 89 29 40
        E 71 b9 04 22
        E 50 b9 04 12
        E 70 b9 04 00
        E 363 b9 04 12
        E 7 b9 04 22
        E 5 99 24 7f
        E 5 b9 04 32
        E 32 b9 04 43
        E 4 b9 04 4d
        E 2 99 2c 22
        E 3 b9 04 55
        E 7 99 31 7f
        E 2 99 33 7f
        E 10 b9 04 44
        E 8 b9 04 34
        E 12 b9 04 22
        E 138 b9 04 32
        E 19 89 24 40
        E 48 89 2c 40
        E 5 89 31 40
        E 2 89 33 40
        E 63 b9 04 36
        E 44 b9 04 25
        E 39 b9 04 15
        E 63 b9 04 03
        E 11 b9 04 00
        E 326 b9 04 12
        E 11 b9 04 22
        E 11 b9 04 32
        E 5 99 24 76
        E 22 99 33 5e
        E 2 b9 04 43
        E 5 b9 04 4d
        E 3 99 2c 24
        E 2 b9 04 53
        E 16 b9 04 43
        E 8 b9 04 32
        E 12 b9 04 22
        E 92 b9 04 12
        E 79 89 24 40
        E 22 89 33 40
        E 10 89 2c 40
        E 39 b9 04 22
        E 33 b9 04 32
        E 128 99 26 7f
        E 22 b9 04 22
        E 49 b9 04 12
        E 45 b9 04 00
        E 126 89 26 40
        E 172 b9 04 12
        E 19 99 33 4d
        E 3 b9 04 22
        E 17 b9 04 32
        E 9 b9 04 43
        E 22 b9 04 32
        E 12 b9 04 20
        E 128 b9 04 15
        E 50 89 33 40
        E 3 b9 04 25
        E 33 b9 04 36
        E 153 99 24 77
        E 16 b9 04 25
        E 35 b9 04 15
        E 55 b9 04 03
        E 15 b9 04 00
        E 120 89 24 40
        E 206 99 28 72
        E 12 99 33 7f
        E 14 b9 04 12
        E 13 b9 04 22
        E 26 b9 04 32
        E 10 b9 04 43
        E 7 b9 04 4c
        E 0 99 2c 20
        E 17 b9 04 32
        E 7 b9 04 22
        E 15 b9 04 12
        E 123 89 28 40
        E 12 89 33 40
        E 53 b9 04 22
        E 17 89 2c 40
        E 176 b9 04 12
        E 60 b9 04 00
        E 279 99 33 4e
        E 12 b9 04 12
        E 10 b9 04 22
        E 9 b9 04 32
        E 21 b9 04 43
        E 7 b9 04 4c
        E 3 99 2c 16
        E 3 b9 04 53
        E 9 b9 04 63
        E 51 b9 04 53
        E 34 b9 04 43
        E 46 b9 04 32
        E 39 89 33 40
        E 60 89 2c 40
        E 148 99 24 6f
        E 9 b9 04 22
        E 51 b9 04 12
        E 60 b9 04 00
        E 124 89 24 40
        E 203 99 26 7f
        E 24 99 33 67
        E 12 b9 04 12
        E 12 b9 04 22
        E 29 b9 04 32
        E 9 b9 04 43
        E 3 b9 04 4c
        E 2 99 2c 26
        E 5 b9 04 53
        E 14 b9 04 41
        E 8 b9 04 30
        E 5 b9 04 20
        E 72 b9 04 0f
        E 46 89 26 40
        E 27 89 33 40
        E 67 89 2c 40
        E 12 b9 04 20
        E 22 b9 04 30
        E 29 b9 04 41
        E 138 b9 04 30
        E 2 99 24 49
        E 25 b9 04 20
        E 41 b9 04 0f
        E 29 b9 04 00
        E 147 89 24 40
        E 188 99 33 4b
        E 20 b9 04 12
        E 12 b9 04 25
        E 41 b9 04 36
        E 7 b9 04 47
        E 2 b9 04 4d
        E 3 99 2c 30
        E 2 b9 04 57
        E 12 b9 04 47
        E 5 b9 04 36
        E 8 b9 04 25
        E 9 b9 04 15
        E 56 b9 04 25
        E 58 b9 04 36
        E 9 89 33 40
        E 80 89 2c 40
        E 39 b9 04 25
        E 39 b9 04 15
        E 3 99 33 07
        E 20 99 24 68
        E 32 b9 04 03
        E 17 b9 04 00
        E 174 89 33 40
        E 20 89 24 40
        E 178 99 26 78
        E 19 99 33 62
        E 15 b9 04 12
        E 14 b9 04 22
        E 36 b9 04 32
        E 5 b9 04 43
        E 5 b9 04 4d
        E 2 99 2c 2a
        E 18 b9 04 32
        E 9 b9 04 20
        E 121 89 26 40
        E 17 89 33 40
        E 75 b9 04 0f
        E 1 89 2c 40
        E 47 b9 04 00
        E 447 b9 04 12
        E 10 b9 04 22
        E 6 99 24 7f
        E 8 b9 04 32
        E 12 b9 04 43
        E 14 99 31 6d
        E 3 b9 04 32
        E 5 99 33 7f
        E 5 b9 04 20
        E 12 b9 04 0f
        E 178 b9 04 20
        E 6 89 24 40
        E 36 89 31 40
        E 7 89 33 40
        E 152 b9 04 0f
        E 53 b9 04 00
        E 329 b9 04 12
        E 17 99 24 6b
        E 9 b9 04 22
        E 12 99 33 7f
        E 5 b9 04 32
        E 29 b9 04 20
        E 20 b9 04 0f
        E 167 89 24 40
        E 21 89 33 40
        E 49 b9 04 20
        E 26 b9 04 30
        E 140 99 26 7f
        E 24 b9 04 20
        E 51 b9 04 0f
        E 36 b9 04 00
        E 131 89 26 40
        E 171 99 33 7f
        E 5 b9 04 12
        E 15 b9 04 22
        E 26 b9 04 32
        E 10 b9 04 43
        E 5 b9 04 4d
        E 2 99 2c 24
        E 2 b9 04 54
        E 20 b9 04 44
        E 10 b9 04 34
        E 123 b9 04 29
        E 24 89 33 40
        E 63 89 2c 40
        E 92 b9 04 18
        E 19 99 24 68
        E 36 b9 04 06
        E 22 b9 04 00
        E 183 89 24 40
        E 158 b9 04 12
        E 10 b9 04 25
        E 14 99 28 44
        E 17 b9 04 36
        E 7 b9 04 46
        E 5 b9 04 4d
        E 4 99 2c 26
        E 5 99 33 7f
        E 12 b9 04 36
        E 10 b9 04 25
        E 48 b9 04 15
        E 133 89 28 40
        E 29 b9 04 25
        E 10 89 2c 40
        E 2 89 33 40
        E 174 b9 04 15
        E 54 b9 04 03
        E 9 b9 04 00
        E 283 99 33 59
        E 17 b9 04 12
        E 26 b9 04 22
        E 13 b9 04 32
        E 7 b9 04 43
        E 5 b9 04 4c
        E 2 99 2c 24
        E 3 b9 04 54
        E 14 b9 04 44
        E 9 b9 04 32
        E 15 b9 04 22
        E 75 b9 04 12
        E 55 89 33 40
        E 48 b9 04 22
        E 22 89 2c 40
        E 15 b9 04 32
        E 101 99 24 64
        E 39 b9 04 22
        E 51 b9 04 12
        E 46 b9 04 00
        E 106 89 24 40
        E 198 99 33 5f
        E 10 99 26 75
        E 29 b9 04 12
        E 9 b9 04 25
        E 22 b9 04 36
        E 10 b9 04 46
        E 19 b9 04 36
        E 12 b9 04 22
        E 97 b9 04 32
        E 34 89 33 40
        E 9 89 26 40
        E 126 b9 04 22
        E 39 b9 04 12
        E 19 99 26 7f
        E 24 b9 04 00
        E 131 89 26 40
        E 0 99 26 79
        E 220 89 26 40
        E 2 99 26 7c
        E 14 b9 04 12
        E 12 b9 04 22
        E 39 b9 04 32
        E 17 b9 04 20
        E 36 b9 04 0f
        E 61 b9 04 20
        E 60 b9 04 30
        E 3 89 26 40
        E 87 b9 04 20
        E 60 b9 04 0f
        E 48 b9 04 00
        E 24 99 30 34
        E 165 89 30 40
        E 0 99 30 6d
        E 174 b9 04 12
        E 17 b9 04 22
        E 7 89 30 40
        E 2 99 30 7f
        E 27 b9 04 32
        E 29 b9 04 20
        E 22 b9 04 0f
        E 164 89 30 40
        E 101 b9 04 20
        E 29 b9 04 30
        E 54 b9 04 41
        E 11 99 2d 7f
        E 92 b9 04 30
        E 32 b9 04 20
        E 41 b9 04 0f
        E 34 b9 04 00
        E 43 89 2d 40
        E 193 99 31 73
        E 2 99 24 65
        E 30 99 33 7f
        E 36 b9 04 12
        E 12 b9 04 22
        E 24 b9 04 32
        E 15 b9 04 43
        E 5 b9 04 4c
        E 2 99 2c 1e
        E 3 b9 04 53
        E 19 b9 04 43
        E 9 b9 04 32
        E 56 b9 04 22
        E 29 89 31 40
        E 2 89 24 40
        E 30 89 33 40
        E 93 89 2c 40
        E 111 b9 04 12
        E 40 b9 04 00
        E 289 99 24 73
        E 20 99 33 7f
        E 2 b9 04 12
        E 15 b9 04 25
        E 28 b9 04 36
        E 27 b9 04 25
        E 14 b9 04 15
        E 136 89 24 40
        E 22 89 33 40
        E 26 b9 04 0f
        E 48 b9 04 20
        E 25 b9 04 30
        E 46 b9 04 41
        E 48 99 26 7f
        E 63 b9 04 30
        E 33 b9 04 20
        E 44 b9 04 0f
        E 31 b9 04 00
        E 71 89 26 40
        E 186 99 33 65
        E 53 b9 04 12
        E 14 b9 04 22
        E 27 b9 04 32
        E 12 b9 04 43
        E 22 b9 04 32
        E 12 b9 04 20
        E 101 89 33 40
        E 32 b9 04 1a
        E 50 b9 04 2c
        E 111 99 24 63
        E 56 b9 04 1a
        E 53 b9 04 09
        E 25 b9 04 00
        E 108 89 24 40
        E 145 99 33 71
        E 29 99 26 7f
        E 60 b9 04 12
        E 12 b9 04 22
        E 27 b9 04 32
        E 12 b9 04 43
        E 20 b9 04 32
        E 6 b9 04 22
        E 76 89 33 40
        E 31 b9 04 32
        E 3 89 26 40
        E 123 b9 04 22
        E 45 b9 04 12
        E 29 99 30 43
        E 20 b9 04 00
        E 137 89 30 40
        E 3 99 30 7f
        E 193 89 30 40
        E 0 99 30 5c
        E 22 b9 04 12
        E 39 b9 04 22
        E 17 b9 04 32
        E 31 b9 04 20
        E 101 b9 04 30
        E 32 89 30 40
        E 82 b9 04 20
        E 48 b9 04 0f
        E 37 b9 04 00
        E 69 99 2d 7f
        E 147 89 2d 40
        E 6 99 2d 7f
        E 140 b9 04 12
        E 51 b9 04 22
        E 2 89 2d 40
        E 3 99 2d 7f
        E 7 b9 04 32
        E 31 b9 04 20
        E 193 b9 04 30
        E 8 89 2d 40
        E 91 b9 04 20
        E 56 b9 04 0f
        E 36 b9 04 00
        E 75 99 29 50
        E 179 89 29 40
        E 5 99 29 7f
        E 94 b9 04 12
        E 17 b9 04 22
        E 75 89 29 40
        E 0 99 29 7f
        E 3 b9 04 12
        E 139 b9 04 25
        E 75 99 26 7f
        E 27 89 29 40
        E 31 b9 04 29
        E 39 b9 04 18
        E 34 b9 04 06
        E 14 b9 04 00
        E 68 89 26 40
        E 2 99 26 7f
        E 189 89 26 40
        E 2 99 26 73
        E 116 b9 04 12
        E 39 b9 04 22
        E 43 b9 04 12
        E 39 99 2d 7f
        E 7 89 26 40
        E 176 99 30 3d
        E 34 b9 04 22
        E 25 89 2d 40
        E 4 b9 04 32
        E 32 b9 04 43
        E 27 b9 04 4c
        E 2 99 2c 08
        E 94 99 26 7f
        E 10 b9 04 47
        E 14 89 30 40
        E 24 b9 04 36
        E 29 b9 04 25
        E 20 b9 04 15
        E 29 b9 04 03
        E 7 b9 04 00
        E 14 89 2c 40
        E 44 89 26 40
        E 4 99 26 71
        E 237 99 24 7f
        E 3 89 26 40
        E 12 99 3b 7f
        E 2 b9 04 12
        E 7 b9 04 27
        E 8 b9 04 38
        E 55 b9 04 27
        E 61 b9 04 15
        E 94 89 24 40
        E 17 89 3b 40
        E 99 b9 04 25
        E 159 b9 04 15
        E 46 b9 04 03
        E 12 b9 04 00
        E 240 99 24 69
        E 43 99 33 7f
        E 17 b9 04 12
        E 15 b9 04 22
        E 26 b9 04 32
        E 14 b9 04 43
        E 6 b9 04 4c
        E 0 99 2c 18
        E 26 b9 04 32
        E 27 b9 04 22
        E 55 b9 04 12
        E 15 89 24 40
        E 41 89 33 40
        E 82 89 2c 40
        E 60 b9 04 22
        E 46 99 26 7f
        E 80 b9 04 29
        E 67 b9 04 18
        E 44 b9 04 06
        E 17 b9 04 00
        E 34 89 26 40
        E 195 99 33 7f
        E 82 b9 04 12
        E 24 b9 04 22
        E 27 b9 04 32
        E 19 b9 04 22
        E 25 b9 04 12
        E 65 89 33 40
        E 61 b9 04 22
        E 135 99 24 76
        E 21 b9 04 12
        E 63 b9 04 00
        E 157 89 24 40
        E 136 99 28 7f
        E 29 99 33 77
        E 41 b9 04 12
        E 7 b9 04 22
        E 10 b9 04 32
        E 31 b9 04 43
        E 24 b9 04 32
        E 7 b9 04 22
        E 24 b9 04 12
        E 68 89 28 40
        E 29 89 33 40
        E 176 b9 04 1a
        E 90 b9 04 09
        E 29 b9 04 00
        E 256 99 33 7f
        E 68 b9 04 12
        E 21 b9 04 22
        E 13 b9 04 32
        E 33 b9 04 20
        E 109 89 33 40
        E 17 b9 04 12
        E 116 b9 04 22
        E 46 b9 04 32
        E 7 99 28 7d
        E 174 b9 04 22
        E 48 b9 04 12
        E 22 89 28 40
        E 22 b9 04 00
        E 210 99 33 7f
        E 68 b9 04 12
        E 24 b9 04 25
        E 10 b9 04 36
        E 9 b9 04 47
        E 3 b9 04 4c
        E 2 99 2c 1e
        E 24 b9 04 36
        E 104 89 33 40
        E 22 b9 04 30
        E 91 89 2c 40
        E 54 99 24 60
        E 14 b9 04 20
        E 46 b9 04 0f
        E 39 b9 04 00
        E 143 89 24 40
        E 156 b9 04 12
        E 19 b9 04 22
        E 11 99 33 6a
        E 12 b9 04 32
        E 9 b9 04 43
        E 5 b9 04 4c
        E 2 99 2c 20
        E 5 b9 04 53
        E 20 b9 04 43
        E 7 b9 04 32
        E 123 b9 04 43
        E 58 89 33 40
        E 29 89 2c 40
        E 22 b9 04 32
        E 26 b9 04 22
        E 36 b9 04 12
        E 40 99 24 75
        E 4 b9 04 00
        E 236 89 24 40
        E 180 99 28 7f
        E 5 b9 04 12
        E 26 99 3b 7f
        E 9 b9 04 22
        E 10 b9 04 32
        E 8 b9 04 43
        E 16 b9 04 30
        E 8 b9 04 20
        E 17 b9 04 0f
        E 65 b9 04 20
        E 77 89 28 40
        E 34 89 3b 40
        E 12 b9 04 29
        E 56 b9 04 18
        E 50 b9 04 06
        E 27 b9 04 00
        E 367 b9 04 12
        E 15 b9 04 22
        E 14 99 24 7f
        E 12 b9 04 32
        E 10 b9 04 43
        E 17 b9 04 32
        E 8 b9 04 20
        E 4 99 3b 77
        E 20 b9 04 0f
        E 77 b9 04 20
        E 50 b9 04 30
        E 44 89 24 40
        E 50 89 3b 40
        E 46 b9 04 20
        E 56 b9 04 0f
        E 41 b9 04 00
        E 346 b9 04 12
        E 14 b9 04 22
        E 34 99 24 7f
        E 2 b9 04 32
        E 5 b9 04 44
        E 5 b9 04 4c
        E 3 99 2c 20
        E 2 99 33 71
        E 14 b9 04 34
        E 8 b9 04 22
        E 19 b9 04 12
        E 184 89 24 40
        E 14 89 2c 40
        E 2 89 33 40
        E 3 b9 04 22
        E 140 b9 04 12
        E 63 99 26 79
        E 6 b9 04 00
        E 235 89 26 40
        E 107 b9 04 12
        E 38 b9 04 22
        E 12 b9 04 32
        E 10 b9 04 43
        E 15 99 33 7f
        E 2 b9 04 32
        E 7 b9 04 22
        E 17 b9 04 12
        E 94 b9 04 22
        E 121 89 33 40
        E 10 b9 04 2c
        E 53 b9 04 1a
        E 51 b9 04 09
        E 29 99 24 6d
        E 3 b9 04 00
        E 238 89 24 40
        E 111 99 33 5b
        E 54 99 26 68
        E 12 b9 04 12
        E 46 b9 04 22
        E 7 b9 04 32
        E 24 b9 04 20
        E 12 b9 04 0f
        E 87 89 33 40
        E 53 89 26 40
        E 3 b9 04 20
        E 43 b9 04 30
        E 102 b9 04 20
        E 34 99 26 60
        E 18 b9 04 0f
        E 39 b9 04 00
        E 77 99 30 7f
        E 107 89 26 40
        E 67 99 2d 7f
        E 68 b9 04 12
        E 2 89 30 40
        E 25 99 24 70
        E 2 b9 04 22
        E 19 b9 04 32
        E 10 b9 04 43
        E 5 b9 04 4c
        E 3 99 2c 1e
        E 2 b9 04 54
        E 24 b9 04 44
        E 12 b9 04 34
        E 41 b9 04 20
        E 29 89 2d 40
        E 20 b9 04 0f
        E 75 89 24 40
        E 40 89 2c 40
        E 5 b9 04 20
        E 15 b9 04 30
        E 27 b9 04 41
        E 34 b9 04 4f
        E 2 99 2c 06
        E 14 b9 04 51
        E 85 b9 04 41
        E 34 b9 04 30
        E 2 99 24 6c
        E 17 b9 04 20
        E 34 b9 04 0f
        E 29 b9 04 00
        E 29 89 2c 40
        E 135 89 24 40
        E 145 99 26 7f
        E 27 b9 04 12
        E 7 b9 04 22
        E 5 b9 04 32
        E 9 b9 04 43
        E 32 b9 04 4c
        E 0 99 2c 1c
        E 5 b9 04 53
        E 19 89 26 40
        E 2 99 26 7f
        E 3 b9 04 43
        E 2 b9 04 32
        E 9 b9 04 22
        E 56 b9 04 12
        E 145 89 2c 40
        E 26 89 26 40
        E 5 b9 04 22
        E 23 b9 04 32
        E 40 99 26 3f
        E 87 b9 04 36
        E 49 b9 04 25
        E 19 99 30 7f
        E 10 b9 04 15
        E 34 b9 04 03
        E 9 b9 04 00
        E 37 89 26 40
        E 60 99 2d 7f
        E 92 89 30 40
        E 39 99 24 7a
        E 43 b9 04 12
        E 17 b9 04 22
        E 14 b9 04 32
        E 15 b9 04 44
        E 4 b9 04 4c
        E 3 99 2c 1a
        E 2 b9 04 54
        E 18 89 2d 40
        E 13 b9 04 44
        E 42 b9 04 34
        E 36 b9 04 20
        E 35 89 24 40
        E 95 89 2c 40
        E 3 b9 04 30
        E 31 b9 04 41
        E 114 99 24 65
        E 39 b9 04 30
        E 26 b9 04 20
        E 39 b9 04 0f
        E 34 b9 04 00
        E 104 89 24 40
        E 120 99 26 7d
        E 66 b9 04 12
        E 21 b9 04 22
        E 2 89 26 40
        E 3 99 26 7f
        E 17 b9 04 32
        E 7 b9 04 43
        E 5 b9 04 4c
        E 3 99 2c 24
        E 14 b9 04 32
        E 10 b9 04 20
        E 21 b9 04 0f
        E 133 b9 04 20
        E 29 89 26 40
        E 32 b9 04 30
        E 2 89 2c 40
        E 58 99 24 69
        E 15 b9 04 20
        E 55 b9 04 0f
        E 34 b9 04 00
        E 138 89 24 40
        E 171 b9 04 12
        E 5 b9 04 22
        E 7 b9 04 34
        E 3 99 24 7f
        E 5 b9 04 44
        E 26 b9 04 4c
        E 3 99 2c 20
        E 2 b9 04 55
        E 7 b9 04 65
        E 5 99 31 7f
        E 2 99 3b 7f
        E 12 b9 04 55
        E 14 b9 04 44
        E 49 b9 04 34
        E 44 b9 04 22
        E 72 89 24 40
        E 36 89 2c 40
        E 15 89 31 40
        E 3 89 3b 40
        E 13 b9 04 32
        E 151 b9 04 22
        E 36 b9 04 12
        E 36 b9 04 00
        E 298 99 24 73
        E 21 b9 04 12
        E 12 b9 04 25
        E 20 99 33 7f
        E 17 b9 04 36
        E 9 b9 04 47
        E 3 b9 04 4c
        E 2 99 2c 1e
        E 24 b9 04 36
        E 13 b9 04 25
        E 50 b9 04 15
        E 71 89 24 40
        E 53 89 33 40
        E 31 89 2c 40
        E 21 b9 04 25
        E 102 99 26 7f
        E 65 b9 04 15
        E 46 b9 04 03
        E 13 b9 04 00
        E 118 89 26 40
        E 171 b9 04 12
        E 14 b9 04 22
        E 15 b9 04 32
        E 10 99 33 7f
        E 7 b9 04 43
        E 29 b9 04 32
        E 20 b9 04 22
        E 159 b9 04 1a
        E 26 89 33 40
        E 17 b9 04 2c
        E 138 99 24 7b
        E 33 b9 04 1a
        E 48 b9 04 09
        E 23 b9 04 00
        E 138 89 24 40
        E 197 99 26 7f
        E 18 b9 04 12
        E 9 b9 04 22
        E 7 99 33 7f
        E 0 b9 04 32
        E 27 b9 04 43
        E 21 b9 04 32
        E 10 b9 04 20
        E 33 b9 04 0f
        E 86 b9 04 20
        E 31 89 26 40
        E 25 b9 04 30
        E 9 89 33 40
        E 94 b9 04 20
        E 61 b9 04 0f
        E 47 b9 04 00
        E 337 b9 04 12
        E 7 b9 04 22
        E 5 99 33 62
        E 7 b9 04 32
        E 29 b9 04 43
        E 7 b9 04 4c
        E 3 99 2c 1a
        E 21 b9 04 32
        E 10 b9 04 20
        E 162 b9 04 12
        E 5 89 33 40
        E 43 89 2c 40
        E 12 b9 04 22
        E 29 b9 04 32
        E 95 99 24 68
        E 36 b9 04 36
        E 48 b9 04 25
        E 41 b9 04 15
        E 46 b9 04 03
        E 9 b9 04 00
        E 61 89 24 40
        E 225 b9 04 12
        E 19 99 33 7f
        E 15 b9 04 22
        E 14 b9 04 32
        E 8 b9 04 44
        E 5 b9 04 4d
        E 2 99 2c 26
        E 3 b9 04 55
        E 14 b9 04 44
        E 7 b9 04 34
        E 8 b9 04 20
        E 166 89 33 40
        E 29 b9 04 30
        E 14 89 2c 40
        E 20 b9 04 41
        E 38 b9 04 50
        E 3 99 2c 08
        E 2 b9 04 51
        E 101 99 24 6f
        E 17 b9 04 41
        E 34 b9 04 30
        E 28 b9 04 20
        E 38 b9 04 0f
        E 21 89 2c 40
        E 10 b9 04 00
        E 97 89 24 40
        E 184 99 26 7f
        E 21 b9 04 12
        E 7 99 33 7f
        E 17 b9 04 22
        E 22 b9 04 32
        E 9 b9 04 43
        E 6 b9 04 4d
        E 2 99 2c 26
        E 2 b9 04 55
        E 22 b9 04 44
        E 7 b9 04 34
        E 12 b9 04 20
        E 116 89 26 40
        E 29 89 33 40
        E 51 b9 04 30
        E 2 89 2c 40
        E 109 99 24 71
        E 41 b9 04 20
        E 71 b9 04 0f
        E 40 b9 04 00
        E 90 89 24 40
        E 142 99 26 76
        E 84 89 26 40
        E 5 99 26 7f
        E 11 b9 04 12
        E 48 b9 04 22
        E 7 b9 04 32
        E 29 b9 04 22
        E 12 b9 04 12
        E 133 89 26 40
        E 61 b9 04 22
        E 98 99 28 62
        E 27 b9 04 27
        E 58 b9 04 15
        E 44 b9 04 03
        E 6 b9 04 00
        E 110 89 28 40
        E 149 99 24 7f
        E 33 99 33 7f
        E 3 b9 04 12
        E 10 b9 04 22
        E 17 b9 04 32
        E 14 b9 04 43
        E 25 b9 04 32
        E 16 b9 04 22
        E 123 89 24 40
        E 35 89 33 40
        E 2 b9 04 15
        E 75 b9 04 25
        E 130 b9 04 29
        E 60 b9 04 18
        E 61 b9 04 06
        E 24 b9 04 00
        E 232 99 24 63
        E 10 99 33 7f
        E 58 b9 04 12
        E 26 b9 04 22
        E 12 b9 04 32
        E 41 b9 04 20
        E 94 89 24 40
        E 10 89 33 40
        E 160 99 26 7f
        E 147 b9 04 0f
        E 96 89 26 40
        E 34 b9 04 00
        E 146 b9 04 12
        E 58 b9 04 22
        E 19 99 33 7f
        E 135 b9 04 32
        E 109 89 33 40
        E 29 b9 04 22
        E 49 b9 04 12
        E 31 99 24 63
        E 27 b9 04 00
        E 214 89 24 40
        E 136 99 26 7f
        E 17 99 33 7f
        E 14 b9 04 12
        E 39 b9 04 25
        E 14 b9 04 36
        E 19 b9 04 25
        E 11 b9 04 15
        E 28 b9 04 03
        E 99 89 26 40
        E 17 b9 04 15
        E 0 89 33 40
        E 73 b9 04 25
        E 120 b9 04 15
        E 82 b9 04 03
        E 15 b9 04 00
        E 283 99 33 7f
        E 38 b9 04 12
        E 27 b9 04 22
        E 12 b9 04 32
        E 34 b9 04 20
        E 128 b9 04 1a
        E 2 89 33 40
        E 188 99 28 64
        E 66 b9 04 09
        E 50 b9 04 00
        E 126 89 28 40
        E 135 b9 04 12
        E 25 b9 04 22
        E 14 99 33 5c
        E 0 b9 04 32
        E 24 b9 04 22
        E 29 b9 04 12
        E 150 b9 04 22
        E 34 b9 04 32
        E 5 89 33 40
        E 135 99 24 5e
        E 22 b9 04 22
        E 60 b9 04 12
        E 77 b9 04 00
        E 83 89 24 40
        E 196 99 26 7f
        E 26 b9 04 12
        E 29 b9 04 25
        E 9 b9 04 36
        E 7 89 26 40
        E 3 99 26 7f
        E 20 b9 04 22
        E 12 b9 04 12
        E 203 b9 04 22
        E 9 89 26 40
        E 14 b9 04 32
        E 56 b9 04 43
        E 60 99 24 5f
        E 35 b9 04 32
        E 36 b9 04 22
        E 46 b9 04 12
        E 50 b9 04 00
        E 77 89 24 40
        E 98 99 2d 7f
        E 22 99 30 7f
        E 137 b9 04 12
        E 17 b9 04 22
        E 5 b9 04 32
        E 9 b9 04 43
        E 15 b9 04 32
        E 7 b9 04 20
        E 22 b9 04 0f
        E 7 89 2d 40
        E 24 89 30 40
        E 27 b9 04 20
        E 46 b9 04 30
        E 109 b9 04 20
        E 62 b9 04 0f
        E 46 b9 04 00
        E 348 99 24 7f
        E 13 b9 04 12
        E 14 b9 04 25
        E 2 99 31 6d
        E 22 99 33 7f
        E 9 b9 04 36
        E 5 b9 04 46
        E 5 b9 04 4c
        E 2 99 2c 22
        E 13 b9 04 36
        E 10 b9 04 25
        E 14 b9 04 15
        E 133 89 24 40
        E 14 b9 04 25
        E 15 89 31 40
        E 21 89 33 40
        E 22 89 2c 40
        E 101 b9 04 15
        E 85 b9 04 03
        E 27 b9 04 00
        E 302 99 24 60
        E 10 b9 04 12
        E 21 b9 04 25
        E 12 b9 04 36
        E 10 99 33 56
        E 29 b9 04 25
        E 123 b9 04 20
        E 37 89 24 40
        E 55 89 33 40
        E 3 b9 04 0f
        E 67 b9 04 00
        E 70 99 26 7f
        E 242 89 26 40
        E 7 b9 04 12
        E 26 b9 04 22
        E 54 b9 04 12
        E 86 99 33 4f
        E 155 b9 04 22
        E 35 b9 04 32
        E 42 b9 04 43
        E 10 89 33 40
        E 121 b9 04 32
        E 29 b9 04 22
        E 22 99 24 64
        E 19 b9 04 12
        E 48 b9 04 00
        E 174 89 24 40
        E 165 99 26 7f
        E 16 b9 04 12
        E 15 99 33 7f
        E 2 b9 04 22
        E 27 b9 04 32
        E 7 b9 04 43
        E 20 b9 04 32
        E 7 b9 04 22
        E 17 b9 04 12
        E 130 89 26 40
        E 36 89 33 40
        E 37 b9 04 22
        E 41 b9 04 32
        E 132 b9 04 22
        E 56 b9 04 12
        E 61 b9 04 00
        E 232 99 33 7c
        E 77 b9 04 12
        E 27 b9 04 22
        E 9 b9 04 32
        E 32 b9 04 20
        E 96 89 33 40
        E 208 99 26 7d
        E 43 b9 04 0f
        E 79 b9 04 00
        E 120 89 26 40
        E 149 b9 04 12
        E 8 99 33 5b
        E 18 b9 04 22
        E 15 b9 04 32
        E 39 b9 04 20
        E 133 b9 04 1a
        E 36 89 33 40
        E 14 b9 04 2c
        E 151 99 24 50
        E 31 b9 04 1a
        E 60 b9 04 09
        E 34 b9 04 00
        E 116 89 24 40
        E 181 b9 04 12
        E 5 99 26 57
        E 21 b9 04 22
        E 8 99 33 58
        E 2 b9 04 32
        E 5 b9 04 43
        E 23 b9 04 30
        E 9 b9 04 20
        E 126 b9 04 1a
        E 47 89 26 40
        E 3 b9 04 2c
        E 27 89 33 40
        E 111 99 24 53
        E 43 b9 04 1a
        E 65 b9 04 09
        E 35 b9 04 00
        E 99 89 24 40
        E 120 99 30 7f
        E 70 99 33 50
        E 10 b9 04 12
        E 22 b9 04 25
        E 12 b9 04 36
        E 12 b9 04 46
        E 12 b9 04 36
        E 12 b9 04 25
        E 92 89 30 40
        E 73 89 33 40
        E 60 99 30 7f
        E 0 b9 04 15
        E 50 b9 04 03
        E 14 b9 04 00
        E 177 89 30 40
        E 152 99 24 7f
        E 3 b9 04 12
        E 36 b9 04 25
        E 15 b9 04 36
        E 7 b9 04 47
        E 2 99 33 7f
        E 15 b9 04 36
        E 9 b9 04 25
        E 15 b9 04 15
        E 140 89 24 40
        E 12 b9 04 25
        E 51 89 33 40
        E 126 b9 04 15
        E 67 b9 04 03
        E 17 b9 04 00
        E 302 99 24 55
        E 0 b9 04 12
        E 16 b9 04 25
        E 12 b9 04 36
        E 23 b9 04 25
        E 12 b9 04 15
        E 2 99 33 7f
        E 177 89 24 40
        E 65 89 33 40
        E 24 b9 04 1a
        E 94 b9 04 09
        E 12 99 26 72
        E 30 b9 04 00
        E 212 89 26 40
        E 75 b9 04 12
        E 31 b9 04 22
        E 46 b9 04 12
        E 36 99 33 33
        E 158 b9 04 22
        E 33 b9 04 32
        E 51 89 33 40
        E 77 b9 04 38
        E 46 b9 04 27
        E 15 99 24 56
        E 29 b9 04 15
        E 50 b9 04 03
        E 13 b9 04 00
        E 149 89 24 40
        E 196 b9 04 12
        E 22 b9 04 22
        E 7 99 26 7f
        E 0 99 33 7f
        E 19 b9 04 32
        E 7 b9 04 43
        E 5 b9 04 4c
        E 3 99 2c 20
        E 19 b9 04 30
        E 4 b9 04 20
        E 42 b9 04 0f
        E 143 89 26 40
        E 2 89 33 40
        E 15 b9 04 20
        E 19 89 2c 40
        E 176 b9 04 0f
        E 56 b9 04 00
        E 302 99 33 37
        E 7 b9 04 12
        E 19 b9 04 22
        E 46 b9 04 12
        E 169 89 33 40
        E 61 b9 04 22
        E 123 99 26 7f
        E 9 b9 04 12
        E 68 b9 04 00
        E 165 89 26 40
        E 123 99 33 7f
        E 29 b9 04 12
        E 31 b9 04 22
        E 10 b9 04 32
        E 7 b9 04 43
        E 22 b9 04 32
        E 9 b9 04 20
        E 129 b9 04 15
        E 4 89 33 40
        E 66 b9 04 25
        E 128 99 24 54
        E 24 b9 04 15
        E 67 b9 04 03
        E 12 b9 04 00
        E 141 89 24 40
        E 169 b9 04 12
        E 16 99 33 7f
        E 13 b9 04 22
        E 2 99 26 67
        E 7 b9 04 32
        E 6 b9 04 43
        E 5 b9 04 4c
        E 6 99 2c 22
        E 15 b9 04 32
        E 9 b9 04 22
        E 61 b9 04 12
        E 89 b9 04 22
        E 32 89 33 40
        E 12 89 26 40
        E 5 b9 04 32
        E 19 89 2c 40
        E 99 99 24 57
        E 5 b9 04 22
        E 55 b9 04 12
        E 53 b9 04 00
        E 131 89 24 40
        E 152 99 28 2d
        E 8 99 26 73
        E 36 99 33 74
        E 2 b9 04 12
        E 31 b9 04 22
        E 8 b9 04 32
        E 10 b9 04 43
        E 19 b9 04 32
        E 9 b9 04 22
        E 68 b9 04 32
        E 53 89 28 40
        E 7 89 26 40
        E 37 89 33 40
        E 16 b9 04 22
        E 47 b9 04 12
        E 43 b9 04 00
        E 15 99 26 65
        E 241 89 26 40
        E 46 b9 04 12
        E 24 b9 04 22
        E 13 b9 04 32
        E 9 b9 04 43
        E 4 99 24 7f
        E 3 b9 04 4c
        E 2 99 2c 1e
        E 17 b9 04 32
        E 13 b9 04 22
        E 41 99 33 48
        E 32 b9 04 12
        E 137 89 24 40
        E 2 89 2c 40
        E 44 b9 04 22
        E 28 89 33 40
        E 10 b9 04 32
        E 94 b9 04 43
        E 168 b9 04 32
        E 195 b9 04 38
        E 386 b9 04 27
        E 75 b9 04 15
        E 71 99 26 7f
        E 108 89 26 40
        E 2 99 26 7f
        E 15 b9 04 25
        E 48 b9 04 36
        E 39 b9 04 25
        E 124 b9 04 1d
        E 19 89 26 40
        E 166 b9 04 2e
        E 63 b9 04 3e
        E 145 b9 04 44
        E 60 b9 04 34
        E 51 b9 04 22
        E 65 b9 04 12
        E 122 b9 04 00
        E 135 99 24 7f
        E 9 b9 04 12
        E 36 b9 04 25
        E 22 b9 04 36
        E 24 b9 04 46
        E 15 b9 04 4c
        E 2 99 2c 0a
        E 58 b9 04 36
        E 43 b9 04 25
        E 32 89 24 40
        E 32 b9 04 15
        E 79 89 2c 40
        E 147 b9 04 25
        E 148 b9 04 32
        E 334 b9 04 25
        E 161 b9 04 1d
        E 222 99 30 7f
        E 3 99 2d 7f
        E 128 b9 04 2e
        E 114 89 30 40
        E 2 89 2d 40
        E 304 b9 04 27
        E 411 b9 04 38
        E 261 99 24 7f
        E 14 b9 04 2c
        E 228 89 24 40
        E 353 b9 04 27
        E 159 99 26 7f
        E 2 b9 04 20
        E 85 89 26 40
        E 2 99 26 7f
        E 244 89 26 40
        E 36 b9 04 2e
        E 203 b9 04 20
        E 307 99 24 7f
        E 242 89 24 40
        E 2 b9 04 12
        E 249 b9 04 1d
        E 217 b9 04 27
        E 332 b9 04 1d
        E 249 99 2d 7f
        E 2 99 30 7f
        E 241 89 2d 40
        E 2 89 30 40
        E 830 b9 04 2c
        E 113 99 24 7a
        E 196 b9 04 20
        E 46 89 24 40
        E 208 b9 04 29
        E 666 b9 04 20
        E 245 b9 04 15
        E 24 99 26 7f
        E 67 b9 04 25
        E 21 89 26 40
        E 3 99 26 7f
        E 242 89 26 40
        E 10 b9 04 1d
        E 761 b9 04 2e
        E 84 99 24 7e
        E 162 b9 04 1d
        E 80 89 24 40
        E 372 b9 04 25
        E 137 b9 04 1d
        E 59 99 30 7f
        E 7 99 2d 7f
        E 236 89 30 40
        E 5 89 2d 40
        E 54 b9 04 29
        E 194 b9 04 1d
        E 270 b9 04 12
        E 11 99 24 6e
        E 20 99 33 65
        E 31 b9 04 22
        E 126 b9 04 29
        E 68 89 24 40
        E 19 89 33 40
        E 18 b9 04 18
        E 190 b9 04 0f
        E 284 b9 04 20
        E 42 99 33 30
        E 186 b9 04 12
        E 55 89 33 40
        E 266 b9 04 22
        E 198 b9 04 15
        E 193 b9 04 25
        E 148 b9 04 29
        E 155 b9 04 18
        E 208 b9 04 0c
        E 190 99 28 5a
        E 2 b9 04 1d
        E 13 99 33 7a
        E 229 89 28 40
        E 12 89 33 40
        E 3 b9 04 0f
        E 285 b9 04 1a
        E 309 b9 04 15
        E 135 b9 04 25
        E 315 b9 04 1d
        E 64 99 24 79
        E 20 99 33 41
        E 224 89 24 40
        E 17 89 33 40
        E 998 99 26 7f
        E 20 99 33 65
        E 222 89 26 40
        E 21 89 33 40
        E 445 b9 04 2e
        E 290 b9 04 36
        E 145 b9 04 27
        E 154 b9 04 1a
        E 141 99 24 7a
        E 5 99 33 3c
        E 50 b9 04 2c
        E 34 b9 04 3c
        E 148 b9 04 2c
        E 4 89 24 40
        E 5 89 33 40
        E 61 b9 04 1a
        E 164 b9 04 12
        E 191 b9 04 22
        E 7 99 24 44
        E 10 b9 04 32
        E 31 99 33 2d
        E 8 b9 04 43
        E 109 b9 04 32
        E 33 b9 04 22
        E 43 b9 04 12
        E 8 89 24 40
        E 41 89 33 40
        E 68 b9 04 00
        E 125 99 28 29
        E 164 b9 04 12
        E 27 b9 04 22
        E 51 89 28 40
        E 87 99 33 27
        E 0 b9 04 12
        E 178 b9 04 22
        E 44 b9 04 32
        E 19 89 33 40
        E 104 b9 04 22
        E 50 99 24 40
        E 8 b9 04 12
        E 70 b9 04 00
        E 167 89 24 40
        E 157 99 33 62
        E 2 99 28 42
        E 44 b9 04 12
        E 14 b9 04 25
        E 36 b9 04 36
        E 10 b9 04 46
        E 5 b9 04 4c
        E 2 99 2c 1a
        E 17 b9 04 36
        E 17 b9 04 25
        E 95 89 33 40
        E 2 89 28 40
        E 24 b9 04 1a
        E 89 89 2c 40
        E 73 b9 04 09
        E 58 b9 04 00
        E 326 b9 04 12
        E 24 b9 04 25
        E 3 99 33 27
        E 14 b9 04 36
        E 80 b9 04 25
        E 125 b9 04 1a
        E 22 89 33 40
        E 104 b9 04 09
        E 85 99 26 5c
        E 51 b9 04 00
        E 193 89 26 40
        E 62 b9 04 12
        E 39 b9 04 22
        E 22 99 33 2b
        E 52 b9 04 12
        E 170 b9 04 1d
        E 20 89 33 40
        E 130 b9 04 27
        E 128 b9 04 15
        E 150 b9 04 03
        E 31 b9 04 00
        E 280 b9 04 12
        E 29 b9 04 22
        E 341 b9 04 12
        E 167 b9 04 00
        E 246 b9 04 12
        E 150 b9 04 22
        E 68 b9 04 32
        E 118 b9 04 22
        E 60 b9 04 12
        E 89 b9 04 00
        E 327 b9 04 12
        E 27 b9 04 22
        E 9 b9 04 32
        E 10 b9 04 43
        E 12 99 24 73
        E 11 b9 04 32
        E 11 b9 04 20
        E 29 99 33 60
        E 101 b9 04 12
        E 89 89 24 40
        E 51 89 33 40
        E 123 b9 04 22
        E 136 b9 04 29
        E 43 99 26 57
        E 135 b9 04 1d
        E 109 89 26 40
        E 227 b9 04 27
        E 357 b9 04 30
        E 235 b9 04 25
        E 133 99 26 79
        E 22 b9 04 1d
        E 14 99 33 4e
        E 135 b9 04 2e
        E 25 b9 04 3e
        E 24 b9 04 4c
        E 2 99 2c 0c
        E 5 b9 04 4f
        E 14 89 26 40
        E 37 89 33 40
        E 89 b9 04 3f
        E 37 b9 04 2e
        E 36 b9 04 1d
        E 24 89 2c 40
        E 46 b9 04 0c
        E 89 b9 04 00
        E 200 b9 04 12
        E 25 b9 04 22
        E 15 b9 04 32
        E 16 b9 04 43
        E 15 b9 04 4c
        E 3 99 2c 10
        E 2 99 33 31
        E 68 b9 04 32
        E 91 b9 04 22
        E 80 89 2c 40
        E 4 89 33 40
        E 30 b9 04 12
        E 142 99 26 65
        E 53 b9 04 06
        E 173 b9 04 18
        E 16 89 26 40
        E 14 b9 04 29
        E 29 b9 04 3a
        E 68 b9 04 29
        E 17 99 33 3a
        E 67 b9 04 18
        E 172 b9 04 29
        E 2 89 33 40
        E 37 b9 04 3a
        E 34 b9 04 4a
        E 9 b9 04 4d
        E 3 99 2c 08
        E 138 b9 04 3a
        E 12 99 24 52
        E 26 b9 04 29
        E 41 b9 04 18
        E 24 89 2c 40
        E 32 b9 04 06
        E 28 b9 04 00
        E 92 89 24 40
        E 145 99 28 4a
        E 27 99 33 41
        E 7 b9 04 12
        E 22 b9 04 22
        E 12 b9 04 32
        E 15 b9 04 43
        E 9 b9 04 4c
        E 3 99 2c 16
        E 16 b9 04 32
        E 12 b9 04 22
        E 120 89 28 40
        E 26 89 33 40
        E 28 b9 04 32
        E 39 89 2c 40
        E 68 99 24 4b
        E 58 b9 04 22
        E 80 b9 04 12
        E 79 b9 04 00
        E 24 89 24 40
        E 167 99 26 6d
        E 22 99 33 44
        E 27 b9 04 12
        E 28 b9 04 22
        E 15 b9 04 32
        E 36 b9 04 22
        E 37 b9 04 12
        E 77 89 26 40
        E 22 89 33 40
        E 12 b9 04 22
        E 55 b9 04 32
        E 102 99 26 6c
        E 12 b9 04 22
        E 70 b9 04 12
        E 68 b9 04 00
        E 91 89 26 40
        E 150 b9 04 12
        E 20 b9 04 22
        E 9 b9 04 32
        E 5 99 24 6f
        E 7 b9 04 43
        E 0 99 33 71
        E 24 b9 04 32
        E 17 b9 04 22
        E 152 b9 04 15
        E 41 89 24 40
        E 10 89 33 40
        E 7 b9 04 25
        E 32 b9 04 36
        E 43 b9 04 46
        E 150 b9 04 36
        E 70 b9 04 25
        E 114 b9 04 15
        E 160 b9 04 25
        E 26 99 24 50
        E 2 b9 04 36
        E 2 99 33 7f
        E 27 b9 04 46
        E 14 b9 04 4c
        E 3 99 2c 0a
        E 46 b9 04 56
        E 121 b9 04 46
        E 29 89 24 40
        E 2 89 33 40
        E 10 b9 04 36
        E 36 89 2c 40
        E 13 b9 04 25
        E 67 b9 04 15
        E 45 99 26 7f
        E 47 b9 04 03
        E 171 b9 04 15
        E 24 89 26 40
        E 2 b9 04 25
        E 23 b9 04 36
        E 77 b9 04 25
        E 72 99 33 40
        E 32 b9 04 15
        E 96 b9 04 25
        E 39 b9 04 36
        E 36 b9 04 46
        E 22 b9 04 4d
        E 2 99 2c 08
        E 15 89 33 40
        E 94 b9 04 4d
        E 51 b9 04 3c
        E 19 99 24 51
        E 21 b9 04 2c
        E 40 b9 04 1a
        E 2 89 2c 40
        E 48 b9 04 09
        E 36 b9 04 00
        E 95 89 24 40
        E 125 99 26 7f
        E 46 99 33 79
        E 17 b9 04 12
        E 17 b9 04 22
        E 10 b9 04 32
        E 10 b9 04 43
        E 4 b9 04 4c
        E 3 99 2c 1e
        E 24 b9 04 32
        E 14 b9 04 22
        E 97 89 26 40
        E 27 b9 04 1a
        E 19 89 33 40
        E 43 b9 04 2c
        E 20 89 2c 40
        E 185 b9 04 1a
        E 97 b9 04 09
        E 42 b9 04 00
        E 202 99 33 47
        E 20 b9 04 12
        E 29 b9 04 22
        E 19 b9 04 32
        E 17 b9 04 20
        E 131 b9 04 1a
        E 26 89 33 40
        E 28 b9 04 2c
        E 134 b9 04 32
        E 53 b9 04 22
        E 77 b9 04 12
        E 87 b9 04 00
        E 213 99 33 4c
        E 24 b9 04 12
        E 27 b9 04 25
        E 17 b9 04 36
        E 33 b9 04 25
        E 47 b9 04 15
        E 96 89 33 40
        E 15 b9 04 25
        E 139 b9 04 29
        E 15 99 26 7f
        E 85 b9 04 18
        E 106 b9 04 06
        E 39 b9 04 00
        E 12 89 26 40
        E 171 b9 04 12
        E 10 99 33 3b
        E 24 b9 04 22
        E 15 b9 04 32
        E 53 b9 04 22
        E 142 b9 04 1a
        E 7 89 33 40
        E 53 b9 04 2c
        E 39 b9 04 3c
        E 61 b9 04 4c
        E 2 99 2c 08
        E 2 b9 04 4c
        E 73 99 24 4b
        E 30 b9 04 3c
        E 54 b9 04 2c
        E 56 b9 04 1a
        E 27 89 2c 40
        E 39 b9 04 09
        E 36 89 24 40
        E 11 b9 04 00
        E 164 99 28 3d
        E 27 99 33 47
        E 30 b9 04 12
        E 24 b9 04 22
        E 14 b9 04 32
        E 10 b9 04 43
        E 26 b9 04 32
        E 13 b9 04 20
        E 98 89 28 40
        E 27 89 33 40
        E 24 b9 04 30
        E 114 99 24 45
        E 17 b9 04 38
        E 58 b9 04 27
        E 67 b9 04 15
        E 67 b9 04 03
        E 20 b9 04 00
        E 12 89 24 40
        E 158 99 33 59
        E 7 99 28 36
        E 6 99 26 6e
        E 64 b9 04 12
        E 26 b9 04 22
        E 10 b9 04 32
        E 24 b9 04 22
        E 22 b9 04 12
        E 74 b9 04 22
        E 8 89 33 40
        E 7 89 28 40
        E 8 89 26 40
        E 9 b9 04 32
        E 162 99 26 78
        E 9 b9 04 22
        E 49 b9 04 12
        E 55 b9 04 00
        E 129 89 26 40
        E 154 99 24 65
        E 2 b9 04 12
        E 22 b9 04 22
        E 10 b9 04 32
        E 17 99 33 51
        E 16 b9 04 20
        E 39 b9 04 0f
        E 137 89 24 40
        E 32 b9 04 20
        E 20 89 33 40
        E 5 b9 04 30
        E 29 b9 04 41
        E 26 b9 04 4c
        E 2 99 2c 08
        E 27 b9 04 51
        E 35 99 24 38
        E 74 b9 04 41
        E 45 b9 04 30
        E 37 b9 04 20
        E 24 89 2c 40
        E 24 b9 04 0f
        E 36 89 24 40
        E 13 b9 04 00
        E 143 99 26 50
        E 55 99 33 55
        E 20 b9 04 12
        E 16 b9 04 25
        E 13 b9 04 36
        E 9 b9 04 46
        E 5 b9 04 4c
        E 2 99 2c 1c
        E 27 b9 04 36
        E 38 b9 04 25
        E 56 89 26 40
        E 56 89 33 40
        E 16 b9 04 1a
        E 45 b9 04 2c
        E 4 89 2c 40
        E 26 b9 04 3c
        E 34 99 24 42
        E 51 99 33 38
        E 46 b9 04 41
        E 40 b9 04 30
        E 27 b9 04 20
        E 35 b9 04 0f
        E 33 b9 04 00
        E 13 89 24 40
        E 50 89 33 40
        E 128 99 24 47
        E 56 99 33 62
        E 5 b9 04 12
        E 9 b9 04 22
        E 12 b9 04 32
        E 17 b9 04 43
        E 5 b9 04 4c
        E 2 99 2c 1a
        E 3 b9 04 54
        E 24 b9 04 44
        E 10 b9 04 34
        E 55 b9 04 22
        E 44 89 24 40
        E 57 89 33 40
        E 49 89 2c 40
        E 9 b9 04 32
        E 39 b9 04 43
        E 29 99 24 41
        E 21 99 33 51
        E 112 b9 04 32
        E 26 b9 04 22
        E 37 b9 04 12
        E 46 b9 04 00
        E 2 89 24 40
        E 19 89 33 40
        E 157 99 26 74
        E 31 b9 04 12
        E 8 99 33 7d
        E 12 b9 04 25
        E 10 b9 04 36
        E 10 b9 04 47
        E 2 b9 04 4c
        E 2 99 2c 1a
        E 10 b9 04 57
        E 17 b9 04 47
        E 14 b9 04 36
        E 53 b9 04 25
        E 73 89 26 40
        E 16 b9 04 15
        E 25 89 33 40
        E 36 89 2c 40
        E 26 b9 04 25
        E 35 b9 04 36
        E 29 99 24 45
        E 16 99 33 47
        E 3 b9 04 46
        E 123 b9 04 36
        E 34 b9 04 25
        E 24 b9 04 15
        E 28 b9 04 03
        E 13 b9 04 00
        E 3 89 24 40
        E 17 89 33 40
        E 152 99 24 47
        E 26 99 33 60
        E 27 b9 04 12
        E 12 b9 04 25
        E 12 b9 04 36
        E 11 b9 04 47
        E 1 b9 04 4c
        E 3 99 2c 1c
        E 7 b9 04 57
        E 14 b9 04 47
        E 13 b9 04 36
        E 62 b9 04 25
        E 58 89 24 40
        E 22 89 33 40
        E 45 b9 04 20
        E 23 89 2c 40
        E 0 b9 04 30
        E 34 b9 04 41
        E 45 99 33 4f
        E 8 b9 04 4f
        E 2 99 2c 06
        E 15 99 24 4b
        E 116 b9 04 30
        E 21 b9 04 20
        E 34 b9 04 0f
        E 34 b9 04 00
        E 12 89 33 40
        E 9 89 2c 40
        E 16 89 24 40
        E 175 99 26 74
        E 3 b9 04 12
        E 12 b9 04 25
        E 13 b9 04 36
        E 5 99 33 62
        E 2 b9 04 46
        E 2 b9 04 4c
        E 3 99 2c 20
        E 4 b9 04 56
        E 68 b9 04 46
        E 29 b9 04 36
        E 43 b9 04 25
        E 61 89 26 40
        E 11 b9 04 15
        E 18 89 33 40
        E 7 89 2c 40
        E 56 b9 04 25
        E 28 b9 04 36
        E 30 99 24 47
        E 0 b9 04 46
        E 19 b9 04 4f
        E 5 99 2c 08
        E 5 99 33 49
        E 132 b9 04 36
        E 22 b9 04 25
        E 20 b9 04 15
        E 26 b9 04 03
        E 7 b9 04 00
        E 8 89 24 40
        E 24 89 2c 40
        E 4 89 33 40
        E 123 99 24 43
        E 42 99 33 5a
        E 33 b9 04 12
        E 11 b9 04 25
        E 9 b9 04 36
        E 7 b9 04 46
        E 5 b9 04 4d
        E 2 99 2c 1a
        E 5 b9 04 56
        E 32 b9 04 46
        E 45 b9 04 36
        E 42 b9 04 25
        E 12 89 24 40
        E 38 b9 04 15
        E 5 89 33 40
        E 67 89 2c 40
        E 15 b9 04 25
        E 37 b9 04 36
        E 24 99 33 4e
        E 14 99 24 4e
        E 36 b9 04 46
        E 75 b9 04 36
        E 37 b9 04 22
        E 33 b9 04 12
        E 42 b9 04 00
        E 4 89 33 40
        E 15 89 24 40
        E 145 99 26 4e
        E 32 99 33 76
        E 11 b9 04 12
        E 17 b9 04 22
        E 8 b9 04 32
        E 5 b9 04 43
        E 4 b9 04 4d
        E 3 99 2c 2a
        E 2 b9 04 54
        E 19 b9 04 44
        E 10 b9 04 34
        E 58 b9 04 20
        E 74 89 26 40
        E 13 b9 04 0f
        E 16 89 33 40
        E 52 89 2c 40
        E 19 b9 04 20
        E 22 b9 04 30
        E 19 99 24 46
        E 17 b9 04 41
        E 29 99 33 50
        E 118 b9 04 30
        E 19 b9 04 20
        E 29 b9 04 0f
        E 28 b9 04 00
        E 1 89 24 40
        E 46 89 33 40
        E 124 99 24 47
        E 51 99 33 7f
        E 4 b9 04 12
        E 10 b9 04 22
        E 7 b9 04 32
        E 8 b9 04 43
        E 7 b9 04 4c
        E 2 99 2c 1a
        E 5 b9 04 53
        E 67 b9 04 43
        E 29 b9 04 32
        E 39 b9 04 22
        E 14 89 24 40
        E 51 89 33 40
        E 36 89 2c 40
        E 49 b9 04 32
        E 29 b9 04 43
        E 29 99 24 48
        E 5 b9 04 4f
        E 2 99 2c 08
        E 3 99 33 5a
        E 140 b9 04 32
        E 19 b9 04 22
        E 29 b9 04 12
        E 36 b9 04 00
        E 7 89 24 40
        E 8 89 2c 40
        E 2 89 33 40
        E 179 99 26 76
        E 12 b9 04 12
        E 13 99 33 7f
        E 2 b9 04 22
        E 11 b9 04 32
        E 8 b9 04 43
        E 4 b9 04 4c
        E 3 99 2c 22
        E 2 b9 04 53
        E 10 b9 04 63
        E 18 b9 04 53
        E 35 b9 04 43
        E 20 b9 04 32
        E 34 b9 04 22
        E 62 b9 04 12
        E 8 89 26 40
        E 24 89 33 40
        E 28 89 2c 40
        E 44 b9 04 22
        E 17 b9 04 32
        E 12 99 24 43
        E 15 b9 04 43
        E 22 b9 04 4f
        E 4 99 2c 08
        E 10 b9 04 53
        E 7 99 33 54
        E 99 b9 04 43
        E 32 b9 04 32
        E 16 b9 04 22
        E 27 b9 04 12
        E 10 89 24 40
        E 24 b9 04 00
        E 17 89 2c 40
        E 16 89 33 40
        E 131 99 24 4e
        E 43 99 33 7f
        E 23 b9 04 12
        E 7 b9 04 25
        E 7 b9 04 36
        E 7 b9 04 46
        E 5 b9 04 4c
        E 5 99 2c 20
        E 12 b9 04 56
        E 41 b9 04 46
        E 36 b9 04 36
        E 36 b9 04 25
        E 20 89 24 40
        E 22 b9 04 15
        E 21 89 33 40
        E 56 89 2c 40
        E 33 b9 04 25
        E 24 b9 04 36
        E 32 b9 04 46
        E 8 99 33 52
        E 4 99 24 46
        E 22 b9 04 4f
        E 3 99 2c 08
        E 106 b9 04 36
        E 29 b9 04 22
        E 29 b9 04 12
        E 36 b9 04 00
        E 12 89 33 40
        E 7 89 24 40
        E 22 89 2c 40
        E 169 99 26 59
        E 25 99 33 7f
        E 2 b9 04 12
        E 7 b9 04 25
        E 9 b9 04 36
        E 12 b9 04 46
        E 5 b9 04 4c
        E 3 99 2c 18
        E 2 b9 04 56
        E 34 b9 04 46
        E 42 b9 04 36
        E 31 b9 04 25
        E 43 b9 04 15
        E 27 89 26 40
        E 24 89 33 40
        E 38 89 2c 40
        E 61 b9 04 25
        E 17 99 24 45
        E 5 b9 04 36
        E 26 b9 04 46
        E 17 b9 04 4d
        E 3 99 2c 0a
        E 16 99 33 53
        E 134 b9 04 36
        E 26 b9 04 22
        E 17 89 24 40
        E 10 b9 04 12
        E 34 b9 04 00
        E 4 89 2c 40
        E 17 89 33 40
        E 124 99 24 45
        E 74 99 33 63
        E 5 b9 04 12
        E 8 b9 04 25
        E 7 b9 04 36
        E 16 b9 04 46
        E 8 b9 04 4c
        E 2 99 2c 10
        E 5 b9 04 56
        E 65 b9 04 46
        E 20 b9 04 36
        E 34 89 24 40
        E 4 b9 04 25
        E 34 b9 04 15
        E 34 89 33 40
        E 48 89 2c 40
        E 53 b9 04 25
        E 17 b9 04 36
        E 10 99 24 3f
        E 12 b9 04 46
        E 14 b9 04 4d
        E 3 99 2c 0c
        E 22 99 33 55
        E 2 b9 04 56
        E 104 b9 04 46
        E 26 b9 04 36
        E 27 b9 04 22
        E 29 b9 04 12
        E 3 89 24 40
        E 29 89 2c 40
        E 4 b9 04 00
        E 17 89 33 40
        E 167 99 26 65
        E 29 b9 04 12
        E 2 99 33 63
        E 15 b9 04 22
        E 10 b9 04 32
        E 7 b9 04 43
        E 2 b9 04 4c
        E 2 99 2c 26
        E 3 b9 04 53
        E 27 b9 04 43
        E 51 b9 04 32
        E 33 b9 04 22
        E 61 89 26 40
        E 12 b9 04 12
        E 21 89 33 40
        E 34 89 2c 40
        E 61 b9 04 25
        E 12 99 24 48
        E 9 b9 04 36
        E 34 b9 04 46
        E 15 99 33 4d
        E 12 b9 04 4f
        E 2 99 2c 08
        E 121 b9 04 36
        E 22 b9 04 22
        E 26 b9 04 12
        E 3 89 24 40
        E 23 b9 04 00
        E 32 89 33 40
        E 15 89 2c 40
        E 84 99 24 40
        E 73 99 33 6d
        E 26 b9 04 12
        E 10 b9 04 25
        E 9 b9 04 36
        E 11 b9 04 46
        E 4 b9 04 4c
        E 3 99 2c 14
        E 9 b9 04 56
        E 17 b9 04 46
        E 15 b9 04 36
        E 53 b9 04 25
        E 15 89 24 40
        E 43 b9 04 15
        E 29 89 33 40
        E 63 89 2c 40
        E 34 b9 04 25
        E 26 99 24 44
        E 7 b9 04 36
        E 26 99 33 5b
        E 18 b9 04 46
        E 106 b9 04 36
        E 31 b9 04 22
        E 31 b9 04 12
        E 25 89 24 40
        E 15 b9 04 00
        E 16 89 33 40
        E 179 99 26 5d
        E 17 b9 04 12
        E 8 99 33 65
        E 7 b9 04 22
        E 12 b9 04 32
        E 9 b9 04 43
        E 3 b9 04 4c
        E 2 99 2c 22
        E 2 b9 04 53
        E 25 b9 04 43
        E 51 b9 04 32
        E 50 b9 04 22
        E 56 89 26 40
        E 24 89 33 40
        E 36 89 2c 40
        E 17 b9 04 1a
        E 34 b9 04 2c
        E 7 99 24 43
        E 19 b9 04 3c
        E 39 99 33 4b
        E 2 b9 04 4c
        E 13 b9 04 4f
        E 2 99 2c 08
        E 97 b9 04 3c
        E 28 b9 04 2c
        E 25 b9 04 1a
        E 17 89 24 40
        E 7 b9 04 09
        E 14 b9 04 00
        E 40 89 33 40
        E 13 89 2c 40
        E 100 99 24 4a
        E 68 99 33 63
        E 4 b9 04 12
        E 10 b9 04 25
        E 10 b9 04 36
        E 14 b9 04 46
        E 8 b9 04 4c
        E 0 99 2c 14
        E 9 b9 04 56
        E 15 b9 04 46
        E 45 b9 04 36
        E 39 b9 04 25
        E 19 89 24 40
        E 34 b9 04 15
        E 37 89 33 40
        E 46 89 2c 40
        E 36 b9 04 25
        E 24 b9 04 36
        E 19 99 24 42
        E 10 b9 04 46
        E 17 b9 04 4f
        E 2 99 2c 0a
        E 5 99 33 55
        E 140 b9 04 36
        E 27 b9 04 25
        E 26 b9 04 15
        E 17 89 24 40
        E 15 b9 04 03
        E 10 b9 04 00
        E 1 89 2c 40
        E 11 89 33 40
        E 166 99 26 70
        E 29 99 33 5f
        E 1 b9 04 12
        E 16 b9 04 22
        E 8 b9 04 32
        E 7 b9 04 43
        E 4 b9 04 4d
        E 2 99 2c 2c
        E 3 b9 04 53
        E 22 b9 04 43
        E 10 b9 04 32
        E 58 b9 04 22
        E 82 b9 04 12
        E 2 89 26 40
        E 27 89 33 40
        E 38 89 2c 40
        E 39 b9 04 22
        E 17 99 24 47
        E 7 b9 04 32
        E 29 b9 04 43
        E 34 99 33 51
        E 116 b9 04 32
        E 19 b9 04 22
        E 27 b9 04 12
        E 13 89 24 40
        E 19 b9 04 00
        E 50 89 33 40
        E 99 99 24 46
        E 73 99 33 67
        E 4 b9 04 12
        E 9 b9 04 22
        E 5 b9 04 32
        E 11 b9 04 43
        E 7 b9 04 4c
        E 0 99 2c 1a
        E 8 b9 04 53
        E 38 b9 04 43
        E 48 b9 04 32
        E 39 89 24 40
        E 2 b9 04 22
        E 66 b9 04 12
        E 4 89 33 40
        E 39 89 2c 40
        E 24 b9 04 22
        E 22 b9 04 32
        E 21 b9 04 43
        E 15 99 24 41
        E 5 b9 04 4f
        E 2 99 2c 0a
        E 7 b9 04 53
        E 3 99 33 4f
        E 142 b9 04 43
        E 25 b9 04 32
        E 16 b9 04 22
        E 30 b9 04 12
        E 14 89 24 40
        E 9 89 2c 40
        E 10 89 33 40
        E 0 b9 04 00
        E 196 99 26 63
        E 7 b9 04 12
        E 2 99 33 5e
        E 11 b9 04 22
        E 7 b9 04 32
        E 5 b9 04 44
        E 4 b9 04 4c
        E 3 99 2c 2a
        E 2 b9 04 55
        E 10 b9 04 65
        E 21 b9 04 55
        E 42 b9 04 44
        E 24 b9 04 34
        E 41 b9 04 22
        E 62 89 26 40
        E 10 89 33 40
        E 29 89 2c 40
        E 28 b9 04 18
        E 35 b9 04 29
        E 17 99 24 49
        E 5 b9 04 3a
        E 26 b9 04 4a
        E 10 b9 04 4f
        E 3 99 2c 0a
        E 21 99 33 48
        E 116 b9 04 3a
        E 24 b9 04 29
        E 20 b9 04 18
        E 16 89 24 40
        E 11 b9 04 06
        E 14 b9 04 00
        E 19 89 2c 40
        E 22 89 33 40
        E 116 99 24 4a
        E 46 99 33 6d
        E 14 b9 04 12
        E 12 b9 04 25
        E 10 b9 04 36
        E 10 b9 04 46
        E 4 b9 04 4c
        E 3 99 2c 1a
        E 4 b9 04 56
        E 34 b9 04 46
        E 49 b9 04 36
        E 51 b9 04 25
        E 4 89 24 40
        E 46 b9 04 15
        E 2 89 33 40
        E 51 89 2c 40
        E 25 b9 04 25
        E 26 b9 04 36
        E 29 b9 04 46
        E 17 99 24 48
        E 5 b9 04 4f
        E 2 99 2c 0a
        E 12 99 33 53
        E 116 b9 04 36
        E 24 b9 04 25
        E 25 b9 04 15
        E 31 b9 04 03
        E 7 b9 04 00
        E 19 89 24 40
        E 8 89 2c 40
        E 15 89 33 40
        E 188 99 26 50
        E 10 b9 04 12
        E 7 b9 04 22
        E 5 99 33 6a
        E 2 b9 04 32
        E 7 b9 04 43
        E 10 b9 04 4c
        E 2 99 2c 1a
        E 7 b9 04 53
        E 13 b9 04 63
        E 29 b9 04 53
        E 36 b9 04 43
        E 29 b9 04 32
        E 29 b9 04 22
        E 46 b9 04 12
        E 12 89 26 40
        E 21 89 33 40
        E 20 89 2c 40
        E 63 b9 04 22
        E 19 99 24 48
        E 3 b9 04 32
        E 22 b9 04 43
        E 26 99 33 48
        E 5 b9 04 4d
        E 2 99 2c 08
        E 118 b9 04 32
        E 17 b9 04 22
        E 25 b9 04 12
        E 24 89 24 40
        E 5 b9 04 00
        E 45 89 33 40
        E 8 89 2c 40
        E 128 99 24 49
        E 21 99 33 65
        E 25 b9 04 12
        E 7 b9 04 25
        E 7 b9 04 36
        E 10 b9 04 46
        E 5 b9 04 4c
        E 2 99 2c 1c
        E 10 b9 04 56
        E 34 b9 04 46
        E 46 b9 04 36
        E 47 b9 04 25
        E 27 89 24 40
        E 22 89 33 40
        E 5 b9 04 15
        E 51 89 2c 40
        E 33 b9 04 25
        E 27 b9 04 36
        E 27 b9 04 46
        E 18 99 33 4f
        E 4 b9 04 4f
        E 2 99 2c 08
        E 9 99 24 43
        E 22 b9 04 56
        E 83 b9 04 46
        E 33 b9 04 36
        E 26 b9 04 22
        E 30 b9 04 12
        E 31 b9 04 00
        E 5 89 33 40
        E 3 89 2c 40
        E 8 89 24 40
        E 136 99 26 62
        E 32 99 33 77
        E 26 b9 04 12
        E 13 b9 04 25
        E 9 b9 04 36
        E 9 b9 04 46
        E 3 b9 04 4c
        E 3 99 2c 1e
        E 2 b9 04 56
        E 34 b9 04 46
        E 43 b9 04 36
        E 35 b9 04 25
        E 36 89 26 40
        E 13 b9 04 15
        E 18 89 33 40
        E 60 89 2c 40
        E 39 b9 04 25
        E 29 99 24 45
        E 2 b9 04 36
        E 12 99 33 4c
        E 19 b9 04 46
        E 124 b9 04 36
        E 24 b9 04 25
        E 20 b9 04 15
        E 31 b9 04 03
        E 4 b9 04 00
        E 6 89 24 40
        E 14 89 33 40
        E 147 99 24 43
        E 32 99 33 5c
        E 24 b9 04 12
        E 10 b9 04 22
        E 5 b9 04 32
        E 7 b9 04 43
        E 11 b9 04 4c
        E 3 99 2c 1c
        E 7 b9 04 53
        E 63 b9 04 43
        E 36 b9 04 32
        E 39 b9 04 22
        E 5 89 24 40
        E 34 89 33 40
        E 58 89 2c 40
        E 41 b9 04 32
        E 32 b9 04 43
        E 18 99 33 4d
        E 27 99 24 47
        E 5 b9 04 4f
        E 3 99 2c 06
        E 104 b9 04 32
        E 19 b9 04 22
        E 24 b9 04 12
        E 31 b9 04 00
        E 29 89 33 40
        E 26 89 24 40
        E 10 89 2c 40
        E 162 b9 04 12
        E 3 99 26 76
        E 7 b9 04 25
        E 9 99 33 67
        E 3 b9 04 36
        E 7 b9 04 46
        E 5 b9 04 4c
        E 3 99 2c 1a
        E 4 b9 04 56
        E 12 b9 04 66
        E 22 b9 04 56
        E 49 b9 04 46
        E 40 b9 04 36
        E 42 b9 04 25
        E 41 89 26 40
        E 17 89 33 40
        E 14 89 2c 40
        E 51 b9 04 1a
        E 34 99 24 40
        E 2 b9 04 2c
        E 22 b9 04 3c
        E 24 b9 04 4c
        E 5 b9 04 4f
        E 2 99 2c 0c
        E 22 99 33 37
        E 123 b9 04 3c
        E 27 b9 04 2c
        E 14 89 24 40
        E 10 b9 04 1a
        E 29 b9 04 09
        E 17 b9 04 00
        E 2 89 2c 40
        E 19 89 33 40
        E 73 99 24 32
        E 102 b9 04 12
        E 14 99 33 45
        E 0 b9 04 22
        E 9 b9 04 32
        E 8 b9 04 43
        E 5 b9 04 4d
        E 2 99 2c 1c
        E 3 b9 04 53
        E 26 b9 04 63
        E 72 b9 04 53
        E 3 89 24 40
        E 29 b9 04 43
        E 39 b9 04 32
        E 46 b9 04 22
        E 2 89 33 40
        E 27 89 2c 40
        E 67 99 33 45
        E 8 b9 04 32
        E 31 b9 04 43
        E 26 b9 04 4f
        E 3 99 2c 0a
        E 9 b9 04 53
        E 165 89 33 40
        E 31 b9 04 43
        E 36 89 2c 40
        E 12 b9 04 32
        E 42 b9 04 22
        E 17 99 26 7a
        E 29 99 33 58
        E 97 b9 04 18
        E 67 b9 04 29
        E 21 b9 04 3a
        E 27 89 26 40
        E 29 89 33 40
        E 135 99 33 40
        E 58 b9 04 43
        E 61 b9 04 32
        E 36 b9 04 22
        E 41 b9 04 12
        E 46 89 33 40
        E 5 b9 04 00
        E 118 99 24 2f
        E 43 b9 04 12
        E 15 99 33 59
        E 4 b9 04 22
        E 8 b9 04 32
        E 13 b9 04 43
        E 31 b9 04 32
        E 126 b9 04 25
        E 1 89 24 40
        E 63 89 33 40
        E 37 b9 04 36
        E 36 b9 04 46
        E 17 b9 04 4c
        E 2 99 2c 08
        E 56 99 33 43
        E 7 99 24 3c
        E 107 b9 04 36
        E 40 b9 04 25
        E 32 b9 04 15
        E 3 89 2c 40
        E 40 b9 04 03
        E 8 b9 04 00
        E 7 89 33 40
        E 7 89 24 40
        E 157 99 26 71
        E 33 99 33 5d
        E 3 b9 04 12
        E 12 b9 04 22
        E 8 b9 04 32
        E 9 b9 04 43
        E 3 b9 04 4c
        E 2 99 2c 1e
        E 8 b9 04 53
        E 12 b9 04 43
        E 11 b9 04 32
        E 52 b9 04 20
        E 89 89 26 40
        E 33 89 33 40
        E 20 b9 04 1a
        E 19 89 2c 40
        E 25 b9 04 2c
        E 57 99 33 3d
        E 78 b9 04 34
        E 48 b9 04 20
        E 43 b9 04 0f
        E 34 b9 04 00
        E 39 89 33 40
        E 118 99 24 35
        E 54 99 33 4f
        E 2 b9 04 12
        E 15 b9 04 25
        E 9 b9 04 36
        E 10 b9 04 47
        E 3 b9 04 4c
        E 2 99 2c 1e
        E 67 b9 04 36
        E 63 b9 04 25
        E 17 89 24 40
        E 59 89 33 40
        E 36 89 2c 40
        E 43 b9 04 36
        E 38 b9 04 46
        E 15 99 33 38
        E 4 99 24 3a
        E 13 b9 04 4f
        E 2 99 2c 06
        E 136 b9 04 36
        E 31 b9 04 22
        E 36 b9 04 12
        E 22 89 33 40
        E 4 89 24 40
        E 16 89 2c 40
        E 6 b9 04 00
        E 141 99 26 46
        E 11 99 33 56
        E 49 b9 04 12
        E 17 b9 04 22
        E 9 b9 04 32
        E 8 b9 04 44
        E 5 b9 04 4c
        E 0 99 2c 24
        E 24 b9 04 34
        E 12 b9 04 22
        E 57 b9 04 12
        E 51 89 26 40
        E 13 89 33 40
        E 85 b9 04 22
        E 2 89 2c 40
        E 46 99 33 3b
        E 79 b9 04 29
        E 37 b9 04 18
        E 33 b9 04 06
        E 15 b9 04 00
        E 79 89 33 40
        E 120 99 24 3f
        E 33 b9 04 12
        E 10 99 33 4e
        E 9 b9 04 22
        E 10 b9 04 32
        E 33 b9 04 20
        E 131 b9 04 12
        E 17 89 24 40
        E 43 89 33 40
        E 61 b9 04 22
        E 26 b9 04 32
        E 32 b9 04 43
        E 16 99 33 39
        E 13 b9 04 4c
        E 2 99 2c 08
        E 119 b9 04 32
        E 22 b9 04 22
        E 28 b9 04 12
        E 39 b9 04 00
        E 19 89 33 40
        E 15 89 2c 40
        E 186 99 26 52
        E 9 99 33 5d
        E 12 b9 04 12
        E 17 b9 04 22
        E 8 b9 04 32
        E 10 b9 04 43
        E 2 b9 04 4c
        E 2 99 2c 24
        E 3 b9 04 53
        E 19 b9 04 43
        E 10 b9 04 32
        E 53 b9 04 22
        E 83 b9 04 12
        E 13 89 26 40
        E 10 89 33 40
        E 51 89 2c 40
        E 31 b9 04 22
        E 27 b9 04 32
        E 35 b9 04 43
        E 18 99 33 3b
        E 167 b9 04 32
        E 41 b9 04 22
        E 34 89 33 40
        E 38 b9 04 12
        E 168 99 33 41
        E 28 b9 04 25
        E 22 b9 04 36
        E 24 b9 04 46
        E 15 b9 04 4d
        E 2 99 2c 0a
        E 77 b9 04 36
        E 55 b9 04 25
        E 18 89 33 40
        E 91 99 33 35
        E 3 89 2c 40
        E 19 b9 04 1d
        E 133 b9 04 2e
        E 89 89 33 40
        E 126 99 26 3e
        E 24 b9 04 20
        E 15 99 33 4f
        E 202 89 26 40
        E 42 89 33 40
        E 2 b9 04 25
        E 128 99 33 2c
        E 187 b9 04 30
        E 55 89 33 40
        E 217 99 33 3f
        E 244 89 33 40
        E 19 b9 04 36
        E 104 99 33 29
        E 244 89 33 40
        E 228 99 33 3b
        E 241 89 33 40
        E 165 99 33 30
        E 241 89 33 40
        E 189 99 33 2b
        E 241 89 33 40
        E 169 99 33 32
        E 242 89 33 40
        E 130 99 33 28
        E 158 b9 04 2c
        E 84 89 33 40
        E 152 b9 04 20
        E 63 99 33 3d
        E 128 b9 04 18
        E 116 89 33 40
        E 152 99 33 21
        E 227 b9 04 12
        E 17 89 33 40
        E 225 99 33 40
        E 87 b9 04 09
        E 154 89 33 40
        E 191 99 33 1a
        E 241 89 33 40
        E 201 99 33 38
        E 241 89 33 40
        E 175 99 33 17
        E 241 89 33 40
        E 254 99 33 17
        E 242 89 33 40
        E 176 99 33 15
        E 242 89 33 40
        E 241 99 33 1e
        E 242 89 33 40
        E 198 99 33 14
        E 242 89 33 40
        E 183 99 33 2c
        E 242 89 33 40
        E 193 99 33 0f
        E 242 89 33 40
        E 203 99 33 34
        E 241 89 33 40
        E 184 99 33 15
        E 241 89 33 40
        E 220 99 33 3d
        E 242 89 33 40
        E 179 99 33 12
        E 241 89 33 40
        E 193 99 33 34
        E 242 89 33 40
        E 162 99 33 0d
        E 242 89 33 40
        E 244 99 33 34
        E 241 89 33 40
        E 177 99 33 17
        E 241 89 33 40
        E 232 99 33 38
        E 241 89 33 40
        E 204 99 33 07
        E 241 89 33 40
        E 225 99 33 38
        E 242 89 33 40
        E 691 99 33 41
        E 241 89 33 40
        E 169 99 33 19
        E 160 b9 04 0f
        E 82 89 33 40
        E 222 99 33 40
        E 242 89 33 40
        E 195 99 33 16
        E 242 89 33 40
        E 213 99 33 42
        E 241 89 33 40
        E 189 99 33 19
        E 244 89 33 40
        E 210 99 33 46
        E 242 89 33 40
        E 177 99 33 21
        E 243 89 33 40
        E 249 99 33 42
        E 241 89 33 40
        E 167 99 33 21
        E 34 b9 04 18
        E 210 89 33 40
        E 232 99 33 42
        E 186 b9 04 25
        E 56 89 33 40
        E 149 b9 04 2e
        E 39 99 33 1c
        E 242 89 33 40
        E 282 99 33 49
        E 242 89 33 40
        E 188 b9 04 32
        E 15 99 33 1f
        E 222 b9 04 27
        E 19 89 33 40
        E 133 b9 04 20
        E 95 99 33 47
        E 241 89 33 40
        E 184 99 33 23
        E 242 89 33 40
        E 258 99 24 66
        E 53 99 33 60
        E 191 89 24 40
        E 51 89 33 40
        E 570 99 33 6d
        E 242 89 33 40
        E 51 b9 04 1a
        E 204 99 26 5b
        E 32 b9 04 12
        E 212 89 26 40
        E 47 b9 04 09
        E 362 b9 04 00
        E 16480 99 26 22
        E 127 89 26 40
        E 3 99 26 4d
        E 239 89 26 40
        E 510 99 24 7b
        E 19 99 33 54
        E 223 89 24 40
        E 21 89 33 40
        E 497 99 24 46
        E 42 99 33 56
        E 202 89 24 40
        E 42 89 33 40
        E 212 99 26 72
        E 244 89 26 40
        E 205 99 33 38
        E 244 89 33 40
        E 564 99 24 7f
        E 29 99 33 43
        E 215 89 24 40
        E 26 89 33 40
        E 534 99 33 39
        E 244 89 33 40
        E 211 99 26 65
        E 244 89 26 40
        E 195 99 33 32
        E 242 89 33 40
        E 548 99 24 79
        E 22 99 33 38
        E 220 89 24 40
        E 22 89 33 40
        E 485 99 26 79
        E 32 99 33 4c
        E 210 89 26 40
        E 33 89 33 40
        E 581 99 24 7b
        E 33 99 33 3f
        E 208 89 24 40
        E 34 89 33 40
        E 434 99 24 54
        E 73 99 33 38
        E 172 89 24 40
        E 69 89 33 40
        E 198 99 28 63
        E 242 89 28 40
        E 160 99 33 35
        E 242 89 33 40
        E 533 99 24 7f
        E 37 99 33 3e
        E 205 89 24 40
        E 36 89 33 40
        E 560 99 33 26
        E 242 89 33 40
        E 213 99 26 76
        E 242 89 26 40
        E 193 99 33 32
        E 244 89 33 40
        E 519 99 24 7b
        E 53 99 33 41
        E 189 89 24 40
        E 56 89 33 40
        E 493 99 28 53
        E 45 99 33 48
        E 196 89 28 40
        E 48 89 33 40
        E 549 99 24 66
        E 19 99 33 39
        E 222 89 24 40
        E 19 89 33 40
        E 501 99 24 57
        E 43 99 33 3f
        E 198 89 24 40
        E 44 89 33 40
        E 210 99 26 78
        E 242 89 26 40
        E 168 99 33 32
        E 242 89 33 40
        E 614 99 24 7d
        E 41 99 33 4c
        E 201 89 24 40
        E 40 89 33 40
        E 547 99 33 3f
        E 241 89 33 40
        E 203 99 26 68
        E 244 89 26 40
        E 179 99 33 31
        E 242 89 33 40
        E 548 99 24 7f
        E 36 99 33 41
        E 206 89 24 40
        E 38 89 33 40
        E 522 99 28 7e
        E 65 99 33 7f
        E 177 89 28 40
        E 65 89 33 40
        E 505 99 24 74
        E 72 99 33 42
        E 170 89 24 40
        E 74 89 33 40
        E 517 99 24 5d
        E 41 99 33 47
        E 201 89 24 40
        E 43 89 33 40
        E 198 99 28 39
        E 8 99 26 7c
        E 237 89 28 40
        E 7 89 26 40
        E 137 99 33 41
        E 245 89 33 40
        E 698 99 24 7f
        E 36 99 33 7f
        E 206 89 24 40
        E 36 89 33 40
        E 613 99 33 44
        E 241 89 33 40
        E 221 99 26 7f
        E 242 89 26 40
        E 193 99 33 51
        E 241 89 33 40
        E 555 99 24 7f
        E 71 99 33 7f
        E 173 89 24 40
        E 71 89 33 40
        E 498 99 28 62
        E 53 99 33 7f
        E 188 89 28 40
        E 53 89 33 40
        E 554 99 24 7a
        E 53 99 33 7f
        E 188 89 24 40
        E 54 89 33 40
        E 519 99 24 64
        E 57 99 33 57
        E 184 89 24 40
        E 58 89 33 40
        E 186 99 28 56
        E 242 89 28 40
        E 128 99 33 65
        E 244 89 33 40
        E 638 99 24 7f
        E 36 99 33 7f
        E 206 89 24 40
        E 36 89 33 40
        E 596 99 33 7f
        E 242 89 33 40
        E 191 99 28 68
        E 242 89 28 40
        E 203 99 33 5d
        E 241 89 33 40
        E 476 99 24 7f
        E 70 99 33 7f
        E 174 89 24 40
        E 70 89 33 40
        E 508 99 28 5d
        E 45 99 3b 7f
        E 196 89 28 40
        E 49 89 3b 40
        E 534 99 24 7a
        E 43 99 33 6d
        E 197 89 24 40
        E 44 89 33 40
        E 534 99 24 5c
        E 32 99 33 7f
        E 210 89 24 40
        E 32 89 33 40
        E 166 99 30 1e
        E 41 99 28 45
        E 203 89 30 40
        E 39 89 28 40
        E 146 99 33 3f
        E 243 89 33 40
        E 495 99 24 7f
        E 48 99 33 7f
        E 194 89 24 40
        E 48 89 33 40
        E 580 99 33 7f
        E 242 89 33 40
        E 206 99 28 63
        E 243 89 28 40
        E 172 99 33 3c
        E 241 89 33 40
        E 500 99 24 7e
        E 48 99 33 7f
        E 196 89 24 40
        E 46 89 33 40
        E 586 99 28 51
        E 15 99 33 7f
        E 230 89 28 40
        E 12 89 33 40
        E 575 99 24 7f
        E 34 99 33 7f
        E 210 89 24 40
        E 34 89 33 40
        E 507 99 24 5c
        E 78 99 33 7f
        E 164 89 24 40
        E 79 89 33 40
        E 174 99 26 7f
        E 242 89 26 40
        E 189 99 33 35
        E 241 89 33 40
        E 499 99 24 7f
        E 59 99 33 48
        E 184 89 24 40
        E 58 89 33 40
        E 508 99 33 46
        E 243 89 33 40
        E 193 99 28 60
        E 242 89 28 40
        E 140 99 33 4c
        E 242 89 33 40
        E 152 99 24 30
        E 242 89 24 40
        E 191 99 26 6f
        E 104 99 28 6f
        E 140 89 26 40
        E 101 89 28 40
        E 58 99 24 46
        E 242 89 24 40
        E 169 99 26 61
        E 104 89 26 40
        E 2 99 26 7d
        E 242 89 26 40
        E 490 99 24 6f
        E 19 b9 04 12
        E 10 b9 04 22
        E 7 b9 04 32
        E 14 b9 04 43
        E 47 99 33 7f
        E 140 b9 04 32
        E 10 89 24 40
        E 91 89 33 40
        E 82 b9 04 38
        E 29 99 24 48
        E 24 99 33 3b
        E 13 b9 04 27
        E 43 b9 04 15
        E 41 b9 04 03
        E 8 b9 04 00
        E 113 89 24 40
        E 24 89 33 40
        E 143 b9 04 12
        E 17 b9 04 22
        E 6 99 26 7f
        E 6 b9 04 32
        E 9 b9 04 43
        E 5 b9 04 4d
        E 3 99 2c 1a
        E 2 b9 04 54
        E 15 b9 04 64
        E 17 99 33 75
        E 23 b9 04 54
        E 28 b9 04 44
        E 18 b9 04 34
        E 25 b9 04 22
        E 36 b9 04 12
        E 56 89 26 40
        E 24 89 2c 40
        E 31 89 33 40
        E 34 b9 04 22
        E 22 b9 04 32
        E 65 99 24 58
        E 12 99 33 26
        E 77 b9 04 22
        E 29 b9 04 12
        E 37 b9 04 00
        E 86 89 24 40
        E 13 89 33 40
        E 116 99 24 36
        E 48 b9 04 12
        E 12 b9 04 22
        E 9 99 33 5f
        E 5 b9 04 32
        E 13 b9 04 44
        E 4 b9 04 4c
        E 3 99 2c 24
        E 2 b9 04 55
        E 19 b9 04 44
        E 8 b9 04 34
        E 33 b9 04 22
        E 46 b9 04 12
        E 39 89 24 40
        E 73 89 33 40
        E 16 b9 04 25
        E 8 89 2c 40
        E 14 b9 04 36
        E 27 b9 04 46
        E 82 99 24 4a
        E 7 99 33 26
        E 34 b9 04 36
        E 39 b9 04 25
        E 29 b9 04 15
        E 38 b9 04 03
        E 13 b9 04 00
        E 81 89 24 40
        E 8 89 33 40
        E 178 b9 04 12
        E 3 99 26 7f
        E 7 b9 04 25
        E 9 b9 04 36
        E 23 b9 04 46
        E 4 b9 04 4c
        E 3 99 2c 14
        E 2 99 33 7f
        E 3 b9 04 56
        E 7 b9 04 66
        E 17 b9 04 56
        E 10 b9 04 46
        E 39 b9 04 36
        E 21 b9 04 25
        E 43 b9 04 15
        E 56 89 26 40
        E 44 89 2c 40
        E 4 89 33 40
        E 46 b9 04 25
        E 22 b9 04 36
        E 31 b9 04 46
        E 8 99 24 4b
        E 58 99 33 23
        E 58 b9 04 36
        E 33 b9 04 25
        E 29 b9 04 15
        E 34 b9 04 03
        E 12 b9 04 00
        E 17 89 24 40
        E 61 89 33 40
        E 108 99 24 3d
        E 51 b9 04 12
        E 15 b9 04 25
        E 24 b9 04 36
        E 9 99 33 56
        E 3 b9 04 46
        E 2 b9 04 4c
        E 3 99 2c 20
        E 2 b9 04 56
        E 26 b9 04 46
        E 42 b9 04 36
        E 24 b9 04 25
        E 39 b9 04 15
        E 1 89 24 40
        E 102 89 33 40
        E 8 89 2c 40
        E 19 b9 04 25
        E 24 b9 04 36
        E 24 b9 04 46
        E 32 b9 04 4f
        E 2 99 2c 0a
        E 7 99 24 45
        E 54 99 33 2d
        E 34 b9 04 36
        E 28 b9 04 25
        E 27 b9 04 15
        E 31 b9 04 03
        E 10 b9 04 00
        E 51 89 2c 40
        E 7 89 24 40
        E 53 89 33 40
        E 162 b9 04 12
        E 7 99 26 7f
        E 5 b9 04 25
        E 7 b9 04 36
        E 22 b9 04 46
        E 5 b9 04 4c
        E 2 99 2c 12
        E 5 b9 04 56
        E 9 b9 04 66
        E 13 99 33 7f
        E 5 b9 04 55
        E 9 b9 04 44
        E 39 b9 04 34
        E 26 b9 04 22
        E 44 b9 04 12
        E 53 89 26 40
        E 42 89 2c 40
        E 26 89 33 40
        E 36 b9 04 22
        E 15 b9 04 32
        E 12 99 24 4a
        E 14 b9 04 43
        E 37 b9 04 4d
        E 2 99 2c 06
        E 41 99 33 2f
        E 63 b9 04 32
        E 24 b9 04 22
        E 31 b9 04 12
        E 29 89 24 40
        E 10 b9 04 00
        E 43 89 2c 40
        E 41 89 33 40
        E 104 99 24 41
        E 57 b9 04 12
        E 10 b9 04 25
        E 20 b9 04 36
        E 5 99 33 72
        E 7 b9 04 46
        E 3 b9 04 4c
        E 2 99 2c 1e
        E 3 b9 04 56
        E 31 b9 04 46
        E 36 b9 04 36
        E 22 b9 04 25
        E 27 b9 04 15
        E 19 89 24 40
        E 92 89 33 40
        E 14 89 2c 40
        E 12 b9 04 25
        E 20 b9 04 36
        E 26 b9 04 46
        E 22 b9 04 4f
        E 3 99 2c 0c
        E 9 99 24 43
        E 37 99 33 2d
        E 69 b9 04 36
        E 27 b9 04 25
        E 24 b9 04 15
        E 29 b9 04 03
        E 10 b9 04 00
        E 39 89 2c 40
        E 7 89 24 40
        E 36 89 33 40
        E 157 99 26 7f
        E 5 b9 04 12
        E 10 b9 04 22
        E 9 b9 04 32
        E 17 b9 04 43
        E 5 b9 04 4c
        E 2 99 2c 16
        E 5 b9 04 53
        E 2 99 33 7f
        E 8 b9 04 64
        E 27 b9 04 54
        E 33 b9 04 44
        E 20 b9 04 34
        E 24 b9 04 20
        E 46 b9 04 0f
        E 29 89 26 40
        E 50 89 2c 40
        E 5 89 33 40
        E 58 b9 04 20
        E 12 b9 04 30
        E 8 99 24 46
        E 19 b9 04 41
        E 36 b9 04 4d
        E 3 99 2c 08
        E 4 99 33 39
        E 87 b9 04 30
        E 20 b9 04 20
        E 26 b9 04 0f
        E 24 b9 04 00
        E 22 89 24 40
        E 60 89 2c 40
        E 3 89 33 40
        E 130 99 24 4a
        E 37 b9 04 12
        E 9 b9 04 25
        E 10 b9 04 36
        E 17 b9 04 46
        E 7 99 33 73
        E 3 b9 04 4c
        E 2 99 2c 12
        E 5 b9 04 56
        E 18 b9 04 46
        E 32 b9 04 36
        E 30 b9 04 25
        E 31 b9 04 15
        E 41 89 24 40
        E 82 89 33 40
        E 3 89 2c 40
        E 5 b9 04 25
        E 19 b9 04 36
        E 24 b9 04 46
        E 24 b9 04 4f
        E 2 99 2c 0a
        E 29 99 24 42
        E 41 99 33 44
        E 46 b9 04 36
        E 32 b9 04 25
        E 24 b9 04 15
        E 31 b9 04 03
        E 9 b9 04 00
        E 32 89 2c 40
        E 29 89 24 40
        E 44 89 33 40
        E 138 b9 04 12
        E 9 b9 04 22
        E 5 b9 04 32
        E 7 b9 04 43
        E 13 99 26 7f
        E 2 b9 04 4c
        E 2 99 2c 1a
        E 8 b9 04 53
        E 12 b9 04 64
        E 19 99 33 7e
        E 10 b9 04 54
        E 36 b9 04 44
        E 19 b9 04 34
        E 29 b9 04 20
        E 44 b9 04 0f
        E 60 89 26 40
        E 4 89 2c 40
        E 40 89 33 40
        E 45 b9 04 20
        E 15 b9 04 30
        E 19 b9 04 41
        E 12 99 24 4a
        E 22 b9 04 4d
        E 2 99 2c 0c
        E 42 99 33 33
        E 72 b9 04 30
        E 22 b9 04 20
        E 26 b9 04 0f
        E 22 b9 04 00
        E 34 89 24 40
        E 26 89 2c 40
        E 39 89 33 40
        E 119 99 24 41
        E 36 b9 04 12
        E 7 b9 04 27
        E 7 b9 04 38
        E 15 b9 04 49
        E 7 b9 04 4c
        E 3 99 2c 1e
        E 4 99 33 64
        E 5 b9 04 5a
        E 56 b9 04 4a
        E 22 b9 04 3a
        E 26 b9 04 29
        E 29 b9 04 18
        E 24 89 24 40
        E 29 b9 04 06
        E 46 89 2c 40
        E 4 89 33 40
        E 40 b9 04 18
        E 16 b9 04 29
        E 22 b9 04 3a
        E 29 b9 04 4a
        E 8 b9 04 4d
        E 2 99 2c 0c
        E 19 99 24 45
        E 22 99 33 37
        E 65 b9 04 3a
        E 32 b9 04 29
        E 24 b9 04 18
        E 26 b9 04 06
        E 15 b9 04 00
        E 38 89 2c 40
        E 20 89 24 40
        E 22 89 33 40
        E 166 b9 04 12
        E 8 b9 04 22
        E 4 b9 04 34
        E 10 b9 04 44
        E 10 99 26 7f
        E 7 b9 04 4c
        E 2 99 2c 1c
        E 5 b9 04 54
        E 7 99 33 77
        E 3 b9 04 64
        E 26 b9 04 54
        E 37 b9 04 44
        E 19 b9 04 34
        E 29 b9 04 20
        E 41 b9 04 0f
        E 65 89 26 40
        E 10 89 2c 40
        E 11 89 33 40
        E 57 b9 04 20
        E 14 b9 04 30
        E 19 b9 04 41
        E 5 99 24 49
        E 25 b9 04 4d
        E 2 99 2c 0a
        E 53 99 33 3f
        E 65 b9 04 30
        E 17 b9 04 20
        E 29 b9 04 0f
        E 27 b9 04 00
        E 26 89 24 40
        E 25 89 2c 40
        E 52 89 33 40
        E 83 99 24 3e
        E 58 b9 04 12
        E 9 b9 04 25
        E 7 b9 04 36
        E 15 b9 04 46
        E 10 b9 04 4c
        E 2 99 2c 14
        E 2 99 33 78
        E 3 b9 04 56
        E 53 b9 04 46
        E 24 b9 04 36
        E 29 b9 04 25
        E 29 b9 04 15
        E 2 89 24 40
        E 102 89 2c 40
        E 5 89 33 40
        E 39 b9 04 25
        E 16 b9 04 36
        E 24 b9 04 46
        E 15 b9 04 4d
        E 3 99 2c 0a
        E 19 99 24 46
        E 48 99 33 41
        E 49 b9 04 36
        E 26 b9 04 22
        E 24 b9 04 12
        E 34 b9 04 00
        E 41 89 2c 40
        E 19 89 24 40
        E 49 89 33 40
        E 157 b9 04 12
        E 7 b9 04 22
        E 5 b9 04 32
        E 5 99 26 7f
        E 2 b9 04 43
        E 5 b9 04 4c
        E 2 99 2c 28
        E 20 b9 04 53
        E 11 b9 04 64
        E 11 99 33 7f
        E 26 b9 04 54
        E 37 b9 04 44
        E 24 b9 04 34
        E 23 b9 04 22
        E 37 b9 04 12
        E 46 89 26 40
        E 7 89 2c 40
        E 44 89 33 40
        E 55 b9 04 22
        E 12 b9 04 32
        E 7 99 24 47
        E 10 b9 04 43
        E 27 b9 04 4d
        E 2 99 2c 10
        E 11 b9 04 53
        E 27 99 33 3d
        E 59 b9 04 43
        E 26 b9 04 32
        E 20 b9 04 22
        E 23 b9 04 12
        E 27 b9 04 00
        E 10 89 24 40
        E 38 89 2c 40
        E 42 89 33 40
        E 140 99 24 45
        E 31 b9 04 12
        E 8 b9 04 25
        E 4 b9 04 36
        E 10 b9 04 46
        E 22 b9 04 4c
        E 3 99 2c 1e
        E 4 99 33 6a
        E 0 b9 04 57
        E 12 b9 04 67
        E 17 b9 04 57
        E 36 b9 04 47
        E 20 b9 04 36
        E 29 b9 04 25
        E 29 b9 04 15
        E 19 89 24 40
        E 75 89 2c 40
        E 5 89 33 40
        E 43 b9 04 25
        E 12 b9 04 36
        E 14 b9 04 46
        E 13 b9 04 4d
        E 2 99 2c 10
        E 17 b9 04 56
        E 50 99 24 47
        E 8 99 33 40
        E 55 b9 04 46
        E 29 b9 04 36
        E 25 b9 04 22
        E 27 b9 04 12
        E 28 b9 04 00
        E 5 89 2c 40
        E 65 89 24 40
        E 7 89 33 40
        E 189 b9 04 12
        E 8 b9 04 27
        E 4 b9 04 38
        E 5 99 26 69
        E 2 b9 04 4c
        E 3 99 2c 34
        E 2 b9 04 4c
        E 27 b9 04 5c
        E 7 99 33 76
        E 2 b9 04 6c
        E 44 b9 04 5c
        E 26 b9 04 4c
        E 22 b9 04 3c
        E 22 b9 04 2c
        E 20 b9 04 1a
        E 48 b9 04 09
        E 17 89 26 40
        E 5 89 2c 40
        E 38 89 33 40
        E 54 b9 04 1a
        E 16 b9 04 2c
        E 12 b9 04 3c
        E 18 b9 04 4c
        E 2 b9 04 4d
        E 2 99 2c 12
        E 7 99 24 4c
        E 56 99 33 38
        E 92 b9 04 3c
        E 21 b9 04 2c
        E 22 b9 04 1a
        E 24 b9 04 09
        E 17 b9 04 00
        E 2 89 2c 40
        E 8 89 24 40
        E 58 89 33 40
        E 147 99 24 47
        E 19 b9 04 12
        E 5 b9 04 25
        E 10 b9 04 36
        E 15 b9 04 46
        E 7 b9 04 4c
        E 2 99 2c 14
        E 8 b9 04 56
        E 2 99 33 6d
        E 7 b9 04 66
        E 27 b9 04 56
        E 38 b9 04 46
        E 22 b9 04 36
        E 27 b9 04 25
        E 24 b9 04 15
        E 29 89 24 40
        E 46 b9 04 03
        E 12 89 2c 40
        E 9 89 33 40
        E 42 b9 04 15
        E 19 b9 04 25
        E 14 b9 04 36
        E 20 b9 04 46
        E 12 b9 04 4d
        E 2 99 2c 0e
        E 19 b9 04 56
        E 22 99 24 45
        E 15 99 33 48
        E 65 b9 04 46
        E 32 b9 04 36
        E 21 b9 04 25
        E 22 b9 04 15
        E 31 b9 04 03
        E 10 b9 04 00
        E 5 89 2c 40
        E 43 89 24 40
        E 12 89 33 40
        E 162 b9 04 12
        E 12 b9 04 25
        E 10 99 26 66
        E 3 b9 04 36
        E 14 b9 04 46
        E 4 b9 04 4c
        E 2 99 2c 16
        E 6 b9 04 56
        E 10 b9 04 66
        E 4 99 33 6d
        E 18 b9 04 56
        E 43 b9 04 46
        E 24 b9 04 36
        E 34 b9 04 25
        E 31 b9 04 15
        E 50 89 26 40
        E 25 89 2c 40
        E 17 89 33 40
        E 62 b9 04 25
        E 15 b9 04 36
        E 15 99 24 49
        E 3 b9 04 46
        E 17 b9 04 4d
        E 2 99 2c 0e
        E 23 b9 04 56
        E 29 99 33 3a
        E 61 b9 04 46
        E 32 b9 04 36
        E 22 b9 04 25
        E 21 b9 04 15
        E 29 b9 04 03
        E 5 89 24 40
        E 5 b9 04 00
        E 19 89 2c 40
        E 48 89 33 40
        E 121 99 24 41
        E 34 b9 04 12
        E 9 b9 04 25
        E 13 b9 04 36
        E 17 b9 04 46
        E 2 b9 04 4c
        E 3 99 2c 16
        E 4 b9 04 56
        E 3 99 33 62
        E 12 b9 04 66
        E 16 b9 04 56
        E 39 b9 04 46
        E 24 b9 04 36
        E 35 b9 04 25
        E 31 b9 04 15
        E 2 89 24 40
        E 75 89 2c 40
        E 10 89 33 40
        E 50 b9 04 25
        E 17 b9 04 36
        E 19 b9 04 46
        E 13 b9 04 4d
        E 2 99 2c 0c
        E 22 b9 04 56
        E 21 99 24 44
        E 37 99 33 40
        E 38 b9 04 46
        E 32 b9 04 36
        E 26 b9 04 22
        E 30 b9 04 12
        E 31 b9 04 00
        E 5 89 2c 40
        E 43 89 24 40
        E 39 89 33 40
        E 152 b9 04 12
        E 10 b9 04 22
        E 7 b9 04 32
        E 12 b9 04 43
        E 12 b9 04 4c
        E 3 99 2c 10
        E 2 99 26 7c
        E 3 b9 04 53
        E 9 b9 04 64
        E 9 99 33 53
        E 21 b9 04 54
        E 35 b9 04 44
        E 22 b9 04 34
        E 29 b9 04 22
        E 36 b9 04 12
        E 76 89 2c 40
        E 2 89 26 40
        E 21 89 33 40
        E 55 b9 04 22
        E 13 b9 04 32
        E 10 99 24 44
        E 9 b9 04 43
        E 27 b9 04 4d
        E 3 99 2c 0a
        E 19 b9 04 53
        E 19 99 33 40
        E 56 b9 04 43
        E 31 b9 04 32
        E 20 b9 04 22
        E 24 b9 04 12
        E 31 b9 04 00
        E 2 89 24 40
        E 39 89 2c 40
        E 38 89 33 40
        E 129 99 24 43
        E 36 b9 04 12
        E 7 b9 04 25
        E 7 b9 04 38
        E 10 b9 04 49
        E 10 b9 04 4c
        E 2 99 2c 20
        E 10 99 33 5b
        E 2 b9 04 5a
        E 10 b9 04 6a
        E 29 b9 04 5a
        E 41 b9 04 4a
        E 19 b9 04 3a
        E 24 b9 04 29
        E 27 b9 04 18
        E 10 89 24 40
        E 33 b9 04 06
        E 39 89 2c 40
        E 7 89 33 40
        E 8 b9 04 00
        E 60 b9 04 12
        E 22 b9 04 25
        E 17 b9 04 36
        E 19 b9 04 46
        E 12 b9 04 4c
        E 2 99 2c 0c
        E 3 99 24 41
        E 12 99 33 40
        E 120 b9 04 36
        E 27 b9 04 22
        E 27 b9 04 12
        E 36 b9 04 00
        E 17 89 2c 40
        E 5 89 24 40
        E 10 89 33 40
        E 195 b9 04 12
        E 11 b9 04 22
        E 7 b9 04 32
        E 2 99 26 74
        E 14 b9 04 43
        E 5 99 33 54
        E 2 b9 04 4d
        E 2 99 2c 18
        E 3 b9 04 53
        E 9 b9 04 63
        E 20 b9 04 53
        E 39 b9 04 43
        E 22 b9 04 32
        E 24 b9 04 22
        E 39 b9 04 12
        E 67 89 26 40
        E 17 89 33 40
        E 2 89 2c 40
        E 71 b9 04 25
        E 9 99 24 46
        E 10 b9 04 36
        E 34 b9 04 46
        E 26 b9 04 4d
        E 3 99 2c 08
        E 7 99 33 39
        E 70 b9 04 36
        E 24 b9 04 22
        E 25 b9 04 12
        E 28 b9 04 00
        E 15 89 24 40
        E 72 89 2c 40
        E 8 89 33 40
        E 93 99 24 3c
        E 63 b9 04 12
        E 8 b9 04 25
        E 7 b9 04 36
        E 15 b9 04 46
        E 9 99 33 47
        E 3 b9 04 4c
        E 2 99 2c 18
        E 5 b9 04 57
        E 12 b9 04 67
        E 22 b9 04 57
        E 33 b9 04 47
        E 21 b9 04 36
        E 28 b9 04 25
        E 14 89 24 40
        E 15 b9 04 15
        E 67 b9 04 03
        E 22 89 33 40
        E 3 89 2c 40
        E 46 b9 04 15
        E 21 b9 04 25
        E 17 b9 04 36
        E 27 b9 04 46
        E 12 99 24 45
        E 3 b9 04 4d
        E 2 99 2c 0a
        E 40 99 33 34
        E 76 b9 04 36
        E 28 b9 04 25
        E 28 b9 04 15
        E 31 b9 04 03
        E 9 b9 04 00
        E 25 89 24 40
        E 7 89 2c 40
        E 38 89 33 40
        E 162 99 26 66
        E 4 b9 04 12
        E 11 b9 04 22
        E 7 b9 04 32
        E 2 99 33 60
        E 10 b9 04 43
        E 10 b9 04 4c
        E 2 99 2c 14
        E 2 b9 04 53
        E 13 b9 04 63
        E 21 b9 04 53
        E 39 b9 04 43
        E 22 b9 04 32
        E 24 b9 04 22
        E 43 b9 04 12
        E 33 89 26 40
        E 23 89 33 40
        E 22 89 2c 40
        E 57 b9 04 22
        E 13 b9 04 32
        E 9 99 24 44
        E 10 b9 04 43
        E 27 b9 04 4d
        E 2 99 2c 0c
        E 12 99 33 3c
        E 109 b9 04 32
        E 17 b9 04 22
        E 26 b9 04 12
        E 29 b9 04 00
        E 13 89 24 40
        E 38 89 2c 40
        E 12 89 33 40
        E 147 99 24 43
        E 22 b9 04 12
        E 13 b9 04 25
        E 9 b9 04 36
        E 17 b9 04 46
        E 2 99 33 6b
        E 3 b9 04 4c
        E 4 99 2c 12
        E 5 b9 04 57
        E 73 b9 04 47
        E 29 b9 04 36
        E 29 b9 04 25
        E 29 b9 04 15
        E 7 89 24 40
        E 65 89 33 40
        E 5 89 2c 40
        E 77 b9 04 27
        E 20 b9 04 38
        E 29 b9 04 49
        E 9 b9 04 4d
        E 2 99 2c 0a
        E 20 99 24 40
        E 3 99 33 48
        E 99 b9 04 38
        E 31 b9 04 27
        E 27 b9 04 15
        E 31 b9 04 03
        E 12 b9 04 00
        E 22 89 2c 40
        E 17 89 24 40
        E 5 89 33 40
        E 176 99 26 46
        E 5 b9 04 12
        E 17 b9 04 25
        E 7 99 33 63
        E 14 b9 04 36
        E 8 b9 04 46
        E 5 b9 04 4c
        E 2 99 2c 1e
        E 2 b9 04 56
        E 30 b9 04 46
        E 43 b9 04 36
        E 31 b9 04 25
        E 49 b9 04 15
        E 29 89 26 40
        E 31 89 33 40
        E 27 89 2c 40
        E 72 b9 04 25
        E 20 b9 04 36
        E 21 b9 04 46
        E 5 99 33 35
        E 12 b9 04 4d
        E 2 99 2c 0a
        E 150 b9 04 36
        E 36 b9 04 25
        E 34 b9 04 15
        E 7 89 33 40
        E 15 89 2c 40
        E 19 b9 04 03
        E 15 b9 04 00
        E 232 b9 04 12
        E 15 99 24 3a
        E 2 b9 04 22
        E 17 b9 04 32
        E 11 b9 04 43
        E 5 b9 04 4d
        E 3 99 2c 1e
        E 2 b9 04 53
        E 8 99 33 6a
        E 5 b9 04 63
        E 47 b9 04 53
        E 35 b9 04 43
        E 39 b9 04 32
        E 24 b9 04 22
        E 45 89 24 40
        E 10 b9 04 12
        E 26 89 2c 40
        E 10 89 33 40
        E 129 b9 04 22
        E 26 b9 04 32
        E 37 b9 04 43
        E 18 99 33 3b
        E 20 b9 04 4d
        E 2 99 2c 06
        E 160 b9 04 32
        E 38 b9 04 22
        E 25 89 33 40
        E 21 89 2c 40
        E 84 b9 04 12
        E 240 b9 04 25
        E 22 b9 04 36
        E 31 b9 04 25
        E 94 b9 04 15
        E 213 b9 04 25
        E 152 b9 04 2e
        E 217 b9 04 22
        E 354 b9 04 1a
        E 164 b9 04 09
        E 161 b9 04 00
        E 7713 b0 7b 00
        GUID {86D70260-695D-4A5F-AF2C-216D09D88BB5}
        IGNTEMPO 0 120 4 4
        SRCCOLOR 506
      >
    >
    <ITEM
      POSITION 213.375
      SNAPOFFS 0
      LENGTH 190.13724635902469
      LOOP 1
      ALLTAKES 0
      FADEIN 1 0.007784 0 1 0 0
      FADEOUT 1 0.007784 0 1 0 0
      MUTE 0
      SEL 0
      IGUID {B5F1D5EE-23E6-4DA8-AE5A-65AAF7143977}
      IID 12
      VOLPAN 1
      TAKE SEL
      NAME "01-EZdrummer-Recorded MIDI"
      TAKEVOLPAN 0 1 -1
      SOFFS 2.75643920798558 8.91248677248677
      PLAYRATE 1 1 0 -1 0 0.0025
      CHANMODE 0
      TAKECOLOR 30590805 R
      GUID {946950B7-E558-4D88-BB58-176F382D4D2A}
      RECPASS 4
      <SOURCE MIDI
        HASDATA 1 960 QN
        POOLEDEVTS {27140C6B-77D7-4A58-85B0-679505330A74}
        E 2009 b9 04 0f
        E 280 b9 04 1a
        E 314 b9 04 22
        E 713 b9 04 1d
        E 1196 b9 04 18
        E 330 b9 04 12
        E 281 b9 04 09
        E 282 b9 04 03
        E 216 b9 04 00
        E 649 b9 04 06
        E 334 b9 04 0f
        E 1357 b9 04 09
        E 5144 b9 04 12
        E 251 b9 04 1d
        E 256 b9 04 2c
        E 181 b9 04 36
        E 1494 b9 04 3a
        E 546 b9 04 32
        E 113 b9 04 22
        E 162 b9 04 1a
        E 227 b9 04 12
        E 2460 b9 04 1a
        E 526 b9 04 27
        E 1006 b9 04 20
        E 203 b9 04 27
        E 819 b9 04 1d
        E 91 99 24 7f
        E 206 b9 04 15
        E 38 89 24 40
        E 447 b9 04 1a
        E 123 99 24 7f
        E 244 89 24 40
        E 220 99 26 7f
        E 100 89 26 40
        E 2 99 26 7f
        E 239 89 26 40
        E 432 b9 04 25
        E 201 b9 04 20
        E 2706 99 30 7f
        E 17 99 2d 7f
        E 227 89 30 40
        E 19 89 2d 40
        E 534 99 2d 7f
        E 2 99 29 7f
        E 239 89 2d 40
        E 3 89 29 40
        E 332 b9 04 15
        E 270 99 24 7f
        E 244 89 24 40
        E 548 99 24 7f
        E 36 b9 04 0c
        E 208 89 24 40
        E 182 99 26 7f
        E 118 99 28 7f
        E 29 b9 04 12
        E 96 89 26 40
        E 88 b9 04 18
        E 28 89 28 40
        E 362 b9 04 25
        E 303 b9 04 20
        E 401 b9 04 30
        E 282 b9 04 25
        E 411 b9 04 30
        E 177 b9 04 20
        E 302 99 30 7f
        E 33 99 2d 7f
        E 5 b9 04 27
        E 206 89 30 40
        E 31 89 2d 40
        E 16 b9 04 20
        E 83 99 30 7f
        E 32 99 2d 7f
        E 212 89 30 40
        E 31 89 2d 40
        E 90 99 30 7f
        E 26 99 2d 7f
        E 218 89 30 40
        E 26 89 2d 40
        E 119 99 2d 7f
        E 2 99 30 7f
        E 242 89 2d 40
        E 0 89 30 40
        E 133 99 29 65
        E 26 99 2d 7f
        E 111 b9 04 1a
        E 107 89 29 40
        E 27 89 2d 40
        E 106 99 29 7f
        E 48 99 2d 7f
        E 196 89 29 40
        E 45 89 2d 40
        E 404 b9 04 0f
        E 70 99 24 7f
        E 244 89 24 40
        E 355 b9 04 20
        E 41 b9 04 30
        E 131 b9 04 34
        E 19 99 24 7f
        E 17 b9 04 22
        E 44 b9 04 12
        E 53 b9 04 00
        E 130 89 24 40
        E 172 99 26 7f
        E 104 b9 04 12
        E 4 99 28 7f
        E 39 b9 04 22
        E 21 b9 04 32
        E 20 b9 04 43
        E 51 b9 04 32
        E 5 89 26 40
        E 55 b9 04 22
        E 53 89 28 40
        E 87 b9 04 15
        E 109 b9 04 25
        E 51 b9 04 36
        E 53 b9 04 46
        E 90 b9 04 36
        E 43 b9 04 25
        E 31 b9 04 15
        E 4 99 24 67
        E 40 b9 04 03
        E 14 b9 04 00
        E 191 89 24 40
        E 189 99 2d 7f
        E 9 99 30 7f
        E 44 b9 04 12
        E 16 b9 04 22
        E 49 b9 04 32
        E 10 b9 04 44
        E 2 b9 04 4d
        E 2 99 2c 26
        E 3 b9 04 54
        E 12 b9 04 44
        E 5 b9 04 34
        E 8 b9 04 22
        E 16 b9 04 12
        E 68 89 2d 40
        E 9 89 30 40
        E 123 89 2c 40
        E 186 b9 04 1d
        E 90 b9 04 2e
        E 26 b9 04 3e
        E 49 b9 04 4f
        E 2 99 2c 06
        E 2 b9 04 4f
        E 153 b9 04 3f
        E 34 b9 04 2e
        E 29 b9 04 1d
        E 24 89 2c 40
        E 26 b9 04 0c
        E 34 b9 04 00
        E 34 99 24 6d
        E 242 89 24 40
        E 128 b9 04 12
        E 7 99 26 7f
        E 43 b9 04 22
        E 12 b9 04 32
        E 5 b9 04 43
        E 2 b9 04 4c
        E 3 99 2c 2a
        E 20 b9 04 32
        E 4 b9 04 20
        E 5 89 26 40
        E 2 99 26 7f
        E 10 b9 04 0f
        E 135 b9 04 20
        E 47 b9 04 30
        E 21 89 2c 40
        E 29 89 26 40
        E 104 b9 04 20
        E 29 99 24 5f
        E 26 b9 04 0f
        E 42 b9 04 00
        E 176 89 24 40
        E 123 b9 04 12
        E 7 99 30 7f
        E 17 99 2d 7f
        E 5 b9 04 22
        E 17 b9 04 32
        E 10 b9 04 43
        E 4 b9 04 4d
        E 0 99 2c 22
        E 5 b9 04 53
        E 24 b9 04 43
        E 10 b9 04 32
        E 153 89 30 40
        E 16 89 2d 40
        E 37 89 2c 40
        E 75 b9 04 22
        E 41 b9 04 12
        E 9 99 24 68
        E 34 b9 04 00
        E 210 89 24 40
        E 119 b9 04 12
        E 15 b9 04 22
        E 0 99 29 7f
        E 2 99 2d 7f
        E 28 b9 04 32
        E 8 b9 04 43
        E 7 b9 04 4c
        E 3 99 2c 22
        E 14 b9 04 32
        E 7 b9 04 20
        E 135 b9 04 30
        E 39 89 29 40
        E 3 89 2d 40
        E 43 89 2c 40
        E 60 b9 04 20
        E 66 b9 04 0f
        E 45 b9 04 00
        E 334 b9 04 12
        E 10 b9 04 25
        E 14 99 24 7c
        E 15 b9 04 36
        E 9 b9 04 47
        E 3 b9 04 4c
        E 2 99 2c 28
        E 19 b9 04 36
        E 10 b9 04 25
        E 32 b9 04 15
        E 154 89 24 40
        E 27 89 2c 40
        E 36 b9 04 25
        E 87 b9 04 36
        E 87 b9 04 46
        E 31 b9 04 4f
        E 3 99 2c 06
        E 29 b9 04 56
        E 118 b9 04 46
        E 32 b9 04 36
        E 31 b9 04 22
        E 31 89 2c 40
        E 5 99 24 64
        E 2 b9 04 12
        E 46 b9 04 00
        E 196 89 24 40
        E 193 99 26 7f
        E 32 b9 04 12
        E 15 b9 04 22
        E 45 b9 04 32
        E 7 b9 04 44
        E 3 b9 04 4d
        E 2 99 2c 2e
        E 2 b9 04 54
        E 7 89 26 40
        E 3 99 26 7f
        E 8 b9 04 44
        E 7 b9 04 34
        E 7 b9 04 20
        E 128 b9 04 12
        E 81 89 2c 40
        E 11 89 26 40
        E 157 b9 04 22
        E 34 b9 04 32
        E 17 b9 04 43
        E 14 b9 04 4d
        E 3 99 2c 0e
        E 8 b9 04 53
        E 60 b9 04 63
        E 86 b9 04 53
        E 30 b9 04 43
        E 23 b9 04 32
        E 20 b9 04 22
        E 17 89 2c 40
        E 7 b9 04 12
        E 39 b9 04 00
        E 50 99 24 64
        E 245 89 24 40
        E 99 99 2d 7f
        E 17 99 30 7f
        E 19 b9 04 12
        E 17 b9 04 22
        E 36 b9 04 34
        E 3 b9 04 47
        E 2 b9 04 4c
        E 2 99 2c 4a
        E 3 b9 04 5c
        E 16 b9 04 49
        E 5 b9 04 36
        E 9 b9 04 25
        E 50 b9 04 36
        E 65 89 2d 40
        E 14 89 30 40
        E 79 89 2c 40
        E 20 b9 04 25
        E 56 b9 04 15
        E 147 b9 04 06
        E 140 b9 04 18
        E 20 b9 04 29
        E 19 b9 04 3a
        E 16 b9 04 4a
        E 2 b9 04 4d
        E 3 99 2c 10
        E 13 b9 04 5a
        E 29 b9 04 4a
        E 57 b9 04 3a
        E 145 89 2c 40
        E 46 b9 04 46
        E 58 b9 04 36
        E 39 b9 04 25
        E 38 b9 04 15
        E 10 99 24 63
        E 48 b9 04 03
        E 15 b9 04 00
        E 181 89 24 40
        E 138 99 26 7f
        E 17 b9 04 12
        E 10 b9 04 22
        E 12 b9 04 32
        E 29 b9 04 43
        E 2 b9 04 4c
        E 0 99 2c 2a
        E 2 b9 04 54
        E 20 b9 04 44
        E 4 b9 04 34
        E 3 89 26 40
        E 3 99 26 7f
        E 4 b9 04 22
        E 109 b9 04 32
        E 99 89 2c 40
        E 29 89 26 40
        E 46 b9 04 22
        E 41 b9 04 12
        E 7 99 24 60
        E 37 b9 04 00
        E 208 89 24 40
        E 77 b9 04 12
        E 36 b9 04 22
        E 14 b9 04 32
        E 6 b9 04 44
        E 1 b9 04 4d
        E 2 99 2c 30
        E 3 b9 04 54
        E 2 99 30 7f
        E 11 99 2d 7f
        E 2 b9 04 44
        E 7 b9 04 32
        E 13 b9 04 22
        E 75 b9 04 32
        E 45 b9 04 43
        E 87 89 2c 40
        E 2 89 30 40
        E 13 89 2d 40
        E 29 b9 04 32
        E 33 b9 04 22
        E 37 b9 04 12
        E 31 99 24 64
        E 17 b9 04 00
        E 227 89 24 40
        E 101 b9 04 12
        E 15 b9 04 22
        E 37 b9 04 32
        E 5 b9 04 43
        E 6 99 2d 7f
        E 3 b9 04 4c
        E 2 99 2c 24
        E 5 99 29 7c
        E 7 b9 04 32
        E 7 b9 04 20
        E 17 b9 04 0f
        E 119 b9 04 20
        E 32 b9 04 30
        E 53 89 2d 40
        E 2 b9 04 41
        E 2 89 2c 40
        E 5 89 29 40
        E 84 b9 04 30
        E 8 99 24 68
        E 27 b9 04 20
        E 36 b9 04 0f
        E 29 b9 04 00
        E 151 89 24 40
        E 182 b9 04 12
        E 7 b9 04 25
        E 3 99 24 7f
        E 2 b9 04 38
        E 3 b9 04 49
        E 2 b9 04 4c
        E 2 99 2c 34
        E 35 b9 04 5b
        E 6 b9 04 6b
        E 15 b9 04 58
        E 7 b9 04 47
        E 15 b9 04 36
        E 50 b9 04 25
        E 73 b9 04 15
        E 34 89 24 40
        E 7 89 2c 40
        E 94 b9 04 25
        E 130 b9 04 36
        E 76 b9 04 46
        E 40 b9 04 4f
        E 0 99 2c 06
        E 97 b9 04 4a
        E 46 b9 04 3a
        E 22 99 24 5e
        E 14 b9 04 29
        E 39 b9 04 18
        E 27 89 2c 40
        E 26 b9 04 06
        E 37 b9 04 00
        E 100 89 24 40
        E 265 99 26 7f
        E 4 99 2d 7f
        E 61 b9 04 12
        E 27 b9 04 22
        E 19 b9 04 32
        E 11 b9 04 43
        E 2 b9 04 4c
        E 3 99 2c 22
        E 5 b9 04 53
        E 12 b9 04 43
        E 8 b9 04 32
        E 6 b9 04 22
        E 23 b9 04 12
        E 60 89 26 40
        E 2 89 2d 40
        E 127 89 2c 40
        E 98 b9 04 22
        E 29 b9 04 32
        E 22 b9 04 43
        E 14 b9 04 4d
        E 3 99 2c 0c
        E 9 b9 04 53
        E 155 b9 04 43
        E 26 b9 04 32
        E 22 b9 04 22
        E 26 b9 04 12
        E 6 89 2c 40
        E 17 99 24 5d
        E 19 b9 04 00
        E 222 89 24 40
        E 135 99 30 7f
        E 8 99 2d 7f
        E 48 b9 04 12
        E 15 b9 04 22
        E 40 b9 04 34
        E 6 b9 04 44
        E 2 b9 04 4d
        E 2 99 2c 44
        E 3 b9 04 55
        E 14 b9 04 43
        E 4 b9 04 32
        E 8 b9 04 20
        E 92 89 30 40
        E 2 b9 04 30
        E 5 89 2d 40
        E 113 89 2c 40
        E 51 b9 04 20
        E 83 b9 04 0f
        E 84 b9 04 00
        E 194 b9 04 12
        E 21 b9 04 22
        E 10 b9 04 32
        E 17 b9 04 43
        E 5 b9 04 4c
        E 2 99 2c 12
        E 5 b9 04 53
        E 34 b9 04 43
        E 202 89 2c 40
        E 47 b9 04 32
        E 26 b9 04 22
        E 41 99 24 5f
        E 3 b9 04 12
        E 53 b9 04 00
        E 186 89 24 40
        E 116 99 26 7f
        E 24 b9 04 12
        E 9 b9 04 22
        E 27 b9 04 32
        E 15 b9 04 44
        E 2 b9 04 4d
        E 2 99 2c 2c
        E 3 b9 04 56
        E 3 89 26 40
        E 2 99 26 7f
        E 14 b9 04 46
        E 5 b9 04 36
        E 14 b9 04 25
        E 202 89 2c 40
        E 9 89 26 40
        E 14 b9 04 30
        E 49 b9 04 20
        E 38 99 24 58
        E 27 b9 04 0f
        E 43 b9 04 00
        E 172 89 24 40
        E 109 b9 04 12
        E 22 99 2d 7f
        E 7 b9 04 22
        E 7 99 30 7f
        E 7 b9 04 32
        E 5 b9 04 44
        E 5 b9 04 4d
        E 2 99 2c 32
        E 2 b9 04 54
        E 19 b9 04 43
        E 8 b9 04 32
        E 145 b9 04 43
        E 37 89 2d 40
        E 14 89 30 40
        E 17 89 2c 40
        E 60 b9 04 32
        E 32 b9 04 22
        E 34 b9 04 12
        E 7 99 24 65
        E 38 b9 04 00
        E 206 89 24 40
        E 135 99 2d 7f
        E 3 b9 04 12
        E 9 b9 04 22
        E 17 99 29 7f
        E 12 b9 04 32
        E 7 b9 04 43
        E 5 b9 04 4c
        E 2 99 2c 26
        E 3 b9 04 53
        E 10 b9 04 43
        E 7 b9 04 32
        E 8 b9 04 20
        E 23 b9 04 0f
        E 73 b9 04 20
        E 50 b9 04 30
        E 15 89 2d 40
        E 27 89 29 40
        E 26 89 2c 40
        E 77 b9 04 20
        E 58 b9 04 0f
        E 39 b9 04 00
        E 331 b9 04 12
        E 11 99 24 72
        E 3 b9 04 25
        E 32 b9 04 36
        E 5 b9 04 46
        E 2 b9 04 4d
        E 2 99 2c 26
        E 19 b9 04 36
        E 11 b9 04 22
        E 21 b9 04 12
        E 150 89 24 40
        E 44 89 2c 40
        E 112 b9 04 22
        E 146 b9 04 32
        E 46 b9 04 43
        E 31 b9 04 4f
        E 2 99 2c 08
        E 8 b9 04 53
        E 145 b9 04 43
        E 29 b9 04 32
        E 5 99 24 77
        E 17 b9 04 22
        E 33 b9 04 12
        E 5 89 2c 40
        E 39 b9 04 00
        E 150 89 24 40
        E 215 99 26 7f
        E 24 b9 04 12
        E 12 b9 04 25
        E 41 89 26 40
        E 3 99 26 7f
        E 5 b9 04 36
        E 9 b9 04 46
        E 3 b9 04 4d
        E 2 99 2c 28
        E 3 b9 04 56
        E 22 b9 04 46
        E 4 b9 04 34
        E 10 b9 04 22
        E 55 b9 04 12
        E 128 89 26 40
        E 22 89 2c 40
        E 116 b9 04 22
        E 24 b9 04 32
        E 19 b9 04 43
        E 15 b9 04 4d
        E 2 99 2c 0e
        E 7 b9 04 53
        E 52 b9 04 63
        E 89 b9 04 53
        E 24 b9 04 43
        E 27 b9 04 32
        E 17 b9 04 22
        E 23 b9 04 12
        E 3 89 2c 40
        E 29 99 24 5c
        E 12 b9 04 00
        E 232 89 24 40
        E 145 99 2d 7f
        E 5 99 30 7f
        E 9 b9 04 12
        E 15 b9 04 22
        E 36 b9 04 32
        E 5 b9 04 43
        E 2 b9 04 4c
        E 3 99 2c 40
        E 2 b9 04 53
        E 15 b9 04 41
        E 5 b9 04 30
        E 7 b9 04 20
        E 140 89 2d 40
        E 5 89 30 40
        E 7 b9 04 30
        E 61 89 2c 40
        E 86 b9 04 36
        E 66 b9 04 25
        E 43 b9 04 15
        E 53 b9 04 03
        E 19 b9 04 00
        E 183 b9 04 12
        E 23 b9 04 25
        E 9 b9 04 36
        E 13 b9 04 46
        E 2 b9 04 4c
        E 2 99 2c 18
        E 8 b9 04 56
        E 77 b9 04 46
        E 153 b9 04 51
        E 4 89 2c 40
        E 61 b9 04 41
        E 31 b9 04 30
        E 5 99 24 5d
        E 21 b9 04 20
        E 49 b9 04 0f
        E 48 b9 04 00
        E 126 89 24 40
        E 169 99 26 7f
        E 31 b9 04 12
        E 54 b9 04 22
        E 9 b9 04 34
        E 5 b9 04 44
        E 2 b9 04 4c
        E 3 99 2c 36
        E 2 b9 04 55
        E 17 b9 04 44
        E 0 b9 04 34
        E 7 b9 04 22
        E 15 b9 04 12
        E 99 89 26 40
        E 101 89 2c 40
        E 34 99 26 7f
        E 114 b9 04 22
        E 130 89 26 40
        E 7 b9 04 2c
        E 141 99 30 7f
        E 35 b9 04 25
        E 209 89 30 40
        E 128 99 30 7f
        E 110 b9 04 1a
        E 133 89 30 40
        E 119 99 2d 7f
        E 145 b9 04 2c
        E 37 b9 04 3c
        E 33 b9 04 4c
        E 2 b9 04 4d
        E 2 99 2c 08
        E 25 89 2d 40
        E 102 99 2d 7f
        E 26 b9 04 3c
        E 39 b9 04 2c
        E 34 b9 04 1a
        E 19 89 2c 40
        E 14 b9 04 09
        E 20 b9 04 00
        E 89 89 2d 40
        E 155 99 24 7f
        E 29 b9 04 12
        E 26 b9 04 22
        E 10 b9 04 32
        E 9 b9 04 43
        E 3 b9 04 4c
        E 2 99 2c 24
        E 5 b9 04 53
        E 17 b9 04 41
        E 7 b9 04 30
        E 37 b9 04 20
        E 96 89 24 40
        E 3 b9 04 0f
        E 80 89 2c 40
        E 113 b9 04 20
        E 36 b9 04 30
        E 37 b9 04 41
        E 24 b9 04 4d
        E 2 99 2c 0a
        E 7 b9 04 51
        E 134 b9 04 58
        E 40 b9 04 47
        E 32 b9 04 36
        E 26 b9 04 25
        E 3 89 2c 40
        E 22 99 24 60
        E 4 b9 04 15
        E 39 b9 04 03
        E 9 b9 04 00
        E 189 89 24 40
        E 162 99 26 7f
        E 22 b9 04 12
        E 14 b9 04 22
        E 46 b9 04 32
        E 7 b9 04 43
        E 3 b9 04 4c
        E 2 99 2c 2e
        E 2 b9 04 54
        E 8 99 28 7f
        E 7 b9 04 44
        E 7 b9 04 32
        E 7 b9 04 20
        E 20 b9 04 0f
        E 99 89 26 40
        E 94 89 2c 40
        E 10 89 28 40
        E 123 b9 04 20
        E 29 b9 04 30
        E 24 b9 04 41
        E 15 b9 04 4d
        E 2 99 2c 0c
        E 7 b9 04 51
        E 42 b9 04 61
        E 135 b9 04 51
        E 29 b9 04 41
        E 23 b9 04 30
        E 5 89 2c 40
        E 15 b9 04 20
        E 39 b9 04 0f
        E 39 b9 04 00
        E 24 99 24 66
        E 241 89 24 40
        E 123 99 30 7f
        E 3 99 2d 7f
        E 19 b9 04 12
        E 44 b9 04 22
        E 5 b9 04 34
        E 2 b9 04 47
        E 3 b9 04 4c
        E 2 99 2c 44
        E 4 b9 04 58
        E 13 b9 04 46
        E 5 b9 04 34
        E 7 b9 04 22
        E 17 b9 04 12
        E 120 89 30 40
        E 3 89 2d 40
        E 29 b9 04 1d
        E 45 89 2c 40
        E 87 b9 04 29
        E 170 b9 04 18
        E 157 b9 04 0f
        E 41 b9 04 20
        E 24 b9 04 30
        E 22 b9 04 41
        E 15 b9 04 4d
        E 2 99 2c 10
        E 7 b9 04 51
        E 56 b9 04 41
        E 154 b9 04 51
        E 27 89 2c 40
        E 106 b9 04 41
        E 36 b9 04 30
        E 29 b9 04 20
        E 36 b9 04 0f
        E 13 99 24 6c
        E 20 b9 04 00
        E 221 89 24 40
        E 102 99 26 7f
        E 2 b9 04 12
        E 3 b9 04 22
        E 7 b9 04 32
        E 34 b9 04 43
        E 5 b9 04 4c
        E 2 99 2c 1c
        E 2 b9 04 54
        E 5 b9 04 65
        E 15 b9 04 55
        E 7 b9 04 44
        E 7 b9 04 34
        E 8 89 26 40
        E 2 99 26 7f
        E 36 b9 04 22
        E 160 89 2c 40
        E 41 b9 04 30
        E 2 89 26 40
        E 65 b9 04 20
        E 39 99 24 50
        E 24 b9 04 0f
        E 42 b9 04 00
        E 178 89 24 40
        E 99 b9 04 12
        E 36 99 2d 7f
        E 2 b9 04 22
        E 8 b9 04 32
        E 0 99 30 7f
        E 7 b9 04 43
        E 2 b9 04 4c
        E 5 99 2c 28
        E 12 b9 04 32
        E 10 b9 04 20
        E 114 b9 04 30
        E 46 b9 04 41
        E 38 89 2d 40
        E 10 89 30 40
        E 12 89 2c 40
        E 75 b9 04 30
        E 26 b9 04 20
        E 32 99 24 5f
        E 10 b9 04 0f
        E 30 b9 04 00
        E 202 89 24 40
        E 130 b9 04 12
        E 2 99 2d 7f
        E 10 b9 04 22
        E 9 99 29 7f
        E 25 b9 04 32
        E 7 b9 04 43
        E 5 b9 04 4c
        E 2 99 2c 26
        E 17 b9 04 32
        E 7 b9 04 22
        E 13 b9 04 12
        E 123 b9 04 22
        E 26 89 2d 40
        E 13 b9 04 32
        E 6 89 29 40
        E 39 89 2c 40
        E 124 b9 04 22
        E 38 b9 04 12
        E 49 b9 04 00
        E 331 b9 04 12
        E 7 99 24 79
        E 5 b9 04 25
        E 12 b9 04 36
        E 26 b9 04 46
        E 3 b9 04 4c
        E 2 99 2c 28
        E 2 b9 04 56
        E 22 b9 04 46
        E 3 b9 04 36
        E 19 b9 04 25
        E 63 b9 04 15
        E 87 89 24 40
        E 48 89 2c 40
        E 111 b9 04 25
        E 155 b9 04 36
        E 63 b9 04 46
        E 24 b9 04 4f
        E 3 99 2c 08
        E 31 b9 04 56
        E 113 b9 04 46
        E 32 b9 04 36
        E 19 99 24 6e
        E 9 b9 04 25
        E 32 b9 04 15
        E 7 89 2c 40
        E 39 b9 04 03
        E 19 b9 04 00
        E 138 89 24 40
        E 191 99 26 7f
        E 51 b9 04 12
        E 36 89 26 40
        E 3 99 26 7f
        E 86 b9 04 22
        E 16 b9 04 32
        E 11 b9 04 44
        E 5 b9 04 4c
        E 2 99 2c 1c
        E 4 b9 04 54
        E 15 b9 04 44
        E 12 b9 04 34
        E 68 b9 04 22
        E 22 89 26 40
        E 108 b9 04 18
        E 15 89 2c 40
        E 73 b9 04 29
        E 28 b9 04 3a
        E 25 b9 04 4a
        E 10 b9 04 4f
        E 1 99 2c 0a
        E 32 b9 04 5a
        E 121 b9 04 4a
        E 24 b9 04 3a
        E 26 b9 04 29
        E 27 99 24 60
        E 2 b9 04 18
        E 13 89 2c 40
        E 19 b9 04 06
        E 19 b9 04 00
        E 191 89 24 40
        E 174 99 2d 7f
        E 3 99 30 7f
        E 36 b9 04 12
        E 11 b9 04 25
        E 42 b9 04 36
        E 12 b9 04 47
        E 3 b9 04 4c
        E 0 99 2c 2a
        E 2 b9 04 58
        E 19 b9 04 47
        E 7 b9 04 36
        E 11 b9 04 25
        E 47 b9 04 15
        E 48 89 2d 40
        E 2 89 30 40
        E 108 89 2c 40
        E 75 b9 04 0f
        E 224 b9 04 20
        E 61 b9 04 30
        E 215 b9 04 41
        E 135 b9 04 30
        E 46 b9 04 20
        E 72 b9 04 0f
        E 40 99 26 7f
        E 88 b9 04 00
        E 82 89 26 40
        E 3 99 26 7f
        E 92 b9 04 12
        E 50 b9 04 22
        E 54 89 26 40
        E 2 99 26 6b
        E 31 b9 04 12
        E 165 b9 04 09
        E 17 89 26 40
        E 2 99 26 77
        E 152 b9 04 15
        E 53 89 26 40
        E 3 99 26 7a
        E 198 89 26 40
        E 0 99 26 6e
        E 159 b9 04 20
        E 37 99 30 7f
        E 48 89 26 40
        E 147 89 30 40
        E 2 99 30 7f
        E 168 89 30 40
        E 2 99 30 7f
        E 217 89 30 40
        E 3 99 30 7f
        E 34 b9 04 18
        E 147 99 2d 7f
        E 60 89 30 40
        E 148 89 2d 40
        E 2 99 2d 7f
        E 147 89 2d 40
        E 3 99 2d 74
        E 14 b9 04 29
        E 150 b9 04 30
        E 17 89 2d 40
        E 2 99 2d 7f
        E 56 b9 04 20
        E 85 b9 04 0f
        E 82 99 24 7a
        E 19 89 2d 40
        E 225 89 24 40
        E 161 b9 04 1a
        E 177 b9 04 2c
        E 58 b9 04 3c
        E 44 b9 04 4c
        E 2 99 2c 06
        E 2 b9 04 4c
        E 89 99 24 72
        E 44 b9 04 3c
        E 37 b9 04 2c
        E 38 b9 04 1a
        E 34 89 2c 40
        E 14 b9 04 09
        E 44 b9 04 00
        E 33 89 24 40
        E 177 99 26 7f
        E 82 99 28 66
        E 109 b9 04 12
        E 34 b9 04 22
        E 16 b9 04 32
        E 3 89 26 40
        E 20 b9 04 43
        E 9 b9 04 4c
        E 0 99 2c 10
        E 19 b9 04 32
        E 12 b9 04 20
        E 22 89 28 40
        E 68 b9 04 0f
        E 123 89 2c 40
        E 17 b9 04 20
        E 22 b9 04 30
        E 26 b9 04 41
        E 36 b9 04 4f
        E 2 99 2c 08
        E 131 b9 04 30
        E 27 b9 04 20
        E 36 b9 04 0f
        E 10 99 24 57
        E 22 b9 04 00
        E 19 89 2c 40
        E 202 89 24 40
        E 127 99 2d 7f
        E 2 99 30 7f
        E 34 b9 04 12
        E 11 b9 04 22
        E 44 b9 04 32
        E 5 b9 04 43
        E 3 b9 04 4d
        E 2 99 2c 36
        E 2 b9 04 53
        E 18 b9 04 43
        E 4 b9 04 32
        E 5 b9 04 22
        E 11 b9 04 12
        E 100 89 2d 40
        E 3 89 30 40
        E 26 b9 04 22
        E 75 89 2c 40
        E 167 b9 04 12
        E 133 b9 04 00
        E 162 b9 04 12
        E 28 b9 04 22
        E 17 b9 04 32
        E 15 b9 04 43
        E 9 b9 04 4c
        E 2 99 2c 14
        E 242 89 2c 40
        E 31 b9 04 32
        E 35 b9 04 22
        E 33 99 24 55
        E 3 b9 04 12
        E 58 b9 04 00
        E 184 89 24 40
        E 99 99 26 7f
        E 12 b9 04 12
        E 19 b9 04 22
        E 24 b9 04 32
        E 9 b9 04 44
        E 0 b9 04 4c
        E 3 99 2c 2c
        E 2 b9 04 55
        E 8 89 26 40
        E 2 99 26 7f
        E 13 b9 04 44
        E 6 b9 04 34
        E 56 b9 04 22
        E 150 b9 04 32
        E 8 89 2c 40
        E 8 89 26 40
        E 98 b9 04 20
        E 5 99 24 56
        E 50 b9 04 0f
        E 39 b9 04 00
        E 152 89 24 40
        E 118 b9 04 12
        E 8 99 2d 7f
        E 7 99 30 7f
        E 5 b9 04 22
        E 11 b9 04 32
        E 10 b9 04 43
        E 6 b9 04 4c
        E 2 99 2c 1e
        E 2 b9 04 53
        E 14 b9 04 43
        E 10 b9 04 32
        E 142 b9 04 43
        E 35 89 2d 40
        E 6 89 30 40
        E 32 89 2c 40
        E 61 b9 04 32
        E 35 b9 04 22
        E 20 99 24 64
        E 20 b9 04 12
        E 47 b9 04 00
        E 178 89 24 40
        E 120 99 2d 7f
        E 15 b9 04 12
        E 0 99 29 7f
        E 32 b9 04 22
        E 18 b9 04 34
        E 5 b9 04 44
        E 3 b9 04 4d
        E 2 99 2c 30
        E 2 b9 04 55
        E 14 b9 04 43
        E 8 b9 04 32
        E 5 b9 04 22
        E 99 b9 04 32
        E 41 89 2d 40
        E 15 89 29 40
        E 58 89 2c 40
        E 63 b9 04 22
        E 43 b9 04 12
        E 46 b9 04 00
        E 345 b9 04 12
        E 5 99 24 7a
        E 3 b9 04 22
        E 9 b9 04 32
        E 29 b9 04 44
        E 5 b9 04 4d
        E 2 99 2c 26
        E 3 b9 04 55
        E 17 b9 04 43
        E 7 b9 04 32
        E 12 b9 04 20
        E 158 89 24 40
        E 4 b9 04 12
        E 43 89 2c 40
        E 119 b9 04 22
        E 119 b9 04 32
        E 62 b9 04 43
        E 34 b9 04 4f
        E 2 99 2c 08
        E 9 b9 04 53
        E 153 b9 04 43
        E 34 b9 04 32
        E 21 b9 04 22
        E 2 99 24 6c
        E 25 89 2c 40
        E 12 b9 04 12
        E 46 b9 04 00
        E 160 89 24 40
        E 184 99 26 7f
        E 18 b9 04 12
        E 18 b9 04 22
        E 34 b9 04 32
        E 9 99 28 7f
        E 7 b9 04 43
        E 3 b9 04 4d
        E 2 99 2c 1c
        E 3 b9 04 53
        E 24 b9 04 41
        E 7 b9 04 30
        E 10 b9 04 20
        E 109 89 26 40
        E 16 b9 04 0f
        E 63 89 28 40
        E 12 89 2c 40
        E 135 b9 04 20
        E 29 b9 04 30
        E 29 b9 04 41
        E 15 b9 04 4d
        E 2 99 2c 0e
        E 3 b9 04 51
        E 35 b9 04 61
        E 134 b9 04 51
        E 26 b9 04 41
        E 22 b9 04 30
        E 20 b9 04 20
        E 2 89 2c 40
        E 36 b9 04 0f
        E 31 99 24 65
        E 7 b9 04 00
        E 235 89 24 40
        E 148 99 2d 7f
        E 14 99 30 7f
        E 5 b9 04 12
        E 12 b9 04 25
        E 41 b9 04 36
        E 2 b9 04 47
        E 3 b9 04 4c
        E 2 99 2c 3e
        E 5 b9 04 58
        E 11 b9 04 47
        E 9 b9 04 36
        E 7 b9 04 20
        E 106 b9 04 30
        E 27 89 2d 40
        E 12 89 30 40
        E 65 89 2c 40
        E 109 b9 04 20
        E 161 b9 04 0f
        E 184 b9 04 20
        E 17 b9 04 30
        E 20 b9 04 41
        E 12 b9 04 4d
        E 2 99 2c 10
        E 2 b9 04 51
        E 145 b9 04 41
        E 27 b9 04 30
        E 23 b9 04 20
        E 47 89 2c 40
        E 0 b9 04 0f
        E 48 b9 04 00
        E 104 99 26 7f
        E 34 89 26 40
        E 2 99 26 7f
        E 160 b9 04 12
        E 79 89 26 40
        E 105 99 26 79
        E 33 89 26 40
        E 2 99 26 7f
        E 129 b9 04 22
        E 36 b9 04 32
        E 45 b9 04 43
        E 30 89 26 40
        E 138 b9 04 32
        E 6 99 24 5b
        E 32 b9 04 22
        E 50 b9 04 12
        E 105 b9 04 00
        E 55 89 24 40
        E 119 99 2d 7f
        E 7 99 30 7f
        E 58 b9 04 12
        E 29 b9 04 22
        E 22 b9 04 32
        E 16 b9 04 43
        E 15 b9 04 4c
        E 0 99 2c 0e
        E 39 b9 04 32
        E 58 89 2d 40
        E 7 89 30 40
        E 140 89 2c 40
        E 44 b9 04 22
        E 1 99 24 52
        E 93 b9 04 12
        E 149 89 24 40
        E 58 b9 04 03
        E 83 99 2d 7f
        E 2 99 29 7f
        E 39 b9 04 15
        E 41 b9 04 25
        E 56 b9 04 15
        E 106 89 2d 40
        E 2 89 29 40
        E 58 b9 04 25
        E 49 b9 04 36
        E 2 99 29 7f
        E 41 99 2d 7f
        E 77 b9 04 25
        E 39 b9 04 15
        E 44 b9 04 03
        E 12 b9 04 00
        E 31 89 29 40
        E 41 89 2d 40
        E 155 99 24 65
        E 43 b9 04 12
        E 20 b9 04 22
        E 11 b9 04 32
        E 10 b9 04 43
        E 29 b9 04 32
        E 19 b9 04 22
        E 81 b9 04 12
        E 31 89 24 40
        E 203 b9 04 22
        E 41 b9 04 32
        E 37 b9 04 43
        E 22 b9 04 4c
        E 3 99 2c 08
        E 16 b9 04 53
        E 158 b9 04 43
        E 30 b9 04 32
        E 24 b9 04 22
        E 16 99 24 60
        E 3 89 2c 40
        E 15 b9 04 12
        E 50 b9 04 00
        E 174 89 24 40
        E 198 b9 04 12
        E 7 b9 04 25
        E 3 99 26 7f
        E 14 b9 04 36
        E 27 b9 04 46
        E 2 b9 04 4c
        E 2 99 2c 28
        E 3 b9 04 56
        E 22 b9 04 44
        E 5 b9 04 34
        E 12 b9 04 20
        E 15 89 26 40
        E 2 99 26 7f
        E 46 b9 04 0f
        E 140 89 2c 40
        E 55 89 26 40
        E 93 b9 04 20
        E 40 b9 04 30
        E 32 b9 04 41
        E 24 b9 04 4d
        E 2 99 2c 0a
        E 8 b9 04 51
        E 154 b9 04 41
        E 29 b9 04 30
        E 20 b9 04 20
        E 33 89 2c 40
        E 2 b9 04 0f
        E 44 b9 04 00
        E 19 99 24 56
        E 245 89 24 40
        E 145 99 2d 7f
        E 2 b9 04 12
        E 7 99 30 7f
        E 41 b9 04 22
        E 10 b9 04 34
        E 2 b9 04 46
        E 3 b9 04 4f
        E 2 99 2c 42
        E 5 b9 04 56
        E 12 b9 04 44
        E 7 b9 04 32
        E 7 b9 04 20
        E 126 b9 04 1a
        E 19 89 2d 40
        E 10 89 30 40
        E 58 89 2c 40
        E 240 b9 04 2c
        E 33 b9 04 3c
        E 36 b9 04 4c
        E 5 b9 04 4f
        E 2 99 2c 08
        E 182 b9 04 3c
        E 48 b9 04 2c
        E 11 89 2c 40
        E 37 b9 04 1a
        E 61 b9 04 09
        E 34 b9 04 00
        E 212 99 26 7f
        E 65 89 26 40
        E 3 99 26 7f
        E 39 b9 04 12
        E 24 b9 04 22
        E 14 b9 04 32
        E 22 b9 04 43
        E 10 b9 04 4c
        E 2 99 2c 12
        E 29 b9 04 32
        E 101 89 26 40
        E 13 b9 04 22
        E 77 b9 04 12
        E 22 89 2c 40
        E 10 99 26 77
        E 88 b9 04 00
        E 102 89 26 40
        E 2 99 26 75
        E 102 b9 04 12
        E 31 b9 04 22
        E 27 b9 04 32
        E 38 89 26 40
        E 2 99 26 6f
        E 100 b9 04 22
        E 75 b9 04 12
        E 32 89 26 40
        E 2 99 26 79
        E 215 89 26 40
        E 2 99 26 6b
        E 34 b9 04 22
        E 130 b9 04 27
        E 78 89 26 40
        E 80 b9 04 1a
        E 133 99 30 7f
        E 49 b9 04 2c
        E 195 89 30 40
        E 133 b9 04 20
        E 65 99 26 7e
        E 176 99 30 7f
        E 65 89 26 40
        E 80 b9 04 2e
        E 27 b9 04 3e
        E 21 99 26 7f
        E 10 b9 04 4c
        E 2 99 2c 0a
        E 8 b9 04 4f
        E 31 89 30 40
        E 87 b9 04 3f
        E 38 b9 04 2e
        E 26 b9 04 1d
        E 32 b9 04 0c
        E 8 89 26 40
        E 12 b9 04 00
        E 2 89 2c 40
        E 242 99 24 7f
        E 27 b9 04 12
        E 11 b9 04 22
        E 15 b9 04 32
        E 17 b9 04 44
        E 0 b9 04 4c
        E 3 99 2c 1e
        E 4 b9 04 54
        E 16 b9 04 44
        E 13 b9 04 34
        E 58 b9 04 22
        E 80 89 24 40
        E 7 b9 04 12
        E 65 89 2c 40
        E 70 b9 04 22
        E 51 b9 04 32
        E 138 b9 04 3a
        E 157 b9 04 2e
        E 82 99 24 67
        E 100 b9 04 27
        E 141 89 24 40
        E 180 b9 04 1d
        E 10 99 26 7f
        E 93 99 28 75
        E 57 b9 04 18
        E 57 b9 04 29
        E 34 89 26 40
        E 96 89 28 40
        E 15 b9 04 18
        E 201 b9 04 29
        E 33 b9 04 3a
        E 32 b9 04 4a
        E 12 b9 04 4f
        E 3 99 2c 08
        E 140 b9 04 3a
        E 33 b9 04 29
        E 36 b9 04 18
        E 32 89 2c 40
        E 7 b9 04 06
        E 5 99 24 59
        E 22 b9 04 00
        E 222 89 24 40
        E 132 99 2d 7f
        E 10 99 30 7f
        E 19 b9 04 12
        E 42 b9 04 22
        E 12 b9 04 32
        E 10 b9 04 43
        E 2 b9 04 4c
        E 2 99 2c 26
        E 3 b9 04 53
        E 22 b9 04 43
        E 4 b9 04 32
        E 14 b9 04 20
        E 105 89 2d 40
        E 9 89 30 40
        E 85 89 2c 40
        E 3 b9 04 27
        E 89 b9 04 15
        E 84 b9 04 03
        E 32 b9 04 00
        E 218 b9 04 12
        E 28 b9 04 22
        E 19 b9 04 32
        E 51 b9 04 22
        E 95 b9 04 32
        E 164 b9 04 22
        E 36 b9 04 12
        E 34 99 24 5c
        E 24 b9 04 00
        E 220 89 24 40
        E 104 b9 04 12
        E 9 99 26 7f
        E 15 b9 04 22
        E 22 b9 04 32
        E 7 b9 04 44
        E 2 b9 04 4c
        E 3 99 2c 26
        E 2 b9 04 55
        E 17 b9 04 44
        E 7 b9 04 34
        E 12 89 26 40
        E 3 99 26 7f
        E 2 b9 04 22
        E 121 b9 04 1d
        E 46 b9 04 2e
        E 31 89 2c 40
        E 41 89 26 40
        E 82 99 24 5c
        E 17 b9 04 1d
        E 63 b9 04 0c
        E 34 b9 04 00
        E 130 89 24 40
        E 155 99 2d 7f
        E 5 b9 04 12
        E 7 99 30 7f
        E 12 b9 04 25
        E 13 b9 04 36
        E 12 b9 04 46
        E 2 b9 04 4c
        E 3 99 2c 1c
        E 4 b9 04 56
        E 17 b9 04 46
        E 7 b9 04 36
        E 44 b9 04 25
        E 77 b9 04 36
        E 41 89 2d 40
        E 12 89 30 40
        E 41 89 2c 40
        E 90 b9 04 22
        E 19 99 24 61
        E 17 b9 04 12
        E 48 b9 04 00
        E 179 89 24 40
        E 157 99 2d 7f
        E 15 b9 04 12
        E 24 b9 04 22
        E 7 b9 04 32
        E 5 b9 04 43
        E 22 b9 04 32
        E 9 b9 04 20
        E 27 b9 04 0f
        E 135 89 2d 40
        E 52 b9 04 20
        E 21 b9 04 30
        E 36 b9 04 41
        E 31 99 29 7f
        E 34 99 2d 7f
        E 58 b9 04 30
        E 22 b9 04 20
        E 36 b9 04 0f
        E 29 b9 04 00
        E 65 89 29 40
        E 32 89 2d 40
        E 154 99 24 71
        E 17 b9 04 12
        E 20 b9 04 22
        E 16 b9 04 32
        E 8 b9 04 43
        E 2 b9 04 4c
        E 3 99 2c 22
        E 4 b9 04 54
        E 20 b9 04 44
        E 12 b9 04 34
        E 62 b9 04 22
        E 80 89 24 40
        E 2 b9 04 12
        E 63 89 2c 40
        E 138 b9 04 22
        E 32 b9 04 32
        E 36 b9 04 43
        E 34 b9 04 4f
        E 2 99 2c 08
        E 17 b9 04 53
        E 152 b9 04 43
        E 34 b9 04 32
        E 21 b9 04 22
        E 7 99 24 5f
        E 13 89 2c 40
        E 19 b9 04 12
        E 51 b9 04 00
        E 160 89 24 40
        E 207 99 26 7f
        E 3 b9 04 12
        E 14 b9 04 22
        E 36 b9 04 32
        E 10 b9 04 44
        E 2 b9 04 4c
        E 3 99 2c 2c
        E 3 b9 04 54
        E 16 b9 04 44
        E 5 b9 04 34
        E 12 b9 04 20
        E 5 89 26 40
        E 2 99 26 7f
        E 58 b9 04 0f
        E 143 89 2c 40
        E 41 89 26 40
        E 85 b9 04 20
        E 34 b9 04 30
        E 34 b9 04 41
        E 23 b9 04 4d
        E 3 99 2c 0a
        E 12 b9 04 51
        E 135 b9 04 58
        E 41 b9 04 47
        E 30 b9 04 36
        E 26 89 2c 40
        E 5 b9 04 22
        E 34 b9 04 12
        E 36 99 24 5c
        E 14 b9 04 00
        E 229 89 24 40
        E 151 b9 04 12
        E 2 99 2d 7f
        E 8 b9 04 25
        E 4 99 30 7f
        E 36 b9 04 36
        E 10 b9 04 47
        E 3 b9 04 4d
        E 2 99 2c 2c
        E 2 b9 04 58
        E 17 b9 04 47
        E 7 b9 04 36
        E 10 b9 04 25
        E 121 b9 04 1d
        E 24 89 2d 40
        E 12 89 30 40
        E 51 89 2c 40
        E 11 b9 04 2e
        E 252 b9 04 1d
        E 90 b9 04 0c
        E 65 b9 04 00
        E 132 b9 04 12
        E 30 b9 04 25
        E 21 b9 04 36
        E 18 b9 04 46
        E 7 b9 04 4c
        E 2 99 2c 10
        E 67 b9 04 36
        E 177 89 2c 40
        E 75 b9 04 3c
        E 53 b9 04 2c
        E 5 99 24 53
        E 36 b9 04 1a
        E 41 b9 04 09
        E 27 b9 04 00
        E 137 89 24 40
        E 90 99 26 7f
        E 63 b9 04 12
        E 19 b9 04 22
        E 3 99 28 6d
        E 9 b9 04 32
        E 5 b9 04 43
        E 2 b9 04 4c
        E 2 99 2c 24
        E 25 b9 04 32
        E 9 b9 04 22
        E 107 89 26 40
        E 40 b9 04 32
        E 44 89 28 40
        E 18 89 2c 40
        E 94 b9 04 22
        E 9 99 24 55
        E 46 b9 04 12
        E 75 b9 04 00
        E 123 89 24 40
        E 172 99 30 7f
        E 17 b9 04 12
        E 16 99 2d 7f
        E 15 b9 04 22
        E 15 b9 04 32
        E 36 b9 04 20
        E 46 b9 04 0f
        E 99 89 30 40
        E 29 89 2d 40
        E 126 99 30 7f
        E 9 99 2d 7f
        E 8 b9 04 20
        E 84 b9 04 30
        E 142 89 30 40
        E 11 89 2d 40
        E 142 b9 04 20
        E 24 99 2d 7f
        E 2 99 30 7f
        E 239 89 2d 40
        E 3 89 30 40
        E 118 99 2d 7f
        E 7 b9 04 30
        E 34 b9 04 41
        E 8 99 30 7f
        E 24 b9 04 4c
        E 2 99 2c 08
        E 143 b9 04 30
        E 24 b9 04 20
        E 2 89 2d 40
        E 27 b9 04 0f
        E 21 89 30 40
        E 8 b9 04 00
        E 19 89 2c 40
        E 170 99 24 7e
        E 70 b9 04 12
        E 14 b9 04 22
        E 7 b9 04 32
        E 7 b9 04 43
        E 5 b9 04 4c
        E 3 99 2c 20
        E 4 b9 04 53
        E 22 b9 04 43
        E 41 b9 04 32
        E 71 89 24 40
        E 0 b9 04 22
        E 106 89 2c 40
        E 31 b9 04 18
        E 155 b9 04 29
        E 21 b9 04 3a
        E 30 b9 04 4a
        E 14 b9 04 4f
        E 2 99 2c 0a
        E 160 b9 04 3a
        E 24 99 24 5d
        E 5 b9 04 29
        E 34 b9 04 18
        E 21 89 2c 40
        E 24 b9 04 06
        E 27 b9 04 00
        E 133 89 24 40
        E 181 99 26 7f
        E 73 b9 04 12
        E 36 b9 04 22
        E 10 99 28 7a
        E 4 b9 04 32
        E 7 b9 04 44
        E 3 b9 04 4c
        E 2 99 2c 2c
        E 3 b9 04 54
        E 17 b9 04 44
        E 7 b9 04 32
        E 9 b9 04 20
        E 71 89 26 40
        E 58 b9 04 15
        E 62 89 28 40
        E 17 89 2c 40
        E 102 b9 04 25
        E 58 b9 04 36
        E 31 b9 04 46
        E 15 b9 04 4f
        E 2 99 2c 0a
        E 12 b9 04 56
        E 162 b9 04 46
        E 24 b9 04 36
        E 27 b9 04 25
        E 17 89 2c 40
        E 12 b9 04 15
        E 34 b9 04 03
        E 9 99 24 6c
        E 3 b9 04 00
        E 242 89 24 40
        E 135 99 2d 7f
        E 5 b9 04 12
        E 14 99 30 7f
        E 39 b9 04 22
        E 9 b9 04 32
        E 8 b9 04 44
        E 0 b9 04 4c
        E 4 99 2c 2e
        E 0 b9 04 54
        E 13 b9 04 44
        E 4 b9 04 34
        E 10 b9 04 20
        E 24 b9 04 0f
        E 111 89 2d 40
        E 20 89 30 40
        E 60 89 2c 40
        E 167 b9 04 20
        E 139 b9 04 2c
        E 285 b9 04 3c
        E 33 b9 04 4c
        E 7 b9 04 4f
        E 2 99 2c 0c
        E 39 b9 04 5c
        E 109 b9 04 4c
        E 28 b9 04 3c
        E 34 b9 04 2c
        E 24 99 24 5c
        E 7 b9 04 1a
        E 2 89 2c 40
        E 35 b9 04 09
        E 19 b9 04 00
        E 182 89 24 40
        E 156 b9 04 12
        E 5 99 26 7f
        E 13 b9 04 25
        E 33 b9 04 36
        E 10 b9 04 46
        E 2 b9 04 4d
        E 3 99 2c 28
        E 1 b9 04 56
        E 22 b9 04 46
        E 5 b9 04 36
        E 2 99 28 70
        E 23 b9 04 25
        E 130 89 26 40
        E 59 89 2c 40
        E 30 89 28 40
        E 44 b9 04 2c
        E 51 b9 04 1a
        E 24 99 24 58
        E 25 b9 04 09
        E 21 b9 04 00
        E 193 89 24 40
        E 140 99 30 7f
        E 8 99 2d 7f
        E 24 b9 04 12
        E 43 b9 04 22
        E 19 b9 04 32
        E 12 b9 04 43
        E 10 b9 04 4c
        E 3 99 2c 12
        E 22 b9 04 32
        E 12 b9 04 22
        E 50 b9 04 12
        E 39 89 30 40
        E 10 89 2d 40
        E 111 89 2c 40
        E 53 99 30 7f
        E 16 99 2d 7f
        E 42 b9 04 22
        E 80 b9 04 32
        E 106 89 30 40
        E 16 89 2d 40
        E 138 99 2d 7f
        E 5 99 30 7f
        E 131 b9 04 29
        E 108 89 2d 40
        E 5 89 30 40
        E 143 99 2d 7f
        E 22 b9 04 3a
        E 7 99 30 7f
        E 126 b9 04 44
        E 80 b9 04 34
        E 9 89 2d 40
        E 28 89 30 40
        E 29 b9 04 22
        E 90 b9 04 12
        E 68 99 24 7d
        E 171 b9 04 22
        E 73 89 24 40
        E 87 b9 04 15
        E 224 b9 04 25
        E 56 b9 04 36
        E 51 b9 04 46
        E 121 b9 04 36
        E 40 b9 04 25
        E 6 99 24 68
        E 33 b9 04 15
        E 63 b9 04 03
        E 15 b9 04 00
        E 133 89 24 40
        E 202 99 26 7f
        E 27 b9 04 12
        E 39 b9 04 25
        E 17 b9 04 36
        E 9 b9 04 46
        E 3 b9 04 4c
        E 2 99 2c 1e
        E 5 b9 04 56
        E 17 99 28 7f
        E 17 b9 04 46
        E 29 b9 04 36
        E 31 b9 04 25
        E 34 b9 04 15
        E 12 89 26 40
        E 68 b9 04 03
        E 26 89 2c 40
        E 27 89 28 40
        E 162 b9 04 15
        E 55 b9 04 25
        E 30 b9 04 36
        E 49 b9 04 46
        E 115 b9 04 36
        E 34 b9 04 25
        E 31 b9 04 15
        E 51 b9 04 03
        E 16 99 24 56
        E 3 b9 04 00
        E 242 89 24 40
        E 142 b9 04 12
        E 8 99 30 7f
        E 2 99 2d 7f
        E 4 b9 04 22
        E 37 b9 04 32
        E 12 b9 04 43
        E 3 b9 04 4c
        E 2 99 2c 20
        E 4 b9 04 54
        E 20 b9 04 43
        E 7 b9 04 32
        E 15 b9 04 22
        E 113 b9 04 12
        E 24 89 30 40
        E 3 89 2d 40
        E 57 89 2c 40
        E 100 b9 04 22
        E 63 b9 04 32
        E 147 b9 04 3a
        E 104 b9 04 29
        E 73 b9 04 18
        E 221 b9 04 29
        E 17 b9 04 3a
        E 18 b9 04 4a
        E 7 b9 04 4f
        E 2 99 2c 0e
        E 15 b9 04 5a
        E 148 b9 04 4a
        E 28 b9 04 3a
        E 26 b9 04 29
        E 27 89 2c 40
        E 5 b9 04 18
        E 7 99 24 57
        E 39 b9 04 06
        E 27 b9 04 00
        E 178 89 24 40
        E 126 99 26 7f
        E 36 b9 04 12
        E 38 b9 04 22
        E 10 b9 04 32
        E 8 b9 04 44
        E 2 b9 04 4c
        E 3 99 2c 26
        E 7 89 26 40
        E 2 99 26 7f
        E 12 b9 04 32
        E 8 b9 04 20
        E 188 b9 04 30
        E 27 89 2c 40
        E 7 89 26 40
        E 116 b9 04 20
        E 2 99 24 5c
        E 63 b9 04 0f
        E 44 b9 04 00
        E 135 89 24 40
        E 203 b9 04 12
        E 9 99 30 7d
        E 10 99 2d 7f
        E 32 b9 04 22
        E 14 b9 04 32
        E 7 b9 04 43
        E 8 b9 04 4c
        E 3 99 2c 1e
        E 16 b9 04 32
        E 8 b9 04 22
        E 21 b9 04 12
        E 125 89 30 40
        E 8 89 2d 40
        E 63 89 2c 40
        E 86 99 30 7f
        E 20 99 2d 7f
        E 2 b9 04 22
        E 53 b9 04 32
        E 131 b9 04 3f
        E 39 89 30 40
        E 17 89 2d 40
        E 45 b9 04 2e
        E 97 99 30 7f
        E 29 99 2d 7f
        E 24 b9 04 20
        E 188 89 30 40
        E 29 89 2d 40
        E 141 b9 04 30
        E 4 99 2d 7f
        E 22 99 30 7f
        E 159 b9 04 20
        E 63 89 2d 40
        E 22 89 30 40
        E 114 b9 04 18
        E 41 99 24 6c
        E 234 b9 04 1d
        E 10 89 24 40
        E 336 b9 04 2c
        E 79 b9 04 3c
        E 177 b9 04 2c
        E 7 99 24 68
        E 38 b9 04 1a
        E 51 b9 04 09
        E 32 b9 04 00
        E 123 89 24 40
        E 174 99 26 7f
        E 53 b9 04 12
        E 12 b9 04 25
        E 29 99 28 7f
        E 10 b9 04 36
        E 7 b9 04 47
        E 3 b9 04 4c
        E 2 99 2c 22
        E 3 b9 04 57
        E 21 b9 04 46
        E 7 b9 04 36
        E 46 b9 04 25
        E 41 b9 04 15
        E 10 89 26 40
        E 94 89 28 40
        E 20 89 2c 40
        E 38 b9 04 09
        E 97 b9 04 1a
        E 36 b9 04 2c
        E 24 b9 04 3c
        E 32 b9 04 4c
        E 4 b9 04 4d
        E 3 99 2c 0a
        E 125 b9 04 3c
        E 30 b9 04 2c
        E 28 b9 04 1a
        E 27 99 24 65
        E 10 b9 04 09
        E 22 89 2c 40
        E 2 b9 04 00
        E 208 89 24 40
        E 198 99 2d 7f
        E 2 99 30 7f
        E 27 b9 04 12
        E 22 b9 04 22
        E 36 b9 04 32
        E 5 b9 04 43
        E 4 b9 04 4c
        E 3 99 2c 2c
        E 17 b9 04 30
        E 7 b9 04 20
        E 19 b9 04 0f
        E 100 89 2d 40
        E 2 89 30 40
        E 89 b9 04 18
        E 8 89 2c 40
        E 77 b9 04 29
        E 150 b9 04 32
        E 96 b9 04 22
        E 75 b9 04 12
        E 150 b9 04 03
        E 56 b9 04 15
        E 19 b9 04 25
        E 17 b9 04 36
        E 17 b9 04 46
        E 7 b9 04 4d
        E 2 99 2c 10
        E 10 b9 04 56
        E 127 b9 04 46
        E 40 b9 04 36
        E 41 b9 04 25
        E 24 89 2c 40
        E 14 99 24 56
        E 0 b9 04 15
        E 52 b9 04 03
        E 13 b9 04 00
        E 177 89 24 40
        E 131 99 26 7f
        E 16 b9 04 12
        E 22 b9 04 22
        E 12 b9 04 32
        E 10 b9 04 43
        E 5 b9 04 4c
        E 2 99 2c 1e
        E 5 89 26 40
        E 2 99 26 7f
        E 11 b9 04 32
        E 11 b9 04 20
        E 130 b9 04 1a
        E 52 b9 04 2c
        E 33 89 2c 40
        E 2 89 26 40
        E 117 99 24 56
        E 36 b9 04 1a
        E 53 b9 04 09
        E 31 b9 04 00
        E 121 89 24 40
        E 196 99 29 7f
        E 4 b9 04 12
        E 18 b9 04 22
        E 7 99 2d 7f
        E 22 b9 04 32
        E 9 b9 04 43
        E 7 b9 04 4c
        E 2 99 2c 1a
        E 3 b9 04 53
        E 37 b9 04 43
        E 31 b9 04 32
        E 29 b9 04 22
        E 55 b9 04 12
        E 18 89 29 40
        E 26 89 2d 40
        E 43 89 2c 40
        E 102 99 29 7f
        E 34 99 2d 7f
        E 82 b9 04 22
        E 128 89 29 40
        E 33 89 2d 40
        E 51 b9 04 12
        E 107 99 29 7f
        E 25 99 2d 7f
        E 65 b9 04 0c
        E 152 89 29 40
        E 26 89 2d 40
        E 12 b9 04 1d
        E 116 99 29 7f
        E 20 99 2d 7f
        E 159 b9 04 2e
        E 65 89 29 40
        E 17 89 2d 40
        E 41 b9 04 1d
        E 73 b9 04 0c
        E 57 b9 04 00
        E 5 99 24 59
        E 186 b9 04 12
        E 42 b9 04 22
        E 16 89 24 40
        E 73 b9 04 12
        E 304 b9 04 22
        E 39 b9 04 32
        E 48 b9 04 43
        E 117 b9 04 32
        E 5 99 24 57
        E 28 b9 04 22
        E 49 b9 04 12
        E 53 b9 04 00
        E 115 89 24 40
        E 204 99 26 7f
        E 45 b9 04 12
        E 44 b9 04 22
        E 10 b9 04 32
        E 10 b9 04 43
        E 4 89 26 40
        E 3 99 26 7f
        E 2 b9 04 4c
        E 2 99 2c 1e
        E 22 b9 04 32
        E 36 b9 04 22
        E 51 b9 04 12
        E 128 89 26 40
        E 5 89 2c 40
        E 41 b9 04 09
        E 82 b9 04 1a
        E 32 b9 04 2c
        E 21 b9 04 3c
        E 24 b9 04 4c
        E 2 b9 04 4d
        E 3 99 2c 0c
        E 149 b9 04 3c
        E 27 b9 04 2c
        E 29 b9 04 1a
        E 34 b9 04 09
        E 3 89 2c 40
        E 22 99 24 60
        E 4 b9 04 00
        E 240 89 24 40
        E 168 99 2d 7f
        E 10 99 30 7f
        E 3 b9 04 12
        E 9 b9 04 25
        E 34 b9 04 36
        E 10 b9 04 46
        E 2 b9 04 4d
        E 2 99 2c 2a
        E 3 b9 04 58
        E 17 b9 04 47
        E 7 b9 04 36
        E 12 b9 04 25
        E 124 b9 04 1d
        E 12 89 2d 40
        E 9 89 30 40
        E 61 89 2c 40
        E 108 b9 04 2e
        E 261 b9 04 1d
        E 158 b9 04 0f
        E 113 b9 04 20
        E 22 b9 04 30
        E 19 b9 04 41
        E 14 b9 04 4d
        E 3 99 2c 0e
        E 203 b9 04 30
        E 38 89 2c 40
        E 5 b9 04 20
        E 20 99 24 52
        E 43 b9 04 0f
        E 48 b9 04 00
        E 150 89 24 40
        E 114 99 26 7f
        E 43 b9 04 12
        E 24 b9 04 22
        E 7 b9 04 32
        E 13 b9 04 43
        E 2 b9 04 4c
        E 2 99 2c 1e
        E 3 b9 04 53
        E 21 b9 04 43
        E 8 99 28 7f
        E 2 b9 04 32
        E 48 b9 04 22
        E 70 89 26 40
        E 61 b9 04 18
        E 29 89 2c 40
        E 32 b9 04 29
        E 2 89 28 40
        E 85 99 24 4a
        E 48 b9 04 30
        E 50 b9 04 20
        E 68 b9 04 0f
        E 46 b9 04 00
        E 31 89 24 40
        E 213 99 2d 7f
        E 10 b9 04 12
        E 4 99 30 73
        E 15 b9 04 25
        E 15 b9 04 36
        E 14 b9 04 46
        E 5 b9 04 4c
        E 2 99 2c 14
        E 8 b9 04 56
        E 29 b9 04 46
        E 38 b9 04 36
        E 104 89 2d 40
        E 14 89 30 40
        E 13 b9 04 2c
        E 38 89 2c 40
        E 12 b9 04 3c
        E 107 99 24 54
        E 56 b9 04 2c
        E 48 b9 04 1a
        E 44 b9 04 09
        E 26 b9 04 00
        E 70 89 24 40
        E 133 99 26 7f
        E 85 89 26 40
        E 2 99 26 7f
        E 2 b9 04 12
        E 34 b9 04 25
        E 7 b9 04 36
        E 5 b9 04 46
        E 5 b9 04 4c
        E 2 99 2c 24
        E 13 b9 04 36
        E 7 b9 04 25
        E 12 b9 04 15
        E 144 b9 04 25
        E 10 89 26 40
        E 58 89 2c 40
        E 109 b9 04 15
        E 60 b9 04 03
        E 10 b9 04 00
        E 358 99 24 7f
        E 2 99 31 7f
        E 2 b9 04 12
        E 7 b9 04 25
        E 5 99 3b 7f
        E 29 b9 04 36
        E 13 b9 04 46
        E 2 b9 04 4d
        E 1 99 2c 24
        E 1 b9 04 56
        E 17 b9 04 46
        E 5 b9 04 36
        E 12 b9 04 25
        E 148 89 24 40
        E 2 89 31 40
        E 14 89 3b 40
        E 44 89 2c 40
        E 58 b9 04 29
        E 77 b9 04 18
        E 71 b9 04 06
        E 26 b9 04 00
        E 247 b9 04 12
        E 19 b9 04 22
        E 14 b9 04 32
        E 10 b9 04 43
        E 29 b9 04 32
        E 125 b9 04 2e
        E 44 b9 04 3e
        E 67 b9 04 4c
        E 4 99 2c 06
        E 67 b9 04 47
        E 60 99 24 47
        E 9 b9 04 36
        E 61 b9 04 22
        E 44 89 2c 40
        E 29 b9 04 12
        E 99 89 24 40
        E 7 b9 04 00
        E 280 b9 04 12
        E 35 b9 04 22
        E 11 b9 04 32
        E 7 b9 04 43
        E 7 b9 04 4c
        E 3 99 2c 1e
        E 17 b9 04 32
        E 14 b9 04 22
        E 34 b9 04 32
        E 174 89 2c 40
        E 3 b9 04 22
        E 53 b9 04 12
        E 99 b9 04 00
        E 234 99 26 7f
        E 63 b9 04 12
        E 24 b9 04 22
        E 14 b9 04 32
        E 13 b9 04 43
        E 5 99 28 48
        E 2 b9 04 4c
        E 3 99 2c 1a
        E 21 b9 04 32
        E 10 b9 04 22
        E 89 89 26 40
        E 116 89 28 40
        E 5 89 2c 40
        E 5 b9 04 2e
        E 87 b9 04 1d
        E 96 b9 04 0c
        E 58 b9 04 00
        E 247 b9 04 12
        E 27 b9 04 25
        E 11 b9 04 36
        E 34 b9 04 25
        E 99 b9 04 36
        E 138 b9 04 3e
        E 43 b9 04 2e
        E 30 99 24 51
        E 12 b9 04 1d
        E 53 b9 04 0c
        E 43 b9 04 00
        E 133 89 24 40
        E 164 99 2d 7f
        E 3 b9 04 12
        E 6 99 30 7f
        E 28 b9 04 22
        E 12 b9 04 32
        E 12 b9 04 43
        E 2 b9 04 4c
        E 2 99 2c 1e
        E 3 b9 04 54
        E 24 b9 04 44
        E 7 b9 04 34
        E 46 b9 04 22
        E 102 89 2d 40
        E 7 89 30 40
        E 20 b9 04 32
        E 33 89 2c 40
        E 121 99 24 4c
        E 26 b9 04 22
        E 46 b9 04 12
        E 41 b9 04 00
        E 126 89 24 40
        E 143 99 26 68
        E 38 b9 04 12
        E 15 b9 04 22
        E 27 89 26 40
        E 2 99 26 7f
        E 3 b9 04 32
        E 7 b9 04 44
        E 4 b9 04 4d
        E 3 99 2c 26
        E 2 b9 04 54
        E 15 b9 04 44
        E 5 b9 04 34
        E 9 b9 04 22
        E 181 b9 04 32
        E 10 89 26 40
        E 20 89 2c 40
        E 101 b9 04 22
        E 7 99 24 5b
        E 49 b9 04 12
        E 53 b9 04 00
        E 142 89 24 40
        E 150 99 2d 7f
        E 7 99 30 7f
        E 29 b9 04 12
        E 44 b9 04 22
        E 9 b9 04 32
        E 5 b9 04 43
        E 3 b9 04 4c
        E 2 99 2c 26
        E 17 b9 04 32
        E 7 b9 04 20
        E 19 b9 04 0f
        E 102 89 2d 40
        E 7 89 30 40
        E 42 b9 04 20
        E 49 89 2c 40
        E 81 b9 04 27
        E 50 b9 04 15
        E 56 b9 04 03
        E 12 b9 04 00
        E 334 99 24 7f
        E 2 b9 04 12
        E 5 99 31 7f
        E 2 b9 04 25
        E 10 99 33 7f
        E 2 b9 04 36
        E 29 b9 04 47
        E 3 b9 04 4c
        E 2 99 2c 20
        E 22 b9 04 36
        E 12 b9 04 25
        E 154 89 24 40
        E 8 89 31 40
        E 12 89 33 40
        E 14 b9 04 36
        E 20 89 2c 40
        E 118 b9 04 25
        E 58 b9 04 15
        E 118 b9 04 03
        E 39 b9 04 00
        E 111 b9 04 12
        E 27 b9 04 22
        E 14 b9 04 32
        E 17 b9 04 43
        E 10 b9 04 4c
        E 2 99 2c 0e
        E 7 b9 04 53
        E 235 89 2c 40
        E 237 b9 04 5c
        E 427 b9 04 58
        E 305 b9 04 47
        E 51 b9 04 36
        E 53 b9 04 25
        E 67 b9 04 15
        E 53 b9 04 03
        E 24 b9 04 00
        E 199 b9 04 12
        E 21 b9 04 22
        E 12 b9 04 32
        E 13 b9 04 43
        E 2 99 26 7f
        E 7 b9 04 4c
        E 2 99 2c 14
        E 15 b9 04 53
        E 46 b9 04 43
        E 16 89 26 40
        E 3 99 26 7f
        E 17 b9 04 32
        E 136 b9 04 27
        E 11 89 2c 40
        E 78 89 26 40
        E 36 b9 04 38
        E 170 b9 04 3c
        E 115 99 24 1b
        E 65 b9 04 36
        E 160 b9 04 46
        E 19 89 24 40
        E 8 b9 04 4f
        E 2 99 2c 08
        E 36 b9 04 56
        E 147 b9 04 5e
        E 61 89 2c 40
        E 7 b9 04 4d
        E 41 b9 04 3c
        E 32 b9 04 2c
        E 12 99 24 60
        E 22 b9 04 1a
        E 41 b9 04 09
        E 29 b9 04 00
        E 150 89 24 40
        E 133 99 2d 7f
        E 21 99 30 7f
        E 2 b9 04 12
        E 7 b9 04 25
        E 18 b9 04 36
        E 19 b9 04 46
        E 4 b9 04 4d
        E 3 99 2c 1a
        E 3 b9 04 56
        E 9 b9 04 66
        E 17 b9 04 56
        E 8 b9 04 46
        E 40 b9 04 36
        E 28 b9 04 25
        E 62 89 2d 40
        E 22 89 30 40
        E 43 b9 04 20
        E 7 89 2c 40
        E 39 b9 04 30
        E 48 b9 04 41
        E 61 99 24 4a
        E 70 b9 04 30
        E 33 b9 04 20
        E 44 b9 04 0f
        E 34 b9 04 00
        E 60 89 24 40
        E 133 99 26 75
        E 58 89 26 40
        E 2 99 26 7f
        E 3 b9 04 12
        E 19 b9 04 25
        E 12 b9 04 36
        E 10 b9 04 46
        E 3 b9 04 4c
        E 2 99 2c 18
        E 9 b9 04 56
        E 27 b9 04 46
        E 25 b9 04 36
        E 48 b9 04 25
        E 84 89 26 40
        E 34 b9 04 36
        E 15 89 2c 40
        E 103 99 24 52
        E 35 b9 04 25
        E 45 b9 04 15
        E 61 b9 04 03
        E 12 b9 04 00
        E 91 89 24 40
        E 145 99 30 7f
        E 3 99 2d 7f
        E 34 b9 04 12
        E 29 b9 04 22
        E 14 b9 04 32
        E 9 b9 04 44
        E 5 b9 04 4c
        E 3 99 2c 22
        E 2 b9 04 54
        E 22 b9 04 44
        E 8 b9 04 34
        E 19 b9 04 22
        E 97 89 30 40
        E 2 89 2d 40
        E 53 b9 04 32
        E 38 89 2c 40
        E 134 b9 04 22
        E 43 b9 04 12
        E 46 b9 04 00
        E 309 99 24 7f
        E 3 b9 04 12
        E 2 99 31 7f
        E 7 b9 04 25
        E 10 99 3b 7f
        E 2 b9 04 36
        E 27 b9 04 46
        E 2 b9 04 4c
        E 3 99 2c 1e
        E 5 b9 04 56
        E 4 b9 04 66
        E 14 b9 04 55
        E 8 b9 04 44
        E 17 b9 04 34
        E 45 b9 04 20
        E 95 89 24 40
        E 5 89 31 40
        E 17 89 3b 40
        E 34 89 2c 40
        E 19 b9 04 30
        E 133 b9 04 38
        E 73 b9 04 27
        E 91 b9 04 15
        E 138 b9 04 03
        E 46 b9 04 00
        E 172 b9 04 12
        E 25 b9 04 22
        E 11 b9 04 32
        E 9 b9 04 43
        E 17 b9 04 32
        E 7 b9 04 22
        E 107 b9 04 32
        E 174 b9 04 22
        E 75 b9 04 12
        E 157 b9 04 00
        E 159 b9 04 12
        E 19 b9 04 22
        E 10 b9 04 32
        E 16 b9 04 43
        E 9 b9 04 4c
        E 2 99 2c 12
        E 7 b9 04 53
        E 29 b9 04 63
        E 130 b9 04 53
        E 39 b9 04 43
        E 36 b9 04 32
        E 2 89 2c 40
        E 25 b9 04 22
        E 41 b9 04 12
        E 75 b9 04 00
        E 396 99 26 7f
        E 10 b9 04 12
        E 14 b9 04 22
        E 5 b9 04 34
        E 5 b9 04 46
        E 2 b9 04 4d
        E 3 99 2c 40
        E 2 b9 04 56
        E 12 b9 04 46
        E 5 b9 04 36
        E 5 b9 04 22
        E 24 89 26 40
        E 3 99 26 7f
        E 190 89 2c 40
        E 51 89 26 40
        E 34 b9 04 12
        E 128 b9 04 00
        E 256 b9 04 12
        E 24 b9 04 25
        E 20 b9 04 36
        E 12 b9 04 46
        E 9 b9 04 4c
        E 3 99 2c 12
        E 17 b9 04 36
        E 65 b9 04 25
        E 92 b9 04 36
        E 50 b9 04 46
        E 18 89 2c 40
        E 118 b9 04 36
        E 38 b9 04 22
        E 47 b9 04 12
        E 7 99 24 6c
        E 45 b9 04 00
        E 197 89 24 40
        E 120 b9 04 12
        E 14 b9 04 22
        E 20 99 2d 7f
        E 2 b9 04 32
        E 3 99 30 7f
        E 11 b9 04 43
        E 3 b9 04 4c
        E 3 99 2c 24
        E 5 b9 04 54
        E 4 b9 04 65
        E 12 b9 04 54
        E 5 b9 04 44
        E 7 b9 04 34
        E 41 b9 04 22
        E 145 89 2d 40
        E 5 89 30 40
        E 19 89 2c 40
        E 10 b9 04 32
        E 48 b9 04 43
        E 107 b9 04 32
        E 2 99 24 50
        E 34 b9 04 22
        E 48 b9 04 12
        E 46 b9 04 00
        E 116 89 24 40
        E 111 99 26 75
        E 63 89 26 40
        E 2 99 26 7f
        E 5 b9 04 12
        E 10 b9 04 22
        E 10 b9 04 32
        E 26 b9 04 43
        E 5 b9 04 4c
        E 3 99 2c 1e
        E 2 b9 04 54
        E 5 b9 04 65
        E 14 b9 04 54
        E 8 b9 04 44
        E 7 b9 04 34
        E 147 89 26 40
        E 56 89 2c 40
        E 45 b9 04 22
        E 42 99 24 58
        E 11 b9 04 12
        E 61 b9 04 00
        E 169 89 24 40
        E 140 99 2d 7f
        E 8 99 30 7f
        E 34 b9 04 12
        E 11 b9 04 22
        E 39 b9 04 32
        E 3 b9 04 43
        E 5 b9 04 4d
        E 2 99 2c 2c
        E 5 b9 04 54
        E 12 b9 04 44
        E 4 b9 04 32
        E 8 b9 04 20
        E 111 89 2d 40
        E 10 89 30 40
        E 31 b9 04 30
        E 60 89 2c 40
        E 111 b9 04 20
        E 46 b9 04 0f
        E 35 b9 04 00
        E 337 99 24 7f
        E 3 b9 04 12
        E 5 99 31 7f
        E 2 b9 04 25
        E 5 b9 04 36
        E 7 99 33 7f
        E 23 b9 04 46
        E 4 b9 04 4c
        E 2 99 2c 1c
        E 2 b9 04 57
        E 17 b9 04 47
        E 8 b9 04 36
        E 14 b9 04 25
        E 63 b9 04 36
        E 90 89 24 40
        E 7 89 31 40
        E 14 89 33 40
        E 27 89 2c 40
        E 36 b9 04 25
        E 36 b9 04 15
        E 42 b9 04 03
        E 9 b9 04 00
        E 353 b9 04 12
        E 7 b9 04 25
        E 31 99 33 6d
        E 3 99 24 6c
        E 7 b9 04 36
        E 10 b9 04 46
        E 2 b9 04 4c
        E 5 99 2c 1e
        E 14 b9 04 36
        E 10 b9 04 22
        E 95 b9 04 32
        E 82 b9 04 22
        E 16 89 33 40
        E 2 89 24 40
        E 25 89 2c 40
        E 17 b9 04 12
        E 65 b9 04 00
        E 124 99 28 6c
        E 202 b9 04 12
        E 12 b9 04 22
        E 27 89 28 40
        E 2 b9 04 32
        E 39 b9 04 22
        E 16 b9 04 12
        E 97 99 33 5d
        E 85 b9 04 22
        E 23 b9 04 32
        E 36 b9 04 43
        E 26 b9 04 4c
        E 2 99 2c 08
        E 73 89 33 40
        E 55 b9 04 32
        E 24 b9 04 22
        E 29 b9 04 12
        E 35 b9 04 00
        E 5 99 24 71
        E 23 89 2c 40
        E 220 89 24 40
        E 128 b9 04 12
        E 7 b9 04 22
        E 5 b9 04 32
        E 17 99 26 7f
        E 22 99 33 7f
        E 2 b9 04 44
        E 3 b9 04 4c
        E 2 99 2c 24
        E 17 b9 04 32
        E 7 b9 04 20
        E 16 b9 04 0f
        E 139 b9 04 20
        E 36 89 26 40
        E 19 89 33 40
        E 8 89 2c 40
        E 114 b9 04 0f
        E 45 b9 04 00
        E 322 b9 04 12
        E 36 b9 04 22
        E 14 b9 04 32
        E 7 b9 04 43
        E 5 b9 04 4c
        E 2 99 2c 22
        E 3 99 33 7c
        E 15 b9 04 32
        E 6 b9 04 22
        E 117 b9 04 32
        E 101 b9 04 22
        E 3 89 2c 40
        E 2 89 33 40
        E 53 b9 04 12
        E 51 b9 04 00
        E 97 99 26 7f
        E 239 b9 04 12
        E 5 89 26 40
        E 5 b9 04 25
        E 9 b9 04 36
        E 34 b9 04 46
        E 0 b9 04 4c
        E 2 99 2c 1c
        E 5 b9 04 56
        E 26 b9 04 44
        E 23 b9 04 34
        E 46 b9 04 22
        E 16 99 33 7f
        E 35 b9 04 12
        E 91 89 2c 40
        E 53 b9 04 25
        E 29 b9 04 36
        E 39 89 33 40
        E 111 99 24 5c
        E 17 b9 04 25
        E 34 b9 04 15
        E 36 b9 04 03
        E 7 b9 04 00
        E 150 89 24 40
        E 173 b9 04 12
        E 8 99 26 70
        E 3 b9 04 25
        E 5 b9 04 36
        E 11 99 33 6b
        E 20 b9 04 47
        E 2 b9 04 4c
        E 5 99 2c 1e
        E 3 b9 04 58
        E 16 b9 04 47
        E 10 b9 04 36
        E 37 b9 04 25
        E 130 89 26 40
        E 19 89 33 40
        E 22 b9 04 36
        E 5 89 2c 40
        E 128 b9 04 25
        E 19 99 24 56
        E 22 b9 04 15
        E 38 b9 04 03
        E 15 b9 04 00
        E 167 89 24 40
        E 137 99 33 7f
        E 8 99 26 69
        E 2 b9 04 12
        E 12 b9 04 22
        E 27 b9 04 32
        E 13 b9 04 43
        E 6 b9 04 4c
        E 2 99 2c 2a
        E 3 b9 04 54
        E 17 b9 04 43
        E 7 b9 04 32
        E 7 b9 04 22
        E 141 89 33 40
        E 4 89 26 40
        E 17 b9 04 32
        E 46 89 2c 40
        E 77 b9 04 22
        E 39 b9 04 12
        E 20 99 26 78
        E 21 b9 04 00
        E 221 89 26 40
        E 95 b9 04 12
        E 12 b9 04 25
        E 24 b9 04 36
        E 3 99 24 78
        E 13 b9 04 46
        E 2 b9 04 4c
        E 5 99 2c 1e
        E 6 99 33 7f
        E 15 b9 04 36
        E 12 b9 04 25
        E 61 b9 04 15
        E 128 89 24 40
        E 16 b9 04 25
        E 3 89 2c 40
        E 7 89 33 40
        E 121 b9 04 29
        E 51 b9 04 18
        E 36 b9 04 06
        E 14 b9 04 00
        E 317 b9 04 12
        E 10 99 33 73
        E 2 b9 04 22
        E 5 99 24 6b
        E 7 b9 04 32
        E 27 b9 04 43
        E 24 b9 04 32
        E 6 b9 04 22
        E 52 b9 04 12
        E 118 89 33 40
        E 8 89 24 40
        E 43 b9 04 22
        E 130 99 26 7a
        E 39 b9 04 12
        E 53 b9 04 00
        E 153 89 26 40
        E 144 b9 04 12
        E 13 b9 04 25
        E 26 99 33 7f
        E 5 b9 04 36
        E 36 b9 04 25
        E 70 b9 04 15
        E 95 b9 04 25
        E 36 89 33 40
        E 14 b9 04 36
        E 128 b9 04 22
        E 37 99 24 62
        E 2 b9 04 12
        E 46 b9 04 00
        E 196 89 24 40
        E 147 b9 04 12
        E 7 99 28 7e
        E 3 b9 04 25
        E 7 b9 04 36
        E 29 b9 04 46
        E 2 99 33 7f
        E 2 b9 04 4c
        E 8 99 2c 16
        E 10 b9 04 36
        E 9 b9 04 25
        E 15 b9 04 15
        E 121 b9 04 25
        E 36 89 28 40
        E 43 89 33 40
        E 7 89 2c 40
        E 73 b9 04 15
        E 53 b9 04 03
        E 7 b9 04 00
        E 319 b9 04 12
        E 10 b9 04 22
        E 10 b9 04 32
        E 31 b9 04 43
        E 3 b9 04 4d
        E 2 99 2c 22
        E 3 b9 04 53
        E 7 b9 04 63
        E 12 b9 04 51
        E 9 b9 04 41
        E 15 99 33 79
        E 29 b9 04 30
        E 21 b9 04 20
        E 133 b9 04 15
        E 12 89 2c 40
        E 25 b9 04 25
        E 21 89 33 40
        E 30 b9 04 36
        E 128 b9 04 25
        E 9 99 26 7f
        E 32 b9 04 15
        E 38 b9 04 03
        E 14 b9 04 00
        E 158 89 26 40
        E 115 b9 04 12
        E 25 b9 04 22
        E 14 b9 04 32
        E 10 99 33 4b
        E 1 b9 04 44
        E 5 b9 04 4c
        E 2 99 2c 22
        E 4 b9 04 54
        E 13 b9 04 44
        E 8 b9 04 34
        E 52 b9 04 22
        E 142 b9 04 32
        E 16 89 33 40
        E 5 89 2c 40
        E 20 b9 04 43
        E 119 b9 04 32
        E 26 99 24 68
        E 9 b9 04 22
        E 32 b9 04 12
        E 41 b9 04 00
        E 162 89 24 40
        E 126 99 26 71
        E 31 99 33 7f
        E 20 b9 04 12
        E 4 b9 04 22
        E 5 b9 04 32
        E 5 b9 04 43
        E 31 b9 04 4c
        E 3 99 2c 24
        E 2 b9 04 53
        E 19 b9 04 43
        E 8 b9 04 32
        E 9 b9 04 22
        E 54 b9 04 12
        E 51 89 26 40
        E 33 89 33 40
        E 66 89 2c 40
        E 4 b9 04 22
        E 46 b9 04 32
        E 136 b9 04 22
        E 65 b9 04 12
        E 79 b9 04 00
        E 343 99 33 7f
        E 10 b9 04 12
        E 34 b9 04 25
        E 10 b9 04 36
        E 4 b9 04 47
        E 2 b9 04 4c
        E 3 99 2c 2e
        E 17 b9 04 36
        E 10 b9 04 20
        E 27 b9 04 0f
        E 128 89 33 40
        E 5 b9 04 20
        E 37 b9 04 30
        E 15 89 2c 40
        E 25 b9 04 41
        E 142 b9 04 30
        E 34 b9 04 20
        E 48 b9 04 0f
        E 34 b9 04 00
        E 301 b9 04 12
        E 13 99 24 7e
        E 0 b9 04 22
        E 12 99 33 7f
        E 0 b9 04 32
        E 22 b9 04 43
        E 3 b9 04 4c
        E 2 99 2c 22
        E 5 b9 04 54
        E 17 b9 04 44
        E 5 b9 04 34
        E 16 b9 04 22
        E 95 b9 04 32
        E 67 89 24 40
        E 7 89 33 40
        E 30 89 2c 40
        E 29 b9 04 22
        E 55 b9 04 12
        E 55 b9 04 00
        E 346 b9 04 12
        E 12 b9 04 22
        E 5 b9 04 32
        E 29 99 24 6a
        E 2 b9 04 43
        E 5 b9 04 4c
        E 2 99 2c 1e
        E 2 b9 04 53
        E 3 99 33 7f
        E 15 b9 04 41
        E 7 b9 04 30
        E 13 b9 04 20
        E 79 b9 04 0f
        E 115 89 24 40
        E 11 89 2c 40
        E 2 89 33 40
        E 49 b9 04 20
        E 34 b9 04 30
        E 93 99 26 7f
        E 48 b9 04 20
        E 52 b9 04 0f
        E 36 b9 04 00
        E 106 89 26 40
        E 176 b9 04 12
        E 8 99 33 46
        E 22 b9 04 25
        E 14 b9 04 36
        E 30 b9 04 22
        E 124 b9 04 1a
        E 41 b9 04 2c
        E 10 89 33 40
        E 43 b9 04 3c
        E 107 b9 04 2c
        E 48 b9 04 1a
        E 15 99 24 63
        E 34 b9 04 09
        E 26 b9 04 00
        E 184 89 24 40
        E 133 99 26 7f
        E 14 b9 04 12
        E 8 b9 04 25
        E 12 b9 04 36
        E 16 99 33 7f
        E 11 b9 04 46
        E 1 b9 04 4c
        E 5 99 2c 1e
        E 20 b9 04 36
        E 12 b9 04 25
        E 56 b9 04 15
        E 89 89 26 40
        E 19 b9 04 25
        E 26 89 33 40
        E 23 89 2c 40
        E 145 b9 04 15
        E 55 b9 04 03
        E 10 b9 04 00
        E 292 b9 04 12
        E 24 b9 04 22
        E 8 b9 04 32
        E 7 99 33 7e
        E 2 b9 04 43
        E 18 b9 04 32
        E 9 b9 04 22
        E 164 b9 04 32
        E 51 89 33 40
        E 134 b9 04 22
        E 28 99 24 5a
        E 24 b9 04 12
        E 50 b9 04 00
        E 170 89 24 40
        E 91 99 26 71
        E 34 b9 04 12
        E 15 b9 04 25
        E 19 99 33 7f
        E 2 b9 04 36
        E 10 b9 04 46
        E 0 b9 04 4c
        E 2 99 2c 20
        E 22 b9 04 36
        E 12 b9 04 25
        E 67 b9 04 15
        E 61 89 26 40
        E 37 b9 04 25
        E 31 89 33 40
        E 2 b9 04 36
        E 12 89 2c 40
        E 124 b9 04 3a
        E 43 b9 04 29
        E 22 99 24 5f
        E 19 b9 04 18
        E 39 b9 04 06
        E 17 b9 04 00
        E 169 89 24 40
        E 162 99 28 61
        E 4 99 33 7f
        E 13 b9 04 12
        E 9 b9 04 22
        E 27 b9 04 32
        E 15 b9 04 43
        E 2 b9 04 4c
        E 2 99 2c 22
        E 22 b9 04 32
        E 8 b9 04 22
        E 24 b9 04 12
        E 118 89 28 40
        E 5 89 33 40
        E 29 b9 04 22
        E 36 89 2c 40
        E 5 b9 04 32
        E 150 b9 04 22
        E 69 b9 04 12
        E 69 b9 04 00
        E 275 b9 04 12
        E 19 99 33 73
        E 2 b9 04 22
        E 15 b9 04 32
        E 7 b9 04 43
        E 22 b9 04 32
        E 7 b9 04 22
        E 39 b9 04 12
        E 106 b9 04 22
        E 36 b9 04 32
        E 11 89 33 40
        E 154 b9 04 22
        E 51 b9 04 12
        E 43 b9 04 00
        E 307 b9 04 12
        E 7 99 24 73
        E 7 b9 04 22
        E 19 b9 04 32
        E 8 99 33 7f
        E 4 b9 04 43
        E 23 b9 04 32
        E 9 b9 04 20
        E 55 b9 04 0f
        E 114 89 24 40
        E 34 89 33 40
        E 16 b9 04 20
        E 199 b9 04 0f
        E 40 b9 04 00
        E 330 99 24 62
        E 7 99 33 6d
        E 0 b9 04 12
        E 9 b9 04 22
        E 8 b9 04 32
        E 19 b9 04 43
        E 16 b9 04 32
        E 13 b9 04 20
        E 43 b9 04 0f
        E 129 89 24 40
        E 7 89 33 40
        E 19 b9 04 09
        E 46 b9 04 1a
        E 31 b9 04 2c
        E 64 b9 04 3c
        E 66 99 26 77
        E 22 b9 04 2c
        E 49 b9 04 1a
        E 43 b9 04 09
        E 25 b9 04 00
        E 105 89 26 40
        E 182 99 33 7f
        E 14 b9 04 12
        E 18 b9 04 22
        E 18 b9 04 32
        E 15 b9 04 43
        E 17 b9 04 32
        E 12 b9 04 20
        E 129 b9 04 15
        E 21 89 33 40
        E 32 b9 04 25
        E 45 b9 04 36
        E 133 b9 04 25
        E 25 99 24 5f
        E 22 b9 04 15
        E 47 b9 04 03
        E 16 b9 04 00
        E 156 89 24 40
        E 154 99 28 55
        E 17 b9 04 12
        E 9 99 33 7f
        E 2 b9 04 25
        E 18 b9 04 36
        E 17 b9 04 46
        E 5 b9 04 4c
        E 2 99 2c 1a
        E 15 b9 04 36
        E 10 b9 04 25
        E 24 b9 04 15
        E 126 89 28 40
        E 23 89 33 40
        E 47 89 2c 40
        E 10 b9 04 25
        E 195 b9 04 15
        E 55 b9 04 03
        E 17 b9 04 00
        E 265 b9 04 12
        E 13 99 33 5d
        E 10 b9 04 25
        E 10 b9 04 36
        E 9 b9 04 46
        E 15 b9 04 36
        E 12 b9 04 25
        E 36 b9 04 15
        E 107 b9 04 25
        E 31 b9 04 36
        E 14 89 33 40
        E 35 b9 04 46
        E 111 b9 04 36
        E 24 99 24 55
        E 17 b9 04 25
        E 29 b9 04 15
        E 29 b9 04 03
        E 9 b9 04 00
        E 157 89 24 40
        E 110 99 26 79
        E 14 b9 04 12
        E 19 b9 04 25
        E 16 b9 04 36
        E 5 b9 04 46
        E 3 99 33 7f
        E 2 b9 04 4c
        E 5 99 2c 22
        E 13 b9 04 36
        E 9 b9 04 25
        E 38 b9 04 15
        E 118 89 26 40
        E 21 b9 04 25
        E 28 b9 04 36
        E 7 89 33 40
        E 3 89 2c 40
        E 27 b9 04 46
        E 147 b9 04 36
        E 7 99 24 53
        E 32 b9 04 25
        E 31 b9 04 15
        E 41 b9 04 03
        E 12 b9 04 00
        E 126 89 24 40
        E 193 99 26 72
        E 5 99 33 7f
        E 17 b9 04 12
        E 9 b9 04 25
        E 10 b9 04 36
        E 24 b9 04 46
        E 20 b9 04 36
        E 7 b9 04 22
        E 21 b9 04 12
        E 129 89 26 40
        E 4 89 33 40
        E 17 b9 04 22
        E 48 b9 04 32
        E 146 b9 04 22
        E 55 b9 04 12
        E 54 b9 04 00
        E 277 99 33 7f
        E 5 b9 04 12
        E 32 b9 04 22
        E 9 b9 04 32
        E 12 b9 04 43
        E 12 b9 04 32
        E 7 b9 04 22
        E 18 b9 04 12
        E 147 89 33 40
        E 2 b9 04 22
        E 32 b9 04 32
        E 159 b9 04 22
        E 51 b9 04 12
        E 51 b9 04 00
        E 277 b9 04 12
        E 15 99 24 74
        E 4 b9 04 22
        E 18 b9 04 32
        E 2 99 33 7f
        E 9 b9 04 43
        E 18 b9 04 32
        E 6 b9 04 20
        E 68 b9 04 0f
        E 116 89 24 40
        E 25 89 33 40
        E 12 b9 04 20
        E 26 b9 04 30
        E 152 b9 04 20
        E 51 b9 04 0f
        E 39 b9 04 00
        E 295 b9 04 12
        E 9 99 24 60
        E 3 99 33 7f
        E 5 b9 04 22
        E 16 b9 04 32
        E 30 b9 04 20
        E 19 b9 04 0f
        E 171 89 24 40
        E 3 89 33 40
        E 22 b9 04 20
        E 37 b9 04 30
        E 126 b9 04 20
        E 44 99 26 7d
        E 8 b9 04 0f
        E 33 b9 04 00
        E 201 89 26 40
        E 89 b9 04 12
        E 29 b9 04 22
        E 10 b9 04 32
        E 22 99 33 7f
        E 6 b9 04 22
        E 20 b9 04 12
        E 160 b9 04 22
        E 33 b9 04 32
        E 22 89 33 40
        E 104 b9 04 36
        E 51 b9 04 25
        E 8 99 24 64
        E 33 b9 04 15
        E 46 b9 04 03
        E 9 b9 04 00
        E 153 89 24 40
        E 164 99 28 54
        E 17 b9 04 12
        E 15 b9 04 22
        E 14 99 33 7f
        E 7 b9 04 32
        E 12 b9 04 43
        E 15 b9 04 32
        E 10 b9 04 22
        E 16 b9 04 12
        E 135 89 28 40
        E 39 b9 04 22
        E 10 89 33 40
        E 116 b9 04 27
        E 69 b9 04 15
        E 61 b9 04 03
        E 17 b9 04 00
        E 271 b9 04 12
        E 12 99 33 43
        E 7 b9 04 22
        E 12 b9 04 32
        E 34 b9 04 20
        E 125 b9 04 1a
        E 46 b9 04 2c
        E 20 89 33 40
        E 17 b9 04 3c
        E 145 b9 04 2c
        E 27 99 24 60
        E 16 b9 04 1a
        E 44 b9 04 09
        E 26 b9 04 00
        E 155 89 24 40
        E 128 b9 04 12
        E 8 99 26 71
        E 16 b9 04 22
        E 15 b9 04 32
        E 7 b9 04 43
        E 22 99 33 63
        E 2 b9 04 32
        E 8 b9 04 20
        E 128 b9 04 12
        E 45 89 26 40
        E 19 b9 04 22
        E 29 b9 04 32
        E 10 89 33 40
        E 116 b9 04 36
        E 51 b9 04 25
        E 5 99 24 5e
        E 36 b9 04 15
        E 44 b9 04 03
        E 14 b9 04 00
        E 150 89 24 40
        E 159 b9 04 12
        E 8 b9 04 22
        E 7 b9 04 32
        E 7 99 26 7f
        E 15 99 33 62
        E 4 b9 04 43
        E 5 b9 04 4c
        E 3 99 2c 1e
        E 2 b9 04 53
        E 19 b9 04 43
        E 7 b9 04 32
        E 187 89 26 40
        E 12 b9 04 3a
        E 2 89 33 40
        E 13 89 2c 40
        E 42 b9 04 29
        E 37 b9 04 18
        E 17 99 24 7f
        E 33 b9 04 06
        E 39 b9 04 00
        E 169 89 24 40
        E 235 b9 04 12
        E 22 b9 04 25
        E 9 b9 04 36
        E 5 b9 04 47
        E 3 b9 04 4c
        E 2 99 2c 26
        E 10 99 33 5e
        E 2 b9 04 36
        E 10 b9 04 20
        E 17 b9 04 0f
        E 186 b9 04 20
        E 18 89 2c 40
        E 11 89 33 40
        E 19 b9 04 30
        E 162 b9 04 20
        E 65 b9 04 0f
        E 56 b9 04 00
        E 326 99 24 7f
        E 0 b9 04 12
        E 11 b9 04 22
        E 25 b9 04 32
        E 12 b9 04 43
        E 2 99 33 73
        E 5 b9 04 4c
        E 3 99 2c 1c
        E 14 b9 04 32
        E 12 b9 04 20
        E 128 b9 04 18
        E 30 89 24 40
        E 26 b9 04 29
        E 24 89 33 40
        E 7 89 2c 40
        E 140 b9 04 18
        E 54 b9 04 06
        E 18 b9 04 00
        E 322 b9 04 12
        E 12 b9 04 22
        E 5 99 24 71
        E 15 b9 04 32
        E 14 99 33 62
        E 17 b9 04 22
        E 12 b9 04 12
        E 133 b9 04 09
        E 51 89 24 40
        E 14 b9 04 1a
        E 15 89 33 40
        E 31 b9 04 2c
        E 139 b9 04 1a
        E 26 99 26 78
        E 26 b9 04 09
        E 26 b9 04 00
        E 189 89 26 40
        E 109 b9 04 12
        E 21 b9 04 22
        E 44 b9 04 12
        E 29 99 33 62
        E 157 b9 04 22
        E 29 b9 04 32
        E 58 89 33 40
        E 84 b9 04 22
        E 54 b9 04 12
        E 16 99 24 6e
        E 49 b9 04 00
        E 194 89 24 40
        E 147 b9 04 12
        E 4 99 26 77
        E 5 b9 04 25
        E 26 b9 04 36
        E 13 99 33 60
        E 19 b9 04 25
        E 12 b9 04 15
        E 167 89 26 40
        E 19 b9 04 25
        E 24 89 33 40
        E 147 b9 04 15
        E 64 b9 04 03
        E 14 b9 04 00
        E 292 b9 04 12
        E 30 99 33 49
        E 0 b9 04 22
        E 9 b9 04 32
        E 32 b9 04 22
        E 29 b9 04 12
        E 159 b9 04 25
        E 12 89 33 40
        E 43 b9 04 36
        E 118 b9 04 25
        E 33 99 24 64
        E 11 b9 04 15
        E 49 b9 04 03
        E 12 b9 04 00
        E 169 89 24 40
        E 142 b9 04 12
        E 2 99 26 50
        E 11 b9 04 25
        E 12 99 33 7f
        E 4 b9 04 36
        E 20 b9 04 46
        E 14 b9 04 36
        E 10 b9 04 25
        E 39 b9 04 15
        E 135 89 26 40
        E 21 89 33 40
        E 3 b9 04 25
        E 39 b9 04 36
        E 135 99 24 5b
        E 24 b9 04 25
        E 39 b9 04 15
        E 48 b9 04 03
        E 10 b9 04 00
        E 120 89 24 40
        E 143 99 26 7a
        E 54 b9 04 12
        E 6 b9 04 22
        E 17 b9 04 32
        E 17 89 26 40
        E 2 99 26 70
        E 3 b9 04 43
        E 5 b9 04 4c
        E 3 99 2c 1e
        E 19 b9 04 32
        E 10 b9 04 22
        E 57 b9 04 12
        E 119 b9 04 22
        E 26 89 26 40
        E 10 b9 04 32
        E 2 89 2c 40
        E 114 99 24 5d
        E 34 b9 04 22
        E 60 b9 04 12
        E 50 b9 04 00
        E 98 89 24 40
        E 159 99 2d 7f
        E 24 99 30 7f
        E 17 b9 04 12
        E 36 b9 04 22
        E 8 b9 04 32
        E 7 b9 04 43
        E 19 b9 04 32
        E 7 b9 04 20
        E 27 b9 04 0f
        E 99 89 2d 40
        E 22 b9 04 20
        E 2 89 30 40
        E 24 b9 04 30
        E 114 99 24 50
        E 17 b9 04 34
        E 36 b9 04 22
        E 44 b9 04 12
        E 43 b9 04 00
        E 102 89 24 40
        E 248 99 24 7f
        E 2 b9 04 12
        E 8 b9 04 22
        E 5 b9 04 32
        E 7 99 3b 7f
        E 2 b9 04 43
        E 15 b9 04 4c
        E 2 99 2c 1c
        E 24 b9 04 32
        E 10 b9 04 22
        E 34 b9 04 12
        E 138 89 24 40
        E 19 89 3b 40
        E 12 b9 04 22
        E 5 89 2c 40
        E 121 b9 04 2c
        E 65 b9 04 1a
        E 80 b9 04 09
        E 39 b9 04 00
        E 256 99 33 38
        E 26 b9 04 12
        E 26 b9 04 22
        E 15 b9 04 32
        E 17 b9 04 43
        E 22 b9 04 32
        E 24 b9 04 22
        E 111 89 33 40
        E 169 99 26 7f
        E 10 b9 04 12
        E 116 b9 04 00
        E 119 89 26 40
        E 110 b9 04 12
        E 41 b9 04 25
        E 64 99 26 42
        E 11 b9 04 15
        E 157 b9 04 25
        E 34 b9 04 36
        E 41 89 26 40
        E 8 b9 04 46
        E 106 b9 04 36
        E 36 99 24 5c
        E 12 b9 04 25
        E 34 b9 04 15
        E 44 b9 04 03
        E 21 b9 04 00
        E 131 89 24 40
        E 174 99 2d 7f
        E 19 b9 04 12
        E 15 b9 04 22
        E 24 99 26 7f
        E 4 b9 04 32
        E 10 b9 04 43
        E 5 b9 04 4d
        E 3 99 2c 28
        E 0 b9 04 54
        E 21 b9 04 44
        E 7 b9 04 34
        E 46 b9 04 22
        E 89 89 2d 40
        E 39 b9 04 1a
        E 17 89 26 40
        E 25 89 2c 40
        E 40 b9 04 2c
        E 216 b9 04 1a
        E 50 b9 04 09
        E 36 b9 04 00
        E 215 b9 04 12
        E 27 b9 04 22
        E 12 b9 04 32
        E 12 b9 04 43
        E 39 b9 04 32
        E 121 b9 04 43
        E 106 b9 04 32
        E 33 b9 04 22
        E 28 99 24 64
        E 16 b9 04 12
        E 66 b9 04 00
        E 159 89 24 40
        E 142 99 26 7f
        E 34 b9 04 12
        E 10 b9 04 22
        E 22 b9 04 32
        E 17 b9 04 43
        E 2 b9 04 4c
        E 3 99 2c 26
        E 2 b9 04 54
        E 19 b9 04 43
        E 3 89 26 40
        E 2 99 26 7f
        E 3 b9 04 32
        E 5 b9 04 22
        E 65 b9 04 12
        E 144 89 2c 40
        E 5 b9 04 22
        E 18 89 26 40
        E 14 b9 04 32
        E 114 99 24 57
        E 60 b9 04 22
        E 50 b9 04 12
        E 49 b9 04 00
        E 84 89 24 40
        E 129 99 2d 7f
        E 24 99 30 7f
        E 38 b9 04 12
        E 19 b9 04 22
        E 12 b9 04 32
        E 8 b9 04 43
        E 5 b9 04 4c
        E 2 99 2c 20
        E 22 b9 04 32
        E 7 b9 04 22
        E 53 b9 04 12
        E 51 89 2d 40
        E 27 89 30 40
        E 24 b9 04 22
        E 34 b9 04 32
        E 26 89 2c 40
        E 118 99 24 5a
        E 35 b9 04 22
        E 43 b9 04 12
        E 48 b9 04 00
        E 116 89 24 40
        E 116 99 2d 7f
        E 22 99 29 7f
        E 50 b9 04 12
        E 37 b9 04 22
        E 10 b9 04 32
        E 26 b9 04 20
        E 19 b9 04 0f
        E 82 89 2d 40
        E 15 89 29 40
        E 21 b9 04 20
        E 40 b9 04 30
        E 118 b9 04 20
        E 63 b9 04 0f
        E 38 b9 04 00
        E 343 99 24 7f
        E 5 b9 04 12
        E 8 99 33 7f
        E 2 b9 04 25
        E 5 99 31 7f
        E 12 b9 04 36
        E 19 b9 04 46
        E 3 b9 04 4c
        E 2 99 2c 1a
        E 17 b9 04 36
        E 8 b9 04 25
        E 14 b9 04 15
        E 128 b9 04 25
        E 18 89 24 40
        E 15 89 33 40
        E 8 89 31 40
        E 36 89 2c 40
        E 63 b9 04 2c
        E 75 b9 04 1a
        E 137 b9 04 09
        E 71 b9 04 00
        E 195 b9 04 12
        E 32 b9 04 22
        E 7 b9 04 32
        E 31 b9 04 20
        E 343 b9 04 0f
        E 10 99 28 7f
        E 154 b9 04 03
        E 88 89 28 40
        E 14 b9 04 15
        E 31 b9 04 25
        E 29 b9 04 36
        E 73 b9 04 25
        E 132 b9 04 20
        E 49 b9 04 30
        E 39 b9 04 41
        E 22 b9 04 4c
        E 2 99 2c 0a
        E 10 b9 04 51
        E 130 b9 04 58
        E 46 b9 04 47
        E 34 b9 04 36
        E 14 99 24 6e
        E 7 89 2c 40
        E 5 b9 04 25
        E 29 b9 04 15
        E 41 b9 04 03
        E 7 b9 04 00
        E 153 89 24 40
        E 135 99 26 7f
        E 51 b9 04 12
        E 10 b9 04 25
        E 28 b9 04 36
        E 11 b9 04 46
        E 2 99 28 7f
        E 2 b9 04 4d
        E 3 99 2c 22
        E 16 b9 04 36
        E 10 b9 04 25
        E 19 b9 04 15
        E 92 89 26 40
        E 87 b9 04 25
        E 12 89 28 40
        E 2 89 2c 40
        E 119 b9 04 15
        E 58 b9 04 03
        E 19 b9 04 00
        E 285 b9 04 12
        E 25 b9 04 22
        E 7 b9 04 32
        E 9 b9 04 43
        E 22 b9 04 32
        E 13 b9 04 20
        E 145 b9 04 30
        E 45 b9 04 41
        E 147 99 24 5c
        E 3 b9 04 30
        E 32 b9 04 20
        E 43 b9 04 0f
        E 38 b9 04 00
        E 126 89 24 40
        E 179 b9 04 12
        E 10 b9 04 25
        E 10 99 2d 7f
        E 2 99 30 7f
        E 5 b9 04 36
        E 19 b9 04 46
        E 4 b9 04 4d
        E 3 99 2c 24
        E 2 b9 04 57
        E 20 b9 04 46
        E 7 b9 04 36
        E 41 b9 04 25
        E 129 b9 04 1d
        E 9 89 2d 40
        E 2 89 30 40
        E 29 b9 04 2e
        E 2 89 2c 40
        E 134 b9 04 36
        E 2 99 24 53
        E 53 b9 04 25
        E 34 b9 04 15
        E 36 b9 04 03
        E 10 b9 04 00
        E 109 89 24 40
        E 154 99 26 72
        E 17 b9 04 12
        E 26 b9 04 22
        E 17 b9 04 32
        E 5 89 26 40
        E 3 99 26 7f
        E 2 b9 04 44
        E 3 b9 04 4d
        E 2 99 2c 26
        E 19 b9 04 34
        E 13 b9 04 20
        E 130 b9 04 15
        E 51 b9 04 25
        E 22 89 26 40
        E 9 89 2c 40
        E 7 b9 04 36
        E 152 99 24 5f
        E 13 b9 04 25
        E 38 b9 04 15
        E 46 b9 04 03
        E 17 b9 04 00
        E 130 89 24 40
        E 155 99 30 7f
        E 12 99 29 51
        E 27 b9 04 12
        E 34 b9 04 22
        E 14 b9 04 32
        E 29 b9 04 20
        E 21 b9 04 0f
        E 105 89 30 40
        E 11 89 29 40
        E 18 b9 04 20
        E 41 b9 04 30
        E 106 99 30 7f
        E 34 b9 04 20
        E 48 b9 04 0f
        E 32 b9 04 00
        E 126 89 30 40
        E 173 99 24 75
        E 3 b9 04 12
        E 7 b9 04 25
        E 7 b9 04 36
        E 26 b9 04 46
        E 3 b9 04 4c
        E 2 99 2c 16
        E 6 b9 04 56
        E 17 b9 04 44
        E 9 b9 04 34
        E 49 b9 04 20
        E 93 b9 04 0f
        E 20 89 24 40
        E 48 89 2c 40
        E 140 b9 04 20
        E 66 b9 04 30
        E 60 b9 04 41
        E 39 b9 04 4d
        E 2 99 2c 08
        E 17 b9 04 51
        E 133 b9 04 41
        E 33 b9 04 30
        E 30 b9 04 20
        E 31 89 2c 40
        E 5 99 24 6d
        E 7 b9 04 0f
        E 41 b9 04 00
        E 193 89 24 40
        E 160 b9 04 12
        E 7 99 26 7f
        E 3 b9 04 25
        E 36 b9 04 36
        E 10 b9 04 46
        E 2 b9 04 4d
        E 0 99 2c 28
        E 3 b9 04 56
        E 16 b9 04 46
        E 5 b9 04 36
        E 7 b9 04 25
        E 26 99 28 7a
        E 13 b9 04 15
        E 123 89 26 40
        E 48 89 2c 40
        E 61 89 28 40
        E 87 b9 04 25
        E 82 b9 04 36
        E 36 b9 04 46
        E 19 b9 04 4f
        E 3 99 2c 08
        E 22 b9 04 56
        E 147 b9 04 46
        E 34 b9 04 36
        E 31 b9 04 22
        E 7 89 2c 40
        E 32 b9 04 12
        E 49 99 24 62
        E 4 b9 04 00
        E 237 89 24 40
        E 159 99 2d 7f
        E 5 b9 04 12
        E 10 b9 04 22
        E 4 99 30 7f
        E 32 b9 04 32
        E 7 b9 04 43
        E 3 b9 04 4c
        E 2 99 2c 2c
        E 3 b9 04 53
        E 14 b9 04 43
        E 5 b9 04 32
        E 4 b9 04 20
        E 27 b9 04 0f
        E 102 b9 04 20
        E 24 89 2d 40
        E 22 89 30 40
        E 24 b9 04 30
        E 19 89 2c 40
        E 108 b9 04 20
        E 78 b9 04 0f
        E 44 b9 04 00
        E 270 b9 04 12
        E 22 b9 04 22
        E 7 b9 04 32
        E 10 b9 04 43
        E 2 b9 04 4c
        E 3 99 2c 28
        E 2 b9 04 53
        E 12 b9 04 43
        E 10 b9 04 32
        E 10 b9 04 20
        E 198 b9 04 30
        E 7 89 2c 40
        E 34 b9 04 41
        E 152 99 24 5e
        E 12 b9 04 30
        E 35 b9 04 20
        E 43 b9 04 0f
        E 40 b9 04 00
        E 112 89 24 40
        E 133 99 26 7f
        E 55 b9 04 12
        E 8 b9 04 22
        E 9 b9 04 32
        E 10 89 26 40
        E 3 99 26 7f
        E 16 b9 04 43
        E 2 b9 04 4d
        E 3 99 2c 20
        E 5 b9 04 53
        E 14 b9 04 41
        E 7 b9 04 30
        E 15 b9 04 20
        E 179 89 26 40
        E 7 b9 04 30
        E 17 89 2c 40
        E 26 b9 04 41
        E 95 99 24 55
        E 41 b9 04 30
        E 31 b9 04 20
        E 48 b9 04 0f
        E 44 b9 04 00
        E 79 89 24 40
        E 168 99 30 7f
        E 89 b9 04 12
        E 12 b9 04 22
        E 36 b9 04 32
        E 7 b9 04 43
        E 7 89 30 40
        E 3 99 30 5a
        E 12 b9 04 32
        E 5 b9 04 20
        E 24 b9 04 0f
        E 167 89 30 40
        E 0 99 30 6c
        E 7 b9 04 20
        E 27 b9 04 30
        E 129 b9 04 34
        E 37 b9 04 22
        E 24 89 30 40
        E 2 99 30 7f
        E 16 b9 04 12
        E 40 b9 04 00
        E 133 89 30 40
        E 3 99 30 7f
        E 195 b9 04 12
        E 13 b9 04 22
        E 7 89 30 40
        E 2 99 30 78
        E 24 b9 04 32
        E 10 b9 04 44
        E 2 b9 04 4c
        E 3 99 2c 22
        E 15 b9 04 34
        E 11 b9 04 20
        E 82 b9 04 30
        E 25 89 30 40
        E 2 99 30 72
        E 106 89 2c 40
        E 25 b9 04 20
        E 41 b9 04 0f
        E 29 89 30 40
        E 2 99 30 7f
        E 2 b9 04 00
        E 237 89 30 40
        E 7 99 33 7f
        E 10 99 24 66
        E 49 b9 04 12
        E 9 b9 04 25
        E 19 b9 04 36
        E 20 b9 04 46
        E 4 b9 04 4c
        E 3 99 2c 18
        E 14 b9 04 36
        E 12 b9 04 25
        E 51 b9 04 15
        E 52 89 33 40
        E 8 89 24 40
        E 95 b9 04 25
        E 10 89 2c 40
        E 121 b9 04 2c
        E 48 b9 04 1a
        E 46 b9 04 09
        E 21 b9 04 00
        E 230 99 24 58
        E 39 b9 04 12
        E 26 b9 04 22
        E 14 b9 04 32
        E 40 b9 04 22
        E 74 b9 04 12
        E 48 89 24 40
        E 126 b9 04 22
        E 43 b9 04 32
        E 51 99 26 7f
        E 86 99 28 7d
        E 3 b9 04 3c
        E 153 89 26 40
        E 5 b9 04 2c
        E 80 89 28 40
        E 36 b9 04 1a
        E 189 b9 04 2c
        E 14 b9 04 3c
        E 17 b9 04 4c
        E 2 99 2c 12
        E 2 b9 04 4c
        E 22 b9 04 5c
        E 152 b9 04 4c
        E 21 b9 04 3c
        E 22 b9 04 2c
        E 23 89 2c 40
        E 2 b9 04 1a
        E 19 99 24 6a
        E 12 b9 04 09
        E 27 b9 04 00
        E 203 89 24 40
        E 152 99 2d 7f
        E 30 99 30 7f
        E 14 b9 04 12
        E 38 b9 04 22
        E 10 b9 04 32
        E 7 b9 04 44
        E 17 b9 04 34
        E 9 b9 04 20
        E 17 b9 04 0f
        E 59 b9 04 20
        E 45 89 2d 40
        E 27 89 30 40
        E 54 b9 04 27
        E 60 b9 04 15
        E 53 b9 04 03
        E 14 b9 04 00
        E 279 b9 04 12
        E 21 b9 04 22
        E 7 b9 04 32
        E 7 b9 04 43
        E 8 b9 04 4c
        E 1 99 2c 1e
        E 18 b9 04 32
        E 10 b9 04 22
        E 151 b9 04 32
        E 62 b9 04 43
        E 1 89 2c 40
        E 105 b9 04 32
        E 36 b9 04 22
        E 29 99 24 61
        E 19 b9 04 12
        E 48 b9 04 00
        E 174 89 24 40
        E 152 99 26 7f
        E 10 b9 04 12
        E 7 b9 04 22
        E 10 b9 04 32
        E 29 b9 04 43
        E 5 b9 04 4c
        E 2 99 2c 20
        E 3 b9 04 53
        E 21 b9 04 43
        E 7 b9 04 32
        E 3 99 28 7f
        E 42 b9 04 22
        E 58 b9 04 12
        E 47 89 26 40
        E 64 89 2c 40
        E 9 b9 04 22
        E 24 b9 04 32
        E 3 89 28 40
        E 27 b9 04 43
        E 125 99 24 55
        E 29 b9 04 32
        E 29 b9 04 22
        E 39 b9 04 12
        E 37 b9 04 00
        E 108 89 24 40
        E 164 99 2d 7f
        E 79 b9 04 12
        E 37 b9 04 22
        E 19 b9 04 32
        E 5 b9 04 43
        E 4 89 2d 40
        E 3 99 2d 7f
        E 2 b9 04 4c
        E 2 99 2c 20
        E 13 b9 04 30
        E 5 b9 04 20
        E 24 b9 04 0f
        E 135 b9 04 20
        E 29 b9 04 30
        E 3 89 2d 40
        E 2 99 2d 7f
        E 29 89 2c 40
        E 19 b9 04 41
        E 100 b9 04 30
        E 36 b9 04 20
        E 24 89 2d 40
        E 2 99 2d 7f
        E 15 b9 04 0f
        E 29 b9 04 00
        E 196 89 2d 40
        E 21 99 29 6e
        E 111 b9 04 12
        E 12 b9 04 22
        E 37 b9 04 32
        E 9 b9 04 43
        E 19 b9 04 32
        E 11 b9 04 20
        E 19 89 29 40
        E 2 99 29 7e
        E 22 b9 04 0f
        E 135 b9 04 20
        E 10 89 29 40
        E 3 99 29 66
        E 173 b9 04 0f
        E 15 89 29 40
        E 2 99 29 6d
        E 21 b9 04 00
        E 218 89 29 40
        E 3 99 24 7f
        E 24 99 33 7c
        E 39 b9 04 12
        E 21 b9 04 22
        E 15 b9 04 32
        E 34 b9 04 20
        E 111 89 24 40
        E 14 b9 04 18
        E 9 89 33 40
        E 33 b9 04 29
        E 40 b9 04 3a
        E 153 b9 04 29
        E 70 b9 04 18
        E 253 99 24 58
        E 66 b9 04 22
        E 128 b9 04 29
        E 50 89 24 40
        E 37 b9 04 18
        E 69 b9 04 06
        E 39 b9 04 00
        E 126 99 26 7f
        E 16 99 33 7f
        E 5 b9 04 12
        E 24 b9 04 22
        E 13 b9 04 32
        E 17 b9 04 43
        E 7 b9 04 4c
        E 2 99 2c 14
        E 8 b9 04 53
        E 24 b9 04 43
        E 19 b9 04 32
        E 41 b9 04 22
        E 48 b9 04 12
        E 20 89 26 40
        E 15 89 33 40
        E 68 89 2c 40
        E 139 b9 04 22
        E 21 b9 04 32
        E 27 b9 04 43
        E 22 b9 04 4d
        E 3 99 2c 0a
        E 9 b9 04 53
        E 143 b9 04 43
        E 29 b9 04 32
        E 17 b9 04 22
        E 34 b9 04 12
        E 9 89 2c 40
        E 17 99 24 5f
        E 22 b9 04 00
        E 220 89 24 40
        E 147 99 2d 7f
        E 27 b9 04 12
        E 2 99 30 7f
        E 7 b9 04 22
        E 39 b9 04 32
        E 7 b9 04 44
        E 3 b9 04 4c
        E 2 99 2c 36
        E 3 b9 04 55
        E 17 b9 04 44
        E 4 b9 04 34
        E 7 b9 04 20
        E 126 89 2d 40
        E 29 89 30 40
        E 29 b9 04 30
        E 27 89 2c 40
        E 99 b9 04 20
        E 72 b9 04 0f
        E 51 b9 04 00
        E 256 b9 04 12
        E 17 b9 04 25
        E 12 b9 04 36
        E 7 b9 04 46
        E 2 b9 04 4c
        E 3 99 2c 1c
        E 29 b9 04 36
        E 97 b9 04 46
        E 115 89 2c 40
        E 23 b9 04 36
        E 36 b9 04 25
        E 28 b9 04 15
        E 23 99 24 63
        E 17 b9 04 03
        E 14 b9 04 00
        E 212 89 24 40
        E 116 99 26 7f
        E 2 b9 04 12
        E 10 b9 04 25
        E 13 b9 04 36
        E 26 b9 04 47
        E 3 b9 04 4c
        E 2 99 2c 24
        E 5 b9 04 57
        E 12 b9 04 46
        E 7 b9 04 36
        E 10 b9 04 25
        E 21 99 28 7f
        E 27 b9 04 15
        E 106 89 26 40
        E 56 89 2c 40
        E 12 b9 04 25
        E 34 b9 04 36
        E 5 89 28 40
        E 132 99 24 5a
        E 30 b9 04 25
        E 38 b9 04 15
        E 41 b9 04 03
        E 12 b9 04 00
        E 124 89 24 40
        E 137 99 2d 7f
        E 22 b9 04 12
        E 5 99 30 7f
        E 9 b9 04 22
        E 17 b9 04 32
        E 17 b9 04 43
        E 2 b9 04 4c
        E 3 99 2c 1e
        E 6 b9 04 54
        E 9 b9 04 64
        E 12 b9 04 54
        E 7 b9 04 44
        E 44 b9 04 34
        E 30 b9 04 22
        E 59 89 2d 40
        E 32 89 30 40
        E 11 b9 04 32
        E 34 89 2c 40
        E 13 b9 04 43
        E 139 99 24 64
        E 5 b9 04 32
        E 32 b9 04 22
        E 33 b9 04 12
        E 44 b9 04 00
        E 130 89 24 40
        E 126 99 26 5c
        E 63 b9 04 12
        E 14 b9 04 22
        E 3 99 28 7a
        E 27 b9 04 32
        E 7 b9 04 43
        E 4 b9 04 4c
        E 3 99 2c 22
        E 17 b9 04 32
        E 7 b9 04 20
        E 96 89 26 40
        E 22 b9 04 30
        E 59 89 28 40
        E 43 89 2c 40
        E 38 b9 04 20
        E 59 b9 04 0f
        E 50 b9 04 00
        E 374 b9 04 12
        E 13 b9 04 25
        E 5 99 24 7f
        E 21 b9 04 36
        E 10 99 33 7f
        E 2 b9 04 46
        E 15 b9 04 36
        E 10 b9 04 25
        E 12 b9 04 15
        E 89 b9 04 25
        E 85 89 24 40
        E 31 89 33 40
        E 34 b9 04 2c
        E 61 b9 04 1a
        E 60 b9 04 09
        E 36 b9 04 00
        E 300 b9 04 12
        E 23 b9 04 22
        E 20 b9 04 32
        E 10 b9 04 43
        E 5 b9 04 4c
        E 2 99 2c 24
        E 3 b9 04 53
        E 28 b9 04 43
        E 44 b9 04 32
        E 31 b9 04 22
        E 129 b9 04 1d
        E 4 89 2c 40
        E 39 b9 04 2e
        E 135 b9 04 36
        E 45 99 28 7f
        E 42 b9 04 25
        E 53 b9 04 15
        E 80 b9 04 03
        E 40 b9 04 00
        E 30 89 28 40
        E 121 b9 04 12
        E 36 b9 04 22
        E 15 b9 04 32
        E 14 b9 04 43
        E 19 b9 04 32
        E 94 b9 04 43
        E 42 b9 04 4c
        E 2 99 2c 08
        E 126 b9 04 32
        E 26 b9 04 22
        E 37 b9 04 12
        E 7 99 24 6e
        E 39 b9 04 00
        E 7 89 2c 40
        E 195 89 24 40
        E 158 99 2d 7f
        E 2 99 30 7b
        E 14 b9 04 12
        E 44 b9 04 22
        E 7 b9 04 32
        E 3 b9 04 44
        E 2 b9 04 4c
        E 2 99 2c 38
        E 2 b9 04 54
        E 15 b9 04 44
        E 5 b9 04 32
        E 7 b9 04 20
        E 85 b9 04 30
        E 53 89 2d 40
        E 2 89 30 40
        E 68 b9 04 20
        E 7 89 2c 40
        E 46 b9 04 0f
        E 41 b9 04 00
        E 288 b9 04 12
        E 34 b9 04 25
        E 12 b9 04 36
        E 6 b9 04 46
        E 3 b9 04 4c
        E 3 99 2c 28
        E 2 b9 04 56
        E 15 b9 04 46
        E 6 b9 04 36
        E 13 b9 04 25
        E 70 b9 04 36
        E 46 b9 04 46
        E 89 89 2c 40
        E 56 b9 04 36
        E 34 b9 04 25
        E 31 b9 04 15
        E 20 99 24 65
        E 19 b9 04 03
        E 14 b9 04 00
        E 211 89 24 40
        E 116 99 26 7f
        E 65 b9 04 12
        E 36 89 26 40
        E 2 99 26 7e
        E 8 b9 04 22
        E 7 b9 04 32
        E 5 b9 04 43
        E 14 b9 04 32
        E 5 b9 04 22
        E 12 b9 04 12
        E 104 b9 04 22
        E 51 b9 04 32
        E 34 89 26 40
        E 67 b9 04 22
        E 5 99 26 6a
        E 33 b9 04 12
        E 40 b9 04 00
        E 60 99 30 7f
        E 108 89 26 40
        E 44 99 2d 6a
        E 87 b9 04 12
        E 3 89 30 40
        E 7 b9 04 25
        E 17 b9 04 36
        E 9 99 24 7f
        E 15 b9 04 46
        E 2 b9 04 4d
        E 3 99 2c 1c
        E 2 b9 04 56
        E 22 b9 04 46
        E 12 b9 04 36
        E 63 89 2d 40
        E 123 89 24 40
        E 3 b9 04 46
        E 19 89 2c 40
        E 142 b9 04 36
        E 17 99 24 5a
        E 20 b9 04 22
        E 28 b9 04 12
        E 32 b9 04 00
        E 162 89 24 40
        E 132 99 26 7f
        E 23 b9 04 12
        E 9 b9 04 25
        E 34 b9 04 36
        E 7 b9 04 46
        E 3 b9 04 4c
        E 2 99 2c 24
        E 14 99 28 7f
        E 5 b9 04 36
        E 8 b9 04 25
        E 12 b9 04 15
        E 128 89 26 40
        E 53 b9 04 25
        E 21 89 2c 40
        E 17 89 28 40
        E 6 b9 04 36
        E 106 99 24 64
        E 18 b9 04 25
        E 37 b9 04 15
        E 42 b9 04 03
        E 7 b9 04 00
        E 137 89 24 40
        E 182 b9 04 12
        E 9 b9 04 22
        E 3 99 24 7f
        E 2 b9 04 32
        E 29 99 33 7f
        E 2 b9 04 43
        E 7 99 31 7f
        E 0 b9 04 4c
        E 5 99 2c 20
        E 3 b9 04 53
        E 14 b9 04 43
        E 7 b9 04 32
        E 17 b9 04 22
        E 68 b9 04 12
        E 87 89 24 40
        E 15 b9 04 22
        E 19 89 33 40
        E 10 89 31 40
        E 2 89 2c 40
        E 0 b9 04 32
        E 145 b9 04 22
        E 39 b9 04 12
        E 40 b9 04 00
        E 291 99 33 6a
        E 9 b9 04 12
        E 7 99 24 63
        E 3 b9 04 22
        E 7 b9 04 32
        E 31 b9 04 43
        E 5 b9 04 4c
        E 2 99 2c 1c
        E 5 b9 04 53
        E 22 b9 04 43
        E 123 b9 04 36
        E 27 89 33 40
        E 19 89 24 40
        E 15 b9 04 25
        E 34 89 2c 40
        E 17 b9 04 15
        E 65 b9 04 03
        E 12 b9 04 00
        E 31 99 26 6c
        E 242 89 26 40
        E 53 b9 04 12
        E 32 b9 04 25
        E 10 b9 04 36
        E 9 b9 04 47
        E 0 b9 04 4c
        E 2 99 2c 22
        E 18 b9 04 36
        E 11 b9 04 25
        E 56 99 33 50
        E 5 b9 04 15
        E 152 89 2c 40
        E 10 b9 04 25
        E 28 b9 04 36
        E 35 b9 04 46
        E 11 89 33 40
        E 126 b9 04 36
        E 37 b9 04 25
        E 26 99 24 6b
        E 5 b9 04 15
        E 33 b9 04 03
        E 13 b9 04 00
        E 191 89 24 40
        E 171 b9 04 12
        E 10 b9 04 25
        E 7 99 26 7f
        E 17 b9 04 36
        E 5 99 33 7f
        E 7 b9 04 46
        E 17 b9 04 36
        E 10 b9 04 22
        E 14 b9 04 12
        E 162 b9 04 22
        E 12 89 26 40
        E 22 89 33 40
        E 9 b9 04 32
        E 107 b9 04 22
        E 48 b9 04 12
        E 49 b9 04 00
        E 306 99 33 3d
        E 7 b9 04 12
        E 24 b9 04 22
        E 8 b9 04 32
        E 7 b9 04 43
        E 5 b9 04 4c
        E 2 99 2c 24
        E 17 b9 04 32
        E 10 b9 04 22
        E 162 89 33 40
        E 56 89 2c 40
        E 43 b9 04 29
        E 68 b9 04 18
        E 33 99 28 69
        E 22 b9 04 06
        E 27 b9 04 00
        E 192 89 28 40
        E 110 b9 04 12
        E 29 b9 04 22
        E 12 b9 04 32
        E 5 b9 04 43
        E 4 b9 04 4c
        E 3 99 2c 24
        E 7 99 33 42
        E 15 b9 04 32
        E 12 b9 04 20
        E 161 b9 04 18
        E 47 89 2c 40
        E 2 b9 04 29
        E 5 89 33 40
        E 51 b9 04 3a
        E 108 99 24 62
        E 2 b9 04 29
        E 45 b9 04 18
        E 35 b9 04 06
        E 15 b9 04 00
        E 145 89 24 40
        E 167 b9 04 12
        E 16 b9 04 22
        E 5 99 33 46
        E 17 b9 04 32
        E 12 b9 04 43
        E 3 b9 04 4c
        E 2 99 2c 26
        E 2 b9 04 53
        E 15 b9 04 43
        E 7 b9 04 32
        E 7 b9 04 22
        E 123 b9 04 1d
        E 47 b9 04 2e
        E 7 89 33 40
        E 26 b9 04 3e
        E 10 89 2c 40
        E 130 99 24 65
        E 15 b9 04 2e
        E 34 b9 04 1d
        E 39 b9 04 0c
        E 24 b9 04 00
        E 130 89 24 40
        E 155 99 26 79
        E 43 99 33 54
        E 2 b9 04 12
        E 10 b9 04 25
        E 16 b9 04 36
        E 20 b9 04 46
        E 5 b9 04 4c
        E 3 99 2c 1c
        E 17 b9 04 36
        E 7 b9 04 25
        E 12 b9 04 15
        E 109 89 26 40
        E 32 b9 04 25
        E 11 89 33 40
        E 53 89 2c 40
        E 114 b9 04 15
        E 46 b9 04 03
        E 7 b9 04 00
        E 336 b9 04 12
        E 10 b9 04 22
        E 2 99 24 79
        E 5 99 33 7f
        E 2 b9 04 32
        E 22 b9 04 43
        E 22 b9 04 32
        E 9 b9 04 20
        E 34 b9 04 0f
        E 107 b9 04 20
        E 40 b9 04 30
        E 3 89 24 40
        E 4 89 33 40
        E 107 b9 04 20
        E 56 b9 04 0f
        E 41 b9 04 00
        E 326 b9 04 12
        E 9 b9 04 25
        E 13 99 24 66
        E 2 b9 04 36
        E 17 99 33 53
        E 26 b9 04 25
        E 15 b9 04 15
        E 152 b9 04 09
        E 29 89 24 40
        E 22 89 33 40
        E 15 b9 04 1a
        E 33 b9 04 2c
        E 129 b9 04 34
        E 14 99 26 7f
        E 41 b9 04 22
        E 41 b9 04 12
        E 44 b9 04 00
        E 118 89 26 40
        E 159 b9 04 12
        E 24 99 33 3d
        E 2 b9 04 22
        E 8 b9 04 32
        E 12 b9 04 43
        E 15 b9 04 32
        E 9 b9 04 22
        E 126 b9 04 1a
        E 36 b9 04 2c
        E 34 89 33 40
        E 5 b9 04 3c
        E 2 99 33 0d
        E 146 b9 04 2c
        E 31 99 24 5e
        E 9 b9 04 1a
        E 46 b9 04 09
        E 10 89 33 40
        E 14 b9 04 00
        E 165 89 24 40
        E 166 b9 04 12
        E 10 b9 04 25
        E 10 99 28 7f
        E 17 b9 04 36
        E 7 99 33 4d
        E 5 b9 04 46
        E 2 b9 04 4c
        E 3 99 2c 1c
        E 14 b9 04 36
        E 12 b9 04 25
        E 32 b9 04 15
        E 140 b9 04 25
        E 12 89 28 40
        E 24 89 33 40
        E 7 89 2c 40
        E 147 b9 04 15
        E 56 b9 04 03
        E 15 b9 04 00
        E 285 b9 04 12
        E 22 99 33 4e
        E 7 b9 04 22
        E 12 b9 04 32
        E 7 b9 04 43
        E 5 b9 04 4d
        E 2 99 2c 24
        E 22 b9 04 32
        E 14 b9 04 22
        E 150 b9 04 18
        E 24 89 33 40
        E 25 b9 04 29
        E 6 89 2c 40
        E 23 b9 04 3a
        E 67 b9 04 4a
        E 51 99 24 51
        E 41 b9 04 3a
        E 44 b9 04 29
        E 38 b9 04 18
        E 29 b9 04 06
        E 17 b9 04 00
        E 75 89 24 40
        E 186 99 26 7f
        E 13 99 33 6d
        E 28 b9 04 12
        E 24 b9 04 22
        E 15 b9 04 32
        E 7 b9 04 43
        E 5 b9 04 4c
        E 2 99 2c 22
        E 17 b9 04 32
        E 5 b9 04 22
        E 29 b9 04 12
        E 97 89 26 40
        E 12 89 33 40
        E 34 b9 04 22
        E 43 b9 04 32
        E 7 89 2c 40
        E 94 b9 04 22
        E 41 b9 04 12
        E 46 b9 04 00
        E 303 b9 04 12
        E 4 99 24 68
        E 9 b9 04 25
        E 18 99 33 56
        E 5 b9 04 36
        E 43 b9 04 22
        E 68 b9 04 12
        E 101 89 24 40
        E 24 89 33 40
        E 21 b9 04 22
        E 20 b9 04 32
        E 32 b9 04 43
        E 26 b9 04 4c
        E 3 99 2c 08
        E 131 b9 04 32
        E 26 b9 04 22
        E 34 b9 04 12
        E 36 b9 04 00
        E 17 89 2c 40
        E 261 99 26 7f
        E 34 b9 04 12
        E 7 99 33 7f
        E 2 b9 04 22
        E 10 b9 04 32
        E 17 b9 04 43
        E 22 b9 04 32
        E 9 b9 04 20
        E 32 b9 04 0f
        E 109 89 26 40
        E 36 b9 04 20
        E 7 89 33 40
        E 19 b9 04 30
        E 128 b9 04 36
        E 51 b9 04 25
        E 31 b9 04 15
        E 39 b9 04 03
        E 10 b9 04 00
        E 319 b9 04 12
        E 9 b9 04 25
        E 7 99 24 7f
        E 5 b9 04 36
        E 27 99 33 7f
        E 24 b9 04 25
        E 24 b9 04 15
        E 158 b9 04 0c
        E 4 89 24 40
        E 37 89 33 40
        E 8 b9 04 1d
        E 26 b9 04 2e
        E 40 b9 04 3e
        E 131 b9 04 2e
        E 34 b9 04 1d
        E 48 b9 04 0c
        E 29 b9 04 00
        E 253 99 26 7f
        E 17 b9 04 12
        E 8 99 33 7f
        E 2 b9 04 22
        E 7 b9 04 32
        E 17 b9 04 43
        E 7 b9 04 4c
        E 3 99 2c 14
        E 3 b9 04 54
        E 33 b9 04 44
        E 58 b9 04 34
        E 63 b9 04 22
        E 26 89 26 40
        E 24 89 33 40
        E 37 89 2c 40
        E 63 b9 04 32
        E 37 b9 04 43
        E 55 b9 04 4f
        E 2 99 2c 06
        E 58 99 24 68
        E 58 b9 04 32
        E 29 b9 04 22
        E 34 b9 04 12
        E 43 b9 04 00
        E 20 89 2c 40
        E 63 89 24 40
        E 174 b9 04 12
        E 21 b9 04 25
        E 7 99 33 79
        E 5 b9 04 36
        E 7 b9 04 46
        E 2 b9 04 4c
        E 3 99 2c 24
        E 2 b9 04 56
        E 22 b9 04 46
        E 15 b9 04 36
        E 55 b9 04 25
        E 78 b9 04 15
        E 53 89 33 40
        E 22 89 2c 40
        E 19 b9 04 25
        E 29 b9 04 36
        E 31 b9 04 46
        E 138 99 24 65
        E 10 b9 04 36
        E 36 b9 04 22
        E 39 b9 04 12
        E 36 b9 04 00
        E 121 89 24 40
        E 164 99 26 79
        E 19 b9 04 12
        E 7 b9 04 25
        E 10 b9 04 36
        E 15 99 33 7f
        E 12 b9 04 46
        E 2 b9 04 4c
        E 3 99 2c 1a
        E 2 b9 04 57
        E 25 b9 04 46
        E 9 b9 04 36
        E 48 b9 04 25
        E 32 b9 04 15
        E 60 89 26 40
        E 53 89 33 40
        E 12 89 2c 40
        E 17 b9 04 25
        E 61 b9 04 36
        E 98 b9 04 25
        E 37 b9 04 15
        E 36 b9 04 03
        E 8 b9 04 00
        E 287 b9 04 12
        E 5 b9 04 25
        E 7 b9 04 36
        E 2 99 33 7f
        E 5 b9 04 46
        E 13 b9 04 4c
        E 2 99 2c 26
        E 12 b9 04 56
        E 31 b9 04 46
        E 46 b9 04 36
        E 48 b9 04 25
        E 49 b9 04 15
        E 39 89 33 40
        E 17 89 2c 40
        E 45 b9 04 25
        E 27 b9 04 36
        E 31 b9 04 46
        E 31 b9 04 4f
        E 5 99 2c 08
        E 37 99 24 5c
        E 92 b9 04 36
        E 33 b9 04 22
        E 34 b9 04 12
        E 37 b9 04 00
        E 9 89 2c 40
        E 36 89 24 40
        E 189 99 26 7f
        E 24 99 33 7f
        E 2 b9 04 12
        E 14 b9 04 22
        E 13 b9 04 32
        E 10 b9 04 43
        E 5 b9 04 4f
        E 2 99 2c 30
        E 4 b9 04 54
        E 18 b9 04 43
        E 7 b9 04 32
        E 7 b9 04 22
        E 136 89 26 40
        E 23 89 33 40
        E 30 b9 04 32
        E 17 89 2c 40
        E 57 99 24 4e
        E 68 b9 04 22
        E 44 b9 04 12
        E 36 b9 04 00
        E 94 89 24 40
        E 177 b9 04 12
        E 7 b9 04 25
        E 9 99 24 62
        E 2 b9 04 36
        E 18 b9 04 46
        E 4 b9 04 4c
        E 3 99 2c 14
        E 14 99 33 71
        E 8 b9 04 36
        E 14 b9 04 25
        E 56 b9 04 15
        E 123 89 24 40
        E 17 b9 04 25
        E 10 89 2c 40
        E 11 b9 04 36
        E 5 89 33 40
        E 20 b9 04 46
        E 16 b9 04 4f
        E 3 99 2c 0c
        E 15 b9 04 56
        E 89 99 24 4c
        E 26 b9 04 46
        E 32 b9 04 36
        E 24 b9 04 22
        E 27 b9 04 12
        E 26 89 2c 40
        E 3 b9 04 00
        E 103 89 24 40
        E 189 b9 04 12
        E 2 b9 04 22
        E 5 b9 04 34
        E 5 b9 04 46
        E 3 b9 04 4d
        E 2 99 2c 34
        E 2 99 28 67
        E 29 b9 04 57
        E 5 99 33 71
        E 2 b9 04 69
        E 15 b9 04 57
        E 12 b9 04 47
        E 41 b9 04 36
        E 22 b9 04 25
        E 39 b9 04 15
        E 77 89 2c 40
        E 3 89 28 40
        E 33 89 33 40
        E 43 b9 04 25
        E 27 b9 04 36
        E 36 99 24 60
        E 129 b9 04 25
        E 23 b9 04 15
        E 29 b9 04 03
        E 7 b9 04 00
        E 54 89 24 40
        E 193 99 24 63
        E 20 b9 04 12
        E 4 b9 04 22
        E 7 b9 04 32
        E 5 b9 04 43
        E 3 99 33 5d
        E 19 b9 04 4c
        E 3 99 2c 26
        E 6 b9 04 53
        E 23 b9 04 43
        E 14 b9 04 32
        E 46 b9 04 22
        E 68 b9 04 12
        E 24 89 24 40
        E 38 89 33 40
        E 13 b9 04 25
        E 9 89 2c 40
        E 12 b9 04 36
        E 25 b9 04 46
        E 14 b9 04 4f
        E 2 99 2c 0a
        E 17 b9 04 56
        E 73 99 33 2f
        E 16 99 24 60
        E 42 b9 04 46
        E 29 b9 04 36
        E 22 b9 04 22
        E 24 b9 04 12
        E 21 89 2c 40
        E 15 b9 04 00
        E 73 89 33 40
        E 16 89 24 40
        E 165 b9 04 12
        E 5 b9 04 22
        E 4 b9 04 32
        E 8 b9 04 43
        E 5 99 26 7e
        E 14 b9 04 4c
        E 2 99 2c 20
        E 5 99 33 7f
        E 2 b9 04 54
        E 7 b9 04 64
        E 20 b9 04 53
        E 10 b9 04 43
        E 43 b9 04 32
        E 25 b9 04 22
        E 55 b9 04 12
        E 58 89 26 40
        E 17 89 2c 40
        E 5 89 33 40
        E 41 b9 04 22
        E 24 b9 04 32
        E 32 b9 04 43
        E 17 99 24 4e
        E 31 99 33 43
        E 96 b9 04 32
        E 22 b9 04 22
        E 25 b9 04 12
        E 30 b9 04 00
        E 35 89 24 40
        E 33 89 33 40
        E 181 99 24 60
        E 8 b9 04 12
        E 7 b9 04 22
        E 5 99 33 7f
        E 0 b9 04 32
        E 8 b9 04 44
        E 19 b9 04 4c
        E 2 99 2c 24
        E 7 b9 04 54
        E 10 b9 04 64
        E 19 b9 04 54
        E 34 b9 04 44
        E 21 b9 04 34
        E 32 b9 04 22
        E 53 b9 04 12
        E 20 89 24 40
        E 19 89 33 40
        E 26 89 2c 40
        E 32 b9 04 25
        E 21 b9 04 36
        E 24 b9 04 46
        E 17 b9 04 4f
        E 3 99 2c 0c
        E 24 b9 04 56
        E 22 99 33 43
        E 15 99 24 51
        E 74 b9 04 46
        E 32 b9 04 36
        E 22 b9 04 25
        E 21 b9 04 15
        E 27 b9 04 03
        E 7 89 2c 40
        E 2 b9 04 00
        E 47 89 33 40
        E 9 89 24 40
        E 186 99 26 7f
        E 5 b9 04 12
        E 5 b9 04 22
        E 5 b9 04 32
        E 7 b9 04 43
        E 7 99 33 7f
        E 7 b9 04 4c
        E 3 99 2c 22
        E 7 b9 04 53
        E 11 b9 04 64
        E 18 b9 04 54
        E 12 b9 04 44
        E 39 b9 04 34
        E 32 b9 04 22
        E 45 b9 04 12
        E 38 89 26 40
        E 30 89 33 40
        E 9 89 2c 40
        E 49 b9 04 22
        E 19 b9 04 32
        E 27 b9 04 43
        E 24 99 24 59
        E 5 b9 04 4f
        E 4 99 2c 0a
        E 7 b9 04 53
        E 8 99 33 3d
        E 94 b9 04 43
        E 27 b9 04 32
        E 14 b9 04 22
        E 24 b9 04 12
        E 27 b9 04 00
        E 31 89 24 40
        E 12 89 2c 40
        E 12 89 33 40
        E 170 99 24 57
        E 31 b9 04 12
        E 12 99 33 7f
        E 3 b9 04 22
        E 2 b9 04 34
        E 0 b9 04 46
        E 2 b9 04 4c
        E 3 99 2c 30
        E 27 b9 04 56
        E 11 b9 04 66
        E 12 b9 04 56
        E 13 b9 04 46
        E 36 b9 04 36
        E 24 b9 04 25
        E 39 b9 04 15
        E 28 89 24 40
        E 44 89 33 40
        E 9 89 2c 40
        E 22 b9 04 25
        E 25 b9 04 36
        E 24 b9 04 46
        E 22 b9 04 4f
        E 1 99 2c 0a
        E 30 b9 04 56
        E 29 99 33 4f
        E 7 99 24 51
        E 49 b9 04 46
        E 26 b9 04 36
        E 25 b9 04 22
        E 21 b9 04 12
        E 31 b9 04 00
        E 27 89 2c 40
        E 56 89 33 40
        E 7 89 24 40
        E 167 b9 04 12
        E 4 b9 04 25
        E 5 b9 04 36
        E 3 b9 04 47
        E 2 b9 04 4d
        E 3 99 2c 3a
        E 2 99 26 7f
        E 24 b9 04 57
        E 8 b9 04 67
        E 7 99 33 7f
        E 19 b9 04 57
        E 39 b9 04 47
        E 29 b9 04 36
        E 26 b9 04 25
        E 34 b9 04 15
        E 55 89 2c 40
        E 2 89 26 40
        E 37 89 33 40
        E 55 b9 04 25
        E 17 b9 04 36
        E 24 b9 04 46
        E 15 b9 04 4d
        E 2 99 2c 0c
        E 8 99 24 57
        E 17 b9 04 56
        E 29 99 33 4c
        E 72 b9 04 46
        E 25 b9 04 36
        E 19 b9 04 25
        E 19 b9 04 15
        E 26 b9 04 03
        E 11 b9 04 00
        E 16 89 2c 40
        E 10 89 24 40
        E 43 89 33 40
        E 148 99 24 51
        E 22 b9 04 12
        E 7 b9 04 25
        E 9 b9 04 36
        E 3 b9 04 46
        E 2 b9 04 4c
        E 5 99 2c 2c
        E 5 99 33 7f
        E 12 b9 04 56
        E 17 b9 04 46
        E 17 b9 04 36
        E 48 b9 04 25
        E 36 b9 04 15
        E 61 89 24 40
        E 43 89 2c 40
        E 10 89 33 40
        E 8 b9 04 25
        E 23 b9 04 36
        E 30 b9 04 46
        E 21 b9 04 4f
        E 3 99 2c 08
        E 28 b9 04 56
        E 42 99 24 53
        E 14 99 33 48
        E 37 b9 04 46
        E 26 b9 04 36
        E 24 b9 04 22
        E 24 b9 04 12
        E 37 b9 04 00
        E 9 89 2c 40
        E 70 89 24 40
        E 14 89 33 40
        E 143 b9 04 12
        E 10 99 26 7f
        E 3 b9 04 22
        E 7 b9 04 32
        E 19 b9 04 43
        E 5 b9 04 4c
        E 2 99 2c 16
        E 3 b9 04 53
        E 14 99 33 7f
        E 14 b9 04 43
        E 39 b9 04 32
        E 17 b9 04 22
        E 41 b9 04 12
        E 77 89 26 40
        E 37 89 2c 40
        E 14 b9 04 22
        E 5 89 33 40
        E 19 b9 04 32
        E 31 b9 04 43
        E 27 99 24 53
        E 32 b9 04 4f
        E 2 99 2c 06
        E 36 99 33 3d
        E 52 b9 04 32
        E 21 b9 04 22
        E 24 b9 04 12
        E 31 b9 04 00
        E 44 89 24 40
        E 34 89 2c 40
        E 37 89 33 40
        E 122 b9 04 12
        E 5 99 24 59
        E 8 b9 04 25
        E 6 b9 04 36
        E 10 b9 04 46
        E 7 b9 04 4c
        E 3 99 2c 16
        E 19 99 33 7f
        E 17 b9 04 36
        E 53 b9 04 25
        E 49 b9 04 15
        E 69 89 24 40
        E 35 89 2c 40
        E 22 b9 04 25
        E 4294967295 89 33 40
        E 7 b9 04 36
        E 27 b9 04 46
        E 15 b9 04 4f
        E 2 99 2c 0a
        E 20 b9 04 56
        E 99 99 24 53
        E 4 99 33 53
        E 29 b9 04 46
        E 22 b9 04 36
        E 19 b9 04 22
        E 22 b9 04 12
        E 26 89 2c 40
        E 7 b9 04 00
        E 112 89 24 40
        E 4 89 33 40
        E 131 b9 04 12
        E 10 b9 04 25
        E 8 b9 04 36
        E 6 b9 04 46
        E 8 b9 04 4c
        E 2 99 2c 1e
        E 2 99 26 7f
        E 8 b9 04 56
        E 9 b9 04 67
        E 17 99 33 7f
        E 5 b9 04 57
        E 36 b9 04 47
        E 20 b9 04 36
        E 34 b9 04 25
        E 32 b9 04 15
        E 81 89 2c 40
        E 3 89 26 40
        E 31 89 33 40
        E 38 b9 04 27
        E 24 b9 04 38
        E 32 b9 04 49
        E 12 b9 04 4d
        E 3 99 2c 0a
        E 24 99 24 5c
        E 21 99 33 4b
        E 73 b9 04 38
        E 27 b9 04 27
        E 23 b9 04 15
        E 25 b9 04 03
        E 5 b9 04 00
        E 46 89 2c 40
        E 21 89 24 40
        E 25 89 33 40
        E 144 99 24 49
        E 20 b9 04 12
        E 6 b9 04 25
        E 6 b9 04 38
        E 5 b9 04 49
        E 2 b9 04 4c
        E 0 99 2c 3c
        E 12 99 33 7f
        E 15 b9 04 5a
        E 34 b9 04 4a
        E 43 b9 04 3a
        E 32 b9 04 29
        E 50 b9 04 18
        E 17 89 24 40
        E 41 89 2c 40
        E 10 89 33 40
        E 31 b9 04 29
        E 20 b9 04 3a
        E 23 b9 04 4a
        E 8 b9 04 4f
        E 2 99 2c 0c
        E 22 b9 04 5a
        E 56 99 33 6d
        E 9 99 24 50
        E 64 b9 04 4a
        E 26 b9 04 3a
        E 21 b9 04 29
        E 22 b9 04 18
        E 22 89 2c 40
        E 2 b9 04 06
        E 12 b9 04 00
        E 65 89 33 40
        E 8 89 24 40
        E 178 b9 04 12
        E 7 b9 04 25
        E 4 99 26 7f
        E 4 b9 04 36
        E 5 b9 04 46
        E 5 b9 04 4c
        E 2 99 2c 26
        E 15 b9 04 56
        E 10 99 33 7a
        E 2 b9 04 67
        E 16 b9 04 57
        E 13 b9 04 47
        E 38 b9 04 36
        E 29 b9 04 25
        E 39 b9 04 15
        E 63 89 26 40
        E 20 89 2c 40
        E 21 89 33 40
        E 42 b9 04 25
        E 23 b9 04 36
        E 29 b9 04 46
        E 17 99 24 58
        E 5 b9 04 4d
        E 1 99 2c 0a
        E 52 99 33 53
        E 68 b9 04 36
        E 26 b9 04 25
        E 22 b9 04 15
        E 26 b9 04 03
        E 8 b9 04 00
        E 34 89 24 40
        E 8 89 2c 40
        E 50 89 33 40
        E 154 99 24 54
        E 7 b9 04 12
        E 8 b9 04 25
        E 5 b9 04 38
        E 5 b9 04 4a
        E 2 b9 04 4d
        E 2 99 2c 36
        E 20 99 33 77
        E 7 b9 04 5a
        E 26 b9 04 4a
        E 39 b9 04 3a
        E 31 b9 04 29
        E 54 b9 04 18
        E 36 89 24 40
        E 29 89 2c 40
        E 22 89 33 40
        E 12 b9 04 29
        E 21 b9 04 3a
        E 25 b9 04 4a
        E 7 b9 04 4f
        E 2 99 2c 0a
        E 32 b9 04 5a
        E 67 99 33 60
        E 17 99 24 58
        E 27 b9 04 4a
        E 29 b9 04 3a
        E 19 b9 04 29
        E 24 b9 04 18
        E 25 b9 04 06
        E 2 89 2c 40
        E 12 b9 04 00
        E 87 89 33 40
        E 17 89 24 40
        E 136 b9 04 12
        E 9 b9 04 27
        E 7 b9 04 38
        E 5 99 26 7f
        E 5 b9 04 49
        E 2 b9 04 4c
        E 2 99 2c 1e
        E 10 b9 04 5a
        E 15 b9 04 6a
        E 12 99 33 7e
        E 14 b9 04 5a
        E 44 b9 04 4a
        E 31 b9 04 3a
        E 24 b9 04 29
        E 39 b9 04 18
        E 43 89 26 40
        E 8 89 2c 40
        E 39 89 33 40
        E 53 b9 04 29
        E 27 b9 04 3a
        E 36 99 24 51
        E 0 b9 04 4a
        E 11 b9 04 4f
        E 2 99 2c 08
        E 34 99 33 4c
        E 73 b9 04 3a
        E 24 b9 04 29
        E 22 b9 04 18
        E 21 b9 04 06
        E 13 b9 04 00
        E 41 89 24 40
        E 14 89 2c 40
        E 35 89 33 40
        E 142 99 24 52
        E 15 b9 04 12
        E 4 b9 04 27
        E 7 b9 04 3a
        E 5 b9 04 4a
        E 2 b9 04 4c
        E 6 99 2c 2c
        E 19 99 33 75
        E 2 b9 04 5a
        E 61 b9 04 4a
        E 24 b9 04 3a
        E 37 b9 04 29
        E 45 b9 04 18
        E 17 89 24 40
        E 34 89 2c 40
        E 21 89 33 40
        E 20 b9 04 29
        E 22 b9 04 3a
        E 26 b9 04 4a
        E 10 b9 04 4f
        E 2 99 2c 0a
        E 53 b9 04 5a
        E 27 99 24 51
        E 2 99 33 60
        E 46 b9 04 4a
        E 27 b9 04 3a
        E 24 b9 04 29
        E 22 b9 04 18
        E 24 b9 04 06
        E 12 b9 04 00
        E 4 89 2c 40
        E 83 89 24 40
        E 2 89 33 40
        E 148 b9 04 12
        E 7 b9 04 25
        E 5 b9 04 36
        E 5 99 26 7f
        E 5 b9 04 46
        E 7 b9 04 4c
        E 2 99 2c 20
        E 10 b9 04 56
        E 9 b9 04 66
        E 15 99 33 77
        E 15 b9 04 56
        E 43 b9 04 46
        E 31 b9 04 36
        E 32 b9 04 25
        E 41 b9 04 15
        E 31 89 26 40
        E 14 89 2c 40
        E 34 89 33 40
        E 34 b9 04 25
        E 25 b9 04 36
        E 26 b9 04 46
        E 18 b9 04 4f
        E 3 99 2c 0a
        E 13 99 24 4e
        E 14 b9 04 56
        E 22 99 33 53
        E 75 b9 04 46
        E 24 b9 04 36
        E 24 b9 04 22
        E 24 b9 04 12
        E 29 b9 04 00
        E 18 89 2c 40
        E 11 89 24 40
        E 37 89 33 40
        E 157 99 24 51
        E 4 b9 04 12
        E 13 b9 04 25
        E 2 b9 04 36
        E 7 b9 04 46
        E 3 b9 04 4c
        E 1 99 2c 24
        E 13 b9 04 56
        E 5 99 33 7c
        E 65 b9 04 46
        E 36 b9 04 36
        E 42 b9 04 25
        E 50 89 24 40
        E 15 b9 04 15
        E 19 89 2c 40
        E 15 89 33 40
        E 34 b9 04 25
        E 19 b9 04 36
        E 26 b9 04 46
        E 20 b9 04 4f
        E 2 99 2c 0a
        E 17 b9 04 56
        E 53 99 24 50
        E 5 99 33 5b
        E 65 b9 04 46
        E 27 b9 04 36
        E 22 b9 04 22
        E 26 b9 04 12
        E 27 b9 04 00
        E 2 89 2c 40
        E 70 89 24 40
        E 5 89 33 40
        E 167 b9 04 12
        E 7 99 26 65
        E 3 b9 04 27
        E 5 b9 04 38
        E 11 b9 04 49
        E 3 b9 04 4c
        E 2 99 2c 1c
        E 10 b9 04 5a
        E 5 99 33 7f
        E 7 b9 04 6a
        E 20 b9 04 58
        E 40 b9 04 47
        E 20 b9 04 36
        E 40 b9 04 25
        E 39 b9 04 15
        E 39 89 26 40
        E 24 89 2c 40
        E 14 89 33 40
        E 48 b9 04 25
        E 23 b9 04 36
        E 21 b9 04 46
        E 20 b9 04 4f
        E 2 99 2c 0e
        E 5 99 24 53
        E 15 b9 04 56
        E 45 99 33 59
        E 73 b9 04 46
        E 29 b9 04 36
        E 19 b9 04 25
        E 20 b9 04 15
        E 24 b9 04 03
        E 5 b9 04 00
        E 7 89 2c 40
        E 6 89 24 40
        E 61 89 33 40
        E 160 99 24 54
        E 15 b9 04 12
        E 6 b9 04 22
        E 2 b9 04 32
        E 8 b9 04 43
        E 5 b9 04 4c
        E 2 99 2c 24
        E 7 b9 04 53
        E 8 99 33 6f
        E 15 b9 04 63
        E 11 b9 04 51
        E 42 b9 04 41
        E 26 b9 04 30
        E 37 b9 04 20
        E 60 89 24 40
        E 36 89 2c 40
        E 15 89 33 40
        E 41 b9 04 30
        E 19 b9 04 41
        E 24 b9 04 4f
        E 3 99 2c 0c
        E 2 b9 04 51
        E 77 99 33 5d
        E 5 99 24 43
        E 66 b9 04 41
        E 28 b9 04 30
        E 17 b9 04 20
        E 27 b9 04 0f
        E 19 89 2c 40
        E 8 b9 04 00
        E 74 89 33 40
        E 2 89 24 40
        E 173 b9 04 12
        E 7 b9 04 22
        E 4 b9 04 34
        E 5 b9 04 46
        E 3 b9 04 4d
        E 2 99 2c 32
        E 2 99 26 7e
        E 16 b9 04 56
        E 11 b9 04 66
        E 12 99 33 7f
        E 20 b9 04 56
        E 40 b9 04 46
        E 37 b9 04 36
        E 27 b9 04 25
        E 41 b9 04 15
        E 37 89 2c 40
        E 3 89 26 40
        E 37 89 33 40
        E 46 b9 04 25
        E 21 b9 04 36
        E 22 b9 04 46
        E 15 99 24 51
        E 2 b9 04 4f
        E 5 99 2c 0c
        E 14 b9 04 56
        E 56 99 33 58
        E 65 b9 04 46
        E 27 b9 04 36
        E 24 b9 04 25
        E 19 b9 04 15
        E 29 b9 04 03
        E 3 89 24 40
        E 2 b9 04 00
        E 5 89 2c 40
        E 68 89 33 40
        E 152 99 24 4b
        E 9 b9 04 12
        E 8 b9 04 22
        E 7 b9 04 32
        E 5 b9 04 43
        E 10 b9 04 4c
        E 2 99 2c 20
        E 5 b9 04 53
        E 17 99 33 6c
        E 2 b9 04 64
        E 27 b9 04 54
        E 38 b9 04 44
        E 32 b9 04 34
        E 31 b9 04 22
        E 46 b9 04 12
        E 3 89 24 40
        E 42 89 2c 40
        E 23 89 33 40
        E 26 b9 04 22
        E 17 b9 04 32
        E 22 b9 04 43
        E 24 b9 04 4f
        E 2 99 2c 0a
        E 10 b9 04 53
        E 60 99 24 47
        E 22 99 33 53
        E 42 b9 04 43
        E 30 b9 04 32
        E 15 b9 04 22
        E 27 b9 04 12
        E 33 b9 04 00
        E 5 89 2c 40
        E 71 89 24 40
        E 16 89 33 40
        E 143 b9 04 12
        E 9 b9 04 25
        E 6 99 26 78
        E 2 b9 04 36
        E 7 b9 04 46
        E 7 b9 04 4c
        E 3 99 2c 20
        E 12 b9 04 56
        E 9 b9 04 67
        E 22 99 33 7f
        E 3 b9 04 57
        E 41 b9 04 47
        E 34 b9 04 36
        E 31 b9 04 25
        E 37 b9 04 15
        E 36 89 26 40
        E 14 89 2c 40
        E 46 89 33 40
        E 41 b9 04 25
        E 22 b9 04 36
        E 24 b9 04 46
        E 12 99 24 4c
        E 5 b9 04 4d
        E 4 99 2c 0a
        E 25 b9 04 56
        E 19 99 33 4c
        E 75 b9 04 46
        E 27 b9 04 36
        E 21 b9 04 22
        E 24 b9 04 12
        E 27 b9 04 00
        E 14 89 24 40
        E 13 89 2c 40
        E 43 89 33 40
        E 149 99 24 4f
        E 32 b9 04 12
        E 8 b9 04 25
        E 2 b9 04 36
        E 5 b9 04 46
        E 2 b9 04 4c
        E 3 99 2c 2e
        E 6 99 33 74
        E 13 b9 04 56
        E 15 b9 04 66
        E 19 b9 04 56
        E 39 b9 04 46
        E 19 b9 04 36
        E 36 b9 04 25
        E 31 b9 04 15
        E 12 89 24 40
        E 54 89 2c 40
        E 4 89 33 40
        E 49 b9 04 25
        E 21 b9 04 36
        E 32 b9 04 46
        E 24 b9 04 4d
        E 3 99 2c 08
        E 29 99 24 4a
        E 7 99 33 5b
        E 96 b9 04 36
        E 25 b9 04 22
        E 26 b9 04 12
        E 36 b9 04 00
        E 24 89 2c 40
        E 27 89 24 40
        E 8 89 33 40
        E 171 b9 04 12
        E 10 99 26 7b
        E 2 b9 04 25
        E 7 b9 04 36
        E 10 b9 04 46
        E 5 b9 04 4c
        E 2 99 2c 18
        E 7 b9 04 56
        E 12 99 33 74
        E 3 b9 04 66
        E 14 b9 04 55
        E 39 b9 04 44
        E 29 b9 04 34
        E 39 b9 04 22
        E 60 b9 04 12
        E 14 89 26 40
        E 28 89 2c 40
        E 19 89 33 40
        E 43 b9 04 22
        E 19 b9 04 32
        E 22 b9 04 43
        E 27 99 24 51
        E 2 b9 04 4f
        E 2 99 2c 0a
        E 10 b9 04 53
        E 49 99 33 62
        E 58 b9 04 43
        E 30 b9 04 32
        E 17 b9 04 22
        E 25 b9 04 12
        E 29 b9 04 00
        E 22 89 24 40
        E 2 89 2c 40
        E 60 89 33 40
        E 158 99 24 54
        E 7 b9 04 12
        E 7 b9 04 25
        E 5 b9 04 36
        E 7 b9 04 46
        E 2 b9 04 4c
        E 2 99 2c 2e
        E 10 99 33 78
        E 8 b9 04 56
        E 9 b9 04 66
        E 22 b9 04 56
        E 39 b9 04 46
        E 24 b9 04 36
        E 39 b9 04 25
        E 36 b9 04 15
        E 24 89 24 40
        E 34 89 2c 40
        E 9 89 33 40
        E 34 b9 04 25
        E 20 b9 04 36
        E 23 b9 04 46
        E 15 b9 04 4f
        E 3 99 2c 0c
        E 19 b9 04 56
        E 60 99 24 49
        E 8 99 33 67
        E 56 b9 04 46
        E 23 b9 04 36
        E 19 b9 04 25
        E 23 b9 04 15
        E 26 b9 04 03
        E 8 b9 04 00
        E 2 89 2c 40
        E 77 89 24 40
        E 5 89 33 40
        E 160 b9 04 12
        E 7 b9 04 22
        E 5 b9 04 32
        E 4 99 26 7c
        E 3 b9 04 43
        E 7 b9 04 4c
        E 3 99 2c 22
        E 7 b9 04 53
        E 7 99 33 7f
        E 7 b9 04 64
        E 24 b9 04 54
        E 41 b9 04 44
        E 30 b9 04 34
        E 30 b9 04 22
        E 61 b9 04 12
        E 27 89 26 40
        E 7 89 2c 40
        E 17 89 33 40
        E 46 b9 04 22
        E 21 b9 04 32
        E 37 b9 04 43
        E 9 99 24 53
        E 35 b9 04 4f
        E 2 99 2c 08
        E 14 99 33 5e
        E 78 b9 04 32
        E 17 b9 04 22
        E 23 b9 04 12
        E 32 b9 04 00
        E 44 89 24 40
        E 33 89 2c 40
        E 17 89 33 40
        E 142 99 24 4c
        E 18 b9 04 12
        E 4 b9 04 22
        E 5 b9 04 34
        E 3 b9 04 44
        E 5 b9 04 4d
        E 2 99 2c 38
        E 2 b9 04 54
        E 10 99 33 76
        E 19 b9 04 65
        E 32 b9 04 55
        E 45 b9 04 44
        E 39 b9 04 34
        E 27 b9 04 22
        E 34 89 24 40
        E 34 89 2c 40
        E 12 89 33 40
        E 60 b9 04 32
        E 26 b9 04 43
        E 28 b9 04 4f
        E 2 99 2c 08
        E 9 b9 04 53
        E 36 99 24 46
        E 8 99 33 67
        E 67 b9 04 43
        E 29 b9 04 32
        E 20 b9 04 22
        E 26 b9 04 12
        E 29 b9 04 00
        E 17 89 2c 40
        E 46 89 24 40
        E 12 89 33 40
        E 153 b9 04 12
        E 11 99 26 7b
        E 1 b9 04 22
        E 7 b9 04 32
        E 9 b9 04 43
        E 5 b9 04 4c
        E 3 99 2c 1a
        E 2 b9 04 54
        E 12 b9 04 64
        E 7 99 33 78
        E 8 b9 04 54
        E 12 b9 04 44
        E 43 b9 04 34
        E 39 b9 04 22
        E 96 89 26 40
        E 22 89 2c 40
        E 15 b9 04 1d
        E 4 89 33 40
        E 25 b9 04 2e
        E 26 b9 04 3e
        E 39 b9 04 4f
        E 3 99 2c 08
        E 4 b9 04 4f
        E 36 99 24 50
        E 37 99 33 54
        E 55 b9 04 3f
        E 27 b9 04 2e
        E 19 b9 04 1d
        E 27 b9 04 0c
        E 17 b9 04 00
        E 19 89 2c 40
        E 41 89 24 40
        E 39 89 33 40
        E 152 99 24 4b
        E 12 b9 04 12
        E 5 b9 04 22
        E 4 b9 04 32
        E 5 b9 04 43
        E 3 b9 04 4c
        E 2 99 2c 34
        E 3 b9 04 53
        E 12 99 33 6b
        E 17 b9 04 63
        E 26 b9 04 53
        E 39 b9 04 43
        E 19 b9 04 32
        E 34 b9 04 22
        E 46 b9 04 12
        E 17 89 24 40
        E 29 89 2c 40
        E 15 89 33 40
        E 24 b9 04 22
        E 19 b9 04 32
        E 29 b9 04 43
        E 29 b9 04 4f
        E 2 99 2c 0a
        E 10 b9 04 53
        E 34 99 24 47
        E 29 99 33 58
        E 50 b9 04 43
        E 27 b9 04 32
        E 17 b9 04 22
        E 24 b9 04 12
        E 34 b9 04 00
        E 17 89 2c 40
        E 46 89 24 40
        E 26 89 33 40
        E 135 b9 04 12
        E 11 b9 04 22
        E 7 99 26 7c
        E 2 b9 04 32
        E 7 b9 04 44
        E 5 b9 04 4c
        E 2 99 2c 1a
        E 2 b9 04 54
        E 13 99 33 7c
        E 2 b9 04 64
        E 24 b9 04 54
        E 39 b9 04 44
        E 36 b9 04 34
        E 27 b9 04 22
        E 51 b9 04 12
        E 29 89 26 40
        E 22 89 2c 40
        E 13 89 33 40
        E 47 b9 04 22
        E 22 b9 04 32
        E 31 b9 04 43
        E 29 99 24 4d
        E 2 b9 04 4d
        E 5 99 2c 08
        E 30 99 33 56
        E 83 b9 04 32
        E 18 b9 04 22
        E 22 b9 04 12
        E 26 b9 04 00
        E 56 89 24 40
        E 5 89 2c 40
        E 30 89 33 40
        E 138 99 24 49
        E 25 b9 04 12
        E 5 b9 04 25
        E 5 b9 04 38
        E 5 b9 04 49
        E 1 b9 04 4c
        E 3 99 2c 3a
        E 2 99 33 7a
        E 25 b9 04 5b
        E 10 b9 04 6c
        E 17 b9 04 5b
        E 40 b9 04 4a
        E 22 b9 04 3a
        E 41 b9 04 29
        E 44 89 24 40
        E 41 89 2c 40
        E 5 89 33 40
        E 48 b9 04 3a
        E 26 b9 04 4a
        E 8 b9 04 4f
        E 2 99 2c 0a
        E 31 b9 04 5a
        E 39 99 24 47
        E 17 99 33 3b
        E 60 b9 04 4a
        E 30 b9 04 3a
        E 23 b9 04 29
        E 25 b9 04 18
        E 17 89 2c 40
        E 4 b9 04 06
        E 15 b9 04 00
        E 51 89 24 40
        E 16 89 33 40
        E 153 b9 04 12
        E 8 99 26 76
        E 5 b9 04 22
        E 9 b9 04 32
        E 6 b9 04 43
        E 5 b9 04 4d
        E 3 99 2c 24
        E 2 b9 04 53
        E 13 99 33 70
        E 2 b9 04 63
        E 68 b9 04 53
        E 19 b9 04 43
        E 32 b9 04 32
        E 26 b9 04 22
        E 56 89 26 40
        E 5 b9 04 12
        E 21 89 2c 40
        E 13 89 33 40
        E 55 b9 04 22
        E 22 b9 04 32
        E 31 b9 04 43
        E 5 99 24 4e
        E 29 b9 04 4f
        E 2 99 2c 0a
        E 12 b9 04 53
        E 8 99 33 63
        E 81 b9 04 43
        E 27 b9 04 32
        E 17 b9 04 22
        E 22 b9 04 12
        E 27 b9 04 00
        E 16 89 24 40
        E 32 89 2c 40
        E 19 89 33 40
        E 153 99 24 50
        E 33 b9 04 12
        E 7 99 33 6b
        E 3 b9 04 22
        E 2 b9 04 32
        E 3 b9 04 43
        E 2 b9 04 4d
        E 3 99 2c 3a
        E 2 b9 04 54
        E 29 b9 04 65
        E 24 b9 04 55
        E 41 b9 04 44
        E 29 b9 04 34
        E 34 b9 04 22
        E 31 89 24 40
        E 39 89 33 40
        E 14 89 2c 40
        E 56 b9 04 32
        E 45 b9 04 43
        E 52 b9 04 4f
        E 3 99 2c 06
        E 2 99 33 43
        E 4 99 24 46
        E 95 b9 04 32
        E 14 b9 04 22
        E 26 b9 04 12
        E 32 b9 04 00
        E 65 89 2c 40
        E 5 89 33 40
        E 7 89 24 40
        E 145 99 26 7f
        E 10 b9 04 12
        E 10 b9 04 25
        E 7 b9 04 36
        E 10 99 33 7f
        E 3 b9 04 46
        E 1 b9 04 4c
        E 5 99 2c 18
        E 5 b9 04 56
        E 12 b9 04 66
        E 16 b9 04 56
        E 15 b9 04 46
        E 39 b9 04 36
        E 38 b9 04 25
        E 45 b9 04 15
        E 28 89 26 40
        E 34 89 33 40
        E 10 89 2c 40
        E 43 b9 04 25
        E 27 b9 04 36
        E 25 99 24 4e
        E 9 b9 04 46
        E 31 b9 04 4f
        E 3 99 2c 08
        E 14 99 33 68
        E 92 b9 04 36
        E 24 b9 04 25
        E 22 b9 04 15
        E 22 b9 04 03
        E 9 b9 04 00
        E 19 89 24 40
        E 39 89 2c 40
        E 17 89 33 40
        E 138 99 24 4e
        E 39 b9 04 12
        E 1 99 33 75
        E 5 b9 04 22
        E 5 b9 04 32
        E 5 b9 04 46
        E 3 b9 04 4d
        E 2 99 2c 38
        E 17 b9 04 56
        E 17 b9 04 66
        E 14 b9 04 56
        E 41 b9 04 46
        E 22 b9 04 36
        E 46 b9 04 25
        E 24 89 24 40
        E 42 89 33 40
        E 21 89 2c 40
        E 54 b9 04 36
        E 33 b9 04 46
        E 24 b9 04 4f
        E 3 99 2c 08
        E 33 99 33 51
        E 17 99 24 4d
        E 88 b9 04 36
        E 21 b9 04 25
        E 24 b9 04 15
        E 25 b9 04 03
        E 12 b9 04 00
        E 21 89 2c 40
        E 36 89 33 40
        E 17 89 24 40
        E 160 b9 04 12
        E 8 99 26 7e
        E 2 b9 04 22
        E 4 b9 04 32
        E 8 b9 04 43
        E 5 b9 04 4c
        E 2 99 2c 22
        E 7 b9 04 53
        E 7 99 33 67
        E 8 b9 04 64
        E 31 b9 04 54
        E 43 b9 04 44
        E 39 b9 04 34
        E 29 b9 04 22
        E 59 89 26 40
        E 18 89 2c 40
        E 15 89 33 40
        E 39 b9 04 1d
        E 31 b9 04 2e
        E 25 b9 04 3e
        E 28 99 24 55
        E 5 b9 04 4f
        E 4 99 2c 0a
        E 3 b9 04 4f
        E 29 99 33 51
        E 87 b9 04 3f
        E 25 b9 04 2e
        E 19 b9 04 1d
        E 26 b9 04 0c
        E 17 b9 04 00
        E 29 89 24 40
        E 10 89 2c 40
        E 26 89 33 40
        E 155 99 24 4b
        E 32 b9 04 12
        E 7 b9 04 25
        E 5 b9 04 38
        E 2 99 33 68
        E 2 b9 04 49
        E 3 b9 04 4c
        E 2 99 2c 38
        E 24 b9 04 5a
        E 10 b9 04 6a
        E 21 b9 04 5a
        E 40 b9 04 4a
        E 21 b9 04 3a
        E 36 b9 04 29
        E 37 b9 04 18
        E 2 89 24 40
        E 43 89 33 40
        E 10 89 2c 40
        E 48 b9 04 29
        E 25 b9 04 3a
        E 38 b9 04 4a
        E 17 b9 04 4f
        E 3 99 2c 08
        E 29 99 33 59
        E 3 99 24 4a
        E 84 b9 04 3a
        E 24 b9 04 29
        E 22 b9 04 18
        E 26 b9 04 06
        E 15 b9 04 00
        E 38 89 2c 40
        E 32 89 33 40
        E 2 89 24 40
        E 157 b9 04 12
        E 12 99 26 7d
        E 5 b9 04 25
        E 9 b9 04 36
        E 8 b9 04 46
        E 3 b9 04 4d
        E 2 99 2c 28
        E 3 b9 04 56
        E 7 99 33 62
        E 2 b9 04 66
        E 16 b9 04 56
        E 44 b9 04 46
        E 22 b9 04 36
        E 48 b9 04 25
        E 53 b9 04 15
        E 22 89 26 40
        E 27 89 2c 40
        E 9 89 33 40
        E 58 b9 04 25
        E 23 b9 04 36
        E 33 b9 04 46
        E 15 99 24 51
        E 7 b9 04 4f
        E 5 99 2c 08
        E 36 99 33 53
        E 84 b9 04 36
        E 22 b9 04 22
        E 24 b9 04 12
        E 29 b9 04 00
        E 34 89 24 40
        E 12 89 2c 40
        E 39 89 33 40
        E 140 99 24 4d
        E 36 b9 04 12
        E 8 b9 04 25
        E 4 b9 04 36
        E 0 99 33 68
        E 3 b9 04 46
        E 2 b9 04 4c
        E 3 99 2c 3c
        E 5 b9 04 56
        E 28 b9 04 68
        E 29 b9 04 58
        E 39 b9 04 47
        E 20 b9 04 36
        E 35 b9 04 25
        E 30 b9 04 15
        E 2 89 24 40
        E 46 89 33 40
        E 8 89 2c 40
        E 55 b9 04 25
        E 30 b9 04 36
        E 45 b9 04 46
        E 24 99 33 54
        E 7 99 24 4a
        E 72 b9 04 36
        E 25 b9 04 22
        E 29 b9 04 12
        E 36 b9 04 00
        E 72 89 33 40
        E 8 89 24 40
        E 161 b9 04 12
        E 10 99 26 7f
        E 2 b9 04 22
        E 8 b9 04 32
        E 12 b9 04 43
        E 7 b9 04 4d
        E 2 99 2c 1a
        E 3 b9 04 53
        E 5 99 33 68
        E 7 b9 04 64
        E 56 b9 04 54
        E 19 b9 04 44
        E 21 b9 04 34
        E 34 b9 04 22
        E 61 b9 04 12
        E 5 89 26 40
        E 31 89 2c 40
        E 10 89 33 40
        E 41 b9 04 22
        E 19 b9 04 32
        E 27 b9 04 43
        E 26 99 24 4f
        E 10 b9 04 4f
        E 0 99 2c 08
        E 17 b9 04 53
        E 27 99 33 5b
        E 74 b9 04 43
        E 22 b9 04 32
        E 20 b9 04 22
        E 19 b9 04 12
        E 31 b9 04 00
        E 22 89 24 40
        E 11 89 2c 40
        E 42 89 33 40
        E 150 99 24 4d
        E 22 b9 04 12
        E 9 b9 04 25
        E 5 b9 04 36
        E 7 b9 04 46
        E 5 b9 04 4c
        E 2 99 2c 24
        E 6 99 33 68
        E 2 b9 04 56
        E 19 b9 04 66
        E 15 b9 04 56
        E 39 b9 04 46
        E 16 b9 04 36
        E 37 b9 04 25
        E 43 b9 04 15
        E 15 89 24 40
        E 53 89 2c 40
        E 4 89 33 40
        E 15 b9 04 25
        E 24 b9 04 36
        E 27 b9 04 46
        E 19 b9 04 4f
        E 3 99 2c 08
        E 24 b9 04 56
        E 34 99 33 63
        E 5 99 24 45
        E 69 b9 04 46
        E 22 b9 04 36
        E 20 b9 04 22
        E 21 b9 04 12
        E 32 b9 04 00
        E 14 89 2c 40
        E 59 89 33 40
        E 6 89 24 40
        E 164 b9 04 12
        E 8 b9 04 22
        E 3 b9 04 34
        E 7 b9 04 47
        E 0 b9 04 4c
        E 2 99 2c 38
        E 2 99 26 7f
        E 20 99 33 6d
        E 2 b9 04 57
        E 7 b9 04 68
        E 27 b9 04 57
        E 39 b9 04 47
        E 29 b9 04 36
        E 28 b9 04 25
        E 34 b9 04 15
        E 54 89 2c 40
        E 4 89 26 40
        E 19 89 33 40
        E 52 b9 04 25
        E 19 b9 04 36
        E 31 b9 04 46
        E 17 b9 04 4d
        E 2 99 2c 0a
        E 5 99 24 52
        E 42 b9 04 56
        E 7 99 33 5e
        E 58 b9 04 46
        E 26 b9 04 36
        E 22 b9 04 22
        E 21 b9 04 12
        E 27 b9 04 00
        E 34 89 2c 40
        E 5 89 24 40
        E 49 89 33 40
        E 147 99 24 50
        E 16 b9 04 12
        E 8 b9 04 25
        E 5 b9 04 38
        E 4 b9 04 4a
        E 2 b9 04 4d
        E 3 99 2c 32
        E 20 b9 04 5a
        E 9 99 33 75
        E 4 b9 04 6a
        E 18 b9 04 5a
        E 39 b9 04 4a
        E 19 b9 04 3a
        E 36 b9 04 29
        E 39 b9 04 18
        E 21 89 24 40
        E 37 89 2c 40
        E 28 89 33 40
        E 20 b9 04 29
        E 20 b9 04 3a
        E 24 b9 04 4a
        E 9 b9 04 4f
        E 3 99 2c 0a
        E 34 b9 04 5a
        E 53 99 24 4c
        E 5 99 33 38
        E 37 b9 04 4a
        E 28 b9 04 3a
        E 19 b9 04 29
        E 22 b9 04 18
        E 24 b9 04 06
        E 12 b9 04 00
        E 7 89 2c 40
        E 87 89 24 40
        E 5 89 33 40
        E 147 b9 04 12
        E 7 b9 04 25
        E 5 99 26 7f
        E 3 b9 04 36
        E 5 b9 04 46
        E 5 b9 04 4c
        E 2 99 2c 24
        E 16 b9 04 56
        E 11 b9 04 67
        E 11 99 33 6b
        E 13 b9 04 57
        E 41 b9 04 47
        E 27 b9 04 36
        E 33 b9 04 25
        E 39 b9 04 15
        E 36 89 26 40
        E 15 89 2c 40
        E 41 89 33 40
        E 32 b9 04 25
        E 18 b9 04 36
        E 22 b9 04 46
        E 15 b9 04 4d
        E 2 99 2c 0a
        E 17 99 24 50
        E 5 b9 04 56
        E 60 99 33 54
        E 48 b9 04 46
        E 25 b9 04 36
        E 18 b9 04 25
        E 23 b9 04 15
        E 22 b9 04 03
        E 7 b9 04 00
        E 17 89 2c 40
        E 17 89 24 40
        E 65 89 33 40
        E 135 99 24 4b
        E 25 b9 04 12
        E 5 b9 04 22
        E 7 b9 04 34
        E 2 b9 04 46
        E 3 b9 04 4f
        E 2 99 2c 44
        E 4 b9 04 56
        E 3 99 33 62
        E 24 b9 04 66
        E 24 b9 04 56
        E 41 b9 04 46
        E 17 b9 04 36
        E 38 b9 04 25
        E 40 b9 04 15
        E 9 89 24 40
        E 41 89 2c 40
        E 10 89 33 40
        E 14 b9 04 25
        E 22 b9 04 36
        E 22 b9 04 46
        E 19 b9 04 4f
        E 3 99 2c 0c
        E 19 b9 04 56
        E 48 99 33 37
        E 10 99 24 49
        E 65 b9 04 46
        E 22 b9 04 36
        E 19 b9 04 22
        E 22 b9 04 12
        E 29 b9 04 00
        E 7 89 2c 40
        E 71 89 33 40
        E 7 89 24 40
        E 162 b9 04 12
        E 7 99 26 7f
        E 2 b9 04 25
        E 4 b9 04 36
        E 6 b9 04 46
        E 2 b9 04 4d
        E 2 99 2c 2a
        E 15 b9 04 56
        E 10 99 33 7f
        E 7 b9 04 66
        E 63 b9 04 56
        E 29 b9 04 46
        E 19 b9 04 36
        E 22 b9 04 25
        E 29 b9 04 15
        E 32 89 26 40
        E 16 89 2c 40
        E 25 89 33 40
        E 77 b9 04 25
        E 19 b9 04 36
        E 29 b9 04 46
        E 2 99 24 56
        E 15 b9 04 4d
        E 2 99 2c 08
        E 10 99 33 65
        E 108 b9 04 36
        E 22 b9 04 22
        E 22 b9 04 12
        E 29 b9 04 00
        E 34 89 24 40
        E 20 89 2c 40
        E 7 89 33 40
        E 147 99 24 43
        E 34 b9 04 12
        E 7 b9 04 27
        E 4 b9 04 38
        E 6 b9 04 49
        E 2 b9 04 4d
        E 3 99 2c 2e
        E 2 99 33 7f
        E 16 b9 04 5a
        E 37 b9 04 4a
        E 46 b9 04 3a
        E 41 b9 04 29
        E 46 89 24 40
        E 2 b9 04 18
        E 51 89 2c 40
        E 5 89 33 40
        E 19 b9 04 29
        E 34 b9 04 3a
        E 40 b9 04 4a
        E 45 b9 04 4f
        E 2 99 2c 06
        E 29 99 24 4c
        E 17 99 33 37
        E 24 b9 04 3a
        E 25 b9 04 29
        E 25 b9 04 18
        E 25 b9 04 06
        E 13 b9 04 00
        E 83 89 2c 40
        E 30 89 24 40
        E 16 89 33 40
        E 126 b9 04 12
        E 7 b9 04 22
        E 5 99 26 7f
        E 3 b9 04 34
        E 2 b9 04 44
        E 5 b9 04 4c
        E 2 99 2c 2c
        E 3 b9 04 54
        E 22 b9 04 65
        E 21 99 33 7f
        E 2 b9 04 55
        E 40 b9 04 44
        E 14 b9 04 34
        E 34 b9 04 22
        E 38 b9 04 12
        E 56 89 26 40
        E 9 89 2c 40
        E 49 89 33 40
        E 32 b9 04 22
        E 14 b9 04 32
        E 19 b9 04 43
        E 24 b9 04 4d
        E 3 99 2c 0a
        E 14 b9 04 53
        E 10 99 24 58
        E 43 99 33 5b
        E 49 b9 04 43
        E 25 b9 04 32
        E 13 b9 04 22
        E 22 b9 04 12
        E 29 b9 04 00
        E 38 89 2c 40
        E 28 89 24 40
        E 38 89 33 40
        E 140 99 24 4d
        E 19 b9 04 12
        E 8 b9 04 25
        E 2 b9 04 36
        E 5 b9 04 46
        E 2 b9 04 4c
        E 2 99 2c 3c
        E 3 b9 04 56
        E 6 99 33 75
        E 23 b9 04 66
        E 20 b9 04 56
        E 38 b9 04 46
        E 17 b9 04 36
        E 36 b9 04 25
        E 44 b9 04 15
        E 19 89 24 40
        E 39 89 2c 40
        E 5 89 33 40
        E 29 b9 04 25
        E 26 b9 04 36
        E 35 b9 04 46
        E 30 b9 04 4f
        E 3 99 2c 08
        E 36 99 33 59
        E 15 99 24 55
        E 60 b9 04 36
        E 24 b9 04 25
        E 22 b9 04 15
        E 29 b9 04 03
        E 7 b9 04 00
        E 51 89 2c 40
        E 39 89 33 40
        E 11 89 24 40
        E 150 b9 04 12
        E 5 99 26 7f
        E 5 b9 04 25
        E 7 b9 04 36
        E 10 b9 04 46
        E 5 b9 04 4c
        E 3 99 2c 1e
        E 7 99 33 7a
        E 4 b9 04 56
        E 10 b9 04 66
        E 60 b9 04 56
        E 22 b9 04 46
        E 27 b9 04 36
        E 24 b9 04 25
        E 36 b9 04 15
        E 25 89 26 40
        E 28 89 2c 40
        E 5 89 33 40
        E 70 b9 04 25
        E 24 b9 04 36
        E 22 99 24 58
        E 7 b9 04 46
        E 29 b9 04 4d
        E 3 99 2c 08
        E 15 99 33 4f
        E 84 b9 04 36
        E 19 b9 04 25
        E 18 b9 04 15
        E 26 b9 04 03
        E 9 b9 04 00
        E 32 89 24 40
        E 39 89 2c 40
        E 14 89 33 40
        E 142 99 24 54
        E 32 99 33 76
        E 9 b9 04 12
        E 8 b9 04 25
        E 7 b9 04 36
        E 2 b9 04 46
        E 3 b9 04 4c
        E 2 99 2c 36
        E 22 b9 04 56
        E 10 b9 04 66
        E 27 b9 04 56
        E 37 b9 04 46
        E 18 b9 04 36
        E 31 b9 04 25
        E 36 89 24 40
        E 5 b9 04 15
        E 24 89 33 40
        E 29 89 2c 40
        E 41 b9 04 25
        E 24 b9 04 36
        E 34 b9 04 46
        E 13 99 33 3c
        E 9 b9 04 4f
        E 2 99 2c 08
        E 44 99 24 59
        E 92 b9 04 36
        E 24 b9 04 25
        E 19 b9 04 15
        E 28 b9 04 03
        E 9 b9 04 00
        E 14 89 33 40
        E 12 89 2c 40
        E 46 89 24 40
        E 159 99 26 7f
        E 22 99 33 7c
        E 7 b9 04 12
        E 10 b9 04 22
        E 5 b9 04 32
        E 10 b9 04 43
        E 9 b9 04 4c
        E 3 99 2c 1c
        E 7 b9 04 53
        E 12 b9 04 64
        E 22 b9 04 54
        E 37 b9 04 44
        E 18 b9 04 34
        E 32 b9 04 22
        E 50 89 26 40
        E 5 b9 04 12
        E 20 89 33 40
        E 41 89 2c 40
        E 24 b9 04 22
        E 21 99 24 63
        E 3 b9 04 32
        E 24 b9 04 43
        E 7 99 33 3e
        E 37 b9 04 4f
        E 5 99 2c 08
        E 96 b9 04 32
        E 20 b9 04 22
        E 24 b9 04 12
        E 26 89 24 40
        E 5 b9 04 00
        E 29 89 33 40
        E 41 89 2c 40
        E 179 99 24 6e
        E 19 99 26 76
        E 19 b9 04 12
        E 10 b9 04 22
        E 5 b9 04 34
        E 5 b9 04 44
        E 19 b9 04 4c
        E 3 99 2c 26
        E 4 b9 04 55
        E 24 b9 04 44
        E 12 b9 04 34
        E 46 b9 04 20
        E 27 89 26 40
        E 2 99 26 51
        E 46 89 24 40
        E 17 b9 04 0f
        E 63 89 2c 40
        E 17 b9 04 20
        E 19 b9 04 30
        E 25 b9 04 41
        E 29 b9 04 4f
        E 2 99 2c 08
        E 8 b9 04 51
        E 13 89 26 40
        E 3 99 26 21
        E 3 99 24 4f
        E 79 b9 04 41
        E 29 b9 04 30
        E 17 b9 04 20
        E 27 b9 04 0f
        E 22 b9 04 00
        E 41 89 2c 40
        E 4 89 26 40
        E 5 99 26 39
        E 20 89 24 40
        E 181 99 24 52
        E 22 89 26 40
        E 0 99 26 44
        E 2 b9 04 12
        E 5 b9 04 25
        E 5 b9 04 36
        E 2 b9 04 46
        E 4 b9 04 4c
        E 3 99 2c 2e
        E 22 b9 04 57
        E 29 b9 04 47
        E 42 b9 04 36
        E 28 b9 04 25
        E 53 b9 04 15
        E 18 89 26 40
        E 4 99 26 41
        E 5 89 24 40
        E 44 89 2c 40
        E 47 b9 04 25
        E 25 b9 04 36
        E 24 b9 04 46
        E 22 b9 04 4f
        E 2 99 2c 0a
        E 31 99 24 5a
        E 15 89 26 40
        E 2 99 26 17
        E 75 b9 04 36
        E 22 b9 04 25
        E 20 b9 04 15
        E 26 b9 04 03
        E 10 b9 04 00
        E 42 89 2c 40
        E 7 89 26 40
        E 2 99 26 44
        E 24 89 24 40
        E 174 99 24 4f
        E 28 89 26 40
        E 3 99 26 5d
        E 5 b9 04 12
        E 7 b9 04 25
        E 5 b9 04 36
        E 2 b9 04 47
        E 3 b9 04 4d
        E 2 99 2c 36
        E 24 b9 04 57
        E 22 b9 04 47
        E 12 b9 04 36
        E 48 b9 04 25
        E 39 b9 04 15
        E 27 89 26 40
        E 2 99 26 41
        E 13 89 24 40
        E 57 89 2c 40
        E 61 b9 04 25
        E 24 b9 04 36
        E 26 b9 04 46
        E 10 99 24 57
        E 10 b9 04 4d
        E 2 99 2c 08
        E 12 89 26 40
        E 3 99 26 1a
        E 94 b9 04 36
        E 24 b9 04 25
        E 19 b9 04 15
        E 23 b9 04 03
        E 6 b9 04 00
        E 32 89 26 40
        E 2 99 26 57
        E 17 89 24 40
        E 10 89 2c 40
        E 162 99 24 55
        E 33 89 26 40
        E 3 99 26 5f
        E 29 b9 04 12
        E 7 b9 04 25
        E 10 b9 04 36
        E 28 b9 04 46
        E 5 b9 04 4c
        E 3 99 2c 1c
        E 2 b9 04 56
        E 20 b9 04 46
        E 7 b9 04 36
        E 38 b9 04 25
        E 31 b9 04 15
        E 3 89 26 40
        E 2 99 26 40
        E 20 89 24 40
        E 121 89 2c 40
        E 14 b9 04 25
        E 22 b9 04 36
        E 15 99 24 53
        E 16 b9 04 46
        E 3 89 26 40
        E 2 99 26 49
        E 107 b9 04 36
        E 27 b9 04 22
        E 21 b9 04 12
        E 31 b9 04 00
        E 34 89 24 40
        E 19 89 26 40
        E 177 99 24 7f
        E 9 99 28 40
        E 44 b9 04 12
        E 7 b9 04 27
        E 6 b9 04 3a
        E 2 b9 04 4a
        E 2 b9 04 4d
        E 3 99 2c 36
        E 4 99 26 7f
        E 27 b9 04 5b
        E 20 b9 04 4a
        E 11 b9 04 3a
        E 44 b9 04 29
        E 36 b9 04 18
        E 27 89 24 40
        E 7 89 28 40
        E 65 89 2c 40
        E 5 89 26 40
        E 50 b9 04 12
        E 61 b9 04 22
        E 49 b9 04 32
        E 139 b9 04 3c
        E 337 99 24 7f
        E 101 b9 04 36
        E 140 89 24 40
        E 196 99 30 7f
        E 2 99 2d 7f
        E 239 89 30 40
        E 2 89 2d 40
        E 164 b9 04 3e
        E 281 b9 04 4d
        E 2 99 2c 04
        E 22 b9 04 4d
        E 68 99 24 6b
        E 65 b9 04 3c
        E 88 89 2c 40
        E 14 b9 04 2c
        E 75 89 24 40
        E 45 b9 04 1a
        E 116 99 26 7f
        E 83 b9 04 2c
        E 14 89 26 40
        E 2 99 26 7f
        E 126 b9 04 1a
        E 113 89 26 40
        E 27 b9 04 2c
        E 73 b9 04 3c
        E 321 b9 04 2e
        E 145 b9 04 27
        E 48 b9 04 38
        E 27 b9 04 49
        E 14 b9 04 4f
        E 0 99 2c 0a
        E 29 b9 04 5a
        E 155 b9 04 4a
        E 41 b9 04 3a
        E 12 99 24 65
        E 7 89 2c 40
        E 14 b9 04 29
        E 42 b9 04 18
        E 55 b9 04 06
        E 29 b9 04 00
        E 95 89 24 40
        E 159 99 26 7f
        E 11 b9 04 12
        E 15 b9 04 22
        E 9 b9 04 32
        E 6 b9 04 43
        E 2 b9 04 4c
        E 3 99 2c 28
        E 2 b9 04 53
        E 17 b9 04 43
        E 5 b9 04 32
        E 10 b9 04 22
        E 22 99 28 7f
        E 48 b9 04 12
        E 92 89 26 40
        E 46 b9 04 22
        E 0 89 2c 40
        E 24 b9 04 32
        E 29 b9 04 43
        E 4 89 28 40
        E 109 99 24 50
        E 65 b9 04 32
        E 37 b9 04 22
        E 39 b9 04 12
        E 60 b9 04 00
        E 41 89 24 40
        E 174 99 2d 7f
        E 0 99 30 7f
        E 9 b9 04 12
        E 20 b9 04 25
        E 14 b9 04 36
        E 15 b9 04 46
        E 5 b9 04 4c
        E 2 99 2c 14
        E 5 b9 04 56
        E 17 b9 04 46
        E 9 b9 04 36
        E 53 b9 04 25
        E 92 89 2d 40
        E 6 89 30 40
        E 21 b9 04 36
        E 39 89 2c 40
        E 95 b9 04 3e
        E 28 99 24 59
        E 24 b9 04 2e
        E 39 b9 04 1d
        E 50 b9 04 0c
        E 29 b9 04 00
        E 102 89 24 40
        E 116 99 2d 7f
        E 65 b9 04 12
        E 22 b9 04 22
        E 10 b9 04 32
        E 33 b9 04 22
        E 19 b9 04 12
        E 95 89 2d 40
        E 24 b9 04 22
        E 31 b9 04 32
        E 148 b9 04 22
        E 46 b9 04 12
        E 48 b9 04 00
        E 326 99 24 7f
        E 10 b9 04 12
        E 12 b9 04 22
        E 2 99 33 7f
        E 3 99 31 7f
        E 21 b9 04 32
        E 8 b9 04 44
        E 4 b9 04 4c
        E 3 99 2c 2a
        E 5 b9 04 55
        E 12 b9 04 44
        E 5 b9 04 32
        E 9 b9 04 22
        E 150 89 24 40
        E 8 b9 04 32
        E 16 89 33 40
        E 3 89 31 40
        E 34 89 2c 40
        E 123 b9 04 22
        E 135 b9 04 1a
        E 102 b9 04 2c
        E 159 b9 04 3c
        E 31 99 24 61
        E 133 b9 04 44
        E 109 89 24 40
        E 17 b9 04 34
        E 144 b9 04 22
        E 73 99 26 7f
        E 92 99 28 7f
        E 3 b9 04 32
        E 147 89 26 40
        E 7 b9 04 22
        E 85 89 28 40
        E 56 b9 04 1d
        E 106 b9 04 2e
        E 43 b9 04 3e
        E 44 b9 04 4f
        E 2 99 2c 08
        E 2 b9 04 4f
        E 129 b9 04 57
        E 43 b9 04 47
        E 33 b9 04 36
        E 32 b9 04 22
        E 2 89 2c 40
        E 37 b9 04 12
        E 9 99 24 58
        E 42 b9 04 00
        E 202 89 24 40
        E 146 b9 04 12
        E 10 99 2d 7f
        E 16 b9 04 22
        E 3 99 30 7f
        E 22 b9 04 32
        E 6 b9 04 43
        E 6 b9 04 4d
        E 1 99 2c 2a
        E 3 b9 04 53
        E 19 b9 04 41
        E 5 b9 04 30
        E 8 b9 04 20
        E 127 b9 04 15
        E 25 89 2d 40
        E 19 89 30 40
        E 36 89 2c 40
        E 210 b9 04 1d
        E 131 b9 04 2e
        E 155 b9 04 36
        E 121 b9 04 46
        E 24 b9 04 4f
        E 2 99 2c 06
        E 19 b9 04 56
        E 116 b9 04 46
        E 31 b9 04 36
        E 34 b9 04 22
        E 20 99 24 6f
        E 19 b9 04 12
        E 2 89 2c 40
        E 39 b9 04 00
        E 182 89 24 40
        E 142 b9 04 12
        E 7 99 26 7f
        E 3 b9 04 25
        E 12 b9 04 36
        E 27 b9 04 46
        E 4 b9 04 4c
        E 3 99 2c 1c
        E 2 b9 04 56
        E 7 b9 04 66
        E 15 b9 04 56
        E 5 b9 04 46
        E 9 b9 04 36
        E 29 99 28 7f
        E 19 b9 04 25
        E 30 b9 04 15
        E 77 89 26 40
        E 48 89 2c 40
        E 36 b9 04 25
        E 25 b9 04 36
        E 7 89 28 40
        E 21 b9 04 46
        E 39 b9 04 4f
        E 3 99 2c 0a
        E 65 99 24 5c
        E 46 b9 04 36
        E 39 b9 04 25
        E 26 b9 04 15
        E 36 b9 04 03
        E 8 b9 04 00
        E 21 89 2c 40
        E 68 89 24 40
        E 147 99 2d 7f
        E 20 99 30 7f
        E 29 b9 04 12
        E 18 b9 04 22
        E 10 b9 04 32
        E 13 b9 04 43
        E 2 b9 04 4c
        E 3 99 2c 1e
        E 5 b9 04 54
        E 23 b9 04 44
        E 8 b9 04 34
        E 46 b9 04 22
        E 67 89 2d 40
        E 20 89 30 40
        E 34 b9 04 32
        E 38 b9 04 43
        E 3 89 2c 40
        E 133 99 24 6c
        E 14 b9 04 32
        E 31 b9 04 22
        E 39 b9 04 12
        E 43 b9 04 00
        E 114 89 24 40
        E 137 99 2d 7f
        E 1 99 29 7f
        E 46 b9 04 12
        E 34 b9 04 22
        E 9 b9 04 32
        E 10 b9 04 43
        E 5 b9 04 4c
        E 0 99 2c 20
        E 4 b9 04 53
        E 17 b9 04 43
        E 10 b9 04 32
        E 9 b9 04 22
        E 56 b9 04 12
        E 41 89 2d 40
        E 3 89 29 40
        E 104 89 2c 40
        E 19 b9 04 22
        E 17 b9 04 32
        E 7 99 2d 7f
        E 22 99 29 7f
        E 12 b9 04 43
        E 101 b9 04 32
        E 25 b9 04 22
        E 29 b9 04 12
        E 34 b9 04 00
        E 19 89 2d 40
        E 24 89 29 40
        E 174 99 24 7f
        E 41 99 33 79
        E 2 99 31 7f
        E 30 b9 04 12
        E 8 b9 04 22
        E 11 b9 04 32
        E 21 b9 04 43
        E 7 b9 04 4c
        E 3 99 2c 18
        E 2 b9 04 53
        E 30 b9 04 43
        E 50 b9 04 32
        E 39 89 24 40
        E 7 b9 04 22
        E 34 89 33 40
        E 2 89 31 40
        E 80 89 2c 40
        E 31 b9 04 32
        E 164 b9 04 22
        E 63 b9 04 12
        E 100 b9 04 00
        E 96 99 24 5f
        E 6 b9 04 12
        E 23 b9 04 22
        E 19 b9 04 32
        E 30 b9 04 43
        E 21 b9 04 4c
        E 5 99 2c 08
        E 104 b9 04 47
        E 33 89 24 40
        E 13 b9 04 36
        E 43 b9 04 25
        E 49 b9 04 15
        E 2 89 2c 40
        E 75 b9 04 03
        E 15 b9 04 00
        E 47 99 26 7f
        E 88 99 28 68
        E 62 b9 04 12
        E 39 b9 04 22
        E 17 b9 04 32
        E 39 89 26 40
        E 2 b9 04 22
        E 82 89 28 40
        E 44 b9 04 18
        E 152 b9 04 29
        E 43 b9 04 3a
        E 37 b9 04 4a
        E 2 b9 04 4c
        E 3 99 2c 0a
        E 41 b9 04 5a
        E 96 b9 04 4a
        E 29 b9 04 3a
        E 24 b9 04 29
        E 27 b9 04 18
        E 22 89 2c 40
        E 15 b9 04 06
        E 19 b9 04 00
        E 26 99 24 6f
        E 242 89 24 40
        E 114 b9 04 12
        E 9 b9 04 22
        E 9 b9 04 32
        E 8 99 2d 7f
        E 22 99 30 7f
        E 7 b9 04 43
        E 2 b9 04 4f
        E 3 99 2c 32
        E 2 b9 04 54
        E 19 b9 04 43
        E 5 b9 04 32
        E 7 b9 04 22
        E 124 b9 04 1d
        E 51 89 2d 40
        E 11 b9 04 2e
        E 13 89 30 40
        E 12 89 2c 40
        E 135 b9 04 1d
        E 60 b9 04 0c
        E 32 b9 04 00
        E 276 b9 04 12
        E 23 b9 04 22
        E 10 b9 04 32
        E 8 b9 04 43
        E 4 b9 04 4c
        E 3 99 2c 24
        E 2 b9 04 53
        E 21 b9 04 43
        E 13 b9 04 32
        E 157 b9 04 2c
        E 48 89 2c 40
        E 20 b9 04 3c
        E 101 b9 04 2c
        E 7 99 24 65
        E 44 b9 04 1a
        E 46 b9 04 09
        E 26 b9 04 00
        E 129 89 24 40
        E 145 99 26 7f
        E 55 b9 04 12
        E 10 b9 04 25
        E 28 b9 04 36
        E 8 b9 04 47
        E 5 b9 04 4c
        E 2 99 2c 20
        E 2 89 26 40
        E 3 99 26 7f
        E 9 b9 04 36
        E 7 b9 04 25
        E 15 b9 04 15
        E 157 b9 04 25
        E 29 b9 04 36
        E 22 89 2c 40
        E 2 89 26 40
        E 20 b9 04 46
        E 87 99 30 3b
        E 5 b9 04 36
        E 43 b9 04 25
        E 32 b9 04 15
        E 45 b9 04 03
        E 13 b9 04 00
        E 33 89 30 40
        E 2 99 30 73
        E 213 99 26 59
        E 27 89 30 40
        E 109 b9 04 12
        E 43 b9 04 22
        E 10 b9 04 32
        E 7 b9 04 43
        E 14 b9 04 32
        E 5 89 26 40
        E 5 99 26 73
        E 2 b9 04 22
        E 5 b9 04 12
        E 152 b9 04 22
        E 37 89 26 40
        E 0 99 26 4b
        E 12 b9 04 32
        E 101 b9 04 20
        E 63 b9 04 0f
        E 34 89 26 40
        E 2 99 26 70
        E 5 b9 04 00
        E 215 89 26 40
        E 3 99 26 71
        E 120 b9 04 12
        E 36 b9 04 22
        E 13 b9 04 32
        E 7 b9 04 43
        E 20 b9 04 32
        E 2 89 26 40
        E 3 99 26 7b
        E 2 b9 04 20
        E 29 b9 04 0f
        E 106 b9 04 20
        E 34 b9 04 30
        E 31 89 26 40
        E 2 99 26 74
        E 90 b9 04 20
        E 51 b9 04 0f
        E 33 b9 04 00
        E 15 89 26 40
        E 3 99 26 79
        E 241 89 26 40
        E 17 99 24 7f
        E 22 99 33 7f
        E 17 b9 04 12
        E 9 b9 04 22
        E 13 b9 04 32
        E 21 b9 04 43
        E 7 b9 04 4c
        E 3 99 2c 18
        E 16 b9 04 32
        E 10 b9 04 20
        E 104 b9 04 0f
        E 20 89 24 40
        E 21 89 33 40
        E 73 89 2c 40
        E 9 b9 04 20
        E 34 b9 04 30
        E 44 b9 04 41
        E 104 b9 04 4f
        E 2 99 2c 04
        E 39 b9 04 4d
        E 150 b9 04 43
        E 55 89 2c 40
        E 106 99 24 72
        E 37 b9 04 32
        E 86 b9 04 22
        E 109 b9 04 12
        E 10 89 24 40
        E 147 b9 04 03
        E 10 b9 04 00
        E 22 99 26 7f
        E 77 b9 04 12
        E 22 99 28 7f
        E 12 b9 04 22
        E 34 b9 04 32
        E 24 b9 04 43
        E 34 b9 04 32
        E 26 b9 04 22
        E 15 89 26 40
        E 99 89 28 40
        E 24 b9 04 1a
        E 145 b9 04 2c
        E 68 b9 04 3c
        E 29 b9 04 4c
        E 2 99 2c 0a
        E 2 b9 04 4c
        E 39 b9 04 5c
        E 135 b9 04 4c
        E 27 b9 04 3c
        E 22 b9 04 2c
        E 17 89 2c 40
        E 9 b9 04 1a
        E 17 99 24 72
        E 20 b9 04 09
        E 29 b9 04 00
        E 192 89 24 40
        E 139 99 2d 7f
        E 53 99 30 7f
        E 16 b9 04 12
        E 58 b9 04 22
        E 15 b9 04 32
        E 5 b9 04 43
        E 2 b9 04 4c
        E 3 99 2c 34
        E 2 b9 04 55
        E 17 b9 04 44
        E 5 b9 04 32
        E 7 b9 04 22
        E 15 b9 04 12
        E 43 89 2d 40
        E 56 89 30 40
        E 96 89 2c 40
        E 191 b9 04 22
        E 36 b9 04 32
        E 126 b9 04 3f
        E 133 b9 04 4f
        E 2 99 2c 08
        E 3 b9 04 4f
        E 159 b9 04 3f
        E 32 b9 04 2e
        E 24 b9 04 1d
        E 24 89 2c 40
        E 17 b9 04 0c
        E 29 b9 04 00
        E 38 99 24 7c
        E 242 89 24 40
        E 116 99 26 7f
        E 3 b9 04 12
        E 47 b9 04 22
        E 8 b9 04 32
        E 29 b9 04 22
        E 10 b9 04 12
        E 7 99 28 7f
        E 121 b9 04 03
        E 17 89 26 40
        E 60 b9 04 15
        E 27 b9 04 25
        E 17 89 28 40
        E 7 b9 04 36
        E 77 99 26 63
        E 96 b9 04 25
        E 25 b9 04 15
        E 12 99 30 7f
        E 19 b9 04 03
        E 12 b9 04 00
        E 78 89 26 40
        E 55 99 2d 7f
        E 78 89 30 40
        E 43 99 24 77
        E 27 b9 04 12
        E 26 b9 04 22
        E 10 b9 04 32
        E 9 b9 04 43
        E 5 b9 04 4c
        E 3 99 2c 20
        E 2 b9 04 53
        E 39 89 2d 40
        E 7 b9 04 43
        E 34 b9 04 32
        E 84 89 24 40
        E 76 89 2c 40
        E 101 b9 04 38
        E 58 99 24 62
        E 2 b9 04 27
        E 44 b9 04 15
        E 53 b9 04 03
        E 19 b9 04 00
        E 125 89 24 40
        E 160 99 26 7f
        E 19 b9 04 12
        E 32 b9 04 22
        E 7 b9 04 32
        E 5 b9 04 43
        E 7 b9 04 4c
        E 1 99 2c 28
        E 16 b9 04 30
        E 7 b9 04 20
        E 13 99 28 7f
        E 9 b9 04 0f
        E 126 89 26 40
        E 72 89 2c 40
        E 22 b9 04 20
        E 12 89 28 40
        E 8 b9 04 30
        E 19 b9 04 41
        E 31 b9 04 4f
        E 2 99 2c 0a
        E 8 b9 04 51
        E 48 99 24 4e
        E 70 b9 04 41
        E 32 b9 04 30
        E 23 b9 04 20
        E 45 b9 04 0f
        E 17 89 2c 40
        E 29 b9 04 00
        E 26 89 24 40
        E 343 99 24 7f
        E 11 b9 04 12
        E 13 b9 04 22
        E 29 99 31 7f
        E 3 b9 04 32
        E 4 99 33 7f
        E 3 b9 04 44
        E 2 b9 04 4d
        E 4 99 2c 30
        E 5 b9 04 54
        E 8 b9 04 43
        E 5 b9 04 30
        E 4 b9 04 20
        E 18 b9 04 0f
        E 135 89 24 40
        E 53 89 31 40
        E 10 b9 04 20
        E 2 89 33 40
        E 2 89 2c 40
        E 22 b9 04 30
        E 44 b9 04 41
        E 104 b9 04 30
        E 36 b9 04 20
        E 51 b9 04 0f
        E 45 b9 04 00
        E 305 99 33 74
        E 56 b9 04 12
        E 23 b9 04 22
        E 10 b9 04 32
        E 12 b9 04 43
        E 5 b9 04 4c
        E 3 99 2c 1c
        E 21 b9 04 32
        E 13 b9 04 22
        E 101 89 33 40
        E 58 b9 04 2e
        E 48 89 2c 40
        E 19 b9 04 1d
        E 80 b9 04 0c
        E 6 99 26 7f
        E 50 b9 04 00
        E 193 89 26 40
        E 89 b9 04 12
        E 32 b9 04 22
        E 19 b9 04 32
        E 15 b9 04 43
        E 19 b9 04 32
        E 14 b9 04 22
        E 3 99 33 59
        E 123 b9 04 15
        E 82 b9 04 25
        E 32 b9 04 36
        E 5 89 33 40
        E 28 b9 04 46
        E 126 b9 04 36
        E 37 b9 04 25
        E 6 99 24 78
        E 22 b9 04 15
        E 43 b9 04 03
        E 16 b9 04 00
        E 161 89 24 40
        E 189 99 28 7f
        E 12 99 33 7f
        E 2 b9 04 12
        E 10 b9 04 25
        E 8 b9 04 36
        E 33 b9 04 47
        E 0 b9 04 4d
        E 5 99 2c 28
        E 2 b9 04 57
        E 13 b9 04 47
        E 7 b9 04 36
        E 7 b9 04 25
        E 12 b9 04 15
        E 94 b9 04 25
        E 36 89 28 40
        E 12 89 33 40
        E 56 89 2c 40
        E 87 b9 04 15
        E 68 b9 04 03
        E 19 b9 04 00
        E 302 99 33 69
        E 58 b9 04 12
        E 19 b9 04 22
        E 19 b9 04 32
        E 10 b9 04 44
        E 3 b9 04 4c
        E 2 99 2c 26
        E 3 b9 04 54
        E 6 b9 04 65
        E 13 b9 04 55
        E 7 b9 04 44
        E 22 b9 04 34
        E 79 89 33 40
        E 80 b9 04 22
        E 31 89 2c 40
        E 18 b9 04 12
        E 70 b9 04 00
        E 7 99 30 7f
        E 241 89 30 40
        E 100 b9 04 12
        E 33 b9 04 22
        E 15 b9 04 32
        E 7 b9 04 43
        E 5 b9 04 4d
        E 2 99 2c 2a
        E 3 b9 04 53
        E 2 99 33 4d
        E 12 b9 04 43
        E 7 b9 04 32
        E 10 b9 04 22
        E 208 b9 04 32
        E 2 89 2c 40
        E 3 89 33 40
        E 106 b9 04 22
        E 42 99 24 6b
        E 13 b9 04 12
        E 76 b9 04 00
        E 152 89 24 40
        E 186 b9 04 12
        E 12 b9 04 22
        E 16 99 2d 7f
        E 10 b9 04 32
        E 17 b9 04 43
        E 5 b9 04 4c
        E 3 99 2c 20
        E 2 b9 04 53
        E 22 b9 04 43
        E 9 b9 04 32
        E 44 b9 04 22
        E 86 b9 04 12
        E 44 89 2d 40
        E 34 89 2c 40
        E 39 b9 04 22
        E 24 b9 04 32
        E 27 b9 04 43
        E 40 b9 04 4f
        E 2 99 2c 08
        E 98 99 24 5d
        E 21 b9 04 32
        E 29 b9 04 22
        E 37 b9 04 12
        E 41 b9 04 00
        E 16 89 2c 40
        E 97 89 24 40
        E 167 99 29 7f
        E 5 99 33 47
        E 77 b9 04 12
        E 11 b9 04 25
        E 36 b9 04 36
        E 28 b9 04 25
        E 10 b9 04 15
        E 75 89 29 40
        E 7 89 33 40
        E 9 b9 04 25
        E 148 b9 04 15
        E 60 b9 04 03
        E 17 b9 04 00
        E 382 b9 04 12
        E 10 99 31 7f
        E 0 b9 04 22
        E 7 99 24 7f
        E 9 b9 04 32
        E 10 99 33 7f
        E 10 b9 04 43
        E 16 b9 04 32
        E 8 b9 04 22
        E 17 b9 04 12
        E 104 b9 04 22
        E 50 b9 04 32
        E 11 89 31 40
        E 7 89 24 40
        E 19 89 33 40
        E 128 b9 04 22
        E 43 b9 04 12
        E 61 b9 04 00
        E 317 99 24 70
        E 2 b9 04 12
        E 7 b9 04 22
        E 12 b9 04 32
        E 12 99 33 7f
        E 15 b9 04 43
        E 4 b9 04 4c
        E 1 99 2c 1c
        E 24 b9 04 32
        E 6 b9 04 22
        E 69 b9 04 12
        E 88 89 24 40
        E 37 89 33 40
        E 19 89 2c 40
        E 61 b9 04 22
        E 24 b9 04 32
        E 108 99 26 7f
        E 18 b9 04 36
        E 45 b9 04 25
        E 37 b9 04 15
        E 41 b9 04 03
        E 12 b9 04 00
        E 89 89 26 40
        E 174 99 33 6b
        E 55 b9 04 12
        E 13 b9 04 22
        E 9 b9 04 32
        E 27 b9 04 43
        E 7 b9 04 4c
        E 3 99 2c 1a
        E 22 b9 04 32
        E 12 b9 04 20
        E 94 89 33 40
        E 63 b9 04 18
        E 48 b9 04 29
        E 3 89 2c 40
        E 142 99 24 75
        E 43 b9 04 18
        E 51 b9 04 06
        E 27 b9 04 00
        E 120 89 24 40
        E 148 99 30 7f
        E 39 99 33 77
        E 43 b9 04 12
        E 12 b9 04 22
        E 31 b9 04 32
        E 10 b9 04 43
        E 17 b9 04 32
        E 7 b9 04 20
        E 19 b9 04 0f
        E 63 89 30 40
        E 31 b9 04 20
        E 11 89 33 40
        E 120 b9 04 25
        E 56 b9 04 15
        E 58 b9 04 03
        E 16 b9 04 00
        E 309 99 33 5a
        E 18 b9 04 12
        E 15 b9 04 22
        E 26 b9 04 32
        E 12 b9 04 43
        E 3 b9 04 4c
        E 2 99 2c 26
        E 2 b9 04 53
        E 20 b9 04 41
        E 7 b9 04 30
        E 17 b9 04 20
        E 123 89 33 40
        E 73 89 2c 40
        E 5 b9 04 30
        E 132 99 24 6d
        E 5 b9 04 20
        E 65 b9 04 0f
        E 51 b9 04 00
        E 121 89 24 40
        E 135 99 26 7f
        E 50 b9 04 12
        E 13 b9 04 25
        E 29 b9 04 36
        E 9 b9 04 46
        E 3 b9 04 4d
        E 2 99 2c 26
        E 3 b9 04 57
        E 12 89 26 40
        E 0 99 26 7f
        E 7 b9 04 47
        E 7 b9 04 36
        E 44 b9 04 25
        E 33 b9 04 15
        E 136 89 2c 40
        E 14 b9 04 25
        E 3 89 26 40
        E 22 b9 04 36
        E 115 99 24 65
        E 15 b9 04 3a
        E 38 b9 04 29
        E 37 b9 04 18
        E 39 b9 04 06
        E 14 b9 04 00
        E 99 89 24 40
        E 159 99 30 7f
        E 3 99 2d 7f
        E 123 b9 04 12
        E 46 b9 04 22
        E 8 b9 04 32
        E 7 b9 04 43
        E 5 b9 04 4c
        E 2 99 2c 28
        E 12 b9 04 32
        E 7 b9 04 20
        E 12 b9 04 0f
        E 17 89 30 40
        E 5 89 2d 40
        E 152 99 2d 7f
        E 32 99 30 7f
        E 4 89 2c 40
        E 71 b9 04 20
        E 50 b9 04 30
        E 44 b9 04 41
        E 27 b9 04 4f
        E 2 99 2c 08
        E 5 b9 04 51
        E 7 89 2d 40
        E 34 89 30 40
        E 126 b9 04 41
        E 29 b9 04 30
        E 21 b9 04 20
        E 12 99 24 76
        E 8 89 2c 40
        E 14 b9 04 0f
        E 31 b9 04 00
        E 189 89 24 40
        E 152 b9 04 12
        E 7 b9 04 25
        E 10 b9 04 36
        E 2 99 2d 7f
        E 12 b9 04 46
        E 15 b9 04 4c
        E 2 99 2c 14
        E 5 b9 04 56
        E 12 b9 04 66
        E 90 b9 04 56
        E 22 b9 04 46
        E 16 b9 04 36
        E 18 b9 04 22
        E 16 b9 04 12
        E 26 b9 04 00
        E 8 89 2d 40
        E 29 89 2c 40
        E 154 99 24 7f
        E 73 99 33 79
        E 10 99 31 79
        E 75 b9 04 12
        E 7 b9 04 22
        E 5 b9 04 32
        E 5 b9 04 43
        E 4 b9 04 4d
        E 2 99 2c 2e
        E 2 b9 04 53
        E 13 b9 04 43
        E 8 b9 04 32
        E 7 b9 04 20
        E 12 b9 04 0f
        E 19 89 24 40
        E 75 89 33 40
        E 8 89 31 40
        E 45 b9 04 20
        E 32 b9 04 30
        E 21 89 2c 40
        E 114 b9 04 20
        E 44 b9 04 0f
        E 38 b9 04 00
        E 287 99 33 7f
        E 3 99 24 69
        E 10 b9 04 12
        E 24 b9 04 22
        E 21 b9 04 32
        E 13 b9 04 43
        E 5 b9 04 4c
        E 2 99 2c 1e
        E 24 b9 04 32
        E 14 b9 04 22
        E 126 89 33 40
        E 3 89 24 40
        E 23 b9 04 1d
        E 52 89 2c 40
        E 19 b9 04 2e
        E 101 b9 04 1d
        E 51 99 26 7f
        E 27 b9 04 0c
        E 36 b9 04 00
        E 179 89 26 40
        E 130 b9 04 12
        E 24 b9 04 22
        E 17 b9 04 32
        E 12 99 33 4f
        E 2 b9 04 43
        E 17 b9 04 32
        E 10 b9 04 20
        E 130 b9 04 12
        E 74 b9 04 22
        E 11 89 33 40
        E 17 b9 04 32
        E 150 99 24 64
        E 2 b9 04 22
        E 41 b9 04 12
        E 58 b9 04 00
        E 143 89 24 40
        E 125 99 26 7f
        E 76 b9 04 12
        E 9 89 26 40
        E 2 99 26 7e
        E 3 b9 04 25
        E 31 b9 04 36
        E 10 b9 04 46
        E 3 b9 04 4d
        E 2 99 2c 22
        E 24 b9 04 36
        E 9 b9 04 25
        E 56 b9 04 15
        E 101 89 26 40
        E 51 89 2c 40
        E 59 b9 04 25
        E 29 99 2d 7f
        E 2 b9 04 36
        E 12 99 30 7f
        E 24 b9 04 46
        E 41 b9 04 4f
        E 3 99 2c 06
        E 159 89 2d 40
        E 15 89 30 40
        E 53 b9 04 36
        E 14 89 2c 40
        E 43 b9 04 25
        E 32 99 24 5c
        E 13 b9 04 15
        E 91 b9 04 03
        E 24 b9 04 00
        E 114 89 24 40
        E 183 b9 04 12
        E 14 b9 04 22
        E 17 b9 04 32
        E 17 b9 04 43
        E 5 99 30 7f
        E 3 b9 04 4c
        E 2 99 2c 18
        E 2 b9 04 53
        E 3 99 2d 7f
        E 5 b9 04 63
        E 17 b9 04 51
        E 7 b9 04 41
        E 20 b9 04 30
        E 43 b9 04 20
        E 142 89 30 40
        E 6 89 2c 40
        E 2 89 2d 40
        E 36 b9 04 30
        E 36 b9 04 41
        E 39 b9 04 4f
        E 3 99 2c 08
        E 7 b9 04 51
        E 50 99 2d 7f
        E 89 b9 04 5c
        E 95 89 2c 40
        E 57 89 2d 40
        E 175 b9 04 54
        E 292 b9 04 44
        E 73 b9 04 34
        E 89 b9 04 22
        E 37 99 2d 7f
        E 9 99 30 7f
        E 111 b9 04 32
        E 27 b9 04 43
        E 22 b9 04 4f
        E 2 99 2c 0a
        E 5 b9 04 53
        E 58 b9 04 63
        E 7 89 2d 40
        E 12 89 30 40
        E 113 b9 04 53
        E 29 b9 04 43
        E 18 89 2c 40
        E 14 b9 04 32
        E 20 b9 04 22
        E 35 b9 04 12
        E 53 b9 04 00
        E 314 99 2d 7f
        E 10 99 29 7f
        E 39 b9 04 12
        E 22 b9 04 25
        E 7 b9 04 36
        E 5 b9 04 46
        E 17 b9 04 36
        E 9 b9 04 22
        E 123 b9 04 32
        E 13 89 2d 40
        E 6 89 29 40
        E 71 b9 04 22
        E 50 b9 04 12
        E 70 b9 04 00
        E 363 b9 04 12
        E 7 b9 04 22
        E 5 99 24 7f
        E 5 b9 04 32
        E 32 b9 04 43
        E 4 b9 04 4d
        E 2 99 2c 22
        E 3 b9 04 55
        E 7 99 31 7f
        E 2 99 33 7f
        E 10 b9 04 44
        E 8 b9 04 34
        E 12 b9 04 22
        E 138 b9 04 32
        E 19 89 24 40
        E 48 89 2c 40
        E 5 89 31 40
        E 2 89 33 40
        E 63 b9 04 36
        E 44 b9 04 25
        E 39 b9 04 15
        E 63 b9 04 03
        E 11 b9 04 00
        E 326 b9 04 12
        E 11 b9 04 22
        E 11 b9 04 32
        E 5 99 24 76
        E 22 99 33 5e
        E 2 b9 04 43
        E 5 b9 04 4d
        E 3 99 2c 24
        E 2 b9 04 53
        E 16 b9 04 43
        E 8 b9 04 32
        E 12 b9 04 22
        E 92 b9 04 12
        E 79 89 24 40
        E 22 89 33 40
        E 10 89 2c 40
        E 39 b9 04 22
        E 33 b9 04 32
        E 128 99 26 7f
        E 22 b9 04 22
        E 49 b9 04 12
        E 45 b9 04 00
        E 126 89 26 40
        E 172 b9 04 12
        E 19 99 33 4d
        E 3 b9 04 22
        E 17 b9 04 32
        E 9 b9 04 43
        E 22 b9 04 32
        E 12 b9 04 20
        E 128 b9 04 15
        E 50 89 33 40
        E 3 b9 04 25
        E 33 b9 04 36
        E 153 99 24 77
        E 16 b9 04 25
        E 35 b9 04 15
        E 55 b9 04 03
        E 15 b9 04 00
        E 120 89 24 40
        E 206 99 28 72
        E 12 99 33 7f
        E 14 b9 04 12
        E 13 b9 04 22
        E 26 b9 04 32
        E 10 b9 04 43
        E 7 b9 04 4c
        E 0 99 2c 20
        E 17 b9 04 32
        E 7 b9 04 22
        E 15 b9 04 12
        E 123 89 28 40
        E 12 89 33 40
        E 53 b9 04 22
        E 17 89 2c 40
        E 176 b9 04 12
        E 60 b9 04 00
        E 279 99 33 4e
        E 12 b9 04 12
        E 10 b9 04 22
        E 9 b9 04 32
        E 21 b9 04 43
        E 7 b9 04 4c
        E 3 99 2c 16
        E 3 b9 04 53
        E 9 b9 04 63
        E 51 b9 04 53
        E 34 b9 04 43
        E 46 b9 04 32
        E 39 89 33 40
        E 60 89 2c 40
        E 148 99 24 6f
        E 9 b9 04 22
        E 51 b9 04 12
        E 60 b9 04 00
        E 124 89 24 40
        E 203 99 26 7f
        E 24 99 33 67
        E 12 b9 04 12
        E 12 b9 04 22
        E 29 b9 04 32
        E 9 b9 04 43
        E 3 b9 04 4c
        E 2 99 2c 26
        E 5 b9 04 53
        E 14 b9 04 41
        E 8 b9 04 30
        E 5 b9 04 20
        E 72 b9 04 0f
        E 46 89 26 40
        E 27 89 33 40
        E 67 89 2c 40
        E 12 b9 04 20
        E 22 b9 04 30
        E 29 b9 04 41
        E 138 b9 04 30
        E 2 99 24 49
        E 25 b9 04 20
        E 41 b9 04 0f
        E 29 b9 04 00
        E 147 89 24 40
        E 188 99 33 4b
        E 20 b9 04 12
        E 12 b9 04 25
        E 41 b9 04 36
        E 7 b9 04 47
        E 2 b9 04 4d
        E 3 99 2c 30
        E 2 b9 04 57
        E 12 b9 04 47
        E 5 b9 04 36
        E 8 b9 04 25
        E 9 b9 04 15
        E 56 b9 04 25
        E 58 b9 04 36
        E 9 89 33 40
        E 80 89 2c 40
        E 39 b9 04 25
        E 39 b9 04 15
        E 3 99 33 07
        E 20 99 24 68
        E 32 b9 04 03
        E 17 b9 04 00
        E 174 89 33 40
        E 20 89 24 40
        E 178 99 26 78
        E 19 99 33 62
        E 15 b9 04 12
        E 14 b9 04 22
        E 36 b9 04 32
        E 5 b9 04 43
        E 5 b9 04 4d
        E 2 99 2c 2a
        E 18 b9 04 32
        E 9 b9 04 20
        E 121 89 26 40
        E 17 89 33 40
        E 75 b9 04 0f
        E 1 89 2c 40
        E 47 b9 04 00
        E 447 b9 04 12
        E 10 b9 04 22
        E 6 99 24 7f
        E 8 b9 04 32
        E 12 b9 04 43
        E 14 99 31 6d
        E 3 b9 04 32
        E 5 99 33 7f
        E 5 b9 04 20
        E 12 b9 04 0f
        E 178 b9 04 20
        E 6 89 24 40
        E 36 89 31 40
        E 7 89 33 40
        E 152 b9 04 0f
        E 53 b9 04 00
        E 329 b9 04 12
        E 17 99 24 6b
        E 9 b9 04 22
        E 12 99 33 7f
        E 5 b9 04 32
        E 29 b9 04 20
        E 20 b9 04 0f
        E 167 89 24 40
        E 21 89 33 40
        E 49 b9 04 20
        E 26 b9 04 30
        E 140 99 26 7f
        E 24 b9 04 20
        E 51 b9 04 0f
        E 36 b9 04 00
        E 131 89 26 40
        E 171 99 33 7f
        E 5 b9 04 12
        E 15 b9 04 22
        E 26 b9 04 32
        E 10 b9 04 43
        E 5 b9 04 4d
        E 2 99 2c 24
        E 2 b9 04 54
        E 20 b9 04 44
        E 10 b9 04 34
        E 123 b9 04 29
        E 24 89 33 40
        E 63 89 2c 40
        E 92 b9 04 18
        E 19 99 24 68
        E 36 b9 04 06
        E 22 b9 04 00
        E 183 89 24 40
        E 158 b9 04 12
        E 10 b9 04 25
        E 14 99 28 44
        E 17 b9 04 36
        E 7 b9 04 46
        E 5 b9 04 4d
        E 4 99 2c 26
        E 5 99 33 7f
        E 12 b9 04 36
        E 10 b9 04 25
        E 48 b9 04 15
        E 133 89 28 40
        E 29 b9 04 25
        E 10 89 2c 40
        E 2 89 33 40
        E 174 b9 04 15
        E 54 b9 04 03
        E 9 b9 04 00
        E 283 99 33 59
        E 17 b9 04 12
        E 26 b9 04 22
        E 13 b9 04 32
        E 7 b9 04 43
        E 5 b9 04 4c
        E 2 99 2c 24
        E 3 b9 04 54
        E 14 b9 04 44
        E 9 b9 04 32
        E 15 b9 04 22
        E 75 b9 04 12
        E 55 89 33 40
        E 48 b9 04 22
        E 22 89 2c 40
        E 15 b9 04 32
        E 101 99 24 64
        E 39 b9 04 22
        E 51 b9 04 12
        E 46 b9 04 00
        E 106 89 24 40
        E 198 99 33 5f
        E 10 99 26 75
        E 29 b9 04 12
        E 9 b9 04 25
        E 22 b9 04 36
        E 10 b9 04 46
        E 19 b9 04 36
        E 12 b9 04 22
        E 97 b9 04 32
        E 34 89 33 40
        E 9 89 26 40
        E 126 b9 04 22
        E 39 b9 04 12
        E 19 99 26 7f
        E 24 b9 04 00
        E 131 89 26 40
        E 0 99 26 79
        E 220 89 26 40
        E 2 99 26 7c
        E 14 b9 04 12
        E 12 b9 04 22
        E 39 b9 04 32
        E 17 b9 04 20
        E 36 b9 04 0f
        E 61 b9 04 20
        E 60 b9 04 30
        E 3 89 26 40
        E 87 b9 04 20
        E 60 b9 04 0f
        E 48 b9 04 00
        E 24 99 30 34
        E 165 89 30 40
        E 0 99 30 6d
        E 174 b9 04 12
        E 17 b9 04 22
        E 7 89 30 40
        E 2 99 30 7f
        E 27 b9 04 32
        E 29 b9 04 20
        E 22 b9 04 0f
        E 164 89 30 40
        E 101 b9 04 20
        E 29 b9 04 30
        E 54 b9 04 41
        E 11 99 2d 7f
        E 92 b9 04 30
        E 32 b9 04 20
        E 41 b9 04 0f
        E 34 b9 04 00
        E 43 89 2d 40
        E 193 99 31 73
        E 2 99 24 65
        E 30 99 33 7f
        E 36 b9 04 12
        E 12 b9 04 22
        E 24 b9 04 32
        E 15 b9 04 43
        E 5 b9 04 4c
        E 2 99 2c 1e
        E 3 b9 04 53
        E 19 b9 04 43
        E 9 b9 04 32
        E 56 b9 04 22
        E 29 89 31 40
        E 2 89 24 40
        E 30 89 33 40
        E 93 89 2c 40
        E 111 b9 04 12
        E 40 b9 04 00
        E 289 99 24 73
        E 20 99 33 7f
        E 2 b9 04 12
        E 15 b9 04 25
        E 28 b9 04 36
        E 27 b9 04 25
        E 14 b9 04 15
        E 136 89 24 40
        E 22 89 33 40
        E 26 b9 04 0f
        E 48 b9 04 20
        E 25 b9 04 30
        E 46 b9 04 41
        E 48 99 26 7f
        E 63 b9 04 30
        E 33 b9 04 20
        E 44 b9 04 0f
        E 31 b9 04 00
        E 71 89 26 40
        E 186 99 33 65
        E 53 b9 04 12
        E 14 b9 04 22
        E 27 b9 04 32
        E 12 b9 04 43
        E 22 b9 04 32
        E 12 b9 04 20
        E 101 89 33 40
        E 32 b9 04 1a
        E 50 b9 04 2c
        E 111 99 24 63
        E 56 b9 04 1a
        E 53 b9 04 09
        E 25 b9 04 00
        E 108 89 24 40
        E 145 99 33 71
        E 29 99 26 7f
        E 60 b9 04 12
        E 12 b9 04 22
        E 27 b9 04 32
        E 12 b9 04 43
        E 20 b9 04 32
        E 6 b9 04 22
        E 76 89 33 40
        E 31 b9 04 32
        E 3 89 26 40
        E 123 b9 04 22
        E 45 b9 04 12
        E 29 99 30 43
        E 20 b9 04 00
        E 137 89 30 40
        E 3 99 30 7f
        E 193 89 30 40
        E 0 99 30 5c
        E 22 b9 04 12
        E 39 b9 04 22
        E 17 b9 04 32
        E 31 b9 04 20
        E 101 b9 04 30
        E 32 89 30 40
        E 82 b9 04 20
        E 48 b9 04 0f
        E 37 b9 04 00
        E 69 99 2d 7f
        E 147 89 2d 40
        E 6 99 2d 7f
        E 140 b9 04 12
        E 51 b9 04 22
        E 2 89 2d 40
        E 3 99 2d 7f
        E 7 b9 04 32
        E 31 b9 04 20
        E 193 b9 04 30
        E 8 89 2d 40
        E 91 b9 04 20
        E 56 b9 04 0f
        E 36 b9 04 00
        E 75 99 29 50
        E 179 89 29 40
        E 5 99 29 7f
        E 94 b9 04 12
        E 17 b9 04 22
        E 75 89 29 40
        E 0 99 29 7f
        E 3 b9 04 12
        E 139 b9 04 25
        E 75 99 26 7f
        E 27 89 29 40
        E 31 b9 04 29
        E 39 b9 04 18
        E 34 b9 04 06
        E 14 b9 04 00
        E 68 89 26 40
        E 2 99 26 7f
        E 189 89 26 40
        E 2 99 26 73
        E 116 b9 04 12
        E 39 b9 04 22
        E 43 b9 04 12
        E 39 99 2d 7f
        E 7 89 26 40
        E 176 99 30 3d
        E 34 b9 04 22
        E 25 89 2d 40
        E 4 b9 04 32
        E 32 b9 04 43
        E 27 b9 04 4c
        E 2 99 2c 08
        E 94 99 26 7f
        E 10 b9 04 47
        E 14 89 30 40
        E 24 b9 04 36
        E 29 b9 04 25
        E 20 b9 04 15
        E 29 b9 04 03
        E 7 b9 04 00
        E 14 89 2c 40
        E 44 89 26 40
        E 4 99 26 71
        E 237 99 24 7f
        E 3 89 26 40
        E 12 99 3b 7f
        E 2 b9 04 12
        E 7 b9 04 27
        E 8 b9 04 38
        E 55 b9 04 27
        E 61 b9 04 15
        E 94 89 24 40
        E 17 89 3b 40
        E 99 b9 04 25
        E 159 b9 04 15
        E 46 b9 04 03
        E 12 b9 04 00
        E 240 99 24 69
        E 43 99 33 7f
        E 17 b9 04 12
        E 15 b9 04 22
        E 26 b9 04 32
        E 14 b9 04 43
        E 6 b9 04 4c
        E 0 99 2c 18
        E 26 b9 04 32
        E 27 b9 04 22
        E 55 b9 04 12
        E 15 89 24 40
        E 41 89 33 40
        E 82 89 2c 40
        E 60 b9 04 22
        E 46 99 26 7f
        E 80 b9 04 29
        E 67 b9 04 18
        E 44 b9 04 06
        E 17 b9 04 00
        E 34 89 26 40
        E 195 99 33 7f
        E 82 b9 04 12
        E 24 b9 04 22
        E 27 b9 04 32
        E 19 b9 04 22
        E 25 b9 04 12
        E 65 89 33 40
        E 61 b9 04 22
        E 135 99 24 76
        E 21 b9 04 12
        E 63 b9 04 00
        E 157 89 24 40
        E 136 99 28 7f
        E 29 99 33 77
        E 41 b9 04 12
        E 7 b9 04 22
        E 10 b9 04 32
        E 31 b9 04 43
        E 24 b9 04 32
        E 7 b9 04 22
        E 24 b9 04 12
        E 68 89 28 40
        E 29 89 33 40
        E 176 b9 04 1a
        E 90 b9 04 09
        E 29 b9 04 00
        E 256 99 33 7f
        E 68 b9 04 12
        E 21 b9 04 22
        E 13 b9 04 32
        E 33 b9 04 20
        E 109 89 33 40
        E 17 b9 04 12
        E 116 b9 04 22
        E 46 b9 04 32
        E 7 99 28 7d
        E 174 b9 04 22
        E 48 b9 04 12
        E 22 89 28 40
        E 22 b9 04 00
        E 210 99 33 7f
        E 68 b9 04 12
        E 24 b9 04 25
        E 10 b9 04 36
        E 9 b9 04 47
        E 3 b9 04 4c
        E 2 99 2c 1e
        E 24 b9 04 36
        E 104 89 33 40
        E 22 b9 04 30
        E 91 89 2c 40
        E 54 99 24 60
        E 14 b9 04 20
        E 46 b9 04 0f
        E 39 b9 04 00
        E 143 89 24 40
        E 156 b9 04 12
        E 19 b9 04 22
        E 11 99 33 6a
        E 12 b9 04 32
        E 9 b9 04 43
        E 5 b9 04 4c
        E 2 99 2c 20
        E 5 b9 04 53
        E 20 b9 04 43
        E 7 b9 04 32
        E 123 b9 04 43
        E 58 89 33 40
        E 29 89 2c 40
        E 22 b9 04 32
        E 26 b9 04 22
        E 36 b9 04 12
        E 40 99 24 75
        E 4 b9 04 00
        E 236 89 24 40
        E 180 99 28 7f
        E 5 b9 04 12
        E 26 99 3b 7f
        E 9 b9 04 22
        E 10 b9 04 32
        E 8 b9 04 43
        E 16 b9 04 30
        E 8 b9 04 20
        E 17 b9 04 0f
        E 65 b9 04 20
        E 77 89 28 40
        E 34 89 3b 40
        E 12 b9 04 29
        E 56 b9 04 18
        E 50 b9 04 06
        E 27 b9 04 00
        E 367 b9 04 12
        E 15 b9 04 22
        E 14 99 24 7f
        E 12 b9 04 32
        E 10 b9 04 43
        E 17 b9 04 32
        E 8 b9 04 20
        E 4 99 3b 77
        E 20 b9 04 0f
        E 77 b9 04 20
        E 50 b9 04 30
        E 44 89 24 40
        E 50 89 3b 40
        E 46 b9 04 20
        E 56 b9 04 0f
        E 41 b9 04 00
        E 346 b9 04 12
        E 14 b9 04 22
        E 34 99 24 7f
        E 2 b9 04 32
        E 5 b9 04 44
        E 5 b9 04 4c
        E 3 99 2c 20
        E 2 99 33 71
        E 14 b9 04 34
        E 8 b9 04 22
        E 19 b9 04 12
        E 184 89 24 40
        E 14 89 2c 40
        E 2 89 33 40
        E 3 b9 04 22
        E 140 b9 04 12
        E 63 99 26 79
        E 6 b9 04 00
        E 235 89 26 40
        E 107 b9 04 12
        E 38 b9 04 22
        E 12 b9 04 32
        E 10 b9 04 43
        E 15 99 33 7f
        E 2 b9 04 32
        E 7 b9 04 22
        E 17 b9 04 12
        E 94 b9 04 22
        E 121 89 33 40
        E 10 b9 04 2c
        E 53 b9 04 1a
        E 51 b9 04 09
        E 29 99 24 6d
        E 3 b9 04 00
        E 238 89 24 40
        E 111 99 33 5b
        E 54 99 26 68
        E 12 b9 04 12
        E 46 b9 04 22
        E 7 b9 04 32
        E 24 b9 04 20
        E 12 b9 04 0f
        E 87 89 33 40
        E 53 89 26 40
        E 3 b9 04 20
        E 43 b9 04 30
        E 102 b9 04 20
        E 34 99 26 60
        E 18 b9 04 0f
        E 39 b9 04 00
        E 77 99 30 7f
        E 107 89 26 40
        E 67 99 2d 7f
        E 68 b9 04 12
        E 2 89 30 40
        E 25 99 24 70
        E 2 b9 04 22
        E 19 b9 04 32
        E 10 b9 04 43
        E 5 b9 04 4c
        E 3 99 2c 1e
        E 2 b9 04 54
        E 24 b9 04 44
        E 12 b9 04 34
        E 41 b9 04 20
        E 29 89 2d 40
        E 20 b9 04 0f
        E 75 89 24 40
        E 40 89 2c 40
        E 5 b9 04 20
        E 15 b9 04 30
        E 27 b9 04 41
        E 34 b9 04 4f
        E 2 99 2c 06
        E 14 b9 04 51
        E 85 b9 04 41
        E 34 b9 04 30
        E 2 99 24 6c
        E 17 b9 04 20
        E 34 b9 04 0f
        E 29 b9 04 00
        E 29 89 2c 40
        E 135 89 24 40
        E 145 99 26 7f
        E 27 b9 04 12
        E 7 b9 04 22
        E 5 b9 04 32
        E 9 b9 04 43
        E 32 b9 04 4c
        E 0 99 2c 1c
        E 5 b9 04 53
        E 19 89 26 40
        E 2 99 26 7f
        E 3 b9 04 43
        E 2 b9 04 32
        E 9 b9 04 22
        E 56 b9 04 12
        E 145 89 2c 40
        E 26 89 26 40
        E 5 b9 04 22
        E 23 b9 04 32
        E 40 99 26 3f
        E 87 b9 04 36
        E 49 b9 04 25
        E 19 99 30 7f
        E 10 b9 04 15
        E 34 b9 04 03
        E 9 b9 04 00
        E 37 89 26 40
        E 60 99 2d 7f
        E 92 89 30 40
        E 39 99 24 7a
        E 43 b9 04 12
        E 17 b9 04 22
        E 14 b9 04 32
        E 15 b9 04 44
        E 4 b9 04 4c
        E 3 99 2c 1a
        E 2 b9 04 54
        E 18 89 2d 40
        E 13 b9 04 44
        E 42 b9 04 34
        E 36 b9 04 20
        E 35 89 24 40
        E 95 89 2c 40
        E 3 b9 04 30
        E 31 b9 04 41
        E 114 99 24 65
        E 39 b9 04 30
        E 26 b9 04 20
        E 39 b9 04 0f
        E 34 b9 04 00
        E 104 89 24 40
        E 120 99 26 7d
        E 66 b9 04 12
        E 21 b9 04 22
        E 2 89 26 40
        E 3 99 26 7f
        E 17 b9 04 32
        E 7 b9 04 43
        E 5 b9 04 4c
        E 3 99 2c 24
        E 14 b9 04 32
        E 10 b9 04 20
        E 21 b9 04 0f
        E 133 b9 04 20
        E 29 89 26 40
        E 32 b9 04 30
        E 2 89 2c 40
        E 58 99 24 69
        E 15 b9 04 20
        E 55 b9 04 0f
        E 34 b9 04 00
        E 138 89 24 40
        E 171 b9 04 12
        E 5 b9 04 22
        E 7 b9 04 34
        E 3 99 24 7f
        E 5 b9 04 44
        E 26 b9 04 4c
        E 3 99 2c 20
        E 2 b9 04 55
        E 7 b9 04 65
        E 5 99 31 7f
        E 2 99 3b 7f
        E 12 b9 04 55
        E 14 b9 04 44
        E 49 b9 04 34
        E 44 b9 04 22
        E 72 89 24 40
        E 36 89 2c 40
        E 15 89 31 40
        E 3 89 3b 40
        E 13 b9 04 32
        E 151 b9 04 22
        E 36 b9 04 12
        E 36 b9 04 00
        E 298 99 24 73
        E 21 b9 04 12
        E 12 b9 04 25
        E 20 99 33 7f
        E 17 b9 04 36
        E 9 b9 04 47
        E 3 b9 04 4c
        E 2 99 2c 1e
        E 24 b9 04 36
        E 13 b9 04 25
        E 50 b9 04 15
        E 71 89 24 40
        E 53 89 33 40
        E 31 89 2c 40
        E 21 b9 04 25
        E 102 99 26 7f
        E 65 b9 04 15
        E 46 b9 04 03
        E 13 b9 04 00
        E 118 89 26 40
        E 171 b9 04 12
        E 14 b9 04 22
        E 15 b9 04 32
        E 10 99 33 7f
        E 7 b9 04 43
        E 29 b9 04 32
        E 20 b9 04 22
        E 159 b9 04 1a
        E 26 89 33 40
        E 17 b9 04 2c
        E 138 99 24 7b
        E 33 b9 04 1a
        E 48 b9 04 09
        E 23 b9 04 00
        E 138 89 24 40
        E 197 99 26 7f
        E 18 b9 04 12
        E 9 b9 04 22
        E 7 99 33 7f
        E 0 b9 04 32
        E 27 b9 04 43
        E 21 b9 04 32
        E 10 b9 04 20
        E 33 b9 04 0f
        E 86 b9 04 20
        E 31 89 26 40
        E 25 b9 04 30
        E 9 89 33 40
        E 94 b9 04 20
        E 61 b9 04 0f
        E 47 b9 04 00
        E 337 b9 04 12
        E 7 b9 04 22
        E 5 99 33 62
        E 7 b9 04 32
        E 29 b9 04 43
        E 7 b9 04 4c
        E 3 99 2c 1a
        E 21 b9 04 32
        E 10 b9 04 20
        E 162 b9 04 12
        E 5 89 33 40
        E 43 89 2c 40
        E 12 b9 04 22
        E 29 b9 04 32
        E 95 99 24 68
        E 36 b9 04 36
        E 48 b9 04 25
        E 41 b9 04 15
        E 46 b9 04 03
        E 9 b9 04 00
        E 61 89 24 40
        E 225 b9 04 12
        E 19 99 33 7f
        E 15 b9 04 22
        E 14 b9 04 32
        E 8 b9 04 44
        E 5 b9 04 4d
        E 2 99 2c 26
        E 3 b9 04 55
        E 14 b9 04 44
        E 7 b9 04 34
        E 8 b9 04 20
        E 166 89 33 40
        E 29 b9 04 30
        E 14 89 2c 40
        E 20 b9 04 41
        E 38 b9 04 50
        E 3 99 2c 08
        E 2 b9 04 51
        E 101 99 24 6f
        E 17 b9 04 41
        E 34 b9 04 30
        E 28 b9 04 20
        E 38 b9 04 0f
        E 21 89 2c 40
        E 10 b9 04 00
        E 97 89 24 40
        E 184 99 26 7f
        E 21 b9 04 12
        E 7 99 33 7f
        E 17 b9 04 22
        E 22 b9 04 32
        E 9 b9 04 43
        E 6 b9 04 4d
        E 2 99 2c 26
        E 2 b9 04 55
        E 22 b9 04 44
        E 7 b9 04 34
        E 12 b9 04 20
        E 116 89 26 40
        E 29 89 33 40
        E 51 b9 04 30
        E 2 89 2c 40
        E 109 99 24 71
        E 41 b9 04 20
        E 71 b9 04 0f
        E 40 b9 04 00
        E 90 89 24 40
        E 142 99 26 76
        E 84 89 26 40
        E 5 99 26 7f
        E 11 b9 04 12
        E 48 b9 04 22
        E 7 b9 04 32
        E 29 b9 04 22
        E 12 b9 04 12
        E 133 89 26 40
        E 61 b9 04 22
        E 98 99 28 62
        E 27 b9 04 27
        E 58 b9 04 15
        E 44 b9 04 03
        E 6 b9 04 00
        E 110 89 28 40
        E 149 99 24 7f
        E 33 99 33 7f
        E 3 b9 04 12
        E 10 b9 04 22
        E 17 b9 04 32
        E 14 b9 04 43
        E 25 b9 04 32
        E 16 b9 04 22
        E 123 89 24 40
        E 35 89 33 40
        E 2 b9 04 15
        E 75 b9 04 25
        E 130 b9 04 29
        E 60 b9 04 18
        E 61 b9 04 06
        E 24 b9 04 00
        E 232 99 24 63
        E 10 99 33 7f
        E 58 b9 04 12
        E 26 b9 04 22
        E 12 b9 04 32
        E 41 b9 04 20
        E 94 89 24 40
        E 10 89 33 40
        E 160 99 26 7f
        E 147 b9 04 0f
        E 96 89 26 40
        E 34 b9 04 00
        E 146 b9 04 12
        E 58 b9 04 22
        E 19 99 33 7f
        E 135 b9 04 32
        E 109 89 33 40
        E 29 b9 04 22
        E 49 b9 04 12
        E 31 99 24 63
        E 27 b9 04 00
        E 214 89 24 40
        E 136 99 26 7f
        E 17 99 33 7f
        E 14 b9 04 12
        E 39 b9 04 25
        E 14 b9 04 36
        E 19 b9 04 25
        E 11 b9 04 15
        E 28 b9 04 03
        E 99 89 26 40
        E 17 b9 04 15
        E 0 89 33 40
        E 73 b9 04 25
        E 120 b9 04 15
        E 82 b9 04 03
        E 15 b9 04 00
        E 283 99 33 7f
        E 38 b9 04 12
        E 27 b9 04 22
        E 12 b9 04 32
        E 34 b9 04 20
        E 128 b9 04 1a
        E 2 89 33 40
        E 188 99 28 64
        E 66 b9 04 09
        E 50 b9 04 00
        E 126 89 28 40
        E 135 b9 04 12
        E 25 b9 04 22
        E 14 99 33 5c
        E 0 b9 04 32
        E 24 b9 04 22
        E 29 b9 04 12
        E 150 b9 04 22
        E 34 b9 04 32
        E 5 89 33 40
        E 135 99 24 5e
        E 22 b9 04 22
        E 60 b9 04 12
        E 77 b9 04 00
        E 83 89 24 40
        E 196 99 26 7f
        E 26 b9 04 12
        E 29 b9 04 25
        E 9 b9 04 36
        E 7 89 26 40
        E 3 99 26 7f
        E 20 b9 04 22
        E 12 b9 04 12
        E 203 b9 04 22
        E 9 89 26 40
        E 14 b9 04 32
        E 56 b9 04 43
        E 60 99 24 5f
        E 35 b9 04 32
        E 36 b9 04 22
        E 46 b9 04 12
        E 50 b9 04 00
        E 77 89 24 40
        E 98 99 2d 7f
        E 22 99 30 7f
        E 137 b9 04 12
        E 17 b9 04 22
        E 5 b9 04 32
        E 9 b9 04 43
        E 15 b9 04 32
        E 7 b9 04 20
        E 22 b9 04 0f
        E 7 89 2d 40
        E 24 89 30 40
        E 27 b9 04 20
        E 46 b9 04 30
        E 109 b9 04 20
        E 62 b9 04 0f
        E 46 b9 04 00
        E 348 99 24 7f
        E 13 b9 04 12
        E 14 b9 04 25
        E 2 99 31 6d
        E 22 99 33 7f
        E 9 b9 04 36
        E 5 b9 04 46
        E 5 b9 04 4c
        E 2 99 2c 22
        E 13 b9 04 36
        E 10 b9 04 25
        E 14 b9 04 15
        E 133 89 24 40
        E 14 b9 04 25
        E 15 89 31 40
        E 21 89 33 40
        E 22 89 2c 40
        E 101 b9 04 15
        E 85 b9 04 03
        E 27 b9 04 00
        E 302 99 24 60
        E 10 b9 04 12
        E 21 b9 04 25
        E 12 b9 04 36
        E 10 99 33 56
        E 29 b9 04 25
        E 123 b9 04 20
        E 37 89 24 40
        E 55 89 33 40
        E 3 b9 04 0f
        E 67 b9 04 00
        E 70 99 26 7f
        E 242 89 26 40
        E 7 b9 04 12
        E 26 b9 04 22
        E 54 b9 04 12
        E 86 99 33 4f
        E 155 b9 04 22
        E 35 b9 04 32
        E 42 b9 04 43
        E 10 89 33 40
        E 121 b9 04 32
        E 29 b9 04 22
        E 22 99 24 64
        E 19 b9 04 12
        E 48 b9 04 00
        E 174 89 24 40
        E 165 99 26 7f
        E 16 b9 04 12
        E 15 99 33 7f
        E 2 b9 04 22
        E 27 b9 04 32
        E 7 b9 04 43
        E 20 b9 04 32
        E 7 b9 04 22
        E 17 b9 04 12
        E 130 89 26 40
        E 36 89 33 40
        E 37 b9 04 22
        E 41 b9 04 32
        E 132 b9 04 22
        E 56 b9 04 12
        E 61 b9 04 00
        E 232 99 33 7c
        E 77 b9 04 12
        E 27 b9 04 22
        E 9 b9 04 32
        E 32 b9 04 20
        E 96 89 33 40
        E 208 99 26 7d
        E 43 b9 04 0f
        E 79 b9 04 00
        E 120 89 26 40
        E 149 b9 04 12
        E 8 99 33 5b
        E 18 b9 04 22
        E 15 b9 04 32
        E 39 b9 04 20
        E 133 b9 04 1a
        E 36 89 33 40
        E 14 b9 04 2c
        E 151 99 24 50
        E 31 b9 04 1a
        E 60 b9 04 09
        E 34 b9 04 00
        E 116 89 24 40
        E 181 b9 04 12
        E 5 99 26 57
        E 21 b9 04 22
        E 8 99 33 58
        E 2 b9 04 32
        E 5 b9 04 43
        E 23 b9 04 30
        E 9 b9 04 20
        E 126 b9 04 1a
        E 47 89 26 40
        E 3 b9 04 2c
        E 27 89 33 40
        E 111 99 24 53
        E 43 b9 04 1a
        E 65 b9 04 09
        E 35 b9 04 00
        E 99 89 24 40
        E 120 99 30 7f
        E 70 99 33 50
        E 10 b9 04 12
        E 22 b9 04 25
        E 12 b9 04 36
        E 12 b9 04 46
        E 12 b9 04 36
        E 12 b9 04 25
        E 92 89 30 40
        E 73 89 33 40
        E 60 99 30 7f
        E 0 b9 04 15
        E 50 b9 04 03
        E 14 b9 04 00
        E 177 89 30 40
        E 152 99 24 7f
        E 3 b9 04 12
        E 36 b9 04 25
        E 15 b9 04 36
        E 7 b9 04 47
        E 2 99 33 7f
        E 15 b9 04 36
        E 9 b9 04 25
        E 15 b9 04 15
        E 140 89 24 40
        E 12 b9 04 25
        E 51 89 33 40
        E 126 b9 04 15
        E 67 b9 04 03
        E 17 b9 04 00
        E 302 99 24 55
        E 0 b9 04 12
        E 16 b9 04 25
        E 12 b9 04 36
        E 23 b9 04 25
        E 12 b9 04 15
        E 2 99 33 7f
        E 177 89 24 40
        E 65 89 33 40
        E 24 b9 04 1a
        E 94 b9 04 09
        E 12 99 26 72
        E 30 b9 04 00
        E 212 89 26 40
        E 75 b9 04 12
        E 31 b9 04 22
        E 46 b9 04 12
        E 36 99 33 33
        E 158 b9 04 22
        E 33 b9 04 32
        E 51 89 33 40
        E 77 b9 04 38
        E 46 b9 04 27
        E 15 99 24 56
        E 29 b9 04 15
        E 50 b9 04 03
        E 13 b9 04 00
        E 149 89 24 40
        E 196 b9 04 12
        E 22 b9 04 22
        E 7 99 26 7f
        E 0 99 33 7f
        E 19 b9 04 32
        E 7 b9 04 43
        E 5 b9 04 4c
        E 3 99 2c 20
        E 19 b9 04 30
        E 4 b9 04 20
        E 42 b9 04 0f
        E 143 89 26 40
        E 2 89 33 40
        E 15 b9 04 20
        E 19 89 2c 40
        E 176 b9 04 0f
        E 56 b9 04 00
        E 302 99 33 37
        E 7 b9 04 12
        E 19 b9 04 22
        E 46 b9 04 12
        E 169 89 33 40
        E 61 b9 04 22
        E 123 99 26 7f
        E 9 b9 04 12
        E 68 b9 04 00
        E 165 89 26 40
        E 123 99 33 7f
        E 29 b9 04 12
        E 31 b9 04 22
        E 10 b9 04 32
        E 7 b9 04 43
        E 22 b9 04 32
        E 9 b9 04 20
        E 129 b9 04 15
        E 4 89 33 40
        E 66 b9 04 25
        E 128 99 24 54
        E 24 b9 04 15
        E 67 b9 04 03
        E 12 b9 04 00
        E 141 89 24 40
        E 169 b9 04 12
        E 16 99 33 7f
        E 13 b9 04 22
        E 2 99 26 67
        E 7 b9 04 32
        E 6 b9 04 43
        E 5 b9 04 4c
        E 6 99 2c 22
        E 15 b9 04 32
        E 9 b9 04 22
        E 61 b9 04 12
        E 89 b9 04 22
        E 32 89 33 40
        E 12 89 26 40
        E 5 b9 04 32
        E 19 89 2c 40
        E 99 99 24 57
        E 5 b9 04 22
        E 55 b9 04 12
        E 53 b9 04 00
        E 131 89 24 40
        E 152 99 28 2d
        E 8 99 26 73
        E 36 99 33 74
        E 2 b9 04 12
        E 31 b9 04 22
        E 8 b9 04 32
        E 10 b9 04 43
        E 19 b9 04 32
        E 9 b9 04 22
        E 68 b9 04 32
        E 53 89 28 40
        E 7 89 26 40
        E 37 89 33 40
        E 16 b9 04 22
        E 47 b9 04 12
        E 43 b9 04 00
        E 15 99 26 65
        E 241 89 26 40
        E 46 b9 04 12
        E 24 b9 04 22
        E 13 b9 04 32
        E 9 b9 04 43
        E 4 99 24 7f
        E 3 b9 04 4c
        E 2 99 2c 1e
        E 17 b9 04 32
        E 13 b9 04 22
        E 41 99 33 48
        E 32 b9 04 12
        E 137 89 24 40
        E 2 89 2c 40
        E 44 b9 04 22
        E 28 89 33 40
        E 10 b9 04 32
        E 94 b9 04 43
        E 168 b9 04 32
        E 195 b9 04 38
        E 386 b9 04 27
        E 75 b9 04 15
        E 71 99 26 7f
        E 108 89 26 40
        E 2 99 26 7f
        E 15 b9 04 25
        E 48 b9 04 36
        E 39 b9 04 25
        E 124 b9 04 1d
        E 19 89 26 40
        E 166 b9 04 2e
        E 63 b9 04 3e
        E 145 b9 04 44
        E 60 b9 04 34
        E 51 b9 04 22
        E 65 b9 04 12
        E 122 b9 04 00
        E 135 99 24 7f
        E 9 b9 04 12
        E 36 b9 04 25
        E 22 b9 04 36
        E 24 b9 04 46
        E 15 b9 04 4c
        E 2 99 2c 0a
        E 58 b9 04 36
        E 43 b9 04 25
        E 32 89 24 40
        E 32 b9 04 15
        E 79 89 2c 40
        E 147 b9 04 25
        E 148 b9 04 32
        E 334 b9 04 25
        E 161 b9 04 1d
        E 222 99 30 7f
        E 3 99 2d 7f
        E 128 b9 04 2e
        E 114 89 30 40
        E 2 89 2d 40
        E 304 b9 04 27
        E 411 b9 04 38
        E 261 99 24 7f
        E 14 b9 04 2c
        E 228 89 24 40
        E 353 b9 04 27
        E 159 99 26 7f
        E 2 b9 04 20
        E 85 89 26 40
        E 2 99 26 7f
        E 244 89 26 40
        E 36 b9 04 2e
        E 203 b9 04 20
        E 307 99 24 7f
        E 242 89 24 40
        E 2 b9 04 12
        E 249 b9 04 1d
        E 217 b9 04 27
        E 332 b9 04 1d
        E 249 99 2d 7f
        E 2 99 30 7f
        E 241 89 2d 40
        E 2 89 30 40
        E 830 b9 04 2c
        E 113 99 24 7a
        E 196 b9 04 20
        E 46 89 24 40
        E 208 b9 04 29
        E 666 b9 04 20
        E 245 b9 04 15
        E 24 99 26 7f
        E 67 b9 04 25
        E 21 89 26 40
        E 3 99 26 7f
        E 242 89 26 40
        E 10 b9 04 1d
        E 761 b9 04 2e
        E 84 99 24 7e
        E 162 b9 04 1d
        E 80 89 24 40
        E 372 b9 04 25
        E 137 b9 04 1d
        E 59 99 30 7f
        E 7 99 2d 7f
        E 236 89 30 40
        E 5 89 2d 40
        E 54 b9 04 29
        E 194 b9 04 1d
        E 270 b9 04 12
        E 11 99 24 6e
        E 20 99 33 65
        E 31 b9 04 22
        E 126 b9 04 29
        E 68 89 24 40
        E 19 89 33 40
        E 18 b9 04 18
        E 190 b9 04 0f
        E 284 b9 04 20
        E 42 99 33 30
        E 186 b9 04 12
        E 55 89 33 40
        E 266 b9 04 22
        E 198 b9 04 15
        E 193 b9 04 25
        E 148 b9 04 29
        E 155 b9 04 18
        E 208 b9 04 0c
        E 190 99 28 5a
        E 2 b9 04 1d
        E 13 99 33 7a
        E 229 89 28 40
        E 12 89 33 40
        E 3 b9 04 0f
        E 285 b9 04 1a
        E 309 b9 04 15
        E 135 b9 04 25
        E 315 b9 04 1d
        E 64 99 24 79
        E 20 99 33 41
        E 224 89 24 40
        E 17 89 33 40
        E 998 99 26 7f
        E 20 99 33 65
        E 222 89 26 40
        E 21 89 33 40
        E 445 b9 04 2e
        E 290 b9 04 36
        E 145 b9 04 27
        E 154 b9 04 1a
        E 141 99 24 7a
        E 5 99 33 3c
        E 50 b9 04 2c
        E 34 b9 04 3c
        E 148 b9 04 2c
        E 4 89 24 40
        E 5 89 33 40
        E 61 b9 04 1a
        E 164 b9 04 12
        E 191 b9 04 22
        E 7 99 24 44
        E 10 b9 04 32
        E 31 99 33 2d
        E 8 b9 04 43
        E 109 b9 04 32
        E 33 b9 04 22
        E 43 b9 04 12
        E 8 89 24 40
        E 41 89 33 40
        E 68 b9 04 00
        E 125 99 28 29
        E 164 b9 04 12
        E 27 b9 04 22
        E 51 89 28 40
        E 87 99 33 27
        E 0 b9 04 12
        E 178 b9 04 22
        E 44 b9 04 32
        E 19 89 33 40
        E 104 b9 04 22
        E 50 99 24 40
        E 8 b9 04 12
        E 70 b9 04 00
        E 167 89 24 40
        E 157 99 33 62
        E 2 99 28 42
        E 44 b9 04 12
        E 14 b9 04 25
        E 36 b9 04 36
        E 10 b9 04 46
        E 5 b9 04 4c
        E 2 99 2c 1a
        E 17 b9 04 36
        E 17 b9 04 25
        E 95 89 33 40
        E 2 89 28 40
        E 24 b9 04 1a
        E 89 89 2c 40
        E 73 b9 04 09
        E 58 b9 04 00
        E 326 b9 04 12
        E 24 b9 04 25
        E 3 99 33 27
        E 14 b9 04 36
        E 80 b9 04 25
        E 125 b9 04 1a
        E 22 89 33 40
        E 104 b9 04 09
        E 85 99 26 5c
        E 51 b9 04 00
        E 193 89 26 40
        E 62 b9 04 12
        E 39 b9 04 22
        E 22 99 33 2b
        E 52 b9 04 12
        E 170 b9 04 1d
        E 20 89 33 40
        E 130 b9 04 27
        E 128 b9 04 15
        E 150 b9 04 03
        E 31 b9 04 00
        E 280 b9 04 12
        E 29 b9 04 22
        E 341 b9 04 12
        E 167 b9 04 00
        E 246 b9 04 12
        E 150 b9 04 22
        E 68 b9 04 32
        E 118 b9 04 22
        E 60 b9 04 12
        E 89 b9 04 00
        E 327 b9 04 12
        E 27 b9 04 22
        E 9 b9 04 32
        E 10 b9 04 43
        E 12 99 24 73
        E 11 b9 04 32
        E 11 b9 04 20
        E 29 99 33 60
        E 101 b9 04 12
        E 89 89 24 40
        E 51 89 33 40
        E 123 b9 04 22
        E 136 b9 04 29
        E 43 99 26 57
        E 135 b9 04 1d
        E 109 89 26 40
        E 227 b9 04 27
        E 357 b9 04 30
        E 235 b9 04 25
        E 133 99 26 79
        E 22 b9 04 1d
        E 14 99 33 4e
        E 135 b9 04 2e
        E 25 b9 04 3e
        E 24 b9 04 4c
        E 2 99 2c 0c
        E 5 b9 04 4f
        E 14 89 26 40
        E 37 89 33 40
        E 89 b9 04 3f
        E 37 b9 04 2e
        E 36 b9 04 1d
        E 24 89 2c 40
        E 46 b9 04 0c
        E 89 b9 04 00
        E 200 b9 04 12
        E 25 b9 04 22
        E 15 b9 04 32
        E 16 b9 04 43
        E 15 b9 04 4c
        E 3 99 2c 10
        E 2 99 33 31
        E 68 b9 04 32
        E 91 b9 04 22
        E 80 89 2c 40
        E 4 89 33 40
        E 30 b9 04 12
        E 142 99 26 65
        E 53 b9 04 06
        E 173 b9 04 18
        E 16 89 26 40
        E 14 b9 04 29
        E 29 b9 04 3a
        E 68 b9 04 29
        E 17 99 33 3a
        E 67 b9 04 18
        E 172 b9 04 29
        E 2 89 33 40
        E 37 b9 04 3a
        E 34 b9 04 4a
        E 9 b9 04 4d
        E 3 99 2c 08
        E 138 b9 04 3a
        E 12 99 24 52
        E 26 b9 04 29
        E 41 b9 04 18
        E 24 89 2c 40
        E 32 b9 04 06
        E 28 b9 04 00
        E 92 89 24 40
        E 145 99 28 4a
        E 27 99 33 41
        E 7 b9 04 12
        E 22 b9 04 22
        E 12 b9 04 32
        E 15 b9 04 43
        E 9 b9 04 4c
        E 3 99 2c 16
        E 16 b9 04 32
        E 12 b9 04 22
        E 120 89 28 40
        E 26 89 33 40
        E 28 b9 04 32
        E 39 89 2c 40
        E 68 99 24 4b
        E 58 b9 04 22
        E 80 b9 04 12
        E 79 b9 04 00
        E 24 89 24 40
        E 167 99 26 6d
        E 22 99 33 44
        E 27 b9 04 12
        E 28 b9 04 22
        E 15 b9 04 32
        E 36 b9 04 22
        E 37 b9 04 12
        E 77 89 26 40
        E 22 89 33 40
        E 12 b9 04 22
        E 55 b9 04 32
        E 102 99 26 6c
        E 12 b9 04 22
        E 70 b9 04 12
        E 68 b9 04 00
        E 91 89 26 40
        E 150 b9 04 12
        E 20 b9 04 22
        E 9 b9 04 32
        E 5 99 24 6f
        E 7 b9 04 43
        E 0 99 33 71
        E 24 b9 04 32
        E 17 b9 04 22
        E 152 b9 04 15
        E 41 89 24 40
        E 10 89 33 40
        E 7 b9 04 25
        E 32 b9 04 36
        E 43 b9 04 46
        E 150 b9 04 36
        E 70 b9 04 25
        E 114 b9 04 15
        E 160 b9 04 25
        E 26 99 24 50
        E 2 b9 04 36
        E 2 99 33 7f
        E 27 b9 04 46
        E 14 b9 04 4c
        E 3 99 2c 0a
        E 46 b9 04 56
        E 121 b9 04 46
        E 29 89 24 40
        E 2 89 33 40
        E 10 b9 04 36
        E 36 89 2c 40
        E 13 b9 04 25
        E 67 b9 04 15
        E 45 99 26 7f
        E 47 b9 04 03
        E 171 b9 04 15
        E 24 89 26 40
        E 2 b9 04 25
        E 23 b9 04 36
        E 77 b9 04 25
        E 72 99 33 40
        E 32 b9 04 15
        E 96 b9 04 25
        E 39 b9 04 36
        E 36 b9 04 46
        E 22 b9 04 4d
        E 2 99 2c 08
        E 15 89 33 40
        E 94 b9 04 4d
        E 51 b9 04 3c
        E 19 99 24 51
        E 21 b9 04 2c
        E 40 b9 04 1a
        E 2 89 2c 40
        E 48 b9 04 09
        E 36 b9 04 00
        E 95 89 24 40
        E 125 99 26 7f
        E 46 99 33 79
        E 17 b9 04 12
        E 17 b9 04 22
        E 10 b9 04 32
        E 10 b9 04 43
        E 4 b9 04 4c
        E 3 99 2c 1e
        E 24 b9 04 32
        E 14 b9 04 22
        E 97 89 26 40
        E 27 b9 04 1a
        E 19 89 33 40
        E 43 b9 04 2c
        E 20 89 2c 40
        E 185 b9 04 1a
        E 97 b9 04 09
        E 42 b9 04 00
        E 202 99 33 47
        E 20 b9 04 12
        E 29 b9 04 22
        E 19 b9 04 32
        E 17 b9 04 20
        E 131 b9 04 1a
        E 26 89 33 40
        E 28 b9 04 2c
        E 134 b9 04 32
        E 53 b9 04 22
        E 77 b9 04 12
        E 87 b9 04 00
        E 213 99 33 4c
        E 24 b9 04 12
        E 27 b9 04 25
        E 17 b9 04 36
        E 33 b9 04 25
        E 47 b9 04 15
        E 96 89 33 40
        E 15 b9 04 25
        E 139 b9 04 29
        E 15 99 26 7f
        E 85 b9 04 18
        E 106 b9 04 06
        E 39 b9 04 00
        E 12 89 26 40
        E 171 b9 04 12
        E 10 99 33 3b
        E 24 b9 04 22
        E 15 b9 04 32
        E 53 b9 04 22
        E 142 b9 04 1a
        E 7 89 33 40
        E 53 b9 04 2c
        E 39 b9 04 3c
        E 61 b9 04 4c
        E 2 99 2c 08
        E 2 b9 04 4c
        E 73 99 24 4b
        E 30 b9 04 3c
        E 54 b9 04 2c
        E 56 b9 04 1a
        E 27 89 2c 40
        E 39 b9 04 09
        E 36 89 24 40
        E 11 b9 04 00
        E 164 99 28 3d
        E 27 99 33 47
        E 30 b9 04 12
        E 24 b9 04 22
        E 14 b9 04 32
        E 10 b9 04 43
        E 26 b9 04 32
        E 13 b9 04 20
        E 98 89 28 40
        E 27 89 33 40
        E 24 b9 04 30
        E 114 99 24 45
        E 17 b9 04 38
        E 58 b9 04 27
        E 67 b9 04 15
        E 67 b9 04 03
        E 20 b9 04 00
        E 12 89 24 40
        E 158 99 33 59
        E 7 99 28 36
        E 6 99 26 6e
        E 64 b9 04 12
        E 26 b9 04 22
        E 10 b9 04 32
        E 24 b9 04 22
        E 22 b9 04 12
        E 74 b9 04 22
        E 8 89 33 40
        E 7 89 28 40
        E 8 89 26 40
        E 9 b9 04 32
        E 162 99 26 78
        E 9 b9 04 22
        E 49 b9 04 12
        E 55 b9 04 00
        E 129 89 26 40
        E 154 99 24 65
        E 2 b9 04 12
        E 22 b9 04 22
        E 10 b9 04 32
        E 17 99 33 51
        E 16 b9 04 20
        E 39 b9 04 0f
        E 137 89 24 40
        E 32 b9 04 20
        E 20 89 33 40
        E 5 b9 04 30
        E 29 b9 04 41
        E 26 b9 04 4c
        E 2 99 2c 08
        E 27 b9 04 51
        E 35 99 24 38
        E 74 b9 04 41
        E 45 b9 04 30
        E 37 b9 04 20
        E 24 89 2c 40
        E 24 b9 04 0f
        E 36 89 24 40
        E 13 b9 04 00
        E 143 99 26 50
        E 55 99 33 55
        E 20 b9 04 12
        E 16 b9 04 25
        E 13 b9 04 36
        E 9 b9 04 46
        E 5 b9 04 4c
        E 2 99 2c 1c
        E 27 b9 04 36
        E 38 b9 04 25
        E 56 89 26 40
        E 56 89 33 40
        E 16 b9 04 1a
        E 45 b9 04 2c
        E 4 89 2c 40
        E 26 b9 04 3c
        E 34 99 24 42
        E 51 99 33 38
        E 46 b9 04 41
        E 40 b9 04 30
        E 27 b9 04 20
        E 35 b9 04 0f
        E 33 b9 04 00
        E 13 89 24 40
        E 50 89 33 40
        E 128 99 24 47
        E 56 99 33 62
        E 5 b9 04 12
        E 9 b9 04 22
        E 12 b9 04 32
        E 17 b9 04 43
        E 5 b9 04 4c
        E 2 99 2c 1a
        E 3 b9 04 54
        E 24 b9 04 44
        E 10 b9 04 34
        E 55 b9 04 22
        E 44 89 24 40
        E 57 89 33 40
        E 49 89 2c 40
        E 9 b9 04 32
        E 39 b9 04 43
        E 29 99 24 41
        E 21 99 33 51
        E 112 b9 04 32
        E 26 b9 04 22
        E 37 b9 04 12
        E 46 b9 04 00
        E 2 89 24 40
        E 19 89 33 40
        E 157 99 26 74
        E 31 b9 04 12
        E 8 99 33 7d
        E 12 b9 04 25
        E 10 b9 04 36
        E 10 b9 04 47
        E 2 b9 04 4c
        E 2 99 2c 1a
        E 10 b9 04 57
        E 17 b9 04 47
        E 14 b9 04 36
        E 53 b9 04 25
        E 73 89 26 40
        E 16 b9 04 15
        E 25 89 33 40
        E 36 89 2c 40
        E 26 b9 04 25
        E 35 b9 04 36
        E 29 99 24 45
        E 16 99 33 47
        E 3 b9 04 46
        E 123 b9 04 36
        E 34 b9 04 25
        E 24 b9 04 15
        E 28 b9 04 03
        E 13 b9 04 00
        E 3 89 24 40
        E 17 89 33 40
        E 152 99 24 47
        E 26 99 33 60
        E 27 b9 04 12
        E 12 b9 04 25
        E 12 b9 04 36
        E 11 b9 04 47
        E 1 b9 04 4c
        E 3 99 2c 1c
        E 7 b9 04 57
        E 14 b9 04 47
        E 13 b9 04 36
        E 62 b9 04 25
        E 58 89 24 40
        E 22 89 33 40
        E 45 b9 04 20
        E 23 89 2c 40
        E 0 b9 04 30
        E 34 b9 04 41
        E 45 99 33 4f
        E 8 b9 04 4f
        E 2 99 2c 06
        E 15 99 24 4b
        E 116 b9 04 30
        E 21 b9 04 20
        E 34 b9 04 0f
        E 34 b9 04 00
        E 12 89 33 40
        E 9 89 2c 40
        E 16 89 24 40
        E 175 99 26 74
        E 3 b9 04 12
        E 12 b9 04 25
        E 13 b9 04 36
        E 5 99 33 62
        E 2 b9 04 46
        E 2 b9 04 4c
        E 3 99 2c 20
        E 4 b9 04 56
        E 68 b9 04 46
        E 29 b9 04 36
        E 43 b9 04 25
        E 61 89 26 40
        E 11 b9 04 15
        E 18 89 33 40
        E 7 89 2c 40
        E 56 b9 04 25
        E 28 b9 04 36
        E 30 99 24 47
        E 0 b9 04 46
        E 19 b9 04 4f
        E 5 99 2c 08
        E 5 99 33 49
        E 132 b9 04 36
        E 22 b9 04 25
        E 20 b9 04 15
        E 26 b9 04 03
        E 7 b9 04 00
        E 8 89 24 40
        E 24 89 2c 40
        E 4 89 33 40
        E 123 99 24 43
        E 42 99 33 5a
        E 33 b9 04 12
        E 11 b9 04 25
        E 9 b9 04 36
        E 7 b9 04 46
        E 5 b9 04 4d
        E 2 99 2c 1a
        E 5 b9 04 56
        E 32 b9 04 46
        E 45 b9 04 36
        E 42 b9 04 25
        E 12 89 24 40
        E 38 b9 04 15
        E 5 89 33 40
        E 67 89 2c 40
        E 15 b9 04 25
        E 37 b9 04 36
        E 24 99 33 4e
        E 14 99 24 4e
        E 36 b9 04 46
        E 75 b9 04 36
        E 37 b9 04 22
        E 33 b9 04 12
        E 42 b9 04 00
        E 4 89 33 40
        E 15 89 24 40
        E 145 99 26 4e
        E 32 99 33 76
        E 11 b9 04 12
        E 17 b9 04 22
        E 8 b9 04 32
        E 5 b9 04 43
        E 4 b9 04 4d
        E 3 99 2c 2a
        E 2 b9 04 54
        E 19 b9 04 44
        E 10 b9 04 34
        E 58 b9 04 20
        E 74 89 26 40
        E 13 b9 04 0f
        E 16 89 33 40
        E 52 89 2c 40
        E 19 b9 04 20
        E 22 b9 04 30
        E 19 99 24 46
        E 17 b9 04 41
        E 29 99 33 50
        E 118 b9 04 30
        E 19 b9 04 20
        E 29 b9 04 0f
        E 28 b9 04 00
        E 1 89 24 40
        E 46 89 33 40
        E 124 99 24 47
        E 51 99 33 7f
        E 4 b9 04 12
        E 10 b9 04 22
        E 7 b9 04 32
        E 8 b9 04 43
        E 7 b9 04 4c
        E 2 99 2c 1a
        E 5 b9 04 53
        E 67 b9 04 43
        E 29 b9 04 32
        E 39 b9 04 22
        E 14 89 24 40
        E 51 89 33 40
        E 36 89 2c 40
        E 49 b9 04 32
        E 29 b9 04 43
        E 29 99 24 48
        E 5 b9 04 4f
        E 2 99 2c 08
        E 3 99 33 5a
        E 140 b9 04 32
        E 19 b9 04 22
        E 29 b9 04 12
        E 36 b9 04 00
        E 7 89 24 40
        E 8 89 2c 40
        E 2 89 33 40
        E 179 99 26 76
        E 12 b9 04 12
        E 13 99 33 7f
        E 2 b9 04 22
        E 11 b9 04 32
        E 8 b9 04 43
        E 4 b9 04 4c
        E 3 99 2c 22
        E 2 b9 04 53
        E 10 b9 04 63
        E 18 b9 04 53
        E 35 b9 04 43
        E 20 b9 04 32
        E 34 b9 04 22
        E 62 b9 04 12
        E 8 89 26 40
        E 24 89 33 40
        E 28 89 2c 40
        E 44 b9 04 22
        E 17 b9 04 32
        E 12 99 24 43
        E 15 b9 04 43
        E 22 b9 04 4f
        E 4 99 2c 08
        E 10 b9 04 53
        E 7 99 33 54
        E 99 b9 04 43
        E 32 b9 04 32
        E 16 b9 04 22
        E 27 b9 04 12
        E 10 89 24 40
        E 24 b9 04 00
        E 17 89 2c 40
        E 16 89 33 40
        E 131 99 24 4e
        E 43 99 33 7f
        E 23 b9 04 12
        E 7 b9 04 25
        E 7 b9 04 36
        E 7 b9 04 46
        E 5 b9 04 4c
        E 5 99 2c 20
        E 12 b9 04 56
        E 41 b9 04 46
        E 36 b9 04 36
        E 36 b9 04 25
        E 20 89 24 40
        E 22 b9 04 15
        E 21 89 33 40
        E 56 89 2c 40
        E 33 b9 04 25
        E 24 b9 04 36
        E 32 b9 04 46
        E 8 99 33 52
        E 4 99 24 46
        E 22 b9 04 4f
        E 3 99 2c 08
        E 106 b9 04 36
        E 29 b9 04 22
        E 29 b9 04 12
        E 36 b9 04 00
        E 12 89 33 40
        E 7 89 24 40
        E 22 89 2c 40
        E 169 99 26 59
        E 25 99 33 7f
        E 2 b9 04 12
        E 7 b9 04 25
        E 9 b9 04 36
        E 12 b9 04 46
        E 5 b9 04 4c
        E 3 99 2c 18
        E 2 b9 04 56
        E 34 b9 04 46
        E 42 b9 04 36
        E 31 b9 04 25
        E 43 b9 04 15
        E 27 89 26 40
        E 24 89 33 40
        E 38 89 2c 40
        E 61 b9 04 25
        E 17 99 24 45
        E 5 b9 04 36
        E 26 b9 04 46
        E 17 b9 04 4d
        E 3 99 2c 0a
        E 16 99 33 53
        E 134 b9 04 36
        E 26 b9 04 22
        E 17 89 24 40
        E 10 b9 04 12
        E 34 b9 04 00
        E 4 89 2c 40
        E 17 89 33 40
        E 124 99 24 45
        E 74 99 33 63
        E 5 b9 04 12
        E 8 b9 04 25
        E 7 b9 04 36
        E 16 b9 04 46
        E 8 b9 04 4c
        E 2 99 2c 10
        E 5 b9 04 56
        E 65 b9 04 46
        E 20 b9 04 36
        E 34 89 24 40
        E 4 b9 04 25
        E 34 b9 04 15
        E 34 89 33 40
        E 48 89 2c 40
        E 53 b9 04 25
        E 17 b9 04 36
        E 10 99 24 3f
        E 12 b9 04 46
        E 14 b9 04 4d
        E 3 99 2c 0c
        E 22 99 33 55
        E 2 b9 04 56
        E 104 b9 04 46
        E 26 b9 04 36
        E 27 b9 04 22
        E 29 b9 04 12
        E 3 89 24 40
        E 29 89 2c 40
        E 4 b9 04 00
        E 17 89 33 40
        E 167 99 26 65
        E 29 b9 04 12
        E 2 99 33 63
        E 15 b9 04 22
        E 10 b9 04 32
        E 7 b9 04 43
        E 2 b9 04 4c
        E 2 99 2c 26
        E 3 b9 04 53
        E 27 b9 04 43
        E 51 b9 04 32
        E 33 b9 04 22
        E 61 89 26 40
        E 12 b9 04 12
        E 21 89 33 40
        E 34 89 2c 40
        E 61 b9 04 25
        E 12 99 24 48
        E 9 b9 04 36
        E 34 b9 04 46
        E 15 99 33 4d
        E 12 b9 04 4f
        E 2 99 2c 08
        E 121 b9 04 36
        E 22 b9 04 22
        E 26 b9 04 12
        E 3 89 24 40
        E 23 b9 04 00
        E 32 89 33 40
        E 15 89 2c 40
        E 84 99 24 40
        E 73 99 33 6d
        E 26 b9 04 12
        E 10 b9 04 25
        E 9 b9 04 36
        E 11 b9 04 46
        E 4 b9 04 4c
        E 3 99 2c 14
        E 9 b9 04 56
        E 17 b9 04 46
        E 15 b9 04 36
        E 53 b9 04 25
        E 15 89 24 40
        E 43 b9 04 15
        E 29 89 33 40
        E 63 89 2c 40
        E 34 b9 04 25
        E 26 99 24 44
        E 7 b9 04 36
        E 26 99 33 5b
        E 18 b9 04 46
        E 106 b9 04 36
        E 31 b9 04 22
        E 31 b9 04 12
        E 25 89 24 40
        E 15 b9 04 00
        E 16 89 33 40
        E 179 99 26 5d
        E 17 b9 04 12
        E 8 99 33 65
        E 7 b9 04 22
        E 12 b9 04 32
        E 9 b9 04 43
        E 3 b9 04 4c
        E 2 99 2c 22
        E 2 b9 04 53
        E 25 b9 04 43
        E 51 b9 04 32
        E 50 b9 04 22
        E 56 89 26 40
        E 24 89 33 40
        E 36 89 2c 40
        E 17 b9 04 1a
        E 34 b9 04 2c
        E 7 99 24 43
        E 19 b9 04 3c
        E 39 99 33 4b
        E 2 b9 04 4c
        E 13 b9 04 4f
        E 2 99 2c 08
        E 97 b9 04 3c
        E 28 b9 04 2c
        E 25 b9 04 1a
        E 17 89 24 40
        E 7 b9 04 09
        E 14 b9 04 00
        E 40 89 33 40
        E 13 89 2c 40
        E 100 99 24 4a
        E 68 99 33 63
        E 4 b9 04 12
        E 10 b9 04 25
        E 10 b9 04 36
        E 14 b9 04 46
        E 8 b9 04 4c
        E 0 99 2c 14
        E 9 b9 04 56
        E 15 b9 04 46
        E 45 b9 04 36
        E 39 b9 04 25
        E 19 89 24 40
        E 34 b9 04 15
        E 37 89 33 40
        E 46 89 2c 40
        E 36 b9 04 25
        E 24 b9 04 36
        E 19 99 24 42
        E 10 b9 04 46
        E 17 b9 04 4f
        E 2 99 2c 0a
        E 5 99 33 55
        E 140 b9 04 36
        E 27 b9 04 25
        E 26 b9 04 15
        E 17 89 24 40
        E 15 b9 04 03
        E 10 b9 04 00
        E 1 89 2c 40
        E 11 89 33 40
        E 166 99 26 70
        E 29 99 33 5f
        E 1 b9 04 12
        E 16 b9 04 22
        E 8 b9 04 32
        E 7 b9 04 43
        E 4 b9 04 4d
        E 2 99 2c 2c
        E 3 b9 04 53
        E 22 b9 04 43
        E 10 b9 04 32
        E 58 b9 04 22
        E 82 b9 04 12
        E 2 89 26 40
        E 27 89 33 40
        E 38 89 2c 40
        E 39 b9 04 22
        E 17 99 24 47
        E 7 b9 04 32
        E 29 b9 04 43
        E 34 99 33 51
        E 116 b9 04 32
        E 19 b9 04 22
        E 27 b9 04 12
        E 13 89 24 40
        E 19 b9 04 00
        E 50 89 33 40
        E 99 99 24 46
        E 73 99 33 67
        E 4 b9 04 12
        E 9 b9 04 22
        E 5 b9 04 32
        E 11 b9 04 43
        E 7 b9 04 4c
        E 0 99 2c 1a
        E 8 b9 04 53
        E 38 b9 04 43
        E 48 b9 04 32
        E 39 89 24 40
        E 2 b9 04 22
        E 66 b9 04 12
        E 4 89 33 40
        E 39 89 2c 40
        E 24 b9 04 22
        E 22 b9 04 32
        E 21 b9 04 43
        E 15 99 24 41
        E 5 b9 04 4f
        E 2 99 2c 0a
        E 7 b9 04 53
        E 3 99 33 4f
        E 142 b9 04 43
        E 25 b9 04 32
        E 16 b9 04 22
        E 30 b9 04 12
        E 14 89 24 40
        E 9 89 2c 40
        E 10 89 33 40
        E 0 b9 04 00
        E 196 99 26 63
        E 7 b9 04 12
        E 2 99 33 5e
        E 11 b9 04 22
        E 7 b9 04 32
        E 5 b9 04 44
        E 4 b9 04 4c
        E 3 99 2c 2a
        E 2 b9 04 55
        E 10 b9 04 65
        E 21 b9 04 55
        E 42 b9 04 44
        E 24 b9 04 34
        E 41 b9 04 22
        E 62 89 26 40
        E 10 89 33 40
        E 29 89 2c 40
        E 28 b9 04 18
        E 35 b9 04 29
        E 17 99 24 49
        E 5 b9 04 3a
        E 26 b9 04 4a
        E 10 b9 04 4f
        E 3 99 2c 0a
        E 21 99 33 48
        E 116 b9 04 3a
        E 24 b9 04 29
        E 20 b9 04 18
        E 16 89 24 40
        E 11 b9 04 06
        E 14 b9 04 00
        E 19 89 2c 40
        E 22 89 33 40
        E 116 99 24 4a
        E 46 99 33 6d
        E 14 b9 04 12
        E 12 b9 04 25
        E 10 b9 04 36
        E 10 b9 04 46
        E 4 b9 04 4c
        E 3 99 2c 1a
        E 4 b9 04 56
        E 34 b9 04 46
        E 49 b9 04 36
        E 51 b9 04 25
        E 4 89 24 40
        E 46 b9 04 15
        E 2 89 33 40
        E 51 89 2c 40
        E 25 b9 04 25
        E 26 b9 04 36
        E 29 b9 04 46
        E 17 99 24 48
        E 5 b9 04 4f
        E 2 99 2c 0a
        E 12 99 33 53
        E 116 b9 04 36
        E 24 b9 04 25
        E 25 b9 04 15
        E 31 b9 04 03
        E 7 b9 04 00
        E 19 89 24 40
        E 8 89 2c 40
        E 15 89 33 40
        E 188 99 26 50
        E 10 b9 04 12
        E 7 b9 04 22
        E 5 99 33 6a
        E 2 b9 04 32
        E 7 b9 04 43
        E 10 b9 04 4c
        E 2 99 2c 1a
        E 7 b9 04 53
        E 13 b9 04 63
        E 29 b9 04 53
        E 36 b9 04 43
        E 29 b9 04 32
        E 29 b9 04 22
        E 46 b9 04 12
        E 12 89 26 40
        E 21 89 33 40
        E 20 89 2c 40
        E 63 b9 04 22
        E 19 99 24 48
        E 3 b9 04 32
        E 22 b9 04 43
        E 26 99 33 48
        E 5 b9 04 4d
        E 2 99 2c 08
        E 118 b9 04 32
        E 17 b9 04 22
        E 25 b9 04 12
        E 24 89 24 40
        E 5 b9 04 00
        E 45 89 33 40
        E 8 89 2c 40
        E 128 99 24 49
        E 21 99 33 65
        E 25 b9 04 12
        E 7 b9 04 25
        E 7 b9 04 36
        E 10 b9 04 46
        E 5 b9 04 4c
        E 2 99 2c 1c
        E 10 b9 04 56
        E 34 b9 04 46
        E 46 b9 04 36
        E 47 b9 04 25
        E 27 89 24 40
        E 22 89 33 40
        E 5 b9 04 15
        E 51 89 2c 40
        E 33 b9 04 25
        E 27 b9 04 36
        E 27 b9 04 46
        E 18 99 33 4f
        E 4 b9 04 4f
        E 2 99 2c 08
        E 9 99 24 43
        E 22 b9 04 56
        E 83 b9 04 46
        E 33 b9 04 36
        E 26 b9 04 22
        E 30 b9 04 12
        E 31 b9 04 00
        E 5 89 33 40
        E 3 89 2c 40
        E 8 89 24 40
        E 136 99 26 62
        E 32 99 33 77
        E 26 b9 04 12
        E 13 b9 04 25
        E 9 b9 04 36
        E 9 b9 04 46
        E 3 b9 04 4c
        E 3 99 2c 1e
        E 2 b9 04 56
        E 34 b9 04 46
        E 43 b9 04 36
        E 35 b9 04 25
        E 36 89 26 40
        E 13 b9 04 15
        E 18 89 33 40
        E 60 89 2c 40
        E 39 b9 04 25
        E 29 99 24 45
        E 2 b9 04 36
        E 12 99 33 4c
        E 19 b9 04 46
        E 124 b9 04 36
        E 24 b9 04 25
        E 20 b9 04 15
        E 31 b9 04 03
        E 4 b9 04 00
        E 6 89 24 40
        E 14 89 33 40
        E 147 99 24 43
        E 32 99 33 5c
        E 24 b9 04 12
        E 10 b9 04 22
        E 5 b9 04 32
        E 7 b9 04 43
        E 11 b9 04 4c
        E 3 99 2c 1c
        E 7 b9 04 53
        E 63 b9 04 43
        E 36 b9 04 32
        E 39 b9 04 22
        E 5 89 24 40
        E 34 89 33 40
        E 58 89 2c 40
        E 41 b9 04 32
        E 32 b9 04 43
        E 18 99 33 4d
        E 27 99 24 47
        E 5 b9 04 4f
        E 3 99 2c 06
        E 104 b9 04 32
        E 19 b9 04 22
        E 24 b9 04 12
        E 31 b9 04 00
        E 29 89 33 40
        E 26 89 24 40
        E 10 89 2c 40
        E 162 b9 04 12
        E 3 99 26 76
        E 7 b9 04 25
        E 9 99 33 67
        E 3 b9 04 36
        E 7 b9 04 46
        E 5 b9 04 4c
        E 3 99 2c 1a
        E 4 b9 04 56
        E 12 b9 04 66
        E 22 b9 04 56
        E 49 b9 04 46
        E 40 b9 04 36
        E 42 b9 04 25
        E 41 89 26 40
        E 17 89 33 40
        E 14 89 2c 40
        E 51 b9 04 1a
        E 34 99 24 40
        E 2 b9 04 2c
        E 22 b9 04 3c
        E 24 b9 04 4c
        E 5 b9 04 4f
        E 2 99 2c 0c
        E 22 99 33 37
        E 123 b9 04 3c
        E 27 b9 04 2c
        E 14 89 24 40
        E 10 b9 04 1a
        E 29 b9 04 09
        E 17 b9 04 00
        E 2 89 2c 40
        E 19 89 33 40
        E 73 99 24 32
        E 102 b9 04 12
        E 14 99 33 45
        E 0 b9 04 22
        E 9 b9 04 32
        E 8 b9 04 43
        E 5 b9 04 4d
        E 2 99 2c 1c
        E 3 b9 04 53
        E 26 b9 04 63
        E 72 b9 04 53
        E 3 89 24 40
        E 29 b9 04 43
        E 39 b9 04 32
        E 46 b9 04 22
        E 2 89 33 40
        E 27 89 2c 40
        E 67 99 33 45
        E 8 b9 04 32
        E 31 b9 04 43
        E 26 b9 04 4f
        E 3 99 2c 0a
        E 9 b9 04 53
        E 165 89 33 40
        E 31 b9 04 43
        E 36 89 2c 40
        E 12 b9 04 32
        E 42 b9 04 22
        E 17 99 26 7a
        E 29 99 33 58
        E 97 b9 04 18
        E 67 b9 04 29
        E 21 b9 04 3a
        E 27 89 26 40
        E 29 89 33 40
        E 135 99 33 40
        E 58 b9 04 43
        E 61 b9 04 32
        E 36 b9 04 22
        E 41 b9 04 12
        E 46 89 33 40
        E 5 b9 04 00
        E 118 99 24 2f
        E 43 b9 04 12
        E 15 99 33 59
        E 4 b9 04 22
        E 8 b9 04 32
        E 13 b9 04 43
        E 31 b9 04 32
        E 126 b9 04 25
        E 1 89 24 40
        E 63 89 33 40
        E 37 b9 04 36
        E 36 b9 04 46
        E 17 b9 04 4c
        E 2 99 2c 08
        E 56 99 33 43
        E 7 99 24 3c
        E 107 b9 04 36
        E 40 b9 04 25
        E 32 b9 04 15
        E 3 89 2c 40
        E 40 b9 04 03
        E 8 b9 04 00
        E 7 89 33 40
        E 7 89 24 40
        E 157 99 26 71
        E 33 99 33 5d
        E 3 b9 04 12
        E 12 b9 04 22
        E 8 b9 04 32
        E 9 b9 04 43
        E 3 b9 04 4c
        E 2 99 2c 1e
        E 8 b9 04 53
        E 12 b9 04 43
        E 11 b9 04 32
        E 52 b9 04 20
        E 89 89 26 40
        E 33 89 33 40
        E 20 b9 04 1a
        E 19 89 2c 40
        E 25 b9 04 2c
        E 57 99 33 3d
        E 78 b9 04 34
        E 48 b9 04 20
        E 43 b9 04 0f
        E 34 b9 04 00
        E 39 89 33 40
        E 118 99 24 35
        E 54 99 33 4f
        E 2 b9 04 12
        E 15 b9 04 25
        E 9 b9 04 36
        E 10 b9 04 47
        E 3 b9 04 4c
        E 2 99 2c 1e
        E 67 b9 04 36
        E 63 b9 04 25
        E 17 89 24 40
        E 59 89 33 40
        E 36 89 2c 40
        E 43 b9 04 36
        E 38 b9 04 46
        E 15 99 33 38
        E 4 99 24 3a
        E 13 b9 04 4f
        E 2 99 2c 06
        E 136 b9 04 36
        E 31 b9 04 22
        E 36 b9 04 12
        E 22 89 33 40
        E 4 89 24 40
        E 16 89 2c 40
        E 6 b9 04 00
        E 141 99 26 46
        E 11 99 33 56
        E 49 b9 04 12
        E 17 b9 04 22
        E 9 b9 04 32
        E 8 b9 04 44
        E 5 b9 04 4c
        E 0 99 2c 24
        E 24 b9 04 34
        E 12 b9 04 22
        E 57 b9 04 12
        E 51 89 26 40
        E 13 89 33 40
        E 85 b9 04 22
        E 2 89 2c 40
        E 46 99 33 3b
        E 79 b9 04 29
        E 37 b9 04 18
        E 33 b9 04 06
        E 15 b9 04 00
        E 79 89 33 40
        E 120 99 24 3f
        E 33 b9 04 12
        E 10 99 33 4e
        E 9 b9 04 22
        E 10 b9 04 32
        E 33 b9 04 20
        E 131 b9 04 12
        E 17 89 24 40
        E 43 89 33 40
        E 61 b9 04 22
        E 26 b9 04 32
        E 32 b9 04 43
        E 16 99 33 39
        E 13 b9 04 4c
        E 2 99 2c 08
        E 119 b9 04 32
        E 22 b9 04 22
        E 28 b9 04 12
        E 39 b9 04 00
        E 19 89 33 40
        E 15 89 2c 40
        E 186 99 26 52
        E 9 99 33 5d
        E 12 b9 04 12
        E 17 b9 04 22
        E 8 b9 04 32
        E 10 b9 04 43
        E 2 b9 04 4c
        E 2 99 2c 24
        E 3 b9 04 53
        E 19 b9 04 43
        E 10 b9 04 32
        E 53 b9 04 22
        E 83 b9 04 12
        E 13 89 26 40
        E 10 89 33 40
        E 51 89 2c 40
        E 31 b9 04 22
        E 27 b9 04 32
        E 35 b9 04 43
        E 18 99 33 3b
        E 167 b9 04 32
        E 41 b9 04 22
        E 34 89 33 40
        E 38 b9 04 12
        E 168 99 33 41
        E 28 b9 04 25
        E 22 b9 04 36
        E 24 b9 04 46
        E 15 b9 04 4d
        E 2 99 2c 0a
        E 77 b9 04 36
        E 55 b9 04 25
        E 18 89 33 40
        E 91 99 33 35
        E 3 89 2c 40
        E 19 b9 04 1d
        E 133 b9 04 2e
        E 89 89 33 40
        E 126 99 26 3e
        E 24 b9 04 20
        E 15 99 33 4f
        E 202 89 26 40
        E 42 89 33 40
        E 2 b9 04 25
        E 128 99 33 2c
        E 187 b9 04 30
        E 55 89 33 40
        E 217 99 33 3f
        E 244 89 33 40
        E 19 b9 04 36
        E 104 99 33 29
        E 244 89 33 40
        E 228 99 33 3b
        E 241 89 33 40
        E 165 99 33 30
        E 241 89 33 40
        E 189 99 33 2b
        E 241 89 33 40
        E 169 99 33 32
        E 242 89 33 40
        E 130 99 33 28
        E 158 b9 04 2c
        E 84 89 33 40
        E 152 b9 04 20
        E 63 99 33 3d
        E 128 b9 04 18
        E 116 89 33 40
        E 152 99 33 21
        E 227 b9 04 12
        E 17 89 33 40
        E 225 99 33 40
        E 87 b9 04 09
        E 154 89 33 40
        E 191 99 33 1a
        E 241 89 33 40
        E 201 99 33 38
        E 241 89 33 40
        E 175 99 33 17
        E 241 89 33 40
        E 254 99 33 17
        E 242 89 33 40
        E 176 99 33 15
        E 242 89 33 40
        E 241 99 33 1e
        E 242 89 33 40
        E 198 99 33 14
        E 242 89 33 40
        E 183 99 33 2c
        E 242 89 33 40
        E 193 99 33 0f
        E 242 89 33 40
        E 203 99 33 34
        E 241 89 33 40
        E 184 99 33 15
        E 241 89 33 40
        E 220 99 33 3d
        E 242 89 33 40
        E 179 99 33 12
        E 241 89 33 40
        E 193 99 33 34
        E 242 89 33 40
        E 162 99 33 0d
        E 242 89 33 40
        E 244 99 33 34
        E 241 89 33 40
        E 177 99 33 17
        E 241 89 33 40
        E 232 99 33 38
        E 241 89 33 40
        E 204 99 33 07
        E 241 89 33 40
        E 225 99 33 38
        E 242 89 33 40
        E 691 99 33 41
        E 241 89 33 40
        E 169 99 33 19
        E 160 b9 04 0f
        E 82 89 33 40
        E 222 99 33 40
        E 242 89 33 40
        E 195 99 33 16
        E 242 89 33 40
        E 213 99 33 42
        E 241 89 33 40
        E 189 99 33 19
        E 244 89 33 40
        E 210 99 33 46
        E 242 89 33 40
        E 177 99 33 21
        E 243 89 33 40
        E 249 99 33 42
        E 241 89 33 40
        E 167 99 33 21
        E 34 b9 04 18
        E 210 89 33 40
        E 232 99 33 42
        E 186 b9 04 25
        E 56 89 33 40
        E 149 b9 04 2e
        E 39 99 33 1c
        E 242 89 33 40
        E 282 99 33 49
        E 242 89 33 40
        E 188 b9 04 32
        E 15 99 33 1f
        E 222 b9 04 27
        E 19 89 33 40
        E 133 b9 04 20
        E 95 99 33 47
        E 241 89 33 40
        E 184 99 33 23
        E 242 89 33 40
        E 258 99 24 66
        E 53 99 33 60
        E 191 89 24 40
        E 51 89 33 40
        E 570 99 33 6d
        E 242 89 33 40
        E 51 b9 04 1a
        E 204 99 26 5b
        E 32 b9 04 12
        E 212 89 26 40
        E 47 b9 04 09
        E 362 b9 04 00
        E 16480 99 26 22
        E 127 89 26 40
        E 3 99 26 4d
        E 239 89 26 40
        E 510 99 24 7b
        E 19 99 33 54
        E 223 89 24 40
        E 21 89 33 40
        E 497 99 24 46
        E 42 99 33 56
        E 202 89 24 40
        E 42 89 33 40
        E 212 99 26 72
        E 244 89 26 40
        E 205 99 33 38
        E 244 89 33 40
        E 564 99 24 7f
        E 29 99 33 43
        E 215 89 24 40
        E 26 89 33 40
        E 534 99 33 39
        E 244 89 33 40
        E 211 99 26 65
        E 244 89 26 40
        E 195 99 33 32
        E 242 89 33 40
        E 548 99 24 79
        E 22 99 33 38
        E 220 89 24 40
        E 22 89 33 40
        E 485 99 26 79
        E 32 99 33 4c
        E 210 89 26 40
        E 33 89 33 40
        E 581 99 24 7b
        E 33 99 33 3f
        E 208 89 24 40
        E 34 89 33 40
        E 434 99 24 54
        E 73 99 33 38
        E 172 89 24 40
        E 69 89 33 40
        E 198 99 28 63
        E 242 89 28 40
        E 160 99 33 35
        E 242 89 33 40
        E 533 99 24 7f
        E 37 99 33 3e
        E 205 89 24 40
        E 36 89 33 40
        E 560 99 33 26
        E 242 89 33 40
        E 213 99 26 76
        E 242 89 26 40
        E 193 99 33 32
        E 244 89 33 40
        E 519 99 24 7b
        E 53 99 33 41
        E 189 89 24 40
        E 56 89 33 40
        E 493 99 28 53
        E 45 99 33 48
        E 196 89 28 40
        E 48 89 33 40
        E 549 99 24 66
        E 19 99 33 39
        E 222 89 24 40
        E 19 89 33 40
        E 501 99 24 57
        E 43 99 33 3f
        E 198 89 24 40
        E 44 89 33 40
        E 210 99 26 78
        E 242 89 26 40
        E 168 99 33 32
        E 242 89 33 40
        E 614 99 24 7d
        E 41 99 33 4c
        E 201 89 24 40
        E 40 89 33 40
        E 547 99 33 3f
        E 241 89 33 40
        E 203 99 26 68
        E 244 89 26 40
        E 179 99 33 31
        E 242 89 33 40
        E 548 99 24 7f
        E 36 99 33 41
        E 206 89 24 40
        E 38 89 33 40
        E 522 99 28 7e
        E 65 99 33 7f
        E 177 89 28 40
        E 65 89 33 40
        E 505 99 24 74
        E 72 99 33 42
        E 170 89 24 40
        E 74 89 33 40
        E 517 99 24 5d
        E 41 99 33 47
        E 201 89 24 40
        E 43 89 33 40
        E 198 99 28 39
        E 8 99 26 7c
        E 237 89 28 40
        E 7 89 26 40
        E 137 99 33 41
        E 245 89 33 40
        E 698 99 24 7f
        E 36 99 33 7f
        E 206 89 24 40
        E 36 89 33 40
        E 613 99 33 44
        E 241 89 33 40
        E 221 99 26 7f
        E 242 89 26 40
        E 193 99 33 51
        E 241 89 33 40
        E 555 99 24 7f
        E 71 99 33 7f
        E 173 89 24 40
        E 71 89 33 40
        E 498 99 28 62
        E 53 99 33 7f
        E 188 89 28 40
        E 53 89 33 40
        E 554 99 24 7a
        E 53 99 33 7f
        E 188 89 24 40
        E 54 89 33 40
        E 519 99 24 64
        E 57 99 33 57
        E 184 89 24 40
        E 58 89 33 40
        E 186 99 28 56
        E 242 89 28 40
        E 128 99 33 65
        E 244 89 33 40
        E 638 99 24 7f
        E 36 99 33 7f
        E 206 89 24 40
        E 36 89 33 40
        E 596 99 33 7f
        E 242 89 33 40
        E 191 99 28 68
        E 242 89 28 40
        E 203 99 33 5d
        E 241 89 33 40
        E 476 99 24 7f
        E 70 99 33 7f
        E 174 89 24 40
        E 70 89 33 40
        E 508 99 28 5d
        E 45 99 3b 7f
        E 196 89 28 40
        E 49 89 3b 40
        E 534 99 24 7a
        E 43 99 33 6d
        E 197 89 24 40
        E 44 89 33 40
        E 534 99 24 5c
        E 32 99 33 7f
        E 210 89 24 40
        E 32 89 33 40
        E 166 99 30 1e
        E 41 99 28 45
        E 203 89 30 40
        E 39 89 28 40
        E 146 99 33 3f
        E 243 89 33 40
        E 495 99 24 7f
        E 48 99 33 7f
        E 194 89 24 40
        E 48 89 33 40
        E 580 99 33 7f
        E 242 89 33 40
        E 206 99 28 63
        E 243 89 28 40
        E 172 99 33 3c
        E 241 89 33 40
        E 500 99 24 7e
        E 48 99 33 7f
        E 196 89 24 40
        E 46 89 33 40
        E 586 99 28 51
        E 15 99 33 7f
        E 230 89 28 40
        E 12 89 33 40
        E 575 99 24 7f
        E 34 99 33 7f
        E 210 89 24 40
        E 34 89 33 40
        E 507 99 24 5c
        E 78 99 33 7f
        E 164 89 24 40
        E 79 89 33 40
        E 174 99 26 7f
        E 242 89 26 40
        E 189 99 33 35
        E 241 89 33 40
        E 499 99 24 7f
        E 59 99 33 48
        E 184 89 24 40
        E 58 89 33 40
        E 508 99 33 46
        E 243 89 33 40
        E 193 99 28 60
        E 242 89 28 40
        E 140 99 33 4c
        E 242 89 33 40
        E 152 99 24 30
        E 242 89 24 40
        E 191 99 26 6f
        E 104 99 28 6f
        E 140 89 26 40
        E 101 89 28 40
        E 58 99 24 46
        E 242 89 24 40
        E 169 99 26 61
        E 104 89 26 40
        E 2 99 26 7d
        E 242 89 26 40
        E 490 99 24 6f
        E 19 b9 04 12
        E 10 b9 04 22
        E 7 b9 04 32
        E 14 b9 04 43
        E 47 99 33 7f
        E 140 b9 04 32
        E 10 89 24 40
        E 91 89 33 40
        E 82 b9 04 38
        E 29 99 24 48
        E 24 99 33 3b
        E 13 b9 04 27
        E 43 b9 04 15
        E 41 b9 04 03
        E 8 b9 04 00
        E 113 89 24 40
        E 24 89 33 40
        E 143 b9 04 12
        E 17 b9 04 22
        E 6 99 26 7f
        E 6 b9 04 32
        E 9 b9 04 43
        E 5 b9 04 4d
        E 3 99 2c 1a
        E 2 b9 04 54
        E 15 b9 04 64
        E 17 99 33 75
        E 23 b9 04 54
        E 28 b9 04 44
        E 18 b9 04 34
        E 25 b9 04 22
        E 36 b9 04 12
        E 56 89 26 40
        E 24 89 2c 40
        E 31 89 33 40
        E 34 b9 04 22
        E 22 b9 04 32
        E 65 99 24 58
        E 12 99 33 26
        E 77 b9 04 22
        E 29 b9 04 12
        E 37 b9 04 00
        E 86 89 24 40
        E 13 89 33 40
        E 116 99 24 36
        E 48 b9 04 12
        E 12 b9 04 22
        E 9 99 33 5f
        E 5 b9 04 32
        E 13 b9 04 44
        E 4 b9 04 4c
        E 3 99 2c 24
        E 2 b9 04 55
        E 19 b9 04 44
        E 8 b9 04 34
        E 33 b9 04 22
        E 46 b9 04 12
        E 39 89 24 40
        E 73 89 33 40
        E 16 b9 04 25
        E 8 89 2c 40
        E 14 b9 04 36
        E 27 b9 04 46
        E 82 99 24 4a
        E 7 99 33 26
        E 34 b9 04 36
        E 39 b9 04 25
        E 29 b9 04 15
        E 38 b9 04 03
        E 13 b9 04 00
        E 81 89 24 40
        E 8 89 33 40
        E 178 b9 04 12
        E 3 99 26 7f
        E 7 b9 04 25
        E 9 b9 04 36
        E 23 b9 04 46
        E 4 b9 04 4c
        E 3 99 2c 14
        E 2 99 33 7f
        E 3 b9 04 56
        E 7 b9 04 66
        E 17 b9 04 56
        E 10 b9 04 46
        E 39 b9 04 36
        E 21 b9 04 25
        E 43 b9 04 15
        E 56 89 26 40
        E 44 89 2c 40
        E 4 89 33 40
        E 46 b9 04 25
        E 22 b9 04 36
        E 31 b9 04 46
        E 8 99 24 4b
        E 58 99 33 23
        E 58 b9 04 36
        E 33 b9 04 25
        E 29 b9 04 15
        E 34 b9 04 03
        E 12 b9 04 00
        E 17 89 24 40
        E 61 89 33 40
        E 108 99 24 3d
        E 51 b9 04 12
        E 15 b9 04 25
        E 24 b9 04 36
        E 9 99 33 56
        E 3 b9 04 46
        E 2 b9 04 4c
        E 3 99 2c 20
        E 2 b9 04 56
        E 26 b9 04 46
        E 42 b9 04 36
        E 24 b9 04 25
        E 39 b9 04 15
        E 1 89 24 40
        E 102 89 33 40
        E 8 89 2c 40
        E 19 b9 04 25
        E 24 b9 04 36
        E 24 b9 04 46
        E 32 b9 04 4f
        E 2 99 2c 0a
        E 7 99 24 45
        E 54 99 33 2d
        E 34 b9 04 36
        E 28 b9 04 25
        E 27 b9 04 15
        E 31 b9 04 03
        E 10 b9 04 00
        E 51 89 2c 40
        E 7 89 24 40
        E 53 89 33 40
        E 162 b9 04 12
        E 7 99 26 7f
        E 5 b9 04 25
        E 7 b9 04 36
        E 22 b9 04 46
        E 5 b9 04 4c
        E 2 99 2c 12
        E 5 b9 04 56
        E 9 b9 04 66
        E 13 99 33 7f
        E 5 b9 04 55
        E 9 b9 04 44
        E 39 b9 04 34
        E 26 b9 04 22
        E 44 b9 04 12
        E 53 89 26 40
        E 42 89 2c 40
        E 26 89 33 40
        E 36 b9 04 22
        E 15 b9 04 32
        E 12 99 24 4a
        E 14 b9 04 43
        E 37 b9 04 4d
        E 2 99 2c 06
        E 41 99 33 2f
        E 63 b9 04 32
        E 24 b9 04 22
        E 31 b9 04 12
        E 29 89 24 40
        E 10 b9 04 00
        E 43 89 2c 40
        E 41 89 33 40
        E 104 99 24 41
        E 57 b9 04 12
        E 10 b9 04 25
        E 20 b9 04 36
        E 5 99 33 72
        E 7 b9 04 46
        E 3 b9 04 4c
        E 2 99 2c 1e
        E 3 b9 04 56
        E 31 b9 04 46
        E 36 b9 04 36
        E 22 b9 04 25
        E 27 b9 04 15
        E 19 89 24 40
        E 92 89 33 40
        E 14 89 2c 40
        E 12 b9 04 25
        E 20 b9 04 36
        E 26 b9 04 46
        E 22 b9 04 4f
        E 3 99 2c 0c
        E 9 99 24 43
        E 37 99 33 2d
        E 69 b9 04 36
        E 27 b9 04 25
        E 24 b9 04 15
        E 29 b9 04 03
        E 10 b9 04 00
        E 39 89 2c 40
        E 7 89 24 40
        E 36 89 33 40
        E 157 99 26 7f
        E 5 b9 04 12
        E 10 b9 04 22
        E 9 b9 04 32
        E 17 b9 04 43
        E 5 b9 04 4c
        E 2 99 2c 16
        E 5 b9 04 53
        E 2 99 33 7f
        E 8 b9 04 64
        E 27 b9 04 54
        E 33 b9 04 44
        E 20 b9 04 34
        E 24 b9 04 20
        E 46 b9 04 0f
        E 29 89 26 40
        E 50 89 2c 40
        E 5 89 33 40
        E 58 b9 04 20
        E 12 b9 04 30
        E 8 99 24 46
        E 19 b9 04 41
        E 36 b9 04 4d
        E 3 99 2c 08
        E 4 99 33 39
        E 87 b9 04 30
        E 20 b9 04 20
        E 26 b9 04 0f
        E 24 b9 04 00
        E 22 89 24 40
        E 60 89 2c 40
        E 3 89 33 40
        E 130 99 24 4a
        E 37 b9 04 12
        E 9 b9 04 25
        E 10 b9 04 36
        E 17 b9 04 46
        E 7 99 33 73
        E 3 b9 04 4c
        E 2 99 2c 12
        E 5 b9 04 56
        E 18 b9 04 46
        E 32 b9 04 36
        E 30 b9 04 25
        E 31 b9 04 15
        E 41 89 24 40
        E 82 89 33 40
        E 3 89 2c 40
        E 5 b9 04 25
        E 19 b9 04 36
        E 24 b9 04 46
        E 24 b9 04 4f
        E 2 99 2c 0a
        E 29 99 24 42
        E 41 99 33 44
        E 46 b9 04 36
        E 32 b9 04 25
        E 24 b9 04 15
        E 31 b9 04 03
        E 9 b9 04 00
        E 32 89 2c 40
        E 29 89 24 40
        E 44 89 33 40
        E 138 b9 04 12
        E 9 b9 04 22
        E 5 b9 04 32
        E 7 b9 04 43
        E 13 99 26 7f
        E 2 b9 04 4c
        E 2 99 2c 1a
        E 8 b9 04 53
        E 12 b9 04 64
        E 19 99 33 7e
        E 10 b9 04 54
        E 36 b9 04 44
        E 19 b9 04 34
        E 29 b9 04 20
        E 44 b9 04 0f
        E 60 89 26 40
        E 4 89 2c 40
        E 40 89 33 40
        E 45 b9 04 20
        E 15 b9 04 30
        E 19 b9 04 41
        E 12 99 24 4a
        E 22 b9 04 4d
        E 2 99 2c 0c
        E 42 99 33 33
        E 72 b9 04 30
        E 22 b9 04 20
        E 26 b9 04 0f
        E 22 b9 04 00
        E 34 89 24 40
        E 26 89 2c 40
        E 39 89 33 40
        E 119 99 24 41
        E 36 b9 04 12
        E 7 b9 04 27
        E 7 b9 04 38
        E 15 b9 04 49
        E 7 b9 04 4c
        E 3 99 2c 1e
        E 4 99 33 64
        E 5 b9 04 5a
        E 56 b9 04 4a
        E 22 b9 04 3a
        E 26 b9 04 29
        E 29 b9 04 18
        E 24 89 24 40
        E 29 b9 04 06
        E 46 89 2c 40
        E 4 89 33 40
        E 40 b9 04 18
        E 16 b9 04 29
        E 22 b9 04 3a
        E 29 b9 04 4a
        E 8 b9 04 4d
        E 2 99 2c 0c
        E 19 99 24 45
        E 22 99 33 37
        E 65 b9 04 3a
        E 32 b9 04 29
        E 24 b9 04 18
        E 26 b9 04 06
        E 15 b9 04 00
        E 38 89 2c 40
        E 20 89 24 40
        E 22 89 33 40
        E 166 b9 04 12
        E 8 b9 04 22
        E 4 b9 04 34
        E 10 b9 04 44
        E 10 99 26 7f
        E 7 b9 04 4c
        E 2 99 2c 1c
        E 5 b9 04 54
        E 7 99 33 77
        E 3 b9 04 64
        E 26 b9 04 54
        E 37 b9 04 44
        E 19 b9 04 34
        E 29 b9 04 20
        E 41 b9 04 0f
        E 65 89 26 40
        E 10 89 2c 40
        E 11 89 33 40
        E 57 b9 04 20
        E 14 b9 04 30
        E 19 b9 04 41
        E 5 99 24 49
        E 25 b9 04 4d
        E 2 99 2c 0a
        E 53 99 33 3f
        E 65 b9 04 30
        E 17 b9 04 20
        E 29 b9 04 0f
        E 27 b9 04 00
        E 26 89 24 40
        E 25 89 2c 40
        E 52 89 33 40
        E 83 99 24 3e
        E 58 b9 04 12
        E 9 b9 04 25
        E 7 b9 04 36
        E 15 b9 04 46
        E 10 b9 04 4c
        E 2 99 2c 14
        E 2 99 33 78
        E 3 b9 04 56
        E 53 b9 04 46
        E 24 b9 04 36
        E 29 b9 04 25
        E 29 b9 04 15
        E 2 89 24 40
        E 102 89 2c 40
        E 5 89 33 40
        E 39 b9 04 25
        E 16 b9 04 36
        E 24 b9 04 46
        E 15 b9 04 4d
        E 3 99 2c 0a
        E 19 99 24 46
        E 48 99 33 41
        E 49 b9 04 36
        E 26 b9 04 22
        E 24 b9 04 12
        E 34 b9 04 00
        E 41 89 2c 40
        E 19 89 24 40
        E 49 89 33 40
        E 157 b9 04 12
        E 7 b9 04 22
        E 5 b9 04 32
        E 5 99 26 7f
        E 2 b9 04 43
        E 5 b9 04 4c
        E 2 99 2c 28
        E 20 b9 04 53
        E 11 b9 04 64
        E 11 99 33 7f
        E 26 b9 04 54
        E 37 b9 04 44
        E 24 b9 04 34
        E 23 b9 04 22
        E 37 b9 04 12
        E 46 89 26 40
        E 7 89 2c 40
        E 44 89 33 40
        E 55 b9 04 22
        E 12 b9 04 32
        E 7 99 24 47
        E 10 b9 04 43
        E 27 b9 04 4d
        E 2 99 2c 10
        E 11 b9 04 53
        E 27 99 33 3d
        E 59 b9 04 43
        E 26 b9 04 32
        E 20 b9 04 22
        E 23 b9 04 12
        E 27 b9 04 00
        E 10 89 24 40
        E 38 89 2c 40
        E 42 89 33 40
        E 140 99 24 45
        E 31 b9 04 12
        E 8 b9 04 25
        E 4 b9 04 36
        E 10 b9 04 46
        E 22 b9 04 4c
        E 3 99 2c 1e
        E 4 99 33 6a
        E 0 b9 04 57
        E 12 b9 04 67
        E 17 b9 04 57
        E 36 b9 04 47
        E 20 b9 04 36
        E 29 b9 04 25
        E 29 b9 04 15
        E 19 89 24 40
        E 75 89 2c 40
        E 5 89 33 40
        E 43 b9 04 25
        E 12 b9 04 36
        E 14 b9 04 46
        E 13 b9 04 4d
        E 2 99 2c 10
        E 17 b9 04 56
        E 50 99 24 47
        E 8 99 33 40
        E 55 b9 04 46
        E 29 b9 04 36
        E 25 b9 04 22
        E 27 b9 04 12
        E 28 b9 04 00
        E 5 89 2c 40
        E 65 89 24 40
        E 7 89 33 40
        E 189 b9 04 12
        E 8 b9 04 27
        E 4 b9 04 38
        E 5 99 26 69
        E 2 b9 04 4c
        E 3 99 2c 34
        E 2 b9 04 4c
        E 27 b9 04 5c
        E 7 99 33 76
        E 2 b9 04 6c
        E 44 b9 04 5c
        E 26 b9 04 4c
        E 22 b9 04 3c
        E 22 b9 04 2c
        E 20 b9 04 1a
        E 48 b9 04 09
        E 17 89 26 40
        E 5 89 2c 40
        E 38 89 33 40
        E 54 b9 04 1a
        E 16 b9 04 2c
        E 12 b9 04 3c
        E 18 b9 04 4c
        E 2 b9 04 4d
        E 2 99 2c 12
        E 7 99 24 4c
        E 56 99 33 38
        E 92 b9 04 3c
        E 21 b9 04 2c
        E 22 b9 04 1a
        E 24 b9 04 09
        E 17 b9 04 00
        E 2 89 2c 40
        E 8 89 24 40
        E 58 89 33 40
        E 147 99 24 47
        E 19 b9 04 12
        E 5 b9 04 25
        E 10 b9 04 36
        E 15 b9 04 46
        E 7 b9 04 4c
        E 2 99 2c 14
        E 8 b9 04 56
        E 2 99 33 6d
        E 7 b9 04 66
        E 27 b9 04 56
        E 38 b9 04 46
        E 22 b9 04 36
        E 27 b9 04 25
        E 24 b9 04 15
        E 29 89 24 40
        E 46 b9 04 03
        E 12 89 2c 40
        E 9 89 33 40
        E 42 b9 04 15
        E 19 b9 04 25
        E 14 b9 04 36
        E 20 b9 04 46
        E 12 b9 04 4d
        E 2 99 2c 0e
        E 19 b9 04 56
        E 22 99 24 45
        E 15 99 33 48
        E 65 b9 04 46
        E 32 b9 04 36
        E 21 b9 04 25
        E 22 b9 04 15
        E 31 b9 04 03
        E 10 b9 04 00
        E 5 89 2c 40
        E 43 89 24 40
        E 12 89 33 40
        E 162 b9 04 12
        E 12 b9 04 25
        E 10 99 26 66
        E 3 b9 04 36
        E 14 b9 04 46
        E 4 b9 04 4c
        E 2 99 2c 16
        E 6 b9 04 56
        E 10 b9 04 66
        E 4 99 33 6d
        E 18 b9 04 56
        E 43 b9 04 46
        E 24 b9 04 36
        E 34 b9 04 25
        E 31 b9 04 15
        E 50 89 26 40
        E 25 89 2c 40
        E 17 89 33 40
        E 62 b9 04 25
        E 15 b9 04 36
        E 15 99 24 49
        E 3 b9 04 46
        E 17 b9 04 4d
        E 2 99 2c 0e
        E 23 b9 04 56
        E 29 99 33 3a
        E 61 b9 04 46
        E 32 b9 04 36
        E 22 b9 04 25
        E 21 b9 04 15
        E 29 b9 04 03
        E 5 89 24 40
        E 5 b9 04 00
        E 19 89 2c 40
        E 48 89 33 40
        E 121 99 24 41
        E 34 b9 04 12
        E 9 b9 04 25
        E 13 b9 04 36
        E 17 b9 04 46
        E 2 b9 04 4c
        E 3 99 2c 16
        E 4 b9 04 56
        E 3 99 33 62
        E 12 b9 04 66
        E 16 b9 04 56
        E 39 b9 04 46
        E 24 b9 04 36
        E 35 b9 04 25
        E 31 b9 04 15
        E 2 89 24 40
        E 75 89 2c 40
        E 10 89 33 40
        E 50 b9 04 25
        E 17 b9 04 36
        E 19 b9 04 46
        E 13 b9 04 4d
        E 2 99 2c 0c
        E 22 b9 04 56
        E 21 99 24 44
        E 37 99 33 40
        E 38 b9 04 46
        E 32 b9 04 36
        E 26 b9 04 22
        E 30 b9 04 12
        E 31 b9 04 00
        E 5 89 2c 40
        E 43 89 24 40
        E 39 89 33 40
        E 152 b9 04 12
        E 10 b9 04 22
        E 7 b9 04 32
        E 12 b9 04 43
        E 12 b9 04 4c
        E 3 99 2c 10
        E 2 99 26 7c
        E 3 b9 04 53
        E 9 b9 04 64
        E 9 99 33 53
        E 21 b9 04 54
        E 35 b9 04 44
        E 22 b9 04 34
        E 29 b9 04 22
        E 36 b9 04 12
        E 76 89 2c 40
        E 2 89 26 40
        E 21 89 33 40
        E 55 b9 04 22
        E 13 b9 04 32
        E 10 99 24 44
        E 9 b9 04 43
        E 27 b9 04 4d
        E 3 99 2c 0a
        E 19 b9 04 53
        E 19 99 33 40
        E 56 b9 04 43
        E 31 b9 04 32
        E 20 b9 04 22
        E 24 b9 04 12
        E 31 b9 04 00
        E 2 89 24 40
        E 39 89 2c 40
        E 38 89 33 40
        E 129 99 24 43
        E 36 b9 04 12
        E 7 b9 04 25
        E 7 b9 04 38
        E 10 b9 04 49
        E 10 b9 04 4c
        E 2 99 2c 20
        E 10 99 33 5b
        E 2 b9 04 5a
        E 10 b9 04 6a
        E 29 b9 04 5a
        E 41 b9 04 4a
        E 19 b9 04 3a
        E 24 b9 04 29
        E 27 b9 04 18
        E 10 89 24 40
        E 33 b9 04 06
        E 39 89 2c 40
        E 7 89 33 40
        E 8 b9 04 00
        E 60 b9 04 12
        E 22 b9 04 25
        E 17 b9 04 36
        E 19 b9 04 46
        E 12 b9 04 4c
        E 2 99 2c 0c
        E 3 99 24 41
        E 12 99 33 40
        E 120 b9 04 36
        E 27 b9 04 22
        E 27 b9 04 12
        E 36 b9 04 00
        E 17 89 2c 40
        E 5 89 24 40
        E 10 89 33 40
        E 195 b9 04 12
        E 11 b9 04 22
        E 7 b9 04 32
        E 2 99 26 74
        E 14 b9 04 43
        E 5 99 33 54
        E 2 b9 04 4d
        E 2 99 2c 18
        E 3 b9 04 53
        E 9 b9 04 63
        E 20 b9 04 53
        E 39 b9 04 43
        E 22 b9 04 32
        E 24 b9 04 22
        E 39 b9 04 12
        E 67 89 26 40
        E 17 89 33 40
        E 2 89 2c 40
        E 71 b9 04 25
        E 9 99 24 46
        E 10 b9 04 36
        E 34 b9 04 46
        E 26 b9 04 4d
        E 3 99 2c 08
        E 7 99 33 39
        E 70 b9 04 36
        E 24 b9 04 22
        E 25 b9 04 12
        E 28 b9 04 00
        E 15 89 24 40
        E 72 89 2c 40
        E 8 89 33 40
        E 93 99 24 3c
        E 63 b9 04 12
        E 8 b9 04 25
        E 7 b9 04 36
        E 15 b9 04 46
        E 9 99 33 47
        E 3 b9 04 4c
        E 2 99 2c 18
        E 5 b9 04 57
        E 12 b9 04 67
        E 22 b9 04 57
        E 33 b9 04 47
        E 21 b9 04 36
        E 28 b9 04 25
        E 14 89 24 40
        E 15 b9 04 15
        E 67 b9 04 03
        E 22 89 33 40
        E 3 89 2c 40
        E 46 b9 04 15
        E 21 b9 04 25
        E 17 b9 04 36
        E 27 b9 04 46
        E 12 99 24 45
        E 3 b9 04 4d
        E 2 99 2c 0a
        E 40 99 33 34
        E 76 b9 04 36
        E 28 b9 04 25
        E 28 b9 04 15
        E 31 b9 04 03
        E 9 b9 04 00
        E 25 89 24 40
        E 7 89 2c 40
        E 38 89 33 40
        E 162 99 26 66
        E 4 b9 04 12
        E 11 b9 04 22
        E 7 b9 04 32
        E 2 99 33 60
        E 10 b9 04 43
        E 10 b9 04 4c
        E 2 99 2c 14
        E 2 b9 04 53
        E 13 b9 04 63
        E 21 b9 04 53
        E 39 b9 04 43
        E 22 b9 04 32
        E 24 b9 04 22
        E 43 b9 04 12
        E 33 89 26 40
        E 23 89 33 40
        E 22 89 2c 40
        E 57 b9 04 22
        E 13 b9 04 32
        E 9 99 24 44
        E 10 b9 04 43
        E 27 b9 04 4d
        E 2 99 2c 0c
        E 12 99 33 3c
        E 109 b9 04 32
        E 17 b9 04 22
        E 26 b9 04 12
        E 29 b9 04 00
        E 13 89 24 40
        E 38 89 2c 40
        E 12 89 33 40
        E 147 99 24 43
        E 22 b9 04 12
        E 13 b9 04 25
        E 9 b9 04 36
        E 17 b9 04 46
        E 2 99 33 6b
        E 3 b9 04 4c
        E 4 99 2c 12
        E 5 b9 04 57
        E 73 b9 04 47
        E 29 b9 04 36
        E 29 b9 04 25
        E 29 b9 04 15
        E 7 89 24 40
        E 65 89 33 40
        E 5 89 2c 40
        E 77 b9 04 27
        E 20 b9 04 38
        E 29 b9 04 49
        E 9 b9 04 4d
        E 2 99 2c 0a
        E 20 99 24 40
        E 3 99 33 48
        E 99 b9 04 38
        E 31 b9 04 27
        E 27 b9 04 15
        E 31 b9 04 03
        E 12 b9 04 00
        E 22 89 2c 40
        E 17 89 24 40
        E 5 89 33 40
        E 176 99 26 46
        E 5 b9 04 12
        E 17 b9 04 25
        E 7 99 33 63
        E 14 b9 04 36
        E 8 b9 04 46
        E 5 b9 04 4c
        E 2 99 2c 1e
        E 2 b9 04 56
        E 30 b9 04 46
        E 43 b9 04 36
        E 31 b9 04 25
        E 49 b9 04 15
        E 29 89 26 40
        E 31 89 33 40
        E 27 89 2c 40
        E 72 b9 04 25
        E 20 b9 04 36
        E 21 b9 04 46
        E 5 99 33 35
        E 12 b9 04 4d
        E 2 99 2c 0a
        E 150 b9 04 36
        E 36 b9 04 25
        E 34 b9 04 15
        E 7 89 33 40
        E 15 89 2c 40
        E 19 b9 04 03
        E 15 b9 04 00
        E 232 b9 04 12
        E 15 99 24 3a
        E 2 b9 04 22
        E 17 b9 04 32
        E 11 b9 04 43
        E 5 b9 04 4d
        E 3 99 2c 1e
        E 2 b9 04 53
        E 8 99 33 6a
        E 5 b9 04 63
        E 47 b9 04 53
        E 35 b9 04 43
        E 39 b9 04 32
        E 24 b9 04 22
        E 45 89 24 40
        E 10 b9 04 12
        E 26 89 2c 40
        E 10 89 33 40
        E 129 b9 04 22
        E 26 b9 04 32
        E 37 b9 04 43
        E 18 99 33 3b
        E 20 b9 04 4d
        E 2 99 2c 06
        E 160 b9 04 32
        E 38 b9 04 22
        E 25 89 33 40
        E 21 89 2c 40
        E 84 b9 04 12
        E 240 b9 04 25
        E 22 b9 04 36
        E 31 b9 04 25
        E 94 b9 04 15
        E 213 b9 04 25
        E 152 b9 04 2e
        E 217 b9 04 22
        E 354 b9 04 1a
        E 164 b9 04 09
        E 161 b9 04 00
        E 7713 b0 7b 00
        GUID {44013357-319C-419B-8F61-EF9FE34C4544}
        IGNTEMPO 0 120 4 4
        SRCCOLOR 507
      >
    >
    <ITEM
      POSITION 522.37113378684808
      SNAPOFFS 0
      LENGTH 42.37113425438906
      LOOP 1
      ALLTAKES 0
      FADEIN 1 0 0 1 0 0
      FADEOUT 1 0 0 1 0 0
      MUTE 0
      SEL 0
      IGUID {108AD358-F6E1-4FF6-9AD5-776BA366E028}
      IID 16
      NAME "01-EZdrummer-Recorded MIDI"
      VOLPAN 1 0 1 -1
      SOFFS 0 0
      PLAYRATE 1 1 0 -1 0 0.0025
      CHANMODE 0
      GUID {14036533-1958-4C6B-91CA-43E85BF9CAF5}
      RECPASS 6
      <SOURCE MIDI
        HASDATA 1 960 QN
        POOLEDEVTS {BA940F87-2205-4554-9A19-06CF9B2E754E}
        E 7663 99 24 7f
        E 78 99 31 7f
        E 236 89 24 40
        E 78 89 31 40
        E 627 99 33 4f
        E 313 89 33 40
        E 632 99 33 2d
        E 314 89 33 40
        E 594 99 26 5d
        E 71 99 33 7d
        E 242 89 26 40
        E 68 89 33 40
        E 586 99 33 41
        E 314 89 33 40
        E 599 99 24 54
        E 41 99 33 51
        E 273 89 24 40
        E 36 89 33 40
        E 632 99 26 4a
        E 20 99 33 57
        E 293 89 26 40
        E 22 89 33 40
        E 641 99 33 4a
        E 314 89 33 40
        E 605 99 24 5f
        E 73 99 33 4e
        E 238 89 24 40
        E 74 89 33 40
        E 630 99 33 3d
        E 311 89 33 40
        E 599 99 33 41
        E 314 89 33 40
        E 646 99 26 5e
        E 33 99 33 65
        E 279 89 26 40
        E 38 89 33 40
        E 627 99 33 3f
        E 310 89 33 40
        E 593 99 24 56
        E 38 99 33 35
        E 272 89 24 40
        E 40 89 33 40
        E 587 99 26 59
        E 53 99 33 56
        E 258 89 26 40
        E 57 89 33 40
        E 529 99 24 4d
        E 72 99 33 42
        E 242 89 24 40
        E 69 89 33 40
        E 653 99 24 64
        E 38 99 33 62
        E 277 89 24 40
        E 33 89 33 40
        E 631 99 33 45
        E 313 89 33 40
        E 613 99 33 2d
        E 313 89 33 40
        E 642 99 26 64
        E 39 99 33 67
        E 278 89 26 40
        E 39 89 33 40
        E 622 99 33 39
        E 310 89 33 40
        E 693 99 33 5e
        E 313 89 33 40
        E 642 99 26 5f
        E 45 99 33 65
        E 268 89 26 40
        E 44 89 33 40
        E 643 99 33 30
        E 310 89 33 40
        E 671 99 24 6e
        E 43 99 33 69
        E 270 89 24 40
        E 40 89 33 40
        E 659 99 33 53
        E 313 89 33 40
        E 600 99 33 4d
        E 310 89 33 40
        E 590 99 26 5d
        E 33 99 33 5d
        E 283 89 26 40
        E 34 89 33 40
        E 577 99 33 2e
        E 315 89 33 40
        E 598 99 30 7f
        E 9 99 33 3b
        E 302 89 30 40
        E 10 89 33 40
        E 697 99 2d 7f
        E 310 89 2d 40
        E 609 99 29 7b
        E 310 89 29 40
        E 656 99 24 7f
        E 40 99 31 5b
        E 24 99 33 63
        E 246 89 24 40
        E 40 89 31 40
        E 30 89 33 40
        E 544 99 33 1a
        E 314 89 33 40
        E 710 99 33 3e
        E 314 89 33 40
        E 640 99 26 5a
        E 52 99 33 54
        E 261 89 26 40
        E 50 89 33 40
        E 615 99 33 3c
        E 310 89 33 40
        E 645 99 33 43
        E 311 89 33 40
        E 645 99 26 68
        E 44 99 33 60
        E 266 89 26 40
        E 47 89 33 40
        E 615 99 33 4b
        E 314 89 33 40
        E 611 99 24 7a
        E 71 99 33 59
        E 242 89 24 40
        E 72 89 33 40
        E 627 99 33 3f
        E 314 89 33 40
        E 611 99 33 48
        E 313 89 33 40
        E 605 99 26 4e
        E 13 99 33 4d
        E 304 89 26 40
        E 10 89 33 40
        E 666 99 33 4d
        E 35 99 26 5a
        E 276 89 33 40
        E 37 89 26 40
        E 590 99 24 4f
        E 25 99 33 47
        E 286 89 24 40
        E 24 89 33 40
        E 631 99 24 59
        E 27 99 33 58
        E 283 89 24 40
        E 28 89 33 40
        E 576 99 26 53
        E 35 99 33 51
        E 276 89 26 40
        E 35 89 33 40
        E 660 99 24 7f
        E 23 99 31 4e
        E 25 99 33 62
        E 267 89 24 40
        E 21 89 31 40
        E 25 89 33 40
        E 581 99 33 3f
        E 313 89 33 40
        E 695 99 33 5f
        E 314 89 33 40
        E 632 99 26 66
        E 44 99 33 6b
        E 267 89 26 40
        E 47 89 33 40
        E 624 99 33 49
        E 313 89 33 40
        E 686 99 33 61
        E 313 89 33 40
        E 646 99 26 5d
        E 41 99 33 65
        E 273 89 26 40
        E 37 89 33 40
        E 627 99 33 40
        E 310 89 33 40
        E 647 99 24 6d
        E 70 99 33 5e
        E 242 89 24 40
        E 72 89 33 40
        E 83 99 24 3b
        E 313 89 24 40
        E 222 99 33 41
        E 313 89 33 40
        E 795 99 33 2b
        E 313 89 33 40
        E 559 99 26 66
        E 81 99 33 4e
        E 233 89 26 40
        E 77 89 33 40
        E 550 99 33 40
        E 310 89 33 40
        E 658 99 24 68
        E 3 99 33 39
        E 310 89 24 40
        E 4 89 33 40
        E 633 99 26 7b
        E 316 89 26 40
        E 103 99 26 4f
        E 310 89 26 40
        E 158 99 26 69
        E 314 89 26 40
        E 702 99 24 7f
        E 40 99 31 30
        E 28 99 33 59
        E 245 89 24 40
        E 40 89 31 40
        E 25 89 33 40
        E 559 99 33 3a
        E 314 89 33 40
        E 670 99 33 4b
        E 314 89 33 40
        E 644 99 26 68
        E 45 99 33 58
        E 270 89 26 40
        E 40 89 33 40
        E 643 99 33 43
        E 310 89 33 40
        E 617 99 24 5a
        E 13 99 33 53
        E 300 89 24 40
        E 17 89 33 40
        E 555 99 26 6f
        E 69 99 33 3d
        E 241 89 26 40
        E 69 89 33 40
        E 118 99 24 4d
        E 310 89 24 40
        E 154 99 33 30
        E 316 89 33 40
        E 191 99 24 48
        E 314 89 24 40
        E 59 99 24 5d
        E 99 99 33 42
        E 214 89 24 40
        E 100 89 33 40
        E 568 99 24 59
        E 80 99 33 43
        E 233 89 24 40
        E 78 89 33 40
        E 537 99 24 60
        E 71 99 33 31
        E 242 89 24 40
        E 68 89 33 40
        E 559 99 26 7d
        E 68 99 33 45
        E 246 89 26 40
        E 68 89 33 40
        E 639 99 33 44
        E 311 89 33 40
        E 682 99 24 5e
        E 19 99 33 4f
        E 292 89 24 40
        E 19 89 33 40
        E 677 99 26 6b
        E 30 99 33 56
        E 283 89 26 40
        E 28 89 33 40
        E 667 99 33 29
        E 314 89 33 40
        E 195 99 26 4e
        E 310 89 26 40
        E 44 99 24 7f
        E 37 99 33 65
        E 277 89 24 40
        E 37 89 33 40
        E 667 99 33 35
        E 314 89 33 40
        E 627 99 33 3b
        E 313 89 33 40
        E 625 99 26 6c
        E 68 99 33 5f
        E 244 89 26 40
        E 69 89 33 40
        E 593 99 33 42
        E 310 89 33 40
        E 543 99 24 60
        E 74 99 33 34
        E 240 89 24 40
        E 71 89 33 40
        E 602 99 26 6c
        E 57 99 33 58
        E 253 89 26 40
        E 60 89 33 40
        E 667 99 33 2d
        E 314 89 33 40
        E 151 99 26 27
        E 250 89 26 40
        E 2 99 26 38
        E 90 99 24 72
        E 149 99 33 7f
        E 71 89 26 40
        E 91 89 24 40
        E 152 89 33 40
        E 56 99 24 57
        E 313 89 24 40
        E 235 99 33 32
        E 314 89 33 40
        E 236 99 24 4d
        E 311 89 24 40
        E 139 99 26 70
        E 56 99 33 5e
        E 258 89 26 40
        E 56 89 33 40
        E 655 99 26 67
        E 24 99 33 73
        E 289 89 26 40
        E 25 89 33 40
        E 190 99 24 47
        E 313 89 24 40
        E 159 99 33 49
        E 316 89 33 40
        E 127 99 24 4e
        E 313 89 24 40
        E 186 99 33 32
        E 314 89 33 40
        E 121 99 24 56
        E 311 89 24 40
        E 179 99 26 57
        E 51 99 33 64
        E 263 89 26 40
        E 47 89 33 40
        E 612 99 26 54
        E 33 99 33 7f
        E 280 89 26 40
        E 35 89 33 40
        E 657 99 24 7f
        E 93 99 31 6f
        E 220 89 24 40
        E 94 89 31 40
        E 673 99 33 33
        E 313 89 33 40
        E 621 99 33 2f
        E 314 89 33 40
        E 586 99 26 64
        E 66 99 33 4c
        E 245 89 26 40
        E 65 89 33 40
        E 615 99 33 30
        E 313 89 33 40
        E 587 99 33 42
        E 6 99 24 5c
        E 308 89 33 40
        E 5 89 24 40
        E 562 99 24 4d
        E 66 99 33 3b
        E 248 89 24 40
        E 62 89 33 40
        E 543 99 26 6b
        E 66 99 33 7f
        E 245 89 26 40
        E 65 89 33 40
        E 592 99 24 7f
        E 72 99 33 7e
        E 242 89 24 40
        E 72 89 33 40
        E 565 99 33 4c
        E 316 89 33 40
        E 608 99 33 5e
        E 314 89 33 40
        E 655 99 26 51
        E 46 99 33 62
        E 264 89 26 40
        E 50 89 33 40
        E 624 99 33 46
        E 314 89 33 40
        E 614 99 24 5b
        E 19 99 33 70
        E 294 89 24 40
        E 18 89 33 40
        E 588 99 26 5c
        E 52 99 33 58
        E 261 89 26 40
        E 53 89 33 40
        E 44 99 24 56
        E 310 89 24 40
        E 261 99 33 2c
        E 313 89 33 40
        E 162 99 24 4b
        E 310 89 24 40
        E 112 99 24 6b
        E 34 99 33 63
        E 279 89 24 40
        E 34 89 33 40
        E 659 99 24 51
        E 43 99 33 5e
        E 270 89 24 40
        E 43 89 33 40
        E 199 99 26 5e
        E 314 89 26 40
        E 161 99 33 3b
        E 309 89 33 40
        E 694 99 24 65
        E 21 99 33 76
        E 289 89 24 40
        E 21 89 33 40
        E 634 99 33 4f
        E 313 89 33 40
        E 615 99 24 62
        E 34 99 33 43
        E 279 89 24 40
        E 32 89 33 40
        E 614 99 26 6e
        E 53 99 33 7f
        E 261 89 26 40
        E 52 89 33 40
        E 608 99 33 5a
        E 314 89 33 40
        E 659 99 24 58
        E 33 99 33 60
        E 280 89 24 40
        E 34 89 33 40
        E 636 99 24 52
        E 13 99 33 4c
        E 301 89 24 40
        E 12 89 33 40
        E 652 99 26 61
        E 28 99 24 4d
        E 6 99 33 73
        E 276 89 26 40
        E 32 89 24 40
        E 5 89 33 40
        E 578 99 24 4c
        E 40 99 33 5c
        E 273 89 24 40
        E 40 89 33 40
        E 555 99 24 4e
        E 73 99 33 7e
        E 242 89 24 40
        E 71 89 33 40
        E 550 99 24 5e
        E 37 99 33 76
        E 277 89 24 40
        E 37 89 33 40
        E 635 99 26 67
        E 16 99 33 7f
        E 19 99 24 6c
        E 279 89 26 40
        E 15 89 33 40
        E 20 89 24 40
        E 565 99 28 2b
        E 6 99 24 63
        E 16 99 33 7c
        E 291 89 28 40
        E 6 89 24 40
        E 16 89 33 40
        E 648 99 26 7f
        E 4 99 24 7f
        E 96 89 26 40
        E 3 99 26 7f
        E 211 89 24 40
        E 102 89 26 40
        E 27036 99 26 70
        E 75 89 26 40
        E 2 99 26 7f
        E 311 89 26 40
        E 121 99 28 3d
        E 59 b9 04 09
        E 31 99 26 7f
        E 192 b9 04 12
        E 32 89 28 40
        E 89 89 26 40
        E 87 99 24 7f
        E 178 b9 04 0c
        E 136 89 24 40
        E 164 99 28 42
        E 109 89 28 40
        E 3 99 28 64
        E 310 89 28 40
        E 100 99 24 63
        E 313 89 24 40
        E 131 99 26 5a
        E 106 89 26 40
        E 2 99 26 7f
        E 311 89 26 40
        E 65 99 24 58
        E 267 b9 04 03
        E 46 89 24 40
        E 25 b9 04 00
        E 118 99 24 09
        E 56 89 24 40
        E 4 99 24 7f
        E 310 89 24 40
        E 146 b9 04 06
        E 505 99 24 7f
        E 202 b9 04 00
        E 112 89 24 40
        E 257 b9 04 06
        E 13 99 26 7f
        E 115 99 28 7f
        E 198 89 26 40
        E 115 89 28 40
        E 302 b9 04 0c
        E 168 99 24 62
        E 260 b9 04 06
        E 52 89 24 40
        E 182 99 2d 7f
        E 34 99 30 7f
        E 277 89 2d 40
        E 38 89 30 40
        E 677 b9 04 15
        E 69 b9 04 25
        E 176 b9 04 29
        E 69 b9 04 18
        E 15 99 24 5e
        E 64 b9 04 06
        E 51 b9 04 00
        E 199 89 24 40
        E 186 99 26 7f
        E 74 b9 04 12
        E 60 b9 04 22
        E 3 89 26 40
        E 3 99 26 72
        E 6 b9 04 32
        E 12 b9 04 43
        E 10 b9 04 4c
        E 0 99 2c 1e
        E 37 b9 04 32
        E 136 b9 04 22
        E 108 89 26 40
        E 3 b9 04 12
        E 29 89 2c 40
        E 65 b9 04 00
        E 18 99 24 5b
        E 314 89 24 40
        E 99 b9 04 12
        E 16 99 2d 7f
        E 25 99 30 7f
        E 12 b9 04 22
        E 19 b9 04 32
        E 12 b9 04 44
        E 5 b9 04 4c
        E 3 99 2c 1e
        E 30 b9 04 34
        E 19 b9 04 22
        E 189 89 2d 40
        E 25 89 30 40
        E 24 b9 04 12
        E 25 89 2c 40
        E 47 b9 04 00
        E 62 99 24 5c
        E 313 89 24 40
        E 118 99 2d 7f
        E 6 b9 04 12
        E 35 99 29 7f
        E 49 b9 04 22
        E 37 b9 04 12
        E 187 89 2d 40
        E 37 89 29 40
        E 124 b9 04 00
        E 500 b9 04 12
        E 12 b9 04 22
        E 13 b9 04 32
        E 3 99 24 75
        E 46 b9 04 43
        E 6 b9 04 4c
        E 4 99 2c 1e
        E 2 b9 04 53
        E 38 b9 04 43
        E 16 b9 04 32
        E 58 b9 04 22
        E 141 89 24 40
        E 54 89 2c 40
        E 106 b9 04 1a
        E 177 b9 04 0f
        E 215 99 24 53
        E 16 b9 04 18
        E 210 b9 04 12
        E 88 89 24 40
        E 152 b9 04 0c
        E 142 99 26 7f
        E 111 b9 04 12
        E 13 89 26 40
        E 3 99 26 7f
        E 214 b9 04 1a
        E 97 89 26 40
        E 98 b9 04 12
        E 95 b9 04 22
        E 40 b9 04 32
        E 217 b9 04 22
        E 46 99 24 4d
        E 12 b9 04 12
        E 78 b9 04 00
        E 224 89 24 40
        E 220 99 2d 7f
        E 9 99 30 7f
        E 44 b9 04 12
        E 44 b9 04 22
        E 21 b9 04 32
        E 13 b9 04 43
        E 8 b9 04 4c
        E 3 99 2c 1a
        E 4 b9 04 53
        E 43 b9 04 43
        E 38 b9 04 32
        E 75 b9 04 22
        E 15 89 2d 40
        E 6 89 30 40
        E 82 b9 04 12
        E 49 89 2c 40
        E 89 b9 04 00
        E 345 b9 04 12
        E 22 b9 04 22
        E 9 b9 04 32
        E 15 b9 04 43
        E 16 b9 04 4c
        E 3 99 2c 16
        E 152 b9 04 32
        E 31 b9 04 22
        E 63 b9 04 12
        E 65 89 2c 40
        E 14 b9 04 00
        E 23 99 24 4e
        E 314 89 24 40
        E 136 99 26 68
        E 12 b9 04 12
        E 28 b9 04 22
        E 13 b9 04 32
        E 15 b9 04 43
        E 12 b9 04 4c
        E 4 99 2c 16
        E 27 89 26 40
        E 3 99 26 79
        E 7 b9 04 32
        E 196 b9 04 22
        E 75 b9 04 12
        E 2 89 2c 40
        E 31 89 26 40
        E 51 b9 04 00
        E 33 99 24 57
        E 313 89 24 40
        E 87 b9 04 12
        E 31 b9 04 22
        E 12 b9 04 32
        E 19 99 2d 7f
        E 9 99 30 62
        E 10 b9 04 22
        E 155 b9 04 32
        E 139 89 2d 40
        E 7 89 30 40
        E 19 b9 04 22
        E 68 b9 04 12
        E 56 99 24 52
        E 25 b9 04 00
        E 289 89 24 40
        E 136 b9 04 12
        E 6 99 2d 7f
        E 28 b9 04 22
        E 15 b9 04 32
        E 29 99 29 64
        E 3 b9 04 20
        E 28 b9 04 0f
        E 210 89 2d 40
        E 26 b9 04 18
        E 46 89 29 40
        E 37 99 24 52
        E 28 b9 04 06
        E 41 b9 04 00
        E 244 89 24 40
        E 193 b9 04 12
        E 10 b9 04 25
        E 9 b9 04 36
        E 6 99 24 5e
        E 34 b9 04 46
        E 12 b9 04 4c
        E 3 99 2c 10
        E 23 b9 04 36
        E 36 b9 04 25
        E 78 b9 04 15
        E 127 89 24 40
        E 47 89 2c 40
        E 146 b9 04 25
        E 161 b9 04 36
        E 221 99 24 4e
        E 18 b9 04 25
        E 99 b9 04 15
        E 168 b9 04 03
        E 28 89 24 40
        E 13 b9 04 00
        E 305 99 26 7f
        E 102 b9 04 12
        E 24 89 26 40
        E 2 99 26 72
        E 3 b9 04 25
        E 23 b9 04 36
        E 58 b9 04 25
        E 45 b9 04 15
        E 183 89 26 40
        E 9 b9 04 09
        E 161 b9 04 1a
        E 44 b9 04 2c
        E 34 b9 04 3c
        E 37 b9 04 4c
        E 4 99 2c 0c
        E 3 b9 04 4c
        E 160 b9 04 3c
        E 37 b9 04 2c
        E 38 b9 04 1a
        E 44 b9 04 09
        E 12 99 24 4e
        E 16 89 2c 40
        E 3 b9 04 00
        E 295 89 24 40
        E 165 99 2d 7f
        E 9 99 30 7f
        E 55 b9 04 12
        E 66 b9 04 22
        E 12 b9 04 34
        E 6 b9 04 44
        E 3 b9 04 4c
        E 3 99 2c 36
        E 3 b9 04 54
        E 20 b9 04 44
        E 5 b9 04 32
        E 10 b9 04 22
        E 121 89 2d 40
        E 9 89 30 40
        E 139 b9 04 12
        E 4 89 2c 40
        E 93 b9 04 00
        E 360 b9 04 12
        E 25 b9 04 22
        E 15 b9 04 32
        E 13 b9 04 43
        E 12 b9 04 4c
        E 3 99 2c 16
        E 196 b9 04 36
        E 62 b9 04 22
        E 53 89 2c 40
        E 8 b9 04 12
        E 92 b9 04 00
        E 20 99 24 4e
        E 313 89 24 40
        E 95 b9 04 12
        E 9 99 26 6f
        E 49 b9 04 22
        E 13 b9 04 32
        E 9 b9 04 43
        E 6 b9 04 4c
        E 2 99 2c 22
        E 27 b9 04 32
        E 11 b9 04 22
        E 19 89 26 40
        E 3 99 26 73
        E 199 b9 04 27
        E 56 89 2c 40
        E 25 b9 04 15
        E 30 89 26 40
        E 57 b9 04 03
        E 25 b9 04 00
        E 8 99 24 53
        E 312 89 24 40
        E 58 b9 04 12
        E 46 b9 04 25
        E 16 b9 04 36
        E 9 b9 04 47
        E 4 b9 04 4d
        E 3 99 2c 22
        E 9 b9 04 57
        E 3 99 2d 7f
        E 15 b9 04 47
        E 11 99 30 5c
        E 2 b9 04 36
        E 162 b9 04 2c
        E 108 89 2c 40
        E 12 89 2d 40
        E 29 89 30 40
        E 49 b9 04 30
        E 50 b9 04 20
        E 46 99 24 4f
        E 22 b9 04 0f
        E 56 b9 04 00
        E 236 89 24 40
        E 126 99 26 6d
        E 73 b9 04 12
        E 27 89 26 40
        E 3 99 26 7f
        E 35 b9 04 22
        E 12 b9 04 32
        E 6 b9 04 43
        E 6 b9 04 4c
        E 4 99 2c 26
        E 17 b9 04 32
        E 10 b9 04 22
        E 220 89 26 40
        E 35 b9 04 12
        E 29 89 2c 40
        E 52 b9 04 00
        E 424 b9 04 12
        E 29 b9 04 22
        E 28 99 24 62
        E 15 b9 04 32
        E 13 b9 04 43
        E 6 b9 04 4d
        E 3 99 2c 20
        E 3 b9 04 54
        E 22 b9 04 43
        E 12 b9 04 32
        E 162 b9 04 2c
        E 78 89 24 40
        E 33 89 2c 40
        E 221 b9 04 1d
        E 233 b9 04 2e
        E 152 99 24 5f
        E 78 b9 04 1d
        E 235 89 24 40
        E 38 b9 04 2e
        E 189 99 26 7e
        E 19 b9 04 1d
        E 108 89 26 40
        E 3 99 26 7f
        E 311 89 26 40
        E 34 b9 04 18
        E 84 b9 04 29
        E 59 b9 04 3a
        E 170 b9 04 44
        E 87 b9 04 34
        E 56 99 24 57
        E 5 b9 04 22
        E 82 b9 04 12
        E 135 b9 04 00
        E 88 89 24 40
        E 205 99 2d 7f
        E 29 99 30 7f
        E 11 b9 04 12
        E 32 b9 04 22
        E 12 b9 04 32
        E 15 b9 04 43
        E 10 b9 04 4c
        E 3 99 2c 18
        E 35 b9 04 32
        E 36 b9 04 22
        E 131 89 2d 40
        E 28 89 30 40
        E 80 89 2c 40
        E 75 b9 04 12
        E 130 b9 04 00
        E 286 b9 04 12
        E 21 b9 04 22
        E 13 b9 04 32
        E 15 b9 04 43
        E 7 b9 04 4c
        E 3 99 2c 18
        E 192 b9 04 32
        E 37 b9 04 22
        E 66 b9 04 12
        E 18 89 2c 40
        E 91 99 24 56
        E 12 b9 04 00
        E 301 89 24 40
        E 71 b9 04 12
        E 25 b9 04 22
        E 9 99 26 7a
        E 3 b9 04 32
        E 10 b9 04 43
        E 9 b9 04 4c
        E 3 99 2c 1a
        E 32 b9 04 32
        E 40 b9 04 22
        E 31 89 26 40
        E 3 99 26 7f
        E 205 89 2c 40
        E 105 b9 04 12
        E 3 89 26 40
        E 109 99 24 57
        E 25 b9 04 00
        E 288 89 24 40
        E 53 b9 04 12
        E 31 b9 04 22
        E 16 b9 04 32
        E 25 99 2d 7f
        E 9 99 30 67
        E 42 b9 04 22
        E 262 89 2d 40
        E 7 89 30 40
        E 80 b9 04 12
        E 66 99 24 55
        E 129 b9 04 00
        E 184 89 24 40
        E 90 b9 04 12
        E 47 b9 04 25
        E 3 99 2d 7f
        E 49 99 29 65
        E 25 b9 04 15
        E 176 b9 04 25
        E 63 89 2d 40
        E 50 89 29 40
        E 133 b9 04 15
        E 31 99 24 51
        E 78 b9 04 03
        E 21 b9 04 00
        E 215 89 24 40
        E 87 b9 04 12
        E 21 b9 04 22
        E 22 99 24 7e
        E 34 b9 04 12
        E 279 89 24 40
        E 57 b9 04 1d
        E 155 b9 04 0c
        E 378 b9 04 1d
        E 7 99 24 57
        E 96 b9 04 2e
        E 177 b9 04 1d
        E 40 89 24 40
        E 108 b9 04 0c
        E 162 99 26 7f
        E 43 b9 04 03
        E 87 89 26 40
        E 3 99 26 7f
        E 84 b9 04 15
        E 227 89 26 40
        E 168 b9 04 25
        E 52 b9 04 36
        E 218 b9 04 25
        E 53 b9 04 15
        E 12 99 24 57
        E 76 b9 04 03
        E 16 b9 04 00
        E 218 89 24 40
        E 152 99 2d 7f
        E 31 99 30 7f
        E 41 b9 04 12
        E 37 b9 04 22
        E 12 b9 04 32
        E 10 b9 04 43
        E 31 b9 04 32
        E 12 b9 04 22
        E 140 89 2d 40
        E 30 89 30 40
        E 137 b9 04 12
        E 118 b9 04 00
        E 348 b9 04 12
        E 24 b9 04 22
        E 13 b9 04 32
        E 13 b9 04 43
        E 9 b9 04 4c
        E 6 99 2c 18
        E 31 b9 04 32
        E 53 b9 04 22
        E 226 89 2c 40
        E 102 b9 04 12
        E 53 99 24 53
        E 53 b9 04 00
        E 261 89 24 40
        E 106 b9 04 12
        E 3 99 26 74
        E 28 b9 04 25
        E 18 b9 04 36
        E 47 b9 04 25
        E 31 89 26 40
        E 3 99 26 7a
        E 121 b9 04 1d
        E 189 89 26 40
        E 106 99 24 57
        E 12 b9 04 0c
        E 107 b9 04 00
        E 195 89 24 40
        E 111 b9 04 12
        E 31 b9 04 22
        E 13 99 2d 7c
        E 3 b9 04 32
        E 6 99 30 4e
        E 6 b9 04 43
        E 44 b9 04 32
        E 161 b9 04 2e
        E 93 89 2d 40
        E 9 89 30 40
        E 137 b9 04 1d
        E 12 99 24 58
        E 78 b9 04 0c
        E 84 b9 04 00
        E 152 89 24 40
        E 130 99 26 73
        E 112 b9 04 12
        E 15 89 26 40
        E 3 99 26 7f
        E 3 b9 04 22
        E 10 b9 04 32
        E 40 b9 04 22
        E 258 89 26 40
        E 43 b9 04 12
        E 100 b9 04 00
        E 450 99 24 60
        E 6 b9 04 12
        E 19 b9 04 22
        E 12 b9 04 32
        E 28 b9 04 22
        E 245 89 24 40
        E 233 b9 04 18
        E 174 b9 04 29
        E 37 b9 04 3a
        E 74 b9 04 4a
        E 128 99 24 53
        E 3 b9 04 3a
        E 68 b9 04 29
        E 75 b9 04 18
        E 118 b9 04 06
        E 49 89 24 40
        E 7 b9 04 00
        E 205 99 26 7f
        E 129 99 28 7d
        E 29 b9 04 12
        E 156 89 26 40
        E 61 b9 04 09
        E 68 89 28 40
        E 144 b9 04 1a
        E 61 b9 04 2c
        E 50 b9 04 3c
        E 208 b9 04 2c
        E 49 b9 04 1a
        E 60 99 24 53
        E 9 b9 04 09
        E 56 b9 04 00
        E 248 89 24 40
        E 121 99 2d 7f
        E 21 99 30 7f
        E 19 b9 04 12
        E 29 b9 04 25
        E 12 b9 04 36
        E 9 b9 04 46
        E 6 b9 04 4c
        E 0 99 2c 22
        E 22 b9 04 36
        E 13 b9 04 22
        E 183 89 2d 40
        E 21 89 30 40
        E 72 b9 04 12
        E 3 89 2c 40
        E 102 b9 04 00
        E 376 b9 04 12
        E 28 b9 04 25
        E 16 b9 04 36
        E 12 b9 04 46
        E 6 b9 04 4c
        E 3 99 2c 18
        E 40 b9 04 36
        E 196 b9 04 25
        E 61 b9 04 15
        E 13 89 2c 40
        E 84 b9 04 03
        E 9 99 24 53
        E 13 b9 04 00
        E 300 89 24 40
        E 106 b9 04 12
        E 3 99 26 7c
        E 20 b9 04 25
        E 12 b9 04 36
        E 12 b9 04 47
        E 22 b9 04 36
        E 19 b9 04 25
        E 40 89 26 40
        E 3 99 26 7e
        E 305 b9 04 15
        E 5 89 26 40
        E 106 99 24 54
        E 47 b9 04 03
        E 61 b9 04 00
        E 205 89 24 40
        E 47 b9 04 12
        E 37 b9 04 22
        E 25 b9 04 32
        E 38 99 2d 7f
        E 21 99 30 64
        E 16 b9 04 22
        E 170 b9 04 32
        E 106 89 2d 40
        E 19 89 30 40
        E 70 b9 04 22
        E 50 99 24 53
        E 65 b9 04 12
        E 218 b9 04 03
        E 3 b9 04 00
        E 28 89 24 40
        E 146 99 2d 7f
        E 28 99 29 75
        E 18 b9 04 12
        E 41 b9 04 22
        E 226 89 2d 40
        E 25 89 29 40
        E 159 b9 04 12
        E 148 b9 04 00
        E 311 b9 04 12
        E 25 b9 04 22
        E 10 b9 04 32
        E 5 99 24 72
        E 10 b9 04 43
        E 18 b9 04 32
        E 16 b9 04 22
        E 139 b9 04 12
        E 131 89 24 40
        E 264 b9 04 22
        E 65 b9 04 32
        E 90 b9 04 43
        E 186 b9 04 32
        E 22 99 24 62
        E 25 b9 04 22
        E 80 b9 04 12
        E 109 b9 04 00
        E 99 89 24 40
        E 205 99 26 7f
        E 99 b9 04 12
        E 16 b9 04 22
        E 9 99 28 79
        E 37 b9 04 12
        E 153 89 26 40
        E 15 b9 04 06
        E 109 89 28 40
        E 87 b9 04 18
        E 83 b9 04 29
        E 69 b9 04 3a
        E 55 b9 04 4a
        E 7 b9 04 4c
        E 0 99 2c 06
        E 176 b9 04 3a
        E 53 b9 04 29
        E 53 b9 04 18
        E 16 99 24 5a
        E 15 89 2c 40
        E 46 b9 04 06
        E 50 b9 04 00
        E 203 89 24 40
        E 111 99 2d 7f
        E 28 99 30 7f
        E 62 b9 04 12
        E 37 b9 04 25
        E 16 b9 04 36
        E 5 b9 04 46
        E 7 b9 04 4c
        E 4 99 2c 20
        E 15 b9 04 36
        E 13 b9 04 22
        E 126 89 2d 40
        E 29 89 30 40
        E 130 89 2c 40
        E 31 b9 04 12
        E 161 b9 04 00
        E 279 b9 04 12
        E 26 b9 04 25
        E 21 b9 04 36
        E 16 b9 04 46
        E 28 b9 04 36
        E 159 b9 04 2e
        E 219 b9 04 1d
        E 56 99 24 51
        E 50 b9 04 0c
        E 78 b9 04 00
        E 186 89 24 40
        E 102 99 26 73
        E 35 b9 04 12
        E 24 b9 04 22
        E 12 b9 04 32
        E 16 b9 04 43
        E 22 b9 04 32
        E 2 89 26 40
        E 4 99 26 7f
        E 9 b9 04 22
        E 298 b9 04 27
        E 3 89 26 40
        E 108 b9 04 15
        E 11 99 24 4b
        E 124 b9 04 03
        E 30 b9 04 00
        E 159 89 24 40
        E 109 99 2d 7f
        E 3 b9 04 12
        E 16 99 30 68
        E 12 b9 04 25
        E 18 b9 04 36
        E 17 b9 04 46
        E 30 b9 04 36
        E 34 b9 04 25
        E 183 89 2d 40
        E 6 b9 04 36
        E 13 89 30 40
        E 170 b9 04 22
        E 4 99 24 50
        E 84 b9 04 12
        E 105 b9 04 00
        E 124 89 24 40
        E 105 99 26 7f
        E 103 89 26 40
        E 3 99 26 79
        E 31 b9 04 12
        E 25 b9 04 25
        E 12 b9 04 36
        E 35 b9 04 22
        E 207 89 26 40
        E 10 b9 04 27
        E 77 b9 04 15
        E 84 b9 04 03
        E 22 b9 04 00
        E 410 99 24 5d
        E 21 b9 04 12
        E 22 b9 04 25
        E 56 b9 04 15
        E 214 89 24 40
        E 255 b9 04 25
        E 55 b9 04 36
        E 44 b9 04 46
        E 22 b9 04 4c
        E 3 99 2c 08
        E 146 b9 04 4a
        E 50 b9 04 3a
        E 46 b9 04 29
        E 16 99 24 5d
        E 31 b9 04 18
        E 21 89 2c 40
        E 40 b9 04 06
        E 37 b9 04 00
        E 184 89 24 40
        E 242 99 26 7f
        E 19 b9 04 12
        E 28 b9 04 25
        E 9 b9 04 36
        E 9 b9 04 46
        E 19 b9 04 36
        E 9 b9 04 25
        E 10 89 26 40
        E 3 99 26 7f
        E 3 b9 04 15
        E 158 b9 04 09
        E 149 89 26 40
        E 65 b9 04 1a
        E 50 b9 04 2c
        E 34 b9 04 3c
        E 40 b9 04 4c
        E 3 99 2c 0a
        E 3 b9 04 4c
        E 180 b9 04 3c
        E 41 b9 04 2c
        E 43 b9 04 1a
        E 44 89 2c 40
        E 16 b9 04 09
        E 46 b9 04 00
        E 18 99 24 50
        E 314 89 24 40
        E 90 b9 04 12
        E 22 b9 04 22
        E 6 b9 04 34
        E 9 b9 04 44
        E 1 99 2d 7f
        E 5 99 30 7f
        E 13 b9 04 34
        E 9 b9 04 22
        E 16 b9 04 12
        E 217 b9 04 22
        E 53 89 2d 40
        E 6 89 30 40
        E 158 b9 04 12
        E 159 b9 04 00
        E 251 b9 04 12
        E 24 b9 04 22
        E 13 b9 04 32
        E 16 b9 04 43
        E 12 b9 04 4c
        E 0 99 2c 12
        E 13 b9 04 53
        E 139 b9 04 43
        E 78 b9 04 32
        E 43 b9 04 22
        E 40 89 2c 40
        E 32 b9 04 12
        E 59 99 24 56
        E 46 b9 04 00
        E 267 89 24 40
        E 103 99 26 7f
        E 3 b9 04 12
        E 25 b9 04 22
        E 12 b9 04 32
        E 13 b9 04 44
        E 6 b9 04 4d
        E 3 99 2c 20
        E 1 b9 04 54
        E 32 b9 04 44
        E 3 89 26 40
        E 3 99 26 75
        E 69 b9 04 34
        E 193 b9 04 3a
        E 9 89 2c 40
        E 40 89 26 40
        E 60 99 24 55
        E 28 b9 04 29
        E 90 b9 04 18
        E 194 89 24 40
        E 3 b9 04 0c
        E 95 b9 04 00
        E 176 99 26 7f
        E 43 b9 04 12
        E 100 b9 04 22
        E 41 b9 04 32
        E 18 89 26 40
        E 3 99 26 7f
        E 16 b9 04 22
        E 254 89 26 40
        E 3 99 26 6a
        E 97 b9 04 18
        E 161 89 26 40
        E 3 99 26 7f
        E 180 b9 04 09
        E 72 89 26 40
        E 2 99 26 7b
        E 199 b9 04 1a
        E 50 89 26 40
        E 3 99 26 57
        E 72 b9 04 2c
        E 124 89 26 40
        E 3 99 26 6b
        E 118 b9 04 1a
        E 74 b9 04 09
        E 44 b9 04 00
        E 9 89 26 40
        E 3 99 26 7f
        E 304 99 24 7f
        E 7 89 26 40
        E 12 99 31 7f
        E 6 b9 04 12
        E 19 b9 04 25
        E 12 b9 04 36
        E 12 b9 04 47
        E 3 b9 04 4c
        E 3 99 2c 22
        E 34 b9 04 36
        E 78 b9 04 25
        E 128 89 24 40
        E 18 89 31 40
        E 19 b9 04 1d
        E 34 89 2c 40
        E 46 b9 04 2e
        E 41 b9 04 3e
        E 49 b9 04 4f
        E 3 99 2c 08
        E 3 b9 04 4f
        E 224 b9 04 3f
        E 73 b9 04 2e
        E 10 89 2c 40
        E 38 99 24 65
        E 10 b9 04 1d
        E 96 b9 04 0c
        E 115 b9 04 00
        E 93 89 24 40
        E 264 99 26 7f
        E 53 99 33 7f
        E 25 b9 04 12
        E 55 b9 04 22
        E 21 b9 04 32
        E 53 b9 04 22
        E 106 89 26 40
        E 52 89 33 40
        E 7 b9 04 15
        E 192 99 33 3c
        E 26 b9 04 25
        E 77 b9 04 36
        E 84 b9 04 46
        E 127 89 33 40
        E 71 99 24 4d
        E 32 b9 04 36
        E 31 99 33 40
        E 46 b9 04 22
        E 115 b9 04 12
        E 90 89 24 40
        E 61 89 33 40
        E 79 b9 04 03
        E 42 b9 04 00
        E 73 99 33 5d
        E 3 99 26 7f
        E 102 b9 04 12
        E 40 b9 04 25
        E 19 b9 04 36
        E 40 b9 04 25
        E 57 b9 04 15
        E 52 89 33 40
        E 0 89 26 40
        E 149 b9 04 25
        E 3 99 33 1b
        E 314 89 33 40
        E 80 b9 04 15
        E 103 99 33 41
        E 142 b9 04 25
        E 25 b9 04 36
        E 31 b9 04 46
        E 34 b9 04 4c
        E 4 99 2c 0c
        E 77 89 33 40
        E 103 b9 04 36
        E 40 99 33 21
        E 9 99 24 38
        E 9 b9 04 25
        E 59 b9 04 15
        E 13 89 2c 40
        E 115 b9 04 03
        E 53 b9 04 00
        E 55 89 33 40
        E 9 89 24 40
        E 150 99 26 74
        E 18 99 33 59
        E 41 b9 04 12
        E 26 b9 04 25
        E 18 b9 04 36
        E 24 b9 04 25
        E 31 b9 04 15
        E 120 b9 04 25
        E 35 89 26 40
        E 18 89 33 40
        E 134 99 33 1d
        E 47 b9 04 15
        E 99 b9 04 03
        E 19 b9 04 00
        E 149 89 33 40
        E 137 99 24 4b
        E 18 99 33 49
        E 12 b9 04 12
        E 28 b9 04 22
        E 56 b9 04 12
        E 199 89 24 40
        E 18 89 33 40
        E 3 b9 04 22
        E 85 b9 04 32
        E 49 99 33 28
        E 47 b9 04 22
        E 96 b9 04 12
        E 84 b9 04 00
        E 87 89 33 40
        E 143 99 26 7d
        E 30 99 33 59
        E 35 b9 04 12
        E 27 b9 04 22
        E 221 89 26 40
        E 31 89 33 40
        E 161 99 33 2f
        E 26 b9 04 12
        E 109 b9 04 00
        E 179 89 33 40
        E 133 b9 04 12
        E 25 b9 04 25
        E 6 99 24 58
        E 13 b9 04 36
        E 7 99 33 56
        E 15 b9 04 46
        E 31 b9 04 36
        E 64 b9 04 25
        E 75 b9 04 15
        E 109 89 24 40
        E 18 89 33 40
        E 75 b9 04 25
        E 65 b9 04 36
        E 24 99 33 17
        E 115 b9 04 22
        E 69 b9 04 12
        E 63 b9 04 00
        E 67 89 33 40
        E 162 99 26 7a
        E 8 99 33 53
        E 57 b9 04 12
        E 24 b9 04 22
        E 17 b9 04 32
        E 18 b9 04 43
        E 5 b9 04 4c
        E 4 99 2c 16
        E 6 b9 04 53
        E 22 b9 04 43
        E 20 b9 04 32
        E 132 89 26 40
        E 6 89 33 40
        E 35 b9 04 2e
        E 93 89 2c 40
        E 31 b9 04 1d
        E 12 99 24 48
        E 32 99 33 24
        E 36 b9 04 0c
        E 56 b9 04 00
        E 190 89 24 40
        E 31 89 33 40
        E 34 b9 04 12
        E 25 b9 04 25
        E 16 b9 04 36
        E 102 99 33 3d
        E 6 b9 04 25
        E 183 b9 04 36
        E 124 89 33 40
        E 28 b9 04 25
        E 63 99 24 4c
        E 8 99 33 18
        E 3 b9 04 15
        E 78 b9 04 03
        E 22 b9 04 00
        E 201 89 24 40
        E 9 89 33 40
        E 132 b9 04 12
        E 3 99 26 7a
        E 18 b9 04 25
        E 15 b9 04 36
        E 14 b9 04 46
        E 3 b9 04 4c
        E 5 99 2c 1c
        E 22 99 33 5a
        E 1 b9 04 36
        E 21 b9 04 25
        E 77 b9 04 15
        E 137 89 26 40
        E 43 b9 04 25
        E 10 89 2c 40
        E 22 89 33 40
        E 136 b9 04 29
        E 21 99 33 2e
        E 50 b9 04 18
        E 57 b9 04 06
        E 34 b9 04 00
        E 173 89 33 40
        E 125 b9 04 12
        E 24 b9 04 25
        E 3 99 33 43
        E 10 b9 04 36
        E 15 b9 04 46
        E 9 b9 04 4c
        E 3 99 2c 16
        E 41 b9 04 36
        E 177 b9 04 2e
        E 59 89 33 40
        E 35 89 2c 40
        E 108 99 33 29
        E 2 b9 04 1d
        E 13 99 24 4d
        E 78 b9 04 0c
        E 53 b9 04 00
        E 167 89 33 40
        E 16 89 24 40
        E 108 99 26 61
        E 51 b9 04 12
        E 11 99 33 57
        E 18 b9 04 22
        E 17 b9 04 32
        E 34 b9 04 22
        E 31 b9 04 12
        E 149 89 26 40
        E 46 b9 04 22
        E 19 89 33 40
        E 108 99 33 28
        E 106 b9 04 12
        E 74 b9 04 00
        E 131 89 33 40
        E 190 99 33 4c
        E 15 99 24 54
        E 3 b9 04 12
        E 43 b9 04 25
        E 16 b9 04 36
        E 6 b9 04 47
        E 3 b9 04 4c
        E 3 99 2c 22
        E 25 b9 04 36
        E 12 b9 04 25
        E 161 b9 04 1a
        E 26 89 33 40
        E 15 89 24 40
        E 26 b9 04 2c
        E 49 89 2c 40
        E 53 99 33 34
        E 59 99 24 3a
        E 86 b9 04 1a
        E 63 b9 04 09
        E 34 b9 04 00
        E 71 89 33 40
        E 58 89 24 40
        E 149 99 33 54
        E 26 99 26 7f
        E 28 b9 04 12
        E 34 b9 04 25
        E 12 b9 04 36
        E 41 b9 04 25
        E 21 b9 04 15
        E 149 89 33 40
        E 28 89 26 40
        E 25 b9 04 25
        E 109 99 33 20
        E 34 b9 04 15
        E 93 b9 04 03
        E 15 b9 04 00
        E 171 89 33 40
        E 165 b9 04 12
        E 22 99 33 4c
        E 7 99 24 5a
        E 18 b9 04 25
        E 15 b9 04 36
        E 9 b9 04 46
        E 4 b9 04 4c
        E 3 99 2c 1c
        E 24 b9 04 36
        E 25 b9 04 25
        E 84 b9 04 15
        E 124 89 33 40
        E 7 89 24 40
        E 48 89 2c 40
        E 35 b9 04 25
        E 55 b9 04 36
        E 14 99 33 1f
        E 130 b9 04 25
        E 56 b9 04 15
        E 58 b9 04 03
        E 16 b9 04 00
        E 53 89 33 40
        E 186 99 26 7f
        E 3 99 33 4f
        E 66 b9 04 12
        E 24 b9 04 22
        E 13 b9 04 32
        E 16 b9 04 43
        E 2 b9 04 4d
        E 4 99 2c 1c
        E 3 b9 04 53
        E 24 b9 04 43
        E 16 b9 04 32
        E 142 89 26 40
        E 3 89 33 40
        E 41 b9 04 29
        E 84 89 2c 40
        E 37 b9 04 18
        E 19 99 24 53
        E 15 99 33 30
        E 59 b9 04 06
        E 44 b9 04 00
        E 196 89 24 40
        E 14 89 33 40
        E 63 b9 04 12
        E 23 b9 04 25
        E 14 b9 04 36
        E 16 b9 04 46
        E 27 b9 04 36
        E 26 99 33 42
        E 48 b9 04 25
        E 166 b9 04 20
        E 52 b9 04 30
        E 47 89 33 40
        E 96 99 24 44
        E 6 b9 04 20
        E 12 99 33 20
        E 79 b9 04 0f
        E 77 b9 04 00
        E 140 89 24 40
        E 18 89 33 40
        E 119 99 26 7f
        E 26 b9 04 12
        E 23 99 33 4c
        E 6 b9 04 25
        E 19 b9 04 36
        E 40 b9 04 25
        E 93 b9 04 15
        E 105 89 26 40
        E 35 b9 04 25
        E 15 89 33 40
        E 150 b9 04 29
        E 30 99 33 29
        E 38 b9 04 18
        E 64 b9 04 06
        E 32 b9 04 00
        E 177 89 33 40
        E 143 b9 04 12
        E 18 99 33 47
        E 3 b9 04 25
        E 16 b9 04 36
        E 12 b9 04 46
        E 3 b9 04 4c
        E 4 99 2c 1a
        E 29 b9 04 36
        E 43 b9 04 25
        E 170 b9 04 20
        E 33 89 33 40
        E 17 b9 04 30
        E 21 89 2c 40
        E 137 99 33 2b
        E 3 99 24 4d
        E 43 b9 04 20
        E 90 b9 04 0f
        E 81 b9 04 00
        E 96 89 33 40
        E 3 89 24 40
        E 121 99 26 7a
        E 40 99 33 4f
        E 25 b9 04 12
        E 25 b9 04 22
        E 13 b9 04 32
        E 41 b9 04 22
        E 160 b9 04 18
        E 9 89 26 40
        E 40 89 33 40
        E 26 b9 04 29
        E 152 99 33 26
        E 83 b9 04 18
        E 63 b9 04 06
        E 34 b9 04 00
        E 133 89 33 40
        E 131 99 24 56
        E 24 b9 04 12
        E 23 99 33 4b
        E 6 b9 04 25
        E 12 b9 04 36
        E 16 b9 04 46
        E 24 b9 04 36
        E 75 b9 04 25
        E 130 89 24 40
        E 50 89 33 40
        E 16 b9 04 36
        E 129 99 33 27
        E 60 99 24 45
        E 15 b9 04 25
        E 63 b9 04 15
        E 70 b9 04 03
        E 13 b9 04 00
        E 93 89 33 40
        E 59 89 24 40
        E 118 99 33 51
        E 25 99 26 7e
        E 3 b9 04 12
        E 25 b9 04 22
        E 13 b9 04 32
        E 24 b9 04 22
        E 26 b9 04 12
        E 198 b9 04 22
        E 3 89 33 40
        E 22 89 26 40
        E 30 b9 04 32
        E 119 b9 04 22
        E 6 99 33 24
        E 68 b9 04 12
        E 90 b9 04 00
        E 156 89 33 40
        E 163 99 33 4b
        E 2 b9 04 12
        E 4 99 24 59
        E 23 b9 04 25
        E 21 b9 04 36
        E 37 b9 04 25
        E 60 b9 04 15
        E 168 89 33 40
        E 0 89 24 40
        E 80 b9 04 25
        E 43 b9 04 36
        E 53 99 33 30
        E 121 b9 04 25
        E 52 b9 04 15
        E 63 b9 04 03
        E 25 b9 04 00
        E 54 89 33 40
        E 191 99 33 4d
        E 6 99 26 70
        E 62 b9 04 12
        E 28 b9 04 22
        E 12 b9 04 32
        E 9 b9 04 43
        E 31 b9 04 32
        E 14 b9 04 22
        E 149 89 33 40
        E 3 89 26 40
        E 158 99 24 4d
        E 34 99 33 37
        E 65 b9 04 12
        E 109 b9 04 00
        E 106 89 24 40
        E 34 89 33 40
        E 117 b9 04 12
        E 28 b9 04 25
        E 19 b9 04 36
        E 12 99 33 3f
        E 31 b9 04 25
        E 159 b9 04 1d
        E 74 b9 04 2e
        E 47 89 33 40
        E 102 99 24 46
        E 34 99 33 23
        E 3 b9 04 1d
        E 87 b9 04 0c
        E 63 b9 04 00
        E 126 89 24 40
        E 34 89 33 40
        E 150 99 26 78
        E 6 b9 04 12
        E 16 99 33 4f
        E 9 b9 04 25
        E 18 b9 04 36
        E 25 b9 04 22
        E 59 b9 04 12
        E 159 b9 04 22
        E 21 89 26 40
        E 22 b9 04 32
        E 3 89 33 40
        E 158 b9 04 22
        E 3 99 33 2a
        E 75 b9 04 12
        E 90 b9 04 00
        E 146 89 33 40
        E 146 b9 04 12
        E 25 b9 04 25
        E 2 99 33 44
        E 10 b9 04 36
        E 56 b9 04 25
        E 171 b9 04 1d
        E 68 b9 04 2e
        E 10 89 33 40
        E 155 99 33 21
        E 15 99 24 4b
        E 25 b9 04 1d
        E 99 b9 04 0c
        E 81 b9 04 00
        E 93 89 33 40
        E 16 89 24 40
        E 124 99 26 75
        E 35 b9 04 12
        E 9 99 33 51
        E 15 b9 04 22
        E 15 b9 04 32
        E 32 b9 04 20
        E 167 b9 04 12
        E 37 89 26 40
        E 44 89 33 40
        E 3 b9 04 22
        E 56 b9 04 32
        E 115 99 33 29
        E 30 b9 04 22
        E 75 b9 04 12
        E 87 b9 04 00
        E 118 89 33 40
        E 108 99 24 4b
        E 48 b9 04 12
        E 21 99 33 42
        E 3 b9 04 25
        E 199 b9 04 1a
        E 43 89 24 40
        E 34 b9 04 2c
        E 35 89 33 40
        E 130 99 24 43
        E 43 99 33 2c
        E 38 b9 04 1a
        E 96 b9 04 09
        E 59 b9 04 00
        E 77 89 24 40
        E 44 89 33 40
        E 133 b9 04 12
        E 16 99 26 70
        E 12 b9 04 25
        E 22 99 33 47
        E 106 b9 04 15
        E 151 b9 04 25
        E 22 89 26 40
        E 32 89 33 40
        E 157 99 33 1f
        E 4 b9 04 15
        E 169 b9 04 03
        E 101 b9 04 00
        E 43 89 33 40
        E 87 99 24 47
        E 28 b9 04 12
        E 19 99 33 38
        E 15 b9 04 22
        E 100 b9 04 12
        E 152 89 24 40
        E 46 89 33 40
        E 16 b9 04 0c
        E 776 b9 04 03
        E 59 b9 04 00
        E 3267 b0 7b 00
        GUID {7D61AB64-D6CE-4E4C-83CD-8B97EE21E62A}
        IGNTEMPO 0 120 4 4
        SRCCOLOR 525
      >
    >
    <ITEM
      POSITION 564.74226757369615
      SNAPOFFS 0
      LENGTH 113.50515510671619
      LOOP 1
      ALLTAKES 0
      FADEIN 1 0 0 1 0 0
      FADEOUT 1 0 0 1 0 0
      MUTE 0
      SEL 0
      IGUID {1253580F-E1A9-49F6-94BF-FB498D1B8746}
      IID 17
      NAME "01-EZdrummer-Recorded MIDI"
      VOLPAN 1 0 1 -1
      SOFFS 0 0
      PLAYRATE 1 1 0 -1 0 0.0025
      CHANMODE 0
      GUID {3F559CA1-FB2B-4DCE-A5C2-B588C1D91AD6}
      RECPASS 7
      <SOURCE MIDI
        HASDATA 1 960 QN
        POOLEDEVTS {66F5264C-294B-4F07-AD36-C68A6FC072FB}
        E 26218 99 26 62
        E 97 89 26 40
        E 4 99 26 7f
        E 307 89 26 40
        E 108 99 26 65
        E 69 89 26 40
        E 3 99 26 7f
        E 310 89 26 40
        E 146 99 24 5a
        E 314 89 24 40
        E 187 99 26 5c
        E 104 89 26 40
        E 3 99 26 7f
        E 311 89 26 40
        E 80 99 24 57
        E 311 89 24 40
        E 186 99 2d 7f
        E 25 99 30 7f
        E 286 89 2d 40
        E 28 89 30 40
        E 140 99 24 3c
        E 312 89 24 40
        E 196 99 24 7f
        E 84 99 33 7f
        E 227 89 24 40
        E 87 89 33 40
        E 599 99 33 6b
        E 313 89 33 40
        E 254 99 26 65
        E 314 89 26 40
        E 189 99 33 6e
        E 314 89 33 40
        E 180 99 24 5e
        E 314 89 24 40
        E 167 99 26 63
        E 28 99 33 71
        E 285 89 26 40
        E 29 89 33 40
        E 636 99 33 4c
        E 310 89 33 40
        E 165 99 24 5a
        E 310 89 24 40
        E 143 99 26 68
        E 6 99 33 6d
        E 307 89 26 40
        E 6 89 33 40
        E 628 99 24 58
        E 65 99 33 60
        E 248 89 24 40
        E 65 89 33 40
        E 140 99 24 4e
        E 314 89 24 40
        E 139 99 26 6d
        E 17 99 33 4c
        E 296 89 26 40
        E 16 89 33 40
        E 575 99 24 6a
        E 55 99 33 65
        E 258 89 24 40
        E 56 89 33 40
        E 621 99 33 49
        E 314 89 33 40
        E 232 99 26 77
        E 310 89 26 40
        E 165 99 33 35
        E 310 89 33 40
        E 171 99 24 58
        E 314 89 24 40
        E 157 99 26 6a
        E 25 99 33 68
        E 289 89 26 40
        E 25 89 33 40
        E 621 99 33 2d
        E 313 89 33 40
        E 161 99 24 50
        E 314 89 24 40
        E 153 99 26 61
        E 9 99 33 68
        E 304 89 26 40
        E 9 89 33 40
        E 87 99 24 3d
        E 314 89 24 40
        E 127 99 24 47
        E 84 99 33 6a
        E 230 89 24 40
        E 83 89 33 40
        E 581 99 26 6b
        E 27 99 33 7b
        E 286 89 26 40
        E 28 89 33 40
        E 593 99 24 61
        E 49 99 33 7e
        E 264 89 24 40
        E 50 89 33 40
        E 624 99 26 5a
        E 22 99 33 75
        E 289 89 26 40
        E 24 89 33 40
        E 186 99 24 4f
        E 315 89 24 40
        E 161 99 33 60
        E 313 89 33 40
        E 202 99 24 55
        E 313 89 24 40
        E 106 99 26 6d
        E 43 99 33 73
        E 270 89 26 40
        E 44 89 33 40
        E 639 99 33 60
        E 313 89 33 40
        E 193 99 24 4e
        E 313 89 24 40
        E 161 99 26 75
        E 3 99 33 73
        E 311 89 26 40
        E 4 89 33 40
        E 549 99 24 4e
        E 78 99 33 61
        E 236 89 24 40
        E 77 89 33 40
        E 133 99 24 51
        E 313 89 24 40
        E 169 99 26 79
        E 28 99 33 7a
        E 286 89 26 40
        E 27 89 33 40
        E 639 99 24 51
        E 43 99 33 61
        E 271 89 24 40
        E 44 89 33 40
        E 127 99 24 41
        E 313 89 24 40
        E 118 99 26 6a
        E 28 99 33 6d
        E 285 89 26 40
        E 29 89 33 40
        E 173 99 24 4b
        E 314 89 24 40
        E 177 99 33 54
        E 313 89 33 40
        E 183 99 24 5a
        E 313 89 24 40
        E 166 99 26 77
        E 49 99 33 5f
        E 261 89 26 40
        E 52 89 33 40
        E 652 99 33 6d
        E 314 89 33 40
        E 152 99 24 55
        E 314 89 24 40
        E 157 99 26 77
        E 11 99 33 6d
        E 300 89 26 40
        E 12 89 33 40
        E 138 99 24 44
        E 313 89 24 40
        E 127 99 24 4a
        E 50 99 33 60
        E 263 89 24 40
        E 51 89 33 40
        E 170 99 24 54
        E 313 89 24 40
        E 150 99 26 74
        E 19 99 33 7b
        E 294 89 26 40
        E 19 89 33 40
        E 577 99 24 50
        E 103 99 33 5c
        E 210 89 24 40
        E 103 89 33 40
        E 100 99 24 46
        E 313 89 24 40
        E 161 99 26 75
        E 19 99 33 69
        E 295 89 26 40
        E 15 89 33 40
        E 159 99 24 4d
        E 314 89 24 40
        E 200 99 33 56
        E 311 89 33 40
        E 186 99 24 5c
        E 311 89 24 40
        E 180 99 26 6b
        E 9 99 33 7f
        E 301 89 26 40
        E 9 89 33 40
        E 640 99 33 74
        E 313 89 33 40
        E 150 99 24 51
        E 313 89 24 40
        E 130 99 26 78
        E 25 99 33 70
        E 289 89 26 40
        E 24 89 33 40
        E 562 99 24 51
        E 88 99 33 61
        E 226 89 24 40
        E 87 89 33 40
        E 149 99 24 4d
        E 314 89 24 40
        E 130 99 26 75
        E 12 99 33 5e
        E 301 89 26 40
        E 13 89 33 40
        E 617 99 24 58
        E 53 99 33 64
        E 261 89 24 40
        E 53 89 33 40
        E 139 99 24 44
        E 314 89 24 40
        E 162 99 26 5b
        E 9 99 33 54
        E 304 89 26 40
        E 9 89 33 40
        E 187 99 24 4e
        E 313 89 24 40
        E 133 99 33 59
        E 314 89 33 40
        E 198 99 24 59
        E 314 89 24 40
        E 164 99 26 6c
        E 19 99 33 65
        E 295 89 26 40
        E 15 89 33 40
        E 665 99 33 54
        E 313 89 33 40
        E 136 99 24 53
        E 314 89 24 40
        E 156 99 26 7b
        E 37 99 33 63
        E 277 89 26 40
        E 36 89 33 40
        E 547 99 24 56
        E 58 99 33 55
        E 254 89 24 40
        E 60 89 33 40
        E 143 99 24 46
        E 313 89 24 40
        E 115 99 26 74
        E 25 99 33 53
        E 287 89 26 40
        E 24 89 33 40
        E 632 99 24 58
        E 28 99 33 4d
        E 286 89 24 40
        E 28 89 33 40
        E 193 99 24 42
        E 313 89 24 40
        E 124 99 26 72
        E 12 99 33 4c
        E 302 89 26 40
        E 8 89 33 40
        E 187 99 24 4b
        E 313 89 24 40
        E 147 99 33 48
        E 310 89 33 40
        E 171 99 24 53
        E 313 89 24 40
        E 174 99 26 76
        E 28 99 33 54
        E 286 89 26 40
        E 28 89 33 40
        E 639 99 33 4f
        E 310 89 33 40
        E 186 99 24 58
        E 313 89 24 40
        E 172 99 33 53
        E 5 99 26 79
        E 308 89 33 40
        E 6 89 26 40
        E 522 99 24 56
        E 112 99 33 4c
        E 201 89 24 40
        E 109 89 33 40
        E 101 99 24 4b
        E 315 89 24 40
        E 164 99 26 78
        E 12 99 33 49
        E 302 89 26 40
        E 11 89 33 40
        E 622 99 24 5d
        E 34 99 33 51
        E 277 89 24 40
        E 34 89 33 40
        E 179 99 24 4b
        E 314 89 24 40
        E 121 99 26 72
        E 22 99 33 55
        E 292 89 26 40
        E 22 89 33 40
        E 155 99 24 4a
        E 313 89 24 40
        E 165 99 33 55
        E 313 89 33 40
        E 171 99 24 50
        E 310 89 24 40
        E 193 99 26 78
        E 24 99 33 70
        E 289 89 26 40
        E 25 89 33 40
        E 664 99 33 7c
        E 314 89 33 40
        E 111 99 24 53
        E 313 89 24 40
        E 209 99 33 69
        E 31 99 26 7b
        E 283 89 33 40
        E 31 89 26 40
        E 180 99 26 7f
        E 313 89 26 40
        E 103 99 24 59
        E 71 99 33 59
        E 242 89 24 40
        E 72 89 33 40
        E 155 99 24 45
        E 313 89 24 40
        E 152 99 26 65
        E 9 99 33 77
        E 304 89 26 40
        E 7 89 33 40
        E 124 99 26 7c
        E 314 89 26 40
        E 136 99 24 59
        E 56 99 33 74
        E 257 89 24 40
        E 56 89 33 40
        E 165 99 24 4d
        E 311 89 24 40
        E 164 99 26 5b
        E 46 99 33 70
        E 267 89 26 40
        E 44 89 33 40
        E 102 99 24 46
        E 314 89 24 40
        E 189 99 33 6b
        E 314 89 33 40
        E 180 99 24 5a
        E 313 89 24 40
        E 152 99 26 77
        E 40 99 33 60
        E 274 89 26 40
        E 40 89 33 40
        E 623 99 33 57
        E 315 89 33 40
        E 157 99 24 5a
        E 315 89 24 40
        E 155 99 26 7b
        E 34 99 33 58
        E 278 89 26 40
        E 35 89 33 40
        E 556 99 24 5b
        E 62 99 33 50
        E 252 89 24 40
        E 57 89 33 40
        E 172 99 24 47
        E 313 89 24 40
        E 134 99 26 75
        E 12 99 33 5d
        E 299 89 26 40
        E 15 89 33 40
        E 611 99 24 5c
        E 47 99 33 4e
        E 264 89 24 40
        E 50 89 33 40
        E 166 99 24 44
        E 314 89 24 40
        E 119 99 26 73
        E 37 99 33 4c
        E 273 89 26 40
        E 37 89 33 40
        E 155 99 24 4d
        E 314 89 24 40
        E 174 99 33 4d
        E 313 89 33 40
        E 180 99 24 54
        E 311 89 24 40
        E 174 99 26 7f
        E 20 99 33 56
        E 293 89 26 40
        E 22 89 33 40
        E 624 99 33 4d
        E 310 89 33 40
        E 171 99 24 58
        E 310 89 24 40
        E 159 99 26 78
        E 18 99 33 65
        E 295 89 26 40
        E 18 89 33 40
        E 168 99 24 57
        E 314 89 24 40
        E 158 99 24 48
        E 12 99 33 72
        E 298 89 24 40
        E 16 89 33 40
        E 189 99 24 57
        E 314 89 24 40
        E 93 99 30 7f
        E 34 99 2d 7f
        E 279 89 30 40
        E 34 89 2d 40
        E 153 99 30 7f
        E 24 99 2d 7f
        E 286 89 30 40
        E 28 89 2d 40
        E 143 99 24 56
        E 56 99 33 53
        E 257 89 24 40
        E 56 89 33 40
        E 165 99 24 51
        E 310 89 24 40
        E 161 99 26 7f
        E 13 99 33 71
        E 301 89 26 40
        E 13 89 33 40
        E 152 99 24 56
        E 313 89 24 40
        E 156 99 33 65
        E 309 89 33 40
        E 190 99 24 62
        E 314 89 24 40
        E 142 99 26 7f
        E 29 99 33 70
        E 281 89 26 40
        E 28 89 33 40
        E 615 99 33 6c
        E 311 89 33 40
        E 189 99 24 5b
        E 314 89 24 40
        E 120 99 26 67
        E 13 99 33 6b
        E 302 89 26 40
        E 11 89 33 40
        E 112 99 24 4d
        E 311 89 24 40
        E 129 99 24 48
        E 57 99 33 7d
        E 257 89 24 40
        E 56 89 33 40
        E 161 99 24 59
        E 314 89 24 40
        E 145 99 26 68
        E 32 99 33 7f
        E 282 89 26 40
        E 32 89 33 40
        E 633 99 24 51
        E 71 99 33 64
        E 242 89 24 40
        E 72 89 33 40
        E 155 99 24 4d
        E 313 89 24 40
        E 140 99 26 61
        E 28 99 33 6b
        E 285 89 26 40
        E 29 89 33 40
        E 164 99 24 4d
        E 314 89 24 40
        E 206 99 33 62
        E 312 89 33 40
        E 165 99 24 5a
        E 313 89 24 40
        E 198 99 26 6b
        E 22 99 33 60
        E 292 89 26 40
        E 19 89 33 40
        E 648 99 33 48
        E 314 89 33 40
        E 105 99 24 55
        E 314 89 24 40
        E 186 99 26 5a
        E 18 99 33 44
        E 296 89 26 40
        E 18 89 33 40
        E 550 99 24 4c
        E 71 99 33 57
        E 241 89 24 40
        E 73 89 33 40
        E 133 99 24 49
        E 310 89 24 40
        E 150 99 26 6c
        E 40 99 33 65
        E 273 89 26 40
        E 40 89 33 40
        E 612 99 24 61
        E 65 99 33 62
        E 248 89 24 40
        E 66 89 33 40
        E 161 99 24 4b
        E 313 89 24 40
        E 150 99 26 6c
        E 30 99 33 5f
        E 282 89 26 40
        E 32 89 33 40
        E 136 99 24 4e
        E 314 89 24 40
        E 193 99 33 76
        E 309 89 33 40
        E 153 99 24 55
        E 313 89 24 40
        E 150 99 26 67
        E 49 99 33 76
        E 263 89 26 40
        E 50 89 33 40
        E 680 99 33 78
        E 314 89 33 40
        E 695 99 33 67
        E 310 89 33 40
        E 693 99 33 63
        E 24 99 26 5d
        E 289 89 33 40
        E 25 89 26 40
        E 525 99 26 7a
        E 9 99 33 6b
        E 304 89 26 40
        E 10 89 33 40
        E 558 99 24 72
        E 59 99 33 7f
        E 255 89 24 40
        E 58 89 33 40
        E 609 99 33 7f
        E 310 89 33 40
        E 205 99 26 70
        E 314 89 26 40
        E 211 99 33 4e
        E 314 89 33 40
        E 623 99 24 7f
        E 29 99 33 65
        E 285 89 24 40
        E 25 89 33 40
        E 620 99 33 55
        E 313 89 33 40
        E 184 99 28 62
        E 313 89 28 40
        E 143 99 33 65
        E 314 89 33 40
        E 573 99 24 7f
        E 62 99 33 77
        E 253 89 24 40
        E 57 89 33 40
        E 504 99 26 7f
        E 121 99 33 7f
        E 193 89 26 40
        E 121 89 33 40
        E 661 99 24 7f
        E 93 99 31 74
        E 217 89 24 40
        E 96 89 31 40
        E 516 b9 04 00
        E 3 99 2e 53
        E 313 89 2e 40
        E 302 99 26 77
        E 313 89 26 40
        E 65 b9 04 00
        E 3 99 2e 7f
        E 313 89 2e 40
        E 689 99 26 7f
        E 23 99 31 4b
        E 291 89 26 40
        E 22 89 31 40
        E 578 b9 04 00
        E 3 99 2e 58
        E 313 89 2e 40
        E 193 99 26 6b
        E 315 89 26 40
        E 163 b9 04 00
        E 6 99 2e 70
        E 310 89 2e 40
        E 62 99 24 3d
        E 314 89 24 40
        E 186 99 26 54
        E 59 b9 04 00
        E 3 99 2e 7f
        E 248 89 26 40
        E 65 89 2e 40
        E 382 99 24 2e
        E 255 99 26 61
        E 40 b9 04 00
        E 3 99 2e 7f
        E 16 89 24 40
        E 255 89 26 40
        E 46 89 2e 40
        E 2 b9 04 06
        E 69 b9 04 00
        E 491 99 24 5f
        E 30 b9 04 00
        E 4 99 2e 7f
        E 279 89 24 40
        E 34 89 2e 40
        E 525 99 24 52
        E 77 b9 04 00
        E 3 99 2e 7f
        E 230 89 24 40
        E 84 89 2e 40
        E 161 99 28 3c
        E 311 89 28 40
        E 146 b9 04 00
        E 3 99 2e 7c
        E 312 89 2e 40
        E 607 99 24 7f
        E 96 b9 04 00
        E 3 99 2e 7f
        E 211 89 24 40
        E 103 89 2e 40
        E 568 b9 04 00
        E 3 99 2e 76
        E 313 89 2e 40
        E 205 99 26 5c
        E 314 89 26 40
        E 152 b9 04 00
        E 3 99 2e 7f
        E 313 89 2e 40
        E 646 99 24 72
        E 74 b9 04 00
        E 3 99 2e 7f
        E 234 89 24 40
        E 77 89 2e 40
        E 509 99 28 4c
        E 106 b9 04 00
        E 3 99 2e 7f
        E 201 89 28 40
        E 112 89 2e 40
        E 565 99 24 68
        E 74 b9 04 00
        E 3 99 2e 7f
        E 237 89 24 40
        E 76 89 2e 40
        E 538 99 24 6b
        E 46 b9 04 00
        E 3 99 2e 7f
        E 262 89 24 40
        E 52 89 2e 40
        E 211 99 26 60
        E 314 89 26 40
        E 115 b9 04 00
        E 3 99 2e 7f
        E 313 89 2e 40
        E 658 99 24 7f
        E 49 b9 04 00
        E 3 99 2e 7f
        E 262 89 24 40
        E 52 89 2e 40
        E 600 b9 04 00
        E 3 99 2e 75
        E 313 89 2e 40
        E 217 99 28 4e
        E 314 89 28 40
        E 146 b9 04 00
        E 3 99 2e 7f
        E 314 89 2e 40
        E 577 99 24 7f
        E 97 b9 04 00
        E 3 99 2e 7f
        E 214 89 24 40
        E 99 89 2e 40
        E 549 99 28 56
        E 90 b9 04 00
        E 3 99 2e 7f
        E 218 89 28 40
        E 95 89 2e 40
        E 563 99 24 6d
        E 79 b9 04 00
        E 4 99 2e 7f
        E 229 89 24 40
        E 85 89 2e 40
        E 537 99 24 64
        E 74 b9 04 00
        E 3 99 2e 7f
        E 237 89 24 40
        E 77 89 2e 40
        E 223 99 28 41
        E 314 89 28 40
        E 128 b9 04 00
        E 3 99 2e 7f
        E 313 89 2e 40
        E 596 99 24 66
        E 77 b9 04 00
        E 3 99 2e 7f
        E 230 89 24 40
        E 84 89 2e 40
        E 596 b9 04 00
        E 3 99 2e 78
        E 314 89 2e 40
        E 223 99 28 45
        E 312 89 28 40
        E 126 b9 04 00
        E 3 99 2e 7f
        E 310 89 2e 40
        E 593 99 24 57
        E 59 b9 04 00
        E 3 99 2e 7f
        E 252 89 24 40
        E 62 89 2e 40
        E 120 99 24 47
        E 314 89 24 40
        E 143 99 26 78
        E 313 89 26 40
        E 195 99 26 73
        E 312 89 26 40
        E 164 99 24 6e
        E 81 99 31 4e
        E 233 89 24 40
        E 80 89 31 40
        E 506 b9 04 00
        E 3 99 2e 74
        E 314 89 2e 40
        E 264 99 26 5c
        E 313 89 26 40
        E 202 b9 04 00
        E 3 99 2e 78
        E 310 89 2e 40
        E 584 99 24 6a
        E 50 99 33 2d
        E 260 89 24 40
        E 53 89 33 40
        E 609 99 33 54
        E 170 b9 04 12
        E 142 89 33 40
        E 137 99 26 6c
        E 311 89 26 40
        E 155 99 33 38
        E 75 b9 04 22
        E 78 b9 04 32
        E 117 b9 04 22
        E 44 89 33 40
        E 15 b9 04 12
        E 41 99 24 4c
        E 49 b9 04 00
        E 264 89 24 40
        E 230 99 26 60
        E 40 99 33 39
        E 40 b9 04 12
        E 22 b9 04 22
        E 9 b9 04 32
        E 34 b9 04 22
        E 22 b9 04 12
        E 143 89 26 40
        E 43 89 33 40
        E 336 b9 04 03
        E 6 b9 04 00
        E 217 99 26 7d
        E 47 99 33 3d
        E 115 b9 04 12
        E 31 b9 04 22
        E 121 89 26 40
        E 40 89 33 40
        E 50 b9 04 18
        E 108 b9 04 06
        E 46 b9 04 00
        E 414 b9 04 12
        E 25 99 24 55
        E 18 b9 04 22
        E 9 99 33 4e
        E 10 b9 04 32
        E 40 b9 04 22
        E 146 b9 04 12
        E 90 89 24 40
        E 24 89 33 40
        E 91 b9 04 22
        E 40 b9 04 32
        E 221 b9 04 22
        E 74 b9 04 12
        E 105 b9 04 00
        E 193 99 33 42
        E 165 b9 04 12
        E 34 b9 04 22
        E 19 b9 04 32
        E 18 b9 04 43
        E 25 b9 04 32
        E 25 b9 04 22
        E 25 89 33 40
        E 90 b9 04 12
        E 49 99 26 59
        E 229 b9 04 03
        E 82 89 26 40
        E 214 99 33 41
        E 28 b9 04 15
        E 31 b9 04 25
        E 254 89 33 40
        E 72 b9 04 15
        E 37 99 24 43
        E 59 b9 04 03
        E 28 b9 04 00
        E 226 89 24 40
        E 193 99 26 46
        E 15 b9 04 12
        E 15 99 33 49
        E 26 b9 04 22
        E 18 b9 04 32
        E 25 b9 04 22
        E 35 b9 04 12
        E 179 89 26 40
        E 31 89 33 40
        E 103 b9 04 00
        E 394 b9 04 12
        E 26 b9 04 22
        E 27 b9 04 32
        E 12 b9 04 43
        E 9 b9 04 4d
        E 3 99 2c 1c
        E 35 b9 04 32
        E 22 99 33 4c
        E 30 b9 04 22
        E 224 89 2c 40
        E 59 89 33 40
        E 65 99 24 49
        E 3 b9 04 12
        E 96 b9 04 00
        E 212 89 24 40
        E 177 b9 04 12
        E 12 99 26 52
        E 37 99 33 41
        E 4 b9 04 22
        E 15 b9 04 32
        E 21 b9 04 20
        E 32 b9 04 0f
        E 201 89 26 40
        E 41 89 33 40
        E 15 b9 04 1d
        E 130 99 26 5e
        E 10 b9 04 0c
        E 68 b9 04 00
        E 236 89 26 40
        E 112 99 24 4c
        E 12 b9 04 12
        E 34 b9 04 22
        E 22 99 33 56
        E 31 b9 04 12
        E 214 89 24 40
        E 9 b9 04 22
        E 56 89 33 40
        E 109 b9 04 27
        E 28 99 24 40
        E 50 b9 04 15
        E 68 b9 04 03
        E 16 b9 04 00
        E 180 89 24 40
        E 169 99 26 65
        E 13 b9 04 12
        E 7 99 33 3e
        E 44 b9 04 25
        E 15 b9 04 36
        E 34 b9 04 22
        E 31 b9 04 12
        E 170 89 26 40
        E 16 89 33 40
        E 42 b9 04 1a
        E 76 99 26 60
        E 50 b9 04 09
        E 46 b9 04 00
        E 215 89 26 40
        E 127 b9 04 12
        E 6 99 24 4f
        E 34 b9 04 22
        E 40 99 33 45
        E 22 b9 04 12
        E 217 89 24 40
        E 75 89 33 40
        E 22 b9 04 22
        E 133 99 24 44
        E 25 b9 04 27
        E 72 b9 04 15
        E 56 b9 04 03
        E 18 b9 04 00
        E 140 89 24 40
        E 168 99 26 65
        E 31 b9 04 12
        E 12 b9 04 25
        E 12 99 33 3c
        E 10 b9 04 36
        E 21 b9 04 46
        E 31 b9 04 36
        E 69 b9 04 25
        E 127 89 26 40
        E 56 89 33 40
        E 34 b9 04 15
        E 102 99 24 4b
        E 3 b9 04 03
        E 19 b9 04 00
        E 289 89 24 40
        E 84 b9 04 12
        E 24 b9 04 22
        E 44 b9 04 32
        E 9 b9 04 43
        E 7 b9 04 4c
        E 2 99 2c 1c
        E 25 b9 04 32
        E 13 b9 04 22
        E 12 99 33 35
        E 69 b9 04 12
        E 195 89 2c 40
        E 40 b9 04 22
        E 3 89 33 40
        E 159 99 24 55
        E 43 b9 04 12
        E 67 b9 04 00
        E 200 89 24 40
        E 162 99 26 73
        E 46 b9 04 12
        E 15 99 33 47
        E 29 b9 04 22
        E 19 b9 04 32
        E 27 b9 04 22
        E 19 b9 04 12
        E 158 89 26 40
        E 9 b9 04 03
        E 53 89 33 40
        E 24 b9 04 15
        E 85 b9 04 25
        E 137 b9 04 15
        E 62 b9 04 03
        E 12 b9 04 00
        E 314 99 33 4c
        E 11 b9 04 12
        E 23 b9 04 22
        E 18 b9 04 32
        E 56 b9 04 22
        E 201 89 33 40
        E 146 99 24 4f
        E 66 b9 04 12
        E 86 b9 04 00
        E 158 89 24 40
        E 166 99 26 69
        E 24 99 33 55
        E 34 b9 04 12
        E 18 b9 04 22
        E 28 b9 04 32
        E 19 b9 04 44
        E 29 b9 04 34
        E 13 b9 04 22
        E 57 b9 04 12
        E 90 89 26 40
        E 23 89 33 40
        E 149 b9 04 18
        E 77 b9 04 06
        E 28 b9 04 00
        E 326 99 24 4f
        E 10 b9 04 12
        E 9 b9 04 25
        E 22 b9 04 36
        E 25 99 33 43
        E 21 b9 04 22
        E 224 89 24 40
        E 68 89 33 40
        E 114 99 24 41
        E 10 b9 04 12
        E 56 b9 04 00
        E 245 89 24 40
        E 131 b9 04 12
        E 11 b9 04 27
        E 9 b9 04 38
        E 7 99 26 59
        E 18 99 33 45
        E 16 b9 04 49
        E 4 b9 04 4c
        E 3 99 2c 12
        E 25 b9 04 38
        E 21 b9 04 27
        E 93 b9 04 15
        E 134 89 26 40
        E 14 89 33 40
        E 26 89 2c 40
        E 196 b9 04 03
        E 18 b9 04 00
        E 354 b9 04 12
        E 16 b9 04 25
        E 0 99 24 4c
        E 15 b9 04 36
        E 28 99 33 4f
        E 22 b9 04 25
        E 93 b9 04 15
        E 146 b9 04 25
        E 10 89 24 40
        E 39 89 33 40
        E 156 99 24 43
        E 31 b9 04 15
        E 46 b9 04 03
        E 16 b9 04 00
        E 218 89 24 40
        E 105 b9 04 12
        E 12 b9 04 25
        E 7 b9 04 36
        E 8 99 26 63
        E 13 b9 04 46
        E 12 b9 04 4c
        E 4 99 2c 14
        E 15 99 33 4b
        E 31 b9 04 36
        E 84 b9 04 25
        E 154 89 26 40
        E 7 b9 04 1d
        E 22 89 2c 40
        E 12 89 33 40
        E 184 99 24 4c
        E 43 b9 04 0c
        E 31 b9 04 00
        E 237 89 24 40
        E 83 b9 04 12
        E 12 b9 04 25
        E 7 b9 04 36
        E 21 b9 04 46
        E 16 99 33 3c
        E 12 b9 04 36
        E 75 b9 04 25
        E 163 b9 04 1a
        E 63 89 33 40
        E 29 b9 04 2c
        E 161 99 24 54
        E 55 b9 04 1a
        E 59 b9 04 09
        E 35 b9 04 00
        E 161 89 24 40
        E 171 99 26 75
        E 25 b9 04 12
        E 28 99 33 6a
        E 2 b9 04 22
        E 31 b9 04 32
        E 9 b9 04 43
        E 7 b9 04 4c
        E 3 99 2c 20
        E 22 b9 04 32
        E 9 b9 04 22
        E 34 b9 04 12
        E 143 89 26 40
        E 50 89 33 40
        E 52 b9 04 22
        E 4 89 2c 40
        E 205 b9 04 12
        E 59 b9 04 00
        E 300 99 24 4d
        E 10 b9 04 12
        E 15 b9 04 25
        E 15 b9 04 36
        E 7 99 33 6d
        E 31 b9 04 25
        E 155 b9 04 1d
        E 68 b9 04 2e
        E 13 89 24 40
        E 47 89 33 40
        E 124 b9 04 1d
        E 18 99 24 45
        E 34 b9 04 0c
        E 35 b9 04 00
        E 245 89 24 40
        E 127 99 26 65
        E 3 b9 04 12
        E 9 b9 04 25
        E 10 b9 04 36
        E 25 99 33 59
        E 22 b9 04 47
        E 5 b9 04 4c
        E 4 99 2c 16
        E 18 b9 04 36
        E 16 b9 04 25
        E 43 b9 04 15
        E 156 89 26 40
        E 27 b9 04 09
        E 23 89 33 40
        E 27 b9 04 1a
        E 4 89 2c 40
        E 39 b9 04 2c
        E 55 99 26 63
        E 148 b9 04 1a
        E 50 b9 04 09
        E 28 b9 04 00
        E 89 89 26 40
        E 164 99 24 51
        E 47 99 33 66
        E 3 b9 04 12
        E 16 b9 04 25
        E 18 b9 04 36
        E 50 b9 04 25
        E 75 b9 04 15
        E 105 89 24 40
        E 28 b9 04 25
        E 22 89 33 40
        E 37 b9 04 36
        E 108 99 24 45
        E 25 b9 04 25
        E 47 b9 04 15
        E 40 b9 04 03
        E 13 b9 04 00
        E 189 89 24 40
        E 164 99 26 5c
        E 23 b9 04 12
        E 9 b9 04 25
        E 9 99 33 5b
        E 3 b9 04 36
        E 43 b9 04 46
        E 3 b9 04 4c
        E 4 99 2c 18
        E 18 b9 04 36
        E 16 b9 04 22
        E 43 b9 04 12
        E 140 89 26 40
        E 42 89 33 40
        E 20 b9 04 22
        E 34 89 2c 40
        E 28 99 28 4c
        E 102 b9 04 29
        E 63 b9 04 18
        E 56 b9 04 06
        E 24 b9 04 00
        E 69 89 28 40
        E 198 99 24 56
        E 13 b9 04 12
        E 18 99 33 64
        E 7 b9 04 22
        E 12 b9 04 32
        E 117 b9 04 22
        E 147 89 24 40
        E 31 89 33 40
        E 34 b9 04 32
        E 127 99 24 3e
        E 72 b9 04 22
        E 49 b9 04 12
        E 47 b9 04 00
        E 146 89 24 40
        E 146 b9 04 12
        E 8 b9 04 25
        E 10 b9 04 36
        E 4 99 26 68
        E 18 b9 04 46
        E 15 b9 04 4c
        E 3 99 2c 14
        E 19 99 33 76
        E 64 b9 04 36
        E 48 b9 04 25
        E 68 b9 04 15
        E 75 89 26 40
        E 34 89 2c 40
        E 25 89 33 40
        E 6 b9 04 25
        E 142 99 24 50
        E 88 b9 04 15
        E 49 b9 04 03
        E 13 b9 04 00
        E 161 89 24 40
        E 134 99 33 6d
        E 9 b9 04 12
        E 19 b9 04 25
        E 12 b9 04 36
        E 28 b9 04 46
        E 40 b9 04 36
        E 59 b9 04 25
        E 59 b9 04 15
        E 84 89 33 40
        E 62 b9 04 25
        E 133 99 24 4f
        E 84 b9 04 15
        E 53 b9 04 03
        E 10 b9 04 00
        E 167 89 24 40
        E 115 99 26 7f
        E 56 99 33 7f
        E 6 b9 04 12
        E 9 b9 04 25
        E 44 b9 04 36
        E 21 b9 04 46
        E 19 b9 04 36
        E 16 b9 04 25
        E 59 b9 04 15
        E 84 89 26 40
        E 52 89 33 40
        E 15 b9 04 25
        E 184 b9 04 15
        E 49 b9 04 03
        E 16 b9 04 00
        E 298 99 24 4e
        E 16 b9 04 12
        E 6 b9 04 22
        E 15 b9 04 32
        E 35 99 33 79
        E 2 b9 04 43
        E 50 b9 04 32
        E 56 b9 04 22
        E 78 b9 04 12
        E 55 89 24 40
        E 72 89 33 40
        E 6 b9 04 22
        E 28 b9 04 32
        E 121 99 24 4b
        E 81 b9 04 22
        E 50 b9 04 12
        E 43 b9 04 00
        E 137 89 24 40
        E 186 99 26 7f
        E 9 99 33 5b
        E 16 b9 04 12
        E 8 b9 04 22
        E 10 b9 04 32
        E 44 b9 04 43
        E 31 b9 04 32
        E 13 b9 04 22
        E 49 b9 04 12
        E 130 89 26 40
        E 12 89 33 40
        E 78 b9 04 22
        E 42 99 26 61
        E 185 b9 04 12
        E 53 b9 04 00
        E 74 89 26 40
        E 199 99 24 54
        E 18 b9 04 12
        E 10 99 33 5c
        E 6 b9 04 25
        E 18 b9 04 36
        E 140 b9 04 25
        E 121 89 24 40
        E 28 89 33 40
        E 75 b9 04 36
        E 102 99 24 3a
        E 50 b9 04 25
        E 43 b9 04 15
        E 47 b9 04 03
        E 12 b9 04 00
        E 161 89 24 40
        E 147 99 26 75
        E 31 b9 04 12
        E 9 99 33 6b
        E 3 b9 04 25
        E 10 b9 04 36
        E 71 b9 04 25
        E 34 b9 04 15
        E 155 89 26 40
        E 36 89 33 40
        E 35 b9 04 25
        E 38 99 26 66
        E 170 b9 04 15
        E 50 b9 04 03
        E 12 b9 04 00
        E 81 89 26 40
        E 186 99 24 53
        E 22 b9 04 12
        E 13 99 33 58
        E 3 b9 04 25
        E 6 b9 04 36
        E 68 b9 04 25
        E 115 b9 04 15
        E 87 89 24 40
        E 34 89 33 40
        E 22 b9 04 25
        E 55 b9 04 36
        E 94 99 24 42
        E 50 b9 04 22
        E 49 b9 04 12
        E 44 b9 04 00
        E 167 89 24 40
        E 124 b9 04 12
        E 9 b9 04 22
        E 7 b9 04 32
        E 9 b9 04 43
        E 19 99 26 7b
        E 12 b9 04 4c
        E 3 99 2c 1c
        E 6 b9 04 53
        E 3 99 33 66
        E 28 b9 04 43
        E 59 b9 04 32
        E 56 b9 04 22
        E 146 89 26 40
        E 13 89 2c 40
        E 12 89 33 40
        E 121 99 24 4b
        E 43 b9 04 12
        E 53 b9 04 00
        E 218 89 24 40
        E 112 b9 04 12
        E 12 b9 04 25
        E 3 b9 04 36
        E 6 b9 04 46
        E 6 99 33 66
        E 3 b9 04 4c
        E 3 99 2c 28
        E 113 b9 04 36
        E 167 b9 04 27
        E 28 89 33 40
        E 6 89 2c 40
        E 146 b9 04 30
        E 34 99 24 57
        E 28 b9 04 20
        E 62 b9 04 0f
        E 46 b9 04 00
        E 174 89 24 40
        E 140 99 26 7c
        E 15 99 33 65
        E 10 b9 04 12
        E 13 b9 04 25
        E 12 b9 04 36
        E 30 b9 04 46
        E 29 b9 04 36
        E 21 b9 04 25
        E 71 b9 04 15
        E 112 89 26 40
        E 13 89 33 40
        E 267 b9 04 03
        E 12 b9 04 00
        E 323 b9 04 12
        E 12 b9 04 25
        E 10 b9 04 36
        E 6 b9 04 46
        E 22 99 33 59
        E 43 b9 04 36
        E 159 b9 04 25
        E 86 b9 04 36
        E 22 89 33 40
        E 133 99 24 53
        E 72 b9 04 25
        E 43 b9 04 15
        E 44 b9 04 03
        E 9 b9 04 00
        E 146 89 24 40
        E 211 99 26 6c
        E 10 99 33 73
        E 3 b9 04 12
        E 12 b9 04 25
        E 47 b9 04 36
        E 18 b9 04 46
        E 19 b9 04 36
        E 12 b9 04 22
        E 35 b9 04 12
        E 158 89 26 40
        E 9 89 33 40
        E 16 b9 04 06
        E 50 b9 04 18
        E 33 b9 04 29
        E 53 99 26 3e
        E 165 b9 04 18
        E 43 b9 04 06
        E 12 b9 04 00
        E 94 89 26 40
        E 189 99 24 50
        E 22 b9 04 12
        E 12 b9 04 22
        E 13 b9 04 32
        E 6 99 33 5a
        E 133 b9 04 22
        E 81 b9 04 12
        E 47 89 24 40
        E 53 89 33 40
        E 9 b9 04 22
        E 28 b9 04 32
        E 52 b9 04 43
        E 81 99 24 3e
        E 60 b9 04 32
        E 30 b9 04 22
        E 40 b9 04 12
        E 39 b9 04 00
        E 145 89 24 40
        E 109 99 26 64
        E 43 99 33 45
        E 6 b9 04 12
        E 10 b9 04 25
        E 12 b9 04 36
        E 30 b9 04 46
        E 10 b9 04 4c
        E 3 99 2c 0e
        E 28 b9 04 36
        E 43 b9 04 25
        E 125 89 26 40
        E 33 b9 04 1d
        E 10 89 33 40
        E 74 89 2c 40
        E 10 b9 04 2e
        E 3 99 26 67
        E 127 b9 04 1d
        E 69 b9 04 0c
        E 30 b9 04 00
        E 87 89 26 40
        E 125 99 24 50
        E 47 b9 04 12
        E 21 b9 04 22
        E 3 99 33 52
        E 6 b9 04 32
        E 41 b9 04 20
        E 195 89 24 40
        E 72 89 33 40
        E 27 b9 04 30
        E 87 b9 04 41
        E 62 99 24 46
        E 53 b9 04 30
        E 37 b9 04 20
        E 44 b9 04 0f
        E 34 b9 04 00
        E 143 89 24 40
        E 127 99 26 4c
        E 6 b9 04 12
        E 9 b9 04 22
        E 10 b9 04 34
        E 13 b9 04 44
        E 24 99 33 56
        E 6 b9 04 34
        E 16 b9 04 20
        E 87 b9 04 0f
        E 140 89 26 40
        E 9 b9 04 20
        E 42 b9 04 30
        E 10 89 33 40
        E 140 99 24 50
        E 19 b9 04 20
        E 47 b9 04 0f
        E 40 b9 04 00
        E 204 89 24 40
        E 128 b9 04 12
        E 9 b9 04 22
        E 7 b9 04 34
        E 24 99 33 54
        E 15 b9 04 44
        E 10 b9 04 4d
        E 3 99 2c 18
        E 3 b9 04 54
        E 37 b9 04 44
        E 19 b9 04 34
        E 53 b9 04 22
        E 62 b9 04 12
        E 106 89 33 40
        E 27 b9 04 22
        E 6 89 2c 40
        E 41 b9 04 32
        E 87 99 24 4f
        E 56 b9 04 22
        E 56 b9 04 12
        E 53 b9 04 00
        E 148 89 24 40
        E 140 99 26 72
        E 25 b9 04 12
        E 13 b9 04 25
        E 9 b9 04 36
        E 15 99 33 56
        E 31 b9 04 46
        E 31 b9 04 36
        E 60 b9 04 25
        E 127 89 26 40
        E 34 b9 04 1d
        E 27 89 33 40
        E 172 b9 04 0c
        E 40 b9 04 00
        E 323 b9 04 12
        E 12 b9 04 22
        E 12 b9 04 32
        E 29 b9 04 43
        E 11 b9 04 4c
        E 3 99 2c 12
        E 3 99 33 41
        E 76 b9 04 32
        E 55 b9 04 22
        E 177 89 2c 40
        E 3 89 33 40
        E 118 99 24 53
        E 3 b9 04 29
        E 69 b9 04 18
        E 50 b9 04 06
        E 17 b9 04 00
        E 171 89 24 40
        E 156 99 26 66
        E 28 99 33 51
        E 8 b9 04 12
        E 10 b9 04 22
        E 10 b9 04 32
        E 47 b9 04 43
        E 36 b9 04 32
        E 16 b9 04 22
        E 66 b9 04 12
        E 86 89 26 40
        E 31 89 33 40
        E 99 b9 04 22
        E 32 b9 04 32
        E 9 99 26 66
        E 189 b9 04 22
        E 38 b9 04 12
        E 43 b9 04 00
        E 43 89 26 40
        E 206 99 24 4f
        E 40 b9 04 12
        E 11 b9 04 22
        E 7 99 33 44
        E 6 b9 04 32
        E 143 b9 04 22
        E 106 89 24 40
        E 52 89 33 40
        E 25 b9 04 32
        E 50 b9 04 43
        E 102 99 24 44
        E 25 b9 04 32
        E 31 b9 04 22
        E 35 b9 04 12
        E 46 b9 04 00
        E 172 89 24 40
        E 113 99 26 61
        E 69 99 33 3e
        E 10 b9 04 12
        E 8 b9 04 22
        E 6 b9 04 34
        E 7 b9 04 44
        E 34 b9 04 4c
        E 3 99 2c 28
        E 25 b9 04 34
        E 12 b9 04 20
        E 60 b9 04 0f
        E 79 89 26 40
        E 67 89 33 40
        E 30 b9 04 20
        E 4 99 26 72
        E 37 89 2c 40
        E 9 b9 04 30
        E 137 b9 04 20
        E 55 b9 04 0f
        E 40 b9 04 00
        E 32 89 26 40
        E 230 99 24 55
        E 24 b9 04 12
        E 13 99 33 47
        E 3 b9 04 22
        E 6 b9 04 32
        E 264 b9 04 2c
        E 3 89 24 40
        E 37 89 33 40
        E 36 b9 04 3c
        E 104 99 24 3c
        E 56 b9 04 2c
        E 36 b9 04 1a
        E 38 b9 04 09
        E 19 b9 04 00
        E 162 89 24 40
        E 148 b9 04 12
        E 10 b9 04 22
        E 0 99 28 53
        E 6 b9 04 32
        E 12 b9 04 43
        E 12 b9 04 4c
        E 3 99 2c 1e
        E 9 b9 04 53
        E 35 b9 04 43
        E 3 99 33 44
        E 53 b9 04 32
        E 47 b9 04 22
        E 133 89 28 40
        E 34 89 2c 40
        E 44 89 33 40
        E 15 b9 04 32
        E 87 99 24 51
        E 32 b9 04 22
        E 55 b9 04 12
        E 56 b9 04 00
        E 170 89 24 40
        E 135 b9 04 12
        E 9 b9 04 25
        E 11 b9 04 36
        E 19 b9 04 46
        E 13 b9 04 4c
        E 4 99 2c 0e
        E 25 99 33 42
        E 5 b9 04 36
        E 81 b9 04 25
        E 96 b9 04 15
        E 99 b9 04 25
        E 3 89 2c 40
        E 29 89 33 40
        E 9 b9 04 36
        E 130 99 24 59
        E 62 b9 04 25
        E 44 b9 04 15
        E 46 b9 04 03
        E 6 b9 04 00
        E 155 89 24 40
        E 121 99 26 68
        E 88 99 33 44
        E 15 b9 04 12
        E 6 b9 04 25
        E 9 b9 04 38
        E 40 b9 04 49
        E 3 b9 04 4c
        E 4 99 2c 26
        E 28 b9 04 38
        E 46 b9 04 27
        E 75 89 26 40
        E 84 89 33 40
        E 77 89 2c 40
        E 6 b9 04 15
        E 69 b9 04 03
        E 6 b9 04 00
        E 354 b9 04 12
        E 9 b9 04 22
        E 3 b9 04 32
        E 7 b9 04 43
        E 6 b9 04 4d
        E 3 99 2c 34
        E 3 b9 04 53
        E 68 b9 04 43
        E 13 99 33 47
        E 46 b9 04 32
        E 53 b9 04 22
        E 130 89 2c 40
        E 38 b9 04 1d
        E 47 89 33 40
        E 5 b9 04 2e
        E 121 99 24 54
        E 90 b9 04 1d
        E 65 b9 04 0c
        E 26 b9 04 00
        E 130 89 24 40
        E 165 99 26 7e
        E 33 b9 04 12
        E 10 b9 04 25
        E 3 99 33 51
        E 6 b9 04 36
        E 29 b9 04 46
        E 9 b9 04 4c
        E 2 99 2c 10
        E 13 b9 04 56
        E 16 b9 04 46
        E 18 b9 04 36
        E 171 89 26 40
        E 18 b9 04 2e
        E 32 89 33 40
        E 43 89 2c 40
        E 131 99 24 58
        E 14 b9 04 1d
        E 60 b9 04 0c
        E 31 b9 04 00
        E 208 89 24 40
        E 112 99 2d 6e
        E 9 99 30 7f
        E 28 b9 04 12
        E 12 b9 04 22
        E 6 b9 04 32
        E 10 b9 04 43
        E 34 b9 04 4c
        E 3 99 2c 22
        E 3 b9 04 53
        E 10 b9 04 63
        E 18 b9 04 53
        E 6 b9 04 43
        E 18 b9 04 32
        E 66 b9 04 22
        E 89 89 2d 40
        E 13 89 30 40
        E 66 b9 04 32
        E 24 89 2c 40
        E 128 99 24 53
        E 37 b9 04 22
        E 43 b9 04 12
        E 56 b9 04 00
        E 174 89 24 40
        E 161 99 2d 7f
        E 13 b9 04 12
        E 9 b9 04 22
        E 15 b9 04 32
        E 41 b9 04 43
        E 25 b9 04 32
        E 12 b9 04 22
        E 47 b9 04 12
        E 149 89 2d 40
        E 44 b9 04 06
        E 43 b9 04 18
        E 34 b9 04 29
        E 35 99 2d 7f
        E 12 b9 04 3a
        E 31 99 29 65
        E 124 b9 04 29
        E 37 b9 04 18
        E 34 b9 04 06
        E 15 b9 04 00
        E 56 89 2d 40
        E 47 89 29 40
        E 171 99 24 5f
        E 28 b9 04 12
        E 8 b9 04 22
        E 20 b9 04 32
        E 21 99 33 30
        E 3 b9 04 43
        E 10 b9 04 4c
        E 3 99 2c 14
        E 9 b9 04 53
        E 25 b9 04 43
        E 62 b9 04 32
        E 65 b9 04 22
        E 56 89 24 40
        E 69 b9 04 32
        E 12 89 33 40
        E 13 89 2c 40
        E 43 b9 04 43
        E 75 99 24 42
        E 52 b9 04 32
        E 27 b9 04 22
        E 44 b9 04 12
        E 44 b9 04 00
        E 142 89 24 40
        E 100 99 26 44
        E 21 99 33 40
        E 41 b9 04 12
        E 9 b9 04 25
        E 7 b9 04 36
        E 12 b9 04 46
        E 25 b9 04 4c
        E 3 99 2c 1c
        E 6 b9 04 57
        E 28 b9 04 47
        E 62 b9 04 36
        E 99 89 26 40
        E 22 89 33 40
        E 47 b9 04 30
        E 47 89 2c 40
        E 44 b9 04 20
        E 14 99 24 4b
        E 62 b9 04 0f
        E 47 b9 04 00
        E 202 89 24 40
        E 121 b9 04 12
        E 13 b9 04 22
        E 8 b9 04 32
        E 19 99 33 4b
        E 9 b9 04 43
        E 13 b9 04 4c
        E 3 99 2c 12
        E 3 b9 04 53
        E 37 b9 04 43
        E 56 b9 04 32
        E 53 b9 04 20
        E 143 89 33 40
        E 22 89 2c 40
        E 117 99 24 53
        E 90 b9 04 0f
        E 47 b9 04 00
        E 177 89 24 40
        E 162 99 26 65
        E 34 b9 04 12
        E 6 99 33 50
        E 6 b9 04 22
        E 3 b9 04 34
        E 19 b9 04 44
        E 37 b9 04 34
        E 15 b9 04 22
        E 190 89 26 40
        E 40 89 33 40
        E 56 b9 04 27
        E 62 b9 04 15
        E 51 b9 04 03
        E 8 b9 04 00
        E 350 b9 04 12
        E 13 b9 04 25
        E 7 b9 04 36
        E 3 b9 04 46
        E 43 b9 04 4d
        E 3 99 2c 28
        E 3 b9 04 56
        E 12 99 33 54
        E 19 b9 04 46
        E 47 b9 04 36
        E 47 b9 04 25
        E 164 b9 04 1d
        E 19 89 2c 40
        E 15 89 33 40
        E 44 b9 04 2e
        E 90 99 24 55
        E 89 b9 04 1d
        E 72 b9 04 0c
        E 34 b9 04 00
        E 115 89 24 40
        E 157 99 28 21
        E 9 99 26 61
        E 20 b9 04 12
        E 12 99 33 53
        E 3 b9 04 22
        E 9 b9 04 32
        E 20 b9 04 43
        E 9 b9 04 4c
        E 0 99 2c 14
        E 10 b9 04 53
        E 17 b9 04 43
        E 16 b9 04 32
        E 69 b9 04 22
        E 122 89 28 40
        E 5 89 26 40
        E 31 89 33 40
        E 40 b9 04 32
        E 3 89 2c 40
        E 134 99 24 4e
        E 100 b9 04 22
        E 49 b9 04 12
        E 50 b9 04 00
        E 111 89 24 40
        E 137 99 33 4e
        E 3 99 26 47
        E 68 b9 04 12
        E 34 b9 04 22
        E 19 b9 04 32
        E 9 b9 04 43
        E 6 b9 04 4c
        E 3 99 2c 20
        E 3 b9 04 53
        E 16 b9 04 43
        E 13 b9 04 32
        E 22 b9 04 22
        E 120 89 33 40
        E 3 89 26 40
        E 78 99 26 56
        E 61 89 2c 40
        E 85 b9 04 29
        E 77 b9 04 18
        E 51 b9 04 06
        E 21 b9 04 00
        E 19 89 26 40
        E 226 99 33 4c
        E 7 99 24 50
        E 37 b9 04 12
        E 18 b9 04 22
        E 18 b9 04 32
        E 57 b9 04 22
        E 177 89 33 40
        E 5 89 24 40
        E 3 b9 04 32
        E 119 99 26 3e
        E 47 b9 04 22
        E 68 b9 04 12
        E 61 b9 04 00
        E 134 89 26 40
        E 180 b9 04 12
        E 10 b9 04 22
        E 9 b9 04 32
        E 6 99 24 56
        E 10 99 33 56
        E 24 b9 04 43
        E 31 b9 04 32
        E 52 b9 04 22
        E 100 b9 04 12
        E 93 89 24 40
        E 10 89 33 40
        E 18 b9 04 22
        E 41 b9 04 32
        E 109 99 24 35
        E 59 b9 04 22
        E 46 b9 04 12
        E 47 b9 04 00
        E 162 89 24 40
        E 148 99 26 54
        E 6 b9 04 12
        E 13 b9 04 25
        E 9 99 33 56
        E 3 b9 04 36
        E 25 b9 04 46
        E 6 b9 04 4c
        E 7 99 2c 12
        E 6 b9 04 56
        E 18 b9 04 46
        E 16 b9 04 36
        E 161 b9 04 29
        E 44 89 26 40
        E 27 89 33 40
        E 41 89 2c 40
        E 99 b9 04 18
        E 7 99 24 4b
        E 49 b9 04 06
        E 25 b9 04 00
        E 239 89 24 40
        E 103 b9 04 12
        E 8 b9 04 22
        E 7 b9 04 32
        E 32 b9 04 43
        E 15 b9 04 4c
        E 5 99 2c 10
        E 21 99 33 62
        E 14 b9 04 32
        E 50 b9 04 22
        E 84 b9 04 12
        E 125 b9 04 22
        E 17 89 2c 40
        E 19 b9 04 32
        E 5 89 33 40
        E 156 99 24 4d
        E 34 b9 04 22
        E 53 b9 04 12
        E 53 b9 04 00
        E 169 89 24 40
        E 176 99 26 5c
        E 30 b9 04 12
        E 10 b9 04 22
        E 6 b9 04 32
        E 6 99 33 5b
        E 6 b9 04 43
        E 19 b9 04 4c
        E 3 99 2c 1c
        E 25 b9 04 32
        E 16 b9 04 22
        E 192 89 26 40
        E 53 89 33 40
        E 24 89 2c 40
        E 84 b9 04 12
        E 62 b9 04 00
        E 361 b9 04 12
        E 6 b9 04 22
        E 6 b9 04 32
        E 9 b9 04 43
        E 40 b9 04 4c
        E 4 99 2c 1e
        E 2 b9 04 54
        E 22 99 33 5e
        E 13 b9 04 44
        E 52 b9 04 34
        E 62 b9 04 22
        E 159 89 2c 40
        E 28 89 33 40
        E 28 b9 04 32
        E 130 99 24 50
        E 65 b9 04 22
        E 53 b9 04 12
        E 50 b9 04 00
        E 139 89 24 40
        E 152 99 26 43
        E 13 b9 04 12
        E 21 99 33 54
        E 3 b9 04 22
        E 20 b9 04 32
        E 15 b9 04 43
        E 5 b9 04 4c
        E 4 99 2c 1e
        E 3 b9 04 53
        E 22 b9 04 43
        E 9 b9 04 32
        E 60 b9 04 22
        E 139 89 26 40
        E 34 89 33 40
        E 44 b9 04 32
        E 3 89 2c 40
        E 69 99 24 4d
        E 65 b9 04 22
        E 61 b9 04 12
        E 56 b9 04 00
        E 127 89 24 40
        E 220 99 26 4d
        E 3 99 33 52
        E 13 b9 04 12
        E 21 b9 04 25
        E 29 b9 04 36
        E 41 b9 04 25
        E 25 b9 04 15
        E 179 89 26 40
        E 3 89 33 40
        E 3 b9 04 09
        E 53 b9 04 1a
        E 35 b9 04 2c
        E 62 b9 04 3c
        E 0 99 26 5d
        E 130 b9 04 2c
        E 37 b9 04 1a
        E 41 b9 04 09
        E 25 b9 04 00
        E 80 89 26 40
        E 183 99 33 5b
        E 13 99 24 4b
        E 37 b9 04 12
        E 14 b9 04 22
        E 29 b9 04 32
        E 18 b9 04 43
        E 35 b9 04 32
        E 34 b9 04 22
        E 90 b9 04 12
        E 41 89 33 40
        E 15 89 24 40
        E 90 b9 04 22
        E 50 b9 04 32
        E 62 99 26 4e
        E 87 b9 04 22
        E 49 b9 04 12
        E 56 b9 04 00
        E 114 89 26 40
        E 141 99 24 4b
        E 28 b9 04 12
        E 18 b9 04 22
        E 3 99 33 55
        E 19 b9 04 32
        E 21 b9 04 43
        E 60 b9 04 32
        E 165 89 24 40
        E 49 89 33 40
        E 130 99 24 39
        E 6 b9 04 22
        E 44 b9 04 12
        E 52 b9 04 00
        E 209 89 24 40
        E 121 b9 04 12
        E 8 b9 04 22
        E 7 b9 04 34
        E 13 b9 04 44
        E 9 99 28 3f
        E 15 b9 04 4c
        E 3 99 2c 1e
        E 10 b9 04 55
        E 6 99 33 59
        E 6 b9 04 65
        E 19 b9 04 54
        E 12 b9 04 44
        E 62 b9 04 34
        E 81 b9 04 22
        E 97 89 28 40
        E 21 89 2c 40
        E 13 89 33 40
        E 129 99 24 4a
        E 23 b9 04 12
        E 64 b9 04 00
        E 227 89 24 40
        E 102 b9 04 12
        E 7 b9 04 25
        E 10 b9 04 36
        E 25 b9 04 46
        E 33 99 33 5e
        E 6 b9 04 36
        E 165 b9 04 29
        E 143 89 33 40
        E 121 99 24 4c
        E 3 b9 04 18
        E 59 b9 04 06
        E 28 b9 04 00
        E 223 89 24 40
        E 143 b9 04 12
        E 9 b9 04 25
        E 11 b9 04 38
        E 2 b9 04 49
        E 3 b9 04 4c
        E 3 99 2c 32
        E 3 99 28 4f
        E 44 99 33 63
        E 21 b9 04 38
        E 59 b9 04 27
        E 170 b9 04 20
        E 14 89 2c 40
        E 0 89 28 40
        E 49 89 33 40
        E 118 b9 04 0f
        E 55 b9 04 00
        E 364 b9 04 12
        E 9 b9 04 25
        E 7 b9 04 36
        E 9 b9 04 46
        E 34 b9 04 4c
        E 3 99 2c 24
        E 4 99 33 5f
        E 37 b9 04 36
        E 65 b9 04 25
        E 105 b9 04 15
        E 99 89 2c 40
        E 7 89 33 40
        E 12 b9 04 25
        E 149 99 24 50
        E 81 b9 04 15
        E 59 b9 04 03
        E 9 b9 04 00
        E 162 89 24 40
        E 164 99 26 4d
        E 12 99 33 6d
        E 7 b9 04 12
        E 21 b9 04 25
        E 31 b9 04 36
        E 41 b9 04 25
        E 22 b9 04 15
        E 176 89 26 40
        E 19 89 33 40
        E 28 b9 04 25
        E 87 99 24 45
        E 46 b9 04 15
        E 44 b9 04 03
        E 15 b9 04 00
        E 209 89 24 40
        E 152 b9 04 12
        E 5 b9 04 25
        E 7 b9 04 38
        E 6 b9 04 4a
        E 3 99 24 45
        E 3 b9 04 4c
        E 4 99 2c 32
        E 36 b9 04 5a
        E 10 99 33 4f
        E 25 b9 04 4a
        E 18 b9 04 3a
        E 63 b9 04 29
        E 74 b9 04 18
        E 81 89 24 40
        E 6 89 2c 40
        E 37 b9 04 29
        E 3 89 33 40
        E 31 b9 04 3a
        E 93 99 24 3d
        E 124 b9 04 29
        E 35 b9 04 18
        E 34 b9 04 06
        E 18 b9 04 00
        E 103 89 24 40
        E 161 99 26 6f
        E 16 99 33 51
        E 76 b9 04 12
        E 6 b9 04 22
        E 11 b9 04 32
        E 3 b9 04 43
        E 5 b9 04 4d
        E 4 99 2c 36
        E 3 b9 04 53
        E 42 b9 04 43
        E 14 b9 04 32
        E 19 b9 04 20
        E 66 b9 04 0f
        E 49 89 26 40
        E 12 89 33 40
        E 105 89 2c 40
        E 6 b9 04 20
        E 206 b9 04 0f
        E 37 b9 04 00
        E 283 99 24 52
        E 15 b9 04 12
        E 15 b9 04 25
        E 10 99 33 62
        E 9 b9 04 36
        E 196 b9 04 27
        E 65 89 24 40
        E 40 89 33 40
        E 29 b9 04 38
        E 108 99 24 3c
        E 28 b9 04 27
        E 52 b9 04 15
        E 41 b9 04 03
        E 13 b9 04 00
        E 180 89 24 40
        E 148 b9 04 12
        E 6 99 26 61
        E 7 b9 04 25
        E 6 99 33 65
        E 3 b9 04 38
        E 3 b9 04 49
        E 3 b9 04 4c
        E 3 99 2c 34
        E 31 b9 04 5a
        E 30 b9 04 4a
        E 54 b9 04 3a
        E 34 b9 04 29
        E 140 89 26 40
        E 10 89 33 40
        E 11 89 2c 40
        E 16 b9 04 1d
        E 143 99 24 50
        E 35 b9 04 25
        E 55 b9 04 15
        E 50 b9 04 03
        E 11 b9 04 00
        E 163 89 24 40
        E 157 b9 04 12
        E 7 b9 04 22
        E 3 99 33 61
        E 6 b9 04 32
        E 16 b9 04 43
        E 19 b9 04 4c
        E 3 99 2c 16
        E 40 b9 04 32
        E 84 b9 04 22
        E 146 89 33 40
        E 40 89 2c 40
        E 34 b9 04 32
        E 121 99 24 59
        E 48 b9 04 22
        E 58 b9 04 12
        E 52 b9 04 00
        E 153 89 24 40
        E 150 99 26 47
        E 33 99 33 74
        E 37 b9 04 12
        E 10 b9 04 22
        E 5 b9 04 34
        E 15 b9 04 44
        E 13 b9 04 4c
        E 4 99 2c 18
        E 21 b9 04 34
        E 16 b9 04 20
        E 161 89 26 40
        E 28 89 33 40
        E 88 89 2c 40
        E 41 b9 04 0f
        E 51 b9 04 00
        E 373 b9 04 12
        E 6 b9 04 22
        E 3 b9 04 34
        E 6 b9 04 44
        E 7 b9 04 4c
        E 3 99 2c 2e
        E 40 b9 04 54
        E 34 b9 04 44
        E 18 99 33 47
        E 38 b9 04 34
        E 47 b9 04 22
        E 74 b9 04 12
        E 59 89 2c 40
        E 93 b9 04 22
        E 3 89 33 40
        E 23 b9 04 32
        E 55 b9 04 43
        E 50 99 24 57
        E 105 b9 04 32
        E 37 b9 04 22
        E 41 b9 04 12
        E 46 b9 04 00
        E 81 89 24 40
        E 152 99 26 5a
        E 105 89 26 40
        E 3 99 26 78
        E 3 b9 04 12
        E 7 b9 04 22
        E 21 b9 04 32
        E 25 b9 04 43
        E 6 b9 04 4c
        E 0 99 2c 1e
        E 4 b9 04 54
        E 27 b9 04 44
        E 13 b9 04 34
        E 62 b9 04 22
        E 143 89 26 40
        E 65 89 2c 40
        E 43 99 24 53
        E 53 b9 04 29
        E 66 b9 04 18
        E 55 b9 04 06
        E 32 b9 04 00
        E 105 89 24 40
        E 146 99 2d 7f
        E 62 99 30 7f
        E 22 b9 04 12
        E 42 b9 04 22
        E 23 b9 04 32
        E 9 b9 04 43
        E 7 b9 04 4d
        E 3 99 2c 20
        E 3 b9 04 53
        E 18 b9 04 43
        E 12 b9 04 32
        E 16 b9 04 22
        E 96 89 2d 40
        E 63 89 30 40
        E 90 99 24 4e
        E 15 89 2c 40
        E 140 b9 04 12
        E 71 b9 04 00
        E 88 89 24 40
        E 142 99 26 59
        E 83 99 28 66
        E 59 b9 04 12
        E 50 b9 04 22
        E 13 b9 04 32
        E 12 b9 04 43
        E 28 b9 04 32
        E 69 89 26 40
        E 83 89 28 40
        E 65 b9 04 22
        E 43 b9 04 12
        E 50 b9 04 00
        E 470 99 24 7f
        E 14 b9 04 12
        E 10 b9 04 22
        E 6 b9 04 32
        E 7 99 33 7f
        E 3 b9 04 43
        E 12 99 31 62
        E 5 b9 04 4c
        E 3 99 2c 1e
        E 32 b9 04 32
        E 13 b9 04 20
        E 16 b9 04 0f
        E 58 b9 04 00
        E 130 89 24 40
        E 38 89 33 40
        E 18 89 31 40
        E 6 89 2c 40
        E 631 b9 04 00
        E 3 99 2e 7f
        E 310 89 2e 40
        E 192 99 26 7d
        E 310 89 26 40
        E 212 b9 04 00
        E 3 99 2e 70
        E 311 89 2e 40
        E 105 99 24 55
        E 308 89 24 40
        E 120 99 26 7f
        E 62 b9 04 00
        E 3 99 2e 7f
        E 246 89 26 40
        E 65 89 2e 40
        E 621 b9 04 00
        E 3 99 2e 7d
        E 310 89 2e 40
        E 221 99 26 7f
        E 309 89 26 40
        E 153 b9 04 00
        E 3 99 2e 5b
        E 311 89 2e 40
        E 71 99 24 51
        E 316 89 24 40
        E 168 99 28 60
        E 41 b9 04 00
        E 3 99 2e 7a
        E 267 89 28 40
        E 46 89 2e 40
        E 143 99 24 43
        E 311 89 24 40
        E 105 99 26 6c
        E 30 b9 04 00
        E 4 99 2e 7a
        E 279 89 26 40
        E 35 89 2e 40
        E 155 99 26 50
        E 310 89 26 40
        E 161 99 24 54
        E 29 b9 04 00
        E 3 99 2e 7f
        E 282 89 24 40
        E 29 89 2e 40
        E 179 99 24 46
        E 311 89 24 40
        E 120 99 26 7d
        E 50 b9 04 00
        E 4 99 2e 7f
        E 257 89 26 40
        E 53 89 2e 40
        E 139 99 24 53
        E 311 89 24 40
        E 186 b9 04 00
        E 3 99 2e 65
        E 310 89 2e 40
        E 183 99 24 5c
        E 311 89 24 40
        E 118 99 26 76
        E 62 b9 04 00
        E 0 99 2e 7f
        E 252 89 26 40
        E 61 89 2e 40
        E 609 b9 04 00
        E 2 99 2e 7f
        E 311 89 2e 40
        E 140 99 24 53
        E 314 89 24 40
        E 152 99 26 48
        E 40 b9 04 00
        E 3 99 2e 76
        E 270 89 26 40
        E 41 89 2e 40
        E 59 99 24 39
        E 99 89 24 40
        E 6 99 24 1e
        E 308 89 24 40
        E 75 99 24 49
        E 49 b9 04 00
        E 2 99 2e 78
        E 259 89 24 40
        E 56 89 2e 40
        E 139 99 24 44
        E 310 89 24 40
        E 155 99 26 7f
        E 34 b9 04 00
        E 3 99 2e 7f
        E 273 89 26 40
        E 41 89 2e 40
        E 593 99 24 56
        E 69 b9 04 00
        E 3 99 2e 7f
        E 238 89 24 40
        E 72 89 2e 40
        E 162 99 24 4d
        E 313 89 24 40
        E 133 99 26 5c
        E 38 b9 04 00
        E 3 99 2e 7f
        E 269 89 26 40
        E 41 89 2e 40
        E 152 99 24 57
        E 311 89 24 40
        E 174 b9 04 00
        E 2 99 2e 7f
        E 311 89 2e 40
        E 192 99 24 60
        E 310 89 24 40
        E 171 99 26 7b
        E 57 b9 04 00
        E 2 99 2e 7f
        E 252 89 26 40
        E 59 89 2e 40
        E 627 b9 04 00
        E 3 99 2e 7f
        E 310 89 2e 40
        E 196 99 24 57
        E 310 89 24 40
        E 106 99 26 64
        E 37 b9 04 00
        E 3 99 2e 7f
        E 270 89 26 40
        E 44 89 2e 40
        E 86 99 24 50
        E 313 89 24 40
        E 156 99 24 43
        E 59 b9 04 00
        E 3 99 2e 7f
        E 252 89 24 40
        E 61 89 2e 40
        E 143 99 24 4f
        E 314 89 24 40
        E 149 99 26 4f
        E 25 b9 04 00
        E 6 99 2e 7f
        E 282 89 26 40
        E 31 89 2e 40
        E 140 99 28 3f
        E 314 89 28 40
        E 152 99 24 5a
        E 47 b9 04 00
        E 3 99 2e 7f
        E 260 89 24 40
        E 50 89 2e 40
        E 208 99 24 49
        E 314 89 24 40
        E 139 99 26 7f
        E 28 b9 04 00
        E 3 99 2e 7f
        E 283 89 26 40
        E 27 89 2e 40
        E 150 99 24 53
        E 310 89 24 40
        E 183 b9 04 00
        E 3 99 2e 79
        E 310 89 2e 40
        E 193 99 24 5c
        E 314 89 24 40
        E 108 99 26 7d
        E 52 b9 04 00
        E 3 99 2e 7f
        E 259 89 26 40
        E 55 89 2e 40
        E 602 b9 04 00
        E 3 99 2e 7b
        E 311 89 2e 40
        E 174 99 24 52
        E 310 89 24 40
        E 107 99 28 44
        E 35 b9 04 00
        E 4 99 2e 7f
        E 273 89 28 40
        E 41 89 2e 40
        E 62 99 24 3e
        E 310 89 24 40
        E 162 99 24 3e
        E 52 b9 04 00
        E 3 99 2e 7f
        E 255 89 24 40
        E 56 89 2e 40
        E 174 99 24 52
        E 310 89 24 40
        E 140 99 28 47
        E 56 b9 04 00
        E 3 99 2e 7f
        E 251 89 28 40
        E 59 89 2e 40
        E 655 99 24 7f
        E 40 99 31 58
        E 271 89 24 40
        E 44 89 31 40
        E 524 b9 04 00
        E 2 99 2e 7f
        E 312 89 2e 40
        E 263 99 26 6c
        E 311 89 26 40
        E 160 b9 04 00
        E 3 99 2e 7f
        E 310 89 2e 40
        E 678 99 24 7f
        E 53 b9 04 00
        E 2 99 2e 7f
        E 256 89 24 40
        E 58 89 2e 40
        E 609 b9 04 00
        E 3 99 2e 7f
        E 310 89 2e 40
        E 214 99 28 5e
        E 314 89 28 40
        E 135 b9 04 00
        E 4 99 2e 7f
        E 310 89 2e 40
        E 636 99 24 7f
        E 72 b9 04 00
        E 7 99 2e 7f
        E 235 89 24 40
        E 78 89 2e 40
        E 525 99 26 7f
        E 62 b9 04 00
        E 4 99 2e 7f
        E 248 89 26 40
        E 64 89 2e 40
        E 656 99 24 7f
        E 34 99 31 58
        E 276 89 24 40
        E 34 89 31 40
        E 562 99 24 7d
        E 30 b9 04 00
        E 4 99 2e 7f
        E 278 89 24 40
        E 32 89 2e 40
        E 205 99 28 5a
        E 310 89 28 40
        E 165 b9 04 00
        E 3 99 2e 7f
        E 311 89 2e 40
        E 586 99 24 7f
        E 75 b9 04 00
        E 2 99 2e 7f
        E 233 89 24 40
        E 81 89 2e 40
        E 603 b9 04 00
        E 2 99 2e 7f
        E 311 89 2e 40
        E 233 99 28 61
        E 314 89 28 40
        E 159 b9 04 00
        E 2 99 2e 7f
        E 310 89 2e 40
        E 547 99 24 7f
        E 96 b9 04 00
        E 3 99 2e 7f
        E 211 89 24 40
        E 96 89 2e 40
        E 556 99 26 74
        E 43 b9 04 00
        E 3 99 2e 7f
        E 267 89 26 40
        E 44 89 2e 40
        E 621 99 24 7f
        E 43 99 31 5b
        E 267 89 24 40
        E 46 89 31 40
        E 565 99 24 7e
        E 29 b9 04 00
        E 3 99 2e 72
        E 278 89 24 40
        E 32 89 2e 40
        E 229 99 28 4c
        E 314 89 28 40
        E 103 b9 04 00
        E 3 99 2e 7f
        E 310 89 2e 40
        E 633 99 24 7f
        E 84 b9 04 00
        E 3 99 2e 7f
        E 224 89 24 40
        E 87 89 2e 40
        E 574 b9 04 00
        E 3 99 2e 76
        E 310 89 2e 40
        E 209 99 28 4b
        E 313 89 28 40
        E 130 b9 04 00
        E 3 99 2e 7f
        E 314 89 2e 40
        E 593 99 24 7f
        E 62 b9 04 00
        E 2 99 2e 7f
        E 246 89 24 40
        E 65 89 2e 40
        E 602 99 28 69
        E 43 b9 04 00
        E 4 99 2e 7f
        E 264 89 28 40
        E 47 89 2e 40
        E 623 99 24 7f
        E 19 99 31 68
        E 295 89 24 40
        E 15 89 31 40
        E 577 99 24 7e
        E 22 b9 04 00
        E 3 99 2e 7f
        E 286 89 24 40
        E 25 89 2e 40
        E 204 99 28 56
        E 314 89 28 40
        E 146 b9 04 00
        E 2 99 2e 7f
        E 314 89 2e 40
        E 612 99 24 7f
        E 62 b9 04 00
        E 4 99 2e 7f
        E 248 89 24 40
        E 65 89 2e 40
        E 634 b9 04 00
        E 2 99 2e 7f
        E 311 89 2e 40
        E 154 99 28 45
        E 314 89 28 40
        E 171 b9 04 00
        E 3 99 2e 7f
        E 310 89 2e 40
        E 577 99 24 7f
        E 70 b9 04 00
        E 2 99 2e 7f
        E 242 89 24 40
        E 68 89 2e 40
        E 587 99 26 7f
        E 32 b9 04 00
        E 2 99 2e 7f
        E 280 89 26 40
        E 34 89 2e 40
        E 642 99 24 7f
        E 34 99 31 77
        E 277 89 24 40
        E 38 89 31 40
        E 539 99 24 73
        E 28 b9 04 00
        E 3 99 2e 7f
        E 283 89 24 40
        E 27 89 2e 40
        E 190 99 26 36
        E 314 89 26 40
        E 149 b9 04 00
        E 3 99 2e 7f
        E 310 89 2e 40
        E 618 99 24 7f
        E 58 b9 04 00
        E 4 99 2e 7f
        E 248 89 24 40
        E 62 89 2e 40
        E 593 b9 04 00
        E 3 99 2e 7f
        E 311 89 2e 40
        E 217 99 26 70
        E 310 89 26 40
        E 180 b9 04 00
        E 3 99 2e 7f
        E 311 89 2e 40
        E 607 99 24 7f
        E 81 b9 04 00
        E 0 99 2e 7f
        E 233 89 24 40
        E 78 89 2e 40
        E 552 99 28 5a
        E 59 b9 04 00
        E 4 99 2e 7f
        E 251 89 28 40
        E 59 89 2e 40
        E 665 99 31 7b
        E 3 99 24 7f
        E 307 89 31 40
        E 3 89 24 40
        E 615 99 30 7f
        E 310 89 30 40
        E 227 99 28 71
        E 310 89 28 40
        E 664 99 24 57
        E 311 89 24 40
        E 129 99 2d 7f
        E 23 99 28 7f
        E 288 89 2d 40
        E 28 89 28 40
        E 588 99 26 58
        E 309 89 26 40
        E 152 99 30 7f
        E 317 89 30 40
        E 139 99 2d 7f
        E 311 89 2d 40
        E 232 99 24 7f
        E 310 89 24 40
        E 108 99 2d 7f
        E 5 99 28 72
        E 93 b9 04 12
        E 214 89 2d 40
        E 4 89 28 40
        E 134 b9 04 1a
        E 32 99 24 55
        E 313 89 24 40
        E 193 99 29 7f
        E 60 99 2d 7f
        E 120 b9 04 12
        E 131 89 29 40
        E 62 89 2d 40
        E 233 b9 04 18
        E 195 b9 04 06
        E 193 99 24 7f
        E 19 99 33 7f
        E 37 99 31 7f
        E 149 b9 04 00
        E 105 89 24 40
        E 22 89 33 40
        E 38 89 31 40
        E 518 99 3b 3e
        E 313 89 3b 40
        E 201 99 33 0c
        E 63 99 28 7f
        E 248 89 33 40
        E 65 89 28 40
        E 584 99 24 73
        E 313 89 24 40
        E 94 99 26 7f
        E 136 99 28 7f
        E 53 b9 04 0c
        E 124 89 26 40
        E 3 b9 04 1d
        E 131 89 28 40
        E 62 b9 04 0c
        E 87 b9 04 00
        E 292 b9 04 12
        E 30 b9 04 22
        E 18 b9 04 32
        E 159 b9 04 3e
        E 132 b9 04 2e
        E 85 b9 04 1d
        E 100 99 24 7f
        E 13 b9 04 0c
        E 102 b9 04 00
        E 196 89 24 40
        E 94 b9 04 12
        E 32 b9 04 22
        E 16 b9 04 32
        E 13 99 30 7d
        E 43 b9 04 22
        E 74 89 30 40
        E 0 99 30 7f
        E 94 b9 04 18
        E 145 b9 04 29
        E 72 89 30 40
        E 96 b9 04 18
        E 13 99 24 72
        E 146 b9 04 06
        E 93 b9 04 00
        E 71 89 24 40
        E 106 b9 04 12
        E 40 b9 04 22
        E 21 99 2d 7f
        E 13 b9 04 32
        E 41 b9 04 22
        E 80 89 2d 40
        E 6 99 2d 7f
        E 88 b9 04 1a
        E 220 89 2d 40
        E 6 99 24 6b
        E 62 b9 04 09
        E 252 89 24 40
        E 179 99 29 74
        E 72 89 29 40
        E 3 99 29 7f
        E 310 89 29 40
        E 230 99 26 7f
        E 310 89 26 40
        E 137 99 24 7f
        E 43 99 33 7f
        E 267 89 24 40
        E 44 89 33 40
        E 59 b9 04 15
        E 457 b9 04 18
        E 2 99 1a 55
        E 311 89 1a 40
        E 145 b9 04 0c
        E 120 99 28 7f
        E 188 b9 04 06
        E 123 89 28 40
        E 364 b9 04 18
        E 137 b9 04 29
        E 121 99 24 71
        E 134 b9 04 18
        E 176 89 24 40
        E 22 b9 04 09
        E 133 99 30 7f
        E 28 b9 04 1a
        E 28 b9 04 2c
        E 74 99 28 7f
        E 88 b9 04 34
        E 62 b9 04 22
        E 31 89 30 40
        E 34 b9 04 12
        E 86 b9 04 00
        E 9 89 28 40
        E 371 b9 04 12
        E 43 b9 04 22
        E 15 b9 04 32
        E 41 b9 04 22
        E 214 b9 04 32
        E 149 b9 04 22
        E 75 b9 04 12
        E 78 99 24 62
        E 9 b9 04 00
        E 301 89 24 40
        E 123 b9 04 12
        E 19 b9 04 22
        E 44 b9 04 32
        E 3 99 2d 7f
        E 12 b9 04 43
        E 3 b9 04 4c
        E 3 99 2c 24
        E 4 99 30 7f
        E 2 b9 04 53
        E 19 b9 04 43
        E 12 b9 04 32
        E 10 b9 04 22
        E 245 89 2d 40
        E 19 89 2c 40
        E 3 89 30 40
        E 43 b9 04 12
        E 65 b9 04 00
        E 69 99 24 65
        E 314 89 24 40
        E 30 b9 04 12
        E 19 b9 04 25
        E 12 99 26 5f
        E 35 b9 04 36
        E 13 b9 04 46
        E 5 b9 04 4d
        E 3 99 2c 1e
        E 25 b9 04 36
        E 16 b9 04 25
        E 71 89 26 40
        E 3 99 26 5c
        E 193 b9 04 15
        E 3 89 2c 40
        E 65 b9 04 03
        E 9 b9 04 00
        E 44 89 26 40
        E 18 99 24 51
        E 230 89 24 40
        E 2 99 24 10
        E 84 89 24 40
        E 3 99 24 67
        E 112 b9 04 12
        E 78 b9 04 22
        E 16 b9 04 32
        E 31 99 30 45
        E 6 99 2d 7f
        E 4 b9 04 22
        E 61 89 24 40
        E 177 b9 04 12
        E 62 89 30 40
        E 7 89 2d 40
        E 39 b9 04 00
        E 535 b0 7b 00
        GUID {3126C6C2-2DE5-48D3-ABB1-76C65B3E545E}
        IGNTEMPO 0 120 4 4
        SRCCOLOR 528
      >
    >
    <ITEM
      POSITION 681.64948453608247
      SNAPOFFS 0
      LENGTH 23.74033458400538
      LOOP 1
      ALLTAKES 0
      FADEIN 1 0 0 1 0 0
      FADEOUT 1 0 0 1 0 0
      MUTE 0
      SEL 0
      IGUID {8DDFB407-5E63-4138-9175-CA8EE81B76CE}
      IID 17
      NAME "01-EZdrummer-Recorded MIDI"
      VOLPAN 1 0 1 -1
      SOFFS 3.40206185567013 11
      PLAYRATE 1 1 0 -1 0 0.0025
      CHANMODE 0
      GUID {968191B3-CC0C-492B-8825-0BBF08A08562}
      RECPASS 7
      <SOURCE MIDI
        HASDATA 1 960 QN
        POOLEDEVTS {C0F91CCC-BC22-4E76-80A4-1E3EFBBFBD96}
        E 34 99 24 7f
        E 15 b9 04 12
        E 12 b9 04 25
        E 44 99 33 68
        E 25 b9 04 15
        E 165 b9 04 09
        E 49 89 24 40
        E 72 89 33 40
        E 161 b9 04 15
        E 442 99 33 59
        E 36 b9 04 03
        E 31 b9 04 00
        E 242 89 33 40
        E 19 b9 04 12
        E 167 99 28 62
        E 72 b9 04 06
        E 238 89 28 40
        E 94 b9 04 0f
        E 96 99 33 56
        E 122 b9 04 20
        E 52 b9 04 30
        E 80 b9 04 41
        E 57 89 33 40
        E 80 b9 04 30
        E 47 b9 04 20
        E 46 99 24 4d
        E 25 b9 04 0f
        E 62 b9 04 00
        E 223 89 24 40
        E 168 99 28 65
        E 6 99 33 6b
        E 22 b9 04 12
        E 65 b9 04 25
        E 54 b9 04 15
        E 164 89 28 40
        E 5 89 33 40
        E 200 b9 04 06
        E 49 b9 04 00
        E 348 b9 04 12
        E 37 b9 04 25
        E 10 99 33 35
        E 15 b9 04 36
        E 161 b9 04 25
        E 72 b9 04 15
        E 65 89 33 40
        E 71 b9 04 03
        E 25 b9 04 00
        E 99 99 28 42
        E 286 b9 04 12
        E 25 89 28 40
        E 161 99 33 63
        E 134 b9 04 22
        E 60 b9 04 32
        E 116 89 33 40
        E 53 b9 04 22
        E 54 99 24 49
        E 36 b9 04 12
        E 143 b9 04 00
        E 134 89 24 40
        E 140 99 28 51
        E 40 99 33 65
        E 43 b9 04 12
        E 35 b9 04 22
        E 18 b9 04 32
        E 35 b9 04 20
        E 58 b9 04 0f
        E 81 89 28 40
        E 40 89 33 40
        E 233 b9 04 1a
        E 348 b9 04 0c
        E 86 99 33 6c
        E 14 99 26 7f
        E 160 b9 04 1d
        E 30 b9 04 2e
        E 55 b9 04 3e
        E 55 89 33 40
        E 18 89 26 40
        E 65 b9 04 2e
        E 60 b9 04 1d
        E 84 b9 04 0c
        E 80 b9 04 00
        E 379 b9 04 12
        E 12 99 24 72
        E 12 b9 04 22
        E 22 99 33 7f
        E 42 b9 04 12
        E 173 b9 04 06
        E 63 89 24 40
        E 33 89 33 40
        E 184 b9 04 12
        E 477 99 33 2a
        E 115 b9 04 1a
        E 196 89 33 40
        E 351 b9 04 12
        E 253 99 33 32
        E 153 b9 04 1a
        E 158 89 33 40
        E 196 b9 04 12
        E 354 99 26 63
        E 65 99 33 5b
        E 115 b9 04 1a
        E 130 89 26 40
        E 66 89 33 40
        E 586 99 33 35
        E 317 89 33 40
        E 403 b9 04 15
        E 177 99 24 58
        E 22 99 33 49
        E 74 b9 04 09
        E 214 89 24 40
        E 22 89 33 40
        E 521 b9 04 03
        E 81 99 28 63
        E 69 99 33 6b
        E 245 89 28 40
        E 40 b9 04 00
        E 25 89 33 40
        E 658 99 33 4d
        E 310 89 33 40
        E 146 99 26 1f
        E 249 89 26 40
        E 3 99 26 3c
        E 211 99 24 7f
        E 43 99 33 68
        E 59 89 26 40
        E 212 89 24 40
        E 43 89 33 40
        E 714 99 33 34
        E 310 89 33 40
        E 583 99 33 46
        E 311 89 33 40
        E 549 99 26 7f
        E 87 99 33 65
        E 224 89 26 40
        E 90 89 33 40
        E 618 99 33 52
        E 310 89 33 40
        E 618 99 24 72
        E 43 99 33 7c
        E 267 89 24 40
        E 40 89 33 40
        E 547 99 28 4a
        E 68 99 33 74
        E 245 89 28 40
        E 66 89 33 40
        E 111 99 24 60
        E 310 89 24 40
        E 190 99 33 2b
        E 314 89 33 40
        E 217 99 24 43
        E 316 89 24 40
        E 31 99 24 59
        E 93 99 33 77
        E 221 89 24 40
        E 90 89 33 40
        E 642 99 24 6d
        E 7 99 33 56
        E 307 89 24 40
        E 3 89 33 40
        E 192 99 26 7f
        E 314 89 26 40
        E 158 99 33 5c
        E 311 89 33 40
        E 186 99 24 42
        E 313 89 24 40
        E 81 99 24 57
        E 102 99 33 51
        E 215 89 24 40
        E 96 89 33 40
        E 608 99 24 75
        E 40 99 33 4e
        E 271 89 24 40
        E 40 89 33 40
        E 140 99 26 6a
        E 310 89 26 40
        E 196 99 33 43
        E 310 89 33 40
        E 236 99 24 5e
        E 310 89 24 40
        E 109 99 28 55
        E 15 99 33 65
        E 298 89 28 40
        E 13 89 33 40
        E 208 99 24 5d
        E 310 89 24 40
        E 132 99 30 6e
        E 11 99 2d 7f
        E 304 89 30 40
        E 7 89 2d 40
        E 130 99 30 7f
        E 310 89 30 40
        E 211 99 24 7f
        E 68 99 31 60
        E 246 89 24 40
        E 68 89 31 40
        E 1605 99 33 2f
        E 310 89 33 40
        E 599 99 26 7f
        E 34 99 33 7f
        E 279 89 26 40
        E 32 89 33 40
        E 661 99 33 41
        E 310 89 33 40
        E 630 99 33 5c
        E 7 99 24 77
        E 304 89 33 40
        E 9 89 24 40
        E 714 99 30 7f
        E 227 89 30 40
        E 1 99 30 7a
        E 238 89 30 40
        E 0 99 30 7f
        E 307 89 30 40
        E 2 99 30 7f
        E 314 89 30 40
        E 751 99 24 09
        E 60 89 24 40
        E 3 99 24 7f
        E 15 99 33 7f
        E 292 89 24 40
        E 19 89 33 40
        E 720 99 33 59
        E 310 89 33 40
        E 168 99 26 7f
        E 311 89 26 40
        E 260 99 33 37
        E 311 89 33 40
        E 512 99 26 7f
        E 62 99 33 72
        E 248 89 26 40
        E 62 89 33 40
        E 627 99 2d 7f
        E 207 89 2d 40
        E 0 99 2d 7f
        E 283 89 2d 40
        E 7 99 2d 7f
        E 279 89 2d 40
        E 0 99 2d 7f
        E 310 89 2d 40
        E 646 99 29 7f
        E 229 89 29 40
        E 0 99 29 7f
        E 253 89 29 40
        E 2 99 29 7f
        E 307 89 29 40
        E 31 99 29 7f
        E 314 89 29 40
        E 826 99 24 7f
        E 12 99 33 72
        E 299 89 24 40
        E 12 89 33 40
        E 689 99 33 30
        E 312 89 33 40
        E 159 99 26 64
        E 311 89 26 40
        E 227 99 33 48
        E 310 89 33 40
        E 658 99 24 7f
        E 65 99 33 7f
        E 245 89 24 40
        E 66 89 33 40
        E 605 99 33 46
        E 310 89 33 40
        E 547 99 24 73
        E 68 99 33 68
        E 245 89 24 40
        E 65 89 33 40
        E 580 99 26 7f
        E 56 99 33 7f
        E 255 89 26 40
        E 56 89 33 40
        E 612 99 33 7a
        E 310 89 33 40
        E 587 99 24 6f
        E 56 99 33 7f
        E 257 89 24 40
        E 53 89 33 40
        E 627 99 33 7e
        E 6 99 30 7f
        E 304 89 33 40
        E 9 89 30 40
        E 612 99 30 7f
        E 25 99 33 69
        E 285 89 30 40
        E 25 89 33 40
        E 605 99 24 65
        E 15 99 33 5b
        E 296 89 24 40
        E 15 89 33 40
        E 602 99 24 60
        E 16 99 33 6d
        E 298 89 24 40
        E 19 89 33 40
        E 546 99 2d 7f
        E 87 99 29 63
        E 227 89 2d 40
        E 83 89 29 40
        E 595 99 29 69
        E 7 99 2d 7f
        E 304 89 29 40
        E 7 89 2d 40
        E 617 99 24 55
        E 13 99 29 57
        E 301 89 24 40
        E 9 89 29 40
        E 692 99 24 58
        E 13 99 2d 7f
        E 15 99 29 77
        E 286 89 24 40
        E 12 89 2d 40
        E 13 89 29 40
        E 670 99 24 4a
        E 31 99 29 4a
        E 279 89 24 40
        E 29 89 29 40
        E 580 99 24 4c
        E 62 99 29 56
        E 248 89 24 40
        E 62 89 29 40
        E 584 99 2d 7b
        E 43 99 29 71
        E 37 99 24 56
        E 230 89 2d 40
        E 44 89 29 40
        E 40 89 24 40
        E 599 99 29 57
        E 31 99 24 49
        E 19 99 2d 3d
        E 260 89 29 40
        E 32 89 24 40
        E 18 89 2d 40
        E 615 99 29 5b
        E 2 99 24 4b
        E 10 99 2d 2d
        E 302 89 29 40
        E 3 89 24 40
        E 12 89 2d 40
        E 549 99 2d 37
        E 31 99 24 47
        E 19 99 29 4a
        E 261 89 2d 40
        E 31 89 24 40
        E 18 89 29 40
        E 593 99 2d 3d
        E 35 99 24 49
        E 15 99 29 55
        E 263 89 2d 40
        E 32 89 24 40
        E 18 89 29 40
        E 605 99 2d 45
        E 7 99 24 47
        E 30 99 29 47
        E 274 89 2d 40
        E 6 89 24 40
        E 35 89 29 40
        E 639 99 2d 41
        E 13 99 24 49
        E 15 99 29 51
        E 282 89 2d 40
        E 12 89 24 40
        E 16 89 29 40
        E 652 99 24 47
        E 21 99 2d 57
        E 4 99 29 67
        E 286 89 24 40
        E 21 89 2d 40
        E 3 89 29 40
        E 612 99 2d 63
        E 33 99 29 7f
        E 26 99 24 4d
        E 254 89 2d 40
        E 35 89 29 40
        E 24 89 24 40
        E 584 99 2d 70
        E 40 99 29 7f
        E 28 99 24 4e
        E 242 89 2d 40
        E 40 89 29 40
        E 32 89 24 40
        E 636 99 2d 7f
        E 25 99 29 7f
        E 3 99 24 53
        E 282 89 2d 40
        E 25 89 29 40
        E 3 89 24 40
        E 627 99 2d 7f
        E 15 99 29 7f
        E 60 99 24 58
        E 235 89 2d 40
        E 16 89 29 40
        E 59 89 24 40
        E 546 99 2d 7f
        E 16 99 29 7f
        E 19 99 24 56
        E 276 89 2d 40
        E 19 89 29 40
        E 18 89 24 40
        E 658 99 24 7f
        E 3 99 2d 7f
        E 6 99 29 7f
        E 301 89 24 40
        E 4 89 2d 40
        E 9 89 29 40
        E 7076 b0 7b 00
        GUID {1BB17D31-0AC7-4E95-B7CC-EDEC3E348C48}
        IGNTEMPO 0 120 4 4
        SRCCOLOR 549
      >
    >
  >
  <TRACK {89109D96-611D-43FF-8E7B-7CEF1DA0D6D5}
    NAME EZdrummer
    PEAKCOL 16576
    BEAT -1
    AUTOMODE 0
    VOLPAN 3.98107170553497 0 -1 -1 1
    MUTESOLO 0 0 0
    IPHASE 0
    ISBUS 0 0
    BUSCOMP 0 0
    SHOWINMIX 1 0.6667 0.5 1 0.5 0 0 0
    FREEMODE 0
    SEL 0
    REC 0 4160 1 0 0 0 0
    VU 2
    TRACKHEIGHT 0 0
    INQ 0 0 0 0.5 100 0 0 100
    NCHAN 2
    FX 1
    TRACKID {89109D96-611D-43FF-8E7B-7CEF1DA0D6D5}
    PERF 0
    MIDIOUT -1
    MAINSEND 1 0
    <FXCHAIN
      WNDRECT 33 60 655 403
      SHOW 0
      LASTSEL 0
      DOCKED 0
      BYPASS 0 0 0
      <VST "VSTi: EZdrummer (Toontrack) (32 out)" EZdrummer.dll 0 "" 1684432997
        ZWhmZO5e7f4AAAAAIAAAAAEAAAAAAAAAAgAAAAAAAAAEAAAAAAAAAAgAAAAAAAAAEAAAAAAAAAAgAAAAAAAAAEAAAAAAAAAAgAAAAAAAAAAAAQAAAAAAAAACAAAAAAAA
        AAQAAAAAAAAACAAAAAAAAAAQAAAAAAAAACAAAAAAAAAAQAAAAAAAAACAAAAAAAAAAAABAAAAAAAAAAIAAAAAAAAABAAAAAAAAAAIAAAAAAAAABAAAAAAAAAAIAAAAAAA
        AABAAAAAAAAAAIAAAAAAAAAAAAEAAAAAAAAAAgAAAAAAAAAEAAAAAAAAAAgAAAAAAAAAEAAAAAAAAAAgAAAAAAAAAEAAAAAAAAAAgAAAAADQDAAAAQAAALUAEAA=
        dmVyc2lvbiAxCkVaWCAiRVpYMl9FWmRydW1tZXIyX01vZGVybiIKaHVtYW5pemUgMQpwb3MgIktpY2siICIxODIyR01TIgpwb3MgIlNuYXJlIiAiMTNHTVMiCnBvcyAi
        SGF0cyIgIjE0SEhYIgpwb3MgIlRvbTEiICIxMEdNUzEiCnBvcyAiVG9tMiIgIjEyR01TMSIKcG9zICJUb20zIiAiMTRHTVMxIgpwb3MgIlRvbTQiICIxNkdNUzEiCnBv
        cyAiVG9tNSIgIjE4R01TMSIKcG9zICJSaWRlNCIgIjIxUmlkZVZpbnRhZ2UiCnBvcyAiQ3Jhc2gxIiAiMTlTYWJpYW4xIgpwb3MgIkNyYXNoMiIgIjE4U2FiaWFuMiIK
        cG9zICJDcmFzaDMiICIxOFNhYmlhbjMiCnBvcyAiQ3Jhc2g0IiAiMThTYWJpYW41IgptaXhlciB7CmJ1c3MgMCB7CnBhbiAwLjUKdm9sdW1lIDAuNjQ1NjU1CnBoYXNl
        cmV2ZXJzZSAwCnNvbG8gMAptdXRlIDAKcm91dGUgMAp9CmJ1c3MgMSB7CnBhbiAwLjUKdm9sdW1lIDAuNjQ1NjU1CnBoYXNlcmV2ZXJzZSAwCnNvbG8gMAptdXRlIDAK
        cm91dGUgMAp9CmJ1c3MgMiB7CnBhbiAwLjUKdm9sdW1lIDAuNjAyNTYxCnBoYXNlcmV2ZXJzZSAwCnNvbG8gMAptdXRlIDAKcm91dGUgMAp9CmJ1c3MgMyB7CnBhbiAw
        LjUKdm9sdW1lIDAuNjAyNTYxCnBoYXNlcmV2ZXJzZSAwCnNvbG8gMAptdXRlIDAKcm91dGUgMAp9CmJ1c3MgNCB7CnBhbiAwLjM3NQp2b2x1bWUgMC40NTcwODkKcGhh
        c2VyZXZlcnNlIDAKc29sbyAwCm11dGUgMApyb3V0ZSAwCn0KYnVzcyA1IHsKcGFuIDAuMzc1CnZvbHVtZSAwLjQ1NzA4OQpwaGFzZXJldmVyc2UgMApzb2xvIDAKbXV0
        ZSAwCnJvdXRlIDAKfQpidXNzIDYgewpwYW4gMAp2b2x1bWUgMC45NTk3OTQKcGhhc2VyZXZlcnNlIDAKc29sbyAwCm11dGUgMApyb3V0ZSAwCn0KYnVzcyA3IHsKcGFu
        IDEKdm9sdW1lIDAuOTU5Nzk0CnBoYXNlcmV2ZXJzZSAwCnNvbG8gMAptdXRlIDAKcm91dGUgMAp9CmJ1c3MgOCB7CnBhbiAwCnZvbHVtZSAwLjk1OTc5NApwaGFzZXJl
        dmVyc2UgMApzb2xvIDAKbXV0ZSAwCnJvdXRlIDAKfQpidXNzIDkgewpwYW4gMQp2b2x1bWUgMC45NTk3OTQKcGhhc2VyZXZlcnNlIDAKc29sbyAwCm11dGUgMApyb3V0
        ZSAwCn0KYnVzcyAxMCB7CnBhbiAwCnZvbHVtZSAwCnBoYXNlcmV2ZXJzZSAwCnNvbG8gMAptdXRlIDAKcm91dGUgMAp9CmJ1c3MgMTEgewpwYW4gMQp2b2x1bWUgMApw
        aGFzZXJldmVyc2UgMApzb2xvIDAKbXV0ZSAwCnJvdXRlIDAKfQpidXNzIDEyIHsKcGFuIDAKdm9sdW1lIDAuNjE5NTU0CnBoYXNlcmV2ZXJzZSAwCnNvbG8gMAptdXRl
        IDAKcm91dGUgMAp9CmJ1c3MgMTMgewpwYW4gMQp2b2x1bWUgMC42MTk1NTQKcGhhc2VyZXZlcnNlIDAKc29sbyAwCm11dGUgMApyb3V0ZSAwCn0KYnVzcyAxNCB7CnBh
        biAwCnZvbHVtZSAwLjAzODAzNjMKcGhhc2VyZXZlcnNlIDAKc29sbyAwCm11dGUgMApyb3V0ZSAwCn0KYnVzcyAxNSB7CnBhbiAxCnZvbHVtZSAwLjAzODAzNjMKcGhh
        c2VyZXZlcnNlIDAKc29sbyAwCm11dGUgMApyb3V0ZSAwCn0KYnVzcyAxNiB7CnBhbiAwLjUKdm9sdW1lIDAuOTU5Nzk0CnBoYXNlcmV2ZXJzZSAwCnNvbG8gMAptdXRl
        IDAKcm91dGUgMAp9CmJ1c3MgMTcgewpwYW4gMC41CnZvbHVtZSAwLjk1OTc5NApwaGFzZXJldmVyc2UgMApzb2xvIDAKbXV0ZSAwCnJvdXRlIDAKfQpidXNzIDE4IHsK
        cGFuIDAuMQp2b2x1bWUgMC41NDk1NDIKcGhhc2VyZXZlcnNlIDAKc29sbyAwCm11dGUgMApyb3V0ZSAwCn0KYnVzcyAxOSB7CnBhbiAwLjEKdm9sdW1lIDAuNTQ5NTQy
        CnBoYXNlcmV2ZXJzZSAwCnNvbG8gMAptdXRlIDAKcm91dGUgMAp9CmJ1c3MgMjAgewpwYW4gMC45CnZvbHVtZSAwLjY3NjA4NApwaGFzZXJldmVyc2UgMApzb2xvIDAK
        bXV0ZSAwCnJvdXRlIDAKfQpidXNzIDIxIHsKcGFuIDAuOQp2b2x1bWUgMC42NzYwODQKcGhhc2VyZXZlcnNlIDAKc29sbyAwCm11dGUgMApyb3V0ZSAwCn0KYnVzcyAy
        MiB7CnBhbiAwCnZvbHVtZSAwLjUwMTE4OApwaGFzZXJldmVyc2UgMApzb2xvIDAKbXV0ZSAwCnJvdXRlIDAKfQpidXNzIDIzIHsKcGFuIDEKdm9sdW1lIDAuNTAxMTg4
        CnBoYXNlcmV2ZXJzZSAwCnNvbG8gMAptdXRlIDAKcm91dGUgMAp9Cn0KRVoxc3R1ZmZFTkQgewp9CnNhbXBsZXIgewptYXN0ZXJ2b2wgMQpyZXZlcnNlIDAKcHJlc2V0
        ICJEaXN0b3J0ZWQiCmtub2IgMCAwLjY1MzQ2NQprbm9iIDEgMC41Cmtub2IgMiAwLjUKa25vYiAzIDAKa25vYiA0IDAuNjYzMzY2Cmtub2IgNSAwLjcwMjk3Cmtub2Ig
        NiAwCmtub2IgNyAwLjQ3NTI0OApkcnVtcHJvcHMgewoiWFBlcmMtMCIgeCAiRVpYUF9FWmRydW1tZXIyX1BlcmN1c3Npb24iICJPbmVzaG90IiAiQ2xhcHMyIgoiWFBl
        cmMtMSIgeCAiRVpYUF9FWmRydW1tZXIyX1BlcmN1c3Npb24iICJTaGFrZXIiICJTaGFrZXIxIgoiWFBlcmMtMiIgeCAiRVpYUF9FWmRydW1tZXIyX1BlcmN1c3Npb24i
        ICJUYW1ib3VyaW5lIiAiVGFtYjEiCn0KfQplZHJ1bSBub25lIG5vbmUKbWlkaWxlYXJuIHsKfQpFZGl0b3IgeyAKU29uZ1RyYWNrIHsKVmlzaWJsZUFyZWEgMjE3My45
        NCAyMjM4Ljk0ClRyYWNrTmFtZSAiIgpDbGVhclRyYWNrRmlyc3QKVGltZVNpZyA0IDQKR3JpZFJlcyAzMgpMb29wQXJlYSAwIDAKTG9vcEFjdGl2ZSAwClN0YXJ0TnVt
        YmVyIDEKfQpWaXNpYmxlUmVzdWx0Q29sdW1ucyAyMSwyOCwwLDA7MjIsMjgsMCwwOzAsMTg1LDAsMDsxMSwyMDAsMCwwOzQsMTUwLDAsMDs2LDEzMCwwLDA7Nyw0NSww
        LDA7OCw0NiwwLDA7Myw0NSwwLDA7ClZpc2libGVGaWx0ZXJDb2x1bW5zIDQ7Nzs1OzE7NTsyOzY7MjsKQnJvd3NlckhlaWdodCAxNjYKU2VsZWN0ZWRUYWdzICwwLDAs
        MCwwLDAsMCwwLDAsMCwwLDAsMCwwLDAsMCwwLDAsMCwwLDAsMCwwLDAsMCwwLDAsMCwwLDAsMCwwLDAsMCwwLDAsMCwwLDAsMCwwLDAsMCwwLDAsMCwwLDAsMCwwLDAs
        MCwwLDAsMCwwLDAsMCwwLDAsMCwwLDAsMCwwLDAsMCwwLDAsMCwwLDAsMCwwLDAsMCwwLDAsMCwwLDAsMCwwLDAsMCwwLDAsMCwwLDAsMCwwLDAsMCwwLDAsMCwwLDAs
        MCwwLDAsMCwwLDAsMCwwLDAsMCwwLDAsMCwwLDAsMCwwLDAsMCwwLDAsMCwwLDAsMCwwLDAsMCwwLDAsMCwwLDAsMCwwLDAsMCwwLDAsMCwwLDAKU2VsZWN0ZWRGaWxl
        IApTZWxlY3RlZEJyb3dzZXJQYXRoICIiCkNsZWFyVGFwMkZpbmQKQnJvd3NlcklzRmF2b3JpdGUgMApQcmV2aWV3SW5PcmlnaW5hbFRlbXBvIDAKTWlkaVN0cmV0Y2hG
        YWN0b3IgMQpCcm93c2VyVmVsb2NpdHkgMApDbGVhclNvbmdDcmVhdG9yIDAKVmlzaWJsZVRhYiAwCn0KU3luY1RvSG9zdCAxIDE5NApNaWRpT3V0RW5hYmxlZCAwCk1p
        ZGlJbkNoYW5uZWwgLTEKAA==
        AAAQAAAA
      >
      FLOATPOS 24 52 917 722
      FXID {1D091DB2-5BDE-4D24-A1E6-F6D8D67496E6}
      WAK 0
    >
    <ITEM
      POSITION 0
      SNAPOFFS 0
      LENGTH 210.61856079201442
      LOOP 1
      ALLTAKES 0
      FADEIN 1 0 0 1 0 0
      FADEOUT 1 0 0 1 0 0
      MUTE 0
      SEL 0
      IGUID {53339900-351D-4053-8262-33664BFF62F7}
      IID 1
      NAME "01-EZdrummer-Recorded MIDI"
      VOLPAN 1 0 1 -1
      SOFFS 0 0
      PLAYRATE 1 1 0 -1 0 0.0025
      CHANMODE 0
      GUID {EB03D070-9583-4783-9836-A29B4E1F990B}
      RECPASS 1
      <SOURCE MIDI
        HASDATA 1 960 QN
        POOLEDEVTS {29E1FCF5-1D80-431B-8A31-00EAA0F3FF46}
        E 13555 99 24 5a
        E 244 89 24 40
        E 316 99 24 52
        E 245 89 24 40
        E 226 99 26 62
        E 114 89 26 40
        E 2 99 26 62
        E 243 89 26 40
        E 200 99 24 55
        E 243 89 24 40
        E 296 99 24 5a
        E 243 89 24 40
        E 1909 99 24 6a
        E 244 89 24 40
        E 326 99 24 63
        E 244 89 24 40
        E 249 99 26 74
        E 114 89 26 40
        E 2 99 26 6c
        E 242 89 26 40
        E 168 99 24 58
        E 245 89 24 40
        E 340 99 24 67
        E 245 89 24 40
        E 1944 99 24 7e
        E 244 89 24 40
        E 302 99 24 62
        E 244 89 24 40
        E 273 99 26 76
        E 97 89 26 40
        E 2 99 26 73
        E 242 89 26 40
        E 193 99 24 56
        E 244 89 24 40
        E 333 99 24 6d
        E 244 89 24 40
        E 1919 99 24 73
        E 244 89 24 40
        E 290 99 24 64
        E 244 89 24 40
        E 285 99 26 6c
        E 97 89 26 40
        E 2 99 26 6d
        E 241 89 26 40
        E 189 99 24 5b
        E 244 89 24 40
        E 288 99 24 60
        E 243 89 24 40
        E 324 99 26 73
        E 210 89 26 40
        E 2 99 26 69
        E 242 89 26 40
        E 24 99 26 7f
        E 244 89 26 40
        E 3 99 26 73
        E 244 89 26 40
        E 5 99 26 74
        E 243 89 26 40
        E 308 99 24 61
        E 244 89 24 40
        E 294 99 24 63
        E 242 89 24 40
        E 237 99 26 7c
        E 96 89 26 40
        E 3 99 26 6b
        E 241 89 26 40
        E 223 99 24 58
        E 244 89 24 40
        E 287 99 24 5a
        E 244 89 24 40
        E 1737 99 24 69
        E 244 89 24 40
        E 302 99 24 62
        E 244 89 24 40
        E 253 99 26 70
        E 117 89 26 40
        E 2 99 26 75
        E 242 89 26 40
        E 179 99 24 4f
        E 244 89 24 40
        E 314 99 24 61
        E 242 89 24 40
        E 1877 99 24 62
        E 243 89 24 40
        E 300 99 24 5d
        E 245 89 24 40
        E 297 99 26 7f
        E 99 89 26 40
        E 2 99 26 70
        E 241 89 26 40
        E 223 99 24 58
        E 244 89 24 40
        E 297 99 24 63
        E 244 89 24 40
        E 1879 99 24 6c
        E 245 89 24 40
        E 299 99 24 62
        E 244 89 24 40
        E 237 99 24 52
        E 244 89 24 40
        E 2899 99 24 63
        E 244 89 24 40
        E 254 99 24 52
        E 244 89 24 40
        E 312 99 24 5d
        E 244 89 24 40
        E 3022 99 24 64
        E 244 89 24 40
        E 251 99 24 4d
        E 244 89 24 40
        E 309 99 24 63
        E 243 89 24 40
        E 3155 99 24 64
        E 243 89 24 40
        E 266 99 24 55
        E 244 89 24 40
        E 324 99 24 60
        E 244 89 24 40
        E 3017 99 24 6b
        E 245 89 24 40
        E 278 99 24 56
        E 243 89 24 40
        E 198 99 26 7f
        E 145 89 26 40
        E 3 99 26 6d
        E 242 89 26 40
        E 195 99 24 5a
        E 244 89 24 40
        E 297 99 24 5d
        E 243 89 24 40
        E 781 99 26 7f
        E 114 89 26 40
        E 2 99 26 7f
        E 243 89 26 40
        E 813 99 24 65
        E 244 89 24 40
        E 278 99 24 58
        E 245 89 24 40
        E 260 99 26 7f
        E 104 89 26 40
        E 3 99 26 6a
        E 241 89 26 40
        E 208 99 24 55
        E 242 89 24 40
        E 294 99 24 5d
        E 244 89 24 40
        E 780 99 26 7f
        E 107 89 26 40
        E 3 99 26 77
        E 241 89 26 40
        E 775 99 24 61
        E 244 89 24 40
        E 286 99 24 57
        E 244 89 24 40
        E 243 99 26 65
        E 107 89 26 40
        E 2 99 26 74
        E 242 89 26 40
        E 193 99 24 58
        E 244 89 24 40
        E 302 99 24 5a
        E 244 89 24 40
        E 800 99 26 7e
        E 113 89 26 40
        E 3 99 26 7a
        E 241 89 26 40
        E 793 99 24 5e
        E 242 89 24 40
        E 284 99 24 57
        E 244 89 24 40
        E 252 99 26 7f
        E 99 89 26 40
        E 2 99 26 7f
        E 242 89 26 40
        E 205 99 24 57
        E 244 89 24 40
        E 298 99 24 5f
        E 244 89 24 40
        E 828 99 26 7f
        E 101 89 26 40
        E 3 99 26 7f
        E 241 89 26 40
        E 805 99 24 59
        E 244 89 24 40
        E 297 99 24 5a
        E 244 89 24 40
        E 254 99 26 7f
        E 104 89 26 40
        E 2 99 26 7c
        E 242 89 26 40
        E 210 99 24 51
        E 245 89 24 40
        E 296 99 24 5a
        E 244 89 24 40
        E 802 99 26 7f
        E 102 89 26 40
        E 2 99 26 7b
        E 242 89 26 40
        E 831 99 24 5d
        E 244 89 24 40
        E 278 99 24 59
        E 244 89 24 40
        E 275 99 26 7f
        E 90 89 26 40
        E 3 99 26 78
        E 240 89 26 40
        E 184 99 24 4e
        E 245 89 24 40
        E 294 99 24 60
        E 244 89 24 40
        E 292 99 26 7f
        E 230 89 26 40
        E 3 99 26 5b
        E 241 89 26 40
        E 14 99 26 6f
        E 245 89 26 40
        E 7 99 26 5e
        E 244 89 26 40
        E 2 99 26 55
        E 242 89 26 40
        E 297 99 24 60
        E 244 89 24 40
        E 290 99 24 62
        E 244 89 24 40
        E 234 99 26 77
        E 109 89 26 40
        E 3 99 26 7f
        E 241 89 26 40
        E 201 99 24 50
        E 243 89 24 40
        E 300 99 24 58
        E 244 89 24 40
        E 798 99 26 7f
        E 134 89 26 40
        E 3 99 26 7f
        E 242 89 26 40
        E 746 99 24 57
        E 244 89 24 40
        E 283 99 24 53
        E 243 89 24 40
        E 281 99 26 7f
        E 104 89 26 40
        E 2 99 26 69
        E 242 89 26 40
        E 191 99 24 4f
        E 244 89 24 40
        E 309 99 24 58
        E 244 89 24 40
        E 797 99 26 7f
        E 104 99 28 60
        E 138 89 26 40
        E 106 89 28 40
        E 757 99 24 50
        E 244 89 24 40
        E 297 99 24 56
        E 245 89 24 40
        E 257 99 26 7f
        E 109 89 26 40
        E 2 99 26 67
        E 242 89 26 40
        E 181 99 24 45
        E 244 89 24 40
        E 305 99 24 59
        E 243 89 24 40
        E 796 99 26 7f
        E 123 89 26 40
        E 2 99 26 79
        E 242 89 26 40
        E 763 99 24 59
        E 244 89 24 40
        E 290 99 24 53
        E 244 89 24 40
        E 269 99 26 7f
        E 125 89 26 40
        E 2 99 26 74
        E 242 89 26 40
        E 164 99 24 57
        E 244 89 24 40
        E 266 99 24 59
        E 244 89 24 40
        E 355 99 26 7f
        E 227 89 26 40
        E 3 99 26 6f
        E 241 89 26 40
        E 29 99 28 5c
        E 244 89 28 40
        E 3 99 26 6a
        E 244 89 26 40
        E 10 99 26 63
        E 243 89 26 40
        E 291 99 24 5a
        E 243 89 24 40
        E 283 99 24 5b
        E 244 89 24 40
        E 237 99 28 66
        E 106 99 26 75
        E 138 89 28 40
        E 106 89 26 40
        E 196 99 24 50
        E 244 89 24 40
        E 302 99 24 59
        E 244 89 24 40
        E 807 99 26 7f
        E 130 89 26 40
        E 3 99 26 78
        E 241 89 26 40
        E 764 99 24 55
        E 244 89 24 40
        E 285 99 24 52
        E 244 89 24 40
        E 285 99 26 7f
        E 118 89 26 40
        E 3 99 26 78
        E 241 89 26 40
        E 155 99 24 4a
        E 243 89 24 40
        E 308 99 24 59
        E 244 89 24 40
        E 821 99 26 7f
        E 116 99 28 5e
        E 126 89 26 40
        E 118 89 28 40
        E 735 99 24 56
        E 243 89 24 40
        E 295 99 24 58
        E 244 89 24 40
        E 264 99 26 7f
        E 104 89 26 40
        E 2 99 26 7f
        E 242 89 26 40
        E 173 99 24 4e
        E 244 89 24 40
        E 312 99 24 5d
        E 244 89 24 40
        E 834 99 26 7f
        E 101 89 26 40
        E 2 99 26 7f
        E 242 89 26 40
        E 732 99 24 54
        E 245 89 24 40
        E 292 99 24 53
        E 244 89 24 40
        E 261 99 26 7f
        E 127 89 26 40
        E 3 99 26 7f
        E 242 89 26 40
        E 174 99 24 4f
        E 244 89 24 40
        E 280 99 24 57
        E 244 89 24 40
        E 326 99 26 7f
        E 223 89 26 40
        E 2 99 26 67
        E 242 89 26 40
        E 50 99 26 6f
        E 236 89 26 40
        E 3 99 26 50
        E 242 89 26 40
        E 7 99 26 7d
        E 244 89 26 40
        E 353 99 24 59
        E 244 89 24 40
        E 285 99 24 56
        E 244 89 24 40
        E 247 99 26 7f
        E 103 89 26 40
        E 3 99 26 7f
        E 241 89 26 40
        E 218 99 24 4d
        E 244 89 24 40
        E 307 99 24 5a
        E 244 89 24 40
        E 797 99 26 7f
        E 92 89 26 40
        E 2 99 26 6d
        E 242 89 26 40
        E 741 99 24 4d
        E 244 89 24 40
        E 307 99 24 58
        E 244 89 24 40
        E 266 99 26 7f
        E 92 89 26 40
        E 2 99 26 5e
        E 242 89 26 40
        E 200 99 24 4d
        E 245 89 24 40
        E 306 99 24 5a
        E 244 89 24 40
        E 824 99 26 7f
        E 244 89 26 40
        E 855 99 24 51
        E 245 89 24 40
        E 280 99 24 51
        E 244 89 24 40
        E 278 99 26 6a
        E 98 99 28 42
        E 145 89 26 40
        E 100 89 28 40
        E 200 99 24 4e
        E 244 89 24 40
        E 287 99 24 56
        E 244 89 24 40
        E 803 99 26 7b
        E 118 89 26 40
        E 3 99 26 6f
        E 241 89 26 40
        E 751 99 24 55
        E 245 89 24 40
        E 299 99 24 53
        E 244 89 24 40
        E 264 99 28 62
        E 108 89 28 40
        E 3 99 28 66
        E 241 89 28 40
        E 162 99 24 4c
        E 244 89 24 40
        E 285 99 24 57
        E 242 89 24 40
        E 321 99 26 6a
        E 196 99 28 2f
        E 48 89 26 40
        E 196 89 28 40
        E 65 99 26 53
        E 220 99 28 37
        E 24 89 26 40
        E 220 89 28 40
        E 10 99 28 49
        E 244 89 28 40
        E 321 99 24 5d
        E 243 89 24 40
        E 820 99 24 63
        E 244 89 24 40
        E 319 99 26 5e
        E 106 89 26 40
        E 3 99 26 7f
        E 241 89 26 40
        E 785 99 24 68
        E 245 89 24 40
        E 326 99 26 7f
        E 84 89 26 40
        E 1 99 26 7f
        E 243 89 26 40
        E 771 99 24 58
        E 244 89 24 40
        E 838 99 24 57
        E 244 89 24 40
        E 319 99 28 31
        E 102 99 26 7c
        E 142 89 28 40
        E 102 89 26 40
        E 780 99 24 58
        E 243 89 24 40
        E 284 99 26 7b
        E 91 89 26 40
        E 3 99 26 7f
        E 241 89 26 40
        E 751 99 24 5b
        E 245 89 24 40
        E 841 99 24 56
        E 244 89 24 40
        E 345 99 26 79
        E 97 89 26 40
        E 2 99 26 7f
        E 242 89 26 40
        E 742 99 24 5c
        E 244 89 24 40
        E 263 99 26 7f
        E 94 89 26 40
        E 2 99 26 7f
        E 242 89 26 40
        E 773 99 24 5a
        E 244 89 24 40
        E 273 99 2d 7f
        E 15 99 30 7f
        E 229 89 2d 40
        E 15 89 30 40
        E 326 99 24 58
        E 244 89 24 40
        E 275 99 29 71
        E 17 99 2d 7f
        E 227 89 29 40
        E 17 89 2d 40
        E 276 99 24 5c
        E 244 89 24 40
        E 275 99 24 53
        E 244 89 24 40
        E 222 99 26 78
        E 107 89 26 40
        E 3 99 26 7f
        E 241 89 26 40
        E 749 99 24 54
        E 244 89 24 40
        E 816 99 24 59
        E 244 89 24 40
        E 307 99 26 7b
        E 101 89 26 40
        E 3 99 26 7f
        E 241 89 26 40
        E 747 99 24 67
        E 244 89 24 40
        E 256 99 26 7f
        E 94 89 26 40
        E 3 99 26 7f
        E 242 89 26 40
        E 749 99 24 5e
        E 243 89 24 40
        E 795 99 24 58
        E 244 89 24 40
        E 292 99 26 7f
        E 119 89 26 40
        E 2 99 26 7f
        E 241 89 26 40
        E 733 99 24 6a
        E 244 89 24 40
        E 239 99 26 78
        E 87 89 26 40
        E 3 99 26 7f
        E 241 89 26 40
        E 804 99 24 5c
        E 244 89 24 40
        E 803 99 24 61
        E 243 89 24 40
        E 313 99 26 76
        E 78 89 26 40
        E 2 99 26 7f
        E 242 89 26 40
        E 774 99 24 64
        E 244 89 24 40
        E 293 99 26 7c
        E 72 89 26 40
        E 3 99 26 7f
        E 241 89 26 40
        E 822 99 24 57
        E 244 89 24 40
        E 277 99 2d 7f
        E 8 99 30 7f
        E 237 89 2d 40
        E 6 89 30 40
        E 276 99 24 58
        E 245 89 24 40
        E 279 99 24 55
        E 244 89 24 40
        E 293 99 29 66
        E 2 99 2d 7f
        E 241 89 29 40
        E 3 89 2d 40
        E 271 99 24 6a
        E 244 89 24 40
        E 271 99 26 7f
        E 99 89 26 40
        E 2 99 26 7f
        E 239 89 26 40
        E 773 99 24 59
        E 244 89 24 40
        E 787 99 24 5c
        E 245 89 24 40
        E 277 99 26 7f
        E 97 89 26 40
        E 3 99 26 7d
        E 241 89 26 40
        E 790 99 24 5e
        E 244 89 24 40
        E 261 99 26 7f
        E 73 89 26 40
        E 2 99 26 7f
        E 242 89 26 40
        E 739 99 24 58
        E 242 89 24 40
        E 824 99 24 5e
        E 244 89 24 40
        E 333 99 26 7f
        E 114 89 26 40
        E 2 99 26 7c
        E 242 89 26 40
        E 746 99 24 62
        E 244 89 24 40
        E 261 99 26 7f
        E 104 89 26 40
        E 2 99 26 7c
        E 242 89 26 40
        E 741 99 24 54
        E 245 89 24 40
        E 809 99 24 69
        E 243 89 24 40
        E 286 99 26 76
        E 99 89 26 40
        E 2 99 26 75
        E 242 89 26 40
        E 773 99 24 67
        E 245 89 24 40
        E 289 99 26 70
        E 63 89 26 40
        E 3 99 26 73
        E 241 89 26 40
        E 800 99 24 5f
        E 244 89 24 40
        E 215 99 30 79
        E 6 99 2d 7f
        E 238 89 30 40
        E 4 89 2d 40
        E 305 99 2d 7f
        E 3 99 30 7f
        E 241 89 2d 40
        E 0 89 30 40
        E 257 99 24 5d
        E 242 89 24 40
        E 272 99 29 7f
        E 11 99 2d 7f
        E 233 89 29 40
        E 11 89 2d 40
        E 271 99 24 61
        E 244 89 24 40
        E 266 99 26 79
        E 111 89 26 40
        E 3 99 26 7f
        E 241 89 26 40
        E 206 99 24 51
        E 243 89 24 40
        E 315 99 24 62
        E 244 89 24 40
        E 814 99 24 61
        E 245 89 24 40
        E 296 99 26 7c
        E 80 89 26 40
        E 2 99 26 7f
        E 241 89 26 40
        E 1347 99 26 7b
        E 65 89 26 40
        E 2 99 26 7b
        E 242 89 26 40
        E 701 99 24 67
        E 243 89 24 40
        E 790 99 24 6a
        E 244 89 24 40
        E 303 99 26 7f
        E 125 89 26 40
        E 3 99 26 7f
        E 241 89 26 40
        E 768 99 24 6a
        E 245 89 24 40
        E 263 99 26 7f
        E 94 89 26 40
        E 2 99 26 78
        E 243 89 26 40
        E 789 99 24 62
        E 242 89 24 40
        E 765 99 24 6f
        E 245 89 24 40
        E 299 99 26 70
        E 244 89 26 40
        E 1220 99 26 7f
        E 102 89 26 40
        E 2 99 26 7f
        E 242 89 26 40
        E 756 99 24 5f
        E 244 89 24 40
        E 244 99 2d 7f
        E 17 99 30 7f
        E 226 89 2d 40
        E 16 89 30 40
        E 263 99 2d 7f
        E 17 99 30 7f
        E 227 89 2d 40
        E 17 89 30 40
        E 222 99 24 59
        E 244 89 24 40
        E 293 99 29 52
        E 14 99 2d 7f
        E 229 89 29 40
        E 15 89 2d 40
        E 248 99 24 5a
        E 244 89 24 40
        E 228 99 26 7e
        E 130 89 26 40
        E 3 99 26 7c
        E 241 89 26 40
        E 722 99 24 72
        E 241 89 24 40
        E 320 99 24 6e
        E 244 89 24 40
        E 285 99 24 5d
        E 244 89 24 40
        E 264 99 26 70
        E 104 89 26 40
        E 1 99 26 67
        E 243 89 26 40
        E 198 99 24 56
        E 241 89 24 40
        E 273 99 24 5f
        E 242 89 24 40
        E 271 99 26 7f
        E 101 89 26 40
        E 2 99 26 7f
        E 242 89 26 40
        E 758 99 24 5d
        E 244 89 24 40
        E 303 99 24 63
        E 244 89 24 40
        E 270 99 24 5d
        E 244 89 24 40
        E 280 99 26 7f
        E 102 89 26 40
        E 2 99 26 7a
        E 242 89 26 40
        E 232 99 24 58
        E 244 89 24 40
        E 273 99 24 61
        E 244 89 24 40
        E 291 99 26 7f
        E 105 89 26 40
        E 3 99 26 7f
        E 241 89 26 40
        E 810 99 24 62
        E 243 89 24 40
        E 266 99 24 52
        E 244 89 24 40
        E 276 99 24 63
        E 244 89 24 40
        E 248 99 26 7e
        E 100 89 26 40
        E 2 99 26 7f
        E 241 89 26 40
        E 244 99 24 5b
        E 244 89 24 40
        E 276 99 24 5d
        E 244 89 24 40
        E 302 99 26 70
        E 113 89 26 40
        E 3 99 26 7f
        E 242 89 26 40
        E 755 99 24 59
        E 245 89 24 40
        E 277 99 24 56
        E 242 89 24 40
        E 268 99 24 58
        E 244 89 24 40
        E 208 99 26 7f
        E 126 89 26 40
        E 2 99 26 7f
        E 242 89 26 40
        E 188 99 24 5a
        E 244 89 24 40
        E 276 99 24 5c
        E 244 89 24 40
        E 270 99 26 7f
        E 97 89 26 40
        E 3 99 26 6e
        E 241 89 26 40
        E 815 99 24 5f
        E 243 89 24 40
        E 256 99 24 51
        E 245 89 24 40
        E 282 99 24 66
        E 244 89 24 40
        E 225 99 26 7f
        E 121 89 26 40
        E 2 99 26 7f
        E 242 89 26 40
        E 195 99 24 4d
        E 244 89 24 40
        E 285 99 24 5e
        E 244 89 24 40
        E 293 99 26 7f
        E 92 89 26 40
        E 2 99 26 7f
        E 242 89 26 40
        E 804 99 24 66
        E 244 89 24 40
        E 268 99 24 52
        E 243 89 24 40
        E 255 99 24 55
        E 244 89 24 40
        E 231 99 26 7f
        E 114 89 26 40
        E 3 99 26 7f
        E 242 89 26 40
        E 250 99 24 4b
        E 245 89 24 40
        E 256 99 24 60
        E 243 89 24 40
        E 257 99 26 7c
        E 103 89 26 40
        E 3 99 26 7f
        E 242 89 26 40
        E 792 99 24 59
        E 244 89 24 40
        E 278 99 24 56
        E 244 89 24 40
        E 268 99 24 62
        E 244 89 24 40
        E 247 99 26 7f
        E 79 89 26 40
        E 3 99 26 7f
        E 242 89 26 40
        E 246 99 24 53
        E 244 89 24 40
        E 270 99 24 58
        E 244 89 24 40
        E 307 99 26 7f
        E 97 89 26 40
        E 3 99 26 7f
        E 241 89 26 40
        E 766 99 24 5b
        E 244 89 24 40
        E 309 99 24 64
        E 245 89 24 40
        E 236 99 24 4c
        E 244 89 24 40
        E 263 99 26 7f
        E 80 89 26 40
        E 2 99 26 78
        E 242 89 26 40
        E 256 99 24 58
        E 244 89 24 40
        E 259 99 24 5d
        E 243 89 24 40
        E 276 99 26 7f
        E 113 89 26 40
        E 3 99 26 7f
        E 241 89 26 40
        E 733 99 24 7c
        E 41 b9 04 00
        E 2 99 2e 7f
        E 200 89 24 40
        E 44 89 2e 40
        E 280 b9 04 00
        E 0 99 2e 33
        E 215 b9 04 0c
        E 29 89 2e 40
        E 157 b9 04 1a
        E 128 99 26 58
        E 10 b9 04 27
        E 2 99 2e 7f
        E 31 b9 04 2c
        E 202 89 26 40
        E 11 89 2e 40
        E 15 b9 04 34
        E 201 b9 04 41
        E 113 b9 04 43
        E 3 99 2e 2e
        E 241 89 2e 40
        E 234 99 24 5c
        E 32 b9 04 44
        E 3 99 2e 7f
        E 209 89 24 40
        E 32 89 2e 40
        E 261 99 24 54
        E 50 b9 04 36
        E 3 99 2e 24
        E 5 b9 04 36
        E 186 89 24 40
        E 53 89 2e 40
        E 268 99 26 6a
        E 15 b9 04 36
        E 2 99 2e 7f
        E 227 89 26 40
        E 15 89 2e 40
        E 292 b9 04 36
        E 2 99 2e 3e
        E 242 89 2e 40
        E 235 99 24 6d
        E 19 b9 04 36
        E 2 99 2e 7f
        E 222 89 24 40
        E 22 89 2e 40
        E 271 b9 04 36
        E 2 99 2e 3b
        E 244 89 2e 40
        E 36 b9 04 30
        E 283 b9 04 34
        E 2 99 2e 7f
        E 5 b9 04 34
        E 0 99 26 71
        E 240 89 2e 40
        E 4 89 26 40
        E 283 b9 04 38
        E 0 99 2e 4a
        E 94 b9 04 38
        E 150 89 2e 40
        E 264 99 24 58
        E 36 b9 04 3e
        E 2 99 2e 7f
        E 2 b9 04 3c
        E 203 89 24 40
        E 37 89 2e 40
        E 169 b9 04 46
        E 65 99 24 4e
        E 48 b9 04 44
        E 0 99 2e 57
        E 116 b9 04 36
        E 80 89 24 40
        E 48 89 2e 40
        E 276 99 26 75
        E 33 b9 04 46
        E 5 b9 04 46
        E 0 99 2e 7f
        E 20 b9 04 4c
        E 116 b9 04 4c
        E 69 89 26 40
        E 11 b9 04 3c
        E 26 89 2e 40
        E 111 b9 04 34
        E 131 99 24 59
        E 19 b9 04 43
        E 2 99 2e 60
        E 7 b9 04 44
        E 215 89 24 40
        E 22 89 2e 40
        E 49 b9 04 38
        E 234 99 24 5f
        E 39 b9 04 3c
        E 2 99 2e 7f
        E 203 89 24 40
        E 39 89 2e 40
        E 285 b9 04 3c
        E 0 99 2e 50
        E 220 b9 04 2e
        E 24 89 2e 40
        E 261 99 26 68
        E 24 b9 04 30
        E 2 99 2e 7f
        E 218 89 26 40
        E 26 89 2e 40
        E 17 b9 04 27
        E 210 b9 04 36
        E 63 b9 04 36
        E 3 99 2e 4e
        E 241 89 2e 40
        E 235 99 24 67
        E 31 b9 04 38
        E 1 99 2e 7f
        E 212 89 24 40
        E 31 89 2e 40
        E 114 b9 04 3e
        E 147 99 24 50
        E 24 b9 04 3c
        E 2 99 2e 4f
        E 218 89 24 40
        E 26 89 2e 40
        E 281 99 26 7b
        E 26 b9 04 3a
        E 2 99 2e 7f
        E 216 89 26 40
        E 26 89 2e 40
        E 271 b9 04 3c
        E 2 99 2e 69
        E 245 89 2e 40
        E 229 99 24 63
        E 56 b9 04 3e
        E 2 99 2e 7f
        E 186 89 24 40
        E 55 89 2e 40
        E 257 b9 04 3a
        E 0 99 2e 51
        E 127 b9 04 38
        E 117 89 2e 40
        E 222 b9 04 3e
        E 45 99 28 43
        E 40 b9 04 3e
        E 2 99 2e 7f
        E 202 89 28 40
        E 40 89 2e 40
        E 280 b9 04 3e
        E 3 99 2e 5a
        E 241 89 2e 40
        E 237 99 24 62
        E 48 b9 04 3f
        E 4 99 2e 7f
        E 191 89 24 40
        E 51 89 2e 40
        E 244 99 24 55
        E 19 b9 04 3f
        E 3 99 2e 3e
        E 222 89 24 40
        E 20 89 2e 40
        E 253 99 26 69
        E 43 b9 04 3f
        E 3 99 2e 7f
        E 198 89 26 40
        E 43 89 2e 40
        E 274 b9 04 3f
        E 2 99 2e 46
        E 242 89 2e 40
        E 229 99 24 62
        E 51 b9 04 3f
        E 0 99 2e 7f
        E 193 89 24 40
        E 51 89 2e 40
        E 242 b9 04 3f
        E 0 99 2e 60
        E 244 89 2e 40
        E 335 99 26 78
        E 30 b9 04 3e
        E 2 99 2e 7f
        E 213 89 26 40
        E 28 89 2e 40
        E 273 b9 04 41
        E 3 99 2e 6c
        E 241 89 2e 40
        E 254 99 24 5d
        E 70 b9 04 41
        E 2 99 2e 7f
        E 172 89 24 40
        E 73 89 2e 40
        E 210 99 24 51
        E 17 b9 04 41
        E 2 99 2e 5b
        E 225 89 24 40
        E 17 89 2e 40
        E 302 99 28 50
        E 34 b9 04 3e
        E 2 99 2e 7f
        E 208 89 28 40
        E 36 89 2e 40
        E 263 b9 04 3e
        E 1 99 2e 63
        E 243 89 2e 40
        E 232 99 24 63
        E 37 b9 04 3e
        E 2 99 2e 7f
        E 206 89 24 40
        E 36 89 2e 40
        E 231 b9 04 3c
        E 5 99 2e 4f
        E 242 89 2e 40
        E 26 b9 04 3a
        E 283 99 26 6a
        E 17 b9 04 3c
        E 3 99 2e 7f
        E 224 89 26 40
        E 17 89 2e 40
        E 273 b9 04 3e
        E 0 99 2e 67
        E 71 b9 04 3e
        E 173 89 2e 40
        E 292 99 24 55
        E 29 b9 04 3e
        E 3 99 2e 7f
        E 213 89 24 40
        E 26 89 2e 40
        E 246 b9 04 3f
        E 2 99 2e 5b
        E 2 99 24 54
        E 238 89 2e 40
        E 8 89 24 40
        E 285 99 26 7f
        E 24 b9 04 3e
        E 2 99 2e 7f
        E 217 89 26 40
        E 25 89 2e 40
        E 268 b9 04 3e
        E 2 99 2e 5d
        E 241 89 2e 40
        E 230 99 24 54
        E 29 b9 04 3f
        E 3 99 2e 7f
        E 213 89 24 40
        E 31 89 2e 40
        E 256 b9 04 3e
        E 2 99 2e 51
        E 242 89 2e 40
        E 278 99 26 50
        E 31 b9 04 3f
        E 2 99 2e 7f
        E 211 89 26 40
        E 31 89 2e 40
        E 268 b9 04 41
        E 3 99 2e 55
        E 244 89 2e 40
        E 225 99 24 5f
        E 36 b9 04 43
        E 2 99 2e 7f
        E 205 89 24 40
        E 37 89 2e 40
        E 234 99 24 4a
        E 3 b9 04 41
        E 2 99 2e 4d
        E 239 89 24 40
        E 5 89 2e 40
        E 285 99 26 55
        E 29 b9 04 3f
        E 2 99 2e 7f
        E 213 89 26 40
        E 32 89 2e 40
        E 255 b9 04 3f
        E 3 99 2e 4a
        E 244 89 2e 40
        E 263 99 24 5f
        E 24 b9 04 41
        E 2 99 2e 7f
        E 218 89 24 40
        E 24 89 2e 40
        E 266 b9 04 3c
        E 3 99 2e 42
        E 239 89 2e 40
        E 24 b9 04 3a
        E 285 99 26 6c
        E 17 b9 04 3e
        E 2 99 2e 7f
        E 3 b9 04 3e
        E 222 89 26 40
        E 17 89 2e 40
        E 258 b9 04 3a
        E 54 99 30 76
        E 217 89 30 40
        E 2 99 30 7f
        E 80 b9 04 41
        E 161 89 30 40
        E 62 99 30 7f
        E 243 89 30 40
        E 307 99 2d 7f
        E 198 89 2d 40
        E 2 99 2d 7f
        E 213 b9 04 3a
        E 29 89 2d 40
        E 20 99 2d 7f
        E 244 89 2d 40
        E 62 99 2d 79
        E 240 99 29 7f
        E 4 89 2d 40
        E 240 89 29 40
        E 331 99 24 7f
        E 60 99 33 7f
        E 53 b9 04 32
        E 131 89 24 40
        E 38 b9 04 29
        E 20 89 33 40
        E 401 b9 04 30
        E 280 b9 04 38
        E 159 99 24 5c
        E 6 99 33 55
        E 239 89 24 40
        E 4 89 33 40
        E 261 99 26 7f
        E 31 99 33 7f
        E 213 89 26 40
        E 33 89 33 40
        E 301 99 33 3f
        E 244 89 33 40
        E 263 99 24 55
        E 17 99 33 35
        E 227 89 24 40
        E 17 89 33 40
        E 278 99 30 7f
        E 14 99 33 4f
        E 230 89 30 40
        E 14 89 33 40
        E 257 99 30 7f
        E 29 99 33 6e
        E 214 89 30 40
        E 29 89 33 40
        E 107 b9 04 3c
        E 166 99 24 67
        E 47 99 33 6a
        E 89 b9 04 36
        E 109 89 24 40
        E 45 89 33 40
        E 83 b9 04 30
        E 178 99 33 4a
        E 245 89 33 40
        E 122 b9 04 36
        E 153 99 24 5b
        E 21 99 33 59
        E 174 b9 04 2e
        E 49 89 24 40
        E 21 89 33 40
        E 293 99 26 7d
        E 2 99 33 73
        E 48 b9 04 32
        E 194 89 26 40
        E 2 89 33 40
        E 305 99 33 59
        E 244 89 33 40
        E 190 b9 04 36
        E 47 99 33 32
        E 50 99 24 57
        E 193 89 33 40
        E 51 89 24 40
        E 271 99 33 3c
        E 16 99 29 7b
        E 76 b9 04 32
        E 152 89 33 40
        E 17 89 29 40
        E 278 99 29 7f
        E 31 99 33 44
        E 213 89 29 40
        E 31 89 33 40
        E 251 99 24 5b
        E 53 99 33 59
        E 191 89 24 40
        E 32 b9 04 2c
        E 22 89 33 40
        E 244 99 33 3e
        E 244 89 33 40
        E 181 b9 04 3c
        E 98 99 24 57
        E 2 99 33 5b
        E 18 b9 04 2c
        E 38 b9 04 1a
        E 58 b9 04 09
        E 27 b9 04 00
        E 101 89 24 40
        E 3 89 33 40
        E 285 99 26 7f
        E 20 b9 04 12
        E 8 b9 04 25
        E 11 99 33 5d
        E 3 b9 04 36
        E 26 b9 04 46
        E 5 b9 04 4c
        E 4 b9 04 56
        E 0 99 2c 1a
        E 15 b9 04 66
        E 82 b9 04 56
        E 27 b9 04 46
        E 21 b9 04 36
        E 22 89 26 40
        E 3 b9 04 22
        E 36 89 33 40
        E 2 b9 04 12
        E 34 89 2c 40
        E 239 b9 04 22
        E 34 99 33 4c
        E 3 b9 04 32
        E 43 b9 04 43
        E 171 b9 04 32
        E 27 89 33 40
        E 247 99 33 56
        E 2 99 24 53
        E 14 b9 04 3a
        E 87 b9 04 29
        E 78 b9 04 18
        E 62 89 33 40
        E 3 89 24 40
        E 58 b9 04 06
        E 210 99 30 7f
        E 10 b9 04 18
        E 12 99 33 62
        E 16 b9 04 29
        E 23 b9 04 3a
        E 21 b9 04 4a
        E 5 b9 04 4d
        E 2 99 2c 0c
        E 88 b9 04 3a
        E 43 b9 04 29
        E 24 89 30 40
        E 22 89 33 40
        E 17 b9 04 18
        E 48 89 2c 40
        E 155 b9 04 29
        E 46 b9 04 3a
        E 12 99 30 7f
        E 72 b9 04 4a
        E 99 b9 04 3a
        E 73 89 30 40
        E 7 b9 04 29
        E 273 99 24 6e
        E 39 99 33 4c
        E 138 b9 04 34
        E 67 89 24 40
        E 39 89 33 40
        E 5 b9 04 22
        E 268 99 33 41
        E 152 b9 04 30
        E 92 89 33 40
        E 251 99 33 64
        E 7 99 24 5c
        E 17 b9 04 20
        E 67 b9 04 0f
        E 71 b9 04 00
        E 82 89 33 40
        E 7 89 24 40
        E 297 99 26 7f
        E 3 b9 04 12
        E 9 b9 04 22
        E 10 b9 04 32
        E 5 99 33 6c
        E 24 b9 04 44
        E 5 b9 04 4d
        E 3 99 2c 20
        E 2 b9 04 55
        E 36 b9 04 44
        E 41 b9 04 34
        E 36 b9 04 20
        E 71 89 26 40
        E 2 b9 04 0f
        E 24 89 33 40
        E 31 89 2c 40
        E 186 b9 04 20
        E 42 b9 04 30
        E 50 99 33 56
        E 3 b9 04 41
        E 149 b9 04 30
        E 89 b9 04 20
        E 3 89 33 40
        E 147 b9 04 30
        E 107 99 33 4f
        E 9 99 24 57
        E 27 b9 04 3a
        E 150 b9 04 29
        E 58 89 33 40
        E 9 89 24 40
        E 97 b9 04 20
        E 160 99 29 65
        E 14 99 33 37
        E 68 b9 04 30
        E 161 89 29 40
        E 15 89 33 40
        E 24 b9 04 20
        E 245 99 29 7f
        E 69 b9 04 30
        E 174 89 29 40
        E 107 b9 04 20
        E 181 99 24 5e
        E 51 99 33 4c
        E 62 b9 04 2e
        E 129 b9 04 1d
        E 2 89 24 40
        E 51 89 33 40
        E 261 99 33 44
        E 127 b9 04 2e
        E 116 89 33 40
        E 208 b9 04 29
        E 66 99 24 58
        E 5 99 33 4b
        E 103 b9 04 18
        E 61 b9 04 06
        E 31 b9 04 00
        E 44 89 24 40
        E 4 89 33 40
        E 281 99 26 61
        E 46 b9 04 12
        E 4 99 33 7a
        E 2 b9 04 25
        E 8 b9 04 36
        E 29 b9 04 46
        E 5 b9 04 4d
        E 2 99 2c 1a
        E 3 b9 04 56
        E 10 b9 04 66
        E 48 b9 04 56
        E 31 b9 04 46
        E 24 b9 04 36
        E 32 89 26 40
        E 5 b9 04 25
        E 34 b9 04 15
        E 11 89 33 40
        E 46 89 2c 40
        E 82 b9 04 0c
        E 114 b9 04 1d
        E 36 99 33 56
        E 5 b9 04 2e
        E 51 b9 04 3e
        E 154 b9 04 2e
        E 32 89 33 40
        E 38 b9 04 1d
        E 189 b9 04 2e
        E 14 99 33 54
        E 41 99 24 57
        E 17 b9 04 3e
        E 172 b9 04 2e
        E 14 89 33 40
        E 42 89 24 40
        E 41 b9 04 1d
        E 190 99 30 7f
        E 37 99 33 6d
        E 92 b9 04 2e
        E 36 b9 04 3e
        E 51 b9 04 4d
        E 2 99 2c 08
        E 26 89 30 40
        E 37 89 33 40
        E 70 b9 04 2e
        E 53 b9 04 1d
        E 58 89 2c 40
        E 80 99 30 7f
        E 12 99 33 56
        E 29 b9 04 2e
        E 118 b9 04 3e
        E 85 89 30 40
        E 10 89 33 40
        E 134 b9 04 32
        E 121 99 24 50
        E 49 99 33 58
        E 195 89 24 40
        E 49 89 33 40
        E 97 b9 04 2e
        E 145 99 33 3d
        E 48 b9 04 3c
        E 195 89 33 40
        E 179 b9 04 38
        E 94 99 24 58
        E 15 99 33 56
        E 102 b9 04 3c
        E 127 89 24 40
        E 13 89 33 40
        E 43 b9 04 2e
        E 145 b9 04 20
        E 68 99 26 7f
        E 53 99 33 7d
        E 7 b9 04 30
        E 138 b9 04 36
        E 45 89 26 40
        E 54 89 33 40
        E 31 b9 04 27
        E 256 99 33 43
        E 27 b9 04 38
        E 217 89 33 40
        E 77 b9 04 2c
        E 169 99 24 52
        E 10 99 33 48
        E 58 b9 04 34
        E 177 89 24 40
        E 10 89 33 40
        E 7 b9 04 27
        E 295 99 33 51
        E 9 99 29 78
        E 34 b9 04 32
        E 118 b9 04 22
        E 83 89 33 40
        E 9 89 29 40
        E 60 b9 04 15
        E 203 99 33 49
        E 15 99 29 7f
        E 48 b9 04 25
        E 145 b9 04 2c
        E 36 89 33 40
        E 15 89 29 40
        E 121 b9 04 20
        E 137 99 24 5a
        E 37 99 33 48
        E 152 b9 04 12
        E 55 89 24 40
        E 36 89 33 40
        E 249 99 33 5b
        E 37 b9 04 1a
        E 208 89 33 40
        E 50 b9 04 2c
        E 68 b9 04 3c
        E 106 b9 04 2c
        E 41 99 24 56
        E 5 b9 04 1a
        E 12 99 33 58
        E 34 b9 04 09
        E 29 b9 04 00
        E 164 89 24 40
        E 17 89 33 40
        E 241 99 26 56
        E 5 b9 04 12
        E 15 b9 04 22
        E 22 99 33 65
        E 12 b9 04 32
        E 10 b9 04 43
        E 4 b9 04 4d
        E 2 99 2c 22
        E 3 b9 04 53
        E 29 b9 04 43
        E 32 b9 04 32
        E 29 b9 04 22
        E 58 b9 04 12
        E 24 89 26 40
        E 40 89 33 40
        E 30 89 2c 40
        E 63 b9 04 09
        E 113 b9 04 1a
        E 61 b9 04 2c
        E 9 99 33 4a
        E 124 b9 04 36
        E 109 b9 04 25
        E 11 89 33 40
        E 123 b9 04 1d
        E 111 b9 04 2e
        E 39 99 33 38
        E 10 99 24 55
        E 101 b9 04 36
        E 133 89 33 40
        E 3 b9 04 25
        E 7 89 24 40
        E 133 b9 04 1d
        E 102 99 30 7f
        E 41 99 33 74
        E 57 b9 04 2e
        E 34 b9 04 3e
        E 53 b9 04 4d
        E 3 99 2c 08
        E 12 b9 04 4f
        E 43 89 30 40
        E 41 89 33 40
        E 13 b9 04 3f
        E 55 b9 04 2e
        E 75 b9 04 1d
        E 2 89 2c 40
        E 100 99 30 7f
        E 26 99 33 51
        E 99 b9 04 2e
        E 118 89 30 40
        E 25 89 33 40
        E 2 b9 04 36
        E 123 b9 04 25
        E 119 99 24 59
        E 29 b9 04 20
        E 14 99 33 62
        E 174 b9 04 2c
        E 27 89 24 40
        E 43 89 33 40
        E 182 b9 04 27
        E 58 99 33 4e
        E 144 b9 04 2e
        E 99 89 33 40
        E 259 99 33 4b
        E 12 99 24 51
        E 12 b9 04 36
        E 171 b9 04 29
        E 49 89 33 40
        E 12 89 24 40
        E 125 b9 04 22
        E 187 99 26 7f
        E 9 99 33 77
        E 143 b9 04 2c
        E 92 89 26 40
        E 6 89 33 40
        E 112 b9 04 1d
        E 148 99 33 3e
        E 171 b9 04 29
        E 72 89 33 40
        E 111 b9 04 1d
        E 192 99 30 7f
        E 222 89 30 40
        E 2 99 30 7f
        E 29 b9 04 25
        E 172 b9 04 1d
        E 43 89 30 40
        E 10 99 30 7f
        E 140 b9 04 27
        E 104 89 30 40
        E 24 99 30 5c
        E 237 99 29 7f
        E 7 89 30 40
        E 39 b9 04 2e
        E 198 89 29 40
        E 21 99 29 64
        E 244 89 29 40
        E 46 99 24 6a
        E 12 99 33 7f
        E 233 89 24 40
        E 11 89 33 40
        E 63 b9 04 27
        E 206 99 33 44
        E 42 b9 04 2e
        E 201 89 33 40
        E 204 b9 04 3e
        E 43 99 24 51
        E 46 99 33 7f
        E 53 b9 04 2e
        E 44 b9 04 1d
        E 68 b9 04 0c
        E 33 89 24 40
        E 15 b9 04 00
        E 31 89 33 40
        E 293 99 26 62
        E 16 b9 04 12
        E 5 99 33 7f
        E 17 b9 04 25
        E 11 b9 04 36
        E 10 b9 04 46
        E 6 b9 04 4c
        E 2 99 2c 16
        E 104 b9 04 36
        E 34 b9 04 25
        E 38 b9 04 15
        E 3 89 26 40
        E 19 89 33 40
        E 46 89 2c 40
        E 70 b9 04 06
        E 123 b9 04 18
        E 58 99 33 48
        E 8 b9 04 29
        E 132 b9 04 32
        E 75 b9 04 22
        E 30 89 33 40
        E 118 b9 04 1d
        E 116 99 33 38
        E 5 b9 04 2e
        E 5 99 24 4d
        E 234 89 33 40
        E 10 89 24 40
        E 16 b9 04 1d
        E 220 99 30 7f
        E 55 99 33 44
        E 61 b9 04 2e
        E 128 89 30 40
        E 5 b9 04 36
        E 50 89 33 40
        E 32 b9 04 25
        E 128 b9 04 18
        E 89 99 33 69
        E 28 99 30 7f
        E 6 b9 04 29
        E 104 b9 04 3a
        E 107 89 33 40
        E 29 89 30 40
        E 13 b9 04 29
        E 153 b9 04 1d
        E 111 99 24 55
        E 32 99 33 56
        E 212 89 24 40
        E 31 89 33 40
        E 69 b9 04 15
        E 163 b9 04 25
        E 13 99 33 4c
        E 244 89 33 40
        E 53 b9 04 20
        E 196 b9 04 30
        E 19 99 24 4e
        E 9 99 33 4e
        E 129 b9 04 20
        E 80 b9 04 0f
        E 24 89 24 40
        E 11 89 33 40
        E 27 b9 04 00
        E 278 99 26 7c
        E 10 99 33 7f
        E 14 b9 04 12
        E 24 b9 04 22
        E 7 b9 04 32
        E 8 b9 04 43
        E 7 b9 04 4c
        E 3 99 2c 1e
        E 31 b9 04 32
        E 72 b9 04 22
        E 66 89 26 40
        E 12 89 33 40
        E 17 b9 04 12
        E 43 89 2c 40
        E 186 b9 04 22
        E 60 99 33 39
        E 2 b9 04 32
        E 134 b9 04 36
        E 109 89 33 40
        E 23 b9 04 25
        E 225 99 33 44
        E 17 99 24 4e
        E 89 b9 04 2c
        E 138 89 33 40
        E 17 89 24 40
        E 4 b9 04 1a
        E 294 99 29 7b
        E 12 99 33 35
        E 94 b9 04 2c
        E 138 89 29 40
        E 9 89 33 40
        E 36 b9 04 1a
        E 174 b9 04 15
        E 74 99 29 7f
        E 86 b9 04 25
        E 140 b9 04 30
        E 15 89 29 40
        E 92 b9 04 20
        E 197 99 24 57
        E 34 99 33 4c
        E 210 89 24 40
        E 34 89 33 40
        E 38 b9 04 0f
        E 226 99 33 45
        E 77 b9 04 20
        E 55 b9 04 30
        E 112 89 33 40
        E 64 b9 04 20
        E 230 99 24 54
        E 7 99 33 3c
        E 237 89 24 40
        E 5 89 33 40
        E 31 b9 04 12
        E 252 99 26 6e
        E 67 99 33 78
        E 3 b9 04 20
        E 171 89 26 40
        E 71 89 33 40
        E 72 b9 04 18
        E 193 99 33 34
        E 94 b9 04 20
        E 150 89 33 40
        E 261 99 33 3b
        E 2 99 24 4d
        E 59 b9 04 27
        E 179 b9 04 1a
        E 4 89 33 40
        E 2 89 24 40
        E 264 99 30 7f
        E 34 b9 04 2c
        E 19 99 33 3a
        E 191 89 30 40
        E 53 89 33 40
        E 32 b9 04 1d
        E 219 99 30 7f
        E 3 99 33 44
        E 154 b9 04 2c
        E 85 89 30 40
        E 3 89 33 40
        E 193 b9 04 25
        E 58 99 33 30
        E 244 89 33 40
        E 278 99 33 49
        E 243 89 33 40
        E 304 99 33 44
        E 245 89 33 40
        E 321 99 33 45
        E 150 b9 04 20
        E 92 89 33 40
        E 246 99 33 2f
        E 244 89 33 40
        E 309 99 30 7f
        E 230 89 30 40
        E 3 99 30 7f
        E 33 b9 04 25
        E 196 89 30 40
        E 3 99 30 6b
        E 241 89 30 40
        E 41 99 30 6c
        E 237 99 29 66
        E 7 89 30 40
        E 237 89 29 40
        E 39 99 29 2a
        E 244 89 29 40
        E 22 99 29 7f
        E 4 99 24 72
        E 56 b9 04 20
        E 183 89 29 40
        E 5 89 24 40
        E 247 99 29 40
        E 244 89 29 40
        E 316 99 24 51
        E 33 b9 04 25
        E 13 99 29 5c
        E 147 b9 04 20
        E 51 89 24 40
        E 46 89 29 40
        E 259 99 26 66
        E 33 99 29 7d
        E 211 89 26 40
        E 33 89 29 40
        E 269 99 26 52
        E 2 99 29 6b
        E 239 89 26 40
        E 3 89 29 40
        E 323 99 24 50
        E 3 99 29 45
        E 239 89 24 40
        E 2 89 29 40
        E 296 99 26 78
        E 4 99 29 74
        E 242 89 26 40
        E 2 89 29 40
        E 217 b9 04 30
        E 70 99 29 37
        E 37 b9 04 20
        E 89 b9 04 0f
        E 60 b9 04 00
        E 58 89 29 40
        E 235 b9 04 12
        E 22 b9 04 25
        E 14 b9 04 36
        E 10 99 24 4e
        E 14 99 29 62
        E 91 b9 04 25
        E 71 b9 04 15
        E 68 89 24 40
        E 14 89 29 40
        E 176 b9 04 25
        E 66 b9 04 36
        E 50 99 29 35
        E 66 b9 04 25
        E 50 b9 04 15
        E 56 b9 04 03
        E 22 b9 04 00
        E 51 89 29 40
        E 268 b9 04 12
        E 0 99 24 44
        E 12 99 29 50
        E 14 b9 04 22
        E 22 b9 04 32
        E 38 b9 04 22
        E 78 b9 04 12
        E 80 89 24 40
        E 11 89 29 40
        E 72 b9 04 06
        E 151 b9 04 18
        E 36 b9 04 29
        E 0 99 26 7a
        E 53 99 29 64
        E 126 b9 04 18
        E 63 b9 04 06
        E 3 89 26 40
        E 28 b9 04 00
        E 24 89 29 40
        E 254 99 26 60
        E 24 99 29 64
        E 17 b9 04 12
        E 27 b9 04 22
        E 14 b9 04 32
        E 31 b9 04 43
        E 42 b9 04 32
        E 46 b9 04 20
        E 43 89 26 40
        E 22 b9 04 0f
        E 2 89 29 40
        E 143 b9 04 06
        E 94 b9 04 18
        E 41 b9 04 29
        E 29 99 29 41
        E 5 99 24 50
        E 135 b9 04 18
        E 51 b9 04 06
        E 31 b9 04 00
        E 20 89 29 40
        E 7 89 24 40
        E 288 99 26 64
        E 19 99 29 6b
        E 19 b9 04 12
        E 15 b9 04 22
        E 31 b9 04 32
        E 10 b9 04 43
        E 2 b9 04 4c
        E 2 99 2c 20
        E 5 b9 04 53
        E 27 b9 04 43
        E 51 b9 04 32
        E 33 b9 04 22
        E 30 89 26 40
        E 16 89 29 40
        E 10 b9 04 12
        E 73 89 2c 40
        E 77 b9 04 09
        E 80 b9 04 1a
        E 19 99 29 39
        E 29 b9 04 2c
        E 143 b9 04 1a
        E 50 b9 04 09
        E 22 89 29 40
        E 12 b9 04 00
        E 273 99 24 50
        E 21 b9 04 12
        E 19 99 29 71
        E 16 b9 04 25
        E 9 b9 04 36
        E 10 b9 04 46
        E 5 b9 04 4c
        E 2 99 2c 1a
        E 22 b9 04 36
        E 70 b9 04 25
        E 65 b9 04 15
        E 4 89 24 40
        E 42 89 29 40
        E 41 89 2c 40
        E 63 b9 04 0f
        E 87 b9 04 20
        E 34 b9 04 30
        E 60 99 29 2e
        E 97 b9 04 20
        E 53 b9 04 0f
        E 43 b9 04 00
        E 51 89 29 40
        E 269 99 24 47
        E 2 b9 04 12
        E 9 99 29 49
        E 27 b9 04 25
        E 12 b9 04 36
        E 41 b9 04 25
        E 78 b9 04 15
        E 74 89 24 40
        E 10 89 29 40
        E 17 b9 04 03
        E 203 b9 04 15
        E 28 99 26 78
        E 11 b9 04 25
        E 29 99 29 67
        E 154 b9 04 15
        E 51 89 26 40
        E 19 b9 04 03
        E 17 b9 04 00
        E 3 89 29 40
        E 267 99 26 59
        E 15 99 29 61
        E 59 b9 04 12
        E 35 b9 04 22
        E 19 b9 04 32
        E 68 b9 04 22
        E 48 89 26 40
        E 15 89 29 40
        E 8 b9 04 12
        E 176 b9 04 0c
        E 106 99 29 4d
        E 14 b9 04 1d
        E 78 b9 04 2e
        E 133 b9 04 1d
        E 19 89 29 40
        E 80 b9 04 0c
        E 67 b9 04 00
        E 170 99 29 7e
        E 4 99 26 7b
        E 95 b9 04 12
        E 31 b9 04 22
        E 20 b9 04 32
        E 38 b9 04 22
        E 56 89 29 40
        E 4 89 26 40
        E 25 b9 04 12
        E 217 b9 04 22
        E 39 99 29 3a
        E 157 b9 04 12
        E 63 b9 04 00
        E 24 89 29 40
        E 258 99 24 4b
        E 10 b9 04 12
        E 27 b9 04 22
        E 7 99 29 63
        E 2 b9 04 32
        E 15 b9 04 43
        E 17 b9 04 32
        E 16 b9 04 22
        E 111 b9 04 12
        E 39 89 24 40
        E 44 89 29 40
        E 205 b9 04 22
        E 26 b9 04 32
        E 49 99 29 35
        E 87 b9 04 22
        E 43 b9 04 12
        E 65 b9 04 00
        E 49 89 29 40
        E 261 99 24 46
        E 9 b9 04 12
        E 17 99 29 54
        E 27 b9 04 25
        E 12 b9 04 36
        E 7 b9 04 46
        E 5 b9 04 4c
        E 3 99 2c 1a
        E 23 b9 04 36
        E 57 b9 04 25
        E 43 b9 04 15
        E 41 89 24 40
        E 27 89 29 40
        E 14 b9 04 03
        E 24 b9 04 00
        E 15 89 2c 40
        E 169 b9 04 12
        E 38 b9 04 25
        E 15 99 26 74
        E 12 b9 04 36
        E 10 99 29 71
        E 130 b9 04 22
        E 46 b9 04 12
        E 46 89 26 40
        E 19 89 29 40
        E 17 b9 04 00
        E 239 99 26 41
        E 8 99 29 5e
        E 82 b9 04 12
        E 24 b9 04 25
        E 19 b9 04 36
        E 25 b9 04 46
        E 26 b9 04 36
        E 51 b9 04 25
        E 10 89 26 40
        E 7 89 29 40
        E 36 b9 04 15
        E 154 b9 04 0f
        E 90 b9 04 20
        E 32 99 24 51
        E 9 99 29 43
        E 3 b9 04 30
        E 113 b9 04 20
        E 53 b9 04 0f
        E 55 b9 04 00
        E 10 89 24 40
        E 10 89 29 40
        E 285 99 26 6a
        E 12 99 29 72
        E 20 b9 04 12
        E 12 b9 04 25
        E 33 b9 04 36
        E 8 b9 04 46
        E 2 b9 04 4c
        E 5 99 2c 22
        E 2 b9 04 56
        E 17 b9 04 46
        E 9 b9 04 36
        E 61 b9 04 25
        E 51 b9 04 15
        E 12 89 26 40
        E 12 89 29 40
        E 80 89 2c 40
        E 51 b9 04 09
        E 87 b9 04 1a
        E 60 b9 04 2c
        E 10 99 29 2f
        E 113 b9 04 1a
        E 56 b9 04 09
        E 28 b9 04 00
        E 47 89 29 40
        E 253 b9 04 12
        E 17 99 24 50
        E 13 99 29 74
        E 2 b9 04 22
        E 10 b9 04 32
        E 7 b9 04 43
        E 7 b9 04 4c
        E 2 99 2c 1e
        E 20 b9 04 32
        E 50 b9 04 22
        E 126 b9 04 12
        E 7 89 24 40
        E 13 89 29 40
        E 28 89 2c 40
        E 126 b9 04 25
        E 41 b9 04 36
        E 75 b9 04 46
        E 12 99 29 31
        E 60 b9 04 36
        E 39 b9 04 25
        E 36 b9 04 15
        E 65 b9 04 03
        E 13 b9 04 00
        E 29 89 29 40
        E 269 b9 04 12
        E 23 b9 04 25
        E 9 b9 04 36
        E 8 99 24 4e
        E 2 b9 04 46
        E 2 b9 04 4c
        E 3 99 2c 1a
        E 17 b9 04 56
        E 10 99 29 43
        E 48 b9 04 46
        E 34 b9 04 36
        E 34 b9 04 25
        E 36 b9 04 15
        E 58 89 24 40
        E 8 89 2c 40
        E 26 89 29 40
        E 51 b9 04 06
        E 106 b9 04 18
        E 36 b9 04 29
        E 19 b9 04 3a
        E 34 99 26 79
        E 5 b9 04 4a
        E 19 b9 04 4d
        E 3 99 2c 08
        E 12 99 29 7f
        E 65 b9 04 3a
        E 31 b9 04 29
        E 34 b9 04 18
        E 36 b9 04 06
        E 13 b9 04 00
        E 26 89 26 40
        E 25 89 2c 40
        E 14 89 29 40
        E 220 b9 04 12
        E 17 b9 04 25
        E 7 99 24 51
        E 14 b9 04 36
        E 10 b9 04 46
        E 3 b9 04 4c
        E 0 99 2c 20
        E 5 b9 04 56
        E 38 99 29 43
        E 58 b9 04 46
        E 34 b9 04 36
        E 34 b9 04 25
        E 34 b9 04 15
        E 14 89 24 40
        E 27 89 2c 40
        E 43 89 29 40
        E 55 b9 04 0c
        E 56 b9 04 1d
        E 31 b9 04 2e
        E 29 b9 04 3e
        E 34 99 24 3f
        E 78 99 29 39
        E 43 b9 04 2e
        E 29 b9 04 1d
        E 53 b9 04 0c
        E 29 b9 04 00
        E 12 89 24 40
        E 78 89 29 40
        E 227 99 26 7c
        E 17 b9 04 12
        E 12 b9 04 25
        E 14 b9 04 36
        E 10 99 29 6b
        E 14 b9 04 47
        E 2 b9 04 4d
        E 3 99 2c 20
        E 2 b9 04 57
        E 35 b9 04 47
        E 45 b9 04 36
        E 39 b9 04 25
        E 36 b9 04 15
        E 15 89 26 40
        E 43 b9 04 03
        E 8 89 29 40
        E 16 b9 04 00
        E 2 89 2c 40
        E 136 b9 04 12
        E 41 b9 04 22
        E 27 b9 04 32
        E 43 99 29 35
        E 101 b9 04 22
        E 39 b9 04 12
        E 49 b9 04 00
        E 56 89 29 40
        E 236 b9 04 12
        E 24 b9 04 22
        E 2 99 24 4d
        E 15 b9 04 32
        E 13 b9 04 43
        E 4 b9 04 4c
        E 1 99 2c 1e
        E 3 b9 04 53
        E 5 99 29 5b
        E 58 b9 04 43
        E 39 b9 04 32
        E 41 b9 04 20
        E 66 89 24 40
        E 2 b9 04 0f
        E 28 89 2c 40
        E 9 89 29 40
        E 166 b9 04 20
        E 24 b9 04 30
        E 32 b9 04 41
        E 21 99 29 36
        E 92 b9 04 30
        E 24 b9 04 20
        E 39 b9 04 0f
        E 39 b9 04 00
        E 50 89 29 40
        E 268 b9 04 12
        E 17 99 24 49
        E 5 b9 04 22
        E 29 b9 04 32
        E 8 99 29 4a
        E 2 b9 04 44
        E 2 b9 04 4c
        E 3 99 2c 22
        E 2 b9 04 55
        E 32 b9 04 44
        E 41 b9 04 34
        E 36 b9 04 20
        E 53 b9 04 0f
        E 32 89 24 40
        E 41 89 29 40
        E 6 89 2c 40
        E 3 b9 04 00
        E 145 b9 04 12
        E 39 b9 04 22
        E 17 b9 04 32
        E 26 99 26 7f
        E 3 b9 04 43
        E 53 99 29 6d
        E 70 b9 04 32
        E 27 b9 04 22
        E 38 b9 04 12
        E 48 b9 04 00
        E 3 89 26 40
        E 58 89 29 40
        E 210 b9 04 12
        E 22 b9 04 22
        E 9 99 24 49
        E 8 b9 04 32
        E 9 b9 04 44
        E 3 b9 04 4c
        E 2 99 2c 22
        E 5 b9 04 54
        E 19 99 29 40
        E 73 b9 04 44
        E 38 b9 04 34
        E 29 b9 04 22
        E 39 b9 04 12
        E 19 89 24 40
        E 21 89 2c 40
        E 25 89 29 40
        E 80 b9 04 0c
        E 51 b9 04 1d
        E 31 b9 04 2e
        E 34 b9 04 3e
        E 51 99 24 48
        E 12 99 29 39
        E 55 b9 04 2e
        E 30 b9 04 1d
        E 39 b9 04 0c
        E 31 b9 04 00
        E 76 89 24 40
        E 13 89 29 40
        E 247 99 26 77
        E 17 b9 04 12
        E 9 b9 04 25
        E 6 b9 04 36
        E 30 b9 04 46
        E 2 99 29 53
        E 2 b9 04 4d
        E 3 99 2c 1a
        E 2 b9 04 57
        E 10 b9 04 68
        E 32 b9 04 58
        E 38 b9 04 47
        E 29 b9 04 36
        E 27 b9 04 25
        E 27 b9 04 15
        E 9 89 26 40
        E 46 b9 04 03
        E 20 89 29 40
        E 5 89 2c 40
        E 1 b9 04 00
        E 148 b9 04 12
        E 39 b9 04 22
        E 21 b9 04 32
        E 37 b9 04 43
        E 9 99 29 37
        E 88 b9 04 32
        E 26 b9 04 22
        E 31 b9 04 12
        E 41 b9 04 00
        E 58 89 29 40
        E 252 b9 04 12
        E 9 99 24 4b
        E 2 b9 04 25
        E 32 b9 04 36
        E 10 b9 04 46
        E 3 b9 04 4c
        E 2 99 2c 20
        E 5 b9 04 56
        E 2 99 29 63
        E 17 b9 04 46
        E 12 b9 04 36
        E 61 b9 04 25
        E 45 b9 04 15
        E 53 89 24 40
        E 22 b9 04 03
        E 27 89 2c 40
        E 7 89 29 40
        E 128 b9 04 15
        E 36 b9 04 25
        E 27 b9 04 36
        E 89 99 29 33
        E 66 b9 04 25
        E 33 b9 04 15
        E 43 b9 04 03
        E 10 b9 04 00
        E 92 89 29 40
        E 201 b9 04 12
        E 15 99 24 49
        E 7 b9 04 22
        E 19 b9 04 32
        E 10 b9 04 43
        E 7 b9 04 4c
        E 2 99 2c 1c
        E 3 b9 04 53
        E 2 99 29 4e
        E 53 b9 04 43
        E 39 b9 04 32
        E 34 b9 04 22
        E 40 b9 04 12
        E 25 89 24 40
        E 46 89 2c 40
        E 4 89 29 40
        E 73 b9 04 03
        E 126 b9 04 15
        E 19 b9 04 25
        E 15 b9 04 36
        E 19 99 26 7d
        E 2 b9 04 46
        E 15 b9 04 4d
        E 0 99 2c 0e
        E 33 99 29 66
        E 93 b9 04 36
        E 26 b9 04 25
        E 24 b9 04 15
        E 32 b9 04 03
        E 5 b9 04 00
        E 14 89 26 40
        E 17 89 2c 40
        E 33 89 29 40
        E 220 b9 04 12
        E 13 99 24 43
        E 2 b9 04 22
        E 19 b9 04 32
        E 14 b9 04 43
        E 3 b9 04 4c
        E 2 99 2c 1c
        E 2 b9 04 53
        E 11 99 29 3a
        E 96 b9 04 43
        E 25 b9 04 32
        E 21 b9 04 22
        E 32 b9 04 12
        E 17 89 24 40
        E 34 b9 04 00
        E 7 89 2c 40
        E 12 89 29 40
        E 164 b9 04 12
        E 31 b9 04 22
        E 21 b9 04 32
        E 28 99 29 37
        E 14 99 24 4b
        E 104 b9 04 22
        E 33 b9 04 12
        E 56 b9 04 00
        E 37 89 29 40
        E 14 89 24 40
        E 283 99 26 75
        E 10 b9 04 12
        E 7 b9 04 22
        E 12 b9 04 32
        E 19 99 29 61
        E 10 b9 04 43
        E 5 b9 04 4d
        E 2 99 2c 20
        E 2 b9 04 54
        E 59 b9 04 44
        E 29 b9 04 34
        E 34 b9 04 22
        E 37 b9 04 12
        E 18 89 26 40
        E 46 b9 04 00
        E 2 89 29 40
        E 18 89 2c 40
        E 161 b9 04 12
        E 34 b9 04 25
        E 26 b9 04 36
        E 63 99 29 31
        E 84 b9 04 25
        E 32 b9 04 15
        E 39 b9 04 03
        E 12 b9 04 00
        E 77 89 29 40
        E 208 99 24 46
        E 24 b9 04 12
        E 22 b9 04 22
        E 27 99 29 6a
        E 2 b9 04 32
        E 12 b9 04 43
        E 21 b9 04 32
        E 13 b9 04 20
        E 108 b9 04 0f
        E 15 89 24 40
        E 72 89 29 40
        E 71 b9 04 06
        E 94 b9 04 18
        E 46 b9 04 29
        E 38 99 29 37
        E 18 b9 04 3a
        E 81 b9 04 29
        E 44 b9 04 18
        E 49 b9 04 06
        E 23 b9 04 00
        E 30 89 29 40
        E 284 b9 04 12
        E 26 99 29 59
        E 3 99 24 48
        E 5 b9 04 22
        E 15 b9 04 32
        E 9 b9 04 43
        E 6 b9 04 4c
        E 2 99 2c 1a
        E 76 b9 04 32
        E 35 b9 04 22
        E 43 b9 04 12
        E 48 89 29 40
        E 3 89 24 40
        E 39 89 2c 40
        E 2 b9 04 00
        E 167 b9 04 12
        E 39 b9 04 22
        E 29 b9 04 32
        E 11 99 26 7f
        E 37 99 29 7f
        E 77 b9 04 22
        E 41 b9 04 12
        E 44 b9 04 00
        E 46 89 26 40
        E 36 89 29 40
        E 205 b9 04 12
        E 24 99 24 43
        E 10 b9 04 25
        E 12 b9 04 36
        E 7 b9 04 47
        E 2 b9 04 4c
        E 3 99 2c 1e
        E 34 99 29 3f
        E 73 b9 04 36
        E 35 b9 04 25
        E 39 b9 04 15
        E 29 89 24 40
        E 34 89 2c 40
        E 5 b9 04 03
        E 29 89 29 40
        E 124 b9 04 15
        E 36 b9 04 27
        E 33 b9 04 38
        E 37 99 24 46
        E 57 99 29 3d
        E 41 b9 04 27
        E 46 b9 04 15
        E 46 b9 04 03
        E 9 b9 04 00
        E 44 89 24 40
        E 58 89 29 40
        E 245 b9 04 12
        E 16 b9 04 25
        E 3 99 26 7c
        E 29 b9 04 36
        E 10 b9 04 46
        E 2 99 29 6a
        E 3 b9 04 4d
        E 2 99 2c 20
        E 3 b9 04 57
        E 55 b9 04 47
        E 33 b9 04 36
        E 32 b9 04 25
        E 32 b9 04 15
        E 41 89 26 40
        E 9 b9 04 03
        E 20 b9 04 00
        E 12 89 29 40
        E 2 89 2c 40
        E 174 b9 04 12
        E 31 b9 04 22
        E 17 b9 04 32
        E 27 b9 04 43
        E 28 b9 04 4c
        E 3 99 2c 0a
        E 7 99 29 3f
        E 95 b9 04 32
        E 24 b9 04 22
        E 41 b9 04 12
        E 46 b9 04 00
        E 31 89 2c 40
        E 5 89 29 40
        E 254 b9 04 12
        E 22 99 24 56
        E 2 b9 04 25
        E 12 b9 04 36
        E 13 b9 04 46
        E 2 b9 04 4c
        E 2 99 2c 1a
        E 5 b9 04 56
        E 70 b9 04 46
        E 37 b9 04 36
        E 35 b9 04 22
        E 51 b9 04 12
        E 15 89 24 40
        E 28 89 2c 40
        E 230 b9 04 22
        E 22 b9 04 32
        E 2 99 26 46
        E 29 b9 04 43
        E 19 89 26 40
        E 3 99 26 6c
        E 21 b9 04 4d
        E 5 99 2c 08
        E 143 b9 04 32
        E 75 89 26 40
        E 2 b9 04 22
        E 24 89 2c 40
        E 250 b9 04 32
        E 2 99 26 5e
        E 36 b9 04 43
        E 176 b9 04 32
        E 31 89 26 40
        E 231 99 24 53
        E 50 b9 04 3a
        E 188 b9 04 2e
        E 5 89 24 40
        E 307 b9 04 3e
        E 162 b9 04 44
        E 481 99 24 50
        E 222 b9 04 3a
        E 21 89 24 40
        E 284 b9 04 2e
        E 11 99 26 7f
        E 92 89 26 40
        E 3 99 26 7f
        E 46 b9 04 36
        E 101 b9 04 25
        E 92 89 26 40
        E 227 b9 04 32
        E 522 b9 04 3e
        E 29 99 24 53
        E 186 b9 04 36
        E 55 89 24 40
        E 288 99 26 74
        E 242 89 26 40
        E 79 b9 04 32
        E 179 99 26 57
        E 107 89 26 40
        E 2 99 26 6e
        E 159 b9 04 38
        E 80 89 26 40
        E 239 99 24 57
        E 242 89 24 40
        E 109 b9 04 30
        E 702 b9 04 3a
        E 66 99 24 4b
        E 231 b9 04 32
        E 13 89 24 40
        E 311 99 26 7f
        E 97 99 28 60
        E 145 89 26 40
        E 5 b9 04 22
        E 92 89 28 40
        E 191 b9 04 32
        E 113 b9 04 43
        E 227 b9 04 34
        E 109 b9 04 22
        E 159 99 24 53
        E 34 b9 04 1d
        E 44 b9 04 2e
        E 89 b9 04 1d
        E 77 89 24 40
        E 208 99 26 64
        E 145 b9 04 29
        E 97 89 26 40
        E 275 99 26 6f
        E 94 89 26 40
        E 3 99 26 75
        E 80 b9 04 34
        E 159 89 26 40
        E 49 b9 04 2c
        E 202 99 24 57
        E 244 89 24 40
        E 126 b9 04 27
        E 560 b9 04 36
        E 141 99 24 50
        E 79 b9 04 25
        E 78 b9 04 15
        E 84 89 24 40
        E 3 b9 04 03
        E 21 b9 04 00
        E 269 b9 04 12
        E 2 99 26 7f
        E 29 b9 04 22
        E 63 b9 04 12
        E 27 89 26 40
        E 2 99 26 7f
        E 128 b9 04 06
        E 114 89 26 40
        E 48 b9 04 18
        E 67 b9 04 29
        E 135 b9 04 2e
        E 54 b9 04 1d
        E 51 b9 04 0c
        E 31 b9 04 00
        E 302 b9 04 12
        E 19 b9 04 25
        E 12 b9 04 36
        E 17 99 24 4d
        E 10 b9 04 46
        E 43 b9 04 36
        E 70 b9 04 25
        E 66 b9 04 15
        E 53 89 24 40
        E 152 b9 04 25
        E 67 b9 04 36
        E 83 99 26 75
        E 55 b9 04 3c
        E 87 b9 04 2c
        E 99 89 26 40
        E 32 b9 04 1a
        E 232 99 26 64
        E 16 b9 04 2c
        E 66 89 26 40
        E 2 99 26 68
        E 32 b9 04 1a
        E 178 b9 04 0f
        E 32 89 26 40
        E 253 b9 04 1a
        E 25 99 24 55
        E 241 89 24 40
        E 270 b9 04 27
        E 436 b9 04 34
        E 103 99 24 57
        E 47 b9 04 3a
        E 151 b9 04 29
        E 44 89 24 40
        E 131 b9 04 1d
        E 111 99 26 7f
        E 106 b9 04 2e
        E 2 89 26 40
        E 3 99 26 7f
        E 104 b9 04 1d
        E 138 89 26 40
        E 142 b9 04 2e
        E 121 b9 04 3e
        E 179 b9 04 2e
        E 135 b9 04 1d
        E 198 99 24 65
        E 7 b9 04 2e
        E 39 b9 04 1d
        E 196 89 24 40
        E 275 99 26 7f
        E 225 89 26 40
        E 2 99 26 52
        E 239 89 26 40
        E 10 99 26 56
        E 82 b9 04 2e
        E 160 89 26 40
        E 16 99 26 5e
        E 13 b9 04 34
        E 181 b9 04 22
        E 48 89 26 40
        E 27 b9 04 12
        E 29 99 24 68
        E 26 b9 04 03
        E 3 99 2e 7f
        E 29 b9 04 00
        E 186 89 24 40
        E 29 89 2e 40
        E 79 b9 04 12
        E 34 b9 04 22
        E 25 b9 04 32
        E 48 b9 04 43
        E 147 b9 04 47
        E 159 b9 04 3e
        E 210 b9 04 4c
        E 3 99 2c 06
        E 29 b9 04 4c
        E 97 99 24 59
        E 92 b9 04 3c
        E 23 89 2c 40
        E 126 89 24 40
        E 12 b9 04 34
        E 239 b9 04 2c
        E 61 99 26 73
        E 15 b9 04 2c
        E 2 99 2e 7f
        E 172 b9 04 20
        E 52 89 26 40
        E 20 89 2e 40
        E 99 b9 04 30
        E 176 b9 04 3a
        E 365 b9 04 32
        E 124 b9 04 22
        E 74 99 24 6e
        E 8 b9 04 12
        E 174 b9 04 06
        E 60 89 24 40
        E 162 b9 04 18
        E 139 99 26 76
        E 30 b9 04 27
        E 181 89 26 40
        E 3 99 26 53
        E 224 b9 04 36
        E 15 89 26 40
        E 21 99 26 4c
        E 187 b9 04 3a
        E 58 89 26 40
        E 9 99 26 42
        E 113 b9 04 49
        E 131 89 26 40
        E 20 b9 04 38
        E 17 99 24 7c
        E 2 b9 04 34
        E 2 99 2e 7f
        E 39 b9 04 27
        E 58 b9 04 15
        E 82 b9 04 03
        E 61 89 24 40
        E 4 89 2e 40
        E 87 b9 04 15
        E 54 b9 04 25
        E 52 b9 04 36
        E 143 b9 04 3c
        E 167 b9 04 36
        E 213 b9 04 43
        E 144 99 24 62
        E 192 b9 04 36
        E 50 89 24 40
        E 268 99 26 7f
        E 119 b9 04 43
        E 5 89 26 40
        E 2 99 26 7d
        E 146 b9 04 36
        E 93 89 26 40
        E 191 b9 04 46
        E 265 b9 04 3a
        E 230 b9 04 29
        E 70 b9 04 18
        E 22 99 24 68
        E 28 b9 04 06
        E 5 b9 04 06
        E 2 99 2e 7f
        E 52 b9 04 00
        E 155 89 24 40
        E 38 89 2e 40
        E 191 b9 04 12
        E 58 b9 04 22
        E 41 99 26 33
        E 17 b9 04 32
        E 135 b9 04 38
        E 53 89 26 40
        E 3 99 26 48
        E 244 89 26 40
        E 21 99 26 40
        E 97 b9 04 43
        E 145 89 26 40
        E 10 99 26 4c
        E 24 b9 04 3a
        E 140 b9 04 29
        E 56 b9 04 18
        E 24 89 26 40
        E 17 b9 04 06
        E 9 99 24 7f
        E 20 b9 04 00
        E 16 b9 04 00
        E 2 99 2e 7f
        E 207 89 24 40
        E 35 89 2e 40
        E 806 99 24 53
        E 242 89 24 40
        E 272 99 26 7f
        E 4 b9 04 12
        E 95 89 26 40
        E 2 99 26 7f
        E 34 b9 04 22
        E 147 b9 04 27
        E 61 89 26 40
        E 560 b9 04 18
        E 90 b9 04 06
        E 75 b9 04 00
        E 14 99 24 69
        E 17 b9 04 00
        E 2 99 2e 7f
        E 225 89 24 40
        E 20 89 2e 40
        E 263 b9 04 12
        E 41 99 26 44
        E 72 b9 04 22
        E 141 b9 04 29
        E 14 89 26 40
        E 2 99 26 50
        E 242 89 26 40
        E 5 99 26 64
        E 10 b9 04 36
        E 232 89 26 40
        E 12 99 26 50
        E 113 b9 04 25
        E 53 b9 04 15
        E 73 b9 04 03
        E 5 89 26 40
        E 19 b9 04 00
        E 34 99 24 7b
        E 12 b9 04 00
        E 2 99 2e 7f
        E 230 89 24 40
        E 14 89 2e 40
        E 781 99 24 59
        E 241 89 24 40
        E 227 b9 04 12
        E 20 99 26 7f
        E 80 89 26 40
        E 2 99 26 7f
        E 55 b9 04 20
        E 186 89 26 40
        E 506 b9 04 0f
        E 142 b9 04 00
        E 104 99 24 67
        E 84 b9 04 00
        E 2 99 2e 7f
        E 156 89 24 40
        E 86 89 2e 40
        E 242 b9 04 12
        E 15 99 26 46
        E 105 b9 04 22
        E 119 89 26 40
        E 3 99 26 4b
        E 31 b9 04 27
        E 210 89 26 40
        E 2 99 26 5d
        E 116 b9 04 2e
        E 129 89 26 40
        E 9 99 26 52
        E 114 b9 04 1d
        E 94 b9 04 0c
        E 34 89 26 40
        E 36 b9 04 00
        E 29 99 24 7f
        E 7 b9 04 00
        E 3 99 2e 7f
        E 234 89 24 40
        E 10 89 2e 40
        E 807 99 24 56
        E 243 89 24 40
        E 257 99 26 7f
        E 12 b9 04 12
        E 77 89 26 40
        E 3 99 26 7f
        E 71 b9 04 20
        E 171 89 26 40
        E 407 b9 04 0f
        E 175 b9 04 03
        E 161 99 24 62
        E 3 b9 04 00
        E 34 b9 04 03
        E 1 99 2e 7f
        E 206 89 24 40
        E 39 89 2e 40
        E 309 99 26 50
        E 128 b9 04 12
        E 109 89 26 40
        E 3 99 26 5d
        E 63 b9 04 1d
        E 177 89 26 40
        E 30 99 28 44
        E 242 89 28 40
        E 303 99 30 43
        E 242 89 30 40
        E 30 99 30 52
        E 222 89 30 40
        E 2 99 30 3e
        E 68 99 26 0a
        E 174 89 30 40
        E 4 b9 04 18
        E 61 89 26 40
        E 331 99 2d 73
        E 118 b9 04 12
        E 120 89 2d 40
        E 1 99 2d 7f
        E 230 89 2d 40
        E 2 99 2d 7a
        E 242 89 2d 40
        E 260 b9 04 1d
        E 32 99 29 7f
        E 186 b9 04 25
        E 44 89 29 40
        E 2 99 29 45
        E 138 b9 04 1d
        E 104 89 29 40
        E 46 99 24 7a
        E 244 89 24 40
        E 338 99 24 62
        E 181 b9 04 29
        E 63 89 24 40
        E 116 b9 04 3a
        E 162 99 24 66
        E 55 b9 04 29
        E 162 b9 04 1d
        E 27 89 24 40
        E 302 99 26 7f
        E 91 89 26 40
        E 3 99 26 7f
        E 2 b9 04 25
        E 138 b9 04 20
        E 104 89 26 40
        E 116 b9 04 29
        E 476 b9 04 32
        E 152 99 24 6a
        E 244 89 24 40
        E 36 b9 04 2c
        E 224 99 26 7f
        E 121 89 26 40
        E 3 99 26 7f
        E 242 89 26 40
        E 239 b9 04 32
        E 295 b9 04 29
        E 193 99 24 68
        E 242 89 24 40
        E 288 99 24 60
        E 243 89 24 40
        E 114 b9 04 32
        E 169 99 24 61
        E 169 b9 04 29
        E 72 89 24 40
        E 305 99 26 7f
        E 36 b9 04 2e
        E 71 89 26 40
        E 1 99 26 7f
        E 240 89 26 40
        E 647 b9 04 38
        E 65 99 24 62
        E 128 b9 04 27
        E 117 89 24 40
        E 36 b9 04 20
        E 229 99 26 7a
        E 58 b9 04 30
        E 85 99 28 62
        E 101 89 26 40
        E 112 b9 04 29
        E 28 89 28 40
        E 215 b9 04 36
        E 230 b9 04 2e
        E 253 99 24 62
        E 242 89 24 40
        E 312 99 24 67
        E 63 b9 04 32
        E 178 89 24 40
        E 129 b9 04 3e
        E 140 99 24 54
        E 125 b9 04 34
        E 116 89 24 40
        E 299 99 26 7f
        E 83 b9 04 38
        E 17 89 26 40
        E 2 99 26 7f
        E 200 b9 04 32
        E 39 89 26 40
        E 325 b9 04 38
        E 466 99 24 5c
        E 207 b9 04 2e
        E 34 89 24 40
        E 223 99 26 7f
        E 91 89 26 40
        E 2 99 26 7f
        E 240 89 26 40
        E 311 b9 04 38
        E 200 b9 04 2e
        E 228 99 24 5a
        E 85 b9 04 36
        E 157 89 24 40
        E 294 99 24 67
        E 242 89 24 40
        E 143 b9 04 3e
        E 108 99 24 59
        E 152 b9 04 36
        E 90 89 24 40
        E 278 99 26 7f
        E 89 89 26 40
        E 2 99 26 7f
        E 196 b9 04 32
        E 44 89 26 40
        E 212 99 2d 7f
        E 15 99 30 71
        E 232 89 2d 40
        E 9 89 30 40
        E 235 99 2d 7f
        E 28 99 30 71
        E 216 89 2d 40
        E 29 89 30 40
        E 270 99 29 51
        E 20 99 2d 7d
        E 222 89 29 40
        E 22 89 2d 40
        E 181 b9 04 2e
        E 61 99 2d 7f
        E 21 99 29 63
        E 220 89 2d 40
        E 24 89 29 40
        E 249 99 24 78
        E 65 99 33 7e
        E 48 b9 04 1d
        E 131 89 24 40
        E 65 89 33 40
        E 261 99 33 34
        E 60 b9 04 0c
        E 47 b9 04 00
        E 137 89 33 40
        E 220 b9 04 12
        E 9 b9 04 22
        E 10 99 26 6a
        E 12 b9 04 32
        E 15 b9 04 43
        E 5 b9 04 4c
        E 2 99 2c 20
        E 3 b9 04 53
        E 4 99 33 52
        E 5 b9 04 63
        E 22 b9 04 53
        E 45 b9 04 43
        E 42 b9 04 32
        E 36 b9 04 22
        E 53 89 26 40
        E 24 b9 04 12
        E 10 89 2c 40
        E 8 89 33 40
        E 164 b9 04 22
        E 33 b9 04 32
        E 32 b9 04 43
        E 34 b9 04 4f
        E 3 99 2c 08
        E 26 b9 04 53
        E 4 99 33 26
        E 66 b9 04 43
        E 33 b9 04 32
        E 27 b9 04 22
        E 48 b9 04 12
        E 37 89 2c 40
        E 33 89 33 40
        E 2 b9 04 00
        E 223 b9 04 12
        E 17 b9 04 22
        E 5 99 24 57
        E 4 b9 04 32
        E 10 b9 04 43
        E 10 b9 04 4c
        E 3 99 2c 14
        E 4 b9 04 53
        E 13 99 33 6b
        E 125 b9 04 43
        E 31 b9 04 32
        E 29 b9 04 22
        E 15 89 24 40
        E 27 89 2c 40
        E 16 89 33 40
        E 78 b9 04 18
        E 65 b9 04 29
        E 38 b9 04 3a
        E 37 b9 04 4a
        E 15 b9 04 4f
        E 2 99 2c 08
        E 12 99 24 4c
        E 24 99 33 2b
        E 70 b9 04 3a
        E 31 b9 04 29
        E 32 b9 04 18
        E 43 b9 04 06
        E 22 b9 04 00
        E 9 89 2c 40
        E 13 89 24 40
        E 24 89 33 40
        E 266 b9 04 12
        E 7 b9 04 25
        E 10 99 26 52
        E 2 b9 04 36
        E 22 b9 04 46
        E 2 99 33 7f
        E 3 b9 04 4c
        E 2 99 2c 16
        E 4 b9 04 56
        E 8 b9 04 66
        E 53 b9 04 56
        E 29 b9 04 46
        E 32 b9 04 36
        E 26 b9 04 25
        E 36 b9 04 15
        E 24 89 26 40
        E 27 89 33 40
        E 5 89 2c 40
        E 89 b9 04 0c
        E 83 b9 04 1d
        E 21 b9 04 2e
        E 17 b9 04 3e
        E 27 b9 04 4d
        E 3 99 2c 0e
        E 4 b9 04 4f
        E 53 99 33 38
        E 56 b9 04 3f
        E 28 b9 04 2e
        E 28 b9 04 1d
        E 38 b9 04 0c
        E 24 b9 04 00
        E 10 89 2c 40
        E 58 89 33 40
        E 195 b9 04 12
        E 22 b9 04 25
        E 8 99 24 55
        E 7 b9 04 36
        E 12 b9 04 46
        E 0 b9 04 4c
        E 2 99 2c 22
        E 2 b9 04 56
        E 17 99 33 7f
        E 99 b9 04 46
        E 30 b9 04 36
        E 29 b9 04 25
        E 31 b9 04 15
        E 14 89 24 40
        E 20 89 2c 40
        E 19 89 33 40
        E 155 b9 04 25
        E 22 b9 04 36
        E 24 b9 04 46
        E 19 b9 04 4d
        E 3 99 2c 0a
        E 48 99 33 37
        E 68 b9 04 36
        E 31 b9 04 25
        E 29 b9 04 15
        E 34 b9 04 03
        E 14 b9 04 00
        E 17 89 2c 40
        E 48 89 33 40
        E 215 99 26 7c
        E 17 b9 04 12
        E 12 b9 04 22
        E 15 b9 04 32
        E 5 99 33 4a
        E 10 b9 04 43
        E 4 b9 04 4c
        E 2 99 2c 1c
        E 3 b9 04 53
        E 12 b9 04 63
        E 56 b9 04 53
        E 34 b9 04 43
        E 31 b9 04 32
        E 22 b9 04 22
        E 22 89 26 40
        E 17 b9 04 12
        E 31 89 33 40
        E 17 89 2c 40
        E 169 b9 04 22
        E 19 b9 04 32
        E 29 b9 04 43
        E 24 99 33 28
        E 99 b9 04 32
        E 25 b9 04 22
        E 30 b9 04 12
        E 42 b9 04 00
        E 46 89 33 40
        E 227 b9 04 12
        E 12 99 24 41
        E 7 b9 04 22
        E 15 b9 04 32
        E 7 b9 04 43
        E 2 99 33 51
        E 3 b9 04 4c
        E 4 99 2c 20
        E 3 b9 04 53
        E 12 b9 04 63
        E 89 b9 04 53
        E 32 b9 04 43
        E 24 b9 04 32
        E 22 b9 04 22
        E 24 89 24 40
        E 8 b9 04 12
        E 21 89 33 40
        E 9 89 2c 40
        E 112 b9 04 0c
        E 56 b9 04 1d
        E 23 b9 04 2e
        E 20 b9 04 3e
        E 26 b9 04 4d
        E 3 99 2c 0e
        E 2 b9 04 4f
        E 27 99 33 38
        E 3 99 24 4d
        E 96 b9 04 3f
        E 26 b9 04 2e
        E 25 b9 04 1d
        E 41 b9 04 0c
        E 24 89 2c 40
        E 2 b9 04 00
        E 27 89 33 40
        E 2 89 24 40
        E 264 99 26 70
        E 7 b9 04 12
        E 15 b9 04 25
        E 14 b9 04 36
        E 7 99 33 55
        E 5 b9 04 46
        E 2 b9 04 4c
        E 3 99 2c 1e
        E 2 b9 04 57
        E 12 b9 04 68
        E 19 b9 04 58
        E 44 b9 04 47
        E 42 b9 04 36
        E 38 b9 04 25
        E 34 89 26 40
        E 13 b9 04 15
        E 30 89 33 40
        E 10 89 2c 40
        E 174 b9 04 25
        E 22 b9 04 36
        E 21 b9 04 46
        E 22 b9 04 4d
        E 3 99 2c 0a
        E 45 99 33 2f
        E 73 b9 04 36
        E 27 b9 04 25
        E 28 b9 04 15
        E 37 b9 04 03
        E 12 b9 04 00
        E 21 89 2c 40
        E 41 89 33 40
        E 201 b9 04 12
        E 22 b9 04 22
        E 5 99 24 4b
        E 5 b9 04 32
        E 9 b9 04 44
        E 3 b9 04 4c
        E 2 99 2c 24
        E 2 b9 04 54
        E 27 99 33 76
        E 97 b9 04 44
        E 29 b9 04 34
        E 29 b9 04 22
        E 38 89 24 40
        E 14 b9 04 12
        E 5 89 2c 40
        E 31 89 33 40
        E 146 b9 04 22
        E 22 b9 04 32
        E 26 b9 04 43
        E 25 b9 04 4d
        E 2 99 2c 0a
        E 39 99 33 3b
        E 84 b9 04 32
        E 19 b9 04 22
        E 37 b9 04 12
        E 41 b9 04 00
        E 24 89 2c 40
        E 38 89 33 40
        E 232 b9 04 12
        E 15 b9 04 22
        E 3 99 26 72
        E 11 b9 04 32
        E 15 b9 04 43
        E 5 b9 04 4c
        E 2 99 2c 1c
        E 2 b9 04 53
        E 7 b9 04 63
        E 5 99 33 7f
        E 83 b9 04 53
        E 31 b9 04 43
        E 20 b9 04 32
        E 19 b9 04 22
        E 36 b9 04 12
        E 8 89 26 40
        E 33 89 2c 40
        E 15 89 33 40
        E 84 b9 04 06
        E 53 b9 04 18
        E 31 b9 04 29
        E 18 b9 04 3a
        E 31 b9 04 4a
        E 7 b9 04 4d
        E 3 99 2c 0a
        E 43 99 33 48
        E 73 b9 04 3a
        E 29 b9 04 29
        E 32 b9 04 18
        E 35 b9 04 06
        E 15 b9 04 00
        E 16 89 2c 40
        E 44 89 33 40
        E 208 b9 04 12
        E 17 b9 04 25
        E 7 99 24 46
        E 3 b9 04 36
        E 12 b9 04 47
        E 2 b9 04 4c
        E 3 99 2c 1a
        E 9 b9 04 57
        E 17 99 33 6d
        E 56 b9 04 47
        E 48 b9 04 36
        E 41 b9 04 25
        E 51 89 24 40
        E 2 b9 04 15
        E 17 89 2c 40
        E 29 89 33 40
        E 126 b9 04 25
        E 21 b9 04 36
        E 22 b9 04 46
        E 14 b9 04 4f
        E 3 99 2c 0e
        E 22 b9 04 56
        E 26 99 24 43
        E 22 99 33 41
        E 51 b9 04 46
        E 31 b9 04 36
        E 24 b9 04 25
        E 32 b9 04 15
        E 33 89 2c 40
        E 10 b9 04 03
        E 12 b9 04 00
        E 27 89 24 40
        E 24 89 33 40
        E 249 99 26 70
        E 2 b9 04 12
        E 17 b9 04 22
        E 17 b9 04 32
        E 10 99 33 56
        E 2 b9 04 43
        E 5 b9 04 4c
        E 2 99 2c 1e
        E 3 b9 04 54
        E 12 b9 04 64
        E 37 b9 04 54
        E 33 b9 04 44
        E 39 b9 04 34
        E 26 b9 04 22
        E 37 b9 04 12
        E 2 89 26 40
        E 46 89 33 40
        E 5 89 2c 40
        E 94 b9 04 09
        E 56 b9 04 1a
        E 31 b9 04 2c
        E 22 b9 04 3c
        E 55 99 33 46
        E 102 b9 04 2c
        E 33 b9 04 1a
        E 34 b9 04 09
        E 22 b9 04 00
        E 53 89 33 40
        E 210 b9 04 12
        E 22 b9 04 22
        E 10 b9 04 32
        E 7 99 24 4e
        E 5 b9 04 43
        E 3 b9 04 4d
        E 2 99 2c 22
        E 2 b9 04 53
        E 22 99 33 6b
        E 104 b9 04 43
        E 24 b9 04 32
        E 22 b9 04 22
        E 38 b9 04 12
        E 22 89 24 40
        E 8 89 2c 40
        E 24 89 33 40
        E 132 b9 04 22
        E 20 b9 04 32
        E 22 b9 04 43
        E 17 b9 04 4d
        E 2 99 2c 0c
        E 15 b9 04 53
        E 77 99 33 2b
        E 34 b9 04 43
        E 29 b9 04 32
        E 21 b9 04 22
        E 36 b9 04 12
        E 30 89 2c 40
        E 26 b9 04 00
        E 68 89 33 40
        E 217 99 28 29
        E 17 b9 04 12
        E 15 99 33 70
        E 5 b9 04 25
        E 13 b9 04 36
        E 8 b9 04 46
        E 2 b9 04 4d
        E 3 99 2c 24
        E 5 b9 04 56
        E 9 b9 04 66
        E 32 b9 04 56
        E 39 b9 04 46
        E 38 b9 04 36
        E 31 b9 04 25
        E 27 89 28 40
        E 17 b9 04 15
        E 12 89 33 40
        E 34 89 2c 40
        E 143 b9 04 25
        E 26 b9 04 36
        E 27 b9 04 46
        E 12 b9 04 4d
        E 2 99 2c 0a
        E 24 99 33 39
        E 112 b9 04 36
        E 28 b9 04 25
        E 30 b9 04 15
        E 34 b9 04 03
        E 14 b9 04 00
        E 2 89 2c 40
        E 23 89 33 40
        E 233 b9 04 12
        E 7 99 24 4c
        E 10 b9 04 25
        E 9 b9 04 36
        E 8 b9 04 46
        E 0 b9 04 4c
        E 2 99 2c 22
        E 7 b9 04 56
        E 5 99 33 64
        E 25 b9 04 66
        E 86 b9 04 56
        E 27 b9 04 46
        E 27 b9 04 36
        E 29 b9 04 25
        E 9 89 24 40
        E 30 89 2c 40
        E 2 b9 04 15
        E 10 89 33 40
        E 166 b9 04 25
        E 21 b9 04 36
        E 25 b9 04 46
        E 12 b9 04 4d
        E 3 99 2c 0c
        E 24 99 24 47
        E 2 b9 04 56
        E 17 99 33 3d
        E 92 b9 04 46
        E 29 b9 04 36
        E 29 b9 04 25
        E 34 b9 04 15
        E 14 89 2c 40
        E 27 89 24 40
        E 3 b9 04 03
        E 13 b9 04 00
        E 3 89 33 40
        E 268 b9 04 12
        E 22 b9 04 22
        E 3 99 26 70
        E 7 b9 04 32
        E 7 b9 04 44
        E 5 b9 04 4c
        E 2 99 2c 20
        E 3 b9 04 54
        E 9 99 33 72
        E 5 b9 04 64
        E 76 b9 04 54
        E 31 b9 04 44
        E 22 b9 04 34
        E 24 b9 04 22
        E 41 b9 04 12
        E 11 89 26 40
        E 20 89 2c 40
        E 14 89 33 40
        E 107 b9 04 0c
        E 60 b9 04 1d
        E 22 b9 04 2e
        E 17 b9 04 3e
        E 26 b9 04 4d
        E 3 99 2c 0e
        E 4 b9 04 4f
        E 51 99 33 26
        E 63 b9 04 3f
        E 27 b9 04 2e
        E 24 b9 04 1d
        E 38 b9 04 0c
        E 29 b9 04 00
        E 5 89 2c 40
        E 56 89 33 40
        E 201 b9 04 12
        E 19 b9 04 22
        E 2 99 24 4b
        E 10 b9 04 32
        E 9 b9 04 44
        E 5 b9 04 4c
        E 3 99 2c 1e
        E 2 b9 04 54
        E 8 99 33 5e
        E 29 b9 04 64
        E 58 b9 04 54
        E 36 b9 04 44
        E 24 b9 04 34
        E 27 b9 04 22
        E 33 89 24 40
        E 3 b9 04 12
        E 24 89 2c 40
        E 9 89 33 40
        E 170 b9 04 22
        E 18 b9 04 32
        E 23 b9 04 43
        E 24 b9 04 4d
        E 2 99 2c 0a
        E 26 b9 04 53
        E 13 99 33 20
        E 67 b9 04 43
        E 34 b9 04 32
        E 25 b9 04 22
        E 41 b9 04 12
        E 38 89 2c 40
        E 10 b9 04 00
        E 26 89 33 40
        E 261 b9 04 12
        E 20 b9 04 25
        E 9 b9 04 36
        E 2 99 28 65
        E 8 b9 04 46
        E 2 b9 04 4c
        E 3 99 2c 1e
        E 5 99 33 51
        E 2 b9 04 56
        E 109 b9 04 46
        E 24 b9 04 36
        E 29 b9 04 25
        E 36 b9 04 15
        E 27 89 28 40
        E 10 89 2c 40
        E 9 89 33 40
        E 102 b9 04 0c
        E 58 b9 04 1d
        E 28 b9 04 2e
        E 18 b9 04 3e
        E 28 b9 04 4d
        E 2 99 2c 0c
        E 6 b9 04 4f
        E 44 99 33 1f
        E 67 b9 04 3f
        E 34 b9 04 2e
        E 26 b9 04 1d
        E 39 b9 04 0c
        E 21 b9 04 00
        E 7 89 2c 40
        E 49 89 33 40
        E 201 b9 04 12
        E 16 b9 04 25
        E 10 99 24 45
        E 3 b9 04 36
        E 7 b9 04 46
        E 5 b9 04 4c
        E 2 99 2c 1a
        E 8 b9 04 56
        E 50 99 33 54
        E 83 b9 04 46
        E 26 b9 04 36
        E 27 b9 04 25
        E 31 b9 04 15
        E 3 89 24 40
        E 14 89 2c 40
        E 60 89 33 40
        E 63 b9 04 0f
        E 51 b9 04 20
        E 22 b9 04 30
        E 21 b9 04 41
        E 17 b9 04 4d
        E 2 99 2c 0c
        E 10 b9 04 51
        E 50 99 24 4a
        E 45 99 33 2b
        E 31 b9 04 41
        E 31 b9 04 30
        E 22 b9 04 20
        E 41 b9 04 0f
        E 15 89 2c 40
        E 21 b9 04 00
        E 37 89 24 40
        E 43 89 33 40
        E 230 b9 04 12
        E 16 99 26 7f
        E 5 b9 04 25
        E 10 b9 04 36
        E 10 b9 04 47
        E 4 b9 04 4d
        E 2 99 2c 22
        E 2 b9 04 57
        E 23 99 33 3e
        E 7 b9 04 67
        E 42 b9 04 57
        E 33 b9 04 47
        E 27 b9 04 36
        E 29 b9 04 25
        E 31 b9 04 15
        E 17 89 26 40
        E 31 89 2c 40
        E 25 89 33 40
        E 70 b9 04 06
        E 73 b9 04 18
        E 28 b9 04 29
        E 20 b9 04 3a
        E 26 b9 04 4a
        E 10 b9 04 4d
        E 3 99 2c 0c
        E 19 99 33 17
        E 89 b9 04 3a
        E 32 b9 04 29
        E 26 b9 04 18
        E 28 b9 04 06
        E 23 b9 04 00
        E 26 89 2c 40
        E 18 89 33 40
        E 228 b9 04 12
        E 18 b9 04 22
        E 19 b9 04 32
        E 7 b9 04 43
        E 5 b9 04 4c
        E 2 99 2c 1c
        E 3 99 24 4b
        E 2 b9 04 53
        E 12 b9 04 63
        E 15 99 33 4a
        E 84 b9 04 53
        E 27 b9 04 43
        E 22 b9 04 32
        E 19 b9 04 22
        E 31 b9 04 12
        E 30 89 2c 40
        E 2 89 24 40
        E 29 89 33 40
        E 80 b9 04 06
        E 57 b9 04 18
        E 27 b9 04 29
        E 19 b9 04 3a
        E 30 b9 04 4a
        E 7 b9 04 4d
        E 2 99 2c 0c
        E 24 99 33 28
        E 91 b9 04 3a
        E 30 b9 04 29
        E 32 b9 04 18
        E 34 b9 04 06
        E 21 b9 04 00
        E 8 89 2c 40
        E 26 89 33 40
        E 261 99 26 7f
        E 2 b9 04 12
        E 19 b9 04 25
        E 14 b9 04 36
        E 11 b9 04 46
        E 2 b9 04 4d
        E 3 99 2c 1e
        E 2 b9 04 56
        E 10 99 33 3d
        E 15 b9 04 66
        E 52 b9 04 56
        E 36 b9 04 46
        E 25 b9 04 36
        E 29 b9 04 25
        E 24 89 26 40
        E 5 b9 04 15
        E 46 89 2c 40
        E 12 89 33 40
        E 80 b9 04 06
        E 74 b9 04 18
        E 27 b9 04 29
        E 20 b9 04 3a
        E 31 b9 04 4a
        E 9 b9 04 4d
        E 3 99 2c 0a
        E 12 99 33 1a
        E 92 b9 04 3a
        E 26 b9 04 29
        E 29 b9 04 18
        E 32 b9 04 06
        E 16 b9 04 00
        E 35 89 2c 40
        E 13 89 33 40
        E 221 b9 04 12
        E 19 b9 04 22
        E 12 b9 04 32
        E 2 99 24 4e
        E 12 b9 04 43
        E 6 b9 04 4d
        E 0 99 2c 1a
        E 2 b9 04 53
        E 14 b9 04 63
        E 25 99 33 44
        E 81 b9 04 53
        E 27 b9 04 43
        E 24 b9 04 32
        E 17 b9 04 22
        E 34 b9 04 12
        E 2 89 24 40
        E 17 89 2c 40
        E 39 89 33 40
        E 82 b9 04 0c
        E 43 b9 04 1d
        E 22 b9 04 2e
        E 20 b9 04 3e
        E 20 b9 04 4d
        E 2 99 2c 0e
        E 2 b9 04 4f
        E 48 99 24 48
        E 19 99 33 35
        E 75 b9 04 3f
        E 27 b9 04 2e
        E 28 b9 04 1d
        E 42 b9 04 0c
        E 2 89 2c 40
        E 17 b9 04 00
        E 32 89 24 40
        E 21 89 33 40
        E 250 99 26 7f
        E 4 b9 04 12
        E 12 b9 04 25
        E 12 b9 04 36
        E 15 b9 04 46
        E 2 b9 04 4c
        E 3 99 2c 16
        E 5 b9 04 56
        E 11 99 33 5b
        E 3 b9 04 67
        E 94 b9 04 57
        E 27 b9 04 47
        E 19 b9 04 36
        E 16 b9 04 22
        E 20 89 26 40
        E 15 b9 04 12
        E 33 89 2c 40
        E 18 89 33 40
        E 31 b9 04 00
        E 123 b9 04 12
        E 27 b9 04 22
        E 12 b9 04 32
        E 19 b9 04 43
        E 20 b9 04 4c
        E 2 99 2c 0c
        E 14 b9 04 53
        E 3 99 33 2f
        E 92 b9 04 43
        E 26 b9 04 32
        E 20 b9 04 22
        E 31 b9 04 12
        E 36 b9 04 00
        E 19 89 2c 40
        E 20 89 33 40
        E 229 b9 04 12
        E 15 b9 04 25
        E 2 99 24 4e
        E 17 b9 04 36
        E 15 b9 04 46
        E 2 b9 04 4c
        E 0 99 2c 1e
        E 5 b9 04 56
        E 10 99 33 4d
        E 89 b9 04 46
        E 29 b9 04 36
        E 26 b9 04 25
        E 30 b9 04 15
        E 22 89 24 40
        E 31 89 2c 40
        E 17 89 33 40
        E 75 b9 04 0f
        E 62 b9 04 20
        E 24 b9 04 30
        E 34 b9 04 41
        E 15 99 33 19
        E 104 b9 04 30
        E 24 b9 04 20
        E 46 b9 04 0f
        E 36 b9 04 00
        E 34 89 33 40
        E 292 b9 04 12
        E 20 99 28 59
        E 2 b9 04 22
        E 10 b9 04 32
        E 11 99 33 67
        E 3 b9 04 43
        E 3 b9 04 4c
        E 2 b9 04 53
        E 0 99 2c 1c
        E 12 b9 04 63
        E 94 b9 04 53
        E 27 b9 04 43
        E 22 b9 04 32
        E 19 b9 04 22
        E 39 89 28 40
        E 2 b9 04 12
        E 19 89 33 40
        E 5 89 2c 40
        E 121 b9 04 0c
        E 55 b9 04 1d
        E 24 b9 04 2e
        E 22 b9 04 3e
        E 24 b9 04 4d
        E 3 99 2c 0c
        E 5 b9 04 4f
        E 30 99 33 28
        E 91 b9 04 3f
        E 26 b9 04 2e
        E 22 b9 04 1d
        E 36 b9 04 0c
        E 24 b9 04 00
        E 10 89 2c 40
        E 36 89 33 40
        E 214 b9 04 12
        E 23 99 24 47
        E 2 b9 04 25
        E 15 b9 04 36
        E 7 b9 04 46
        E 2 b9 04 4c
        E 2 99 2c 20
        E 3 b9 04 56
        E 47 99 33 66
        E 79 b9 04 46
        E 22 b9 04 36
        E 26 b9 04 25
        E 29 b9 04 15
        E 10 89 24 40
        E 29 89 2c 40
        E 48 89 33 40
        E 51 b9 04 0c
        E 56 b9 04 1d
        E 26 b9 04 2e
        E 19 b9 04 3e
        E 27 b9 04 4d
        E 3 99 2c 0c
        E 4 b9 04 4f
        E 20 99 24 45
        E 45 99 33 26
        E 49 b9 04 3f
        E 33 b9 04 2e
        E 28 b9 04 1d
        E 30 b9 04 0c
        E 25 b9 04 00
        E 9 89 2c 40
        E 22 89 24 40
        E 49 89 33 40
        E 232 b9 04 12
        E 12 b9 04 25
        E 14 b9 04 36
        E 15 99 28 59
        E 3 b9 04 46
        E 1 b9 04 4c
        E 3 99 2c 16
        E 4 b9 04 56
        E 13 b9 04 66
        E 16 99 33 5b
        E 76 b9 04 56
        E 26 b9 04 46
        E 22 b9 04 36
        E 22 b9 04 25
        E 26 b9 04 15
        E 32 89 28 40
        E 4 89 2c 40
        E 30 b9 04 03
        E 6 89 33 40
        E 140 b9 04 15
        E 25 b9 04 25
        E 17 b9 04 36
        E 24 b9 04 46
        E 17 b9 04 4d
        E 2 99 2c 0a
        E 20 99 33 1f
        E 102 b9 04 36
        E 24 b9 04 22
        E 29 b9 04 12
        E 37 b9 04 00
        E 30 89 2c 40
        E 22 89 33 40
        E 225 b9 04 12
        E 9 99 24 50
        E 7 b9 04 25
        E 19 b9 04 36
        E 5 99 33 2f
        E 5 b9 04 46
        E 3 b9 04 4d
        E 4 99 2c 1c
        E 2 b9 04 56
        E 90 b9 04 46
        E 30 b9 04 36
        E 26 b9 04 25
        E 36 b9 04 15
        E 15 89 24 40
        E 31 89 33 40
        E 14 89 2c 40
        E 123 b9 04 25
        E 39 b9 04 36
        E 92 99 28 52
        E 54 b9 04 25
        E 34 b9 04 15
        E 38 b9 04 03
        E 14 b9 04 00
        E 90 99 26 7f
        E 12 89 28 40
        E 152 b9 04 12
        E 17 b9 04 22
        E 9 b9 04 32
        E 12 b9 04 43
        E 8 b9 04 4c
        E 3 99 2c 14
        E 6 b9 04 53
        E 17 89 26 40
        E 3 99 26 73
        E 87 b9 04 43
        E 29 b9 04 32
        E 21 b9 04 22
        E 36 b9 04 12
        E 44 89 2c 40
        E 28 89 26 40
        E 83 b9 04 0c
        E 46 b9 04 1d
        E 37 b9 04 2e
        E 154 b9 04 1d
        E 7 99 30 7f
        E 37 b9 04 0c
        E 29 b9 04 00
        E 178 89 30 40
        E 5 99 30 7f
        E 80 b9 04 12
        E 19 b9 04 25
        E 13 b9 04 36
        E 8 b9 04 46
        E 8 b9 04 4c
        E 3 99 2c 14
        E 16 b9 04 56
        E 97 89 30 40
        E 3 99 30 44
        E 7 b9 04 46
        E 24 b9 04 36
        E 32 b9 04 25
        E 34 b9 04 15
        E 31 89 2c 40
        E 111 89 30 40
        E 24 b9 04 25
        E 26 b9 04 36
        E 32 b9 04 46
        E 25 b9 04 4d
        E 2 99 2c 0a
        E 144 b9 04 36
        E 42 b9 04 25
        E 24 99 2d 66
        E 24 b9 04 15
        E 7 89 2c 40
        E 41 b9 04 03
        E 13 b9 04 00
        E 140 89 2d 40
        E 0 99 2d 7f
        E 86 b9 04 12
        E 22 b9 04 25
        E 12 b9 04 36
        E 15 b9 04 46
        E 2 b9 04 4c
        E 3 99 2c 16
        E 7 b9 04 56
        E 26 b9 04 66
        E 49 b9 04 56
        E 7 89 2d 40
        E 3 99 2d 7d
        E 21 b9 04 46
        E 29 b9 04 36
        E 27 b9 04 25
        E 38 b9 04 15
        E 34 89 2c 40
        E 93 89 2d 40
        E 69 99 2d 7f
        E 24 b9 04 25
        E 32 b9 04 36
        E 24 b9 04 46
        E 11 b9 04 4d
        E 3 99 2c 0c
        E 24 b9 04 56
        E 102 99 29 7e
        E 22 89 2d 40
        E 2 b9 04 46
        E 29 b9 04 36
        E 29 b9 04 25
        E 36 89 2c 40
        E 5 b9 04 15
        E 44 b9 04 03
        E 9 b9 04 00
        E 68 89 29 40
        E 24 99 29 63
        E 184 b9 04 12
        E 19 b9 04 25
        E 10 b9 04 36
        E 8 b9 04 46
        E 4 b9 04 4c
        E 2 99 2c 1c
        E 8 b9 04 56
        E 2 99 24 7a
        E 7 89 29 40
        E 17 b9 04 46
        E 24 99 33 6d
        E 15 b9 04 36
        E 41 b9 04 25
        E 55 b9 04 15
        E 75 89 2c 40
        E 8 89 24 40
        E 50 89 33 40
        E 151 b9 04 25
        E 132 b9 04 29
        E 169 b9 04 1d
        E 326 b9 04 27
        E 181 b9 04 20
        E 428 99 26 7f
        E 72 b9 04 18
        E 41 89 26 40
        E 3 99 26 7f
        E 239 89 26 40
        E 832 99 30 7f
        E 43 89 30 40
        E 2 99 30 7f
        E 242 89 30 40
        E 720 99 2d 7f
        E 92 89 2d 40
        E 0 99 2d 7c
        E 241 89 2d 40
        E 686 99 29 7f
        E 45 89 29 40
        E 3 99 29 7f
        E 242 89 29 40
        E 223 99 29 7f
        E 79 89 29 40
        E 3 99 29 44
        E 239 89 29 40
        E 620 b9 04 12
        E 44 99 26 7e
        E 109 89 26 40
        E 2 99 26 7f
        E 242 89 26 40
        E 198 99 2d 7f
        E 53 99 30 6f
        E 136 b9 04 1d
        E 55 89 2d 40
        E 51 89 30 40
        E 251 99 2d 7f
        E 24 99 30 7f
        E 217 89 2d 40
        E 25 89 30 40
        E 305 b9 04 25
        E 424 99 24 7f
        E 10 b9 04 1a
        E 46 99 3b 7f
        E 128 b9 04 09
        E 59 89 24 40
        E 55 89 3b 40
        E 28 b9 04 00
        E 1226 99 26 6c
        E 104 89 26 40
        E 2 99 26 7f
        E 241 89 26 40
        E 730 99 2d 7f
        E 24 99 30 7f
        E 220 89 2d 40
        E 22 89 30 40
        E 635 99 2d 7f
        E 34 99 30 7f
        E 213 89 2d 40
        E 31 89 30 40
        E 723 99 2d 7f
        E 33 99 29 6a
        E 211 89 2d 40
        E 30 89 29 40
        E 262 99 2d 7f
        E 26 99 29 73
        E 218 89 2d 40
        E 26 89 29 40
        E 766 99 26 6b
        E 85 89 26 40
        E 2 99 26 7f
        E 239 89 26 40
        E 34 b9 04 09
        E 167 b9 04 15
        E 24 99 2d 7f
        E 3 99 30 75
        E 88 b9 04 25
        E 150 89 2d 40
        E 3 89 30 40
        E 8 b9 04 30
        E 260 99 30 44
        E 12 99 2d 7f
        E 232 89 30 40
        E 13 89 2d 40
        E 67 b9 04 2c
        E 387 b9 04 20
        E 229 b9 04 0f
        E 97 99 24 7f
        E 2 99 31 7f
        E 65 b9 04 00
        E 174 89 24 40
        E 3 89 31 40
        E 1340 99 26 6e
        E 87 99 28 62
        E 158 89 26 40
        E 86 89 28 40
        E 776 99 2d 7f
        E 12 99 30 7f
        E 84 b9 04 12
        E 119 b9 04 22
        E 27 89 2d 40
        E 12 89 30 40
        E 94 b9 04 2c
        E 300 b9 04 36
        E 312 99 2d 7f
        E 16 99 30 71
        E 186 b9 04 3f
        E 38 89 2d 40
        E 20 89 30 40
        E 254 b9 04 36
        E 466 99 2d 7f
        E 17 99 29 64
        E 5 b9 04 29
        E 190 b9 04 20
        E 30 89 2d 40
        E 19 89 29 40
        E 261 99 29 7f
        E 58 99 2d 7f
        E 186 89 29 40
        E 55 89 2d 40
        E 726 99 24 73
        E 6 b9 04 29
        E 233 b9 04 1d
        E 5 89 24 40
        E 302 99 26 7f
        E 224 89 26 40
        E 3 99 26 64
        E 241 89 26 40
        E 10 99 26 64
        E 244 89 26 40
        E 21 99 26 70
        E 5 b9 04 0c
        E 111 b9 04 00
        E 128 89 26 40
        E 5 99 24 51
        E 47 99 33 46
        E 198 89 24 40
        E 35 99 24 4e
        E 8 89 33 40
        E 14 b9 04 12
        E 27 99 31 7f
        E 195 89 24 40
        E 44 99 24 70
        E 5 89 31 40
        E 58 99 33 7f
        E 167 b9 04 09
        E 14 89 24 40
        E 60 89 33 40
        E 501 b9 04 0f
        E 775 99 2d 7f
        E 10 99 30 7f
        E 145 b9 04 18
        E 87 89 2d 40
        E 9 89 30 40
        E 880 99 29 7f
        E 5 99 2d 7f
        E 239 89 29 40
        E 5 89 2d 40
        E 705 99 26 7f
        E 114 89 26 40
        E 2 99 26 7f
        E 242 89 26 40
        E 219 b9 04 29
        E 211 b9 04 18
        E 94 b9 04 06
        E 78 b9 04 00
        E 140 99 30 5c
        E 13 99 2d 7b
        E 52 b9 04 12
        E 174 89 30 40
        E 19 89 2d 40
        E 107 b9 04 09
        E 183 99 2d 7f
        E 3 b9 04 12
        E 40 99 30 54
        E 167 b9 04 1a
        E 31 89 2d 40
        E 47 89 30 40
        E 108 b9 04 2c
        E 192 b9 04 1a
        E 170 b9 04 12
        E 223 99 26 7e
        E 63 b9 04 22
        E 23 89 26 40
        E 3 99 26 7f
        E 239 b9 04 1a
        E 3 89 26 40
        E 190 b9 04 15
        E 66 99 26 7f
        E 242 89 26 40
        E 9 99 26 5b
        E 244 89 26 40
        E 2 99 26 7f
        E 240 89 26 40
        E 31 99 26 48
        E 48 99 30 26
        E 20 b9 04 03
        E 38 b9 04 00
        E 32 89 30 40
        E 2 99 30 1f
        E 104 89 26 40
        E 6 99 24 4e
        E 28 99 33 53
        E 101 89 30 40
        E 68 89 24 40
        E 3 99 24 0b
        E 53 b9 04 12
        E 19 89 33 40
        E 24 89 24 40
        E 2 99 24 58
        E 240 89 24 40
        E 50 99 24 70
        E 7 99 33 56
        E 63 b9 04 06
        E 95 b9 04 00
        E 79 89 24 40
        E 8 89 33 40
        E 804 b9 04 06
        E 281 b9 04 0c
        E 280 b9 04 15
        E 20 99 33 7d
        E 4 99 28 4d
        E 238 89 33 40
        E 5 89 28 40
        E 385 b9 04 1a
        E 441 99 24 7f
        E 33 99 33 3e
        E 209 89 24 40
        E 32 89 33 40
        E 749 b9 04 12
        E 32 99 24 7d
        E 31 99 33 68
        E 181 b9 04 09
        E 29 89 24 40
        E 34 89 33 40
        E 790 99 24 63
        E 244 89 24 40
        E 14 b9 04 0f
        E 262 b9 04 12
        E 3 99 2e 7f
        E 6 99 26 6b
        E 143 b9 04 18
        E 91 89 2e 40
        E 10 89 26 40
        E 167 b9 04 27
        E 133 b9 04 32
        E 85 b9 04 22
        E 67 b9 04 12
        E 94 b9 04 00
        E 237 b9 04 12
        E 27 b9 04 25
        E 19 b9 04 36
        E 24 b9 04 46
        E 75 b9 04 36
        E 70 b9 04 25
        E 128 b9 04 1d
        E 232 b9 04 27
        E 98 99 26 7f
        E 158 b9 04 1d
        E 79 89 26 40
        E 3 99 26 5e
        E 51 b9 04 2e
        E 188 89 26 40
        E 15 99 28 1d
        E 27 b9 04 27
        E 217 89 28 40
        E 24 99 26 66
        E 126 b9 04 15
        E 117 89 26 40
        E 37 99 24 4f
        E 17 b9 04 0f
        E 3 99 1a 40
        E 130 b9 04 0f
        E 32 89 24 40
        E 1 99 24 0c
        E 80 89 1a 40
        E 10 b9 04 12
        E 2 99 2e 7f
        E 3 89 24 40
        E 3 99 24 48
        E 237 89 2e 40
        E 4 89 24 40
        E 29 b9 04 0f
        E 2 99 2e 7f
        E 15 99 24 7e
        E 146 b9 04 03
        E 81 89 2e 40
        E 17 89 24 40
        E 29 b9 04 00
        E 1092 b9 04 12
        E 48 b9 04 22
        E 44 b9 04 32
        E 135 b9 04 3a
        E 56 b9 04 34
        E 2 99 2e 7f
        E 7 99 26 60
        E 85 b9 04 34
        E 150 89 2e 40
        E 7 89 26 40
        E 154 b9 04 44
        E 54 b9 04 4c
        E 190 b9 04 34
        E 402 99 24 7f
        E 38 b9 04 3c
        E 3 99 2e 7f
        E 2 b9 04 3c
        E 186 b9 04 38
        E 12 89 24 40
        E 41 89 2e 40
        E 131 b9 04 3e
        E 299 b9 04 3a
        E 351 99 24 7c
        E 36 b9 04 3a
        E 3 99 2e 7f
        E 202 89 24 40
        E 39 89 2e 40
        E 167 b9 04 36
        E 343 b9 04 3c
        E 207 99 24 62
        E 53 b9 04 3a
        E 2 99 2e 75
        E 187 89 24 40
        E 55 89 2e 40
        E 290 b9 04 3e
        E 3 99 2e 7f
        E 2 99 28 5b
        E 239 89 2e 40
        E 3 89 28 40
        E 120 b9 04 41
        E 648 b9 04 47
        E 3 99 2e 7f
        E 53 b9 04 47
        E 191 89 2e 40
        E 82 b9 04 3c
        E 285 99 26 75
        E 103 b9 04 34
        E 144 89 26 40
        E 4 b9 04 41
        E 5 99 26 6b
        E 172 b9 04 38
        E 71 89 26 40
        E 2 99 26 62
        E 240 89 26 40
        E 10 99 26 66
        E 116 b9 04 27
        E 126 89 26 40
        E 12 99 24 45
        E 16 b9 04 1d
        E 34 b9 04 1d
        E 3 99 2e 7f
        E 191 89 24 40
        E 29 99 24 47
        E 24 89 2e 40
        E 5 b9 04 2c
        E 2 99 2e 7d
        E 3 b9 04 2c
        E 142 b9 04 36
        E 66 89 24 40
        E 29 89 2e 40
        E 24 99 24 7b
        E 22 b9 04 34
        E 2 99 1a 7f
        E 150 b9 04 2e
        E 67 89 24 40
        E 26 89 1a 40
        E 144 b9 04 29
        E 391 b9 04 30
        E 164 b9 04 3a
        E 56 99 24 17
        E 91 b9 04 3e
        E 2 99 2e 60
        E 13 b9 04 3f
        E 138 89 24 40
        E 91 89 2e 40
        E 170 b9 04 44
        E 137 99 28 6c
        E 17 b9 04 44
        E 2 99 2e 7a
        E 223 89 28 40
        E 19 89 2e 40
        E 290 b9 04 46
        E 2 99 2e 4a
        E 242 89 2e 40
        E 278 99 24 7f
        E 39 b9 04 44
        E 2 99 2e 7f
        E 203 89 24 40
        E 36 89 2e 40
        E 288 b9 04 43
        E 2 99 2e 4a
        E 242 89 2e 40
        E 229 99 24 7f
        E 56 b9 04 41
        E 2 99 2e 7f
        E 165 b9 04 3f
        E 19 89 24 40
        E 58 89 2e 40
        E 270 b9 04 41
        E 3 99 2e 59
        E 241 89 2e 40
        E 227 b9 04 43
        E 19 99 24 63
        E 13 b9 04 43
        E 3 99 2e 7f
        E 197 b9 04 3e
        E 29 89 24 40
        E 12 89 2e 40
        E 337 b9 04 3f
        E 2 99 2e 7f
        E 2 99 28 66
        E 242 89 2e 40
        E 2 89 28 40
        E 293 b9 04 41
        E 2 99 2e 4e
        E 242 89 2e 40
        E 215 99 24 7f
        E 48 b9 04 43
        E 2 99 2e 7f
        E 10 b9 04 43
        E 180 89 24 40
        E 20 b9 04 3f
        E 32 89 2e 40
        E 292 99 26 72
        E 10 b9 04 36
        E 232 89 26 40
        E 4 99 26 6b
        E 174 b9 04 3e
        E 70 89 26 40
        E 0 99 26 52
        E 242 89 26 40
        E 3 99 26 74
        E 82 b9 04 30
        E 77 b9 04 20
        E 82 89 26 40
        E 44 99 24 41
        E 29 b9 04 1d
        E 2 99 2e 7f
        E 184 b9 04 30
        E 24 89 24 40
        E 36 99 24 3b
        E 3 89 2e 40
        E 14 b9 04 32
        E 2 99 2e 7f
        E 129 b9 04 38
        E 94 89 24 40
        E 12 99 24 7f
        E 7 89 2e 40
        E 27 b9 04 36
        E 2 99 1a 7f
        E 143 b9 04 2e
        E 62 89 24 40
        E 37 89 1a 40
        E 328 b9 04 30
        E 3 99 2e 52
        E 137 b9 04 36
        E 102 89 2e 40
        E 256 99 24 5d
        E 46 b9 04 32
        E 3 99 2e 7b
        E 81 b9 04 30
        E 112 89 24 40
        E 48 89 2e 40
        E 283 99 26 7f
        E 36 b9 04 34
        E 2 99 2e 7f
        E 27 b9 04 36
        E 176 89 26 40
        E 36 89 2e 40
        E 298 b9 04 38
        E 2 99 2e 56
        E 242 89 2e 40
        E 212 b9 04 3c
        E 58 99 24 7f
        E 10 b9 04 3e
        E 5 99 2e 7f
        E 228 89 24 40
        E 11 89 2e 40
        E 278 b9 04 3a
        E 2 99 2e 62
        E 240 89 2e 40
        E 62 b9 04 38
        E 227 99 24 7f
        E 44 b9 04 3c
        E 5 b9 04 3c
        E 2 99 2e 7f
        E 190 89 24 40
        E 49 89 2e 40
        E 261 b9 04 3c
        E 2 99 2e 63
        E 245 89 2e 40
        E 227 99 24 76
        E 46 b9 04 38
        E 2 99 2e 7f
        E 82 b9 04 36
        E 111 89 24 40
        E 49 89 2e 40
        E 307 99 28 69
        E 9 b9 04 3a
        E 2 99 2e 7f
        E 179 b9 04 3a
        E 51 89 28 40
        E 12 89 2e 40
        E 251 b9 04 3c
        E 2 99 2e 63
        E 243 89 2e 40
        E 212 b9 04 3f
        E 29 99 24 7f
        E 38 b9 04 3f
        E 3 99 2e 7f
        E 203 89 24 40
        E 36 89 2e 40
        E 237 b9 04 36
        E 62 99 26 72
        E 242 89 26 40
        E 10 99 26 76
        E 230 89 26 40
        E 2 99 26 46
        E 41 b9 04 3e
        E 201 89 26 40
        E 24 99 26 60
        E 28 b9 04 3a
        E 196 b9 04 29
        E 17 89 26 40
        E 42 b9 04 27
        E 1 99 1a 73
        E 5 99 24 45
        E 181 89 24 40
        E 0 99 24 0e
        E 59 89 1a 40
        E 20 89 24 40
        E 0 99 24 41
        E 9 b9 04 32
        E 2 99 2e 7f
        E 17 b9 04 32
        E 165 b9 04 3a
        E 50 89 24 40
        E 12 89 2e 40
        E 23 99 24 6e
        E 11 b9 04 38
        E 3 99 2e 7f
        E 137 b9 04 30
        E 92 89 24 40
        E 15 89 2e 40
        E 116 b9 04 29
        E 205 b9 04 2c
        E 2 99 2e 4c
        E 242 89 2e 40
        E 96 b9 04 30
        E 128 99 24 63
        E 58 b9 04 30
        E 3 99 1a 63
        E 186 89 24 40
        E 55 89 1a 40
        E 276 99 26 7f
        E 31 b9 04 34
        E 2 99 2e 7f
        E 61 b9 04 38
        E 148 89 26 40
        E 35 89 2e 40
        E 288 b9 04 3c
        E 3 99 2e 48
        E 48 b9 04 3c
        E 191 89 2e 40
        E 261 99 24 7f
        E 36 b9 04 3c
        E 3 99 2e 7f
        E 202 89 24 40
        E 36 89 2e 40
        E 249 b9 04 3a
        E 3 99 2e 56
        E 212 b9 04 36
        E 29 89 2e 40
        E 300 99 24 7f
        E 7 b9 04 3a
        E 2 99 2e 7f
        E 32 b9 04 3a
        E 201 89 24 40
        E 9 89 2e 40
        E 271 b9 04 3c
        E 2 99 2e 54
        E 242 89 2e 40
        E 285 99 24 75
        E 2 b9 04 3a
        E 3 99 2e 6d
        E 218 b9 04 36
        E 21 89 24 40
        E 2 89 2e 40
        E 290 99 26 65
        E 36 b9 04 38
        E 2 99 2e 7f
        E 204 89 26 40
        E 39 89 2e 40
        E 275 b9 04 3a
        E 8 b9 04 3c
        E 2 99 2e 7f
        E 242 89 2e 40
        E 250 99 24 7f
        E 49 b9 04 3c
        E 2 99 2e 7f
        E 194 89 24 40
        E 45 89 2e 40
        E 261 b9 04 36
        E 40 99 26 71
        E 241 89 26 40
        E 2 99 26 6e
        E 58 b9 04 30
        E 182 89 26 40
        E 4 99 26 43
        E 2 b9 04 38
        E 241 89 26 40
        E 18 99 26 6a
        E 111 b9 04 2e
        E 94 b9 04 1d
        E 39 89 26 40
        E 2 99 24 41
        E 41 b9 04 20
        E 3 99 1a 58
        E 198 b9 04 2c
        E 5 89 24 40
        E 17 99 24 41
        E 22 89 1a 40
        E 11 b9 04 30
        E 3 99 2e 7f
        E 104 b9 04 38
        E 102 89 24 40
        E 38 89 2e 40
        E 17 99 24 7f
        E 26 b9 04 3a
        E 3 99 2e 7f
        E 215 89 24 40
        E 17 b9 04 30
        E 9 89 2e 40
        E 167 b9 04 2c
        E 160 b9 04 2e
        E 2 99 2e 41
        E 242 89 2e 40
        E 261 99 24 62
        E 31 b9 04 2e
        E 3 99 2e 52
        E 207 89 24 40
        E 32 89 2e 40
        E 285 99 26 7f
        E 26 b9 04 30
        E 3 99 2e 7f
        E 14 b9 04 30
        E 196 89 26 40
        E 32 89 2e 40
        E 14 b9 04 34
        E 302 b9 04 36
        E 2 99 2e 4f
        E 242 89 2e 40
        E 174 b9 04 3a
        E 77 99 24 7f
        E 37 b9 04 38
        E 1 99 2e 7f
        E 204 89 24 40
        E 38 89 2e 40
        E 260 b9 04 38
        E 2 99 2e 54
        E 241 89 2e 40
        E 292 99 24 7f
        E 32 b9 04 3a
        E 3 99 2e 7f
        E 207 89 24 40
        E 34 89 2e 40
        E 271 b9 04 3a
        E 2 99 2e 57
        E 244 89 2e 40
        E 249 99 24 71
        E 21 b9 04 38
        E 3 99 2e 7f
        E 219 89 24 40
        E 3 b9 04 36
        E 19 89 2e 40
        E 275 99 26 7f
        E 37 b9 04 3a
        E 2 99 2e 7f
        E 102 b9 04 3a
        E 101 89 26 40
        E 37 89 2e 40
        E 258 b9 04 3c
        E 3 99 2e 6b
        E 242 89 2e 40
        E 219 b9 04 3e
        E 29 99 24 6a
        E 58 b9 04 3c
        E 3 99 2e 7f
        E 181 89 24 40
        E 60 89 2e 40
        E 157 b9 04 36
        E 124 99 26 5f
        E 241 89 26 40
        E 12 99 26 76
        E 234 89 26 40
        E 3 99 26 67
        E 86 b9 04 2e
        E 92 b9 04 1d
        E 65 89 26 40
        E 15 99 26 4c
        E 80 b9 04 0c
        E 149 99 24 42
        E 13 89 26 40
        E 7 b9 04 06
        E 55 99 33 4a
        E 77 b9 04 18
        E 25 89 24 40
        E 2 99 24 0f
        E 68 89 24 40
        E 2 99 24 43
        E 34 b9 04 29
        E 40 89 33 40
        E 146 b9 04 2e
        E 19 89 24 40
        E 51 99 24 7f
        E 99 99 33 71
        E 78 b9 04 20
        E 65 89 24 40
        E 99 89 33 40
        E 790 99 24 54
        E 31 b9 04 22
        E 3 99 2e 7f
        E 210 89 24 40
        E 31 89 2e 40
        E 140 b9 04 25
        E 165 b9 04 29
        E 5 99 2e 7f
        E 0 99 26 7f
        E 77 b9 04 2e
        E 162 89 2e 40
        E 2 89 26 40
        E 307 b9 04 32
        E 3 99 2e 54
        E 241 89 2e 40
        E 97 b9 04 34
        E 241 99 24 75
        E 15 b9 04 36
        E 2 99 2e 7f
        E 225 89 24 40
        E 15 89 2e 40
        E 272 b9 04 36
        E 1 99 2e 5c
        E 241 89 2e 40
        E 302 99 24 71
        E 27 b9 04 36
        E 2 99 2e 7f
        E 212 89 24 40
        E 27 89 2e 40
        E 261 b9 04 36
        E 3 99 2e 52
        E 241 89 2e 40
        E 160 b9 04 3a
        E 118 99 24 66
        E 19 b9 04 38
        E 2 99 2e 67
        E 146 b9 04 36
        E 77 89 24 40
        E 20 89 2e 40
        E 287 99 28 66
        E 7 b9 04 36
        E 3 99 2e 7f
        E 232 89 28 40
        E 7 89 2e 40
        E 270 b9 04 36
        E 3 99 2e 4e
        E 241 89 2e 40
        E 266 99 24 7f
        E 7 b9 04 38
        E 2 99 2e 7f
        E 233 89 24 40
        E 11 89 2e 40
        E 242 b9 04 30
        E 78 99 26 73
        E 236 89 26 40
        E 1 99 26 71
        E 226 b9 04 34
        E 15 89 26 40
        E 3 99 26 53
        E 208 b9 04 2e
        E 30 89 26 40
        E 23 99 26 49
        E 26 b9 04 1d
        E 174 b9 04 0f
        E 2 99 24 41
        E 39 89 26 40
        E 53 b9 04 12
        E 2 99 2e 78
        E 117 b9 04 20
        E 31 89 24 40
        E 7 99 24 45
        E 72 b9 04 30
        E 15 89 2e 40
        E 17 b9 04 32
        E 3 99 2e 7f
        E 120 b9 04 3e
        E 15 89 24 40
        E 63 99 24 7b
        E 45 89 2e 40
        E 27 b9 04 3e
        E 2 99 1a 7f
        E 168 89 24 40
        E 74 89 1a 40
        E 3 b9 04 3a
        E 309 b9 04 3e
        E 2 99 2e 33
        E 242 89 2e 40
        E 217 99 24 6f
        E 51 b9 04 36
        E 2 99 2e 5c
        E 99 b9 04 30
        E 90 89 24 40
        E 56 89 2e 40
        E 253 99 26 7f
        E 51 b9 04 32
        E 2 99 2e 7f
        E 174 b9 04 36
        E 15 89 26 40
        E 55 89 2e 40
        E 288 b9 04 38
        E 2 99 2e 46
        E 244 89 2e 40
        E 201 b9 04 3e
        E 80 b9 04 3e
        E 2 99 2e 7f
        E 4 99 24 7f
        E 238 89 2e 40
        E 6 89 24 40
        E 259 b9 04 3a
        E 2 99 2e 51
        E 242 b9 04 3a
        E 3 89 2e 40
        E 316 99 24 7f
        E 17 b9 04 3a
        E 0 99 2e 7f
        E 224 89 24 40
        E 18 89 2e 40
        E 273 b9 04 38
        E 2 99 2e 51
        E 242 89 2e 40
        E 258 99 24 75
        E 3 b9 04 3a
        E 2 99 2e 5e
        E 222 b9 04 36
        E 15 89 24 40
        E 4 89 2e 40
        E 334 99 28 69
        E 31 b9 04 36
        E 2 99 2e 7f
        E 211 89 28 40
        E 31 89 2e 40
        E 254 b9 04 38
        E 2 99 2e 52
        E 242 89 2e 40
        E 249 99 24 7b
        E 44 b9 04 38
        E 2 99 2e 7f
        E 198 89 24 40
        E 46 89 2e 40
        E 106 b9 04 3a
        E 131 99 24 69
        E 24 b9 04 36
        E 2 99 2e 4a
        E 114 b9 04 36
        E 100 89 24 40
        E 28 89 2e 40
        E 270 99 28 56
        E 60 b9 04 36
        E 3 99 2e 7f
        E 182 89 28 40
        E 60 89 2e 40
        E 242 b9 04 36
        E 2 99 2e 53
        E 239 89 2e 40
        E 220 99 24 7f
        E 75 b9 04 2e
        E 2 99 2e 7f
        E 3 b9 04 2e
        E 157 b9 04 27
        E 7 89 24 40
        E 75 89 2e 40
        E 275 b9 04 20
        E 2 99 2e 47
        E 46 b9 04 20
        E 196 89 2e 40
        E 247 99 26 75
        E 60 b9 04 27
        E 5 b9 04 27
        E 2 99 2e 7f
        E 177 89 26 40
        E 65 89 2e 40
        E 237 b9 04 2c
        E 41 b9 04 29
        E 2 99 2e 57
        E 240 89 2e 40
        E 233 99 24 72
        E 68 b9 04 2e
        E 0 99 2e 7f
        E 176 89 24 40
        E 66 89 2e 40
        E 94 b9 04 32
        E 135 99 24 59
        E 3 b9 04 32
        E 2 99 2e 3c
        E 237 89 24 40
        E 2 89 2e 40
        E 326 99 26 75
        E 27 b9 04 30
        E 2 99 2e 7f
        E 216 89 26 40
        E 26 89 2e 40
        E 261 b9 04 30
        E 2 99 2e 4e
        E 242 89 2e 40
        E 227 99 24 77
        E 53 b9 04 30
        E 3 99 2e 7f
        E 188 89 24 40
        E 2 b9 04 2c
        E 54 89 2e 40
        E 256 b9 04 27
        E 3 99 2e 40
        E 130 b9 04 20
        E 111 89 2e 40
        E 290 99 28 4c
        E 21 b9 04 25
        E 3 99 1a 7f
        E 39 b9 04 27
        E 179 89 28 40
        E 23 89 1a 40
        E 290 b9 04 29
        E 3 99 2e 4c
        E 242 89 2e 40
        E 226 99 24 70
        E 48 b9 04 2c
        E 3 99 2e 7f
        E 41 b9 04 2c
        E 151 89 24 40
        E 50 89 2e 40
        E 251 99 24 60
        E 20 b9 04 29
        E 1 99 2e 39
        E 221 89 24 40
        E 22 89 2e 40
        E 302 99 28 5b
        E 17 b9 04 27
        E 2 99 2e 7f
        E 222 89 28 40
        E 19 89 2e 40
        E 298 b9 04 29
        E 3 99 2e 41
        E 132 b9 04 27
        E 109 89 2e 40
        E 251 99 24 6b
        E 55 b9 04 25
        E 3 99 2e 7f
        E 138 b9 04 20
        E 46 89 24 40
        E 60 89 2e 40
        E 268 99 26 51
        E 20 b9 04 1d
        E 2 99 2e 7f
        E 222 89 26 40
        E 19 89 2e 40
        E 264 99 24 5b
        E 29 b9 04 1d
        E 3 99 2e 65
        E 210 89 24 40
        E 31 89 2e 40
        E 256 99 24 59
        E 31 b9 04 1d
        E 3 99 2e 60
        E 210 89 24 40
        E 34 89 2e 40
        E 138 b9 04 1a
        E 133 99 26 41
        E 38 b9 04 1a
        E 2 99 2e 7f
        E 201 89 26 40
        E 44 89 2e 40
        E 222 99 24 60
        E 31 b9 04 1a
        E 2 99 2e 50
        E 208 89 24 40
        E 34 89 2e 40
        E 270 99 28 3a
        E 15 b9 04 1a
        E 2 99 2e 7f
        E 225 89 28 40
        E 20 89 2e 40
        E 272 99 24 5a
        E 13 b9 04 1a
        E 2 99 2e 65
        E 227 89 24 40
        E 15 89 2e 40
        E 243 b9 04 1a
        E 2 99 2e 50
        E 25 99 24 50
        E 215 b9 04 12
        E 5 89 2e 40
        E 25 89 24 40
        E 280 99 28 35
        E 31 b9 04 12
        E 3 99 2e 7f
        E 207 89 28 40
        E 34 89 2e 40
        E 225 99 24 5a
        E 92 b9 04 12
        E 2 99 2e 67
        E 150 89 24 40
        E 92 89 2e 40
        E 219 99 24 59
        E 27 b9 04 0f
        E 2 99 2e 56
        E 184 b9 04 0c
        E 29 89 24 40
        E 29 89 2e 40
        E 254 99 28 4e
        E 55 b9 04 0c
        E 3 99 2e 7f
        E 188 89 28 40
        E 54 89 2e 40
        E 224 99 24 57
        E 24 b9 04 0c
        E 2 99 2e 5c
        E 215 89 24 40
        E 27 89 2e 40
        E 261 99 28 51
        E 51 b9 04 0f
        E 3 99 2e 7f
        E 188 89 28 40
        E 53 89 2e 40
        E 224 99 24 5d
        E 17 b9 04 0f
        E 2 99 2e 5f
        E 223 89 24 40
        E 22 89 2e 40
        E 267 b9 04 0c
        E 0 99 24 57
        E 3 99 2e 7d
        E 240 89 24 40
        E 5 89 2e 40
        E 313 99 26 6e
        E 21 b9 04 0f
        E 2 99 2e 7f
        E 224 89 26 40
        E 18 89 2e 40
        E 219 99 24 59
        E 92 b9 04 0f
        E 2 99 2e 66
        E 147 89 24 40
        E 95 89 2e 40
        E 200 99 24 5b
        E 34 b9 04 0c
        E 5 99 2e 4f
        E 203 89 24 40
        E 38 89 2e 40
        E 288 99 28 58
        E 36 b9 04 0f
        E 3 99 2e 7f
        E 203 89 28 40
        E 36 89 2e 40
        E 227 99 24 66
        E 43 b9 04 0f
        E 2 99 2e 39
        E 197 89 24 40
        E 45 89 2e 40
        E 232 99 26 54
        E 60 b9 04 0f
        E 5 99 2e 7f
        E 177 89 26 40
        E 65 89 2e 40
        E 252 99 24 64
        E 6 b9 04 0f
        E 2 99 2e 5f
        E 232 89 24 40
        E 10 89 2e 40
        E 264 b9 04 0f
        E 1 99 2e 63
        E 13 99 24 56
        E 230 89 2e 40
        E 12 89 24 40
        E 297 99 26 7d
        E 27 b9 04 0f
        E 2 99 2e 7f
        E 213 89 26 40
        E 29 89 2e 40
        E 214 99 24 5f
        E 66 b9 04 0f
        E 2 99 2e 69
        E 177 89 24 40
        E 63 89 2e 40
        E 228 99 24 58
        E 23 b9 04 0c
        E 2 99 2e 75
        E 218 89 24 40
        E 24 89 2e 40
        E 108 b9 04 06
        E 165 99 26 7a
        E 48 b9 04 06
        E 1 99 2e 7f
        E 195 89 26 40
        E 46 89 2e 40
        E 227 99 24 66
        E 46 b9 04 06
        E 2 99 2e 69
        E 194 89 24 40
        E 50 89 2e 40
        E 252 99 26 6a
        E 45 b9 04 09
        E 5 99 2e 7f
        E 194 89 26 40
        E 50 89 2e 40
        E 224 99 24 5a
        E 51 b9 04 09
        E 3 99 2e 5b
        E 191 89 24 40
        E 50 89 2e 40
        E 247 b9 04 09
        E 3 99 2e 78
        E 9 99 24 54
        E 235 89 2e 40
        E 9 89 24 40
        E 285 99 26 68
        E 53 b9 04 09
        E 3 99 2e 7f
        E 186 89 26 40
        E 58 89 2e 40
        E 186 99 24 53
        E 73 b9 04 09
        E 2 99 2e 57
        E 166 89 24 40
        E 76 89 2e 40
        E 234 99 24 5e
        E 29 b9 04 09
        E 2 99 2e 69
        E 212 89 24 40
        E 30 89 2e 40
        E 258 99 26 66
        E 60 b9 04 09
        E 3 99 2e 7f
        E 179 89 26 40
        E 65 89 2e 40
        E 203 99 24 5e
        E 70 b9 04 06
        E 2 99 2e 4f
        E 170 89 24 40
        E 72 89 2e 40
        E 244 99 26 4a
        E 51 b9 04 09
        E 2 99 2e 7f
        E 191 89 26 40
        E 51 89 2e 40
        E 210 99 24 65
        E 51 b9 04 06
        E 2 99 2e 54
        E 189 89 24 40
        E 52 89 2e 40
        E 252 99 24 5b
        E 10 b9 04 09
        E 1 99 2e 7f
        E 230 89 24 40
        E 15 89 2e 40
        E 297 99 26 70
        E 34 b9 04 06
        E 2 99 2e 7f
        E 206 89 26 40
        E 36 89 2e 40
        E 164 99 24 50
        E 121 b9 04 06
        E 2 99 2e 5f
        E 119 89 24 40
        E 126 89 2e 40
        E 217 99 24 6f
        E 32 b9 04 06
        E 2 99 2e 74
        E 210 89 24 40
        E 31 89 2e 40
        E 286 99 26 41
        E 40 b9 04 06
        E 3 99 2e 7f
        E 201 89 26 40
        E 40 89 2e 40
        E 223 99 24 73
        E 36 b9 04 03
        E 3 99 2e 6a
        E 33 b9 04 00
        E 170 89 24 40
        E 38 89 2e 40
        E 269 99 26 7f
        E 33 b9 04 03
        E 2 99 2e 7f
        E 206 89 26 40
        E 36 89 2e 40
        E 220 b9 04 00
        E 2 99 2e 54
        E 242 89 2e 40
        E 157 99 24 78
        E 41 b9 04 12
        E 166 b9 04 20
        E 37 89 24 40
        E 7 99 26 6d
        E 13 99 29 76
        E 100 b9 04 27
        E 129 89 26 40
        E 14 99 24 54
        E 3 89 29 40
        E 65 b9 04 2e
        E 174 89 24 40
        E 41 99 29 3e
        E 172 b9 04 27
        E 46 99 24 58
        E 24 89 29 40
        E 217 89 24 40
        E 46 99 26 73
        E 34 99 29 7f
        E 207 89 26 40
        E 37 89 29 40
        E 7 99 24 5b
        E 242 89 24 40
        E 50 99 29 3e
        E 242 89 29 40
        E 22 99 24 5d
        E 241 89 24 40
        E 36 99 26 68
        E 13 99 29 7f
        E 231 89 26 40
        E 10 89 29 40
        E 90 99 24 5e
        E 239 99 29 35
        E 3 89 24 40
        E 241 89 29 40
        E 51 99 24 58
        E 183 b9 04 20
        E 58 89 24 40
        E 17 99 29 7f
        E 12 99 28 44
        E 232 89 29 40
        E 9 89 28 40
        E 97 99 24 63
        E 225 99 29 23
        E 17 89 24 40
        E 225 89 29 40
        E 70 99 24 57
        E 244 89 24 40
        E 2 99 29 7f
        E 17 99 28 31
        E 225 89 29 40
        E 17 89 28 40
        E 89 99 24 59
        E 244 89 24 40
        E 15 99 29 25
        E 244 89 29 40
        E 33 99 24 57
        E 242 89 24 40
        E 32 99 28 30
        E 4 99 29 7f
        E 237 89 28 40
        E 5 89 29 40
        E 68 99 24 62
        E 241 89 24 40
        E 11 99 29 2e
        E 240 89 29 40
        E 34 99 24 5b
        E 242 89 24 40
        E 41 99 26 52
        E 2 99 29 7f
        E 240 89 26 40
        E 5 89 29 40
        E 74 99 24 5d
        E 242 89 24 40
        E 22 99 29 32
        E 241 89 29 40
        E 30 99 24 58
        E 241 89 24 40
        E 38 99 28 5c
        E 7 99 29 7f
        E 235 89 28 40
        E 9 89 29 40
        E 75 99 24 60
        E 242 89 24 40
        E 31 99 29 24
        E 245 89 29 40
        E 14 99 24 58
        E 246 89 24 40
        E 51 99 29 7b
        E 3 99 28 2d
        E 239 89 29 40
        E 5 89 28 40
        E 50 99 24 64
        E 244 89 24 40
        E 37 99 29 25
        E 244 89 29 40
        E 31 99 24 5b
        E 245 89 24 40
        E 52 99 26 37
        E 8 99 29 76
        E 234 89 26 40
        E 7 89 29 40
        E 38 99 24 60
        E 242 89 24 40
        E 58 99 29 30
        E 242 89 29 40
        E 19 99 24 5f
        E 242 89 24 40
        E 41 99 28 5d
        E 10 99 29 7f
        E 234 89 28 40
        E 7 89 29 40
        E 82 99 24 5d
        E 242 89 24 40
        E 22 99 29 32
        E 241 89 29 40
        E 49 99 24 59
        E 241 89 24 40
        E 39 99 28 44
        E 4 99 29 7f
        E 5 89 28 40
        E 2 99 28 5d
        E 235 89 29 40
        E 5 89 28 40
        E 62 99 24 5c
        E 242 89 24 40
        E 32 99 29 24
        E 244 89 29 40
        E 31 99 24 5c
        E 242 89 24 40
        E 46 99 28 2d
        E 9 99 26 6a
        E 13 99 29 78
        E 222 89 28 40
        E 9 89 26 40
        E 11 89 29 40
        E 55 99 24 5c
        E 239 89 24 40
        E 39 99 29 2d
        E 242 89 29 40
        E 33 99 24 59
        E 242 89 24 40
        E 43 99 28 4a
        E 12 99 29 7f
        E 230 89 28 40
        E 11 89 29 40
        E 68 99 24 5c
        E 242 89 24 40
        E 29 99 29 23
        E 244 89 29 40
        E 51 99 24 5a
        E 241 89 24 40
        E 27 99 28 42
        E 4 99 29 77
        E 237 89 28 40
        E 5 89 29 40
        E 80 99 24 57
        E 242 89 24 40
        E 9 99 29 24
        E 242 89 29 40
        E 75 99 24 5e
        E 244 89 24 40
        E 46 99 29 6a
        E 2 99 26 25
        E 240 89 29 40
        E 2 89 26 40
        E 50 99 24 4f
        E 155 89 24 40
        E 0 99 24 15
        E 116 99 29 40
        E 128 89 24 40
        E 114 89 29 40
        E 21 99 24 6f
        E 242 89 24 40
        E 60 99 26 7f
        E 85 89 26 40
        E 2 99 26 7f
        E 242 89 26 40
        E 213 99 26 77
        E 69 89 26 40
        E 4 99 26 71
        E 241 89 26 40
        E 232 99 24 55
        E 244 89 24 40
        E 259 99 30 7f
        E 67 89 30 40
        E 3 99 30 7f
        E 239 89 30 40
        E 751 b9 04 25
        E 73 99 24 51
        E 243 89 24 40
        E 15 b9 04 20
        E 278 99 2d 7f
        E 2 99 29 7f
        E 242 89 2d 40
        E 2 89 29 40
        E 155 b9 04 25
        E 657 99 26 7f
        E 85 99 28 74
        E 113 b9 04 30
        E 44 89 26 40
        E 84 89 28 40
        E 2 b9 04 41
        E 227 b9 04 47
        E 467 b9 04 3c
        E 94 99 24 49
        E 53 b9 04 30
        E 189 89 24 40
        E 326 99 30 7f
        E 41 b9 04 36
        E 36 89 30 40
        E 0 99 30 7f
        E 242 89 30 40
        E 620 b9 04 32
        E 105 99 24 5f
        E 241 89 24 40
        E 25 b9 04 2c
        E 241 99 29 7f
        E 9 99 2d 7f
        E 232 89 29 40
        E 10 89 2d 40
        E 128 b9 04 32
        E 418 b9 04 2e
        E 249 99 26 7f
        E 72 89 26 40
        E 3 99 26 72
        E 203 b9 04 25
        E 36 89 26 40
        E 230 99 26 4f
        E 198 b9 04 2c
        E 43 89 26 40
        E 264 99 24 5c
        E 243 89 24 40
        E 298 99 2d 7f
        E 12 99 30 7f
        E 229 89 2d 40
        E 12 89 30 40
        E 467 b9 04 30
        E 253 99 24 5a
        E 244 89 24 40
        E 314 99 29 7f
        E 5 99 2d 7f
        E 240 89 29 40
        E 2 89 2d 40
        E 534 b9 04 2c
        E 197 99 26 7f
        E 95 99 28 7f
        E 147 89 26 40
        E 95 89 28 40
        E 259 99 26 73
        E 229 89 26 40
        E 2 99 26 4b
        E 239 89 26 40
        E 37 99 26 7c
        E 60 b9 04 27
        E 179 89 26 40
        E 9 99 26 5b
        E 243 89 26 40
        E 45 99 30 64
        E 244 89 30 40
        E 27 99 30 4d
        E 227 89 30 40
        E 1 99 30 7f
        E 240 89 30 40
        E 31 99 30 6b
        E 242 89 30 40
        E 39 99 2d 7f
        E 241 89 2d 40
        E 17 99 2d 3d
        E 228 89 2d 40
        E 4 99 2d 76
        E 239 89 2d 40
        E 47 99 2d 5c
        E 244 89 2d 40
        E 21 99 29 5c
        E 237 89 29 40
        E 2 99 29 51
        E 17 b9 04 20
        E 225 89 29 40
        E 24 b9 04 18
        E 34 99 24 7f
        E 43 99 3b 7f
        E 119 b9 04 0f
        E 82 89 24 40
        E 40 89 3b 40
        E 542 b9 04 15
        E 1222 b9 04 0f
        E 324 b9 04 06
        E 1148 b9 04 00
        E 34346 b0 7b 00
        GUID {CCCEAB10-33E4-4F4B-9224-2761D2867833}
        IGNTEMPO 0 120 4 4
        SRCCOLOR 485
        VELLANE -1 100 0
      >
      TAKE NULL
    >
    <ITEM
      POSITION 210.61856079201442
      SNAPOFFS 0
      LENGTH 2.75643920798558
      LOOP 1
      ALLTAKES 0
      FADEIN 1 0 0 1 0 0
      FADEOUT 1 0 0 1 0 0
      MUTE 0
      SEL 0
      IGUID {78770973-46A7-4F59-BB06-BC3B9634916D}
      IID 1
      NAME "01-EZdrummer-Recorded MIDI"
      VOLPAN 1 0 1 -1
      SOFFS 210.61856079201442 681.00001322751325
      PLAYRATE 1 1 0 -1 0 0.0025
      CHANMODE 0
      GUID {63DBBB5C-2A55-4FBF-8508-F6317C302CFB}
      RECPASS 1
      <SOURCE MIDI
        HASDATA 1 960 QN
        POOLEDEVTS {3A53232B-E4DA-4AA3-9BB6-367E56034FEE}
        E 13555 99 24 5a
        E 244 89 24 40
        E 316 99 24 52
        E 245 89 24 40
        E 226 99 26 62
        E 114 89 26 40
        E 2 99 26 62
        E 243 89 26 40
        E 200 99 24 55
        E 243 89 24 40
        E 296 99 24 5a
        E 243 89 24 40
        E 1909 99 24 6a
        E 244 89 24 40
        E 326 99 24 63
        E 244 89 24 40
        E 249 99 26 74
        E 114 89 26 40
        E 2 99 26 6c
        E 242 89 26 40
        E 168 99 24 58
        E 245 89 24 40
        E 340 99 24 67
        E 245 89 24 40
        E 1944 99 24 7e
        E 244 89 24 40
        E 302 99 24 62
        E 244 89 24 40
        E 273 99 26 76
        E 97 89 26 40
        E 2 99 26 73
        E 242 89 26 40
        E 193 99 24 56
        E 244 89 24 40
        E 333 99 24 6d
        E 244 89 24 40
        E 1919 99 24 73
        E 244 89 24 40
        E 290 99 24 64
        E 244 89 24 40
        E 285 99 26 6c
        E 97 89 26 40
        E 2 99 26 6d
        E 241 89 26 40
        E 189 99 24 5b
        E 244 89 24 40
        E 288 99 24 60
        E 243 89 24 40
        E 324 99 26 73
        E 210 89 26 40
        E 2 99 26 69
        E 242 89 26 40
        E 24 99 26 7f
        E 244 89 26 40
        E 3 99 26 73
        E 244 89 26 40
        E 5 99 26 74
        E 243 89 26 40
        E 308 99 24 61
        E 244 89 24 40
        E 294 99 24 63
        E 242 89 24 40
        E 237 99 26 7c
        E 96 89 26 40
        E 3 99 26 6b
        E 241 89 26 40
        E 223 99 24 58
        E 244 89 24 40
        E 287 99 24 5a
        E 244 89 24 40
        E 1737 99 24 69
        E 244 89 24 40
        E 302 99 24 62
        E 244 89 24 40
        E 253 99 26 70
        E 117 89 26 40
        E 2 99 26 75
        E 242 89 26 40
        E 179 99 24 4f
        E 244 89 24 40
        E 314 99 24 61
        E 242 89 24 40
        E 1877 99 24 62
        E 243 89 24 40
        E 300 99 24 5d
        E 245 89 24 40
        E 297 99 26 7f
        E 99 89 26 40
        E 2 99 26 70
        E 241 89 26 40
        E 223 99 24 58
        E 244 89 24 40
        E 297 99 24 63
        E 244 89 24 40
        E 1879 99 24 6c
        E 245 89 24 40
        E 299 99 24 62
        E 244 89 24 40
        E 237 99 24 52
        E 244 89 24 40
        E 2899 99 24 63
        E 244 89 24 40
        E 254 99 24 52
        E 244 89 24 40
        E 312 99 24 5d
        E 244 89 24 40
        E 3022 99 24 64
        E 244 89 24 40
        E 251 99 24 4d
        E 244 89 24 40
        E 309 99 24 63
        E 243 89 24 40
        E 3155 99 24 64
        E 243 89 24 40
        E 266 99 24 55
        E 244 89 24 40
        E 324 99 24 60
        E 244 89 24 40
        E 3017 99 24 6b
        E 245 89 24 40
        E 278 99 24 56
        E 243 89 24 40
        E 198 99 26 7f
        E 145 89 26 40
        E 3 99 26 6d
        E 242 89 26 40
        E 195 99 24 5a
        E 244 89 24 40
        E 297 99 24 5d
        E 243 89 24 40
        E 781 99 26 7f
        E 114 89 26 40
        E 2 99 26 7f
        E 243 89 26 40
        E 813 99 24 65
        E 244 89 24 40
        E 278 99 24 58
        E 245 89 24 40
        E 260 99 26 7f
        E 104 89 26 40
        E 3 99 26 6a
        E 241 89 26 40
        E 208 99 24 55
        E 242 89 24 40
        E 294 99 24 5d
        E 244 89 24 40
        E 780 99 26 7f
        E 107 89 26 40
        E 3 99 26 77
        E 241 89 26 40
        E 775 99 24 61
        E 244 89 24 40
        E 286 99 24 57
        E 244 89 24 40
        E 243 99 26 65
        E 107 89 26 40
        E 2 99 26 74
        E 242 89 26 40
        E 193 99 24 58
        E 244 89 24 40
        E 302 99 24 5a
        E 244 89 24 40
        E 800 99 26 7e
        E 113 89 26 40
        E 3 99 26 7a
        E 241 89 26 40
        E 793 99 24 5e
        E 242 89 24 40
        E 284 99 24 57
        E 244 89 24 40
        E 252 99 26 7f
        E 99 89 26 40
        E 2 99 26 7f
        E 242 89 26 40
        E 205 99 24 57
        E 244 89 24 40
        E 298 99 24 5f
        E 244 89 24 40
        E 828 99 26 7f
        E 101 89 26 40
        E 3 99 26 7f
        E 241 89 26 40
        E 805 99 24 59
        E 244 89 24 40
        E 297 99 24 5a
        E 244 89 24 40
        E 254 99 26 7f
        E 104 89 26 40
        E 2 99 26 7c
        E 242 89 26 40
        E 210 99 24 51
        E 245 89 24 40
        E 296 99 24 5a
        E 244 89 24 40
        E 802 99 26 7f
        E 102 89 26 40
        E 2 99 26 7b
        E 242 89 26 40
        E 831 99 24 5d
        E 244 89 24 40
        E 278 99 24 59
        E 244 89 24 40
        E 275 99 26 7f
        E 90 89 26 40
        E 3 99 26 78
        E 240 89 26 40
        E 184 99 24 4e
        E 245 89 24 40
        E 294 99 24 60
        E 244 89 24 40
        E 292 99 26 7f
        E 230 89 26 40
        E 3 99 26 5b
        E 241 89 26 40
        E 14 99 26 6f
        E 245 89 26 40
        E 7 99 26 5e
        E 244 89 26 40
        E 2 99 26 55
        E 242 89 26 40
        E 297 99 24 60
        E 244 89 24 40
        E 290 99 24 62
        E 244 89 24 40
        E 234 99 26 77
        E 109 89 26 40
        E 3 99 26 7f
        E 241 89 26 40
        E 201 99 24 50
        E 243 89 24 40
        E 300 99 24 58
        E 244 89 24 40
        E 798 99 26 7f
        E 134 89 26 40
        E 3 99 26 7f
        E 242 89 26 40
        E 746 99 24 57
        E 244 89 24 40
        E 283 99 24 53
        E 243 89 24 40
        E 281 99 26 7f
        E 104 89 26 40
        E 2 99 26 69
        E 242 89 26 40
        E 191 99 24 4f
        E 244 89 24 40
        E 309 99 24 58
        E 244 89 24 40
        E 797 99 26 7f
        E 104 99 28 60
        E 138 89 26 40
        E 106 89 28 40
        E 757 99 24 50
        E 244 89 24 40
        E 297 99 24 56
        E 245 89 24 40
        E 257 99 26 7f
        E 109 89 26 40
        E 2 99 26 67
        E 242 89 26 40
        E 181 99 24 45
        E 244 89 24 40
        E 305 99 24 59
        E 243 89 24 40
        E 796 99 26 7f
        E 123 89 26 40
        E 2 99 26 79
        E 242 89 26 40
        E 763 99 24 59
        E 244 89 24 40
        E 290 99 24 53
        E 244 89 24 40
        E 269 99 26 7f
        E 125 89 26 40
        E 2 99 26 74
        E 242 89 26 40
        E 164 99 24 57
        E 244 89 24 40
        E 266 99 24 59
        E 244 89 24 40
        E 355 99 26 7f
        E 227 89 26 40
        E 3 99 26 6f
        E 241 89 26 40
        E 29 99 28 5c
        E 244 89 28 40
        E 3 99 26 6a
        E 244 89 26 40
        E 10 99 26 63
        E 243 89 26 40
        E 291 99 24 5a
        E 243 89 24 40
        E 283 99 24 5b
        E 244 89 24 40
        E 237 99 28 66
        E 106 99 26 75
        E 138 89 28 40
        E 106 89 26 40
        E 196 99 24 50
        E 244 89 24 40
        E 302 99 24 59
        E 244 89 24 40
        E 807 99 26 7f
        E 130 89 26 40
        E 3 99 26 78
        E 241 89 26 40
        E 764 99 24 55
        E 244 89 24 40
        E 285 99 24 52
        E 244 89 24 40
        E 285 99 26 7f
        E 118 89 26 40
        E 3 99 26 78
        E 241 89 26 40
        E 155 99 24 4a
        E 243 89 24 40
        E 308 99 24 59
        E 244 89 24 40
        E 821 99 26 7f
        E 116 99 28 5e
        E 126 89 26 40
        E 118 89 28 40
        E 735 99 24 56
        E 243 89 24 40
        E 295 99 24 58
        E 244 89 24 40
        E 264 99 26 7f
        E 104 89 26 40
        E 2 99 26 7f
        E 242 89 26 40
        E 173 99 24 4e
        E 244 89 24 40
        E 312 99 24 5d
        E 244 89 24 40
        E 834 99 26 7f
        E 101 89 26 40
        E 2 99 26 7f
        E 242 89 26 40
        E 732 99 24 54
        E 245 89 24 40
        E 292 99 24 53
        E 244 89 24 40
        E 261 99 26 7f
        E 127 89 26 40
        E 3 99 26 7f
        E 242 89 26 40
        E 174 99 24 4f
        E 244 89 24 40
        E 280 99 24 57
        E 244 89 24 40
        E 326 99 26 7f
        E 223 89 26 40
        E 2 99 26 67
        E 242 89 26 40
        E 50 99 26 6f
        E 236 89 26 40
        E 3 99 26 50
        E 242 89 26 40
        E 7 99 26 7d
        E 244 89 26 40
        E 353 99 24 59
        E 244 89 24 40
        E 285 99 24 56
        E 244 89 24 40
        E 247 99 26 7f
        E 103 89 26 40
        E 3 99 26 7f
        E 241 89 26 40
        E 218 99 24 4d
        E 244 89 24 40
        E 307 99 24 5a
        E 244 89 24 40
        E 797 99 26 7f
        E 92 89 26 40
        E 2 99 26 6d
        E 242 89 26 40
        E 741 99 24 4d
        E 244 89 24 40
        E 307 99 24 58
        E 244 89 24 40
        E 266 99 26 7f
        E 92 89 26 40
        E 2 99 26 5e
        E 242 89 26 40
        E 200 99 24 4d
        E 245 89 24 40
        E 306 99 24 5a
        E 244 89 24 40
        E 824 99 26 7f
        E 244 89 26 40
        E 855 99 24 51
        E 245 89 24 40
        E 280 99 24 51
        E 244 89 24 40
        E 278 99 26 6a
        E 98 99 28 42
        E 145 89 26 40
        E 100 89 28 40
        E 200 99 24 4e
        E 244 89 24 40
        E 287 99 24 56
        E 244 89 24 40
        E 803 99 26 7b
        E 118 89 26 40
        E 3 99 26 6f
        E 241 89 26 40
        E 751 99 24 55
        E 245 89 24 40
        E 299 99 24 53
        E 244 89 24 40
        E 264 99 28 62
        E 108 89 28 40
        E 3 99 28 66
        E 241 89 28 40
        E 162 99 24 4c
        E 244 89 24 40
        E 285 99 24 57
        E 242 89 24 40
        E 321 99 26 6a
        E 196 99 28 2f
        E 48 89 26 40
        E 196 89 28 40
        E 65 99 26 53
        E 220 99 28 37
        E 24 89 26 40
        E 220 89 28 40
        E 10 99 28 49
        E 244 89 28 40
        E 321 99 24 5d
        E 243 89 24 40
        E 820 99 24 63
        E 244 89 24 40
        E 319 99 26 5e
        E 106 89 26 40
        E 3 99 26 7f
        E 241 89 26 40
        E 785 99 24 68
        E 245 89 24 40
        E 326 99 26 7f
        E 84 89 26 40
        E 1 99 26 7f
        E 243 89 26 40
        E 771 99 24 58
        E 244 89 24 40
        E 838 99 24 57
        E 244 89 24 40
        E 319 99 28 31
        E 102 99 26 7c
        E 142 89 28 40
        E 102 89 26 40
        E 780 99 24 58
        E 243 89 24 40
        E 284 99 26 7b
        E 91 89 26 40
        E 3 99 26 7f
        E 241 89 26 40
        E 751 99 24 5b
        E 245 89 24 40
        E 841 99 24 56
        E 244 89 24 40
        E 345 99 26 79
        E 97 89 26 40
        E 2 99 26 7f
        E 242 89 26 40
        E 742 99 24 5c
        E 244 89 24 40
        E 263 99 26 7f
        E 94 89 26 40
        E 2 99 26 7f
        E 242 89 26 40
        E 773 99 24 5a
        E 244 89 24 40
        E 273 99 2d 7f
        E 15 99 30 7f
        E 229 89 2d 40
        E 15 89 30 40
        E 326 99 24 58
        E 244 89 24 40
        E 275 99 29 71
        E 17 99 2d 7f
        E 227 89 29 40
        E 17 89 2d 40
        E 276 99 24 5c
        E 244 89 24 40
        E 275 99 24 53
        E 244 89 24 40
        E 222 99 26 78
        E 107 89 26 40
        E 3 99 26 7f
        E 241 89 26 40
        E 749 99 24 54
        E 244 89 24 40
        E 816 99 24 59
        E 244 89 24 40
        E 307 99 26 7b
        E 101 89 26 40
        E 3 99 26 7f
        E 241 89 26 40
        E 747 99 24 67
        E 244 89 24 40
        E 256 99 26 7f
        E 94 89 26 40
        E 3 99 26 7f
        E 242 89 26 40
        E 749 99 24 5e
        E 243 89 24 40
        E 795 99 24 58
        E 244 89 24 40
        E 292 99 26 7f
        E 119 89 26 40
        E 2 99 26 7f
        E 241 89 26 40
        E 733 99 24 6a
        E 244 89 24 40
        E 239 99 26 78
        E 87 89 26 40
        E 3 99 26 7f
        E 241 89 26 40
        E 804 99 24 5c
        E 244 89 24 40
        E 803 99 24 61
        E 243 89 24 40
        E 313 99 26 76
        E 78 89 26 40
        E 2 99 26 7f
        E 242 89 26 40
        E 774 99 24 64
        E 244 89 24 40
        E 293 99 26 7c
        E 72 89 26 40
        E 3 99 26 7f
        E 241 89 26 40
        E 822 99 24 57
        E 244 89 24 40
        E 277 99 2d 7f
        E 8 99 30 7f
        E 237 89 2d 40
        E 6 89 30 40
        E 276 99 24 58
        E 245 89 24 40
        E 279 99 24 55
        E 244 89 24 40
        E 293 99 29 66
        E 2 99 2d 7f
        E 241 89 29 40
        E 3 89 2d 40
        E 271 99 24 6a
        E 244 89 24 40
        E 271 99 26 7f
        E 99 89 26 40
        E 2 99 26 7f
        E 239 89 26 40
        E 773 99 24 59
        E 244 89 24 40
        E 787 99 24 5c
        E 245 89 24 40
        E 277 99 26 7f
        E 97 89 26 40
        E 3 99 26 7d
        E 241 89 26 40
        E 790 99 24 5e
        E 244 89 24 40
        E 261 99 26 7f
        E 73 89 26 40
        E 2 99 26 7f
        E 242 89 26 40
        E 739 99 24 58
        E 242 89 24 40
        E 824 99 24 5e
        E 244 89 24 40
        E 333 99 26 7f
        E 114 89 26 40
        E 2 99 26 7c
        E 242 89 26 40
        E 746 99 24 62
        E 244 89 24 40
        E 261 99 26 7f
        E 104 89 26 40
        E 2 99 26 7c
        E 242 89 26 40
        E 741 99 24 54
        E 245 89 24 40
        E 809 99 24 69
        E 243 89 24 40
        E 286 99 26 76
        E 99 89 26 40
        E 2 99 26 75
        E 242 89 26 40
        E 773 99 24 67
        E 245 89 24 40
        E 289 99 26 70
        E 63 89 26 40
        E 3 99 26 73
        E 241 89 26 40
        E 800 99 24 5f
        E 244 89 24 40
        E 215 99 30 79
        E 6 99 2d 7f
        E 238 89 30 40
        E 4 89 2d 40
        E 305 99 2d 7f
        E 3 99 30 7f
        E 241 89 2d 40
        E 0 89 30 40
        E 257 99 24 5d
        E 242 89 24 40
        E 272 99 29 7f
        E 11 99 2d 7f
        E 233 89 29 40
        E 11 89 2d 40
        E 271 99 24 61
        E 244 89 24 40
        E 266 99 26 79
        E 111 89 26 40
        E 3 99 26 7f
        E 241 89 26 40
        E 206 99 24 51
        E 243 89 24 40
        E 315 99 24 62
        E 244 89 24 40
        E 814 99 24 61
        E 245 89 24 40
        E 296 99 26 7c
        E 80 89 26 40
        E 2 99 26 7f
        E 241 89 26 40
        E 1347 99 26 7b
        E 65 89 26 40
        E 2 99 26 7b
        E 242 89 26 40
        E 701 99 24 67
        E 243 89 24 40
        E 790 99 24 6a
        E 244 89 24 40
        E 303 99 26 7f
        E 125 89 26 40
        E 3 99 26 7f
        E 241 89 26 40
        E 768 99 24 6a
        E 245 89 24 40
        E 263 99 26 7f
        E 94 89 26 40
        E 2 99 26 78
        E 243 89 26 40
        E 789 99 24 62
        E 242 89 24 40
        E 765 99 24 6f
        E 245 89 24 40
        E 299 99 26 70
        E 244 89 26 40
        E 1220 99 26 7f
        E 102 89 26 40
        E 2 99 26 7f
        E 242 89 26 40
        E 756 99 24 5f
        E 244 89 24 40
        E 244 99 2d 7f
        E 17 99 30 7f
        E 226 89 2d 40
        E 16 89 30 40
        E 263 99 2d 7f
        E 17 99 30 7f
        E 227 89 2d 40
        E 17 89 30 40
        E 222 99 24 59
        E 244 89 24 40
        E 293 99 29 52
        E 14 99 2d 7f
        E 229 89 29 40
        E 15 89 2d 40
        E 248 99 24 5a
        E 244 89 24 40
        E 228 99 26 7e
        E 130 89 26 40
        E 3 99 26 7c
        E 241 89 26 40
        E 722 99 24 72
        E 241 89 24 40
        E 320 99 24 6e
        E 244 89 24 40
        E 285 99 24 5d
        E 244 89 24 40
        E 264 99 26 70
        E 104 89 26 40
        E 1 99 26 67
        E 243 89 26 40
        E 198 99 24 56
        E 241 89 24 40
        E 273 99 24 5f
        E 242 89 24 40
        E 271 99 26 7f
        E 101 89 26 40
        E 2 99 26 7f
        E 242 89 26 40
        E 758 99 24 5d
        E 244 89 24 40
        E 303 99 24 63
        E 244 89 24 40
        E 270 99 24 5d
        E 244 89 24 40
        E 280 99 26 7f
        E 102 89 26 40
        E 2 99 26 7a
        E 242 89 26 40
        E 232 99 24 58
        E 244 89 24 40
        E 273 99 24 61
        E 244 89 24 40
        E 291 99 26 7f
        E 105 89 26 40
        E 3 99 26 7f
        E 241 89 26 40
        E 810 99 24 62
        E 243 89 24 40
        E 266 99 24 52
        E 244 89 24 40
        E 276 99 24 63
        E 244 89 24 40
        E 248 99 26 7e
        E 100 89 26 40
        E 2 99 26 7f
        E 241 89 26 40
        E 244 99 24 5b
        E 244 89 24 40
        E 276 99 24 5d
        E 244 89 24 40
        E 302 99 26 70
        E 113 89 26 40
        E 3 99 26 7f
        E 242 89 26 40
        E 755 99 24 59
        E 245 89 24 40
        E 277 99 24 56
        E 242 89 24 40
        E 268 99 24 58
        E 244 89 24 40
        E 208 99 26 7f
        E 126 89 26 40
        E 2 99 26 7f
        E 242 89 26 40
        E 188 99 24 5a
        E 244 89 24 40
        E 276 99 24 5c
        E 244 89 24 40
        E 270 99 26 7f
        E 97 89 26 40
        E 3 99 26 6e
        E 241 89 26 40
        E 815 99 24 5f
        E 243 89 24 40
        E 256 99 24 51
        E 245 89 24 40
        E 282 99 24 66
        E 244 89 24 40
        E 225 99 26 7f
        E 121 89 26 40
        E 2 99 26 7f
        E 242 89 26 40
        E 195 99 24 4d
        E 244 89 24 40
        E 285 99 24 5e
        E 244 89 24 40
        E 293 99 26 7f
        E 92 89 26 40
        E 2 99 26 7f
        E 242 89 26 40
        E 804 99 24 66
        E 244 89 24 40
        E 268 99 24 52
        E 243 89 24 40
        E 255 99 24 55
        E 244 89 24 40
        E 231 99 26 7f
        E 114 89 26 40
        E 3 99 26 7f
        E 242 89 26 40
        E 250 99 24 4b
        E 245 89 24 40
        E 256 99 24 60
        E 243 89 24 40
        E 257 99 26 7c
        E 103 89 26 40
        E 3 99 26 7f
        E 242 89 26 40
        E 792 99 24 59
        E 244 89 24 40
        E 278 99 24 56
        E 244 89 24 40
        E 268 99 24 62
        E 244 89 24 40
        E 247 99 26 7f
        E 79 89 26 40
        E 3 99 26 7f
        E 242 89 26 40
        E 246 99 24 53
        E 244 89 24 40
        E 270 99 24 58
        E 244 89 24 40
        E 307 99 26 7f
        E 97 89 26 40
        E 3 99 26 7f
        E 241 89 26 40
        E 766 99 24 5b
        E 244 89 24 40
        E 309 99 24 64
        E 245 89 24 40
        E 236 99 24 4c
        E 244 89 24 40
        E 263 99 26 7f
        E 80 89 26 40
        E 2 99 26 78
        E 242 89 26 40
        E 256 99 24 58
        E 244 89 24 40
        E 259 99 24 5d
        E 243 89 24 40
        E 276 99 26 7f
        E 113 89 26 40
        E 3 99 26 7f
        E 241 89 26 40
        E 733 99 24 7c
        E 41 b9 04 00
        E 2 99 2e 7f
        E 200 89 24 40
        E 44 89 2e 40
        E 280 b9 04 00
        E 0 99 2e 33
        E 215 b9 04 0c
        E 29 89 2e 40
        E 157 b9 04 1a
        E 128 99 26 58
        E 10 b9 04 27
        E 2 99 2e 7f
        E 31 b9 04 2c
        E 202 89 26 40
        E 11 89 2e 40
        E 15 b9 04 34
        E 201 b9 04 41
        E 113 b9 04 43
        E 3 99 2e 2e
        E 241 89 2e 40
        E 234 99 24 5c
        E 32 b9 04 44
        E 3 99 2e 7f
        E 209 89 24 40
        E 32 89 2e 40
        E 261 99 24 54
        E 50 b9 04 36
        E 3 99 2e 24
        E 5 b9 04 36
        E 186 89 24 40
        E 53 89 2e 40
        E 268 99 26 6a
        E 15 b9 04 36
        E 2 99 2e 7f
        E 227 89 26 40
        E 15 89 2e 40
        E 292 b9 04 36
        E 2 99 2e 3e
        E 242 89 2e 40
        E 235 99 24 6d
        E 19 b9 04 36
        E 2 99 2e 7f
        E 222 89 24 40
        E 22 89 2e 40
        E 271 b9 04 36
        E 2 99 2e 3b
        E 244 89 2e 40
        E 36 b9 04 30
        E 283 b9 04 34
        E 2 99 2e 7f
        E 5 b9 04 34
        E 0 99 26 71
        E 240 89 2e 40
        E 4 89 26 40
        E 283 b9 04 38
        E 0 99 2e 4a
        E 94 b9 04 38
        E 150 89 2e 40
        E 264 99 24 58
        E 36 b9 04 3e
        E 2 99 2e 7f
        E 2 b9 04 3c
        E 203 89 24 40
        E 37 89 2e 40
        E 169 b9 04 46
        E 65 99 24 4e
        E 48 b9 04 44
        E 0 99 2e 57
        E 116 b9 04 36
        E 80 89 24 40
        E 48 89 2e 40
        E 276 99 26 75
        E 33 b9 04 46
        E 5 b9 04 46
        E 0 99 2e 7f
        E 20 b9 04 4c
        E 116 b9 04 4c
        E 69 89 26 40
        E 11 b9 04 3c
        E 26 89 2e 40
        E 111 b9 04 34
        E 131 99 24 59
        E 19 b9 04 43
        E 2 99 2e 60
        E 7 b9 04 44
        E 215 89 24 40
        E 22 89 2e 40
        E 49 b9 04 38
        E 234 99 24 5f
        E 39 b9 04 3c
        E 2 99 2e 7f
        E 203 89 24 40
        E 39 89 2e 40
        E 285 b9 04 3c
        E 0 99 2e 50
        E 220 b9 04 2e
        E 24 89 2e 40
        E 261 99 26 68
        E 24 b9 04 30
        E 2 99 2e 7f
        E 218 89 26 40
        E 26 89 2e 40
        E 17 b9 04 27
        E 210 b9 04 36
        E 63 b9 04 36
        E 3 99 2e 4e
        E 241 89 2e 40
        E 235 99 24 67
        E 31 b9 04 38
        E 1 99 2e 7f
        E 212 89 24 40
        E 31 89 2e 40
        E 114 b9 04 3e
        E 147 99 24 50
        E 24 b9 04 3c
        E 2 99 2e 4f
        E 218 89 24 40
        E 26 89 2e 40
        E 281 99 26 7b
        E 26 b9 04 3a
        E 2 99 2e 7f
        E 216 89 26 40
        E 26 89 2e 40
        E 271 b9 04 3c
        E 2 99 2e 69
        E 245 89 2e 40
        E 229 99 24 63
        E 56 b9 04 3e
        E 2 99 2e 7f
        E 186 89 24 40
        E 55 89 2e 40
        E 257 b9 04 3a
        E 0 99 2e 51
        E 127 b9 04 38
        E 117 89 2e 40
        E 222 b9 04 3e
        E 45 99 28 43
        E 40 b9 04 3e
        E 2 99 2e 7f
        E 202 89 28 40
        E 40 89 2e 40
        E 280 b9 04 3e
        E 3 99 2e 5a
        E 241 89 2e 40
        E 237 99 24 62
        E 48 b9 04 3f
        E 4 99 2e 7f
        E 191 89 24 40
        E 51 89 2e 40
        E 244 99 24 55
        E 19 b9 04 3f
        E 3 99 2e 3e
        E 222 89 24 40
        E 20 89 2e 40
        E 253 99 26 69
        E 43 b9 04 3f
        E 3 99 2e 7f
        E 198 89 26 40
        E 43 89 2e 40
        E 274 b9 04 3f
        E 2 99 2e 46
        E 242 89 2e 40
        E 229 99 24 62
        E 51 b9 04 3f
        E 0 99 2e 7f
        E 193 89 24 40
        E 51 89 2e 40
        E 242 b9 04 3f
        E 0 99 2e 60
        E 244 89 2e 40
        E 335 99 26 78
        E 30 b9 04 3e
        E 2 99 2e 7f
        E 213 89 26 40
        E 28 89 2e 40
        E 273 b9 04 41
        E 3 99 2e 6c
        E 241 89 2e 40
        E 254 99 24 5d
        E 70 b9 04 41
        E 2 99 2e 7f
        E 172 89 24 40
        E 73 89 2e 40
        E 210 99 24 51
        E 17 b9 04 41
        E 2 99 2e 5b
        E 225 89 24 40
        E 17 89 2e 40
        E 302 99 28 50
        E 34 b9 04 3e
        E 2 99 2e 7f
        E 208 89 28 40
        E 36 89 2e 40
        E 263 b9 04 3e
        E 1 99 2e 63
        E 243 89 2e 40
        E 232 99 24 63
        E 37 b9 04 3e
        E 2 99 2e 7f
        E 206 89 24 40
        E 36 89 2e 40
        E 231 b9 04 3c
        E 5 99 2e 4f
        E 242 89 2e 40
        E 26 b9 04 3a
        E 283 99 26 6a
        E 17 b9 04 3c
        E 3 99 2e 7f
        E 224 89 26 40
        E 17 89 2e 40
        E 273 b9 04 3e
        E 0 99 2e 67
        E 71 b9 04 3e
        E 173 89 2e 40
        E 292 99 24 55
        E 29 b9 04 3e
        E 3 99 2e 7f
        E 213 89 24 40
        E 26 89 2e 40
        E 246 b9 04 3f
        E 2 99 2e 5b
        E 2 99 24 54
        E 238 89 2e 40
        E 8 89 24 40
        E 285 99 26 7f
        E 24 b9 04 3e
        E 2 99 2e 7f
        E 217 89 26 40
        E 25 89 2e 40
        E 268 b9 04 3e
        E 2 99 2e 5d
        E 241 89 2e 40
        E 230 99 24 54
        E 29 b9 04 3f
        E 3 99 2e 7f
        E 213 89 24 40
        E 31 89 2e 40
        E 256 b9 04 3e
        E 2 99 2e 51
        E 242 89 2e 40
        E 278 99 26 50
        E 31 b9 04 3f
        E 2 99 2e 7f
        E 211 89 26 40
        E 31 89 2e 40
        E 268 b9 04 41
        E 3 99 2e 55
        E 244 89 2e 40
        E 225 99 24 5f
        E 36 b9 04 43
        E 2 99 2e 7f
        E 205 89 24 40
        E 37 89 2e 40
        E 234 99 24 4a
        E 3 b9 04 41
        E 2 99 2e 4d
        E 239 89 24 40
        E 5 89 2e 40
        E 285 99 26 55
        E 29 b9 04 3f
        E 2 99 2e 7f
        E 213 89 26 40
        E 32 89 2e 40
        E 255 b9 04 3f
        E 3 99 2e 4a
        E 244 89 2e 40
        E 263 99 24 5f
        E 24 b9 04 41
        E 2 99 2e 7f
        E 218 89 24 40
        E 24 89 2e 40
        E 266 b9 04 3c
        E 3 99 2e 42
        E 239 89 2e 40
        E 24 b9 04 3a
        E 285 99 26 6c
        E 17 b9 04 3e
        E 2 99 2e 7f
        E 3 b9 04 3e
        E 222 89 26 40
        E 17 89 2e 40
        E 258 b9 04 3a
        E 54 99 30 76
        E 217 89 30 40
        E 2 99 30 7f
        E 80 b9 04 41
        E 161 89 30 40
        E 62 99 30 7f
        E 243 89 30 40
        E 307 99 2d 7f
        E 198 89 2d 40
        E 2 99 2d 7f
        E 213 b9 04 3a
        E 29 89 2d 40
        E 20 99 2d 7f
        E 244 89 2d 40
        E 62 99 2d 79
        E 240 99 29 7f
        E 4 89 2d 40
        E 240 89 29 40
        E 331 99 24 7f
        E 60 99 33 7f
        E 53 b9 04 32
        E 131 89 24 40
        E 38 b9 04 29
        E 20 89 33 40
        E 401 b9 04 30
        E 280 b9 04 38
        E 159 99 24 5c
        E 6 99 33 55
        E 239 89 24 40
        E 4 89 33 40
        E 261 99 26 7f
        E 31 99 33 7f
        E 213 89 26 40
        E 33 89 33 40
        E 301 99 33 3f
        E 244 89 33 40
        E 263 99 24 55
        E 17 99 33 35
        E 227 89 24 40
        E 17 89 33 40
        E 278 99 30 7f
        E 14 99 33 4f
        E 230 89 30 40
        E 14 89 33 40
        E 257 99 30 7f
        E 29 99 33 6e
        E 214 89 30 40
        E 29 89 33 40
        E 107 b9 04 3c
        E 166 99 24 67
        E 47 99 33 6a
        E 89 b9 04 36
        E 109 89 24 40
        E 45 89 33 40
        E 83 b9 04 30
        E 178 99 33 4a
        E 245 89 33 40
        E 122 b9 04 36
        E 153 99 24 5b
        E 21 99 33 59
        E 174 b9 04 2e
        E 49 89 24 40
        E 21 89 33 40
        E 293 99 26 7d
        E 2 99 33 73
        E 48 b9 04 32
        E 194 89 26 40
        E 2 89 33 40
        E 305 99 33 59
        E 244 89 33 40
        E 190 b9 04 36
        E 47 99 33 32
        E 50 99 24 57
        E 193 89 33 40
        E 51 89 24 40
        E 271 99 33 3c
        E 16 99 29 7b
        E 76 b9 04 32
        E 152 89 33 40
        E 17 89 29 40
        E 278 99 29 7f
        E 31 99 33 44
        E 213 89 29 40
        E 31 89 33 40
        E 251 99 24 5b
        E 53 99 33 59
        E 191 89 24 40
        E 32 b9 04 2c
        E 22 89 33 40
        E 244 99 33 3e
        E 244 89 33 40
        E 181 b9 04 3c
        E 98 99 24 57
        E 2 99 33 5b
        E 18 b9 04 2c
        E 38 b9 04 1a
        E 58 b9 04 09
        E 27 b9 04 00
        E 101 89 24 40
        E 3 89 33 40
        E 285 99 26 7f
        E 20 b9 04 12
        E 8 b9 04 25
        E 11 99 33 5d
        E 3 b9 04 36
        E 26 b9 04 46
        E 5 b9 04 4c
        E 4 b9 04 56
        E 0 99 2c 1a
        E 15 b9 04 66
        E 82 b9 04 56
        E 27 b9 04 46
        E 21 b9 04 36
        E 22 89 26 40
        E 3 b9 04 22
        E 36 89 33 40
        E 2 b9 04 12
        E 34 89 2c 40
        E 239 b9 04 22
        E 34 99 33 4c
        E 3 b9 04 32
        E 43 b9 04 43
        E 171 b9 04 32
        E 27 89 33 40
        E 247 99 33 56
        E 2 99 24 53
        E 14 b9 04 3a
        E 87 b9 04 29
        E 78 b9 04 18
        E 62 89 33 40
        E 3 89 24 40
        E 58 b9 04 06
        E 210 99 30 7f
        E 10 b9 04 18
        E 12 99 33 62
        E 16 b9 04 29
        E 23 b9 04 3a
        E 21 b9 04 4a
        E 5 b9 04 4d
        E 2 99 2c 0c
        E 88 b9 04 3a
        E 43 b9 04 29
        E 24 89 30 40
        E 22 89 33 40
        E 17 b9 04 18
        E 48 89 2c 40
        E 155 b9 04 29
        E 46 b9 04 3a
        E 12 99 30 7f
        E 72 b9 04 4a
        E 99 b9 04 3a
        E 73 89 30 40
        E 7 b9 04 29
        E 273 99 24 6e
        E 39 99 33 4c
        E 138 b9 04 34
        E 67 89 24 40
        E 39 89 33 40
        E 5 b9 04 22
        E 268 99 33 41
        E 152 b9 04 30
        E 92 89 33 40
        E 251 99 33 64
        E 7 99 24 5c
        E 17 b9 04 20
        E 67 b9 04 0f
        E 71 b9 04 00
        E 82 89 33 40
        E 7 89 24 40
        E 297 99 26 7f
        E 3 b9 04 12
        E 9 b9 04 22
        E 10 b9 04 32
        E 5 99 33 6c
        E 24 b9 04 44
        E 5 b9 04 4d
        E 3 99 2c 20
        E 2 b9 04 55
        E 36 b9 04 44
        E 41 b9 04 34
        E 36 b9 04 20
        E 71 89 26 40
        E 2 b9 04 0f
        E 24 89 33 40
        E 31 89 2c 40
        E 186 b9 04 20
        E 42 b9 04 30
        E 50 99 33 56
        E 3 b9 04 41
        E 149 b9 04 30
        E 89 b9 04 20
        E 3 89 33 40
        E 147 b9 04 30
        E 107 99 33 4f
        E 9 99 24 57
        E 27 b9 04 3a
        E 150 b9 04 29
        E 58 89 33 40
        E 9 89 24 40
        E 97 b9 04 20
        E 160 99 29 65
        E 14 99 33 37
        E 68 b9 04 30
        E 161 89 29 40
        E 15 89 33 40
        E 24 b9 04 20
        E 245 99 29 7f
        E 69 b9 04 30
        E 174 89 29 40
        E 107 b9 04 20
        E 181 99 24 5e
        E 51 99 33 4c
        E 62 b9 04 2e
        E 129 b9 04 1d
        E 2 89 24 40
        E 51 89 33 40
        E 261 99 33 44
        E 127 b9 04 2e
        E 116 89 33 40
        E 208 b9 04 29
        E 66 99 24 58
        E 5 99 33 4b
        E 103 b9 04 18
        E 61 b9 04 06
        E 31 b9 04 00
        E 44 89 24 40
        E 4 89 33 40
        E 281 99 26 61
        E 46 b9 04 12
        E 4 99 33 7a
        E 2 b9 04 25
        E 8 b9 04 36
        E 29 b9 04 46
        E 5 b9 04 4d
        E 2 99 2c 1a
        E 3 b9 04 56
        E 10 b9 04 66
        E 48 b9 04 56
        E 31 b9 04 46
        E 24 b9 04 36
        E 32 89 26 40
        E 5 b9 04 25
        E 34 b9 04 15
        E 11 89 33 40
        E 46 89 2c 40
        E 82 b9 04 0c
        E 114 b9 04 1d
        E 36 99 33 56
        E 5 b9 04 2e
        E 51 b9 04 3e
        E 154 b9 04 2e
        E 32 89 33 40
        E 38 b9 04 1d
        E 189 b9 04 2e
        E 14 99 33 54
        E 41 99 24 57
        E 17 b9 04 3e
        E 172 b9 04 2e
        E 14 89 33 40
        E 42 89 24 40
        E 41 b9 04 1d
        E 190 99 30 7f
        E 37 99 33 6d
        E 92 b9 04 2e
        E 36 b9 04 3e
        E 51 b9 04 4d
        E 2 99 2c 08
        E 26 89 30 40
        E 37 89 33 40
        E 70 b9 04 2e
        E 53 b9 04 1d
        E 58 89 2c 40
        E 80 99 30 7f
        E 12 99 33 56
        E 29 b9 04 2e
        E 118 b9 04 3e
        E 85 89 30 40
        E 10 89 33 40
        E 134 b9 04 32
        E 121 99 24 50
        E 49 99 33 58
        E 195 89 24 40
        E 49 89 33 40
        E 97 b9 04 2e
        E 145 99 33 3d
        E 48 b9 04 3c
        E 195 89 33 40
        E 179 b9 04 38
        E 94 99 24 58
        E 15 99 33 56
        E 102 b9 04 3c
        E 127 89 24 40
        E 13 89 33 40
        E 43 b9 04 2e
        E 145 b9 04 20
        E 68 99 26 7f
        E 53 99 33 7d
        E 7 b9 04 30
        E 138 b9 04 36
        E 45 89 26 40
        E 54 89 33 40
        E 31 b9 04 27
        E 256 99 33 43
        E 27 b9 04 38
        E 217 89 33 40
        E 77 b9 04 2c
        E 169 99 24 52
        E 10 99 33 48
        E 58 b9 04 34
        E 177 89 24 40
        E 10 89 33 40
        E 7 b9 04 27
        E 295 99 33 51
        E 9 99 29 78
        E 34 b9 04 32
        E 118 b9 04 22
        E 83 89 33 40
        E 9 89 29 40
        E 60 b9 04 15
        E 203 99 33 49
        E 15 99 29 7f
        E 48 b9 04 25
        E 145 b9 04 2c
        E 36 89 33 40
        E 15 89 29 40
        E 121 b9 04 20
        E 137 99 24 5a
        E 37 99 33 48
        E 152 b9 04 12
        E 55 89 24 40
        E 36 89 33 40
        E 249 99 33 5b
        E 37 b9 04 1a
        E 208 89 33 40
        E 50 b9 04 2c
        E 68 b9 04 3c
        E 106 b9 04 2c
        E 41 99 24 56
        E 5 b9 04 1a
        E 12 99 33 58
        E 34 b9 04 09
        E 29 b9 04 00
        E 164 89 24 40
        E 17 89 33 40
        E 241 99 26 56
        E 5 b9 04 12
        E 15 b9 04 22
        E 22 99 33 65
        E 12 b9 04 32
        E 10 b9 04 43
        E 4 b9 04 4d
        E 2 99 2c 22
        E 3 b9 04 53
        E 29 b9 04 43
        E 32 b9 04 32
        E 29 b9 04 22
        E 58 b9 04 12
        E 24 89 26 40
        E 40 89 33 40
        E 30 89 2c 40
        E 63 b9 04 09
        E 113 b9 04 1a
        E 61 b9 04 2c
        E 9 99 33 4a
        E 124 b9 04 36
        E 109 b9 04 25
        E 11 89 33 40
        E 123 b9 04 1d
        E 111 b9 04 2e
        E 39 99 33 38
        E 10 99 24 55
        E 101 b9 04 36
        E 133 89 33 40
        E 3 b9 04 25
        E 7 89 24 40
        E 133 b9 04 1d
        E 102 99 30 7f
        E 41 99 33 74
        E 57 b9 04 2e
        E 34 b9 04 3e
        E 53 b9 04 4d
        E 3 99 2c 08
        E 12 b9 04 4f
        E 43 89 30 40
        E 41 89 33 40
        E 13 b9 04 3f
        E 55 b9 04 2e
        E 75 b9 04 1d
        E 2 89 2c 40
        E 100 99 30 7f
        E 26 99 33 51
        E 99 b9 04 2e
        E 118 89 30 40
        E 25 89 33 40
        E 2 b9 04 36
        E 123 b9 04 25
        E 119 99 24 59
        E 29 b9 04 20
        E 14 99 33 62
        E 174 b9 04 2c
        E 27 89 24 40
        E 43 89 33 40
        E 182 b9 04 27
        E 58 99 33 4e
        E 144 b9 04 2e
        E 99 89 33 40
        E 259 99 33 4b
        E 12 99 24 51
        E 12 b9 04 36
        E 171 b9 04 29
        E 49 89 33 40
        E 12 89 24 40
        E 125 b9 04 22
        E 187 99 26 7f
        E 9 99 33 77
        E 143 b9 04 2c
        E 92 89 26 40
        E 6 89 33 40
        E 112 b9 04 1d
        E 148 99 33 3e
        E 171 b9 04 29
        E 72 89 33 40
        E 111 b9 04 1d
        E 192 99 30 7f
        E 222 89 30 40
        E 2 99 30 7f
        E 29 b9 04 25
        E 172 b9 04 1d
        E 43 89 30 40
        E 10 99 30 7f
        E 140 b9 04 27
        E 104 89 30 40
        E 24 99 30 5c
        E 237 99 29 7f
        E 7 89 30 40
        E 39 b9 04 2e
        E 198 89 29 40
        E 21 99 29 64
        E 244 89 29 40
        E 46 99 24 6a
        E 12 99 33 7f
        E 233 89 24 40
        E 11 89 33 40
        E 63 b9 04 27
        E 206 99 33 44
        E 42 b9 04 2e
        E 201 89 33 40
        E 204 b9 04 3e
        E 43 99 24 51
        E 46 99 33 7f
        E 53 b9 04 2e
        E 44 b9 04 1d
        E 68 b9 04 0c
        E 33 89 24 40
        E 15 b9 04 00
        E 31 89 33 40
        E 293 99 26 62
        E 16 b9 04 12
        E 5 99 33 7f
        E 17 b9 04 25
        E 11 b9 04 36
        E 10 b9 04 46
        E 6 b9 04 4c
        E 2 99 2c 16
        E 104 b9 04 36
        E 34 b9 04 25
        E 38 b9 04 15
        E 3 89 26 40
        E 19 89 33 40
        E 46 89 2c 40
        E 70 b9 04 06
        E 123 b9 04 18
        E 58 99 33 48
        E 8 b9 04 29
        E 132 b9 04 32
        E 75 b9 04 22
        E 30 89 33 40
        E 118 b9 04 1d
        E 116 99 33 38
        E 5 b9 04 2e
        E 5 99 24 4d
        E 234 89 33 40
        E 10 89 24 40
        E 16 b9 04 1d
        E 220 99 30 7f
        E 55 99 33 44
        E 61 b9 04 2e
        E 128 89 30 40
        E 5 b9 04 36
        E 50 89 33 40
        E 32 b9 04 25
        E 128 b9 04 18
        E 89 99 33 69
        E 28 99 30 7f
        E 6 b9 04 29
        E 104 b9 04 3a
        E 107 89 33 40
        E 29 89 30 40
        E 13 b9 04 29
        E 153 b9 04 1d
        E 111 99 24 55
        E 32 99 33 56
        E 212 89 24 40
        E 31 89 33 40
        E 69 b9 04 15
        E 163 b9 04 25
        E 13 99 33 4c
        E 244 89 33 40
        E 53 b9 04 20
        E 196 b9 04 30
        E 19 99 24 4e
        E 9 99 33 4e
        E 129 b9 04 20
        E 80 b9 04 0f
        E 24 89 24 40
        E 11 89 33 40
        E 27 b9 04 00
        E 278 99 26 7c
        E 10 99 33 7f
        E 14 b9 04 12
        E 24 b9 04 22
        E 7 b9 04 32
        E 8 b9 04 43
        E 7 b9 04 4c
        E 3 99 2c 1e
        E 31 b9 04 32
        E 72 b9 04 22
        E 66 89 26 40
        E 12 89 33 40
        E 17 b9 04 12
        E 43 89 2c 40
        E 186 b9 04 22
        E 60 99 33 39
        E 2 b9 04 32
        E 134 b9 04 36
        E 109 89 33 40
        E 23 b9 04 25
        E 225 99 33 44
        E 17 99 24 4e
        E 89 b9 04 2c
        E 138 89 33 40
        E 17 89 24 40
        E 4 b9 04 1a
        E 294 99 29 7b
        E 12 99 33 35
        E 94 b9 04 2c
        E 138 89 29 40
        E 9 89 33 40
        E 36 b9 04 1a
        E 174 b9 04 15
        E 74 99 29 7f
        E 86 b9 04 25
        E 140 b9 04 30
        E 15 89 29 40
        E 92 b9 04 20
        E 197 99 24 57
        E 34 99 33 4c
        E 210 89 24 40
        E 34 89 33 40
        E 38 b9 04 0f
        E 226 99 33 45
        E 77 b9 04 20
        E 55 b9 04 30
        E 112 89 33 40
        E 64 b9 04 20
        E 230 99 24 54
        E 7 99 33 3c
        E 237 89 24 40
        E 5 89 33 40
        E 31 b9 04 12
        E 252 99 26 6e
        E 67 99 33 78
        E 3 b9 04 20
        E 171 89 26 40
        E 71 89 33 40
        E 72 b9 04 18
        E 193 99 33 34
        E 94 b9 04 20
        E 150 89 33 40
        E 261 99 33 3b
        E 2 99 24 4d
        E 59 b9 04 27
        E 179 b9 04 1a
        E 4 89 33 40
        E 2 89 24 40
        E 264 99 30 7f
        E 34 b9 04 2c
        E 19 99 33 3a
        E 191 89 30 40
        E 53 89 33 40
        E 32 b9 04 1d
        E 219 99 30 7f
        E 3 99 33 44
        E 154 b9 04 2c
        E 85 89 30 40
        E 3 89 33 40
        E 193 b9 04 25
        E 58 99 33 30
        E 244 89 33 40
        E 278 99 33 49
        E 243 89 33 40
        E 304 99 33 44
        E 245 89 33 40
        E 321 99 33 45
        E 150 b9 04 20
        E 92 89 33 40
        E 246 99 33 2f
        E 244 89 33 40
        E 309 99 30 7f
        E 230 89 30 40
        E 3 99 30 7f
        E 33 b9 04 25
        E 196 89 30 40
        E 3 99 30 6b
        E 241 89 30 40
        E 41 99 30 6c
        E 237 99 29 66
        E 7 89 30 40
        E 237 89 29 40
        E 39 99 29 2a
        E 244 89 29 40
        E 22 99 29 7f
        E 4 99 24 72
        E 56 b9 04 20
        E 183 89 29 40
        E 5 89 24 40
        E 247 99 29 40
        E 244 89 29 40
        E 316 99 24 51
        E 33 b9 04 25
        E 13 99 29 5c
        E 147 b9 04 20
        E 51 89 24 40
        E 46 89 29 40
        E 259 99 26 66
        E 33 99 29 7d
        E 211 89 26 40
        E 33 89 29 40
        E 269 99 26 52
        E 2 99 29 6b
        E 239 89 26 40
        E 3 89 29 40
        E 323 99 24 50
        E 3 99 29 45
        E 239 89 24 40
        E 2 89 29 40
        E 296 99 26 78
        E 4 99 29 74
        E 242 89 26 40
        E 2 89 29 40
        E 217 b9 04 30
        E 70 99 29 37
        E 37 b9 04 20
        E 89 b9 04 0f
        E 60 b9 04 00
        E 58 89 29 40
        E 235 b9 04 12
        E 22 b9 04 25
        E 14 b9 04 36
        E 10 99 24 4e
        E 14 99 29 62
        E 91 b9 04 25
        E 71 b9 04 15
        E 68 89 24 40
        E 14 89 29 40
        E 176 b9 04 25
        E 66 b9 04 36
        E 50 99 29 35
        E 66 b9 04 25
        E 50 b9 04 15
        E 56 b9 04 03
        E 22 b9 04 00
        E 51 89 29 40
        E 268 b9 04 12
        E 0 99 24 44
        E 12 99 29 50
        E 14 b9 04 22
        E 22 b9 04 32
        E 38 b9 04 22
        E 78 b9 04 12
        E 80 89 24 40
        E 11 89 29 40
        E 72 b9 04 06
        E 151 b9 04 18
        E 36 b9 04 29
        E 0 99 26 7a
        E 53 99 29 64
        E 126 b9 04 18
        E 63 b9 04 06
        E 3 89 26 40
        E 28 b9 04 00
        E 24 89 29 40
        E 254 99 26 60
        E 24 99 29 64
        E 17 b9 04 12
        E 27 b9 04 22
        E 14 b9 04 32
        E 31 b9 04 43
        E 42 b9 04 32
        E 46 b9 04 20
        E 43 89 26 40
        E 22 b9 04 0f
        E 2 89 29 40
        E 143 b9 04 06
        E 94 b9 04 18
        E 41 b9 04 29
        E 29 99 29 41
        E 5 99 24 50
        E 135 b9 04 18
        E 51 b9 04 06
        E 31 b9 04 00
        E 20 89 29 40
        E 7 89 24 40
        E 288 99 26 64
        E 19 99 29 6b
        E 19 b9 04 12
        E 15 b9 04 22
        E 31 b9 04 32
        E 10 b9 04 43
        E 2 b9 04 4c
        E 2 99 2c 20
        E 5 b9 04 53
        E 27 b9 04 43
        E 51 b9 04 32
        E 33 b9 04 22
        E 30 89 26 40
        E 16 89 29 40
        E 10 b9 04 12
        E 73 89 2c 40
        E 77 b9 04 09
        E 80 b9 04 1a
        E 19 99 29 39
        E 29 b9 04 2c
        E 143 b9 04 1a
        E 50 b9 04 09
        E 22 89 29 40
        E 12 b9 04 00
        E 273 99 24 50
        E 21 b9 04 12
        E 19 99 29 71
        E 16 b9 04 25
        E 9 b9 04 36
        E 10 b9 04 46
        E 5 b9 04 4c
        E 2 99 2c 1a
        E 22 b9 04 36
        E 70 b9 04 25
        E 65 b9 04 15
        E 4 89 24 40
        E 42 89 29 40
        E 41 89 2c 40
        E 63 b9 04 0f
        E 87 b9 04 20
        E 34 b9 04 30
        E 60 99 29 2e
        E 97 b9 04 20
        E 53 b9 04 0f
        E 43 b9 04 00
        E 51 89 29 40
        E 269 99 24 47
        E 2 b9 04 12
        E 9 99 29 49
        E 27 b9 04 25
        E 12 b9 04 36
        E 41 b9 04 25
        E 78 b9 04 15
        E 74 89 24 40
        E 10 89 29 40
        E 17 b9 04 03
        E 203 b9 04 15
        E 28 99 26 78
        E 11 b9 04 25
        E 29 99 29 67
        E 154 b9 04 15
        E 51 89 26 40
        E 19 b9 04 03
        E 17 b9 04 00
        E 3 89 29 40
        E 267 99 26 59
        E 15 99 29 61
        E 59 b9 04 12
        E 35 b9 04 22
        E 19 b9 04 32
        E 68 b9 04 22
        E 48 89 26 40
        E 15 89 29 40
        E 8 b9 04 12
        E 176 b9 04 0c
        E 106 99 29 4d
        E 14 b9 04 1d
        E 78 b9 04 2e
        E 133 b9 04 1d
        E 19 89 29 40
        E 80 b9 04 0c
        E 67 b9 04 00
        E 170 99 29 7e
        E 4 99 26 7b
        E 95 b9 04 12
        E 31 b9 04 22
        E 20 b9 04 32
        E 38 b9 04 22
        E 56 89 29 40
        E 4 89 26 40
        E 25 b9 04 12
        E 217 b9 04 22
        E 39 99 29 3a
        E 157 b9 04 12
        E 63 b9 04 00
        E 24 89 29 40
        E 258 99 24 4b
        E 10 b9 04 12
        E 27 b9 04 22
        E 7 99 29 63
        E 2 b9 04 32
        E 15 b9 04 43
        E 17 b9 04 32
        E 16 b9 04 22
        E 111 b9 04 12
        E 39 89 24 40
        E 44 89 29 40
        E 205 b9 04 22
        E 26 b9 04 32
        E 49 99 29 35
        E 87 b9 04 22
        E 43 b9 04 12
        E 65 b9 04 00
        E 49 89 29 40
        E 261 99 24 46
        E 9 b9 04 12
        E 17 99 29 54
        E 27 b9 04 25
        E 12 b9 04 36
        E 7 b9 04 46
        E 5 b9 04 4c
        E 3 99 2c 1a
        E 23 b9 04 36
        E 57 b9 04 25
        E 43 b9 04 15
        E 41 89 24 40
        E 27 89 29 40
        E 14 b9 04 03
        E 24 b9 04 00
        E 15 89 2c 40
        E 169 b9 04 12
        E 38 b9 04 25
        E 15 99 26 74
        E 12 b9 04 36
        E 10 99 29 71
        E 130 b9 04 22
        E 46 b9 04 12
        E 46 89 26 40
        E 19 89 29 40
        E 17 b9 04 00
        E 239 99 26 41
        E 8 99 29 5e
        E 82 b9 04 12
        E 24 b9 04 25
        E 19 b9 04 36
        E 25 b9 04 46
        E 26 b9 04 36
        E 51 b9 04 25
        E 10 89 26 40
        E 7 89 29 40
        E 36 b9 04 15
        E 154 b9 04 0f
        E 90 b9 04 20
        E 32 99 24 51
        E 9 99 29 43
        E 3 b9 04 30
        E 113 b9 04 20
        E 53 b9 04 0f
        E 55 b9 04 00
        E 10 89 24 40
        E 10 89 29 40
        E 285 99 26 6a
        E 12 99 29 72
        E 20 b9 04 12
        E 12 b9 04 25
        E 33 b9 04 36
        E 8 b9 04 46
        E 2 b9 04 4c
        E 5 99 2c 22
        E 2 b9 04 56
        E 17 b9 04 46
        E 9 b9 04 36
        E 61 b9 04 25
        E 51 b9 04 15
        E 12 89 26 40
        E 12 89 29 40
        E 80 89 2c 40
        E 51 b9 04 09
        E 87 b9 04 1a
        E 60 b9 04 2c
        E 10 99 29 2f
        E 113 b9 04 1a
        E 56 b9 04 09
        E 28 b9 04 00
        E 47 89 29 40
        E 253 b9 04 12
        E 17 99 24 50
        E 13 99 29 74
        E 2 b9 04 22
        E 10 b9 04 32
        E 7 b9 04 43
        E 7 b9 04 4c
        E 2 99 2c 1e
        E 20 b9 04 32
        E 50 b9 04 22
        E 126 b9 04 12
        E 7 89 24 40
        E 13 89 29 40
        E 28 89 2c 40
        E 126 b9 04 25
        E 41 b9 04 36
        E 75 b9 04 46
        E 12 99 29 31
        E 60 b9 04 36
        E 39 b9 04 25
        E 36 b9 04 15
        E 65 b9 04 03
        E 13 b9 04 00
        E 29 89 29 40
        E 269 b9 04 12
        E 23 b9 04 25
        E 9 b9 04 36
        E 8 99 24 4e
        E 2 b9 04 46
        E 2 b9 04 4c
        E 3 99 2c 1a
        E 17 b9 04 56
        E 10 99 29 43
        E 48 b9 04 46
        E 34 b9 04 36
        E 34 b9 04 25
        E 36 b9 04 15
        E 58 89 24 40
        E 8 89 2c 40
        E 26 89 29 40
        E 51 b9 04 06
        E 106 b9 04 18
        E 36 b9 04 29
        E 19 b9 04 3a
        E 34 99 26 79
        E 5 b9 04 4a
        E 19 b9 04 4d
        E 3 99 2c 08
        E 12 99 29 7f
        E 65 b9 04 3a
        E 31 b9 04 29
        E 34 b9 04 18
        E 36 b9 04 06
        E 13 b9 04 00
        E 26 89 26 40
        E 25 89 2c 40
        E 14 89 29 40
        E 220 b9 04 12
        E 17 b9 04 25
        E 7 99 24 51
        E 14 b9 04 36
        E 10 b9 04 46
        E 3 b9 04 4c
        E 0 99 2c 20
        E 5 b9 04 56
        E 38 99 29 43
        E 58 b9 04 46
        E 34 b9 04 36
        E 34 b9 04 25
        E 34 b9 04 15
        E 14 89 24 40
        E 27 89 2c 40
        E 43 89 29 40
        E 55 b9 04 0c
        E 56 b9 04 1d
        E 31 b9 04 2e
        E 29 b9 04 3e
        E 34 99 24 3f
        E 78 99 29 39
        E 43 b9 04 2e
        E 29 b9 04 1d
        E 53 b9 04 0c
        E 29 b9 04 00
        E 12 89 24 40
        E 78 89 29 40
        E 227 99 26 7c
        E 17 b9 04 12
        E 12 b9 04 25
        E 14 b9 04 36
        E 10 99 29 6b
        E 14 b9 04 47
        E 2 b9 04 4d
        E 3 99 2c 20
        E 2 b9 04 57
        E 35 b9 04 47
        E 45 b9 04 36
        E 39 b9 04 25
        E 36 b9 04 15
        E 15 89 26 40
        E 43 b9 04 03
        E 8 89 29 40
        E 16 b9 04 00
        E 2 89 2c 40
        E 136 b9 04 12
        E 41 b9 04 22
        E 27 b9 04 32
        E 43 99 29 35
        E 101 b9 04 22
        E 39 b9 04 12
        E 49 b9 04 00
        E 56 89 29 40
        E 236 b9 04 12
        E 24 b9 04 22
        E 2 99 24 4d
        E 15 b9 04 32
        E 13 b9 04 43
        E 4 b9 04 4c
        E 1 99 2c 1e
        E 3 b9 04 53
        E 5 99 29 5b
        E 58 b9 04 43
        E 39 b9 04 32
        E 41 b9 04 20
        E 66 89 24 40
        E 2 b9 04 0f
        E 28 89 2c 40
        E 9 89 29 40
        E 166 b9 04 20
        E 24 b9 04 30
        E 32 b9 04 41
        E 21 99 29 36
        E 92 b9 04 30
        E 24 b9 04 20
        E 39 b9 04 0f
        E 39 b9 04 00
        E 50 89 29 40
        E 268 b9 04 12
        E 17 99 24 49
        E 5 b9 04 22
        E 29 b9 04 32
        E 8 99 29 4a
        E 2 b9 04 44
        E 2 b9 04 4c
        E 3 99 2c 22
        E 2 b9 04 55
        E 32 b9 04 44
        E 41 b9 04 34
        E 36 b9 04 20
        E 53 b9 04 0f
        E 32 89 24 40
        E 41 89 29 40
        E 6 89 2c 40
        E 3 b9 04 00
        E 145 b9 04 12
        E 39 b9 04 22
        E 17 b9 04 32
        E 26 99 26 7f
        E 3 b9 04 43
        E 53 99 29 6d
        E 70 b9 04 32
        E 27 b9 04 22
        E 38 b9 04 12
        E 48 b9 04 00
        E 3 89 26 40
        E 58 89 29 40
        E 210 b9 04 12
        E 22 b9 04 22
        E 9 99 24 49
        E 8 b9 04 32
        E 9 b9 04 44
        E 3 b9 04 4c
        E 2 99 2c 22
        E 5 b9 04 54
        E 19 99 29 40
        E 73 b9 04 44
        E 38 b9 04 34
        E 29 b9 04 22
        E 39 b9 04 12
        E 19 89 24 40
        E 21 89 2c 40
        E 25 89 29 40
        E 80 b9 04 0c
        E 51 b9 04 1d
        E 31 b9 04 2e
        E 34 b9 04 3e
        E 51 99 24 48
        E 12 99 29 39
        E 55 b9 04 2e
        E 30 b9 04 1d
        E 39 b9 04 0c
        E 31 b9 04 00
        E 76 89 24 40
        E 13 89 29 40
        E 247 99 26 77
        E 17 b9 04 12
        E 9 b9 04 25
        E 6 b9 04 36
        E 30 b9 04 46
        E 2 99 29 53
        E 2 b9 04 4d
        E 3 99 2c 1a
        E 2 b9 04 57
        E 10 b9 04 68
        E 32 b9 04 58
        E 38 b9 04 47
        E 29 b9 04 36
        E 27 b9 04 25
        E 27 b9 04 15
        E 9 89 26 40
        E 46 b9 04 03
        E 20 89 29 40
        E 5 89 2c 40
        E 1 b9 04 00
        E 148 b9 04 12
        E 39 b9 04 22
        E 21 b9 04 32
        E 37 b9 04 43
        E 9 99 29 37
        E 88 b9 04 32
        E 26 b9 04 22
        E 31 b9 04 12
        E 41 b9 04 00
        E 58 89 29 40
        E 252 b9 04 12
        E 9 99 24 4b
        E 2 b9 04 25
        E 32 b9 04 36
        E 10 b9 04 46
        E 3 b9 04 4c
        E 2 99 2c 20
        E 5 b9 04 56
        E 2 99 29 63
        E 17 b9 04 46
        E 12 b9 04 36
        E 61 b9 04 25
        E 45 b9 04 15
        E 53 89 24 40
        E 22 b9 04 03
        E 27 89 2c 40
        E 7 89 29 40
        E 128 b9 04 15
        E 36 b9 04 25
        E 27 b9 04 36
        E 89 99 29 33
        E 66 b9 04 25
        E 33 b9 04 15
        E 43 b9 04 03
        E 10 b9 04 00
        E 92 89 29 40
        E 201 b9 04 12
        E 15 99 24 49
        E 7 b9 04 22
        E 19 b9 04 32
        E 10 b9 04 43
        E 7 b9 04 4c
        E 2 99 2c 1c
        E 3 b9 04 53
        E 2 99 29 4e
        E 53 b9 04 43
        E 39 b9 04 32
        E 34 b9 04 22
        E 40 b9 04 12
        E 25 89 24 40
        E 46 89 2c 40
        E 4 89 29 40
        E 73 b9 04 03
        E 126 b9 04 15
        E 19 b9 04 25
        E 15 b9 04 36
        E 19 99 26 7d
        E 2 b9 04 46
        E 15 b9 04 4d
        E 0 99 2c 0e
        E 33 99 29 66
        E 93 b9 04 36
        E 26 b9 04 25
        E 24 b9 04 15
        E 32 b9 04 03
        E 5 b9 04 00
        E 14 89 26 40
        E 17 89 2c 40
        E 33 89 29 40
        E 220 b9 04 12
        E 13 99 24 43
        E 2 b9 04 22
        E 19 b9 04 32
        E 14 b9 04 43
        E 3 b9 04 4c
        E 2 99 2c 1c
        E 2 b9 04 53
        E 11 99 29 3a
        E 96 b9 04 43
        E 25 b9 04 32
        E 21 b9 04 22
        E 32 b9 04 12
        E 17 89 24 40
        E 34 b9 04 00
        E 7 89 2c 40
        E 12 89 29 40
        E 164 b9 04 12
        E 31 b9 04 22
        E 21 b9 04 32
        E 28 99 29 37
        E 14 99 24 4b
        E 104 b9 04 22
        E 33 b9 04 12
        E 56 b9 04 00
        E 37 89 29 40
        E 14 89 24 40
        E 283 99 26 75
        E 10 b9 04 12
        E 7 b9 04 22
        E 12 b9 04 32
        E 19 99 29 61
        E 10 b9 04 43
        E 5 b9 04 4d
        E 2 99 2c 20
        E 2 b9 04 54
        E 59 b9 04 44
        E 29 b9 04 34
        E 34 b9 04 22
        E 37 b9 04 12
        E 18 89 26 40
        E 46 b9 04 00
        E 2 89 29 40
        E 18 89 2c 40
        E 161 b9 04 12
        E 34 b9 04 25
        E 26 b9 04 36
        E 63 99 29 31
        E 84 b9 04 25
        E 32 b9 04 15
        E 39 b9 04 03
        E 12 b9 04 00
        E 77 89 29 40
        E 208 99 24 46
        E 24 b9 04 12
        E 22 b9 04 22
        E 27 99 29 6a
        E 2 b9 04 32
        E 12 b9 04 43
        E 21 b9 04 32
        E 13 b9 04 20
        E 108 b9 04 0f
        E 15 89 24 40
        E 72 89 29 40
        E 71 b9 04 06
        E 94 b9 04 18
        E 46 b9 04 29
        E 38 99 29 37
        E 18 b9 04 3a
        E 81 b9 04 29
        E 44 b9 04 18
        E 49 b9 04 06
        E 23 b9 04 00
        E 30 89 29 40
        E 284 b9 04 12
        E 26 99 29 59
        E 3 99 24 48
        E 5 b9 04 22
        E 15 b9 04 32
        E 9 b9 04 43
        E 6 b9 04 4c
        E 2 99 2c 1a
        E 76 b9 04 32
        E 35 b9 04 22
        E 43 b9 04 12
        E 48 89 29 40
        E 3 89 24 40
        E 39 89 2c 40
        E 2 b9 04 00
        E 167 b9 04 12
        E 39 b9 04 22
        E 29 b9 04 32
        E 11 99 26 7f
        E 37 99 29 7f
        E 77 b9 04 22
        E 41 b9 04 12
        E 44 b9 04 00
        E 46 89 26 40
        E 36 89 29 40
        E 205 b9 04 12
        E 24 99 24 43
        E 10 b9 04 25
        E 12 b9 04 36
        E 7 b9 04 47
        E 2 b9 04 4c
        E 3 99 2c 1e
        E 34 99 29 3f
        E 73 b9 04 36
        E 35 b9 04 25
        E 39 b9 04 15
        E 29 89 24 40
        E 34 89 2c 40
        E 5 b9 04 03
        E 29 89 29 40
        E 124 b9 04 15
        E 36 b9 04 27
        E 33 b9 04 38
        E 37 99 24 46
        E 57 99 29 3d
        E 41 b9 04 27
        E 46 b9 04 15
        E 46 b9 04 03
        E 9 b9 04 00
        E 44 89 24 40
        E 58 89 29 40
        E 245 b9 04 12
        E 16 b9 04 25
        E 3 99 26 7c
        E 29 b9 04 36
        E 10 b9 04 46
        E 2 99 29 6a
        E 3 b9 04 4d
        E 2 99 2c 20
        E 3 b9 04 57
        E 55 b9 04 47
        E 33 b9 04 36
        E 32 b9 04 25
        E 32 b9 04 15
        E 41 89 26 40
        E 9 b9 04 03
        E 20 b9 04 00
        E 12 89 29 40
        E 2 89 2c 40
        E 174 b9 04 12
        E 31 b9 04 22
        E 17 b9 04 32
        E 27 b9 04 43
        E 28 b9 04 4c
        E 3 99 2c 0a
        E 7 99 29 3f
        E 95 b9 04 32
        E 24 b9 04 22
        E 41 b9 04 12
        E 46 b9 04 00
        E 31 89 2c 40
        E 5 89 29 40
        E 254 b9 04 12
        E 22 99 24 56
        E 2 b9 04 25
        E 12 b9 04 36
        E 13 b9 04 46
        E 2 b9 04 4c
        E 2 99 2c 1a
        E 5 b9 04 56
        E 70 b9 04 46
        E 37 b9 04 36
        E 35 b9 04 22
        E 51 b9 04 12
        E 15 89 24 40
        E 28 89 2c 40
        E 230 b9 04 22
        E 22 b9 04 32
        E 2 99 26 46
        E 29 b9 04 43
        E 19 89 26 40
        E 3 99 26 6c
        E 21 b9 04 4d
        E 5 99 2c 08
        E 143 b9 04 32
        E 75 89 26 40
        E 2 b9 04 22
        E 24 89 2c 40
        E 250 b9 04 32
        E 2 99 26 5e
        E 36 b9 04 43
        E 176 b9 04 32
        E 31 89 26 40
        E 231 99 24 53
        E 50 b9 04 3a
        E 188 b9 04 2e
        E 5 89 24 40
        E 307 b9 04 3e
        E 162 b9 04 44
        E 481 99 24 50
        E 222 b9 04 3a
        E 21 89 24 40
        E 284 b9 04 2e
        E 11 99 26 7f
        E 92 89 26 40
        E 3 99 26 7f
        E 46 b9 04 36
        E 101 b9 04 25
        E 92 89 26 40
        E 227 b9 04 32
        E 522 b9 04 3e
        E 29 99 24 53
        E 186 b9 04 36
        E 55 89 24 40
        E 288 99 26 74
        E 242 89 26 40
        E 79 b9 04 32
        E 179 99 26 57
        E 107 89 26 40
        E 2 99 26 6e
        E 159 b9 04 38
        E 80 89 26 40
        E 239 99 24 57
        E 242 89 24 40
        E 109 b9 04 30
        E 702 b9 04 3a
        E 66 99 24 4b
        E 231 b9 04 32
        E 13 89 24 40
        E 311 99 26 7f
        E 97 99 28 60
        E 145 89 26 40
        E 5 b9 04 22
        E 92 89 28 40
        E 191 b9 04 32
        E 113 b9 04 43
        E 227 b9 04 34
        E 109 b9 04 22
        E 159 99 24 53
        E 34 b9 04 1d
        E 44 b9 04 2e
        E 89 b9 04 1d
        E 77 89 24 40
        E 208 99 26 64
        E 145 b9 04 29
        E 97 89 26 40
        E 275 99 26 6f
        E 94 89 26 40
        E 3 99 26 75
        E 80 b9 04 34
        E 159 89 26 40
        E 49 b9 04 2c
        E 202 99 24 57
        E 244 89 24 40
        E 126 b9 04 27
        E 560 b9 04 36
        E 141 99 24 50
        E 79 b9 04 25
        E 78 b9 04 15
        E 84 89 24 40
        E 3 b9 04 03
        E 21 b9 04 00
        E 269 b9 04 12
        E 2 99 26 7f
        E 29 b9 04 22
        E 63 b9 04 12
        E 27 89 26 40
        E 2 99 26 7f
        E 128 b9 04 06
        E 114 89 26 40
        E 48 b9 04 18
        E 67 b9 04 29
        E 135 b9 04 2e
        E 54 b9 04 1d
        E 51 b9 04 0c
        E 31 b9 04 00
        E 302 b9 04 12
        E 19 b9 04 25
        E 12 b9 04 36
        E 17 99 24 4d
        E 10 b9 04 46
        E 43 b9 04 36
        E 70 b9 04 25
        E 66 b9 04 15
        E 53 89 24 40
        E 152 b9 04 25
        E 67 b9 04 36
        E 83 99 26 75
        E 55 b9 04 3c
        E 87 b9 04 2c
        E 99 89 26 40
        E 32 b9 04 1a
        E 232 99 26 64
        E 16 b9 04 2c
        E 66 89 26 40
        E 2 99 26 68
        E 32 b9 04 1a
        E 178 b9 04 0f
        E 32 89 26 40
        E 253 b9 04 1a
        E 25 99 24 55
        E 241 89 24 40
        E 270 b9 04 27
        E 436 b9 04 34
        E 103 99 24 57
        E 47 b9 04 3a
        E 151 b9 04 29
        E 44 89 24 40
        E 131 b9 04 1d
        E 111 99 26 7f
        E 106 b9 04 2e
        E 2 89 26 40
        E 3 99 26 7f
        E 104 b9 04 1d
        E 138 89 26 40
        E 142 b9 04 2e
        E 121 b9 04 3e
        E 179 b9 04 2e
        E 135 b9 04 1d
        E 198 99 24 65
        E 7 b9 04 2e
        E 39 b9 04 1d
        E 196 89 24 40
        E 275 99 26 7f
        E 225 89 26 40
        E 2 99 26 52
        E 239 89 26 40
        E 10 99 26 56
        E 82 b9 04 2e
        E 160 89 26 40
        E 16 99 26 5e
        E 13 b9 04 34
        E 181 b9 04 22
        E 48 89 26 40
        E 27 b9 04 12
        E 29 99 24 68
        E 26 b9 04 03
        E 3 99 2e 7f
        E 29 b9 04 00
        E 186 89 24 40
        E 29 89 2e 40
        E 79 b9 04 12
        E 34 b9 04 22
        E 25 b9 04 32
        E 48 b9 04 43
        E 147 b9 04 47
        E 159 b9 04 3e
        E 210 b9 04 4c
        E 3 99 2c 06
        E 29 b9 04 4c
        E 97 99 24 59
        E 92 b9 04 3c
        E 23 89 2c 40
        E 126 89 24 40
        E 12 b9 04 34
        E 239 b9 04 2c
        E 61 99 26 73
        E 15 b9 04 2c
        E 2 99 2e 7f
        E 172 b9 04 20
        E 52 89 26 40
        E 20 89 2e 40
        E 99 b9 04 30
        E 176 b9 04 3a
        E 365 b9 04 32
        E 124 b9 04 22
        E 74 99 24 6e
        E 8 b9 04 12
        E 174 b9 04 06
        E 60 89 24 40
        E 162 b9 04 18
        E 139 99 26 76
        E 30 b9 04 27
        E 181 89 26 40
        E 3 99 26 53
        E 224 b9 04 36
        E 15 89 26 40
        E 21 99 26 4c
        E 187 b9 04 3a
        E 58 89 26 40
        E 9 99 26 42
        E 113 b9 04 49
        E 131 89 26 40
        E 20 b9 04 38
        E 17 99 24 7c
        E 2 b9 04 34
        E 2 99 2e 7f
        E 39 b9 04 27
        E 58 b9 04 15
        E 82 b9 04 03
        E 61 89 24 40
        E 4 89 2e 40
        E 87 b9 04 15
        E 54 b9 04 25
        E 52 b9 04 36
        E 143 b9 04 3c
        E 167 b9 04 36
        E 213 b9 04 43
        E 144 99 24 62
        E 192 b9 04 36
        E 50 89 24 40
        E 268 99 26 7f
        E 119 b9 04 43
        E 5 89 26 40
        E 2 99 26 7d
        E 146 b9 04 36
        E 93 89 26 40
        E 191 b9 04 46
        E 265 b9 04 3a
        E 230 b9 04 29
        E 70 b9 04 18
        E 22 99 24 68
        E 28 b9 04 06
        E 5 b9 04 06
        E 2 99 2e 7f
        E 52 b9 04 00
        E 155 89 24 40
        E 38 89 2e 40
        E 191 b9 04 12
        E 58 b9 04 22
        E 41 99 26 33
        E 17 b9 04 32
        E 135 b9 04 38
        E 53 89 26 40
        E 3 99 26 48
        E 244 89 26 40
        E 21 99 26 40
        E 97 b9 04 43
        E 145 89 26 40
        E 10 99 26 4c
        E 24 b9 04 3a
        E 140 b9 04 29
        E 56 b9 04 18
        E 24 89 26 40
        E 17 b9 04 06
        E 9 99 24 7f
        E 20 b9 04 00
        E 16 b9 04 00
        E 2 99 2e 7f
        E 207 89 24 40
        E 35 89 2e 40
        E 806 99 24 53
        E 242 89 24 40
        E 272 99 26 7f
        E 4 b9 04 12
        E 95 89 26 40
        E 2 99 26 7f
        E 34 b9 04 22
        E 147 b9 04 27
        E 61 89 26 40
        E 560 b9 04 18
        E 90 b9 04 06
        E 75 b9 04 00
        E 14 99 24 69
        E 17 b9 04 00
        E 2 99 2e 7f
        E 225 89 24 40
        E 20 89 2e 40
        E 263 b9 04 12
        E 41 99 26 44
        E 72 b9 04 22
        E 141 b9 04 29
        E 14 89 26 40
        E 2 99 26 50
        E 242 89 26 40
        E 5 99 26 64
        E 10 b9 04 36
        E 232 89 26 40
        E 12 99 26 50
        E 113 b9 04 25
        E 53 b9 04 15
        E 73 b9 04 03
        E 5 89 26 40
        E 19 b9 04 00
        E 34 99 24 7b
        E 12 b9 04 00
        E 2 99 2e 7f
        E 230 89 24 40
        E 14 89 2e 40
        E 781 99 24 59
        E 241 89 24 40
        E 227 b9 04 12
        E 20 99 26 7f
        E 80 89 26 40
        E 2 99 26 7f
        E 55 b9 04 20
        E 186 89 26 40
        E 506 b9 04 0f
        E 142 b9 04 00
        E 104 99 24 67
        E 84 b9 04 00
        E 2 99 2e 7f
        E 156 89 24 40
        E 86 89 2e 40
        E 242 b9 04 12
        E 15 99 26 46
        E 105 b9 04 22
        E 119 89 26 40
        E 3 99 26 4b
        E 31 b9 04 27
        E 210 89 26 40
        E 2 99 26 5d
        E 116 b9 04 2e
        E 129 89 26 40
        E 9 99 26 52
        E 114 b9 04 1d
        E 94 b9 04 0c
        E 34 89 26 40
        E 36 b9 04 00
        E 29 99 24 7f
        E 7 b9 04 00
        E 3 99 2e 7f
        E 234 89 24 40
        E 10 89 2e 40
        E 807 99 24 56
        E 243 89 24 40
        E 257 99 26 7f
        E 12 b9 04 12
        E 77 89 26 40
        E 3 99 26 7f
        E 71 b9 04 20
        E 171 89 26 40
        E 407 b9 04 0f
        E 175 b9 04 03
        E 161 99 24 62
        E 3 b9 04 00
        E 34 b9 04 03
        E 1 99 2e 7f
        E 206 89 24 40
        E 39 89 2e 40
        E 309 99 26 50
        E 128 b9 04 12
        E 109 89 26 40
        E 3 99 26 5d
        E 63 b9 04 1d
        E 177 89 26 40
        E 30 99 28 44
        E 242 89 28 40
        E 303 99 30 43
        E 242 89 30 40
        E 30 99 30 52
        E 222 89 30 40
        E 2 99 30 3e
        E 68 99 26 0a
        E 174 89 30 40
        E 4 b9 04 18
        E 61 89 26 40
        E 331 99 2d 73
        E 118 b9 04 12
        E 120 89 2d 40
        E 1 99 2d 7f
        E 230 89 2d 40
        E 2 99 2d 7a
        E 242 89 2d 40
        E 260 b9 04 1d
        E 32 99 29 7f
        E 186 b9 04 25
        E 44 89 29 40
        E 2 99 29 45
        E 138 b9 04 1d
        E 104 89 29 40
        E 46 99 24 7a
        E 244 89 24 40
        E 338 99 24 62
        E 181 b9 04 29
        E 63 89 24 40
        E 116 b9 04 3a
        E 162 99 24 66
        E 55 b9 04 29
        E 162 b9 04 1d
        E 27 89 24 40
        E 302 99 26 7f
        E 91 89 26 40
        E 3 99 26 7f
        E 2 b9 04 25
        E 138 b9 04 20
        E 104 89 26 40
        E 116 b9 04 29
        E 476 b9 04 32
        E 152 99 24 6a
        E 244 89 24 40
        E 36 b9 04 2c
        E 224 99 26 7f
        E 121 89 26 40
        E 3 99 26 7f
        E 242 89 26 40
        E 239 b9 04 32
        E 295 b9 04 29
        E 193 99 24 68
        E 242 89 24 40
        E 288 99 24 60
        E 243 89 24 40
        E 114 b9 04 32
        E 169 99 24 61
        E 169 b9 04 29
        E 72 89 24 40
        E 305 99 26 7f
        E 36 b9 04 2e
        E 71 89 26 40
        E 1 99 26 7f
        E 240 89 26 40
        E 647 b9 04 38
        E 65 99 24 62
        E 128 b9 04 27
        E 117 89 24 40
        E 36 b9 04 20
        E 229 99 26 7a
        E 58 b9 04 30
        E 85 99 28 62
        E 101 89 26 40
        E 112 b9 04 29
        E 28 89 28 40
        E 215 b9 04 36
        E 230 b9 04 2e
        E 253 99 24 62
        E 242 89 24 40
        E 312 99 24 67
        E 63 b9 04 32
        E 178 89 24 40
        E 129 b9 04 3e
        E 140 99 24 54
        E 125 b9 04 34
        E 116 89 24 40
        E 299 99 26 7f
        E 83 b9 04 38
        E 17 89 26 40
        E 2 99 26 7f
        E 200 b9 04 32
        E 39 89 26 40
        E 325 b9 04 38
        E 466 99 24 5c
        E 207 b9 04 2e
        E 34 89 24 40
        E 223 99 26 7f
        E 91 89 26 40
        E 2 99 26 7f
        E 240 89 26 40
        E 311 b9 04 38
        E 200 b9 04 2e
        E 228 99 24 5a
        E 85 b9 04 36
        E 157 89 24 40
        E 294 99 24 67
        E 242 89 24 40
        E 143 b9 04 3e
        E 108 99 24 59
        E 152 b9 04 36
        E 90 89 24 40
        E 278 99 26 7f
        E 89 89 26 40
        E 2 99 26 7f
        E 196 b9 04 32
        E 44 89 26 40
        E 212 99 2d 7f
        E 15 99 30 71
        E 232 89 2d 40
        E 9 89 30 40
        E 235 99 2d 7f
        E 28 99 30 71
        E 216 89 2d 40
        E 29 89 30 40
        E 270 99 29 51
        E 20 99 2d 7d
        E 222 89 29 40
        E 22 89 2d 40
        E 181 b9 04 2e
        E 61 99 2d 7f
        E 21 99 29 63
        E 220 89 2d 40
        E 24 89 29 40
        E 249 99 24 78
        E 65 99 33 7e
        E 48 b9 04 1d
        E 131 89 24 40
        E 65 89 33 40
        E 261 99 33 34
        E 60 b9 04 0c
        E 47 b9 04 00
        E 137 89 33 40
        E 220 b9 04 12
        E 9 b9 04 22
        E 10 99 26 6a
        E 12 b9 04 32
        E 15 b9 04 43
        E 5 b9 04 4c
        E 2 99 2c 20
        E 3 b9 04 53
        E 4 99 33 52
        E 5 b9 04 63
        E 22 b9 04 53
        E 45 b9 04 43
        E 42 b9 04 32
        E 36 b9 04 22
        E 53 89 26 40
        E 24 b9 04 12
        E 10 89 2c 40
        E 8 89 33 40
        E 164 b9 04 22
        E 33 b9 04 32
        E 32 b9 04 43
        E 34 b9 04 4f
        E 3 99 2c 08
        E 26 b9 04 53
        E 4 99 33 26
        E 66 b9 04 43
        E 33 b9 04 32
        E 27 b9 04 22
        E 48 b9 04 12
        E 37 89 2c 40
        E 33 89 33 40
        E 2 b9 04 00
        E 223 b9 04 12
        E 17 b9 04 22
        E 5 99 24 57
        E 4 b9 04 32
        E 10 b9 04 43
        E 10 b9 04 4c
        E 3 99 2c 14
        E 4 b9 04 53
        E 13 99 33 6b
        E 125 b9 04 43
        E 31 b9 04 32
        E 29 b9 04 22
        E 15 89 24 40
        E 27 89 2c 40
        E 16 89 33 40
        E 78 b9 04 18
        E 65 b9 04 29
        E 38 b9 04 3a
        E 37 b9 04 4a
        E 15 b9 04 4f
        E 2 99 2c 08
        E 12 99 24 4c
        E 24 99 33 2b
        E 70 b9 04 3a
        E 31 b9 04 29
        E 32 b9 04 18
        E 43 b9 04 06
        E 22 b9 04 00
        E 9 89 2c 40
        E 13 89 24 40
        E 24 89 33 40
        E 266 b9 04 12
        E 7 b9 04 25
        E 10 99 26 52
        E 2 b9 04 36
        E 22 b9 04 46
        E 2 99 33 7f
        E 3 b9 04 4c
        E 2 99 2c 16
        E 4 b9 04 56
        E 8 b9 04 66
        E 53 b9 04 56
        E 29 b9 04 46
        E 32 b9 04 36
        E 26 b9 04 25
        E 36 b9 04 15
        E 24 89 26 40
        E 27 89 33 40
        E 5 89 2c 40
        E 89 b9 04 0c
        E 83 b9 04 1d
        E 21 b9 04 2e
        E 17 b9 04 3e
        E 27 b9 04 4d
        E 3 99 2c 0e
        E 4 b9 04 4f
        E 53 99 33 38
        E 56 b9 04 3f
        E 28 b9 04 2e
        E 28 b9 04 1d
        E 38 b9 04 0c
        E 24 b9 04 00
        E 10 89 2c 40
        E 58 89 33 40
        E 195 b9 04 12
        E 22 b9 04 25
        E 8 99 24 55
        E 7 b9 04 36
        E 12 b9 04 46
        E 0 b9 04 4c
        E 2 99 2c 22
        E 2 b9 04 56
        E 17 99 33 7f
        E 99 b9 04 46
        E 30 b9 04 36
        E 29 b9 04 25
        E 31 b9 04 15
        E 14 89 24 40
        E 20 89 2c 40
        E 19 89 33 40
        E 155 b9 04 25
        E 22 b9 04 36
        E 24 b9 04 46
        E 19 b9 04 4d
        E 3 99 2c 0a
        E 48 99 33 37
        E 68 b9 04 36
        E 31 b9 04 25
        E 29 b9 04 15
        E 34 b9 04 03
        E 14 b9 04 00
        E 17 89 2c 40
        E 48 89 33 40
        E 215 99 26 7c
        E 17 b9 04 12
        E 12 b9 04 22
        E 15 b9 04 32
        E 5 99 33 4a
        E 10 b9 04 43
        E 4 b9 04 4c
        E 2 99 2c 1c
        E 3 b9 04 53
        E 12 b9 04 63
        E 56 b9 04 53
        E 34 b9 04 43
        E 31 b9 04 32
        E 22 b9 04 22
        E 22 89 26 40
        E 17 b9 04 12
        E 31 89 33 40
        E 17 89 2c 40
        E 169 b9 04 22
        E 19 b9 04 32
        E 29 b9 04 43
        E 24 99 33 28
        E 99 b9 04 32
        E 25 b9 04 22
        E 30 b9 04 12
        E 42 b9 04 00
        E 46 89 33 40
        E 227 b9 04 12
        E 12 99 24 41
        E 7 b9 04 22
        E 15 b9 04 32
        E 7 b9 04 43
        E 2 99 33 51
        E 3 b9 04 4c
        E 4 99 2c 20
        E 3 b9 04 53
        E 12 b9 04 63
        E 89 b9 04 53
        E 32 b9 04 43
        E 24 b9 04 32
        E 22 b9 04 22
        E 24 89 24 40
        E 8 b9 04 12
        E 21 89 33 40
        E 9 89 2c 40
        E 112 b9 04 0c
        E 56 b9 04 1d
        E 23 b9 04 2e
        E 20 b9 04 3e
        E 26 b9 04 4d
        E 3 99 2c 0e
        E 2 b9 04 4f
        E 27 99 33 38
        E 3 99 24 4d
        E 96 b9 04 3f
        E 26 b9 04 2e
        E 25 b9 04 1d
        E 41 b9 04 0c
        E 24 89 2c 40
        E 2 b9 04 00
        E 27 89 33 40
        E 2 89 24 40
        E 264 99 26 70
        E 7 b9 04 12
        E 15 b9 04 25
        E 14 b9 04 36
        E 7 99 33 55
        E 5 b9 04 46
        E 2 b9 04 4c
        E 3 99 2c 1e
        E 2 b9 04 57
        E 12 b9 04 68
        E 19 b9 04 58
        E 44 b9 04 47
        E 42 b9 04 36
        E 38 b9 04 25
        E 34 89 26 40
        E 13 b9 04 15
        E 30 89 33 40
        E 10 89 2c 40
        E 174 b9 04 25
        E 22 b9 04 36
        E 21 b9 04 46
        E 22 b9 04 4d
        E 3 99 2c 0a
        E 45 99 33 2f
        E 73 b9 04 36
        E 27 b9 04 25
        E 28 b9 04 15
        E 37 b9 04 03
        E 12 b9 04 00
        E 21 89 2c 40
        E 41 89 33 40
        E 201 b9 04 12
        E 22 b9 04 22
        E 5 99 24 4b
        E 5 b9 04 32
        E 9 b9 04 44
        E 3 b9 04 4c
        E 2 99 2c 24
        E 2 b9 04 54
        E 27 99 33 76
        E 97 b9 04 44
        E 29 b9 04 34
        E 29 b9 04 22
        E 38 89 24 40
        E 14 b9 04 12
        E 5 89 2c 40
        E 31 89 33 40
        E 146 b9 04 22
        E 22 b9 04 32
        E 26 b9 04 43
        E 25 b9 04 4d
        E 2 99 2c 0a
        E 39 99 33 3b
        E 84 b9 04 32
        E 19 b9 04 22
        E 37 b9 04 12
        E 41 b9 04 00
        E 24 89 2c 40
        E 38 89 33 40
        E 232 b9 04 12
        E 15 b9 04 22
        E 3 99 26 72
        E 11 b9 04 32
        E 15 b9 04 43
        E 5 b9 04 4c
        E 2 99 2c 1c
        E 2 b9 04 53
        E 7 b9 04 63
        E 5 99 33 7f
        E 83 b9 04 53
        E 31 b9 04 43
        E 20 b9 04 32
        E 19 b9 04 22
        E 36 b9 04 12
        E 8 89 26 40
        E 33 89 2c 40
        E 15 89 33 40
        E 84 b9 04 06
        E 53 b9 04 18
        E 31 b9 04 29
        E 18 b9 04 3a
        E 31 b9 04 4a
        E 7 b9 04 4d
        E 3 99 2c 0a
        E 43 99 33 48
        E 73 b9 04 3a
        E 29 b9 04 29
        E 32 b9 04 18
        E 35 b9 04 06
        E 15 b9 04 00
        E 16 89 2c 40
        E 44 89 33 40
        E 208 b9 04 12
        E 17 b9 04 25
        E 7 99 24 46
        E 3 b9 04 36
        E 12 b9 04 47
        E 2 b9 04 4c
        E 3 99 2c 1a
        E 9 b9 04 57
        E 17 99 33 6d
        E 56 b9 04 47
        E 48 b9 04 36
        E 41 b9 04 25
        E 51 89 24 40
        E 2 b9 04 15
        E 17 89 2c 40
        E 29 89 33 40
        E 126 b9 04 25
        E 21 b9 04 36
        E 22 b9 04 46
        E 14 b9 04 4f
        E 3 99 2c 0e
        E 22 b9 04 56
        E 26 99 24 43
        E 22 99 33 41
        E 51 b9 04 46
        E 31 b9 04 36
        E 24 b9 04 25
        E 32 b9 04 15
        E 33 89 2c 40
        E 10 b9 04 03
        E 12 b9 04 00
        E 27 89 24 40
        E 24 89 33 40
        E 249 99 26 70
        E 2 b9 04 12
        E 17 b9 04 22
        E 17 b9 04 32
        E 10 99 33 56
        E 2 b9 04 43
        E 5 b9 04 4c
        E 2 99 2c 1e
        E 3 b9 04 54
        E 12 b9 04 64
        E 37 b9 04 54
        E 33 b9 04 44
        E 39 b9 04 34
        E 26 b9 04 22
        E 37 b9 04 12
        E 2 89 26 40
        E 46 89 33 40
        E 5 89 2c 40
        E 94 b9 04 09
        E 56 b9 04 1a
        E 31 b9 04 2c
        E 22 b9 04 3c
        E 55 99 33 46
        E 102 b9 04 2c
        E 33 b9 04 1a
        E 34 b9 04 09
        E 22 b9 04 00
        E 53 89 33 40
        E 210 b9 04 12
        E 22 b9 04 22
        E 10 b9 04 32
        E 7 99 24 4e
        E 5 b9 04 43
        E 3 b9 04 4d
        E 2 99 2c 22
        E 2 b9 04 53
        E 22 99 33 6b
        E 104 b9 04 43
        E 24 b9 04 32
        E 22 b9 04 22
        E 38 b9 04 12
        E 22 89 24 40
        E 8 89 2c 40
        E 24 89 33 40
        E 132 b9 04 22
        E 20 b9 04 32
        E 22 b9 04 43
        E 17 b9 04 4d
        E 2 99 2c 0c
        E 15 b9 04 53
        E 77 99 33 2b
        E 34 b9 04 43
        E 29 b9 04 32
        E 21 b9 04 22
        E 36 b9 04 12
        E 30 89 2c 40
        E 26 b9 04 00
        E 68 89 33 40
        E 217 99 28 29
        E 17 b9 04 12
        E 15 99 33 70
        E 5 b9 04 25
        E 13 b9 04 36
        E 8 b9 04 46
        E 2 b9 04 4d
        E 3 99 2c 24
        E 5 b9 04 56
        E 9 b9 04 66
        E 32 b9 04 56
        E 39 b9 04 46
        E 38 b9 04 36
        E 31 b9 04 25
        E 27 89 28 40
        E 17 b9 04 15
        E 12 89 33 40
        E 34 89 2c 40
        E 143 b9 04 25
        E 26 b9 04 36
        E 27 b9 04 46
        E 12 b9 04 4d
        E 2 99 2c 0a
        E 24 99 33 39
        E 112 b9 04 36
        E 28 b9 04 25
        E 30 b9 04 15
        E 34 b9 04 03
        E 14 b9 04 00
        E 2 89 2c 40
        E 23 89 33 40
        E 233 b9 04 12
        E 7 99 24 4c
        E 10 b9 04 25
        E 9 b9 04 36
        E 8 b9 04 46
        E 0 b9 04 4c
        E 2 99 2c 22
        E 7 b9 04 56
        E 5 99 33 64
        E 25 b9 04 66
        E 86 b9 04 56
        E 27 b9 04 46
        E 27 b9 04 36
        E 29 b9 04 25
        E 9 89 24 40
        E 30 89 2c 40
        E 2 b9 04 15
        E 10 89 33 40
        E 166 b9 04 25
        E 21 b9 04 36
        E 25 b9 04 46
        E 12 b9 04 4d
        E 3 99 2c 0c
        E 24 99 24 47
        E 2 b9 04 56
        E 17 99 33 3d
        E 92 b9 04 46
        E 29 b9 04 36
        E 29 b9 04 25
        E 34 b9 04 15
        E 14 89 2c 40
        E 27 89 24 40
        E 3 b9 04 03
        E 13 b9 04 00
        E 3 89 33 40
        E 268 b9 04 12
        E 22 b9 04 22
        E 3 99 26 70
        E 7 b9 04 32
        E 7 b9 04 44
        E 5 b9 04 4c
        E 2 99 2c 20
        E 3 b9 04 54
        E 9 99 33 72
        E 5 b9 04 64
        E 76 b9 04 54
        E 31 b9 04 44
        E 22 b9 04 34
        E 24 b9 04 22
        E 41 b9 04 12
        E 11 89 26 40
        E 20 89 2c 40
        E 14 89 33 40
        E 107 b9 04 0c
        E 60 b9 04 1d
        E 22 b9 04 2e
        E 17 b9 04 3e
        E 26 b9 04 4d
        E 3 99 2c 0e
        E 4 b9 04 4f
        E 51 99 33 26
        E 63 b9 04 3f
        E 27 b9 04 2e
        E 24 b9 04 1d
        E 38 b9 04 0c
        E 29 b9 04 00
        E 5 89 2c 40
        E 56 89 33 40
        E 201 b9 04 12
        E 19 b9 04 22
        E 2 99 24 4b
        E 10 b9 04 32
        E 9 b9 04 44
        E 5 b9 04 4c
        E 3 99 2c 1e
        E 2 b9 04 54
        E 8 99 33 5e
        E 29 b9 04 64
        E 58 b9 04 54
        E 36 b9 04 44
        E 24 b9 04 34
        E 27 b9 04 22
        E 33 89 24 40
        E 3 b9 04 12
        E 24 89 2c 40
        E 9 89 33 40
        E 170 b9 04 22
        E 18 b9 04 32
        E 23 b9 04 43
        E 24 b9 04 4d
        E 2 99 2c 0a
        E 26 b9 04 53
        E 13 99 33 20
        E 67 b9 04 43
        E 34 b9 04 32
        E 25 b9 04 22
        E 41 b9 04 12
        E 38 89 2c 40
        E 10 b9 04 00
        E 26 89 33 40
        E 261 b9 04 12
        E 20 b9 04 25
        E 9 b9 04 36
        E 2 99 28 65
        E 8 b9 04 46
        E 2 b9 04 4c
        E 3 99 2c 1e
        E 5 99 33 51
        E 2 b9 04 56
        E 109 b9 04 46
        E 24 b9 04 36
        E 29 b9 04 25
        E 36 b9 04 15
        E 27 89 28 40
        E 10 89 2c 40
        E 9 89 33 40
        E 102 b9 04 0c
        E 58 b9 04 1d
        E 28 b9 04 2e
        E 18 b9 04 3e
        E 28 b9 04 4d
        E 2 99 2c 0c
        E 6 b9 04 4f
        E 44 99 33 1f
        E 67 b9 04 3f
        E 34 b9 04 2e
        E 26 b9 04 1d
        E 39 b9 04 0c
        E 21 b9 04 00
        E 7 89 2c 40
        E 49 89 33 40
        E 201 b9 04 12
        E 16 b9 04 25
        E 10 99 24 45
        E 3 b9 04 36
        E 7 b9 04 46
        E 5 b9 04 4c
        E 2 99 2c 1a
        E 8 b9 04 56
        E 50 99 33 54
        E 83 b9 04 46
        E 26 b9 04 36
        E 27 b9 04 25
        E 31 b9 04 15
        E 3 89 24 40
        E 14 89 2c 40
        E 60 89 33 40
        E 63 b9 04 0f
        E 51 b9 04 20
        E 22 b9 04 30
        E 21 b9 04 41
        E 17 b9 04 4d
        E 2 99 2c 0c
        E 10 b9 04 51
        E 50 99 24 4a
        E 45 99 33 2b
        E 31 b9 04 41
        E 31 b9 04 30
        E 22 b9 04 20
        E 41 b9 04 0f
        E 15 89 2c 40
        E 21 b9 04 00
        E 37 89 24 40
        E 43 89 33 40
        E 230 b9 04 12
        E 16 99 26 7f
        E 5 b9 04 25
        E 10 b9 04 36
        E 10 b9 04 47
        E 4 b9 04 4d
        E 2 99 2c 22
        E 2 b9 04 57
        E 23 99 33 3e
        E 7 b9 04 67
        E 42 b9 04 57
        E 33 b9 04 47
        E 27 b9 04 36
        E 29 b9 04 25
        E 31 b9 04 15
        E 17 89 26 40
        E 31 89 2c 40
        E 25 89 33 40
        E 70 b9 04 06
        E 73 b9 04 18
        E 28 b9 04 29
        E 20 b9 04 3a
        E 26 b9 04 4a
        E 10 b9 04 4d
        E 3 99 2c 0c
        E 19 99 33 17
        E 89 b9 04 3a
        E 32 b9 04 29
        E 26 b9 04 18
        E 28 b9 04 06
        E 23 b9 04 00
        E 26 89 2c 40
        E 18 89 33 40
        E 228 b9 04 12
        E 18 b9 04 22
        E 19 b9 04 32
        E 7 b9 04 43
        E 5 b9 04 4c
        E 2 99 2c 1c
        E 3 99 24 4b
        E 2 b9 04 53
        E 12 b9 04 63
        E 15 99 33 4a
        E 84 b9 04 53
        E 27 b9 04 43
        E 22 b9 04 32
        E 19 b9 04 22
        E 31 b9 04 12
        E 30 89 2c 40
        E 2 89 24 40
        E 29 89 33 40
        E 80 b9 04 06
        E 57 b9 04 18
        E 27 b9 04 29
        E 19 b9 04 3a
        E 30 b9 04 4a
        E 7 b9 04 4d
        E 2 99 2c 0c
        E 24 99 33 28
        E 91 b9 04 3a
        E 30 b9 04 29
        E 32 b9 04 18
        E 34 b9 04 06
        E 21 b9 04 00
        E 8 89 2c 40
        E 26 89 33 40
        E 261 99 26 7f
        E 2 b9 04 12
        E 19 b9 04 25
        E 14 b9 04 36
        E 11 b9 04 46
        E 2 b9 04 4d
        E 3 99 2c 1e
        E 2 b9 04 56
        E 10 99 33 3d
        E 15 b9 04 66
        E 52 b9 04 56
        E 36 b9 04 46
        E 25 b9 04 36
        E 29 b9 04 25
        E 24 89 26 40
        E 5 b9 04 15
        E 46 89 2c 40
        E 12 89 33 40
        E 80 b9 04 06
        E 74 b9 04 18
        E 27 b9 04 29
        E 20 b9 04 3a
        E 31 b9 04 4a
        E 9 b9 04 4d
        E 3 99 2c 0a
        E 12 99 33 1a
        E 92 b9 04 3a
        E 26 b9 04 29
        E 29 b9 04 18
        E 32 b9 04 06
        E 16 b9 04 00
        E 35 89 2c 40
        E 13 89 33 40
        E 221 b9 04 12
        E 19 b9 04 22
        E 12 b9 04 32
        E 2 99 24 4e
        E 12 b9 04 43
        E 6 b9 04 4d
        E 0 99 2c 1a
        E 2 b9 04 53
        E 14 b9 04 63
        E 25 99 33 44
        E 81 b9 04 53
        E 27 b9 04 43
        E 24 b9 04 32
        E 17 b9 04 22
        E 34 b9 04 12
        E 2 89 24 40
        E 17 89 2c 40
        E 39 89 33 40
        E 82 b9 04 0c
        E 43 b9 04 1d
        E 22 b9 04 2e
        E 20 b9 04 3e
        E 20 b9 04 4d
        E 2 99 2c 0e
        E 2 b9 04 4f
        E 48 99 24 48
        E 19 99 33 35
        E 75 b9 04 3f
        E 27 b9 04 2e
        E 28 b9 04 1d
        E 42 b9 04 0c
        E 2 89 2c 40
        E 17 b9 04 00
        E 32 89 24 40
        E 21 89 33 40
        E 250 99 26 7f
        E 4 b9 04 12
        E 12 b9 04 25
        E 12 b9 04 36
        E 15 b9 04 46
        E 2 b9 04 4c
        E 3 99 2c 16
        E 5 b9 04 56
        E 11 99 33 5b
        E 3 b9 04 67
        E 94 b9 04 57
        E 27 b9 04 47
        E 19 b9 04 36
        E 16 b9 04 22
        E 20 89 26 40
        E 15 b9 04 12
        E 33 89 2c 40
        E 18 89 33 40
        E 31 b9 04 00
        E 123 b9 04 12
        E 27 b9 04 22
        E 12 b9 04 32
        E 19 b9 04 43
        E 20 b9 04 4c
        E 2 99 2c 0c
        E 14 b9 04 53
        E 3 99 33 2f
        E 92 b9 04 43
        E 26 b9 04 32
        E 20 b9 04 22
        E 31 b9 04 12
        E 36 b9 04 00
        E 19 89 2c 40
        E 20 89 33 40
        E 229 b9 04 12
        E 15 b9 04 25
        E 2 99 24 4e
        E 17 b9 04 36
        E 15 b9 04 46
        E 2 b9 04 4c
        E 0 99 2c 1e
        E 5 b9 04 56
        E 10 99 33 4d
        E 89 b9 04 46
        E 29 b9 04 36
        E 26 b9 04 25
        E 30 b9 04 15
        E 22 89 24 40
        E 31 89 2c 40
        E 17 89 33 40
        E 75 b9 04 0f
        E 62 b9 04 20
        E 24 b9 04 30
        E 34 b9 04 41
        E 15 99 33 19
        E 104 b9 04 30
        E 24 b9 04 20
        E 46 b9 04 0f
        E 36 b9 04 00
        E 34 89 33 40
        E 292 b9 04 12
        E 20 99 28 59
        E 2 b9 04 22
        E 10 b9 04 32
        E 11 99 33 67
        E 3 b9 04 43
        E 3 b9 04 4c
        E 2 b9 04 53
        E 0 99 2c 1c
        E 12 b9 04 63
        E 94 b9 04 53
        E 27 b9 04 43
        E 22 b9 04 32
        E 19 b9 04 22
        E 39 89 28 40
        E 2 b9 04 12
        E 19 89 33 40
        E 5 89 2c 40
        E 121 b9 04 0c
        E 55 b9 04 1d
        E 24 b9 04 2e
        E 22 b9 04 3e
        E 24 b9 04 4d
        E 3 99 2c 0c
        E 5 b9 04 4f
        E 30 99 33 28
        E 91 b9 04 3f
        E 26 b9 04 2e
        E 22 b9 04 1d
        E 36 b9 04 0c
        E 24 b9 04 00
        E 10 89 2c 40
        E 36 89 33 40
        E 214 b9 04 12
        E 23 99 24 47
        E 2 b9 04 25
        E 15 b9 04 36
        E 7 b9 04 46
        E 2 b9 04 4c
        E 2 99 2c 20
        E 3 b9 04 56
        E 47 99 33 66
        E 79 b9 04 46
        E 22 b9 04 36
        E 26 b9 04 25
        E 29 b9 04 15
        E 10 89 24 40
        E 29 89 2c 40
        E 48 89 33 40
        E 51 b9 04 0c
        E 56 b9 04 1d
        E 26 b9 04 2e
        E 19 b9 04 3e
        E 27 b9 04 4d
        E 3 99 2c 0c
        E 4 b9 04 4f
        E 20 99 24 45
        E 45 99 33 26
        E 49 b9 04 3f
        E 33 b9 04 2e
        E 28 b9 04 1d
        E 30 b9 04 0c
        E 25 b9 04 00
        E 9 89 2c 40
        E 22 89 24 40
        E 49 89 33 40
        E 232 b9 04 12
        E 12 b9 04 25
        E 14 b9 04 36
        E 15 99 28 59
        E 3 b9 04 46
        E 1 b9 04 4c
        E 3 99 2c 16
        E 4 b9 04 56
        E 13 b9 04 66
        E 16 99 33 5b
        E 76 b9 04 56
        E 26 b9 04 46
        E 22 b9 04 36
        E 22 b9 04 25
        E 26 b9 04 15
        E 32 89 28 40
        E 4 89 2c 40
        E 30 b9 04 03
        E 6 89 33 40
        E 140 b9 04 15
        E 25 b9 04 25
        E 17 b9 04 36
        E 24 b9 04 46
        E 17 b9 04 4d
        E 2 99 2c 0a
        E 20 99 33 1f
        E 102 b9 04 36
        E 24 b9 04 22
        E 29 b9 04 12
        E 37 b9 04 00
        E 30 89 2c 40
        E 22 89 33 40
        E 225 b9 04 12
        E 9 99 24 50
        E 7 b9 04 25
        E 19 b9 04 36
        E 5 99 33 2f
        E 5 b9 04 46
        E 3 b9 04 4d
        E 4 99 2c 1c
        E 2 b9 04 56
        E 90 b9 04 46
        E 30 b9 04 36
        E 26 b9 04 25
        E 36 b9 04 15
        E 15 89 24 40
        E 31 89 33 40
        E 14 89 2c 40
        E 123 b9 04 25
        E 39 b9 04 36
        E 92 99 28 52
        E 54 b9 04 25
        E 34 b9 04 15
        E 38 b9 04 03
        E 14 b9 04 00
        E 90 99 26 7f
        E 12 89 28 40
        E 152 b9 04 12
        E 17 b9 04 22
        E 9 b9 04 32
        E 12 b9 04 43
        E 8 b9 04 4c
        E 3 99 2c 14
        E 6 b9 04 53
        E 17 89 26 40
        E 3 99 26 73
        E 87 b9 04 43
        E 29 b9 04 32
        E 21 b9 04 22
        E 36 b9 04 12
        E 44 89 2c 40
        E 28 89 26 40
        E 83 b9 04 0c
        E 46 b9 04 1d
        E 37 b9 04 2e
        E 154 b9 04 1d
        E 7 99 30 7f
        E 37 b9 04 0c
        E 29 b9 04 00
        E 178 89 30 40
        E 5 99 30 7f
        E 80 b9 04 12
        E 19 b9 04 25
        E 13 b9 04 36
        E 8 b9 04 46
        E 8 b9 04 4c
        E 3 99 2c 14
        E 16 b9 04 56
        E 97 89 30 40
        E 3 99 30 44
        E 7 b9 04 46
        E 24 b9 04 36
        E 32 b9 04 25
        E 34 b9 04 15
        E 31 89 2c 40
        E 111 89 30 40
        E 24 b9 04 25
        E 26 b9 04 36
        E 32 b9 04 46
        E 25 b9 04 4d
        E 2 99 2c 0a
        E 144 b9 04 36
        E 42 b9 04 25
        E 24 99 2d 66
        E 24 b9 04 15
        E 7 89 2c 40
        E 41 b9 04 03
        E 13 b9 04 00
        E 140 89 2d 40
        E 0 99 2d 7f
        E 86 b9 04 12
        E 22 b9 04 25
        E 12 b9 04 36
        E 15 b9 04 46
        E 2 b9 04 4c
        E 3 99 2c 16
        E 7 b9 04 56
        E 26 b9 04 66
        E 49 b9 04 56
        E 7 89 2d 40
        E 3 99 2d 7d
        E 21 b9 04 46
        E 29 b9 04 36
        E 27 b9 04 25
        E 38 b9 04 15
        E 34 89 2c 40
        E 93 89 2d 40
        E 69 99 2d 7f
        E 24 b9 04 25
        E 32 b9 04 36
        E 24 b9 04 46
        E 11 b9 04 4d
        E 3 99 2c 0c
        E 24 b9 04 56
        E 102 99 29 7e
        E 22 89 2d 40
        E 2 b9 04 46
        E 29 b9 04 36
        E 29 b9 04 25
        E 36 89 2c 40
        E 5 b9 04 15
        E 44 b9 04 03
        E 9 b9 04 00
        E 68 89 29 40
        E 24 99 29 63
        E 184 b9 04 12
        E 19 b9 04 25
        E 10 b9 04 36
        E 8 b9 04 46
        E 4 b9 04 4c
        E 2 99 2c 1c
        E 8 b9 04 56
        E 2 99 24 7a
        E 7 89 29 40
        E 17 b9 04 46
        E 24 99 33 6d
        E 15 b9 04 36
        E 41 b9 04 25
        E 55 b9 04 15
        E 75 89 2c 40
        E 8 89 24 40
        E 50 89 33 40
        E 151 b9 04 25
        E 132 b9 04 29
        E 169 b9 04 1d
        E 326 b9 04 27
        E 181 b9 04 20
        E 428 99 26 7f
        E 72 b9 04 18
        E 41 89 26 40
        E 3 99 26 7f
        E 239 89 26 40
        E 832 99 30 7f
        E 43 89 30 40
        E 2 99 30 7f
        E 242 89 30 40
        E 720 99 2d 7f
        E 92 89 2d 40
        E 0 99 2d 7c
        E 241 89 2d 40
        E 686 99 29 7f
        E 45 89 29 40
        E 3 99 29 7f
        E 242 89 29 40
        E 223 99 29 7f
        E 79 89 29 40
        E 3 99 29 44
        E 239 89 29 40
        E 620 b9 04 12
        E 44 99 26 7e
        E 109 89 26 40
        E 2 99 26 7f
        E 242 89 26 40
        E 198 99 2d 7f
        E 53 99 30 6f
        E 136 b9 04 1d
        E 55 89 2d 40
        E 51 89 30 40
        E 251 99 2d 7f
        E 24 99 30 7f
        E 217 89 2d 40
        E 25 89 30 40
        E 305 b9 04 25
        E 424 99 24 7f
        E 10 b9 04 1a
        E 46 99 3b 7f
        E 128 b9 04 09
        E 59 89 24 40
        E 55 89 3b 40
        E 28 b9 04 00
        E 1226 99 26 6c
        E 104 89 26 40
        E 2 99 26 7f
        E 241 89 26 40
        E 730 99 2d 7f
        E 24 99 30 7f
        E 220 89 2d 40
        E 22 89 30 40
        E 635 99 2d 7f
        E 34 99 30 7f
        E 213 89 2d 40
        E 31 89 30 40
        E 723 99 2d 7f
        E 33 99 29 6a
        E 211 89 2d 40
        E 30 89 29 40
        E 262 99 2d 7f
        E 26 99 29 73
        E 218 89 2d 40
        E 26 89 29 40
        E 766 99 26 6b
        E 85 89 26 40
        E 2 99 26 7f
        E 239 89 26 40
        E 34 b9 04 09
        E 167 b9 04 15
        E 24 99 2d 7f
        E 3 99 30 75
        E 88 b9 04 25
        E 150 89 2d 40
        E 3 89 30 40
        E 8 b9 04 30
        E 260 99 30 44
        E 12 99 2d 7f
        E 232 89 30 40
        E 13 89 2d 40
        E 67 b9 04 2c
        E 387 b9 04 20
        E 229 b9 04 0f
        E 97 99 24 7f
        E 2 99 31 7f
        E 65 b9 04 00
        E 174 89 24 40
        E 3 89 31 40
        E 1340 99 26 6e
        E 87 99 28 62
        E 158 89 26 40
        E 86 89 28 40
        E 776 99 2d 7f
        E 12 99 30 7f
        E 84 b9 04 12
        E 119 b9 04 22
        E 27 89 2d 40
        E 12 89 30 40
        E 94 b9 04 2c
        E 300 b9 04 36
        E 312 99 2d 7f
        E 16 99 30 71
        E 186 b9 04 3f
        E 38 89 2d 40
        E 20 89 30 40
        E 254 b9 04 36
        E 466 99 2d 7f
        E 17 99 29 64
        E 5 b9 04 29
        E 190 b9 04 20
        E 30 89 2d 40
        E 19 89 29 40
        E 261 99 29 7f
        E 58 99 2d 7f
        E 186 89 29 40
        E 55 89 2d 40
        E 726 99 24 73
        E 6 b9 04 29
        E 233 b9 04 1d
        E 5 89 24 40
        E 302 99 26 7f
        E 224 89 26 40
        E 3 99 26 64
        E 241 89 26 40
        E 10 99 26 64
        E 244 89 26 40
        E 21 99 26 70
        E 5 b9 04 0c
        E 111 b9 04 00
        E 128 89 26 40
        E 5 99 24 51
        E 47 99 33 46
        E 198 89 24 40
        E 35 99 24 4e
        E 8 89 33 40
        E 14 b9 04 12
        E 27 99 31 7f
        E 195 89 24 40
        E 44 99 24 70
        E 5 89 31 40
        E 58 99 33 7f
        E 167 b9 04 09
        E 14 89 24 40
        E 60 89 33 40
        E 501 b9 04 0f
        E 775 99 2d 7f
        E 10 99 30 7f
        E 145 b9 04 18
        E 87 89 2d 40
        E 9 89 30 40
        E 880 99 29 7f
        E 5 99 2d 7f
        E 239 89 29 40
        E 5 89 2d 40
        E 705 99 26 7f
        E 114 89 26 40
        E 2 99 26 7f
        E 242 89 26 40
        E 219 b9 04 29
        E 211 b9 04 18
        E 94 b9 04 06
        E 78 b9 04 00
        E 140 99 30 5c
        E 13 99 2d 7b
        E 52 b9 04 12
        E 174 89 30 40
        E 19 89 2d 40
        E 107 b9 04 09
        E 183 99 2d 7f
        E 3 b9 04 12
        E 40 99 30 54
        E 167 b9 04 1a
        E 31 89 2d 40
        E 47 89 30 40
        E 108 b9 04 2c
        E 192 b9 04 1a
        E 170 b9 04 12
        E 223 99 26 7e
        E 63 b9 04 22
        E 23 89 26 40
        E 3 99 26 7f
        E 239 b9 04 1a
        E 3 89 26 40
        E 190 b9 04 15
        E 66 99 26 7f
        E 242 89 26 40
        E 9 99 26 5b
        E 244 89 26 40
        E 2 99 26 7f
        E 240 89 26 40
        E 31 99 26 48
        E 48 99 30 26
        E 20 b9 04 03
        E 38 b9 04 00
        E 32 89 30 40
        E 2 99 30 1f
        E 104 89 26 40
        E 6 99 24 4e
        E 28 99 33 53
        E 101 89 30 40
        E 68 89 24 40
        E 3 99 24 0b
        E 53 b9 04 12
        E 19 89 33 40
        E 24 89 24 40
        E 2 99 24 58
        E 240 89 24 40
        E 50 99 24 70
        E 7 99 33 56
        E 63 b9 04 06
        E 95 b9 04 00
        E 79 89 24 40
        E 8 89 33 40
        E 804 b9 04 06
        E 281 b9 04 0c
        E 280 b9 04 15
        E 20 99 33 7d
        E 4 99 28 4d
        E 238 89 33 40
        E 5 89 28 40
        E 385 b9 04 1a
        E 441 99 24 7f
        E 33 99 33 3e
        E 209 89 24 40
        E 32 89 33 40
        E 749 b9 04 12
        E 32 99 24 7d
        E 31 99 33 68
        E 181 b9 04 09
        E 29 89 24 40
        E 34 89 33 40
        E 790 99 24 63
        E 244 89 24 40
        E 14 b9 04 0f
        E 262 b9 04 12
        E 3 99 2e 7f
        E 6 99 26 6b
        E 143 b9 04 18
        E 91 89 2e 40
        E 10 89 26 40
        E 167 b9 04 27
        E 133 b9 04 32
        E 85 b9 04 22
        E 67 b9 04 12
        E 94 b9 04 00
        E 237 b9 04 12
        E 27 b9 04 25
        E 19 b9 04 36
        E 24 b9 04 46
        E 75 b9 04 36
        E 70 b9 04 25
        E 128 b9 04 1d
        E 232 b9 04 27
        E 98 99 26 7f
        E 158 b9 04 1d
        E 79 89 26 40
        E 3 99 26 5e
        E 51 b9 04 2e
        E 188 89 26 40
        E 15 99 28 1d
        E 27 b9 04 27
        E 217 89 28 40
        E 24 99 26 66
        E 126 b9 04 15
        E 117 89 26 40
        E 37 99 24 4f
        E 17 b9 04 0f
        E 3 99 1a 40
        E 130 b9 04 0f
        E 32 89 24 40
        E 1 99 24 0c
        E 80 89 1a 40
        E 10 b9 04 12
        E 2 99 2e 7f
        E 3 89 24 40
        E 3 99 24 48
        E 237 89 2e 40
        E 4 89 24 40
        E 29 b9 04 0f
        E 2 99 2e 7f
        E 15 99 24 7e
        E 146 b9 04 03
        E 81 89 2e 40
        E 17 89 24 40
        E 29 b9 04 00
        E 1092 b9 04 12
        E 48 b9 04 22
        E 44 b9 04 32
        E 135 b9 04 3a
        E 56 b9 04 34
        E 2 99 2e 7f
        E 7 99 26 60
        E 85 b9 04 34
        E 150 89 2e 40
        E 7 89 26 40
        E 154 b9 04 44
        E 54 b9 04 4c
        E 190 b9 04 34
        E 402 99 24 7f
        E 38 b9 04 3c
        E 3 99 2e 7f
        E 2 b9 04 3c
        E 186 b9 04 38
        E 12 89 24 40
        E 41 89 2e 40
        E 131 b9 04 3e
        E 299 b9 04 3a
        E 351 99 24 7c
        E 36 b9 04 3a
        E 3 99 2e 7f
        E 202 89 24 40
        E 39 89 2e 40
        E 167 b9 04 36
        E 343 b9 04 3c
        E 207 99 24 62
        E 53 b9 04 3a
        E 2 99 2e 75
        E 187 89 24 40
        E 55 89 2e 40
        E 290 b9 04 3e
        E 3 99 2e 7f
        E 2 99 28 5b
        E 239 89 2e 40
        E 3 89 28 40
        E 120 b9 04 41
        E 648 b9 04 47
        E 3 99 2e 7f
        E 53 b9 04 47
        E 191 89 2e 40
        E 82 b9 04 3c
        E 285 99 26 75
        E 103 b9 04 34
        E 144 89 26 40
        E 4 b9 04 41
        E 5 99 26 6b
        E 172 b9 04 38
        E 71 89 26 40
        E 2 99 26 62
        E 240 89 26 40
        E 10 99 26 66
        E 116 b9 04 27
        E 126 89 26 40
        E 12 99 24 45
        E 16 b9 04 1d
        E 34 b9 04 1d
        E 3 99 2e 7f
        E 191 89 24 40
        E 29 99 24 47
        E 24 89 2e 40
        E 5 b9 04 2c
        E 2 99 2e 7d
        E 3 b9 04 2c
        E 142 b9 04 36
        E 66 89 24 40
        E 29 89 2e 40
        E 24 99 24 7b
        E 22 b9 04 34
        E 2 99 1a 7f
        E 150 b9 04 2e
        E 67 89 24 40
        E 26 89 1a 40
        E 144 b9 04 29
        E 391 b9 04 30
        E 164 b9 04 3a
        E 56 99 24 17
        E 91 b9 04 3e
        E 2 99 2e 60
        E 13 b9 04 3f
        E 138 89 24 40
        E 91 89 2e 40
        E 170 b9 04 44
        E 137 99 28 6c
        E 17 b9 04 44
        E 2 99 2e 7a
        E 223 89 28 40
        E 19 89 2e 40
        E 290 b9 04 46
        E 2 99 2e 4a
        E 242 89 2e 40
        E 278 99 24 7f
        E 39 b9 04 44
        E 2 99 2e 7f
        E 203 89 24 40
        E 36 89 2e 40
        E 288 b9 04 43
        E 2 99 2e 4a
        E 242 89 2e 40
        E 229 99 24 7f
        E 56 b9 04 41
        E 2 99 2e 7f
        E 165 b9 04 3f
        E 19 89 24 40
        E 58 89 2e 40
        E 270 b9 04 41
        E 3 99 2e 59
        E 241 89 2e 40
        E 227 b9 04 43
        E 19 99 24 63
        E 13 b9 04 43
        E 3 99 2e 7f
        E 197 b9 04 3e
        E 29 89 24 40
        E 12 89 2e 40
        E 337 b9 04 3f
        E 2 99 2e 7f
        E 2 99 28 66
        E 242 89 2e 40
        E 2 89 28 40
        E 293 b9 04 41
        E 2 99 2e 4e
        E 242 89 2e 40
        E 215 99 24 7f
        E 48 b9 04 43
        E 2 99 2e 7f
        E 10 b9 04 43
        E 180 89 24 40
        E 20 b9 04 3f
        E 32 89 2e 40
        E 292 99 26 72
        E 10 b9 04 36
        E 232 89 26 40
        E 4 99 26 6b
        E 174 b9 04 3e
        E 70 89 26 40
        E 0 99 26 52
        E 242 89 26 40
        E 3 99 26 74
        E 82 b9 04 30
        E 77 b9 04 20
        E 82 89 26 40
        E 44 99 24 41
        E 29 b9 04 1d
        E 2 99 2e 7f
        E 184 b9 04 30
        E 24 89 24 40
        E 36 99 24 3b
        E 3 89 2e 40
        E 14 b9 04 32
        E 2 99 2e 7f
        E 129 b9 04 38
        E 94 89 24 40
        E 12 99 24 7f
        E 7 89 2e 40
        E 27 b9 04 36
        E 2 99 1a 7f
        E 143 b9 04 2e
        E 62 89 24 40
        E 37 89 1a 40
        E 328 b9 04 30
        E 3 99 2e 52
        E 137 b9 04 36
        E 102 89 2e 40
        E 256 99 24 5d
        E 46 b9 04 32
        E 3 99 2e 7b
        E 81 b9 04 30
        E 112 89 24 40
        E 48 89 2e 40
        E 283 99 26 7f
        E 36 b9 04 34
        E 2 99 2e 7f
        E 27 b9 04 36
        E 176 89 26 40
        E 36 89 2e 40
        E 298 b9 04 38
        E 2 99 2e 56
        E 242 89 2e 40
        E 212 b9 04 3c
        E 58 99 24 7f
        E 10 b9 04 3e
        E 5 99 2e 7f
        E 228 89 24 40
        E 11 89 2e 40
        E 278 b9 04 3a
        E 2 99 2e 62
        E 240 89 2e 40
        E 62 b9 04 38
        E 227 99 24 7f
        E 44 b9 04 3c
        E 5 b9 04 3c
        E 2 99 2e 7f
        E 190 89 24 40
        E 49 89 2e 40
        E 261 b9 04 3c
        E 2 99 2e 63
        E 245 89 2e 40
        E 227 99 24 76
        E 46 b9 04 38
        E 2 99 2e 7f
        E 82 b9 04 36
        E 111 89 24 40
        E 49 89 2e 40
        E 307 99 28 69
        E 9 b9 04 3a
        E 2 99 2e 7f
        E 179 b9 04 3a
        E 51 89 28 40
        E 12 89 2e 40
        E 251 b9 04 3c
        E 2 99 2e 63
        E 243 89 2e 40
        E 212 b9 04 3f
        E 29 99 24 7f
        E 38 b9 04 3f
        E 3 99 2e 7f
        E 203 89 24 40
        E 36 89 2e 40
        E 237 b9 04 36
        E 62 99 26 72
        E 242 89 26 40
        E 10 99 26 76
        E 230 89 26 40
        E 2 99 26 46
        E 41 b9 04 3e
        E 201 89 26 40
        E 24 99 26 60
        E 28 b9 04 3a
        E 196 b9 04 29
        E 17 89 26 40
        E 42 b9 04 27
        E 1 99 1a 73
        E 5 99 24 45
        E 181 89 24 40
        E 0 99 24 0e
        E 59 89 1a 40
        E 20 89 24 40
        E 0 99 24 41
        E 9 b9 04 32
        E 2 99 2e 7f
        E 17 b9 04 32
        E 165 b9 04 3a
        E 50 89 24 40
        E 12 89 2e 40
        E 23 99 24 6e
        E 11 b9 04 38
        E 3 99 2e 7f
        E 137 b9 04 30
        E 92 89 24 40
        E 15 89 2e 40
        E 116 b9 04 29
        E 205 b9 04 2c
        E 2 99 2e 4c
        E 242 89 2e 40
        E 96 b9 04 30
        E 128 99 24 63
        E 58 b9 04 30
        E 3 99 1a 63
        E 186 89 24 40
        E 55 89 1a 40
        E 276 99 26 7f
        E 31 b9 04 34
        E 2 99 2e 7f
        E 61 b9 04 38
        E 148 89 26 40
        E 35 89 2e 40
        E 288 b9 04 3c
        E 3 99 2e 48
        E 48 b9 04 3c
        E 191 89 2e 40
        E 261 99 24 7f
        E 36 b9 04 3c
        E 3 99 2e 7f
        E 202 89 24 40
        E 36 89 2e 40
        E 249 b9 04 3a
        E 3 99 2e 56
        E 212 b9 04 36
        E 29 89 2e 40
        E 300 99 24 7f
        E 7 b9 04 3a
        E 2 99 2e 7f
        E 32 b9 04 3a
        E 201 89 24 40
        E 9 89 2e 40
        E 271 b9 04 3c
        E 2 99 2e 54
        E 242 89 2e 40
        E 285 99 24 75
        E 2 b9 04 3a
        E 3 99 2e 6d
        E 218 b9 04 36
        E 21 89 24 40
        E 2 89 2e 40
        E 290 99 26 65
        E 36 b9 04 38
        E 2 99 2e 7f
        E 204 89 26 40
        E 39 89 2e 40
        E 275 b9 04 3a
        E 8 b9 04 3c
        E 2 99 2e 7f
        E 242 89 2e 40
        E 250 99 24 7f
        E 49 b9 04 3c
        E 2 99 2e 7f
        E 194 89 24 40
        E 45 89 2e 40
        E 261 b9 04 36
        E 40 99 26 71
        E 241 89 26 40
        E 2 99 26 6e
        E 58 b9 04 30
        E 182 89 26 40
        E 4 99 26 43
        E 2 b9 04 38
        E 241 89 26 40
        E 18 99 26 6a
        E 111 b9 04 2e
        E 94 b9 04 1d
        E 39 89 26 40
        E 2 99 24 41
        E 41 b9 04 20
        E 3 99 1a 58
        E 198 b9 04 2c
        E 5 89 24 40
        E 17 99 24 41
        E 22 89 1a 40
        E 11 b9 04 30
        E 3 99 2e 7f
        E 104 b9 04 38
        E 102 89 24 40
        E 38 89 2e 40
        E 17 99 24 7f
        E 26 b9 04 3a
        E 3 99 2e 7f
        E 215 89 24 40
        E 17 b9 04 30
        E 9 89 2e 40
        E 167 b9 04 2c
        E 160 b9 04 2e
        E 2 99 2e 41
        E 242 89 2e 40
        E 261 99 24 62
        E 31 b9 04 2e
        E 3 99 2e 52
        E 207 89 24 40
        E 32 89 2e 40
        E 285 99 26 7f
        E 26 b9 04 30
        E 3 99 2e 7f
        E 14 b9 04 30
        E 196 89 26 40
        E 32 89 2e 40
        E 14 b9 04 34
        E 302 b9 04 36
        E 2 99 2e 4f
        E 242 89 2e 40
        E 174 b9 04 3a
        E 77 99 24 7f
        E 37 b9 04 38
        E 1 99 2e 7f
        E 204 89 24 40
        E 38 89 2e 40
        E 260 b9 04 38
        E 2 99 2e 54
        E 241 89 2e 40
        E 292 99 24 7f
        E 32 b9 04 3a
        E 3 99 2e 7f
        E 207 89 24 40
        E 34 89 2e 40
        E 271 b9 04 3a
        E 2 99 2e 57
        E 244 89 2e 40
        E 249 99 24 71
        E 21 b9 04 38
        E 3 99 2e 7f
        E 219 89 24 40
        E 3 b9 04 36
        E 19 89 2e 40
        E 275 99 26 7f
        E 37 b9 04 3a
        E 2 99 2e 7f
        E 102 b9 04 3a
        E 101 89 26 40
        E 37 89 2e 40
        E 258 b9 04 3c
        E 3 99 2e 6b
        E 242 89 2e 40
        E 219 b9 04 3e
        E 29 99 24 6a
        E 58 b9 04 3c
        E 3 99 2e 7f
        E 181 89 24 40
        E 60 89 2e 40
        E 157 b9 04 36
        E 124 99 26 5f
        E 241 89 26 40
        E 12 99 26 76
        E 234 89 26 40
        E 3 99 26 67
        E 86 b9 04 2e
        E 92 b9 04 1d
        E 65 89 26 40
        E 15 99 26 4c
        E 80 b9 04 0c
        E 149 99 24 42
        E 13 89 26 40
        E 7 b9 04 06
        E 55 99 33 4a
        E 77 b9 04 18
        E 25 89 24 40
        E 2 99 24 0f
        E 68 89 24 40
        E 2 99 24 43
        E 34 b9 04 29
        E 40 89 33 40
        E 146 b9 04 2e
        E 19 89 24 40
        E 51 99 24 7f
        E 99 99 33 71
        E 78 b9 04 20
        E 65 89 24 40
        E 99 89 33 40
        E 790 99 24 54
        E 31 b9 04 22
        E 3 99 2e 7f
        E 210 89 24 40
        E 31 89 2e 40
        E 140 b9 04 25
        E 165 b9 04 29
        E 5 99 2e 7f
        E 0 99 26 7f
        E 77 b9 04 2e
        E 162 89 2e 40
        E 2 89 26 40
        E 307 b9 04 32
        E 3 99 2e 54
        E 241 89 2e 40
        E 97 b9 04 34
        E 241 99 24 75
        E 15 b9 04 36
        E 2 99 2e 7f
        E 225 89 24 40
        E 15 89 2e 40
        E 272 b9 04 36
        E 1 99 2e 5c
        E 241 89 2e 40
        E 302 99 24 71
        E 27 b9 04 36
        E 2 99 2e 7f
        E 212 89 24 40
        E 27 89 2e 40
        E 261 b9 04 36
        E 3 99 2e 52
        E 241 89 2e 40
        E 160 b9 04 3a
        E 118 99 24 66
        E 19 b9 04 38
        E 2 99 2e 67
        E 146 b9 04 36
        E 77 89 24 40
        E 20 89 2e 40
        E 287 99 28 66
        E 7 b9 04 36
        E 3 99 2e 7f
        E 232 89 28 40
        E 7 89 2e 40
        E 270 b9 04 36
        E 3 99 2e 4e
        E 241 89 2e 40
        E 266 99 24 7f
        E 7 b9 04 38
        E 2 99 2e 7f
        E 233 89 24 40
        E 11 89 2e 40
        E 242 b9 04 30
        E 78 99 26 73
        E 236 89 26 40
        E 1 99 26 71
        E 226 b9 04 34
        E 15 89 26 40
        E 3 99 26 53
        E 208 b9 04 2e
        E 30 89 26 40
        E 23 99 26 49
        E 26 b9 04 1d
        E 174 b9 04 0f
        E 2 99 24 41
        E 39 89 26 40
        E 53 b9 04 12
        E 2 99 2e 78
        E 117 b9 04 20
        E 31 89 24 40
        E 7 99 24 45
        E 72 b9 04 30
        E 15 89 2e 40
        E 17 b9 04 32
        E 3 99 2e 7f
        E 120 b9 04 3e
        E 15 89 24 40
        E 63 99 24 7b
        E 45 89 2e 40
        E 27 b9 04 3e
        E 2 99 1a 7f
        E 168 89 24 40
        E 74 89 1a 40
        E 3 b9 04 3a
        E 309 b9 04 3e
        E 2 99 2e 33
        E 242 89 2e 40
        E 217 99 24 6f
        E 51 b9 04 36
        E 2 99 2e 5c
        E 99 b9 04 30
        E 90 89 24 40
        E 56 89 2e 40
        E 253 99 26 7f
        E 51 b9 04 32
        E 2 99 2e 7f
        E 174 b9 04 36
        E 15 89 26 40
        E 55 89 2e 40
        E 288 b9 04 38
        E 2 99 2e 46
        E 244 89 2e 40
        E 201 b9 04 3e
        E 80 b9 04 3e
        E 2 99 2e 7f
        E 4 99 24 7f
        E 238 89 2e 40
        E 6 89 24 40
        E 259 b9 04 3a
        E 2 99 2e 51
        E 242 b9 04 3a
        E 3 89 2e 40
        E 316 99 24 7f
        E 17 b9 04 3a
        E 0 99 2e 7f
        E 224 89 24 40
        E 18 89 2e 40
        E 273 b9 04 38
        E 2 99 2e 51
        E 242 89 2e 40
        E 258 99 24 75
        E 3 b9 04 3a
        E 2 99 2e 5e
        E 222 b9 04 36
        E 15 89 24 40
        E 4 89 2e 40
        E 334 99 28 69
        E 31 b9 04 36
        E 2 99 2e 7f
        E 211 89 28 40
        E 31 89 2e 40
        E 254 b9 04 38
        E 2 99 2e 52
        E 242 89 2e 40
        E 249 99 24 7b
        E 44 b9 04 38
        E 2 99 2e 7f
        E 198 89 24 40
        E 46 89 2e 40
        E 106 b9 04 3a
        E 131 99 24 69
        E 24 b9 04 36
        E 2 99 2e 4a
        E 114 b9 04 36
        E 100 89 24 40
        E 28 89 2e 40
        E 270 99 28 56
        E 60 b9 04 36
        E 3 99 2e 7f
        E 182 89 28 40
        E 60 89 2e 40
        E 242 b9 04 36
        E 2 99 2e 53
        E 239 89 2e 40
        E 220 99 24 7f
        E 75 b9 04 2e
        E 2 99 2e 7f
        E 3 b9 04 2e
        E 157 b9 04 27
        E 7 89 24 40
        E 75 89 2e 40
        E 275 b9 04 20
        E 2 99 2e 47
        E 46 b9 04 20
        E 196 89 2e 40
        E 247 99 26 75
        E 60 b9 04 27
        E 5 b9 04 27
        E 2 99 2e 7f
        E 177 89 26 40
        E 65 89 2e 40
        E 237 b9 04 2c
        E 41 b9 04 29
        E 2 99 2e 57
        E 240 89 2e 40
        E 233 99 24 72
        E 68 b9 04 2e
        E 0 99 2e 7f
        E 176 89 24 40
        E 66 89 2e 40
        E 94 b9 04 32
        E 135 99 24 59
        E 3 b9 04 32
        E 2 99 2e 3c
        E 237 89 24 40
        E 2 89 2e 40
        E 326 99 26 75
        E 27 b9 04 30
        E 2 99 2e 7f
        E 216 89 26 40
        E 26 89 2e 40
        E 261 b9 04 30
        E 2 99 2e 4e
        E 242 89 2e 40
        E 227 99 24 77
        E 53 b9 04 30
        E 3 99 2e 7f
        E 188 89 24 40
        E 2 b9 04 2c
        E 54 89 2e 40
        E 256 b9 04 27
        E 3 99 2e 40
        E 130 b9 04 20
        E 111 89 2e 40
        E 290 99 28 4c
        E 21 b9 04 25
        E 3 99 1a 7f
        E 39 b9 04 27
        E 179 89 28 40
        E 23 89 1a 40
        E 290 b9 04 29
        E 3 99 2e 4c
        E 242 89 2e 40
        E 226 99 24 70
        E 48 b9 04 2c
        E 3 99 2e 7f
        E 41 b9 04 2c
        E 151 89 24 40
        E 50 89 2e 40
        E 251 99 24 60
        E 20 b9 04 29
        E 1 99 2e 39
        E 221 89 24 40
        E 22 89 2e 40
        E 302 99 28 5b
        E 17 b9 04 27
        E 2 99 2e 7f
        E 222 89 28 40
        E 19 89 2e 40
        E 298 b9 04 29
        E 3 99 2e 41
        E 132 b9 04 27
        E 109 89 2e 40
        E 251 99 24 6b
        E 55 b9 04 25
        E 3 99 2e 7f
        E 138 b9 04 20
        E 46 89 24 40
        E 60 89 2e 40
        E 268 99 26 51
        E 20 b9 04 1d
        E 2 99 2e 7f
        E 222 89 26 40
        E 19 89 2e 40
        E 264 99 24 5b
        E 29 b9 04 1d
        E 3 99 2e 65
        E 210 89 24 40
        E 31 89 2e 40
        E 256 99 24 59
        E 31 b9 04 1d
        E 3 99 2e 60
        E 210 89 24 40
        E 34 89 2e 40
        E 138 b9 04 1a
        E 133 99 26 41
        E 38 b9 04 1a
        E 2 99 2e 7f
        E 201 89 26 40
        E 44 89 2e 40
        E 222 99 24 60
        E 31 b9 04 1a
        E 2 99 2e 50
        E 208 89 24 40
        E 34 89 2e 40
        E 270 99 28 3a
        E 15 b9 04 1a
        E 2 99 2e 7f
        E 225 89 28 40
        E 20 89 2e 40
        E 272 99 24 5a
        E 13 b9 04 1a
        E 2 99 2e 65
        E 227 89 24 40
        E 15 89 2e 40
        E 243 b9 04 1a
        E 2 99 2e 50
        E 25 99 24 50
        E 215 b9 04 12
        E 5 89 2e 40
        E 25 89 24 40
        E 280 99 28 35
        E 31 b9 04 12
        E 3 99 2e 7f
        E 207 89 28 40
        E 34 89 2e 40
        E 225 99 24 5a
        E 92 b9 04 12
        E 2 99 2e 67
        E 150 89 24 40
        E 92 89 2e 40
        E 219 99 24 59
        E 27 b9 04 0f
        E 2 99 2e 56
        E 184 b9 04 0c
        E 29 89 24 40
        E 29 89 2e 40
        E 254 99 28 4e
        E 55 b9 04 0c
        E 3 99 2e 7f
        E 188 89 28 40
        E 54 89 2e 40
        E 224 99 24 57
        E 24 b9 04 0c
        E 2 99 2e 5c
        E 215 89 24 40
        E 27 89 2e 40
        E 261 99 28 51
        E 51 b9 04 0f
        E 3 99 2e 7f
        E 188 89 28 40
        E 53 89 2e 40
        E 224 99 24 5d
        E 17 b9 04 0f
        E 2 99 2e 5f
        E 223 89 24 40
        E 22 89 2e 40
        E 267 b9 04 0c
        E 0 99 24 57
        E 3 99 2e 7d
        E 240 89 24 40
        E 5 89 2e 40
        E 313 99 26 6e
        E 21 b9 04 0f
        E 2 99 2e 7f
        E 224 89 26 40
        E 18 89 2e 40
        E 219 99 24 59
        E 92 b9 04 0f
        E 2 99 2e 66
        E 147 89 24 40
        E 95 89 2e 40
        E 200 99 24 5b
        E 34 b9 04 0c
        E 5 99 2e 4f
        E 203 89 24 40
        E 38 89 2e 40
        E 288 99 28 58
        E 36 b9 04 0f
        E 3 99 2e 7f
        E 203 89 28 40
        E 36 89 2e 40
        E 227 99 24 66
        E 43 b9 04 0f
        E 2 99 2e 39
        E 197 89 24 40
        E 45 89 2e 40
        E 232 99 26 54
        E 60 b9 04 0f
        E 5 99 2e 7f
        E 177 89 26 40
        E 65 89 2e 40
        E 252 99 24 64
        E 6 b9 04 0f
        E 2 99 2e 5f
        E 232 89 24 40
        E 10 89 2e 40
        E 264 b9 04 0f
        E 1 99 2e 63
        E 13 99 24 56
        E 230 89 2e 40
        E 12 89 24 40
        E 297 99 26 7d
        E 27 b9 04 0f
        E 2 99 2e 7f
        E 213 89 26 40
        E 29 89 2e 40
        E 214 99 24 5f
        E 66 b9 04 0f
        E 2 99 2e 69
        E 177 89 24 40
        E 63 89 2e 40
        E 228 99 24 58
        E 23 b9 04 0c
        E 2 99 2e 75
        E 218 89 24 40
        E 24 89 2e 40
        E 108 b9 04 06
        E 165 99 26 7a
        E 48 b9 04 06
        E 1 99 2e 7f
        E 195 89 26 40
        E 46 89 2e 40
        E 227 99 24 66
        E 46 b9 04 06
        E 2 99 2e 69
        E 194 89 24 40
        E 50 89 2e 40
        E 252 99 26 6a
        E 45 b9 04 09
        E 5 99 2e 7f
        E 194 89 26 40
        E 50 89 2e 40
        E 224 99 24 5a
        E 51 b9 04 09
        E 3 99 2e 5b
        E 191 89 24 40
        E 50 89 2e 40
        E 247 b9 04 09
        E 3 99 2e 78
        E 9 99 24 54
        E 235 89 2e 40
        E 9 89 24 40
        E 285 99 26 68
        E 53 b9 04 09
        E 3 99 2e 7f
        E 186 89 26 40
        E 58 89 2e 40
        E 186 99 24 53
        E 73 b9 04 09
        E 2 99 2e 57
        E 166 89 24 40
        E 76 89 2e 40
        E 234 99 24 5e
        E 29 b9 04 09
        E 2 99 2e 69
        E 212 89 24 40
        E 30 89 2e 40
        E 258 99 26 66
        E 60 b9 04 09
        E 3 99 2e 7f
        E 179 89 26 40
        E 65 89 2e 40
        E 203 99 24 5e
        E 70 b9 04 06
        E 2 99 2e 4f
        E 170 89 24 40
        E 72 89 2e 40
        E 244 99 26 4a
        E 51 b9 04 09
        E 2 99 2e 7f
        E 191 89 26 40
        E 51 89 2e 40
        E 210 99 24 65
        E 51 b9 04 06
        E 2 99 2e 54
        E 189 89 24 40
        E 52 89 2e 40
        E 252 99 24 5b
        E 10 b9 04 09
        E 1 99 2e 7f
        E 230 89 24 40
        E 15 89 2e 40
        E 297 99 26 70
        E 34 b9 04 06
        E 2 99 2e 7f
        E 206 89 26 40
        E 36 89 2e 40
        E 164 99 24 50
        E 121 b9 04 06
        E 2 99 2e 5f
        E 119 89 24 40
        E 126 89 2e 40
        E 217 99 24 6f
        E 32 b9 04 06
        E 2 99 2e 74
        E 210 89 24 40
        E 31 89 2e 40
        E 286 99 26 41
        E 40 b9 04 06
        E 3 99 2e 7f
        E 201 89 26 40
        E 40 89 2e 40
        E 223 99 24 73
        E 36 b9 04 03
        E 3 99 2e 6a
        E 33 b9 04 00
        E 170 89 24 40
        E 38 89 2e 40
        E 269 99 26 7f
        E 33 b9 04 03
        E 2 99 2e 7f
        E 206 89 26 40
        E 36 89 2e 40
        E 220 b9 04 00
        E 2 99 2e 54
        E 242 89 2e 40
        E 157 99 24 78
        E 41 b9 04 12
        E 166 b9 04 20
        E 37 89 24 40
        E 7 99 26 6d
        E 13 99 29 76
        E 100 b9 04 27
        E 129 89 26 40
        E 14 99 24 54
        E 3 89 29 40
        E 65 b9 04 2e
        E 174 89 24 40
        E 41 99 29 3e
        E 172 b9 04 27
        E 46 99 24 58
        E 24 89 29 40
        E 217 89 24 40
        E 46 99 26 73
        E 34 99 29 7f
        E 207 89 26 40
        E 37 89 29 40
        E 7 99 24 5b
        E 242 89 24 40
        E 50 99 29 3e
        E 242 89 29 40
        E 22 99 24 5d
        E 241 89 24 40
        E 36 99 26 68
        E 13 99 29 7f
        E 231 89 26 40
        E 10 89 29 40
        E 90 99 24 5e
        E 239 99 29 35
        E 3 89 24 40
        E 241 89 29 40
        E 51 99 24 58
        E 183 b9 04 20
        E 58 89 24 40
        E 17 99 29 7f
        E 12 99 28 44
        E 232 89 29 40
        E 9 89 28 40
        E 97 99 24 63
        E 225 99 29 23
        E 17 89 24 40
        E 225 89 29 40
        E 70 99 24 57
        E 244 89 24 40
        E 2 99 29 7f
        E 17 99 28 31
        E 225 89 29 40
        E 17 89 28 40
        E 89 99 24 59
        E 244 89 24 40
        E 15 99 29 25
        E 244 89 29 40
        E 33 99 24 57
        E 242 89 24 40
        E 32 99 28 30
        E 4 99 29 7f
        E 237 89 28 40
        E 5 89 29 40
        E 68 99 24 62
        E 241 89 24 40
        E 11 99 29 2e
        E 240 89 29 40
        E 34 99 24 5b
        E 242 89 24 40
        E 41 99 26 52
        E 2 99 29 7f
        E 240 89 26 40
        E 5 89 29 40
        E 74 99 24 5d
        E 242 89 24 40
        E 22 99 29 32
        E 241 89 29 40
        E 30 99 24 58
        E 241 89 24 40
        E 38 99 28 5c
        E 7 99 29 7f
        E 235 89 28 40
        E 9 89 29 40
        E 75 99 24 60
        E 242 89 24 40
        E 31 99 29 24
        E 245 89 29 40
        E 14 99 24 58
        E 246 89 24 40
        E 51 99 29 7b
        E 3 99 28 2d
        E 239 89 29 40
        E 5 89 28 40
        E 50 99 24 64
        E 244 89 24 40
        E 37 99 29 25
        E 244 89 29 40
        E 31 99 24 5b
        E 245 89 24 40
        E 52 99 26 37
        E 8 99 29 76
        E 234 89 26 40
        E 7 89 29 40
        E 38 99 24 60
        E 242 89 24 40
        E 58 99 29 30
        E 242 89 29 40
        E 19 99 24 5f
        E 242 89 24 40
        E 41 99 28 5d
        E 10 99 29 7f
        E 234 89 28 40
        E 7 89 29 40
        E 82 99 24 5d
        E 242 89 24 40
        E 22 99 29 32
        E 241 89 29 40
        E 49 99 24 59
        E 241 89 24 40
        E 39 99 28 44
        E 4 99 29 7f
        E 5 89 28 40
        E 2 99 28 5d
        E 235 89 29 40
        E 5 89 28 40
        E 62 99 24 5c
        E 242 89 24 40
        E 32 99 29 24
        E 244 89 29 40
        E 31 99 24 5c
        E 242 89 24 40
        E 46 99 28 2d
        E 9 99 26 6a
        E 13 99 29 78
        E 222 89 28 40
        E 9 89 26 40
        E 11 89 29 40
        E 55 99 24 5c
        E 239 89 24 40
        E 39 99 29 2d
        E 242 89 29 40
        E 33 99 24 59
        E 242 89 24 40
        E 43 99 28 4a
        E 12 99 29 7f
        E 230 89 28 40
        E 11 89 29 40
        E 68 99 24 5c
        E 242 89 24 40
        E 29 99 29 23
        E 244 89 29 40
        E 51 99 24 5a
        E 241 89 24 40
        E 27 99 28 42
        E 4 99 29 77
        E 237 89 28 40
        E 5 89 29 40
        E 80 99 24 57
        E 242 89 24 40
        E 9 99 29 24
        E 242 89 29 40
        E 75 99 24 5e
        E 244 89 24 40
        E 46 99 29 6a
        E 2 99 26 25
        E 240 89 29 40
        E 2 89 26 40
        E 50 99 24 4f
        E 155 89 24 40
        E 0 99 24 15
        E 116 99 29 40
        E 128 89 24 40
        E 114 89 29 40
        E 21 99 24 6f
        E 242 89 24 40
        E 60 99 26 7f
        E 85 89 26 40
        E 2 99 26 7f
        E 242 89 26 40
        E 213 99 26 77
        E 69 89 26 40
        E 4 99 26 71
        E 241 89 26 40
        E 232 99 24 55
        E 244 89 24 40
        E 259 99 30 7f
        E 67 89 30 40
        E 3 99 30 7f
        E 239 89 30 40
        E 751 b9 04 25
        E 73 99 24 51
        E 243 89 24 40
        E 15 b9 04 20
        E 278 99 2d 7f
        E 2 99 29 7f
        E 242 89 2d 40
        E 2 89 29 40
        E 155 b9 04 25
        E 657 99 26 7f
        E 85 99 28 74
        E 113 b9 04 30
        E 44 89 26 40
        E 84 89 28 40
        E 2 b9 04 41
        E 227 b9 04 47
        E 467 b9 04 3c
        E 94 99 24 49
        E 53 b9 04 30
        E 189 89 24 40
        E 326 99 30 7f
        E 41 b9 04 36
        E 36 89 30 40
        E 0 99 30 7f
        E 242 89 30 40
        E 620 b9 04 32
        E 105 99 24 5f
        E 241 89 24 40
        E 25 b9 04 2c
        E 241 99 29 7f
        E 9 99 2d 7f
        E 232 89 29 40
        E 10 89 2d 40
        E 128 b9 04 32
        E 418 b9 04 2e
        E 249 99 26 7f
        E 72 89 26 40
        E 3 99 26 72
        E 203 b9 04 25
        E 36 89 26 40
        E 230 99 26 4f
        E 198 b9 04 2c
        E 43 89 26 40
        E 264 99 24 5c
        E 243 89 24 40
        E 298 99 2d 7f
        E 12 99 30 7f
        E 229 89 2d 40
        E 12 89 30 40
        E 467 b9 04 30
        E 253 99 24 5a
        E 244 89 24 40
        E 314 99 29 7f
        E 5 99 2d 7f
        E 240 89 29 40
        E 2 89 2d 40
        E 534 b9 04 2c
        E 197 99 26 7f
        E 95 99 28 7f
        E 147 89 26 40
        E 95 89 28 40
        E 259 99 26 73
        E 229 89 26 40
        E 2 99 26 4b
        E 239 89 26 40
        E 37 99 26 7c
        E 60 b9 04 27
        E 179 89 26 40
        E 9 99 26 5b
        E 243 89 26 40
        E 45 99 30 64
        E 244 89 30 40
        E 27 99 30 4d
        E 227 89 30 40
        E 1 99 30 7f
        E 240 89 30 40
        E 31 99 30 6b
        E 242 89 30 40
        E 39 99 2d 7f
        E 241 89 2d 40
        E 17 99 2d 3d
        E 228 89 2d 40
        E 4 99 2d 76
        E 239 89 2d 40
        E 47 99 2d 5c
        E 244 89 2d 40
        E 21 99 29 5c
        E 237 89 29 40
        E 2 99 29 51
        E 17 b9 04 20
        E 225 89 29 40
        E 24 b9 04 18
        E 34 99 24 7f
        E 43 99 3b 7f
        E 119 b9 04 0f
        E 82 89 24 40
        E 40 89 3b 40
        E 542 b9 04 15
        E 1222 b9 04 0f
        E 324 b9 04 06
        E 1148 b9 04 00
        E 34346 b0 7b 00
        GUID {D99A441D-C0B3-46D5-902C-F7424684DDD4}
        IGNTEMPO 0 120 4 4
        SRCCOLOR 505
        VELLANE -1 100 0
      >
      TAKE SEL
      NAME "01-EZdrummer-Recorded MIDI"
      TAKEVOLPAN 0 1 -1
      SOFFS 0 0
      PLAYRATE 1 1 0 -1 0 0.0025
      CHANMODE 0
      TAKECOLOR 30590805 R
      GUID {5EF3F127-3ED5-49D6-B6C7-327D325D21A3}
      RECPASS 4
      <SOURCE MIDI
        HASDATA 1 960 QN
        POOLEDEVTS {DDE6012A-E810-4EB0-93F6-6448A1F4CEA3}
        E 2009 b9 04 0f
        E 280 b9 04 1a
        E 314 b9 04 22
        E 713 b9 04 1d
        E 1196 b9 04 18
        E 330 b9 04 12
        E 281 b9 04 09
        E 282 b9 04 03
        E 216 b9 04 00
        E 649 b9 04 06
        E 334 b9 04 0f
        E 1357 b9 04 09
        E 5144 b9 04 12
        E 251 b9 04 1d
        E 256 b9 04 2c
        E 181 b9 04 36
        E 1494 b9 04 3a
        E 546 b9 04 32
        E 113 b9 04 22
        E 162 b9 04 1a
        E 227 b9 04 12
        E 2460 b9 04 1a
        E 526 b9 04 27
        E 1006 b9 04 20
        E 203 b9 04 27
        E 819 b9 04 1d
        E 91 99 24 7f
        E 206 b9 04 15
        E 38 89 24 40
        E 447 b9 04 1a
        E 123 99 24 7f
        E 244 89 24 40
        E 220 99 26 7f
        E 100 89 26 40
        E 2 99 26 7f
        E 239 89 26 40
        E 432 b9 04 25
        E 201 b9 04 20
        E 2706 99 30 7f
        E 17 99 2d 7f
        E 227 89 30 40
        E 19 89 2d 40
        E 534 99 2d 7f
        E 2 99 29 7f
        E 239 89 2d 40
        E 3 89 29 40
        E 332 b9 04 15
        E 270 99 24 7f
        E 244 89 24 40
        E 548 99 24 7f
        E 36 b9 04 0c
        E 208 89 24 40
        E 182 99 26 7f
        E 118 99 28 7f
        E 29 b9 04 12
        E 96 89 26 40
        E 88 b9 04 18
        E 28 89 28 40
        E 362 b9 04 25
        E 303 b9 04 20
        E 401 b9 04 30
        E 282 b9 04 25
        E 411 b9 04 30
        E 177 b9 04 20
        E 302 99 30 7f
        E 33 99 2d 7f
        E 5 b9 04 27
        E 206 89 30 40
        E 31 89 2d 40
        E 16 b9 04 20
        E 83 99 30 7f
        E 32 99 2d 7f
        E 212 89 30 40
        E 31 89 2d 40
        E 90 99 30 7f
        E 26 99 2d 7f
        E 218 89 30 40
        E 26 89 2d 40
        E 119 99 2d 7f
        E 2 99 30 7f
        E 242 89 2d 40
        E 0 89 30 40
        E 133 99 29 65
        E 26 99 2d 7f
        E 111 b9 04 1a
        E 107 89 29 40
        E 27 89 2d 40
        E 106 99 29 7f
        E 48 99 2d 7f
        E 196 89 29 40
        E 45 89 2d 40
        E 404 b9 04 0f
        E 70 99 24 7f
        E 244 89 24 40
        E 355 b9 04 20
        E 41 b9 04 30
        E 131 b9 04 34
        E 19 99 24 7f
        E 17 b9 04 22
        E 44 b9 04 12
        E 53 b9 04 00
        E 130 89 24 40
        E 172 99 26 7f
        E 104 b9 04 12
        E 4 99 28 7f
        E 39 b9 04 22
        E 21 b9 04 32
        E 20 b9 04 43
        E 51 b9 04 32
        E 5 89 26 40
        E 55 b9 04 22
        E 53 89 28 40
        E 87 b9 04 15
        E 109 b9 04 25
        E 51 b9 04 36
        E 53 b9 04 46
        E 90 b9 04 36
        E 43 b9 04 25
        E 31 b9 04 15
        E 4 99 24 67
        E 40 b9 04 03
        E 14 b9 04 00
        E 191 89 24 40
        E 189 99 2d 7f
        E 9 99 30 7f
        E 44 b9 04 12
        E 16 b9 04 22
        E 49 b9 04 32
        E 10 b9 04 44
        E 2 b9 04 4d
        E 2 99 2c 26
        E 3 b9 04 54
        E 12 b9 04 44
        E 5 b9 04 34
        E 8 b9 04 22
        E 16 b9 04 12
        E 68 89 2d 40
        E 9 89 30 40
        E 123 89 2c 40
        E 186 b9 04 1d
        E 90 b9 04 2e
        E 26 b9 04 3e
        E 49 b9 04 4f
        E 2 99 2c 06
        E 2 b9 04 4f
        E 153 b9 04 3f
        E 34 b9 04 2e
        E 29 b9 04 1d
        E 24 89 2c 40
        E 26 b9 04 0c
        E 34 b9 04 00
        E 34 99 24 6d
        E 242 89 24 40
        E 128 b9 04 12
        E 7 99 26 7f
        E 43 b9 04 22
        E 12 b9 04 32
        E 5 b9 04 43
        E 2 b9 04 4c
        E 3 99 2c 2a
        E 20 b9 04 32
        E 4 b9 04 20
        E 5 89 26 40
        E 2 99 26 7f
        E 10 b9 04 0f
        E 135 b9 04 20
        E 47 b9 04 30
        E 21 89 2c 40
        E 29 89 26 40
        E 104 b9 04 20
        E 29 99 24 5f
        E 26 b9 04 0f
        E 42 b9 04 00
        E 176 89 24 40
        E 123 b9 04 12
        E 7 99 30 7f
        E 17 99 2d 7f
        E 5 b9 04 22
        E 17 b9 04 32
        E 10 b9 04 43
        E 4 b9 04 4d
        E 0 99 2c 22
        E 5 b9 04 53
        E 24 b9 04 43
        E 10 b9 04 32
        E 153 89 30 40
        E 16 89 2d 40
        E 37 89 2c 40
        E 75 b9 04 22
        E 41 b9 04 12
        E 9 99 24 68
        E 34 b9 04 00
        E 210 89 24 40
        E 119 b9 04 12
        E 15 b9 04 22
        E 0 99 29 7f
        E 2 99 2d 7f
        E 28 b9 04 32
        E 8 b9 04 43
        E 7 b9 04 4c
        E 3 99 2c 22
        E 14 b9 04 32
        E 7 b9 04 20
        E 135 b9 04 30
        E 39 89 29 40
        E 3 89 2d 40
        E 43 89 2c 40
        E 60 b9 04 20
        E 66 b9 04 0f
        E 45 b9 04 00
        E 334 b9 04 12
        E 10 b9 04 25
        E 14 99 24 7c
        E 15 b9 04 36
        E 9 b9 04 47
        E 3 b9 04 4c
        E 2 99 2c 28
        E 19 b9 04 36
        E 10 b9 04 25
        E 32 b9 04 15
        E 154 89 24 40
        E 27 89 2c 40
        E 36 b9 04 25
        E 87 b9 04 36
        E 87 b9 04 46
        E 31 b9 04 4f
        E 3 99 2c 06
        E 29 b9 04 56
        E 118 b9 04 46
        E 32 b9 04 36
        E 31 b9 04 22
        E 31 89 2c 40
        E 5 99 24 64
        E 2 b9 04 12
        E 46 b9 04 00
        E 196 89 24 40
        E 193 99 26 7f
        E 32 b9 04 12
        E 15 b9 04 22
        E 45 b9 04 32
        E 7 b9 04 44
        E 3 b9 04 4d
        E 2 99 2c 2e
        E 2 b9 04 54
        E 7 89 26 40
        E 3 99 26 7f
        E 8 b9 04 44
        E 7 b9 04 34
        E 7 b9 04 20
        E 128 b9 04 12
        E 81 89 2c 40
        E 11 89 26 40
        E 157 b9 04 22
        E 34 b9 04 32
        E 17 b9 04 43
        E 14 b9 04 4d
        E 3 99 2c 0e
        E 8 b9 04 53
        E 60 b9 04 63
        E 86 b9 04 53
        E 30 b9 04 43
        E 23 b9 04 32
        E 20 b9 04 22
        E 17 89 2c 40
        E 7 b9 04 12
        E 39 b9 04 00
        E 50 99 24 64
        E 245 89 24 40
        E 99 99 2d 7f
        E 17 99 30 7f
        E 19 b9 04 12
        E 17 b9 04 22
        E 36 b9 04 34
        E 3 b9 04 47
        E 2 b9 04 4c
        E 2 99 2c 4a
        E 3 b9 04 5c
        E 16 b9 04 49
        E 5 b9 04 36
        E 9 b9 04 25
        E 50 b9 04 36
        E 65 89 2d 40
        E 14 89 30 40
        E 79 89 2c 40
        E 20 b9 04 25
        E 56 b9 04 15
        E 147 b9 04 06
        E 140 b9 04 18
        E 20 b9 04 29
        E 19 b9 04 3a
        E 16 b9 04 4a
        E 2 b9 04 4d
        E 3 99 2c 10
        E 13 b9 04 5a
        E 29 b9 04 4a
        E 57 b9 04 3a
        E 145 89 2c 40
        E 46 b9 04 46
        E 58 b9 04 36
        E 39 b9 04 25
        E 38 b9 04 15
        E 10 99 24 63
        E 48 b9 04 03
        E 15 b9 04 00
        E 181 89 24 40
        E 138 99 26 7f
        E 17 b9 04 12
        E 10 b9 04 22
        E 12 b9 04 32
        E 29 b9 04 43
        E 2 b9 04 4c
        E 0 99 2c 2a
        E 2 b9 04 54
        E 20 b9 04 44
        E 4 b9 04 34
        E 3 89 26 40
        E 3 99 26 7f
        E 4 b9 04 22
        E 109 b9 04 32
        E 99 89 2c 40
        E 29 89 26 40
        E 46 b9 04 22
        E 41 b9 04 12
        E 7 99 24 60
        E 37 b9 04 00
        E 208 89 24 40
        E 77 b9 04 12
        E 36 b9 04 22
        E 14 b9 04 32
        E 6 b9 04 44
        E 1 b9 04 4d
        E 2 99 2c 30
        E 3 b9 04 54
        E 2 99 30 7f
        E 11 99 2d 7f
        E 2 b9 04 44
        E 7 b9 04 32
        E 13 b9 04 22
        E 75 b9 04 32
        E 45 b9 04 43
        E 87 89 2c 40
        E 2 89 30 40
        E 13 89 2d 40
        E 29 b9 04 32
        E 33 b9 04 22
        E 37 b9 04 12
        E 31 99 24 64
        E 17 b9 04 00
        E 227 89 24 40
        E 101 b9 04 12
        E 15 b9 04 22
        E 37 b9 04 32
        E 5 b9 04 43
        E 6 99 2d 7f
        E 3 b9 04 4c
        E 2 99 2c 24
        E 5 99 29 7c
        E 7 b9 04 32
        E 7 b9 04 20
        E 17 b9 04 0f
        E 119 b9 04 20
        E 32 b9 04 30
        E 53 89 2d 40
        E 2 b9 04 41
        E 2 89 2c 40
        E 5 89 29 40
        E 84 b9 04 30
        E 8 99 24 68
        E 27 b9 04 20
        E 36 b9 04 0f
        E 29 b9 04 00
        E 151 89 24 40
        E 182 b9 04 12
        E 7 b9 04 25
        E 3 99 24 7f
        E 2 b9 04 38
        E 3 b9 04 49
        E 2 b9 04 4c
        E 2 99 2c 34
        E 35 b9 04 5b
        E 6 b9 04 6b
        E 15 b9 04 58
        E 7 b9 04 47
        E 15 b9 04 36
        E 50 b9 04 25
        E 73 b9 04 15
        E 34 89 24 40
        E 7 89 2c 40
        E 94 b9 04 25
        E 130 b9 04 36
        E 76 b9 04 46
        E 40 b9 04 4f
        E 0 99 2c 06
        E 97 b9 04 4a
        E 46 b9 04 3a
        E 22 99 24 5e
        E 14 b9 04 29
        E 39 b9 04 18
        E 27 89 2c 40
        E 26 b9 04 06
        E 37 b9 04 00
        E 100 89 24 40
        E 265 99 26 7f
        E 4 99 2d 7f
        E 61 b9 04 12
        E 27 b9 04 22
        E 19 b9 04 32
        E 11 b9 04 43
        E 2 b9 04 4c
        E 3 99 2c 22
        E 5 b9 04 53
        E 12 b9 04 43
        E 8 b9 04 32
        E 6 b9 04 22
        E 23 b9 04 12
        E 60 89 26 40
        E 2 89 2d 40
        E 127 89 2c 40
        E 98 b9 04 22
        E 29 b9 04 32
        E 22 b9 04 43
        E 14 b9 04 4d
        E 3 99 2c 0c
        E 9 b9 04 53
        E 155 b9 04 43
        E 26 b9 04 32
        E 22 b9 04 22
        E 26 b9 04 12
        E 6 89 2c 40
        E 17 99 24 5d
        E 19 b9 04 00
        E 222 89 24 40
        E 135 99 30 7f
        E 8 99 2d 7f
        E 48 b9 04 12
        E 15 b9 04 22
        E 40 b9 04 34
        E 6 b9 04 44
        E 2 b9 04 4d
        E 2 99 2c 44
        E 3 b9 04 55
        E 14 b9 04 43
        E 4 b9 04 32
        E 8 b9 04 20
        E 92 89 30 40
        E 2 b9 04 30
        E 5 89 2d 40
        E 113 89 2c 40
        E 51 b9 04 20
        E 83 b9 04 0f
        E 84 b9 04 00
        E 194 b9 04 12
        E 21 b9 04 22
        E 10 b9 04 32
        E 17 b9 04 43
        E 5 b9 04 4c
        E 2 99 2c 12
        E 5 b9 04 53
        E 34 b9 04 43
        E 202 89 2c 40
        E 47 b9 04 32
        E 26 b9 04 22
        E 41 99 24 5f
        E 3 b9 04 12
        E 53 b9 04 00
        E 186 89 24 40
        E 116 99 26 7f
        E 24 b9 04 12
        E 9 b9 04 22
        E 27 b9 04 32
        E 15 b9 04 44
        E 2 b9 04 4d
        E 2 99 2c 2c
        E 3 b9 04 56
        E 3 89 26 40
        E 2 99 26 7f
        E 14 b9 04 46
        E 5 b9 04 36
        E 14 b9 04 25
        E 202 89 2c 40
        E 9 89 26 40
        E 14 b9 04 30
        E 49 b9 04 20
        E 38 99 24 58
        E 27 b9 04 0f
        E 43 b9 04 00
        E 172 89 24 40
        E 109 b9 04 12
        E 22 99 2d 7f
        E 7 b9 04 22
        E 7 99 30 7f
        E 7 b9 04 32
        E 5 b9 04 44
        E 5 b9 04 4d
        E 2 99 2c 32
        E 2 b9 04 54
        E 19 b9 04 43
        E 8 b9 04 32
        E 145 b9 04 43
        E 37 89 2d 40
        E 14 89 30 40
        E 17 89 2c 40
        E 60 b9 04 32
        E 32 b9 04 22
        E 34 b9 04 12
        E 7 99 24 65
        E 38 b9 04 00
        E 206 89 24 40
        E 135 99 2d 7f
        E 3 b9 04 12
        E 9 b9 04 22
        E 17 99 29 7f
        E 12 b9 04 32
        E 7 b9 04 43
        E 5 b9 04 4c
        E 2 99 2c 26
        E 3 b9 04 53
        E 10 b9 04 43
        E 7 b9 04 32
        E 8 b9 04 20
        E 23 b9 04 0f
        E 73 b9 04 20
        E 50 b9 04 30
        E 15 89 2d 40
        E 27 89 29 40
        E 26 89 2c 40
        E 77 b9 04 20
        E 58 b9 04 0f
        E 39 b9 04 00
        E 331 b9 04 12
        E 11 99 24 72
        E 3 b9 04 25
        E 32 b9 04 36
        E 5 b9 04 46
        E 2 b9 04 4d
        E 2 99 2c 26
        E 19 b9 04 36
        E 11 b9 04 22
        E 21 b9 04 12
        E 150 89 24 40
        E 44 89 2c 40
        E 112 b9 04 22
        E 146 b9 04 32
        E 46 b9 04 43
        E 31 b9 04 4f
        E 2 99 2c 08
        E 8 b9 04 53
        E 145 b9 04 43
        E 29 b9 04 32
        E 5 99 24 77
        E 17 b9 04 22
        E 33 b9 04 12
        E 5 89 2c 40
        E 39 b9 04 00
        E 150 89 24 40
        E 215 99 26 7f
        E 24 b9 04 12
        E 12 b9 04 25
        E 41 89 26 40
        E 3 99 26 7f
        E 5 b9 04 36
        E 9 b9 04 46
        E 3 b9 04 4d
        E 2 99 2c 28
        E 3 b9 04 56
        E 22 b9 04 46
        E 4 b9 04 34
        E 10 b9 04 22
        E 55 b9 04 12
        E 128 89 26 40
        E 22 89 2c 40
        E 116 b9 04 22
        E 24 b9 04 32
        E 19 b9 04 43
        E 15 b9 04 4d
        E 2 99 2c 0e
        E 7 b9 04 53
        E 52 b9 04 63
        E 89 b9 04 53
        E 24 b9 04 43
        E 27 b9 04 32
        E 17 b9 04 22
        E 23 b9 04 12
        E 3 89 2c 40
        E 29 99 24 5c
        E 12 b9 04 00
        E 232 89 24 40
        E 145 99 2d 7f
        E 5 99 30 7f
        E 9 b9 04 12
        E 15 b9 04 22
        E 36 b9 04 32
        E 5 b9 04 43
        E 2 b9 04 4c
        E 3 99 2c 40
        E 2 b9 04 53
        E 15 b9 04 41
        E 5 b9 04 30
        E 7 b9 04 20
        E 140 89 2d 40
        E 5 89 30 40
        E 7 b9 04 30
        E 61 89 2c 40
        E 86 b9 04 36
        E 66 b9 04 25
        E 43 b9 04 15
        E 53 b9 04 03
        E 19 b9 04 00
        E 183 b9 04 12
        E 23 b9 04 25
        E 9 b9 04 36
        E 13 b9 04 46
        E 2 b9 04 4c
        E 2 99 2c 18
        E 8 b9 04 56
        E 77 b9 04 46
        E 153 b9 04 51
        E 4 89 2c 40
        E 61 b9 04 41
        E 31 b9 04 30
        E 5 99 24 5d
        E 21 b9 04 20
        E 49 b9 04 0f
        E 48 b9 04 00
        E 126 89 24 40
        E 169 99 26 7f
        E 31 b9 04 12
        E 54 b9 04 22
        E 9 b9 04 34
        E 5 b9 04 44
        E 2 b9 04 4c
        E 3 99 2c 36
        E 2 b9 04 55
        E 17 b9 04 44
        E 0 b9 04 34
        E 7 b9 04 22
        E 15 b9 04 12
        E 99 89 26 40
        E 101 89 2c 40
        E 34 99 26 7f
        E 114 b9 04 22
        E 130 89 26 40
        E 7 b9 04 2c
        E 141 99 30 7f
        E 35 b9 04 25
        E 209 89 30 40
        E 128 99 30 7f
        E 110 b9 04 1a
        E 133 89 30 40
        E 119 99 2d 7f
        E 145 b9 04 2c
        E 37 b9 04 3c
        E 33 b9 04 4c
        E 2 b9 04 4d
        E 2 99 2c 08
        E 25 89 2d 40
        E 102 99 2d 7f
        E 26 b9 04 3c
        E 39 b9 04 2c
        E 34 b9 04 1a
        E 19 89 2c 40
        E 14 b9 04 09
        E 20 b9 04 00
        E 89 89 2d 40
        E 155 99 24 7f
        E 29 b9 04 12
        E 26 b9 04 22
        E 10 b9 04 32
        E 9 b9 04 43
        E 3 b9 04 4c
        E 2 99 2c 24
        E 5 b9 04 53
        E 17 b9 04 41
        E 7 b9 04 30
        E 37 b9 04 20
        E 96 89 24 40
        E 3 b9 04 0f
        E 80 89 2c 40
        E 113 b9 04 20
        E 36 b9 04 30
        E 37 b9 04 41
        E 24 b9 04 4d
        E 2 99 2c 0a
        E 7 b9 04 51
        E 134 b9 04 58
        E 40 b9 04 47
        E 32 b9 04 36
        E 26 b9 04 25
        E 3 89 2c 40
        E 22 99 24 60
        E 4 b9 04 15
        E 39 b9 04 03
        E 9 b9 04 00
        E 189 89 24 40
        E 162 99 26 7f
        E 22 b9 04 12
        E 14 b9 04 22
        E 46 b9 04 32
        E 7 b9 04 43
        E 3 b9 04 4c
        E 2 99 2c 2e
        E 2 b9 04 54
        E 8 99 28 7f
        E 7 b9 04 44
        E 7 b9 04 32
        E 7 b9 04 20
        E 20 b9 04 0f
        E 99 89 26 40
        E 94 89 2c 40
        E 10 89 28 40
        E 123 b9 04 20
        E 29 b9 04 30
        E 24 b9 04 41
        E 15 b9 04 4d
        E 2 99 2c 0c
        E 7 b9 04 51
        E 42 b9 04 61
        E 135 b9 04 51
        E 29 b9 04 41
        E 23 b9 04 30
        E 5 89 2c 40
        E 15 b9 04 20
        E 39 b9 04 0f
        E 39 b9 04 00
        E 24 99 24 66
        E 241 89 24 40
        E 123 99 30 7f
        E 3 99 2d 7f
        E 19 b9 04 12
        E 44 b9 04 22
        E 5 b9 04 34
        E 2 b9 04 47
        E 3 b9 04 4c
        E 2 99 2c 44
        E 4 b9 04 58
        E 13 b9 04 46
        E 5 b9 04 34
        E 7 b9 04 22
        E 17 b9 04 12
        E 120 89 30 40
        E 3 89 2d 40
        E 29 b9 04 1d
        E 45 89 2c 40
        E 87 b9 04 29
        E 170 b9 04 18
        E 157 b9 04 0f
        E 41 b9 04 20
        E 24 b9 04 30
        E 22 b9 04 41
        E 15 b9 04 4d
        E 2 99 2c 10
        E 7 b9 04 51
        E 56 b9 04 41
        E 154 b9 04 51
        E 27 89 2c 40
        E 106 b9 04 41
        E 36 b9 04 30
        E 29 b9 04 20
        E 36 b9 04 0f
        E 13 99 24 6c
        E 20 b9 04 00
        E 221 89 24 40
        E 102 99 26 7f
        E 2 b9 04 12
        E 3 b9 04 22
        E 7 b9 04 32
        E 34 b9 04 43
        E 5 b9 04 4c
        E 2 99 2c 1c
        E 2 b9 04 54
        E 5 b9 04 65
        E 15 b9 04 55
        E 7 b9 04 44
        E 7 b9 04 34
        E 8 89 26 40
        E 2 99 26 7f
        E 36 b9 04 22
        E 160 89 2c 40
        E 41 b9 04 30
        E 2 89 26 40
        E 65 b9 04 20
        E 39 99 24 50
        E 24 b9 04 0f
        E 42 b9 04 00
        E 178 89 24 40
        E 99 b9 04 12
        E 36 99 2d 7f
        E 2 b9 04 22
        E 8 b9 04 32
        E 0 99 30 7f
        E 7 b9 04 43
        E 2 b9 04 4c
        E 5 99 2c 28
        E 12 b9 04 32
        E 10 b9 04 20
        E 114 b9 04 30
        E 46 b9 04 41
        E 38 89 2d 40
        E 10 89 30 40
        E 12 89 2c 40
        E 75 b9 04 30
        E 26 b9 04 20
        E 32 99 24 5f
        E 10 b9 04 0f
        E 30 b9 04 00
        E 202 89 24 40
        E 130 b9 04 12
        E 2 99 2d 7f
        E 10 b9 04 22
        E 9 99 29 7f
        E 25 b9 04 32
        E 7 b9 04 43
        E 5 b9 04 4c
        E 2 99 2c 26
        E 17 b9 04 32
        E 7 b9 04 22
        E 13 b9 04 12
        E 123 b9 04 22
        E 26 89 2d 40
        E 13 b9 04 32
        E 6 89 29 40
        E 39 89 2c 40
        E 124 b9 04 22
        E 38 b9 04 12
        E 49 b9 04 00
        E 331 b9 04 12
        E 7 99 24 79
        E 5 b9 04 25
        E 12 b9 04 36
        E 26 b9 04 46
        E 3 b9 04 4c
        E 2 99 2c 28
        E 2 b9 04 56
        E 22 b9 04 46
        E 3 b9 04 36
        E 19 b9 04 25
        E 63 b9 04 15
        E 87 89 24 40
        E 48 89 2c 40
        E 111 b9 04 25
        E 155 b9 04 36
        E 63 b9 04 46
        E 24 b9 04 4f
        E 3 99 2c 08
        E 31 b9 04 56
        E 113 b9 04 46
        E 32 b9 04 36
        E 19 99 24 6e
        E 9 b9 04 25
        E 32 b9 04 15
        E 7 89 2c 40
        E 39 b9 04 03
        E 19 b9 04 00
        E 138 89 24 40
        E 191 99 26 7f
        E 51 b9 04 12
        E 36 89 26 40
        E 3 99 26 7f
        E 86 b9 04 22
        E 16 b9 04 32
        E 11 b9 04 44
        E 5 b9 04 4c
        E 2 99 2c 1c
        E 4 b9 04 54
        E 15 b9 04 44
        E 12 b9 04 34
        E 68 b9 04 22
        E 22 89 26 40
        E 108 b9 04 18
        E 15 89 2c 40
        E 73 b9 04 29
        E 28 b9 04 3a
        E 25 b9 04 4a
        E 10 b9 04 4f
        E 1 99 2c 0a
        E 32 b9 04 5a
        E 121 b9 04 4a
        E 24 b9 04 3a
        E 26 b9 04 29
        E 27 99 24 60
        E 2 b9 04 18
        E 13 89 2c 40
        E 19 b9 04 06
        E 19 b9 04 00
        E 191 89 24 40
        E 174 99 2d 7f
        E 3 99 30 7f
        E 36 b9 04 12
        E 11 b9 04 25
        E 42 b9 04 36
        E 12 b9 04 47
        E 3 b9 04 4c
        E 0 99 2c 2a
        E 2 b9 04 58
        E 19 b9 04 47
        E 7 b9 04 36
        E 11 b9 04 25
        E 47 b9 04 15
        E 48 89 2d 40
        E 2 89 30 40
        E 108 89 2c 40
        E 75 b9 04 0f
        E 224 b9 04 20
        E 61 b9 04 30
        E 215 b9 04 41
        E 135 b9 04 30
        E 46 b9 04 20
        E 72 b9 04 0f
        E 40 99 26 7f
        E 88 b9 04 00
        E 82 89 26 40
        E 3 99 26 7f
        E 92 b9 04 12
        E 50 b9 04 22
        E 54 89 26 40
        E 2 99 26 6b
        E 31 b9 04 12
        E 165 b9 04 09
        E 17 89 26 40
        E 2 99 26 77
        E 152 b9 04 15
        E 53 89 26 40
        E 3 99 26 7a
        E 198 89 26 40
        E 0 99 26 6e
        E 159 b9 04 20
        E 37 99 30 7f
        E 48 89 26 40
        E 147 89 30 40
        E 2 99 30 7f
        E 168 89 30 40
        E 2 99 30 7f
        E 217 89 30 40
        E 3 99 30 7f
        E 34 b9 04 18
        E 147 99 2d 7f
        E 60 89 30 40
        E 148 89 2d 40
        E 2 99 2d 7f
        E 147 89 2d 40
        E 3 99 2d 74
        E 14 b9 04 29
        E 150 b9 04 30
        E 17 89 2d 40
        E 2 99 2d 7f
        E 56 b9 04 20
        E 85 b9 04 0f
        E 82 99 24 7a
        E 19 89 2d 40
        E 225 89 24 40
        E 161 b9 04 1a
        E 177 b9 04 2c
        E 58 b9 04 3c
        E 44 b9 04 4c
        E 2 99 2c 06
        E 2 b9 04 4c
        E 89 99 24 72
        E 44 b9 04 3c
        E 37 b9 04 2c
        E 38 b9 04 1a
        E 34 89 2c 40
        E 14 b9 04 09
        E 44 b9 04 00
        E 33 89 24 40
        E 177 99 26 7f
        E 82 99 28 66
        E 109 b9 04 12
        E 34 b9 04 22
        E 16 b9 04 32
        E 3 89 26 40
        E 20 b9 04 43
        E 9 b9 04 4c
        E 0 99 2c 10
        E 19 b9 04 32
        E 12 b9 04 20
        E 22 89 28 40
        E 68 b9 04 0f
        E 123 89 2c 40
        E 17 b9 04 20
        E 22 b9 04 30
        E 26 b9 04 41
        E 36 b9 04 4f
        E 2 99 2c 08
        E 131 b9 04 30
        E 27 b9 04 20
        E 36 b9 04 0f
        E 10 99 24 57
        E 22 b9 04 00
        E 19 89 2c 40
        E 202 89 24 40
        E 127 99 2d 7f
        E 2 99 30 7f
        E 34 b9 04 12
        E 11 b9 04 22
        E 44 b9 04 32
        E 5 b9 04 43
        E 3 b9 04 4d
        E 2 99 2c 36
        E 2 b9 04 53
        E 18 b9 04 43
        E 4 b9 04 32
        E 5 b9 04 22
        E 11 b9 04 12
        E 100 89 2d 40
        E 3 89 30 40
        E 26 b9 04 22
        E 75 89 2c 40
        E 167 b9 04 12
        E 133 b9 04 00
        E 162 b9 04 12
        E 28 b9 04 22
        E 17 b9 04 32
        E 15 b9 04 43
        E 9 b9 04 4c
        E 2 99 2c 14
        E 242 89 2c 40
        E 31 b9 04 32
        E 35 b9 04 22
        E 33 99 24 55
        E 3 b9 04 12
        E 58 b9 04 00
        E 184 89 24 40
        E 99 99 26 7f
        E 12 b9 04 12
        E 19 b9 04 22
        E 24 b9 04 32
        E 9 b9 04 44
        E 0 b9 04 4c
        E 3 99 2c 2c
        E 2 b9 04 55
        E 8 89 26 40
        E 2 99 26 7f
        E 13 b9 04 44
        E 6 b9 04 34
        E 56 b9 04 22
        E 150 b9 04 32
        E 8 89 2c 40
        E 8 89 26 40
        E 98 b9 04 20
        E 5 99 24 56
        E 50 b9 04 0f
        E 39 b9 04 00
        E 152 89 24 40
        E 118 b9 04 12
        E 8 99 2d 7f
        E 7 99 30 7f
        E 5 b9 04 22
        E 11 b9 04 32
        E 10 b9 04 43
        E 6 b9 04 4c
        E 2 99 2c 1e
        E 2 b9 04 53
        E 14 b9 04 43
        E 10 b9 04 32
        E 142 b9 04 43
        E 35 89 2d 40
        E 6 89 30 40
        E 32 89 2c 40
        E 61 b9 04 32
        E 35 b9 04 22
        E 20 99 24 64
        E 20 b9 04 12
        E 47 b9 04 00
        E 178 89 24 40
        E 120 99 2d 7f
        E 15 b9 04 12
        E 0 99 29 7f
        E 32 b9 04 22
        E 18 b9 04 34
        E 5 b9 04 44
        E 3 b9 04 4d
        E 2 99 2c 30
        E 2 b9 04 55
        E 14 b9 04 43
        E 8 b9 04 32
        E 5 b9 04 22
        E 99 b9 04 32
        E 41 89 2d 40
        E 15 89 29 40
        E 58 89 2c 40
        E 63 b9 04 22
        E 43 b9 04 12
        E 46 b9 04 00
        E 345 b9 04 12
        E 5 99 24 7a
        E 3 b9 04 22
        E 9 b9 04 32
        E 29 b9 04 44
        E 5 b9 04 4d
        E 2 99 2c 26
        E 3 b9 04 55
        E 17 b9 04 43
        E 7 b9 04 32
        E 12 b9 04 20
        E 158 89 24 40
        E 4 b9 04 12
        E 43 89 2c 40
        E 119 b9 04 22
        E 119 b9 04 32
        E 62 b9 04 43
        E 34 b9 04 4f
        E 2 99 2c 08
        E 9 b9 04 53
        E 153 b9 04 43
        E 34 b9 04 32
        E 21 b9 04 22
        E 2 99 24 6c
        E 25 89 2c 40
        E 12 b9 04 12
        E 46 b9 04 00
        E 160 89 24 40
        E 184 99 26 7f
        E 18 b9 04 12
        E 18 b9 04 22
        E 34 b9 04 32
        E 9 99 28 7f
        E 7 b9 04 43
        E 3 b9 04 4d
        E 2 99 2c 1c
        E 3 b9 04 53
        E 24 b9 04 41
        E 7 b9 04 30
        E 10 b9 04 20
        E 109 89 26 40
        E 16 b9 04 0f
        E 63 89 28 40
        E 12 89 2c 40
        E 135 b9 04 20
        E 29 b9 04 30
        E 29 b9 04 41
        E 15 b9 04 4d
        E 2 99 2c 0e
        E 3 b9 04 51
        E 35 b9 04 61
        E 134 b9 04 51
        E 26 b9 04 41
        E 22 b9 04 30
        E 20 b9 04 20
        E 2 89 2c 40
        E 36 b9 04 0f
        E 31 99 24 65
        E 7 b9 04 00
        E 235 89 24 40
        E 148 99 2d 7f
        E 14 99 30 7f
        E 5 b9 04 12
        E 12 b9 04 25
        E 41 b9 04 36
        E 2 b9 04 47
        E 3 b9 04 4c
        E 2 99 2c 3e
        E 5 b9 04 58
        E 11 b9 04 47
        E 9 b9 04 36
        E 7 b9 04 20
        E 106 b9 04 30
        E 27 89 2d 40
        E 12 89 30 40
        E 65 89 2c 40
        E 109 b9 04 20
        E 161 b9 04 0f
        E 184 b9 04 20
        E 17 b9 04 30
        E 20 b9 04 41
        E 12 b9 04 4d
        E 2 99 2c 10
        E 2 b9 04 51
        E 145 b9 04 41
        E 27 b9 04 30
        E 23 b9 04 20
        E 47 b9 04 0f
        E 0 89 2c 40
        E 48 b9 04 00
        E 104 99 26 7f
        E 34 89 26 40
        E 2 99 26 7f
        E 160 b9 04 12
        E 79 89 26 40
        E 105 99 26 79
        E 33 89 26 40
        E 2 99 26 7f
        E 129 b9 04 22
        E 36 b9 04 32
        E 45 b9 04 43
        E 30 89 26 40
        E 138 b9 04 32
        E 6 99 24 5b
        E 32 b9 04 22
        E 50 b9 04 12
        E 105 b9 04 00
        E 55 89 24 40
        E 119 99 2d 7f
        E 7 99 30 7f
        E 58 b9 04 12
        E 29 b9 04 22
        E 22 b9 04 32
        E 16 b9 04 43
        E 15 b9 04 4c
        E 0 99 2c 0e
        E 39 b9 04 32
        E 58 89 2d 40
        E 7 89 30 40
        E 140 89 2c 40
        E 44 b9 04 22
        E 1 99 24 52
        E 93 b9 04 12
        E 149 89 24 40
        E 58 b9 04 03
        E 83 99 2d 7f
        E 2 99 29 7f
        E 39 b9 04 15
        E 41 b9 04 25
        E 56 b9 04 15
        E 106 89 2d 40
        E 2 89 29 40
        E 58 b9 04 25
        E 49 b9 04 36
        E 2 99 29 7f
        E 41 99 2d 7f
        E 77 b9 04 25
        E 39 b9 04 15
        E 44 b9 04 03
        E 12 b9 04 00
        E 31 89 29 40
        E 41 89 2d 40
        E 155 99 24 65
        E 43 b9 04 12
        E 20 b9 04 22
        E 11 b9 04 32
        E 10 b9 04 43
        E 29 b9 04 32
        E 19 b9 04 22
        E 81 b9 04 12
        E 31 89 24 40
        E 203 b9 04 22
        E 41 b9 04 32
        E 37 b9 04 43
        E 22 b9 04 4c
        E 3 99 2c 08
        E 16 b9 04 53
        E 158 b9 04 43
        E 30 b9 04 32
        E 24 b9 04 22
        E 16 99 24 60
        E 3 89 2c 40
        E 15 b9 04 12
        E 50 b9 04 00
        E 174 89 24 40
        E 198 b9 04 12
        E 7 b9 04 25
        E 3 99 26 7f
        E 14 b9 04 36
        E 27 b9 04 46
        E 2 b9 04 4c
        E 2 99 2c 28
        E 3 b9 04 56
        E 22 b9 04 44
        E 5 b9 04 34
        E 12 b9 04 20
        E 15 89 26 40
        E 2 99 26 7f
        E 46 b9 04 0f
        E 140 89 2c 40
        E 55 89 26 40
        E 93 b9 04 20
        E 40 b9 04 30
        E 32 b9 04 41
        E 24 b9 04 4d
        E 2 99 2c 0a
        E 8 b9 04 51
        E 154 b9 04 41
        E 29 b9 04 30
        E 20 b9 04 20
        E 33 89 2c 40
        E 2 b9 04 0f
        E 44 b9 04 00
        E 19 99 24 56
        E 245 89 24 40
        E 145 99 2d 7f
        E 2 b9 04 12
        E 7 99 30 7f
        E 41 b9 04 22
        E 10 b9 04 34
        E 2 b9 04 46
        E 3 b9 04 4f
        E 2 99 2c 42
        E 5 b9 04 56
        E 12 b9 04 44
        E 7 b9 04 32
        E 7 b9 04 20
        E 126 b9 04 1a
        E 19 89 2d 40
        E 10 89 30 40
        E 58 89 2c 40
        E 240 b9 04 2c
        E 33 b9 04 3c
        E 36 b9 04 4c
        E 5 b9 04 4f
        E 2 99 2c 08
        E 182 b9 04 3c
        E 48 b9 04 2c
        E 11 89 2c 40
        E 37 b9 04 1a
        E 61 b9 04 09
        E 34 b9 04 00
        E 212 99 26 7f
        E 65 89 26 40
        E 3 99 26 7f
        E 39 b9 04 12
        E 24 b9 04 22
        E 14 b9 04 32
        E 22 b9 04 43
        E 10 b9 04 4c
        E 2 99 2c 12
        E 29 b9 04 32
        E 101 89 26 40
        E 13 b9 04 22
        E 77 b9 04 12
        E 22 89 2c 40
        E 10 99 26 77
        E 88 b9 04 00
        E 102 89 26 40
        E 2 99 26 75
        E 102 b9 04 12
        E 31 b9 04 22
        E 27 b9 04 32
        E 38 89 26 40
        E 2 99 26 6f
        E 100 b9 04 22
        E 75 b9 04 12
        E 32 89 26 40
        E 2 99 26 79
        E 215 89 26 40
        E 2 99 26 6b
        E 34 b9 04 22
        E 130 b9 04 27
        E 78 89 26 40
        E 80 b9 04 1a
        E 133 99 30 7f
        E 49 b9 04 2c
        E 195 89 30 40
        E 133 b9 04 20
        E 65 99 26 7e
        E 176 99 30 7f
        E 65 89 26 40
        E 80 b9 04 2e
        E 27 b9 04 3e
        E 21 99 26 7f
        E 10 b9 04 4c
        E 2 99 2c 0a
        E 8 b9 04 4f
        E 31 89 30 40
        E 87 b9 04 3f
        E 38 b9 04 2e
        E 26 b9 04 1d
        E 32 b9 04 0c
        E 8 89 26 40
        E 12 b9 04 00
        E 2 89 2c 40
        E 242 99 24 7f
        E 27 b9 04 12
        E 11 b9 04 22
        E 15 b9 04 32
        E 17 b9 04 44
        E 0 b9 04 4c
        E 3 99 2c 1e
        E 4 b9 04 54
        E 16 b9 04 44
        E 13 b9 04 34
        E 58 b9 04 22
        E 80 89 24 40
        E 7 b9 04 12
        E 65 89 2c 40
        E 70 b9 04 22
        E 51 b9 04 32
        E 138 b9 04 3a
        E 157 b9 04 2e
        E 82 99 24 67
        E 100 b9 04 27
        E 141 89 24 40
        E 180 b9 04 1d
        E 10 99 26 7f
        E 93 99 28 75
        E 57 b9 04 18
        E 57 b9 04 29
        E 34 89 26 40
        E 96 89 28 40
        E 15 b9 04 18
        E 201 b9 04 29
        E 33 b9 04 3a
        E 32 b9 04 4a
        E 12 b9 04 4f
        E 3 99 2c 08
        E 140 b9 04 3a
        E 33 b9 04 29
        E 36 b9 04 18
        E 32 89 2c 40
        E 7 b9 04 06
        E 5 99 24 59
        E 22 b9 04 00
        E 222 89 24 40
        E 132 99 2d 7f
        E 10 99 30 7f
        E 19 b9 04 12
        E 42 b9 04 22
        E 12 b9 04 32
        E 10 b9 04 43
        E 2 b9 04 4c
        E 2 99 2c 26
        E 3 b9 04 53
        E 22 b9 04 43
        E 4 b9 04 32
        E 14 b9 04 20
        E 105 89 2d 40
        E 9 89 30 40
        E 85 89 2c 40
        E 3 b9 04 27
        E 89 b9 04 15
        E 84 b9 04 03
        E 32 b9 04 00
        E 218 b9 04 12
        E 28 b9 04 22
        E 19 b9 04 32
        E 51 b9 04 22
        E 95 b9 04 32
        E 164 b9 04 22
        E 36 b9 04 12
        E 34 99 24 5c
        E 24 b9 04 00
        E 220 89 24 40
        E 104 b9 04 12
        E 9 99 26 7f
        E 15 b9 04 22
        E 22 b9 04 32
        E 7 b9 04 44
        E 2 b9 04 4c
        E 3 99 2c 26
        E 2 b9 04 55
        E 17 b9 04 44
        E 7 b9 04 34
        E 12 89 26 40
        E 3 99 26 7f
        E 2 b9 04 22
        E 121 b9 04 1d
        E 46 b9 04 2e
        E 31 89 2c 40
        E 41 89 26 40
        E 82 99 24 5c
        E 17 b9 04 1d
        E 63 b9 04 0c
        E 34 b9 04 00
        E 130 89 24 40
        E 155 99 2d 7f
        E 5 b9 04 12
        E 7 99 30 7f
        E 12 b9 04 25
        E 13 b9 04 36
        E 12 b9 04 46
        E 2 b9 04 4c
        E 3 99 2c 1c
        E 4 b9 04 56
        E 17 b9 04 46
        E 7 b9 04 36
        E 44 b9 04 25
        E 77 b9 04 36
        E 41 89 2d 40
        E 12 89 30 40
        E 41 89 2c 40
        E 90 b9 04 22
        E 19 99 24 61
        E 17 b9 04 12
        E 48 b9 04 00
        E 179 89 24 40
        E 157 99 2d 7f
        E 15 b9 04 12
        E 24 b9 04 22
        E 7 b9 04 32
        E 5 b9 04 43
        E 22 b9 04 32
        E 9 b9 04 20
        E 27 b9 04 0f
        E 135 89 2d 40
        E 52 b9 04 20
        E 21 b9 04 30
        E 36 b9 04 41
        E 31 99 29 7f
        E 34 99 2d 7f
        E 58 b9 04 30
        E 22 b9 04 20
        E 36 b9 04 0f
        E 29 b9 04 00
        E 65 89 29 40
        E 32 89 2d 40
        E 154 99 24 71
        E 17 b9 04 12
        E 20 b9 04 22
        E 16 b9 04 32
        E 8 b9 04 43
        E 2 b9 04 4c
        E 3 99 2c 22
        E 4 b9 04 54
        E 20 b9 04 44
        E 12 b9 04 34
        E 62 b9 04 22
        E 80 89 24 40
        E 2 b9 04 12
        E 63 89 2c 40
        E 138 b9 04 22
        E 32 b9 04 32
        E 36 b9 04 43
        E 34 b9 04 4f
        E 2 99 2c 08
        E 17 b9 04 53
        E 152 b9 04 43
        E 34 b9 04 32
        E 21 b9 04 22
        E 7 99 24 5f
        E 13 89 2c 40
        E 19 b9 04 12
        E 51 b9 04 00
        E 160 89 24 40
        E 207 99 26 7f
        E 3 b9 04 12
        E 14 b9 04 22
        E 36 b9 04 32
        E 10 b9 04 44
        E 2 b9 04 4c
        E 3 99 2c 2c
        E 3 b9 04 54
        E 16 b9 04 44
        E 5 b9 04 34
        E 12 b9 04 20
        E 5 89 26 40
        E 2 99 26 7f
        E 58 b9 04 0f
        E 143 89 2c 40
        E 41 89 26 40
        E 85 b9 04 20
        E 34 b9 04 30
        E 34 b9 04 41
        E 23 b9 04 4d
        E 3 99 2c 0a
        E 12 b9 04 51
        E 135 b9 04 58
        E 41 b9 04 47
        E 30 b9 04 36
        E 26 89 2c 40
        E 5 b9 04 22
        E 34 b9 04 12
        E 36 99 24 5c
        E 14 b9 04 00
        E 229 89 24 40
        E 151 b9 04 12
        E 2 99 2d 7f
        E 8 b9 04 25
        E 4 99 30 7f
        E 36 b9 04 36
        E 10 b9 04 47
        E 3 b9 04 4d
        E 2 99 2c 2c
        E 2 b9 04 58
        E 17 b9 04 47
        E 7 b9 04 36
        E 10 b9 04 25
        E 121 b9 04 1d
        E 24 89 2d 40
        E 12 89 30 40
        E 51 89 2c 40
        E 11 b9 04 2e
        E 252 b9 04 1d
        E 90 b9 04 0c
        E 65 b9 04 00
        E 132 b9 04 12
        E 30 b9 04 25
        E 21 b9 04 36
        E 18 b9 04 46
        E 7 b9 04 4c
        E 2 99 2c 10
        E 67 b9 04 36
        E 177 89 2c 40
        E 75 b9 04 3c
        E 53 b9 04 2c
        E 5 99 24 53
        E 36 b9 04 1a
        E 41 b9 04 09
        E 27 b9 04 00
        E 137 89 24 40
        E 90 99 26 7f
        E 63 b9 04 12
        E 19 b9 04 22
        E 3 99 28 6d
        E 9 b9 04 32
        E 5 b9 04 43
        E 2 b9 04 4c
        E 2 99 2c 24
        E 25 b9 04 32
        E 9 b9 04 22
        E 107 89 26 40
        E 40 b9 04 32
        E 44 89 28 40
        E 18 89 2c 40
        E 94 b9 04 22
        E 9 99 24 55
        E 46 b9 04 12
        E 75 b9 04 00
        E 123 89 24 40
        E 172 99 30 7f
        E 17 b9 04 12
        E 16 99 2d 7f
        E 15 b9 04 22
        E 15 b9 04 32
        E 36 b9 04 20
        E 46 b9 04 0f
        E 99 89 30 40
        E 29 89 2d 40
        E 126 99 30 7f
        E 9 99 2d 7f
        E 8 b9 04 20
        E 84 b9 04 30
        E 142 89 30 40
        E 11 89 2d 40
        E 142 b9 04 20
        E 24 99 2d 7f
        E 2 99 30 7f
        E 239 89 2d 40
        E 3 89 30 40
        E 118 99 2d 7f
        E 7 b9 04 30
        E 34 b9 04 41
        E 8 99 30 7f
        E 24 b9 04 4c
        E 2 99 2c 08
        E 143 b9 04 30
        E 24 b9 04 20
        E 2 89 2d 40
        E 27 b9 04 0f
        E 21 89 30 40
        E 8 b9 04 00
        E 19 89 2c 40
        E 170 99 24 7e
        E 70 b9 04 12
        E 14 b9 04 22
        E 7 b9 04 32
        E 7 b9 04 43
        E 5 b9 04 4c
        E 3 99 2c 20
        E 4 b9 04 53
        E 22 b9 04 43
        E 41 b9 04 32
        E 71 b9 04 22
        E 0 89 24 40
        E 106 89 2c 40
        E 31 b9 04 18
        E 155 b9 04 29
        E 21 b9 04 3a
        E 30 b9 04 4a
        E 14 b9 04 4f
        E 2 99 2c 0a
        E 160 b9 04 3a
        E 24 99 24 5d
        E 5 b9 04 29
        E 34 b9 04 18
        E 21 89 2c 40
        E 24 b9 04 06
        E 27 b9 04 00
        E 133 89 24 40
        E 181 99 26 7f
        E 73 b9 04 12
        E 36 b9 04 22
        E 10 99 28 7a
        E 4 b9 04 32
        E 7 b9 04 44
        E 3 b9 04 4c
        E 2 99 2c 2c
        E 3 b9 04 54
        E 17 b9 04 44
        E 7 b9 04 32
        E 9 b9 04 20
        E 71 89 26 40
        E 58 b9 04 15
        E 62 89 28 40
        E 17 89 2c 40
        E 102 b9 04 25
        E 58 b9 04 36
        E 31 b9 04 46
        E 15 b9 04 4f
        E 2 99 2c 0a
        E 12 b9 04 56
        E 162 b9 04 46
        E 24 b9 04 36
        E 27 b9 04 25
        E 17 89 2c 40
        E 12 b9 04 15
        E 34 b9 04 03
        E 9 99 24 6c
        E 3 b9 04 00
        E 242 89 24 40
        E 135 99 2d 7f
        E 5 b9 04 12
        E 14 99 30 7f
        E 39 b9 04 22
        E 9 b9 04 32
        E 8 b9 04 44
        E 0 b9 04 4c
        E 4 b9 04 54
        E 0 99 2c 2e
        E 13 b9 04 44
        E 4 b9 04 34
        E 10 b9 04 20
        E 24 b9 04 0f
        E 111 89 2d 40
        E 20 89 30 40
        E 60 89 2c 40
        E 167 b9 04 20
        E 139 b9 04 2c
        E 285 b9 04 3c
        E 33 b9 04 4c
        E 7 b9 04 4f
        E 2 99 2c 0c
        E 39 b9 04 5c
        E 109 b9 04 4c
        E 28 b9 04 3c
        E 34 b9 04 2c
        E 24 99 24 5c
        E 7 b9 04 1a
        E 2 89 2c 40
        E 35 b9 04 09
        E 19 b9 04 00
        E 182 89 24 40
        E 156 b9 04 12
        E 5 99 26 7f
        E 13 b9 04 25
        E 33 b9 04 36
        E 10 b9 04 46
        E 2 b9 04 4d
        E 3 99 2c 28
        E 1 b9 04 56
        E 22 b9 04 46
        E 5 b9 04 36
        E 2 99 28 70
        E 23 b9 04 25
        E 130 89 26 40
        E 59 89 2c 40
        E 30 89 28 40
        E 44 b9 04 2c
        E 51 b9 04 1a
        E 24 99 24 58
        E 25 b9 04 09
        E 21 b9 04 00
        E 193 89 24 40
        E 140 99 30 7f
        E 8 99 2d 7f
        E 24 b9 04 12
        E 43 b9 04 22
        E 19 b9 04 32
        E 12 b9 04 43
        E 10 b9 04 4c
        E 3 99 2c 12
        E 22 b9 04 32
        E 12 b9 04 22
        E 50 b9 04 12
        E 39 89 30 40
        E 10 89 2d 40
        E 111 89 2c 40
        E 53 99 30 7f
        E 16 99 2d 7f
        E 42 b9 04 22
        E 80 b9 04 32
        E 106 89 30 40
        E 16 89 2d 40
        E 138 99 2d 7f
        E 5 99 30 7f
        E 131 b9 04 29
        E 108 89 2d 40
        E 5 89 30 40
        E 143 99 2d 7f
        E 22 b9 04 3a
        E 7 99 30 7f
        E 126 b9 04 44
        E 80 b9 04 34
        E 9 89 2d 40
        E 28 89 30 40
        E 29 b9 04 22
        E 90 b9 04 12
        E 68 99 24 7d
        E 171 b9 04 22
        E 73 89 24 40
        E 87 b9 04 15
        E 224 b9 04 25
        E 56 b9 04 36
        E 51 b9 04 46
        E 121 b9 04 36
        E 40 b9 04 25
        E 6 99 24 68
        E 33 b9 04 15
        E 63 b9 04 03
        E 15 b9 04 00
        E 133 89 24 40
        E 202 99 26 7f
        E 27 b9 04 12
        E 39 b9 04 25
        E 17 b9 04 36
        E 9 b9 04 46
        E 3 b9 04 4c
        E 2 99 2c 1e
        E 5 b9 04 56
        E 17 99 28 7f
        E 17 b9 04 46
        E 29 b9 04 36
        E 31 b9 04 25
        E 34 b9 04 15
        E 12 89 26 40
        E 68 b9 04 03
        E 26 89 2c 40
        E 27 89 28 40
        E 162 b9 04 15
        E 55 b9 04 25
        E 30 b9 04 36
        E 49 b9 04 46
        E 115 b9 04 36
        E 34 b9 04 25
        E 31 b9 04 15
        E 51 b9 04 03
        E 16 99 24 56
        E 3 b9 04 00
        E 242 89 24 40
        E 142 b9 04 12
        E 8 99 30 7f
        E 2 99 2d 7f
        E 4 b9 04 22
        E 37 b9 04 32
        E 12 b9 04 43
        E 3 b9 04 4c
        E 2 99 2c 20
        E 4 b9 04 54
        E 20 b9 04 43
        E 7 b9 04 32
        E 15 b9 04 22
        E 113 b9 04 12
        E 24 89 30 40
        E 3 89 2d 40
        E 57 89 2c 40
        E 100 b9 04 22
        E 63 b9 04 32
        E 147 b9 04 3a
        E 104 b9 04 29
        E 73 b9 04 18
        E 221 b9 04 29
        E 17 b9 04 3a
        E 18 b9 04 4a
        E 7 b9 04 4f
        E 2 99 2c 0e
        E 15 b9 04 5a
        E 148 b9 04 4a
        E 28 b9 04 3a
        E 26 b9 04 29
        E 27 89 2c 40
        E 5 b9 04 18
        E 7 99 24 57
        E 39 b9 04 06
        E 27 b9 04 00
        E 178 89 24 40
        E 126 99 26 7f
        E 36 b9 04 12
        E 38 b9 04 22
        E 10 b9 04 32
        E 8 b9 04 44
        E 2 b9 04 4c
        E 3 99 2c 26
        E 7 89 26 40
        E 2 99 26 7f
        E 12 b9 04 32
        E 8 b9 04 20
        E 188 b9 04 30
        E 27 89 2c 40
        E 7 89 26 40
        E 116 b9 04 20
        E 2 99 24 5c
        E 63 b9 04 0f
        E 44 b9 04 00
        E 135 89 24 40
        E 203 b9 04 12
        E 9 99 30 7d
        E 10 99 2d 7f
        E 32 b9 04 22
        E 14 b9 04 32
        E 7 b9 04 43
        E 8 b9 04 4c
        E 3 99 2c 1e
        E 16 b9 04 32
        E 8 b9 04 22
        E 21 b9 04 12
        E 125 89 30 40
        E 8 89 2d 40
        E 63 89 2c 40
        E 86 99 30 7f
        E 20 99 2d 7f
        E 2 b9 04 22
        E 53 b9 04 32
        E 131 b9 04 3f
        E 39 89 30 40
        E 17 89 2d 40
        E 45 b9 04 2e
        E 97 99 30 7f
        E 29 99 2d 7f
        E 24 b9 04 20
        E 188 89 30 40
        E 29 89 2d 40
        E 141 b9 04 30
        E 4 99 2d 7f
        E 22 99 30 7f
        E 159 b9 04 20
        E 63 89 2d 40
        E 22 89 30 40
        E 114 b9 04 18
        E 41 99 24 6c
        E 234 b9 04 1d
        E 10 89 24 40
        E 336 b9 04 2c
        E 79 b9 04 3c
        E 177 b9 04 2c
        E 7 99 24 68
        E 38 b9 04 1a
        E 51 b9 04 09
        E 32 b9 04 00
        E 123 89 24 40
        E 174 99 26 7f
        E 53 b9 04 12
        E 12 b9 04 25
        E 29 99 28 7f
        E 10 b9 04 36
        E 7 b9 04 47
        E 3 b9 04 4c
        E 2 99 2c 22
        E 3 b9 04 57
        E 21 b9 04 46
        E 7 b9 04 36
        E 46 b9 04 25
        E 41 b9 04 15
        E 10 89 26 40
        E 94 89 28 40
        E 20 89 2c 40
        E 38 b9 04 09
        E 97 b9 04 1a
        E 36 b9 04 2c
        E 24 b9 04 3c
        E 32 b9 04 4c
        E 4 b9 04 4d
        E 3 99 2c 0a
        E 125 b9 04 3c
        E 30 b9 04 2c
        E 28 b9 04 1a
        E 27 99 24 65
        E 10 b9 04 09
        E 22 89 2c 40
        E 2 b9 04 00
        E 208 89 24 40
        E 198 99 2d 7f
        E 2 99 30 7f
        E 27 b9 04 12
        E 22 b9 04 22
        E 36 b9 04 32
        E 5 b9 04 43
        E 4 b9 04 4c
        E 3 99 2c 2c
        E 17 b9 04 30
        E 7 b9 04 20
        E 19 b9 04 0f
        E 100 89 2d 40
        E 2 89 30 40
        E 89 b9 04 18
        E 8 89 2c 40
        E 77 b9 04 29
        E 150 b9 04 32
        E 96 b9 04 22
        E 75 b9 04 12
        E 150 b9 04 03
        E 56 b9 04 15
        E 19 b9 04 25
        E 17 b9 04 36
        E 17 b9 04 46
        E 7 b9 04 4d
        E 2 99 2c 10
        E 10 b9 04 56
        E 127 b9 04 46
        E 40 b9 04 36
        E 41 b9 04 25
        E 24 89 2c 40
        E 14 b9 04 15
        E 0 99 24 56
        E 52 b9 04 03
        E 13 b9 04 00
        E 177 89 24 40
        E 131 99 26 7f
        E 16 b9 04 12
        E 22 b9 04 22
        E 12 b9 04 32
        E 10 b9 04 43
        E 5 b9 04 4c
        E 2 99 2c 1e
        E 5 89 26 40
        E 2 99 26 7f
        E 11 b9 04 32
        E 11 b9 04 20
        E 130 b9 04 1a
        E 52 b9 04 2c
        E 33 89 2c 40
        E 2 89 26 40
        E 117 99 24 56
        E 36 b9 04 1a
        E 53 b9 04 09
        E 31 b9 04 00
        E 121 89 24 40
        E 196 99 29 7f
        E 4 b9 04 12
        E 18 b9 04 22
        E 7 99 2d 7f
        E 22 b9 04 32
        E 9 b9 04 43
        E 7 b9 04 4c
        E 2 99 2c 1a
        E 3 b9 04 53
        E 37 b9 04 43
        E 31 b9 04 32
        E 29 b9 04 22
        E 55 b9 04 12
        E 18 89 29 40
        E 26 89 2d 40
        E 43 89 2c 40
        E 102 99 29 7f
        E 34 99 2d 7f
        E 82 b9 04 22
        E 128 89 29 40
        E 33 89 2d 40
        E 51 b9 04 12
        E 107 99 29 7f
        E 25 99 2d 7f
        E 65 b9 04 0c
        E 152 89 29 40
        E 26 89 2d 40
        E 12 b9 04 1d
        E 116 99 29 7f
        E 20 99 2d 7f
        E 159 b9 04 2e
        E 65 89 29 40
        E 17 89 2d 40
        E 41 b9 04 1d
        E 73 b9 04 0c
        E 57 b9 04 00
        E 5 99 24 59
        E 186 b9 04 12
        E 42 b9 04 22
        E 16 89 24 40
        E 73 b9 04 12
        E 304 b9 04 22
        E 39 b9 04 32
        E 48 b9 04 43
        E 117 b9 04 32
        E 5 99 24 57
        E 28 b9 04 22
        E 49 b9 04 12
        E 53 b9 04 00
        E 115 89 24 40
        E 204 99 26 7f
        E 45 b9 04 12
        E 44 b9 04 22
        E 10 b9 04 32
        E 10 b9 04 43
        E 4 89 26 40
        E 3 99 26 7f
        E 2 b9 04 4c
        E 2 99 2c 1e
        E 22 b9 04 32
        E 36 b9 04 22
        E 51 b9 04 12
        E 128 89 26 40
        E 5 89 2c 40
        E 41 b9 04 09
        E 82 b9 04 1a
        E 32 b9 04 2c
        E 21 b9 04 3c
        E 24 b9 04 4c
        E 2 b9 04 4d
        E 3 99 2c 0c
        E 149 b9 04 3c
        E 27 b9 04 2c
        E 29 b9 04 1a
        E 34 b9 04 09
        E 3 89 2c 40
        E 22 99 24 60
        E 4 b9 04 00
        E 240 89 24 40
        E 168 99 2d 7f
        E 10 99 30 7f
        E 3 b9 04 12
        E 9 b9 04 25
        E 34 b9 04 36
        E 10 b9 04 46
        E 2 b9 04 4d
        E 2 99 2c 2a
        E 3 b9 04 58
        E 17 b9 04 47
        E 7 b9 04 36
        E 12 b9 04 25
        E 124 b9 04 1d
        E 12 89 2d 40
        E 9 89 30 40
        E 61 89 2c 40
        E 108 b9 04 2e
        E 261 b9 04 1d
        E 158 b9 04 0f
        E 113 b9 04 20
        E 22 b9 04 30
        E 19 b9 04 41
        E 14 b9 04 4d
        E 3 99 2c 0e
        E 203 b9 04 30
        E 38 89 2c 40
        E 5 b9 04 20
        E 20 99 24 52
        E 43 b9 04 0f
        E 48 b9 04 00
        E 150 89 24 40
        E 114 99 26 7f
        E 43 b9 04 12
        E 24 b9 04 22
        E 7 b9 04 32
        E 13 b9 04 43
        E 2 b9 04 4c
        E 2 99 2c 1e
        E 3 b9 04 53
        E 21 b9 04 43
        E 8 99 28 7f
        E 2 b9 04 32
        E 48 b9 04 22
        E 70 89 26 40
        E 61 b9 04 18
        E 29 89 2c 40
        E 32 b9 04 29
        E 2 89 28 40
        E 85 99 24 4a
        E 48 b9 04 30
        E 50 b9 04 20
        E 68 b9 04 0f
        E 46 b9 04 00
        E 31 89 24 40
        E 213 99 2d 7f
        E 10 b9 04 12
        E 4 99 30 73
        E 15 b9 04 25
        E 15 b9 04 36
        E 14 b9 04 46
        E 5 b9 04 4c
        E 2 99 2c 14
        E 8 b9 04 56
        E 29 b9 04 46
        E 38 b9 04 36
        E 104 89 2d 40
        E 14 89 30 40
        E 13 b9 04 2c
        E 38 89 2c 40
        E 12 b9 04 3c
        E 107 99 24 54
        E 56 b9 04 2c
        E 48 b9 04 1a
        E 44 b9 04 09
        E 26 b9 04 00
        E 70 89 24 40
        E 133 99 26 7f
        E 85 89 26 40
        E 2 99 26 7f
        E 2 b9 04 12
        E 34 b9 04 25
        E 7 b9 04 36
        E 5 b9 04 46
        E 5 b9 04 4c
        E 2 99 2c 24
        E 13 b9 04 36
        E 7 b9 04 25
        E 12 b9 04 15
        E 144 b9 04 25
        E 10 89 26 40
        E 58 89 2c 40
        E 109 b9 04 15
        E 60 b9 04 03
        E 10 b9 04 00
        E 358 99 24 7f
        E 2 99 31 7f
        E 2 b9 04 12
        E 7 b9 04 25
        E 5 99 3b 7f
        E 29 b9 04 36
        E 13 b9 04 46
        E 2 b9 04 4d
        E 1 99 2c 24
        E 1 b9 04 56
        E 17 b9 04 46
        E 5 b9 04 36
        E 12 b9 04 25
        E 148 89 24 40
        E 2 89 31 40
        E 14 89 3b 40
        E 44 89 2c 40
        E 58 b9 04 29
        E 77 b9 04 18
        E 71 b9 04 06
        E 26 b9 04 00
        E 247 b9 04 12
        E 19 b9 04 22
        E 14 b9 04 32
        E 10 b9 04 43
        E 29 b9 04 32
        E 125 b9 04 2e
        E 44 b9 04 3e
        E 67 b9 04 4c
        E 4 99 2c 06
        E 67 b9 04 47
        E 60 99 24 47
        E 9 b9 04 36
        E 61 b9 04 22
        E 44 89 2c 40
        E 29 b9 04 12
        E 99 89 24 40
        E 7 b9 04 00
        E 280 b9 04 12
        E 35 b9 04 22
        E 11 b9 04 32
        E 7 b9 04 43
        E 7 b9 04 4c
        E 3 99 2c 1e
        E 17 b9 04 32
        E 14 b9 04 22
        E 34 b9 04 32
        E 174 89 2c 40
        E 3 b9 04 22
        E 53 b9 04 12
        E 99 b9 04 00
        E 234 99 26 7f
        E 63 b9 04 12
        E 24 b9 04 22
        E 14 b9 04 32
        E 13 b9 04 43
        E 5 99 28 48
        E 2 b9 04 4c
        E 3 99 2c 1a
        E 21 b9 04 32
        E 10 b9 04 22
        E 89 89 26 40
        E 116 89 28 40
        E 5 89 2c 40
        E 5 b9 04 2e
        E 87 b9 04 1d
        E 96 b9 04 0c
        E 58 b9 04 00
        E 247 b9 04 12
        E 27 b9 04 25
        E 11 b9 04 36
        E 34 b9 04 25
        E 99 b9 04 36
        E 138 b9 04 3e
        E 43 b9 04 2e
        E 30 99 24 51
        E 12 b9 04 1d
        E 53 b9 04 0c
        E 43 b9 04 00
        E 133 89 24 40
        E 164 99 2d 7f
        E 3 b9 04 12
        E 6 99 30 7f
        E 28 b9 04 22
        E 12 b9 04 32
        E 12 b9 04 43
        E 2 b9 04 4c
        E 2 99 2c 1e
        E 3 b9 04 54
        E 24 b9 04 44
        E 7 b9 04 34
        E 46 b9 04 22
        E 102 89 2d 40
        E 7 89 30 40
        E 20 b9 04 32
        E 33 89 2c 40
        E 121 99 24 4c
        E 26 b9 04 22
        E 46 b9 04 12
        E 41 b9 04 00
        E 126 89 24 40
        E 143 99 26 68
        E 38 b9 04 12
        E 15 b9 04 22
        E 27 89 26 40
        E 2 99 26 7f
        E 3 b9 04 32
        E 7 b9 04 44
        E 4 b9 04 4d
        E 3 99 2c 26
        E 2 b9 04 54
        E 15 b9 04 44
        E 5 b9 04 34
        E 9 b9 04 22
        E 181 b9 04 32
        E 10 89 26 40
        E 20 89 2c 40
        E 101 b9 04 22
        E 7 99 24 5b
        E 49 b9 04 12
        E 53 b9 04 00
        E 142 89 24 40
        E 150 99 2d 7f
        E 7 99 30 7f
        E 29 b9 04 12
        E 44 b9 04 22
        E 9 b9 04 32
        E 5 b9 04 43
        E 3 b9 04 4c
        E 2 99 2c 26
        E 17 b9 04 32
        E 7 b9 04 20
        E 19 b9 04 0f
        E 102 89 2d 40
        E 7 89 30 40
        E 42 b9 04 20
        E 49 89 2c 40
        E 81 b9 04 27
        E 50 b9 04 15
        E 56 b9 04 03
        E 12 b9 04 00
        E 334 99 24 7f
        E 2 b9 04 12
        E 5 99 31 7f
        E 2 b9 04 25
        E 10 99 33 7f
        E 2 b9 04 36
        E 29 b9 04 47
        E 3 b9 04 4c
        E 2 99 2c 20
        E 22 b9 04 36
        E 12 b9 04 25
        E 154 89 24 40
        E 8 89 31 40
        E 12 89 33 40
        E 14 b9 04 36
        E 20 89 2c 40
        E 118 b9 04 25
        E 58 b9 04 15
        E 118 b9 04 03
        E 39 b9 04 00
        E 111 b9 04 12
        E 27 b9 04 22
        E 14 b9 04 32
        E 17 b9 04 43
        E 10 b9 04 4c
        E 2 99 2c 0e
        E 7 b9 04 53
        E 235 89 2c 40
        E 237 b9 04 5c
        E 427 b9 04 58
        E 305 b9 04 47
        E 51 b9 04 36
        E 53 b9 04 25
        E 67 b9 04 15
        E 53 b9 04 03
        E 24 b9 04 00
        E 199 b9 04 12
        E 21 b9 04 22
        E 12 b9 04 32
        E 13 b9 04 43
        E 2 99 26 7f
        E 7 b9 04 4c
        E 2 99 2c 14
        E 15 b9 04 53
        E 46 b9 04 43
        E 16 89 26 40
        E 3 99 26 7f
        E 17 b9 04 32
        E 136 b9 04 27
        E 11 89 2c 40
        E 78 89 26 40
        E 36 b9 04 38
        E 170 b9 04 3c
        E 115 99 24 1b
        E 65 b9 04 36
        E 160 b9 04 46
        E 19 89 24 40
        E 8 b9 04 4f
        E 2 99 2c 08
        E 36 b9 04 56
        E 147 b9 04 5e
        E 61 89 2c 40
        E 7 b9 04 4d
        E 41 b9 04 3c
        E 32 b9 04 2c
        E 12 99 24 60
        E 22 b9 04 1a
        E 41 b9 04 09
        E 29 b9 04 00
        E 150 89 24 40
        E 133 99 2d 7f
        E 21 99 30 7f
        E 2 b9 04 12
        E 7 b9 04 25
        E 18 b9 04 36
        E 19 b9 04 46
        E 4 b9 04 4d
        E 3 99 2c 1a
        E 3 b9 04 56
        E 9 b9 04 66
        E 17 b9 04 56
        E 8 b9 04 46
        E 40 b9 04 36
        E 28 b9 04 25
        E 62 89 2d 40
        E 22 89 30 40
        E 43 b9 04 20
        E 7 89 2c 40
        E 39 b9 04 30
        E 48 b9 04 41
        E 61 99 24 4a
        E 70 b9 04 30
        E 33 b9 04 20
        E 44 b9 04 0f
        E 34 b9 04 00
        E 60 89 24 40
        E 133 99 26 75
        E 58 89 26 40
        E 2 99 26 7f
        E 3 b9 04 12
        E 19 b9 04 25
        E 12 b9 04 36
        E 10 b9 04 46
        E 3 b9 04 4c
        E 2 99 2c 18
        E 9 b9 04 56
        E 27 b9 04 46
        E 25 b9 04 36
        E 48 b9 04 25
        E 84 89 26 40
        E 34 b9 04 36
        E 15 89 2c 40
        E 103 99 24 52
        E 35 b9 04 25
        E 45 b9 04 15
        E 61 b9 04 03
        E 12 b9 04 00
        E 91 89 24 40
        E 145 99 30 7f
        E 3 99 2d 7f
        E 34 b9 04 12
        E 29 b9 04 22
        E 14 b9 04 32
        E 9 b9 04 44
        E 5 b9 04 4c
        E 3 99 2c 22
        E 2 b9 04 54
        E 22 b9 04 44
        E 8 b9 04 34
        E 19 b9 04 22
        E 97 89 30 40
        E 2 89 2d 40
        E 53 b9 04 32
        E 38 89 2c 40
        E 134 b9 04 22
        E 43 b9 04 12
        E 46 b9 04 00
        E 309 99 24 7f
        E 3 b9 04 12
        E 2 99 31 7f
        E 7 b9 04 25
        E 10 99 3b 7f
        E 2 b9 04 36
        E 27 b9 04 46
        E 2 b9 04 4c
        E 3 99 2c 1e
        E 5 b9 04 56
        E 4 b9 04 66
        E 14 b9 04 55
        E 8 b9 04 44
        E 17 b9 04 34
        E 45 b9 04 20
        E 95 89 24 40
        E 5 89 31 40
        E 17 89 3b 40
        E 34 89 2c 40
        E 19 b9 04 30
        E 133 b9 04 38
        E 73 b9 04 27
        E 91 b9 04 15
        E 138 b9 04 03
        E 46 b9 04 00
        E 172 b9 04 12
        E 25 b9 04 22
        E 11 b9 04 32
        E 9 b9 04 43
        E 17 b9 04 32
        E 7 b9 04 22
        E 107 b9 04 32
        E 174 b9 04 22
        E 75 b9 04 12
        E 157 b9 04 00
        E 159 b9 04 12
        E 19 b9 04 22
        E 10 b9 04 32
        E 16 b9 04 43
        E 9 b9 04 4c
        E 2 99 2c 12
        E 7 b9 04 53
        E 29 b9 04 63
        E 130 b9 04 53
        E 39 b9 04 43
        E 36 b9 04 32
        E 2 89 2c 40
        E 25 b9 04 22
        E 41 b9 04 12
        E 75 b9 04 00
        E 396 99 26 7f
        E 10 b9 04 12
        E 14 b9 04 22
        E 5 b9 04 34
        E 5 b9 04 46
        E 2 b9 04 4d
        E 3 99 2c 40
        E 2 b9 04 56
        E 12 b9 04 46
        E 5 b9 04 36
        E 5 b9 04 22
        E 24 89 26 40
        E 3 99 26 7f
        E 190 89 2c 40
        E 51 89 26 40
        E 34 b9 04 12
        E 128 b9 04 00
        E 256 b9 04 12
        E 24 b9 04 25
        E 20 b9 04 36
        E 12 b9 04 46
        E 9 b9 04 4c
        E 3 99 2c 12
        E 17 b9 04 36
        E 65 b9 04 25
        E 92 b9 04 36
        E 50 b9 04 46
        E 18 89 2c 40
        E 118 b9 04 36
        E 38 b9 04 22
        E 47 b9 04 12
        E 7 99 24 6c
        E 45 b9 04 00
        E 197 89 24 40
        E 120 b9 04 12
        E 14 b9 04 22
        E 20 99 2d 7f
        E 2 b9 04 32
        E 3 99 30 7f
        E 11 b9 04 43
        E 3 b9 04 4c
        E 3 99 2c 24
        E 5 b9 04 54
        E 4 b9 04 65
        E 12 b9 04 54
        E 5 b9 04 44
        E 7 b9 04 34
        E 41 b9 04 22
        E 145 89 2d 40
        E 5 89 30 40
        E 19 89 2c 40
        E 10 b9 04 32
        E 48 b9 04 43
        E 107 b9 04 32
        E 2 99 24 50
        E 34 b9 04 22
        E 48 b9 04 12
        E 46 b9 04 00
        E 116 89 24 40
        E 111 99 26 75
        E 63 89 26 40
        E 2 99 26 7f
        E 5 b9 04 12
        E 10 b9 04 22
        E 10 b9 04 32
        E 26 b9 04 43
        E 5 b9 04 4c
        E 3 99 2c 1e
        E 2 b9 04 54
        E 5 b9 04 65
        E 14 b9 04 54
        E 8 b9 04 44
        E 7 b9 04 34
        E 147 89 26 40
        E 56 89 2c 40
        E 45 b9 04 22
        E 42 99 24 58
        E 11 b9 04 12
        E 61 b9 04 00
        E 169 89 24 40
        E 140 99 2d 7f
        E 8 99 30 7f
        E 34 b9 04 12
        E 11 b9 04 22
        E 39 b9 04 32
        E 3 b9 04 43
        E 5 b9 04 4d
        E 2 99 2c 2c
        E 5 b9 04 54
        E 12 b9 04 44
        E 4 b9 04 32
        E 8 b9 04 20
        E 111 89 2d 40
        E 10 89 30 40
        E 31 b9 04 30
        E 60 89 2c 40
        E 111 b9 04 20
        E 46 b9 04 0f
        E 35 b9 04 00
        E 337 99 24 7f
        E 3 b9 04 12
        E 5 99 31 7f
        E 2 b9 04 25
        E 5 b9 04 36
        E 7 99 33 7f
        E 23 b9 04 46
        E 4 b9 04 4c
        E 2 99 2c 1c
        E 2 b9 04 57
        E 17 b9 04 47
        E 8 b9 04 36
        E 14 b9 04 25
        E 63 b9 04 36
        E 90 89 24 40
        E 7 89 31 40
        E 14 89 33 40
        E 27 89 2c 40
        E 36 b9 04 25
        E 36 b9 04 15
        E 42 b9 04 03
        E 9 b9 04 00
        E 353 b9 04 12
        E 7 b9 04 25
        E 31 99 33 6d
        E 3 99 24 6c
        E 7 b9 04 36
        E 10 b9 04 46
        E 2 b9 04 4c
        E 5 99 2c 1e
        E 14 b9 04 36
        E 10 b9 04 22
        E 95 b9 04 32
        E 82 b9 04 22
        E 16 89 33 40
        E 2 89 24 40
        E 25 89 2c 40
        E 17 b9 04 12
        E 65 b9 04 00
        E 124 99 28 6c
        E 202 b9 04 12
        E 12 b9 04 22
        E 27 89 28 40
        E 2 b9 04 32
        E 39 b9 04 22
        E 16 b9 04 12
        E 97 99 33 5d
        E 85 b9 04 22
        E 23 b9 04 32
        E 36 b9 04 43
        E 26 b9 04 4c
        E 2 99 2c 08
        E 73 89 33 40
        E 55 b9 04 32
        E 24 b9 04 22
        E 29 b9 04 12
        E 35 b9 04 00
        E 5 99 24 71
        E 23 89 2c 40
        E 220 89 24 40
        E 128 b9 04 12
        E 7 b9 04 22
        E 5 b9 04 32
        E 17 99 26 7f
        E 22 99 33 7f
        E 2 b9 04 44
        E 3 b9 04 4c
        E 2 99 2c 24
        E 17 b9 04 32
        E 7 b9 04 20
        E 16 b9 04 0f
        E 139 b9 04 20
        E 36 89 26 40
        E 19 89 33 40
        E 8 89 2c 40
        E 114 b9 04 0f
        E 45 b9 04 00
        E 322 b9 04 12
        E 36 b9 04 22
        E 14 b9 04 32
        E 7 b9 04 43
        E 5 b9 04 4c
        E 2 99 2c 22
        E 3 99 33 7c
        E 15 b9 04 32
        E 6 b9 04 22
        E 117 b9 04 32
        E 101 b9 04 22
        E 3 89 2c 40
        E 2 89 33 40
        E 53 b9 04 12
        E 51 b9 04 00
        E 97 99 26 7f
        E 239 b9 04 12
        E 5 89 26 40
        E 5 b9 04 25
        E 9 b9 04 36
        E 34 b9 04 46
        E 0 b9 04 4c
        E 2 99 2c 1c
        E 5 b9 04 56
        E 26 b9 04 44
        E 23 b9 04 34
        E 46 b9 04 22
        E 16 99 33 7f
        E 35 b9 04 12
        E 91 89 2c 40
        E 53 b9 04 25
        E 29 b9 04 36
        E 39 89 33 40
        E 111 99 24 5c
        E 17 b9 04 25
        E 34 b9 04 15
        E 36 b9 04 03
        E 7 b9 04 00
        E 150 89 24 40
        E 173 b9 04 12
        E 8 99 26 70
        E 3 b9 04 25
        E 5 b9 04 36
        E 11 99 33 6b
        E 20 b9 04 47
        E 2 b9 04 4c
        E 5 99 2c 1e
        E 3 b9 04 58
        E 16 b9 04 47
        E 10 b9 04 36
        E 37 b9 04 25
        E 130 89 26 40
        E 19 89 33 40
        E 22 b9 04 36
        E 5 89 2c 40
        E 128 b9 04 25
        E 19 99 24 56
        E 22 b9 04 15
        E 38 b9 04 03
        E 15 b9 04 00
        E 167 89 24 40
        E 137 99 33 7f
        E 8 99 26 69
        E 2 b9 04 12
        E 12 b9 04 22
        E 27 b9 04 32
        E 13 b9 04 43
        E 6 b9 04 4c
        E 2 99 2c 2a
        E 3 b9 04 54
        E 17 b9 04 43
        E 7 b9 04 32
        E 7 b9 04 22
        E 141 89 33 40
        E 4 89 26 40
        E 17 b9 04 32
        E 46 89 2c 40
        E 77 b9 04 22
        E 39 b9 04 12
        E 20 99 26 78
        E 21 b9 04 00
        E 221 89 26 40
        E 95 b9 04 12
        E 12 b9 04 25
        E 24 b9 04 36
        E 3 99 24 78
        E 13 b9 04 46
        E 2 b9 04 4c
        E 5 99 2c 1e
        E 6 99 33 7f
        E 15 b9 04 36
        E 12 b9 04 25
        E 61 b9 04 15
        E 128 89 24 40
        E 16 b9 04 25
        E 3 89 2c 40
        E 7 89 33 40
        E 121 b9 04 29
        E 51 b9 04 18
        E 36 b9 04 06
        E 14 b9 04 00
        E 317 b9 04 12
        E 10 99 33 73
        E 2 b9 04 22
        E 5 99 24 6b
        E 7 b9 04 32
        E 27 b9 04 43
        E 24 b9 04 32
        E 6 b9 04 22
        E 52 b9 04 12
        E 118 89 33 40
        E 8 89 24 40
        E 43 b9 04 22
        E 130 99 26 7a
        E 39 b9 04 12
        E 53 b9 04 00
        E 153 89 26 40
        E 144 b9 04 12
        E 13 b9 04 25
        E 26 99 33 7f
        E 5 b9 04 36
        E 36 b9 04 25
        E 70 b9 04 15
        E 95 b9 04 25
        E 36 89 33 40
        E 14 b9 04 36
        E 128 b9 04 22
        E 37 99 24 62
        E 2 b9 04 12
        E 46 b9 04 00
        E 196 89 24 40
        E 147 b9 04 12
        E 7 99 28 7e
        E 3 b9 04 25
        E 7 b9 04 36
        E 29 b9 04 46
        E 2 99 33 7f
        E 2 b9 04 4c
        E 8 99 2c 16
        E 10 b9 04 36
        E 9 b9 04 25
        E 15 b9 04 15
        E 121 b9 04 25
        E 36 89 28 40
        E 43 89 33 40
        E 7 89 2c 40
        E 73 b9 04 15
        E 53 b9 04 03
        E 7 b9 04 00
        E 319 b9 04 12
        E 10 b9 04 22
        E 10 b9 04 32
        E 31 b9 04 43
        E 3 b9 04 4d
        E 2 99 2c 22
        E 3 b9 04 53
        E 7 b9 04 63
        E 12 b9 04 51
        E 9 b9 04 41
        E 15 99 33 79
        E 29 b9 04 30
        E 21 b9 04 20
        E 133 b9 04 15
        E 12 89 2c 40
        E 25 b9 04 25
        E 21 89 33 40
        E 30 b9 04 36
        E 128 b9 04 25
        E 9 99 26 7f
        E 32 b9 04 15
        E 38 b9 04 03
        E 14 b9 04 00
        E 158 89 26 40
        E 115 b9 04 12
        E 25 b9 04 22
        E 14 b9 04 32
        E 10 99 33 4b
        E 1 b9 04 44
        E 5 b9 04 4c
        E 2 99 2c 22
        E 4 b9 04 54
        E 13 b9 04 44
        E 8 b9 04 34
        E 52 b9 04 22
        E 142 b9 04 32
        E 16 89 33 40
        E 5 89 2c 40
        E 20 b9 04 43
        E 119 b9 04 32
        E 26 99 24 68
        E 9 b9 04 22
        E 32 b9 04 12
        E 41 b9 04 00
        E 162 89 24 40
        E 126 99 26 71
        E 31 99 33 7f
        E 20 b9 04 12
        E 4 b9 04 22
        E 5 b9 04 32
        E 5 b9 04 43
        E 31 b9 04 4c
        E 3 99 2c 24
        E 2 b9 04 53
        E 19 b9 04 43
        E 8 b9 04 32
        E 9 b9 04 22
        E 54 b9 04 12
        E 51 89 26 40
        E 33 89 33 40
        E 66 89 2c 40
        E 4 b9 04 22
        E 46 b9 04 32
        E 136 b9 04 22
        E 65 b9 04 12
        E 79 b9 04 00
        E 343 99 33 7f
        E 10 b9 04 12
        E 34 b9 04 25
        E 10 b9 04 36
        E 4 b9 04 47
        E 2 b9 04 4c
        E 3 99 2c 2e
        E 17 b9 04 36
        E 10 b9 04 20
        E 27 b9 04 0f
        E 128 89 33 40
        E 5 b9 04 20
        E 37 b9 04 30
        E 15 89 2c 40
        E 25 b9 04 41
        E 142 b9 04 30
        E 34 b9 04 20
        E 48 b9 04 0f
        E 34 b9 04 00
        E 301 b9 04 12
        E 13 b9 04 22
        E 0 99 24 7e
        E 12 b9 04 32
        E 0 99 33 7f
        E 22 b9 04 43
        E 3 b9 04 4c
        E 2 99 2c 22
        E 5 b9 04 54
        E 17 b9 04 44
        E 5 b9 04 34
        E 16 b9 04 22
        E 95 b9 04 32
        E 67 89 24 40
        E 7 89 33 40
        E 30 89 2c 40
        E 29 b9 04 22
        E 55 b9 04 12
        E 55 b9 04 00
        E 346 b9 04 12
        E 12 b9 04 22
        E 5 b9 04 32
        E 29 99 24 6a
        E 2 b9 04 43
        E 5 b9 04 4c
        E 2 99 2c 1e
        E 2 b9 04 53
        E 3 99 33 7f
        E 15 b9 04 41
        E 7 b9 04 30
        E 13 b9 04 20
        E 79 b9 04 0f
        E 115 89 24 40
        E 11 89 2c 40
        E 2 89 33 40
        E 49 b9 04 20
        E 34 b9 04 30
        E 93 99 26 7f
        E 48 b9 04 20
        E 52 b9 04 0f
        E 36 b9 04 00
        E 106 89 26 40
        E 176 b9 04 12
        E 8 99 33 46
        E 22 b9 04 25
        E 14 b9 04 36
        E 30 b9 04 22
        E 124 b9 04 1a
        E 41 b9 04 2c
        E 10 89 33 40
        E 43 b9 04 3c
        E 107 b9 04 2c
        E 48 b9 04 1a
        E 15 99 24 63
        E 34 b9 04 09
        E 26 b9 04 00
        E 184 89 24 40
        E 133 99 26 7f
        E 14 b9 04 12
        E 8 b9 04 25
        E 12 b9 04 36
        E 16 99 33 7f
        E 11 b9 04 46
        E 1 b9 04 4c
        E 5 99 2c 1e
        E 20 b9 04 36
        E 12 b9 04 25
        E 56 b9 04 15
        E 89 89 26 40
        E 19 b9 04 25
        E 26 89 33 40
        E 23 89 2c 40
        E 145 b9 04 15
        E 55 b9 04 03
        E 10 b9 04 00
        E 292 b9 04 12
        E 24 b9 04 22
        E 8 b9 04 32
        E 7 99 33 7e
        E 2 b9 04 43
        E 18 b9 04 32
        E 9 b9 04 22
        E 164 b9 04 32
        E 51 89 33 40
        E 134 b9 04 22
        E 28 99 24 5a
        E 24 b9 04 12
        E 50 b9 04 00
        E 170 89 24 40
        E 91 99 26 71
        E 34 b9 04 12
        E 15 b9 04 25
        E 19 99 33 7f
        E 2 b9 04 36
        E 10 b9 04 46
        E 0 b9 04 4c
        E 2 99 2c 20
        E 22 b9 04 36
        E 12 b9 04 25
        E 67 b9 04 15
        E 61 89 26 40
        E 37 b9 04 25
        E 31 89 33 40
        E 2 b9 04 36
        E 12 89 2c 40
        E 124 b9 04 3a
        E 43 b9 04 29
        E 22 99 24 5f
        E 19 b9 04 18
        E 39 b9 04 06
        E 17 b9 04 00
        E 169 89 24 40
        E 162 99 28 61
        E 4 99 33 7f
        E 13 b9 04 12
        E 9 b9 04 22
        E 27 b9 04 32
        E 15 b9 04 43
        E 2 b9 04 4c
        E 2 99 2c 22
        E 22 b9 04 32
        E 8 b9 04 22
        E 24 b9 04 12
        E 118 89 28 40
        E 5 89 33 40
        E 29 b9 04 22
        E 36 89 2c 40
        E 5 b9 04 32
        E 150 b9 04 22
        E 69 b9 04 12
        E 69 b9 04 00
        E 275 b9 04 12
        E 19 99 33 73
        E 2 b9 04 22
        E 15 b9 04 32
        E 7 b9 04 43
        E 22 b9 04 32
        E 7 b9 04 22
        E 39 b9 04 12
        E 106 b9 04 22
        E 36 b9 04 32
        E 11 89 33 40
        E 154 b9 04 22
        E 51 b9 04 12
        E 43 b9 04 00
        E 307 b9 04 12
        E 7 99 24 73
        E 7 b9 04 22
        E 19 b9 04 32
        E 8 99 33 7f
        E 4 b9 04 43
        E 23 b9 04 32
        E 9 b9 04 20
        E 55 b9 04 0f
        E 114 89 24 40
        E 34 89 33 40
        E 16 b9 04 20
        E 199 b9 04 0f
        E 40 b9 04 00
        E 330 99 24 62
        E 7 b9 04 12
        E 0 99 33 6d
        E 9 b9 04 22
        E 8 b9 04 32
        E 19 b9 04 43
        E 16 b9 04 32
        E 13 b9 04 20
        E 43 b9 04 0f
        E 129 89 24 40
        E 7 89 33 40
        E 19 b9 04 09
        E 46 b9 04 1a
        E 31 b9 04 2c
        E 64 b9 04 3c
        E 66 99 26 77
        E 22 b9 04 2c
        E 49 b9 04 1a
        E 43 b9 04 09
        E 25 b9 04 00
        E 105 89 26 40
        E 182 99 33 7f
        E 14 b9 04 12
        E 18 b9 04 22
        E 18 b9 04 32
        E 15 b9 04 43
        E 17 b9 04 32
        E 12 b9 04 20
        E 129 b9 04 15
        E 21 89 33 40
        E 32 b9 04 25
        E 45 b9 04 36
        E 133 b9 04 25
        E 25 99 24 5f
        E 22 b9 04 15
        E 47 b9 04 03
        E 16 b9 04 00
        E 156 89 24 40
        E 154 99 28 55
        E 17 b9 04 12
        E 9 99 33 7f
        E 2 b9 04 25
        E 18 b9 04 36
        E 17 b9 04 46
        E 5 b9 04 4c
        E 2 99 2c 1a
        E 15 b9 04 36
        E 10 b9 04 25
        E 24 b9 04 15
        E 126 89 28 40
        E 23 89 33 40
        E 47 89 2c 40
        E 10 b9 04 25
        E 195 b9 04 15
        E 55 b9 04 03
        E 17 b9 04 00
        E 265 b9 04 12
        E 13 99 33 5d
        E 10 b9 04 25
        E 10 b9 04 36
        E 9 b9 04 46
        E 15 b9 04 36
        E 12 b9 04 25
        E 36 b9 04 15
        E 107 b9 04 25
        E 31 b9 04 36
        E 14 89 33 40
        E 35 b9 04 46
        E 111 b9 04 36
        E 24 99 24 55
        E 17 b9 04 25
        E 29 b9 04 15
        E 29 b9 04 03
        E 9 b9 04 00
        E 157 89 24 40
        E 110 99 26 79
        E 14 b9 04 12
        E 19 b9 04 25
        E 16 b9 04 36
        E 5 b9 04 46
        E 3 99 33 7f
        E 2 b9 04 4c
        E 5 99 2c 22
        E 13 b9 04 36
        E 9 b9 04 25
        E 38 b9 04 15
        E 118 89 26 40
        E 21 b9 04 25
        E 28 b9 04 36
        E 7 89 33 40
        E 3 89 2c 40
        E 27 b9 04 46
        E 147 b9 04 36
        E 7 99 24 53
        E 32 b9 04 25
        E 31 b9 04 15
        E 41 b9 04 03
        E 12 b9 04 00
        E 126 89 24 40
        E 193 99 26 72
        E 5 99 33 7f
        E 17 b9 04 12
        E 9 b9 04 25
        E 10 b9 04 36
        E 24 b9 04 46
        E 20 b9 04 36
        E 7 b9 04 22
        E 21 b9 04 12
        E 129 89 26 40
        E 4 89 33 40
        E 17 b9 04 22
        E 48 b9 04 32
        E 146 b9 04 22
        E 55 b9 04 12
        E 54 b9 04 00
        E 277 99 33 7f
        E 5 b9 04 12
        E 32 b9 04 22
        E 9 b9 04 32
        E 12 b9 04 43
        E 12 b9 04 32
        E 7 b9 04 22
        E 18 b9 04 12
        E 147 89 33 40
        E 2 b9 04 22
        E 32 b9 04 32
        E 159 b9 04 22
        E 51 b9 04 12
        E 51 b9 04 00
        E 277 b9 04 12
        E 15 99 24 74
        E 4 b9 04 22
        E 18 b9 04 32
        E 2 99 33 7f
        E 9 b9 04 43
        E 18 b9 04 32
        E 6 b9 04 20
        E 68 b9 04 0f
        E 116 89 24 40
        E 25 89 33 40
        E 12 b9 04 20
        E 26 b9 04 30
        E 152 b9 04 20
        E 51 b9 04 0f
        E 39 b9 04 00
        E 295 b9 04 12
        E 9 99 24 60
        E 3 99 33 7f
        E 5 b9 04 22
        E 16 b9 04 32
        E 30 b9 04 20
        E 19 b9 04 0f
        E 171 89 24 40
        E 3 89 33 40
        E 22 b9 04 20
        E 37 b9 04 30
        E 126 b9 04 20
        E 44 99 26 7d
        E 8 b9 04 0f
        E 33 b9 04 00
        E 201 89 26 40
        E 89 b9 04 12
        E 29 b9 04 22
        E 10 b9 04 32
        E 22 99 33 7f
        E 6 b9 04 22
        E 20 b9 04 12
        E 160 b9 04 22
        E 33 b9 04 32
        E 22 89 33 40
        E 104 b9 04 36
        E 51 b9 04 25
        E 8 99 24 64
        E 33 b9 04 15
        E 46 b9 04 03
        E 9 b9 04 00
        E 153 89 24 40
        E 164 99 28 54
        E 17 b9 04 12
        E 15 b9 04 22
        E 14 99 33 7f
        E 7 b9 04 32
        E 12 b9 04 43
        E 15 b9 04 32
        E 10 b9 04 22
        E 16 b9 04 12
        E 135 89 28 40
        E 39 b9 04 22
        E 10 89 33 40
        E 116 b9 04 27
        E 69 b9 04 15
        E 61 b9 04 03
        E 17 b9 04 00
        E 271 b9 04 12
        E 12 99 33 43
        E 7 b9 04 22
        E 12 b9 04 32
        E 34 b9 04 20
        E 125 b9 04 1a
        E 46 b9 04 2c
        E 20 89 33 40
        E 17 b9 04 3c
        E 145 b9 04 2c
        E 27 99 24 60
        E 16 b9 04 1a
        E 44 b9 04 09
        E 26 b9 04 00
        E 155 89 24 40
        E 128 b9 04 12
        E 8 99 26 71
        E 16 b9 04 22
        E 15 b9 04 32
        E 7 b9 04 43
        E 22 99 33 63
        E 2 b9 04 32
        E 8 b9 04 20
        E 128 b9 04 12
        E 45 89 26 40
        E 19 b9 04 22
        E 29 b9 04 32
        E 10 89 33 40
        E 116 b9 04 36
        E 51 b9 04 25
        E 5 99 24 5e
        E 36 b9 04 15
        E 44 b9 04 03
        E 14 b9 04 00
        E 150 89 24 40
        E 159 b9 04 12
        E 8 b9 04 22
        E 7 b9 04 32
        E 7 99 26 7f
        E 15 99 33 62
        E 4 b9 04 43
        E 5 b9 04 4c
        E 3 99 2c 1e
        E 2 b9 04 53
        E 19 b9 04 43
        E 7 b9 04 32
        E 187 89 26 40
        E 12 b9 04 3a
        E 2 89 33 40
        E 13 89 2c 40
        E 42 b9 04 29
        E 37 b9 04 18
        E 17 99 24 7f
        E 33 b9 04 06
        E 39 b9 04 00
        E 169 89 24 40
        E 235 b9 04 12
        E 22 b9 04 25
        E 9 b9 04 36
        E 5 b9 04 47
        E 3 b9 04 4c
        E 2 99 2c 26
        E 10 99 33 5e
        E 2 b9 04 36
        E 10 b9 04 20
        E 17 b9 04 0f
        E 186 b9 04 20
        E 18 89 2c 40
        E 11 89 33 40
        E 19 b9 04 30
        E 162 b9 04 20
        E 65 b9 04 0f
        E 56 b9 04 00
        E 326 b9 04 12
        E 0 99 24 7f
        E 11 b9 04 22
        E 25 b9 04 32
        E 12 b9 04 43
        E 2 99 33 73
        E 5 b9 04 4c
        E 3 99 2c 1c
        E 14 b9 04 32
        E 12 b9 04 20
        E 128 b9 04 18
        E 30 89 24 40
        E 26 b9 04 29
        E 24 89 33 40
        E 7 89 2c 40
        E 140 b9 04 18
        E 54 b9 04 06
        E 18 b9 04 00
        E 322 b9 04 12
        E 12 b9 04 22
        E 5 99 24 71
        E 15 b9 04 32
        E 14 99 33 62
        E 17 b9 04 22
        E 12 b9 04 12
        E 133 b9 04 09
        E 51 89 24 40
        E 14 b9 04 1a
        E 15 89 33 40
        E 31 b9 04 2c
        E 139 b9 04 1a
        E 26 99 26 78
        E 26 b9 04 09
        E 26 b9 04 00
        E 189 89 26 40
        E 109 b9 04 12
        E 21 b9 04 22
        E 44 b9 04 12
        E 29 99 33 62
        E 157 b9 04 22
        E 29 b9 04 32
        E 58 89 33 40
        E 84 b9 04 22
        E 54 b9 04 12
        E 16 99 24 6e
        E 49 b9 04 00
        E 194 89 24 40
        E 147 b9 04 12
        E 4 99 26 77
        E 5 b9 04 25
        E 26 b9 04 36
        E 13 99 33 60
        E 19 b9 04 25
        E 12 b9 04 15
        E 167 89 26 40
        E 19 b9 04 25
        E 24 89 33 40
        E 147 b9 04 15
        E 64 b9 04 03
        E 14 b9 04 00
        E 292 b9 04 12
        E 30 b9 04 22
        E 0 99 33 49
        E 9 b9 04 32
        E 32 b9 04 22
        E 29 b9 04 12
        E 159 b9 04 25
        E 12 89 33 40
        E 43 b9 04 36
        E 118 b9 04 25
        E 33 99 24 64
        E 11 b9 04 15
        E 49 b9 04 03
        E 12 b9 04 00
        E 169 89 24 40
        E 142 b9 04 12
        E 2 99 26 50
        E 11 b9 04 25
        E 12 99 33 7f
        E 4 b9 04 36
        E 20 b9 04 46
        E 14 b9 04 36
        E 10 b9 04 25
        E 39 b9 04 15
        E 135 89 26 40
        E 21 89 33 40
        E 3 b9 04 25
        E 39 b9 04 36
        E 135 99 24 5b
        E 24 b9 04 25
        E 39 b9 04 15
        E 48 b9 04 03
        E 10 b9 04 00
        E 120 89 24 40
        E 143 99 26 7a
        E 54 b9 04 12
        E 6 b9 04 22
        E 17 b9 04 32
        E 17 89 26 40
        E 2 99 26 70
        E 3 b9 04 43
        E 5 b9 04 4c
        E 3 99 2c 1e
        E 19 b9 04 32
        E 10 b9 04 22
        E 57 b9 04 12
        E 119 b9 04 22
        E 26 89 26 40
        E 10 b9 04 32
        E 2 89 2c 40
        E 114 99 24 5d
        E 34 b9 04 22
        E 60 b9 04 12
        E 50 b9 04 00
        E 98 89 24 40
        E 159 99 2d 7f
        E 24 99 30 7f
        E 17 b9 04 12
        E 36 b9 04 22
        E 8 b9 04 32
        E 7 b9 04 43
        E 19 b9 04 32
        E 7 b9 04 20
        E 27 b9 04 0f
        E 99 89 2d 40
        E 22 b9 04 20
        E 2 89 30 40
        E 24 b9 04 30
        E 114 99 24 50
        E 17 b9 04 34
        E 36 b9 04 22
        E 44 b9 04 12
        E 43 b9 04 00
        E 102 89 24 40
        E 248 99 24 7f
        E 2 b9 04 12
        E 8 b9 04 22
        E 5 b9 04 32
        E 7 99 3b 7f
        E 2 b9 04 43
        E 15 b9 04 4c
        E 2 99 2c 1c
        E 24 b9 04 32
        E 10 b9 04 22
        E 34 b9 04 12
        E 138 89 24 40
        E 19 89 3b 40
        E 12 b9 04 22
        E 5 89 2c 40
        E 121 b9 04 2c
        E 65 b9 04 1a
        E 80 b9 04 09
        E 39 b9 04 00
        E 256 99 33 38
        E 26 b9 04 12
        E 26 b9 04 22
        E 15 b9 04 32
        E 17 b9 04 43
        E 22 b9 04 32
        E 24 b9 04 22
        E 111 89 33 40
        E 169 99 26 7f
        E 10 b9 04 12
        E 116 b9 04 00
        E 119 89 26 40
        E 110 b9 04 12
        E 41 b9 04 25
        E 64 99 26 42
        E 11 b9 04 15
        E 157 b9 04 25
        E 34 b9 04 36
        E 41 89 26 40
        E 8 b9 04 46
        E 106 b9 04 36
        E 36 99 24 5c
        E 12 b9 04 25
        E 34 b9 04 15
        E 44 b9 04 03
        E 21 b9 04 00
        E 131 89 24 40
        E 174 99 2d 7f
        E 19 b9 04 12
        E 15 b9 04 22
        E 24 99 26 7f
        E 4 b9 04 32
        E 10 b9 04 43
        E 5 b9 04 4d
        E 3 b9 04 54
        E 0 99 2c 28
        E 21 b9 04 44
        E 7 b9 04 34
        E 46 b9 04 22
        E 89 89 2d 40
        E 39 b9 04 1a
        E 17 89 26 40
        E 25 89 2c 40
        E 40 b9 04 2c
        E 216 b9 04 1a
        E 50 b9 04 09
        E 36 b9 04 00
        E 215 b9 04 12
        E 27 b9 04 22
        E 12 b9 04 32
        E 12 b9 04 43
        E 39 b9 04 32
        E 121 b9 04 43
        E 106 b9 04 32
        E 33 b9 04 22
        E 28 99 24 64
        E 16 b9 04 12
        E 66 b9 04 00
        E 159 89 24 40
        E 142 99 26 7f
        E 34 b9 04 12
        E 10 b9 04 22
        E 22 b9 04 32
        E 17 b9 04 43
        E 2 b9 04 4c
        E 3 99 2c 26
        E 2 b9 04 54
        E 19 b9 04 43
        E 3 89 26 40
        E 2 99 26 7f
        E 3 b9 04 32
        E 5 b9 04 22
        E 65 b9 04 12
        E 144 89 2c 40
        E 5 b9 04 22
        E 18 89 26 40
        E 14 b9 04 32
        E 114 99 24 57
        E 60 b9 04 22
        E 50 b9 04 12
        E 49 b9 04 00
        E 84 89 24 40
        E 129 99 2d 7f
        E 24 99 30 7f
        E 38 b9 04 12
        E 19 b9 04 22
        E 12 b9 04 32
        E 8 b9 04 43
        E 5 b9 04 4c
        E 2 99 2c 20
        E 22 b9 04 32
        E 7 b9 04 22
        E 53 b9 04 12
        E 51 89 2d 40
        E 27 89 30 40
        E 24 b9 04 22
        E 34 b9 04 32
        E 26 89 2c 40
        E 118 99 24 5a
        E 35 b9 04 22
        E 43 b9 04 12
        E 48 b9 04 00
        E 116 89 24 40
        E 116 99 2d 7f
        E 22 99 29 7f
        E 50 b9 04 12
        E 37 b9 04 22
        E 10 b9 04 32
        E 26 b9 04 20
        E 19 b9 04 0f
        E 82 89 2d 40
        E 15 89 29 40
        E 21 b9 04 20
        E 40 b9 04 30
        E 118 b9 04 20
        E 63 b9 04 0f
        E 38 b9 04 00
        E 343 99 24 7f
        E 5 b9 04 12
        E 8 99 33 7f
        E 2 b9 04 25
        E 5 99 31 7f
        E 12 b9 04 36
        E 19 b9 04 46
        E 3 b9 04 4c
        E 2 99 2c 1a
        E 17 b9 04 36
        E 8 b9 04 25
        E 14 b9 04 15
        E 128 b9 04 25
        E 18 89 24 40
        E 15 89 33 40
        E 8 89 31 40
        E 36 89 2c 40
        E 63 b9 04 2c
        E 75 b9 04 1a
        E 137 b9 04 09
        E 71 b9 04 00
        E 195 b9 04 12
        E 32 b9 04 22
        E 7 b9 04 32
        E 31 b9 04 20
        E 343 b9 04 0f
        E 10 99 28 7f
        E 154 b9 04 03
        E 88 89 28 40
        E 14 b9 04 15
        E 31 b9 04 25
        E 29 b9 04 36
        E 73 b9 04 25
        E 132 b9 04 20
        E 49 b9 04 30
        E 39 b9 04 41
        E 22 b9 04 4c
        E 2 99 2c 0a
        E 10 b9 04 51
        E 130 b9 04 58
        E 46 b9 04 47
        E 34 b9 04 36
        E 14 99 24 6e
        E 7 89 2c 40
        E 5 b9 04 25
        E 29 b9 04 15
        E 41 b9 04 03
        E 7 b9 04 00
        E 153 89 24 40
        E 135 99 26 7f
        E 51 b9 04 12
        E 10 b9 04 25
        E 28 b9 04 36
        E 11 b9 04 46
        E 2 99 28 7f
        E 2 b9 04 4d
        E 3 99 2c 22
        E 16 b9 04 36
        E 10 b9 04 25
        E 19 b9 04 15
        E 92 89 26 40
        E 87 b9 04 25
        E 12 89 28 40
        E 2 89 2c 40
        E 119 b9 04 15
        E 58 b9 04 03
        E 19 b9 04 00
        E 285 b9 04 12
        E 25 b9 04 22
        E 7 b9 04 32
        E 9 b9 04 43
        E 22 b9 04 32
        E 13 b9 04 20
        E 145 b9 04 30
        E 45 b9 04 41
        E 147 99 24 5c
        E 3 b9 04 30
        E 32 b9 04 20
        E 43 b9 04 0f
        E 38 b9 04 00
        E 126 89 24 40
        E 179 b9 04 12
        E 10 b9 04 25
        E 10 99 2d 7f
        E 2 99 30 7f
        E 5 b9 04 36
        E 19 b9 04 46
        E 4 b9 04 4d
        E 3 99 2c 24
        E 2 b9 04 57
        E 20 b9 04 46
        E 7 b9 04 36
        E 41 b9 04 25
        E 129 b9 04 1d
        E 9 89 2d 40
        E 2 89 30 40
        E 29 b9 04 2e
        E 2 89 2c 40
        E 134 b9 04 36
        E 2 99 24 53
        E 53 b9 04 25
        E 34 b9 04 15
        E 36 b9 04 03
        E 10 b9 04 00
        E 109 89 24 40
        E 154 99 26 72
        E 17 b9 04 12
        E 26 b9 04 22
        E 17 b9 04 32
        E 5 89 26 40
        E 3 99 26 7f
        E 2 b9 04 44
        E 3 b9 04 4d
        E 2 99 2c 26
        E 19 b9 04 34
        E 13 b9 04 20
        E 130 b9 04 15
        E 51 b9 04 25
        E 22 89 26 40
        E 9 89 2c 40
        E 7 b9 04 36
        E 152 99 24 5f
        E 13 b9 04 25
        E 38 b9 04 15
        E 46 b9 04 03
        E 17 b9 04 00
        E 130 89 24 40
        E 155 99 30 7f
        E 12 99 29 51
        E 27 b9 04 12
        E 34 b9 04 22
        E 14 b9 04 32
        E 29 b9 04 20
        E 21 b9 04 0f
        E 105 89 30 40
        E 11 89 29 40
        E 18 b9 04 20
        E 41 b9 04 30
        E 106 99 30 7f
        E 34 b9 04 20
        E 48 b9 04 0f
        E 32 b9 04 00
        E 126 89 30 40
        E 173 99 24 75
        E 3 b9 04 12
        E 7 b9 04 25
        E 7 b9 04 36
        E 26 b9 04 46
        E 3 b9 04 4c
        E 2 99 2c 16
        E 6 b9 04 56
        E 17 b9 04 44
        E 9 b9 04 34
        E 49 b9 04 20
        E 93 b9 04 0f
        E 20 89 24 40
        E 48 89 2c 40
        E 140 b9 04 20
        E 66 b9 04 30
        E 60 b9 04 41
        E 39 b9 04 4d
        E 2 99 2c 08
        E 17 b9 04 51
        E 133 b9 04 41
        E 33 b9 04 30
        E 30 b9 04 20
        E 31 89 2c 40
        E 5 99 24 6d
        E 7 b9 04 0f
        E 41 b9 04 00
        E 193 89 24 40
        E 160 b9 04 12
        E 7 99 26 7f
        E 3 b9 04 25
        E 36 b9 04 36
        E 10 b9 04 46
        E 2 b9 04 4d
        E 0 99 2c 28
        E 3 b9 04 56
        E 16 b9 04 46
        E 5 b9 04 36
        E 7 b9 04 25
        E 26 99 28 7a
        E 13 b9 04 15
        E 123 89 26 40
        E 48 89 2c 40
        E 61 89 28 40
        E 87 b9 04 25
        E 82 b9 04 36
        E 36 b9 04 46
        E 19 b9 04 4f
        E 3 99 2c 08
        E 22 b9 04 56
        E 147 b9 04 46
        E 34 b9 04 36
        E 31 b9 04 22
        E 7 89 2c 40
        E 32 b9 04 12
        E 49 99 24 62
        E 4 b9 04 00
        E 237 89 24 40
        E 159 99 2d 7f
        E 5 b9 04 12
        E 10 b9 04 22
        E 4 99 30 7f
        E 32 b9 04 32
        E 7 b9 04 43
        E 3 b9 04 4c
        E 2 99 2c 2c
        E 3 b9 04 53
        E 14 b9 04 43
        E 5 b9 04 32
        E 4 b9 04 20
        E 27 b9 04 0f
        E 102 b9 04 20
        E 24 89 2d 40
        E 22 89 30 40
        E 24 b9 04 30
        E 19 89 2c 40
        E 108 b9 04 20
        E 78 b9 04 0f
        E 44 b9 04 00
        E 270 b9 04 12
        E 22 b9 04 22
        E 7 b9 04 32
        E 10 b9 04 43
        E 2 b9 04 4c
        E 3 99 2c 28
        E 2 b9 04 53
        E 12 b9 04 43
        E 10 b9 04 32
        E 10 b9 04 20
        E 198 b9 04 30
        E 7 89 2c 40
        E 34 b9 04 41
        E 152 99 24 5e
        E 12 b9 04 30
        E 35 b9 04 20
        E 43 b9 04 0f
        E 40 b9 04 00
        E 112 89 24 40
        E 133 99 26 7f
        E 55 b9 04 12
        E 8 b9 04 22
        E 9 b9 04 32
        E 10 89 26 40
        E 3 99 26 7f
        E 16 b9 04 43
        E 2 b9 04 4d
        E 3 99 2c 20
        E 5 b9 04 53
        E 14 b9 04 41
        E 7 b9 04 30
        E 15 b9 04 20
        E 179 89 26 40
        E 7 b9 04 30
        E 17 89 2c 40
        E 26 b9 04 41
        E 95 99 24 55
        E 41 b9 04 30
        E 31 b9 04 20
        E 48 b9 04 0f
        E 44 b9 04 00
        E 79 89 24 40
        E 168 99 30 7f
        E 89 b9 04 12
        E 12 b9 04 22
        E 36 b9 04 32
        E 7 b9 04 43
        E 7 89 30 40
        E 3 99 30 5a
        E 12 b9 04 32
        E 5 b9 04 20
        E 24 b9 04 0f
        E 167 89 30 40
        E 0 99 30 6c
        E 7 b9 04 20
        E 27 b9 04 30
        E 129 b9 04 34
        E 37 b9 04 22
        E 24 89 30 40
        E 2 99 30 7f
        E 16 b9 04 12
        E 40 b9 04 00
        E 133 89 30 40
        E 3 99 30 7f
        E 195 b9 04 12
        E 13 b9 04 22
        E 7 89 30 40
        E 2 99 30 78
        E 24 b9 04 32
        E 10 b9 04 44
        E 2 b9 04 4c
        E 3 99 2c 22
        E 15 b9 04 34
        E 11 b9 04 20
        E 82 b9 04 30
        E 25 89 30 40
        E 2 99 30 72
        E 106 89 2c 40
        E 25 b9 04 20
        E 41 b9 04 0f
        E 29 89 30 40
        E 2 99 30 7f
        E 2 b9 04 00
        E 237 89 30 40
        E 7 99 33 7f
        E 10 99 24 66
        E 49 b9 04 12
        E 9 b9 04 25
        E 19 b9 04 36
        E 20 b9 04 46
        E 4 b9 04 4c
        E 3 99 2c 18
        E 14 b9 04 36
        E 12 b9 04 25
        E 51 b9 04 15
        E 52 89 33 40
        E 8 89 24 40
        E 95 b9 04 25
        E 10 89 2c 40
        E 121 b9 04 2c
        E 48 b9 04 1a
        E 46 b9 04 09
        E 21 b9 04 00
        E 230 99 24 58
        E 39 b9 04 12
        E 26 b9 04 22
        E 14 b9 04 32
        E 40 b9 04 22
        E 74 b9 04 12
        E 48 89 24 40
        E 126 b9 04 22
        E 43 b9 04 32
        E 51 99 26 7f
        E 86 99 28 7d
        E 3 b9 04 3c
        E 153 89 26 40
        E 5 b9 04 2c
        E 80 89 28 40
        E 36 b9 04 1a
        E 189 b9 04 2c
        E 14 b9 04 3c
        E 17 b9 04 4c
        E 2 99 2c 12
        E 2 b9 04 4c
        E 22 b9 04 5c
        E 152 b9 04 4c
        E 21 b9 04 3c
        E 22 b9 04 2c
        E 23 89 2c 40
        E 2 b9 04 1a
        E 19 99 24 6a
        E 12 b9 04 09
        E 27 b9 04 00
        E 203 89 24 40
        E 152 99 2d 7f
        E 30 99 30 7f
        E 14 b9 04 12
        E 38 b9 04 22
        E 10 b9 04 32
        E 7 b9 04 44
        E 17 b9 04 34
        E 9 b9 04 20
        E 17 b9 04 0f
        E 59 b9 04 20
        E 45 89 2d 40
        E 27 89 30 40
        E 54 b9 04 27
        E 60 b9 04 15
        E 53 b9 04 03
        E 14 b9 04 00
        E 279 b9 04 12
        E 21 b9 04 22
        E 7 b9 04 32
        E 7 b9 04 43
        E 8 b9 04 4c
        E 1 99 2c 1e
        E 18 b9 04 32
        E 10 b9 04 22
        E 151 b9 04 32
        E 62 b9 04 43
        E 1 89 2c 40
        E 105 b9 04 32
        E 36 b9 04 22
        E 29 99 24 61
        E 19 b9 04 12
        E 48 b9 04 00
        E 174 89 24 40
        E 152 99 26 7f
        E 10 b9 04 12
        E 7 b9 04 22
        E 10 b9 04 32
        E 29 b9 04 43
        E 5 b9 04 4c
        E 2 99 2c 20
        E 3 b9 04 53
        E 21 b9 04 43
        E 7 b9 04 32
        E 3 99 28 7f
        E 42 b9 04 22
        E 58 b9 04 12
        E 47 89 26 40
        E 64 89 2c 40
        E 9 b9 04 22
        E 24 b9 04 32
        E 3 89 28 40
        E 27 b9 04 43
        E 125 99 24 55
        E 29 b9 04 32
        E 29 b9 04 22
        E 39 b9 04 12
        E 37 b9 04 00
        E 108 89 24 40
        E 164 99 2d 7f
        E 79 b9 04 12
        E 37 b9 04 22
        E 19 b9 04 32
        E 5 b9 04 43
        E 4 89 2d 40
        E 3 99 2d 7f
        E 2 b9 04 4c
        E 2 99 2c 20
        E 13 b9 04 30
        E 5 b9 04 20
        E 24 b9 04 0f
        E 135 b9 04 20
        E 29 b9 04 30
        E 3 89 2d 40
        E 2 99 2d 7f
        E 29 89 2c 40
        E 19 b9 04 41
        E 100 b9 04 30
        E 36 b9 04 20
        E 24 89 2d 40
        E 2 99 2d 7f
        E 15 b9 04 0f
        E 29 b9 04 00
        E 196 89 2d 40
        E 21 99 29 6e
        E 111 b9 04 12
        E 12 b9 04 22
        E 37 b9 04 32
        E 9 b9 04 43
        E 19 b9 04 32
        E 11 b9 04 20
        E 19 89 29 40
        E 2 99 29 7e
        E 22 b9 04 0f
        E 135 b9 04 20
        E 10 89 29 40
        E 3 99 29 66
        E 173 b9 04 0f
        E 15 89 29 40
        E 2 99 29 6d
        E 21 b9 04 00
        E 218 89 29 40
        E 3 99 24 7f
        E 24 99 33 7c
        E 39 b9 04 12
        E 21 b9 04 22
        E 15 b9 04 32
        E 34 b9 04 20
        E 111 89 24 40
        E 14 b9 04 18
        E 9 89 33 40
        E 33 b9 04 29
        E 40 b9 04 3a
        E 153 b9 04 29
        E 70 b9 04 18
        E 253 99 24 58
        E 66 b9 04 22
        E 128 b9 04 29
        E 50 89 24 40
        E 37 b9 04 18
        E 69 b9 04 06
        E 39 b9 04 00
        E 126 99 26 7f
        E 16 99 33 7f
        E 5 b9 04 12
        E 24 b9 04 22
        E 13 b9 04 32
        E 17 b9 04 43
        E 7 b9 04 4c
        E 2 99 2c 14
        E 8 b9 04 53
        E 24 b9 04 43
        E 19 b9 04 32
        E 41 b9 04 22
        E 48 b9 04 12
        E 20 89 26 40
        E 15 89 33 40
        E 68 89 2c 40
        E 139 b9 04 22
        E 21 b9 04 32
        E 27 b9 04 43
        E 22 b9 04 4d
        E 3 99 2c 0a
        E 9 b9 04 53
        E 143 b9 04 43
        E 29 b9 04 32
        E 17 b9 04 22
        E 34 b9 04 12
        E 9 89 2c 40
        E 17 99 24 5f
        E 22 b9 04 00
        E 220 89 24 40
        E 147 99 2d 7f
        E 27 b9 04 12
        E 2 99 30 7f
        E 7 b9 04 22
        E 39 b9 04 32
        E 7 b9 04 44
        E 3 b9 04 4c
        E 2 99 2c 36
        E 3 b9 04 55
        E 17 b9 04 44
        E 4 b9 04 34
        E 7 b9 04 20
        E 126 89 2d 40
        E 29 89 30 40
        E 29 b9 04 30
        E 27 89 2c 40
        E 99 b9 04 20
        E 72 b9 04 0f
        E 51 b9 04 00
        E 256 b9 04 12
        E 17 b9 04 25
        E 12 b9 04 36
        E 7 b9 04 46
        E 2 b9 04 4c
        E 3 99 2c 1c
        E 29 b9 04 36
        E 97 b9 04 46
        E 115 89 2c 40
        E 23 b9 04 36
        E 36 b9 04 25
        E 28 b9 04 15
        E 23 99 24 63
        E 17 b9 04 03
        E 14 b9 04 00
        E 212 89 24 40
        E 116 99 26 7f
        E 2 b9 04 12
        E 10 b9 04 25
        E 13 b9 04 36
        E 26 b9 04 47
        E 3 b9 04 4c
        E 2 99 2c 24
        E 5 b9 04 57
        E 12 b9 04 46
        E 7 b9 04 36
        E 10 b9 04 25
        E 21 99 28 7f
        E 27 b9 04 15
        E 106 89 26 40
        E 56 89 2c 40
        E 12 b9 04 25
        E 34 b9 04 36
        E 5 89 28 40
        E 132 99 24 5a
        E 30 b9 04 25
        E 38 b9 04 15
        E 41 b9 04 03
        E 12 b9 04 00
        E 124 89 24 40
        E 137 99 2d 7f
        E 22 b9 04 12
        E 5 99 30 7f
        E 9 b9 04 22
        E 17 b9 04 32
        E 17 b9 04 43
        E 2 b9 04 4c
        E 3 99 2c 1e
        E 6 b9 04 54
        E 9 b9 04 64
        E 12 b9 04 54
        E 7 b9 04 44
        E 44 b9 04 34
        E 30 b9 04 22
        E 59 89 2d 40
        E 32 89 30 40
        E 11 b9 04 32
        E 34 89 2c 40
        E 13 b9 04 43
        E 139 99 24 64
        E 5 b9 04 32
        E 32 b9 04 22
        E 33 b9 04 12
        E 44 b9 04 00
        E 130 89 24 40
        E 126 99 26 5c
        E 63 b9 04 12
        E 14 b9 04 22
        E 3 99 28 7a
        E 27 b9 04 32
        E 7 b9 04 43
        E 4 b9 04 4c
        E 3 99 2c 22
        E 17 b9 04 32
        E 7 b9 04 20
        E 96 89 26 40
        E 22 b9 04 30
        E 59 89 28 40
        E 43 89 2c 40
        E 38 b9 04 20
        E 59 b9 04 0f
        E 50 b9 04 00
        E 374 b9 04 12
        E 13 b9 04 25
        E 5 99 24 7f
        E 21 b9 04 36
        E 10 99 33 7f
        E 2 b9 04 46
        E 15 b9 04 36
        E 10 b9 04 25
        E 12 b9 04 15
        E 89 b9 04 25
        E 85 89 24 40
        E 31 89 33 40
        E 34 b9 04 2c
        E 61 b9 04 1a
        E 60 b9 04 09
        E 36 b9 04 00
        E 300 b9 04 12
        E 23 b9 04 22
        E 20 b9 04 32
        E 10 b9 04 43
        E 5 b9 04 4c
        E 2 99 2c 24
        E 3 b9 04 53
        E 28 b9 04 43
        E 44 b9 04 32
        E 31 b9 04 22
        E 129 b9 04 1d
        E 4 89 2c 40
        E 39 b9 04 2e
        E 135 b9 04 36
        E 45 99 28 7f
        E 42 b9 04 25
        E 53 b9 04 15
        E 80 b9 04 03
        E 40 b9 04 00
        E 30 89 28 40
        E 121 b9 04 12
        E 36 b9 04 22
        E 15 b9 04 32
        E 14 b9 04 43
        E 19 b9 04 32
        E 94 b9 04 43
        E 42 b9 04 4c
        E 2 99 2c 08
        E 126 b9 04 32
        E 26 b9 04 22
        E 37 b9 04 12
        E 7 99 24 6e
        E 39 b9 04 00
        E 7 89 2c 40
        E 195 89 24 40
        E 158 99 2d 7f
        E 2 99 30 7b
        E 14 b9 04 12
        E 44 b9 04 22
        E 7 b9 04 32
        E 3 b9 04 44
        E 2 b9 04 4c
        E 2 99 2c 38
        E 2 b9 04 54
        E 15 b9 04 44
        E 5 b9 04 32
        E 7 b9 04 20
        E 85 b9 04 30
        E 53 89 2d 40
        E 2 89 30 40
        E 68 b9 04 20
        E 7 89 2c 40
        E 46 b9 04 0f
        E 41 b9 04 00
        E 288 b9 04 12
        E 34 b9 04 25
        E 12 b9 04 36
        E 6 b9 04 46
        E 3 b9 04 4c
        E 3 99 2c 28
        E 2 b9 04 56
        E 15 b9 04 46
        E 6 b9 04 36
        E 13 b9 04 25
        E 70 b9 04 36
        E 46 b9 04 46
        E 89 89 2c 40
        E 56 b9 04 36
        E 34 b9 04 25
        E 31 b9 04 15
        E 20 99 24 65
        E 19 b9 04 03
        E 14 b9 04 00
        E 211 89 24 40
        E 116 99 26 7f
        E 65 b9 04 12
        E 36 89 26 40
        E 2 99 26 7e
        E 8 b9 04 22
        E 7 b9 04 32
        E 5 b9 04 43
        E 14 b9 04 32
        E 5 b9 04 22
        E 12 b9 04 12
        E 104 b9 04 22
        E 51 b9 04 32
        E 34 89 26 40
        E 67 b9 04 22
        E 5 99 26 6a
        E 33 b9 04 12
        E 40 b9 04 00
        E 60 99 30 7f
        E 108 89 26 40
        E 44 99 2d 6a
        E 87 b9 04 12
        E 3 89 30 40
        E 7 b9 04 25
        E 17 b9 04 36
        E 9 99 24 7f
        E 15 b9 04 46
        E 2 b9 04 4d
        E 3 99 2c 1c
        E 2 b9 04 56
        E 22 b9 04 46
        E 12 b9 04 36
        E 63 89 2d 40
        E 123 89 24 40
        E 3 b9 04 46
        E 19 89 2c 40
        E 142 b9 04 36
        E 17 99 24 5a
        E 20 b9 04 22
        E 28 b9 04 12
        E 32 b9 04 00
        E 162 89 24 40
        E 132 99 26 7f
        E 23 b9 04 12
        E 9 b9 04 25
        E 34 b9 04 36
        E 7 b9 04 46
        E 3 b9 04 4c
        E 2 99 2c 24
        E 14 99 28 7f
        E 5 b9 04 36
        E 8 b9 04 25
        E 12 b9 04 15
        E 128 89 26 40
        E 53 b9 04 25
        E 21 89 2c 40
        E 17 89 28 40
        E 6 b9 04 36
        E 106 99 24 64
        E 18 b9 04 25
        E 37 b9 04 15
        E 42 b9 04 03
        E 7 b9 04 00
        E 137 89 24 40
        E 182 b9 04 12
        E 9 b9 04 22
        E 3 99 24 7f
        E 2 b9 04 32
        E 29 99 33 7f
        E 2 b9 04 43
        E 7 b9 04 4c
        E 0 99 31 7f
        E 5 99 2c 20
        E 3 b9 04 53
        E 14 b9 04 43
        E 7 b9 04 32
        E 17 b9 04 22
        E 68 b9 04 12
        E 87 89 24 40
        E 15 b9 04 22
        E 19 89 33 40
        E 10 89 31 40
        E 2 b9 04 32
        E 0 89 2c 40
        E 145 b9 04 22
        E 39 b9 04 12
        E 40 b9 04 00
        E 291 99 33 6a
        E 9 b9 04 12
        E 7 99 24 63
        E 3 b9 04 22
        E 7 b9 04 32
        E 31 b9 04 43
        E 5 b9 04 4c
        E 2 99 2c 1c
        E 5 b9 04 53
        E 22 b9 04 43
        E 123 b9 04 36
        E 27 89 33 40
        E 19 89 24 40
        E 15 b9 04 25
        E 34 89 2c 40
        E 17 b9 04 15
        E 65 b9 04 03
        E 12 b9 04 00
        E 31 99 26 6c
        E 242 89 26 40
        E 53 b9 04 12
        E 32 b9 04 25
        E 10 b9 04 36
        E 9 b9 04 47
        E 0 b9 04 4c
        E 2 99 2c 22
        E 18 b9 04 36
        E 11 b9 04 25
        E 56 99 33 50
        E 5 b9 04 15
        E 152 89 2c 40
        E 10 b9 04 25
        E 28 b9 04 36
        E 35 b9 04 46
        E 11 89 33 40
        E 126 b9 04 36
        E 37 b9 04 25
        E 26 99 24 6b
        E 5 b9 04 15
        E 33 b9 04 03
        E 13 b9 04 00
        E 191 89 24 40
        E 171 b9 04 12
        E 10 b9 04 25
        E 7 99 26 7f
        E 17 b9 04 36
        E 5 99 33 7f
        E 7 b9 04 46
        E 17 b9 04 36
        E 10 b9 04 22
        E 14 b9 04 12
        E 162 b9 04 22
        E 12 89 26 40
        E 22 89 33 40
        E 9 b9 04 32
        E 107 b9 04 22
        E 48 b9 04 12
        E 49 b9 04 00
        E 306 99 33 3d
        E 7 b9 04 12
        E 24 b9 04 22
        E 8 b9 04 32
        E 7 b9 04 43
        E 5 b9 04 4c
        E 2 99 2c 24
        E 17 b9 04 32
        E 10 b9 04 22
        E 162 89 33 40
        E 56 89 2c 40
        E 43 b9 04 29
        E 68 b9 04 18
        E 33 99 28 69
        E 22 b9 04 06
        E 27 b9 04 00
        E 192 89 28 40
        E 110 b9 04 12
        E 29 b9 04 22
        E 12 b9 04 32
        E 5 b9 04 43
        E 4 b9 04 4c
        E 3 99 2c 24
        E 7 99 33 42
        E 15 b9 04 32
        E 12 b9 04 20
        E 161 b9 04 18
        E 47 89 2c 40
        E 2 b9 04 29
        E 5 89 33 40
        E 51 b9 04 3a
        E 108 99 24 62
        E 2 b9 04 29
        E 45 b9 04 18
        E 35 b9 04 06
        E 15 b9 04 00
        E 145 89 24 40
        E 167 b9 04 12
        E 16 b9 04 22
        E 5 99 33 46
        E 17 b9 04 32
        E 12 b9 04 43
        E 3 b9 04 4c
        E 2 99 2c 26
        E 2 b9 04 53
        E 15 b9 04 43
        E 7 b9 04 32
        E 7 b9 04 22
        E 123 b9 04 1d
        E 47 b9 04 2e
        E 7 89 33 40
        E 26 b9 04 3e
        E 10 89 2c 40
        E 130 99 24 65
        E 15 b9 04 2e
        E 34 b9 04 1d
        E 39 b9 04 0c
        E 24 b9 04 00
        E 130 89 24 40
        E 155 99 26 79
        E 43 99 33 54
        E 2 b9 04 12
        E 10 b9 04 25
        E 16 b9 04 36
        E 20 b9 04 46
        E 5 b9 04 4c
        E 3 99 2c 1c
        E 17 b9 04 36
        E 7 b9 04 25
        E 12 b9 04 15
        E 109 89 26 40
        E 32 b9 04 25
        E 11 89 33 40
        E 53 89 2c 40
        E 114 b9 04 15
        E 46 b9 04 03
        E 7 b9 04 00
        E 336 b9 04 12
        E 10 b9 04 22
        E 2 99 24 79
        E 5 99 33 7f
        E 2 b9 04 32
        E 22 b9 04 43
        E 22 b9 04 32
        E 9 b9 04 20
        E 34 b9 04 0f
        E 107 b9 04 20
        E 40 b9 04 30
        E 3 89 24 40
        E 4 89 33 40
        E 107 b9 04 20
        E 56 b9 04 0f
        E 41 b9 04 00
        E 326 b9 04 12
        E 9 b9 04 25
        E 13 99 24 66
        E 2 b9 04 36
        E 17 99 33 53
        E 26 b9 04 25
        E 15 b9 04 15
        E 152 b9 04 09
        E 29 89 24 40
        E 22 89 33 40
        E 15 b9 04 1a
        E 33 b9 04 2c
        E 129 b9 04 34
        E 14 99 26 7f
        E 41 b9 04 22
        E 41 b9 04 12
        E 44 b9 04 00
        E 118 89 26 40
        E 159 b9 04 12
        E 24 99 33 3d
        E 2 b9 04 22
        E 8 b9 04 32
        E 12 b9 04 43
        E 15 b9 04 32
        E 9 b9 04 22
        E 126 b9 04 1a
        E 36 b9 04 2c
        E 34 89 33 40
        E 5 b9 04 3c
        E 2 99 33 0d
        E 146 b9 04 2c
        E 31 99 24 5e
        E 9 b9 04 1a
        E 46 b9 04 09
        E 10 89 33 40
        E 14 b9 04 00
        E 165 89 24 40
        E 166 b9 04 12
        E 10 b9 04 25
        E 10 99 28 7f
        E 17 b9 04 36
        E 7 99 33 4d
        E 5 b9 04 46
        E 2 b9 04 4c
        E 3 99 2c 1c
        E 14 b9 04 36
        E 12 b9 04 25
        E 32 b9 04 15
        E 140 b9 04 25
        E 12 89 28 40
        E 24 89 33 40
        E 7 89 2c 40
        E 147 b9 04 15
        E 56 b9 04 03
        E 15 b9 04 00
        E 285 b9 04 12
        E 22 99 33 4e
        E 7 b9 04 22
        E 12 b9 04 32
        E 7 b9 04 43
        E 5 b9 04 4d
        E 2 99 2c 24
        E 22 b9 04 32
        E 14 b9 04 22
        E 150 b9 04 18
        E 24 89 33 40
        E 25 b9 04 29
        E 6 89 2c 40
        E 23 b9 04 3a
        E 67 b9 04 4a
        E 51 99 24 51
        E 41 b9 04 3a
        E 44 b9 04 29
        E 38 b9 04 18
        E 29 b9 04 06
        E 17 b9 04 00
        E 75 89 24 40
        E 186 99 26 7f
        E 13 99 33 6d
        E 28 b9 04 12
        E 24 b9 04 22
        E 15 b9 04 32
        E 7 b9 04 43
        E 5 b9 04 4c
        E 2 99 2c 22
        E 17 b9 04 32
        E 5 b9 04 22
        E 29 b9 04 12
        E 97 89 26 40
        E 12 89 33 40
        E 34 b9 04 22
        E 43 b9 04 32
        E 7 89 2c 40
        E 94 b9 04 22
        E 41 b9 04 12
        E 46 b9 04 00
        E 303 b9 04 12
        E 4 99 24 68
        E 9 b9 04 25
        E 18 99 33 56
        E 5 b9 04 36
        E 43 b9 04 22
        E 68 b9 04 12
        E 101 89 24 40
        E 24 89 33 40
        E 21 b9 04 22
        E 20 b9 04 32
        E 32 b9 04 43
        E 26 b9 04 4c
        E 3 99 2c 08
        E 131 b9 04 32
        E 26 b9 04 22
        E 34 b9 04 12
        E 36 b9 04 00
        E 17 89 2c 40
        E 261 99 26 7f
        E 34 b9 04 12
        E 7 99 33 7f
        E 2 b9 04 22
        E 10 b9 04 32
        E 17 b9 04 43
        E 22 b9 04 32
        E 9 b9 04 20
        E 32 b9 04 0f
        E 109 89 26 40
        E 36 b9 04 20
        E 7 89 33 40
        E 19 b9 04 30
        E 128 b9 04 36
        E 51 b9 04 25
        E 31 b9 04 15
        E 39 b9 04 03
        E 10 b9 04 00
        E 319 b9 04 12
        E 9 b9 04 25
        E 7 99 24 7f
        E 5 b9 04 36
        E 27 99 33 7f
        E 24 b9 04 25
        E 24 b9 04 15
        E 158 b9 04 0c
        E 4 89 24 40
        E 37 89 33 40
        E 8 b9 04 1d
        E 26 b9 04 2e
        E 40 b9 04 3e
        E 131 b9 04 2e
        E 34 b9 04 1d
        E 48 b9 04 0c
        E 29 b9 04 00
        E 253 99 26 7f
        E 17 b9 04 12
        E 8 99 33 7f
        E 2 b9 04 22
        E 7 b9 04 32
        E 17 b9 04 43
        E 7 b9 04 4c
        E 3 99 2c 14
        E 3 b9 04 54
        E 33 b9 04 44
        E 58 b9 04 34
        E 63 b9 04 22
        E 26 89 26 40
        E 24 89 33 40
        E 37 89 2c 40
        E 63 b9 04 32
        E 37 b9 04 43
        E 55 b9 04 4f
        E 2 99 2c 06
        E 58 99 24 68
        E 58 b9 04 32
        E 29 b9 04 22
        E 34 b9 04 12
        E 43 b9 04 00
        E 20 89 2c 40
        E 63 89 24 40
        E 174 b9 04 12
        E 21 b9 04 25
        E 7 99 33 79
        E 5 b9 04 36
        E 7 b9 04 46
        E 2 b9 04 4c
        E 3 99 2c 24
        E 2 b9 04 56
        E 22 b9 04 46
        E 15 b9 04 36
        E 55 b9 04 25
        E 78 b9 04 15
        E 53 89 33 40
        E 22 89 2c 40
        E 19 b9 04 25
        E 29 b9 04 36
        E 31 b9 04 46
        E 138 99 24 65
        E 10 b9 04 36
        E 36 b9 04 22
        E 39 b9 04 12
        E 36 b9 04 00
        E 121 89 24 40
        E 164 99 26 79
        E 19 b9 04 12
        E 7 b9 04 25
        E 10 b9 04 36
        E 15 99 33 7f
        E 12 b9 04 46
        E 2 b9 04 4c
        E 3 99 2c 1a
        E 2 b9 04 57
        E 25 b9 04 46
        E 9 b9 04 36
        E 48 b9 04 25
        E 32 b9 04 15
        E 60 89 26 40
        E 53 89 33 40
        E 12 89 2c 40
        E 17 b9 04 25
        E 61 b9 04 36
        E 98 b9 04 25
        E 37 b9 04 15
        E 36 b9 04 03
        E 8 b9 04 00
        E 287 b9 04 12
        E 5 b9 04 25
        E 7 b9 04 36
        E 2 99 33 7f
        E 5 b9 04 46
        E 13 b9 04 4c
        E 2 99 2c 26
        E 12 b9 04 56
        E 31 b9 04 46
        E 46 b9 04 36
        E 48 b9 04 25
        E 49 b9 04 15
        E 39 89 33 40
        E 17 89 2c 40
        E 45 b9 04 25
        E 27 b9 04 36
        E 31 b9 04 46
        E 31 b9 04 4f
        E 5 99 2c 08
        E 37 99 24 5c
        E 92 b9 04 36
        E 33 b9 04 22
        E 34 b9 04 12
        E 37 b9 04 00
        E 9 89 2c 40
        E 36 89 24 40
        E 189 99 26 7f
        E 24 99 33 7f
        E 2 b9 04 12
        E 14 b9 04 22
        E 13 b9 04 32
        E 10 b9 04 43
        E 5 b9 04 4f
        E 2 99 2c 30
        E 4 b9 04 54
        E 18 b9 04 43
        E 7 b9 04 32
        E 7 b9 04 22
        E 136 89 26 40
        E 23 89 33 40
        E 30 b9 04 32
        E 17 89 2c 40
        E 57 99 24 4e
        E 68 b9 04 22
        E 44 b9 04 12
        E 36 b9 04 00
        E 94 89 24 40
        E 177 b9 04 12
        E 7 b9 04 25
        E 9 99 24 62
        E 2 b9 04 36
        E 18 b9 04 46
        E 4 b9 04 4c
        E 3 99 2c 14
        E 14 99 33 71
        E 8 b9 04 36
        E 14 b9 04 25
        E 56 b9 04 15
        E 123 89 24 40
        E 17 b9 04 25
        E 10 89 2c 40
        E 11 b9 04 36
        E 5 89 33 40
        E 20 b9 04 46
        E 16 b9 04 4f
        E 3 99 2c 0c
        E 15 b9 04 56
        E 89 99 24 4c
        E 26 b9 04 46
        E 32 b9 04 36
        E 24 b9 04 22
        E 27 b9 04 12
        E 26 89 2c 40
        E 3 b9 04 00
        E 103 89 24 40
        E 189 b9 04 12
        E 2 b9 04 22
        E 5 b9 04 34
        E 5 b9 04 46
        E 3 b9 04 4d
        E 2 99 2c 34
        E 2 99 28 67
        E 29 b9 04 57
        E 5 99 33 71
        E 2 b9 04 69
        E 15 b9 04 57
        E 12 b9 04 47
        E 41 b9 04 36
        E 22 b9 04 25
        E 39 b9 04 15
        E 77 89 2c 40
        E 3 89 28 40
        E 33 89 33 40
        E 43 b9 04 25
        E 27 b9 04 36
        E 36 99 24 60
        E 129 b9 04 25
        E 23 b9 04 15
        E 29 b9 04 03
        E 7 b9 04 00
        E 54 89 24 40
        E 193 99 24 63
        E 20 b9 04 12
        E 4 b9 04 22
        E 7 b9 04 32
        E 5 b9 04 43
        E 3 99 33 5d
        E 19 b9 04 4c
        E 3 99 2c 26
        E 6 b9 04 53
        E 23 b9 04 43
        E 14 b9 04 32
        E 46 b9 04 22
        E 68 b9 04 12
        E 24 89 24 40
        E 38 89 33 40
        E 13 b9 04 25
        E 9 89 2c 40
        E 12 b9 04 36
        E 25 b9 04 46
        E 14 b9 04 4f
        E 2 99 2c 0a
        E 17 b9 04 56
        E 73 99 33 2f
        E 16 99 24 60
        E 42 b9 04 46
        E 29 b9 04 36
        E 22 b9 04 22
        E 24 b9 04 12
        E 21 89 2c 40
        E 15 b9 04 00
        E 73 89 33 40
        E 16 89 24 40
        E 165 b9 04 12
        E 5 b9 04 22
        E 4 b9 04 32
        E 8 b9 04 43
        E 5 99 26 7e
        E 14 b9 04 4c
        E 2 99 2c 20
        E 5 99 33 7f
        E 2 b9 04 54
        E 7 b9 04 64
        E 20 b9 04 53
        E 10 b9 04 43
        E 43 b9 04 32
        E 25 b9 04 22
        E 55 b9 04 12
        E 58 89 26 40
        E 17 89 2c 40
        E 5 89 33 40
        E 41 b9 04 22
        E 24 b9 04 32
        E 32 b9 04 43
        E 17 99 24 4e
        E 31 99 33 43
        E 96 b9 04 32
        E 22 b9 04 22
        E 25 b9 04 12
        E 30 b9 04 00
        E 35 89 24 40
        E 33 89 33 40
        E 181 99 24 60
        E 8 b9 04 12
        E 7 b9 04 22
        E 5 b9 04 32
        E 0 99 33 7f
        E 8 b9 04 44
        E 19 b9 04 4c
        E 2 99 2c 24
        E 7 b9 04 54
        E 10 b9 04 64
        E 19 b9 04 54
        E 34 b9 04 44
        E 21 b9 04 34
        E 32 b9 04 22
        E 53 b9 04 12
        E 20 89 24 40
        E 19 89 33 40
        E 26 89 2c 40
        E 32 b9 04 25
        E 21 b9 04 36
        E 24 b9 04 46
        E 17 b9 04 4f
        E 3 99 2c 0c
        E 24 b9 04 56
        E 22 99 33 43
        E 15 99 24 51
        E 74 b9 04 46
        E 32 b9 04 36
        E 22 b9 04 25
        E 21 b9 04 15
        E 27 b9 04 03
        E 7 89 2c 40
        E 2 b9 04 00
        E 47 89 33 40
        E 9 89 24 40
        E 186 99 26 7f
        E 5 b9 04 12
        E 5 b9 04 22
        E 5 b9 04 32
        E 7 b9 04 43
        E 7 99 33 7f
        E 7 b9 04 4c
        E 3 99 2c 22
        E 7 b9 04 53
        E 11 b9 04 64
        E 18 b9 04 54
        E 12 b9 04 44
        E 39 b9 04 34
        E 32 b9 04 22
        E 45 b9 04 12
        E 38 89 26 40
        E 30 89 33 40
        E 9 89 2c 40
        E 49 b9 04 22
        E 19 b9 04 32
        E 27 b9 04 43
        E 24 99 24 59
        E 5 b9 04 4f
        E 4 99 2c 0a
        E 7 b9 04 53
        E 8 99 33 3d
        E 94 b9 04 43
        E 27 b9 04 32
        E 14 b9 04 22
        E 24 b9 04 12
        E 27 b9 04 00
        E 31 89 24 40
        E 12 89 2c 40
        E 12 89 33 40
        E 170 99 24 57
        E 31 b9 04 12
        E 12 99 33 7f
        E 3 b9 04 22
        E 2 b9 04 34
        E 0 b9 04 46
        E 2 b9 04 4c
        E 3 99 2c 30
        E 27 b9 04 56
        E 11 b9 04 66
        E 12 b9 04 56
        E 13 b9 04 46
        E 36 b9 04 36
        E 24 b9 04 25
        E 39 b9 04 15
        E 28 89 24 40
        E 44 89 33 40
        E 9 89 2c 40
        E 22 b9 04 25
        E 25 b9 04 36
        E 24 b9 04 46
        E 22 b9 04 4f
        E 1 99 2c 0a
        E 30 b9 04 56
        E 29 99 33 4f
        E 7 99 24 51
        E 49 b9 04 46
        E 26 b9 04 36
        E 25 b9 04 22
        E 21 b9 04 12
        E 31 b9 04 00
        E 27 89 2c 40
        E 56 89 33 40
        E 7 89 24 40
        E 167 b9 04 12
        E 4 b9 04 25
        E 5 b9 04 36
        E 3 b9 04 47
        E 2 b9 04 4d
        E 3 99 2c 3a
        E 2 99 26 7f
        E 24 b9 04 57
        E 8 b9 04 67
        E 7 99 33 7f
        E 19 b9 04 57
        E 39 b9 04 47
        E 29 b9 04 36
        E 26 b9 04 25
        E 34 b9 04 15
        E 55 89 2c 40
        E 2 89 26 40
        E 37 89 33 40
        E 55 b9 04 25
        E 17 b9 04 36
        E 24 b9 04 46
        E 15 b9 04 4d
        E 2 99 2c 0c
        E 8 99 24 57
        E 17 b9 04 56
        E 29 99 33 4c
        E 72 b9 04 46
        E 25 b9 04 36
        E 19 b9 04 25
        E 19 b9 04 15
        E 26 b9 04 03
        E 11 b9 04 00
        E 16 89 2c 40
        E 10 89 24 40
        E 43 89 33 40
        E 148 99 24 51
        E 22 b9 04 12
        E 7 b9 04 25
        E 9 b9 04 36
        E 3 b9 04 46
        E 2 b9 04 4c
        E 5 99 2c 2c
        E 5 99 33 7f
        E 12 b9 04 56
        E 17 b9 04 46
        E 17 b9 04 36
        E 48 b9 04 25
        E 36 b9 04 15
        E 61 89 24 40
        E 43 89 2c 40
        E 10 89 33 40
        E 8 b9 04 25
        E 23 b9 04 36
        E 30 b9 04 46
        E 21 b9 04 4f
        E 3 99 2c 08
        E 28 b9 04 56
        E 42 99 24 53
        E 14 99 33 48
        E 37 b9 04 46
        E 26 b9 04 36
        E 24 b9 04 22
        E 24 b9 04 12
        E 37 b9 04 00
        E 9 89 2c 40
        E 70 89 24 40
        E 14 89 33 40
        E 143 b9 04 12
        E 10 99 26 7f
        E 3 b9 04 22
        E 7 b9 04 32
        E 19 b9 04 43
        E 5 b9 04 4c
        E 2 99 2c 16
        E 3 b9 04 53
        E 14 99 33 7f
        E 14 b9 04 43
        E 39 b9 04 32
        E 17 b9 04 22
        E 41 b9 04 12
        E 77 89 26 40
        E 37 89 2c 40
        E 14 b9 04 22
        E 5 89 33 40
        E 19 b9 04 32
        E 31 b9 04 43
        E 27 99 24 53
        E 32 b9 04 4f
        E 2 99 2c 06
        E 36 99 33 3d
        E 52 b9 04 32
        E 21 b9 04 22
        E 24 b9 04 12
        E 31 b9 04 00
        E 44 89 24 40
        E 34 89 2c 40
        E 37 89 33 40
        E 122 b9 04 12
        E 5 99 24 59
        E 8 b9 04 25
        E 6 b9 04 36
        E 10 b9 04 46
        E 7 b9 04 4c
        E 3 99 2c 16
        E 19 99 33 7f
        E 17 b9 04 36
        E 53 b9 04 25
        E 49 b9 04 15
        E 69 89 24 40
        E 35 89 2c 40
        E 21 89 33 40
        E 1 b9 04 25
        E 6 b9 04 36
        E 27 b9 04 46
        E 15 b9 04 4f
        E 2 99 2c 0a
        E 20 b9 04 56
        E 99 99 24 53
        E 4 99 33 53
        E 29 b9 04 46
        E 22 b9 04 36
        E 19 b9 04 22
        E 22 b9 04 12
        E 26 89 2c 40
        E 7 b9 04 00
        E 112 89 24 40
        E 4 89 33 40
        E 131 b9 04 12
        E 10 b9 04 25
        E 8 b9 04 36
        E 6 b9 04 46
        E 8 b9 04 4c
        E 2 99 2c 1e
        E 2 99 26 7f
        E 8 b9 04 56
        E 9 b9 04 67
        E 17 99 33 7f
        E 5 b9 04 57
        E 36 b9 04 47
        E 20 b9 04 36
        E 34 b9 04 25
        E 32 b9 04 15
        E 81 89 2c 40
        E 3 89 26 40
        E 31 89 33 40
        E 38 b9 04 27
        E 24 b9 04 38
        E 32 b9 04 49
        E 12 b9 04 4d
        E 3 99 2c 0a
        E 24 99 24 5c
        E 21 99 33 4b
        E 73 b9 04 38
        E 27 b9 04 27
        E 23 b9 04 15
        E 25 b9 04 03
        E 5 b9 04 00
        E 46 89 2c 40
        E 21 89 24 40
        E 25 89 33 40
        E 144 99 24 49
        E 20 b9 04 12
        E 6 b9 04 25
        E 6 b9 04 38
        E 5 b9 04 49
        E 2 b9 04 4c
        E 0 99 2c 3c
        E 12 99 33 7f
        E 15 b9 04 5a
        E 34 b9 04 4a
        E 43 b9 04 3a
        E 32 b9 04 29
        E 50 b9 04 18
        E 17 89 24 40
        E 41 89 2c 40
        E 10 89 33 40
        E 31 b9 04 29
        E 20 b9 04 3a
        E 23 b9 04 4a
        E 8 b9 04 4f
        E 2 99 2c 0c
        E 22 b9 04 5a
        E 56 99 33 6d
        E 9 99 24 50
        E 64 b9 04 4a
        E 26 b9 04 3a
        E 21 b9 04 29
        E 22 b9 04 18
        E 22 89 2c 40
        E 2 b9 04 06
        E 12 b9 04 00
        E 65 89 33 40
        E 8 89 24 40
        E 178 b9 04 12
        E 7 b9 04 25
        E 4 99 26 7f
        E 4 b9 04 36
        E 5 b9 04 46
        E 5 b9 04 4c
        E 2 99 2c 26
        E 15 b9 04 56
        E 10 99 33 7a
        E 2 b9 04 67
        E 16 b9 04 57
        E 13 b9 04 47
        E 38 b9 04 36
        E 29 b9 04 25
        E 39 b9 04 15
        E 63 89 26 40
        E 20 89 2c 40
        E 21 89 33 40
        E 42 b9 04 25
        E 23 b9 04 36
        E 29 b9 04 46
        E 17 99 24 58
        E 5 b9 04 4d
        E 1 99 2c 0a
        E 52 99 33 53
        E 68 b9 04 36
        E 26 b9 04 25
        E 22 b9 04 15
        E 26 b9 04 03
        E 8 b9 04 00
        E 34 89 24 40
        E 8 89 2c 40
        E 50 89 33 40
        E 154 99 24 54
        E 7 b9 04 12
        E 8 b9 04 25
        E 5 b9 04 38
        E 5 b9 04 4a
        E 2 b9 04 4d
        E 2 99 2c 36
        E 20 99 33 77
        E 7 b9 04 5a
        E 26 b9 04 4a
        E 39 b9 04 3a
        E 31 b9 04 29
        E 54 b9 04 18
        E 36 89 24 40
        E 29 89 2c 40
        E 22 89 33 40
        E 12 b9 04 29
        E 21 b9 04 3a
        E 25 b9 04 4a
        E 7 b9 04 4f
        E 2 99 2c 0a
        E 32 b9 04 5a
        E 67 99 33 60
        E 17 99 24 58
        E 27 b9 04 4a
        E 29 b9 04 3a
        E 19 b9 04 29
        E 24 b9 04 18
        E 25 b9 04 06
        E 2 89 2c 40
        E 12 b9 04 00
        E 87 89 33 40
        E 17 89 24 40
        E 136 b9 04 12
        E 9 b9 04 27
        E 7 b9 04 38
        E 5 99 26 7f
        E 5 b9 04 49
        E 2 b9 04 4c
        E 2 99 2c 1e
        E 10 b9 04 5a
        E 15 b9 04 6a
        E 12 99 33 7e
        E 14 b9 04 5a
        E 44 b9 04 4a
        E 31 b9 04 3a
        E 24 b9 04 29
        E 39 b9 04 18
        E 43 89 26 40
        E 8 89 2c 40
        E 39 89 33 40
        E 53 b9 04 29
        E 27 b9 04 3a
        E 36 b9 04 4a
        E 0 99 24 51
        E 11 b9 04 4f
        E 2 99 2c 08
        E 34 99 33 4c
        E 73 b9 04 3a
        E 24 b9 04 29
        E 22 b9 04 18
        E 21 b9 04 06
        E 13 b9 04 00
        E 41 89 24 40
        E 14 89 2c 40
        E 35 89 33 40
        E 142 99 24 52
        E 15 b9 04 12
        E 4 b9 04 27
        E 7 b9 04 3a
        E 5 b9 04 4a
        E 2 b9 04 4c
        E 6 99 2c 2c
        E 19 99 33 75
        E 2 b9 04 5a
        E 61 b9 04 4a
        E 24 b9 04 3a
        E 37 b9 04 29
        E 45 b9 04 18
        E 17 89 24 40
        E 34 89 2c 40
        E 21 89 33 40
        E 20 b9 04 29
        E 22 b9 04 3a
        E 26 b9 04 4a
        E 10 b9 04 4f
        E 2 99 2c 0a
        E 53 b9 04 5a
        E 27 99 24 51
        E 2 99 33 60
        E 46 b9 04 4a
        E 27 b9 04 3a
        E 24 b9 04 29
        E 22 b9 04 18
        E 24 b9 04 06
        E 12 b9 04 00
        E 4 89 2c 40
        E 83 89 24 40
        E 2 89 33 40
        E 148 b9 04 12
        E 7 b9 04 25
        E 5 b9 04 36
        E 5 99 26 7f
        E 5 b9 04 46
        E 7 b9 04 4c
        E 2 99 2c 20
        E 10 b9 04 56
        E 9 b9 04 66
        E 15 99 33 77
        E 15 b9 04 56
        E 43 b9 04 46
        E 31 b9 04 36
        E 32 b9 04 25
        E 41 b9 04 15
        E 31 89 26 40
        E 14 89 2c 40
        E 34 89 33 40
        E 34 b9 04 25
        E 25 b9 04 36
        E 26 b9 04 46
        E 18 b9 04 4f
        E 3 99 2c 0a
        E 13 99 24 4e
        E 14 b9 04 56
        E 22 99 33 53
        E 75 b9 04 46
        E 24 b9 04 36
        E 24 b9 04 22
        E 24 b9 04 12
        E 29 b9 04 00
        E 18 89 2c 40
        E 11 89 24 40
        E 37 89 33 40
        E 157 99 24 51
        E 4 b9 04 12
        E 13 b9 04 25
        E 2 b9 04 36
        E 7 b9 04 46
        E 3 b9 04 4c
        E 1 99 2c 24
        E 13 b9 04 56
        E 5 99 33 7c
        E 65 b9 04 46
        E 36 b9 04 36
        E 42 b9 04 25
        E 50 89 24 40
        E 15 b9 04 15
        E 19 89 2c 40
        E 15 89 33 40
        E 34 b9 04 25
        E 19 b9 04 36
        E 26 b9 04 46
        E 20 b9 04 4f
        E 2 99 2c 0a
        E 17 b9 04 56
        E 53 99 24 50
        E 5 99 33 5b
        E 65 b9 04 46
        E 27 b9 04 36
        E 22 b9 04 22
        E 26 b9 04 12
        E 27 b9 04 00
        E 2 89 2c 40
        E 70 89 24 40
        E 5 89 33 40
        E 167 b9 04 12
        E 7 99 26 65
        E 3 b9 04 27
        E 5 b9 04 38
        E 11 b9 04 49
        E 3 b9 04 4c
        E 2 99 2c 1c
        E 10 b9 04 5a
        E 5 99 33 7f
        E 7 b9 04 6a
        E 20 b9 04 58
        E 40 b9 04 47
        E 20 b9 04 36
        E 40 b9 04 25
        E 39 b9 04 15
        E 39 89 26 40
        E 24 89 2c 40
        E 14 89 33 40
        E 48 b9 04 25
        E 23 b9 04 36
        E 21 b9 04 46
        E 20 b9 04 4f
        E 2 99 2c 0e
        E 5 99 24 53
        E 15 b9 04 56
        E 45 99 33 59
        E 73 b9 04 46
        E 29 b9 04 36
        E 19 b9 04 25
        E 20 b9 04 15
        E 24 b9 04 03
        E 5 b9 04 00
        E 7 89 2c 40
        E 6 89 24 40
        E 61 89 33 40
        E 160 99 24 54
        E 15 b9 04 12
        E 6 b9 04 22
        E 2 b9 04 32
        E 8 b9 04 43
        E 5 b9 04 4c
        E 2 99 2c 24
        E 7 b9 04 53
        E 8 99 33 6f
        E 15 b9 04 63
        E 11 b9 04 51
        E 42 b9 04 41
        E 26 b9 04 30
        E 37 b9 04 20
        E 60 89 24 40
        E 36 89 2c 40
        E 15 89 33 40
        E 41 b9 04 30
        E 19 b9 04 41
        E 24 b9 04 4f
        E 3 99 2c 0c
        E 2 b9 04 51
        E 77 99 33 5d
        E 5 99 24 43
        E 66 b9 04 41
        E 28 b9 04 30
        E 17 b9 04 20
        E 27 b9 04 0f
        E 19 89 2c 40
        E 8 b9 04 00
        E 74 89 33 40
        E 2 89 24 40
        E 173 b9 04 12
        E 7 b9 04 22
        E 4 b9 04 34
        E 5 b9 04 46
        E 3 b9 04 4d
        E 2 99 2c 32
        E 2 99 26 7e
        E 16 b9 04 56
        E 11 b9 04 66
        E 12 99 33 7f
        E 20 b9 04 56
        E 40 b9 04 46
        E 37 b9 04 36
        E 27 b9 04 25
        E 41 b9 04 15
        E 37 89 2c 40
        E 3 89 26 40
        E 37 89 33 40
        E 46 b9 04 25
        E 21 b9 04 36
        E 22 b9 04 46
        E 15 99 24 51
        E 2 b9 04 4f
        E 5 99 2c 0c
        E 14 b9 04 56
        E 56 99 33 58
        E 65 b9 04 46
        E 27 b9 04 36
        E 24 b9 04 25
        E 19 b9 04 15
        E 29 b9 04 03
        E 3 89 24 40
        E 2 b9 04 00
        E 5 89 2c 40
        E 68 89 33 40
        E 152 99 24 4b
        E 9 b9 04 12
        E 8 b9 04 22
        E 7 b9 04 32
        E 5 b9 04 43
        E 10 b9 04 4c
        E 2 99 2c 20
        E 5 b9 04 53
        E 17 99 33 6c
        E 2 b9 04 64
        E 27 b9 04 54
        E 38 b9 04 44
        E 32 b9 04 34
        E 31 b9 04 22
        E 46 b9 04 12
        E 3 89 24 40
        E 42 89 2c 40
        E 23 89 33 40
        E 26 b9 04 22
        E 17 b9 04 32
        E 22 b9 04 43
        E 24 b9 04 4f
        E 2 99 2c 0a
        E 10 b9 04 53
        E 60 99 24 47
        E 22 99 33 53
        E 42 b9 04 43
        E 30 b9 04 32
        E 15 b9 04 22
        E 27 b9 04 12
        E 33 b9 04 00
        E 5 89 2c 40
        E 71 89 24 40
        E 16 89 33 40
        E 143 b9 04 12
        E 9 b9 04 25
        E 6 99 26 78
        E 2 b9 04 36
        E 7 b9 04 46
        E 7 b9 04 4c
        E 3 99 2c 20
        E 12 b9 04 56
        E 9 b9 04 67
        E 22 99 33 7f
        E 3 b9 04 57
        E 41 b9 04 47
        E 34 b9 04 36
        E 31 b9 04 25
        E 37 b9 04 15
        E 36 89 26 40
        E 14 89 2c 40
        E 46 89 33 40
        E 41 b9 04 25
        E 22 b9 04 36
        E 24 b9 04 46
        E 12 99 24 4c
        E 5 b9 04 4d
        E 4 99 2c 0a
        E 25 b9 04 56
        E 19 99 33 4c
        E 75 b9 04 46
        E 27 b9 04 36
        E 21 b9 04 22
        E 24 b9 04 12
        E 27 b9 04 00
        E 14 89 24 40
        E 13 89 2c 40
        E 43 89 33 40
        E 149 99 24 4f
        E 32 b9 04 12
        E 8 b9 04 25
        E 2 b9 04 36
        E 5 b9 04 46
        E 2 b9 04 4c
        E 3 99 2c 2e
        E 6 99 33 74
        E 13 b9 04 56
        E 15 b9 04 66
        E 19 b9 04 56
        E 39 b9 04 46
        E 19 b9 04 36
        E 36 b9 04 25
        E 31 b9 04 15
        E 12 89 24 40
        E 54 89 2c 40
        E 4 89 33 40
        E 49 b9 04 25
        E 21 b9 04 36
        E 32 b9 04 46
        E 24 b9 04 4d
        E 3 99 2c 08
        E 29 99 24 4a
        E 7 99 33 5b
        E 96 b9 04 36
        E 25 b9 04 22
        E 26 b9 04 12
        E 36 b9 04 00
        E 24 89 2c 40
        E 27 89 24 40
        E 8 89 33 40
        E 171 b9 04 12
        E 10 99 26 7b
        E 2 b9 04 25
        E 7 b9 04 36
        E 10 b9 04 46
        E 5 b9 04 4c
        E 2 99 2c 18
        E 7 b9 04 56
        E 12 99 33 74
        E 3 b9 04 66
        E 14 b9 04 55
        E 39 b9 04 44
        E 29 b9 04 34
        E 39 b9 04 22
        E 60 b9 04 12
        E 14 89 26 40
        E 28 89 2c 40
        E 19 89 33 40
        E 43 b9 04 22
        E 19 b9 04 32
        E 22 b9 04 43
        E 27 99 24 51
        E 2 b9 04 4f
        E 2 99 2c 0a
        E 10 b9 04 53
        E 49 99 33 62
        E 58 b9 04 43
        E 30 b9 04 32
        E 17 b9 04 22
        E 25 b9 04 12
        E 29 b9 04 00
        E 22 89 24 40
        E 2 89 2c 40
        E 60 89 33 40
        E 158 99 24 54
        E 7 b9 04 12
        E 7 b9 04 25
        E 5 b9 04 36
        E 7 b9 04 46
        E 2 b9 04 4c
        E 2 99 2c 2e
        E 10 99 33 78
        E 8 b9 04 56
        E 9 b9 04 66
        E 22 b9 04 56
        E 39 b9 04 46
        E 24 b9 04 36
        E 39 b9 04 25
        E 36 b9 04 15
        E 24 89 24 40
        E 34 89 2c 40
        E 9 89 33 40
        E 34 b9 04 25
        E 20 b9 04 36
        E 23 b9 04 46
        E 15 b9 04 4f
        E 3 99 2c 0c
        E 19 b9 04 56
        E 60 99 24 49
        E 8 99 33 67
        E 56 b9 04 46
        E 23 b9 04 36
        E 19 b9 04 25
        E 23 b9 04 15
        E 26 b9 04 03
        E 8 b9 04 00
        E 2 89 2c 40
        E 77 89 24 40
        E 5 89 33 40
        E 160 b9 04 12
        E 7 b9 04 22
        E 5 b9 04 32
        E 4 99 26 7c
        E 3 b9 04 43
        E 7 b9 04 4c
        E 3 99 2c 22
        E 7 b9 04 53
        E 7 99 33 7f
        E 7 b9 04 64
        E 24 b9 04 54
        E 41 b9 04 44
        E 30 b9 04 34
        E 30 b9 04 22
        E 61 b9 04 12
        E 27 89 26 40
        E 7 89 2c 40
        E 17 89 33 40
        E 46 b9 04 22
        E 21 b9 04 32
        E 37 b9 04 43
        E 9 99 24 53
        E 35 b9 04 4f
        E 2 99 2c 08
        E 14 99 33 5e
        E 78 b9 04 32
        E 17 b9 04 22
        E 23 b9 04 12
        E 32 b9 04 00
        E 44 89 24 40
        E 33 89 2c 40
        E 17 89 33 40
        E 142 99 24 4c
        E 18 b9 04 12
        E 4 b9 04 22
        E 5 b9 04 34
        E 3 b9 04 44
        E 5 b9 04 4d
        E 2 99 2c 38
        E 2 b9 04 54
        E 10 99 33 76
        E 19 b9 04 65
        E 32 b9 04 55
        E 45 b9 04 44
        E 39 b9 04 34
        E 27 b9 04 22
        E 34 89 24 40
        E 34 89 2c 40
        E 12 89 33 40
        E 60 b9 04 32
        E 26 b9 04 43
        E 28 b9 04 4f
        E 2 99 2c 08
        E 9 b9 04 53
        E 36 99 24 46
        E 8 99 33 67
        E 67 b9 04 43
        E 29 b9 04 32
        E 20 b9 04 22
        E 26 b9 04 12
        E 29 b9 04 00
        E 17 89 2c 40
        E 46 89 24 40
        E 12 89 33 40
        E 153 b9 04 12
        E 11 99 26 7b
        E 1 b9 04 22
        E 7 b9 04 32
        E 9 b9 04 43
        E 5 b9 04 4c
        E 3 99 2c 1a
        E 2 b9 04 54
        E 12 b9 04 64
        E 7 99 33 78
        E 8 b9 04 54
        E 12 b9 04 44
        E 43 b9 04 34
        E 39 b9 04 22
        E 96 89 26 40
        E 22 89 2c 40
        E 15 b9 04 1d
        E 4 89 33 40
        E 25 b9 04 2e
        E 26 b9 04 3e
        E 39 b9 04 4f
        E 3 99 2c 08
        E 4 b9 04 4f
        E 36 99 24 50
        E 37 99 33 54
        E 55 b9 04 3f
        E 27 b9 04 2e
        E 19 b9 04 1d
        E 27 b9 04 0c
        E 17 b9 04 00
        E 19 89 2c 40
        E 41 89 24 40
        E 39 89 33 40
        E 152 99 24 4b
        E 12 b9 04 12
        E 5 b9 04 22
        E 4 b9 04 32
        E 5 b9 04 43
        E 3 b9 04 4c
        E 2 99 2c 34
        E 3 b9 04 53
        E 12 99 33 6b
        E 17 b9 04 63
        E 26 b9 04 53
        E 39 b9 04 43
        E 19 b9 04 32
        E 34 b9 04 22
        E 46 b9 04 12
        E 17 89 24 40
        E 29 89 2c 40
        E 15 89 33 40
        E 24 b9 04 22
        E 19 b9 04 32
        E 29 b9 04 43
        E 29 b9 04 4f
        E 2 99 2c 0a
        E 10 b9 04 53
        E 34 99 24 47
        E 29 99 33 58
        E 50 b9 04 43
        E 27 b9 04 32
        E 17 b9 04 22
        E 24 b9 04 12
        E 34 b9 04 00
        E 17 89 2c 40
        E 46 89 24 40
        E 26 89 33 40
        E 135 b9 04 12
        E 11 b9 04 22
        E 7 99 26 7c
        E 2 b9 04 32
        E 7 b9 04 44
        E 5 b9 04 4c
        E 2 99 2c 1a
        E 2 b9 04 54
        E 13 99 33 7c
        E 2 b9 04 64
        E 24 b9 04 54
        E 39 b9 04 44
        E 36 b9 04 34
        E 27 b9 04 22
        E 51 b9 04 12
        E 29 89 26 40
        E 22 89 2c 40
        E 13 89 33 40
        E 47 b9 04 22
        E 22 b9 04 32
        E 31 b9 04 43
        E 29 99 24 4d
        E 2 b9 04 4d
        E 5 99 2c 08
        E 30 99 33 56
        E 83 b9 04 32
        E 18 b9 04 22
        E 22 b9 04 12
        E 26 b9 04 00
        E 56 89 24 40
        E 5 89 2c 40
        E 30 89 33 40
        E 138 99 24 49
        E 25 b9 04 12
        E 5 b9 04 25
        E 5 b9 04 38
        E 5 b9 04 49
        E 1 b9 04 4c
        E 3 99 2c 3a
        E 2 99 33 7a
        E 25 b9 04 5b
        E 10 b9 04 6c
        E 17 b9 04 5b
        E 40 b9 04 4a
        E 22 b9 04 3a
        E 41 b9 04 29
        E 44 89 24 40
        E 41 89 2c 40
        E 5 89 33 40
        E 48 b9 04 3a
        E 26 b9 04 4a
        E 8 b9 04 4f
        E 2 99 2c 0a
        E 31 b9 04 5a
        E 39 99 24 47
        E 17 99 33 3b
        E 60 b9 04 4a
        E 30 b9 04 3a
        E 23 b9 04 29
        E 25 b9 04 18
        E 17 89 2c 40
        E 4 b9 04 06
        E 15 b9 04 00
        E 51 89 24 40
        E 16 89 33 40
        E 153 b9 04 12
        E 8 99 26 76
        E 5 b9 04 22
        E 9 b9 04 32
        E 6 b9 04 43
        E 5 b9 04 4d
        E 3 99 2c 24
        E 2 b9 04 53
        E 13 99 33 70
        E 2 b9 04 63
        E 68 b9 04 53
        E 19 b9 04 43
        E 32 b9 04 32
        E 26 b9 04 22
        E 56 89 26 40
        E 5 b9 04 12
        E 21 89 2c 40
        E 13 89 33 40
        E 55 b9 04 22
        E 22 b9 04 32
        E 31 b9 04 43
        E 5 99 24 4e
        E 29 b9 04 4f
        E 2 99 2c 0a
        E 12 b9 04 53
        E 8 99 33 63
        E 81 b9 04 43
        E 27 b9 04 32
        E 17 b9 04 22
        E 22 b9 04 12
        E 27 b9 04 00
        E 16 89 24 40
        E 32 89 2c 40
        E 19 89 33 40
        E 153 99 24 50
        E 33 b9 04 12
        E 7 99 33 6b
        E 3 b9 04 22
        E 2 b9 04 32
        E 3 b9 04 43
        E 2 b9 04 4d
        E 3 99 2c 3a
        E 2 b9 04 54
        E 29 b9 04 65
        E 24 b9 04 55
        E 41 b9 04 44
        E 29 b9 04 34
        E 34 b9 04 22
        E 31 89 24 40
        E 39 89 33 40
        E 14 89 2c 40
        E 56 b9 04 32
        E 45 b9 04 43
        E 52 b9 04 4f
        E 3 99 2c 06
        E 2 99 33 43
        E 4 99 24 46
        E 95 b9 04 32
        E 14 b9 04 22
        E 26 b9 04 12
        E 32 b9 04 00
        E 65 89 2c 40
        E 5 89 33 40
        E 7 89 24 40
        E 145 99 26 7f
        E 10 b9 04 12
        E 10 b9 04 25
        E 7 b9 04 36
        E 10 99 33 7f
        E 3 b9 04 46
        E 1 b9 04 4c
        E 5 99 2c 18
        E 5 b9 04 56
        E 12 b9 04 66
        E 16 b9 04 56
        E 15 b9 04 46
        E 39 b9 04 36
        E 38 b9 04 25
        E 45 b9 04 15
        E 28 89 26 40
        E 34 89 33 40
        E 10 89 2c 40
        E 43 b9 04 25
        E 27 b9 04 36
        E 25 99 24 4e
        E 9 b9 04 46
        E 31 b9 04 4f
        E 3 99 2c 08
        E 14 99 33 68
        E 92 b9 04 36
        E 24 b9 04 25
        E 22 b9 04 15
        E 22 b9 04 03
        E 9 b9 04 00
        E 19 89 24 40
        E 39 89 2c 40
        E 17 89 33 40
        E 138 99 24 4e
        E 39 b9 04 12
        E 1 99 33 75
        E 5 b9 04 22
        E 5 b9 04 32
        E 5 b9 04 46
        E 3 b9 04 4d
        E 2 99 2c 38
        E 17 b9 04 56
        E 17 b9 04 66
        E 14 b9 04 56
        E 41 b9 04 46
        E 22 b9 04 36
        E 46 b9 04 25
        E 24 89 24 40
        E 42 89 33 40
        E 21 89 2c 40
        E 54 b9 04 36
        E 33 b9 04 46
        E 24 b9 04 4f
        E 3 99 2c 08
        E 33 99 33 51
        E 17 99 24 4d
        E 88 b9 04 36
        E 21 b9 04 25
        E 24 b9 04 15
        E 25 b9 04 03
        E 12 b9 04 00
        E 21 89 2c 40
        E 36 89 33 40
        E 17 89 24 40
        E 160 b9 04 12
        E 8 99 26 7e
        E 2 b9 04 22
        E 4 b9 04 32
        E 8 b9 04 43
        E 5 b9 04 4c
        E 2 99 2c 22
        E 7 b9 04 53
        E 7 99 33 67
        E 8 b9 04 64
        E 31 b9 04 54
        E 43 b9 04 44
        E 39 b9 04 34
        E 29 b9 04 22
        E 59 89 26 40
        E 18 89 2c 40
        E 15 89 33 40
        E 39 b9 04 1d
        E 31 b9 04 2e
        E 25 b9 04 3e
        E 28 99 24 55
        E 5 b9 04 4f
        E 4 99 2c 0a
        E 3 b9 04 4f
        E 29 99 33 51
        E 87 b9 04 3f
        E 25 b9 04 2e
        E 19 b9 04 1d
        E 26 b9 04 0c
        E 17 b9 04 00
        E 29 89 24 40
        E 10 89 2c 40
        E 26 89 33 40
        E 155 99 24 4b
        E 32 b9 04 12
        E 7 b9 04 25
        E 5 b9 04 38
        E 2 99 33 68
        E 2 b9 04 49
        E 3 b9 04 4c
        E 2 99 2c 38
        E 24 b9 04 5a
        E 10 b9 04 6a
        E 21 b9 04 5a
        E 40 b9 04 4a
        E 21 b9 04 3a
        E 36 b9 04 29
        E 37 b9 04 18
        E 2 89 24 40
        E 43 89 33 40
        E 10 89 2c 40
        E 48 b9 04 29
        E 25 b9 04 3a
        E 38 b9 04 4a
        E 17 b9 04 4f
        E 3 99 2c 08
        E 29 99 33 59
        E 3 99 24 4a
        E 84 b9 04 3a
        E 24 b9 04 29
        E 22 b9 04 18
        E 26 b9 04 06
        E 15 b9 04 00
        E 38 89 2c 40
        E 32 89 33 40
        E 2 89 24 40
        E 157 b9 04 12
        E 12 99 26 7d
        E 5 b9 04 25
        E 9 b9 04 36
        E 8 b9 04 46
        E 3 b9 04 4d
        E 2 99 2c 28
        E 3 b9 04 56
        E 7 99 33 62
        E 2 b9 04 66
        E 16 b9 04 56
        E 44 b9 04 46
        E 22 b9 04 36
        E 48 b9 04 25
        E 53 b9 04 15
        E 22 89 26 40
        E 27 89 2c 40
        E 9 89 33 40
        E 58 b9 04 25
        E 23 b9 04 36
        E 33 b9 04 46
        E 15 99 24 51
        E 7 b9 04 4f
        E 5 99 2c 08
        E 36 99 33 53
        E 84 b9 04 36
        E 22 b9 04 22
        E 24 b9 04 12
        E 29 b9 04 00
        E 34 89 24 40
        E 12 89 2c 40
        E 39 89 33 40
        E 140 99 24 4d
        E 36 b9 04 12
        E 8 b9 04 25
        E 4 b9 04 36
        E 0 99 33 68
        E 3 b9 04 46
        E 2 b9 04 4c
        E 3 99 2c 3c
        E 5 b9 04 56
        E 28 b9 04 68
        E 29 b9 04 58
        E 39 b9 04 47
        E 20 b9 04 36
        E 35 b9 04 25
        E 30 b9 04 15
        E 2 89 24 40
        E 46 89 33 40
        E 8 89 2c 40
        E 55 b9 04 25
        E 30 b9 04 36
        E 45 b9 04 46
        E 24 99 33 54
        E 7 99 24 4a
        E 72 b9 04 36
        E 25 b9 04 22
        E 29 b9 04 12
        E 36 b9 04 00
        E 72 89 33 40
        E 8 89 24 40
        E 161 b9 04 12
        E 10 99 26 7f
        E 2 b9 04 22
        E 8 b9 04 32
        E 12 b9 04 43
        E 7 b9 04 4d
        E 2 99 2c 1a
        E 3 b9 04 53
        E 5 99 33 68
        E 7 b9 04 64
        E 56 b9 04 54
        E 19 b9 04 44
        E 21 b9 04 34
        E 34 b9 04 22
        E 61 b9 04 12
        E 5 89 26 40
        E 31 89 2c 40
        E 10 89 33 40
        E 41 b9 04 22
        E 19 b9 04 32
        E 27 b9 04 43
        E 26 99 24 4f
        E 10 b9 04 4f
        E 0 99 2c 08
        E 17 b9 04 53
        E 27 99 33 5b
        E 74 b9 04 43
        E 22 b9 04 32
        E 20 b9 04 22
        E 19 b9 04 12
        E 31 b9 04 00
        E 22 89 24 40
        E 11 89 2c 40
        E 42 89 33 40
        E 150 99 24 4d
        E 22 b9 04 12
        E 9 b9 04 25
        E 5 b9 04 36
        E 7 b9 04 46
        E 5 b9 04 4c
        E 2 99 2c 24
        E 6 99 33 68
        E 2 b9 04 56
        E 19 b9 04 66
        E 15 b9 04 56
        E 39 b9 04 46
        E 16 b9 04 36
        E 37 b9 04 25
        E 43 b9 04 15
        E 15 89 24 40
        E 53 89 2c 40
        E 4 89 33 40
        E 15 b9 04 25
        E 24 b9 04 36
        E 27 b9 04 46
        E 19 b9 04 4f
        E 3 99 2c 08
        E 24 b9 04 56
        E 34 99 33 63
        E 5 99 24 45
        E 69 b9 04 46
        E 22 b9 04 36
        E 20 b9 04 22
        E 21 b9 04 12
        E 32 b9 04 00
        E 14 89 2c 40
        E 59 89 33 40
        E 6 89 24 40
        E 164 b9 04 12
        E 8 b9 04 22
        E 3 b9 04 34
        E 7 b9 04 47
        E 0 b9 04 4c
        E 2 99 2c 38
        E 2 99 26 7f
        E 20 99 33 6d
        E 2 b9 04 57
        E 7 b9 04 68
        E 27 b9 04 57
        E 39 b9 04 47
        E 29 b9 04 36
        E 28 b9 04 25
        E 34 b9 04 15
        E 54 89 2c 40
        E 4 89 26 40
        E 19 89 33 40
        E 52 b9 04 25
        E 19 b9 04 36
        E 31 b9 04 46
        E 17 b9 04 4d
        E 2 99 2c 0a
        E 5 99 24 52
        E 42 b9 04 56
        E 7 99 33 5e
        E 58 b9 04 46
        E 26 b9 04 36
        E 22 b9 04 22
        E 21 b9 04 12
        E 27 b9 04 00
        E 34 89 2c 40
        E 5 89 24 40
        E 49 89 33 40
        E 147 99 24 50
        E 16 b9 04 12
        E 8 b9 04 25
        E 5 b9 04 38
        E 4 b9 04 4a
        E 2 b9 04 4d
        E 3 99 2c 32
        E 20 b9 04 5a
        E 9 99 33 75
        E 4 b9 04 6a
        E 18 b9 04 5a
        E 39 b9 04 4a
        E 19 b9 04 3a
        E 36 b9 04 29
        E 39 b9 04 18
        E 21 89 24 40
        E 37 89 2c 40
        E 28 89 33 40
        E 20 b9 04 29
        E 20 b9 04 3a
        E 24 b9 04 4a
        E 9 b9 04 4f
        E 3 99 2c 0a
        E 34 b9 04 5a
        E 53 99 24 4c
        E 5 99 33 38
        E 37 b9 04 4a
        E 28 b9 04 3a
        E 19 b9 04 29
        E 22 b9 04 18
        E 24 b9 04 06
        E 12 b9 04 00
        E 7 89 2c 40
        E 87 89 24 40
        E 5 89 33 40
        E 147 b9 04 12
        E 7 b9 04 25
        E 5 99 26 7f
        E 3 b9 04 36
        E 5 b9 04 46
        E 5 b9 04 4c
        E 2 99 2c 24
        E 16 b9 04 56
        E 11 b9 04 67
        E 11 99 33 6b
        E 13 b9 04 57
        E 41 b9 04 47
        E 27 b9 04 36
        E 33 b9 04 25
        E 39 b9 04 15
        E 36 89 26 40
        E 15 89 2c 40
        E 41 89 33 40
        E 32 b9 04 25
        E 18 b9 04 36
        E 22 b9 04 46
        E 15 b9 04 4d
        E 2 99 2c 0a
        E 17 99 24 50
        E 5 b9 04 56
        E 60 99 33 54
        E 48 b9 04 46
        E 25 b9 04 36
        E 18 b9 04 25
        E 23 b9 04 15
        E 22 b9 04 03
        E 7 b9 04 00
        E 17 89 2c 40
        E 17 89 24 40
        E 65 89 33 40
        E 135 99 24 4b
        E 25 b9 04 12
        E 5 b9 04 22
        E 7 b9 04 34
        E 2 b9 04 46
        E 3 b9 04 4f
        E 2 99 2c 44
        E 4 b9 04 56
        E 3 99 33 62
        E 24 b9 04 66
        E 24 b9 04 56
        E 41 b9 04 46
        E 17 b9 04 36
        E 38 b9 04 25
        E 40 b9 04 15
        E 9 89 24 40
        E 41 89 2c 40
        E 10 89 33 40
        E 14 b9 04 25
        E 22 b9 04 36
        E 22 b9 04 46
        E 19 b9 04 4f
        E 3 99 2c 0c
        E 19 b9 04 56
        E 48 99 33 37
        E 10 99 24 49
        E 65 b9 04 46
        E 22 b9 04 36
        E 19 b9 04 22
        E 22 b9 04 12
        E 29 b9 04 00
        E 7 89 2c 40
        E 71 89 33 40
        E 7 89 24 40
        E 162 b9 04 12
        E 7 99 26 7f
        E 2 b9 04 25
        E 4 b9 04 36
        E 6 b9 04 46
        E 2 b9 04 4d
        E 2 99 2c 2a
        E 15 b9 04 56
        E 10 99 33 7f
        E 7 b9 04 66
        E 63 b9 04 56
        E 29 b9 04 46
        E 19 b9 04 36
        E 22 b9 04 25
        E 29 b9 04 15
        E 32 89 26 40
        E 16 89 2c 40
        E 25 89 33 40
        E 77 b9 04 25
        E 19 b9 04 36
        E 29 b9 04 46
        E 2 99 24 56
        E 15 b9 04 4d
        E 2 99 2c 08
        E 10 99 33 65
        E 108 b9 04 36
        E 22 b9 04 22
        E 22 b9 04 12
        E 29 b9 04 00
        E 34 89 24 40
        E 20 89 2c 40
        E 7 89 33 40
        E 147 99 24 43
        E 34 b9 04 12
        E 7 b9 04 27
        E 4 b9 04 38
        E 6 b9 04 49
        E 2 b9 04 4d
        E 3 99 2c 2e
        E 2 99 33 7f
        E 16 b9 04 5a
        E 37 b9 04 4a
        E 46 b9 04 3a
        E 41 b9 04 29
        E 46 89 24 40
        E 2 b9 04 18
        E 51 89 2c 40
        E 5 89 33 40
        E 19 b9 04 29
        E 34 b9 04 3a
        E 40 b9 04 4a
        E 45 b9 04 4f
        E 2 99 2c 06
        E 29 99 24 4c
        E 17 99 33 37
        E 24 b9 04 3a
        E 25 b9 04 29
        E 25 b9 04 18
        E 25 b9 04 06
        E 13 b9 04 00
        E 83 89 2c 40
        E 30 89 24 40
        E 16 89 33 40
        E 126 b9 04 12
        E 7 b9 04 22
        E 5 99 26 7f
        E 3 b9 04 34
        E 2 b9 04 44
        E 5 b9 04 4c
        E 2 99 2c 2c
        E 3 b9 04 54
        E 22 b9 04 65
        E 21 99 33 7f
        E 2 b9 04 55
        E 40 b9 04 44
        E 14 b9 04 34
        E 34 b9 04 22
        E 38 b9 04 12
        E 56 89 26 40
        E 9 89 2c 40
        E 49 89 33 40
        E 32 b9 04 22
        E 14 b9 04 32
        E 19 b9 04 43
        E 24 b9 04 4d
        E 3 99 2c 0a
        E 14 b9 04 53
        E 10 99 24 58
        E 43 99 33 5b
        E 49 b9 04 43
        E 25 b9 04 32
        E 13 b9 04 22
        E 22 b9 04 12
        E 29 b9 04 00
        E 38 89 2c 40
        E 28 89 24 40
        E 38 89 33 40
        E 140 99 24 4d
        E 19 b9 04 12
        E 8 b9 04 25
        E 2 b9 04 36
        E 5 b9 04 46
        E 2 b9 04 4c
        E 2 99 2c 3c
        E 3 b9 04 56
        E 6 99 33 75
        E 23 b9 04 66
        E 20 b9 04 56
        E 38 b9 04 46
        E 17 b9 04 36
        E 36 b9 04 25
        E 44 b9 04 15
        E 19 89 24 40
        E 39 89 2c 40
        E 5 89 33 40
        E 29 b9 04 25
        E 26 b9 04 36
        E 35 b9 04 46
        E 30 b9 04 4f
        E 3 99 2c 08
        E 36 99 33 59
        E 15 99 24 55
        E 60 b9 04 36
        E 24 b9 04 25
        E 22 b9 04 15
        E 29 b9 04 03
        E 7 b9 04 00
        E 51 89 2c 40
        E 39 89 33 40
        E 11 89 24 40
        E 150 b9 04 12
        E 5 99 26 7f
        E 5 b9 04 25
        E 7 b9 04 36
        E 10 b9 04 46
        E 5 b9 04 4c
        E 3 99 2c 1e
        E 7 99 33 7a
        E 4 b9 04 56
        E 10 b9 04 66
        E 60 b9 04 56
        E 22 b9 04 46
        E 27 b9 04 36
        E 24 b9 04 25
        E 36 b9 04 15
        E 25 89 26 40
        E 28 89 2c 40
        E 5 89 33 40
        E 70 b9 04 25
        E 24 b9 04 36
        E 22 99 24 58
        E 7 b9 04 46
        E 29 b9 04 4d
        E 3 99 2c 08
        E 15 99 33 4f
        E 84 b9 04 36
        E 19 b9 04 25
        E 18 b9 04 15
        E 26 b9 04 03
        E 9 b9 04 00
        E 32 89 24 40
        E 39 89 2c 40
        E 14 89 33 40
        E 142 99 24 54
        E 32 99 33 76
        E 9 b9 04 12
        E 8 b9 04 25
        E 7 b9 04 36
        E 2 b9 04 46
        E 3 b9 04 4c
        E 2 99 2c 36
        E 22 b9 04 56
        E 10 b9 04 66
        E 27 b9 04 56
        E 37 b9 04 46
        E 18 b9 04 36
        E 31 b9 04 25
        E 36 89 24 40
        E 5 b9 04 15
        E 24 89 33 40
        E 29 89 2c 40
        E 41 b9 04 25
        E 24 b9 04 36
        E 34 b9 04 46
        E 13 99 33 3c
        E 9 b9 04 4f
        E 2 99 2c 08
        E 44 99 24 59
        E 92 b9 04 36
        E 24 b9 04 25
        E 19 b9 04 15
        E 28 b9 04 03
        E 9 b9 04 00
        E 14 89 33 40
        E 12 89 2c 40
        E 46 89 24 40
        E 159 99 26 7f
        E 22 99 33 7c
        E 7 b9 04 12
        E 10 b9 04 22
        E 5 b9 04 32
        E 10 b9 04 43
        E 9 b9 04 4c
        E 3 99 2c 1c
        E 7 b9 04 53
        E 12 b9 04 64
        E 22 b9 04 54
        E 37 b9 04 44
        E 18 b9 04 34
        E 32 b9 04 22
        E 50 89 26 40
        E 5 b9 04 12
        E 20 89 33 40
        E 41 89 2c 40
        E 24 b9 04 22
        E 21 99 24 63
        E 3 b9 04 32
        E 24 b9 04 43
        E 7 99 33 3e
        E 37 b9 04 4f
        E 5 99 2c 08
        E 96 b9 04 32
        E 20 b9 04 22
        E 24 b9 04 12
        E 26 89 24 40
        E 5 b9 04 00
        E 29 89 33 40
        E 41 89 2c 40
        E 179 99 24 6e
        E 19 99 26 76
        E 19 b9 04 12
        E 10 b9 04 22
        E 5 b9 04 34
        E 5 b9 04 44
        E 19 b9 04 4c
        E 3 99 2c 26
        E 4 b9 04 55
        E 24 b9 04 44
        E 12 b9 04 34
        E 46 b9 04 20
        E 27 89 26 40
        E 2 99 26 51
        E 46 89 24 40
        E 17 b9 04 0f
        E 63 89 2c 40
        E 17 b9 04 20
        E 19 b9 04 30
        E 25 b9 04 41
        E 29 b9 04 4f
        E 2 99 2c 08
        E 8 b9 04 51
        E 13 89 26 40
        E 3 99 26 21
        E 3 99 24 4f
        E 79 b9 04 41
        E 29 b9 04 30
        E 17 b9 04 20
        E 27 b9 04 0f
        E 22 b9 04 00
        E 41 89 2c 40
        E 4 89 26 40
        E 5 99 26 39
        E 20 89 24 40
        E 181 99 24 52
        E 22 89 26 40
        E 0 99 26 44
        E 2 b9 04 12
        E 5 b9 04 25
        E 5 b9 04 36
        E 2 b9 04 46
        E 4 b9 04 4c
        E 3 99 2c 2e
        E 22 b9 04 57
        E 29 b9 04 47
        E 42 b9 04 36
        E 28 b9 04 25
        E 53 b9 04 15
        E 18 89 26 40
        E 4 99 26 41
        E 5 89 24 40
        E 44 89 2c 40
        E 47 b9 04 25
        E 25 b9 04 36
        E 24 b9 04 46
        E 22 b9 04 4f
        E 2 99 2c 0a
        E 31 99 24 5a
        E 15 89 26 40
        E 2 99 26 17
        E 75 b9 04 36
        E 22 b9 04 25
        E 20 b9 04 15
        E 26 b9 04 03
        E 10 b9 04 00
        E 42 89 2c 40
        E 7 89 26 40
        E 2 99 26 44
        E 24 89 24 40
        E 174 99 24 4f
        E 28 89 26 40
        E 3 99 26 5d
        E 5 b9 04 12
        E 7 b9 04 25
        E 5 b9 04 36
        E 2 b9 04 47
        E 3 b9 04 4d
        E 2 99 2c 36
        E 24 b9 04 57
        E 22 b9 04 47
        E 12 b9 04 36
        E 48 b9 04 25
        E 39 b9 04 15
        E 27 89 26 40
        E 2 99 26 41
        E 13 89 24 40
        E 57 89 2c 40
        E 61 b9 04 25
        E 24 b9 04 36
        E 26 b9 04 46
        E 10 99 24 57
        E 10 b9 04 4d
        E 2 99 2c 08
        E 12 89 26 40
        E 3 99 26 1a
        E 94 b9 04 36
        E 24 b9 04 25
        E 19 b9 04 15
        E 23 b9 04 03
        E 6 b9 04 00
        E 32 89 26 40
        E 2 99 26 57
        E 17 89 24 40
        E 10 89 2c 40
        E 162 99 24 55
        E 33 89 26 40
        E 3 99 26 5f
        E 29 b9 04 12
        E 7 b9 04 25
        E 10 b9 04 36
        E 28 b9 04 46
        E 5 b9 04 4c
        E 3 99 2c 1c
        E 2 b9 04 56
        E 20 b9 04 46
        E 7 b9 04 36
        E 38 b9 04 25
        E 31 b9 04 15
        E 3 89 26 40
        E 2 99 26 40
        E 20 89 24 40
        E 121 89 2c 40
        E 14 b9 04 25
        E 22 b9 04 36
        E 15 99 24 53
        E 16 b9 04 46
        E 3 89 26 40
        E 2 99 26 49
        E 107 b9 04 36
        E 27 b9 04 22
        E 21 b9 04 12
        E 31 b9 04 00
        E 34 89 24 40
        E 19 89 26 40
        E 177 99 24 7f
        E 9 99 28 40
        E 44 b9 04 12
        E 7 b9 04 27
        E 6 b9 04 3a
        E 2 b9 04 4a
        E 2 b9 04 4d
        E 3 99 2c 36
        E 4 99 26 7f
        E 27 b9 04 5b
        E 20 b9 04 4a
        E 11 b9 04 3a
        E 44 b9 04 29
        E 36 b9 04 18
        E 27 89 24 40
        E 7 89 28 40
        E 65 89 2c 40
        E 5 89 26 40
        E 50 b9 04 12
        E 61 b9 04 22
        E 49 b9 04 32
        E 139 b9 04 3c
        E 337 99 24 7f
        E 101 b9 04 36
        E 140 89 24 40
        E 196 99 30 7f
        E 2 99 2d 7f
        E 239 89 30 40
        E 2 89 2d 40
        E 164 b9 04 3e
        E 281 b9 04 4d
        E 2 99 2c 04
        E 22 b9 04 4d
        E 68 99 24 6b
        E 65 b9 04 3c
        E 88 89 2c 40
        E 14 b9 04 2c
        E 75 89 24 40
        E 45 b9 04 1a
        E 116 99 26 7f
        E 83 b9 04 2c
        E 14 89 26 40
        E 2 99 26 7f
        E 126 b9 04 1a
        E 113 89 26 40
        E 27 b9 04 2c
        E 73 b9 04 3c
        E 321 b9 04 2e
        E 145 b9 04 27
        E 48 b9 04 38
        E 27 b9 04 49
        E 14 b9 04 4f
        E 0 99 2c 0a
        E 29 b9 04 5a
        E 155 b9 04 4a
        E 41 b9 04 3a
        E 12 99 24 65
        E 7 89 2c 40
        E 14 b9 04 29
        E 42 b9 04 18
        E 55 b9 04 06
        E 29 b9 04 00
        E 95 89 24 40
        E 159 99 26 7f
        E 11 b9 04 12
        E 15 b9 04 22
        E 9 b9 04 32
        E 6 b9 04 43
        E 2 b9 04 4c
        E 3 99 2c 28
        E 2 b9 04 53
        E 17 b9 04 43
        E 5 b9 04 32
        E 10 b9 04 22
        E 22 99 28 7f
        E 48 b9 04 12
        E 92 89 26 40
        E 46 b9 04 22
        E 0 89 2c 40
        E 24 b9 04 32
        E 29 b9 04 43
        E 4 89 28 40
        E 109 99 24 50
        E 65 b9 04 32
        E 37 b9 04 22
        E 39 b9 04 12
        E 60 b9 04 00
        E 41 89 24 40
        E 174 99 2d 7f
        E 0 99 30 7f
        E 9 b9 04 12
        E 20 b9 04 25
        E 14 b9 04 36
        E 15 b9 04 46
        E 5 b9 04 4c
        E 2 99 2c 14
        E 5 b9 04 56
        E 17 b9 04 46
        E 9 b9 04 36
        E 53 b9 04 25
        E 92 89 2d 40
        E 6 89 30 40
        E 21 b9 04 36
        E 39 89 2c 40
        E 95 b9 04 3e
        E 28 99 24 59
        E 24 b9 04 2e
        E 39 b9 04 1d
        E 50 b9 04 0c
        E 29 b9 04 00
        E 102 89 24 40
        E 116 99 2d 7f
        E 65 b9 04 12
        E 22 b9 04 22
        E 10 b9 04 32
        E 33 b9 04 22
        E 19 b9 04 12
        E 95 89 2d 40
        E 24 b9 04 22
        E 31 b9 04 32
        E 148 b9 04 22
        E 46 b9 04 12
        E 48 b9 04 00
        E 326 99 24 7f
        E 10 b9 04 12
        E 12 b9 04 22
        E 2 99 33 7f
        E 3 99 31 7f
        E 21 b9 04 32
        E 8 b9 04 44
        E 4 b9 04 4c
        E 3 99 2c 2a
        E 5 b9 04 55
        E 12 b9 04 44
        E 5 b9 04 32
        E 9 b9 04 22
        E 150 89 24 40
        E 8 b9 04 32
        E 16 89 33 40
        E 3 89 31 40
        E 34 89 2c 40
        E 123 b9 04 22
        E 135 b9 04 1a
        E 102 b9 04 2c
        E 159 b9 04 3c
        E 31 99 24 61
        E 133 b9 04 44
        E 109 89 24 40
        E 17 b9 04 34
        E 144 b9 04 22
        E 73 99 26 7f
        E 92 99 28 7f
        E 3 b9 04 32
        E 147 89 26 40
        E 7 b9 04 22
        E 85 89 28 40
        E 56 b9 04 1d
        E 106 b9 04 2e
        E 43 b9 04 3e
        E 44 b9 04 4f
        E 2 99 2c 08
        E 2 b9 04 4f
        E 129 b9 04 57
        E 43 b9 04 47
        E 33 b9 04 36
        E 32 b9 04 22
        E 2 89 2c 40
        E 37 b9 04 12
        E 9 99 24 58
        E 42 b9 04 00
        E 202 89 24 40
        E 146 b9 04 12
        E 10 99 2d 7f
        E 16 b9 04 22
        E 3 99 30 7f
        E 22 b9 04 32
        E 6 b9 04 43
        E 6 b9 04 4d
        E 1 99 2c 2a
        E 3 b9 04 53
        E 19 b9 04 41
        E 5 b9 04 30
        E 8 b9 04 20
        E 127 b9 04 15
        E 25 89 2d 40
        E 19 89 30 40
        E 36 89 2c 40
        E 210 b9 04 1d
        E 131 b9 04 2e
        E 155 b9 04 36
        E 121 b9 04 46
        E 24 b9 04 4f
        E 2 99 2c 06
        E 19 b9 04 56
        E 116 b9 04 46
        E 31 b9 04 36
        E 34 b9 04 22
        E 20 99 24 6f
        E 19 b9 04 12
        E 2 89 2c 40
        E 39 b9 04 00
        E 182 89 24 40
        E 142 b9 04 12
        E 7 99 26 7f
        E 3 b9 04 25
        E 12 b9 04 36
        E 27 b9 04 46
        E 4 b9 04 4c
        E 3 99 2c 1c
        E 2 b9 04 56
        E 7 b9 04 66
        E 15 b9 04 56
        E 5 b9 04 46
        E 9 b9 04 36
        E 29 99 28 7f
        E 19 b9 04 25
        E 30 b9 04 15
        E 77 89 26 40
        E 48 89 2c 40
        E 36 b9 04 25
        E 25 b9 04 36
        E 7 89 28 40
        E 21 b9 04 46
        E 39 b9 04 4f
        E 3 99 2c 0a
        E 65 99 24 5c
        E 46 b9 04 36
        E 39 b9 04 25
        E 26 b9 04 15
        E 36 b9 04 03
        E 8 b9 04 00
        E 21 89 2c 40
        E 68 89 24 40
        E 147 99 2d 7f
        E 20 99 30 7f
        E 29 b9 04 12
        E 18 b9 04 22
        E 10 b9 04 32
        E 13 b9 04 43
        E 2 b9 04 4c
        E 3 99 2c 1e
        E 5 b9 04 54
        E 23 b9 04 44
        E 8 b9 04 34
        E 46 b9 04 22
        E 67 89 2d 40
        E 20 89 30 40
        E 34 b9 04 32
        E 38 b9 04 43
        E 3 89 2c 40
        E 133 99 24 6c
        E 14 b9 04 32
        E 31 b9 04 22
        E 39 b9 04 12
        E 43 b9 04 00
        E 114 89 24 40
        E 137 99 2d 7f
        E 1 99 29 7f
        E 46 b9 04 12
        E 34 b9 04 22
        E 9 b9 04 32
        E 10 b9 04 43
        E 5 b9 04 4c
        E 0 99 2c 20
        E 4 b9 04 53
        E 17 b9 04 43
        E 10 b9 04 32
        E 9 b9 04 22
        E 56 b9 04 12
        E 41 89 2d 40
        E 3 89 29 40
        E 104 89 2c 40
        E 19 b9 04 22
        E 17 b9 04 32
        E 7 99 2d 7f
        E 22 99 29 7f
        E 12 b9 04 43
        E 101 b9 04 32
        E 25 b9 04 22
        E 29 b9 04 12
        E 34 b9 04 00
        E 19 89 2d 40
        E 24 89 29 40
        E 174 99 24 7f
        E 41 99 33 79
        E 2 99 31 7f
        E 30 b9 04 12
        E 8 b9 04 22
        E 11 b9 04 32
        E 21 b9 04 43
        E 7 b9 04 4c
        E 3 99 2c 18
        E 2 b9 04 53
        E 30 b9 04 43
        E 50 b9 04 32
        E 39 89 24 40
        E 7 b9 04 22
        E 34 89 33 40
        E 2 89 31 40
        E 80 89 2c 40
        E 31 b9 04 32
        E 164 b9 04 22
        E 63 b9 04 12
        E 100 b9 04 00
        E 96 99 24 5f
        E 6 b9 04 12
        E 23 b9 04 22
        E 19 b9 04 32
        E 30 b9 04 43
        E 21 b9 04 4c
        E 5 99 2c 08
        E 104 b9 04 47
        E 33 89 24 40
        E 13 b9 04 36
        E 43 b9 04 25
        E 49 b9 04 15
        E 2 89 2c 40
        E 75 b9 04 03
        E 15 b9 04 00
        E 47 99 26 7f
        E 88 99 28 68
        E 62 b9 04 12
        E 39 b9 04 22
        E 17 b9 04 32
        E 39 89 26 40
        E 2 b9 04 22
        E 82 89 28 40
        E 44 b9 04 18
        E 152 b9 04 29
        E 43 b9 04 3a
        E 37 b9 04 4a
        E 2 b9 04 4c
        E 3 99 2c 0a
        E 41 b9 04 5a
        E 96 b9 04 4a
        E 29 b9 04 3a
        E 24 b9 04 29
        E 27 b9 04 18
        E 22 89 2c 40
        E 15 b9 04 06
        E 19 b9 04 00
        E 26 99 24 6f
        E 242 89 24 40
        E 114 b9 04 12
        E 9 b9 04 22
        E 9 b9 04 32
        E 8 99 2d 7f
        E 22 99 30 7f
        E 7 b9 04 43
        E 2 b9 04 4f
        E 3 99 2c 32
        E 2 b9 04 54
        E 19 b9 04 43
        E 5 b9 04 32
        E 7 b9 04 22
        E 124 b9 04 1d
        E 51 89 2d 40
        E 11 b9 04 2e
        E 13 89 30 40
        E 12 89 2c 40
        E 135 b9 04 1d
        E 60 b9 04 0c
        E 32 b9 04 00
        E 276 b9 04 12
        E 23 b9 04 22
        E 10 b9 04 32
        E 8 b9 04 43
        E 4 b9 04 4c
        E 3 99 2c 24
        E 2 b9 04 53
        E 21 b9 04 43
        E 13 b9 04 32
        E 157 b9 04 2c
        E 48 89 2c 40
        E 20 b9 04 3c
        E 101 b9 04 2c
        E 7 99 24 65
        E 44 b9 04 1a
        E 46 b9 04 09
        E 26 b9 04 00
        E 129 89 24 40
        E 145 99 26 7f
        E 55 b9 04 12
        E 10 b9 04 25
        E 28 b9 04 36
        E 8 b9 04 47
        E 5 b9 04 4c
        E 2 99 2c 20
        E 2 89 26 40
        E 3 99 26 7f
        E 9 b9 04 36
        E 7 b9 04 25
        E 15 b9 04 15
        E 157 b9 04 25
        E 29 b9 04 36
        E 22 89 2c 40
        E 2 89 26 40
        E 20 b9 04 46
        E 87 99 30 3b
        E 5 b9 04 36
        E 43 b9 04 25
        E 32 b9 04 15
        E 45 b9 04 03
        E 13 b9 04 00
        E 33 89 30 40
        E 2 99 30 73
        E 213 99 26 59
        E 27 89 30 40
        E 109 b9 04 12
        E 43 b9 04 22
        E 10 b9 04 32
        E 7 b9 04 43
        E 14 b9 04 32
        E 5 89 26 40
        E 5 99 26 73
        E 2 b9 04 22
        E 5 b9 04 12
        E 152 b9 04 22
        E 37 89 26 40
        E 0 99 26 4b
        E 12 b9 04 32
        E 101 b9 04 20
        E 63 b9 04 0f
        E 34 89 26 40
        E 2 99 26 70
        E 5 b9 04 00
        E 215 89 26 40
        E 3 99 26 71
        E 120 b9 04 12
        E 36 b9 04 22
        E 13 b9 04 32
        E 7 b9 04 43
        E 20 b9 04 32
        E 2 89 26 40
        E 3 99 26 7b
        E 2 b9 04 20
        E 29 b9 04 0f
        E 106 b9 04 20
        E 34 b9 04 30
        E 31 89 26 40
        E 2 99 26 74
        E 90 b9 04 20
        E 51 b9 04 0f
        E 33 b9 04 00
        E 15 89 26 40
        E 3 99 26 79
        E 241 89 26 40
        E 17 99 24 7f
        E 22 99 33 7f
        E 17 b9 04 12
        E 9 b9 04 22
        E 13 b9 04 32
        E 21 b9 04 43
        E 7 b9 04 4c
        E 3 99 2c 18
        E 16 b9 04 32
        E 10 b9 04 20
        E 104 b9 04 0f
        E 20 89 24 40
        E 21 89 33 40
        E 73 89 2c 40
        E 9 b9 04 20
        E 34 b9 04 30
        E 44 b9 04 41
        E 104 b9 04 4f
        E 2 99 2c 04
        E 39 b9 04 4d
        E 150 b9 04 43
        E 55 89 2c 40
        E 106 99 24 72
        E 37 b9 04 32
        E 86 b9 04 22
        E 109 b9 04 12
        E 10 89 24 40
        E 147 b9 04 03
        E 10 b9 04 00
        E 22 99 26 7f
        E 77 b9 04 12
        E 22 99 28 7f
        E 12 b9 04 22
        E 34 b9 04 32
        E 24 b9 04 43
        E 34 b9 04 32
        E 26 b9 04 22
        E 15 89 26 40
        E 99 89 28 40
        E 24 b9 04 1a
        E 145 b9 04 2c
        E 68 b9 04 3c
        E 29 b9 04 4c
        E 2 99 2c 0a
        E 2 b9 04 4c
        E 39 b9 04 5c
        E 135 b9 04 4c
        E 27 b9 04 3c
        E 22 b9 04 2c
        E 17 89 2c 40
        E 9 b9 04 1a
        E 17 99 24 72
        E 20 b9 04 09
        E 29 b9 04 00
        E 192 89 24 40
        E 139 99 2d 7f
        E 53 99 30 7f
        E 16 b9 04 12
        E 58 b9 04 22
        E 15 b9 04 32
        E 5 b9 04 43
        E 2 b9 04 4c
        E 3 99 2c 34
        E 2 b9 04 55
        E 17 b9 04 44
        E 5 b9 04 32
        E 7 b9 04 22
        E 15 b9 04 12
        E 43 89 2d 40
        E 56 89 30 40
        E 96 89 2c 40
        E 191 b9 04 22
        E 36 b9 04 32
        E 126 b9 04 3f
        E 133 b9 04 4f
        E 2 99 2c 08
        E 3 b9 04 4f
        E 159 b9 04 3f
        E 32 b9 04 2e
        E 24 b9 04 1d
        E 24 89 2c 40
        E 17 b9 04 0c
        E 29 b9 04 00
        E 38 99 24 7c
        E 242 89 24 40
        E 116 99 26 7f
        E 3 b9 04 12
        E 47 b9 04 22
        E 8 b9 04 32
        E 29 b9 04 22
        E 10 b9 04 12
        E 7 99 28 7f
        E 121 b9 04 03
        E 17 89 26 40
        E 60 b9 04 15
        E 27 b9 04 25
        E 17 89 28 40
        E 7 b9 04 36
        E 77 99 26 63
        E 96 b9 04 25
        E 25 b9 04 15
        E 12 99 30 7f
        E 19 b9 04 03
        E 12 b9 04 00
        E 78 89 26 40
        E 55 99 2d 7f
        E 78 89 30 40
        E 43 99 24 77
        E 27 b9 04 12
        E 26 b9 04 22
        E 10 b9 04 32
        E 9 b9 04 43
        E 5 b9 04 4c
        E 3 99 2c 20
        E 2 b9 04 53
        E 39 89 2d 40
        E 7 b9 04 43
        E 34 b9 04 32
        E 84 89 24 40
        E 76 89 2c 40
        E 101 b9 04 38
        E 58 99 24 62
        E 2 b9 04 27
        E 44 b9 04 15
        E 53 b9 04 03
        E 19 b9 04 00
        E 125 89 24 40
        E 160 99 26 7f
        E 19 b9 04 12
        E 32 b9 04 22
        E 7 b9 04 32
        E 5 b9 04 43
        E 7 b9 04 4c
        E 1 99 2c 28
        E 16 b9 04 30
        E 7 b9 04 20
        E 13 99 28 7f
        E 9 b9 04 0f
        E 126 89 26 40
        E 72 89 2c 40
        E 22 b9 04 20
        E 12 89 28 40
        E 8 b9 04 30
        E 19 b9 04 41
        E 31 b9 04 4f
        E 2 99 2c 0a
        E 8 b9 04 51
        E 48 99 24 4e
        E 70 b9 04 41
        E 32 b9 04 30
        E 23 b9 04 20
        E 45 b9 04 0f
        E 17 89 2c 40
        E 29 b9 04 00
        E 26 89 24 40
        E 343 99 24 7f
        E 11 b9 04 12
        E 13 b9 04 22
        E 29 99 31 7f
        E 3 b9 04 32
        E 4 99 33 7f
        E 3 b9 04 44
        E 2 b9 04 4d
        E 4 99 2c 30
        E 5 b9 04 54
        E 8 b9 04 43
        E 5 b9 04 30
        E 4 b9 04 20
        E 18 b9 04 0f
        E 135 89 24 40
        E 53 89 31 40
        E 10 b9 04 20
        E 2 89 33 40
        E 2 89 2c 40
        E 22 b9 04 30
        E 44 b9 04 41
        E 104 b9 04 30
        E 36 b9 04 20
        E 51 b9 04 0f
        E 45 b9 04 00
        E 305 99 33 74
        E 56 b9 04 12
        E 23 b9 04 22
        E 10 b9 04 32
        E 12 b9 04 43
        E 5 b9 04 4c
        E 3 99 2c 1c
        E 21 b9 04 32
        E 13 b9 04 22
        E 101 89 33 40
        E 58 b9 04 2e
        E 48 89 2c 40
        E 19 b9 04 1d
        E 80 b9 04 0c
        E 6 99 26 7f
        E 50 b9 04 00
        E 193 89 26 40
        E 89 b9 04 12
        E 32 b9 04 22
        E 19 b9 04 32
        E 15 b9 04 43
        E 19 b9 04 32
        E 14 b9 04 22
        E 3 99 33 59
        E 123 b9 04 15
        E 82 b9 04 25
        E 32 b9 04 36
        E 5 89 33 40
        E 28 b9 04 46
        E 126 b9 04 36
        E 37 b9 04 25
        E 6 99 24 78
        E 22 b9 04 15
        E 43 b9 04 03
        E 16 b9 04 00
        E 161 89 24 40
        E 189 99 28 7f
        E 12 99 33 7f
        E 2 b9 04 12
        E 10 b9 04 25
        E 8 b9 04 36
        E 33 b9 04 47
        E 0 b9 04 4d
        E 5 99 2c 28
        E 2 b9 04 57
        E 13 b9 04 47
        E 7 b9 04 36
        E 7 b9 04 25
        E 12 b9 04 15
        E 94 b9 04 25
        E 36 89 28 40
        E 12 89 33 40
        E 56 89 2c 40
        E 87 b9 04 15
        E 68 b9 04 03
        E 19 b9 04 00
        E 302 99 33 69
        E 58 b9 04 12
        E 19 b9 04 22
        E 19 b9 04 32
        E 10 b9 04 44
        E 3 b9 04 4c
        E 2 99 2c 26
        E 3 b9 04 54
        E 6 b9 04 65
        E 13 b9 04 55
        E 7 b9 04 44
        E 22 b9 04 34
        E 79 89 33 40
        E 80 b9 04 22
        E 31 89 2c 40
        E 18 b9 04 12
        E 70 b9 04 00
        E 7 99 30 7f
        E 241 89 30 40
        E 100 b9 04 12
        E 33 b9 04 22
        E 15 b9 04 32
        E 7 b9 04 43
        E 5 b9 04 4d
        E 2 99 2c 2a
        E 3 b9 04 53
        E 2 99 33 4d
        E 12 b9 04 43
        E 7 b9 04 32
        E 10 b9 04 22
        E 208 b9 04 32
        E 2 89 2c 40
        E 3 89 33 40
        E 106 b9 04 22
        E 42 99 24 6b
        E 13 b9 04 12
        E 76 b9 04 00
        E 152 89 24 40
        E 186 b9 04 12
        E 12 b9 04 22
        E 16 99 2d 7f
        E 10 b9 04 32
        E 17 b9 04 43
        E 5 b9 04 4c
        E 3 99 2c 20
        E 2 b9 04 53
        E 22 b9 04 43
        E 9 b9 04 32
        E 44 b9 04 22
        E 86 b9 04 12
        E 44 89 2d 40
        E 34 89 2c 40
        E 39 b9 04 22
        E 24 b9 04 32
        E 27 b9 04 43
        E 40 b9 04 4f
        E 2 99 2c 08
        E 98 99 24 5d
        E 21 b9 04 32
        E 29 b9 04 22
        E 37 b9 04 12
        E 41 b9 04 00
        E 16 89 2c 40
        E 97 89 24 40
        E 167 99 29 7f
        E 5 99 33 47
        E 77 b9 04 12
        E 11 b9 04 25
        E 36 b9 04 36
        E 28 b9 04 25
        E 10 b9 04 15
        E 75 89 29 40
        E 7 89 33 40
        E 9 b9 04 25
        E 148 b9 04 15
        E 60 b9 04 03
        E 17 b9 04 00
        E 382 b9 04 12
        E 10 b9 04 22
        E 0 99 31 7f
        E 7 99 24 7f
        E 9 b9 04 32
        E 10 99 33 7f
        E 10 b9 04 43
        E 16 b9 04 32
        E 8 b9 04 22
        E 17 b9 04 12
        E 104 b9 04 22
        E 50 b9 04 32
        E 11 89 31 40
        E 7 89 24 40
        E 19 89 33 40
        E 128 b9 04 22
        E 43 b9 04 12
        E 61 b9 04 00
        E 317 99 24 70
        E 2 b9 04 12
        E 7 b9 04 22
        E 12 b9 04 32
        E 12 99 33 7f
        E 15 b9 04 43
        E 4 b9 04 4c
        E 1 99 2c 1c
        E 24 b9 04 32
        E 6 b9 04 22
        E 69 b9 04 12
        E 88 89 24 40
        E 37 89 33 40
        E 19 89 2c 40
        E 61 b9 04 22
        E 24 b9 04 32
        E 108 99 26 7f
        E 18 b9 04 36
        E 45 b9 04 25
        E 37 b9 04 15
        E 41 b9 04 03
        E 12 b9 04 00
        E 89 89 26 40
        E 174 99 33 6b
        E 55 b9 04 12
        E 13 b9 04 22
        E 9 b9 04 32
        E 27 b9 04 43
        E 7 b9 04 4c
        E 3 99 2c 1a
        E 22 b9 04 32
        E 12 b9 04 20
        E 94 89 33 40
        E 63 b9 04 18
        E 48 b9 04 29
        E 3 89 2c 40
        E 142 99 24 75
        E 43 b9 04 18
        E 51 b9 04 06
        E 27 b9 04 00
        E 120 89 24 40
        E 148 99 30 7f
        E 39 99 33 77
        E 43 b9 04 12
        E 12 b9 04 22
        E 31 b9 04 32
        E 10 b9 04 43
        E 17 b9 04 32
        E 7 b9 04 20
        E 19 b9 04 0f
        E 63 89 30 40
        E 31 b9 04 20
        E 11 89 33 40
        E 120 b9 04 25
        E 56 b9 04 15
        E 58 b9 04 03
        E 16 b9 04 00
        E 309 99 33 5a
        E 18 b9 04 12
        E 15 b9 04 22
        E 26 b9 04 32
        E 12 b9 04 43
        E 3 b9 04 4c
        E 2 99 2c 26
        E 2 b9 04 53
        E 20 b9 04 41
        E 7 b9 04 30
        E 17 b9 04 20
        E 123 89 33 40
        E 73 89 2c 40
        E 5 b9 04 30
        E 132 99 24 6d
        E 5 b9 04 20
        E 65 b9 04 0f
        E 51 b9 04 00
        E 121 89 24 40
        E 135 99 26 7f
        E 50 b9 04 12
        E 13 b9 04 25
        E 29 b9 04 36
        E 9 b9 04 46
        E 3 b9 04 4d
        E 2 99 2c 26
        E 3 b9 04 57
        E 12 89 26 40
        E 0 99 26 7f
        E 7 b9 04 47
        E 7 b9 04 36
        E 44 b9 04 25
        E 33 b9 04 15
        E 136 89 2c 40
        E 14 b9 04 25
        E 3 89 26 40
        E 22 b9 04 36
        E 115 99 24 65
        E 15 b9 04 3a
        E 38 b9 04 29
        E 37 b9 04 18
        E 39 b9 04 06
        E 14 b9 04 00
        E 99 89 24 40
        E 159 99 30 7f
        E 3 99 2d 7f
        E 123 b9 04 12
        E 46 b9 04 22
        E 8 b9 04 32
        E 7 b9 04 43
        E 5 b9 04 4c
        E 2 99 2c 28
        E 12 b9 04 32
        E 7 b9 04 20
        E 12 b9 04 0f
        E 17 89 30 40
        E 5 89 2d 40
        E 152 99 2d 7f
        E 32 99 30 7f
        E 4 89 2c 40
        E 71 b9 04 20
        E 50 b9 04 30
        E 44 b9 04 41
        E 27 b9 04 4f
        E 2 99 2c 08
        E 5 b9 04 51
        E 7 89 2d 40
        E 34 89 30 40
        E 126 b9 04 41
        E 29 b9 04 30
        E 21 b9 04 20
        E 12 99 24 76
        E 8 89 2c 40
        E 14 b9 04 0f
        E 31 b9 04 00
        E 189 89 24 40
        E 152 b9 04 12
        E 7 b9 04 25
        E 10 b9 04 36
        E 2 99 2d 7f
        E 12 b9 04 46
        E 15 b9 04 4c
        E 2 99 2c 14
        E 5 b9 04 56
        E 12 b9 04 66
        E 90 b9 04 56
        E 22 b9 04 46
        E 16 b9 04 36
        E 18 b9 04 22
        E 16 b9 04 12
        E 26 b9 04 00
        E 8 89 2d 40
        E 29 89 2c 40
        E 154 99 24 7f
        E 73 99 33 79
        E 10 99 31 79
        E 75 b9 04 12
        E 7 b9 04 22
        E 5 b9 04 32
        E 5 b9 04 43
        E 4 b9 04 4d
        E 2 99 2c 2e
        E 2 b9 04 53
        E 13 b9 04 43
        E 8 b9 04 32
        E 7 b9 04 20
        E 12 b9 04 0f
        E 19 89 24 40
        E 75 89 33 40
        E 8 89 31 40
        E 45 b9 04 20
        E 32 b9 04 30
        E 21 89 2c 40
        E 114 b9 04 20
        E 44 b9 04 0f
        E 38 b9 04 00
        E 287 99 33 7f
        E 3 99 24 69
        E 10 b9 04 12
        E 24 b9 04 22
        E 21 b9 04 32
        E 13 b9 04 43
        E 5 b9 04 4c
        E 2 99 2c 1e
        E 24 b9 04 32
        E 14 b9 04 22
        E 126 89 33 40
        E 3 89 24 40
        E 23 b9 04 1d
        E 52 89 2c 40
        E 19 b9 04 2e
        E 101 b9 04 1d
        E 51 99 26 7f
        E 27 b9 04 0c
        E 36 b9 04 00
        E 179 89 26 40
        E 130 b9 04 12
        E 24 b9 04 22
        E 17 b9 04 32
        E 12 99 33 4f
        E 2 b9 04 43
        E 17 b9 04 32
        E 10 b9 04 20
        E 130 b9 04 12
        E 74 b9 04 22
        E 11 89 33 40
        E 17 b9 04 32
        E 150 99 24 64
        E 2 b9 04 22
        E 41 b9 04 12
        E 58 b9 04 00
        E 143 89 24 40
        E 125 99 26 7f
        E 76 b9 04 12
        E 9 89 26 40
        E 2 99 26 7e
        E 3 b9 04 25
        E 31 b9 04 36
        E 10 b9 04 46
        E 3 b9 04 4d
        E 2 99 2c 22
        E 24 b9 04 36
        E 9 b9 04 25
        E 56 b9 04 15
        E 101 89 26 40
        E 51 89 2c 40
        E 59 b9 04 25
        E 29 99 2d 7f
        E 2 b9 04 36
        E 12 99 30 7f
        E 24 b9 04 46
        E 41 b9 04 4f
        E 3 99 2c 06
        E 159 89 2d 40
        E 15 89 30 40
        E 53 b9 04 36
        E 14 89 2c 40
        E 43 b9 04 25
        E 32 99 24 5c
        E 13 b9 04 15
        E 91 b9 04 03
        E 24 b9 04 00
        E 114 89 24 40
        E 183 b9 04 12
        E 14 b9 04 22
        E 17 b9 04 32
        E 17 b9 04 43
        E 5 99 30 7f
        E 3 b9 04 4c
        E 2 99 2c 18
        E 2 b9 04 53
        E 3 99 2d 7f
        E 5 b9 04 63
        E 17 b9 04 51
        E 7 b9 04 41
        E 20 b9 04 30
        E 43 b9 04 20
        E 142 89 30 40
        E 6 89 2c 40
        E 2 89 2d 40
        E 36 b9 04 30
        E 36 b9 04 41
        E 39 b9 04 4f
        E 3 99 2c 08
        E 7 b9 04 51
        E 50 99 2d 7f
        E 89 b9 04 5c
        E 95 89 2c 40
        E 57 89 2d 40
        E 175 b9 04 54
        E 292 b9 04 44
        E 73 b9 04 34
        E 89 b9 04 22
        E 37 99 2d 7f
        E 9 99 30 7f
        E 111 b9 04 32
        E 27 b9 04 43
        E 22 b9 04 4f
        E 2 99 2c 0a
        E 5 b9 04 53
        E 58 b9 04 63
        E 7 89 2d 40
        E 12 89 30 40
        E 113 b9 04 53
        E 29 b9 04 43
        E 18 89 2c 40
        E 14 b9 04 32
        E 20 b9 04 22
        E 35 b9 04 12
        E 53 b9 04 00
        E 314 99 2d 7f
        E 10 99 29 7f
        E 39 b9 04 12
        E 22 b9 04 25
        E 7 b9 04 36
        E 5 b9 04 46
        E 17 b9 04 36
        E 9 b9 04 22
        E 123 b9 04 32
        E 13 89 2d 40
        E 6 89 29 40
        E 71 b9 04 22
        E 50 b9 04 12
        E 70 b9 04 00
        E 363 b9 04 12
        E 7 b9 04 22
        E 5 99 24 7f
        E 5 b9 04 32
        E 32 b9 04 43
        E 4 b9 04 4d
        E 2 99 2c 22
        E 3 b9 04 55
        E 7 99 31 7f
        E 2 99 33 7f
        E 10 b9 04 44
        E 8 b9 04 34
        E 12 b9 04 22
        E 138 b9 04 32
        E 19 89 24 40
        E 48 89 2c 40
        E 5 89 31 40
        E 2 89 33 40
        E 63 b9 04 36
        E 44 b9 04 25
        E 39 b9 04 15
        E 63 b9 04 03
        E 11 b9 04 00
        E 326 b9 04 12
        E 11 b9 04 22
        E 11 b9 04 32
        E 5 99 24 76
        E 22 99 33 5e
        E 2 b9 04 43
        E 5 b9 04 4d
        E 3 99 2c 24
        E 2 b9 04 53
        E 16 b9 04 43
        E 8 b9 04 32
        E 12 b9 04 22
        E 92 b9 04 12
        E 79 89 24 40
        E 22 89 33 40
        E 10 89 2c 40
        E 39 b9 04 22
        E 33 b9 04 32
        E 128 99 26 7f
        E 22 b9 04 22
        E 49 b9 04 12
        E 45 b9 04 00
        E 126 89 26 40
        E 172 b9 04 12
        E 19 99 33 4d
        E 3 b9 04 22
        E 17 b9 04 32
        E 9 b9 04 43
        E 22 b9 04 32
        E 12 b9 04 20
        E 128 b9 04 15
        E 50 89 33 40
        E 3 b9 04 25
        E 33 b9 04 36
        E 153 99 24 77
        E 16 b9 04 25
        E 35 b9 04 15
        E 55 b9 04 03
        E 15 b9 04 00
        E 120 89 24 40
        E 206 99 28 72
        E 12 99 33 7f
        E 14 b9 04 12
        E 13 b9 04 22
        E 26 b9 04 32
        E 10 b9 04 43
        E 7 b9 04 4c
        E 0 99 2c 20
        E 17 b9 04 32
        E 7 b9 04 22
        E 15 b9 04 12
        E 123 89 28 40
        E 12 89 33 40
        E 53 b9 04 22
        E 17 89 2c 40
        E 176 b9 04 12
        E 60 b9 04 00
        E 279 99 33 4e
        E 12 b9 04 12
        E 10 b9 04 22
        E 9 b9 04 32
        E 21 b9 04 43
        E 7 b9 04 4c
        E 3 99 2c 16
        E 3 b9 04 53
        E 9 b9 04 63
        E 51 b9 04 53
        E 34 b9 04 43
        E 46 b9 04 32
        E 39 89 33 40
        E 60 89 2c 40
        E 148 99 24 6f
        E 9 b9 04 22
        E 51 b9 04 12
        E 60 b9 04 00
        E 124 89 24 40
        E 203 99 26 7f
        E 24 99 33 67
        E 12 b9 04 12
        E 12 b9 04 22
        E 29 b9 04 32
        E 9 b9 04 43
        E 3 b9 04 4c
        E 2 99 2c 26
        E 5 b9 04 53
        E 14 b9 04 41
        E 8 b9 04 30
        E 5 b9 04 20
        E 72 b9 04 0f
        E 46 89 26 40
        E 27 89 33 40
        E 67 89 2c 40
        E 12 b9 04 20
        E 22 b9 04 30
        E 29 b9 04 41
        E 138 b9 04 30
        E 2 99 24 49
        E 25 b9 04 20
        E 41 b9 04 0f
        E 29 b9 04 00
        E 147 89 24 40
        E 188 99 33 4b
        E 20 b9 04 12
        E 12 b9 04 25
        E 41 b9 04 36
        E 7 b9 04 47
        E 2 b9 04 4d
        E 3 99 2c 30
        E 2 b9 04 57
        E 12 b9 04 47
        E 5 b9 04 36
        E 8 b9 04 25
        E 9 b9 04 15
        E 56 b9 04 25
        E 58 b9 04 36
        E 9 89 33 40
        E 80 89 2c 40
        E 39 b9 04 25
        E 39 b9 04 15
        E 3 99 33 07
        E 20 99 24 68
        E 32 b9 04 03
        E 17 b9 04 00
        E 174 89 33 40
        E 20 89 24 40
        E 178 99 26 78
        E 19 99 33 62
        E 15 b9 04 12
        E 14 b9 04 22
        E 36 b9 04 32
        E 5 b9 04 43
        E 5 b9 04 4d
        E 2 99 2c 2a
        E 18 b9 04 32
        E 9 b9 04 20
        E 121 89 26 40
        E 17 89 33 40
        E 75 b9 04 0f
        E 1 89 2c 40
        E 47 b9 04 00
        E 447 b9 04 12
        E 10 b9 04 22
        E 6 99 24 7f
        E 8 b9 04 32
        E 12 b9 04 43
        E 14 99 31 6d
        E 3 b9 04 32
        E 5 99 33 7f
        E 5 b9 04 20
        E 12 b9 04 0f
        E 178 b9 04 20
        E 6 89 24 40
        E 36 89 31 40
        E 7 89 33 40
        E 152 b9 04 0f
        E 53 b9 04 00
        E 329 b9 04 12
        E 17 99 24 6b
        E 9 b9 04 22
        E 12 99 33 7f
        E 5 b9 04 32
        E 29 b9 04 20
        E 20 b9 04 0f
        E 167 89 24 40
        E 21 89 33 40
        E 49 b9 04 20
        E 26 b9 04 30
        E 140 99 26 7f
        E 24 b9 04 20
        E 51 b9 04 0f
        E 36 b9 04 00
        E 131 89 26 40
        E 171 99 33 7f
        E 5 b9 04 12
        E 15 b9 04 22
        E 26 b9 04 32
        E 10 b9 04 43
        E 5 b9 04 4d
        E 2 99 2c 24
        E 2 b9 04 54
        E 20 b9 04 44
        E 10 b9 04 34
        E 123 b9 04 29
        E 24 89 33 40
        E 63 89 2c 40
        E 92 b9 04 18
        E 19 99 24 68
        E 36 b9 04 06
        E 22 b9 04 00
        E 183 89 24 40
        E 158 b9 04 12
        E 10 b9 04 25
        E 14 99 28 44
        E 17 b9 04 36
        E 7 b9 04 46
        E 5 b9 04 4d
        E 4 99 2c 26
        E 5 99 33 7f
        E 12 b9 04 36
        E 10 b9 04 25
        E 48 b9 04 15
        E 133 89 28 40
        E 29 b9 04 25
        E 10 89 2c 40
        E 2 89 33 40
        E 174 b9 04 15
        E 54 b9 04 03
        E 9 b9 04 00
        E 283 99 33 59
        E 17 b9 04 12
        E 26 b9 04 22
        E 13 b9 04 32
        E 7 b9 04 43
        E 5 b9 04 4c
        E 2 99 2c 24
        E 3 b9 04 54
        E 14 b9 04 44
        E 9 b9 04 32
        E 15 b9 04 22
        E 75 b9 04 12
        E 55 89 33 40
        E 48 b9 04 22
        E 22 89 2c 40
        E 15 b9 04 32
        E 101 99 24 64
        E 39 b9 04 22
        E 51 b9 04 12
        E 46 b9 04 00
        E 106 89 24 40
        E 198 99 33 5f
        E 10 99 26 75
        E 29 b9 04 12
        E 9 b9 04 25
        E 22 b9 04 36
        E 10 b9 04 46
        E 19 b9 04 36
        E 12 b9 04 22
        E 97 b9 04 32
        E 34 89 33 40
        E 9 89 26 40
        E 126 b9 04 22
        E 39 b9 04 12
        E 19 99 26 7f
        E 24 b9 04 00
        E 131 89 26 40
        E 0 99 26 79
        E 220 89 26 40
        E 2 99 26 7c
        E 14 b9 04 12
        E 12 b9 04 22
        E 39 b9 04 32
        E 17 b9 04 20
        E 36 b9 04 0f
        E 61 b9 04 20
        E 60 b9 04 30
        E 3 89 26 40
        E 87 b9 04 20
        E 60 b9 04 0f
        E 48 b9 04 00
        E 24 99 30 34
        E 165 89 30 40
        E 0 99 30 6d
        E 174 b9 04 12
        E 17 b9 04 22
        E 7 89 30 40
        E 2 99 30 7f
        E 27 b9 04 32
        E 29 b9 04 20
        E 22 b9 04 0f
        E 164 89 30 40
        E 101 b9 04 20
        E 29 b9 04 30
        E 54 b9 04 41
        E 11 99 2d 7f
        E 92 b9 04 30
        E 32 b9 04 20
        E 41 b9 04 0f
        E 34 b9 04 00
        E 43 89 2d 40
        E 193 99 31 73
        E 2 99 24 65
        E 30 99 33 7f
        E 36 b9 04 12
        E 12 b9 04 22
        E 24 b9 04 32
        E 15 b9 04 43
        E 5 b9 04 4c
        E 2 99 2c 1e
        E 3 b9 04 53
        E 19 b9 04 43
        E 9 b9 04 32
        E 56 b9 04 22
        E 29 89 31 40
        E 2 89 24 40
        E 30 89 33 40
        E 93 89 2c 40
        E 111 b9 04 12
        E 40 b9 04 00
        E 289 99 24 73
        E 20 99 33 7f
        E 2 b9 04 12
        E 15 b9 04 25
        E 28 b9 04 36
        E 27 b9 04 25
        E 14 b9 04 15
        E 136 89 24 40
        E 22 89 33 40
        E 26 b9 04 0f
        E 48 b9 04 20
        E 25 b9 04 30
        E 46 b9 04 41
        E 48 99 26 7f
        E 63 b9 04 30
        E 33 b9 04 20
        E 44 b9 04 0f
        E 31 b9 04 00
        E 71 89 26 40
        E 186 99 33 65
        E 53 b9 04 12
        E 14 b9 04 22
        E 27 b9 04 32
        E 12 b9 04 43
        E 22 b9 04 32
        E 12 b9 04 20
        E 101 89 33 40
        E 32 b9 04 1a
        E 50 b9 04 2c
        E 111 99 24 63
        E 56 b9 04 1a
        E 53 b9 04 09
        E 25 b9 04 00
        E 108 89 24 40
        E 145 99 33 71
        E 29 99 26 7f
        E 60 b9 04 12
        E 12 b9 04 22
        E 27 b9 04 32
        E 12 b9 04 43
        E 20 b9 04 32
        E 6 b9 04 22
        E 76 89 33 40
        E 31 b9 04 32
        E 3 89 26 40
        E 123 b9 04 22
        E 45 b9 04 12
        E 29 99 30 43
        E 20 b9 04 00
        E 137 89 30 40
        E 3 99 30 7f
        E 193 89 30 40
        E 0 99 30 5c
        E 22 b9 04 12
        E 39 b9 04 22
        E 17 b9 04 32
        E 31 b9 04 20
        E 101 b9 04 30
        E 32 89 30 40
        E 82 b9 04 20
        E 48 b9 04 0f
        E 37 b9 04 00
        E 69 99 2d 7f
        E 147 89 2d 40
        E 6 99 2d 7f
        E 140 b9 04 12
        E 51 b9 04 22
        E 2 89 2d 40
        E 3 99 2d 7f
        E 7 b9 04 32
        E 31 b9 04 20
        E 193 b9 04 30
        E 8 89 2d 40
        E 91 b9 04 20
        E 56 b9 04 0f
        E 36 b9 04 00
        E 75 99 29 50
        E 179 89 29 40
        E 5 99 29 7f
        E 94 b9 04 12
        E 17 b9 04 22
        E 75 89 29 40
        E 0 99 29 7f
        E 3 b9 04 12
        E 139 b9 04 25
        E 75 99 26 7f
        E 27 89 29 40
        E 31 b9 04 29
        E 39 b9 04 18
        E 34 b9 04 06
        E 14 b9 04 00
        E 68 89 26 40
        E 2 99 26 7f
        E 189 89 26 40
        E 2 99 26 73
        E 116 b9 04 12
        E 39 b9 04 22
        E 43 b9 04 12
        E 39 99 2d 7f
        E 7 89 26 40
        E 176 99 30 3d
        E 34 b9 04 22
        E 25 89 2d 40
        E 4 b9 04 32
        E 32 b9 04 43
        E 27 b9 04 4c
        E 2 99 2c 08
        E 94 99 26 7f
        E 10 b9 04 47
        E 14 89 30 40
        E 24 b9 04 36
        E 29 b9 04 25
        E 20 b9 04 15
        E 29 b9 04 03
        E 7 b9 04 00
        E 14 89 2c 40
        E 44 89 26 40
        E 4 99 26 71
        E 237 99 24 7f
        E 3 89 26 40
        E 12 99 3b 7f
        E 2 b9 04 12
        E 7 b9 04 27
        E 8 b9 04 38
        E 55 b9 04 27
        E 61 b9 04 15
        E 94 89 24 40
        E 17 89 3b 40
        E 99 b9 04 25
        E 159 b9 04 15
        E 46 b9 04 03
        E 12 b9 04 00
        E 240 99 24 69
        E 43 99 33 7f
        E 17 b9 04 12
        E 15 b9 04 22
        E 26 b9 04 32
        E 14 b9 04 43
        E 6 b9 04 4c
        E 0 99 2c 18
        E 26 b9 04 32
        E 27 b9 04 22
        E 55 b9 04 12
        E 15 89 24 40
        E 41 89 33 40
        E 82 89 2c 40
        E 60 b9 04 22
        E 46 99 26 7f
        E 80 b9 04 29
        E 67 b9 04 18
        E 44 b9 04 06
        E 17 b9 04 00
        E 34 89 26 40
        E 195 99 33 7f
        E 82 b9 04 12
        E 24 b9 04 22
        E 27 b9 04 32
        E 19 b9 04 22
        E 25 b9 04 12
        E 65 89 33 40
        E 61 b9 04 22
        E 135 99 24 76
        E 21 b9 04 12
        E 63 b9 04 00
        E 157 89 24 40
        E 136 99 28 7f
        E 29 99 33 77
        E 41 b9 04 12
        E 7 b9 04 22
        E 10 b9 04 32
        E 31 b9 04 43
        E 24 b9 04 32
        E 7 b9 04 22
        E 24 b9 04 12
        E 68 89 28 40
        E 29 89 33 40
        E 176 b9 04 1a
        E 90 b9 04 09
        E 29 b9 04 00
        E 256 99 33 7f
        E 68 b9 04 12
        E 21 b9 04 22
        E 13 b9 04 32
        E 33 b9 04 20
        E 109 89 33 40
        E 17 b9 04 12
        E 116 b9 04 22
        E 46 b9 04 32
        E 7 99 28 7d
        E 174 b9 04 22
        E 48 b9 04 12
        E 22 89 28 40
        E 22 b9 04 00
        E 210 99 33 7f
        E 68 b9 04 12
        E 24 b9 04 25
        E 10 b9 04 36
        E 9 b9 04 47
        E 3 b9 04 4c
        E 2 99 2c 1e
        E 24 b9 04 36
        E 104 89 33 40
        E 22 b9 04 30
        E 91 89 2c 40
        E 54 99 24 60
        E 14 b9 04 20
        E 46 b9 04 0f
        E 39 b9 04 00
        E 143 89 24 40
        E 156 b9 04 12
        E 19 b9 04 22
        E 11 99 33 6a
        E 12 b9 04 32
        E 9 b9 04 43
        E 5 b9 04 4c
        E 2 99 2c 20
        E 5 b9 04 53
        E 20 b9 04 43
        E 7 b9 04 32
        E 123 b9 04 43
        E 58 89 33 40
        E 29 89 2c 40
        E 22 b9 04 32
        E 26 b9 04 22
        E 36 b9 04 12
        E 40 99 24 75
        E 4 b9 04 00
        E 236 89 24 40
        E 180 99 28 7f
        E 5 b9 04 12
        E 26 99 3b 7f
        E 9 b9 04 22
        E 10 b9 04 32
        E 8 b9 04 43
        E 16 b9 04 30
        E 8 b9 04 20
        E 17 b9 04 0f
        E 65 b9 04 20
        E 77 89 28 40
        E 34 89 3b 40
        E 12 b9 04 29
        E 56 b9 04 18
        E 50 b9 04 06
        E 27 b9 04 00
        E 367 b9 04 12
        E 15 b9 04 22
        E 14 99 24 7f
        E 12 b9 04 32
        E 10 b9 04 43
        E 17 b9 04 32
        E 8 b9 04 20
        E 4 99 3b 77
        E 20 b9 04 0f
        E 77 b9 04 20
        E 50 b9 04 30
        E 44 89 24 40
        E 50 89 3b 40
        E 46 b9 04 20
        E 56 b9 04 0f
        E 41 b9 04 00
        E 346 b9 04 12
        E 14 b9 04 22
        E 34 99 24 7f
        E 2 b9 04 32
        E 5 b9 04 44
        E 5 b9 04 4c
        E 3 99 2c 20
        E 2 99 33 71
        E 14 b9 04 34
        E 8 b9 04 22
        E 19 b9 04 12
        E 184 89 24 40
        E 14 89 2c 40
        E 2 89 33 40
        E 3 b9 04 22
        E 140 b9 04 12
        E 63 99 26 79
        E 6 b9 04 00
        E 235 89 26 40
        E 107 b9 04 12
        E 38 b9 04 22
        E 12 b9 04 32
        E 10 b9 04 43
        E 15 99 33 7f
        E 2 b9 04 32
        E 7 b9 04 22
        E 17 b9 04 12
        E 94 b9 04 22
        E 121 89 33 40
        E 10 b9 04 2c
        E 53 b9 04 1a
        E 51 b9 04 09
        E 29 99 24 6d
        E 3 b9 04 00
        E 238 89 24 40
        E 111 99 33 5b
        E 54 99 26 68
        E 12 b9 04 12
        E 46 b9 04 22
        E 7 b9 04 32
        E 24 b9 04 20
        E 12 b9 04 0f
        E 87 89 33 40
        E 53 89 26 40
        E 3 b9 04 20
        E 43 b9 04 30
        E 102 b9 04 20
        E 34 99 26 60
        E 18 b9 04 0f
        E 39 b9 04 00
        E 77 99 30 7f
        E 107 89 26 40
        E 67 99 2d 7f
        E 68 b9 04 12
        E 2 89 30 40
        E 25 99 24 70
        E 2 b9 04 22
        E 19 b9 04 32
        E 10 b9 04 43
        E 5 b9 04 4c
        E 3 99 2c 1e
        E 2 b9 04 54
        E 24 b9 04 44
        E 12 b9 04 34
        E 41 b9 04 20
        E 29 89 2d 40
        E 20 b9 04 0f
        E 75 89 24 40
        E 40 89 2c 40
        E 5 b9 04 20
        E 15 b9 04 30
        E 27 b9 04 41
        E 34 b9 04 4f
        E 2 99 2c 06
        E 14 b9 04 51
        E 85 b9 04 41
        E 34 b9 04 30
        E 2 99 24 6c
        E 17 b9 04 20
        E 34 b9 04 0f
        E 29 b9 04 00
        E 29 89 2c 40
        E 135 89 24 40
        E 145 99 26 7f
        E 27 b9 04 12
        E 7 b9 04 22
        E 5 b9 04 32
        E 9 b9 04 43
        E 32 b9 04 4c
        E 0 99 2c 1c
        E 5 b9 04 53
        E 19 89 26 40
        E 2 99 26 7f
        E 3 b9 04 43
        E 2 b9 04 32
        E 9 b9 04 22
        E 56 b9 04 12
        E 145 89 2c 40
        E 26 89 26 40
        E 5 b9 04 22
        E 23 b9 04 32
        E 40 99 26 3f
        E 87 b9 04 36
        E 49 b9 04 25
        E 19 99 30 7f
        E 10 b9 04 15
        E 34 b9 04 03
        E 9 b9 04 00
        E 37 89 26 40
        E 60 99 2d 7f
        E 92 89 30 40
        E 39 99 24 7a
        E 43 b9 04 12
        E 17 b9 04 22
        E 14 b9 04 32
        E 15 b9 04 44
        E 4 b9 04 4c
        E 3 99 2c 1a
        E 2 b9 04 54
        E 18 89 2d 40
        E 13 b9 04 44
        E 42 b9 04 34
        E 36 b9 04 20
        E 35 89 24 40
        E 95 89 2c 40
        E 3 b9 04 30
        E 31 b9 04 41
        E 114 99 24 65
        E 39 b9 04 30
        E 26 b9 04 20
        E 39 b9 04 0f
        E 34 b9 04 00
        E 104 89 24 40
        E 120 99 26 7d
        E 66 b9 04 12
        E 21 b9 04 22
        E 2 89 26 40
        E 3 99 26 7f
        E 17 b9 04 32
        E 7 b9 04 43
        E 5 b9 04 4c
        E 3 99 2c 24
        E 14 b9 04 32
        E 10 b9 04 20
        E 21 b9 04 0f
        E 133 b9 04 20
        E 29 89 26 40
        E 32 b9 04 30
        E 2 89 2c 40
        E 58 99 24 69
        E 15 b9 04 20
        E 55 b9 04 0f
        E 34 b9 04 00
        E 138 89 24 40
        E 171 b9 04 12
        E 5 b9 04 22
        E 7 b9 04 34
        E 3 99 24 7f
        E 5 b9 04 44
        E 26 b9 04 4c
        E 3 99 2c 20
        E 2 b9 04 55
        E 7 b9 04 65
        E 5 99 31 7f
        E 2 99 3b 7f
        E 12 b9 04 55
        E 14 b9 04 44
        E 49 b9 04 34
        E 44 b9 04 22
        E 72 89 24 40
        E 36 89 2c 40
        E 15 89 31 40
        E 3 89 3b 40
        E 13 b9 04 32
        E 151 b9 04 22
        E 36 b9 04 12
        E 36 b9 04 00
        E 298 99 24 73
        E 21 b9 04 12
        E 12 b9 04 25
        E 20 99 33 7f
        E 17 b9 04 36
        E 9 b9 04 47
        E 3 b9 04 4c
        E 2 99 2c 1e
        E 24 b9 04 36
        E 13 b9 04 25
        E 50 b9 04 15
        E 71 89 24 40
        E 53 89 33 40
        E 31 89 2c 40
        E 21 b9 04 25
        E 102 99 26 7f
        E 65 b9 04 15
        E 46 b9 04 03
        E 13 b9 04 00
        E 118 89 26 40
        E 171 b9 04 12
        E 14 b9 04 22
        E 15 b9 04 32
        E 10 99 33 7f
        E 7 b9 04 43
        E 29 b9 04 32
        E 20 b9 04 22
        E 159 b9 04 1a
        E 26 89 33 40
        E 17 b9 04 2c
        E 138 99 24 7b
        E 33 b9 04 1a
        E 48 b9 04 09
        E 23 b9 04 00
        E 138 89 24 40
        E 197 99 26 7f
        E 18 b9 04 12
        E 9 b9 04 22
        E 7 b9 04 32
        E 0 99 33 7f
        E 27 b9 04 43
        E 21 b9 04 32
        E 10 b9 04 20
        E 33 b9 04 0f
        E 86 b9 04 20
        E 31 89 26 40
        E 25 b9 04 30
        E 9 89 33 40
        E 94 b9 04 20
        E 61 b9 04 0f
        E 47 b9 04 00
        E 337 b9 04 12
        E 7 b9 04 22
        E 5 99 33 62
        E 7 b9 04 32
        E 29 b9 04 43
        E 7 b9 04 4c
        E 3 99 2c 1a
        E 21 b9 04 32
        E 10 b9 04 20
        E 162 b9 04 12
        E 5 89 33 40
        E 43 89 2c 40
        E 12 b9 04 22
        E 29 b9 04 32
        E 95 99 24 68
        E 36 b9 04 36
        E 48 b9 04 25
        E 41 b9 04 15
        E 46 b9 04 03
        E 9 b9 04 00
        E 61 89 24 40
        E 225 b9 04 12
        E 19 99 33 7f
        E 15 b9 04 22
        E 14 b9 04 32
        E 8 b9 04 44
        E 5 b9 04 4d
        E 2 99 2c 26
        E 3 b9 04 55
        E 14 b9 04 44
        E 7 b9 04 34
        E 8 b9 04 20
        E 166 89 33 40
        E 29 b9 04 30
        E 14 89 2c 40
        E 20 b9 04 41
        E 38 b9 04 50
        E 3 99 2c 08
        E 2 b9 04 51
        E 101 99 24 6f
        E 17 b9 04 41
        E 34 b9 04 30
        E 28 b9 04 20
        E 38 b9 04 0f
        E 21 89 2c 40
        E 10 b9 04 00
        E 97 89 24 40
        E 184 99 26 7f
        E 21 b9 04 12
        E 7 99 33 7f
        E 17 b9 04 22
        E 22 b9 04 32
        E 9 b9 04 43
        E 6 b9 04 4d
        E 2 99 2c 26
        E 2 b9 04 55
        E 22 b9 04 44
        E 7 b9 04 34
        E 12 b9 04 20
        E 116 89 26 40
        E 29 89 33 40
        E 51 b9 04 30
        E 2 89 2c 40
        E 109 99 24 71
        E 41 b9 04 20
        E 71 b9 04 0f
        E 40 b9 04 00
        E 90 89 24 40
        E 142 99 26 76
        E 84 89 26 40
        E 5 99 26 7f
        E 11 b9 04 12
        E 48 b9 04 22
        E 7 b9 04 32
        E 29 b9 04 22
        E 12 b9 04 12
        E 133 89 26 40
        E 61 b9 04 22
        E 98 99 28 62
        E 27 b9 04 27
        E 58 b9 04 15
        E 44 b9 04 03
        E 6 b9 04 00
        E 110 89 28 40
        E 149 99 24 7f
        E 33 99 33 7f
        E 3 b9 04 12
        E 10 b9 04 22
        E 17 b9 04 32
        E 14 b9 04 43
        E 25 b9 04 32
        E 16 b9 04 22
        E 123 89 24 40
        E 35 89 33 40
        E 2 b9 04 15
        E 75 b9 04 25
        E 130 b9 04 29
        E 60 b9 04 18
        E 61 b9 04 06
        E 24 b9 04 00
        E 232 99 24 63
        E 10 99 33 7f
        E 58 b9 04 12
        E 26 b9 04 22
        E 12 b9 04 32
        E 41 b9 04 20
        E 94 89 24 40
        E 10 89 33 40
        E 160 99 26 7f
        E 147 b9 04 0f
        E 96 89 26 40
        E 34 b9 04 00
        E 146 b9 04 12
        E 58 b9 04 22
        E 19 99 33 7f
        E 135 b9 04 32
        E 109 89 33 40
        E 29 b9 04 22
        E 49 b9 04 12
        E 31 99 24 63
        E 27 b9 04 00
        E 214 89 24 40
        E 136 99 26 7f
        E 17 99 33 7f
        E 14 b9 04 12
        E 39 b9 04 25
        E 14 b9 04 36
        E 19 b9 04 25
        E 11 b9 04 15
        E 28 b9 04 03
        E 99 89 26 40
        E 17 b9 04 15
        E 0 89 33 40
        E 73 b9 04 25
        E 120 b9 04 15
        E 82 b9 04 03
        E 15 b9 04 00
        E 283 99 33 7f
        E 38 b9 04 12
        E 27 b9 04 22
        E 12 b9 04 32
        E 34 b9 04 20
        E 128 b9 04 1a
        E 2 89 33 40
        E 188 99 28 64
        E 66 b9 04 09
        E 50 b9 04 00
        E 126 89 28 40
        E 135 b9 04 12
        E 25 b9 04 22
        E 14 b9 04 32
        E 0 99 33 5c
        E 24 b9 04 22
        E 29 b9 04 12
        E 150 b9 04 22
        E 34 b9 04 32
        E 5 89 33 40
        E 135 99 24 5e
        E 22 b9 04 22
        E 60 b9 04 12
        E 77 b9 04 00
        E 83 89 24 40
        E 196 99 26 7f
        E 26 b9 04 12
        E 29 b9 04 25
        E 9 b9 04 36
        E 7 89 26 40
        E 3 99 26 7f
        E 20 b9 04 22
        E 12 b9 04 12
        E 203 b9 04 22
        E 9 89 26 40
        E 14 b9 04 32
        E 56 b9 04 43
        E 60 99 24 5f
        E 35 b9 04 32
        E 36 b9 04 22
        E 46 b9 04 12
        E 50 b9 04 00
        E 77 89 24 40
        E 98 99 2d 7f
        E 22 99 30 7f
        E 137 b9 04 12
        E 17 b9 04 22
        E 5 b9 04 32
        E 9 b9 04 43
        E 15 b9 04 32
        E 7 b9 04 20
        E 22 b9 04 0f
        E 7 89 2d 40
        E 24 89 30 40
        E 27 b9 04 20
        E 46 b9 04 30
        E 109 b9 04 20
        E 62 b9 04 0f
        E 46 b9 04 00
        E 348 99 24 7f
        E 13 b9 04 12
        E 14 b9 04 25
        E 2 99 31 6d
        E 22 99 33 7f
        E 9 b9 04 36
        E 5 b9 04 46
        E 5 b9 04 4c
        E 2 99 2c 22
        E 13 b9 04 36
        E 10 b9 04 25
        E 14 b9 04 15
        E 133 89 24 40
        E 14 b9 04 25
        E 15 89 31 40
        E 21 89 33 40
        E 22 89 2c 40
        E 101 b9 04 15
        E 85 b9 04 03
        E 27 b9 04 00
        E 302 99 24 60
        E 10 b9 04 12
        E 21 b9 04 25
        E 12 b9 04 36
        E 10 99 33 56
        E 29 b9 04 25
        E 123 b9 04 20
        E 37 89 24 40
        E 55 89 33 40
        E 3 b9 04 0f
        E 67 b9 04 00
        E 70 99 26 7f
        E 242 89 26 40
        E 7 b9 04 12
        E 26 b9 04 22
        E 54 b9 04 12
        E 86 99 33 4f
        E 155 b9 04 22
        E 35 b9 04 32
        E 42 b9 04 43
        E 10 89 33 40
        E 121 b9 04 32
        E 29 b9 04 22
        E 22 99 24 64
        E 19 b9 04 12
        E 48 b9 04 00
        E 174 89 24 40
        E 165 99 26 7f
        E 16 b9 04 12
        E 15 99 33 7f
        E 2 b9 04 22
        E 27 b9 04 32
        E 7 b9 04 43
        E 20 b9 04 32
        E 7 b9 04 22
        E 17 b9 04 12
        E 130 89 26 40
        E 36 89 33 40
        E 37 b9 04 22
        E 41 b9 04 32
        E 132 b9 04 22
        E 56 b9 04 12
        E 61 b9 04 00
        E 232 99 33 7c
        E 77 b9 04 12
        E 27 b9 04 22
        E 9 b9 04 32
        E 32 b9 04 20
        E 96 89 33 40
        E 208 99 26 7d
        E 43 b9 04 0f
        E 79 b9 04 00
        E 120 89 26 40
        E 149 b9 04 12
        E 8 99 33 5b
        E 18 b9 04 22
        E 15 b9 04 32
        E 39 b9 04 20
        E 133 b9 04 1a
        E 36 89 33 40
        E 14 b9 04 2c
        E 151 99 24 50
        E 31 b9 04 1a
        E 60 b9 04 09
        E 34 b9 04 00
        E 116 89 24 40
        E 181 b9 04 12
        E 5 99 26 57
        E 21 b9 04 22
        E 8 99 33 58
        E 2 b9 04 32
        E 5 b9 04 43
        E 23 b9 04 30
        E 9 b9 04 20
        E 126 b9 04 1a
        E 47 89 26 40
        E 3 b9 04 2c
        E 27 89 33 40
        E 111 99 24 53
        E 43 b9 04 1a
        E 65 b9 04 09
        E 35 b9 04 00
        E 99 89 24 40
        E 120 99 30 7f
        E 70 99 33 50
        E 10 b9 04 12
        E 22 b9 04 25
        E 12 b9 04 36
        E 12 b9 04 46
        E 12 b9 04 36
        E 12 b9 04 25
        E 92 89 30 40
        E 73 89 33 40
        E 60 b9 04 15
        E 0 99 30 7f
        E 50 b9 04 03
        E 14 b9 04 00
        E 177 89 30 40
        E 152 99 24 7f
        E 3 b9 04 12
        E 36 b9 04 25
        E 15 b9 04 36
        E 7 b9 04 47
        E 2 99 33 7f
        E 15 b9 04 36
        E 9 b9 04 25
        E 15 b9 04 15
        E 140 89 24 40
        E 12 b9 04 25
        E 51 89 33 40
        E 126 b9 04 15
        E 67 b9 04 03
        E 17 b9 04 00
        E 302 b9 04 12
        E 0 99 24 55
        E 16 b9 04 25
        E 12 b9 04 36
        E 23 b9 04 25
        E 12 b9 04 15
        E 2 99 33 7f
        E 177 89 24 40
        E 65 89 33 40
        E 24 b9 04 1a
        E 94 b9 04 09
        E 12 99 26 72
        E 30 b9 04 00
        E 212 89 26 40
        E 75 b9 04 12
        E 31 b9 04 22
        E 46 b9 04 12
        E 36 99 33 33
        E 158 b9 04 22
        E 33 b9 04 32
        E 51 89 33 40
        E 77 b9 04 38
        E 46 b9 04 27
        E 15 99 24 56
        E 29 b9 04 15
        E 50 b9 04 03
        E 13 b9 04 00
        E 149 89 24 40
        E 196 b9 04 12
        E 22 b9 04 22
        E 7 99 26 7f
        E 0 99 33 7f
        E 19 b9 04 32
        E 7 b9 04 43
        E 5 b9 04 4c
        E 3 99 2c 20
        E 19 b9 04 30
        E 4 b9 04 20
        E 42 b9 04 0f
        E 143 89 26 40
        E 2 89 33 40
        E 15 b9 04 20
        E 19 89 2c 40
        E 176 b9 04 0f
        E 56 b9 04 00
        E 302 99 33 37
        E 7 b9 04 12
        E 19 b9 04 22
        E 46 b9 04 12
        E 169 89 33 40
        E 61 b9 04 22
        E 123 99 26 7f
        E 9 b9 04 12
        E 68 b9 04 00
        E 165 89 26 40
        E 123 99 33 7f
        E 29 b9 04 12
        E 31 b9 04 22
        E 10 b9 04 32
        E 7 b9 04 43
        E 22 b9 04 32
        E 9 b9 04 20
        E 129 b9 04 15
        E 4 89 33 40
        E 66 b9 04 25
        E 128 99 24 54
        E 24 b9 04 15
        E 67 b9 04 03
        E 12 b9 04 00
        E 141 89 24 40
        E 169 b9 04 12
        E 16 99 33 7f
        E 13 b9 04 22
        E 2 99 26 67
        E 7 b9 04 32
        E 6 b9 04 43
        E 5 b9 04 4c
        E 6 99 2c 22
        E 15 b9 04 32
        E 9 b9 04 22
        E 61 b9 04 12
        E 89 b9 04 22
        E 32 89 33 40
        E 12 89 26 40
        E 5 b9 04 32
        E 19 89 2c 40
        E 99 99 24 57
        E 5 b9 04 22
        E 55 b9 04 12
        E 53 b9 04 00
        E 131 89 24 40
        E 152 99 28 2d
        E 8 99 26 73
        E 36 99 33 74
        E 2 b9 04 12
        E 31 b9 04 22
        E 8 b9 04 32
        E 10 b9 04 43
        E 19 b9 04 32
        E 9 b9 04 22
        E 68 b9 04 32
        E 53 89 28 40
        E 7 89 26 40
        E 37 89 33 40
        E 16 b9 04 22
        E 47 b9 04 12
        E 43 b9 04 00
        E 15 99 26 65
        E 241 89 26 40
        E 46 b9 04 12
        E 24 b9 04 22
        E 13 b9 04 32
        E 9 b9 04 43
        E 4 99 24 7f
        E 3 b9 04 4c
        E 2 99 2c 1e
        E 17 b9 04 32
        E 13 b9 04 22
        E 41 99 33 48
        E 32 b9 04 12
        E 137 89 24 40
        E 2 89 2c 40
        E 44 b9 04 22
        E 28 89 33 40
        E 10 b9 04 32
        E 94 b9 04 43
        E 168 b9 04 32
        E 195 b9 04 38
        E 386 b9 04 27
        E 75 b9 04 15
        E 71 99 26 7f
        E 108 89 26 40
        E 2 99 26 7f
        E 15 b9 04 25
        E 48 b9 04 36
        E 39 b9 04 25
        E 124 b9 04 1d
        E 19 89 26 40
        E 166 b9 04 2e
        E 63 b9 04 3e
        E 145 b9 04 44
        E 60 b9 04 34
        E 51 b9 04 22
        E 65 b9 04 12
        E 122 b9 04 00
        E 135 99 24 7f
        E 9 b9 04 12
        E 36 b9 04 25
        E 22 b9 04 36
        E 24 b9 04 46
        E 15 b9 04 4c
        E 2 99 2c 0a
        E 58 b9 04 36
        E 43 b9 04 25
        E 32 89 24 40
        E 32 b9 04 15
        E 79 89 2c 40
        E 147 b9 04 25
        E 148 b9 04 32
        E 334 b9 04 25
        E 161 b9 04 1d
        E 222 99 30 7f
        E 3 99 2d 7f
        E 128 b9 04 2e
        E 114 89 30 40
        E 2 89 2d 40
        E 304 b9 04 27
        E 411 b9 04 38
        E 261 99 24 7f
        E 14 b9 04 2c
        E 228 89 24 40
        E 353 b9 04 27
        E 159 99 26 7f
        E 2 b9 04 20
        E 85 89 26 40
        E 2 99 26 7f
        E 244 89 26 40
        E 36 b9 04 2e
        E 203 b9 04 20
        E 307 99 24 7f
        E 242 89 24 40
        E 2 b9 04 12
        E 249 b9 04 1d
        E 217 b9 04 27
        E 332 b9 04 1d
        E 249 99 2d 7f
        E 2 99 30 7f
        E 241 89 2d 40
        E 2 89 30 40
        E 830 b9 04 2c
        E 113 99 24 7a
        E 196 b9 04 20
        E 46 89 24 40
        E 208 b9 04 29
        E 666 b9 04 20
        E 245 b9 04 15
        E 24 99 26 7f
        E 67 b9 04 25
        E 21 89 26 40
        E 3 99 26 7f
        E 242 89 26 40
        E 10 b9 04 1d
        E 761 b9 04 2e
        E 84 99 24 7e
        E 162 b9 04 1d
        E 80 89 24 40
        E 372 b9 04 25
        E 137 b9 04 1d
        E 59 99 30 7f
        E 7 99 2d 7f
        E 236 89 30 40
        E 5 89 2d 40
        E 54 b9 04 29
        E 194 b9 04 1d
        E 270 b9 04 12
        E 11 99 24 6e
        E 20 99 33 65
        E 31 b9 04 22
        E 126 b9 04 29
        E 68 89 24 40
        E 19 89 33 40
        E 18 b9 04 18
        E 190 b9 04 0f
        E 284 b9 04 20
        E 42 99 33 30
        E 186 b9 04 12
        E 55 89 33 40
        E 266 b9 04 22
        E 198 b9 04 15
        E 193 b9 04 25
        E 148 b9 04 29
        E 155 b9 04 18
        E 208 b9 04 0c
        E 190 99 28 5a
        E 2 b9 04 1d
        E 13 99 33 7a
        E 229 89 28 40
        E 12 89 33 40
        E 3 b9 04 0f
        E 285 b9 04 1a
        E 309 b9 04 15
        E 135 b9 04 25
        E 315 b9 04 1d
        E 64 99 24 79
        E 20 99 33 41
        E 224 89 24 40
        E 17 89 33 40
        E 998 99 26 7f
        E 20 99 33 65
        E 222 89 26 40
        E 21 89 33 40
        E 445 b9 04 2e
        E 290 b9 04 36
        E 145 b9 04 27
        E 154 b9 04 1a
        E 141 99 24 7a
        E 5 99 33 3c
        E 50 b9 04 2c
        E 34 b9 04 3c
        E 148 b9 04 2c
        E 4 89 24 40
        E 5 89 33 40
        E 61 b9 04 1a
        E 164 b9 04 12
        E 191 b9 04 22
        E 7 99 24 44
        E 10 b9 04 32
        E 31 99 33 2d
        E 8 b9 04 43
        E 109 b9 04 32
        E 33 b9 04 22
        E 43 b9 04 12
        E 8 89 24 40
        E 41 89 33 40
        E 68 b9 04 00
        E 125 99 28 29
        E 164 b9 04 12
        E 27 b9 04 22
        E 51 89 28 40
        E 87 b9 04 12
        E 0 99 33 27
        E 178 b9 04 22
        E 44 b9 04 32
        E 19 89 33 40
        E 104 b9 04 22
        E 50 99 24 40
        E 8 b9 04 12
        E 70 b9 04 00
        E 167 89 24 40
        E 157 99 33 62
        E 2 99 28 42
        E 44 b9 04 12
        E 14 b9 04 25
        E 36 b9 04 36
        E 10 b9 04 46
        E 5 b9 04 4c
        E 2 99 2c 1a
        E 17 b9 04 36
        E 17 b9 04 25
        E 95 89 33 40
        E 2 89 28 40
        E 24 b9 04 1a
        E 89 89 2c 40
        E 73 b9 04 09
        E 58 b9 04 00
        E 326 b9 04 12
        E 24 b9 04 25
        E 3 99 33 27
        E 14 b9 04 36
        E 80 b9 04 25
        E 125 b9 04 1a
        E 22 89 33 40
        E 104 b9 04 09
        E 85 99 26 5c
        E 51 b9 04 00
        E 193 89 26 40
        E 62 b9 04 12
        E 39 b9 04 22
        E 22 99 33 2b
        E 52 b9 04 12
        E 170 b9 04 1d
        E 20 89 33 40
        E 130 b9 04 27
        E 128 b9 04 15
        E 150 b9 04 03
        E 31 b9 04 00
        E 280 b9 04 12
        E 29 b9 04 22
        E 341 b9 04 12
        E 167 b9 04 00
        E 246 b9 04 12
        E 150 b9 04 22
        E 68 b9 04 32
        E 118 b9 04 22
        E 60 b9 04 12
        E 89 b9 04 00
        E 327 b9 04 12
        E 27 b9 04 22
        E 9 b9 04 32
        E 10 b9 04 43
        E 12 99 24 73
        E 11 b9 04 32
        E 11 b9 04 20
        E 29 99 33 60
        E 101 b9 04 12
        E 89 89 24 40
        E 51 89 33 40
        E 123 b9 04 22
        E 136 b9 04 29
        E 43 99 26 57
        E 135 b9 04 1d
        E 109 89 26 40
        E 227 b9 04 27
        E 357 b9 04 30
        E 235 b9 04 25
        E 133 99 26 79
        E 22 b9 04 1d
        E 14 99 33 4e
        E 135 b9 04 2e
        E 25 b9 04 3e
        E 24 b9 04 4c
        E 2 99 2c 0c
        E 5 b9 04 4f
        E 14 89 26 40
        E 37 89 33 40
        E 89 b9 04 3f
        E 37 b9 04 2e
        E 36 b9 04 1d
        E 24 89 2c 40
        E 46 b9 04 0c
        E 89 b9 04 00
        E 200 b9 04 12
        E 25 b9 04 22
        E 15 b9 04 32
        E 16 b9 04 43
        E 15 b9 04 4c
        E 3 99 2c 10
        E 2 99 33 31
        E 68 b9 04 32
        E 91 b9 04 22
        E 80 89 2c 40
        E 4 89 33 40
        E 30 b9 04 12
        E 142 99 26 65
        E 53 b9 04 06
        E 173 b9 04 18
        E 16 89 26 40
        E 14 b9 04 29
        E 29 b9 04 3a
        E 68 b9 04 29
        E 17 99 33 3a
        E 67 b9 04 18
        E 172 b9 04 29
        E 2 89 33 40
        E 37 b9 04 3a
        E 34 b9 04 4a
        E 9 b9 04 4d
        E 3 99 2c 08
        E 138 b9 04 3a
        E 12 99 24 52
        E 26 b9 04 29
        E 41 b9 04 18
        E 24 89 2c 40
        E 32 b9 04 06
        E 28 b9 04 00
        E 92 89 24 40
        E 145 99 28 4a
        E 27 99 33 41
        E 7 b9 04 12
        E 22 b9 04 22
        E 12 b9 04 32
        E 15 b9 04 43
        E 9 b9 04 4c
        E 3 99 2c 16
        E 16 b9 04 32
        E 12 b9 04 22
        E 120 89 28 40
        E 26 89 33 40
        E 28 b9 04 32
        E 39 89 2c 40
        E 68 99 24 4b
        E 58 b9 04 22
        E 80 b9 04 12
        E 79 b9 04 00
        E 24 89 24 40
        E 167 99 26 6d
        E 22 99 33 44
        E 27 b9 04 12
        E 28 b9 04 22
        E 15 b9 04 32
        E 36 b9 04 22
        E 37 b9 04 12
        E 77 89 26 40
        E 22 89 33 40
        E 12 b9 04 22
        E 55 b9 04 32
        E 102 99 26 6c
        E 12 b9 04 22
        E 70 b9 04 12
        E 68 b9 04 00
        E 91 89 26 40
        E 150 b9 04 12
        E 20 b9 04 22
        E 9 b9 04 32
        E 5 99 24 6f
        E 7 b9 04 43
        E 0 99 33 71
        E 24 b9 04 32
        E 17 b9 04 22
        E 152 b9 04 15
        E 41 89 24 40
        E 10 89 33 40
        E 7 b9 04 25
        E 32 b9 04 36
        E 43 b9 04 46
        E 150 b9 04 36
        E 70 b9 04 25
        E 114 b9 04 15
        E 160 b9 04 25
        E 26 99 24 50
        E 2 b9 04 36
        E 2 99 33 7f
        E 27 b9 04 46
        E 14 b9 04 4c
        E 3 99 2c 0a
        E 46 b9 04 56
        E 121 b9 04 46
        E 29 89 24 40
        E 2 89 33 40
        E 10 b9 04 36
        E 36 89 2c 40
        E 13 b9 04 25
        E 67 b9 04 15
        E 45 99 26 7f
        E 47 b9 04 03
        E 171 b9 04 15
        E 24 89 26 40
        E 2 b9 04 25
        E 23 b9 04 36
        E 77 b9 04 25
        E 72 99 33 40
        E 32 b9 04 15
        E 96 b9 04 25
        E 39 b9 04 36
        E 36 b9 04 46
        E 22 b9 04 4d
        E 2 99 2c 08
        E 15 89 33 40
        E 94 b9 04 4d
        E 51 b9 04 3c
        E 19 99 24 51
        E 21 b9 04 2c
        E 40 b9 04 1a
        E 2 89 2c 40
        E 48 b9 04 09
        E 36 b9 04 00
        E 95 89 24 40
        E 125 99 26 7f
        E 46 99 33 79
        E 17 b9 04 12
        E 17 b9 04 22
        E 10 b9 04 32
        E 10 b9 04 43
        E 4 b9 04 4c
        E 3 99 2c 1e
        E 24 b9 04 32
        E 14 b9 04 22
        E 97 89 26 40
        E 27 b9 04 1a
        E 19 89 33 40
        E 43 b9 04 2c
        E 20 89 2c 40
        E 185 b9 04 1a
        E 97 b9 04 09
        E 42 b9 04 00
        E 202 99 33 47
        E 20 b9 04 12
        E 29 b9 04 22
        E 19 b9 04 32
        E 17 b9 04 20
        E 131 b9 04 1a
        E 26 89 33 40
        E 28 b9 04 2c
        E 134 b9 04 32
        E 53 b9 04 22
        E 77 b9 04 12
        E 87 b9 04 00
        E 213 99 33 4c
        E 24 b9 04 12
        E 27 b9 04 25
        E 17 b9 04 36
        E 33 b9 04 25
        E 47 b9 04 15
        E 96 89 33 40
        E 15 b9 04 25
        E 139 b9 04 29
        E 15 99 26 7f
        E 85 b9 04 18
        E 106 b9 04 06
        E 39 b9 04 00
        E 12 89 26 40
        E 171 b9 04 12
        E 10 99 33 3b
        E 24 b9 04 22
        E 15 b9 04 32
        E 53 b9 04 22
        E 142 b9 04 1a
        E 7 89 33 40
        E 53 b9 04 2c
        E 39 b9 04 3c
        E 61 b9 04 4c
        E 2 99 2c 08
        E 2 b9 04 4c
        E 73 99 24 4b
        E 30 b9 04 3c
        E 54 b9 04 2c
        E 56 b9 04 1a
        E 27 89 2c 40
        E 39 b9 04 09
        E 36 89 24 40
        E 11 b9 04 00
        E 164 99 28 3d
        E 27 99 33 47
        E 30 b9 04 12
        E 24 b9 04 22
        E 14 b9 04 32
        E 10 b9 04 43
        E 26 b9 04 32
        E 13 b9 04 20
        E 98 89 28 40
        E 27 89 33 40
        E 24 b9 04 30
        E 114 99 24 45
        E 17 b9 04 38
        E 58 b9 04 27
        E 67 b9 04 15
        E 67 b9 04 03
        E 20 b9 04 00
        E 12 89 24 40
        E 158 99 33 59
        E 7 99 28 36
        E 6 99 26 6e
        E 64 b9 04 12
        E 26 b9 04 22
        E 10 b9 04 32
        E 24 b9 04 22
        E 22 b9 04 12
        E 74 b9 04 22
        E 8 89 33 40
        E 7 89 28 40
        E 8 89 26 40
        E 9 b9 04 32
        E 162 99 26 78
        E 9 b9 04 22
        E 49 b9 04 12
        E 55 b9 04 00
        E 129 89 26 40
        E 154 99 24 65
        E 2 b9 04 12
        E 22 b9 04 22
        E 10 b9 04 32
        E 17 99 33 51
        E 16 b9 04 20
        E 39 b9 04 0f
        E 137 89 24 40
        E 32 b9 04 20
        E 20 89 33 40
        E 5 b9 04 30
        E 29 b9 04 41
        E 26 b9 04 4c
        E 2 99 2c 08
        E 27 b9 04 51
        E 35 99 24 38
        E 74 b9 04 41
        E 45 b9 04 30
        E 37 b9 04 20
        E 24 89 2c 40
        E 24 b9 04 0f
        E 36 89 24 40
        E 13 b9 04 00
        E 143 99 26 50
        E 55 99 33 55
        E 20 b9 04 12
        E 16 b9 04 25
        E 13 b9 04 36
        E 9 b9 04 46
        E 5 b9 04 4c
        E 2 99 2c 1c
        E 27 b9 04 36
        E 38 b9 04 25
        E 56 89 26 40
        E 56 89 33 40
        E 16 b9 04 1a
        E 45 b9 04 2c
        E 4 89 2c 40
        E 26 b9 04 3c
        E 34 99 24 42
        E 51 99 33 38
        E 46 b9 04 41
        E 40 b9 04 30
        E 27 b9 04 20
        E 35 b9 04 0f
        E 33 b9 04 00
        E 13 89 24 40
        E 50 89 33 40
        E 128 99 24 47
        E 56 99 33 62
        E 5 b9 04 12
        E 9 b9 04 22
        E 12 b9 04 32
        E 17 b9 04 43
        E 5 b9 04 4c
        E 2 99 2c 1a
        E 3 b9 04 54
        E 24 b9 04 44
        E 10 b9 04 34
        E 55 b9 04 22
        E 44 89 24 40
        E 57 89 33 40
        E 49 89 2c 40
        E 9 b9 04 32
        E 39 b9 04 43
        E 29 99 24 41
        E 21 99 33 51
        E 112 b9 04 32
        E 26 b9 04 22
        E 37 b9 04 12
        E 46 b9 04 00
        E 2 89 24 40
        E 19 89 33 40
        E 157 99 26 74
        E 31 b9 04 12
        E 8 99 33 7d
        E 12 b9 04 25
        E 10 b9 04 36
        E 10 b9 04 47
        E 2 b9 04 4c
        E 2 99 2c 1a
        E 10 b9 04 57
        E 17 b9 04 47
        E 14 b9 04 36
        E 53 b9 04 25
        E 73 89 26 40
        E 16 b9 04 15
        E 25 89 33 40
        E 36 89 2c 40
        E 26 b9 04 25
        E 35 b9 04 36
        E 29 99 24 45
        E 16 99 33 47
        E 3 b9 04 46
        E 123 b9 04 36
        E 34 b9 04 25
        E 24 b9 04 15
        E 28 b9 04 03
        E 13 b9 04 00
        E 3 89 24 40
        E 17 89 33 40
        E 152 99 24 47
        E 26 99 33 60
        E 27 b9 04 12
        E 12 b9 04 25
        E 12 b9 04 36
        E 11 b9 04 47
        E 1 b9 04 4c
        E 3 99 2c 1c
        E 7 b9 04 57
        E 14 b9 04 47
        E 13 b9 04 36
        E 62 b9 04 25
        E 58 89 24 40
        E 22 89 33 40
        E 45 b9 04 20
        E 23 b9 04 30
        E 0 89 2c 40
        E 34 b9 04 41
        E 45 99 33 4f
        E 8 b9 04 4f
        E 2 99 2c 06
        E 15 99 24 4b
        E 116 b9 04 30
        E 21 b9 04 20
        E 34 b9 04 0f
        E 34 b9 04 00
        E 12 89 33 40
        E 9 89 2c 40
        E 16 89 24 40
        E 175 99 26 74
        E 3 b9 04 12
        E 12 b9 04 25
        E 13 b9 04 36
        E 5 99 33 62
        E 2 b9 04 46
        E 2 b9 04 4c
        E 3 99 2c 20
        E 4 b9 04 56
        E 68 b9 04 46
        E 29 b9 04 36
        E 43 b9 04 25
        E 61 89 26 40
        E 11 b9 04 15
        E 18 89 33 40
        E 7 89 2c 40
        E 56 b9 04 25
        E 28 b9 04 36
        E 30 b9 04 46
        E 0 99 24 47
        E 19 b9 04 4f
        E 5 99 2c 08
        E 5 99 33 49
        E 132 b9 04 36
        E 22 b9 04 25
        E 20 b9 04 15
        E 26 b9 04 03
        E 7 b9 04 00
        E 8 89 24 40
        E 24 89 2c 40
        E 4 89 33 40
        E 123 99 24 43
        E 42 99 33 5a
        E 33 b9 04 12
        E 11 b9 04 25
        E 9 b9 04 36
        E 7 b9 04 46
        E 5 b9 04 4d
        E 2 99 2c 1a
        E 5 b9 04 56
        E 32 b9 04 46
        E 45 b9 04 36
        E 42 b9 04 25
        E 12 89 24 40
        E 38 b9 04 15
        E 5 89 33 40
        E 67 89 2c 40
        E 15 b9 04 25
        E 37 b9 04 36
        E 24 99 33 4e
        E 14 99 24 4e
        E 36 b9 04 46
        E 75 b9 04 36
        E 37 b9 04 22
        E 33 b9 04 12
        E 42 b9 04 00
        E 4 89 33 40
        E 15 89 24 40
        E 145 99 26 4e
        E 32 99 33 76
        E 11 b9 04 12
        E 17 b9 04 22
        E 8 b9 04 32
        E 5 b9 04 43
        E 4 b9 04 4d
        E 3 99 2c 2a
        E 2 b9 04 54
        E 19 b9 04 44
        E 10 b9 04 34
        E 58 b9 04 20
        E 74 89 26 40
        E 13 b9 04 0f
        E 16 89 33 40
        E 52 89 2c 40
        E 19 b9 04 20
        E 22 b9 04 30
        E 19 99 24 46
        E 17 b9 04 41
        E 29 99 33 50
        E 118 b9 04 30
        E 19 b9 04 20
        E 29 b9 04 0f
        E 28 b9 04 00
        E 1 89 24 40
        E 46 89 33 40
        E 124 99 24 47
        E 51 99 33 7f
        E 4 b9 04 12
        E 10 b9 04 22
        E 7 b9 04 32
        E 8 b9 04 43
        E 7 b9 04 4c
        E 2 99 2c 1a
        E 5 b9 04 53
        E 67 b9 04 43
        E 29 b9 04 32
        E 39 b9 04 22
        E 14 89 24 40
        E 51 89 33 40
        E 36 89 2c 40
        E 49 b9 04 32
        E 29 b9 04 43
        E 29 99 24 48
        E 5 b9 04 4f
        E 2 99 2c 08
        E 3 99 33 5a
        E 140 b9 04 32
        E 19 b9 04 22
        E 29 b9 04 12
        E 36 b9 04 00
        E 7 89 24 40
        E 8 89 2c 40
        E 2 89 33 40
        E 179 99 26 76
        E 12 b9 04 12
        E 13 99 33 7f
        E 2 b9 04 22
        E 11 b9 04 32
        E 8 b9 04 43
        E 4 b9 04 4c
        E 3 99 2c 22
        E 2 b9 04 53
        E 10 b9 04 63
        E 18 b9 04 53
        E 35 b9 04 43
        E 20 b9 04 32
        E 34 b9 04 22
        E 62 b9 04 12
        E 8 89 26 40
        E 24 89 33 40
        E 28 89 2c 40
        E 44 b9 04 22
        E 17 b9 04 32
        E 12 99 24 43
        E 15 b9 04 43
        E 22 b9 04 4f
        E 4 99 2c 08
        E 10 b9 04 53
        E 7 99 33 54
        E 99 b9 04 43
        E 32 b9 04 32
        E 16 b9 04 22
        E 27 b9 04 12
        E 10 89 24 40
        E 24 b9 04 00
        E 17 89 2c 40
        E 16 89 33 40
        E 131 99 24 4e
        E 43 99 33 7f
        E 23 b9 04 12
        E 7 b9 04 25
        E 7 b9 04 36
        E 7 b9 04 46
        E 5 b9 04 4c
        E 5 99 2c 20
        E 12 b9 04 56
        E 41 b9 04 46
        E 36 b9 04 36
        E 36 b9 04 25
        E 20 89 24 40
        E 22 b9 04 15
        E 21 89 33 40
        E 56 89 2c 40
        E 33 b9 04 25
        E 24 b9 04 36
        E 32 b9 04 46
        E 8 99 33 52
        E 4 99 24 46
        E 22 b9 04 4f
        E 3 99 2c 08
        E 106 b9 04 36
        E 29 b9 04 22
        E 29 b9 04 12
        E 36 b9 04 00
        E 12 89 33 40
        E 7 89 24 40
        E 22 89 2c 40
        E 169 99 26 59
        E 25 99 33 7f
        E 2 b9 04 12
        E 7 b9 04 25
        E 9 b9 04 36
        E 12 b9 04 46
        E 5 b9 04 4c
        E 3 99 2c 18
        E 2 b9 04 56
        E 34 b9 04 46
        E 42 b9 04 36
        E 31 b9 04 25
        E 43 b9 04 15
        E 27 89 26 40
        E 24 89 33 40
        E 38 89 2c 40
        E 61 b9 04 25
        E 17 99 24 45
        E 5 b9 04 36
        E 26 b9 04 46
        E 17 b9 04 4d
        E 3 99 2c 0a
        E 16 99 33 53
        E 134 b9 04 36
        E 26 b9 04 22
        E 17 89 24 40
        E 10 b9 04 12
        E 34 b9 04 00
        E 4 89 2c 40
        E 17 89 33 40
        E 124 99 24 45
        E 74 99 33 63
        E 5 b9 04 12
        E 8 b9 04 25
        E 7 b9 04 36
        E 16 b9 04 46
        E 8 b9 04 4c
        E 2 99 2c 10
        E 5 b9 04 56
        E 65 b9 04 46
        E 20 b9 04 36
        E 34 89 24 40
        E 4 b9 04 25
        E 34 b9 04 15
        E 34 89 33 40
        E 48 89 2c 40
        E 53 b9 04 25
        E 17 b9 04 36
        E 10 99 24 3f
        E 12 b9 04 46
        E 14 b9 04 4d
        E 3 99 2c 0c
        E 22 99 33 55
        E 2 b9 04 56
        E 104 b9 04 46
        E 26 b9 04 36
        E 27 b9 04 22
        E 29 b9 04 12
        E 3 89 24 40
        E 29 89 2c 40
        E 4 b9 04 00
        E 17 89 33 40
        E 167 99 26 65
        E 29 b9 04 12
        E 2 99 33 63
        E 15 b9 04 22
        E 10 b9 04 32
        E 7 b9 04 43
        E 2 b9 04 4c
        E 2 99 2c 26
        E 3 b9 04 53
        E 27 b9 04 43
        E 51 b9 04 32
        E 33 b9 04 22
        E 61 89 26 40
        E 12 b9 04 12
        E 21 89 33 40
        E 34 89 2c 40
        E 61 b9 04 25
        E 12 99 24 48
        E 9 b9 04 36
        E 34 b9 04 46
        E 15 99 33 4d
        E 12 b9 04 4f
        E 2 99 2c 08
        E 121 b9 04 36
        E 22 b9 04 22
        E 26 b9 04 12
        E 3 89 24 40
        E 23 b9 04 00
        E 32 89 33 40
        E 15 89 2c 40
        E 84 99 24 40
        E 73 99 33 6d
        E 26 b9 04 12
        E 10 b9 04 25
        E 9 b9 04 36
        E 11 b9 04 46
        E 4 b9 04 4c
        E 3 99 2c 14
        E 9 b9 04 56
        E 17 b9 04 46
        E 15 b9 04 36
        E 53 b9 04 25
        E 15 89 24 40
        E 43 b9 04 15
        E 29 89 33 40
        E 63 89 2c 40
        E 34 b9 04 25
        E 26 99 24 44
        E 7 b9 04 36
        E 26 99 33 5b
        E 18 b9 04 46
        E 106 b9 04 36
        E 31 b9 04 22
        E 31 b9 04 12
        E 25 89 24 40
        E 15 b9 04 00
        E 16 89 33 40
        E 179 99 26 5d
        E 17 b9 04 12
        E 8 99 33 65
        E 7 b9 04 22
        E 12 b9 04 32
        E 9 b9 04 43
        E 3 b9 04 4c
        E 2 99 2c 22
        E 2 b9 04 53
        E 25 b9 04 43
        E 51 b9 04 32
        E 50 b9 04 22
        E 56 89 26 40
        E 24 89 33 40
        E 36 89 2c 40
        E 17 b9 04 1a
        E 34 b9 04 2c
        E 7 99 24 43
        E 19 b9 04 3c
        E 39 99 33 4b
        E 2 b9 04 4c
        E 13 b9 04 4f
        E 2 99 2c 08
        E 97 b9 04 3c
        E 28 b9 04 2c
        E 25 b9 04 1a
        E 17 89 24 40
        E 7 b9 04 09
        E 14 b9 04 00
        E 40 89 33 40
        E 13 89 2c 40
        E 100 99 24 4a
        E 68 99 33 63
        E 4 b9 04 12
        E 10 b9 04 25
        E 10 b9 04 36
        E 14 b9 04 46
        E 8 b9 04 4c
        E 0 99 2c 14
        E 9 b9 04 56
        E 15 b9 04 46
        E 45 b9 04 36
        E 39 b9 04 25
        E 19 89 24 40
        E 34 b9 04 15
        E 37 89 33 40
        E 46 89 2c 40
        E 36 b9 04 25
        E 24 b9 04 36
        E 19 99 24 42
        E 10 b9 04 46
        E 17 b9 04 4f
        E 2 99 2c 0a
        E 5 99 33 55
        E 140 b9 04 36
        E 27 b9 04 25
        E 26 b9 04 15
        E 17 89 24 40
        E 15 b9 04 03
        E 10 b9 04 00
        E 1 89 2c 40
        E 11 89 33 40
        E 166 99 26 70
        E 29 99 33 5f
        E 1 b9 04 12
        E 16 b9 04 22
        E 8 b9 04 32
        E 7 b9 04 43
        E 4 b9 04 4d
        E 2 99 2c 2c
        E 3 b9 04 53
        E 22 b9 04 43
        E 10 b9 04 32
        E 58 b9 04 22
        E 82 b9 04 12
        E 2 89 26 40
        E 27 89 33 40
        E 38 89 2c 40
        E 39 b9 04 22
        E 17 99 24 47
        E 7 b9 04 32
        E 29 b9 04 43
        E 34 99 33 51
        E 116 b9 04 32
        E 19 b9 04 22
        E 27 b9 04 12
        E 13 89 24 40
        E 19 b9 04 00
        E 50 89 33 40
        E 99 99 24 46
        E 73 99 33 67
        E 4 b9 04 12
        E 9 b9 04 22
        E 5 b9 04 32
        E 11 b9 04 43
        E 7 b9 04 4c
        E 0 99 2c 1a
        E 8 b9 04 53
        E 38 b9 04 43
        E 48 b9 04 32
        E 39 89 24 40
        E 2 b9 04 22
        E 66 b9 04 12
        E 4 89 33 40
        E 39 89 2c 40
        E 24 b9 04 22
        E 22 b9 04 32
        E 21 b9 04 43
        E 15 99 24 41
        E 5 b9 04 4f
        E 2 99 2c 0a
        E 7 b9 04 53
        E 3 99 33 4f
        E 142 b9 04 43
        E 25 b9 04 32
        E 16 b9 04 22
        E 30 b9 04 12
        E 14 89 24 40
        E 9 89 2c 40
        E 10 b9 04 00
        E 0 89 33 40
        E 196 99 26 63
        E 7 b9 04 12
        E 2 99 33 5e
        E 11 b9 04 22
        E 7 b9 04 32
        E 5 b9 04 44
        E 4 b9 04 4c
        E 3 99 2c 2a
        E 2 b9 04 55
        E 10 b9 04 65
        E 21 b9 04 55
        E 42 b9 04 44
        E 24 b9 04 34
        E 41 b9 04 22
        E 62 89 26 40
        E 10 89 33 40
        E 29 89 2c 40
        E 28 b9 04 18
        E 35 b9 04 29
        E 17 99 24 49
        E 5 b9 04 3a
        E 26 b9 04 4a
        E 10 b9 04 4f
        E 3 99 2c 0a
        E 21 99 33 48
        E 116 b9 04 3a
        E 24 b9 04 29
        E 20 b9 04 18
        E 16 89 24 40
        E 11 b9 04 06
        E 14 b9 04 00
        E 19 89 2c 40
        E 22 89 33 40
        E 116 99 24 4a
        E 46 99 33 6d
        E 14 b9 04 12
        E 12 b9 04 25
        E 10 b9 04 36
        E 10 b9 04 46
        E 4 b9 04 4c
        E 3 99 2c 1a
        E 4 b9 04 56
        E 34 b9 04 46
        E 49 b9 04 36
        E 51 b9 04 25
        E 4 89 24 40
        E 46 b9 04 15
        E 2 89 33 40
        E 51 89 2c 40
        E 25 b9 04 25
        E 26 b9 04 36
        E 29 b9 04 46
        E 17 99 24 48
        E 5 b9 04 4f
        E 2 99 2c 0a
        E 12 99 33 53
        E 116 b9 04 36
        E 24 b9 04 25
        E 25 b9 04 15
        E 31 b9 04 03
        E 7 b9 04 00
        E 19 89 24 40
        E 8 89 2c 40
        E 15 89 33 40
        E 188 99 26 50
        E 10 b9 04 12
        E 7 b9 04 22
        E 5 99 33 6a
        E 2 b9 04 32
        E 7 b9 04 43
        E 10 b9 04 4c
        E 2 99 2c 1a
        E 7 b9 04 53
        E 13 b9 04 63
        E 29 b9 04 53
        E 36 b9 04 43
        E 29 b9 04 32
        E 29 b9 04 22
        E 46 b9 04 12
        E 12 89 26 40
        E 21 89 33 40
        E 20 89 2c 40
        E 63 b9 04 22
        E 19 99 24 48
        E 3 b9 04 32
        E 22 b9 04 43
        E 26 99 33 48
        E 5 b9 04 4d
        E 2 99 2c 08
        E 118 b9 04 32
        E 17 b9 04 22
        E 25 b9 04 12
        E 24 89 24 40
        E 5 b9 04 00
        E 45 89 33 40
        E 8 89 2c 40
        E 128 99 24 49
        E 21 99 33 65
        E 25 b9 04 12
        E 7 b9 04 25
        E 7 b9 04 36
        E 10 b9 04 46
        E 5 b9 04 4c
        E 2 99 2c 1c
        E 10 b9 04 56
        E 34 b9 04 46
        E 46 b9 04 36
        E 47 b9 04 25
        E 27 89 24 40
        E 22 89 33 40
        E 5 b9 04 15
        E 51 89 2c 40
        E 33 b9 04 25
        E 27 b9 04 36
        E 27 b9 04 46
        E 18 99 33 4f
        E 4 b9 04 4f
        E 2 99 2c 08
        E 9 99 24 43
        E 22 b9 04 56
        E 83 b9 04 46
        E 33 b9 04 36
        E 26 b9 04 22
        E 30 b9 04 12
        E 31 b9 04 00
        E 5 89 33 40
        E 3 89 2c 40
        E 8 89 24 40
        E 136 99 26 62
        E 32 99 33 77
        E 26 b9 04 12
        E 13 b9 04 25
        E 9 b9 04 36
        E 9 b9 04 46
        E 3 b9 04 4c
        E 3 99 2c 1e
        E 2 b9 04 56
        E 34 b9 04 46
        E 43 b9 04 36
        E 35 b9 04 25
        E 36 89 26 40
        E 13 b9 04 15
        E 18 89 33 40
        E 60 89 2c 40
        E 39 b9 04 25
        E 29 99 24 45
        E 2 b9 04 36
        E 12 99 33 4c
        E 19 b9 04 46
        E 124 b9 04 36
        E 24 b9 04 25
        E 20 b9 04 15
        E 31 b9 04 03
        E 4 b9 04 00
        E 6 89 24 40
        E 14 89 33 40
        E 147 99 24 43
        E 32 99 33 5c
        E 24 b9 04 12
        E 10 b9 04 22
        E 5 b9 04 32
        E 7 b9 04 43
        E 11 b9 04 4c
        E 3 99 2c 1c
        E 7 b9 04 53
        E 63 b9 04 43
        E 36 b9 04 32
        E 39 b9 04 22
        E 5 89 24 40
        E 34 89 33 40
        E 58 89 2c 40
        E 41 b9 04 32
        E 32 b9 04 43
        E 18 99 33 4d
        E 27 99 24 47
        E 5 b9 04 4f
        E 3 99 2c 06
        E 104 b9 04 32
        E 19 b9 04 22
        E 24 b9 04 12
        E 31 b9 04 00
        E 29 89 33 40
        E 26 89 24 40
        E 10 89 2c 40
        E 162 b9 04 12
        E 3 99 26 76
        E 7 b9 04 25
        E 9 99 33 67
        E 3 b9 04 36
        E 7 b9 04 46
        E 5 b9 04 4c
        E 3 99 2c 1a
        E 4 b9 04 56
        E 12 b9 04 66
        E 22 b9 04 56
        E 49 b9 04 46
        E 40 b9 04 36
        E 42 b9 04 25
        E 41 89 26 40
        E 17 89 33 40
        E 14 89 2c 40
        E 51 b9 04 1a
        E 34 99 24 40
        E 2 b9 04 2c
        E 22 b9 04 3c
        E 24 b9 04 4c
        E 5 b9 04 4f
        E 2 99 2c 0c
        E 22 99 33 37
        E 123 b9 04 3c
        E 27 b9 04 2c
        E 14 89 24 40
        E 10 b9 04 1a
        E 29 b9 04 09
        E 17 b9 04 00
        E 2 89 2c 40
        E 19 89 33 40
        E 73 99 24 32
        E 102 b9 04 12
        E 14 b9 04 22
        E 0 99 33 45
        E 9 b9 04 32
        E 8 b9 04 43
        E 5 b9 04 4d
        E 2 99 2c 1c
        E 3 b9 04 53
        E 26 b9 04 63
        E 72 b9 04 53
        E 3 89 24 40
        E 29 b9 04 43
        E 39 b9 04 32
        E 46 b9 04 22
        E 2 89 33 40
        E 27 89 2c 40
        E 67 99 33 45
        E 8 b9 04 32
        E 31 b9 04 43
        E 26 b9 04 4f
        E 3 99 2c 0a
        E 9 b9 04 53
        E 165 89 33 40
        E 31 b9 04 43
        E 36 89 2c 40
        E 12 b9 04 32
        E 42 b9 04 22
        E 17 99 26 7a
        E 29 99 33 58
        E 97 b9 04 18
        E 67 b9 04 29
        E 21 b9 04 3a
        E 27 89 26 40
        E 29 89 33 40
        E 135 99 33 40
        E 58 b9 04 43
        E 61 b9 04 32
        E 36 b9 04 22
        E 41 b9 04 12
        E 46 89 33 40
        E 5 b9 04 00
        E 118 99 24 2f
        E 43 b9 04 12
        E 15 99 33 59
        E 4 b9 04 22
        E 8 b9 04 32
        E 13 b9 04 43
        E 31 b9 04 32
        E 126 b9 04 25
        E 1 89 24 40
        E 63 89 33 40
        E 37 b9 04 36
        E 36 b9 04 46
        E 17 b9 04 4c
        E 2 99 2c 08
        E 56 99 33 43
        E 7 99 24 3c
        E 107 b9 04 36
        E 40 b9 04 25
        E 32 b9 04 15
        E 3 89 2c 40
        E 40 b9 04 03
        E 8 b9 04 00
        E 7 89 33 40
        E 7 89 24 40
        E 157 99 26 71
        E 33 99 33 5d
        E 3 b9 04 12
        E 12 b9 04 22
        E 8 b9 04 32
        E 9 b9 04 43
        E 3 b9 04 4c
        E 2 99 2c 1e
        E 8 b9 04 53
        E 12 b9 04 43
        E 11 b9 04 32
        E 52 b9 04 20
        E 89 89 26 40
        E 33 89 33 40
        E 20 b9 04 1a
        E 19 89 2c 40
        E 25 b9 04 2c
        E 57 99 33 3d
        E 78 b9 04 34
        E 48 b9 04 20
        E 43 b9 04 0f
        E 34 b9 04 00
        E 39 89 33 40
        E 118 99 24 35
        E 54 99 33 4f
        E 2 b9 04 12
        E 15 b9 04 25
        E 9 b9 04 36
        E 10 b9 04 47
        E 3 b9 04 4c
        E 2 99 2c 1e
        E 67 b9 04 36
        E 63 b9 04 25
        E 17 89 24 40
        E 59 89 33 40
        E 36 89 2c 40
        E 43 b9 04 36
        E 38 b9 04 46
        E 15 99 33 38
        E 4 99 24 3a
        E 13 b9 04 4f
        E 2 99 2c 06
        E 136 b9 04 36
        E 31 b9 04 22
        E 36 b9 04 12
        E 22 89 33 40
        E 4 89 24 40
        E 16 89 2c 40
        E 6 b9 04 00
        E 141 99 26 46
        E 11 99 33 56
        E 49 b9 04 12
        E 17 b9 04 22
        E 9 b9 04 32
        E 8 b9 04 44
        E 5 b9 04 4c
        E 0 99 2c 24
        E 24 b9 04 34
        E 12 b9 04 22
        E 57 b9 04 12
        E 51 89 26 40
        E 13 89 33 40
        E 85 b9 04 22
        E 2 89 2c 40
        E 46 99 33 3b
        E 79 b9 04 29
        E 37 b9 04 18
        E 33 b9 04 06
        E 15 b9 04 00
        E 79 89 33 40
        E 120 99 24 3f
        E 33 b9 04 12
        E 10 99 33 4e
        E 9 b9 04 22
        E 10 b9 04 32
        E 33 b9 04 20
        E 131 b9 04 12
        E 17 89 24 40
        E 43 89 33 40
        E 61 b9 04 22
        E 26 b9 04 32
        E 32 b9 04 43
        E 16 99 33 39
        E 13 b9 04 4c
        E 2 99 2c 08
        E 119 b9 04 32
        E 22 b9 04 22
        E 28 b9 04 12
        E 39 b9 04 00
        E 19 89 33 40
        E 15 89 2c 40
        E 186 99 26 52
        E 9 99 33 5d
        E 12 b9 04 12
        E 17 b9 04 22
        E 8 b9 04 32
        E 10 b9 04 43
        E 2 b9 04 4c
        E 2 99 2c 24
        E 3 b9 04 53
        E 19 b9 04 43
        E 10 b9 04 32
        E 53 b9 04 22
        E 83 b9 04 12
        E 13 89 26 40
        E 10 89 33 40
        E 51 89 2c 40
        E 31 b9 04 22
        E 27 b9 04 32
        E 35 b9 04 43
        E 18 99 33 3b
        E 167 b9 04 32
        E 41 b9 04 22
        E 34 89 33 40
        E 38 b9 04 12
        E 168 99 33 41
        E 28 b9 04 25
        E 22 b9 04 36
        E 24 b9 04 46
        E 15 b9 04 4d
        E 2 99 2c 0a
        E 77 b9 04 36
        E 55 b9 04 25
        E 18 89 33 40
        E 91 99 33 35
        E 3 89 2c 40
        E 19 b9 04 1d
        E 133 b9 04 2e
        E 89 89 33 40
        E 126 99 26 3e
        E 24 b9 04 20
        E 15 99 33 4f
        E 202 89 26 40
        E 42 89 33 40
        E 2 b9 04 25
        E 128 99 33 2c
        E 187 b9 04 30
        E 55 89 33 40
        E 217 99 33 3f
        E 244 89 33 40
        E 19 b9 04 36
        E 104 99 33 29
        E 244 89 33 40
        E 228 99 33 3b
        E 241 89 33 40
        E 165 99 33 30
        E 241 89 33 40
        E 189 99 33 2b
        E 241 89 33 40
        E 169 99 33 32
        E 242 89 33 40
        E 130 99 33 28
        E 158 b9 04 2c
        E 84 89 33 40
        E 152 b9 04 20
        E 63 99 33 3d
        E 128 b9 04 18
        E 116 89 33 40
        E 152 99 33 21
        E 227 b9 04 12
        E 17 89 33 40
        E 225 99 33 40
        E 87 b9 04 09
        E 154 89 33 40
        E 191 99 33 1a
        E 241 89 33 40
        E 201 99 33 38
        E 241 89 33 40
        E 175 99 33 17
        E 241 89 33 40
        E 254 99 33 17
        E 242 89 33 40
        E 176 99 33 15
        E 242 89 33 40
        E 241 99 33 1e
        E 242 89 33 40
        E 198 99 33 14
        E 242 89 33 40
        E 183 99 33 2c
        E 242 89 33 40
        E 193 99 33 0f
        E 242 89 33 40
        E 203 99 33 34
        E 241 89 33 40
        E 184 99 33 15
        E 241 89 33 40
        E 220 99 33 3d
        E 242 89 33 40
        E 179 99 33 12
        E 241 89 33 40
        E 193 99 33 34
        E 242 89 33 40
        E 162 99 33 0d
        E 242 89 33 40
        E 244 99 33 34
        E 241 89 33 40
        E 177 99 33 17
        E 241 89 33 40
        E 232 99 33 38
        E 241 89 33 40
        E 204 99 33 07
        E 241 89 33 40
        E 225 99 33 38
        E 242 89 33 40
        E 691 99 33 41
        E 241 89 33 40
        E 169 99 33 19
        E 160 b9 04 0f
        E 82 89 33 40
        E 222 99 33 40
        E 242 89 33 40
        E 195 99 33 16
        E 242 89 33 40
        E 213 99 33 42
        E 241 89 33 40
        E 189 99 33 19
        E 244 89 33 40
        E 210 99 33 46
        E 242 89 33 40
        E 177 99 33 21
        E 243 89 33 40
        E 249 99 33 42
        E 241 89 33 40
        E 167 99 33 21
        E 34 b9 04 18
        E 210 89 33 40
        E 232 99 33 42
        E 186 b9 04 25
        E 56 89 33 40
        E 149 b9 04 2e
        E 39 99 33 1c
        E 242 89 33 40
        E 282 99 33 49
        E 242 89 33 40
        E 188 b9 04 32
        E 15 99 33 1f
        E 222 b9 04 27
        E 19 89 33 40
        E 133 b9 04 20
        E 95 99 33 47
        E 241 89 33 40
        E 184 99 33 23
        E 242 89 33 40
        E 258 99 24 66
        E 53 99 33 60
        E 191 89 24 40
        E 51 89 33 40
        E 570 99 33 6d
        E 242 89 33 40
        E 51 b9 04 1a
        E 204 99 26 5b
        E 32 b9 04 12
        E 212 89 26 40
        E 47 b9 04 09
        E 362 b9 04 00
        E 16480 99 26 22
        E 127 89 26 40
        E 3 99 26 4d
        E 239 89 26 40
        E 510 99 24 7b
        E 19 99 33 54
        E 223 89 24 40
        E 21 89 33 40
        E 497 99 24 46
        E 42 99 33 56
        E 202 89 24 40
        E 42 89 33 40
        E 212 99 26 72
        E 244 89 26 40
        E 205 99 33 38
        E 244 89 33 40
        E 564 99 24 7f
        E 29 99 33 43
        E 215 89 24 40
        E 26 89 33 40
        E 534 99 33 39
        E 244 89 33 40
        E 211 99 26 65
        E 244 89 26 40
        E 195 99 33 32
        E 242 89 33 40
        E 548 99 24 79
        E 22 99 33 38
        E 220 89 24 40
        E 22 89 33 40
        E 485 99 26 79
        E 32 99 33 4c
        E 210 89 26 40
        E 33 89 33 40
        E 581 99 24 7b
        E 33 99 33 3f
        E 208 89 24 40
        E 34 89 33 40
        E 434 99 24 54
        E 73 99 33 38
        E 172 89 24 40
        E 69 89 33 40
        E 198 99 28 63
        E 242 89 28 40
        E 160 99 33 35
        E 242 89 33 40
        E 533 99 24 7f
        E 37 99 33 3e
        E 205 89 24 40
        E 36 89 33 40
        E 560 99 33 26
        E 242 89 33 40
        E 213 99 26 76
        E 242 89 26 40
        E 193 99 33 32
        E 244 89 33 40
        E 519 99 24 7b
        E 53 99 33 41
        E 189 89 24 40
        E 56 89 33 40
        E 493 99 28 53
        E 45 99 33 48
        E 196 89 28 40
        E 48 89 33 40
        E 549 99 24 66
        E 19 99 33 39
        E 222 89 24 40
        E 19 89 33 40
        E 501 99 24 57
        E 43 99 33 3f
        E 198 89 24 40
        E 44 89 33 40
        E 210 99 26 78
        E 242 89 26 40
        E 168 99 33 32
        E 242 89 33 40
        E 614 99 24 7d
        E 41 99 33 4c
        E 201 89 24 40
        E 40 89 33 40
        E 547 99 33 3f
        E 241 89 33 40
        E 203 99 26 68
        E 244 89 26 40
        E 179 99 33 31
        E 242 89 33 40
        E 548 99 24 7f
        E 36 99 33 41
        E 206 89 24 40
        E 38 89 33 40
        E 522 99 28 7e
        E 65 99 33 7f
        E 177 89 28 40
        E 65 89 33 40
        E 505 99 24 74
        E 72 99 33 42
        E 170 89 24 40
        E 74 89 33 40
        E 517 99 24 5d
        E 41 99 33 47
        E 201 89 24 40
        E 43 89 33 40
        E 198 99 28 39
        E 8 99 26 7c
        E 237 89 28 40
        E 7 89 26 40
        E 137 99 33 41
        E 245 89 33 40
        E 698 99 24 7f
        E 36 99 33 7f
        E 206 89 24 40
        E 36 89 33 40
        E 613 99 33 44
        E 241 89 33 40
        E 221 99 26 7f
        E 242 89 26 40
        E 193 99 33 51
        E 241 89 33 40
        E 555 99 24 7f
        E 71 99 33 7f
        E 173 89 24 40
        E 71 89 33 40
        E 498 99 28 62
        E 53 99 33 7f
        E 188 89 28 40
        E 53 89 33 40
        E 554 99 24 7a
        E 53 99 33 7f
        E 188 89 24 40
        E 54 89 33 40
        E 519 99 24 64
        E 57 99 33 57
        E 184 89 24 40
        E 58 89 33 40
        E 186 99 28 56
        E 242 89 28 40
        E 128 99 33 65
        E 244 89 33 40
        E 638 99 24 7f
        E 36 99 33 7f
        E 206 89 24 40
        E 36 89 33 40
        E 596 99 33 7f
        E 242 89 33 40
        E 191 99 28 68
        E 242 89 28 40
        E 203 99 33 5d
        E 241 89 33 40
        E 476 99 24 7f
        E 70 99 33 7f
        E 174 89 24 40
        E 70 89 33 40
        E 508 99 28 5d
        E 45 99 3b 7f
        E 196 89 28 40
        E 49 89 3b 40
        E 534 99 24 7a
        E 43 99 33 6d
        E 197 89 24 40
        E 44 89 33 40
        E 534 99 24 5c
        E 32 99 33 7f
        E 210 89 24 40
        E 32 89 33 40
        E 166 99 30 1e
        E 41 99 28 45
        E 203 89 30 40
        E 39 89 28 40
        E 146 99 33 3f
        E 243 89 33 40
        E 495 99 24 7f
        E 48 99 33 7f
        E 194 89 24 40
        E 48 89 33 40
        E 580 99 33 7f
        E 242 89 33 40
        E 206 99 28 63
        E 243 89 28 40
        E 172 99 33 3c
        E 241 89 33 40
        E 500 99 24 7e
        E 48 99 33 7f
        E 196 89 24 40
        E 46 89 33 40
        E 586 99 28 51
        E 15 99 33 7f
        E 230 89 28 40
        E 12 89 33 40
        E 575 99 24 7f
        E 34 99 33 7f
        E 210 89 24 40
        E 34 89 33 40
        E 507 99 24 5c
        E 78 99 33 7f
        E 164 89 24 40
        E 79 89 33 40
        E 174 99 26 7f
        E 242 89 26 40
        E 189 99 33 35
        E 241 89 33 40
        E 499 99 24 7f
        E 59 99 33 48
        E 184 89 24 40
        E 58 89 33 40
        E 508 99 33 46
        E 243 89 33 40
        E 193 99 28 60
        E 242 89 28 40
        E 140 99 33 4c
        E 242 89 33 40
        E 152 99 24 30
        E 242 89 24 40
        E 191 99 26 6f
        E 104 99 28 6f
        E 140 89 26 40
        E 101 89 28 40
        E 58 99 24 46
        E 242 89 24 40
        E 169 99 26 61
        E 104 89 26 40
        E 2 99 26 7d
        E 242 89 26 40
        E 490 99 24 6f
        E 19 b9 04 12
        E 10 b9 04 22
        E 7 b9 04 32
        E 14 b9 04 43
        E 47 99 33 7f
        E 140 b9 04 32
        E 10 89 24 40
        E 91 89 33 40
        E 82 b9 04 38
        E 29 99 24 48
        E 24 99 33 3b
        E 13 b9 04 27
        E 43 b9 04 15
        E 41 b9 04 03
        E 8 b9 04 00
        E 113 89 24 40
        E 24 89 33 40
        E 143 b9 04 12
        E 17 b9 04 22
        E 6 99 26 7f
        E 6 b9 04 32
        E 9 b9 04 43
        E 5 b9 04 4d
        E 3 99 2c 1a
        E 2 b9 04 54
        E 15 b9 04 64
        E 17 99 33 75
        E 23 b9 04 54
        E 28 b9 04 44
        E 18 b9 04 34
        E 25 b9 04 22
        E 36 b9 04 12
        E 56 89 26 40
        E 24 89 2c 40
        E 31 89 33 40
        E 34 b9 04 22
        E 22 b9 04 32
        E 65 99 24 58
        E 12 99 33 26
        E 77 b9 04 22
        E 29 b9 04 12
        E 37 b9 04 00
        E 86 89 24 40
        E 13 89 33 40
        E 116 99 24 36
        E 48 b9 04 12
        E 12 b9 04 22
        E 9 99 33 5f
        E 5 b9 04 32
        E 13 b9 04 44
        E 4 b9 04 4c
        E 3 99 2c 24
        E 2 b9 04 55
        E 19 b9 04 44
        E 8 b9 04 34
        E 33 b9 04 22
        E 46 b9 04 12
        E 39 89 24 40
        E 73 89 33 40
        E 16 b9 04 25
        E 8 89 2c 40
        E 14 b9 04 36
        E 27 b9 04 46
        E 82 99 24 4a
        E 7 99 33 26
        E 34 b9 04 36
        E 39 b9 04 25
        E 29 b9 04 15
        E 38 b9 04 03
        E 13 b9 04 00
        E 81 89 24 40
        E 8 89 33 40
        E 178 b9 04 12
        E 3 99 26 7f
        E 7 b9 04 25
        E 9 b9 04 36
        E 23 b9 04 46
        E 4 b9 04 4c
        E 3 99 2c 14
        E 2 99 33 7f
        E 3 b9 04 56
        E 7 b9 04 66
        E 17 b9 04 56
        E 10 b9 04 46
        E 39 b9 04 36
        E 21 b9 04 25
        E 43 b9 04 15
        E 56 89 26 40
        E 44 89 2c 40
        E 4 89 33 40
        E 46 b9 04 25
        E 22 b9 04 36
        E 31 b9 04 46
        E 8 99 24 4b
        E 58 99 33 23
        E 58 b9 04 36
        E 33 b9 04 25
        E 29 b9 04 15
        E 34 b9 04 03
        E 12 b9 04 00
        E 17 89 24 40
        E 61 89 33 40
        E 108 99 24 3d
        E 51 b9 04 12
        E 15 b9 04 25
        E 24 b9 04 36
        E 9 99 33 56
        E 3 b9 04 46
        E 2 b9 04 4c
        E 3 99 2c 20
        E 2 b9 04 56
        E 26 b9 04 46
        E 42 b9 04 36
        E 24 b9 04 25
        E 39 b9 04 15
        E 1 89 24 40
        E 102 89 33 40
        E 8 89 2c 40
        E 19 b9 04 25
        E 24 b9 04 36
        E 24 b9 04 46
        E 32 b9 04 4f
        E 2 99 2c 0a
        E 7 99 24 45
        E 54 99 33 2d
        E 34 b9 04 36
        E 28 b9 04 25
        E 27 b9 04 15
        E 31 b9 04 03
        E 10 b9 04 00
        E 51 89 2c 40
        E 7 89 24 40
        E 53 89 33 40
        E 162 b9 04 12
        E 7 99 26 7f
        E 5 b9 04 25
        E 7 b9 04 36
        E 22 b9 04 46
        E 5 b9 04 4c
        E 2 99 2c 12
        E 5 b9 04 56
        E 9 b9 04 66
        E 13 99 33 7f
        E 5 b9 04 55
        E 9 b9 04 44
        E 39 b9 04 34
        E 26 b9 04 22
        E 44 b9 04 12
        E 53 89 26 40
        E 42 89 2c 40
        E 26 89 33 40
        E 36 b9 04 22
        E 15 b9 04 32
        E 12 99 24 4a
        E 14 b9 04 43
        E 37 b9 04 4d
        E 2 99 2c 06
        E 41 99 33 2f
        E 63 b9 04 32
        E 24 b9 04 22
        E 31 b9 04 12
        E 29 89 24 40
        E 10 b9 04 00
        E 43 89 2c 40
        E 41 89 33 40
        E 104 99 24 41
        E 57 b9 04 12
        E 10 b9 04 25
        E 20 b9 04 36
        E 5 99 33 72
        E 7 b9 04 46
        E 3 b9 04 4c
        E 2 99 2c 1e
        E 3 b9 04 56
        E 31 b9 04 46
        E 36 b9 04 36
        E 22 b9 04 25
        E 27 b9 04 15
        E 19 89 24 40
        E 92 89 33 40
        E 14 89 2c 40
        E 12 b9 04 25
        E 20 b9 04 36
        E 26 b9 04 46
        E 22 b9 04 4f
        E 3 99 2c 0c
        E 9 99 24 43
        E 37 99 33 2d
        E 69 b9 04 36
        E 27 b9 04 25
        E 24 b9 04 15
        E 29 b9 04 03
        E 10 b9 04 00
        E 39 89 2c 40
        E 7 89 24 40
        E 36 89 33 40
        E 157 99 26 7f
        E 5 b9 04 12
        E 10 b9 04 22
        E 9 b9 04 32
        E 17 b9 04 43
        E 5 b9 04 4c
        E 2 99 2c 16
        E 5 b9 04 53
        E 2 99 33 7f
        E 8 b9 04 64
        E 27 b9 04 54
        E 33 b9 04 44
        E 20 b9 04 34
        E 24 b9 04 20
        E 46 b9 04 0f
        E 29 89 26 40
        E 50 89 2c 40
        E 5 89 33 40
        E 58 b9 04 20
        E 12 b9 04 30
        E 8 99 24 46
        E 19 b9 04 41
        E 36 b9 04 4d
        E 3 99 2c 08
        E 4 99 33 39
        E 87 b9 04 30
        E 20 b9 04 20
        E 26 b9 04 0f
        E 24 b9 04 00
        E 22 89 24 40
        E 60 89 2c 40
        E 3 89 33 40
        E 130 99 24 4a
        E 37 b9 04 12
        E 9 b9 04 25
        E 10 b9 04 36
        E 17 b9 04 46
        E 7 99 33 73
        E 3 b9 04 4c
        E 2 99 2c 12
        E 5 b9 04 56
        E 18 b9 04 46
        E 32 b9 04 36
        E 30 b9 04 25
        E 31 b9 04 15
        E 41 89 24 40
        E 82 89 33 40
        E 3 89 2c 40
        E 5 b9 04 25
        E 19 b9 04 36
        E 24 b9 04 46
        E 24 b9 04 4f
        E 2 99 2c 0a
        E 29 99 24 42
        E 41 99 33 44
        E 46 b9 04 36
        E 32 b9 04 25
        E 24 b9 04 15
        E 31 b9 04 03
        E 9 b9 04 00
        E 32 89 2c 40
        E 29 89 24 40
        E 44 89 33 40
        E 138 b9 04 12
        E 9 b9 04 22
        E 5 b9 04 32
        E 7 b9 04 43
        E 13 99 26 7f
        E 2 b9 04 4c
        E 2 99 2c 1a
        E 8 b9 04 53
        E 12 b9 04 64
        E 19 99 33 7e
        E 10 b9 04 54
        E 36 b9 04 44
        E 19 b9 04 34
        E 29 b9 04 20
        E 44 b9 04 0f
        E 60 89 26 40
        E 4 89 2c 40
        E 40 89 33 40
        E 45 b9 04 20
        E 15 b9 04 30
        E 19 b9 04 41
        E 12 99 24 4a
        E 22 b9 04 4d
        E 2 99 2c 0c
        E 42 99 33 33
        E 72 b9 04 30
        E 22 b9 04 20
        E 26 b9 04 0f
        E 22 b9 04 00
        E 34 89 24 40
        E 26 89 2c 40
        E 39 89 33 40
        E 119 99 24 41
        E 36 b9 04 12
        E 7 b9 04 27
        E 7 b9 04 38
        E 15 b9 04 49
        E 7 b9 04 4c
        E 3 99 2c 1e
        E 4 99 33 64
        E 5 b9 04 5a
        E 56 b9 04 4a
        E 22 b9 04 3a
        E 26 b9 04 29
        E 29 b9 04 18
        E 24 89 24 40
        E 29 b9 04 06
        E 46 89 2c 40
        E 4 89 33 40
        E 40 b9 04 18
        E 16 b9 04 29
        E 22 b9 04 3a
        E 29 b9 04 4a
        E 8 b9 04 4d
        E 2 99 2c 0c
        E 19 99 24 45
        E 22 99 33 37
        E 65 b9 04 3a
        E 32 b9 04 29
        E 24 b9 04 18
        E 26 b9 04 06
        E 15 b9 04 00
        E 38 89 2c 40
        E 20 89 24 40
        E 22 89 33 40
        E 166 b9 04 12
        E 8 b9 04 22
        E 4 b9 04 34
        E 10 b9 04 44
        E 10 99 26 7f
        E 7 b9 04 4c
        E 2 99 2c 1c
        E 5 b9 04 54
        E 7 99 33 77
        E 3 b9 04 64
        E 26 b9 04 54
        E 37 b9 04 44
        E 19 b9 04 34
        E 29 b9 04 20
        E 41 b9 04 0f
        E 65 89 26 40
        E 10 89 2c 40
        E 11 89 33 40
        E 57 b9 04 20
        E 14 b9 04 30
        E 19 b9 04 41
        E 5 99 24 49
        E 25 b9 04 4d
        E 2 99 2c 0a
        E 53 99 33 3f
        E 65 b9 04 30
        E 17 b9 04 20
        E 29 b9 04 0f
        E 27 b9 04 00
        E 26 89 24 40
        E 25 89 2c 40
        E 52 89 33 40
        E 83 99 24 3e
        E 58 b9 04 12
        E 9 b9 04 25
        E 7 b9 04 36
        E 15 b9 04 46
        E 10 b9 04 4c
        E 2 99 2c 14
        E 2 99 33 78
        E 3 b9 04 56
        E 53 b9 04 46
        E 24 b9 04 36
        E 29 b9 04 25
        E 29 b9 04 15
        E 2 89 24 40
        E 102 89 2c 40
        E 5 89 33 40
        E 39 b9 04 25
        E 16 b9 04 36
        E 24 b9 04 46
        E 15 b9 04 4d
        E 3 99 2c 0a
        E 19 99 24 46
        E 48 99 33 41
        E 49 b9 04 36
        E 26 b9 04 22
        E 24 b9 04 12
        E 34 b9 04 00
        E 41 89 2c 40
        E 19 89 24 40
        E 49 89 33 40
        E 157 b9 04 12
        E 7 b9 04 22
        E 5 b9 04 32
        E 5 99 26 7f
        E 2 b9 04 43
        E 5 b9 04 4c
        E 2 99 2c 28
        E 20 b9 04 53
        E 11 b9 04 64
        E 11 99 33 7f
        E 26 b9 04 54
        E 37 b9 04 44
        E 24 b9 04 34
        E 23 b9 04 22
        E 37 b9 04 12
        E 46 89 26 40
        E 7 89 2c 40
        E 44 89 33 40
        E 55 b9 04 22
        E 12 b9 04 32
        E 7 99 24 47
        E 10 b9 04 43
        E 27 b9 04 4d
        E 2 99 2c 10
        E 11 b9 04 53
        E 27 99 33 3d
        E 59 b9 04 43
        E 26 b9 04 32
        E 20 b9 04 22
        E 23 b9 04 12
        E 27 b9 04 00
        E 10 89 24 40
        E 38 89 2c 40
        E 42 89 33 40
        E 140 99 24 45
        E 31 b9 04 12
        E 8 b9 04 25
        E 4 b9 04 36
        E 10 b9 04 46
        E 22 b9 04 4c
        E 3 99 2c 1e
        E 4 b9 04 57
        E 0 99 33 6a
        E 12 b9 04 67
        E 17 b9 04 57
        E 36 b9 04 47
        E 20 b9 04 36
        E 29 b9 04 25
        E 29 b9 04 15
        E 19 89 24 40
        E 75 89 2c 40
        E 5 89 33 40
        E 43 b9 04 25
        E 12 b9 04 36
        E 14 b9 04 46
        E 13 b9 04 4d
        E 2 99 2c 10
        E 17 b9 04 56
        E 50 99 24 47
        E 8 99 33 40
        E 55 b9 04 46
        E 29 b9 04 36
        E 25 b9 04 22
        E 27 b9 04 12
        E 28 b9 04 00
        E 5 89 2c 40
        E 65 89 24 40
        E 7 89 33 40
        E 189 b9 04 12
        E 8 b9 04 27
        E 4 b9 04 38
        E 5 99 26 69
        E 2 b9 04 4c
        E 3 99 2c 34
        E 2 b9 04 4c
        E 27 b9 04 5c
        E 7 99 33 76
        E 2 b9 04 6c
        E 44 b9 04 5c
        E 26 b9 04 4c
        E 22 b9 04 3c
        E 22 b9 04 2c
        E 20 b9 04 1a
        E 48 b9 04 09
        E 17 89 26 40
        E 5 89 2c 40
        E 38 89 33 40
        E 54 b9 04 1a
        E 16 b9 04 2c
        E 12 b9 04 3c
        E 18 b9 04 4c
        E 2 b9 04 4d
        E 2 99 2c 12
        E 7 99 24 4c
        E 56 99 33 38
        E 92 b9 04 3c
        E 21 b9 04 2c
        E 22 b9 04 1a
        E 24 b9 04 09
        E 17 b9 04 00
        E 2 89 2c 40
        E 8 89 24 40
        E 58 89 33 40
        E 147 99 24 47
        E 19 b9 04 12
        E 5 b9 04 25
        E 10 b9 04 36
        E 15 b9 04 46
        E 7 b9 04 4c
        E 2 99 2c 14
        E 8 b9 04 56
        E 2 99 33 6d
        E 7 b9 04 66
        E 27 b9 04 56
        E 38 b9 04 46
        E 22 b9 04 36
        E 27 b9 04 25
        E 24 b9 04 15
        E 29 89 24 40
        E 46 b9 04 03
        E 12 89 2c 40
        E 9 89 33 40
        E 42 b9 04 15
        E 19 b9 04 25
        E 14 b9 04 36
        E 20 b9 04 46
        E 12 b9 04 4d
        E 2 99 2c 0e
        E 19 b9 04 56
        E 22 99 24 45
        E 15 99 33 48
        E 65 b9 04 46
        E 32 b9 04 36
        E 21 b9 04 25
        E 22 b9 04 15
        E 31 b9 04 03
        E 10 b9 04 00
        E 5 89 2c 40
        E 43 89 24 40
        E 12 89 33 40
        E 162 b9 04 12
        E 12 b9 04 25
        E 10 99 26 66
        E 3 b9 04 36
        E 14 b9 04 46
        E 4 b9 04 4c
        E 2 99 2c 16
        E 6 b9 04 56
        E 10 b9 04 66
        E 4 99 33 6d
        E 18 b9 04 56
        E 43 b9 04 46
        E 24 b9 04 36
        E 34 b9 04 25
        E 31 b9 04 15
        E 50 89 26 40
        E 25 89 2c 40
        E 17 89 33 40
        E 62 b9 04 25
        E 15 b9 04 36
        E 15 99 24 49
        E 3 b9 04 46
        E 17 b9 04 4d
        E 2 99 2c 0e
        E 23 b9 04 56
        E 29 99 33 3a
        E 61 b9 04 46
        E 32 b9 04 36
        E 22 b9 04 25
        E 21 b9 04 15
        E 29 b9 04 03
        E 5 89 24 40
        E 5 b9 04 00
        E 19 89 2c 40
        E 48 89 33 40
        E 121 99 24 41
        E 34 b9 04 12
        E 9 b9 04 25
        E 13 b9 04 36
        E 17 b9 04 46
        E 2 b9 04 4c
        E 3 99 2c 16
        E 4 b9 04 56
        E 3 99 33 62
        E 12 b9 04 66
        E 16 b9 04 56
        E 39 b9 04 46
        E 24 b9 04 36
        E 35 b9 04 25
        E 31 b9 04 15
        E 2 89 24 40
        E 75 89 2c 40
        E 10 89 33 40
        E 50 b9 04 25
        E 17 b9 04 36
        E 19 b9 04 46
        E 13 b9 04 4d
        E 2 99 2c 0c
        E 22 b9 04 56
        E 21 99 24 44
        E 37 99 33 40
        E 38 b9 04 46
        E 32 b9 04 36
        E 26 b9 04 22
        E 30 b9 04 12
        E 31 b9 04 00
        E 5 89 2c 40
        E 43 89 24 40
        E 39 89 33 40
        E 152 b9 04 12
        E 10 b9 04 22
        E 7 b9 04 32
        E 12 b9 04 43
        E 12 b9 04 4c
        E 3 99 2c 10
        E 2 99 26 7c
        E 3 b9 04 53
        E 9 b9 04 64
        E 9 99 33 53
        E 21 b9 04 54
        E 35 b9 04 44
        E 22 b9 04 34
        E 29 b9 04 22
        E 36 b9 04 12
        E 76 89 2c 40
        E 2 89 26 40
        E 21 89 33 40
        E 55 b9 04 22
        E 13 b9 04 32
        E 10 99 24 44
        E 9 b9 04 43
        E 27 b9 04 4d
        E 3 99 2c 0a
        E 19 b9 04 53
        E 19 99 33 40
        E 56 b9 04 43
        E 31 b9 04 32
        E 20 b9 04 22
        E 24 b9 04 12
        E 31 b9 04 00
        E 2 89 24 40
        E 39 89 2c 40
        E 38 89 33 40
        E 129 99 24 43
        E 36 b9 04 12
        E 7 b9 04 25
        E 7 b9 04 38
        E 10 b9 04 49
        E 10 b9 04 4c
        E 2 99 2c 20
        E 10 99 33 5b
        E 2 b9 04 5a
        E 10 b9 04 6a
        E 29 b9 04 5a
        E 41 b9 04 4a
        E 19 b9 04 3a
        E 24 b9 04 29
        E 27 b9 04 18
        E 10 89 24 40
        E 33 b9 04 06
        E 39 89 2c 40
        E 7 89 33 40
        E 8 b9 04 00
        E 60 b9 04 12
        E 22 b9 04 25
        E 17 b9 04 36
        E 19 b9 04 46
        E 12 b9 04 4c
        E 2 99 2c 0c
        E 3 99 24 41
        E 12 99 33 40
        E 120 b9 04 36
        E 27 b9 04 22
        E 27 b9 04 12
        E 36 b9 04 00
        E 17 89 2c 40
        E 5 89 24 40
        E 10 89 33 40
        E 195 b9 04 12
        E 11 b9 04 22
        E 7 b9 04 32
        E 2 99 26 74
        E 14 b9 04 43
        E 5 99 33 54
        E 2 b9 04 4d
        E 2 99 2c 18
        E 3 b9 04 53
        E 9 b9 04 63
        E 20 b9 04 53
        E 39 b9 04 43
        E 22 b9 04 32
        E 24 b9 04 22
        E 39 b9 04 12
        E 67 89 26 40
        E 17 89 33 40
        E 2 89 2c 40
        E 71 b9 04 25
        E 9 99 24 46
        E 10 b9 04 36
        E 34 b9 04 46
        E 26 b9 04 4d
        E 3 99 2c 08
        E 7 99 33 39
        E 70 b9 04 36
        E 24 b9 04 22
        E 25 b9 04 12
        E 28 b9 04 00
        E 15 89 24 40
        E 72 89 2c 40
        E 8 89 33 40
        E 93 99 24 3c
        E 63 b9 04 12
        E 8 b9 04 25
        E 7 b9 04 36
        E 15 b9 04 46
        E 9 99 33 47
        E 3 b9 04 4c
        E 2 99 2c 18
        E 5 b9 04 57
        E 12 b9 04 67
        E 22 b9 04 57
        E 33 b9 04 47
        E 21 b9 04 36
        E 28 b9 04 25
        E 14 89 24 40
        E 15 b9 04 15
        E 67 b9 04 03
        E 22 89 33 40
        E 3 89 2c 40
        E 46 b9 04 15
        E 21 b9 04 25
        E 17 b9 04 36
        E 27 b9 04 46
        E 12 99 24 45
        E 3 b9 04 4d
        E 2 99 2c 0a
        E 40 99 33 34
        E 76 b9 04 36
        E 28 b9 04 25
        E 28 b9 04 15
        E 31 b9 04 03
        E 9 b9 04 00
        E 25 89 24 40
        E 7 89 2c 40
        E 38 89 33 40
        E 162 99 26 66
        E 4 b9 04 12
        E 11 b9 04 22
        E 7 b9 04 32
        E 2 99 33 60
        E 10 b9 04 43
        E 10 b9 04 4c
        E 2 99 2c 14
        E 2 b9 04 53
        E 13 b9 04 63
        E 21 b9 04 53
        E 39 b9 04 43
        E 22 b9 04 32
        E 24 b9 04 22
        E 43 b9 04 12
        E 33 89 26 40
        E 23 89 33 40
        E 22 89 2c 40
        E 57 b9 04 22
        E 13 b9 04 32
        E 9 99 24 44
        E 10 b9 04 43
        E 27 b9 04 4d
        E 2 99 2c 0c
        E 12 99 33 3c
        E 109 b9 04 32
        E 17 b9 04 22
        E 26 b9 04 12
        E 29 b9 04 00
        E 13 89 24 40
        E 38 89 2c 40
        E 12 89 33 40
        E 147 99 24 43
        E 22 b9 04 12
        E 13 b9 04 25
        E 9 b9 04 36
        E 17 b9 04 46
        E 2 99 33 6b
        E 3 b9 04 4c
        E 4 99 2c 12
        E 5 b9 04 57
        E 73 b9 04 47
        E 29 b9 04 36
        E 29 b9 04 25
        E 29 b9 04 15
        E 7 89 24 40
        E 65 89 33 40
        E 5 89 2c 40
        E 77 b9 04 27
        E 20 b9 04 38
        E 29 b9 04 49
        E 9 b9 04 4d
        E 2 99 2c 0a
        E 20 99 24 40
        E 3 99 33 48
        E 99 b9 04 38
        E 31 b9 04 27
        E 27 b9 04 15
        E 31 b9 04 03
        E 12 b9 04 00
        E 22 89 2c 40
        E 17 89 24 40
        E 5 89 33 40
        E 176 99 26 46
        E 5 b9 04 12
        E 17 b9 04 25
        E 7 99 33 63
        E 14 b9 04 36
        E 8 b9 04 46
        E 5 b9 04 4c
        E 2 99 2c 1e
        E 2 b9 04 56
        E 30 b9 04 46
        E 43 b9 04 36
        E 31 b9 04 25
        E 49 b9 04 15
        E 29 89 26 40
        E 31 89 33 40
        E 27 89 2c 40
        E 72 b9 04 25
        E 20 b9 04 36
        E 21 b9 04 46
        E 5 99 33 35
        E 12 b9 04 4d
        E 2 99 2c 0a
        E 150 b9 04 36
        E 36 b9 04 25
        E 34 b9 04 15
        E 7 89 33 40
        E 15 89 2c 40
        E 19 b9 04 03
        E 15 b9 04 00
        E 232 b9 04 12
        E 15 99 24 3a
        E 2 b9 04 22
        E 17 b9 04 32
        E 11 b9 04 43
        E 5 b9 04 4d
        E 3 99 2c 1e
        E 2 b9 04 53
        E 8 99 33 6a
        E 5 b9 04 63
        E 47 b9 04 53
        E 35 b9 04 43
        E 39 b9 04 32
        E 24 b9 04 22
        E 45 89 24 40
        E 10 b9 04 12
        E 26 89 2c 40
        E 10 89 33 40
        E 129 b9 04 22
        E 26 b9 04 32
        E 37 b9 04 43
        E 18 99 33 3b
        E 20 b9 04 4d
        E 2 99 2c 06
        E 160 b9 04 32
        E 38 b9 04 22
        E 25 89 33 40
        E 21 89 2c 40
        E 84 b9 04 12
        E 240 b9 04 25
        E 22 b9 04 36
        E 31 b9 04 25
        E 94 b9 04 15
        E 213 b9 04 25
        E 152 b9 04 2e
        E 217 b9 04 22
        E 354 b9 04 1a
        E 164 b9 04 09
        E 161 b9 04 00
        E 7713 b0 7b 00
        GUID {86D70260-695D-4A5F-AF2C-216D09D88BB5}
        IGNTEMPO 0 120 4 4
        SRCCOLOR 506
        VELLANE -1 100 0
      >
    >
    <ITEM
      POSITION 213.375
      SNAPOFFS 0
      LENGTH 190.13724635902469
      LOOP 1
      ALLTAKES 0
      FADEIN 1 0.007784 0 1 0 0
      FADEOUT 1 0.007784 0 1 0 0
      MUTE 0
      SEL 0
      IGUID {B5F1D5EE-23E6-4DA8-AE5A-65AAF7143977}
      IID 12
      VOLPAN 1
      TAKE SEL
      NAME "01-EZdrummer-Recorded MIDI"
      TAKEVOLPAN 0 1 -1
      SOFFS 2.75643920798558 8.91248677248677
      PLAYRATE 1 1 0 -1 0 0.0025
      CHANMODE 0
      TAKECOLOR 30590805 R
      GUID {946950B7-E558-4D88-BB58-176F382D4D2A}
      RECPASS 4
      <SOURCE MIDI
        HASDATA 1 960 QN
        POOLEDEVTS {D5C7E14A-E53C-4802-9A58-E21002A463E1}
        E 2009 b9 04 0f
        E 280 b9 04 1a
        E 314 b9 04 22
        E 713 b9 04 1d
        E 1196 b9 04 18
        E 330 b9 04 12
        E 281 b9 04 09
        E 282 b9 04 03
        E 216 b9 04 00
        E 649 b9 04 06
        E 334 b9 04 0f
        E 1357 b9 04 09
        E 5144 b9 04 12
        E 251 b9 04 1d
        E 256 b9 04 2c
        E 181 b9 04 36
        E 1494 b9 04 3a
        E 546 b9 04 32
        E 113 b9 04 22
        E 162 b9 04 1a
        E 227 b9 04 12
        E 2460 b9 04 1a
        E 526 b9 04 27
        E 1006 b9 04 20
        E 203 b9 04 27
        E 819 b9 04 1d
        E 91 99 24 7f
        E 206 b9 04 15
        E 38 89 24 40
        E 447 b9 04 1a
        E 123 99 24 7f
        E 244 89 24 40
        E 220 99 26 7f
        E 100 89 26 40
        E 2 99 26 7f
        E 239 89 26 40
        E 432 b9 04 25
        E 201 b9 04 20
        E 2706 99 30 7f
        E 17 99 2d 7f
        E 227 89 30 40
        E 19 89 2d 40
        E 534 99 2d 7f
        E 2 99 29 7f
        E 239 89 2d 40
        E 3 89 29 40
        E 332 b9 04 15
        E 270 99 24 7f
        E 244 89 24 40
        E 548 99 24 7f
        E 36 b9 04 0c
        E 208 89 24 40
        E 182 99 26 7f
        E 118 99 28 7f
        E 29 b9 04 12
        E 96 89 26 40
        E 88 b9 04 18
        E 28 89 28 40
        E 362 b9 04 25
        E 303 b9 04 20
        E 401 b9 04 30
        E 282 b9 04 25
        E 411 b9 04 30
        E 177 b9 04 20
        E 302 99 30 7f
        E 33 99 2d 7f
        E 5 b9 04 27
        E 206 89 30 40
        E 31 89 2d 40
        E 16 b9 04 20
        E 83 99 30 7f
        E 32 99 2d 7f
        E 212 89 30 40
        E 31 89 2d 40
        E 90 99 30 7f
        E 26 99 2d 7f
        E 218 89 30 40
        E 26 89 2d 40
        E 119 99 2d 7f
        E 2 99 30 7f
        E 242 89 2d 40
        E 0 89 30 40
        E 133 99 29 65
        E 26 99 2d 7f
        E 111 b9 04 1a
        E 107 89 29 40
        E 27 89 2d 40
        E 106 99 29 7f
        E 48 99 2d 7f
        E 196 89 29 40
        E 45 89 2d 40
        E 404 b9 04 0f
        E 70 99 24 7f
        E 244 89 24 40
        E 355 b9 04 20
        E 41 b9 04 30
        E 131 b9 04 34
        E 19 99 24 7f
        E 17 b9 04 22
        E 44 b9 04 12
        E 53 b9 04 00
        E 130 89 24 40
        E 172 99 26 7f
        E 104 b9 04 12
        E 4 99 28 7f
        E 39 b9 04 22
        E 21 b9 04 32
        E 20 b9 04 43
        E 51 b9 04 32
        E 5 89 26 40
        E 55 b9 04 22
        E 53 89 28 40
        E 87 b9 04 15
        E 109 b9 04 25
        E 51 b9 04 36
        E 53 b9 04 46
        E 90 b9 04 36
        E 43 b9 04 25
        E 31 b9 04 15
        E 4 99 24 67
        E 40 b9 04 03
        E 14 b9 04 00
        E 191 89 24 40
        E 189 99 2d 7f
        E 9 99 30 7f
        E 44 b9 04 12
        E 16 b9 04 22
        E 49 b9 04 32
        E 10 b9 04 44
        E 2 b9 04 4d
        E 2 99 2c 26
        E 3 b9 04 54
        E 12 b9 04 44
        E 5 b9 04 34
        E 8 b9 04 22
        E 16 b9 04 12
        E 68 89 2d 40
        E 9 89 30 40
        E 123 89 2c 40
        E 186 b9 04 1d
        E 90 b9 04 2e
        E 26 b9 04 3e
        E 49 b9 04 4f
        E 2 99 2c 06
        E 2 b9 04 4f
        E 153 b9 04 3f
        E 34 b9 04 2e
        E 29 b9 04 1d
        E 24 89 2c 40
        E 26 b9 04 0c
        E 34 b9 04 00
        E 34 99 24 6d
        E 242 89 24 40
        E 128 b9 04 12
        E 7 99 26 7f
        E 43 b9 04 22
        E 12 b9 04 32
        E 5 b9 04 43
        E 2 b9 04 4c
        E 3 99 2c 2a
        E 20 b9 04 32
        E 4 b9 04 20
        E 5 89 26 40
        E 2 99 26 7f
        E 10 b9 04 0f
        E 135 b9 04 20
        E 47 b9 04 30
        E 21 89 2c 40
        E 29 89 26 40
        E 104 b9 04 20
        E 29 99 24 5f
        E 26 b9 04 0f
        E 42 b9 04 00
        E 176 89 24 40
        E 123 b9 04 12
        E 7 99 30 7f
        E 17 99 2d 7f
        E 5 b9 04 22
        E 17 b9 04 32
        E 10 b9 04 43
        E 4 b9 04 4d
        E 0 99 2c 22
        E 5 b9 04 53
        E 24 b9 04 43
        E 10 b9 04 32
        E 153 89 30 40
        E 16 89 2d 40
        E 37 89 2c 40
        E 75 b9 04 22
        E 41 b9 04 12
        E 9 99 24 68
        E 34 b9 04 00
        E 210 89 24 40
        E 119 b9 04 12
        E 15 b9 04 22
        E 0 99 29 7f
        E 2 99 2d 7f
        E 28 b9 04 32
        E 8 b9 04 43
        E 7 b9 04 4c
        E 3 99 2c 22
        E 14 b9 04 32
        E 7 b9 04 20
        E 135 b9 04 30
        E 39 89 29 40
        E 3 89 2d 40
        E 43 89 2c 40
        E 60 b9 04 20
        E 66 b9 04 0f
        E 45 b9 04 00
        E 334 b9 04 12
        E 10 b9 04 25
        E 14 99 24 7c
        E 15 b9 04 36
        E 9 b9 04 47
        E 3 b9 04 4c
        E 2 99 2c 28
        E 19 b9 04 36
        E 10 b9 04 25
        E 32 b9 04 15
        E 154 89 24 40
        E 27 89 2c 40
        E 36 b9 04 25
        E 87 b9 04 36
        E 87 b9 04 46
        E 31 b9 04 4f
        E 3 99 2c 06
        E 29 b9 04 56
        E 118 b9 04 46
        E 32 b9 04 36
        E 31 b9 04 22
        E 31 89 2c 40
        E 5 99 24 64
        E 2 b9 04 12
        E 46 b9 04 00
        E 196 89 24 40
        E 193 99 26 7f
        E 32 b9 04 12
        E 15 b9 04 22
        E 45 b9 04 32
        E 7 b9 04 44
        E 3 b9 04 4d
        E 2 99 2c 2e
        E 2 b9 04 54
        E 7 89 26 40
        E 3 99 26 7f
        E 8 b9 04 44
        E 7 b9 04 34
        E 7 b9 04 20
        E 128 b9 04 12
        E 81 89 2c 40
        E 11 89 26 40
        E 157 b9 04 22
        E 34 b9 04 32
        E 17 b9 04 43
        E 14 b9 04 4d
        E 3 99 2c 0e
        E 8 b9 04 53
        E 60 b9 04 63
        E 86 b9 04 53
        E 30 b9 04 43
        E 23 b9 04 32
        E 20 b9 04 22
        E 17 89 2c 40
        E 7 b9 04 12
        E 39 b9 04 00
        E 50 99 24 64
        E 245 89 24 40
        E 99 99 2d 7f
        E 17 99 30 7f
        E 19 b9 04 12
        E 17 b9 04 22
        E 36 b9 04 34
        E 3 b9 04 47
        E 2 b9 04 4c
        E 2 99 2c 4a
        E 3 b9 04 5c
        E 16 b9 04 49
        E 5 b9 04 36
        E 9 b9 04 25
        E 50 b9 04 36
        E 65 89 2d 40
        E 14 89 30 40
        E 79 89 2c 40
        E 20 b9 04 25
        E 56 b9 04 15
        E 147 b9 04 06
        E 140 b9 04 18
        E 20 b9 04 29
        E 19 b9 04 3a
        E 16 b9 04 4a
        E 2 b9 04 4d
        E 3 99 2c 10
        E 13 b9 04 5a
        E 29 b9 04 4a
        E 57 b9 04 3a
        E 145 89 2c 40
        E 46 b9 04 46
        E 58 b9 04 36
        E 39 b9 04 25
        E 38 b9 04 15
        E 10 99 24 63
        E 48 b9 04 03
        E 15 b9 04 00
        E 181 89 24 40
        E 138 99 26 7f
        E 17 b9 04 12
        E 10 b9 04 22
        E 12 b9 04 32
        E 29 b9 04 43
        E 2 b9 04 4c
        E 0 99 2c 2a
        E 2 b9 04 54
        E 20 b9 04 44
        E 4 b9 04 34
        E 3 89 26 40
        E 3 99 26 7f
        E 4 b9 04 22
        E 109 b9 04 32
        E 99 89 2c 40
        E 29 89 26 40
        E 46 b9 04 22
        E 41 b9 04 12
        E 7 99 24 60
        E 37 b9 04 00
        E 208 89 24 40
        E 77 b9 04 12
        E 36 b9 04 22
        E 14 b9 04 32
        E 6 b9 04 44
        E 1 b9 04 4d
        E 2 99 2c 30
        E 3 b9 04 54
        E 2 99 30 7f
        E 11 99 2d 7f
        E 2 b9 04 44
        E 7 b9 04 32
        E 13 b9 04 22
        E 75 b9 04 32
        E 45 b9 04 43
        E 87 89 2c 40
        E 2 89 30 40
        E 13 89 2d 40
        E 29 b9 04 32
        E 33 b9 04 22
        E 37 b9 04 12
        E 31 99 24 64
        E 17 b9 04 00
        E 227 89 24 40
        E 101 b9 04 12
        E 15 b9 04 22
        E 37 b9 04 32
        E 5 b9 04 43
        E 6 99 2d 7f
        E 3 b9 04 4c
        E 2 99 2c 24
        E 5 99 29 7c
        E 7 b9 04 32
        E 7 b9 04 20
        E 17 b9 04 0f
        E 119 b9 04 20
        E 32 b9 04 30
        E 53 89 2d 40
        E 2 b9 04 41
        E 2 89 2c 40
        E 5 89 29 40
        E 84 b9 04 30
        E 8 99 24 68
        E 27 b9 04 20
        E 36 b9 04 0f
        E 29 b9 04 00
        E 151 89 24 40
        E 182 b9 04 12
        E 7 b9 04 25
        E 3 99 24 7f
        E 2 b9 04 38
        E 3 b9 04 49
        E 2 b9 04 4c
        E 2 99 2c 34
        E 35 b9 04 5b
        E 6 b9 04 6b
        E 15 b9 04 58
        E 7 b9 04 47
        E 15 b9 04 36
        E 50 b9 04 25
        E 73 b9 04 15
        E 34 89 24 40
        E 7 89 2c 40
        E 94 b9 04 25
        E 130 b9 04 36
        E 76 b9 04 46
        E 40 b9 04 4f
        E 0 99 2c 06
        E 97 b9 04 4a
        E 46 b9 04 3a
        E 22 99 24 5e
        E 14 b9 04 29
        E 39 b9 04 18
        E 27 89 2c 40
        E 26 b9 04 06
        E 37 b9 04 00
        E 100 89 24 40
        E 265 99 26 7f
        E 4 99 2d 7f
        E 61 b9 04 12
        E 27 b9 04 22
        E 19 b9 04 32
        E 11 b9 04 43
        E 2 b9 04 4c
        E 3 99 2c 22
        E 5 b9 04 53
        E 12 b9 04 43
        E 8 b9 04 32
        E 6 b9 04 22
        E 23 b9 04 12
        E 60 89 26 40
        E 2 89 2d 40
        E 127 89 2c 40
        E 98 b9 04 22
        E 29 b9 04 32
        E 22 b9 04 43
        E 14 b9 04 4d
        E 3 99 2c 0c
        E 9 b9 04 53
        E 155 b9 04 43
        E 26 b9 04 32
        E 22 b9 04 22
        E 26 b9 04 12
        E 6 89 2c 40
        E 17 99 24 5d
        E 19 b9 04 00
        E 222 89 24 40
        E 135 99 30 7f
        E 8 99 2d 7f
        E 48 b9 04 12
        E 15 b9 04 22
        E 40 b9 04 34
        E 6 b9 04 44
        E 2 b9 04 4d
        E 2 99 2c 44
        E 3 b9 04 55
        E 14 b9 04 43
        E 4 b9 04 32
        E 8 b9 04 20
        E 92 89 30 40
        E 2 b9 04 30
        E 5 89 2d 40
        E 113 89 2c 40
        E 51 b9 04 20
        E 83 b9 04 0f
        E 84 b9 04 00
        E 194 b9 04 12
        E 21 b9 04 22
        E 10 b9 04 32
        E 17 b9 04 43
        E 5 b9 04 4c
        E 2 99 2c 12
        E 5 b9 04 53
        E 34 b9 04 43
        E 202 89 2c 40
        E 47 b9 04 32
        E 26 b9 04 22
        E 41 99 24 5f
        E 3 b9 04 12
        E 53 b9 04 00
        E 186 89 24 40
        E 116 99 26 7f
        E 24 b9 04 12
        E 9 b9 04 22
        E 27 b9 04 32
        E 15 b9 04 44
        E 2 b9 04 4d
        E 2 99 2c 2c
        E 3 b9 04 56
        E 3 89 26 40
        E 2 99 26 7f
        E 14 b9 04 46
        E 5 b9 04 36
        E 14 b9 04 25
        E 202 89 2c 40
        E 9 89 26 40
        E 14 b9 04 30
        E 49 b9 04 20
        E 38 99 24 58
        E 27 b9 04 0f
        E 43 b9 04 00
        E 172 89 24 40
        E 109 b9 04 12
        E 22 99 2d 7f
        E 7 b9 04 22
        E 7 99 30 7f
        E 7 b9 04 32
        E 5 b9 04 44
        E 5 b9 04 4d
        E 2 99 2c 32
        E 2 b9 04 54
        E 19 b9 04 43
        E 8 b9 04 32
        E 145 b9 04 43
        E 37 89 2d 40
        E 14 89 30 40
        E 17 89 2c 40
        E 60 b9 04 32
        E 32 b9 04 22
        E 34 b9 04 12
        E 7 99 24 65
        E 38 b9 04 00
        E 206 89 24 40
        E 135 99 2d 7f
        E 3 b9 04 12
        E 9 b9 04 22
        E 17 99 29 7f
        E 12 b9 04 32
        E 7 b9 04 43
        E 5 b9 04 4c
        E 2 99 2c 26
        E 3 b9 04 53
        E 10 b9 04 43
        E 7 b9 04 32
        E 8 b9 04 20
        E 23 b9 04 0f
        E 73 b9 04 20
        E 50 b9 04 30
        E 15 89 2d 40
        E 27 89 29 40
        E 26 89 2c 40
        E 77 b9 04 20
        E 58 b9 04 0f
        E 39 b9 04 00
        E 331 b9 04 12
        E 11 99 24 72
        E 3 b9 04 25
        E 32 b9 04 36
        E 5 b9 04 46
        E 2 b9 04 4d
        E 2 99 2c 26
        E 19 b9 04 36
        E 11 b9 04 22
        E 21 b9 04 12
        E 150 89 24 40
        E 44 89 2c 40
        E 112 b9 04 22
        E 146 b9 04 32
        E 46 b9 04 43
        E 31 b9 04 4f
        E 2 99 2c 08
        E 8 b9 04 53
        E 145 b9 04 43
        E 29 b9 04 32
        E 5 99 24 77
        E 17 b9 04 22
        E 33 b9 04 12
        E 5 89 2c 40
        E 39 b9 04 00
        E 150 89 24 40
        E 215 99 26 7f
        E 24 b9 04 12
        E 12 b9 04 25
        E 41 89 26 40
        E 3 99 26 7f
        E 5 b9 04 36
        E 9 b9 04 46
        E 3 b9 04 4d
        E 2 99 2c 28
        E 3 b9 04 56
        E 22 b9 04 46
        E 4 b9 04 34
        E 10 b9 04 22
        E 55 b9 04 12
        E 128 89 26 40
        E 22 89 2c 40
        E 116 b9 04 22
        E 24 b9 04 32
        E 19 b9 04 43
        E 15 b9 04 4d
        E 2 99 2c 0e
        E 7 b9 04 53
        E 52 b9 04 63
        E 89 b9 04 53
        E 24 b9 04 43
        E 27 b9 04 32
        E 17 b9 04 22
        E 23 b9 04 12
        E 3 89 2c 40
        E 29 99 24 5c
        E 12 b9 04 00
        E 232 89 24 40
        E 145 99 2d 7f
        E 5 99 30 7f
        E 9 b9 04 12
        E 15 b9 04 22
        E 36 b9 04 32
        E 5 b9 04 43
        E 2 b9 04 4c
        E 3 99 2c 40
        E 2 b9 04 53
        E 15 b9 04 41
        E 5 b9 04 30
        E 7 b9 04 20
        E 140 89 2d 40
        E 5 89 30 40
        E 7 b9 04 30
        E 61 89 2c 40
        E 86 b9 04 36
        E 66 b9 04 25
        E 43 b9 04 15
        E 53 b9 04 03
        E 19 b9 04 00
        E 183 b9 04 12
        E 23 b9 04 25
        E 9 b9 04 36
        E 13 b9 04 46
        E 2 b9 04 4c
        E 2 99 2c 18
        E 8 b9 04 56
        E 77 b9 04 46
        E 153 b9 04 51
        E 4 89 2c 40
        E 61 b9 04 41
        E 31 b9 04 30
        E 5 99 24 5d
        E 21 b9 04 20
        E 49 b9 04 0f
        E 48 b9 04 00
        E 126 89 24 40
        E 169 99 26 7f
        E 31 b9 04 12
        E 54 b9 04 22
        E 9 b9 04 34
        E 5 b9 04 44
        E 2 b9 04 4c
        E 3 99 2c 36
        E 2 b9 04 55
        E 17 b9 04 44
        E 0 b9 04 34
        E 7 b9 04 22
        E 15 b9 04 12
        E 99 89 26 40
        E 101 89 2c 40
        E 34 99 26 7f
        E 114 b9 04 22
        E 130 89 26 40
        E 7 b9 04 2c
        E 141 99 30 7f
        E 35 b9 04 25
        E 209 89 30 40
        E 128 99 30 7f
        E 110 b9 04 1a
        E 133 89 30 40
        E 119 99 2d 7f
        E 145 b9 04 2c
        E 37 b9 04 3c
        E 33 b9 04 4c
        E 2 b9 04 4d
        E 2 99 2c 08
        E 25 89 2d 40
        E 102 99 2d 7f
        E 26 b9 04 3c
        E 39 b9 04 2c
        E 34 b9 04 1a
        E 19 89 2c 40
        E 14 b9 04 09
        E 20 b9 04 00
        E 89 89 2d 40
        E 155 99 24 7f
        E 29 b9 04 12
        E 26 b9 04 22
        E 10 b9 04 32
        E 9 b9 04 43
        E 3 b9 04 4c
        E 2 99 2c 24
        E 5 b9 04 53
        E 17 b9 04 41
        E 7 b9 04 30
        E 37 b9 04 20
        E 96 89 24 40
        E 3 b9 04 0f
        E 80 89 2c 40
        E 113 b9 04 20
        E 36 b9 04 30
        E 37 b9 04 41
        E 24 b9 04 4d
        E 2 99 2c 0a
        E 7 b9 04 51
        E 134 b9 04 58
        E 40 b9 04 47
        E 32 b9 04 36
        E 26 b9 04 25
        E 3 89 2c 40
        E 22 99 24 60
        E 4 b9 04 15
        E 39 b9 04 03
        E 9 b9 04 00
        E 189 89 24 40
        E 162 99 26 7f
        E 22 b9 04 12
        E 14 b9 04 22
        E 46 b9 04 32
        E 7 b9 04 43
        E 3 b9 04 4c
        E 2 99 2c 2e
        E 2 b9 04 54
        E 8 99 28 7f
        E 7 b9 04 44
        E 7 b9 04 32
        E 7 b9 04 20
        E 20 b9 04 0f
        E 99 89 26 40
        E 94 89 2c 40
        E 10 89 28 40
        E 123 b9 04 20
        E 29 b9 04 30
        E 24 b9 04 41
        E 15 b9 04 4d
        E 2 99 2c 0c
        E 7 b9 04 51
        E 42 b9 04 61
        E 135 b9 04 51
        E 29 b9 04 41
        E 23 b9 04 30
        E 5 89 2c 40
        E 15 b9 04 20
        E 39 b9 04 0f
        E 39 b9 04 00
        E 24 99 24 66
        E 241 89 24 40
        E 123 99 30 7f
        E 3 99 2d 7f
        E 19 b9 04 12
        E 44 b9 04 22
        E 5 b9 04 34
        E 2 b9 04 47
        E 3 b9 04 4c
        E 2 99 2c 44
        E 4 b9 04 58
        E 13 b9 04 46
        E 5 b9 04 34
        E 7 b9 04 22
        E 17 b9 04 12
        E 120 89 30 40
        E 3 89 2d 40
        E 29 b9 04 1d
        E 45 89 2c 40
        E 87 b9 04 29
        E 170 b9 04 18
        E 157 b9 04 0f
        E 41 b9 04 20
        E 24 b9 04 30
        E 22 b9 04 41
        E 15 b9 04 4d
        E 2 99 2c 10
        E 7 b9 04 51
        E 56 b9 04 41
        E 154 b9 04 51
        E 27 89 2c 40
        E 106 b9 04 41
        E 36 b9 04 30
        E 29 b9 04 20
        E 36 b9 04 0f
        E 13 99 24 6c
        E 20 b9 04 00
        E 221 89 24 40
        E 102 99 26 7f
        E 2 b9 04 12
        E 3 b9 04 22
        E 7 b9 04 32
        E 34 b9 04 43
        E 5 b9 04 4c
        E 2 99 2c 1c
        E 2 b9 04 54
        E 5 b9 04 65
        E 15 b9 04 55
        E 7 b9 04 44
        E 7 b9 04 34
        E 8 89 26 40
        E 2 99 26 7f
        E 36 b9 04 22
        E 160 89 2c 40
        E 41 b9 04 30
        E 2 89 26 40
        E 65 b9 04 20
        E 39 99 24 50
        E 24 b9 04 0f
        E 42 b9 04 00
        E 178 89 24 40
        E 99 b9 04 12
        E 36 99 2d 7f
        E 2 b9 04 22
        E 8 b9 04 32
        E 0 99 30 7f
        E 7 b9 04 43
        E 2 b9 04 4c
        E 5 99 2c 28
        E 12 b9 04 32
        E 10 b9 04 20
        E 114 b9 04 30
        E 46 b9 04 41
        E 38 89 2d 40
        E 10 89 30 40
        E 12 89 2c 40
        E 75 b9 04 30
        E 26 b9 04 20
        E 32 99 24 5f
        E 10 b9 04 0f
        E 30 b9 04 00
        E 202 89 24 40
        E 130 b9 04 12
        E 2 99 2d 7f
        E 10 b9 04 22
        E 9 99 29 7f
        E 25 b9 04 32
        E 7 b9 04 43
        E 5 b9 04 4c
        E 2 99 2c 26
        E 17 b9 04 32
        E 7 b9 04 22
        E 13 b9 04 12
        E 123 b9 04 22
        E 26 89 2d 40
        E 13 b9 04 32
        E 6 89 29 40
        E 39 89 2c 40
        E 124 b9 04 22
        E 38 b9 04 12
        E 49 b9 04 00
        E 331 b9 04 12
        E 7 99 24 79
        E 5 b9 04 25
        E 12 b9 04 36
        E 26 b9 04 46
        E 3 b9 04 4c
        E 2 99 2c 28
        E 2 b9 04 56
        E 22 b9 04 46
        E 3 b9 04 36
        E 19 b9 04 25
        E 63 b9 04 15
        E 87 89 24 40
        E 48 89 2c 40
        E 111 b9 04 25
        E 155 b9 04 36
        E 63 b9 04 46
        E 24 b9 04 4f
        E 3 99 2c 08
        E 31 b9 04 56
        E 113 b9 04 46
        E 32 b9 04 36
        E 19 99 24 6e
        E 9 b9 04 25
        E 32 b9 04 15
        E 7 89 2c 40
        E 39 b9 04 03
        E 19 b9 04 00
        E 138 89 24 40
        E 191 99 26 7f
        E 51 b9 04 12
        E 36 89 26 40
        E 3 99 26 7f
        E 86 b9 04 22
        E 16 b9 04 32
        E 11 b9 04 44
        E 5 b9 04 4c
        E 2 99 2c 1c
        E 4 b9 04 54
        E 15 b9 04 44
        E 12 b9 04 34
        E 68 b9 04 22
        E 22 89 26 40
        E 108 b9 04 18
        E 15 89 2c 40
        E 73 b9 04 29
        E 28 b9 04 3a
        E 25 b9 04 4a
        E 10 b9 04 4f
        E 1 99 2c 0a
        E 32 b9 04 5a
        E 121 b9 04 4a
        E 24 b9 04 3a
        E 26 b9 04 29
        E 27 99 24 60
        E 2 b9 04 18
        E 13 89 2c 40
        E 19 b9 04 06
        E 19 b9 04 00
        E 191 89 24 40
        E 174 99 2d 7f
        E 3 99 30 7f
        E 36 b9 04 12
        E 11 b9 04 25
        E 42 b9 04 36
        E 12 b9 04 47
        E 3 b9 04 4c
        E 0 99 2c 2a
        E 2 b9 04 58
        E 19 b9 04 47
        E 7 b9 04 36
        E 11 b9 04 25
        E 47 b9 04 15
        E 48 89 2d 40
        E 2 89 30 40
        E 108 89 2c 40
        E 75 b9 04 0f
        E 224 b9 04 20
        E 61 b9 04 30
        E 215 b9 04 41
        E 135 b9 04 30
        E 46 b9 04 20
        E 72 b9 04 0f
        E 40 99 26 7f
        E 88 b9 04 00
        E 82 89 26 40
        E 3 99 26 7f
        E 92 b9 04 12
        E 50 b9 04 22
        E 54 89 26 40
        E 2 99 26 6b
        E 31 b9 04 12
        E 165 b9 04 09
        E 17 89 26 40
        E 2 99 26 77
        E 152 b9 04 15
        E 53 89 26 40
        E 3 99 26 7a
        E 198 89 26 40
        E 0 99 26 6e
        E 159 b9 04 20
        E 37 99 30 7f
        E 48 89 26 40
        E 147 89 30 40
        E 2 99 30 7f
        E 168 89 30 40
        E 2 99 30 7f
        E 217 89 30 40
        E 3 99 30 7f
        E 34 b9 04 18
        E 147 99 2d 7f
        E 60 89 30 40
        E 148 89 2d 40
        E 2 99 2d 7f
        E 147 89 2d 40
        E 3 99 2d 74
        E 14 b9 04 29
        E 150 b9 04 30
        E 17 89 2d 40
        E 2 99 2d 7f
        E 56 b9 04 20
        E 85 b9 04 0f
        E 82 99 24 7a
        E 19 89 2d 40
        E 225 89 24 40
        E 161 b9 04 1a
        E 177 b9 04 2c
        E 58 b9 04 3c
        E 44 b9 04 4c
        E 2 99 2c 06
        E 2 b9 04 4c
        E 89 99 24 72
        E 44 b9 04 3c
        E 37 b9 04 2c
        E 38 b9 04 1a
        E 34 89 2c 40
        E 14 b9 04 09
        E 44 b9 04 00
        E 33 89 24 40
        E 177 99 26 7f
        E 82 99 28 66
        E 109 b9 04 12
        E 34 b9 04 22
        E 16 b9 04 32
        E 3 89 26 40
        E 20 b9 04 43
        E 9 b9 04 4c
        E 0 99 2c 10
        E 19 b9 04 32
        E 12 b9 04 20
        E 22 89 28 40
        E 68 b9 04 0f
        E 123 89 2c 40
        E 17 b9 04 20
        E 22 b9 04 30
        E 26 b9 04 41
        E 36 b9 04 4f
        E 2 99 2c 08
        E 131 b9 04 30
        E 27 b9 04 20
        E 36 b9 04 0f
        E 10 99 24 57
        E 22 b9 04 00
        E 19 89 2c 40
        E 202 89 24 40
        E 127 99 2d 7f
        E 2 99 30 7f
        E 34 b9 04 12
        E 11 b9 04 22
        E 44 b9 04 32
        E 5 b9 04 43
        E 3 b9 04 4d
        E 2 99 2c 36
        E 2 b9 04 53
        E 18 b9 04 43
        E 4 b9 04 32
        E 5 b9 04 22
        E 11 b9 04 12
        E 100 89 2d 40
        E 3 89 30 40
        E 26 b9 04 22
        E 75 89 2c 40
        E 167 b9 04 12
        E 133 b9 04 00
        E 162 b9 04 12
        E 28 b9 04 22
        E 17 b9 04 32
        E 15 b9 04 43
        E 9 b9 04 4c
        E 2 99 2c 14
        E 242 89 2c 40
        E 31 b9 04 32
        E 35 b9 04 22
        E 33 99 24 55
        E 3 b9 04 12
        E 58 b9 04 00
        E 184 89 24 40
        E 99 99 26 7f
        E 12 b9 04 12
        E 19 b9 04 22
        E 24 b9 04 32
        E 9 b9 04 44
        E 0 b9 04 4c
        E 3 99 2c 2c
        E 2 b9 04 55
        E 8 89 26 40
        E 2 99 26 7f
        E 13 b9 04 44
        E 6 b9 04 34
        E 56 b9 04 22
        E 150 b9 04 32
        E 8 89 2c 40
        E 8 89 26 40
        E 98 b9 04 20
        E 5 99 24 56
        E 50 b9 04 0f
        E 39 b9 04 00
        E 152 89 24 40
        E 118 b9 04 12
        E 8 99 2d 7f
        E 7 99 30 7f
        E 5 b9 04 22
        E 11 b9 04 32
        E 10 b9 04 43
        E 6 b9 04 4c
        E 2 99 2c 1e
        E 2 b9 04 53
        E 14 b9 04 43
        E 10 b9 04 32
        E 142 b9 04 43
        E 35 89 2d 40
        E 6 89 30 40
        E 32 89 2c 40
        E 61 b9 04 32
        E 35 b9 04 22
        E 20 99 24 64
        E 20 b9 04 12
        E 47 b9 04 00
        E 178 89 24 40
        E 120 99 2d 7f
        E 15 b9 04 12
        E 0 99 29 7f
        E 32 b9 04 22
        E 18 b9 04 34
        E 5 b9 04 44
        E 3 b9 04 4d
        E 2 99 2c 30
        E 2 b9 04 55
        E 14 b9 04 43
        E 8 b9 04 32
        E 5 b9 04 22
        E 99 b9 04 32
        E 41 89 2d 40
        E 15 89 29 40
        E 58 89 2c 40
        E 63 b9 04 22
        E 43 b9 04 12
        E 46 b9 04 00
        E 345 b9 04 12
        E 5 99 24 7a
        E 3 b9 04 22
        E 9 b9 04 32
        E 29 b9 04 44
        E 5 b9 04 4d
        E 2 99 2c 26
        E 3 b9 04 55
        E 17 b9 04 43
        E 7 b9 04 32
        E 12 b9 04 20
        E 158 89 24 40
        E 4 b9 04 12
        E 43 89 2c 40
        E 119 b9 04 22
        E 119 b9 04 32
        E 62 b9 04 43
        E 34 b9 04 4f
        E 2 99 2c 08
        E 9 b9 04 53
        E 153 b9 04 43
        E 34 b9 04 32
        E 21 b9 04 22
        E 2 99 24 6c
        E 25 89 2c 40
        E 12 b9 04 12
        E 46 b9 04 00
        E 160 89 24 40
        E 184 99 26 7f
        E 18 b9 04 12
        E 18 b9 04 22
        E 34 b9 04 32
        E 9 99 28 7f
        E 7 b9 04 43
        E 3 b9 04 4d
        E 2 99 2c 1c
        E 3 b9 04 53
        E 24 b9 04 41
        E 7 b9 04 30
        E 10 b9 04 20
        E 109 89 26 40
        E 16 b9 04 0f
        E 63 89 28 40
        E 12 89 2c 40
        E 135 b9 04 20
        E 29 b9 04 30
        E 29 b9 04 41
        E 15 b9 04 4d
        E 2 99 2c 0e
        E 3 b9 04 51
        E 35 b9 04 61
        E 134 b9 04 51
        E 26 b9 04 41
        E 22 b9 04 30
        E 20 b9 04 20
        E 2 89 2c 40
        E 36 b9 04 0f
        E 31 99 24 65
        E 7 b9 04 00
        E 235 89 24 40
        E 148 99 2d 7f
        E 14 99 30 7f
        E 5 b9 04 12
        E 12 b9 04 25
        E 41 b9 04 36
        E 2 b9 04 47
        E 3 b9 04 4c
        E 2 99 2c 3e
        E 5 b9 04 58
        E 11 b9 04 47
        E 9 b9 04 36
        E 7 b9 04 20
        E 106 b9 04 30
        E 27 89 2d 40
        E 12 89 30 40
        E 65 89 2c 40
        E 109 b9 04 20
        E 161 b9 04 0f
        E 184 b9 04 20
        E 17 b9 04 30
        E 20 b9 04 41
        E 12 b9 04 4d
        E 2 99 2c 10
        E 2 b9 04 51
        E 145 b9 04 41
        E 27 b9 04 30
        E 23 b9 04 20
        E 47 b9 04 0f
        E 0 89 2c 40
        E 48 b9 04 00
        E 104 99 26 7f
        E 34 89 26 40
        E 2 99 26 7f
        E 160 b9 04 12
        E 79 89 26 40
        E 105 99 26 79
        E 33 89 26 40
        E 2 99 26 7f
        E 129 b9 04 22
        E 36 b9 04 32
        E 45 b9 04 43
        E 30 89 26 40
        E 138 b9 04 32
        E 6 99 24 5b
        E 32 b9 04 22
        E 50 b9 04 12
        E 105 b9 04 00
        E 55 89 24 40
        E 119 99 2d 7f
        E 7 99 30 7f
        E 58 b9 04 12
        E 29 b9 04 22
        E 22 b9 04 32
        E 16 b9 04 43
        E 15 b9 04 4c
        E 0 99 2c 0e
        E 39 b9 04 32
        E 58 89 2d 40
        E 7 89 30 40
        E 140 89 2c 40
        E 44 b9 04 22
        E 1 99 24 52
        E 93 b9 04 12
        E 149 89 24 40
        E 58 b9 04 03
        E 83 99 2d 7f
        E 2 99 29 7f
        E 39 b9 04 15
        E 41 b9 04 25
        E 56 b9 04 15
        E 106 89 2d 40
        E 2 89 29 40
        E 58 b9 04 25
        E 49 b9 04 36
        E 2 99 29 7f
        E 41 99 2d 7f
        E 77 b9 04 25
        E 39 b9 04 15
        E 44 b9 04 03
        E 12 b9 04 00
        E 31 89 29 40
        E 41 89 2d 40
        E 155 99 24 65
        E 43 b9 04 12
        E 20 b9 04 22
        E 11 b9 04 32
        E 10 b9 04 43
        E 29 b9 04 32
        E 19 b9 04 22
        E 81 b9 04 12
        E 31 89 24 40
        E 203 b9 04 22
        E 41 b9 04 32
        E 37 b9 04 43
        E 22 b9 04 4c
        E 3 99 2c 08
        E 16 b9 04 53
        E 158 b9 04 43
        E 30 b9 04 32
        E 24 b9 04 22
        E 16 99 24 60
        E 3 89 2c 40
        E 15 b9 04 12
        E 50 b9 04 00
        E 174 89 24 40
        E 198 b9 04 12
        E 7 b9 04 25
        E 3 99 26 7f
        E 14 b9 04 36
        E 27 b9 04 46
        E 2 b9 04 4c
        E 2 99 2c 28
        E 3 b9 04 56
        E 22 b9 04 44
        E 5 b9 04 34
        E 12 b9 04 20
        E 15 89 26 40
        E 2 99 26 7f
        E 46 b9 04 0f
        E 140 89 2c 40
        E 55 89 26 40
        E 93 b9 04 20
        E 40 b9 04 30
        E 32 b9 04 41
        E 24 b9 04 4d
        E 2 99 2c 0a
        E 8 b9 04 51
        E 154 b9 04 41
        E 29 b9 04 30
        E 20 b9 04 20
        E 33 89 2c 40
        E 2 b9 04 0f
        E 44 b9 04 00
        E 19 99 24 56
        E 245 89 24 40
        E 145 99 2d 7f
        E 2 b9 04 12
        E 7 99 30 7f
        E 41 b9 04 22
        E 10 b9 04 34
        E 2 b9 04 46
        E 3 b9 04 4f
        E 2 99 2c 42
        E 5 b9 04 56
        E 12 b9 04 44
        E 7 b9 04 32
        E 7 b9 04 20
        E 126 b9 04 1a
        E 19 89 2d 40
        E 10 89 30 40
        E 58 89 2c 40
        E 240 b9 04 2c
        E 33 b9 04 3c
        E 36 b9 04 4c
        E 5 b9 04 4f
        E 2 99 2c 08
        E 182 b9 04 3c
        E 48 b9 04 2c
        E 11 89 2c 40
        E 37 b9 04 1a
        E 61 b9 04 09
        E 34 b9 04 00
        E 212 99 26 7f
        E 65 89 26 40
        E 3 99 26 7f
        E 39 b9 04 12
        E 24 b9 04 22
        E 14 b9 04 32
        E 22 b9 04 43
        E 10 b9 04 4c
        E 2 99 2c 12
        E 29 b9 04 32
        E 101 89 26 40
        E 13 b9 04 22
        E 77 b9 04 12
        E 22 89 2c 40
        E 10 99 26 77
        E 88 b9 04 00
        E 102 89 26 40
        E 2 99 26 75
        E 102 b9 04 12
        E 31 b9 04 22
        E 27 b9 04 32
        E 38 89 26 40
        E 2 99 26 6f
        E 100 b9 04 22
        E 75 b9 04 12
        E 32 89 26 40
        E 2 99 26 79
        E 215 89 26 40
        E 2 99 26 6b
        E 34 b9 04 22
        E 130 b9 04 27
        E 78 89 26 40
        E 80 b9 04 1a
        E 133 99 30 7f
        E 49 b9 04 2c
        E 195 89 30 40
        E 133 b9 04 20
        E 65 99 26 7e
        E 176 99 30 7f
        E 65 89 26 40
        E 80 b9 04 2e
        E 27 b9 04 3e
        E 21 99 26 7f
        E 10 b9 04 4c
        E 2 99 2c 0a
        E 8 b9 04 4f
        E 31 89 30 40
        E 87 b9 04 3f
        E 38 b9 04 2e
        E 26 b9 04 1d
        E 32 b9 04 0c
        E 8 89 26 40
        E 12 b9 04 00
        E 2 89 2c 40
        E 242 99 24 7f
        E 27 b9 04 12
        E 11 b9 04 22
        E 15 b9 04 32
        E 17 b9 04 44
        E 0 b9 04 4c
        E 3 99 2c 1e
        E 4 b9 04 54
        E 16 b9 04 44
        E 13 b9 04 34
        E 58 b9 04 22
        E 80 89 24 40
        E 7 b9 04 12
        E 65 89 2c 40
        E 70 b9 04 22
        E 51 b9 04 32
        E 138 b9 04 3a
        E 157 b9 04 2e
        E 82 99 24 67
        E 100 b9 04 27
        E 141 89 24 40
        E 180 b9 04 1d
        E 10 99 26 7f
        E 93 99 28 75
        E 57 b9 04 18
        E 57 b9 04 29
        E 34 89 26 40
        E 96 89 28 40
        E 15 b9 04 18
        E 201 b9 04 29
        E 33 b9 04 3a
        E 32 b9 04 4a
        E 12 b9 04 4f
        E 3 99 2c 08
        E 140 b9 04 3a
        E 33 b9 04 29
        E 36 b9 04 18
        E 32 89 2c 40
        E 7 b9 04 06
        E 5 99 24 59
        E 22 b9 04 00
        E 222 89 24 40
        E 132 99 2d 7f
        E 10 99 30 7f
        E 19 b9 04 12
        E 42 b9 04 22
        E 12 b9 04 32
        E 10 b9 04 43
        E 2 b9 04 4c
        E 2 99 2c 26
        E 3 b9 04 53
        E 22 b9 04 43
        E 4 b9 04 32
        E 14 b9 04 20
        E 105 89 2d 40
        E 9 89 30 40
        E 85 89 2c 40
        E 3 b9 04 27
        E 89 b9 04 15
        E 84 b9 04 03
        E 32 b9 04 00
        E 218 b9 04 12
        E 28 b9 04 22
        E 19 b9 04 32
        E 51 b9 04 22
        E 95 b9 04 32
        E 164 b9 04 22
        E 36 b9 04 12
        E 34 99 24 5c
        E 24 b9 04 00
        E 220 89 24 40
        E 104 b9 04 12
        E 9 99 26 7f
        E 15 b9 04 22
        E 22 b9 04 32
        E 7 b9 04 44
        E 2 b9 04 4c
        E 3 99 2c 26
        E 2 b9 04 55
        E 17 b9 04 44
        E 7 b9 04 34
        E 12 89 26 40
        E 3 99 26 7f
        E 2 b9 04 22
        E 121 b9 04 1d
        E 46 b9 04 2e
        E 31 89 2c 40
        E 41 89 26 40
        E 82 99 24 5c
        E 17 b9 04 1d
        E 63 b9 04 0c
        E 34 b9 04 00
        E 130 89 24 40
        E 155 99 2d 7f
        E 5 b9 04 12
        E 7 99 30 7f
        E 12 b9 04 25
        E 13 b9 04 36
        E 12 b9 04 46
        E 2 b9 04 4c
        E 3 99 2c 1c
        E 4 b9 04 56
        E 17 b9 04 46
        E 7 b9 04 36
        E 44 b9 04 25
        E 77 b9 04 36
        E 41 89 2d 40
        E 12 89 30 40
        E 41 89 2c 40
        E 90 b9 04 22
        E 19 99 24 61
        E 17 b9 04 12
        E 48 b9 04 00
        E 179 89 24 40
        E 157 99 2d 7f
        E 15 b9 04 12
        E 24 b9 04 22
        E 7 b9 04 32
        E 5 b9 04 43
        E 22 b9 04 32
        E 9 b9 04 20
        E 27 b9 04 0f
        E 135 89 2d 40
        E 52 b9 04 20
        E 21 b9 04 30
        E 36 b9 04 41
        E 31 99 29 7f
        E 34 99 2d 7f
        E 58 b9 04 30
        E 22 b9 04 20
        E 36 b9 04 0f
        E 29 b9 04 00
        E 65 89 29 40
        E 32 89 2d 40
        E 154 99 24 71
        E 17 b9 04 12
        E 20 b9 04 22
        E 16 b9 04 32
        E 8 b9 04 43
        E 2 b9 04 4c
        E 3 99 2c 22
        E 4 b9 04 54
        E 20 b9 04 44
        E 12 b9 04 34
        E 62 b9 04 22
        E 80 89 24 40
        E 2 b9 04 12
        E 63 89 2c 40
        E 138 b9 04 22
        E 32 b9 04 32
        E 36 b9 04 43
        E 34 b9 04 4f
        E 2 99 2c 08
        E 17 b9 04 53
        E 152 b9 04 43
        E 34 b9 04 32
        E 21 b9 04 22
        E 7 99 24 5f
        E 13 89 2c 40
        E 19 b9 04 12
        E 51 b9 04 00
        E 160 89 24 40
        E 207 99 26 7f
        E 3 b9 04 12
        E 14 b9 04 22
        E 36 b9 04 32
        E 10 b9 04 44
        E 2 b9 04 4c
        E 3 99 2c 2c
        E 3 b9 04 54
        E 16 b9 04 44
        E 5 b9 04 34
        E 12 b9 04 20
        E 5 89 26 40
        E 2 99 26 7f
        E 58 b9 04 0f
        E 143 89 2c 40
        E 41 89 26 40
        E 85 b9 04 20
        E 34 b9 04 30
        E 34 b9 04 41
        E 23 b9 04 4d
        E 3 99 2c 0a
        E 12 b9 04 51
        E 135 b9 04 58
        E 41 b9 04 47
        E 30 b9 04 36
        E 26 89 2c 40
        E 5 b9 04 22
        E 34 b9 04 12
        E 36 99 24 5c
        E 14 b9 04 00
        E 229 89 24 40
        E 151 b9 04 12
        E 2 99 2d 7f
        E 8 b9 04 25
        E 4 99 30 7f
        E 36 b9 04 36
        E 10 b9 04 47
        E 3 b9 04 4d
        E 2 99 2c 2c
        E 2 b9 04 58
        E 17 b9 04 47
        E 7 b9 04 36
        E 10 b9 04 25
        E 121 b9 04 1d
        E 24 89 2d 40
        E 12 89 30 40
        E 51 89 2c 40
        E 11 b9 04 2e
        E 252 b9 04 1d
        E 90 b9 04 0c
        E 65 b9 04 00
        E 132 b9 04 12
        E 30 b9 04 25
        E 21 b9 04 36
        E 18 b9 04 46
        E 7 b9 04 4c
        E 2 99 2c 10
        E 67 b9 04 36
        E 177 89 2c 40
        E 75 b9 04 3c
        E 53 b9 04 2c
        E 5 99 24 53
        E 36 b9 04 1a
        E 41 b9 04 09
        E 27 b9 04 00
        E 137 89 24 40
        E 90 99 26 7f
        E 63 b9 04 12
        E 19 b9 04 22
        E 3 99 28 6d
        E 9 b9 04 32
        E 5 b9 04 43
        E 2 b9 04 4c
        E 2 99 2c 24
        E 25 b9 04 32
        E 9 b9 04 22
        E 107 89 26 40
        E 40 b9 04 32
        E 44 89 28 40
        E 18 89 2c 40
        E 94 b9 04 22
        E 9 99 24 55
        E 46 b9 04 12
        E 75 b9 04 00
        E 123 89 24 40
        E 172 99 30 7f
        E 17 b9 04 12
        E 16 99 2d 7f
        E 15 b9 04 22
        E 15 b9 04 32
        E 36 b9 04 20
        E 46 b9 04 0f
        E 99 89 30 40
        E 29 89 2d 40
        E 126 99 30 7f
        E 9 99 2d 7f
        E 8 b9 04 20
        E 84 b9 04 30
        E 142 89 30 40
        E 11 89 2d 40
        E 142 b9 04 20
        E 24 99 2d 7f
        E 2 99 30 7f
        E 239 89 2d 40
        E 3 89 30 40
        E 118 99 2d 7f
        E 7 b9 04 30
        E 34 b9 04 41
        E 8 99 30 7f
        E 24 b9 04 4c
        E 2 99 2c 08
        E 143 b9 04 30
        E 24 b9 04 20
        E 2 89 2d 40
        E 27 b9 04 0f
        E 21 89 30 40
        E 8 b9 04 00
        E 19 89 2c 40
        E 170 99 24 7e
        E 70 b9 04 12
        E 14 b9 04 22
        E 7 b9 04 32
        E 7 b9 04 43
        E 5 b9 04 4c
        E 3 99 2c 20
        E 4 b9 04 53
        E 22 b9 04 43
        E 41 b9 04 32
        E 71 b9 04 22
        E 0 89 24 40
        E 106 89 2c 40
        E 31 b9 04 18
        E 155 b9 04 29
        E 21 b9 04 3a
        E 30 b9 04 4a
        E 14 b9 04 4f
        E 2 99 2c 0a
        E 160 b9 04 3a
        E 24 99 24 5d
        E 5 b9 04 29
        E 34 b9 04 18
        E 21 89 2c 40
        E 24 b9 04 06
        E 27 b9 04 00
        E 133 89 24 40
        E 181 99 26 7f
        E 73 b9 04 12
        E 36 b9 04 22
        E 10 99 28 7a
        E 4 b9 04 32
        E 7 b9 04 44
        E 3 b9 04 4c
        E 2 99 2c 2c
        E 3 b9 04 54
        E 17 b9 04 44
        E 7 b9 04 32
        E 9 b9 04 20
        E 71 89 26 40
        E 58 b9 04 15
        E 62 89 28 40
        E 17 89 2c 40
        E 102 b9 04 25
        E 58 b9 04 36
        E 31 b9 04 46
        E 15 b9 04 4f
        E 2 99 2c 0a
        E 12 b9 04 56
        E 162 b9 04 46
        E 24 b9 04 36
        E 27 b9 04 25
        E 17 89 2c 40
        E 12 b9 04 15
        E 34 b9 04 03
        E 9 99 24 6c
        E 3 b9 04 00
        E 242 89 24 40
        E 135 99 2d 7f
        E 5 b9 04 12
        E 14 99 30 7f
        E 39 b9 04 22
        E 9 b9 04 32
        E 8 b9 04 44
        E 0 b9 04 4c
        E 4 b9 04 54
        E 0 99 2c 2e
        E 13 b9 04 44
        E 4 b9 04 34
        E 10 b9 04 20
        E 24 b9 04 0f
        E 111 89 2d 40
        E 20 89 30 40
        E 60 89 2c 40
        E 167 b9 04 20
        E 139 b9 04 2c
        E 285 b9 04 3c
        E 33 b9 04 4c
        E 7 b9 04 4f
        E 2 99 2c 0c
        E 39 b9 04 5c
        E 109 b9 04 4c
        E 28 b9 04 3c
        E 34 b9 04 2c
        E 24 99 24 5c
        E 7 b9 04 1a
        E 2 89 2c 40
        E 35 b9 04 09
        E 19 b9 04 00
        E 182 89 24 40
        E 156 b9 04 12
        E 5 99 26 7f
        E 13 b9 04 25
        E 33 b9 04 36
        E 10 b9 04 46
        E 2 b9 04 4d
        E 3 99 2c 28
        E 1 b9 04 56
        E 22 b9 04 46
        E 5 b9 04 36
        E 2 99 28 70
        E 23 b9 04 25
        E 130 89 26 40
        E 59 89 2c 40
        E 30 89 28 40
        E 44 b9 04 2c
        E 51 b9 04 1a
        E 24 99 24 58
        E 25 b9 04 09
        E 21 b9 04 00
        E 193 89 24 40
        E 140 99 30 7f
        E 8 99 2d 7f
        E 24 b9 04 12
        E 43 b9 04 22
        E 19 b9 04 32
        E 12 b9 04 43
        E 10 b9 04 4c
        E 3 99 2c 12
        E 22 b9 04 32
        E 12 b9 04 22
        E 50 b9 04 12
        E 39 89 30 40
        E 10 89 2d 40
        E 111 89 2c 40
        E 53 99 30 7f
        E 16 99 2d 7f
        E 42 b9 04 22
        E 80 b9 04 32
        E 106 89 30 40
        E 16 89 2d 40
        E 138 99 2d 7f
        E 5 99 30 7f
        E 131 b9 04 29
        E 108 89 2d 40
        E 5 89 30 40
        E 143 99 2d 7f
        E 22 b9 04 3a
        E 7 99 30 7f
        E 126 b9 04 44
        E 80 b9 04 34
        E 9 89 2d 40
        E 28 89 30 40
        E 29 b9 04 22
        E 90 b9 04 12
        E 68 99 24 7d
        E 171 b9 04 22
        E 73 89 24 40
        E 87 b9 04 15
        E 224 b9 04 25
        E 56 b9 04 36
        E 51 b9 04 46
        E 121 b9 04 36
        E 40 b9 04 25
        E 6 99 24 68
        E 33 b9 04 15
        E 63 b9 04 03
        E 15 b9 04 00
        E 133 89 24 40
        E 202 99 26 7f
        E 27 b9 04 12
        E 39 b9 04 25
        E 17 b9 04 36
        E 9 b9 04 46
        E 3 b9 04 4c
        E 2 99 2c 1e
        E 5 b9 04 56
        E 17 99 28 7f
        E 17 b9 04 46
        E 29 b9 04 36
        E 31 b9 04 25
        E 34 b9 04 15
        E 12 89 26 40
        E 68 b9 04 03
        E 26 89 2c 40
        E 27 89 28 40
        E 162 b9 04 15
        E 55 b9 04 25
        E 30 b9 04 36
        E 49 b9 04 46
        E 115 b9 04 36
        E 34 b9 04 25
        E 31 b9 04 15
        E 51 b9 04 03
        E 16 99 24 56
        E 3 b9 04 00
        E 242 89 24 40
        E 142 b9 04 12
        E 8 99 30 7f
        E 2 99 2d 7f
        E 4 b9 04 22
        E 37 b9 04 32
        E 12 b9 04 43
        E 3 b9 04 4c
        E 2 99 2c 20
        E 4 b9 04 54
        E 20 b9 04 43
        E 7 b9 04 32
        E 15 b9 04 22
        E 113 b9 04 12
        E 24 89 30 40
        E 3 89 2d 40
        E 57 89 2c 40
        E 100 b9 04 22
        E 63 b9 04 32
        E 147 b9 04 3a
        E 104 b9 04 29
        E 73 b9 04 18
        E 221 b9 04 29
        E 17 b9 04 3a
        E 18 b9 04 4a
        E 7 b9 04 4f
        E 2 99 2c 0e
        E 15 b9 04 5a
        E 148 b9 04 4a
        E 28 b9 04 3a
        E 26 b9 04 29
        E 27 89 2c 40
        E 5 b9 04 18
        E 7 99 24 57
        E 39 b9 04 06
        E 27 b9 04 00
        E 178 89 24 40
        E 126 99 26 7f
        E 36 b9 04 12
        E 38 b9 04 22
        E 10 b9 04 32
        E 8 b9 04 44
        E 2 b9 04 4c
        E 3 99 2c 26
        E 7 89 26 40
        E 2 99 26 7f
        E 12 b9 04 32
        E 8 b9 04 20
        E 188 b9 04 30
        E 27 89 2c 40
        E 7 89 26 40
        E 116 b9 04 20
        E 2 99 24 5c
        E 63 b9 04 0f
        E 44 b9 04 00
        E 135 89 24 40
        E 203 b9 04 12
        E 9 99 30 7d
        E 10 99 2d 7f
        E 32 b9 04 22
        E 14 b9 04 32
        E 7 b9 04 43
        E 8 b9 04 4c
        E 3 99 2c 1e
        E 16 b9 04 32
        E 8 b9 04 22
        E 21 b9 04 12
        E 125 89 30 40
        E 8 89 2d 40
        E 63 89 2c 40
        E 86 99 30 7f
        E 20 99 2d 7f
        E 2 b9 04 22
        E 53 b9 04 32
        E 131 b9 04 3f
        E 39 89 30 40
        E 17 89 2d 40
        E 45 b9 04 2e
        E 97 99 30 7f
        E 29 99 2d 7f
        E 24 b9 04 20
        E 188 89 30 40
        E 29 89 2d 40
        E 141 b9 04 30
        E 4 99 2d 7f
        E 22 99 30 7f
        E 159 b9 04 20
        E 63 89 2d 40
        E 22 89 30 40
        E 114 b9 04 18
        E 41 99 24 6c
        E 234 b9 04 1d
        E 10 89 24 40
        E 336 b9 04 2c
        E 79 b9 04 3c
        E 177 b9 04 2c
        E 7 99 24 68
        E 38 b9 04 1a
        E 51 b9 04 09
        E 32 b9 04 00
        E 123 89 24 40
        E 174 99 26 7f
        E 53 b9 04 12
        E 12 b9 04 25
        E 29 99 28 7f
        E 10 b9 04 36
        E 7 b9 04 47
        E 3 b9 04 4c
        E 2 99 2c 22
        E 3 b9 04 57
        E 21 b9 04 46
        E 7 b9 04 36
        E 46 b9 04 25
        E 41 b9 04 15
        E 10 89 26 40
        E 94 89 28 40
        E 20 89 2c 40
        E 38 b9 04 09
        E 97 b9 04 1a
        E 36 b9 04 2c
        E 24 b9 04 3c
        E 32 b9 04 4c
        E 4 b9 04 4d
        E 3 99 2c 0a
        E 125 b9 04 3c
        E 30 b9 04 2c
        E 28 b9 04 1a
        E 27 99 24 65
        E 10 b9 04 09
        E 22 89 2c 40
        E 2 b9 04 00
        E 208 89 24 40
        E 198 99 2d 7f
        E 2 99 30 7f
        E 27 b9 04 12
        E 22 b9 04 22
        E 36 b9 04 32
        E 5 b9 04 43
        E 4 b9 04 4c
        E 3 99 2c 2c
        E 17 b9 04 30
        E 7 b9 04 20
        E 19 b9 04 0f
        E 100 89 2d 40
        E 2 89 30 40
        E 89 b9 04 18
        E 8 89 2c 40
        E 77 b9 04 29
        E 150 b9 04 32
        E 96 b9 04 22
        E 75 b9 04 12
        E 150 b9 04 03
        E 56 b9 04 15
        E 19 b9 04 25
        E 17 b9 04 36
        E 17 b9 04 46
        E 7 b9 04 4d
        E 2 99 2c 10
        E 10 b9 04 56
        E 127 b9 04 46
        E 40 b9 04 36
        E 41 b9 04 25
        E 24 89 2c 40
        E 14 b9 04 15
        E 0 99 24 56
        E 52 b9 04 03
        E 13 b9 04 00
        E 177 89 24 40
        E 131 99 26 7f
        E 16 b9 04 12
        E 22 b9 04 22
        E 12 b9 04 32
        E 10 b9 04 43
        E 5 b9 04 4c
        E 2 99 2c 1e
        E 5 89 26 40
        E 2 99 26 7f
        E 11 b9 04 32
        E 11 b9 04 20
        E 130 b9 04 1a
        E 52 b9 04 2c
        E 33 89 2c 40
        E 2 89 26 40
        E 117 99 24 56
        E 36 b9 04 1a
        E 53 b9 04 09
        E 31 b9 04 00
        E 121 89 24 40
        E 196 99 29 7f
        E 4 b9 04 12
        E 18 b9 04 22
        E 7 99 2d 7f
        E 22 b9 04 32
        E 9 b9 04 43
        E 7 b9 04 4c
        E 2 99 2c 1a
        E 3 b9 04 53
        E 37 b9 04 43
        E 31 b9 04 32
        E 29 b9 04 22
        E 55 b9 04 12
        E 18 89 29 40
        E 26 89 2d 40
        E 43 89 2c 40
        E 102 99 29 7f
        E 34 99 2d 7f
        E 82 b9 04 22
        E 128 89 29 40
        E 33 89 2d 40
        E 51 b9 04 12
        E 107 99 29 7f
        E 25 99 2d 7f
        E 65 b9 04 0c
        E 152 89 29 40
        E 26 89 2d 40
        E 12 b9 04 1d
        E 116 99 29 7f
        E 20 99 2d 7f
        E 159 b9 04 2e
        E 65 89 29 40
        E 17 89 2d 40
        E 41 b9 04 1d
        E 73 b9 04 0c
        E 57 b9 04 00
        E 5 99 24 59
        E 186 b9 04 12
        E 42 b9 04 22
        E 16 89 24 40
        E 73 b9 04 12
        E 304 b9 04 22
        E 39 b9 04 32
        E 48 b9 04 43
        E 117 b9 04 32
        E 5 99 24 57
        E 28 b9 04 22
        E 49 b9 04 12
        E 53 b9 04 00
        E 115 89 24 40
        E 204 99 26 7f
        E 45 b9 04 12
        E 44 b9 04 22
        E 10 b9 04 32
        E 10 b9 04 43
        E 4 89 26 40
        E 3 99 26 7f
        E 2 b9 04 4c
        E 2 99 2c 1e
        E 22 b9 04 32
        E 36 b9 04 22
        E 51 b9 04 12
        E 128 89 26 40
        E 5 89 2c 40
        E 41 b9 04 09
        E 82 b9 04 1a
        E 32 b9 04 2c
        E 21 b9 04 3c
        E 24 b9 04 4c
        E 2 b9 04 4d
        E 3 99 2c 0c
        E 149 b9 04 3c
        E 27 b9 04 2c
        E 29 b9 04 1a
        E 34 b9 04 09
        E 3 89 2c 40
        E 22 99 24 60
        E 4 b9 04 00
        E 240 89 24 40
        E 168 99 2d 7f
        E 10 99 30 7f
        E 3 b9 04 12
        E 9 b9 04 25
        E 34 b9 04 36
        E 10 b9 04 46
        E 2 b9 04 4d
        E 2 99 2c 2a
        E 3 b9 04 58
        E 17 b9 04 47
        E 7 b9 04 36
        E 12 b9 04 25
        E 124 b9 04 1d
        E 12 89 2d 40
        E 9 89 30 40
        E 61 89 2c 40
        E 108 b9 04 2e
        E 261 b9 04 1d
        E 158 b9 04 0f
        E 113 b9 04 20
        E 22 b9 04 30
        E 19 b9 04 41
        E 14 b9 04 4d
        E 3 99 2c 0e
        E 203 b9 04 30
        E 38 89 2c 40
        E 5 b9 04 20
        E 20 99 24 52
        E 43 b9 04 0f
        E 48 b9 04 00
        E 150 89 24 40
        E 114 99 26 7f
        E 43 b9 04 12
        E 24 b9 04 22
        E 7 b9 04 32
        E 13 b9 04 43
        E 2 b9 04 4c
        E 2 99 2c 1e
        E 3 b9 04 53
        E 21 b9 04 43
        E 8 99 28 7f
        E 2 b9 04 32
        E 48 b9 04 22
        E 70 89 26 40
        E 61 b9 04 18
        E 29 89 2c 40
        E 32 b9 04 29
        E 2 89 28 40
        E 85 99 24 4a
        E 48 b9 04 30
        E 50 b9 04 20
        E 68 b9 04 0f
        E 46 b9 04 00
        E 31 89 24 40
        E 213 99 2d 7f
        E 10 b9 04 12
        E 4 99 30 73
        E 15 b9 04 25
        E 15 b9 04 36
        E 14 b9 04 46
        E 5 b9 04 4c
        E 2 99 2c 14
        E 8 b9 04 56
        E 29 b9 04 46
        E 38 b9 04 36
        E 104 89 2d 40
        E 14 89 30 40
        E 13 b9 04 2c
        E 38 89 2c 40
        E 12 b9 04 3c
        E 107 99 24 54
        E 56 b9 04 2c
        E 48 b9 04 1a
        E 44 b9 04 09
        E 26 b9 04 00
        E 70 89 24 40
        E 133 99 26 7f
        E 85 89 26 40
        E 2 99 26 7f
        E 2 b9 04 12
        E 34 b9 04 25
        E 7 b9 04 36
        E 5 b9 04 46
        E 5 b9 04 4c
        E 2 99 2c 24
        E 13 b9 04 36
        E 7 b9 04 25
        E 12 b9 04 15
        E 144 b9 04 25
        E 10 89 26 40
        E 58 89 2c 40
        E 109 b9 04 15
        E 60 b9 04 03
        E 10 b9 04 00
        E 358 99 24 7f
        E 2 99 31 7f
        E 2 b9 04 12
        E 7 b9 04 25
        E 5 99 3b 7f
        E 29 b9 04 36
        E 13 b9 04 46
        E 2 b9 04 4d
        E 1 99 2c 24
        E 1 b9 04 56
        E 17 b9 04 46
        E 5 b9 04 36
        E 12 b9 04 25
        E 148 89 24 40
        E 2 89 31 40
        E 14 89 3b 40
        E 44 89 2c 40
        E 58 b9 04 29
        E 77 b9 04 18
        E 71 b9 04 06
        E 26 b9 04 00
        E 247 b9 04 12
        E 19 b9 04 22
        E 14 b9 04 32
        E 10 b9 04 43
        E 29 b9 04 32
        E 125 b9 04 2e
        E 44 b9 04 3e
        E 67 b9 04 4c
        E 4 99 2c 06
        E 67 b9 04 47
        E 60 99 24 47
        E 9 b9 04 36
        E 61 b9 04 22
        E 44 89 2c 40
        E 29 b9 04 12
        E 99 89 24 40
        E 7 b9 04 00
        E 280 b9 04 12
        E 35 b9 04 22
        E 11 b9 04 32
        E 7 b9 04 43
        E 7 b9 04 4c
        E 3 99 2c 1e
        E 17 b9 04 32
        E 14 b9 04 22
        E 34 b9 04 32
        E 174 89 2c 40
        E 3 b9 04 22
        E 53 b9 04 12
        E 99 b9 04 00
        E 234 99 26 7f
        E 63 b9 04 12
        E 24 b9 04 22
        E 14 b9 04 32
        E 13 b9 04 43
        E 5 99 28 48
        E 2 b9 04 4c
        E 3 99 2c 1a
        E 21 b9 04 32
        E 10 b9 04 22
        E 89 89 26 40
        E 116 89 28 40
        E 5 89 2c 40
        E 5 b9 04 2e
        E 87 b9 04 1d
        E 96 b9 04 0c
        E 58 b9 04 00
        E 247 b9 04 12
        E 27 b9 04 25
        E 11 b9 04 36
        E 34 b9 04 25
        E 99 b9 04 36
        E 138 b9 04 3e
        E 43 b9 04 2e
        E 30 99 24 51
        E 12 b9 04 1d
        E 53 b9 04 0c
        E 43 b9 04 00
        E 133 89 24 40
        E 164 99 2d 7f
        E 3 b9 04 12
        E 6 99 30 7f
        E 28 b9 04 22
        E 12 b9 04 32
        E 12 b9 04 43
        E 2 b9 04 4c
        E 2 99 2c 1e
        E 3 b9 04 54
        E 24 b9 04 44
        E 7 b9 04 34
        E 46 b9 04 22
        E 102 89 2d 40
        E 7 89 30 40
        E 20 b9 04 32
        E 33 89 2c 40
        E 121 99 24 4c
        E 26 b9 04 22
        E 46 b9 04 12
        E 41 b9 04 00
        E 126 89 24 40
        E 143 99 26 68
        E 38 b9 04 12
        E 15 b9 04 22
        E 27 89 26 40
        E 2 99 26 7f
        E 3 b9 04 32
        E 7 b9 04 44
        E 4 b9 04 4d
        E 3 99 2c 26
        E 2 b9 04 54
        E 15 b9 04 44
        E 5 b9 04 34
        E 9 b9 04 22
        E 181 b9 04 32
        E 10 89 26 40
        E 20 89 2c 40
        E 101 b9 04 22
        E 7 99 24 5b
        E 49 b9 04 12
        E 53 b9 04 00
        E 142 89 24 40
        E 150 99 2d 7f
        E 7 99 30 7f
        E 29 b9 04 12
        E 44 b9 04 22
        E 9 b9 04 32
        E 5 b9 04 43
        E 3 b9 04 4c
        E 2 99 2c 26
        E 17 b9 04 32
        E 7 b9 04 20
        E 19 b9 04 0f
        E 102 89 2d 40
        E 7 89 30 40
        E 42 b9 04 20
        E 49 89 2c 40
        E 81 b9 04 27
        E 50 b9 04 15
        E 56 b9 04 03
        E 12 b9 04 00
        E 334 99 24 7f
        E 2 b9 04 12
        E 5 99 31 7f
        E 2 b9 04 25
        E 10 99 33 7f
        E 2 b9 04 36
        E 29 b9 04 47
        E 3 b9 04 4c
        E 2 99 2c 20
        E 22 b9 04 36
        E 12 b9 04 25
        E 154 89 24 40
        E 8 89 31 40
        E 12 89 33 40
        E 14 b9 04 36
        E 20 89 2c 40
        E 118 b9 04 25
        E 58 b9 04 15
        E 118 b9 04 03
        E 39 b9 04 00
        E 111 b9 04 12
        E 27 b9 04 22
        E 14 b9 04 32
        E 17 b9 04 43
        E 10 b9 04 4c
        E 2 99 2c 0e
        E 7 b9 04 53
        E 235 89 2c 40
        E 237 b9 04 5c
        E 427 b9 04 58
        E 305 b9 04 47
        E 51 b9 04 36
        E 53 b9 04 25
        E 67 b9 04 15
        E 53 b9 04 03
        E 24 b9 04 00
        E 199 b9 04 12
        E 21 b9 04 22
        E 12 b9 04 32
        E 13 b9 04 43
        E 2 99 26 7f
        E 7 b9 04 4c
        E 2 99 2c 14
        E 15 b9 04 53
        E 46 b9 04 43
        E 16 89 26 40
        E 3 99 26 7f
        E 17 b9 04 32
        E 136 b9 04 27
        E 11 89 2c 40
        E 78 89 26 40
        E 36 b9 04 38
        E 170 b9 04 3c
        E 115 99 24 1b
        E 65 b9 04 36
        E 160 b9 04 46
        E 19 89 24 40
        E 8 b9 04 4f
        E 2 99 2c 08
        E 36 b9 04 56
        E 147 b9 04 5e
        E 61 89 2c 40
        E 7 b9 04 4d
        E 41 b9 04 3c
        E 32 b9 04 2c
        E 12 99 24 60
        E 22 b9 04 1a
        E 41 b9 04 09
        E 29 b9 04 00
        E 150 89 24 40
        E 133 99 2d 7f
        E 21 99 30 7f
        E 2 b9 04 12
        E 7 b9 04 25
        E 18 b9 04 36
        E 19 b9 04 46
        E 4 b9 04 4d
        E 3 99 2c 1a
        E 3 b9 04 56
        E 9 b9 04 66
        E 17 b9 04 56
        E 8 b9 04 46
        E 40 b9 04 36
        E 28 b9 04 25
        E 62 89 2d 40
        E 22 89 30 40
        E 43 b9 04 20
        E 7 89 2c 40
        E 39 b9 04 30
        E 48 b9 04 41
        E 61 99 24 4a
        E 70 b9 04 30
        E 33 b9 04 20
        E 44 b9 04 0f
        E 34 b9 04 00
        E 60 89 24 40
        E 133 99 26 75
        E 58 89 26 40
        E 2 99 26 7f
        E 3 b9 04 12
        E 19 b9 04 25
        E 12 b9 04 36
        E 10 b9 04 46
        E 3 b9 04 4c
        E 2 99 2c 18
        E 9 b9 04 56
        E 27 b9 04 46
        E 25 b9 04 36
        E 48 b9 04 25
        E 84 89 26 40
        E 34 b9 04 36
        E 15 89 2c 40
        E 103 99 24 52
        E 35 b9 04 25
        E 45 b9 04 15
        E 61 b9 04 03
        E 12 b9 04 00
        E 91 89 24 40
        E 145 99 30 7f
        E 3 99 2d 7f
        E 34 b9 04 12
        E 29 b9 04 22
        E 14 b9 04 32
        E 9 b9 04 44
        E 5 b9 04 4c
        E 3 99 2c 22
        E 2 b9 04 54
        E 22 b9 04 44
        E 8 b9 04 34
        E 19 b9 04 22
        E 97 89 30 40
        E 2 89 2d 40
        E 53 b9 04 32
        E 38 89 2c 40
        E 134 b9 04 22
        E 43 b9 04 12
        E 46 b9 04 00
        E 309 99 24 7f
        E 3 b9 04 12
        E 2 99 31 7f
        E 7 b9 04 25
        E 10 99 3b 7f
        E 2 b9 04 36
        E 27 b9 04 46
        E 2 b9 04 4c
        E 3 99 2c 1e
        E 5 b9 04 56
        E 4 b9 04 66
        E 14 b9 04 55
        E 8 b9 04 44
        E 17 b9 04 34
        E 45 b9 04 20
        E 95 89 24 40
        E 5 89 31 40
        E 17 89 3b 40
        E 34 89 2c 40
        E 19 b9 04 30
        E 133 b9 04 38
        E 73 b9 04 27
        E 91 b9 04 15
        E 138 b9 04 03
        E 46 b9 04 00
        E 172 b9 04 12
        E 25 b9 04 22
        E 11 b9 04 32
        E 9 b9 04 43
        E 17 b9 04 32
        E 7 b9 04 22
        E 107 b9 04 32
        E 174 b9 04 22
        E 75 b9 04 12
        E 157 b9 04 00
        E 159 b9 04 12
        E 19 b9 04 22
        E 10 b9 04 32
        E 16 b9 04 43
        E 9 b9 04 4c
        E 2 99 2c 12
        E 7 b9 04 53
        E 29 b9 04 63
        E 130 b9 04 53
        E 39 b9 04 43
        E 36 b9 04 32
        E 2 89 2c 40
        E 25 b9 04 22
        E 41 b9 04 12
        E 75 b9 04 00
        E 396 99 26 7f
        E 10 b9 04 12
        E 14 b9 04 22
        E 5 b9 04 34
        E 5 b9 04 46
        E 2 b9 04 4d
        E 3 99 2c 40
        E 2 b9 04 56
        E 12 b9 04 46
        E 5 b9 04 36
        E 5 b9 04 22
        E 24 89 26 40
        E 3 99 26 7f
        E 190 89 2c 40
        E 51 89 26 40
        E 34 b9 04 12
        E 128 b9 04 00
        E 256 b9 04 12
        E 24 b9 04 25
        E 20 b9 04 36
        E 12 b9 04 46
        E 9 b9 04 4c
        E 3 99 2c 12
        E 17 b9 04 36
        E 65 b9 04 25
        E 92 b9 04 36
        E 50 b9 04 46
        E 18 89 2c 40
        E 118 b9 04 36
        E 38 b9 04 22
        E 47 b9 04 12
        E 7 99 24 6c
        E 45 b9 04 00
        E 197 89 24 40
        E 120 b9 04 12
        E 14 b9 04 22
        E 20 99 2d 7f
        E 2 b9 04 32
        E 3 99 30 7f
        E 11 b9 04 43
        E 3 b9 04 4c
        E 3 99 2c 24
        E 5 b9 04 54
        E 4 b9 04 65
        E 12 b9 04 54
        E 5 b9 04 44
        E 7 b9 04 34
        E 41 b9 04 22
        E 145 89 2d 40
        E 5 89 30 40
        E 19 89 2c 40
        E 10 b9 04 32
        E 48 b9 04 43
        E 107 b9 04 32
        E 2 99 24 50
        E 34 b9 04 22
        E 48 b9 04 12
        E 46 b9 04 00
        E 116 89 24 40
        E 111 99 26 75
        E 63 89 26 40
        E 2 99 26 7f
        E 5 b9 04 12
        E 10 b9 04 22
        E 10 b9 04 32
        E 26 b9 04 43
        E 5 b9 04 4c
        E 3 99 2c 1e
        E 2 b9 04 54
        E 5 b9 04 65
        E 14 b9 04 54
        E 8 b9 04 44
        E 7 b9 04 34
        E 147 89 26 40
        E 56 89 2c 40
        E 45 b9 04 22
        E 42 99 24 58
        E 11 b9 04 12
        E 61 b9 04 00
        E 169 89 24 40
        E 140 99 2d 7f
        E 8 99 30 7f
        E 34 b9 04 12
        E 11 b9 04 22
        E 39 b9 04 32
        E 3 b9 04 43
        E 5 b9 04 4d
        E 2 99 2c 2c
        E 5 b9 04 54
        E 12 b9 04 44
        E 4 b9 04 32
        E 8 b9 04 20
        E 111 89 2d 40
        E 10 89 30 40
        E 31 b9 04 30
        E 60 89 2c 40
        E 111 b9 04 20
        E 46 b9 04 0f
        E 35 b9 04 00
        E 337 99 24 7f
        E 3 b9 04 12
        E 5 99 31 7f
        E 2 b9 04 25
        E 5 b9 04 36
        E 7 99 33 7f
        E 23 b9 04 46
        E 4 b9 04 4c
        E 2 99 2c 1c
        E 2 b9 04 57
        E 17 b9 04 47
        E 8 b9 04 36
        E 14 b9 04 25
        E 63 b9 04 36
        E 90 89 24 40
        E 7 89 31 40
        E 14 89 33 40
        E 27 89 2c 40
        E 36 b9 04 25
        E 36 b9 04 15
        E 42 b9 04 03
        E 9 b9 04 00
        E 353 b9 04 12
        E 7 b9 04 25
        E 31 99 33 6d
        E 3 99 24 6c
        E 7 b9 04 36
        E 10 b9 04 46
        E 2 b9 04 4c
        E 5 99 2c 1e
        E 14 b9 04 36
        E 10 b9 04 22
        E 95 b9 04 32
        E 82 b9 04 22
        E 16 89 33 40
        E 2 89 24 40
        E 25 89 2c 40
        E 17 b9 04 12
        E 65 b9 04 00
        E 124 99 28 6c
        E 202 b9 04 12
        E 12 b9 04 22
        E 27 89 28 40
        E 2 b9 04 32
        E 39 b9 04 22
        E 16 b9 04 12
        E 97 99 33 5d
        E 85 b9 04 22
        E 23 b9 04 32
        E 36 b9 04 43
        E 26 b9 04 4c
        E 2 99 2c 08
        E 73 89 33 40
        E 55 b9 04 32
        E 24 b9 04 22
        E 29 b9 04 12
        E 35 b9 04 00
        E 5 99 24 71
        E 23 89 2c 40
        E 220 89 24 40
        E 128 b9 04 12
        E 7 b9 04 22
        E 5 b9 04 32
        E 17 99 26 7f
        E 22 99 33 7f
        E 2 b9 04 44
        E 3 b9 04 4c
        E 2 99 2c 24
        E 17 b9 04 32
        E 7 b9 04 20
        E 16 b9 04 0f
        E 139 b9 04 20
        E 36 89 26 40
        E 19 89 33 40
        E 8 89 2c 40
        E 114 b9 04 0f
        E 45 b9 04 00
        E 322 b9 04 12
        E 36 b9 04 22
        E 14 b9 04 32
        E 7 b9 04 43
        E 5 b9 04 4c
        E 2 99 2c 22
        E 3 99 33 7c
        E 15 b9 04 32
        E 6 b9 04 22
        E 117 b9 04 32
        E 101 b9 04 22
        E 3 89 2c 40
        E 2 89 33 40
        E 53 b9 04 12
        E 51 b9 04 00
        E 97 99 26 7f
        E 239 b9 04 12
        E 5 89 26 40
        E 5 b9 04 25
        E 9 b9 04 36
        E 34 b9 04 46
        E 0 b9 04 4c
        E 2 99 2c 1c
        E 5 b9 04 56
        E 26 b9 04 44
        E 23 b9 04 34
        E 46 b9 04 22
        E 16 99 33 7f
        E 35 b9 04 12
        E 91 89 2c 40
        E 53 b9 04 25
        E 29 b9 04 36
        E 39 89 33 40
        E 111 99 24 5c
        E 17 b9 04 25
        E 34 b9 04 15
        E 36 b9 04 03
        E 7 b9 04 00
        E 150 89 24 40
        E 173 b9 04 12
        E 8 99 26 70
        E 3 b9 04 25
        E 5 b9 04 36
        E 11 99 33 6b
        E 20 b9 04 47
        E 2 b9 04 4c
        E 5 99 2c 1e
        E 3 b9 04 58
        E 16 b9 04 47
        E 10 b9 04 36
        E 37 b9 04 25
        E 130 89 26 40
        E 19 89 33 40
        E 22 b9 04 36
        E 5 89 2c 40
        E 128 b9 04 25
        E 19 99 24 56
        E 22 b9 04 15
        E 38 b9 04 03
        E 15 b9 04 00
        E 167 89 24 40
        E 137 99 33 7f
        E 8 99 26 69
        E 2 b9 04 12
        E 12 b9 04 22
        E 27 b9 04 32
        E 13 b9 04 43
        E 6 b9 04 4c
        E 2 99 2c 2a
        E 3 b9 04 54
        E 17 b9 04 43
        E 7 b9 04 32
        E 7 b9 04 22
        E 141 89 33 40
        E 4 89 26 40
        E 17 b9 04 32
        E 46 89 2c 40
        E 77 b9 04 22
        E 39 b9 04 12
        E 20 99 26 78
        E 21 b9 04 00
        E 221 89 26 40
        E 95 b9 04 12
        E 12 b9 04 25
        E 24 b9 04 36
        E 3 99 24 78
        E 13 b9 04 46
        E 2 b9 04 4c
        E 5 99 2c 1e
        E 6 99 33 7f
        E 15 b9 04 36
        E 12 b9 04 25
        E 61 b9 04 15
        E 128 89 24 40
        E 16 b9 04 25
        E 3 89 2c 40
        E 7 89 33 40
        E 121 b9 04 29
        E 51 b9 04 18
        E 36 b9 04 06
        E 14 b9 04 00
        E 317 b9 04 12
        E 10 99 33 73
        E 2 b9 04 22
        E 5 99 24 6b
        E 7 b9 04 32
        E 27 b9 04 43
        E 24 b9 04 32
        E 6 b9 04 22
        E 52 b9 04 12
        E 118 89 33 40
        E 8 89 24 40
        E 43 b9 04 22
        E 130 99 26 7a
        E 39 b9 04 12
        E 53 b9 04 00
        E 153 89 26 40
        E 144 b9 04 12
        E 13 b9 04 25
        E 26 99 33 7f
        E 5 b9 04 36
        E 36 b9 04 25
        E 70 b9 04 15
        E 95 b9 04 25
        E 36 89 33 40
        E 14 b9 04 36
        E 128 b9 04 22
        E 37 99 24 62
        E 2 b9 04 12
        E 46 b9 04 00
        E 196 89 24 40
        E 147 b9 04 12
        E 7 99 28 7e
        E 3 b9 04 25
        E 7 b9 04 36
        E 29 b9 04 46
        E 2 99 33 7f
        E 2 b9 04 4c
        E 8 99 2c 16
        E 10 b9 04 36
        E 9 b9 04 25
        E 15 b9 04 15
        E 121 b9 04 25
        E 36 89 28 40
        E 43 89 33 40
        E 7 89 2c 40
        E 73 b9 04 15
        E 53 b9 04 03
        E 7 b9 04 00
        E 319 b9 04 12
        E 10 b9 04 22
        E 10 b9 04 32
        E 31 b9 04 43
        E 3 b9 04 4d
        E 2 99 2c 22
        E 3 b9 04 53
        E 7 b9 04 63
        E 12 b9 04 51
        E 9 b9 04 41
        E 15 99 33 79
        E 29 b9 04 30
        E 21 b9 04 20
        E 133 b9 04 15
        E 12 89 2c 40
        E 25 b9 04 25
        E 21 89 33 40
        E 30 b9 04 36
        E 128 b9 04 25
        E 9 99 26 7f
        E 32 b9 04 15
        E 38 b9 04 03
        E 14 b9 04 00
        E 158 89 26 40
        E 115 b9 04 12
        E 25 b9 04 22
        E 14 b9 04 32
        E 10 99 33 4b
        E 1 b9 04 44
        E 5 b9 04 4c
        E 2 99 2c 22
        E 4 b9 04 54
        E 13 b9 04 44
        E 8 b9 04 34
        E 52 b9 04 22
        E 142 b9 04 32
        E 16 89 33 40
        E 5 89 2c 40
        E 20 b9 04 43
        E 119 b9 04 32
        E 26 99 24 68
        E 9 b9 04 22
        E 32 b9 04 12
        E 41 b9 04 00
        E 162 89 24 40
        E 126 99 26 71
        E 31 99 33 7f
        E 20 b9 04 12
        E 4 b9 04 22
        E 5 b9 04 32
        E 5 b9 04 43
        E 31 b9 04 4c
        E 3 99 2c 24
        E 2 b9 04 53
        E 19 b9 04 43
        E 8 b9 04 32
        E 9 b9 04 22
        E 54 b9 04 12
        E 51 89 26 40
        E 33 89 33 40
        E 66 89 2c 40
        E 4 b9 04 22
        E 46 b9 04 32
        E 136 b9 04 22
        E 65 b9 04 12
        E 79 b9 04 00
        E 343 99 33 7f
        E 10 b9 04 12
        E 34 b9 04 25
        E 10 b9 04 36
        E 4 b9 04 47
        E 2 b9 04 4c
        E 3 99 2c 2e
        E 17 b9 04 36
        E 10 b9 04 20
        E 27 b9 04 0f
        E 128 89 33 40
        E 5 b9 04 20
        E 37 b9 04 30
        E 15 89 2c 40
        E 25 b9 04 41
        E 142 b9 04 30
        E 34 b9 04 20
        E 48 b9 04 0f
        E 34 b9 04 00
        E 301 b9 04 12
        E 13 b9 04 22
        E 0 99 24 7e
        E 12 b9 04 32
        E 0 99 33 7f
        E 22 b9 04 43
        E 3 b9 04 4c
        E 2 99 2c 22
        E 5 b9 04 54
        E 17 b9 04 44
        E 5 b9 04 34
        E 16 b9 04 22
        E 95 b9 04 32
        E 67 89 24 40
        E 7 89 33 40
        E 30 89 2c 40
        E 29 b9 04 22
        E 55 b9 04 12
        E 55 b9 04 00
        E 346 b9 04 12
        E 12 b9 04 22
        E 5 b9 04 32
        E 29 99 24 6a
        E 2 b9 04 43
        E 5 b9 04 4c
        E 2 99 2c 1e
        E 2 b9 04 53
        E 3 99 33 7f
        E 15 b9 04 41
        E 7 b9 04 30
        E 13 b9 04 20
        E 79 b9 04 0f
        E 115 89 24 40
        E 11 89 2c 40
        E 2 89 33 40
        E 49 b9 04 20
        E 34 b9 04 30
        E 93 99 26 7f
        E 48 b9 04 20
        E 52 b9 04 0f
        E 36 b9 04 00
        E 106 89 26 40
        E 176 b9 04 12
        E 8 99 33 46
        E 22 b9 04 25
        E 14 b9 04 36
        E 30 b9 04 22
        E 124 b9 04 1a
        E 41 b9 04 2c
        E 10 89 33 40
        E 43 b9 04 3c
        E 107 b9 04 2c
        E 48 b9 04 1a
        E 15 99 24 63
        E 34 b9 04 09
        E 26 b9 04 00
        E 184 89 24 40
        E 133 99 26 7f
        E 14 b9 04 12
        E 8 b9 04 25
        E 12 b9 04 36
        E 16 99 33 7f
        E 11 b9 04 46
        E 1 b9 04 4c
        E 5 99 2c 1e
        E 20 b9 04 36
        E 12 b9 04 25
        E 56 b9 04 15
        E 89 89 26 40
        E 19 b9 04 25
        E 26 89 33 40
        E 23 89 2c 40
        E 145 b9 04 15
        E 55 b9 04 03
        E 10 b9 04 00
        E 292 b9 04 12
        E 24 b9 04 22
        E 8 b9 04 32
        E 7 99 33 7e
        E 2 b9 04 43
        E 18 b9 04 32
        E 9 b9 04 22
        E 164 b9 04 32
        E 51 89 33 40
        E 134 b9 04 22
        E 28 99 24 5a
        E 24 b9 04 12
        E 50 b9 04 00
        E 170 89 24 40
        E 91 99 26 71
        E 34 b9 04 12
        E 15 b9 04 25
        E 19 99 33 7f
        E 2 b9 04 36
        E 10 b9 04 46
        E 0 b9 04 4c
        E 2 99 2c 20
        E 22 b9 04 36
        E 12 b9 04 25
        E 67 b9 04 15
        E 61 89 26 40
        E 37 b9 04 25
        E 31 89 33 40
        E 2 b9 04 36
        E 12 89 2c 40
        E 124 b9 04 3a
        E 43 b9 04 29
        E 22 99 24 5f
        E 19 b9 04 18
        E 39 b9 04 06
        E 17 b9 04 00
        E 169 89 24 40
        E 162 99 28 61
        E 4 99 33 7f
        E 13 b9 04 12
        E 9 b9 04 22
        E 27 b9 04 32
        E 15 b9 04 43
        E 2 b9 04 4c
        E 2 99 2c 22
        E 22 b9 04 32
        E 8 b9 04 22
        E 24 b9 04 12
        E 118 89 28 40
        E 5 89 33 40
        E 29 b9 04 22
        E 36 89 2c 40
        E 5 b9 04 32
        E 150 b9 04 22
        E 69 b9 04 12
        E 69 b9 04 00
        E 275 b9 04 12
        E 19 99 33 73
        E 2 b9 04 22
        E 15 b9 04 32
        E 7 b9 04 43
        E 22 b9 04 32
        E 7 b9 04 22
        E 39 b9 04 12
        E 106 b9 04 22
        E 36 b9 04 32
        E 11 89 33 40
        E 154 b9 04 22
        E 51 b9 04 12
        E 43 b9 04 00
        E 307 b9 04 12
        E 7 99 24 73
        E 7 b9 04 22
        E 19 b9 04 32
        E 8 99 33 7f
        E 4 b9 04 43
        E 23 b9 04 32
        E 9 b9 04 20
        E 55 b9 04 0f
        E 114 89 24 40
        E 34 89 33 40
        E 16 b9 04 20
        E 199 b9 04 0f
        E 40 b9 04 00
        E 330 99 24 62
        E 7 b9 04 12
        E 0 99 33 6d
        E 9 b9 04 22
        E 8 b9 04 32
        E 19 b9 04 43
        E 16 b9 04 32
        E 13 b9 04 20
        E 43 b9 04 0f
        E 129 89 24 40
        E 7 89 33 40
        E 19 b9 04 09
        E 46 b9 04 1a
        E 31 b9 04 2c
        E 64 b9 04 3c
        E 66 99 26 77
        E 22 b9 04 2c
        E 49 b9 04 1a
        E 43 b9 04 09
        E 25 b9 04 00
        E 105 89 26 40
        E 182 99 33 7f
        E 14 b9 04 12
        E 18 b9 04 22
        E 18 b9 04 32
        E 15 b9 04 43
        E 17 b9 04 32
        E 12 b9 04 20
        E 129 b9 04 15
        E 21 89 33 40
        E 32 b9 04 25
        E 45 b9 04 36
        E 133 b9 04 25
        E 25 99 24 5f
        E 22 b9 04 15
        E 47 b9 04 03
        E 16 b9 04 00
        E 156 89 24 40
        E 154 99 28 55
        E 17 b9 04 12
        E 9 99 33 7f
        E 2 b9 04 25
        E 18 b9 04 36
        E 17 b9 04 46
        E 5 b9 04 4c
        E 2 99 2c 1a
        E 15 b9 04 36
        E 10 b9 04 25
        E 24 b9 04 15
        E 126 89 28 40
        E 23 89 33 40
        E 47 89 2c 40
        E 10 b9 04 25
        E 195 b9 04 15
        E 55 b9 04 03
        E 17 b9 04 00
        E 265 b9 04 12
        E 13 99 33 5d
        E 10 b9 04 25
        E 10 b9 04 36
        E 9 b9 04 46
        E 15 b9 04 36
        E 12 b9 04 25
        E 36 b9 04 15
        E 107 b9 04 25
        E 31 b9 04 36
        E 14 89 33 40
        E 35 b9 04 46
        E 111 b9 04 36
        E 24 99 24 55
        E 17 b9 04 25
        E 29 b9 04 15
        E 29 b9 04 03
        E 9 b9 04 00
        E 157 89 24 40
        E 110 99 26 79
        E 14 b9 04 12
        E 19 b9 04 25
        E 16 b9 04 36
        E 5 b9 04 46
        E 3 99 33 7f
        E 2 b9 04 4c
        E 5 99 2c 22
        E 13 b9 04 36
        E 9 b9 04 25
        E 38 b9 04 15
        E 118 89 26 40
        E 21 b9 04 25
        E 28 b9 04 36
        E 7 89 33 40
        E 3 89 2c 40
        E 27 b9 04 46
        E 147 b9 04 36
        E 7 99 24 53
        E 32 b9 04 25
        E 31 b9 04 15
        E 41 b9 04 03
        E 12 b9 04 00
        E 126 89 24 40
        E 193 99 26 72
        E 5 99 33 7f
        E 17 b9 04 12
        E 9 b9 04 25
        E 10 b9 04 36
        E 24 b9 04 46
        E 20 b9 04 36
        E 7 b9 04 22
        E 21 b9 04 12
        E 129 89 26 40
        E 4 89 33 40
        E 17 b9 04 22
        E 48 b9 04 32
        E 146 b9 04 22
        E 55 b9 04 12
        E 54 b9 04 00
        E 277 99 33 7f
        E 5 b9 04 12
        E 32 b9 04 22
        E 9 b9 04 32
        E 12 b9 04 43
        E 12 b9 04 32
        E 7 b9 04 22
        E 18 b9 04 12
        E 147 89 33 40
        E 2 b9 04 22
        E 32 b9 04 32
        E 159 b9 04 22
        E 51 b9 04 12
        E 51 b9 04 00
        E 277 b9 04 12
        E 15 99 24 74
        E 4 b9 04 22
        E 18 b9 04 32
        E 2 99 33 7f
        E 9 b9 04 43
        E 18 b9 04 32
        E 6 b9 04 20
        E 68 b9 04 0f
        E 116 89 24 40
        E 25 89 33 40
        E 12 b9 04 20
        E 26 b9 04 30
        E 152 b9 04 20
        E 51 b9 04 0f
        E 39 b9 04 00
        E 295 b9 04 12
        E 9 99 24 60
        E 3 99 33 7f
        E 5 b9 04 22
        E 16 b9 04 32
        E 30 b9 04 20
        E 19 b9 04 0f
        E 171 89 24 40
        E 3 89 33 40
        E 22 b9 04 20
        E 37 b9 04 30
        E 126 b9 04 20
        E 44 99 26 7d
        E 8 b9 04 0f
        E 33 b9 04 00
        E 201 89 26 40
        E 89 b9 04 12
        E 29 b9 04 22
        E 10 b9 04 32
        E 22 99 33 7f
        E 6 b9 04 22
        E 20 b9 04 12
        E 160 b9 04 22
        E 33 b9 04 32
        E 22 89 33 40
        E 104 b9 04 36
        E 51 b9 04 25
        E 8 99 24 64
        E 33 b9 04 15
        E 46 b9 04 03
        E 9 b9 04 00
        E 153 89 24 40
        E 164 99 28 54
        E 17 b9 04 12
        E 15 b9 04 22
        E 14 99 33 7f
        E 7 b9 04 32
        E 12 b9 04 43
        E 15 b9 04 32
        E 10 b9 04 22
        E 16 b9 04 12
        E 135 89 28 40
        E 39 b9 04 22
        E 10 89 33 40
        E 116 b9 04 27
        E 69 b9 04 15
        E 61 b9 04 03
        E 17 b9 04 00
        E 271 b9 04 12
        E 12 99 33 43
        E 7 b9 04 22
        E 12 b9 04 32
        E 34 b9 04 20
        E 125 b9 04 1a
        E 46 b9 04 2c
        E 20 89 33 40
        E 17 b9 04 3c
        E 145 b9 04 2c
        E 27 99 24 60
        E 16 b9 04 1a
        E 44 b9 04 09
        E 26 b9 04 00
        E 155 89 24 40
        E 128 b9 04 12
        E 8 99 26 71
        E 16 b9 04 22
        E 15 b9 04 32
        E 7 b9 04 43
        E 22 99 33 63
        E 2 b9 04 32
        E 8 b9 04 20
        E 128 b9 04 12
        E 45 89 26 40
        E 19 b9 04 22
        E 29 b9 04 32
        E 10 89 33 40
        E 116 b9 04 36
        E 51 b9 04 25
        E 5 99 24 5e
        E 36 b9 04 15
        E 44 b9 04 03
        E 14 b9 04 00
        E 150 89 24 40
        E 159 b9 04 12
        E 8 b9 04 22
        E 7 b9 04 32
        E 7 99 26 7f
        E 15 99 33 62
        E 4 b9 04 43
        E 5 b9 04 4c
        E 3 99 2c 1e
        E 2 b9 04 53
        E 19 b9 04 43
        E 7 b9 04 32
        E 187 89 26 40
        E 12 b9 04 3a
        E 2 89 33 40
        E 13 89 2c 40
        E 42 b9 04 29
        E 37 b9 04 18
        E 17 99 24 7f
        E 33 b9 04 06
        E 39 b9 04 00
        E 169 89 24 40
        E 235 b9 04 12
        E 22 b9 04 25
        E 9 b9 04 36
        E 5 b9 04 47
        E 3 b9 04 4c
        E 2 99 2c 26
        E 10 99 33 5e
        E 2 b9 04 36
        E 10 b9 04 20
        E 17 b9 04 0f
        E 186 b9 04 20
        E 18 89 2c 40
        E 11 89 33 40
        E 19 b9 04 30
        E 162 b9 04 20
        E 65 b9 04 0f
        E 56 b9 04 00
        E 326 b9 04 12
        E 0 99 24 7f
        E 11 b9 04 22
        E 25 b9 04 32
        E 12 b9 04 43
        E 2 99 33 73
        E 5 b9 04 4c
        E 3 99 2c 1c
        E 14 b9 04 32
        E 12 b9 04 20
        E 128 b9 04 18
        E 30 89 24 40
        E 26 b9 04 29
        E 24 89 33 40
        E 7 89 2c 40
        E 140 b9 04 18
        E 54 b9 04 06
        E 18 b9 04 00
        E 322 b9 04 12
        E 12 b9 04 22
        E 5 99 24 71
        E 15 b9 04 32
        E 14 99 33 62
        E 17 b9 04 22
        E 12 b9 04 12
        E 133 b9 04 09
        E 51 89 24 40
        E 14 b9 04 1a
        E 15 89 33 40
        E 31 b9 04 2c
        E 139 b9 04 1a
        E 26 99 26 78
        E 26 b9 04 09
        E 26 b9 04 00
        E 189 89 26 40
        E 109 b9 04 12
        E 21 b9 04 22
        E 44 b9 04 12
        E 29 99 33 62
        E 157 b9 04 22
        E 29 b9 04 32
        E 58 89 33 40
        E 84 b9 04 22
        E 54 b9 04 12
        E 16 99 24 6e
        E 49 b9 04 00
        E 194 89 24 40
        E 147 b9 04 12
        E 4 99 26 77
        E 5 b9 04 25
        E 26 b9 04 36
        E 13 99 33 60
        E 19 b9 04 25
        E 12 b9 04 15
        E 167 89 26 40
        E 19 b9 04 25
        E 24 89 33 40
        E 147 b9 04 15
        E 64 b9 04 03
        E 14 b9 04 00
        E 292 b9 04 12
        E 30 b9 04 22
        E 0 99 33 49
        E 9 b9 04 32
        E 32 b9 04 22
        E 29 b9 04 12
        E 159 b9 04 25
        E 12 89 33 40
        E 43 b9 04 36
        E 118 b9 04 25
        E 33 99 24 64
        E 11 b9 04 15
        E 49 b9 04 03
        E 12 b9 04 00
        E 169 89 24 40
        E 142 b9 04 12
        E 2 99 26 50
        E 11 b9 04 25
        E 12 99 33 7f
        E 4 b9 04 36
        E 20 b9 04 46
        E 14 b9 04 36
        E 10 b9 04 25
        E 39 b9 04 15
        E 135 89 26 40
        E 21 89 33 40
        E 3 b9 04 25
        E 39 b9 04 36
        E 135 99 24 5b
        E 24 b9 04 25
        E 39 b9 04 15
        E 48 b9 04 03
        E 10 b9 04 00
        E 120 89 24 40
        E 143 99 26 7a
        E 54 b9 04 12
        E 6 b9 04 22
        E 17 b9 04 32
        E 17 89 26 40
        E 2 99 26 70
        E 3 b9 04 43
        E 5 b9 04 4c
        E 3 99 2c 1e
        E 19 b9 04 32
        E 10 b9 04 22
        E 57 b9 04 12
        E 119 b9 04 22
        E 26 89 26 40
        E 10 b9 04 32
        E 2 89 2c 40
        E 114 99 24 5d
        E 34 b9 04 22
        E 60 b9 04 12
        E 50 b9 04 00
        E 98 89 24 40
        E 159 99 2d 7f
        E 24 99 30 7f
        E 17 b9 04 12
        E 36 b9 04 22
        E 8 b9 04 32
        E 7 b9 04 43
        E 19 b9 04 32
        E 7 b9 04 20
        E 27 b9 04 0f
        E 99 89 2d 40
        E 22 b9 04 20
        E 2 89 30 40
        E 24 b9 04 30
        E 114 99 24 50
        E 17 b9 04 34
        E 36 b9 04 22
        E 44 b9 04 12
        E 43 b9 04 00
        E 102 89 24 40
        E 248 99 24 7f
        E 2 b9 04 12
        E 8 b9 04 22
        E 5 b9 04 32
        E 7 99 3b 7f
        E 2 b9 04 43
        E 15 b9 04 4c
        E 2 99 2c 1c
        E 24 b9 04 32
        E 10 b9 04 22
        E 34 b9 04 12
        E 138 89 24 40
        E 19 89 3b 40
        E 12 b9 04 22
        E 5 89 2c 40
        E 121 b9 04 2c
        E 65 b9 04 1a
        E 80 b9 04 09
        E 39 b9 04 00
        E 256 99 33 38
        E 26 b9 04 12
        E 26 b9 04 22
        E 15 b9 04 32
        E 17 b9 04 43
        E 22 b9 04 32
        E 24 b9 04 22
        E 111 89 33 40
        E 169 99 26 7f
        E 10 b9 04 12
        E 116 b9 04 00
        E 119 89 26 40
        E 110 b9 04 12
        E 41 b9 04 25
        E 64 99 26 42
        E 11 b9 04 15
        E 157 b9 04 25
        E 34 b9 04 36
        E 41 89 26 40
        E 8 b9 04 46
        E 106 b9 04 36
        E 36 99 24 5c
        E 12 b9 04 25
        E 34 b9 04 15
        E 44 b9 04 03
        E 21 b9 04 00
        E 131 89 24 40
        E 174 99 2d 7f
        E 19 b9 04 12
        E 15 b9 04 22
        E 24 99 26 7f
        E 4 b9 04 32
        E 10 b9 04 43
        E 5 b9 04 4d
        E 3 b9 04 54
        E 0 99 2c 28
        E 21 b9 04 44
        E 7 b9 04 34
        E 46 b9 04 22
        E 89 89 2d 40
        E 39 b9 04 1a
        E 17 89 26 40
        E 25 89 2c 40
        E 40 b9 04 2c
        E 216 b9 04 1a
        E 50 b9 04 09
        E 36 b9 04 00
        E 215 b9 04 12
        E 27 b9 04 22
        E 12 b9 04 32
        E 12 b9 04 43
        E 39 b9 04 32
        E 121 b9 04 43
        E 106 b9 04 32
        E 33 b9 04 22
        E 28 99 24 64
        E 16 b9 04 12
        E 66 b9 04 00
        E 159 89 24 40
        E 142 99 26 7f
        E 34 b9 04 12
        E 10 b9 04 22
        E 22 b9 04 32
        E 17 b9 04 43
        E 2 b9 04 4c
        E 3 99 2c 26
        E 2 b9 04 54
        E 19 b9 04 43
        E 3 89 26 40
        E 2 99 26 7f
        E 3 b9 04 32
        E 5 b9 04 22
        E 65 b9 04 12
        E 144 89 2c 40
        E 5 b9 04 22
        E 18 89 26 40
        E 14 b9 04 32
        E 114 99 24 57
        E 60 b9 04 22
        E 50 b9 04 12
        E 49 b9 04 00
        E 84 89 24 40
        E 129 99 2d 7f
        E 24 99 30 7f
        E 38 b9 04 12
        E 19 b9 04 22
        E 12 b9 04 32
        E 8 b9 04 43
        E 5 b9 04 4c
        E 2 99 2c 20
        E 22 b9 04 32
        E 7 b9 04 22
        E 53 b9 04 12
        E 51 89 2d 40
        E 27 89 30 40
        E 24 b9 04 22
        E 34 b9 04 32
        E 26 89 2c 40
        E 118 99 24 5a
        E 35 b9 04 22
        E 43 b9 04 12
        E 48 b9 04 00
        E 116 89 24 40
        E 116 99 2d 7f
        E 22 99 29 7f
        E 50 b9 04 12
        E 37 b9 04 22
        E 10 b9 04 32
        E 26 b9 04 20
        E 19 b9 04 0f
        E 82 89 2d 40
        E 15 89 29 40
        E 21 b9 04 20
        E 40 b9 04 30
        E 118 b9 04 20
        E 63 b9 04 0f
        E 38 b9 04 00
        E 343 99 24 7f
        E 5 b9 04 12
        E 8 99 33 7f
        E 2 b9 04 25
        E 5 99 31 7f
        E 12 b9 04 36
        E 19 b9 04 46
        E 3 b9 04 4c
        E 2 99 2c 1a
        E 17 b9 04 36
        E 8 b9 04 25
        E 14 b9 04 15
        E 128 b9 04 25
        E 18 89 24 40
        E 15 89 33 40
        E 8 89 31 40
        E 36 89 2c 40
        E 63 b9 04 2c
        E 75 b9 04 1a
        E 137 b9 04 09
        E 71 b9 04 00
        E 195 b9 04 12
        E 32 b9 04 22
        E 7 b9 04 32
        E 31 b9 04 20
        E 343 b9 04 0f
        E 10 99 28 7f
        E 154 b9 04 03
        E 88 89 28 40
        E 14 b9 04 15
        E 31 b9 04 25
        E 29 b9 04 36
        E 73 b9 04 25
        E 132 b9 04 20
        E 49 b9 04 30
        E 39 b9 04 41
        E 22 b9 04 4c
        E 2 99 2c 0a
        E 10 b9 04 51
        E 130 b9 04 58
        E 46 b9 04 47
        E 34 b9 04 36
        E 14 99 24 6e
        E 7 89 2c 40
        E 5 b9 04 25
        E 29 b9 04 15
        E 41 b9 04 03
        E 7 b9 04 00
        E 153 89 24 40
        E 135 99 26 7f
        E 51 b9 04 12
        E 10 b9 04 25
        E 28 b9 04 36
        E 11 b9 04 46
        E 2 99 28 7f
        E 2 b9 04 4d
        E 3 99 2c 22
        E 16 b9 04 36
        E 10 b9 04 25
        E 19 b9 04 15
        E 92 89 26 40
        E 87 b9 04 25
        E 12 89 28 40
        E 2 89 2c 40
        E 119 b9 04 15
        E 58 b9 04 03
        E 19 b9 04 00
        E 285 b9 04 12
        E 25 b9 04 22
        E 7 b9 04 32
        E 9 b9 04 43
        E 22 b9 04 32
        E 13 b9 04 20
        E 145 b9 04 30
        E 45 b9 04 41
        E 147 99 24 5c
        E 3 b9 04 30
        E 32 b9 04 20
        E 43 b9 04 0f
        E 38 b9 04 00
        E 126 89 24 40
        E 179 b9 04 12
        E 10 b9 04 25
        E 10 99 2d 7f
        E 2 99 30 7f
        E 5 b9 04 36
        E 19 b9 04 46
        E 4 b9 04 4d
        E 3 99 2c 24
        E 2 b9 04 57
        E 20 b9 04 46
        E 7 b9 04 36
        E 41 b9 04 25
        E 129 b9 04 1d
        E 9 89 2d 40
        E 2 89 30 40
        E 29 b9 04 2e
        E 2 89 2c 40
        E 134 b9 04 36
        E 2 99 24 53
        E 53 b9 04 25
        E 34 b9 04 15
        E 36 b9 04 03
        E 10 b9 04 00
        E 109 89 24 40
        E 154 99 26 72
        E 17 b9 04 12
        E 26 b9 04 22
        E 17 b9 04 32
        E 5 89 26 40
        E 3 99 26 7f
        E 2 b9 04 44
        E 3 b9 04 4d
        E 2 99 2c 26
        E 19 b9 04 34
        E 13 b9 04 20
        E 130 b9 04 15
        E 51 b9 04 25
        E 22 89 26 40
        E 9 89 2c 40
        E 7 b9 04 36
        E 152 99 24 5f
        E 13 b9 04 25
        E 38 b9 04 15
        E 46 b9 04 03
        E 17 b9 04 00
        E 130 89 24 40
        E 155 99 30 7f
        E 12 99 29 51
        E 27 b9 04 12
        E 34 b9 04 22
        E 14 b9 04 32
        E 29 b9 04 20
        E 21 b9 04 0f
        E 105 89 30 40
        E 11 89 29 40
        E 18 b9 04 20
        E 41 b9 04 30
        E 106 99 30 7f
        E 34 b9 04 20
        E 48 b9 04 0f
        E 32 b9 04 00
        E 126 89 30 40
        E 173 99 24 75
        E 3 b9 04 12
        E 7 b9 04 25
        E 7 b9 04 36
        E 26 b9 04 46
        E 3 b9 04 4c
        E 2 99 2c 16
        E 6 b9 04 56
        E 17 b9 04 44
        E 9 b9 04 34
        E 49 b9 04 20
        E 93 b9 04 0f
        E 20 89 24 40
        E 48 89 2c 40
        E 140 b9 04 20
        E 66 b9 04 30
        E 60 b9 04 41
        E 39 b9 04 4d
        E 2 99 2c 08
        E 17 b9 04 51
        E 133 b9 04 41
        E 33 b9 04 30
        E 30 b9 04 20
        E 31 89 2c 40
        E 5 99 24 6d
        E 7 b9 04 0f
        E 41 b9 04 00
        E 193 89 24 40
        E 160 b9 04 12
        E 7 99 26 7f
        E 3 b9 04 25
        E 36 b9 04 36
        E 10 b9 04 46
        E 2 b9 04 4d
        E 0 99 2c 28
        E 3 b9 04 56
        E 16 b9 04 46
        E 5 b9 04 36
        E 7 b9 04 25
        E 26 99 28 7a
        E 13 b9 04 15
        E 123 89 26 40
        E 48 89 2c 40
        E 61 89 28 40
        E 87 b9 04 25
        E 82 b9 04 36
        E 36 b9 04 46
        E 19 b9 04 4f
        E 3 99 2c 08
        E 22 b9 04 56
        E 147 b9 04 46
        E 34 b9 04 36
        E 31 b9 04 22
        E 7 89 2c 40
        E 32 b9 04 12
        E 49 99 24 62
        E 4 b9 04 00
        E 237 89 24 40
        E 159 99 2d 7f
        E 5 b9 04 12
        E 10 b9 04 22
        E 4 99 30 7f
        E 32 b9 04 32
        E 7 b9 04 43
        E 3 b9 04 4c
        E 2 99 2c 2c
        E 3 b9 04 53
        E 14 b9 04 43
        E 5 b9 04 32
        E 4 b9 04 20
        E 27 b9 04 0f
        E 102 b9 04 20
        E 24 89 2d 40
        E 22 89 30 40
        E 24 b9 04 30
        E 19 89 2c 40
        E 108 b9 04 20
        E 78 b9 04 0f
        E 44 b9 04 00
        E 270 b9 04 12
        E 22 b9 04 22
        E 7 b9 04 32
        E 10 b9 04 43
        E 2 b9 04 4c
        E 3 99 2c 28
        E 2 b9 04 53
        E 12 b9 04 43
        E 10 b9 04 32
        E 10 b9 04 20
        E 198 b9 04 30
        E 7 89 2c 40
        E 34 b9 04 41
        E 152 99 24 5e
        E 12 b9 04 30
        E 35 b9 04 20
        E 43 b9 04 0f
        E 40 b9 04 00
        E 112 89 24 40
        E 133 99 26 7f
        E 55 b9 04 12
        E 8 b9 04 22
        E 9 b9 04 32
        E 10 89 26 40
        E 3 99 26 7f
        E 16 b9 04 43
        E 2 b9 04 4d
        E 3 99 2c 20
        E 5 b9 04 53
        E 14 b9 04 41
        E 7 b9 04 30
        E 15 b9 04 20
        E 179 89 26 40
        E 7 b9 04 30
        E 17 89 2c 40
        E 26 b9 04 41
        E 95 99 24 55
        E 41 b9 04 30
        E 31 b9 04 20
        E 48 b9 04 0f
        E 44 b9 04 00
        E 79 89 24 40
        E 168 99 30 7f
        E 89 b9 04 12
        E 12 b9 04 22
        E 36 b9 04 32
        E 7 b9 04 43
        E 7 89 30 40
        E 3 99 30 5a
        E 12 b9 04 32
        E 5 b9 04 20
        E 24 b9 04 0f
        E 167 89 30 40
        E 0 99 30 6c
        E 7 b9 04 20
        E 27 b9 04 30
        E 129 b9 04 34
        E 37 b9 04 22
        E 24 89 30 40
        E 2 99 30 7f
        E 16 b9 04 12
        E 40 b9 04 00
        E 133 89 30 40
        E 3 99 30 7f
        E 195 b9 04 12
        E 13 b9 04 22
        E 7 89 30 40
        E 2 99 30 78
        E 24 b9 04 32
        E 10 b9 04 44
        E 2 b9 04 4c
        E 3 99 2c 22
        E 15 b9 04 34
        E 11 b9 04 20
        E 82 b9 04 30
        E 25 89 30 40
        E 2 99 30 72
        E 106 89 2c 40
        E 25 b9 04 20
        E 41 b9 04 0f
        E 29 89 30 40
        E 2 99 30 7f
        E 2 b9 04 00
        E 237 89 30 40
        E 7 99 33 7f
        E 10 99 24 66
        E 49 b9 04 12
        E 9 b9 04 25
        E 19 b9 04 36
        E 20 b9 04 46
        E 4 b9 04 4c
        E 3 99 2c 18
        E 14 b9 04 36
        E 12 b9 04 25
        E 51 b9 04 15
        E 52 89 33 40
        E 8 89 24 40
        E 95 b9 04 25
        E 10 89 2c 40
        E 121 b9 04 2c
        E 48 b9 04 1a
        E 46 b9 04 09
        E 21 b9 04 00
        E 230 99 24 58
        E 39 b9 04 12
        E 26 b9 04 22
        E 14 b9 04 32
        E 40 b9 04 22
        E 74 b9 04 12
        E 48 89 24 40
        E 126 b9 04 22
        E 43 b9 04 32
        E 51 99 26 7f
        E 86 99 28 7d
        E 3 b9 04 3c
        E 153 89 26 40
        E 5 b9 04 2c
        E 80 89 28 40
        E 36 b9 04 1a
        E 189 b9 04 2c
        E 14 b9 04 3c
        E 17 b9 04 4c
        E 2 99 2c 12
        E 2 b9 04 4c
        E 22 b9 04 5c
        E 152 b9 04 4c
        E 21 b9 04 3c
        E 22 b9 04 2c
        E 23 89 2c 40
        E 2 b9 04 1a
        E 19 99 24 6a
        E 12 b9 04 09
        E 27 b9 04 00
        E 203 89 24 40
        E 152 99 2d 7f
        E 30 99 30 7f
        E 14 b9 04 12
        E 38 b9 04 22
        E 10 b9 04 32
        E 7 b9 04 44
        E 17 b9 04 34
        E 9 b9 04 20
        E 17 b9 04 0f
        E 59 b9 04 20
        E 45 89 2d 40
        E 27 89 30 40
        E 54 b9 04 27
        E 60 b9 04 15
        E 53 b9 04 03
        E 14 b9 04 00
        E 279 b9 04 12
        E 21 b9 04 22
        E 7 b9 04 32
        E 7 b9 04 43
        E 8 b9 04 4c
        E 1 99 2c 1e
        E 18 b9 04 32
        E 10 b9 04 22
        E 151 b9 04 32
        E 62 b9 04 43
        E 1 89 2c 40
        E 105 b9 04 32
        E 36 b9 04 22
        E 29 99 24 61
        E 19 b9 04 12
        E 48 b9 04 00
        E 174 89 24 40
        E 152 99 26 7f
        E 10 b9 04 12
        E 7 b9 04 22
        E 10 b9 04 32
        E 29 b9 04 43
        E 5 b9 04 4c
        E 2 99 2c 20
        E 3 b9 04 53
        E 21 b9 04 43
        E 7 b9 04 32
        E 3 99 28 7f
        E 42 b9 04 22
        E 58 b9 04 12
        E 47 89 26 40
        E 64 89 2c 40
        E 9 b9 04 22
        E 24 b9 04 32
        E 3 89 28 40
        E 27 b9 04 43
        E 125 99 24 55
        E 29 b9 04 32
        E 29 b9 04 22
        E 39 b9 04 12
        E 37 b9 04 00
        E 108 89 24 40
        E 164 99 2d 7f
        E 79 b9 04 12
        E 37 b9 04 22
        E 19 b9 04 32
        E 5 b9 04 43
        E 4 89 2d 40
        E 3 99 2d 7f
        E 2 b9 04 4c
        E 2 99 2c 20
        E 13 b9 04 30
        E 5 b9 04 20
        E 24 b9 04 0f
        E 135 b9 04 20
        E 29 b9 04 30
        E 3 89 2d 40
        E 2 99 2d 7f
        E 29 89 2c 40
        E 19 b9 04 41
        E 100 b9 04 30
        E 36 b9 04 20
        E 24 89 2d 40
        E 2 99 2d 7f
        E 15 b9 04 0f
        E 29 b9 04 00
        E 196 89 2d 40
        E 21 99 29 6e
        E 111 b9 04 12
        E 12 b9 04 22
        E 37 b9 04 32
        E 9 b9 04 43
        E 19 b9 04 32
        E 11 b9 04 20
        E 19 89 29 40
        E 2 99 29 7e
        E 22 b9 04 0f
        E 135 b9 04 20
        E 10 89 29 40
        E 3 99 29 66
        E 173 b9 04 0f
        E 15 89 29 40
        E 2 99 29 6d
        E 21 b9 04 00
        E 218 89 29 40
        E 3 99 24 7f
        E 24 99 33 7c
        E 39 b9 04 12
        E 21 b9 04 22
        E 15 b9 04 32
        E 34 b9 04 20
        E 111 89 24 40
        E 14 b9 04 18
        E 9 89 33 40
        E 33 b9 04 29
        E 40 b9 04 3a
        E 153 b9 04 29
        E 70 b9 04 18
        E 253 99 24 58
        E 66 b9 04 22
        E 128 b9 04 29
        E 50 89 24 40
        E 37 b9 04 18
        E 69 b9 04 06
        E 39 b9 04 00
        E 126 99 26 7f
        E 16 99 33 7f
        E 5 b9 04 12
        E 24 b9 04 22
        E 13 b9 04 32
        E 17 b9 04 43
        E 7 b9 04 4c
        E 2 99 2c 14
        E 8 b9 04 53
        E 24 b9 04 43
        E 19 b9 04 32
        E 41 b9 04 22
        E 48 b9 04 12
        E 20 89 26 40
        E 15 89 33 40
        E 68 89 2c 40
        E 139 b9 04 22
        E 21 b9 04 32
        E 27 b9 04 43
        E 22 b9 04 4d
        E 3 99 2c 0a
        E 9 b9 04 53
        E 143 b9 04 43
        E 29 b9 04 32
        E 17 b9 04 22
        E 34 b9 04 12
        E 9 89 2c 40
        E 17 99 24 5f
        E 22 b9 04 00
        E 220 89 24 40
        E 147 99 2d 7f
        E 27 b9 04 12
        E 2 99 30 7f
        E 7 b9 04 22
        E 39 b9 04 32
        E 7 b9 04 44
        E 3 b9 04 4c
        E 2 99 2c 36
        E 3 b9 04 55
        E 17 b9 04 44
        E 4 b9 04 34
        E 7 b9 04 20
        E 126 89 2d 40
        E 29 89 30 40
        E 29 b9 04 30
        E 27 89 2c 40
        E 99 b9 04 20
        E 72 b9 04 0f
        E 51 b9 04 00
        E 256 b9 04 12
        E 17 b9 04 25
        E 12 b9 04 36
        E 7 b9 04 46
        E 2 b9 04 4c
        E 3 99 2c 1c
        E 29 b9 04 36
        E 97 b9 04 46
        E 115 89 2c 40
        E 23 b9 04 36
        E 36 b9 04 25
        E 28 b9 04 15
        E 23 99 24 63
        E 17 b9 04 03
        E 14 b9 04 00
        E 212 89 24 40
        E 116 99 26 7f
        E 2 b9 04 12
        E 10 b9 04 25
        E 13 b9 04 36
        E 26 b9 04 47
        E 3 b9 04 4c
        E 2 99 2c 24
        E 5 b9 04 57
        E 12 b9 04 46
        E 7 b9 04 36
        E 10 b9 04 25
        E 21 99 28 7f
        E 27 b9 04 15
        E 106 89 26 40
        E 56 89 2c 40
        E 12 b9 04 25
        E 34 b9 04 36
        E 5 89 28 40
        E 132 99 24 5a
        E 30 b9 04 25
        E 38 b9 04 15
        E 41 b9 04 03
        E 12 b9 04 00
        E 124 89 24 40
        E 137 99 2d 7f
        E 22 b9 04 12
        E 5 99 30 7f
        E 9 b9 04 22
        E 17 b9 04 32
        E 17 b9 04 43
        E 2 b9 04 4c
        E 3 99 2c 1e
        E 6 b9 04 54
        E 9 b9 04 64
        E 12 b9 04 54
        E 7 b9 04 44
        E 44 b9 04 34
        E 30 b9 04 22
        E 59 89 2d 40
        E 32 89 30 40
        E 11 b9 04 32
        E 34 89 2c 40
        E 13 b9 04 43
        E 139 99 24 64
        E 5 b9 04 32
        E 32 b9 04 22
        E 33 b9 04 12
        E 44 b9 04 00
        E 130 89 24 40
        E 126 99 26 5c
        E 63 b9 04 12
        E 14 b9 04 22
        E 3 99 28 7a
        E 27 b9 04 32
        E 7 b9 04 43
        E 4 b9 04 4c
        E 3 99 2c 22
        E 17 b9 04 32
        E 7 b9 04 20
        E 96 89 26 40
        E 22 b9 04 30
        E 59 89 28 40
        E 43 89 2c 40
        E 38 b9 04 20
        E 59 b9 04 0f
        E 50 b9 04 00
        E 374 b9 04 12
        E 13 b9 04 25
        E 5 99 24 7f
        E 21 b9 04 36
        E 10 99 33 7f
        E 2 b9 04 46
        E 15 b9 04 36
        E 10 b9 04 25
        E 12 b9 04 15
        E 89 b9 04 25
        E 85 89 24 40
        E 31 89 33 40
        E 34 b9 04 2c
        E 61 b9 04 1a
        E 60 b9 04 09
        E 36 b9 04 00
        E 300 b9 04 12
        E 23 b9 04 22
        E 20 b9 04 32
        E 10 b9 04 43
        E 5 b9 04 4c
        E 2 99 2c 24
        E 3 b9 04 53
        E 28 b9 04 43
        E 44 b9 04 32
        E 31 b9 04 22
        E 129 b9 04 1d
        E 4 89 2c 40
        E 39 b9 04 2e
        E 135 b9 04 36
        E 45 99 28 7f
        E 42 b9 04 25
        E 53 b9 04 15
        E 80 b9 04 03
        E 40 b9 04 00
        E 30 89 28 40
        E 121 b9 04 12
        E 36 b9 04 22
        E 15 b9 04 32
        E 14 b9 04 43
        E 19 b9 04 32
        E 94 b9 04 43
        E 42 b9 04 4c
        E 2 99 2c 08
        E 126 b9 04 32
        E 26 b9 04 22
        E 37 b9 04 12
        E 7 99 24 6e
        E 39 b9 04 00
        E 7 89 2c 40
        E 195 89 24 40
        E 158 99 2d 7f
        E 2 99 30 7b
        E 14 b9 04 12
        E 44 b9 04 22
        E 7 b9 04 32
        E 3 b9 04 44
        E 2 b9 04 4c
        E 2 99 2c 38
        E 2 b9 04 54
        E 15 b9 04 44
        E 5 b9 04 32
        E 7 b9 04 20
        E 85 b9 04 30
        E 53 89 2d 40
        E 2 89 30 40
        E 68 b9 04 20
        E 7 89 2c 40
        E 46 b9 04 0f
        E 41 b9 04 00
        E 288 b9 04 12
        E 34 b9 04 25
        E 12 b9 04 36
        E 6 b9 04 46
        E 3 b9 04 4c
        E 3 99 2c 28
        E 2 b9 04 56
        E 15 b9 04 46
        E 6 b9 04 36
        E 13 b9 04 25
        E 70 b9 04 36
        E 46 b9 04 46
        E 89 89 2c 40
        E 56 b9 04 36
        E 34 b9 04 25
        E 31 b9 04 15
        E 20 99 24 65
        E 19 b9 04 03
        E 14 b9 04 00
        E 211 89 24 40
        E 116 99 26 7f
        E 65 b9 04 12
        E 36 89 26 40
        E 2 99 26 7e
        E 8 b9 04 22
        E 7 b9 04 32
        E 5 b9 04 43
        E 14 b9 04 32
        E 5 b9 04 22
        E 12 b9 04 12
        E 104 b9 04 22
        E 51 b9 04 32
        E 34 89 26 40
        E 67 b9 04 22
        E 5 99 26 6a
        E 33 b9 04 12
        E 40 b9 04 00
        E 60 99 30 7f
        E 108 89 26 40
        E 44 99 2d 6a
        E 87 b9 04 12
        E 3 89 30 40
        E 7 b9 04 25
        E 17 b9 04 36
        E 9 99 24 7f
        E 15 b9 04 46
        E 2 b9 04 4d
        E 3 99 2c 1c
        E 2 b9 04 56
        E 22 b9 04 46
        E 12 b9 04 36
        E 63 89 2d 40
        E 123 89 24 40
        E 3 b9 04 46
        E 19 89 2c 40
        E 142 b9 04 36
        E 17 99 24 5a
        E 20 b9 04 22
        E 28 b9 04 12
        E 32 b9 04 00
        E 162 89 24 40
        E 132 99 26 7f
        E 23 b9 04 12
        E 9 b9 04 25
        E 34 b9 04 36
        E 7 b9 04 46
        E 3 b9 04 4c
        E 2 99 2c 24
        E 14 99 28 7f
        E 5 b9 04 36
        E 8 b9 04 25
        E 12 b9 04 15
        E 128 89 26 40
        E 53 b9 04 25
        E 21 89 2c 40
        E 17 89 28 40
        E 6 b9 04 36
        E 106 99 24 64
        E 18 b9 04 25
        E 37 b9 04 15
        E 42 b9 04 03
        E 7 b9 04 00
        E 137 89 24 40
        E 182 b9 04 12
        E 9 b9 04 22
        E 3 99 24 7f
        E 2 b9 04 32
        E 29 99 33 7f
        E 2 b9 04 43
        E 7 b9 04 4c
        E 0 99 31 7f
        E 5 99 2c 20
        E 3 b9 04 53
        E 14 b9 04 43
        E 7 b9 04 32
        E 17 b9 04 22
        E 68 b9 04 12
        E 87 89 24 40
        E 15 b9 04 22
        E 19 89 33 40
        E 10 89 31 40
        E 2 b9 04 32
        E 0 89 2c 40
        E 145 b9 04 22
        E 39 b9 04 12
        E 40 b9 04 00
        E 291 99 33 6a
        E 9 b9 04 12
        E 7 99 24 63
        E 3 b9 04 22
        E 7 b9 04 32
        E 31 b9 04 43
        E 5 b9 04 4c
        E 2 99 2c 1c
        E 5 b9 04 53
        E 22 b9 04 43
        E 123 b9 04 36
        E 27 89 33 40
        E 19 89 24 40
        E 15 b9 04 25
        E 34 89 2c 40
        E 17 b9 04 15
        E 65 b9 04 03
        E 12 b9 04 00
        E 31 99 26 6c
        E 242 89 26 40
        E 53 b9 04 12
        E 32 b9 04 25
        E 10 b9 04 36
        E 9 b9 04 47
        E 0 b9 04 4c
        E 2 99 2c 22
        E 18 b9 04 36
        E 11 b9 04 25
        E 56 99 33 50
        E 5 b9 04 15
        E 152 89 2c 40
        E 10 b9 04 25
        E 28 b9 04 36
        E 35 b9 04 46
        E 11 89 33 40
        E 126 b9 04 36
        E 37 b9 04 25
        E 26 99 24 6b
        E 5 b9 04 15
        E 33 b9 04 03
        E 13 b9 04 00
        E 191 89 24 40
        E 171 b9 04 12
        E 10 b9 04 25
        E 7 99 26 7f
        E 17 b9 04 36
        E 5 99 33 7f
        E 7 b9 04 46
        E 17 b9 04 36
        E 10 b9 04 22
        E 14 b9 04 12
        E 162 b9 04 22
        E 12 89 26 40
        E 22 89 33 40
        E 9 b9 04 32
        E 107 b9 04 22
        E 48 b9 04 12
        E 49 b9 04 00
        E 306 99 33 3d
        E 7 b9 04 12
        E 24 b9 04 22
        E 8 b9 04 32
        E 7 b9 04 43
        E 5 b9 04 4c
        E 2 99 2c 24
        E 17 b9 04 32
        E 10 b9 04 22
        E 162 89 33 40
        E 56 89 2c 40
        E 43 b9 04 29
        E 68 b9 04 18
        E 33 99 28 69
        E 22 b9 04 06
        E 27 b9 04 00
        E 192 89 28 40
        E 110 b9 04 12
        E 29 b9 04 22
        E 12 b9 04 32
        E 5 b9 04 43
        E 4 b9 04 4c
        E 3 99 2c 24
        E 7 99 33 42
        E 15 b9 04 32
        E 12 b9 04 20
        E 161 b9 04 18
        E 47 89 2c 40
        E 2 b9 04 29
        E 5 89 33 40
        E 51 b9 04 3a
        E 108 99 24 62
        E 2 b9 04 29
        E 45 b9 04 18
        E 35 b9 04 06
        E 15 b9 04 00
        E 145 89 24 40
        E 167 b9 04 12
        E 16 b9 04 22
        E 5 99 33 46
        E 17 b9 04 32
        E 12 b9 04 43
        E 3 b9 04 4c
        E 2 99 2c 26
        E 2 b9 04 53
        E 15 b9 04 43
        E 7 b9 04 32
        E 7 b9 04 22
        E 123 b9 04 1d
        E 47 b9 04 2e
        E 7 89 33 40
        E 26 b9 04 3e
        E 10 89 2c 40
        E 130 99 24 65
        E 15 b9 04 2e
        E 34 b9 04 1d
        E 39 b9 04 0c
        E 24 b9 04 00
        E 130 89 24 40
        E 155 99 26 79
        E 43 99 33 54
        E 2 b9 04 12
        E 10 b9 04 25
        E 16 b9 04 36
        E 20 b9 04 46
        E 5 b9 04 4c
        E 3 99 2c 1c
        E 17 b9 04 36
        E 7 b9 04 25
        E 12 b9 04 15
        E 109 89 26 40
        E 32 b9 04 25
        E 11 89 33 40
        E 53 89 2c 40
        E 114 b9 04 15
        E 46 b9 04 03
        E 7 b9 04 00
        E 336 b9 04 12
        E 10 b9 04 22
        E 2 99 24 79
        E 5 99 33 7f
        E 2 b9 04 32
        E 22 b9 04 43
        E 22 b9 04 32
        E 9 b9 04 20
        E 34 b9 04 0f
        E 107 b9 04 20
        E 40 b9 04 30
        E 3 89 24 40
        E 4 89 33 40
        E 107 b9 04 20
        E 56 b9 04 0f
        E 41 b9 04 00
        E 326 b9 04 12
        E 9 b9 04 25
        E 13 99 24 66
        E 2 b9 04 36
        E 17 99 33 53
        E 26 b9 04 25
        E 15 b9 04 15
        E 152 b9 04 09
        E 29 89 24 40
        E 22 89 33 40
        E 15 b9 04 1a
        E 33 b9 04 2c
        E 129 b9 04 34
        E 14 99 26 7f
        E 41 b9 04 22
        E 41 b9 04 12
        E 44 b9 04 00
        E 118 89 26 40
        E 159 b9 04 12
        E 24 99 33 3d
        E 2 b9 04 22
        E 8 b9 04 32
        E 12 b9 04 43
        E 15 b9 04 32
        E 9 b9 04 22
        E 126 b9 04 1a
        E 36 b9 04 2c
        E 34 89 33 40
        E 5 b9 04 3c
        E 2 99 33 0d
        E 146 b9 04 2c
        E 31 99 24 5e
        E 9 b9 04 1a
        E 46 b9 04 09
        E 10 89 33 40
        E 14 b9 04 00
        E 165 89 24 40
        E 166 b9 04 12
        E 10 b9 04 25
        E 10 99 28 7f
        E 17 b9 04 36
        E 7 99 33 4d
        E 5 b9 04 46
        E 2 b9 04 4c
        E 3 99 2c 1c
        E 14 b9 04 36
        E 12 b9 04 25
        E 32 b9 04 15
        E 140 b9 04 25
        E 12 89 28 40
        E 24 89 33 40
        E 7 89 2c 40
        E 147 b9 04 15
        E 56 b9 04 03
        E 15 b9 04 00
        E 285 b9 04 12
        E 22 99 33 4e
        E 7 b9 04 22
        E 12 b9 04 32
        E 7 b9 04 43
        E 5 b9 04 4d
        E 2 99 2c 24
        E 22 b9 04 32
        E 14 b9 04 22
        E 150 b9 04 18
        E 24 89 33 40
        E 25 b9 04 29
        E 6 89 2c 40
        E 23 b9 04 3a
        E 67 b9 04 4a
        E 51 99 24 51
        E 41 b9 04 3a
        E 44 b9 04 29
        E 38 b9 04 18
        E 29 b9 04 06
        E 17 b9 04 00
        E 75 89 24 40
        E 186 99 26 7f
        E 13 99 33 6d
        E 28 b9 04 12
        E 24 b9 04 22
        E 15 b9 04 32
        E 7 b9 04 43
        E 5 b9 04 4c
        E 2 99 2c 22
        E 17 b9 04 32
        E 5 b9 04 22
        E 29 b9 04 12
        E 97 89 26 40
        E 12 89 33 40
        E 34 b9 04 22
        E 43 b9 04 32
        E 7 89 2c 40
        E 94 b9 04 22
        E 41 b9 04 12
        E 46 b9 04 00
        E 303 b9 04 12
        E 4 99 24 68
        E 9 b9 04 25
        E 18 99 33 56
        E 5 b9 04 36
        E 43 b9 04 22
        E 68 b9 04 12
        E 101 89 24 40
        E 24 89 33 40
        E 21 b9 04 22
        E 20 b9 04 32
        E 32 b9 04 43
        E 26 b9 04 4c
        E 3 99 2c 08
        E 131 b9 04 32
        E 26 b9 04 22
        E 34 b9 04 12
        E 36 b9 04 00
        E 17 89 2c 40
        E 261 99 26 7f
        E 34 b9 04 12
        E 7 99 33 7f
        E 2 b9 04 22
        E 10 b9 04 32
        E 17 b9 04 43
        E 22 b9 04 32
        E 9 b9 04 20
        E 32 b9 04 0f
        E 109 89 26 40
        E 36 b9 04 20
        E 7 89 33 40
        E 19 b9 04 30
        E 128 b9 04 36
        E 51 b9 04 25
        E 31 b9 04 15
        E 39 b9 04 03
        E 10 b9 04 00
        E 319 b9 04 12
        E 9 b9 04 25
        E 7 99 24 7f
        E 5 b9 04 36
        E 27 99 33 7f
        E 24 b9 04 25
        E 24 b9 04 15
        E 158 b9 04 0c
        E 4 89 24 40
        E 37 89 33 40
        E 8 b9 04 1d
        E 26 b9 04 2e
        E 40 b9 04 3e
        E 131 b9 04 2e
        E 34 b9 04 1d
        E 48 b9 04 0c
        E 29 b9 04 00
        E 253 99 26 7f
        E 17 b9 04 12
        E 8 99 33 7f
        E 2 b9 04 22
        E 7 b9 04 32
        E 17 b9 04 43
        E 7 b9 04 4c
        E 3 99 2c 14
        E 3 b9 04 54
        E 33 b9 04 44
        E 58 b9 04 34
        E 63 b9 04 22
        E 26 89 26 40
        E 24 89 33 40
        E 37 89 2c 40
        E 63 b9 04 32
        E 37 b9 04 43
        E 55 b9 04 4f
        E 2 99 2c 06
        E 58 99 24 68
        E 58 b9 04 32
        E 29 b9 04 22
        E 34 b9 04 12
        E 43 b9 04 00
        E 20 89 2c 40
        E 63 89 24 40
        E 174 b9 04 12
        E 21 b9 04 25
        E 7 99 33 79
        E 5 b9 04 36
        E 7 b9 04 46
        E 2 b9 04 4c
        E 3 99 2c 24
        E 2 b9 04 56
        E 22 b9 04 46
        E 15 b9 04 36
        E 55 b9 04 25
        E 78 b9 04 15
        E 53 89 33 40
        E 22 89 2c 40
        E 19 b9 04 25
        E 29 b9 04 36
        E 31 b9 04 46
        E 138 99 24 65
        E 10 b9 04 36
        E 36 b9 04 22
        E 39 b9 04 12
        E 36 b9 04 00
        E 121 89 24 40
        E 164 99 26 79
        E 19 b9 04 12
        E 7 b9 04 25
        E 10 b9 04 36
        E 15 99 33 7f
        E 12 b9 04 46
        E 2 b9 04 4c
        E 3 99 2c 1a
        E 2 b9 04 57
        E 25 b9 04 46
        E 9 b9 04 36
        E 48 b9 04 25
        E 32 b9 04 15
        E 60 89 26 40
        E 53 89 33 40
        E 12 89 2c 40
        E 17 b9 04 25
        E 61 b9 04 36
        E 98 b9 04 25
        E 37 b9 04 15
        E 36 b9 04 03
        E 8 b9 04 00
        E 287 b9 04 12
        E 5 b9 04 25
        E 7 b9 04 36
        E 2 99 33 7f
        E 5 b9 04 46
        E 13 b9 04 4c
        E 2 99 2c 26
        E 12 b9 04 56
        E 31 b9 04 46
        E 46 b9 04 36
        E 48 b9 04 25
        E 49 b9 04 15
        E 39 89 33 40
        E 17 89 2c 40
        E 45 b9 04 25
        E 27 b9 04 36
        E 31 b9 04 46
        E 31 b9 04 4f
        E 5 99 2c 08
        E 37 99 24 5c
        E 92 b9 04 36
        E 33 b9 04 22
        E 34 b9 04 12
        E 37 b9 04 00
        E 9 89 2c 40
        E 36 89 24 40
        E 189 99 26 7f
        E 24 99 33 7f
        E 2 b9 04 12
        E 14 b9 04 22
        E 13 b9 04 32
        E 10 b9 04 43
        E 5 b9 04 4f
        E 2 99 2c 30
        E 4 b9 04 54
        E 18 b9 04 43
        E 7 b9 04 32
        E 7 b9 04 22
        E 136 89 26 40
        E 23 89 33 40
        E 30 b9 04 32
        E 17 89 2c 40
        E 57 99 24 4e
        E 68 b9 04 22
        E 44 b9 04 12
        E 36 b9 04 00
        E 94 89 24 40
        E 177 b9 04 12
        E 7 b9 04 25
        E 9 99 24 62
        E 2 b9 04 36
        E 18 b9 04 46
        E 4 b9 04 4c
        E 3 99 2c 14
        E 14 99 33 71
        E 8 b9 04 36
        E 14 b9 04 25
        E 56 b9 04 15
        E 123 89 24 40
        E 17 b9 04 25
        E 10 89 2c 40
        E 11 b9 04 36
        E 5 89 33 40
        E 20 b9 04 46
        E 16 b9 04 4f
        E 3 99 2c 0c
        E 15 b9 04 56
        E 89 99 24 4c
        E 26 b9 04 46
        E 32 b9 04 36
        E 24 b9 04 22
        E 27 b9 04 12
        E 26 89 2c 40
        E 3 b9 04 00
        E 103 89 24 40
        E 189 b9 04 12
        E 2 b9 04 22
        E 5 b9 04 34
        E 5 b9 04 46
        E 3 b9 04 4d
        E 2 99 2c 34
        E 2 99 28 67
        E 29 b9 04 57
        E 5 99 33 71
        E 2 b9 04 69
        E 15 b9 04 57
        E 12 b9 04 47
        E 41 b9 04 36
        E 22 b9 04 25
        E 39 b9 04 15
        E 77 89 2c 40
        E 3 89 28 40
        E 33 89 33 40
        E 43 b9 04 25
        E 27 b9 04 36
        E 36 99 24 60
        E 129 b9 04 25
        E 23 b9 04 15
        E 29 b9 04 03
        E 7 b9 04 00
        E 54 89 24 40
        E 193 99 24 63
        E 20 b9 04 12
        E 4 b9 04 22
        E 7 b9 04 32
        E 5 b9 04 43
        E 3 99 33 5d
        E 19 b9 04 4c
        E 3 99 2c 26
        E 6 b9 04 53
        E 23 b9 04 43
        E 14 b9 04 32
        E 46 b9 04 22
        E 68 b9 04 12
        E 24 89 24 40
        E 38 89 33 40
        E 13 b9 04 25
        E 9 89 2c 40
        E 12 b9 04 36
        E 25 b9 04 46
        E 14 b9 04 4f
        E 2 99 2c 0a
        E 17 b9 04 56
        E 73 99 33 2f
        E 16 99 24 60
        E 42 b9 04 46
        E 29 b9 04 36
        E 22 b9 04 22
        E 24 b9 04 12
        E 21 89 2c 40
        E 15 b9 04 00
        E 73 89 33 40
        E 16 89 24 40
        E 165 b9 04 12
        E 5 b9 04 22
        E 4 b9 04 32
        E 8 b9 04 43
        E 5 99 26 7e
        E 14 b9 04 4c
        E 2 99 2c 20
        E 5 99 33 7f
        E 2 b9 04 54
        E 7 b9 04 64
        E 20 b9 04 53
        E 10 b9 04 43
        E 43 b9 04 32
        E 25 b9 04 22
        E 55 b9 04 12
        E 58 89 26 40
        E 17 89 2c 40
        E 5 89 33 40
        E 41 b9 04 22
        E 24 b9 04 32
        E 32 b9 04 43
        E 17 99 24 4e
        E 31 99 33 43
        E 96 b9 04 32
        E 22 b9 04 22
        E 25 b9 04 12
        E 30 b9 04 00
        E 35 89 24 40
        E 33 89 33 40
        E 181 99 24 60
        E 8 b9 04 12
        E 7 b9 04 22
        E 5 b9 04 32
        E 0 99 33 7f
        E 8 b9 04 44
        E 19 b9 04 4c
        E 2 99 2c 24
        E 7 b9 04 54
        E 10 b9 04 64
        E 19 b9 04 54
        E 34 b9 04 44
        E 21 b9 04 34
        E 32 b9 04 22
        E 53 b9 04 12
        E 20 89 24 40
        E 19 89 33 40
        E 26 89 2c 40
        E 32 b9 04 25
        E 21 b9 04 36
        E 24 b9 04 46
        E 17 b9 04 4f
        E 3 99 2c 0c
        E 24 b9 04 56
        E 22 99 33 43
        E 15 99 24 51
        E 74 b9 04 46
        E 32 b9 04 36
        E 22 b9 04 25
        E 21 b9 04 15
        E 27 b9 04 03
        E 7 89 2c 40
        E 2 b9 04 00
        E 47 89 33 40
        E 9 89 24 40
        E 186 99 26 7f
        E 5 b9 04 12
        E 5 b9 04 22
        E 5 b9 04 32
        E 7 b9 04 43
        E 7 99 33 7f
        E 7 b9 04 4c
        E 3 99 2c 22
        E 7 b9 04 53
        E 11 b9 04 64
        E 18 b9 04 54
        E 12 b9 04 44
        E 39 b9 04 34
        E 32 b9 04 22
        E 45 b9 04 12
        E 38 89 26 40
        E 30 89 33 40
        E 9 89 2c 40
        E 49 b9 04 22
        E 19 b9 04 32
        E 27 b9 04 43
        E 24 99 24 59
        E 5 b9 04 4f
        E 4 99 2c 0a
        E 7 b9 04 53
        E 8 99 33 3d
        E 94 b9 04 43
        E 27 b9 04 32
        E 14 b9 04 22
        E 24 b9 04 12
        E 27 b9 04 00
        E 31 89 24 40
        E 12 89 2c 40
        E 12 89 33 40
        E 170 99 24 57
        E 31 b9 04 12
        E 12 99 33 7f
        E 3 b9 04 22
        E 2 b9 04 34
        E 0 b9 04 46
        E 2 b9 04 4c
        E 3 99 2c 30
        E 27 b9 04 56
        E 11 b9 04 66
        E 12 b9 04 56
        E 13 b9 04 46
        E 36 b9 04 36
        E 24 b9 04 25
        E 39 b9 04 15
        E 28 89 24 40
        E 44 89 33 40
        E 9 89 2c 40
        E 22 b9 04 25
        E 25 b9 04 36
        E 24 b9 04 46
        E 22 b9 04 4f
        E 1 99 2c 0a
        E 30 b9 04 56
        E 29 99 33 4f
        E 7 99 24 51
        E 49 b9 04 46
        E 26 b9 04 36
        E 25 b9 04 22
        E 21 b9 04 12
        E 31 b9 04 00
        E 27 89 2c 40
        E 56 89 33 40
        E 7 89 24 40
        E 167 b9 04 12
        E 4 b9 04 25
        E 5 b9 04 36
        E 3 b9 04 47
        E 2 b9 04 4d
        E 3 99 2c 3a
        E 2 99 26 7f
        E 24 b9 04 57
        E 8 b9 04 67
        E 7 99 33 7f
        E 19 b9 04 57
        E 39 b9 04 47
        E 29 b9 04 36
        E 26 b9 04 25
        E 34 b9 04 15
        E 55 89 2c 40
        E 2 89 26 40
        E 37 89 33 40
        E 55 b9 04 25
        E 17 b9 04 36
        E 24 b9 04 46
        E 15 b9 04 4d
        E 2 99 2c 0c
        E 8 99 24 57
        E 17 b9 04 56
        E 29 99 33 4c
        E 72 b9 04 46
        E 25 b9 04 36
        E 19 b9 04 25
        E 19 b9 04 15
        E 26 b9 04 03
        E 11 b9 04 00
        E 16 89 2c 40
        E 10 89 24 40
        E 43 89 33 40
        E 148 99 24 51
        E 22 b9 04 12
        E 7 b9 04 25
        E 9 b9 04 36
        E 3 b9 04 46
        E 2 b9 04 4c
        E 5 99 2c 2c
        E 5 99 33 7f
        E 12 b9 04 56
        E 17 b9 04 46
        E 17 b9 04 36
        E 48 b9 04 25
        E 36 b9 04 15
        E 61 89 24 40
        E 43 89 2c 40
        E 10 89 33 40
        E 8 b9 04 25
        E 23 b9 04 36
        E 30 b9 04 46
        E 21 b9 04 4f
        E 3 99 2c 08
        E 28 b9 04 56
        E 42 99 24 53
        E 14 99 33 48
        E 37 b9 04 46
        E 26 b9 04 36
        E 24 b9 04 22
        E 24 b9 04 12
        E 37 b9 04 00
        E 9 89 2c 40
        E 70 89 24 40
        E 14 89 33 40
        E 143 b9 04 12
        E 10 99 26 7f
        E 3 b9 04 22
        E 7 b9 04 32
        E 19 b9 04 43
        E 5 b9 04 4c
        E 2 99 2c 16
        E 3 b9 04 53
        E 14 99 33 7f
        E 14 b9 04 43
        E 39 b9 04 32
        E 17 b9 04 22
        E 41 b9 04 12
        E 77 89 26 40
        E 37 89 2c 40
        E 14 b9 04 22
        E 5 89 33 40
        E 19 b9 04 32
        E 31 b9 04 43
        E 27 99 24 53
        E 32 b9 04 4f
        E 2 99 2c 06
        E 36 99 33 3d
        E 52 b9 04 32
        E 21 b9 04 22
        E 24 b9 04 12
        E 31 b9 04 00
        E 44 89 24 40
        E 34 89 2c 40
        E 37 89 33 40
        E 122 b9 04 12
        E 5 99 24 59
        E 8 b9 04 25
        E 6 b9 04 36
        E 10 b9 04 46
        E 7 b9 04 4c
        E 3 99 2c 16
        E 19 99 33 7f
        E 17 b9 04 36
        E 53 b9 04 25
        E 49 b9 04 15
        E 69 89 24 40
        E 35 89 2c 40
        E 21 89 33 40
        E 1 b9 04 25
        E 6 b9 04 36
        E 27 b9 04 46
        E 15 b9 04 4f
        E 2 99 2c 0a
        E 20 b9 04 56
        E 99 99 24 53
        E 4 99 33 53
        E 29 b9 04 46
        E 22 b9 04 36
        E 19 b9 04 22
        E 22 b9 04 12
        E 26 89 2c 40
        E 7 b9 04 00
        E 112 89 24 40
        E 4 89 33 40
        E 131 b9 04 12
        E 10 b9 04 25
        E 8 b9 04 36
        E 6 b9 04 46
        E 8 b9 04 4c
        E 2 99 2c 1e
        E 2 99 26 7f
        E 8 b9 04 56
        E 9 b9 04 67
        E 17 99 33 7f
        E 5 b9 04 57
        E 36 b9 04 47
        E 20 b9 04 36
        E 34 b9 04 25
        E 32 b9 04 15
        E 81 89 2c 40
        E 3 89 26 40
        E 31 89 33 40
        E 38 b9 04 27
        E 24 b9 04 38
        E 32 b9 04 49
        E 12 b9 04 4d
        E 3 99 2c 0a
        E 24 99 24 5c
        E 21 99 33 4b
        E 73 b9 04 38
        E 27 b9 04 27
        E 23 b9 04 15
        E 25 b9 04 03
        E 5 b9 04 00
        E 46 89 2c 40
        E 21 89 24 40
        E 25 89 33 40
        E 144 99 24 49
        E 20 b9 04 12
        E 6 b9 04 25
        E 6 b9 04 38
        E 5 b9 04 49
        E 2 b9 04 4c
        E 0 99 2c 3c
        E 12 99 33 7f
        E 15 b9 04 5a
        E 34 b9 04 4a
        E 43 b9 04 3a
        E 32 b9 04 29
        E 50 b9 04 18
        E 17 89 24 40
        E 41 89 2c 40
        E 10 89 33 40
        E 31 b9 04 29
        E 20 b9 04 3a
        E 23 b9 04 4a
        E 8 b9 04 4f
        E 2 99 2c 0c
        E 22 b9 04 5a
        E 56 99 33 6d
        E 9 99 24 50
        E 64 b9 04 4a
        E 26 b9 04 3a
        E 21 b9 04 29
        E 22 b9 04 18
        E 22 89 2c 40
        E 2 b9 04 06
        E 12 b9 04 00
        E 65 89 33 40
        E 8 89 24 40
        E 178 b9 04 12
        E 7 b9 04 25
        E 4 99 26 7f
        E 4 b9 04 36
        E 5 b9 04 46
        E 5 b9 04 4c
        E 2 99 2c 26
        E 15 b9 04 56
        E 10 99 33 7a
        E 2 b9 04 67
        E 16 b9 04 57
        E 13 b9 04 47
        E 38 b9 04 36
        E 29 b9 04 25
        E 39 b9 04 15
        E 63 89 26 40
        E 20 89 2c 40
        E 21 89 33 40
        E 42 b9 04 25
        E 23 b9 04 36
        E 29 b9 04 46
        E 17 99 24 58
        E 5 b9 04 4d
        E 1 99 2c 0a
        E 52 99 33 53
        E 68 b9 04 36
        E 26 b9 04 25
        E 22 b9 04 15
        E 26 b9 04 03
        E 8 b9 04 00
        E 34 89 24 40
        E 8 89 2c 40
        E 50 89 33 40
        E 154 99 24 54
        E 7 b9 04 12
        E 8 b9 04 25
        E 5 b9 04 38
        E 5 b9 04 4a
        E 2 b9 04 4d
        E 2 99 2c 36
        E 20 99 33 77
        E 7 b9 04 5a
        E 26 b9 04 4a
        E 39 b9 04 3a
        E 31 b9 04 29
        E 54 b9 04 18
        E 36 89 24 40
        E 29 89 2c 40
        E 22 89 33 40
        E 12 b9 04 29
        E 21 b9 04 3a
        E 25 b9 04 4a
        E 7 b9 04 4f
        E 2 99 2c 0a
        E 32 b9 04 5a
        E 67 99 33 60
        E 17 99 24 58
        E 27 b9 04 4a
        E 29 b9 04 3a
        E 19 b9 04 29
        E 24 b9 04 18
        E 25 b9 04 06
        E 2 89 2c 40
        E 12 b9 04 00
        E 87 89 33 40
        E 17 89 24 40
        E 136 b9 04 12
        E 9 b9 04 27
        E 7 b9 04 38
        E 5 99 26 7f
        E 5 b9 04 49
        E 2 b9 04 4c
        E 2 99 2c 1e
        E 10 b9 04 5a
        E 15 b9 04 6a
        E 12 99 33 7e
        E 14 b9 04 5a
        E 44 b9 04 4a
        E 31 b9 04 3a
        E 24 b9 04 29
        E 39 b9 04 18
        E 43 89 26 40
        E 8 89 2c 40
        E 39 89 33 40
        E 53 b9 04 29
        E 27 b9 04 3a
        E 36 b9 04 4a
        E 0 99 24 51
        E 11 b9 04 4f
        E 2 99 2c 08
        E 34 99 33 4c
        E 73 b9 04 3a
        E 24 b9 04 29
        E 22 b9 04 18
        E 21 b9 04 06
        E 13 b9 04 00
        E 41 89 24 40
        E 14 89 2c 40
        E 35 89 33 40
        E 142 99 24 52
        E 15 b9 04 12
        E 4 b9 04 27
        E 7 b9 04 3a
        E 5 b9 04 4a
        E 2 b9 04 4c
        E 6 99 2c 2c
        E 19 99 33 75
        E 2 b9 04 5a
        E 61 b9 04 4a
        E 24 b9 04 3a
        E 37 b9 04 29
        E 45 b9 04 18
        E 17 89 24 40
        E 34 89 2c 40
        E 21 89 33 40
        E 20 b9 04 29
        E 22 b9 04 3a
        E 26 b9 04 4a
        E 10 b9 04 4f
        E 2 99 2c 0a
        E 53 b9 04 5a
        E 27 99 24 51
        E 2 99 33 60
        E 46 b9 04 4a
        E 27 b9 04 3a
        E 24 b9 04 29
        E 22 b9 04 18
        E 24 b9 04 06
        E 12 b9 04 00
        E 4 89 2c 40
        E 83 89 24 40
        E 2 89 33 40
        E 148 b9 04 12
        E 7 b9 04 25
        E 5 b9 04 36
        E 5 99 26 7f
        E 5 b9 04 46
        E 7 b9 04 4c
        E 2 99 2c 20
        E 10 b9 04 56
        E 9 b9 04 66
        E 15 99 33 77
        E 15 b9 04 56
        E 43 b9 04 46
        E 31 b9 04 36
        E 32 b9 04 25
        E 41 b9 04 15
        E 31 89 26 40
        E 14 89 2c 40
        E 34 89 33 40
        E 34 b9 04 25
        E 25 b9 04 36
        E 26 b9 04 46
        E 18 b9 04 4f
        E 3 99 2c 0a
        E 13 99 24 4e
        E 14 b9 04 56
        E 22 99 33 53
        E 75 b9 04 46
        E 24 b9 04 36
        E 24 b9 04 22
        E 24 b9 04 12
        E 29 b9 04 00
        E 18 89 2c 40
        E 11 89 24 40
        E 37 89 33 40
        E 157 99 24 51
        E 4 b9 04 12
        E 13 b9 04 25
        E 2 b9 04 36
        E 7 b9 04 46
        E 3 b9 04 4c
        E 1 99 2c 24
        E 13 b9 04 56
        E 5 99 33 7c
        E 65 b9 04 46
        E 36 b9 04 36
        E 42 b9 04 25
        E 50 89 24 40
        E 15 b9 04 15
        E 19 89 2c 40
        E 15 89 33 40
        E 34 b9 04 25
        E 19 b9 04 36
        E 26 b9 04 46
        E 20 b9 04 4f
        E 2 99 2c 0a
        E 17 b9 04 56
        E 53 99 24 50
        E 5 99 33 5b
        E 65 b9 04 46
        E 27 b9 04 36
        E 22 b9 04 22
        E 26 b9 04 12
        E 27 b9 04 00
        E 2 89 2c 40
        E 70 89 24 40
        E 5 89 33 40
        E 167 b9 04 12
        E 7 99 26 65
        E 3 b9 04 27
        E 5 b9 04 38
        E 11 b9 04 49
        E 3 b9 04 4c
        E 2 99 2c 1c
        E 10 b9 04 5a
        E 5 99 33 7f
        E 7 b9 04 6a
        E 20 b9 04 58
        E 40 b9 04 47
        E 20 b9 04 36
        E 40 b9 04 25
        E 39 b9 04 15
        E 39 89 26 40
        E 24 89 2c 40
        E 14 89 33 40
        E 48 b9 04 25
        E 23 b9 04 36
        E 21 b9 04 46
        E 20 b9 04 4f
        E 2 99 2c 0e
        E 5 99 24 53
        E 15 b9 04 56
        E 45 99 33 59
        E 73 b9 04 46
        E 29 b9 04 36
        E 19 b9 04 25
        E 20 b9 04 15
        E 24 b9 04 03
        E 5 b9 04 00
        E 7 89 2c 40
        E 6 89 24 40
        E 61 89 33 40
        E 160 99 24 54
        E 15 b9 04 12
        E 6 b9 04 22
        E 2 b9 04 32
        E 8 b9 04 43
        E 5 b9 04 4c
        E 2 99 2c 24
        E 7 b9 04 53
        E 8 99 33 6f
        E 15 b9 04 63
        E 11 b9 04 51
        E 42 b9 04 41
        E 26 b9 04 30
        E 37 b9 04 20
        E 60 89 24 40
        E 36 89 2c 40
        E 15 89 33 40
        E 41 b9 04 30
        E 19 b9 04 41
        E 24 b9 04 4f
        E 3 99 2c 0c
        E 2 b9 04 51
        E 77 99 33 5d
        E 5 99 24 43
        E 66 b9 04 41
        E 28 b9 04 30
        E 17 b9 04 20
        E 27 b9 04 0f
        E 19 89 2c 40
        E 8 b9 04 00
        E 74 89 33 40
        E 2 89 24 40
        E 173 b9 04 12
        E 7 b9 04 22
        E 4 b9 04 34
        E 5 b9 04 46
        E 3 b9 04 4d
        E 2 99 2c 32
        E 2 99 26 7e
        E 16 b9 04 56
        E 11 b9 04 66
        E 12 99 33 7f
        E 20 b9 04 56
        E 40 b9 04 46
        E 37 b9 04 36
        E 27 b9 04 25
        E 41 b9 04 15
        E 37 89 2c 40
        E 3 89 26 40
        E 37 89 33 40
        E 46 b9 04 25
        E 21 b9 04 36
        E 22 b9 04 46
        E 15 99 24 51
        E 2 b9 04 4f
        E 5 99 2c 0c
        E 14 b9 04 56
        E 56 99 33 58
        E 65 b9 04 46
        E 27 b9 04 36
        E 24 b9 04 25
        E 19 b9 04 15
        E 29 b9 04 03
        E 3 89 24 40
        E 2 b9 04 00
        E 5 89 2c 40
        E 68 89 33 40
        E 152 99 24 4b
        E 9 b9 04 12
        E 8 b9 04 22
        E 7 b9 04 32
        E 5 b9 04 43
        E 10 b9 04 4c
        E 2 99 2c 20
        E 5 b9 04 53
        E 17 99 33 6c
        E 2 b9 04 64
        E 27 b9 04 54
        E 38 b9 04 44
        E 32 b9 04 34
        E 31 b9 04 22
        E 46 b9 04 12
        E 3 89 24 40
        E 42 89 2c 40
        E 23 89 33 40
        E 26 b9 04 22
        E 17 b9 04 32
        E 22 b9 04 43
        E 24 b9 04 4f
        E 2 99 2c 0a
        E 10 b9 04 53
        E 60 99 24 47
        E 22 99 33 53
        E 42 b9 04 43
        E 30 b9 04 32
        E 15 b9 04 22
        E 27 b9 04 12
        E 33 b9 04 00
        E 5 89 2c 40
        E 71 89 24 40
        E 16 89 33 40
        E 143 b9 04 12
        E 9 b9 04 25
        E 6 99 26 78
        E 2 b9 04 36
        E 7 b9 04 46
        E 7 b9 04 4c
        E 3 99 2c 20
        E 12 b9 04 56
        E 9 b9 04 67
        E 22 99 33 7f
        E 3 b9 04 57
        E 41 b9 04 47
        E 34 b9 04 36
        E 31 b9 04 25
        E 37 b9 04 15
        E 36 89 26 40
        E 14 89 2c 40
        E 46 89 33 40
        E 41 b9 04 25
        E 22 b9 04 36
        E 24 b9 04 46
        E 12 99 24 4c
        E 5 b9 04 4d
        E 4 99 2c 0a
        E 25 b9 04 56
        E 19 99 33 4c
        E 75 b9 04 46
        E 27 b9 04 36
        E 21 b9 04 22
        E 24 b9 04 12
        E 27 b9 04 00
        E 14 89 24 40
        E 13 89 2c 40
        E 43 89 33 40
        E 149 99 24 4f
        E 32 b9 04 12
        E 8 b9 04 25
        E 2 b9 04 36
        E 5 b9 04 46
        E 2 b9 04 4c
        E 3 99 2c 2e
        E 6 99 33 74
        E 13 b9 04 56
        E 15 b9 04 66
        E 19 b9 04 56
        E 39 b9 04 46
        E 19 b9 04 36
        E 36 b9 04 25
        E 31 b9 04 15
        E 12 89 24 40
        E 54 89 2c 40
        E 4 89 33 40
        E 49 b9 04 25
        E 21 b9 04 36
        E 32 b9 04 46
        E 24 b9 04 4d
        E 3 99 2c 08
        E 29 99 24 4a
        E 7 99 33 5b
        E 96 b9 04 36
        E 25 b9 04 22
        E 26 b9 04 12
        E 36 b9 04 00
        E 24 89 2c 40
        E 27 89 24 40
        E 8 89 33 40
        E 171 b9 04 12
        E 10 99 26 7b
        E 2 b9 04 25
        E 7 b9 04 36
        E 10 b9 04 46
        E 5 b9 04 4c
        E 2 99 2c 18
        E 7 b9 04 56
        E 12 99 33 74
        E 3 b9 04 66
        E 14 b9 04 55
        E 39 b9 04 44
        E 29 b9 04 34
        E 39 b9 04 22
        E 60 b9 04 12
        E 14 89 26 40
        E 28 89 2c 40
        E 19 89 33 40
        E 43 b9 04 22
        E 19 b9 04 32
        E 22 b9 04 43
        E 27 99 24 51
        E 2 b9 04 4f
        E 2 99 2c 0a
        E 10 b9 04 53
        E 49 99 33 62
        E 58 b9 04 43
        E 30 b9 04 32
        E 17 b9 04 22
        E 25 b9 04 12
        E 29 b9 04 00
        E 22 89 24 40
        E 2 89 2c 40
        E 60 89 33 40
        E 158 99 24 54
        E 7 b9 04 12
        E 7 b9 04 25
        E 5 b9 04 36
        E 7 b9 04 46
        E 2 b9 04 4c
        E 2 99 2c 2e
        E 10 99 33 78
        E 8 b9 04 56
        E 9 b9 04 66
        E 22 b9 04 56
        E 39 b9 04 46
        E 24 b9 04 36
        E 39 b9 04 25
        E 36 b9 04 15
        E 24 89 24 40
        E 34 89 2c 40
        E 9 89 33 40
        E 34 b9 04 25
        E 20 b9 04 36
        E 23 b9 04 46
        E 15 b9 04 4f
        E 3 99 2c 0c
        E 19 b9 04 56
        E 60 99 24 49
        E 8 99 33 67
        E 56 b9 04 46
        E 23 b9 04 36
        E 19 b9 04 25
        E 23 b9 04 15
        E 26 b9 04 03
        E 8 b9 04 00
        E 2 89 2c 40
        E 77 89 24 40
        E 5 89 33 40
        E 160 b9 04 12
        E 7 b9 04 22
        E 5 b9 04 32
        E 4 99 26 7c
        E 3 b9 04 43
        E 7 b9 04 4c
        E 3 99 2c 22
        E 7 b9 04 53
        E 7 99 33 7f
        E 7 b9 04 64
        E 24 b9 04 54
        E 41 b9 04 44
        E 30 b9 04 34
        E 30 b9 04 22
        E 61 b9 04 12
        E 27 89 26 40
        E 7 89 2c 40
        E 17 89 33 40
        E 46 b9 04 22
        E 21 b9 04 32
        E 37 b9 04 43
        E 9 99 24 53
        E 35 b9 04 4f
        E 2 99 2c 08
        E 14 99 33 5e
        E 78 b9 04 32
        E 17 b9 04 22
        E 23 b9 04 12
        E 32 b9 04 00
        E 44 89 24 40
        E 33 89 2c 40
        E 17 89 33 40
        E 142 99 24 4c
        E 18 b9 04 12
        E 4 b9 04 22
        E 5 b9 04 34
        E 3 b9 04 44
        E 5 b9 04 4d
        E 2 99 2c 38
        E 2 b9 04 54
        E 10 99 33 76
        E 19 b9 04 65
        E 32 b9 04 55
        E 45 b9 04 44
        E 39 b9 04 34
        E 27 b9 04 22
        E 34 89 24 40
        E 34 89 2c 40
        E 12 89 33 40
        E 60 b9 04 32
        E 26 b9 04 43
        E 28 b9 04 4f
        E 2 99 2c 08
        E 9 b9 04 53
        E 36 99 24 46
        E 8 99 33 67
        E 67 b9 04 43
        E 29 b9 04 32
        E 20 b9 04 22
        E 26 b9 04 12
        E 29 b9 04 00
        E 17 89 2c 40
        E 46 89 24 40
        E 12 89 33 40
        E 153 b9 04 12
        E 11 99 26 7b
        E 1 b9 04 22
        E 7 b9 04 32
        E 9 b9 04 43
        E 5 b9 04 4c
        E 3 99 2c 1a
        E 2 b9 04 54
        E 12 b9 04 64
        E 7 99 33 78
        E 8 b9 04 54
        E 12 b9 04 44
        E 43 b9 04 34
        E 39 b9 04 22
        E 96 89 26 40
        E 22 89 2c 40
        E 15 b9 04 1d
        E 4 89 33 40
        E 25 b9 04 2e
        E 26 b9 04 3e
        E 39 b9 04 4f
        E 3 99 2c 08
        E 4 b9 04 4f
        E 36 99 24 50
        E 37 99 33 54
        E 55 b9 04 3f
        E 27 b9 04 2e
        E 19 b9 04 1d
        E 27 b9 04 0c
        E 17 b9 04 00
        E 19 89 2c 40
        E 41 89 24 40
        E 39 89 33 40
        E 152 99 24 4b
        E 12 b9 04 12
        E 5 b9 04 22
        E 4 b9 04 32
        E 5 b9 04 43
        E 3 b9 04 4c
        E 2 99 2c 34
        E 3 b9 04 53
        E 12 99 33 6b
        E 17 b9 04 63
        E 26 b9 04 53
        E 39 b9 04 43
        E 19 b9 04 32
        E 34 b9 04 22
        E 46 b9 04 12
        E 17 89 24 40
        E 29 89 2c 40
        E 15 89 33 40
        E 24 b9 04 22
        E 19 b9 04 32
        E 29 b9 04 43
        E 29 b9 04 4f
        E 2 99 2c 0a
        E 10 b9 04 53
        E 34 99 24 47
        E 29 99 33 58
        E 50 b9 04 43
        E 27 b9 04 32
        E 17 b9 04 22
        E 24 b9 04 12
        E 34 b9 04 00
        E 17 89 2c 40
        E 46 89 24 40
        E 26 89 33 40
        E 135 b9 04 12
        E 11 b9 04 22
        E 7 99 26 7c
        E 2 b9 04 32
        E 7 b9 04 44
        E 5 b9 04 4c
        E 2 99 2c 1a
        E 2 b9 04 54
        E 13 99 33 7c
        E 2 b9 04 64
        E 24 b9 04 54
        E 39 b9 04 44
        E 36 b9 04 34
        E 27 b9 04 22
        E 51 b9 04 12
        E 29 89 26 40
        E 22 89 2c 40
        E 13 89 33 40
        E 47 b9 04 22
        E 22 b9 04 32
        E 31 b9 04 43
        E 29 99 24 4d
        E 2 b9 04 4d
        E 5 99 2c 08
        E 30 99 33 56
        E 83 b9 04 32
        E 18 b9 04 22
        E 22 b9 04 12
        E 26 b9 04 00
        E 56 89 24 40
        E 5 89 2c 40
        E 30 89 33 40
        E 138 99 24 49
        E 25 b9 04 12
        E 5 b9 04 25
        E 5 b9 04 38
        E 5 b9 04 49
        E 1 b9 04 4c
        E 3 99 2c 3a
        E 2 99 33 7a
        E 25 b9 04 5b
        E 10 b9 04 6c
        E 17 b9 04 5b
        E 40 b9 04 4a
        E 22 b9 04 3a
        E 41 b9 04 29
        E 44 89 24 40
        E 41 89 2c 40
        E 5 89 33 40
        E 48 b9 04 3a
        E 26 b9 04 4a
        E 8 b9 04 4f
        E 2 99 2c 0a
        E 31 b9 04 5a
        E 39 99 24 47
        E 17 99 33 3b
        E 60 b9 04 4a
        E 30 b9 04 3a
        E 23 b9 04 29
        E 25 b9 04 18
        E 17 89 2c 40
        E 4 b9 04 06
        E 15 b9 04 00
        E 51 89 24 40
        E 16 89 33 40
        E 153 b9 04 12
        E 8 99 26 76
        E 5 b9 04 22
        E 9 b9 04 32
        E 6 b9 04 43
        E 5 b9 04 4d
        E 3 99 2c 24
        E 2 b9 04 53
        E 13 99 33 70
        E 2 b9 04 63
        E 68 b9 04 53
        E 19 b9 04 43
        E 32 b9 04 32
        E 26 b9 04 22
        E 56 89 26 40
        E 5 b9 04 12
        E 21 89 2c 40
        E 13 89 33 40
        E 55 b9 04 22
        E 22 b9 04 32
        E 31 b9 04 43
        E 5 99 24 4e
        E 29 b9 04 4f
        E 2 99 2c 0a
        E 12 b9 04 53
        E 8 99 33 63
        E 81 b9 04 43
        E 27 b9 04 32
        E 17 b9 04 22
        E 22 b9 04 12
        E 27 b9 04 00
        E 16 89 24 40
        E 32 89 2c 40
        E 19 89 33 40
        E 153 99 24 50
        E 33 b9 04 12
        E 7 99 33 6b
        E 3 b9 04 22
        E 2 b9 04 32
        E 3 b9 04 43
        E 2 b9 04 4d
        E 3 99 2c 3a
        E 2 b9 04 54
        E 29 b9 04 65
        E 24 b9 04 55
        E 41 b9 04 44
        E 29 b9 04 34
        E 34 b9 04 22
        E 31 89 24 40
        E 39 89 33 40
        E 14 89 2c 40
        E 56 b9 04 32
        E 45 b9 04 43
        E 52 b9 04 4f
        E 3 99 2c 06
        E 2 99 33 43
        E 4 99 24 46
        E 95 b9 04 32
        E 14 b9 04 22
        E 26 b9 04 12
        E 32 b9 04 00
        E 65 89 2c 40
        E 5 89 33 40
        E 7 89 24 40
        E 145 99 26 7f
        E 10 b9 04 12
        E 10 b9 04 25
        E 7 b9 04 36
        E 10 99 33 7f
        E 3 b9 04 46
        E 1 b9 04 4c
        E 5 99 2c 18
        E 5 b9 04 56
        E 12 b9 04 66
        E 16 b9 04 56
        E 15 b9 04 46
        E 39 b9 04 36
        E 38 b9 04 25
        E 45 b9 04 15
        E 28 89 26 40
        E 34 89 33 40
        E 10 89 2c 40
        E 43 b9 04 25
        E 27 b9 04 36
        E 25 99 24 4e
        E 9 b9 04 46
        E 31 b9 04 4f
        E 3 99 2c 08
        E 14 99 33 68
        E 92 b9 04 36
        E 24 b9 04 25
        E 22 b9 04 15
        E 22 b9 04 03
        E 9 b9 04 00
        E 19 89 24 40
        E 39 89 2c 40
        E 17 89 33 40
        E 138 99 24 4e
        E 39 b9 04 12
        E 1 99 33 75
        E 5 b9 04 22
        E 5 b9 04 32
        E 5 b9 04 46
        E 3 b9 04 4d
        E 2 99 2c 38
        E 17 b9 04 56
        E 17 b9 04 66
        E 14 b9 04 56
        E 41 b9 04 46
        E 22 b9 04 36
        E 46 b9 04 25
        E 24 89 24 40
        E 42 89 33 40
        E 21 89 2c 40
        E 54 b9 04 36
        E 33 b9 04 46
        E 24 b9 04 4f
        E 3 99 2c 08
        E 33 99 33 51
        E 17 99 24 4d
        E 88 b9 04 36
        E 21 b9 04 25
        E 24 b9 04 15
        E 25 b9 04 03
        E 12 b9 04 00
        E 21 89 2c 40
        E 36 89 33 40
        E 17 89 24 40
        E 160 b9 04 12
        E 8 99 26 7e
        E 2 b9 04 22
        E 4 b9 04 32
        E 8 b9 04 43
        E 5 b9 04 4c
        E 2 99 2c 22
        E 7 b9 04 53
        E 7 99 33 67
        E 8 b9 04 64
        E 31 b9 04 54
        E 43 b9 04 44
        E 39 b9 04 34
        E 29 b9 04 22
        E 59 89 26 40
        E 18 89 2c 40
        E 15 89 33 40
        E 39 b9 04 1d
        E 31 b9 04 2e
        E 25 b9 04 3e
        E 28 99 24 55
        E 5 b9 04 4f
        E 4 99 2c 0a
        E 3 b9 04 4f
        E 29 99 33 51
        E 87 b9 04 3f
        E 25 b9 04 2e
        E 19 b9 04 1d
        E 26 b9 04 0c
        E 17 b9 04 00
        E 29 89 24 40
        E 10 89 2c 40
        E 26 89 33 40
        E 155 99 24 4b
        E 32 b9 04 12
        E 7 b9 04 25
        E 5 b9 04 38
        E 2 99 33 68
        E 2 b9 04 49
        E 3 b9 04 4c
        E 2 99 2c 38
        E 24 b9 04 5a
        E 10 b9 04 6a
        E 21 b9 04 5a
        E 40 b9 04 4a
        E 21 b9 04 3a
        E 36 b9 04 29
        E 37 b9 04 18
        E 2 89 24 40
        E 43 89 33 40
        E 10 89 2c 40
        E 48 b9 04 29
        E 25 b9 04 3a
        E 38 b9 04 4a
        E 17 b9 04 4f
        E 3 99 2c 08
        E 29 99 33 59
        E 3 99 24 4a
        E 84 b9 04 3a
        E 24 b9 04 29
        E 22 b9 04 18
        E 26 b9 04 06
        E 15 b9 04 00
        E 38 89 2c 40
        E 32 89 33 40
        E 2 89 24 40
        E 157 b9 04 12
        E 12 99 26 7d
        E 5 b9 04 25
        E 9 b9 04 36
        E 8 b9 04 46
        E 3 b9 04 4d
        E 2 99 2c 28
        E 3 b9 04 56
        E 7 99 33 62
        E 2 b9 04 66
        E 16 b9 04 56
        E 44 b9 04 46
        E 22 b9 04 36
        E 48 b9 04 25
        E 53 b9 04 15
        E 22 89 26 40
        E 27 89 2c 40
        E 9 89 33 40
        E 58 b9 04 25
        E 23 b9 04 36
        E 33 b9 04 46
        E 15 99 24 51
        E 7 b9 04 4f
        E 5 99 2c 08
        E 36 99 33 53
        E 84 b9 04 36
        E 22 b9 04 22
        E 24 b9 04 12
        E 29 b9 04 00
        E 34 89 24 40
        E 12 89 2c 40
        E 39 89 33 40
        E 140 99 24 4d
        E 36 b9 04 12
        E 8 b9 04 25
        E 4 b9 04 36
        E 0 99 33 68
        E 3 b9 04 46
        E 2 b9 04 4c
        E 3 99 2c 3c
        E 5 b9 04 56
        E 28 b9 04 68
        E 29 b9 04 58
        E 39 b9 04 47
        E 20 b9 04 36
        E 35 b9 04 25
        E 30 b9 04 15
        E 2 89 24 40
        E 46 89 33 40
        E 8 89 2c 40
        E 55 b9 04 25
        E 30 b9 04 36
        E 45 b9 04 46
        E 24 99 33 54
        E 7 99 24 4a
        E 72 b9 04 36
        E 25 b9 04 22
        E 29 b9 04 12
        E 36 b9 04 00
        E 72 89 33 40
        E 8 89 24 40
        E 161 b9 04 12
        E 10 99 26 7f
        E 2 b9 04 22
        E 8 b9 04 32
        E 12 b9 04 43
        E 7 b9 04 4d
        E 2 99 2c 1a
        E 3 b9 04 53
        E 5 99 33 68
        E 7 b9 04 64
        E 56 b9 04 54
        E 19 b9 04 44
        E 21 b9 04 34
        E 34 b9 04 22
        E 61 b9 04 12
        E 5 89 26 40
        E 31 89 2c 40
        E 10 89 33 40
        E 41 b9 04 22
        E 19 b9 04 32
        E 27 b9 04 43
        E 26 99 24 4f
        E 10 b9 04 4f
        E 0 99 2c 08
        E 17 b9 04 53
        E 27 99 33 5b
        E 74 b9 04 43
        E 22 b9 04 32
        E 20 b9 04 22
        E 19 b9 04 12
        E 31 b9 04 00
        E 22 89 24 40
        E 11 89 2c 40
        E 42 89 33 40
        E 150 99 24 4d
        E 22 b9 04 12
        E 9 b9 04 25
        E 5 b9 04 36
        E 7 b9 04 46
        E 5 b9 04 4c
        E 2 99 2c 24
        E 6 99 33 68
        E 2 b9 04 56
        E 19 b9 04 66
        E 15 b9 04 56
        E 39 b9 04 46
        E 16 b9 04 36
        E 37 b9 04 25
        E 43 b9 04 15
        E 15 89 24 40
        E 53 89 2c 40
        E 4 89 33 40
        E 15 b9 04 25
        E 24 b9 04 36
        E 27 b9 04 46
        E 19 b9 04 4f
        E 3 99 2c 08
        E 24 b9 04 56
        E 34 99 33 63
        E 5 99 24 45
        E 69 b9 04 46
        E 22 b9 04 36
        E 20 b9 04 22
        E 21 b9 04 12
        E 32 b9 04 00
        E 14 89 2c 40
        E 59 89 33 40
        E 6 89 24 40
        E 164 b9 04 12
        E 8 b9 04 22
        E 3 b9 04 34
        E 7 b9 04 47
        E 0 b9 04 4c
        E 2 99 2c 38
        E 2 99 26 7f
        E 20 99 33 6d
        E 2 b9 04 57
        E 7 b9 04 68
        E 27 b9 04 57
        E 39 b9 04 47
        E 29 b9 04 36
        E 28 b9 04 25
        E 34 b9 04 15
        E 54 89 2c 40
        E 4 89 26 40
        E 19 89 33 40
        E 52 b9 04 25
        E 19 b9 04 36
        E 31 b9 04 46
        E 17 b9 04 4d
        E 2 99 2c 0a
        E 5 99 24 52
        E 42 b9 04 56
        E 7 99 33 5e
        E 58 b9 04 46
        E 26 b9 04 36
        E 22 b9 04 22
        E 21 b9 04 12
        E 27 b9 04 00
        E 34 89 2c 40
        E 5 89 24 40
        E 49 89 33 40
        E 147 99 24 50
        E 16 b9 04 12
        E 8 b9 04 25
        E 5 b9 04 38
        E 4 b9 04 4a
        E 2 b9 04 4d
        E 3 99 2c 32
        E 20 b9 04 5a
        E 9 99 33 75
        E 4 b9 04 6a
        E 18 b9 04 5a
        E 39 b9 04 4a
        E 19 b9 04 3a
        E 36 b9 04 29
        E 39 b9 04 18
        E 21 89 24 40
        E 37 89 2c 40
        E 28 89 33 40
        E 20 b9 04 29
        E 20 b9 04 3a
        E 24 b9 04 4a
        E 9 b9 04 4f
        E 3 99 2c 0a
        E 34 b9 04 5a
        E 53 99 24 4c
        E 5 99 33 38
        E 37 b9 04 4a
        E 28 b9 04 3a
        E 19 b9 04 29
        E 22 b9 04 18
        E 24 b9 04 06
        E 12 b9 04 00
        E 7 89 2c 40
        E 87 89 24 40
        E 5 89 33 40
        E 147 b9 04 12
        E 7 b9 04 25
        E 5 99 26 7f
        E 3 b9 04 36
        E 5 b9 04 46
        E 5 b9 04 4c
        E 2 99 2c 24
        E 16 b9 04 56
        E 11 b9 04 67
        E 11 99 33 6b
        E 13 b9 04 57
        E 41 b9 04 47
        E 27 b9 04 36
        E 33 b9 04 25
        E 39 b9 04 15
        E 36 89 26 40
        E 15 89 2c 40
        E 41 89 33 40
        E 32 b9 04 25
        E 18 b9 04 36
        E 22 b9 04 46
        E 15 b9 04 4d
        E 2 99 2c 0a
        E 17 99 24 50
        E 5 b9 04 56
        E 60 99 33 54
        E 48 b9 04 46
        E 25 b9 04 36
        E 18 b9 04 25
        E 23 b9 04 15
        E 22 b9 04 03
        E 7 b9 04 00
        E 17 89 2c 40
        E 17 89 24 40
        E 65 89 33 40
        E 135 99 24 4b
        E 25 b9 04 12
        E 5 b9 04 22
        E 7 b9 04 34
        E 2 b9 04 46
        E 3 b9 04 4f
        E 2 99 2c 44
        E 4 b9 04 56
        E 3 99 33 62
        E 24 b9 04 66
        E 24 b9 04 56
        E 41 b9 04 46
        E 17 b9 04 36
        E 38 b9 04 25
        E 40 b9 04 15
        E 9 89 24 40
        E 41 89 2c 40
        E 10 89 33 40
        E 14 b9 04 25
        E 22 b9 04 36
        E 22 b9 04 46
        E 19 b9 04 4f
        E 3 99 2c 0c
        E 19 b9 04 56
        E 48 99 33 37
        E 10 99 24 49
        E 65 b9 04 46
        E 22 b9 04 36
        E 19 b9 04 22
        E 22 b9 04 12
        E 29 b9 04 00
        E 7 89 2c 40
        E 71 89 33 40
        E 7 89 24 40
        E 162 b9 04 12
        E 7 99 26 7f
        E 2 b9 04 25
        E 4 b9 04 36
        E 6 b9 04 46
        E 2 b9 04 4d
        E 2 99 2c 2a
        E 15 b9 04 56
        E 10 99 33 7f
        E 7 b9 04 66
        E 63 b9 04 56
        E 29 b9 04 46
        E 19 b9 04 36
        E 22 b9 04 25
        E 29 b9 04 15
        E 32 89 26 40
        E 16 89 2c 40
        E 25 89 33 40
        E 77 b9 04 25
        E 19 b9 04 36
        E 29 b9 04 46
        E 2 99 24 56
        E 15 b9 04 4d
        E 2 99 2c 08
        E 10 99 33 65
        E 108 b9 04 36
        E 22 b9 04 22
        E 22 b9 04 12
        E 29 b9 04 00
        E 34 89 24 40
        E 20 89 2c 40
        E 7 89 33 40
        E 147 99 24 43
        E 34 b9 04 12
        E 7 b9 04 27
        E 4 b9 04 38
        E 6 b9 04 49
        E 2 b9 04 4d
        E 3 99 2c 2e
        E 2 99 33 7f
        E 16 b9 04 5a
        E 37 b9 04 4a
        E 46 b9 04 3a
        E 41 b9 04 29
        E 46 89 24 40
        E 2 b9 04 18
        E 51 89 2c 40
        E 5 89 33 40
        E 19 b9 04 29
        E 34 b9 04 3a
        E 40 b9 04 4a
        E 45 b9 04 4f
        E 2 99 2c 06
        E 29 99 24 4c
        E 17 99 33 37
        E 24 b9 04 3a
        E 25 b9 04 29
        E 25 b9 04 18
        E 25 b9 04 06
        E 13 b9 04 00
        E 83 89 2c 40
        E 30 89 24 40
        E 16 89 33 40
        E 126 b9 04 12
        E 7 b9 04 22
        E 5 99 26 7f
        E 3 b9 04 34
        E 2 b9 04 44
        E 5 b9 04 4c
        E 2 99 2c 2c
        E 3 b9 04 54
        E 22 b9 04 65
        E 21 99 33 7f
        E 2 b9 04 55
        E 40 b9 04 44
        E 14 b9 04 34
        E 34 b9 04 22
        E 38 b9 04 12
        E 56 89 26 40
        E 9 89 2c 40
        E 49 89 33 40
        E 32 b9 04 22
        E 14 b9 04 32
        E 19 b9 04 43
        E 24 b9 04 4d
        E 3 99 2c 0a
        E 14 b9 04 53
        E 10 99 24 58
        E 43 99 33 5b
        E 49 b9 04 43
        E 25 b9 04 32
        E 13 b9 04 22
        E 22 b9 04 12
        E 29 b9 04 00
        E 38 89 2c 40
        E 28 89 24 40
        E 38 89 33 40
        E 140 99 24 4d
        E 19 b9 04 12
        E 8 b9 04 25
        E 2 b9 04 36
        E 5 b9 04 46
        E 2 b9 04 4c
        E 2 99 2c 3c
        E 3 b9 04 56
        E 6 99 33 75
        E 23 b9 04 66
        E 20 b9 04 56
        E 38 b9 04 46
        E 17 b9 04 36
        E 36 b9 04 25
        E 44 b9 04 15
        E 19 89 24 40
        E 39 89 2c 40
        E 5 89 33 40
        E 29 b9 04 25
        E 26 b9 04 36
        E 35 b9 04 46
        E 30 b9 04 4f
        E 3 99 2c 08
        E 36 99 33 59
        E 15 99 24 55
        E 60 b9 04 36
        E 24 b9 04 25
        E 22 b9 04 15
        E 29 b9 04 03
        E 7 b9 04 00
        E 51 89 2c 40
        E 39 89 33 40
        E 11 89 24 40
        E 150 b9 04 12
        E 5 99 26 7f
        E 5 b9 04 25
        E 7 b9 04 36
        E 10 b9 04 46
        E 5 b9 04 4c
        E 3 99 2c 1e
        E 7 99 33 7a
        E 4 b9 04 56
        E 10 b9 04 66
        E 60 b9 04 56
        E 22 b9 04 46
        E 27 b9 04 36
        E 24 b9 04 25
        E 36 b9 04 15
        E 25 89 26 40
        E 28 89 2c 40
        E 5 89 33 40
        E 70 b9 04 25
        E 24 b9 04 36
        E 22 99 24 58
        E 7 b9 04 46
        E 29 b9 04 4d
        E 3 99 2c 08
        E 15 99 33 4f
        E 84 b9 04 36
        E 19 b9 04 25
        E 18 b9 04 15
        E 26 b9 04 03
        E 9 b9 04 00
        E 32 89 24 40
        E 39 89 2c 40
        E 14 89 33 40
        E 142 99 24 54
        E 32 99 33 76
        E 9 b9 04 12
        E 8 b9 04 25
        E 7 b9 04 36
        E 2 b9 04 46
        E 3 b9 04 4c
        E 2 99 2c 36
        E 22 b9 04 56
        E 10 b9 04 66
        E 27 b9 04 56
        E 37 b9 04 46
        E 18 b9 04 36
        E 31 b9 04 25
        E 36 89 24 40
        E 5 b9 04 15
        E 24 89 33 40
        E 29 89 2c 40
        E 41 b9 04 25
        E 24 b9 04 36
        E 34 b9 04 46
        E 13 99 33 3c
        E 9 b9 04 4f
        E 2 99 2c 08
        E 44 99 24 59
        E 92 b9 04 36
        E 24 b9 04 25
        E 19 b9 04 15
        E 28 b9 04 03
        E 9 b9 04 00
        E 14 89 33 40
        E 12 89 2c 40
        E 46 89 24 40
        E 159 99 26 7f
        E 22 99 33 7c
        E 7 b9 04 12
        E 10 b9 04 22
        E 5 b9 04 32
        E 10 b9 04 43
        E 9 b9 04 4c
        E 3 99 2c 1c
        E 7 b9 04 53
        E 12 b9 04 64
        E 22 b9 04 54
        E 37 b9 04 44
        E 18 b9 04 34
        E 32 b9 04 22
        E 50 89 26 40
        E 5 b9 04 12
        E 20 89 33 40
        E 41 89 2c 40
        E 24 b9 04 22
        E 21 99 24 63
        E 3 b9 04 32
        E 24 b9 04 43
        E 7 99 33 3e
        E 37 b9 04 4f
        E 5 99 2c 08
        E 96 b9 04 32
        E 20 b9 04 22
        E 24 b9 04 12
        E 26 89 24 40
        E 5 b9 04 00
        E 29 89 33 40
        E 41 89 2c 40
        E 179 99 24 6e
        E 19 99 26 76
        E 19 b9 04 12
        E 10 b9 04 22
        E 5 b9 04 34
        E 5 b9 04 44
        E 19 b9 04 4c
        E 3 99 2c 26
        E 4 b9 04 55
        E 24 b9 04 44
        E 12 b9 04 34
        E 46 b9 04 20
        E 27 89 26 40
        E 2 99 26 51
        E 46 89 24 40
        E 17 b9 04 0f
        E 63 89 2c 40
        E 17 b9 04 20
        E 19 b9 04 30
        E 25 b9 04 41
        E 29 b9 04 4f
        E 2 99 2c 08
        E 8 b9 04 51
        E 13 89 26 40
        E 3 99 26 21
        E 3 99 24 4f
        E 79 b9 04 41
        E 29 b9 04 30
        E 17 b9 04 20
        E 27 b9 04 0f
        E 22 b9 04 00
        E 41 89 2c 40
        E 4 89 26 40
        E 5 99 26 39
        E 20 89 24 40
        E 181 99 24 52
        E 22 89 26 40
        E 0 99 26 44
        E 2 b9 04 12
        E 5 b9 04 25
        E 5 b9 04 36
        E 2 b9 04 46
        E 4 b9 04 4c
        E 3 99 2c 2e
        E 22 b9 04 57
        E 29 b9 04 47
        E 42 b9 04 36
        E 28 b9 04 25
        E 53 b9 04 15
        E 18 89 26 40
        E 4 99 26 41
        E 5 89 24 40
        E 44 89 2c 40
        E 47 b9 04 25
        E 25 b9 04 36
        E 24 b9 04 46
        E 22 b9 04 4f
        E 2 99 2c 0a
        E 31 99 24 5a
        E 15 89 26 40
        E 2 99 26 17
        E 75 b9 04 36
        E 22 b9 04 25
        E 20 b9 04 15
        E 26 b9 04 03
        E 10 b9 04 00
        E 42 89 2c 40
        E 7 89 26 40
        E 2 99 26 44
        E 24 89 24 40
        E 174 99 24 4f
        E 28 89 26 40
        E 3 99 26 5d
        E 5 b9 04 12
        E 7 b9 04 25
        E 5 b9 04 36
        E 2 b9 04 47
        E 3 b9 04 4d
        E 2 99 2c 36
        E 24 b9 04 57
        E 22 b9 04 47
        E 12 b9 04 36
        E 48 b9 04 25
        E 39 b9 04 15
        E 27 89 26 40
        E 2 99 26 41
        E 13 89 24 40
        E 57 89 2c 40
        E 61 b9 04 25
        E 24 b9 04 36
        E 26 b9 04 46
        E 10 99 24 57
        E 10 b9 04 4d
        E 2 99 2c 08
        E 12 89 26 40
        E 3 99 26 1a
        E 94 b9 04 36
        E 24 b9 04 25
        E 19 b9 04 15
        E 23 b9 04 03
        E 6 b9 04 00
        E 32 89 26 40
        E 2 99 26 57
        E 17 89 24 40
        E 10 89 2c 40
        E 162 99 24 55
        E 33 89 26 40
        E 3 99 26 5f
        E 29 b9 04 12
        E 7 b9 04 25
        E 10 b9 04 36
        E 28 b9 04 46
        E 5 b9 04 4c
        E 3 99 2c 1c
        E 2 b9 04 56
        E 20 b9 04 46
        E 7 b9 04 36
        E 38 b9 04 25
        E 31 b9 04 15
        E 3 89 26 40
        E 2 99 26 40
        E 20 89 24 40
        E 121 89 2c 40
        E 14 b9 04 25
        E 22 b9 04 36
        E 15 99 24 53
        E 16 b9 04 46
        E 3 89 26 40
        E 2 99 26 49
        E 107 b9 04 36
        E 27 b9 04 22
        E 21 b9 04 12
        E 31 b9 04 00
        E 34 89 24 40
        E 19 89 26 40
        E 177 99 24 7f
        E 9 99 28 40
        E 44 b9 04 12
        E 7 b9 04 27
        E 6 b9 04 3a
        E 2 b9 04 4a
        E 2 b9 04 4d
        E 3 99 2c 36
        E 4 99 26 7f
        E 27 b9 04 5b
        E 20 b9 04 4a
        E 11 b9 04 3a
        E 44 b9 04 29
        E 36 b9 04 18
        E 27 89 24 40
        E 7 89 28 40
        E 65 89 2c 40
        E 5 89 26 40
        E 50 b9 04 12
        E 61 b9 04 22
        E 49 b9 04 32
        E 139 b9 04 3c
        E 337 99 24 7f
        E 101 b9 04 36
        E 140 89 24 40
        E 196 99 30 7f
        E 2 99 2d 7f
        E 239 89 30 40
        E 2 89 2d 40
        E 164 b9 04 3e
        E 281 b9 04 4d
        E 2 99 2c 04
        E 22 b9 04 4d
        E 68 99 24 6b
        E 65 b9 04 3c
        E 88 89 2c 40
        E 14 b9 04 2c
        E 75 89 24 40
        E 45 b9 04 1a
        E 116 99 26 7f
        E 83 b9 04 2c
        E 14 89 26 40
        E 2 99 26 7f
        E 126 b9 04 1a
        E 113 89 26 40
        E 27 b9 04 2c
        E 73 b9 04 3c
        E 321 b9 04 2e
        E 145 b9 04 27
        E 48 b9 04 38
        E 27 b9 04 49
        E 14 b9 04 4f
        E 0 99 2c 0a
        E 29 b9 04 5a
        E 155 b9 04 4a
        E 41 b9 04 3a
        E 12 99 24 65
        E 7 89 2c 40
        E 14 b9 04 29
        E 42 b9 04 18
        E 55 b9 04 06
        E 29 b9 04 00
        E 95 89 24 40
        E 159 99 26 7f
        E 11 b9 04 12
        E 15 b9 04 22
        E 9 b9 04 32
        E 6 b9 04 43
        E 2 b9 04 4c
        E 3 99 2c 28
        E 2 b9 04 53
        E 17 b9 04 43
        E 5 b9 04 32
        E 10 b9 04 22
        E 22 99 28 7f
        E 48 b9 04 12
        E 92 89 26 40
        E 46 b9 04 22
        E 0 89 2c 40
        E 24 b9 04 32
        E 29 b9 04 43
        E 4 89 28 40
        E 109 99 24 50
        E 65 b9 04 32
        E 37 b9 04 22
        E 39 b9 04 12
        E 60 b9 04 00
        E 41 89 24 40
        E 174 99 2d 7f
        E 0 99 30 7f
        E 9 b9 04 12
        E 20 b9 04 25
        E 14 b9 04 36
        E 15 b9 04 46
        E 5 b9 04 4c
        E 2 99 2c 14
        E 5 b9 04 56
        E 17 b9 04 46
        E 9 b9 04 36
        E 53 b9 04 25
        E 92 89 2d 40
        E 6 89 30 40
        E 21 b9 04 36
        E 39 89 2c 40
        E 95 b9 04 3e
        E 28 99 24 59
        E 24 b9 04 2e
        E 39 b9 04 1d
        E 50 b9 04 0c
        E 29 b9 04 00
        E 102 89 24 40
        E 116 99 2d 7f
        E 65 b9 04 12
        E 22 b9 04 22
        E 10 b9 04 32
        E 33 b9 04 22
        E 19 b9 04 12
        E 95 89 2d 40
        E 24 b9 04 22
        E 31 b9 04 32
        E 148 b9 04 22
        E 46 b9 04 12
        E 48 b9 04 00
        E 326 99 24 7f
        E 10 b9 04 12
        E 12 b9 04 22
        E 2 99 33 7f
        E 3 99 31 7f
        E 21 b9 04 32
        E 8 b9 04 44
        E 4 b9 04 4c
        E 3 99 2c 2a
        E 5 b9 04 55
        E 12 b9 04 44
        E 5 b9 04 32
        E 9 b9 04 22
        E 150 89 24 40
        E 8 b9 04 32
        E 16 89 33 40
        E 3 89 31 40
        E 34 89 2c 40
        E 123 b9 04 22
        E 135 b9 04 1a
        E 102 b9 04 2c
        E 159 b9 04 3c
        E 31 99 24 61
        E 133 b9 04 44
        E 109 89 24 40
        E 17 b9 04 34
        E 144 b9 04 22
        E 73 99 26 7f
        E 92 99 28 7f
        E 3 b9 04 32
        E 147 89 26 40
        E 7 b9 04 22
        E 85 89 28 40
        E 56 b9 04 1d
        E 106 b9 04 2e
        E 43 b9 04 3e
        E 44 b9 04 4f
        E 2 99 2c 08
        E 2 b9 04 4f
        E 129 b9 04 57
        E 43 b9 04 47
        E 33 b9 04 36
        E 32 b9 04 22
        E 2 89 2c 40
        E 37 b9 04 12
        E 9 99 24 58
        E 42 b9 04 00
        E 202 89 24 40
        E 146 b9 04 12
        E 10 99 2d 7f
        E 16 b9 04 22
        E 3 99 30 7f
        E 22 b9 04 32
        E 6 b9 04 43
        E 6 b9 04 4d
        E 1 99 2c 2a
        E 3 b9 04 53
        E 19 b9 04 41
        E 5 b9 04 30
        E 8 b9 04 20
        E 127 b9 04 15
        E 25 89 2d 40
        E 19 89 30 40
        E 36 89 2c 40
        E 210 b9 04 1d
        E 131 b9 04 2e
        E 155 b9 04 36
        E 121 b9 04 46
        E 24 b9 04 4f
        E 2 99 2c 06
        E 19 b9 04 56
        E 116 b9 04 46
        E 31 b9 04 36
        E 34 b9 04 22
        E 20 99 24 6f
        E 19 b9 04 12
        E 2 89 2c 40
        E 39 b9 04 00
        E 182 89 24 40
        E 142 b9 04 12
        E 7 99 26 7f
        E 3 b9 04 25
        E 12 b9 04 36
        E 27 b9 04 46
        E 4 b9 04 4c
        E 3 99 2c 1c
        E 2 b9 04 56
        E 7 b9 04 66
        E 15 b9 04 56
        E 5 b9 04 46
        E 9 b9 04 36
        E 29 99 28 7f
        E 19 b9 04 25
        E 30 b9 04 15
        E 77 89 26 40
        E 48 89 2c 40
        E 36 b9 04 25
        E 25 b9 04 36
        E 7 89 28 40
        E 21 b9 04 46
        E 39 b9 04 4f
        E 3 99 2c 0a
        E 65 99 24 5c
        E 46 b9 04 36
        E 39 b9 04 25
        E 26 b9 04 15
        E 36 b9 04 03
        E 8 b9 04 00
        E 21 89 2c 40
        E 68 89 24 40
        E 147 99 2d 7f
        E 20 99 30 7f
        E 29 b9 04 12
        E 18 b9 04 22
        E 10 b9 04 32
        E 13 b9 04 43
        E 2 b9 04 4c
        E 3 99 2c 1e
        E 5 b9 04 54
        E 23 b9 04 44
        E 8 b9 04 34
        E 46 b9 04 22
        E 67 89 2d 40
        E 20 89 30 40
        E 34 b9 04 32
        E 38 b9 04 43
        E 3 89 2c 40
        E 133 99 24 6c
        E 14 b9 04 32
        E 31 b9 04 22
        E 39 b9 04 12
        E 43 b9 04 00
        E 114 89 24 40
        E 137 99 2d 7f
        E 1 99 29 7f
        E 46 b9 04 12
        E 34 b9 04 22
        E 9 b9 04 32
        E 10 b9 04 43
        E 5 b9 04 4c
        E 0 99 2c 20
        E 4 b9 04 53
        E 17 b9 04 43
        E 10 b9 04 32
        E 9 b9 04 22
        E 56 b9 04 12
        E 41 89 2d 40
        E 3 89 29 40
        E 104 89 2c 40
        E 19 b9 04 22
        E 17 b9 04 32
        E 7 99 2d 7f
        E 22 99 29 7f
        E 12 b9 04 43
        E 101 b9 04 32
        E 25 b9 04 22
        E 29 b9 04 12
        E 34 b9 04 00
        E 19 89 2d 40
        E 24 89 29 40
        E 174 99 24 7f
        E 41 99 33 79
        E 2 99 31 7f
        E 30 b9 04 12
        E 8 b9 04 22
        E 11 b9 04 32
        E 21 b9 04 43
        E 7 b9 04 4c
        E 3 99 2c 18
        E 2 b9 04 53
        E 30 b9 04 43
        E 50 b9 04 32
        E 39 89 24 40
        E 7 b9 04 22
        E 34 89 33 40
        E 2 89 31 40
        E 80 89 2c 40
        E 31 b9 04 32
        E 164 b9 04 22
        E 63 b9 04 12
        E 100 b9 04 00
        E 96 99 24 5f
        E 6 b9 04 12
        E 23 b9 04 22
        E 19 b9 04 32
        E 30 b9 04 43
        E 21 b9 04 4c
        E 5 99 2c 08
        E 104 b9 04 47
        E 33 89 24 40
        E 13 b9 04 36
        E 43 b9 04 25
        E 49 b9 04 15
        E 2 89 2c 40
        E 75 b9 04 03
        E 15 b9 04 00
        E 47 99 26 7f
        E 88 99 28 68
        E 62 b9 04 12
        E 39 b9 04 22
        E 17 b9 04 32
        E 39 89 26 40
        E 2 b9 04 22
        E 82 89 28 40
        E 44 b9 04 18
        E 152 b9 04 29
        E 43 b9 04 3a
        E 37 b9 04 4a
        E 2 b9 04 4c
        E 3 99 2c 0a
        E 41 b9 04 5a
        E 96 b9 04 4a
        E 29 b9 04 3a
        E 24 b9 04 29
        E 27 b9 04 18
        E 22 89 2c 40
        E 15 b9 04 06
        E 19 b9 04 00
        E 26 99 24 6f
        E 242 89 24 40
        E 114 b9 04 12
        E 9 b9 04 22
        E 9 b9 04 32
        E 8 99 2d 7f
        E 22 99 30 7f
        E 7 b9 04 43
        E 2 b9 04 4f
        E 3 99 2c 32
        E 2 b9 04 54
        E 19 b9 04 43
        E 5 b9 04 32
        E 7 b9 04 22
        E 124 b9 04 1d
        E 51 89 2d 40
        E 11 b9 04 2e
        E 13 89 30 40
        E 12 89 2c 40
        E 135 b9 04 1d
        E 60 b9 04 0c
        E 32 b9 04 00
        E 276 b9 04 12
        E 23 b9 04 22
        E 10 b9 04 32
        E 8 b9 04 43
        E 4 b9 04 4c
        E 3 99 2c 24
        E 2 b9 04 53
        E 21 b9 04 43
        E 13 b9 04 32
        E 157 b9 04 2c
        E 48 89 2c 40
        E 20 b9 04 3c
        E 101 b9 04 2c
        E 7 99 24 65
        E 44 b9 04 1a
        E 46 b9 04 09
        E 26 b9 04 00
        E 129 89 24 40
        E 145 99 26 7f
        E 55 b9 04 12
        E 10 b9 04 25
        E 28 b9 04 36
        E 8 b9 04 47
        E 5 b9 04 4c
        E 2 99 2c 20
        E 2 89 26 40
        E 3 99 26 7f
        E 9 b9 04 36
        E 7 b9 04 25
        E 15 b9 04 15
        E 157 b9 04 25
        E 29 b9 04 36
        E 22 89 2c 40
        E 2 89 26 40
        E 20 b9 04 46
        E 87 99 30 3b
        E 5 b9 04 36
        E 43 b9 04 25
        E 32 b9 04 15
        E 45 b9 04 03
        E 13 b9 04 00
        E 33 89 30 40
        E 2 99 30 73
        E 213 99 26 59
        E 27 89 30 40
        E 109 b9 04 12
        E 43 b9 04 22
        E 10 b9 04 32
        E 7 b9 04 43
        E 14 b9 04 32
        E 5 89 26 40
        E 5 99 26 73
        E 2 b9 04 22
        E 5 b9 04 12
        E 152 b9 04 22
        E 37 89 26 40
        E 0 99 26 4b
        E 12 b9 04 32
        E 101 b9 04 20
        E 63 b9 04 0f
        E 34 89 26 40
        E 2 99 26 70
        E 5 b9 04 00
        E 215 89 26 40
        E 3 99 26 71
        E 120 b9 04 12
        E 36 b9 04 22
        E 13 b9 04 32
        E 7 b9 04 43
        E 20 b9 04 32
        E 2 89 26 40
        E 3 99 26 7b
        E 2 b9 04 20
        E 29 b9 04 0f
        E 106 b9 04 20
        E 34 b9 04 30
        E 31 89 26 40
        E 2 99 26 74
        E 90 b9 04 20
        E 51 b9 04 0f
        E 33 b9 04 00
        E 15 89 26 40
        E 3 99 26 79
        E 241 89 26 40
        E 17 99 24 7f
        E 22 99 33 7f
        E 17 b9 04 12
        E 9 b9 04 22
        E 13 b9 04 32
        E 21 b9 04 43
        E 7 b9 04 4c
        E 3 99 2c 18
        E 16 b9 04 32
        E 10 b9 04 20
        E 104 b9 04 0f
        E 20 89 24 40
        E 21 89 33 40
        E 73 89 2c 40
        E 9 b9 04 20
        E 34 b9 04 30
        E 44 b9 04 41
        E 104 b9 04 4f
        E 2 99 2c 04
        E 39 b9 04 4d
        E 150 b9 04 43
        E 55 89 2c 40
        E 106 99 24 72
        E 37 b9 04 32
        E 86 b9 04 22
        E 109 b9 04 12
        E 10 89 24 40
        E 147 b9 04 03
        E 10 b9 04 00
        E 22 99 26 7f
        E 77 b9 04 12
        E 22 99 28 7f
        E 12 b9 04 22
        E 34 b9 04 32
        E 24 b9 04 43
        E 34 b9 04 32
        E 26 b9 04 22
        E 15 89 26 40
        E 99 89 28 40
        E 24 b9 04 1a
        E 145 b9 04 2c
        E 68 b9 04 3c
        E 29 b9 04 4c
        E 2 99 2c 0a
        E 2 b9 04 4c
        E 39 b9 04 5c
        E 135 b9 04 4c
        E 27 b9 04 3c
        E 22 b9 04 2c
        E 17 89 2c 40
        E 9 b9 04 1a
        E 17 99 24 72
        E 20 b9 04 09
        E 29 b9 04 00
        E 192 89 24 40
        E 139 99 2d 7f
        E 53 99 30 7f
        E 16 b9 04 12
        E 58 b9 04 22
        E 15 b9 04 32
        E 5 b9 04 43
        E 2 b9 04 4c
        E 3 99 2c 34
        E 2 b9 04 55
        E 17 b9 04 44
        E 5 b9 04 32
        E 7 b9 04 22
        E 15 b9 04 12
        E 43 89 2d 40
        E 56 89 30 40
        E 96 89 2c 40
        E 191 b9 04 22
        E 36 b9 04 32
        E 126 b9 04 3f
        E 133 b9 04 4f
        E 2 99 2c 08
        E 3 b9 04 4f
        E 159 b9 04 3f
        E 32 b9 04 2e
        E 24 b9 04 1d
        E 24 89 2c 40
        E 17 b9 04 0c
        E 29 b9 04 00
        E 38 99 24 7c
        E 242 89 24 40
        E 116 99 26 7f
        E 3 b9 04 12
        E 47 b9 04 22
        E 8 b9 04 32
        E 29 b9 04 22
        E 10 b9 04 12
        E 7 99 28 7f
        E 121 b9 04 03
        E 17 89 26 40
        E 60 b9 04 15
        E 27 b9 04 25
        E 17 89 28 40
        E 7 b9 04 36
        E 77 99 26 63
        E 96 b9 04 25
        E 25 b9 04 15
        E 12 99 30 7f
        E 19 b9 04 03
        E 12 b9 04 00
        E 78 89 26 40
        E 55 99 2d 7f
        E 78 89 30 40
        E 43 99 24 77
        E 27 b9 04 12
        E 26 b9 04 22
        E 10 b9 04 32
        E 9 b9 04 43
        E 5 b9 04 4c
        E 3 99 2c 20
        E 2 b9 04 53
        E 39 89 2d 40
        E 7 b9 04 43
        E 34 b9 04 32
        E 84 89 24 40
        E 76 89 2c 40
        E 101 b9 04 38
        E 58 99 24 62
        E 2 b9 04 27
        E 44 b9 04 15
        E 53 b9 04 03
        E 19 b9 04 00
        E 125 89 24 40
        E 160 99 26 7f
        E 19 b9 04 12
        E 32 b9 04 22
        E 7 b9 04 32
        E 5 b9 04 43
        E 7 b9 04 4c
        E 1 99 2c 28
        E 16 b9 04 30
        E 7 b9 04 20
        E 13 99 28 7f
        E 9 b9 04 0f
        E 126 89 26 40
        E 72 89 2c 40
        E 22 b9 04 20
        E 12 89 28 40
        E 8 b9 04 30
        E 19 b9 04 41
        E 31 b9 04 4f
        E 2 99 2c 0a
        E 8 b9 04 51
        E 48 99 24 4e
        E 70 b9 04 41
        E 32 b9 04 30
        E 23 b9 04 20
        E 45 b9 04 0f
        E 17 89 2c 40
        E 29 b9 04 00
        E 26 89 24 40
        E 343 99 24 7f
        E 11 b9 04 12
        E 13 b9 04 22
        E 29 99 31 7f
        E 3 b9 04 32
        E 4 99 33 7f
        E 3 b9 04 44
        E 2 b9 04 4d
        E 4 99 2c 30
        E 5 b9 04 54
        E 8 b9 04 43
        E 5 b9 04 30
        E 4 b9 04 20
        E 18 b9 04 0f
        E 135 89 24 40
        E 53 89 31 40
        E 10 b9 04 20
        E 2 89 33 40
        E 2 89 2c 40
        E 22 b9 04 30
        E 44 b9 04 41
        E 104 b9 04 30
        E 36 b9 04 20
        E 51 b9 04 0f
        E 45 b9 04 00
        E 305 99 33 74
        E 56 b9 04 12
        E 23 b9 04 22
        E 10 b9 04 32
        E 12 b9 04 43
        E 5 b9 04 4c
        E 3 99 2c 1c
        E 21 b9 04 32
        E 13 b9 04 22
        E 101 89 33 40
        E 58 b9 04 2e
        E 48 89 2c 40
        E 19 b9 04 1d
        E 80 b9 04 0c
        E 6 99 26 7f
        E 50 b9 04 00
        E 193 89 26 40
        E 89 b9 04 12
        E 32 b9 04 22
        E 19 b9 04 32
        E 15 b9 04 43
        E 19 b9 04 32
        E 14 b9 04 22
        E 3 99 33 59
        E 123 b9 04 15
        E 82 b9 04 25
        E 32 b9 04 36
        E 5 89 33 40
        E 28 b9 04 46
        E 126 b9 04 36
        E 37 b9 04 25
        E 6 99 24 78
        E 22 b9 04 15
        E 43 b9 04 03
        E 16 b9 04 00
        E 161 89 24 40
        E 189 99 28 7f
        E 12 99 33 7f
        E 2 b9 04 12
        E 10 b9 04 25
        E 8 b9 04 36
        E 33 b9 04 47
        E 0 b9 04 4d
        E 5 99 2c 28
        E 2 b9 04 57
        E 13 b9 04 47
        E 7 b9 04 36
        E 7 b9 04 25
        E 12 b9 04 15
        E 94 b9 04 25
        E 36 89 28 40
        E 12 89 33 40
        E 56 89 2c 40
        E 87 b9 04 15
        E 68 b9 04 03
        E 19 b9 04 00
        E 302 99 33 69
        E 58 b9 04 12
        E 19 b9 04 22
        E 19 b9 04 32
        E 10 b9 04 44
        E 3 b9 04 4c
        E 2 99 2c 26
        E 3 b9 04 54
        E 6 b9 04 65
        E 13 b9 04 55
        E 7 b9 04 44
        E 22 b9 04 34
        E 79 89 33 40
        E 80 b9 04 22
        E 31 89 2c 40
        E 18 b9 04 12
        E 70 b9 04 00
        E 7 99 30 7f
        E 241 89 30 40
        E 100 b9 04 12
        E 33 b9 04 22
        E 15 b9 04 32
        E 7 b9 04 43
        E 5 b9 04 4d
        E 2 99 2c 2a
        E 3 b9 04 53
        E 2 99 33 4d
        E 12 b9 04 43
        E 7 b9 04 32
        E 10 b9 04 22
        E 208 b9 04 32
        E 2 89 2c 40
        E 3 89 33 40
        E 106 b9 04 22
        E 42 99 24 6b
        E 13 b9 04 12
        E 76 b9 04 00
        E 152 89 24 40
        E 186 b9 04 12
        E 12 b9 04 22
        E 16 99 2d 7f
        E 10 b9 04 32
        E 17 b9 04 43
        E 5 b9 04 4c
        E 3 99 2c 20
        E 2 b9 04 53
        E 22 b9 04 43
        E 9 b9 04 32
        E 44 b9 04 22
        E 86 b9 04 12
        E 44 89 2d 40
        E 34 89 2c 40
        E 39 b9 04 22
        E 24 b9 04 32
        E 27 b9 04 43
        E 40 b9 04 4f
        E 2 99 2c 08
        E 98 99 24 5d
        E 21 b9 04 32
        E 29 b9 04 22
        E 37 b9 04 12
        E 41 b9 04 00
        E 16 89 2c 40
        E 97 89 24 40
        E 167 99 29 7f
        E 5 99 33 47
        E 77 b9 04 12
        E 11 b9 04 25
        E 36 b9 04 36
        E 28 b9 04 25
        E 10 b9 04 15
        E 75 89 29 40
        E 7 89 33 40
        E 9 b9 04 25
        E 148 b9 04 15
        E 60 b9 04 03
        E 17 b9 04 00
        E 382 b9 04 12
        E 10 b9 04 22
        E 0 99 31 7f
        E 7 99 24 7f
        E 9 b9 04 32
        E 10 99 33 7f
        E 10 b9 04 43
        E 16 b9 04 32
        E 8 b9 04 22
        E 17 b9 04 12
        E 104 b9 04 22
        E 50 b9 04 32
        E 11 89 31 40
        E 7 89 24 40
        E 19 89 33 40
        E 128 b9 04 22
        E 43 b9 04 12
        E 61 b9 04 00
        E 317 99 24 70
        E 2 b9 04 12
        E 7 b9 04 22
        E 12 b9 04 32
        E 12 99 33 7f
        E 15 b9 04 43
        E 4 b9 04 4c
        E 1 99 2c 1c
        E 24 b9 04 32
        E 6 b9 04 22
        E 69 b9 04 12
        E 88 89 24 40
        E 37 89 33 40
        E 19 89 2c 40
        E 61 b9 04 22
        E 24 b9 04 32
        E 108 99 26 7f
        E 18 b9 04 36
        E 45 b9 04 25
        E 37 b9 04 15
        E 41 b9 04 03
        E 12 b9 04 00
        E 89 89 26 40
        E 174 99 33 6b
        E 55 b9 04 12
        E 13 b9 04 22
        E 9 b9 04 32
        E 27 b9 04 43
        E 7 b9 04 4c
        E 3 99 2c 1a
        E 22 b9 04 32
        E 12 b9 04 20
        E 94 89 33 40
        E 63 b9 04 18
        E 48 b9 04 29
        E 3 89 2c 40
        E 142 99 24 75
        E 43 b9 04 18
        E 51 b9 04 06
        E 27 b9 04 00
        E 120 89 24 40
        E 148 99 30 7f
        E 39 99 33 77
        E 43 b9 04 12
        E 12 b9 04 22
        E 31 b9 04 32
        E 10 b9 04 43
        E 17 b9 04 32
        E 7 b9 04 20
        E 19 b9 04 0f
        E 63 89 30 40
        E 31 b9 04 20
        E 11 89 33 40
        E 120 b9 04 25
        E 56 b9 04 15
        E 58 b9 04 03
        E 16 b9 04 00
        E 309 99 33 5a
        E 18 b9 04 12
        E 15 b9 04 22
        E 26 b9 04 32
        E 12 b9 04 43
        E 3 b9 04 4c
        E 2 99 2c 26
        E 2 b9 04 53
        E 20 b9 04 41
        E 7 b9 04 30
        E 17 b9 04 20
        E 123 89 33 40
        E 73 89 2c 40
        E 5 b9 04 30
        E 132 99 24 6d
        E 5 b9 04 20
        E 65 b9 04 0f
        E 51 b9 04 00
        E 121 89 24 40
        E 135 99 26 7f
        E 50 b9 04 12
        E 13 b9 04 25
        E 29 b9 04 36
        E 9 b9 04 46
        E 3 b9 04 4d
        E 2 99 2c 26
        E 3 b9 04 57
        E 12 89 26 40
        E 0 99 26 7f
        E 7 b9 04 47
        E 7 b9 04 36
        E 44 b9 04 25
        E 33 b9 04 15
        E 136 89 2c 40
        E 14 b9 04 25
        E 3 89 26 40
        E 22 b9 04 36
        E 115 99 24 65
        E 15 b9 04 3a
        E 38 b9 04 29
        E 37 b9 04 18
        E 39 b9 04 06
        E 14 b9 04 00
        E 99 89 24 40
        E 159 99 30 7f
        E 3 99 2d 7f
        E 123 b9 04 12
        E 46 b9 04 22
        E 8 b9 04 32
        E 7 b9 04 43
        E 5 b9 04 4c
        E 2 99 2c 28
        E 12 b9 04 32
        E 7 b9 04 20
        E 12 b9 04 0f
        E 17 89 30 40
        E 5 89 2d 40
        E 152 99 2d 7f
        E 32 99 30 7f
        E 4 89 2c 40
        E 71 b9 04 20
        E 50 b9 04 30
        E 44 b9 04 41
        E 27 b9 04 4f
        E 2 99 2c 08
        E 5 b9 04 51
        E 7 89 2d 40
        E 34 89 30 40
        E 126 b9 04 41
        E 29 b9 04 30
        E 21 b9 04 20
        E 12 99 24 76
        E 8 89 2c 40
        E 14 b9 04 0f
        E 31 b9 04 00
        E 189 89 24 40
        E 152 b9 04 12
        E 7 b9 04 25
        E 10 b9 04 36
        E 2 99 2d 7f
        E 12 b9 04 46
        E 15 b9 04 4c
        E 2 99 2c 14
        E 5 b9 04 56
        E 12 b9 04 66
        E 90 b9 04 56
        E 22 b9 04 46
        E 16 b9 04 36
        E 18 b9 04 22
        E 16 b9 04 12
        E 26 b9 04 00
        E 8 89 2d 40
        E 29 89 2c 40
        E 154 99 24 7f
        E 73 99 33 79
        E 10 99 31 79
        E 75 b9 04 12
        E 7 b9 04 22
        E 5 b9 04 32
        E 5 b9 04 43
        E 4 b9 04 4d
        E 2 99 2c 2e
        E 2 b9 04 53
        E 13 b9 04 43
        E 8 b9 04 32
        E 7 b9 04 20
        E 12 b9 04 0f
        E 19 89 24 40
        E 75 89 33 40
        E 8 89 31 40
        E 45 b9 04 20
        E 32 b9 04 30
        E 21 89 2c 40
        E 114 b9 04 20
        E 44 b9 04 0f
        E 38 b9 04 00
        E 287 99 33 7f
        E 3 99 24 69
        E 10 b9 04 12
        E 24 b9 04 22
        E 21 b9 04 32
        E 13 b9 04 43
        E 5 b9 04 4c
        E 2 99 2c 1e
        E 24 b9 04 32
        E 14 b9 04 22
        E 126 89 33 40
        E 3 89 24 40
        E 23 b9 04 1d
        E 52 89 2c 40
        E 19 b9 04 2e
        E 101 b9 04 1d
        E 51 99 26 7f
        E 27 b9 04 0c
        E 36 b9 04 00
        E 179 89 26 40
        E 130 b9 04 12
        E 24 b9 04 22
        E 17 b9 04 32
        E 12 99 33 4f
        E 2 b9 04 43
        E 17 b9 04 32
        E 10 b9 04 20
        E 130 b9 04 12
        E 74 b9 04 22
        E 11 89 33 40
        E 17 b9 04 32
        E 150 99 24 64
        E 2 b9 04 22
        E 41 b9 04 12
        E 58 b9 04 00
        E 143 89 24 40
        E 125 99 26 7f
        E 76 b9 04 12
        E 9 89 26 40
        E 2 99 26 7e
        E 3 b9 04 25
        E 31 b9 04 36
        E 10 b9 04 46
        E 3 b9 04 4d
        E 2 99 2c 22
        E 24 b9 04 36
        E 9 b9 04 25
        E 56 b9 04 15
        E 101 89 26 40
        E 51 89 2c 40
        E 59 b9 04 25
        E 29 99 2d 7f
        E 2 b9 04 36
        E 12 99 30 7f
        E 24 b9 04 46
        E 41 b9 04 4f
        E 3 99 2c 06
        E 159 89 2d 40
        E 15 89 30 40
        E 53 b9 04 36
        E 14 89 2c 40
        E 43 b9 04 25
        E 32 99 24 5c
        E 13 b9 04 15
        E 91 b9 04 03
        E 24 b9 04 00
        E 114 89 24 40
        E 183 b9 04 12
        E 14 b9 04 22
        E 17 b9 04 32
        E 17 b9 04 43
        E 5 99 30 7f
        E 3 b9 04 4c
        E 2 99 2c 18
        E 2 b9 04 53
        E 3 99 2d 7f
        E 5 b9 04 63
        E 17 b9 04 51
        E 7 b9 04 41
        E 20 b9 04 30
        E 43 b9 04 20
        E 142 89 30 40
        E 6 89 2c 40
        E 2 89 2d 40
        E 36 b9 04 30
        E 36 b9 04 41
        E 39 b9 04 4f
        E 3 99 2c 08
        E 7 b9 04 51
        E 50 99 2d 7f
        E 89 b9 04 5c
        E 95 89 2c 40
        E 57 89 2d 40
        E 175 b9 04 54
        E 292 b9 04 44
        E 73 b9 04 34
        E 89 b9 04 22
        E 37 99 2d 7f
        E 9 99 30 7f
        E 111 b9 04 32
        E 27 b9 04 43
        E 22 b9 04 4f
        E 2 99 2c 0a
        E 5 b9 04 53
        E 58 b9 04 63
        E 7 89 2d 40
        E 12 89 30 40
        E 113 b9 04 53
        E 29 b9 04 43
        E 18 89 2c 40
        E 14 b9 04 32
        E 20 b9 04 22
        E 35 b9 04 12
        E 53 b9 04 00
        E 314 99 2d 7f
        E 10 99 29 7f
        E 39 b9 04 12
        E 22 b9 04 25
        E 7 b9 04 36
        E 5 b9 04 46
        E 17 b9 04 36
        E 9 b9 04 22
        E 123 b9 04 32
        E 13 89 2d 40
        E 6 89 29 40
        E 71 b9 04 22
        E 50 b9 04 12
        E 70 b9 04 00
        E 363 b9 04 12
        E 7 b9 04 22
        E 5 99 24 7f
        E 5 b9 04 32
        E 32 b9 04 43
        E 4 b9 04 4d
        E 2 99 2c 22
        E 3 b9 04 55
        E 7 99 31 7f
        E 2 99 33 7f
        E 10 b9 04 44
        E 8 b9 04 34
        E 12 b9 04 22
        E 138 b9 04 32
        E 19 89 24 40
        E 48 89 2c 40
        E 5 89 31 40
        E 2 89 33 40
        E 63 b9 04 36
        E 44 b9 04 25
        E 39 b9 04 15
        E 63 b9 04 03
        E 11 b9 04 00
        E 326 b9 04 12
        E 11 b9 04 22
        E 11 b9 04 32
        E 5 99 24 76
        E 22 99 33 5e
        E 2 b9 04 43
        E 5 b9 04 4d
        E 3 99 2c 24
        E 2 b9 04 53
        E 16 b9 04 43
        E 8 b9 04 32
        E 12 b9 04 22
        E 92 b9 04 12
        E 79 89 24 40
        E 22 89 33 40
        E 10 89 2c 40
        E 39 b9 04 22
        E 33 b9 04 32
        E 128 99 26 7f
        E 22 b9 04 22
        E 49 b9 04 12
        E 45 b9 04 00
        E 126 89 26 40
        E 172 b9 04 12
        E 19 99 33 4d
        E 3 b9 04 22
        E 17 b9 04 32
        E 9 b9 04 43
        E 22 b9 04 32
        E 12 b9 04 20
        E 128 b9 04 15
        E 50 89 33 40
        E 3 b9 04 25
        E 33 b9 04 36
        E 153 99 24 77
        E 16 b9 04 25
        E 35 b9 04 15
        E 55 b9 04 03
        E 15 b9 04 00
        E 120 89 24 40
        E 206 99 28 72
        E 12 99 33 7f
        E 14 b9 04 12
        E 13 b9 04 22
        E 26 b9 04 32
        E 10 b9 04 43
        E 7 b9 04 4c
        E 0 99 2c 20
        E 17 b9 04 32
        E 7 b9 04 22
        E 15 b9 04 12
        E 123 89 28 40
        E 12 89 33 40
        E 53 b9 04 22
        E 17 89 2c 40
        E 176 b9 04 12
        E 60 b9 04 00
        E 279 99 33 4e
        E 12 b9 04 12
        E 10 b9 04 22
        E 9 b9 04 32
        E 21 b9 04 43
        E 7 b9 04 4c
        E 3 99 2c 16
        E 3 b9 04 53
        E 9 b9 04 63
        E 51 b9 04 53
        E 34 b9 04 43
        E 46 b9 04 32
        E 39 89 33 40
        E 60 89 2c 40
        E 148 99 24 6f
        E 9 b9 04 22
        E 51 b9 04 12
        E 60 b9 04 00
        E 124 89 24 40
        E 203 99 26 7f
        E 24 99 33 67
        E 12 b9 04 12
        E 12 b9 04 22
        E 29 b9 04 32
        E 9 b9 04 43
        E 3 b9 04 4c
        E 2 99 2c 26
        E 5 b9 04 53
        E 14 b9 04 41
        E 8 b9 04 30
        E 5 b9 04 20
        E 72 b9 04 0f
        E 46 89 26 40
        E 27 89 33 40
        E 67 89 2c 40
        E 12 b9 04 20
        E 22 b9 04 30
        E 29 b9 04 41
        E 138 b9 04 30
        E 2 99 24 49
        E 25 b9 04 20
        E 41 b9 04 0f
        E 29 b9 04 00
        E 147 89 24 40
        E 188 99 33 4b
        E 20 b9 04 12
        E 12 b9 04 25
        E 41 b9 04 36
        E 7 b9 04 47
        E 2 b9 04 4d
        E 3 99 2c 30
        E 2 b9 04 57
        E 12 b9 04 47
        E 5 b9 04 36
        E 8 b9 04 25
        E 9 b9 04 15
        E 56 b9 04 25
        E 58 b9 04 36
        E 9 89 33 40
        E 80 89 2c 40
        E 39 b9 04 25
        E 39 b9 04 15
        E 3 99 33 07
        E 20 99 24 68
        E 32 b9 04 03
        E 17 b9 04 00
        E 174 89 33 40
        E 20 89 24 40
        E 178 99 26 78
        E 19 99 33 62
        E 15 b9 04 12
        E 14 b9 04 22
        E 36 b9 04 32
        E 5 b9 04 43
        E 5 b9 04 4d
        E 2 99 2c 2a
        E 18 b9 04 32
        E 9 b9 04 20
        E 121 89 26 40
        E 17 89 33 40
        E 75 b9 04 0f
        E 1 89 2c 40
        E 47 b9 04 00
        E 447 b9 04 12
        E 10 b9 04 22
        E 6 99 24 7f
        E 8 b9 04 32
        E 12 b9 04 43
        E 14 99 31 6d
        E 3 b9 04 32
        E 5 99 33 7f
        E 5 b9 04 20
        E 12 b9 04 0f
        E 178 b9 04 20
        E 6 89 24 40
        E 36 89 31 40
        E 7 89 33 40
        E 152 b9 04 0f
        E 53 b9 04 00
        E 329 b9 04 12
        E 17 99 24 6b
        E 9 b9 04 22
        E 12 99 33 7f
        E 5 b9 04 32
        E 29 b9 04 20
        E 20 b9 04 0f
        E 167 89 24 40
        E 21 89 33 40
        E 49 b9 04 20
        E 26 b9 04 30
        E 140 99 26 7f
        E 24 b9 04 20
        E 51 b9 04 0f
        E 36 b9 04 00
        E 131 89 26 40
        E 171 99 33 7f
        E 5 b9 04 12
        E 15 b9 04 22
        E 26 b9 04 32
        E 10 b9 04 43
        E 5 b9 04 4d
        E 2 99 2c 24
        E 2 b9 04 54
        E 20 b9 04 44
        E 10 b9 04 34
        E 123 b9 04 29
        E 24 89 33 40
        E 63 89 2c 40
        E 92 b9 04 18
        E 19 99 24 68
        E 36 b9 04 06
        E 22 b9 04 00
        E 183 89 24 40
        E 158 b9 04 12
        E 10 b9 04 25
        E 14 99 28 44
        E 17 b9 04 36
        E 7 b9 04 46
        E 5 b9 04 4d
        E 4 99 2c 26
        E 5 99 33 7f
        E 12 b9 04 36
        E 10 b9 04 25
        E 48 b9 04 15
        E 133 89 28 40
        E 29 b9 04 25
        E 10 89 2c 40
        E 2 89 33 40
        E 174 b9 04 15
        E 54 b9 04 03
        E 9 b9 04 00
        E 283 99 33 59
        E 17 b9 04 12
        E 26 b9 04 22
        E 13 b9 04 32
        E 7 b9 04 43
        E 5 b9 04 4c
        E 2 99 2c 24
        E 3 b9 04 54
        E 14 b9 04 44
        E 9 b9 04 32
        E 15 b9 04 22
        E 75 b9 04 12
        E 55 89 33 40
        E 48 b9 04 22
        E 22 89 2c 40
        E 15 b9 04 32
        E 101 99 24 64
        E 39 b9 04 22
        E 51 b9 04 12
        E 46 b9 04 00
        E 106 89 24 40
        E 198 99 33 5f
        E 10 99 26 75
        E 29 b9 04 12
        E 9 b9 04 25
        E 22 b9 04 36
        E 10 b9 04 46
        E 19 b9 04 36
        E 12 b9 04 22
        E 97 b9 04 32
        E 34 89 33 40
        E 9 89 26 40
        E 126 b9 04 22
        E 39 b9 04 12
        E 19 99 26 7f
        E 24 b9 04 00
        E 131 89 26 40
        E 0 99 26 79
        E 220 89 26 40
        E 2 99 26 7c
        E 14 b9 04 12
        E 12 b9 04 22
        E 39 b9 04 32
        E 17 b9 04 20
        E 36 b9 04 0f
        E 61 b9 04 20
        E 60 b9 04 30
        E 3 89 26 40
        E 87 b9 04 20
        E 60 b9 04 0f
        E 48 b9 04 00
        E 24 99 30 34
        E 165 89 30 40
        E 0 99 30 6d
        E 174 b9 04 12
        E 17 b9 04 22
        E 7 89 30 40
        E 2 99 30 7f
        E 27 b9 04 32
        E 29 b9 04 20
        E 22 b9 04 0f
        E 164 89 30 40
        E 101 b9 04 20
        E 29 b9 04 30
        E 54 b9 04 41
        E 11 99 2d 7f
        E 92 b9 04 30
        E 32 b9 04 20
        E 41 b9 04 0f
        E 34 b9 04 00
        E 43 89 2d 40
        E 193 99 31 73
        E 2 99 24 65
        E 30 99 33 7f
        E 36 b9 04 12
        E 12 b9 04 22
        E 24 b9 04 32
        E 15 b9 04 43
        E 5 b9 04 4c
        E 2 99 2c 1e
        E 3 b9 04 53
        E 19 b9 04 43
        E 9 b9 04 32
        E 56 b9 04 22
        E 29 89 31 40
        E 2 89 24 40
        E 30 89 33 40
        E 93 89 2c 40
        E 111 b9 04 12
        E 40 b9 04 00
        E 289 99 24 73
        E 20 99 33 7f
        E 2 b9 04 12
        E 15 b9 04 25
        E 28 b9 04 36
        E 27 b9 04 25
        E 14 b9 04 15
        E 136 89 24 40
        E 22 89 33 40
        E 26 b9 04 0f
        E 48 b9 04 20
        E 25 b9 04 30
        E 46 b9 04 41
        E 48 99 26 7f
        E 63 b9 04 30
        E 33 b9 04 20
        E 44 b9 04 0f
        E 31 b9 04 00
        E 71 89 26 40
        E 186 99 33 65
        E 53 b9 04 12
        E 14 b9 04 22
        E 27 b9 04 32
        E 12 b9 04 43
        E 22 b9 04 32
        E 12 b9 04 20
        E 101 89 33 40
        E 32 b9 04 1a
        E 50 b9 04 2c
        E 111 99 24 63
        E 56 b9 04 1a
        E 53 b9 04 09
        E 25 b9 04 00
        E 108 89 24 40
        E 145 99 33 71
        E 29 99 26 7f
        E 60 b9 04 12
        E 12 b9 04 22
        E 27 b9 04 32
        E 12 b9 04 43
        E 20 b9 04 32
        E 6 b9 04 22
        E 76 89 33 40
        E 31 b9 04 32
        E 3 89 26 40
        E 123 b9 04 22
        E 45 b9 04 12
        E 29 99 30 43
        E 20 b9 04 00
        E 137 89 30 40
        E 3 99 30 7f
        E 193 89 30 40
        E 0 99 30 5c
        E 22 b9 04 12
        E 39 b9 04 22
        E 17 b9 04 32
        E 31 b9 04 20
        E 101 b9 04 30
        E 32 89 30 40
        E 82 b9 04 20
        E 48 b9 04 0f
        E 37 b9 04 00
        E 69 99 2d 7f
        E 147 89 2d 40
        E 6 99 2d 7f
        E 140 b9 04 12
        E 51 b9 04 22
        E 2 89 2d 40
        E 3 99 2d 7f
        E 7 b9 04 32
        E 31 b9 04 20
        E 193 b9 04 30
        E 8 89 2d 40
        E 91 b9 04 20
        E 56 b9 04 0f
        E 36 b9 04 00
        E 75 99 29 50
        E 179 89 29 40
        E 5 99 29 7f
        E 94 b9 04 12
        E 17 b9 04 22
        E 75 89 29 40
        E 0 99 29 7f
        E 3 b9 04 12
        E 139 b9 04 25
        E 75 99 26 7f
        E 27 89 29 40
        E 31 b9 04 29
        E 39 b9 04 18
        E 34 b9 04 06
        E 14 b9 04 00
        E 68 89 26 40
        E 2 99 26 7f
        E 189 89 26 40
        E 2 99 26 73
        E 116 b9 04 12
        E 39 b9 04 22
        E 43 b9 04 12
        E 39 99 2d 7f
        E 7 89 26 40
        E 176 99 30 3d
        E 34 b9 04 22
        E 25 89 2d 40
        E 4 b9 04 32
        E 32 b9 04 43
        E 27 b9 04 4c
        E 2 99 2c 08
        E 94 99 26 7f
        E 10 b9 04 47
        E 14 89 30 40
        E 24 b9 04 36
        E 29 b9 04 25
        E 20 b9 04 15
        E 29 b9 04 03
        E 7 b9 04 00
        E 14 89 2c 40
        E 44 89 26 40
        E 4 99 26 71
        E 237 99 24 7f
        E 3 89 26 40
        E 12 99 3b 7f
        E 2 b9 04 12
        E 7 b9 04 27
        E 8 b9 04 38
        E 55 b9 04 27
        E 61 b9 04 15
        E 94 89 24 40
        E 17 89 3b 40
        E 99 b9 04 25
        E 159 b9 04 15
        E 46 b9 04 03
        E 12 b9 04 00
        E 240 99 24 69
        E 43 99 33 7f
        E 17 b9 04 12
        E 15 b9 04 22
        E 26 b9 04 32
        E 14 b9 04 43
        E 6 b9 04 4c
        E 0 99 2c 18
        E 26 b9 04 32
        E 27 b9 04 22
        E 55 b9 04 12
        E 15 89 24 40
        E 41 89 33 40
        E 82 89 2c 40
        E 60 b9 04 22
        E 46 99 26 7f
        E 80 b9 04 29
        E 67 b9 04 18
        E 44 b9 04 06
        E 17 b9 04 00
        E 34 89 26 40
        E 195 99 33 7f
        E 82 b9 04 12
        E 24 b9 04 22
        E 27 b9 04 32
        E 19 b9 04 22
        E 25 b9 04 12
        E 65 89 33 40
        E 61 b9 04 22
        E 135 99 24 76
        E 21 b9 04 12
        E 63 b9 04 00
        E 157 89 24 40
        E 136 99 28 7f
        E 29 99 33 77
        E 41 b9 04 12
        E 7 b9 04 22
        E 10 b9 04 32
        E 31 b9 04 43
        E 24 b9 04 32
        E 7 b9 04 22
        E 24 b9 04 12
        E 68 89 28 40
        E 29 89 33 40
        E 176 b9 04 1a
        E 90 b9 04 09
        E 29 b9 04 00
        E 256 99 33 7f
        E 68 b9 04 12
        E 21 b9 04 22
        E 13 b9 04 32
        E 33 b9 04 20
        E 109 89 33 40
        E 17 b9 04 12
        E 116 b9 04 22
        E 46 b9 04 32
        E 7 99 28 7d
        E 174 b9 04 22
        E 48 b9 04 12
        E 22 89 28 40
        E 22 b9 04 00
        E 210 99 33 7f
        E 68 b9 04 12
        E 24 b9 04 25
        E 10 b9 04 36
        E 9 b9 04 47
        E 3 b9 04 4c
        E 2 99 2c 1e
        E 24 b9 04 36
        E 104 89 33 40
        E 22 b9 04 30
        E 91 89 2c 40
        E 54 99 24 60
        E 14 b9 04 20
        E 46 b9 04 0f
        E 39 b9 04 00
        E 143 89 24 40
        E 156 b9 04 12
        E 19 b9 04 22
        E 11 99 33 6a
        E 12 b9 04 32
        E 9 b9 04 43
        E 5 b9 04 4c
        E 2 99 2c 20
        E 5 b9 04 53
        E 20 b9 04 43
        E 7 b9 04 32
        E 123 b9 04 43
        E 58 89 33 40
        E 29 89 2c 40
        E 22 b9 04 32
        E 26 b9 04 22
        E 36 b9 04 12
        E 40 99 24 75
        E 4 b9 04 00
        E 236 89 24 40
        E 180 99 28 7f
        E 5 b9 04 12
        E 26 99 3b 7f
        E 9 b9 04 22
        E 10 b9 04 32
        E 8 b9 04 43
        E 16 b9 04 30
        E 8 b9 04 20
        E 17 b9 04 0f
        E 65 b9 04 20
        E 77 89 28 40
        E 34 89 3b 40
        E 12 b9 04 29
        E 56 b9 04 18
        E 50 b9 04 06
        E 27 b9 04 00
        E 367 b9 04 12
        E 15 b9 04 22
        E 14 99 24 7f
        E 12 b9 04 32
        E 10 b9 04 43
        E 17 b9 04 32
        E 8 b9 04 20
        E 4 99 3b 77
        E 20 b9 04 0f
        E 77 b9 04 20
        E 50 b9 04 30
        E 44 89 24 40
        E 50 89 3b 40
        E 46 b9 04 20
        E 56 b9 04 0f
        E 41 b9 04 00
        E 346 b9 04 12
        E 14 b9 04 22
        E 34 99 24 7f
        E 2 b9 04 32
        E 5 b9 04 44
        E 5 b9 04 4c
        E 3 99 2c 20
        E 2 99 33 71
        E 14 b9 04 34
        E 8 b9 04 22
        E 19 b9 04 12
        E 184 89 24 40
        E 14 89 2c 40
        E 2 89 33 40
        E 3 b9 04 22
        E 140 b9 04 12
        E 63 99 26 79
        E 6 b9 04 00
        E 235 89 26 40
        E 107 b9 04 12
        E 38 b9 04 22
        E 12 b9 04 32
        E 10 b9 04 43
        E 15 99 33 7f
        E 2 b9 04 32
        E 7 b9 04 22
        E 17 b9 04 12
        E 94 b9 04 22
        E 121 89 33 40
        E 10 b9 04 2c
        E 53 b9 04 1a
        E 51 b9 04 09
        E 29 99 24 6d
        E 3 b9 04 00
        E 238 89 24 40
        E 111 99 33 5b
        E 54 99 26 68
        E 12 b9 04 12
        E 46 b9 04 22
        E 7 b9 04 32
        E 24 b9 04 20
        E 12 b9 04 0f
        E 87 89 33 40
        E 53 89 26 40
        E 3 b9 04 20
        E 43 b9 04 30
        E 102 b9 04 20
        E 34 99 26 60
        E 18 b9 04 0f
        E 39 b9 04 00
        E 77 99 30 7f
        E 107 89 26 40
        E 67 99 2d 7f
        E 68 b9 04 12
        E 2 89 30 40
        E 25 99 24 70
        E 2 b9 04 22
        E 19 b9 04 32
        E 10 b9 04 43
        E 5 b9 04 4c
        E 3 99 2c 1e
        E 2 b9 04 54
        E 24 b9 04 44
        E 12 b9 04 34
        E 41 b9 04 20
        E 29 89 2d 40
        E 20 b9 04 0f
        E 75 89 24 40
        E 40 89 2c 40
        E 5 b9 04 20
        E 15 b9 04 30
        E 27 b9 04 41
        E 34 b9 04 4f
        E 2 99 2c 06
        E 14 b9 04 51
        E 85 b9 04 41
        E 34 b9 04 30
        E 2 99 24 6c
        E 17 b9 04 20
        E 34 b9 04 0f
        E 29 b9 04 00
        E 29 89 2c 40
        E 135 89 24 40
        E 145 99 26 7f
        E 27 b9 04 12
        E 7 b9 04 22
        E 5 b9 04 32
        E 9 b9 04 43
        E 32 b9 04 4c
        E 0 99 2c 1c
        E 5 b9 04 53
        E 19 89 26 40
        E 2 99 26 7f
        E 3 b9 04 43
        E 2 b9 04 32
        E 9 b9 04 22
        E 56 b9 04 12
        E 145 89 2c 40
        E 26 89 26 40
        E 5 b9 04 22
        E 23 b9 04 32
        E 40 99 26 3f
        E 87 b9 04 36
        E 49 b9 04 25
        E 19 99 30 7f
        E 10 b9 04 15
        E 34 b9 04 03
        E 9 b9 04 00
        E 37 89 26 40
        E 60 99 2d 7f
        E 92 89 30 40
        E 39 99 24 7a
        E 43 b9 04 12
        E 17 b9 04 22
        E 14 b9 04 32
        E 15 b9 04 44
        E 4 b9 04 4c
        E 3 99 2c 1a
        E 2 b9 04 54
        E 18 89 2d 40
        E 13 b9 04 44
        E 42 b9 04 34
        E 36 b9 04 20
        E 35 89 24 40
        E 95 89 2c 40
        E 3 b9 04 30
        E 31 b9 04 41
        E 114 99 24 65
        E 39 b9 04 30
        E 26 b9 04 20
        E 39 b9 04 0f
        E 34 b9 04 00
        E 104 89 24 40
        E 120 99 26 7d
        E 66 b9 04 12
        E 21 b9 04 22
        E 2 89 26 40
        E 3 99 26 7f
        E 17 b9 04 32
        E 7 b9 04 43
        E 5 b9 04 4c
        E 3 99 2c 24
        E 14 b9 04 32
        E 10 b9 04 20
        E 21 b9 04 0f
        E 133 b9 04 20
        E 29 89 26 40
        E 32 b9 04 30
        E 2 89 2c 40
        E 58 99 24 69
        E 15 b9 04 20
        E 55 b9 04 0f
        E 34 b9 04 00
        E 138 89 24 40
        E 171 b9 04 12
        E 5 b9 04 22
        E 7 b9 04 34
        E 3 99 24 7f
        E 5 b9 04 44
        E 26 b9 04 4c
        E 3 99 2c 20
        E 2 b9 04 55
        E 7 b9 04 65
        E 5 99 31 7f
        E 2 99 3b 7f
        E 12 b9 04 55
        E 14 b9 04 44
        E 49 b9 04 34
        E 44 b9 04 22
        E 72 89 24 40
        E 36 89 2c 40
        E 15 89 31 40
        E 3 89 3b 40
        E 13 b9 04 32
        E 151 b9 04 22
        E 36 b9 04 12
        E 36 b9 04 00
        E 298 99 24 73
        E 21 b9 04 12
        E 12 b9 04 25
        E 20 99 33 7f
        E 17 b9 04 36
        E 9 b9 04 47
        E 3 b9 04 4c
        E 2 99 2c 1e
        E 24 b9 04 36
        E 13 b9 04 25
        E 50 b9 04 15
        E 71 89 24 40
        E 53 89 33 40
        E 31 89 2c 40
        E 21 b9 04 25
        E 102 99 26 7f
        E 65 b9 04 15
        E 46 b9 04 03
        E 13 b9 04 00
        E 118 89 26 40
        E 171 b9 04 12
        E 14 b9 04 22
        E 15 b9 04 32
        E 10 99 33 7f
        E 7 b9 04 43
        E 29 b9 04 32
        E 20 b9 04 22
        E 159 b9 04 1a
        E 26 89 33 40
        E 17 b9 04 2c
        E 138 99 24 7b
        E 33 b9 04 1a
        E 48 b9 04 09
        E 23 b9 04 00
        E 138 89 24 40
        E 197 99 26 7f
        E 18 b9 04 12
        E 9 b9 04 22
        E 7 b9 04 32
        E 0 99 33 7f
        E 27 b9 04 43
        E 21 b9 04 32
        E 10 b9 04 20
        E 33 b9 04 0f
        E 86 b9 04 20
        E 31 89 26 40
        E 25 b9 04 30
        E 9 89 33 40
        E 94 b9 04 20
        E 61 b9 04 0f
        E 47 b9 04 00
        E 337 b9 04 12
        E 7 b9 04 22
        E 5 99 33 62
        E 7 b9 04 32
        E 29 b9 04 43
        E 7 b9 04 4c
        E 3 99 2c 1a
        E 21 b9 04 32
        E 10 b9 04 20
        E 162 b9 04 12
        E 5 89 33 40
        E 43 89 2c 40
        E 12 b9 04 22
        E 29 b9 04 32
        E 95 99 24 68
        E 36 b9 04 36
        E 48 b9 04 25
        E 41 b9 04 15
        E 46 b9 04 03
        E 9 b9 04 00
        E 61 89 24 40
        E 225 b9 04 12
        E 19 99 33 7f
        E 15 b9 04 22
        E 14 b9 04 32
        E 8 b9 04 44
        E 5 b9 04 4d
        E 2 99 2c 26
        E 3 b9 04 55
        E 14 b9 04 44
        E 7 b9 04 34
        E 8 b9 04 20
        E 166 89 33 40
        E 29 b9 04 30
        E 14 89 2c 40
        E 20 b9 04 41
        E 38 b9 04 50
        E 3 99 2c 08
        E 2 b9 04 51
        E 101 99 24 6f
        E 17 b9 04 41
        E 34 b9 04 30
        E 28 b9 04 20
        E 38 b9 04 0f
        E 21 89 2c 40
        E 10 b9 04 00
        E 97 89 24 40
        E 184 99 26 7f
        E 21 b9 04 12
        E 7 99 33 7f
        E 17 b9 04 22
        E 22 b9 04 32
        E 9 b9 04 43
        E 6 b9 04 4d
        E 2 99 2c 26
        E 2 b9 04 55
        E 22 b9 04 44
        E 7 b9 04 34
        E 12 b9 04 20
        E 116 89 26 40
        E 29 89 33 40
        E 51 b9 04 30
        E 2 89 2c 40
        E 109 99 24 71
        E 41 b9 04 20
        E 71 b9 04 0f
        E 40 b9 04 00
        E 90 89 24 40
        E 142 99 26 76
        E 84 89 26 40
        E 5 99 26 7f
        E 11 b9 04 12
        E 48 b9 04 22
        E 7 b9 04 32
        E 29 b9 04 22
        E 12 b9 04 12
        E 133 89 26 40
        E 61 b9 04 22
        E 98 99 28 62
        E 27 b9 04 27
        E 58 b9 04 15
        E 44 b9 04 03
        E 6 b9 04 00
        E 110 89 28 40
        E 149 99 24 7f
        E 33 99 33 7f
        E 3 b9 04 12
        E 10 b9 04 22
        E 17 b9 04 32
        E 14 b9 04 43
        E 25 b9 04 32
        E 16 b9 04 22
        E 123 89 24 40
        E 35 89 33 40
        E 2 b9 04 15
        E 75 b9 04 25
        E 130 b9 04 29
        E 60 b9 04 18
        E 61 b9 04 06
        E 24 b9 04 00
        E 232 99 24 63
        E 10 99 33 7f
        E 58 b9 04 12
        E 26 b9 04 22
        E 12 b9 04 32
        E 41 b9 04 20
        E 94 89 24 40
        E 10 89 33 40
        E 160 99 26 7f
        E 147 b9 04 0f
        E 96 89 26 40
        E 34 b9 04 00
        E 146 b9 04 12
        E 58 b9 04 22
        E 19 99 33 7f
        E 135 b9 04 32
        E 109 89 33 40
        E 29 b9 04 22
        E 49 b9 04 12
        E 31 99 24 63
        E 27 b9 04 00
        E 214 89 24 40
        E 136 99 26 7f
        E 17 99 33 7f
        E 14 b9 04 12
        E 39 b9 04 25
        E 14 b9 04 36
        E 19 b9 04 25
        E 11 b9 04 15
        E 28 b9 04 03
        E 99 89 26 40
        E 17 b9 04 15
        E 0 89 33 40
        E 73 b9 04 25
        E 120 b9 04 15
        E 82 b9 04 03
        E 15 b9 04 00
        E 283 99 33 7f
        E 38 b9 04 12
        E 27 b9 04 22
        E 12 b9 04 32
        E 34 b9 04 20
        E 128 b9 04 1a
        E 2 89 33 40
        E 188 99 28 64
        E 66 b9 04 09
        E 50 b9 04 00
        E 126 89 28 40
        E 135 b9 04 12
        E 25 b9 04 22
        E 14 b9 04 32
        E 0 99 33 5c
        E 24 b9 04 22
        E 29 b9 04 12
        E 150 b9 04 22
        E 34 b9 04 32
        E 5 89 33 40
        E 135 99 24 5e
        E 22 b9 04 22
        E 60 b9 04 12
        E 77 b9 04 00
        E 83 89 24 40
        E 196 99 26 7f
        E 26 b9 04 12
        E 29 b9 04 25
        E 9 b9 04 36
        E 7 89 26 40
        E 3 99 26 7f
        E 20 b9 04 22
        E 12 b9 04 12
        E 203 b9 04 22
        E 9 89 26 40
        E 14 b9 04 32
        E 56 b9 04 43
        E 60 99 24 5f
        E 35 b9 04 32
        E 36 b9 04 22
        E 46 b9 04 12
        E 50 b9 04 00
        E 77 89 24 40
        E 98 99 2d 7f
        E 22 99 30 7f
        E 137 b9 04 12
        E 17 b9 04 22
        E 5 b9 04 32
        E 9 b9 04 43
        E 15 b9 04 32
        E 7 b9 04 20
        E 22 b9 04 0f
        E 7 89 2d 40
        E 24 89 30 40
        E 27 b9 04 20
        E 46 b9 04 30
        E 109 b9 04 20
        E 62 b9 04 0f
        E 46 b9 04 00
        E 348 99 24 7f
        E 13 b9 04 12
        E 14 b9 04 25
        E 2 99 31 6d
        E 22 99 33 7f
        E 9 b9 04 36
        E 5 b9 04 46
        E 5 b9 04 4c
        E 2 99 2c 22
        E 13 b9 04 36
        E 10 b9 04 25
        E 14 b9 04 15
        E 133 89 24 40
        E 14 b9 04 25
        E 15 89 31 40
        E 21 89 33 40
        E 22 89 2c 40
        E 101 b9 04 15
        E 85 b9 04 03
        E 27 b9 04 00
        E 302 99 24 60
        E 10 b9 04 12
        E 21 b9 04 25
        E 12 b9 04 36
        E 10 99 33 56
        E 29 b9 04 25
        E 123 b9 04 20
        E 37 89 24 40
        E 55 89 33 40
        E 3 b9 04 0f
        E 67 b9 04 00
        E 70 99 26 7f
        E 242 89 26 40
        E 7 b9 04 12
        E 26 b9 04 22
        E 54 b9 04 12
        E 86 99 33 4f
        E 155 b9 04 22
        E 35 b9 04 32
        E 42 b9 04 43
        E 10 89 33 40
        E 121 b9 04 32
        E 29 b9 04 22
        E 22 99 24 64
        E 19 b9 04 12
        E 48 b9 04 00
        E 174 89 24 40
        E 165 99 26 7f
        E 16 b9 04 12
        E 15 99 33 7f
        E 2 b9 04 22
        E 27 b9 04 32
        E 7 b9 04 43
        E 20 b9 04 32
        E 7 b9 04 22
        E 17 b9 04 12
        E 130 89 26 40
        E 36 89 33 40
        E 37 b9 04 22
        E 41 b9 04 32
        E 132 b9 04 22
        E 56 b9 04 12
        E 61 b9 04 00
        E 232 99 33 7c
        E 77 b9 04 12
        E 27 b9 04 22
        E 9 b9 04 32
        E 32 b9 04 20
        E 96 89 33 40
        E 208 99 26 7d
        E 43 b9 04 0f
        E 79 b9 04 00
        E 120 89 26 40
        E 149 b9 04 12
        E 8 99 33 5b
        E 18 b9 04 22
        E 15 b9 04 32
        E 39 b9 04 20
        E 133 b9 04 1a
        E 36 89 33 40
        E 14 b9 04 2c
        E 151 99 24 50
        E 31 b9 04 1a
        E 60 b9 04 09
        E 34 b9 04 00
        E 116 89 24 40
        E 181 b9 04 12
        E 5 99 26 57
        E 21 b9 04 22
        E 8 99 33 58
        E 2 b9 04 32
        E 5 b9 04 43
        E 23 b9 04 30
        E 9 b9 04 20
        E 126 b9 04 1a
        E 47 89 26 40
        E 3 b9 04 2c
        E 27 89 33 40
        E 111 99 24 53
        E 43 b9 04 1a
        E 65 b9 04 09
        E 35 b9 04 00
        E 99 89 24 40
        E 120 99 30 7f
        E 70 99 33 50
        E 10 b9 04 12
        E 22 b9 04 25
        E 12 b9 04 36
        E 12 b9 04 46
        E 12 b9 04 36
        E 12 b9 04 25
        E 92 89 30 40
        E 73 89 33 40
        E 60 b9 04 15
        E 0 99 30 7f
        E 50 b9 04 03
        E 14 b9 04 00
        E 177 89 30 40
        E 152 99 24 7f
        E 3 b9 04 12
        E 36 b9 04 25
        E 15 b9 04 36
        E 7 b9 04 47
        E 2 99 33 7f
        E 15 b9 04 36
        E 9 b9 04 25
        E 15 b9 04 15
        E 140 89 24 40
        E 12 b9 04 25
        E 51 89 33 40
        E 126 b9 04 15
        E 67 b9 04 03
        E 17 b9 04 00
        E 302 b9 04 12
        E 0 99 24 55
        E 16 b9 04 25
        E 12 b9 04 36
        E 23 b9 04 25
        E 12 b9 04 15
        E 2 99 33 7f
        E 177 89 24 40
        E 65 89 33 40
        E 24 b9 04 1a
        E 94 b9 04 09
        E 12 99 26 72
        E 30 b9 04 00
        E 212 89 26 40
        E 75 b9 04 12
        E 31 b9 04 22
        E 46 b9 04 12
        E 36 99 33 33
        E 158 b9 04 22
        E 33 b9 04 32
        E 51 89 33 40
        E 77 b9 04 38
        E 46 b9 04 27
        E 15 99 24 56
        E 29 b9 04 15
        E 50 b9 04 03
        E 13 b9 04 00
        E 149 89 24 40
        E 196 b9 04 12
        E 22 b9 04 22
        E 7 99 26 7f
        E 0 99 33 7f
        E 19 b9 04 32
        E 7 b9 04 43
        E 5 b9 04 4c
        E 3 99 2c 20
        E 19 b9 04 30
        E 4 b9 04 20
        E 42 b9 04 0f
        E 143 89 26 40
        E 2 89 33 40
        E 15 b9 04 20
        E 19 89 2c 40
        E 176 b9 04 0f
        E 56 b9 04 00
        E 302 99 33 37
        E 7 b9 04 12
        E 19 b9 04 22
        E 46 b9 04 12
        E 169 89 33 40
        E 61 b9 04 22
        E 123 99 26 7f
        E 9 b9 04 12
        E 68 b9 04 00
        E 165 89 26 40
        E 123 99 33 7f
        E 29 b9 04 12
        E 31 b9 04 22
        E 10 b9 04 32
        E 7 b9 04 43
        E 22 b9 04 32
        E 9 b9 04 20
        E 129 b9 04 15
        E 4 89 33 40
        E 66 b9 04 25
        E 128 99 24 54
        E 24 b9 04 15
        E 67 b9 04 03
        E 12 b9 04 00
        E 141 89 24 40
        E 169 b9 04 12
        E 16 99 33 7f
        E 13 b9 04 22
        E 2 99 26 67
        E 7 b9 04 32
        E 6 b9 04 43
        E 5 b9 04 4c
        E 6 99 2c 22
        E 15 b9 04 32
        E 9 b9 04 22
        E 61 b9 04 12
        E 89 b9 04 22
        E 32 89 33 40
        E 12 89 26 40
        E 5 b9 04 32
        E 19 89 2c 40
        E 99 99 24 57
        E 5 b9 04 22
        E 55 b9 04 12
        E 53 b9 04 00
        E 131 89 24 40
        E 152 99 28 2d
        E 8 99 26 73
        E 36 99 33 74
        E 2 b9 04 12
        E 31 b9 04 22
        E 8 b9 04 32
        E 10 b9 04 43
        E 19 b9 04 32
        E 9 b9 04 22
        E 68 b9 04 32
        E 53 89 28 40
        E 7 89 26 40
        E 37 89 33 40
        E 16 b9 04 22
        E 47 b9 04 12
        E 43 b9 04 00
        E 15 99 26 65
        E 241 89 26 40
        E 46 b9 04 12
        E 24 b9 04 22
        E 13 b9 04 32
        E 9 b9 04 43
        E 4 99 24 7f
        E 3 b9 04 4c
        E 2 99 2c 1e
        E 17 b9 04 32
        E 13 b9 04 22
        E 41 99 33 48
        E 32 b9 04 12
        E 137 89 24 40
        E 2 89 2c 40
        E 44 b9 04 22
        E 28 89 33 40
        E 10 b9 04 32
        E 94 b9 04 43
        E 168 b9 04 32
        E 195 b9 04 38
        E 386 b9 04 27
        E 75 b9 04 15
        E 71 99 26 7f
        E 108 89 26 40
        E 2 99 26 7f
        E 15 b9 04 25
        E 48 b9 04 36
        E 39 b9 04 25
        E 124 b9 04 1d
        E 19 89 26 40
        E 166 b9 04 2e
        E 63 b9 04 3e
        E 145 b9 04 44
        E 60 b9 04 34
        E 51 b9 04 22
        E 65 b9 04 12
        E 122 b9 04 00
        E 135 99 24 7f
        E 9 b9 04 12
        E 36 b9 04 25
        E 22 b9 04 36
        E 24 b9 04 46
        E 15 b9 04 4c
        E 2 99 2c 0a
        E 58 b9 04 36
        E 43 b9 04 25
        E 32 89 24 40
        E 32 b9 04 15
        E 79 89 2c 40
        E 147 b9 04 25
        E 148 b9 04 32
        E 334 b9 04 25
        E 161 b9 04 1d
        E 222 99 30 7f
        E 3 99 2d 7f
        E 128 b9 04 2e
        E 114 89 30 40
        E 2 89 2d 40
        E 304 b9 04 27
        E 411 b9 04 38
        E 261 99 24 7f
        E 14 b9 04 2c
        E 228 89 24 40
        E 353 b9 04 27
        E 159 99 26 7f
        E 2 b9 04 20
        E 85 89 26 40
        E 2 99 26 7f
        E 244 89 26 40
        E 36 b9 04 2e
        E 203 b9 04 20
        E 307 99 24 7f
        E 242 89 24 40
        E 2 b9 04 12
        E 249 b9 04 1d
        E 217 b9 04 27
        E 332 b9 04 1d
        E 249 99 2d 7f
        E 2 99 30 7f
        E 241 89 2d 40
        E 2 89 30 40
        E 830 b9 04 2c
        E 113 99 24 7a
        E 196 b9 04 20
        E 46 89 24 40
        E 208 b9 04 29
        E 666 b9 04 20
        E 245 b9 04 15
        E 24 99 26 7f
        E 67 b9 04 25
        E 21 89 26 40
        E 3 99 26 7f
        E 242 89 26 40
        E 10 b9 04 1d
        E 761 b9 04 2e
        E 84 99 24 7e
        E 162 b9 04 1d
        E 80 89 24 40
        E 372 b9 04 25
        E 137 b9 04 1d
        E 59 99 30 7f
        E 7 99 2d 7f
        E 236 89 30 40
        E 5 89 2d 40
        E 54 b9 04 29
        E 194 b9 04 1d
        E 270 b9 04 12
        E 11 99 24 6e
        E 20 99 33 65
        E 31 b9 04 22
        E 126 b9 04 29
        E 68 89 24 40
        E 19 89 33 40
        E 18 b9 04 18
        E 190 b9 04 0f
        E 284 b9 04 20
        E 42 99 33 30
        E 186 b9 04 12
        E 55 89 33 40
        E 266 b9 04 22
        E 198 b9 04 15
        E 193 b9 04 25
        E 148 b9 04 29
        E 155 b9 04 18
        E 208 b9 04 0c
        E 190 99 28 5a
        E 2 b9 04 1d
        E 13 99 33 7a
        E 229 89 28 40
        E 12 89 33 40
        E 3 b9 04 0f
        E 285 b9 04 1a
        E 309 b9 04 15
        E 135 b9 04 25
        E 315 b9 04 1d
        E 64 99 24 79
        E 20 99 33 41
        E 224 89 24 40
        E 17 89 33 40
        E 998 99 26 7f
        E 20 99 33 65
        E 222 89 26 40
        E 21 89 33 40
        E 445 b9 04 2e
        E 290 b9 04 36
        E 145 b9 04 27
        E 154 b9 04 1a
        E 141 99 24 7a
        E 5 99 33 3c
        E 50 b9 04 2c
        E 34 b9 04 3c
        E 148 b9 04 2c
        E 4 89 24 40
        E 5 89 33 40
        E 61 b9 04 1a
        E 164 b9 04 12
        E 191 b9 04 22
        E 7 99 24 44
        E 10 b9 04 32
        E 31 99 33 2d
        E 8 b9 04 43
        E 109 b9 04 32
        E 33 b9 04 22
        E 43 b9 04 12
        E 8 89 24 40
        E 41 89 33 40
        E 68 b9 04 00
        E 125 99 28 29
        E 164 b9 04 12
        E 27 b9 04 22
        E 51 89 28 40
        E 87 b9 04 12
        E 0 99 33 27
        E 178 b9 04 22
        E 44 b9 04 32
        E 19 89 33 40
        E 104 b9 04 22
        E 50 99 24 40
        E 8 b9 04 12
        E 70 b9 04 00
        E 167 89 24 40
        E 157 99 33 62
        E 2 99 28 42
        E 44 b9 04 12
        E 14 b9 04 25
        E 36 b9 04 36
        E 10 b9 04 46
        E 5 b9 04 4c
        E 2 99 2c 1a
        E 17 b9 04 36
        E 17 b9 04 25
        E 95 89 33 40
        E 2 89 28 40
        E 24 b9 04 1a
        E 89 89 2c 40
        E 73 b9 04 09
        E 58 b9 04 00
        E 326 b9 04 12
        E 24 b9 04 25
        E 3 99 33 27
        E 14 b9 04 36
        E 80 b9 04 25
        E 125 b9 04 1a
        E 22 89 33 40
        E 104 b9 04 09
        E 85 99 26 5c
        E 51 b9 04 00
        E 193 89 26 40
        E 62 b9 04 12
        E 39 b9 04 22
        E 22 99 33 2b
        E 52 b9 04 12
        E 170 b9 04 1d
        E 20 89 33 40
        E 130 b9 04 27
        E 128 b9 04 15
        E 150 b9 04 03
        E 31 b9 04 00
        E 280 b9 04 12
        E 29 b9 04 22
        E 341 b9 04 12
        E 167 b9 04 00
        E 246 b9 04 12
        E 150 b9 04 22
        E 68 b9 04 32
        E 118 b9 04 22
        E 60 b9 04 12
        E 89 b9 04 00
        E 327 b9 04 12
        E 27 b9 04 22
        E 9 b9 04 32
        E 10 b9 04 43
        E 12 99 24 73
        E 11 b9 04 32
        E 11 b9 04 20
        E 29 99 33 60
        E 101 b9 04 12
        E 89 89 24 40
        E 51 89 33 40
        E 123 b9 04 22
        E 136 b9 04 29
        E 43 99 26 57
        E 135 b9 04 1d
        E 109 89 26 40
        E 227 b9 04 27
        E 357 b9 04 30
        E 235 b9 04 25
        E 133 99 26 79
        E 22 b9 04 1d
        E 14 99 33 4e
        E 135 b9 04 2e
        E 25 b9 04 3e
        E 24 b9 04 4c
        E 2 99 2c 0c
        E 5 b9 04 4f
        E 14 89 26 40
        E 37 89 33 40
        E 89 b9 04 3f
        E 37 b9 04 2e
        E 36 b9 04 1d
        E 24 89 2c 40
        E 46 b9 04 0c
        E 89 b9 04 00
        E 200 b9 04 12
        E 25 b9 04 22
        E 15 b9 04 32
        E 16 b9 04 43
        E 15 b9 04 4c
        E 3 99 2c 10
        E 2 99 33 31
        E 68 b9 04 32
        E 91 b9 04 22
        E 80 89 2c 40
        E 4 89 33 40
        E 30 b9 04 12
        E 142 99 26 65
        E 53 b9 04 06
        E 173 b9 04 18
        E 16 89 26 40
        E 14 b9 04 29
        E 29 b9 04 3a
        E 68 b9 04 29
        E 17 99 33 3a
        E 67 b9 04 18
        E 172 b9 04 29
        E 2 89 33 40
        E 37 b9 04 3a
        E 34 b9 04 4a
        E 9 b9 04 4d
        E 3 99 2c 08
        E 138 b9 04 3a
        E 12 99 24 52
        E 26 b9 04 29
        E 41 b9 04 18
        E 24 89 2c 40
        E 32 b9 04 06
        E 28 b9 04 00
        E 92 89 24 40
        E 145 99 28 4a
        E 27 99 33 41
        E 7 b9 04 12
        E 22 b9 04 22
        E 12 b9 04 32
        E 15 b9 04 43
        E 9 b9 04 4c
        E 3 99 2c 16
        E 16 b9 04 32
        E 12 b9 04 22
        E 120 89 28 40
        E 26 89 33 40
        E 28 b9 04 32
        E 39 89 2c 40
        E 68 99 24 4b
        E 58 b9 04 22
        E 80 b9 04 12
        E 79 b9 04 00
        E 24 89 24 40
        E 167 99 26 6d
        E 22 99 33 44
        E 27 b9 04 12
        E 28 b9 04 22
        E 15 b9 04 32
        E 36 b9 04 22
        E 37 b9 04 12
        E 77 89 26 40
        E 22 89 33 40
        E 12 b9 04 22
        E 55 b9 04 32
        E 102 99 26 6c
        E 12 b9 04 22
        E 70 b9 04 12
        E 68 b9 04 00
        E 91 89 26 40
        E 150 b9 04 12
        E 20 b9 04 22
        E 9 b9 04 32
        E 5 99 24 6f
        E 7 b9 04 43
        E 0 99 33 71
        E 24 b9 04 32
        E 17 b9 04 22
        E 152 b9 04 15
        E 41 89 24 40
        E 10 89 33 40
        E 7 b9 04 25
        E 32 b9 04 36
        E 43 b9 04 46
        E 150 b9 04 36
        E 70 b9 04 25
        E 114 b9 04 15
        E 160 b9 04 25
        E 26 99 24 50
        E 2 b9 04 36
        E 2 99 33 7f
        E 27 b9 04 46
        E 14 b9 04 4c
        E 3 99 2c 0a
        E 46 b9 04 56
        E 121 b9 04 46
        E 29 89 24 40
        E 2 89 33 40
        E 10 b9 04 36
        E 36 89 2c 40
        E 13 b9 04 25
        E 67 b9 04 15
        E 45 99 26 7f
        E 47 b9 04 03
        E 171 b9 04 15
        E 24 89 26 40
        E 2 b9 04 25
        E 23 b9 04 36
        E 77 b9 04 25
        E 72 99 33 40
        E 32 b9 04 15
        E 96 b9 04 25
        E 39 b9 04 36
        E 36 b9 04 46
        E 22 b9 04 4d
        E 2 99 2c 08
        E 15 89 33 40
        E 94 b9 04 4d
        E 51 b9 04 3c
        E 19 99 24 51
        E 21 b9 04 2c
        E 40 b9 04 1a
        E 2 89 2c 40
        E 48 b9 04 09
        E 36 b9 04 00
        E 95 89 24 40
        E 125 99 26 7f
        E 46 99 33 79
        E 17 b9 04 12
        E 17 b9 04 22
        E 10 b9 04 32
        E 10 b9 04 43
        E 4 b9 04 4c
        E 3 99 2c 1e
        E 24 b9 04 32
        E 14 b9 04 22
        E 97 89 26 40
        E 27 b9 04 1a
        E 19 89 33 40
        E 43 b9 04 2c
        E 20 89 2c 40
        E 185 b9 04 1a
        E 97 b9 04 09
        E 42 b9 04 00
        E 202 99 33 47
        E 20 b9 04 12
        E 29 b9 04 22
        E 19 b9 04 32
        E 17 b9 04 20
        E 131 b9 04 1a
        E 26 89 33 40
        E 28 b9 04 2c
        E 134 b9 04 32
        E 53 b9 04 22
        E 77 b9 04 12
        E 87 b9 04 00
        E 213 99 33 4c
        E 24 b9 04 12
        E 27 b9 04 25
        E 17 b9 04 36
        E 33 b9 04 25
        E 47 b9 04 15
        E 96 89 33 40
        E 15 b9 04 25
        E 139 b9 04 29
        E 15 99 26 7f
        E 85 b9 04 18
        E 106 b9 04 06
        E 39 b9 04 00
        E 12 89 26 40
        E 171 b9 04 12
        E 10 99 33 3b
        E 24 b9 04 22
        E 15 b9 04 32
        E 53 b9 04 22
        E 142 b9 04 1a
        E 7 89 33 40
        E 53 b9 04 2c
        E 39 b9 04 3c
        E 61 b9 04 4c
        E 2 99 2c 08
        E 2 b9 04 4c
        E 73 99 24 4b
        E 30 b9 04 3c
        E 54 b9 04 2c
        E 56 b9 04 1a
        E 27 89 2c 40
        E 39 b9 04 09
        E 36 89 24 40
        E 11 b9 04 00
        E 164 99 28 3d
        E 27 99 33 47
        E 30 b9 04 12
        E 24 b9 04 22
        E 14 b9 04 32
        E 10 b9 04 43
        E 26 b9 04 32
        E 13 b9 04 20
        E 98 89 28 40
        E 27 89 33 40
        E 24 b9 04 30
        E 114 99 24 45
        E 17 b9 04 38
        E 58 b9 04 27
        E 67 b9 04 15
        E 67 b9 04 03
        E 20 b9 04 00
        E 12 89 24 40
        E 158 99 33 59
        E 7 99 28 36
        E 6 99 26 6e
        E 64 b9 04 12
        E 26 b9 04 22
        E 10 b9 04 32
        E 24 b9 04 22
        E 22 b9 04 12
        E 74 b9 04 22
        E 8 89 33 40
        E 7 89 28 40
        E 8 89 26 40
        E 9 b9 04 32
        E 162 99 26 78
        E 9 b9 04 22
        E 49 b9 04 12
        E 55 b9 04 00
        E 129 89 26 40
        E 154 99 24 65
        E 2 b9 04 12
        E 22 b9 04 22
        E 10 b9 04 32
        E 17 99 33 51
        E 16 b9 04 20
        E 39 b9 04 0f
        E 137 89 24 40
        E 32 b9 04 20
        E 20 89 33 40
        E 5 b9 04 30
        E 29 b9 04 41
        E 26 b9 04 4c
        E 2 99 2c 08
        E 27 b9 04 51
        E 35 99 24 38
        E 74 b9 04 41
        E 45 b9 04 30
        E 37 b9 04 20
        E 24 89 2c 40
        E 24 b9 04 0f
        E 36 89 24 40
        E 13 b9 04 00
        E 143 99 26 50
        E 55 99 33 55
        E 20 b9 04 12
        E 16 b9 04 25
        E 13 b9 04 36
        E 9 b9 04 46
        E 5 b9 04 4c
        E 2 99 2c 1c
        E 27 b9 04 36
        E 38 b9 04 25
        E 56 89 26 40
        E 56 89 33 40
        E 16 b9 04 1a
        E 45 b9 04 2c
        E 4 89 2c 40
        E 26 b9 04 3c
        E 34 99 24 42
        E 51 99 33 38
        E 46 b9 04 41
        E 40 b9 04 30
        E 27 b9 04 20
        E 35 b9 04 0f
        E 33 b9 04 00
        E 13 89 24 40
        E 50 89 33 40
        E 128 99 24 47
        E 56 99 33 62
        E 5 b9 04 12
        E 9 b9 04 22
        E 12 b9 04 32
        E 17 b9 04 43
        E 5 b9 04 4c
        E 2 99 2c 1a
        E 3 b9 04 54
        E 24 b9 04 44
        E 10 b9 04 34
        E 55 b9 04 22
        E 44 89 24 40
        E 57 89 33 40
        E 49 89 2c 40
        E 9 b9 04 32
        E 39 b9 04 43
        E 29 99 24 41
        E 21 99 33 51
        E 112 b9 04 32
        E 26 b9 04 22
        E 37 b9 04 12
        E 46 b9 04 00
        E 2 89 24 40
        E 19 89 33 40
        E 157 99 26 74
        E 31 b9 04 12
        E 8 99 33 7d
        E 12 b9 04 25
        E 10 b9 04 36
        E 10 b9 04 47
        E 2 b9 04 4c
        E 2 99 2c 1a
        E 10 b9 04 57
        E 17 b9 04 47
        E 14 b9 04 36
        E 53 b9 04 25
        E 73 89 26 40
        E 16 b9 04 15
        E 25 89 33 40
        E 36 89 2c 40
        E 26 b9 04 25
        E 35 b9 04 36
        E 29 99 24 45
        E 16 99 33 47
        E 3 b9 04 46
        E 123 b9 04 36
        E 34 b9 04 25
        E 24 b9 04 15
        E 28 b9 04 03
        E 13 b9 04 00
        E 3 89 24 40
        E 17 89 33 40
        E 152 99 24 47
        E 26 99 33 60
        E 27 b9 04 12
        E 12 b9 04 25
        E 12 b9 04 36
        E 11 b9 04 47
        E 1 b9 04 4c
        E 3 99 2c 1c
        E 7 b9 04 57
        E 14 b9 04 47
        E 13 b9 04 36
        E 62 b9 04 25
        E 58 89 24 40
        E 22 89 33 40
        E 45 b9 04 20
        E 23 b9 04 30
        E 0 89 2c 40
        E 34 b9 04 41
        E 45 99 33 4f
        E 8 b9 04 4f
        E 2 99 2c 06
        E 15 99 24 4b
        E 116 b9 04 30
        E 21 b9 04 20
        E 34 b9 04 0f
        E 34 b9 04 00
        E 12 89 33 40
        E 9 89 2c 40
        E 16 89 24 40
        E 175 99 26 74
        E 3 b9 04 12
        E 12 b9 04 25
        E 13 b9 04 36
        E 5 99 33 62
        E 2 b9 04 46
        E 2 b9 04 4c
        E 3 99 2c 20
        E 4 b9 04 56
        E 68 b9 04 46
        E 29 b9 04 36
        E 43 b9 04 25
        E 61 89 26 40
        E 11 b9 04 15
        E 18 89 33 40
        E 7 89 2c 40
        E 56 b9 04 25
        E 28 b9 04 36
        E 30 b9 04 46
        E 0 99 24 47
        E 19 b9 04 4f
        E 5 99 2c 08
        E 5 99 33 49
        E 132 b9 04 36
        E 22 b9 04 25
        E 20 b9 04 15
        E 26 b9 04 03
        E 7 b9 04 00
        E 8 89 24 40
        E 24 89 2c 40
        E 4 89 33 40
        E 123 99 24 43
        E 42 99 33 5a
        E 33 b9 04 12
        E 11 b9 04 25
        E 9 b9 04 36
        E 7 b9 04 46
        E 5 b9 04 4d
        E 2 99 2c 1a
        E 5 b9 04 56
        E 32 b9 04 46
        E 45 b9 04 36
        E 42 b9 04 25
        E 12 89 24 40
        E 38 b9 04 15
        E 5 89 33 40
        E 67 89 2c 40
        E 15 b9 04 25
        E 37 b9 04 36
        E 24 99 33 4e
        E 14 99 24 4e
        E 36 b9 04 46
        E 75 b9 04 36
        E 37 b9 04 22
        E 33 b9 04 12
        E 42 b9 04 00
        E 4 89 33 40
        E 15 89 24 40
        E 145 99 26 4e
        E 32 99 33 76
        E 11 b9 04 12
        E 17 b9 04 22
        E 8 b9 04 32
        E 5 b9 04 43
        E 4 b9 04 4d
        E 3 99 2c 2a
        E 2 b9 04 54
        E 19 b9 04 44
        E 10 b9 04 34
        E 58 b9 04 20
        E 74 89 26 40
        E 13 b9 04 0f
        E 16 89 33 40
        E 52 89 2c 40
        E 19 b9 04 20
        E 22 b9 04 30
        E 19 99 24 46
        E 17 b9 04 41
        E 29 99 33 50
        E 118 b9 04 30
        E 19 b9 04 20
        E 29 b9 04 0f
        E 28 b9 04 00
        E 1 89 24 40
        E 46 89 33 40
        E 124 99 24 47
        E 51 99 33 7f
        E 4 b9 04 12
        E 10 b9 04 22
        E 7 b9 04 32
        E 8 b9 04 43
        E 7 b9 04 4c
        E 2 99 2c 1a
        E 5 b9 04 53
        E 67 b9 04 43
        E 29 b9 04 32
        E 39 b9 04 22
        E 14 89 24 40
        E 51 89 33 40
        E 36 89 2c 40
        E 49 b9 04 32
        E 29 b9 04 43
        E 29 99 24 48
        E 5 b9 04 4f
        E 2 99 2c 08
        E 3 99 33 5a
        E 140 b9 04 32
        E 19 b9 04 22
        E 29 b9 04 12
        E 36 b9 04 00
        E 7 89 24 40
        E 8 89 2c 40
        E 2 89 33 40
        E 179 99 26 76
        E 12 b9 04 12
        E 13 99 33 7f
        E 2 b9 04 22
        E 11 b9 04 32
        E 8 b9 04 43
        E 4 b9 04 4c
        E 3 99 2c 22
        E 2 b9 04 53
        E 10 b9 04 63
        E 18 b9 04 53
        E 35 b9 04 43
        E 20 b9 04 32
        E 34 b9 04 22
        E 62 b9 04 12
        E 8 89 26 40
        E 24 89 33 40
        E 28 89 2c 40
        E 44 b9 04 22
        E 17 b9 04 32
        E 12 99 24 43
        E 15 b9 04 43
        E 22 b9 04 4f
        E 4 99 2c 08
        E 10 b9 04 53
        E 7 99 33 54
        E 99 b9 04 43
        E 32 b9 04 32
        E 16 b9 04 22
        E 27 b9 04 12
        E 10 89 24 40
        E 24 b9 04 00
        E 17 89 2c 40
        E 16 89 33 40
        E 131 99 24 4e
        E 43 99 33 7f
        E 23 b9 04 12
        E 7 b9 04 25
        E 7 b9 04 36
        E 7 b9 04 46
        E 5 b9 04 4c
        E 5 99 2c 20
        E 12 b9 04 56
        E 41 b9 04 46
        E 36 b9 04 36
        E 36 b9 04 25
        E 20 89 24 40
        E 22 b9 04 15
        E 21 89 33 40
        E 56 89 2c 40
        E 33 b9 04 25
        E 24 b9 04 36
        E 32 b9 04 46
        E 8 99 33 52
        E 4 99 24 46
        E 22 b9 04 4f
        E 3 99 2c 08
        E 106 b9 04 36
        E 29 b9 04 22
        E 29 b9 04 12
        E 36 b9 04 00
        E 12 89 33 40
        E 7 89 24 40
        E 22 89 2c 40
        E 169 99 26 59
        E 25 99 33 7f
        E 2 b9 04 12
        E 7 b9 04 25
        E 9 b9 04 36
        E 12 b9 04 46
        E 5 b9 04 4c
        E 3 99 2c 18
        E 2 b9 04 56
        E 34 b9 04 46
        E 42 b9 04 36
        E 31 b9 04 25
        E 43 b9 04 15
        E 27 89 26 40
        E 24 89 33 40
        E 38 89 2c 40
        E 61 b9 04 25
        E 17 99 24 45
        E 5 b9 04 36
        E 26 b9 04 46
        E 17 b9 04 4d
        E 3 99 2c 0a
        E 16 99 33 53
        E 134 b9 04 36
        E 26 b9 04 22
        E 17 89 24 40
        E 10 b9 04 12
        E 34 b9 04 00
        E 4 89 2c 40
        E 17 89 33 40
        E 124 99 24 45
        E 74 99 33 63
        E 5 b9 04 12
        E 8 b9 04 25
        E 7 b9 04 36
        E 16 b9 04 46
        E 8 b9 04 4c
        E 2 99 2c 10
        E 5 b9 04 56
        E 65 b9 04 46
        E 20 b9 04 36
        E 34 89 24 40
        E 4 b9 04 25
        E 34 b9 04 15
        E 34 89 33 40
        E 48 89 2c 40
        E 53 b9 04 25
        E 17 b9 04 36
        E 10 99 24 3f
        E 12 b9 04 46
        E 14 b9 04 4d
        E 3 99 2c 0c
        E 22 99 33 55
        E 2 b9 04 56
        E 104 b9 04 46
        E 26 b9 04 36
        E 27 b9 04 22
        E 29 b9 04 12
        E 3 89 24 40
        E 29 89 2c 40
        E 4 b9 04 00
        E 17 89 33 40
        E 167 99 26 65
        E 29 b9 04 12
        E 2 99 33 63
        E 15 b9 04 22
        E 10 b9 04 32
        E 7 b9 04 43
        E 2 b9 04 4c
        E 2 99 2c 26
        E 3 b9 04 53
        E 27 b9 04 43
        E 51 b9 04 32
        E 33 b9 04 22
        E 61 89 26 40
        E 12 b9 04 12
        E 21 89 33 40
        E 34 89 2c 40
        E 61 b9 04 25
        E 12 99 24 48
        E 9 b9 04 36
        E 34 b9 04 46
        E 15 99 33 4d
        E 12 b9 04 4f
        E 2 99 2c 08
        E 121 b9 04 36
        E 22 b9 04 22
        E 26 b9 04 12
        E 3 89 24 40
        E 23 b9 04 00
        E 32 89 33 40
        E 15 89 2c 40
        E 84 99 24 40
        E 73 99 33 6d
        E 26 b9 04 12
        E 10 b9 04 25
        E 9 b9 04 36
        E 11 b9 04 46
        E 4 b9 04 4c
        E 3 99 2c 14
        E 9 b9 04 56
        E 17 b9 04 46
        E 15 b9 04 36
        E 53 b9 04 25
        E 15 89 24 40
        E 43 b9 04 15
        E 29 89 33 40
        E 63 89 2c 40
        E 34 b9 04 25
        E 26 99 24 44
        E 7 b9 04 36
        E 26 99 33 5b
        E 18 b9 04 46
        E 106 b9 04 36
        E 31 b9 04 22
        E 31 b9 04 12
        E 25 89 24 40
        E 15 b9 04 00
        E 16 89 33 40
        E 179 99 26 5d
        E 17 b9 04 12
        E 8 99 33 65
        E 7 b9 04 22
        E 12 b9 04 32
        E 9 b9 04 43
        E 3 b9 04 4c
        E 2 99 2c 22
        E 2 b9 04 53
        E 25 b9 04 43
        E 51 b9 04 32
        E 50 b9 04 22
        E 56 89 26 40
        E 24 89 33 40
        E 36 89 2c 40
        E 17 b9 04 1a
        E 34 b9 04 2c
        E 7 99 24 43
        E 19 b9 04 3c
        E 39 99 33 4b
        E 2 b9 04 4c
        E 13 b9 04 4f
        E 2 99 2c 08
        E 97 b9 04 3c
        E 28 b9 04 2c
        E 25 b9 04 1a
        E 17 89 24 40
        E 7 b9 04 09
        E 14 b9 04 00
        E 40 89 33 40
        E 13 89 2c 40
        E 100 99 24 4a
        E 68 99 33 63
        E 4 b9 04 12
        E 10 b9 04 25
        E 10 b9 04 36
        E 14 b9 04 46
        E 8 b9 04 4c
        E 0 99 2c 14
        E 9 b9 04 56
        E 15 b9 04 46
        E 45 b9 04 36
        E 39 b9 04 25
        E 19 89 24 40
        E 34 b9 04 15
        E 37 89 33 40
        E 46 89 2c 40
        E 36 b9 04 25
        E 24 b9 04 36
        E 19 99 24 42
        E 10 b9 04 46
        E 17 b9 04 4f
        E 2 99 2c 0a
        E 5 99 33 55
        E 140 b9 04 36
        E 27 b9 04 25
        E 26 b9 04 15
        E 17 89 24 40
        E 15 b9 04 03
        E 10 b9 04 00
        E 1 89 2c 40
        E 11 89 33 40
        E 166 99 26 70
        E 29 99 33 5f
        E 1 b9 04 12
        E 16 b9 04 22
        E 8 b9 04 32
        E 7 b9 04 43
        E 4 b9 04 4d
        E 2 99 2c 2c
        E 3 b9 04 53
        E 22 b9 04 43
        E 10 b9 04 32
        E 58 b9 04 22
        E 82 b9 04 12
        E 2 89 26 40
        E 27 89 33 40
        E 38 89 2c 40
        E 39 b9 04 22
        E 17 99 24 47
        E 7 b9 04 32
        E 29 b9 04 43
        E 34 99 33 51
        E 116 b9 04 32
        E 19 b9 04 22
        E 27 b9 04 12
        E 13 89 24 40
        E 19 b9 04 00
        E 50 89 33 40
        E 99 99 24 46
        E 73 99 33 67
        E 4 b9 04 12
        E 9 b9 04 22
        E 5 b9 04 32
        E 11 b9 04 43
        E 7 b9 04 4c
        E 0 99 2c 1a
        E 8 b9 04 53
        E 38 b9 04 43
        E 48 b9 04 32
        E 39 89 24 40
        E 2 b9 04 22
        E 66 b9 04 12
        E 4 89 33 40
        E 39 89 2c 40
        E 24 b9 04 22
        E 22 b9 04 32
        E 21 b9 04 43
        E 15 99 24 41
        E 5 b9 04 4f
        E 2 99 2c 0a
        E 7 b9 04 53
        E 3 99 33 4f
        E 142 b9 04 43
        E 25 b9 04 32
        E 16 b9 04 22
        E 30 b9 04 12
        E 14 89 24 40
        E 9 89 2c 40
        E 10 b9 04 00
        E 0 89 33 40
        E 196 99 26 63
        E 7 b9 04 12
        E 2 99 33 5e
        E 11 b9 04 22
        E 7 b9 04 32
        E 5 b9 04 44
        E 4 b9 04 4c
        E 3 99 2c 2a
        E 2 b9 04 55
        E 10 b9 04 65
        E 21 b9 04 55
        E 42 b9 04 44
        E 24 b9 04 34
        E 41 b9 04 22
        E 62 89 26 40
        E 10 89 33 40
        E 29 89 2c 40
        E 28 b9 04 18
        E 35 b9 04 29
        E 17 99 24 49
        E 5 b9 04 3a
        E 26 b9 04 4a
        E 10 b9 04 4f
        E 3 99 2c 0a
        E 21 99 33 48
        E 116 b9 04 3a
        E 24 b9 04 29
        E 20 b9 04 18
        E 16 89 24 40
        E 11 b9 04 06
        E 14 b9 04 00
        E 19 89 2c 40
        E 22 89 33 40
        E 116 99 24 4a
        E 46 99 33 6d
        E 14 b9 04 12
        E 12 b9 04 25
        E 10 b9 04 36
        E 10 b9 04 46
        E 4 b9 04 4c
        E 3 99 2c 1a
        E 4 b9 04 56
        E 34 b9 04 46
        E 49 b9 04 36
        E 51 b9 04 25
        E 4 89 24 40
        E 46 b9 04 15
        E 2 89 33 40
        E 51 89 2c 40
        E 25 b9 04 25
        E 26 b9 04 36
        E 29 b9 04 46
        E 17 99 24 48
        E 5 b9 04 4f
        E 2 99 2c 0a
        E 12 99 33 53
        E 116 b9 04 36
        E 24 b9 04 25
        E 25 b9 04 15
        E 31 b9 04 03
        E 7 b9 04 00
        E 19 89 24 40
        E 8 89 2c 40
        E 15 89 33 40
        E 188 99 26 50
        E 10 b9 04 12
        E 7 b9 04 22
        E 5 99 33 6a
        E 2 b9 04 32
        E 7 b9 04 43
        E 10 b9 04 4c
        E 2 99 2c 1a
        E 7 b9 04 53
        E 13 b9 04 63
        E 29 b9 04 53
        E 36 b9 04 43
        E 29 b9 04 32
        E 29 b9 04 22
        E 46 b9 04 12
        E 12 89 26 40
        E 21 89 33 40
        E 20 89 2c 40
        E 63 b9 04 22
        E 19 99 24 48
        E 3 b9 04 32
        E 22 b9 04 43
        E 26 99 33 48
        E 5 b9 04 4d
        E 2 99 2c 08
        E 118 b9 04 32
        E 17 b9 04 22
        E 25 b9 04 12
        E 24 89 24 40
        E 5 b9 04 00
        E 45 89 33 40
        E 8 89 2c 40
        E 128 99 24 49
        E 21 99 33 65
        E 25 b9 04 12
        E 7 b9 04 25
        E 7 b9 04 36
        E 10 b9 04 46
        E 5 b9 04 4c
        E 2 99 2c 1c
        E 10 b9 04 56
        E 34 b9 04 46
        E 46 b9 04 36
        E 47 b9 04 25
        E 27 89 24 40
        E 22 89 33 40
        E 5 b9 04 15
        E 51 89 2c 40
        E 33 b9 04 25
        E 27 b9 04 36
        E 27 b9 04 46
        E 18 99 33 4f
        E 4 b9 04 4f
        E 2 99 2c 08
        E 9 99 24 43
        E 22 b9 04 56
        E 83 b9 04 46
        E 33 b9 04 36
        E 26 b9 04 22
        E 30 b9 04 12
        E 31 b9 04 00
        E 5 89 33 40
        E 3 89 2c 40
        E 8 89 24 40
        E 136 99 26 62
        E 32 99 33 77
        E 26 b9 04 12
        E 13 b9 04 25
        E 9 b9 04 36
        E 9 b9 04 46
        E 3 b9 04 4c
        E 3 99 2c 1e
        E 2 b9 04 56
        E 34 b9 04 46
        E 43 b9 04 36
        E 35 b9 04 25
        E 36 89 26 40
        E 13 b9 04 15
        E 18 89 33 40
        E 60 89 2c 40
        E 39 b9 04 25
        E 29 99 24 45
        E 2 b9 04 36
        E 12 99 33 4c
        E 19 b9 04 46
        E 124 b9 04 36
        E 24 b9 04 25
        E 20 b9 04 15
        E 31 b9 04 03
        E 4 b9 04 00
        E 6 89 24 40
        E 14 89 33 40
        E 147 99 24 43
        E 32 99 33 5c
        E 24 b9 04 12
        E 10 b9 04 22
        E 5 b9 04 32
        E 7 b9 04 43
        E 11 b9 04 4c
        E 3 99 2c 1c
        E 7 b9 04 53
        E 63 b9 04 43
        E 36 b9 04 32
        E 39 b9 04 22
        E 5 89 24 40
        E 34 89 33 40
        E 58 89 2c 40
        E 41 b9 04 32
        E 32 b9 04 43
        E 18 99 33 4d
        E 27 99 24 47
        E 5 b9 04 4f
        E 3 99 2c 06
        E 104 b9 04 32
        E 19 b9 04 22
        E 24 b9 04 12
        E 31 b9 04 00
        E 29 89 33 40
        E 26 89 24 40
        E 10 89 2c 40
        E 162 b9 04 12
        E 3 99 26 76
        E 7 b9 04 25
        E 9 99 33 67
        E 3 b9 04 36
        E 7 b9 04 46
        E 5 b9 04 4c
        E 3 99 2c 1a
        E 4 b9 04 56
        E 12 b9 04 66
        E 22 b9 04 56
        E 49 b9 04 46
        E 40 b9 04 36
        E 42 b9 04 25
        E 41 89 26 40
        E 17 89 33 40
        E 14 89 2c 40
        E 51 b9 04 1a
        E 34 99 24 40
        E 2 b9 04 2c
        E 22 b9 04 3c
        E 24 b9 04 4c
        E 5 b9 04 4f
        E 2 99 2c 0c
        E 22 99 33 37
        E 123 b9 04 3c
        E 27 b9 04 2c
        E 14 89 24 40
        E 10 b9 04 1a
        E 29 b9 04 09
        E 17 b9 04 00
        E 2 89 2c 40
        E 19 89 33 40
        E 73 99 24 32
        E 102 b9 04 12
        E 14 b9 04 22
        E 0 99 33 45
        E 9 b9 04 32
        E 8 b9 04 43
        E 5 b9 04 4d
        E 2 99 2c 1c
        E 3 b9 04 53
        E 26 b9 04 63
        E 72 b9 04 53
        E 3 89 24 40
        E 29 b9 04 43
        E 39 b9 04 32
        E 46 b9 04 22
        E 2 89 33 40
        E 27 89 2c 40
        E 67 99 33 45
        E 8 b9 04 32
        E 31 b9 04 43
        E 26 b9 04 4f
        E 3 99 2c 0a
        E 9 b9 04 53
        E 165 89 33 40
        E 31 b9 04 43
        E 36 89 2c 40
        E 12 b9 04 32
        E 42 b9 04 22
        E 17 99 26 7a
        E 29 99 33 58
        E 97 b9 04 18
        E 67 b9 04 29
        E 21 b9 04 3a
        E 27 89 26 40
        E 29 89 33 40
        E 135 99 33 40
        E 58 b9 04 43
        E 61 b9 04 32
        E 36 b9 04 22
        E 41 b9 04 12
        E 46 89 33 40
        E 5 b9 04 00
        E 118 99 24 2f
        E 43 b9 04 12
        E 15 99 33 59
        E 4 b9 04 22
        E 8 b9 04 32
        E 13 b9 04 43
        E 31 b9 04 32
        E 126 b9 04 25
        E 1 89 24 40
        E 63 89 33 40
        E 37 b9 04 36
        E 36 b9 04 46
        E 17 b9 04 4c
        E 2 99 2c 08
        E 56 99 33 43
        E 7 99 24 3c
        E 107 b9 04 36
        E 40 b9 04 25
        E 32 b9 04 15
        E 3 89 2c 40
        E 40 b9 04 03
        E 8 b9 04 00
        E 7 89 33 40
        E 7 89 24 40
        E 157 99 26 71
        E 33 99 33 5d
        E 3 b9 04 12
        E 12 b9 04 22
        E 8 b9 04 32
        E 9 b9 04 43
        E 3 b9 04 4c
        E 2 99 2c 1e
        E 8 b9 04 53
        E 12 b9 04 43
        E 11 b9 04 32
        E 52 b9 04 20
        E 89 89 26 40
        E 33 89 33 40
        E 20 b9 04 1a
        E 19 89 2c 40
        E 25 b9 04 2c
        E 57 99 33 3d
        E 78 b9 04 34
        E 48 b9 04 20
        E 43 b9 04 0f
        E 34 b9 04 00
        E 39 89 33 40
        E 118 99 24 35
        E 54 99 33 4f
        E 2 b9 04 12
        E 15 b9 04 25
        E 9 b9 04 36
        E 10 b9 04 47
        E 3 b9 04 4c
        E 2 99 2c 1e
        E 67 b9 04 36
        E 63 b9 04 25
        E 17 89 24 40
        E 59 89 33 40
        E 36 89 2c 40
        E 43 b9 04 36
        E 38 b9 04 46
        E 15 99 33 38
        E 4 99 24 3a
        E 13 b9 04 4f
        E 2 99 2c 06
        E 136 b9 04 36
        E 31 b9 04 22
        E 36 b9 04 12
        E 22 89 33 40
        E 4 89 24 40
        E 16 89 2c 40
        E 6 b9 04 00
        E 141 99 26 46
        E 11 99 33 56
        E 49 b9 04 12
        E 17 b9 04 22
        E 9 b9 04 32
        E 8 b9 04 44
        E 5 b9 04 4c
        E 0 99 2c 24
        E 24 b9 04 34
        E 12 b9 04 22
        E 57 b9 04 12
        E 51 89 26 40
        E 13 89 33 40
        E 85 b9 04 22
        E 2 89 2c 40
        E 46 99 33 3b
        E 79 b9 04 29
        E 37 b9 04 18
        E 33 b9 04 06
        E 15 b9 04 00
        E 79 89 33 40
        E 120 99 24 3f
        E 33 b9 04 12
        E 10 99 33 4e
        E 9 b9 04 22
        E 10 b9 04 32
        E 33 b9 04 20
        E 131 b9 04 12
        E 17 89 24 40
        E 43 89 33 40
        E 61 b9 04 22
        E 26 b9 04 32
        E 32 b9 04 43
        E 16 99 33 39
        E 13 b9 04 4c
        E 2 99 2c 08
        E 119 b9 04 32
        E 22 b9 04 22
        E 28 b9 04 12
        E 39 b9 04 00
        E 19 89 33 40
        E 15 89 2c 40
        E 186 99 26 52
        E 9 99 33 5d
        E 12 b9 04 12
        E 17 b9 04 22
        E 8 b9 04 32
        E 10 b9 04 43
        E 2 b9 04 4c
        E 2 99 2c 24
        E 3 b9 04 53
        E 19 b9 04 43
        E 10 b9 04 32
        E 53 b9 04 22
        E 83 b9 04 12
        E 13 89 26 40
        E 10 89 33 40
        E 51 89 2c 40
        E 31 b9 04 22
        E 27 b9 04 32
        E 35 b9 04 43
        E 18 99 33 3b
        E 167 b9 04 32
        E 41 b9 04 22
        E 34 89 33 40
        E 38 b9 04 12
        E 168 99 33 41
        E 28 b9 04 25
        E 22 b9 04 36
        E 24 b9 04 46
        E 15 b9 04 4d
        E 2 99 2c 0a
        E 77 b9 04 36
        E 55 b9 04 25
        E 18 89 33 40
        E 91 99 33 35
        E 3 89 2c 40
        E 19 b9 04 1d
        E 133 b9 04 2e
        E 89 89 33 40
        E 126 99 26 3e
        E 24 b9 04 20
        E 15 99 33 4f
        E 202 89 26 40
        E 42 89 33 40
        E 2 b9 04 25
        E 128 99 33 2c
        E 187 b9 04 30
        E 55 89 33 40
        E 217 99 33 3f
        E 244 89 33 40
        E 19 b9 04 36
        E 104 99 33 29
        E 244 89 33 40
        E 228 99 33 3b
        E 241 89 33 40
        E 165 99 33 30
        E 241 89 33 40
        E 189 99 33 2b
        E 241 89 33 40
        E 169 99 33 32
        E 242 89 33 40
        E 130 99 33 28
        E 158 b9 04 2c
        E 84 89 33 40
        E 152 b9 04 20
        E 63 99 33 3d
        E 128 b9 04 18
        E 116 89 33 40
        E 152 99 33 21
        E 227 b9 04 12
        E 17 89 33 40
        E 225 99 33 40
        E 87 b9 04 09
        E 154 89 33 40
        E 191 99 33 1a
        E 241 89 33 40
        E 201 99 33 38
        E 241 89 33 40
        E 175 99 33 17
        E 241 89 33 40
        E 254 99 33 17
        E 242 89 33 40
        E 176 99 33 15
        E 242 89 33 40
        E 241 99 33 1e
        E 242 89 33 40
        E 198 99 33 14
        E 242 89 33 40
        E 183 99 33 2c
        E 242 89 33 40
        E 193 99 33 0f
        E 242 89 33 40
        E 203 99 33 34
        E 241 89 33 40
        E 184 99 33 15
        E 241 89 33 40
        E 220 99 33 3d
        E 242 89 33 40
        E 179 99 33 12
        E 241 89 33 40
        E 193 99 33 34
        E 242 89 33 40
        E 162 99 33 0d
        E 242 89 33 40
        E 244 99 33 34
        E 241 89 33 40
        E 177 99 33 17
        E 241 89 33 40
        E 232 99 33 38
        E 241 89 33 40
        E 204 99 33 07
        E 241 89 33 40
        E 225 99 33 38
        E 242 89 33 40
        E 691 99 33 41
        E 241 89 33 40
        E 169 99 33 19
        E 160 b9 04 0f
        E 82 89 33 40
        E 222 99 33 40
        E 242 89 33 40
        E 195 99 33 16
        E 242 89 33 40
        E 213 99 33 42
        E 241 89 33 40
        E 189 99 33 19
        E 244 89 33 40
        E 210 99 33 46
        E 242 89 33 40
        E 177 99 33 21
        E 243 89 33 40
        E 249 99 33 42
        E 241 89 33 40
        E 167 99 33 21
        E 34 b9 04 18
        E 210 89 33 40
        E 232 99 33 42
        E 186 b9 04 25
        E 56 89 33 40
        E 149 b9 04 2e
        E 39 99 33 1c
        E 242 89 33 40
        E 282 99 33 49
        E 242 89 33 40
        E 188 b9 04 32
        E 15 99 33 1f
        E 222 b9 04 27
        E 19 89 33 40
        E 133 b9 04 20
        E 95 99 33 47
        E 241 89 33 40
        E 184 99 33 23
        E 242 89 33 40
        E 258 99 24 66
        E 53 99 33 60
        E 191 89 24 40
        E 51 89 33 40
        E 570 99 33 6d
        E 242 89 33 40
        E 51 b9 04 1a
        E 204 99 26 5b
        E 32 b9 04 12
        E 212 89 26 40
        E 47 b9 04 09
        E 362 b9 04 00
        E 16480 99 26 22
        E 127 89 26 40
        E 3 99 26 4d
        E 239 89 26 40
        E 510 99 24 7b
        E 19 99 33 54
        E 223 89 24 40
        E 21 89 33 40
        E 497 99 24 46
        E 42 99 33 56
        E 202 89 24 40
        E 42 89 33 40
        E 212 99 26 72
        E 244 89 26 40
        E 205 99 33 38
        E 244 89 33 40
        E 564 99 24 7f
        E 29 99 33 43
        E 215 89 24 40
        E 26 89 33 40
        E 534 99 33 39
        E 244 89 33 40
        E 211 99 26 65
        E 244 89 26 40
        E 195 99 33 32
        E 242 89 33 40
        E 548 99 24 79
        E 22 99 33 38
        E 220 89 24 40
        E 22 89 33 40
        E 485 99 26 79
        E 32 99 33 4c
        E 210 89 26 40
        E 33 89 33 40
        E 581 99 24 7b
        E 33 99 33 3f
        E 208 89 24 40
        E 34 89 33 40
        E 434 99 24 54
        E 73 99 33 38
        E 172 89 24 40
        E 69 89 33 40
        E 198 99 28 63
        E 242 89 28 40
        E 160 99 33 35
        E 242 89 33 40
        E 533 99 24 7f
        E 37 99 33 3e
        E 205 89 24 40
        E 36 89 33 40
        E 560 99 33 26
        E 242 89 33 40
        E 213 99 26 76
        E 242 89 26 40
        E 193 99 33 32
        E 244 89 33 40
        E 519 99 24 7b
        E 53 99 33 41
        E 189 89 24 40
        E 56 89 33 40
        E 493 99 28 53
        E 45 99 33 48
        E 196 89 28 40
        E 48 89 33 40
        E 549 99 24 66
        E 19 99 33 39
        E 222 89 24 40
        E 19 89 33 40
        E 501 99 24 57
        E 43 99 33 3f
        E 198 89 24 40
        E 44 89 33 40
        E 210 99 26 78
        E 242 89 26 40
        E 168 99 33 32
        E 242 89 33 40
        E 614 99 24 7d
        E 41 99 33 4c
        E 201 89 24 40
        E 40 89 33 40
        E 547 99 33 3f
        E 241 89 33 40
        E 203 99 26 68
        E 244 89 26 40
        E 179 99 33 31
        E 242 89 33 40
        E 548 99 24 7f
        E 36 99 33 41
        E 206 89 24 40
        E 38 89 33 40
        E 522 99 28 7e
        E 65 99 33 7f
        E 177 89 28 40
        E 65 89 33 40
        E 505 99 24 74
        E 72 99 33 42
        E 170 89 24 40
        E 74 89 33 40
        E 517 99 24 5d
        E 41 99 33 47
        E 201 89 24 40
        E 43 89 33 40
        E 198 99 28 39
        E 8 99 26 7c
        E 237 89 28 40
        E 7 89 26 40
        E 137 99 33 41
        E 245 89 33 40
        E 698 99 24 7f
        E 36 99 33 7f
        E 206 89 24 40
        E 36 89 33 40
        E 613 99 33 44
        E 241 89 33 40
        E 221 99 26 7f
        E 242 89 26 40
        E 193 99 33 51
        E 241 89 33 40
        E 555 99 24 7f
        E 71 99 33 7f
        E 173 89 24 40
        E 71 89 33 40
        E 498 99 28 62
        E 53 99 33 7f
        E 188 89 28 40
        E 53 89 33 40
        E 554 99 24 7a
        E 53 99 33 7f
        E 188 89 24 40
        E 54 89 33 40
        E 519 99 24 64
        E 57 99 33 57
        E 184 89 24 40
        E 58 89 33 40
        E 186 99 28 56
        E 242 89 28 40
        E 128 99 33 65
        E 244 89 33 40
        E 638 99 24 7f
        E 36 99 33 7f
        E 206 89 24 40
        E 36 89 33 40
        E 596 99 33 7f
        E 242 89 33 40
        E 191 99 28 68
        E 242 89 28 40
        E 203 99 33 5d
        E 241 89 33 40
        E 476 99 24 7f
        E 70 99 33 7f
        E 174 89 24 40
        E 70 89 33 40
        E 508 99 28 5d
        E 45 99 3b 7f
        E 196 89 28 40
        E 49 89 3b 40
        E 534 99 24 7a
        E 43 99 33 6d
        E 197 89 24 40
        E 44 89 33 40
        E 534 99 24 5c
        E 32 99 33 7f
        E 210 89 24 40
        E 32 89 33 40
        E 166 99 30 1e
        E 41 99 28 45
        E 203 89 30 40
        E 39 89 28 40
        E 146 99 33 3f
        E 243 89 33 40
        E 495 99 24 7f
        E 48 99 33 7f
        E 194 89 24 40
        E 48 89 33 40
        E 580 99 33 7f
        E 242 89 33 40
        E 206 99 28 63
        E 243 89 28 40
        E 172 99 33 3c
        E 241 89 33 40
        E 500 99 24 7e
        E 48 99 33 7f
        E 196 89 24 40
        E 46 89 33 40
        E 586 99 28 51
        E 15 99 33 7f
        E 230 89 28 40
        E 12 89 33 40
        E 575 99 24 7f
        E 34 99 33 7f
        E 210 89 24 40
        E 34 89 33 40
        E 507 99 24 5c
        E 78 99 33 7f
        E 164 89 24 40
        E 79 89 33 40
        E 174 99 26 7f
        E 242 89 26 40
        E 189 99 33 35
        E 241 89 33 40
        E 499 99 24 7f
        E 59 99 33 48
        E 184 89 24 40
        E 58 89 33 40
        E 508 99 33 46
        E 243 89 33 40
        E 193 99 28 60
        E 242 89 28 40
        E 140 99 33 4c
        E 242 89 33 40
        E 152 99 24 30
        E 242 89 24 40
        E 191 99 26 6f
        E 104 99 28 6f
        E 140 89 26 40
        E 101 89 28 40
        E 58 99 24 46
        E 242 89 24 40
        E 169 99 26 61
        E 104 89 26 40
        E 2 99 26 7d
        E 242 89 26 40
        E 490 99 24 6f
        E 19 b9 04 12
        E 10 b9 04 22
        E 7 b9 04 32
        E 14 b9 04 43
        E 47 99 33 7f
        E 140 b9 04 32
        E 10 89 24 40
        E 91 89 33 40
        E 82 b9 04 38
        E 29 99 24 48
        E 24 99 33 3b
        E 13 b9 04 27
        E 43 b9 04 15
        E 41 b9 04 03
        E 8 b9 04 00
        E 113 89 24 40
        E 24 89 33 40
        E 143 b9 04 12
        E 17 b9 04 22
        E 6 99 26 7f
        E 6 b9 04 32
        E 9 b9 04 43
        E 5 b9 04 4d
        E 3 99 2c 1a
        E 2 b9 04 54
        E 15 b9 04 64
        E 17 99 33 75
        E 23 b9 04 54
        E 28 b9 04 44
        E 18 b9 04 34
        E 25 b9 04 22
        E 36 b9 04 12
        E 56 89 26 40
        E 24 89 2c 40
        E 31 89 33 40
        E 34 b9 04 22
        E 22 b9 04 32
        E 65 99 24 58
        E 12 99 33 26
        E 77 b9 04 22
        E 29 b9 04 12
        E 37 b9 04 00
        E 86 89 24 40
        E 13 89 33 40
        E 116 99 24 36
        E 48 b9 04 12
        E 12 b9 04 22
        E 9 99 33 5f
        E 5 b9 04 32
        E 13 b9 04 44
        E 4 b9 04 4c
        E 3 99 2c 24
        E 2 b9 04 55
        E 19 b9 04 44
        E 8 b9 04 34
        E 33 b9 04 22
        E 46 b9 04 12
        E 39 89 24 40
        E 73 89 33 40
        E 16 b9 04 25
        E 8 89 2c 40
        E 14 b9 04 36
        E 27 b9 04 46
        E 82 99 24 4a
        E 7 99 33 26
        E 34 b9 04 36
        E 39 b9 04 25
        E 29 b9 04 15
        E 38 b9 04 03
        E 13 b9 04 00
        E 81 89 24 40
        E 8 89 33 40
        E 178 b9 04 12
        E 3 99 26 7f
        E 7 b9 04 25
        E 9 b9 04 36
        E 23 b9 04 46
        E 4 b9 04 4c
        E 3 99 2c 14
        E 2 99 33 7f
        E 3 b9 04 56
        E 7 b9 04 66
        E 17 b9 04 56
        E 10 b9 04 46
        E 39 b9 04 36
        E 21 b9 04 25
        E 43 b9 04 15
        E 56 89 26 40
        E 44 89 2c 40
        E 4 89 33 40
        E 46 b9 04 25
        E 22 b9 04 36
        E 31 b9 04 46
        E 8 99 24 4b
        E 58 99 33 23
        E 58 b9 04 36
        E 33 b9 04 25
        E 29 b9 04 15
        E 34 b9 04 03
        E 12 b9 04 00
        E 17 89 24 40
        E 61 89 33 40
        E 108 99 24 3d
        E 51 b9 04 12
        E 15 b9 04 25
        E 24 b9 04 36
        E 9 99 33 56
        E 3 b9 04 46
        E 2 b9 04 4c
        E 3 99 2c 20
        E 2 b9 04 56
        E 26 b9 04 46
        E 42 b9 04 36
        E 24 b9 04 25
        E 39 b9 04 15
        E 1 89 24 40
        E 102 89 33 40
        E 8 89 2c 40
        E 19 b9 04 25
        E 24 b9 04 36
        E 24 b9 04 46
        E 32 b9 04 4f
        E 2 99 2c 0a
        E 7 99 24 45
        E 54 99 33 2d
        E 34 b9 04 36
        E 28 b9 04 25
        E 27 b9 04 15
        E 31 b9 04 03
        E 10 b9 04 00
        E 51 89 2c 40
        E 7 89 24 40
        E 53 89 33 40
        E 162 b9 04 12
        E 7 99 26 7f
        E 5 b9 04 25
        E 7 b9 04 36
        E 22 b9 04 46
        E 5 b9 04 4c
        E 2 99 2c 12
        E 5 b9 04 56
        E 9 b9 04 66
        E 13 99 33 7f
        E 5 b9 04 55
        E 9 b9 04 44
        E 39 b9 04 34
        E 26 b9 04 22
        E 44 b9 04 12
        E 53 89 26 40
        E 42 89 2c 40
        E 26 89 33 40
        E 36 b9 04 22
        E 15 b9 04 32
        E 12 99 24 4a
        E 14 b9 04 43
        E 37 b9 04 4d
        E 2 99 2c 06
        E 41 99 33 2f
        E 63 b9 04 32
        E 24 b9 04 22
        E 31 b9 04 12
        E 29 89 24 40
        E 10 b9 04 00
        E 43 89 2c 40
        E 41 89 33 40
        E 104 99 24 41
        E 57 b9 04 12
        E 10 b9 04 25
        E 20 b9 04 36
        E 5 99 33 72
        E 7 b9 04 46
        E 3 b9 04 4c
        E 2 99 2c 1e
        E 3 b9 04 56
        E 31 b9 04 46
        E 36 b9 04 36
        E 22 b9 04 25
        E 27 b9 04 15
        E 19 89 24 40
        E 92 89 33 40
        E 14 89 2c 40
        E 12 b9 04 25
        E 20 b9 04 36
        E 26 b9 04 46
        E 22 b9 04 4f
        E 3 99 2c 0c
        E 9 99 24 43
        E 37 99 33 2d
        E 69 b9 04 36
        E 27 b9 04 25
        E 24 b9 04 15
        E 29 b9 04 03
        E 10 b9 04 00
        E 39 89 2c 40
        E 7 89 24 40
        E 36 89 33 40
        E 157 99 26 7f
        E 5 b9 04 12
        E 10 b9 04 22
        E 9 b9 04 32
        E 17 b9 04 43
        E 5 b9 04 4c
        E 2 99 2c 16
        E 5 b9 04 53
        E 2 99 33 7f
        E 8 b9 04 64
        E 27 b9 04 54
        E 33 b9 04 44
        E 20 b9 04 34
        E 24 b9 04 20
        E 46 b9 04 0f
        E 29 89 26 40
        E 50 89 2c 40
        E 5 89 33 40
        E 58 b9 04 20
        E 12 b9 04 30
        E 8 99 24 46
        E 19 b9 04 41
        E 36 b9 04 4d
        E 3 99 2c 08
        E 4 99 33 39
        E 87 b9 04 30
        E 20 b9 04 20
        E 26 b9 04 0f
        E 24 b9 04 00
        E 22 89 24 40
        E 60 89 2c 40
        E 3 89 33 40
        E 130 99 24 4a
        E 37 b9 04 12
        E 9 b9 04 25
        E 10 b9 04 36
        E 17 b9 04 46
        E 7 99 33 73
        E 3 b9 04 4c
        E 2 99 2c 12
        E 5 b9 04 56
        E 18 b9 04 46
        E 32 b9 04 36
        E 30 b9 04 25
        E 31 b9 04 15
        E 41 89 24 40
        E 82 89 33 40
        E 3 89 2c 40
        E 5 b9 04 25
        E 19 b9 04 36
        E 24 b9 04 46
        E 24 b9 04 4f
        E 2 99 2c 0a
        E 29 99 24 42
        E 41 99 33 44
        E 46 b9 04 36
        E 32 b9 04 25
        E 24 b9 04 15
        E 31 b9 04 03
        E 9 b9 04 00
        E 32 89 2c 40
        E 29 89 24 40
        E 44 89 33 40
        E 138 b9 04 12
        E 9 b9 04 22
        E 5 b9 04 32
        E 7 b9 04 43
        E 13 99 26 7f
        E 2 b9 04 4c
        E 2 99 2c 1a
        E 8 b9 04 53
        E 12 b9 04 64
        E 19 99 33 7e
        E 10 b9 04 54
        E 36 b9 04 44
        E 19 b9 04 34
        E 29 b9 04 20
        E 44 b9 04 0f
        E 60 89 26 40
        E 4 89 2c 40
        E 40 89 33 40
        E 45 b9 04 20
        E 15 b9 04 30
        E 19 b9 04 41
        E 12 99 24 4a
        E 22 b9 04 4d
        E 2 99 2c 0c
        E 42 99 33 33
        E 72 b9 04 30
        E 22 b9 04 20
        E 26 b9 04 0f
        E 22 b9 04 00
        E 34 89 24 40
        E 26 89 2c 40
        E 39 89 33 40
        E 119 99 24 41
        E 36 b9 04 12
        E 7 b9 04 27
        E 7 b9 04 38
        E 15 b9 04 49
        E 7 b9 04 4c
        E 3 99 2c 1e
        E 4 99 33 64
        E 5 b9 04 5a
        E 56 b9 04 4a
        E 22 b9 04 3a
        E 26 b9 04 29
        E 29 b9 04 18
        E 24 89 24 40
        E 29 b9 04 06
        E 46 89 2c 40
        E 4 89 33 40
        E 40 b9 04 18
        E 16 b9 04 29
        E 22 b9 04 3a
        E 29 b9 04 4a
        E 8 b9 04 4d
        E 2 99 2c 0c
        E 19 99 24 45
        E 22 99 33 37
        E 65 b9 04 3a
        E 32 b9 04 29
        E 24 b9 04 18
        E 26 b9 04 06
        E 15 b9 04 00
        E 38 89 2c 40
        E 20 89 24 40
        E 22 89 33 40
        E 166 b9 04 12
        E 8 b9 04 22
        E 4 b9 04 34
        E 10 b9 04 44
        E 10 99 26 7f
        E 7 b9 04 4c
        E 2 99 2c 1c
        E 5 b9 04 54
        E 7 99 33 77
        E 3 b9 04 64
        E 26 b9 04 54
        E 37 b9 04 44
        E 19 b9 04 34
        E 29 b9 04 20
        E 41 b9 04 0f
        E 65 89 26 40
        E 10 89 2c 40
        E 11 89 33 40
        E 57 b9 04 20
        E 14 b9 04 30
        E 19 b9 04 41
        E 5 99 24 49
        E 25 b9 04 4d
        E 2 99 2c 0a
        E 53 99 33 3f
        E 65 b9 04 30
        E 17 b9 04 20
        E 29 b9 04 0f
        E 27 b9 04 00
        E 26 89 24 40
        E 25 89 2c 40
        E 52 89 33 40
        E 83 99 24 3e
        E 58 b9 04 12
        E 9 b9 04 25
        E 7 b9 04 36
        E 15 b9 04 46
        E 10 b9 04 4c
        E 2 99 2c 14
        E 2 99 33 78
        E 3 b9 04 56
        E 53 b9 04 46
        E 24 b9 04 36
        E 29 b9 04 25
        E 29 b9 04 15
        E 2 89 24 40
        E 102 89 2c 40
        E 5 89 33 40
        E 39 b9 04 25
        E 16 b9 04 36
        E 24 b9 04 46
        E 15 b9 04 4d
        E 3 99 2c 0a
        E 19 99 24 46
        E 48 99 33 41
        E 49 b9 04 36
        E 26 b9 04 22
        E 24 b9 04 12
        E 34 b9 04 00
        E 41 89 2c 40
        E 19 89 24 40
        E 49 89 33 40
        E 157 b9 04 12
        E 7 b9 04 22
        E 5 b9 04 32
        E 5 99 26 7f
        E 2 b9 04 43
        E 5 b9 04 4c
        E 2 99 2c 28
        E 20 b9 04 53
        E 11 b9 04 64
        E 11 99 33 7f
        E 26 b9 04 54
        E 37 b9 04 44
        E 24 b9 04 34
        E 23 b9 04 22
        E 37 b9 04 12
        E 46 89 26 40
        E 7 89 2c 40
        E 44 89 33 40
        E 55 b9 04 22
        E 12 b9 04 32
        E 7 99 24 47
        E 10 b9 04 43
        E 27 b9 04 4d
        E 2 99 2c 10
        E 11 b9 04 53
        E 27 99 33 3d
        E 59 b9 04 43
        E 26 b9 04 32
        E 20 b9 04 22
        E 23 b9 04 12
        E 27 b9 04 00
        E 10 89 24 40
        E 38 89 2c 40
        E 42 89 33 40
        E 140 99 24 45
        E 31 b9 04 12
        E 8 b9 04 25
        E 4 b9 04 36
        E 10 b9 04 46
        E 22 b9 04 4c
        E 3 99 2c 1e
        E 4 b9 04 57
        E 0 99 33 6a
        E 12 b9 04 67
        E 17 b9 04 57
        E 36 b9 04 47
        E 20 b9 04 36
        E 29 b9 04 25
        E 29 b9 04 15
        E 19 89 24 40
        E 75 89 2c 40
        E 5 89 33 40
        E 43 b9 04 25
        E 12 b9 04 36
        E 14 b9 04 46
        E 13 b9 04 4d
        E 2 99 2c 10
        E 17 b9 04 56
        E 50 99 24 47
        E 8 99 33 40
        E 55 b9 04 46
        E 29 b9 04 36
        E 25 b9 04 22
        E 27 b9 04 12
        E 28 b9 04 00
        E 5 89 2c 40
        E 65 89 24 40
        E 7 89 33 40
        E 189 b9 04 12
        E 8 b9 04 27
        E 4 b9 04 38
        E 5 99 26 69
        E 2 b9 04 4c
        E 3 99 2c 34
        E 2 b9 04 4c
        E 27 b9 04 5c
        E 7 99 33 76
        E 2 b9 04 6c
        E 44 b9 04 5c
        E 26 b9 04 4c
        E 22 b9 04 3c
        E 22 b9 04 2c
        E 20 b9 04 1a
        E 48 b9 04 09
        E 17 89 26 40
        E 5 89 2c 40
        E 38 89 33 40
        E 54 b9 04 1a
        E 16 b9 04 2c
        E 12 b9 04 3c
        E 18 b9 04 4c
        E 2 b9 04 4d
        E 2 99 2c 12
        E 7 99 24 4c
        E 56 99 33 38
        E 92 b9 04 3c
        E 21 b9 04 2c
        E 22 b9 04 1a
        E 24 b9 04 09
        E 17 b9 04 00
        E 2 89 2c 40
        E 8 89 24 40
        E 58 89 33 40
        E 147 99 24 47
        E 19 b9 04 12
        E 5 b9 04 25
        E 10 b9 04 36
        E 15 b9 04 46
        E 7 b9 04 4c
        E 2 99 2c 14
        E 8 b9 04 56
        E 2 99 33 6d
        E 7 b9 04 66
        E 27 b9 04 56
        E 38 b9 04 46
        E 22 b9 04 36
        E 27 b9 04 25
        E 24 b9 04 15
        E 29 89 24 40
        E 46 b9 04 03
        E 12 89 2c 40
        E 9 89 33 40
        E 42 b9 04 15
        E 19 b9 04 25
        E 14 b9 04 36
        E 20 b9 04 46
        E 12 b9 04 4d
        E 2 99 2c 0e
        E 19 b9 04 56
        E 22 99 24 45
        E 15 99 33 48
        E 65 b9 04 46
        E 32 b9 04 36
        E 21 b9 04 25
        E 22 b9 04 15
        E 31 b9 04 03
        E 10 b9 04 00
        E 5 89 2c 40
        E 43 89 24 40
        E 12 89 33 40
        E 162 b9 04 12
        E 12 b9 04 25
        E 10 99 26 66
        E 3 b9 04 36
        E 14 b9 04 46
        E 4 b9 04 4c
        E 2 99 2c 16
        E 6 b9 04 56
        E 10 b9 04 66
        E 4 99 33 6d
        E 18 b9 04 56
        E 43 b9 04 46
        E 24 b9 04 36
        E 34 b9 04 25
        E 31 b9 04 15
        E 50 89 26 40
        E 25 89 2c 40
        E 17 89 33 40
        E 62 b9 04 25
        E 15 b9 04 36
        E 15 99 24 49
        E 3 b9 04 46
        E 17 b9 04 4d
        E 2 99 2c 0e
        E 23 b9 04 56
        E 29 99 33 3a
        E 61 b9 04 46
        E 32 b9 04 36
        E 22 b9 04 25
        E 21 b9 04 15
        E 29 b9 04 03
        E 5 89 24 40
        E 5 b9 04 00
        E 19 89 2c 40
        E 48 89 33 40
        E 121 99 24 41
        E 34 b9 04 12
        E 9 b9 04 25
        E 13 b9 04 36
        E 17 b9 04 46
        E 2 b9 04 4c
        E 3 99 2c 16
        E 4 b9 04 56
        E 3 99 33 62
        E 12 b9 04 66
        E 16 b9 04 56
        E 39 b9 04 46
        E 24 b9 04 36
        E 35 b9 04 25
        E 31 b9 04 15
        E 2 89 24 40
        E 75 89 2c 40
        E 10 89 33 40
        E 50 b9 04 25
        E 17 b9 04 36
        E 19 b9 04 46
        E 13 b9 04 4d
        E 2 99 2c 0c
        E 22 b9 04 56
        E 21 99 24 44
        E 37 99 33 40
        E 38 b9 04 46
        E 32 b9 04 36
        E 26 b9 04 22
        E 30 b9 04 12
        E 31 b9 04 00
        E 5 89 2c 40
        E 43 89 24 40
        E 39 89 33 40
        E 152 b9 04 12
        E 10 b9 04 22
        E 7 b9 04 32
        E 12 b9 04 43
        E 12 b9 04 4c
        E 3 99 2c 10
        E 2 99 26 7c
        E 3 b9 04 53
        E 9 b9 04 64
        E 9 99 33 53
        E 21 b9 04 54
        E 35 b9 04 44
        E 22 b9 04 34
        E 29 b9 04 22
        E 36 b9 04 12
        E 76 89 2c 40
        E 2 89 26 40
        E 21 89 33 40
        E 55 b9 04 22
        E 13 b9 04 32
        E 10 99 24 44
        E 9 b9 04 43
        E 27 b9 04 4d
        E 3 99 2c 0a
        E 19 b9 04 53
        E 19 99 33 40
        E 56 b9 04 43
        E 31 b9 04 32
        E 20 b9 04 22
        E 24 b9 04 12
        E 31 b9 04 00
        E 2 89 24 40
        E 39 89 2c 40
        E 38 89 33 40
        E 129 99 24 43
        E 36 b9 04 12
        E 7 b9 04 25
        E 7 b9 04 38
        E 10 b9 04 49
        E 10 b9 04 4c
        E 2 99 2c 20
        E 10 99 33 5b
        E 2 b9 04 5a
        E 10 b9 04 6a
        E 29 b9 04 5a
        E 41 b9 04 4a
        E 19 b9 04 3a
        E 24 b9 04 29
        E 27 b9 04 18
        E 10 89 24 40
        E 33 b9 04 06
        E 39 89 2c 40
        E 7 89 33 40
        E 8 b9 04 00
        E 60 b9 04 12
        E 22 b9 04 25
        E 17 b9 04 36
        E 19 b9 04 46
        E 12 b9 04 4c
        E 2 99 2c 0c
        E 3 99 24 41
        E 12 99 33 40
        E 120 b9 04 36
        E 27 b9 04 22
        E 27 b9 04 12
        E 36 b9 04 00
        E 17 89 2c 40
        E 5 89 24 40
        E 10 89 33 40
        E 195 b9 04 12
        E 11 b9 04 22
        E 7 b9 04 32
        E 2 99 26 74
        E 14 b9 04 43
        E 5 99 33 54
        E 2 b9 04 4d
        E 2 99 2c 18
        E 3 b9 04 53
        E 9 b9 04 63
        E 20 b9 04 53
        E 39 b9 04 43
        E 22 b9 04 32
        E 24 b9 04 22
        E 39 b9 04 12
        E 67 89 26 40
        E 17 89 33 40
        E 2 89 2c 40
        E 71 b9 04 25
        E 9 99 24 46
        E 10 b9 04 36
        E 34 b9 04 46
        E 26 b9 04 4d
        E 3 99 2c 08
        E 7 99 33 39
        E 70 b9 04 36
        E 24 b9 04 22
        E 25 b9 04 12
        E 28 b9 04 00
        E 15 89 24 40
        E 72 89 2c 40
        E 8 89 33 40
        E 93 99 24 3c
        E 63 b9 04 12
        E 8 b9 04 25
        E 7 b9 04 36
        E 15 b9 04 46
        E 9 99 33 47
        E 3 b9 04 4c
        E 2 99 2c 18
        E 5 b9 04 57
        E 12 b9 04 67
        E 22 b9 04 57
        E 33 b9 04 47
        E 21 b9 04 36
        E 28 b9 04 25
        E 14 89 24 40
        E 15 b9 04 15
        E 67 b9 04 03
        E 22 89 33 40
        E 3 89 2c 40
        E 46 b9 04 15
        E 21 b9 04 25
        E 17 b9 04 36
        E 27 b9 04 46
        E 12 99 24 45
        E 3 b9 04 4d
        E 2 99 2c 0a
        E 40 99 33 34
        E 76 b9 04 36
        E 28 b9 04 25
        E 28 b9 04 15
        E 31 b9 04 03
        E 9 b9 04 00
        E 25 89 24 40
        E 7 89 2c 40
        E 38 89 33 40
        E 162 99 26 66
        E 4 b9 04 12
        E 11 b9 04 22
        E 7 b9 04 32
        E 2 99 33 60
        E 10 b9 04 43
        E 10 b9 04 4c
        E 2 99 2c 14
        E 2 b9 04 53
        E 13 b9 04 63
        E 21 b9 04 53
        E 39 b9 04 43
        E 22 b9 04 32
        E 24 b9 04 22
        E 43 b9 04 12
        E 33 89 26 40
        E 23 89 33 40
        E 22 89 2c 40
        E 57 b9 04 22
        E 13 b9 04 32
        E 9 99 24 44
        E 10 b9 04 43
        E 27 b9 04 4d
        E 2 99 2c 0c
        E 12 99 33 3c
        E 109 b9 04 32
        E 17 b9 04 22
        E 26 b9 04 12
        E 29 b9 04 00
        E 13 89 24 40
        E 38 89 2c 40
        E 12 89 33 40
        E 147 99 24 43
        E 22 b9 04 12
        E 13 b9 04 25
        E 9 b9 04 36
        E 17 b9 04 46
        E 2 99 33 6b
        E 3 b9 04 4c
        E 4 99 2c 12
        E 5 b9 04 57
        E 73 b9 04 47
        E 29 b9 04 36
        E 29 b9 04 25
        E 29 b9 04 15
        E 7 89 24 40
        E 65 89 33 40
        E 5 89 2c 40
        E 77 b9 04 27
        E 20 b9 04 38
        E 29 b9 04 49
        E 9 b9 04 4d
        E 2 99 2c 0a
        E 20 99 24 40
        E 3 99 33 48
        E 99 b9 04 38
        E 31 b9 04 27
        E 27 b9 04 15
        E 31 b9 04 03
        E 12 b9 04 00
        E 22 89 2c 40
        E 17 89 24 40
        E 5 89 33 40
        E 176 99 26 46
        E 5 b9 04 12
        E 17 b9 04 25
        E 7 99 33 63
        E 14 b9 04 36
        E 8 b9 04 46
        E 5 b9 04 4c
        E 2 99 2c 1e
        E 2 b9 04 56
        E 30 b9 04 46
        E 43 b9 04 36
        E 31 b9 04 25
        E 49 b9 04 15
        E 29 89 26 40
        E 31 89 33 40
        E 27 89 2c 40
        E 72 b9 04 25
        E 20 b9 04 36
        E 21 b9 04 46
        E 5 99 33 35
        E 12 b9 04 4d
        E 2 99 2c 0a
        E 150 b9 04 36
        E 36 b9 04 25
        E 34 b9 04 15
        E 7 89 33 40
        E 15 89 2c 40
        E 19 b9 04 03
        E 15 b9 04 00
        E 232 b9 04 12
        E 15 99 24 3a
        E 2 b9 04 22
        E 17 b9 04 32
        E 11 b9 04 43
        E 5 b9 04 4d
        E 3 99 2c 1e
        E 2 b9 04 53
        E 8 99 33 6a
        E 5 b9 04 63
        E 47 b9 04 53
        E 35 b9 04 43
        E 39 b9 04 32
        E 24 b9 04 22
        E 45 89 24 40
        E 10 b9 04 12
        E 26 89 2c 40
        E 10 89 33 40
        E 129 b9 04 22
        E 26 b9 04 32
        E 37 b9 04 43
        E 18 99 33 3b
        E 20 b9 04 4d
        E 2 99 2c 06
        E 160 b9 04 32
        E 38 b9 04 22
        E 25 89 33 40
        E 21 89 2c 40
        E 84 b9 04 12
        E 240 b9 04 25
        E 22 b9 04 36
        E 31 b9 04 25
        E 94 b9 04 15
        E 213 b9 04 25
        E 152 b9 04 2e
        E 217 b9 04 22
        E 354 b9 04 1a
        E 164 b9 04 09
        E 161 b9 04 00
        E 7713 b0 7b 00
        GUID {44013357-319C-419B-8F61-EF9FE34C4544}
        IGNTEMPO 0 120 4 4
        SRCCOLOR 507
        VELLANE -1 100 0
      >
    >
    <ITEM
      POSITION 522.37113378684808
      SNAPOFFS 0
      LENGTH 42.37113425438906
      LOOP 1
      ALLTAKES 0
      FADEIN 1 0 0 1 0 0
      FADEOUT 1 0 0 1 0 0
      MUTE 0
      SEL 0
      IGUID {108AD358-F6E1-4FF6-9AD5-776BA366E028}
      IID 16
      NAME "01-EZdrummer-Recorded MIDI"
      VOLPAN 1 0 1 -1
      SOFFS 0 0
      PLAYRATE 1 1 0 -1 0 0.0025
      CHANMODE 0
      GUID {14036533-1958-4C6B-91CA-43E85BF9CAF5}
      RECPASS 6
      <SOURCE MIDI
        HASDATA 1 960 QN
        POOLEDEVTS {53B1903A-AFBC-42D3-8A15-59591FD9F4F5}
        E 7663 99 24 7f
        E 78 99 31 7f
        E 236 89 24 40
        E 78 89 31 40
        E 627 99 33 4f
        E 313 89 33 40
        E 632 99 33 2d
        E 314 89 33 40
        E 594 99 26 5d
        E 71 99 33 7d
        E 242 89 26 40
        E 68 89 33 40
        E 586 99 33 41
        E 314 89 33 40
        E 599 99 24 54
        E 41 99 33 51
        E 273 89 24 40
        E 36 89 33 40
        E 632 99 26 4a
        E 20 99 33 57
        E 293 89 26 40
        E 22 89 33 40
        E 641 99 33 4a
        E 314 89 33 40
        E 605 99 24 5f
        E 73 99 33 4e
        E 238 89 24 40
        E 74 89 33 40
        E 630 99 33 3d
        E 311 89 33 40
        E 599 99 33 41
        E 314 89 33 40
        E 646 99 26 5e
        E 33 99 33 65
        E 279 89 26 40
        E 38 89 33 40
        E 627 99 33 3f
        E 310 89 33 40
        E 593 99 24 56
        E 38 99 33 35
        E 272 89 24 40
        E 40 89 33 40
        E 587 99 26 59
        E 53 99 33 56
        E 258 89 26 40
        E 57 89 33 40
        E 529 99 24 4d
        E 72 99 33 42
        E 242 89 24 40
        E 69 89 33 40
        E 653 99 24 64
        E 38 99 33 62
        E 277 89 24 40
        E 33 89 33 40
        E 631 99 33 45
        E 313 89 33 40
        E 613 99 33 2d
        E 313 89 33 40
        E 642 99 26 64
        E 39 99 33 67
        E 278 89 26 40
        E 39 89 33 40
        E 622 99 33 39
        E 310 89 33 40
        E 693 99 33 5e
        E 313 89 33 40
        E 642 99 26 5f
        E 45 99 33 65
        E 268 89 26 40
        E 44 89 33 40
        E 643 99 33 30
        E 310 89 33 40
        E 671 99 24 6e
        E 43 99 33 69
        E 270 89 24 40
        E 40 89 33 40
        E 659 99 33 53
        E 313 89 33 40
        E 600 99 33 4d
        E 310 89 33 40
        E 590 99 26 5d
        E 33 99 33 5d
        E 283 89 26 40
        E 34 89 33 40
        E 577 99 33 2e
        E 315 89 33 40
        E 598 99 30 7f
        E 9 99 33 3b
        E 302 89 30 40
        E 10 89 33 40
        E 697 99 2d 7f
        E 310 89 2d 40
        E 609 99 29 7b
        E 310 89 29 40
        E 656 99 24 7f
        E 40 99 31 5b
        E 24 99 33 63
        E 246 89 24 40
        E 40 89 31 40
        E 30 89 33 40
        E 544 99 33 1a
        E 314 89 33 40
        E 710 99 33 3e
        E 314 89 33 40
        E 640 99 26 5a
        E 52 99 33 54
        E 261 89 26 40
        E 50 89 33 40
        E 615 99 33 3c
        E 310 89 33 40
        E 645 99 33 43
        E 311 89 33 40
        E 645 99 26 68
        E 44 99 33 60
        E 266 89 26 40
        E 47 89 33 40
        E 615 99 33 4b
        E 314 89 33 40
        E 611 99 24 7a
        E 71 99 33 59
        E 242 89 24 40
        E 72 89 33 40
        E 627 99 33 3f
        E 314 89 33 40
        E 611 99 33 48
        E 313 89 33 40
        E 605 99 26 4e
        E 13 99 33 4d
        E 304 89 26 40
        E 10 89 33 40
        E 666 99 33 4d
        E 35 99 26 5a
        E 276 89 33 40
        E 37 89 26 40
        E 590 99 24 4f
        E 25 99 33 47
        E 286 89 24 40
        E 24 89 33 40
        E 631 99 24 59
        E 27 99 33 58
        E 283 89 24 40
        E 28 89 33 40
        E 576 99 26 53
        E 35 99 33 51
        E 276 89 26 40
        E 35 89 33 40
        E 660 99 24 7f
        E 23 99 31 4e
        E 25 99 33 62
        E 267 89 24 40
        E 21 89 31 40
        E 25 89 33 40
        E 581 99 33 3f
        E 313 89 33 40
        E 695 99 33 5f
        E 314 89 33 40
        E 632 99 26 66
        E 44 99 33 6b
        E 267 89 26 40
        E 47 89 33 40
        E 624 99 33 49
        E 313 89 33 40
        E 686 99 33 61
        E 313 89 33 40
        E 646 99 26 5d
        E 41 99 33 65
        E 273 89 26 40
        E 37 89 33 40
        E 627 99 33 40
        E 310 89 33 40
        E 647 99 24 6d
        E 70 99 33 5e
        E 242 89 24 40
        E 72 89 33 40
        E 83 99 24 3b
        E 313 89 24 40
        E 222 99 33 41
        E 313 89 33 40
        E 795 99 33 2b
        E 313 89 33 40
        E 559 99 26 66
        E 81 99 33 4e
        E 233 89 26 40
        E 77 89 33 40
        E 550 99 33 40
        E 310 89 33 40
        E 658 99 24 68
        E 3 99 33 39
        E 310 89 24 40
        E 4 89 33 40
        E 633 99 26 7b
        E 316 89 26 40
        E 103 99 26 4f
        E 310 89 26 40
        E 158 99 26 69
        E 314 89 26 40
        E 702 99 24 7f
        E 40 99 31 30
        E 28 99 33 59
        E 245 89 24 40
        E 40 89 31 40
        E 25 89 33 40
        E 559 99 33 3a
        E 314 89 33 40
        E 670 99 33 4b
        E 314 89 33 40
        E 644 99 26 68
        E 45 99 33 58
        E 270 89 26 40
        E 40 89 33 40
        E 643 99 33 43
        E 310 89 33 40
        E 617 99 24 5a
        E 13 99 33 53
        E 300 89 24 40
        E 17 89 33 40
        E 555 99 26 6f
        E 69 99 33 3d
        E 241 89 26 40
        E 69 89 33 40
        E 118 99 24 4d
        E 310 89 24 40
        E 154 99 33 30
        E 316 89 33 40
        E 191 99 24 48
        E 314 89 24 40
        E 59 99 24 5d
        E 99 99 33 42
        E 214 89 24 40
        E 100 89 33 40
        E 568 99 24 59
        E 80 99 33 43
        E 233 89 24 40
        E 78 89 33 40
        E 537 99 24 60
        E 71 99 33 31
        E 242 89 24 40
        E 68 89 33 40
        E 559 99 26 7d
        E 68 99 33 45
        E 246 89 26 40
        E 68 89 33 40
        E 639 99 33 44
        E 311 89 33 40
        E 682 99 24 5e
        E 19 99 33 4f
        E 292 89 24 40
        E 19 89 33 40
        E 677 99 26 6b
        E 30 99 33 56
        E 283 89 26 40
        E 28 89 33 40
        E 667 99 33 29
        E 314 89 33 40
        E 195 99 26 4e
        E 310 89 26 40
        E 44 99 24 7f
        E 37 99 33 65
        E 277 89 24 40
        E 37 89 33 40
        E 667 99 33 35
        E 314 89 33 40
        E 627 99 33 3b
        E 313 89 33 40
        E 625 99 26 6c
        E 68 99 33 5f
        E 244 89 26 40
        E 69 89 33 40
        E 593 99 33 42
        E 310 89 33 40
        E 543 99 24 60
        E 74 99 33 34
        E 240 89 24 40
        E 71 89 33 40
        E 602 99 26 6c
        E 57 99 33 58
        E 253 89 26 40
        E 60 89 33 40
        E 667 99 33 2d
        E 314 89 33 40
        E 151 99 26 27
        E 250 89 26 40
        E 2 99 26 38
        E 90 99 24 72
        E 149 99 33 7f
        E 71 89 26 40
        E 91 89 24 40
        E 152 89 33 40
        E 56 99 24 57
        E 313 89 24 40
        E 235 99 33 32
        E 314 89 33 40
        E 236 99 24 4d
        E 311 89 24 40
        E 139 99 26 70
        E 56 99 33 5e
        E 258 89 26 40
        E 56 89 33 40
        E 655 99 26 67
        E 24 99 33 73
        E 289 89 26 40
        E 25 89 33 40
        E 190 99 24 47
        E 313 89 24 40
        E 159 99 33 49
        E 316 89 33 40
        E 127 99 24 4e
        E 313 89 24 40
        E 186 99 33 32
        E 314 89 33 40
        E 121 99 24 56
        E 311 89 24 40
        E 179 99 26 57
        E 51 99 33 64
        E 263 89 26 40
        E 47 89 33 40
        E 612 99 26 54
        E 33 99 33 7f
        E 280 89 26 40
        E 35 89 33 40
        E 657 99 24 7f
        E 93 99 31 6f
        E 220 89 24 40
        E 94 89 31 40
        E 673 99 33 33
        E 313 89 33 40
        E 621 99 33 2f
        E 314 89 33 40
        E 586 99 26 64
        E 66 99 33 4c
        E 245 89 26 40
        E 65 89 33 40
        E 615 99 33 30
        E 313 89 33 40
        E 587 99 33 42
        E 6 99 24 5c
        E 308 89 33 40
        E 5 89 24 40
        E 562 99 24 4d
        E 66 99 33 3b
        E 248 89 24 40
        E 62 89 33 40
        E 543 99 26 6b
        E 66 99 33 7f
        E 245 89 26 40
        E 65 89 33 40
        E 592 99 24 7f
        E 72 99 33 7e
        E 242 89 24 40
        E 72 89 33 40
        E 565 99 33 4c
        E 316 89 33 40
        E 608 99 33 5e
        E 314 89 33 40
        E 655 99 26 51
        E 46 99 33 62
        E 264 89 26 40
        E 50 89 33 40
        E 624 99 33 46
        E 314 89 33 40
        E 614 99 24 5b
        E 19 99 33 70
        E 294 89 24 40
        E 18 89 33 40
        E 588 99 26 5c
        E 52 99 33 58
        E 261 89 26 40
        E 53 89 33 40
        E 44 99 24 56
        E 310 89 24 40
        E 261 99 33 2c
        E 313 89 33 40
        E 162 99 24 4b
        E 310 89 24 40
        E 112 99 24 6b
        E 34 99 33 63
        E 279 89 24 40
        E 34 89 33 40
        E 659 99 24 51
        E 43 99 33 5e
        E 270 89 24 40
        E 43 89 33 40
        E 199 99 26 5e
        E 314 89 26 40
        E 161 99 33 3b
        E 309 89 33 40
        E 694 99 24 65
        E 21 99 33 76
        E 289 89 24 40
        E 21 89 33 40
        E 634 99 33 4f
        E 313 89 33 40
        E 615 99 24 62
        E 34 99 33 43
        E 279 89 24 40
        E 32 89 33 40
        E 614 99 26 6e
        E 53 99 33 7f
        E 261 89 26 40
        E 52 89 33 40
        E 608 99 33 5a
        E 314 89 33 40
        E 659 99 24 58
        E 33 99 33 60
        E 280 89 24 40
        E 34 89 33 40
        E 636 99 24 52
        E 13 99 33 4c
        E 301 89 24 40
        E 12 89 33 40
        E 652 99 26 61
        E 28 99 24 4d
        E 6 99 33 73
        E 276 89 26 40
        E 32 89 24 40
        E 5 89 33 40
        E 578 99 24 4c
        E 40 99 33 5c
        E 273 89 24 40
        E 40 89 33 40
        E 555 99 24 4e
        E 73 99 33 7e
        E 242 89 24 40
        E 71 89 33 40
        E 550 99 24 5e
        E 37 99 33 76
        E 277 89 24 40
        E 37 89 33 40
        E 635 99 26 67
        E 16 99 33 7f
        E 19 99 24 6c
        E 279 89 26 40
        E 15 89 33 40
        E 20 89 24 40
        E 565 99 28 2b
        E 6 99 24 63
        E 16 99 33 7c
        E 291 89 28 40
        E 6 89 24 40
        E 16 89 33 40
        E 648 99 26 7f
        E 4 99 24 7f
        E 96 89 26 40
        E 3 99 26 7f
        E 211 89 24 40
        E 102 89 26 40
        E 27036 99 26 70
        E 75 89 26 40
        E 2 99 26 7f
        E 311 89 26 40
        E 121 99 28 3d
        E 59 b9 04 09
        E 31 99 26 7f
        E 192 b9 04 12
        E 32 89 28 40
        E 89 89 26 40
        E 87 99 24 7f
        E 178 b9 04 0c
        E 136 89 24 40
        E 164 99 28 42
        E 109 89 28 40
        E 3 99 28 64
        E 310 89 28 40
        E 100 99 24 63
        E 313 89 24 40
        E 131 99 26 5a
        E 106 89 26 40
        E 2 99 26 7f
        E 311 89 26 40
        E 65 99 24 58
        E 267 b9 04 03
        E 46 89 24 40
        E 25 b9 04 00
        E 118 99 24 09
        E 56 89 24 40
        E 4 99 24 7f
        E 310 89 24 40
        E 146 b9 04 06
        E 505 99 24 7f
        E 202 b9 04 00
        E 112 89 24 40
        E 257 b9 04 06
        E 13 99 26 7f
        E 115 99 28 7f
        E 198 89 26 40
        E 115 89 28 40
        E 302 b9 04 0c
        E 168 99 24 62
        E 260 b9 04 06
        E 52 89 24 40
        E 182 99 2d 7f
        E 34 99 30 7f
        E 277 89 2d 40
        E 38 89 30 40
        E 677 b9 04 15
        E 69 b9 04 25
        E 176 b9 04 29
        E 69 b9 04 18
        E 15 99 24 5e
        E 64 b9 04 06
        E 51 b9 04 00
        E 199 89 24 40
        E 186 99 26 7f
        E 74 b9 04 12
        E 60 b9 04 22
        E 3 89 26 40
        E 3 99 26 72
        E 6 b9 04 32
        E 12 b9 04 43
        E 10 b9 04 4c
        E 0 99 2c 1e
        E 37 b9 04 32
        E 136 b9 04 22
        E 108 89 26 40
        E 3 b9 04 12
        E 29 89 2c 40
        E 65 b9 04 00
        E 18 99 24 5b
        E 314 89 24 40
        E 99 b9 04 12
        E 16 99 2d 7f
        E 25 99 30 7f
        E 12 b9 04 22
        E 19 b9 04 32
        E 12 b9 04 44
        E 5 b9 04 4c
        E 3 99 2c 1e
        E 30 b9 04 34
        E 19 b9 04 22
        E 189 89 2d 40
        E 25 89 30 40
        E 24 b9 04 12
        E 25 89 2c 40
        E 47 b9 04 00
        E 62 99 24 5c
        E 313 89 24 40
        E 118 99 2d 7f
        E 6 b9 04 12
        E 35 99 29 7f
        E 49 b9 04 22
        E 37 b9 04 12
        E 187 89 2d 40
        E 37 89 29 40
        E 124 b9 04 00
        E 500 b9 04 12
        E 12 b9 04 22
        E 13 b9 04 32
        E 3 99 24 75
        E 46 b9 04 43
        E 6 b9 04 4c
        E 4 99 2c 1e
        E 2 b9 04 53
        E 38 b9 04 43
        E 16 b9 04 32
        E 58 b9 04 22
        E 141 89 24 40
        E 54 89 2c 40
        E 106 b9 04 1a
        E 177 b9 04 0f
        E 215 99 24 53
        E 16 b9 04 18
        E 210 b9 04 12
        E 88 89 24 40
        E 152 b9 04 0c
        E 142 99 26 7f
        E 111 b9 04 12
        E 13 89 26 40
        E 3 99 26 7f
        E 214 b9 04 1a
        E 97 89 26 40
        E 98 b9 04 12
        E 95 b9 04 22
        E 40 b9 04 32
        E 217 b9 04 22
        E 46 99 24 4d
        E 12 b9 04 12
        E 78 b9 04 00
        E 224 89 24 40
        E 220 99 2d 7f
        E 9 99 30 7f
        E 44 b9 04 12
        E 44 b9 04 22
        E 21 b9 04 32
        E 13 b9 04 43
        E 8 b9 04 4c
        E 3 99 2c 1a
        E 4 b9 04 53
        E 43 b9 04 43
        E 38 b9 04 32
        E 75 b9 04 22
        E 15 89 2d 40
        E 6 89 30 40
        E 82 b9 04 12
        E 49 89 2c 40
        E 89 b9 04 00
        E 345 b9 04 12
        E 22 b9 04 22
        E 9 b9 04 32
        E 15 b9 04 43
        E 16 b9 04 4c
        E 3 99 2c 16
        E 152 b9 04 32
        E 31 b9 04 22
        E 63 b9 04 12
        E 65 89 2c 40
        E 14 b9 04 00
        E 23 99 24 4e
        E 314 89 24 40
        E 136 99 26 68
        E 12 b9 04 12
        E 28 b9 04 22
        E 13 b9 04 32
        E 15 b9 04 43
        E 12 b9 04 4c
        E 4 99 2c 16
        E 27 89 26 40
        E 3 99 26 79
        E 7 b9 04 32
        E 196 b9 04 22
        E 75 b9 04 12
        E 2 89 2c 40
        E 31 89 26 40
        E 51 b9 04 00
        E 33 99 24 57
        E 313 89 24 40
        E 87 b9 04 12
        E 31 b9 04 22
        E 12 b9 04 32
        E 19 99 2d 7f
        E 9 99 30 62
        E 10 b9 04 22
        E 155 b9 04 32
        E 139 89 2d 40
        E 7 89 30 40
        E 19 b9 04 22
        E 68 b9 04 12
        E 56 99 24 52
        E 25 b9 04 00
        E 289 89 24 40
        E 136 b9 04 12
        E 6 99 2d 7f
        E 28 b9 04 22
        E 15 b9 04 32
        E 29 99 29 64
        E 3 b9 04 20
        E 28 b9 04 0f
        E 210 89 2d 40
        E 26 b9 04 18
        E 46 89 29 40
        E 37 99 24 52
        E 28 b9 04 06
        E 41 b9 04 00
        E 244 89 24 40
        E 193 b9 04 12
        E 10 b9 04 25
        E 9 b9 04 36
        E 6 99 24 5e
        E 34 b9 04 46
        E 12 b9 04 4c
        E 3 99 2c 10
        E 23 b9 04 36
        E 36 b9 04 25
        E 78 b9 04 15
        E 127 89 24 40
        E 47 89 2c 40
        E 146 b9 04 25
        E 161 b9 04 36
        E 221 99 24 4e
        E 18 b9 04 25
        E 99 b9 04 15
        E 168 b9 04 03
        E 28 89 24 40
        E 13 b9 04 00
        E 305 99 26 7f
        E 102 b9 04 12
        E 24 89 26 40
        E 2 99 26 72
        E 3 b9 04 25
        E 23 b9 04 36
        E 58 b9 04 25
        E 45 b9 04 15
        E 183 89 26 40
        E 9 b9 04 09
        E 161 b9 04 1a
        E 44 b9 04 2c
        E 34 b9 04 3c
        E 37 b9 04 4c
        E 4 99 2c 0c
        E 3 b9 04 4c
        E 160 b9 04 3c
        E 37 b9 04 2c
        E 38 b9 04 1a
        E 44 b9 04 09
        E 12 99 24 4e
        E 16 89 2c 40
        E 3 b9 04 00
        E 295 89 24 40
        E 165 99 2d 7f
        E 9 99 30 7f
        E 55 b9 04 12
        E 66 b9 04 22
        E 12 b9 04 34
        E 6 b9 04 44
        E 3 b9 04 4c
        E 3 99 2c 36
        E 3 b9 04 54
        E 20 b9 04 44
        E 5 b9 04 32
        E 10 b9 04 22
        E 121 89 2d 40
        E 9 89 30 40
        E 139 b9 04 12
        E 4 89 2c 40
        E 93 b9 04 00
        E 360 b9 04 12
        E 25 b9 04 22
        E 15 b9 04 32
        E 13 b9 04 43
        E 12 b9 04 4c
        E 3 99 2c 16
        E 196 b9 04 36
        E 62 b9 04 22
        E 53 89 2c 40
        E 8 b9 04 12
        E 92 b9 04 00
        E 20 99 24 4e
        E 313 89 24 40
        E 95 b9 04 12
        E 9 99 26 6f
        E 49 b9 04 22
        E 13 b9 04 32
        E 9 b9 04 43
        E 6 b9 04 4c
        E 2 99 2c 22
        E 27 b9 04 32
        E 11 b9 04 22
        E 19 89 26 40
        E 3 99 26 73
        E 199 b9 04 27
        E 56 89 2c 40
        E 25 b9 04 15
        E 30 89 26 40
        E 57 b9 04 03
        E 25 b9 04 00
        E 8 99 24 53
        E 312 89 24 40
        E 58 b9 04 12
        E 46 b9 04 25
        E 16 b9 04 36
        E 9 b9 04 47
        E 4 b9 04 4d
        E 3 99 2c 22
        E 9 b9 04 57
        E 3 99 2d 7f
        E 15 b9 04 47
        E 11 99 30 5c
        E 2 b9 04 36
        E 162 b9 04 2c
        E 108 89 2c 40
        E 12 89 2d 40
        E 29 89 30 40
        E 49 b9 04 30
        E 50 b9 04 20
        E 46 99 24 4f
        E 22 b9 04 0f
        E 56 b9 04 00
        E 236 89 24 40
        E 126 99 26 6d
        E 73 b9 04 12
        E 27 89 26 40
        E 3 99 26 7f
        E 35 b9 04 22
        E 12 b9 04 32
        E 6 b9 04 43
        E 6 b9 04 4c
        E 4 99 2c 26
        E 17 b9 04 32
        E 10 b9 04 22
        E 220 89 26 40
        E 35 b9 04 12
        E 29 89 2c 40
        E 52 b9 04 00
        E 424 b9 04 12
        E 29 b9 04 22
        E 28 99 24 62
        E 15 b9 04 32
        E 13 b9 04 43
        E 6 b9 04 4d
        E 3 99 2c 20
        E 3 b9 04 54
        E 22 b9 04 43
        E 12 b9 04 32
        E 162 b9 04 2c
        E 78 89 24 40
        E 33 89 2c 40
        E 221 b9 04 1d
        E 233 b9 04 2e
        E 152 99 24 5f
        E 78 b9 04 1d
        E 235 89 24 40
        E 38 b9 04 2e
        E 189 99 26 7e
        E 19 b9 04 1d
        E 108 89 26 40
        E 3 99 26 7f
        E 311 89 26 40
        E 34 b9 04 18
        E 84 b9 04 29
        E 59 b9 04 3a
        E 170 b9 04 44
        E 87 b9 04 34
        E 56 99 24 57
        E 5 b9 04 22
        E 82 b9 04 12
        E 135 b9 04 00
        E 88 89 24 40
        E 205 99 2d 7f
        E 29 99 30 7f
        E 11 b9 04 12
        E 32 b9 04 22
        E 12 b9 04 32
        E 15 b9 04 43
        E 10 b9 04 4c
        E 3 99 2c 18
        E 35 b9 04 32
        E 36 b9 04 22
        E 131 89 2d 40
        E 28 89 30 40
        E 80 89 2c 40
        E 75 b9 04 12
        E 130 b9 04 00
        E 286 b9 04 12
        E 21 b9 04 22
        E 13 b9 04 32
        E 15 b9 04 43
        E 7 b9 04 4c
        E 3 99 2c 18
        E 192 b9 04 32
        E 37 b9 04 22
        E 66 b9 04 12
        E 18 89 2c 40
        E 91 99 24 56
        E 12 b9 04 00
        E 301 89 24 40
        E 71 b9 04 12
        E 25 b9 04 22
        E 9 99 26 7a
        E 3 b9 04 32
        E 10 b9 04 43
        E 9 b9 04 4c
        E 3 99 2c 1a
        E 32 b9 04 32
        E 40 b9 04 22
        E 31 89 26 40
        E 3 99 26 7f
        E 205 89 2c 40
        E 105 b9 04 12
        E 3 89 26 40
        E 109 99 24 57
        E 25 b9 04 00
        E 288 89 24 40
        E 53 b9 04 12
        E 31 b9 04 22
        E 16 b9 04 32
        E 25 99 2d 7f
        E 9 99 30 67
        E 42 b9 04 22
        E 262 89 2d 40
        E 7 89 30 40
        E 80 b9 04 12
        E 66 99 24 55
        E 129 b9 04 00
        E 184 89 24 40
        E 90 b9 04 12
        E 47 b9 04 25
        E 3 99 2d 7f
        E 49 99 29 65
        E 25 b9 04 15
        E 176 b9 04 25
        E 63 89 2d 40
        E 50 89 29 40
        E 133 b9 04 15
        E 31 99 24 51
        E 78 b9 04 03
        E 21 b9 04 00
        E 215 89 24 40
        E 87 b9 04 12
        E 21 b9 04 22
        E 22 99 24 7e
        E 34 b9 04 12
        E 279 89 24 40
        E 57 b9 04 1d
        E 155 b9 04 0c
        E 378 b9 04 1d
        E 7 99 24 57
        E 96 b9 04 2e
        E 177 b9 04 1d
        E 40 89 24 40
        E 108 b9 04 0c
        E 162 99 26 7f
        E 43 b9 04 03
        E 87 89 26 40
        E 3 99 26 7f
        E 84 b9 04 15
        E 227 89 26 40
        E 168 b9 04 25
        E 52 b9 04 36
        E 218 b9 04 25
        E 53 b9 04 15
        E 12 99 24 57
        E 76 b9 04 03
        E 16 b9 04 00
        E 218 89 24 40
        E 152 99 2d 7f
        E 31 99 30 7f
        E 41 b9 04 12
        E 37 b9 04 22
        E 12 b9 04 32
        E 10 b9 04 43
        E 31 b9 04 32
        E 12 b9 04 22
        E 140 89 2d 40
        E 30 89 30 40
        E 137 b9 04 12
        E 118 b9 04 00
        E 348 b9 04 12
        E 24 b9 04 22
        E 13 b9 04 32
        E 13 b9 04 43
        E 9 b9 04 4c
        E 6 99 2c 18
        E 31 b9 04 32
        E 53 b9 04 22
        E 226 89 2c 40
        E 102 b9 04 12
        E 53 99 24 53
        E 53 b9 04 00
        E 261 89 24 40
        E 106 b9 04 12
        E 3 99 26 74
        E 28 b9 04 25
        E 18 b9 04 36
        E 47 b9 04 25
        E 31 89 26 40
        E 3 99 26 7a
        E 121 b9 04 1d
        E 189 89 26 40
        E 106 99 24 57
        E 12 b9 04 0c
        E 107 b9 04 00
        E 195 89 24 40
        E 111 b9 04 12
        E 31 b9 04 22
        E 13 99 2d 7c
        E 3 b9 04 32
        E 6 99 30 4e
        E 6 b9 04 43
        E 44 b9 04 32
        E 161 b9 04 2e
        E 93 89 2d 40
        E 9 89 30 40
        E 137 b9 04 1d
        E 12 99 24 58
        E 78 b9 04 0c
        E 84 b9 04 00
        E 152 89 24 40
        E 130 99 26 73
        E 112 b9 04 12
        E 15 89 26 40
        E 3 99 26 7f
        E 3 b9 04 22
        E 10 b9 04 32
        E 40 b9 04 22
        E 258 89 26 40
        E 43 b9 04 12
        E 100 b9 04 00
        E 450 99 24 60
        E 6 b9 04 12
        E 19 b9 04 22
        E 12 b9 04 32
        E 28 b9 04 22
        E 245 89 24 40
        E 233 b9 04 18
        E 174 b9 04 29
        E 37 b9 04 3a
        E 74 b9 04 4a
        E 128 99 24 53
        E 3 b9 04 3a
        E 68 b9 04 29
        E 75 b9 04 18
        E 118 b9 04 06
        E 49 89 24 40
        E 7 b9 04 00
        E 205 99 26 7f
        E 129 99 28 7d
        E 29 b9 04 12
        E 156 89 26 40
        E 61 b9 04 09
        E 68 89 28 40
        E 144 b9 04 1a
        E 61 b9 04 2c
        E 50 b9 04 3c
        E 208 b9 04 2c
        E 49 b9 04 1a
        E 60 99 24 53
        E 9 b9 04 09
        E 56 b9 04 00
        E 248 89 24 40
        E 121 99 2d 7f
        E 21 99 30 7f
        E 19 b9 04 12
        E 29 b9 04 25
        E 12 b9 04 36
        E 9 b9 04 46
        E 6 b9 04 4c
        E 0 99 2c 22
        E 22 b9 04 36
        E 13 b9 04 22
        E 183 89 2d 40
        E 21 89 30 40
        E 72 b9 04 12
        E 3 89 2c 40
        E 102 b9 04 00
        E 376 b9 04 12
        E 28 b9 04 25
        E 16 b9 04 36
        E 12 b9 04 46
        E 6 b9 04 4c
        E 3 99 2c 18
        E 40 b9 04 36
        E 196 b9 04 25
        E 61 b9 04 15
        E 13 89 2c 40
        E 84 b9 04 03
        E 9 99 24 53
        E 13 b9 04 00
        E 300 89 24 40
        E 106 b9 04 12
        E 3 99 26 7c
        E 20 b9 04 25
        E 12 b9 04 36
        E 12 b9 04 47
        E 22 b9 04 36
        E 19 b9 04 25
        E 40 89 26 40
        E 3 99 26 7e
        E 305 b9 04 15
        E 5 89 26 40
        E 106 99 24 54
        E 47 b9 04 03
        E 61 b9 04 00
        E 205 89 24 40
        E 47 b9 04 12
        E 37 b9 04 22
        E 25 b9 04 32
        E 38 99 2d 7f
        E 21 99 30 64
        E 16 b9 04 22
        E 170 b9 04 32
        E 106 89 2d 40
        E 19 89 30 40
        E 70 b9 04 22
        E 50 99 24 53
        E 65 b9 04 12
        E 218 b9 04 03
        E 3 b9 04 00
        E 28 89 24 40
        E 146 99 2d 7f
        E 28 99 29 75
        E 18 b9 04 12
        E 41 b9 04 22
        E 226 89 2d 40
        E 25 89 29 40
        E 159 b9 04 12
        E 148 b9 04 00
        E 311 b9 04 12
        E 25 b9 04 22
        E 10 b9 04 32
        E 5 99 24 72
        E 10 b9 04 43
        E 18 b9 04 32
        E 16 b9 04 22
        E 139 b9 04 12
        E 131 89 24 40
        E 264 b9 04 22
        E 65 b9 04 32
        E 90 b9 04 43
        E 186 b9 04 32
        E 22 99 24 62
        E 25 b9 04 22
        E 80 b9 04 12
        E 109 b9 04 00
        E 99 89 24 40
        E 205 99 26 7f
        E 99 b9 04 12
        E 16 b9 04 22
        E 9 99 28 79
        E 37 b9 04 12
        E 153 89 26 40
        E 15 b9 04 06
        E 109 89 28 40
        E 87 b9 04 18
        E 83 b9 04 29
        E 69 b9 04 3a
        E 55 b9 04 4a
        E 7 b9 04 4c
        E 0 99 2c 06
        E 176 b9 04 3a
        E 53 b9 04 29
        E 53 b9 04 18
        E 16 99 24 5a
        E 15 89 2c 40
        E 46 b9 04 06
        E 50 b9 04 00
        E 203 89 24 40
        E 111 99 2d 7f
        E 28 99 30 7f
        E 62 b9 04 12
        E 37 b9 04 25
        E 16 b9 04 36
        E 5 b9 04 46
        E 7 b9 04 4c
        E 4 99 2c 20
        E 15 b9 04 36
        E 13 b9 04 22
        E 126 89 2d 40
        E 29 89 30 40
        E 130 89 2c 40
        E 31 b9 04 12
        E 161 b9 04 00
        E 279 b9 04 12
        E 26 b9 04 25
        E 21 b9 04 36
        E 16 b9 04 46
        E 28 b9 04 36
        E 159 b9 04 2e
        E 219 b9 04 1d
        E 56 99 24 51
        E 50 b9 04 0c
        E 78 b9 04 00
        E 186 89 24 40
        E 102 99 26 73
        E 35 b9 04 12
        E 24 b9 04 22
        E 12 b9 04 32
        E 16 b9 04 43
        E 22 b9 04 32
        E 2 89 26 40
        E 4 99 26 7f
        E 9 b9 04 22
        E 298 b9 04 27
        E 3 89 26 40
        E 108 b9 04 15
        E 11 99 24 4b
        E 124 b9 04 03
        E 30 b9 04 00
        E 159 89 24 40
        E 109 99 2d 7f
        E 3 b9 04 12
        E 16 99 30 68
        E 12 b9 04 25
        E 18 b9 04 36
        E 17 b9 04 46
        E 30 b9 04 36
        E 34 b9 04 25
        E 183 89 2d 40
        E 6 b9 04 36
        E 13 89 30 40
        E 170 b9 04 22
        E 4 99 24 50
        E 84 b9 04 12
        E 105 b9 04 00
        E 124 89 24 40
        E 105 99 26 7f
        E 103 89 26 40
        E 3 99 26 79
        E 31 b9 04 12
        E 25 b9 04 25
        E 12 b9 04 36
        E 35 b9 04 22
        E 207 89 26 40
        E 10 b9 04 27
        E 77 b9 04 15
        E 84 b9 04 03
        E 22 b9 04 00
        E 410 99 24 5d
        E 21 b9 04 12
        E 22 b9 04 25
        E 56 b9 04 15
        E 214 89 24 40
        E 255 b9 04 25
        E 55 b9 04 36
        E 44 b9 04 46
        E 22 b9 04 4c
        E 3 99 2c 08
        E 146 b9 04 4a
        E 50 b9 04 3a
        E 46 b9 04 29
        E 16 99 24 5d
        E 31 b9 04 18
        E 21 89 2c 40
        E 40 b9 04 06
        E 37 b9 04 00
        E 184 89 24 40
        E 242 99 26 7f
        E 19 b9 04 12
        E 28 b9 04 25
        E 9 b9 04 36
        E 9 b9 04 46
        E 19 b9 04 36
        E 9 b9 04 25
        E 10 89 26 40
        E 3 99 26 7f
        E 3 b9 04 15
        E 158 b9 04 09
        E 149 89 26 40
        E 65 b9 04 1a
        E 50 b9 04 2c
        E 34 b9 04 3c
        E 40 b9 04 4c
        E 3 99 2c 0a
        E 3 b9 04 4c
        E 180 b9 04 3c
        E 41 b9 04 2c
        E 43 b9 04 1a
        E 44 89 2c 40
        E 16 b9 04 09
        E 46 b9 04 00
        E 18 99 24 50
        E 314 89 24 40
        E 90 b9 04 12
        E 22 b9 04 22
        E 6 b9 04 34
        E 9 b9 04 44
        E 1 99 2d 7f
        E 5 99 30 7f
        E 13 b9 04 34
        E 9 b9 04 22
        E 16 b9 04 12
        E 217 b9 04 22
        E 53 89 2d 40
        E 6 89 30 40
        E 158 b9 04 12
        E 159 b9 04 00
        E 251 b9 04 12
        E 24 b9 04 22
        E 13 b9 04 32
        E 16 b9 04 43
        E 12 b9 04 4c
        E 0 99 2c 12
        E 13 b9 04 53
        E 139 b9 04 43
        E 78 b9 04 32
        E 43 b9 04 22
        E 40 89 2c 40
        E 32 b9 04 12
        E 59 99 24 56
        E 46 b9 04 00
        E 267 89 24 40
        E 103 99 26 7f
        E 3 b9 04 12
        E 25 b9 04 22
        E 12 b9 04 32
        E 13 b9 04 44
        E 6 b9 04 4d
        E 3 99 2c 20
        E 1 b9 04 54
        E 32 b9 04 44
        E 3 89 26 40
        E 3 99 26 75
        E 69 b9 04 34
        E 193 b9 04 3a
        E 9 89 2c 40
        E 40 89 26 40
        E 60 99 24 55
        E 28 b9 04 29
        E 90 b9 04 18
        E 194 89 24 40
        E 3 b9 04 0c
        E 95 b9 04 00
        E 176 99 26 7f
        E 43 b9 04 12
        E 100 b9 04 22
        E 41 b9 04 32
        E 18 89 26 40
        E 3 99 26 7f
        E 16 b9 04 22
        E 254 89 26 40
        E 3 99 26 6a
        E 97 b9 04 18
        E 161 89 26 40
        E 3 99 26 7f
        E 180 b9 04 09
        E 72 89 26 40
        E 2 99 26 7b
        E 199 b9 04 1a
        E 50 89 26 40
        E 3 99 26 57
        E 72 b9 04 2c
        E 124 89 26 40
        E 3 99 26 6b
        E 118 b9 04 1a
        E 74 b9 04 09
        E 44 b9 04 00
        E 9 89 26 40
        E 3 99 26 7f
        E 304 99 24 7f
        E 7 89 26 40
        E 12 99 31 7f
        E 6 b9 04 12
        E 19 b9 04 25
        E 12 b9 04 36
        E 12 b9 04 47
        E 3 b9 04 4c
        E 3 99 2c 22
        E 34 b9 04 36
        E 78 b9 04 25
        E 128 89 24 40
        E 18 89 31 40
        E 19 b9 04 1d
        E 34 89 2c 40
        E 46 b9 04 2e
        E 41 b9 04 3e
        E 49 b9 04 4f
        E 3 99 2c 08
        E 3 b9 04 4f
        E 224 b9 04 3f
        E 73 b9 04 2e
        E 10 89 2c 40
        E 38 99 24 65
        E 10 b9 04 1d
        E 96 b9 04 0c
        E 115 b9 04 00
        E 93 89 24 40
        E 264 99 26 7f
        E 53 99 33 7f
        E 25 b9 04 12
        E 55 b9 04 22
        E 21 b9 04 32
        E 53 b9 04 22
        E 106 89 26 40
        E 52 89 33 40
        E 7 b9 04 15
        E 192 99 33 3c
        E 26 b9 04 25
        E 77 b9 04 36
        E 84 b9 04 46
        E 127 89 33 40
        E 71 99 24 4d
        E 32 b9 04 36
        E 31 99 33 40
        E 46 b9 04 22
        E 115 b9 04 12
        E 90 89 24 40
        E 61 89 33 40
        E 79 b9 04 03
        E 42 b9 04 00
        E 73 99 33 5d
        E 3 99 26 7f
        E 102 b9 04 12
        E 40 b9 04 25
        E 19 b9 04 36
        E 40 b9 04 25
        E 57 b9 04 15
        E 52 89 33 40
        E 0 89 26 40
        E 149 b9 04 25
        E 3 99 33 1b
        E 314 89 33 40
        E 80 b9 04 15
        E 103 99 33 41
        E 142 b9 04 25
        E 25 b9 04 36
        E 31 b9 04 46
        E 34 b9 04 4c
        E 4 99 2c 0c
        E 77 89 33 40
        E 103 b9 04 36
        E 40 99 33 21
        E 9 99 24 38
        E 9 b9 04 25
        E 59 b9 04 15
        E 13 89 2c 40
        E 115 b9 04 03
        E 53 b9 04 00
        E 55 89 33 40
        E 9 89 24 40
        E 150 99 26 74
        E 18 99 33 59
        E 41 b9 04 12
        E 26 b9 04 25
        E 18 b9 04 36
        E 24 b9 04 25
        E 31 b9 04 15
        E 120 b9 04 25
        E 35 89 26 40
        E 18 89 33 40
        E 134 99 33 1d
        E 47 b9 04 15
        E 99 b9 04 03
        E 19 b9 04 00
        E 149 89 33 40
        E 137 99 24 4b
        E 18 99 33 49
        E 12 b9 04 12
        E 28 b9 04 22
        E 56 b9 04 12
        E 199 89 24 40
        E 18 89 33 40
        E 3 b9 04 22
        E 85 b9 04 32
        E 49 99 33 28
        E 47 b9 04 22
        E 96 b9 04 12
        E 84 b9 04 00
        E 87 89 33 40
        E 143 99 26 7d
        E 30 99 33 59
        E 35 b9 04 12
        E 27 b9 04 22
        E 221 89 26 40
        E 31 89 33 40
        E 161 99 33 2f
        E 26 b9 04 12
        E 109 b9 04 00
        E 179 89 33 40
        E 133 b9 04 12
        E 25 b9 04 25
        E 6 99 24 58
        E 13 b9 04 36
        E 7 99 33 56
        E 15 b9 04 46
        E 31 b9 04 36
        E 64 b9 04 25
        E 75 b9 04 15
        E 109 89 24 40
        E 18 89 33 40
        E 75 b9 04 25
        E 65 b9 04 36
        E 24 99 33 17
        E 115 b9 04 22
        E 69 b9 04 12
        E 63 b9 04 00
        E 67 89 33 40
        E 162 99 26 7a
        E 8 99 33 53
        E 57 b9 04 12
        E 24 b9 04 22
        E 17 b9 04 32
        E 18 b9 04 43
        E 5 b9 04 4c
        E 4 99 2c 16
        E 6 b9 04 53
        E 22 b9 04 43
        E 20 b9 04 32
        E 132 89 26 40
        E 6 89 33 40
        E 35 b9 04 2e
        E 93 89 2c 40
        E 31 b9 04 1d
        E 12 99 24 48
        E 32 99 33 24
        E 36 b9 04 0c
        E 56 b9 04 00
        E 190 89 24 40
        E 31 89 33 40
        E 34 b9 04 12
        E 25 b9 04 25
        E 16 b9 04 36
        E 102 99 33 3d
        E 6 b9 04 25
        E 183 b9 04 36
        E 124 89 33 40
        E 28 b9 04 25
        E 63 99 24 4c
        E 8 99 33 18
        E 3 b9 04 15
        E 78 b9 04 03
        E 22 b9 04 00
        E 201 89 24 40
        E 9 89 33 40
        E 132 b9 04 12
        E 3 99 26 7a
        E 18 b9 04 25
        E 15 b9 04 36
        E 14 b9 04 46
        E 3 b9 04 4c
        E 5 99 2c 1c
        E 22 99 33 5a
        E 1 b9 04 36
        E 21 b9 04 25
        E 77 b9 04 15
        E 137 89 26 40
        E 43 b9 04 25
        E 10 89 2c 40
        E 22 89 33 40
        E 136 b9 04 29
        E 21 99 33 2e
        E 50 b9 04 18
        E 57 b9 04 06
        E 34 b9 04 00
        E 173 89 33 40
        E 125 b9 04 12
        E 24 b9 04 25
        E 3 99 33 43
        E 10 b9 04 36
        E 15 b9 04 46
        E 9 b9 04 4c
        E 3 99 2c 16
        E 41 b9 04 36
        E 177 b9 04 2e
        E 59 89 33 40
        E 35 89 2c 40
        E 108 99 33 29
        E 2 b9 04 1d
        E 13 99 24 4d
        E 78 b9 04 0c
        E 53 b9 04 00
        E 167 89 33 40
        E 16 89 24 40
        E 108 99 26 61
        E 51 b9 04 12
        E 11 99 33 57
        E 18 b9 04 22
        E 17 b9 04 32
        E 34 b9 04 22
        E 31 b9 04 12
        E 149 89 26 40
        E 46 b9 04 22
        E 19 89 33 40
        E 108 99 33 28
        E 106 b9 04 12
        E 74 b9 04 00
        E 131 89 33 40
        E 190 99 33 4c
        E 15 99 24 54
        E 3 b9 04 12
        E 43 b9 04 25
        E 16 b9 04 36
        E 6 b9 04 47
        E 3 b9 04 4c
        E 3 99 2c 22
        E 25 b9 04 36
        E 12 b9 04 25
        E 161 b9 04 1a
        E 26 89 33 40
        E 15 89 24 40
        E 26 b9 04 2c
        E 49 89 2c 40
        E 53 99 33 34
        E 59 99 24 3a
        E 86 b9 04 1a
        E 63 b9 04 09
        E 34 b9 04 00
        E 71 89 33 40
        E 58 89 24 40
        E 149 99 33 54
        E 26 99 26 7f
        E 28 b9 04 12
        E 34 b9 04 25
        E 12 b9 04 36
        E 41 b9 04 25
        E 21 b9 04 15
        E 149 89 33 40
        E 28 89 26 40
        E 25 b9 04 25
        E 109 99 33 20
        E 34 b9 04 15
        E 93 b9 04 03
        E 15 b9 04 00
        E 171 89 33 40
        E 165 b9 04 12
        E 22 99 33 4c
        E 7 99 24 5a
        E 18 b9 04 25
        E 15 b9 04 36
        E 9 b9 04 46
        E 4 b9 04 4c
        E 3 99 2c 1c
        E 24 b9 04 36
        E 25 b9 04 25
        E 84 b9 04 15
        E 124 89 33 40
        E 7 89 24 40
        E 48 89 2c 40
        E 35 b9 04 25
        E 55 b9 04 36
        E 14 99 33 1f
        E 130 b9 04 25
        E 56 b9 04 15
        E 58 b9 04 03
        E 16 b9 04 00
        E 53 89 33 40
        E 186 99 26 7f
        E 3 99 33 4f
        E 66 b9 04 12
        E 24 b9 04 22
        E 13 b9 04 32
        E 16 b9 04 43
        E 2 b9 04 4d
        E 4 99 2c 1c
        E 3 b9 04 53
        E 24 b9 04 43
        E 16 b9 04 32
        E 142 89 26 40
        E 3 89 33 40
        E 41 b9 04 29
        E 84 89 2c 40
        E 37 b9 04 18
        E 19 99 24 53
        E 15 99 33 30
        E 59 b9 04 06
        E 44 b9 04 00
        E 196 89 24 40
        E 14 89 33 40
        E 63 b9 04 12
        E 23 b9 04 25
        E 14 b9 04 36
        E 16 b9 04 46
        E 27 b9 04 36
        E 26 99 33 42
        E 48 b9 04 25
        E 166 b9 04 20
        E 52 b9 04 30
        E 47 89 33 40
        E 96 99 24 44
        E 6 b9 04 20
        E 12 99 33 20
        E 79 b9 04 0f
        E 77 b9 04 00
        E 140 89 24 40
        E 18 89 33 40
        E 119 99 26 7f
        E 26 b9 04 12
        E 23 99 33 4c
        E 6 b9 04 25
        E 19 b9 04 36
        E 40 b9 04 25
        E 93 b9 04 15
        E 105 89 26 40
        E 35 b9 04 25
        E 15 89 33 40
        E 150 b9 04 29
        E 30 99 33 29
        E 38 b9 04 18
        E 64 b9 04 06
        E 32 b9 04 00
        E 177 89 33 40
        E 143 b9 04 12
        E 18 99 33 47
        E 3 b9 04 25
        E 16 b9 04 36
        E 12 b9 04 46
        E 3 b9 04 4c
        E 4 99 2c 1a
        E 29 b9 04 36
        E 43 b9 04 25
        E 170 b9 04 20
        E 33 89 33 40
        E 17 b9 04 30
        E 21 89 2c 40
        E 137 99 33 2b
        E 3 99 24 4d
        E 43 b9 04 20
        E 90 b9 04 0f
        E 81 b9 04 00
        E 96 89 33 40
        E 3 89 24 40
        E 121 99 26 7a
        E 40 99 33 4f
        E 25 b9 04 12
        E 25 b9 04 22
        E 13 b9 04 32
        E 41 b9 04 22
        E 160 b9 04 18
        E 9 89 26 40
        E 40 89 33 40
        E 26 b9 04 29
        E 152 99 33 26
        E 83 b9 04 18
        E 63 b9 04 06
        E 34 b9 04 00
        E 133 89 33 40
        E 131 99 24 56
        E 24 b9 04 12
        E 23 99 33 4b
        E 6 b9 04 25
        E 12 b9 04 36
        E 16 b9 04 46
        E 24 b9 04 36
        E 75 b9 04 25
        E 130 89 24 40
        E 50 89 33 40
        E 16 b9 04 36
        E 129 99 33 27
        E 60 99 24 45
        E 15 b9 04 25
        E 63 b9 04 15
        E 70 b9 04 03
        E 13 b9 04 00
        E 93 89 33 40
        E 59 89 24 40
        E 118 99 33 51
        E 25 99 26 7e
        E 3 b9 04 12
        E 25 b9 04 22
        E 13 b9 04 32
        E 24 b9 04 22
        E 26 b9 04 12
        E 198 b9 04 22
        E 3 89 33 40
        E 22 89 26 40
        E 30 b9 04 32
        E 119 b9 04 22
        E 6 99 33 24
        E 68 b9 04 12
        E 90 b9 04 00
        E 156 89 33 40
        E 163 99 33 4b
        E 2 b9 04 12
        E 4 99 24 59
        E 23 b9 04 25
        E 21 b9 04 36
        E 37 b9 04 25
        E 60 b9 04 15
        E 168 89 33 40
        E 0 89 24 40
        E 80 b9 04 25
        E 43 b9 04 36
        E 53 99 33 30
        E 121 b9 04 25
        E 52 b9 04 15
        E 63 b9 04 03
        E 25 b9 04 00
        E 54 89 33 40
        E 191 99 33 4d
        E 6 99 26 70
        E 62 b9 04 12
        E 28 b9 04 22
        E 12 b9 04 32
        E 9 b9 04 43
        E 31 b9 04 32
        E 14 b9 04 22
        E 149 89 33 40
        E 3 89 26 40
        E 158 99 24 4d
        E 34 99 33 37
        E 65 b9 04 12
        E 109 b9 04 00
        E 106 89 24 40
        E 34 89 33 40
        E 117 b9 04 12
        E 28 b9 04 25
        E 19 b9 04 36
        E 12 99 33 3f
        E 31 b9 04 25
        E 159 b9 04 1d
        E 74 b9 04 2e
        E 47 89 33 40
        E 102 99 24 46
        E 34 99 33 23
        E 3 b9 04 1d
        E 87 b9 04 0c
        E 63 b9 04 00
        E 126 89 24 40
        E 34 89 33 40
        E 150 99 26 78
        E 6 b9 04 12
        E 16 99 33 4f
        E 9 b9 04 25
        E 18 b9 04 36
        E 25 b9 04 22
        E 59 b9 04 12
        E 159 b9 04 22
        E 21 89 26 40
        E 22 b9 04 32
        E 3 89 33 40
        E 158 b9 04 22
        E 3 99 33 2a
        E 75 b9 04 12
        E 90 b9 04 00
        E 146 89 33 40
        E 146 b9 04 12
        E 25 b9 04 25
        E 2 99 33 44
        E 10 b9 04 36
        E 56 b9 04 25
        E 171 b9 04 1d
        E 68 b9 04 2e
        E 10 89 33 40
        E 155 99 33 21
        E 15 99 24 4b
        E 25 b9 04 1d
        E 99 b9 04 0c
        E 81 b9 04 00
        E 93 89 33 40
        E 16 89 24 40
        E 124 99 26 75
        E 35 b9 04 12
        E 9 99 33 51
        E 15 b9 04 22
        E 15 b9 04 32
        E 32 b9 04 20
        E 167 b9 04 12
        E 37 89 26 40
        E 44 89 33 40
        E 3 b9 04 22
        E 56 b9 04 32
        E 115 99 33 29
        E 30 b9 04 22
        E 75 b9 04 12
        E 87 b9 04 00
        E 118 89 33 40
        E 108 99 24 4b
        E 48 b9 04 12
        E 21 99 33 42
        E 3 b9 04 25
        E 199 b9 04 1a
        E 43 89 24 40
        E 34 b9 04 2c
        E 35 89 33 40
        E 130 99 24 43
        E 43 99 33 2c
        E 38 b9 04 1a
        E 96 b9 04 09
        E 59 b9 04 00
        E 77 89 24 40
        E 44 89 33 40
        E 133 b9 04 12
        E 16 99 26 70
        E 12 b9 04 25
        E 22 99 33 47
        E 106 b9 04 15
        E 151 b9 04 25
        E 22 89 26 40
        E 32 89 33 40
        E 157 99 33 1f
        E 4 b9 04 15
        E 169 b9 04 03
        E 101 b9 04 00
        E 43 89 33 40
        E 87 99 24 47
        E 28 b9 04 12
        E 19 99 33 38
        E 15 b9 04 22
        E 100 b9 04 12
        E 152 89 24 40
        E 46 89 33 40
        E 16 b9 04 0c
        E 776 b9 04 03
        E 59 b9 04 00
        E 3267 b0 7b 00
        GUID {7D61AB64-D6CE-4E4C-83CD-8B97EE21E62A}
        IGNTEMPO 0 120 4 4
        SRCCOLOR 525
        VELLANE -1 100 0
      >
    >
    <ITEM
      POSITION 564.74226757369615
      SNAPOFFS 0
      LENGTH 113.48546485260772
      LOOP 1
      ALLTAKES 0
      FADEIN 1 0 0 1 0 0
      FADEOUT 1 0 0 1 0 0
      MUTE 0
      SEL 0
      IGUID {4918A037-1D8A-4B50-98AB-D5116D3BFDA7}
      IID 23
      NAME "02-EZdrummer-Recorded MIDI"
      VOLPAN 1 0 1 -1
      SOFFS 0 0
      PLAYRATE 1 1 0 -1 0 0.0025
      CHANMODE 0
      GUID {7B260B92-FEA3-43E2-859C-C3423174AB20}
      RECPASS 8
      <SOURCE MIDI
        HASDATA 1 960 QN
        POOLEDEVTS {659A2A7F-F382-4E9B-B572-FB22773B8F07}
        E 347 99 24 0b
        E 314 89 24 40
        E 989 99 24 0c
        E 314 89 24 40
        E 3657 b9 04 0c
        E 294 b9 04 18
        E 556 b9 04 1d
        E 652 b9 04 15
        E 320 b9 04 0c
        E 456 b9 04 06
        E 4584 b9 04 0c
        E 780 b9 04 15
        E 214 b9 04 1d
        E 239 b9 04 27
        E 218 b9 04 30
        E 244 b9 04 36
        E 317 b9 04 3a
        E 475 b9 04 41
        E 931 b9 04 47
        E 199 b9 04 4c
        E 2 99 2c 04
        E 165 b9 04 4d
        E 146 89 2c 40
        E 538 b9 04 46
        E 282 b9 04 41
        E 427 b9 04 36
        E 336 b9 04 30
        E 211 b9 04 29
        E 1224 b9 04 25
        E 232 b9 04 20
        E 369 b9 04 25
        E 429 b9 04 20
        E 1434 b9 04 25
        E 1130 b9 04 29
        E 618 b9 04 30
        E 730 b9 04 34
        E 545 b9 04 2e
        E 255 b9 04 20
        E 1247 b9 04 1a
        E 106 99 26 7c
        E 162 89 26 40
        E 3 99 26 7f
        E 93 b9 04 15
        E 188 89 26 40
        E 4 99 26 78
        E 310 89 26 40
        E 215 99 30 5e
        E 199 89 30 40
        E 2 99 30 7f
        E 218 89 30 40
        E 2 99 30 71
        E 314 89 30 40
        E 221 99 2d 7f
        E 258 89 2d 40
        E 2 99 2d 7f
        E 173 89 2d 40
        E 5 99 2d 7d
        E 310 89 2d 40
        E 624 99 24 7f
        E 31 99 33 7f
        E 282 89 24 40
        E 28 89 33 40
        E 463 b9 04 03
        E 28 b9 04 00
        E 146 99 26 7f
        E 21 99 33 7f
        E 118 b9 04 12
        E 137 b9 04 22
        E 34 89 26 40
        E 28 89 33 40
        E 124 b9 04 12
        E 71 b9 04 00
        E 13 99 24 6f
        E 313 89 24 40
        E 55 b9 04 12
        E 29 b9 04 22
        E 26 99 33 6d
        E 6 b9 04 32
        E 15 b9 04 44
        E 6 b9 04 4d
        E 3 99 2c 20
        E 3 b9 04 54
        E 40 b9 04 44
        E 50 b9 04 34
        E 190 89 33 40
        E 27 89 2c 40
        E 57 b9 04 22
        E 52 b9 04 12
        E 61 99 24 6d
        E 23 b9 04 00
        E 288 89 24 40
        E 158 99 26 7f
        E 26 99 33 7f
        E 25 b9 04 12
        E 15 b9 04 22
        E 53 b9 04 32
        E 9 b9 04 43
        E 6 b9 04 4c
        E 3 99 2c 22
        E 19 b9 04 32
        E 9 b9 04 20
        E 29 b9 04 0f
        E 77 b9 04 20
        E 41 89 26 40
        E 27 89 33 40
        E 109 89 2c 40
        E 5 b9 04 0f
        E 57 b9 04 00
        E 342 b9 04 12
        E 27 b9 04 22
        E 13 b9 04 32
        E 9 b9 04 43
        E 9 b9 04 4c
        E 3 99 2c 22
        E 22 b9 04 32
        E 12 99 33 4c
        E 7 b9 04 20
        E 124 b9 04 30
        E 146 89 2c 40
        E 34 89 33 40
        E 28 b9 04 20
        E 61 b9 04 0f
        E 48 b9 04 00
        E 6 99 24 5f
        E 313 89 24 40
        E 121 b9 04 12
        E 19 99 33 76
        E 28 99 26 67
        E 9 b9 04 22
        E 12 b9 04 34
        E 37 b9 04 20
        E 20 b9 04 0f
        E 207 89 33 40
        E 3 b9 04 20
        E 25 89 26 40
        E 149 99 26 79
        E 65 b9 04 0f
        E 56 b9 04 00
        E 189 89 26 40
        E 144 99 24 5a
        E 8 b9 04 12
        E 29 99 33 60
        E 3 b9 04 22
        E 15 b9 04 32
        E 31 b9 04 20
        E 164 b9 04 18
        E 47 b9 04 29
        E 16 89 24 40
        E 37 89 33 40
        E 115 b9 04 2e
        E 50 b9 04 1d
        E 9 99 24 46
        E 53 b9 04 0c
        E 30 b9 04 00
        E 228 89 24 40
        E 139 99 26 68
        E 13 b9 04 12
        E 3 99 33 57
        E 9 b9 04 22
        E 21 b9 04 32
        E 19 b9 04 43
        E 34 b9 04 32
        E 13 b9 04 20
        E 202 89 26 40
        E 12 89 33 40
        E 127 b9 04 0f
        E 56 b9 04 00
        E 398 b9 04 12
        E 9 b9 04 25
        E 6 99 24 74
        E 3 b9 04 36
        E 9 b9 04 46
        E 19 99 33 4c
        E 9 b9 04 4c
        E 3 99 2c 20
        E 22 b9 04 36
        E 22 b9 04 25
        E 93 b9 04 15
        E 133 89 24 40
        E 10 b9 04 25
        E 21 89 33 40
        E 10 89 2c 40
        E 9 b9 04 36
        E 162 99 24 3e
        E 64 b9 04 25
        E 35 b9 04 15
        E 43 b9 04 03
        E 6 b9 04 00
        E 162 89 24 40
        E 140 99 26 6d
        E 15 99 33 51
        E 10 b9 04 12
        E 12 b9 04 25
        E 13 b9 04 36
        E 18 b9 04 46
        E 6 b9 04 4c
        E 3 99 2c 16
        E 3 b9 04 56
        E 28 b9 04 46
        E 7 b9 04 36
        E 195 89 26 40
        E 19 89 33 40
        E 61 89 2c 40
        E 41 b9 04 25
        E 44 99 24 58
        E 6 b9 04 15
        E 56 b9 04 03
        E 9 b9 04 00
        E 242 89 24 40
        E 87 b9 04 12
        E 16 b9 04 25
        E 34 b9 04 36
        E 12 b9 04 46
        E 6 b9 04 4c
        E 3 99 2c 22
        E 31 b9 04 36
        E 10 99 33 3e
        E 59 b9 04 25
        E 195 b9 04 36
        E 16 89 2c 40
        E 41 89 33 40
        E 110 b9 04 25
        E 19 99 24 64
        E 28 b9 04 15
        E 47 b9 04 03
        E 9 b9 04 00
        E 227 89 24 40
        E 183 b9 04 12
        E 9 b9 04 22
        E 10 b9 04 32
        E 15 99 26 78
        E 12 99 33 65
        E 16 b9 04 44
        E 3 b9 04 4c
        E 3 99 2c 22
        E 3 b9 04 54
        E 22 b9 04 44
        E 10 b9 04 32
        E 12 b9 04 22
        E 174 b9 04 1a
        E 59 89 26 40
        E 9 89 33 40
        E 24 89 2c 40
        E 187 b9 04 09
        E 31 b9 04 00
        E 329 b9 04 12
        E 18 b9 04 25
        E 32 b9 04 36
        E 12 b9 04 46
        E 22 99 33 5c
        E 6 b9 04 36
        E 62 b9 04 25
        E 209 b9 04 36
        E 34 89 33 40
        E 148 b9 04 25
        E 12 99 24 6b
        E 35 b9 04 15
        E 54 b9 04 03
        E 14 b9 04 00
        E 208 89 24 40
        E 146 99 33 57
        E 37 99 26 7f
        E 3 b9 04 12
        E 19 b9 04 22
        E 35 b9 04 32
        E 40 b9 04 20
        E 31 b9 04 0f
        E 148 89 33 40
        E 38 89 26 40
        E 9 b9 04 20
        E 49 b9 04 30
        E 82 99 26 7e
        E 74 b9 04 20
        E 59 b9 04 0f
        E 41 b9 04 00
        E 142 89 26 40
        E 162 99 24 61
        E 21 99 33 49
        E 3 b9 04 12
        E 16 b9 04 22
        E 15 b9 04 32
        E 19 b9 04 43
        E 28 b9 04 32
        E 19 b9 04 22
        E 145 b9 04 32
        E 47 89 24 40
        E 25 89 33 40
        E 136 b9 04 22
        E 31 99 24 45
        E 12 b9 04 12
        E 50 b9 04 00
        E 249 89 24 40
        E 99 99 26 7a
        E 28 99 33 4d
        E 3 b9 04 12
        E 13 b9 04 25
        E 12 b9 04 36
        E 35 b9 04 46
        E 24 b9 04 36
        E 15 b9 04 25
        E 183 89 26 40
        E 28 89 33 40
        E 100 99 26 7f
        E 31 b9 04 15
        E 59 b9 04 03
        E 8 b9 04 00
        E 213 89 26 40
        E 108 b9 04 12
        E 16 99 24 5d
        E 2 b9 04 22
        E 25 b9 04 32
        E 28 99 33 55
        E 4 b9 04 22
        E 27 b9 04 12
        E 227 89 24 40
        E 9 b9 04 25
        E 37 b9 04 36
        E 10 89 33 40
        E 164 99 24 49
        E 29 b9 04 25
        E 34 b9 04 15
        E 37 b9 04 03
        E 9 b9 04 00
        E 202 89 24 40
        E 121 b9 04 12
        E 6 b9 04 22
        E 6 b9 04 32
        E 9 b9 04 43
        E 22 99 26 63
        E 3 b9 04 4c
        E 3 99 2c 20
        E 10 b9 04 53
        E 6 99 33 5d
        E 22 b9 04 43
        E 59 b9 04 32
        E 177 b9 04 2c
        E 34 89 26 40
        E 3 89 2c 40
        E 18 89 33 40
        E 103 b9 04 1a
        E 25 99 24 53
        E 34 b9 04 09
        E 31 b9 04 00
        E 245 89 24 40
        E 84 b9 04 12
        E 13 b9 04 22
        E 12 b9 04 32
        E 31 b9 04 43
        E 6 b9 04 4c
        E 3 99 2c 18
        E 4 b9 04 53
        E 27 b9 04 43
        E 12 99 33 65
        E 6 b9 04 32
        E 69 b9 04 22
        E 193 89 2c 40
        E 21 b9 04 32
        E 22 89 33 40
        E 134 99 24 67
        E 42 b9 04 22
        E 44 b9 04 12
        E 44 b9 04 00
        E 183 89 24 40
        E 202 99 26 7f
        E 9 b9 04 12
        E 6 b9 04 27
        E 6 99 33 65
        E 4 b9 04 38
        E 12 b9 04 49
        E 21 b9 04 4c
        E 4 99 2c 24
        E 22 b9 04 38
        E 17 b9 04 27
        E 66 b9 04 15
        E 122 b9 04 25
        E 21 89 26 40
        E 25 89 33 40
        E 37 89 2c 40
        E 162 b9 04 15
        E 59 b9 04 03
        E 6 b9 04 00
        E 347 b9 04 12
        E 10 b9 04 25
        E 9 b9 04 36
        E 16 b9 04 46
        E 6 99 33 51
        E 9 b9 04 4c
        E 3 99 2c 18
        E 13 b9 04 56
        E 18 b9 04 46
        E 16 b9 04 36
        E 74 b9 04 25
        E 93 b9 04 15
        E 84 89 33 40
        E 13 b9 04 25
        E 3 89 2c 40
        E 34 b9 04 36
        E 152 99 24 5d
        E 78 b9 04 25
        E 40 b9 04 15
        E 43 b9 04 03
        E 13 b9 04 00
        E 139 89 24 40
        E 140 99 26 76
        E 18 99 33 4e
        E 50 b9 04 12
        E 19 b9 04 25
        E 28 b9 04 36
        E 9 b9 04 47
        E 7 b9 04 4d
        E 3 99 2c 20
        E 21 b9 04 36
        E 13 b9 04 25
        E 146 89 26 40
        E 18 89 33 40
        E 38 b9 04 36
        E 74 89 2c 40
        E 62 b9 04 25
        E 47 b9 04 15
        E 42 b9 04 03
        E 14 b9 04 00
        E 334 99 24 67
        E 4 b9 04 12
        E 6 b9 04 22
        E 3 b9 04 34
        E 10 b9 04 44
        E 9 b9 04 4c
        E 2 99 2c 26
        E 23 99 33 48
        E 40 b9 04 34
        E 108 b9 04 22
        E 109 89 24 40
        E 25 b9 04 32
        E 5 89 2c 40
        E 23 89 33 40
        E 155 b9 04 22
        E 19 99 24 55
        E 34 b9 04 12
        E 44 b9 04 00
        E 232 89 24 40
        E 121 b9 04 12
        E 3 99 26 7f
        E 7 b9 04 22
        E 6 b9 04 34
        E 6 99 33 5e
        E 3 b9 04 44
        E 13 b9 04 4c
        E 3 99 2c 24
        E 28 b9 04 34
        E 12 b9 04 22
        E 49 b9 04 12
        E 187 89 26 40
        E 18 b9 04 22
        E 3 89 33 40
        E 16 89 2c 40
        E 25 b9 04 32
        E 152 b9 04 22
        E 56 b9 04 12
        E 47 b9 04 00
        E 340 b9 04 12
        E 10 b9 04 22
        E 4 99 24 64
        E 2 b9 04 32
        E 10 b9 04 43
        E 18 99 33 50
        E 22 b9 04 32
        E 16 b9 04 20
        E 201 b9 04 1a
        E 40 b9 04 2c
        E 3 89 24 40
        E 32 b9 04 3c
        E 3 89 33 40
        E 149 99 24 3d
        E 43 b9 04 2c
        E 35 b9 04 1a
        E 37 b9 04 09
        E 21 b9 04 00
        E 174 89 24 40
        E 133 b9 04 12
        E 3 99 26 7b
        E 6 b9 04 22
        E 7 b9 04 32
        E 3 b9 04 43
        E 10 b9 04 4c
        E 6 99 2c 26
        E 6 99 33 52
        E 7 b9 04 53
        E 40 b9 04 43
        E 65 b9 04 32
        E 59 b9 04 22
        E 105 89 26 40
        E 32 89 2c 40
        E 3 89 33 40
        E 46 b9 04 32
        E 115 99 24 52
        E 65 b9 04 22
        E 50 b9 04 12
        E 50 b9 04 00
        E 146 89 24 40
        E 161 b9 04 12
        E 9 b9 04 25
        E 9 b9 04 38
        E 14 b9 04 49
        E 2 b9 04 4c
        E 3 99 2c 20
        E 9 99 33 40
        E 37 b9 04 38
        E 72 b9 04 27
        E 167 b9 04 20
        E 28 89 2c 40
        E 10 89 33 40
        E 3 b9 04 30
        E 43 b9 04 41
        E 128 99 24 68
        E 49 b9 04 30
        E 38 b9 04 20
        E 46 b9 04 0f
        E 34 b9 04 00
        E 143 89 24 40
        E 171 99 26 7f
        E 28 99 33 54
        E 56 b9 04 12
        E 9 b9 04 25
        E 6 b9 04 36
        E 10 b9 04 46
        E 21 b9 04 4c
        E 3 99 2c 28
        E 25 b9 04 36
        E 19 b9 04 22
        E 68 b9 04 12
        E 68 89 26 40
        E 22 b9 04 22
        E 7 89 33 40
        E 102 89 2c 40
        E 115 b9 04 12
        E 55 b9 04 00
        E 334 b9 04 12
        E 11 b9 04 25
        E 9 b9 04 36
        E 10 b9 04 46
        E 18 b9 04 4c
        E 3 99 2c 1c
        E 21 99 33 47
        E 23 b9 04 36
        E 118 b9 04 25
        E 149 89 2c 40
        E 18 b9 04 36
        E 6 89 33 40
        E 85 b9 04 46
        E 86 99 24 5f
        E 7 b9 04 36
        E 51 b9 04 22
        E 41 b9 04 12
        E 44 b9 04 00
        E 171 89 24 40
        E 155 99 33 47
        E 15 99 26 7f
        E 22 b9 04 12
        E 16 b9 04 25
        E 25 b9 04 36
        E 12 b9 04 46
        E 25 b9 04 36
        E 9 b9 04 22
        E 40 b9 04 12
        E 146 89 33 40
        E 3 b9 04 22
        E 13 89 26 40
        E 44 b9 04 32
        E 71 99 26 77
        E 108 b9 04 22
        E 50 b9 04 12
        E 53 b9 04 00
        E 99 89 26 40
        E 171 99 24 6b
        E 31 b9 04 12
        E 15 b9 04 25
        E 10 99 33 3f
        E 3 b9 04 36
        E 40 b9 04 25
        E 158 b9 04 20
        E 54 b9 04 30
        E 2 89 24 40
        E 52 89 33 40
        E 141 99 24 41
        E 6 b9 04 20
        E 50 b9 04 0f
        E 44 b9 04 00
        E 210 89 24 40
        E 99 99 26 6d
        E 29 b9 04 12
        E 6 99 33 53
        E 3 b9 04 22
        E 3 b9 04 32
        E 9 b9 04 43
        E 13 b9 04 4c
        E 2 99 2c 26
        E 41 b9 04 32
        E 208 89 26 40
        E 34 89 33 40
        E 31 89 2c 40
        E 16 b9 04 22
        E 30 99 26 7d
        E 44 b9 04 12
        E 65 b9 04 00
        E 202 89 26 40
        E 91 99 24 5c
        E 6 b9 04 12
        E 21 b9 04 22
        E 15 b9 04 32
        E 35 b9 04 22
        E 24 99 33 44
        E 10 b9 04 12
        E 205 89 24 40
        E 65 b9 04 22
        E 31 b9 04 32
        E 3 89 33 40
        E 31 b9 04 43
        E 41 b9 04 4c
        E 2 99 2c 08
        E 128 99 24 53
        E 49 b9 04 32
        E 32 b9 04 22
        E 34 b9 04 12
        E 46 b9 04 00
        E 22 89 2c 40
        E 127 89 24 40
        E 134 99 26 75
        E 30 b9 04 12
        E 4 99 33 54
        E 6 b9 04 25
        E 9 b9 04 36
        E 12 b9 04 46
        E 13 b9 04 4c
        E 3 99 2c 1a
        E 9 b9 04 56
        E 25 b9 04 46
        E 13 b9 04 36
        E 72 b9 04 25
        E 116 89 26 40
        E 35 89 33 40
        E 41 89 2c 40
        E 118 99 24 4e
        E 3 b9 04 29
        E 58 b9 04 18
        E 44 b9 04 06
        E 24 b9 04 00
        E 182 89 24 40
        E 129 b9 04 12
        E 15 b9 04 25
        E 19 b9 04 36
        E 19 b9 04 46
        E 7 b9 04 4c
        E 0 99 2c 14
        E 6 99 33 46
        E 22 b9 04 36
        E 62 b9 04 25
        E 214 b9 04 36
        E 10 89 2c 40
        E 2 89 33 40
        E 158 99 24 5b
        E 34 b9 04 22
        E 47 b9 04 12
        E 37 b9 04 00
        E 193 89 24 40
        E 165 99 26 7f
        E 36 b9 04 12
        E 7 b9 04 22
        E 3 b9 04 32
        E 2 99 33 5a
        E 3 b9 04 44
        E 3 b9 04 4d
        E 3 99 2c 3a
        E 3 b9 04 54
        E 42 b9 04 43
        E 11 b9 04 32
        E 20 b9 04 22
        E 177 89 26 40
        E 6 b9 04 32
        E 49 89 33 40
        E 3 89 2c 40
        E 113 b9 04 22
        E 58 b9 04 12
        E 56 b9 04 00
        E 341 b9 04 12
        E 10 b9 04 22
        E 6 b9 04 34
        E 9 b9 04 44
        E 31 b9 04 4c
        E 4 99 2c 26
        E 2 99 33 48
        E 4 b9 04 54
        E 31 b9 04 44
        E 46 b9 04 34
        E 53 b9 04 22
        E 174 89 2c 40
        E 6 89 33 40
        E 25 b9 04 32
        E 124 99 24 58
        E 78 b9 04 22
        E 50 b9 04 12
        E 49 b9 04 00
        E 134 89 24 40
        E 148 99 26 7f
        E 28 99 33 68
        E 19 b9 04 12
        E 12 b9 04 22
        E 13 b9 04 32
        E 9 b9 04 43
        E 10 b9 04 4c
        E 3 99 2c 20
        E 22 b9 04 32
        E 12 b9 04 22
        E 139 b9 04 32
        E 44 89 26 40
        E 31 89 33 40
        E 62 89 2c 40
        E 68 b9 04 22
        E 63 b9 04 12
        E 55 b9 04 00
        E 363 99 24 70
        E 4 b9 04 12
        E 6 b9 04 22
        E 6 b9 04 32
        E 6 b9 04 43
        E 9 b9 04 4c
        E 4 99 2c 26
        E 12 99 33 51
        E 19 b9 04 32
        E 12 b9 04 22
        E 99 b9 04 12
        E 82 b9 04 22
        E 37 b9 04 32
        E 19 89 24 40
        E 30 89 2c 40
        E 3 b9 04 43
        E 12 89 33 40
        E 137 b9 04 32
        E 35 b9 04 22
        E 8 99 24 4e
        E 29 b9 04 12
        E 44 b9 04 00
        E 238 89 24 40
        E 131 99 26 7f
        E 3 b9 04 12
        E 6 b9 04 25
        E 3 99 33 51
        E 3 b9 04 36
        E 12 b9 04 46
        E 28 b9 04 4c
        E 3 99 2c 22
        E 28 b9 04 36
        E 16 b9 04 22
        E 62 b9 04 12
        E 149 89 26 40
        E 12 89 33 40
        E 16 b9 04 22
        E 28 89 2c 40
        E 31 b9 04 32
        E 59 99 26 77
        E 93 b9 04 22
        E 47 b9 04 12
        E 43 b9 04 00
        E 127 89 26 40
        E 162 99 24 5a
        E 22 b9 04 12
        E 18 b9 04 22
        E 15 99 33 47
        E 29 b9 04 12
        E 226 89 24 40
        E 22 b9 04 22
        E 25 b9 04 32
        E 8 89 33 40
        E 29 b9 04 43
        E 146 99 24 48
        E 46 b9 04 32
        E 28 b9 04 22
        E 34 b9 04 12
        E 41 b9 04 00
        E 165 89 24 40
        E 136 b9 04 12
        E 6 99 26 78
        E 3 b9 04 25
        E 12 b9 04 36
        E 10 b9 04 46
        E 6 b9 04 4c
        E 3 99 2c 1c
        E 6 b9 04 56
        E 13 99 33 53
        E 9 b9 04 44
        E 12 b9 04 34
        E 196 b9 04 2c
        E 40 89 26 40
        E 35 89 2c 40
        E 18 b9 04 3c
        E 3 89 33 40
        E 142 99 24 4f
        E 13 b9 04 2c
        E 47 b9 04 1a
        E 44 b9 04 09
        E 21 b9 04 00
        E 186 89 24 40
        E 133 b9 04 12
        E 13 b9 04 25
        E 12 b9 04 36
        E 16 b9 04 46
        E 19 99 33 51
        E 9 b9 04 36
        E 16 b9 04 25
        E 99 b9 04 15
        E 146 b9 04 25
        E 41 89 33 40
        E 2 b9 04 36
        E 155 99 24 61
        E 50 b9 04 22
        E 40 b9 04 12
        E 41 b9 04 00
        E 180 89 24 40
        E 148 99 26 7f
        E 38 99 33 6a
        E 22 b9 04 12
        E 6 b9 04 22
        E 7 b9 04 32
        E 6 b9 04 44
        E 3 b9 04 4c
        E 6 99 2c 32
        E 3 b9 04 54
        E 28 b9 04 43
        E 10 b9 04 32
        E 15 b9 04 20
        E 173 89 26 40
        E 35 89 33 40
        E 46 89 2c 40
        E 78 b9 04 27
        E 62 b9 04 15
        E 47 b9 04 03
        E 12 b9 04 00
        E 338 b9 04 12
        E 9 b9 04 25
        E 10 b9 04 36
        E 7 b9 04 46
        E 5 b9 04 4c
        E 4 99 2c 26
        E 6 99 33 4f
        E 28 b9 04 36
        E 21 b9 04 25
        E 208 b9 04 36
        E 47 89 2c 40
        E 6 89 33 40
        E 158 99 24 5c
        E 19 b9 04 25
        E 43 b9 04 15
        E 43 b9 04 03
        E 13 b9 04 00
        E 193 89 24 40
        E 149 b9 04 12
        E 9 99 26 7f
        E 3 b9 04 22
        E 7 99 33 4c
        E 9 b9 04 32
        E 27 b9 04 44
        E 7 b9 04 4c
        E 2 b9 04 55
        E 0 99 2c 22
        E 26 b9 04 44
        E 11 b9 04 34
        E 41 b9 04 22
        E 56 b9 04 12
        E 125 89 26 40
        E 8 89 33 40
        E 44 89 2c 40
        E 13 b9 04 22
        E 31 b9 04 32
        E 196 b9 04 22
        E 33 b9 04 12
        E 41 b9 04 00
        E 249 99 24 4b
        E 24 99 33 5e
        E 24 b9 04 12
        E 13 b9 04 25
        E 9 b9 04 36
        E 38 b9 04 25
        E 15 b9 04 15
        E 125 b9 04 25
        E 49 b9 04 36
        E 12 89 24 40
        E 25 89 33 40
        E 16 b9 04 46
        E 136 b9 04 36
        E 10 99 24 49
        E 28 b9 04 25
        E 31 b9 04 15
        E 34 b9 04 03
        E 9 b9 04 00
        E 208 89 24 40
        E 155 99 26 7f
        E 22 99 33 51
        E 3 b9 04 12
        E 7 b9 04 25
        E 6 b9 04 36
        E 5 b9 04 47
        E 7 b9 04 4c
        E 0 99 2c 2c
        E 47 b9 04 36
        E 14 b9 04 25
        E 35 b9 04 15
        E 168 89 26 40
        E 22 89 33 40
        E 28 89 2c 40
        E 11 b9 04 25
        E 205 b9 04 15
        E 44 b9 04 03
        E 7 b9 04 00
        E 359 b9 04 12
        E 6 b9 04 22
        E 4 99 24 69
        E 3 b9 04 34
        E 6 b9 04 44
        E 3 b9 04 4c
        E 3 99 2c 2e
        E 16 99 33 4c
        E 16 b9 04 34
        E 18 b9 04 22
        E 161 b9 04 1a
        E 71 b9 04 2c
        E 13 89 24 40
        E 19 89 2c 40
        E 6 b9 04 3c
        E 9 89 33 40
        E 140 99 24 3c
        E 74 b9 04 2c
        E 38 b9 04 1a
        E 34 b9 04 09
        E 24 b9 04 00
        E 143 89 24 40
        E 165 99 26 7f
        E 3 b9 04 12
        E 9 b9 04 25
        E 10 99 33 56
        E 3 b9 04 36
        E 16 b9 04 46
        E 9 b9 04 4c
        E 3 99 2c 14
        E 9 b9 04 56
        E 22 b9 04 44
        E 16 b9 04 34
        E 73 b9 04 22
        E 140 89 26 40
        E 22 89 33 40
        E 31 89 2c 40
        E 25 b9 04 32
        E 99 99 24 49
        E 94 b9 04 22
        E 46 b9 04 12
        E 46 b9 04 00
        E 127 89 24 40
        E 172 b9 04 12
        E 15 b9 04 22
        E 16 99 33 46
        E 2 b9 04 32
        E 22 b9 04 43
        E 6 b9 04 4c
        E 4 99 2c 1c
        E 3 b9 04 53
        E 18 b9 04 43
        E 13 b9 04 32
        E 99 b9 04 22
        E 134 b9 04 32
        E 12 89 33 40
        E 31 89 2c 40
        E 103 99 24 53
        E 71 b9 04 22
        E 40 b9 04 12
        E 47 b9 04 00
        E 155 89 24 40
        E 192 99 26 7f
        E 19 b9 04 12
        E 3 99 33 51
        E 10 b9 04 25
        E 9 b9 04 36
        E 12 b9 04 46
        E 22 b9 04 36
        E 9 b9 04 25
        E 19 b9 04 15
        E 174 b9 04 25
        E 37 89 26 40
        E 18 89 33 40
        E 112 b9 04 29
        E 68 b9 04 18
        E 40 b9 04 06
        E 26 b9 04 00
        E 341 b9 04 12
        E 7 b9 04 22
        E 5 b9 04 32
        E 13 b9 04 43
        E 19 b9 04 4c
        E 3 99 2c 1e
        E 6 b9 04 53
        E 12 99 33 45
        E 23 b9 04 43
        E 43 b9 04 32
        E 40 b9 04 22
        E 158 b9 04 32
        E 28 89 2c 40
        E 22 89 33 40
        E 3 b9 04 43
        E 146 99 24 53
        E 37 b9 04 32
        E 28 b9 04 22
        E 40 b9 04 12
        E 50 b9 04 00
        E 155 89 24 40
        E 131 99 26 6d
        E 29 99 33 47
        E 14 b9 04 12
        E 10 b9 04 25
        E 6 b9 04 36
        E 12 b9 04 46
        E 16 b9 04 4c
        E 3 99 2c 22
        E 9 b9 04 56
        E 28 b9 04 46
        E 9 b9 04 36
        E 53 b9 04 25
        E 124 89 26 40
        E 28 89 33 40
        E 37 b9 04 36
        E 23 89 2c 40
        E 27 b9 04 46
        E 56 99 24 4c
        E 81 b9 04 36
        E 40 b9 04 25
        E 28 b9 04 15
        E 34 b9 04 03
        E 9 b9 04 00
        E 119 89 24 40
        E 197 99 33 3d
        E 16 99 24 48
        E 7 b9 04 12
        E 9 b9 04 25
        E 6 b9 04 36
        E 6 b9 04 46
        E 3 b9 04 4d
        E 4 99 2c 2e
        E 28 b9 04 56
        E 37 b9 04 44
        E 49 b9 04 34
        E 146 89 33 40
        E 19 89 24 40
        E 31 89 2c 40
        E 25 b9 04 44
        E 79 99 24 39
        E 61 b9 04 34
        E 31 b9 04 22
        E 30 b9 04 12
        E 44 b9 04 00
        E 146 89 24 40
        E 179 99 26 7f
        E 3 99 33 4c
        E 27 b9 04 12
        E 9 b9 04 25
        E 5 b9 04 36
        E 3 b9 04 46
        E 7 b9 04 4d
        E 3 99 2c 2c
        E 56 b9 04 36
        E 34 b9 04 25
        E 52 b9 04 15
        E 112 89 26 40
        E 4 89 33 40
        E 49 b9 04 25
        E 3 89 2c 40
        E 81 99 26 6e
        E 130 b9 04 15
        E 41 b9 04 03
        E 12 b9 04 00
        E 131 89 26 40
        E 148 99 24 4d
        E 13 b9 04 12
        E 9 b9 04 22
        E 13 b9 04 32
        E 12 b9 04 43
        E 9 99 33 4e
        E 31 b9 04 32
        E 118 b9 04 22
        E 109 89 24 40
        E 53 89 33 40
        E 7 b9 04 32
        E 89 b9 04 43
        E 68 99 24 47
        E 25 b9 04 32
        E 34 b9 04 22
        E 37 b9 04 12
        E 41 b9 04 00
        E 179 89 24 40
        E 131 b9 04 12
        E 6 99 26 73
        E 7 b9 04 25
        E 5 b9 04 36
        E 13 b9 04 46
        E 13 b9 04 4c
        E 3 99 2c 1e
        E 15 99 33 5b
        E 4 b9 04 56
        E 33 b9 04 46
        E 62 b9 04 36
        E 118 b9 04 25
        E 38 89 26 40
        E 40 89 2c 40
        E 16 89 33 40
        E 108 b9 04 2e
        E 22 99 24 4c
        E 44 b9 04 1d
        E 49 b9 04 0c
        E 34 b9 04 00
        E 187 89 24 40
        E 143 b9 04 12
        E 9 b9 04 25
        E 6 b9 04 36
        E 12 b9 04 46
        E 6 b9 04 4c
        E 3 99 2c 24
        E 35 99 33 58
        E 4 b9 04 36
        E 58 b9 04 25
        E 162 b9 04 1a
        E 52 89 2c 40
        E 10 b9 04 2c
        E 27 89 33 40
        E 47 b9 04 3c
        E 77 99 24 56
        E 35 b9 04 2c
        E 46 b9 04 1a
        E 38 b9 04 09
        E 27 b9 04 00
        E 165 89 24 40
        E 180 99 26 74
        E 40 99 33 5c
        E 4 b9 04 12
        E 8 b9 04 25
        E 7 b9 04 36
        E 6 b9 04 46
        E 3 b9 04 4c
        E 3 99 2c 2c
        E 16 b9 04 56
        E 12 b9 04 46
        E 9 b9 04 36
        E 10 b9 04 25
        E 37 b9 04 15
        E 158 89 26 40
        E 10 b9 04 25
        E 28 89 33 40
        E 31 89 2c 40
        E 161 b9 04 15
        E 41 b9 04 03
        E 15 b9 04 00
        E 335 b9 04 12
        E 9 b9 04 25
        E 7 b9 04 36
        E 9 b9 04 46
        E 10 b9 04 4c
        E 3 99 2c 26
        E 6 99 33 58
        E 16 b9 04 56
        E 30 b9 04 46
        E 56 b9 04 36
        E 202 89 2c 40
        E 5 89 33 40
        E 129 99 24 55
        E 43 b9 04 25
        E 46 b9 04 15
        E 50 b9 04 03
        E 15 b9 04 00
        E 159 89 24 40
        E 167 99 26 65
        E 10 99 33 54
        E 18 b9 04 12
        E 25 b9 04 22
        E 18 b9 04 32
        E 14 b9 04 43
        E 24 b9 04 32
        E 12 b9 04 22
        E 41 b9 04 12
        E 152 89 26 40
        E 10 89 33 40
        E 6 b9 04 22
        E 49 b9 04 32
        E 56 99 26 75
        E 93 b9 04 22
        E 40 b9 04 12
        E 50 b9 04 00
        E 130 89 26 40
        E 144 99 24 56
        E 39 99 33 42
        E 7 b9 04 12
        E 11 b9 04 25
        E 11 b9 04 36
        E 15 b9 04 46
        E 25 b9 04 36
        E 25 b9 04 25
        E 177 89 24 40
        E 40 b9 04 36
        E 6 89 33 40
        E 168 b9 04 25
        E 25 99 24 4b
        E 11 b9 04 15
        E 45 b9 04 03
        E 9 b9 04 00
        E 248 89 24 40
        E 100 99 26 57
        E 9 b9 04 12
        E 12 b9 04 22
        E 0 99 33 59
        E 12 b9 04 32
        E 22 b9 04 43
        E 34 b9 04 32
        E 13 b9 04 22
        E 61 b9 04 12
        E 150 89 26 40
        E 15 b9 04 22
        E 7 89 33 40
        E 53 b9 04 32
        E 43 99 26 7f
        E 93 b9 04 22
        E 50 b9 04 12
        E 46 b9 04 00
        E 121 89 26 40
        E 155 99 24 5a
        E 50 99 33 57
        E 3 b9 04 12
        E 13 b9 04 25
        E 12 b9 04 36
        E 27 b9 04 46
        E 11 b9 04 4c
        E 3 99 2c 0e
        E 22 b9 04 36
        E 25 b9 04 25
        E 148 89 24 40
        E 47 89 33 40
        E 24 b9 04 36
        E 50 89 2c 40
        E 130 99 24 4f
        E 7 b9 04 25
        E 47 b9 04 15
        E 49 b9 04 03
        E 10 b9 04 00
        E 197 89 24 40
        E 144 99 26 66
        E 12 b9 04 12
        E 10 b9 04 25
        E 6 b9 04 36
        E 9 99 33 5e
        E 22 b9 04 46
        E 10 b9 04 4c
        E 3 99 2c 1a
        E 24 b9 04 36
        E 19 b9 04 25
        E 198 89 26 40
        E 33 89 33 40
        E 13 b9 04 36
        E 26 89 2c 40
        E 71 99 24 46
        E 19 b9 04 25
        E 46 b9 04 15
        E 47 b9 04 03
        E 12 b9 04 00
        E 186 89 24 40
        E 177 b9 04 12
        E 10 b9 04 22
        E 6 b9 04 32
        E 8 b9 04 44
        E 38 99 33 4a
        E 3 b9 04 4d
        E 7 99 2c 24
        E 3 b9 04 55
        E 3 b9 04 65
        E 19 b9 04 54
        E 6 b9 04 44
        E 21 b9 04 34
        E 68 b9 04 22
        E 183 89 33 40
        E 4 89 2c 40
        E 97 99 24 5c
        E 27 b9 04 29
        E 62 b9 04 18
        E 50 b9 04 06
        E 16 b9 04 00
        E 158 89 24 40
        E 217 99 26 7f
        E 15 b9 04 12
        E 7 b9 04 25
        E 9 b9 04 36
        E 9 b9 04 46
        E 4 b9 04 4c
        E 2 99 2c 22
        E 10 99 33 66
        E 22 b9 04 36
        E 5 b9 04 25
        E 22 b9 04 15
        E 191 b9 04 25
        E 17 89 26 40
        E 46 89 2c 40
        E 7 89 33 40
        E 149 b9 04 15
        E 50 b9 04 03
        E 12 b9 04 00
        E 360 b9 04 12
        E 6 b9 04 27
        E 6 b9 04 38
        E 10 b9 04 49
        E 3 b9 04 4c
        E 0 99 2c 2e
        E 9 99 33 5a
        E 28 b9 04 5a
        E 28 b9 04 4a
        E 47 b9 04 3a
        E 68 b9 04 29
        E 130 89 2c 40
        E 16 89 33 40
        E 38 b9 04 3a
        E 114 99 24 58
        E 65 b9 04 29
        E 50 b9 04 18
        E 43 b9 04 06
        E 26 b9 04 00
        E 130 89 24 40
        E 170 99 26 7b
        E 7 99 33 5f
        E 31 b9 04 12
        E 18 b9 04 25
        E 28 b9 04 36
        E 13 b9 04 46
        E 21 b9 04 36
        E 13 b9 04 25
        E 31 b9 04 15
        E 102 b9 04 25
        E 47 89 26 40
        E 6 89 33 40
        E 118 99 26 6f
        E 4 b9 04 2c
        E 55 b9 04 1a
        E 49 b9 04 09
        E 29 b9 04 00
        E 173 89 26 40
        E 152 99 24 5e
        E 10 b9 04 12
        E 9 b9 04 25
        E 12 b9 04 36
        E 13 99 33 51
        E 13 b9 04 46
        E 9 b9 04 4c
        E 3 99 2c 10
        E 31 b9 04 36
        E 71 b9 04 25
        E 143 89 24 40
        E 43 89 33 40
        E 3 b9 04 36
        E 22 89 2c 40
        E 165 99 24 4b
        E 9 b9 04 25
        E 31 b9 04 15
        E 40 b9 04 03
        E 6 b9 04 00
        E 227 89 24 40
        E 152 99 26 63
        E 10 b9 04 12
        E 9 b9 04 22
        E 3 99 33 6a
        E 6 b9 04 32
        E 9 b9 04 43
        E 32 b9 04 4c
        E 3 99 2c 1c
        E 2 b9 04 53
        E 26 b9 04 41
        E 9 b9 04 30
        E 12 b9 04 20
        E 183 b9 04 1a
        E 6 89 26 40
        E 26 89 33 40
        E 21 b9 04 2c
        E 25 89 2c 40
        E 47 99 26 74
        E 31 b9 04 3c
        E 96 b9 04 2c
        E 43 b9 04 1a
        E 44 b9 04 09
        E 31 b9 04 00
        E 65 89 26 40
        E 180 99 24 5c
        E 22 99 33 63
        E 24 b9 04 12
        E 23 b9 04 22
        E 11 b9 04 32
        E 16 b9 04 43
        E 25 b9 04 32
        E 22 b9 04 22
        E 167 89 24 40
        E 28 89 33 40
        E 35 b9 04 32
        E 68 b9 04 43
        E 93 99 24 41
        E 43 b9 04 32
        E 35 b9 04 22
        E 37 b9 04 12
        E 50 b9 04 00
        E 146 89 24 40
        E 146 b9 04 12
        E 12 99 26 7e
        E 3 b9 04 25
        E 15 b9 04 36
        E 13 b9 04 46
        E 3 b9 04 4c
        E 3 99 2c 1e
        E 6 99 33 6b
        E 3 b9 04 56
        E 19 b9 04 46
        E 10 b9 04 36
        E 160 b9 04 27
        E 81 89 26 40
        E 31 b9 04 38
        E 3 89 2c 40
        E 7 89 33 40
        E 124 99 24 50
        E 43 b9 04 27
        E 50 b9 04 15
        E 46 b9 04 03
        E 13 b9 04 00
        E 158 89 24 40
        E 158 b9 04 12
        E 10 b9 04 25
        E 12 b9 04 36
        E 12 b9 04 46
        E 10 b9 04 4c
        E 3 99 2c 16
        E 3 99 33 63
        E 29 b9 04 36
        E 55 b9 04 25
        E 161 b9 04 20
        E 46 b9 04 30
        E 17 89 2c 40
        E 6 89 33 40
        E 127 99 24 5c
        E 21 b9 04 36
        E 54 b9 04 25
        E 37 b9 04 15
        E 40 b9 04 03
        E 12 b9 04 00
        E 149 89 24 40
        E 202 99 26 75
        E 28 99 33 61
        E 10 b9 04 12
        E 6 b9 04 22
        E 2 b9 04 34
        E 10 b9 04 46
        E 6 b9 04 4c
        E 3 99 2c 2a
        E 25 b9 04 56
        E 28 b9 04 44
        E 9 b9 04 34
        E 47 b9 04 22
        E 140 89 26 40
        E 28 89 33 40
        E 34 89 2c 40
        E 186 b9 04 12
        E 52 b9 04 00
        E 345 b9 04 12
        E 10 b9 04 22
        E 3 99 33 5a
        E 6 b9 04 32
        E 16 b9 04 43
        E 22 b9 04 4c
        E 2 99 2c 14
        E 3 b9 04 53
        E 38 b9 04 43
        E 52 b9 04 32
        E 72 b9 04 22
        E 101 89 33 40
        E 48 89 2c 40
        E 37 b9 04 32
        E 59 99 24 54
        E 71 b9 04 22
        E 47 b9 04 12
        E 53 b9 04 00
        E 139 89 24 40
        E 109 99 28 3e
        E 96 b9 04 12
        E 13 b9 04 25
        E 3 99 26 7f
        E 6 b9 04 36
        E 31 b9 04 46
        E 3 b9 04 4c
        E 3 99 2c 16
        E 3 b9 04 57
        E 29 b9 04 47
        E 14 b9 04 36
        E 68 b9 04 25
        E 45 89 28 40
        E 108 89 26 40
        E 44 89 2c 40
        E 80 99 24 4c
        E 38 b9 04 2e
        E 40 b9 04 1d
        E 46 b9 04 0c
        E 38 b9 04 00
        E 149 89 24 40
        E 93 99 2d 7f
        E 22 99 30 7f
        E 80 b9 04 12
        E 19 b9 04 22
        E 21 b9 04 32
        E 13 b9 04 43
        E 3 b9 04 4d
        E 4 99 2c 26
        E 3 b9 04 53
        E 18 b9 04 43
        E 9 b9 04 32
        E 16 b9 04 20
        E 92 b9 04 30
        E 12 89 2d 40
        E 20 89 30 40
        E 12 b9 04 41
        E 131 89 2c 40
        E 3 b9 04 30
        E 40 99 24 55
        E 4 b9 04 20
        E 40 b9 04 0f
        E 37 b9 04 00
        E 233 89 24 40
        E 136 99 2d 7f
        E 6 99 29 7f
        E 31 b9 04 12
        E 13 b9 04 25
        E 40 b9 04 36
        E 16 b9 04 46
        E 9 b9 04 4c
        E 3 99 2c 18
        E 15 b9 04 36
        E 14 b9 04 25
        E 21 b9 04 15
        E 102 b9 04 25
        E 40 89 2d 40
        E 10 89 29 40
        E 34 b9 04 36
        E 75 89 2c 40
        E 65 b9 04 25
        E 43 b9 04 15
        E 44 b9 04 03
        E 12 b9 04 00
        E 435 b9 04 12
        E 3 99 24 7f
        E 3 99 31 7f
        E 3 99 33 7f
        E 3 b9 04 25
        E 0 b9 04 38
        E 6 b9 04 49
        E 4 b9 04 4d
        E 2 99 2c 32
        E 44 b9 04 5b
        E 22 b9 04 4a
        E 6 b9 04 38
        E 11 b9 04 27
        E 33 b9 04 15
        E 80 b9 04 03
        E 94 89 24 40
        E 3 89 31 40
        E 3 89 33 40
        E 15 89 2c 40
        E 214 b9 04 0f
        E 267 b9 04 03
        E 93 b9 04 03
        E 3 99 2e 7f
        E 83 b9 04 00
        E 228 89 2e 40
        E 227 99 26 7f
        E 310 89 26 40
        E 161 b9 04 00
        E 3 99 2e 7f
        E 314 89 2e 40
        E 624 99 24 7f
        E 74 b9 04 00
        E 4 99 2e 7f
        E 232 89 24 40
        E 83 89 2e 40
        E 600 b9 04 00
        E 3 99 2e 7f
        E 311 89 2e 40
        E 192 99 26 7f
        E 313 89 26 40
        E 149 b9 04 00
        E 3 99 2e 7f
        E 311 89 2e 40
        E 143 99 24 65
        E 316 89 24 40
        E 121 99 26 7f
        E 40 b9 04 00
        E 3 99 2e 7f
        E 274 89 26 40
        E 37 89 2e 40
        E 168 99 24 5c
        E 314 89 24 40
        E 129 99 26 6d
        E 20 b9 04 00
        E 3 99 2e 7f
        E 288 89 26 40
        E 25 89 2e 40
        E 74 99 26 6e
        E 314 89 26 40
        E 140 99 24 6d
        E 43 b9 04 00
        E 3 99 2e 7f
        E 264 89 24 40
        E 47 89 2e 40
        E 621 99 24 7f
        E 3 b9 04 00
        E 2 99 2e 7f
        E 308 89 24 40
        E 3 89 2e 40
        E 186 99 26 7f
        E 310 89 26 40
        E 168 b9 04 00
        E 3 99 2e 7f
        E 311 89 2e 40
        E 198 99 24 70
        E 310 89 24 40
        E 113 99 26 7f
        E 74 b9 04 00
        E 3 99 2e 7f
        E 233 89 26 40
        E 78 89 2e 40
        E 639 b9 04 00
        E 3 99 2e 7f
        E 310 89 2e 40
        E 165 99 24 5f
        E 314 89 24 40
        E 127 99 26 7f
        E 55 b9 04 00
        E 3 99 2e 7f
        E 252 89 26 40
        E 60 89 2e 40
        E 86 99 24 67
        E 313 89 24 40
        E 218 99 26 48
        E 83 89 26 40
        E 3 99 26 61
        E 314 89 26 40
        E 78 99 24 54
        E 313 89 24 40
        E 112 99 26 61
        E 121 89 26 40
        E 3 99 26 7f
        E 311 89 26 40
        E 126 99 26 7c
        E 317 89 26 40
        E 177 99 24 7f
        E 19 99 33 7f
        E 291 89 24 40
        E 20 89 33 40
        E 623 99 33 5e
        E 310 89 33 40
        E 150 99 26 7f
        E 313 89 26 40
        E 170 99 33 4f
        E 311 89 33 40
        E 649 99 24 7f
        E 58 99 33 55
        E 253 89 24 40
        E 59 89 33 40
        E 592 99 33 3f
        E 312 89 33 40
        E 210 99 28 73
        E 313 89 28 40
        E 159 99 33 3a
        E 313 89 33 40
        E 634 99 24 7f
        E 26 99 33 4a
        E 284 89 24 40
        E 27 89 33 40
        E 558 99 26 7f
        E 59 99 33 52
        E 256 89 26 40
        E 56 89 33 40
        E 652 99 24 7f
        E 3 99 31 7f
        E 34 99 33 58
        E 276 89 24 40
        E 2 89 31 40
        E 36 89 33 40
        E 589 99 33 3e
        E 19 99 24 7f
        E 292 89 33 40
        E 19 89 24 40
        E 158 99 28 78
        E 313 89 28 40
        E 152 99 33 3a
        E 313 89 33 40
        E 696 99 24 7f
        E 313 89 24 40
        E 627 99 33 3b
        E 310 89 33 40
        E 183 99 26 7f
        E 311 89 26 40
        E 164 99 33 4a
        E 311 89 33 40
        E 193 99 24 6a
        E 312 89 24 40
        E 113 99 30 7f
        E 28 99 2d 7f
        E 282 89 30 40
        E 28 89 2d 40
        E 161 99 24 72
        E 314 89 24 40
        E 137 99 29 7f
        E 27 99 2d 7f
        E 286 89 29 40
        E 25 89 2d 40
        E 127 99 2d 7f
        E 313 89 2d 40
        E 171 99 24 7f
        E 38 99 33 68
        E 273 89 24 40
        E 40 89 33 40
        E 510 99 24 7f
        E 108 99 33 4c
        E 201 89 24 40
        E 113 89 33 40
        E 105 99 26 7e
        E 313 89 26 40
        E 190 99 33 41
        E 313 89 33 40
        E 233 99 24 7f
        E 314 89 24 40
        E 136 99 26 7f
        E 33 99 33 63
        E 279 89 26 40
        E 36 89 33 40
        E 642 99 33 3d
        E 311 89 33 40
        E 217 99 28 6c
        E 313 89 28 40
        E 124 99 33 4f
        E 314 89 33 40
        E 186 99 24 63
        E 314 89 24 40
        E 53 99 26 7f
        E 167 99 28 77
        E 147 89 26 40
        E 167 89 28 40
        E 93 99 24 65
        E 312 89 24 40
        E 82 99 2d 7f
        E 53 99 30 7a
        E 261 89 2d 40
        E 51 89 30 40
        E 128 99 30 7f
        E 314 89 30 40
        E 143 99 24 7e
        E 59 99 33 7f
        E 255 89 24 40
        E 56 89 33 40
        E 545 99 24 70
        E 63 99 33 58
        E 251 89 24 40
        E 62 89 33 40
        E 87 99 26 7f
        E 314 89 26 40
        E 223 99 33 5b
        E 313 89 33 40
        E 699 99 26 7f
        E 9 b9 04 00
        E 3 99 1a 7f
        E 40 99 24 7f
        E 261 89 26 40
        E 9 89 1a 40
        E 40 89 24 40
        E 588 99 33 69
        E 313 89 33 40
        E 224 99 28 5d
        E 313 89 28 40
        E 102 99 33 7f
        E 314 89 33 40
        E 174 99 24 5f
        E 310 89 24 40
        E 71 99 26 7f
        E 153 99 28 7e
        E 161 89 26 40
        E 152 89 28 40
        E 111 99 24 66
        E 311 89 24 40
        E 78 99 2d 7f
        E 81 99 30 74
        E 233 89 2d 40
        E 79 89 30 40
        E 225 99 26 5b
        E 313 89 26 40
        E 174 99 24 7f
        E 6 99 33 7f
        E 306 89 24 40
        E 6 89 33 40
        E 551 99 24 6d
        E 47 99 33 7f
        E 266 89 24 40
        E 44 89 33 40
        E 128 99 26 7f
        E 310 89 26 40
        E 158 99 33 4e
        E 314 89 33 40
        E 720 99 24 7f
        E 52 99 31 7f
        E 258 89 24 40
        E 56 89 31 40
        E 618 99 33 4a
        E 312 89 33 40
        E 157 99 26 7f
        E 313 89 26 40
        E 142 99 33 51
        E 314 89 33 40
        E 189 99 24 6b
        E 311 89 24 40
        E 77 99 26 7f
        E 147 89 26 40
        E 3 99 26 7f
        E 313 89 26 40
        E 93 99 24 6b
        E 313 89 24 40
        E 65 99 2d 7f
        E 56 99 30 63
        E 258 89 2d 40
        E 56 89 30 40
        E 171 99 26 7f
        E 313 89 26 40
        E 215 99 24 7f
        E 21 99 33 7f
        E 292 89 24 40
        E 19 89 33 40
        E 611 99 24 78
        E 31 99 33 7f
        E 280 89 24 40
        E 33 89 33 40
        E 122 99 26 7f
        E 313 89 26 40
        E 177 99 33 7f
        E 314 89 33 40
        E 707 99 24 7f
        E 35 99 31 7f
        E 279 89 24 40
        E 34 89 31 40
        E 537 99 33 3d
        E 314 89 33 40
        E 208 99 26 7f
        E 313 89 26 40
        E 133 99 33 67
        E 314 89 33 40
        E 177 99 24 73
        E 313 89 24 40
        E 103 99 26 7f
        E 127 89 26 40
        E 7 99 26 66
        E 307 89 26 40
        E 77 99 24 5f
        E 314 89 24 40
        E 106 99 2d 7f
        E 2 99 30 79
        E 311 89 2d 40
        E 3 89 30 40
        E 183 99 26 6e
        E 313 89 26 40
        E 202 99 24 7d
        E 31 99 33 7f
        E 283 89 24 40
        E 30 89 33 40
        E 600 99 24 7f
        E 62 99 33 63
        E 248 89 24 40
        E 66 89 33 40
        E 167 99 28 6f
        E 313 89 28 40
        E 168 99 33 51
        E 314 89 33 40
        E 192 99 24 75
        E 313 89 24 40
        E 113 99 26 7f
        E 46 99 33 7f
        E 267 89 26 40
        E 46 89 33 40
        E 601 99 33 48
        E 315 89 33 40
        E 221 99 26 7f
        E 313 89 26 40
        E 156 99 33 56
        E 127 b9 04 12
        E 58 b9 04 22
        E 128 89 33 40
        E 15 b9 04 12
        E 90 b9 04 00
        E 66 99 24 72
        E 313 89 24 40
        E 93 b9 04 12
        E 15 b9 04 22
        E 19 99 26 4d
        E 28 b9 04 32
        E 3 99 33 6b
        E 13 b9 04 43
        E 9 b9 04 4c
        E 3 99 2c 1c
        E 3 b9 04 53
        E 112 b9 04 43
        E 43 b9 04 32
        E 26 b9 04 22
        E 36 b9 04 12
        E 35 89 26 40
        E 24 b9 04 00
        E 10 89 33 40
        E 24 89 2c 40
        E 81 99 24 60
        E 313 89 24 40
        E 181 b9 04 12
        E 15 99 28 2d
        E 6 b9 04 22
        E 26 99 33 77
        E 21 b9 04 12
        E 260 89 28 40
        E 32 89 33 40
        E 78 b9 04 00
        E 2 99 26 68
        E 311 89 26 40
        E 121 b9 04 12
        E 53 b9 04 22
        E 6 99 24 6d
        E 55 99 33 75
        E 10 b9 04 12
        E 233 b9 04 22
        E 15 89 24 40
        E 47 b9 04 32
        E 9 89 33 40
        E 130 b9 04 22
        E 22 99 24 45
        E 63 b9 04 12
        E 96 b9 04 00
        E 154 89 24 40
        E 100 99 26 63
        E 50 b9 04 12
        E 21 b9 04 25
        E 19 b9 04 36
        E 10 99 33 7f
        E 9 b9 04 46
        E 9 b9 04 4c
        E 3 99 2c 10
        E 28 b9 04 56
        E 91 b9 04 46
        E 55 b9 04 36
        E 19 89 26 40
        E 24 b9 04 25
        E 53 b9 04 15
        E 21 89 33 40
        E 24 89 2c 40
        E 39 b9 04 03
        E 21 b9 04 00
        E 48 99 24 59
        E 313 89 24 40
        E 102 b9 04 12
        E 13 b9 04 22
        E 12 b9 04 32
        E 34 b9 04 43
        E 10 b9 04 4c
        E 3 99 2c 1a
        E 3 b9 04 54
        E 8 b9 04 64
        E 26 b9 04 53
        E 12 b9 04 43
        E 31 99 33 42
        E 34 b9 04 32
        E 196 89 2c 40
        E 12 b9 04 22
        E 69 89 33 40
        E 12 b9 04 12
        E 81 b9 04 00
        E 6 99 24 6c
        E 313 89 24 40
        E 156 99 28 6c
        E 16 b9 04 12
        E 43 99 33 51
        E 6 b9 04 22
        E 8 b9 04 32
        E 14 b9 04 43
        E 18 b9 04 32
        E 10 b9 04 20
        E 31 b9 04 0f
        E 168 89 28 40
        E 58 89 33 40
        E 72 b9 04 00
        E 413 b9 04 12
        E 15 b9 04 25
        E 31 b9 04 36
        E 19 b9 04 46
        E 3 b9 04 4c
        E 3 99 2c 20
        E 6 b9 04 56
        E 18 b9 04 46
        E 13 b9 04 36
        E 22 99 33 46
        E 19 b9 04 25
        E 236 89 2c 40
        E 52 b9 04 29
        E 9 89 33 40
        E 65 b9 04 18
        E 60 b9 04 06
        E 6 99 24 5d
        E 22 b9 04 00
        E 291 89 24 40
        E 150 b9 04 12
        E 46 99 33 5c
        E 6 b9 04 22
        E 16 b9 04 32
        E 3 99 28 34
        E 31 b9 04 22
        E 15 b9 04 12
        E 238 b9 04 22
        E 4 89 33 40
        E 26 89 28 40
        E 129 99 26 46
        E 10 b9 04 12
        E 71 b9 04 00
        E 233 89 26 40
        E 115 b9 04 12
        E 16 b9 04 22
        E 6 99 24 60
        E 9 b9 04 32
        E 44 b9 04 22
        E 9 99 33 5d
        E 18 b9 04 12
        E 183 b9 04 22
        E 34 b9 04 32
        E 16 89 24 40
        E 41 b9 04 43
        E 22 89 33 40
        E 102 b9 04 32
        E 37 b9 04 22
        E 43 b9 04 12
        E 7 99 24 4a
        E 37 b9 04 00
        E 276 89 24 40
        E 121 b9 04 12
        E 16 b9 04 22
        E 3 99 28 38
        E 25 99 33 74
        E 9 b9 04 32
        E 44 b9 04 22
        E 17 b9 04 12
        E 218 89 28 40
        E 22 89 33 40
        E 34 b9 04 1d
        E 56 99 26 7f
        E 38 b9 04 0c
        E 37 b9 04 00
        E 236 89 26 40
        E 120 b9 04 12
        E 19 b9 04 22
        E 7 99 24 63
        E 22 b9 04 32
        E 43 99 33 7f
        E 3 b9 04 20
        E 161 b9 04 15
        E 65 b9 04 25
        E 19 89 24 40
        E 36 b9 04 36
        E 29 89 33 40
        E 136 b9 04 25
        E 35 99 24 4d
        E 13 b9 04 15
        E 45 b9 04 03
        E 13 b9 04 00
        E 242 89 24 40
        E 103 b9 04 12
        E 12 b9 04 22
        E 6 b9 04 32
        E 26 99 26 5a
        E 5 b9 04 43
        E 13 b9 04 4c
        E 2 99 2c 12
        E 32 99 33 7f
        E 4 b9 04 32
        E 49 b9 04 22
        E 168 b9 04 18
        E 40 89 26 40
        E 17 89 2c 40
        E 30 b9 04 29
        E 4 89 33 40
        E 147 99 24 51
        E 15 b9 04 18
        E 60 b9 04 06
        E 25 b9 04 00
        E 214 89 24 40
        E 112 b9 04 12
        E 22 b9 04 22
        E 19 b9 04 32
        E 42 99 33 53
        E 4 b9 04 22
        E 65 b9 04 12
        E 229 b9 04 22
        E 15 89 33 40
        E 13 b9 04 32
        E 165 99 24 6b
        E 31 b9 04 22
        E 50 b9 04 12
        E 52 b9 04 00
        E 180 89 24 40
        E 205 99 28 6f
        E 23 99 33 7f
        E 21 b9 04 12
        E 9 b9 04 22
        E 6 b9 04 32
        E 12 b9 04 43
        E 38 b9 04 4c
        E 3 99 2c 1a
        E 21 b9 04 32
        E 10 b9 04 20
        E 171 89 28 40
        E 18 89 33 40
        E 90 89 2c 40
        E 88 b9 04 0f
        E 49 b9 04 00
        E 382 b9 04 12
        E 11 b9 04 22
        E 13 b9 04 32
        E 13 99 33 7f
        E 9 b9 04 43
        E 23 b9 04 32
        E 12 b9 04 22
        E 66 b9 04 12
        E 135 b9 04 22
        E 47 b9 04 32
        E 21 89 33 40
        E 146 b9 04 22
        E 16 99 24 55
        E 40 b9 04 12
        E 56 b9 04 00
        E 217 89 24 40
        E 131 b9 04 12
        E 12 99 26 5a
        E 3 b9 04 22
        E 15 b9 04 32
        E 17 b9 04 43
        E 6 99 33 7f
        E 20 b9 04 32
        E 10 b9 04 20
        E 199 b9 04 30
        E 44 89 26 40
        E 12 b9 04 41
        E 25 89 33 40
        E 116 b9 04 30
        E 4 99 24 52
        E 32 b9 04 20
        E 40 b9 04 0f
        E 31 b9 04 00
        E 208 89 24 40
        E 178 b9 04 12
        E 12 b9 04 25
        E 9 99 24 45
        E 10 b9 04 36
        E 14 99 33 6a
        E 16 b9 04 46
        E 16 b9 04 36
        E 15 b9 04 22
        E 28 b9 04 12
        E 199 b9 04 22
        E 12 89 24 40
        E 26 b9 04 32
        E 3 89 33 40
        E 55 b9 04 43
        E 78 99 24 3d
        E 49 b9 04 32
        E 41 b9 04 20
        E 40 b9 04 0f
        E 38 b9 04 00
        E 142 89 24 40
        E 183 99 26 7f
        E 32 99 33 7f
        E 15 b9 04 12
        E 12 b9 04 25
        E 10 b9 04 36
        E 62 b9 04 25
        E 24 b9 04 15
        E 159 89 26 40
        E 28 89 33 40
        E 74 b9 04 1d
        E 25 99 26 7b
        E 72 b9 04 0c
        E 31 b9 04 00
        E 211 89 26 40
        E 136 99 24 5a
        E 4 b9 04 12
        E 17 b9 04 22
        E 26 b9 04 32
        E 22 b9 04 22
        E 2 99 33 7f
        E 19 b9 04 12
        E 205 b9 04 22
        E 16 89 24 40
        E 15 b9 04 32
        E 56 89 33 40
        E 127 99 24 43
        E 19 b9 04 20
        E 43 b9 04 0f
        E 37 b9 04 00
        E 214 89 24 40
        E 116 b9 04 12
        E 9 b9 04 22
        E 6 b9 04 32
        E 12 b9 04 43
        E 13 99 26 6e
        E 15 b9 04 4c
        E 4 99 2c 1a
        E 37 99 33 7f
        E 3 b9 04 32
        E 61 b9 04 22
        E 165 b9 04 1a
        E 28 89 26 40
        E 16 89 2c 40
        E 40 b9 04 2c
        E 4 89 33 40
        E 96 99 24 54
        E 67 b9 04 1a
        E 47 b9 04 09
        E 32 b9 04 00
        E 167 89 24 40
        E 156 b9 04 12
        E 17 b9 04 22
        E 13 b9 04 32
        E 31 b9 04 22
        E 3 99 33 56
        E 19 b9 04 12
        E 180 b9 04 22
        E 37 b9 04 32
        E 79 89 33 40
        E 111 99 24 60
        E 6 b9 04 22
        E 53 b9 04 12
        E 53 b9 04 00
        E 201 89 24 40
        E 196 99 28 68
        E 10 b9 04 12
        E 11 b9 04 25
        E 10 b9 04 36
        E 13 99 33 7f
        E 2 b9 04 46
        E 19 b9 04 36
        E 12 b9 04 25
        E 13 b9 04 15
        E 220 89 28 40
        E 13 b9 04 25
        E 33 89 33 40
        E 94 b9 04 15
        E 59 b9 04 03
        E 8 b9 04 00
        E 359 b9 04 12
        E 12 b9 04 22
        E 11 b9 04 32
        E 48 b9 04 22
        E 19 99 33 7f
        E 139 b9 04 1a
        E 72 b9 04 2c
        E 101 89 33 40
        E 125 99 24 58
        E 12 b9 04 1a
        E 50 b9 04 09
        E 21 b9 04 00
        E 227 89 24 40
        E 155 b9 04 12
        E 9 b9 04 22
        E 10 b9 04 32
        E 9 99 26 66
        E 7 99 33 7f
        E 12 b9 04 43
        E 8 b9 04 4c
        E 8 99 2c 12
        E 18 b9 04 32
        E 12 b9 04 20
        E 221 b9 04 30
        E 28 89 26 40
        E 5 89 33 40
        E 29 89 2c 40
        E 61 b9 04 20
        E 48 99 24 62
        E 40 b9 04 0f
        E 53 b9 04 00
        E 217 89 24 40
        E 173 99 33 7f
        E 4 b9 04 12
        E 9 b9 04 22
        E 3 99 26 7d
        E 6 b9 04 32
        E 10 b9 04 43
        E 12 b9 04 4c
        E 4 99 2c 16
        E 21 b9 04 32
        E 12 b9 04 20
        E 165 b9 04 30
        E 66 89 33 40
        E 18 89 26 40
        E 28 89 2c 40
        E 102 b9 04 20
        E 46 99 24 45
        E 10 b9 04 0f
        E 44 b9 04 00
        E 260 89 24 40
        E 174 b9 04 12
        E 3 99 28 33
        E 7 b9 04 22
        E 3 99 33 7a
        E 6 b9 04 32
        E 65 b9 04 20
        E 36 b9 04 0f
        E 125 b9 04 20
        E 72 89 28 40
        E 6 89 33 40
        E 115 99 26 72
        E 49 b9 04 0f
        E 56 b9 04 00
        E 205 89 26 40
        E 152 b9 04 12
        E 16 b9 04 25
        E 3 99 24 5f
        E 28 b9 04 36
        E 28 99 33 7f
        E 21 b9 04 25
        E 77 b9 04 15
        E 138 b9 04 25
        E 21 89 24 40
        E 31 b9 04 36
        E 28 89 33 40
        E 96 99 24 3a
        E 57 b9 04 25
        E 46 b9 04 15
        E 49 b9 04 03
        E 13 b9 04 00
        E 148 89 24 40
        E 157 99 28 59
        E 61 b9 04 12
        E 13 b9 04 25
        E 3 99 33 7b
        E 6 b9 04 36
        E 25 b9 04 46
        E 6 b9 04 4c
        E 4 99 2c 14
        E 20 b9 04 36
        E 16 b9 04 25
        E 159 89 28 40
        E 78 89 33 40
        E 36 89 2c 40
        E 63 b9 04 15
        E 15 99 24 5a
        E 40 b9 04 03
        E 13 b9 04 00
        E 261 89 24 40
        E 124 b9 04 12
        E 12 b9 04 25
        E 34 b9 04 36
        E 16 b9 04 46
        E 7 b9 04 4c
        E 2 99 2c 1a
        E 9 99 33 7a
        E 9 b9 04 36
        E 16 b9 04 25
        E 277 89 2c 40
        E 12 89 33 40
        E 3 b9 04 29
        E 65 b9 04 18
        E 34 99 24 57
        E 25 b9 04 06
        E 22 b9 04 00
        E 265 89 24 40
        E 207 b9 04 12
        E 5 99 28 73
        E 6 b9 04 25
        E 35 b9 04 36
        E 13 99 33 7f
        E 28 b9 04 22
        E 16 b9 04 12
        E 176 b9 04 22
        E 40 89 28 40
        E 53 89 33 40
        E 87 b9 04 12
        E 62 b9 04 00
        E 388 b9 04 12
        E 9 b9 04 25
        E 19 b9 04 36
        E 28 b9 04 46
        E 7 b9 04 4c
        E 2 99 2c 16
        E 22 99 33 7f
        E 3 b9 04 36
        E 12 b9 04 25
        E 224 b9 04 36
        E 50 89 2c 40
        E 25 89 33 40
        E 74 b9 04 25
        E 28 99 24 5d
        E 28 b9 04 15
        E 59 b9 04 03
        E 8 b9 04 00
        E 218 89 24 40
        E 165 99 26 4b
        E 15 b9 04 12
        E 32 b9 04 22
        E 6 99 33 76
        E 12 b9 04 32
        E 32 b9 04 22
        E 18 b9 04 12
        E 111 b9 04 22
        E 84 b9 04 32
        E 4 89 26 40
        E 53 89 33 40
        E 53 b9 04 22
        E 36 99 26 7c
        E 28 b9 04 12
        E 63 b9 04 00
        E 220 89 26 40
        E 124 b9 04 12
        E 31 b9 04 22
        E 6 99 24 5e
        E 16 b9 04 32
        E 28 b9 04 22
        E 24 99 33 7f
        E 3 b9 04 12
        E 168 b9 04 22
        E 32 b9 04 32
        E 43 89 24 40
        E 6 b9 04 43
        E 62 89 33 40
        E 93 b9 04 32
        E 31 b9 04 22
        E 32 99 24 45
        E 6 b9 04 12
        E 43 b9 04 00
        E 264 89 24 40
        E 139 b9 04 12
        E 13 b9 04 25
        E 9 99 28 31
        E 9 b9 04 36
        E 7 99 33 7f
        E 18 b9 04 46
        E 22 b9 04 36
        E 16 b9 04 25
        E 15 b9 04 15
        E 146 b9 04 25
        E 81 89 28 40
        E 12 89 33 40
        E 75 99 28 53
        E 80 b9 04 15
        E 52 b9 04 03
        E 19 b9 04 00
        E 162 89 28 40
        E 149 99 24 59
        E 9 b9 04 12
        E 28 b9 04 22
        E 21 b9 04 32
        E 19 99 33 7f
        E 4 b9 04 22
        E 21 b9 04 12
        E 208 89 24 40
        E 32 b9 04 22
        E 27 b9 04 32
        E 22 89 33 40
        E 19 b9 04 43
        E 137 99 24 4a
        E 55 b9 04 32
        E 31 b9 04 20
        E 38 b9 04 0f
        E 40 b9 04 00
        E 149 89 24 40
        E 168 b9 04 12
        E 15 99 26 77
        E 3 b9 04 22
        E 16 b9 04 32
        E 18 b9 04 43
        E 3 99 33 7f
        E 4 b9 04 4c
        E 3 99 2c 1c
        E 28 b9 04 32
        E 21 b9 04 22
        E 215 b9 04 32
        E 3 89 26 40
        E 40 89 33 40
        E 3 89 2c 40
        E 112 b9 04 22
        E 22 99 24 51
        E 40 b9 04 12
        E 59 b9 04 00
        E 214 89 24 40
        E 124 b9 04 12
        E 19 b9 04 22
        E 21 b9 04 32
        E 44 99 33 7f
        E 10 b9 04 20
        E 108 b9 04 0f
        E 149 b9 04 20
        E 33 b9 04 30
        E 13 89 33 40
        E 149 99 24 58
        E 4 b9 04 34
        E 52 b9 04 22
        E 44 b9 04 12
        E 46 b9 04 00
        E 168 89 24 40
        E 199 99 28 68
        E 43 b9 04 12
        E 6 99 33 7f
        E 3 b9 04 25
        E 10 b9 04 36
        E 13 b9 04 46
        E 8 b9 04 4c
        E 4 99 2c 14
        E 18 b9 04 36
        E 13 b9 04 25
        E 15 b9 04 15
        E 121 b9 04 25
        E 59 89 28 40
        E 50 89 33 40
        E 34 89 2c 40
        E 65 b9 04 15
        E 56 b9 04 03
        E 12 b9 04 00
        E 360 b9 04 12
        E 13 b9 04 22
        E 9 b9 04 32
        E 25 b9 04 43
        E 33 b9 04 32
        E 17 99 33 7f
        E 3 b9 04 20
        E 254 b9 04 30
        E 56 89 33 40
        E 115 b9 04 34
        E 25 99 24 50
        E 34 b9 04 22
        E 44 b9 04 12
        E 46 b9 04 00
        E 189 89 24 40
        E 159 99 26 57
        E 12 b9 04 12
        E 6 99 33 7f
        E 10 b9 04 25
        E 20 b9 04 36
        E 13 b9 04 46
        E 20 b9 04 36
        E 11 b9 04 25
        E 164 b9 04 36
        E 54 89 26 40
        E 22 89 33 40
        E 71 99 24 4d
        E 3 b9 04 25
        E 47 b9 04 15
        E 49 b9 04 03
        E 13 b9 04 00
        E 202 89 24 40
        E 213 b9 04 12
        E 8 99 33 60
        E 3 b9 04 25
        E 12 99 26 79
        E 3 b9 04 36
        E 18 b9 04 46
        E 6 b9 04 4c
        E 3 99 2c 12
        E 25 b9 04 36
        E 16 b9 04 25
        E 186 b9 04 36
        E 41 89 33 40
        E 15 89 26 40
        E 28 89 2c 40
        E 74 b9 04 25
        E 15 99 24 52
        E 35 b9 04 15
        E 50 b9 04 03
        E 9 b9 04 00
        E 218 89 24 40
        E 198 99 33 7b
        E 4 b9 04 12
        E 5 b9 04 25
        E 7 99 28 31
        E 6 b9 04 36
        E 15 b9 04 46
        E 16 b9 04 36
        E 12 b9 04 25
        E 13 b9 04 15
        E 164 b9 04 25
        E 72 89 33 40
        E 15 89 28 40
        E 109 b9 04 15
        E 12 99 26 7a
        E 50 b9 04 03
        E 12 b9 04 00
        E 249 89 26 40
        E 118 b9 04 12
        E 21 99 24 61
        E 3 b9 04 22
        E 25 b9 04 32
        E 38 99 33 7f
        E 6 b9 04 22
        E 24 b9 04 12
        E 212 b9 04 22
        E 3 89 24 40
        E 25 b9 04 32
        E 43 89 33 40
        E 3 b9 04 43
        E 129 99 24 43
        E 33 b9 04 32
        E 43 b9 04 22
        E 50 b9 04 12
        E 56 b9 04 00
        E 133 89 24 40
        E 202 99 28 54
        E 18 99 33 70
        E 19 b9 04 12
        E 8 b9 04 25
        E 10 b9 04 36
        E 10 b9 04 46
        E 18 b9 04 4c
        E 3 99 2c 20
        E 35 b9 04 36
        E 15 b9 04 25
        E 174 89 28 40
        E 22 89 33 40
        E 65 89 2c 40
        E 77 99 24 56
        E 56 b9 04 15
        E 59 b9 04 03
        E 13 b9 04 00
        E 186 89 24 40
        E 176 b9 04 12
        E 16 b9 04 25
        E 6 99 33 73
        E 22 b9 04 36
        E 50 b9 04 25
        E 31 b9 04 15
        E 196 b9 04 25
        E 15 89 33 40
        E 75 b9 04 36
        E 80 99 24 5a
        E 19 b9 04 25
        E 50 b9 04 15
        E 55 b9 04 03
        E 10 b9 04 00
        E 179 89 24 40
        E 221 99 26 7f
        E 12 b9 04 12
        E 10 b9 04 25
        E 12 b9 04 36
        E 9 99 33 7f
        E 7 b9 04 46
        E 6 b9 04 4c
        E 4 99 2c 16
        E 15 b9 04 36
        E 15 b9 04 22
        E 19 b9 04 12
        E 193 b9 04 22
        E 15 89 26 40
        E 40 89 33 40
        E 13 89 2c 40
        E 127 b9 04 12
        E 65 b9 04 00
        E 357 b9 04 12
        E 22 b9 04 22
        E 18 b9 04 32
        E 28 99 33 72
        E 13 b9 04 22
        E 34 b9 04 12
        E 126 b9 04 22
        E 48 b9 04 32
        E 93 89 33 40
        E 102 99 24 51
        E 6 b9 04 20
        E 65 b9 04 0f
        E 47 b9 04 00
        E 196 89 24 40
        E 153 99 26 68
        E 40 99 33 5b
        E 24 b9 04 12
        E 35 b9 04 22
        E 15 b9 04 32
        E 37 b9 04 20
        E 22 b9 04 0f
        E 117 b9 04 20
        E 22 89 26 40
        E 41 89 33 40
        E 96 b9 04 25
        E 53 b9 04 15
        E 47 b9 04 03
        E 12 b9 04 00
        E 357 99 24 51
        E 3 b9 04 12
        E 12 b9 04 22
        E 9 b9 04 32
        E 47 99 33 6d
        E 6 b9 04 22
        E 159 b9 04 1d
        E 46 b9 04 2e
        E 28 89 24 40
        E 19 b9 04 3e
        E 56 89 33 40
        E 102 b9 04 2e
        E 41 99 24 4b
        E 3 b9 04 1d
        E 46 b9 04 0c
        E 31 b9 04 00
        E 233 89 24 40
        E 162 b9 04 12
        E 11 b9 04 22
        E 7 99 26 5b
        E 3 99 33 62
        E 3 b9 04 32
        E 21 b9 04 43
        E 25 b9 04 32
        E 13 b9 04 20
        E 34 b9 04 0f
        E 214 89 26 40
        E 4 89 33 40
        E 34 b9 04 20
        E 46 b9 04 30
        E 65 99 26 6a
        E 85 b9 04 20
        E 58 b9 04 0f
        E 44 b9 04 00
        E 124 89 26 40
        E 183 99 24 57
        E 25 99 33 69
        E 9 b9 04 12
        E 22 b9 04 22
        E 14 b9 04 32
        E 39 b9 04 20
        E 43 b9 04 0f
        E 140 b9 04 20
        E 18 89 24 40
        E 25 b9 04 30
        E 3 89 33 40
        E 159 99 24 37
        E 21 b9 04 20
        E 53 b9 04 0f
        E 40 b9 04 00
        E 196 89 24 40
        E 158 b9 04 12
        E 13 b9 04 25
        E 12 b9 04 36
        E 9 99 26 4b
        E 13 b9 04 46
        E 6 b9 04 4c
        E 0 99 2c 14
        E 22 99 33 65
        E 10 b9 04 36
        E 17 b9 04 25
        E 81 b9 04 15
        E 159 b9 04 25
        E 3 89 26 40
        E 21 89 2c 40
        E 22 89 33 40
        E 22 b9 04 36
        E 112 99 24 53
        E 40 b9 04 25
        E 41 b9 04 15
        E 49 b9 04 03
        E 10 b9 04 00
        E 170 89 24 40
        E 159 b9 04 12
        E 22 b9 04 22
        E 11 b9 04 32
        E 10 99 33 5c
        E 18 b9 04 20
        E 24 b9 04 0f
        E 169 b9 04 20
        E 36 b9 04 30
        E 67 89 33 40
        E 92 99 24 4f
        E 34 b9 04 20
        E 50 b9 04 0f
        E 44 b9 04 00
        E 183 89 24 40
        E 205 99 28 6c
        E 15 b9 04 12
        E 0 99 33 7c
        E 13 b9 04 25
        E 9 b9 04 36
        E 12 b9 04 46
        E 3 b9 04 4c
        E 4 99 2c 1a
        E 25 b9 04 36
        E 9 b9 04 25
        E 19 b9 04 15
        E 149 b9 04 25
        E 51 89 28 40
        E 17 89 33 40
        E 43 89 2c 40
        E 102 b9 04 15
        E 53 b9 04 03
        E 10 b9 04 00
        E 369 b9 04 12
        E 9 b9 04 25
        E 10 b9 04 36
        E 3 99 33 6a
        E 9 b9 04 46
        E 31 b9 04 36
        E 13 b9 04 25
        E 24 b9 04 15
        E 158 b9 04 25
        E 53 b9 04 36
        E 25 89 33 40
        E 149 99 24 50
        E 7 b9 04 25
        E 40 b9 04 15
        E 43 b9 04 03
        E 6 b9 04 00
        E 218 89 24 40
        E 114 99 28 60
        E 32 99 33 67
        E 12 b9 04 12
        E 6 b9 04 27
        E 13 b9 04 38
        E 22 b9 04 49
        E 3 b9 04 4c
        E 2 99 2c 16
        E 25 b9 04 38
        E 13 b9 04 27
        E 180 b9 04 38
        E 6 89 28 40
        E 31 89 33 40
        E 56 89 2c 40
        E 9 b9 04 27
        E 31 99 24 4c
        E 28 b9 04 15
        E 44 b9 04 03
        E 12 b9 04 00
        E 227 89 24 40
        E 152 b9 04 12
        E 6 99 24 3e
        E 3 b9 04 22
        E 3 b9 04 32
        E 7 b9 04 43
        E 6 b9 04 4c
        E 3 99 2c 2e
        E 62 99 33 77
        E 3 b9 04 32
        E 56 b9 04 22
        E 161 b9 04 18
        E 6 89 24 40
        E 25 89 2c 40
        E 21 b9 04 29
        E 38 b9 04 3a
        E 4 89 33 40
        E 123 99 24 4e
        E 35 b9 04 3e
        E 39 b9 04 2e
        E 26 b9 04 1d
        E 37 b9 04 0c
        E 25 b9 04 00
        E 152 89 24 40
        E 189 99 33 6d
        E 26 99 28 30
        E 17 b9 04 12
        E 13 b9 04 22
        E 4 b9 04 32
        E 12 b9 04 43
        E 21 b9 04 4c
        E 3 99 2c 1a
        E 19 b9 04 32
        E 12 b9 04 20
        E 71 b9 04 0f
        E 91 b9 04 20
        E 25 89 33 40
        E 25 89 28 40
        E 50 b9 04 30
        E 18 89 2c 40
        E 71 99 26 69
        E 4 b9 04 20
        E 55 b9 04 0f
        E 38 b9 04 00
        E 217 89 26 40
        E 106 99 24 5e
        E 18 b9 04 12
        E 28 b9 04 22
        E 16 99 33 7f
        E 6 b9 04 32
        E 17 b9 04 22
        E 20 b9 04 12
        E 192 b9 04 22
        E 16 89 24 40
        E 16 b9 04 32
        E 46 b9 04 43
        E 3 89 33 40
        E 133 b9 04 32
        E 7 99 24 43
        E 31 b9 04 22
        E 49 b9 04 12
        E 47 b9 04 00
        E 186 89 24 40
        E 180 99 26 60
        E 22 b9 04 12
        E 8 b9 04 27
        E 4 99 33 6a
        E 6 b9 04 38
        E 39 b9 04 49
        E 2 b9 04 4c
        E 3 99 2c 18
        E 28 b9 04 38
        E 14 b9 04 27
        E 82 b9 04 15
        E 105 89 26 40
        E 16 b9 04 25
        E 16 89 33 40
        E 49 89 2c 40
        E 66 99 24 58
        E 100 b9 04 15
        E 52 b9 04 03
        E 12 b9 04 00
        E 149 89 24 40
        E 230 b9 04 12
        E 9 99 33 7f
        E 3 b9 04 22
        E 10 b9 04 32
        E 34 b9 04 43
        E 6 b9 04 4c
        E 3 99 2c 1c
        E 3 b9 04 53
        E 19 b9 04 43
        E 12 b9 04 30
        E 16 b9 04 20
        E 207 89 33 40
        E 47 b9 04 30
        E 6 89 2c 40
        E 103 99 24 61
        E 25 b9 04 20
        E 67 b9 04 0f
        E 45 b9 04 00
        E 177 89 24 40
        E 186 99 28 47
        E 34 99 33 7f
        E 12 b9 04 12
        E 12 b9 04 25
        E 10 b9 04 36
        E 21 b9 04 46
        E 26 b9 04 36
        E 12 b9 04 25
        E 21 b9 04 15
        E 165 89 28 40
        E 10 b9 04 25
        E 24 89 33 40
        E 121 b9 04 15
        E 53 b9 04 03
        E 12 b9 04 00
        E 357 b9 04 12
        E 10 b9 04 25
        E 12 b9 04 36
        E 15 b9 04 46
        E 19 b9 04 36
        E 4 99 33 77
        E 9 b9 04 25
        E 21 b9 04 15
        E 143 b9 04 25
        E 37 b9 04 36
        E 62 b9 04 46
        E 41 89 33 40
        E 87 b9 04 36
        E 31 99 24 57
        E 18 b9 04 25
        E 31 b9 04 15
        E 44 b9 04 03
        E 12 b9 04 00
        E 208 89 24 40
        E 168 b9 04 12
        E 15 b9 04 22
        E 12 99 28 44
        E 3 99 33 6e
        E 7 b9 04 32
        E 47 b9 04 20
        E 34 b9 04 0f
        E 192 b9 04 20
        E 30 89 28 40
        E 4 89 33 40
        E 3 b9 04 30
        E 165 b9 04 20
        E 56 b9 04 0f
        E 47 b9 04 00
        E 282 99 24 57
        E 46 b9 04 12
        E 29 b9 04 25
        E 3 99 33 54
        E 12 b9 04 36
        E 40 b9 04 25
        E 183 89 24 40
        E 6 b9 04 36
        E 72 89 33 40
        E 130 b9 04 25
        E 16 99 24 47
        E 19 b9 04 15
        E 40 b9 04 03
        E 6 b9 04 00
        E 249 89 24 40
        E 146 99 28 7e
        E 12 99 33 7f
        E 30 b9 04 12
        E 13 b9 04 22
        E 7 b9 04 32
        E 27 b9 04 43
        E 34 b9 04 32
        E 9 b9 04 22
        E 25 b9 04 12
        E 159 89 28 40
        E 9 89 33 40
        E 59 b9 04 22
        E 34 b9 04 32
        E 137 b9 04 22
        E 34 b9 04 12
        E 44 b9 04 00
        E 313 99 24 4d
        E 31 b9 04 12
        E 13 b9 04 25
        E 15 b9 04 36
        E 13 b9 04 46
        E 14 99 33 76
        E 3 b9 04 36
        E 11 b9 04 25
        E 15 b9 04 15
        E 174 b9 04 25
        E 25 89 24 40
        E 12 b9 04 36
        E 37 b9 04 46
        E 28 b9 04 4c
        E 3 99 2c 08
        E 6 89 33 40
        E 128 99 24 4a
        E 8 b9 04 36
        E 45 b9 04 25
        E 31 b9 04 15
        E 40 b9 04 03
        E 12 b9 04 00
        E 43 89 2c 40
        E 131 89 24 40
        E 118 99 26 62
        E 66 b9 04 12
        E 9 99 33 7f
        E 3 b9 04 25
        E 6 b9 04 36
        E 25 b9 04 46
        E 9 b9 04 4c
        E 0 99 2c 14
        E 31 b9 04 36
        E 19 b9 04 25
        E 62 b9 04 15
        E 84 89 26 40
        E 74 89 33 40
        E 3 b9 04 25
        E 40 89 2c 40
        E 131 99 24 57
        E 50 b9 04 15
        E 43 b9 04 03
        E 13 b9 04 00
        E 207 89 24 40
        E 140 99 33 7f
        E 22 b9 04 12
        E 12 b9 04 22
        E 9 b9 04 32
        E 17 b9 04 43
        E 30 b9 04 32
        E 12 b9 04 20
        E 168 b9 04 1a
        E 43 89 33 40
        E 17 b9 04 2c
        E 64 b9 04 3c
        E 112 99 24 5d
        E 3 b9 04 2c
        E 56 b9 04 1a
        E 50 b9 04 09
        E 27 b9 04 00
        E 178 89 24 40
        E 170 99 26 62
        E 19 99 33 7f
        E 41 b9 04 12
        E 11 b9 04 25
        E 22 b9 04 36
        E 57 b9 04 25
        E 21 b9 04 15
        E 128 b9 04 25
        E 15 89 26 40
        E 19 89 33 40
        E 186 b9 04 15
        E 65 b9 04 03
        E 16 b9 04 00
        E 337 99 24 56
        E 41 99 33 7f
        E 7 b9 04 12
        E 12 b9 04 25
        E 22 b9 04 36
        E 37 b9 04 47
        E 2 b9 04 4d
        E 3 99 2c 20
        E 3 b9 04 57
        E 29 b9 04 47
        E 9 b9 04 36
        E 149 89 24 40
        E 16 b9 04 2c
        E 24 89 33 40
        E 81 89 2c 40
        E 52 b9 04 1a
        E 66 b9 04 09
        E 44 99 26 7f
        E 9 b9 04 00
        E 170 89 26 40
        E 4 99 26 7f
        E 170 b9 04 12
        E 79 89 26 40
        E 2 99 26 6b
        E 158 b9 04 22
        E 41 b9 04 32
        E 40 89 26 40
        E 4 99 26 44
        E 123 b9 04 36
        E 66 b9 04 22
        E 55 b9 04 12
        E 25 89 26 40
        E 6 99 26 78
        E 28 b9 04 00
        E 182 89 26 40
        E 4 99 26 50
        E 259 99 28 6d
        E 2 b9 04 12
        E 19 b9 04 22
        E 30 89 26 40
        E 41 b9 04 12
        E 107 99 26 4d
        E 67 b9 04 09
        E 47 89 28 40
        E 25 b9 04 1a
        E 40 b9 04 2c
        E 50 b9 04 3c
        E 12 89 26 40
        E 3 99 26 59
        E 146 b9 04 2c
        E 47 b9 04 1a
        E 43 89 26 40
        E 3 99 26 52
        E 3 b9 04 09
        E 19 b9 04 00
        E 242 89 26 40
        E 3 99 26 7f
        E 158 b9 04 12
        E 47 b9 04 22
        E 15 89 26 40
        E 3 99 26 46
        E 41 b9 04 12
        E 109 b9 04 22
        E 31 b9 04 32
        E 35 89 26 40
        E 2 99 26 6c
        E 22 b9 04 43
        E 127 b9 04 32
        E 25 b9 04 22
        E 34 b9 04 12
        E 13 89 26 40
        E 3 99 26 4a
        E 18 b9 04 00
        E 291 89 26 40
        E 7 99 24 7f
        E 59 99 31 56
        E 9 b9 04 12
        E 15 b9 04 22
        E 17 b9 04 32
        E 9 b9 04 43
        E 25 b9 04 32
        E 6 b9 04 22
        E 12 b9 04 12
        E 53 b9 04 00
        E 109 89 24 40
        E 56 89 31 40
        E 521 b9 04 00
        E 3 99 2e 7f
        E 311 89 2e 40
        E 210 99 26 7f
        E 314 89 26 40
        E 99 b9 04 00
        E 0 99 2e 7f
        E 314 89 2e 40
        E 177 99 24 6f
        E 314 89 24 40
        E 105 99 26 7f
        E 50 b9 04 00
        E 0 99 2e 7f
        E 264 89 26 40
        E 49 89 2e 40
        E 602 b9 04 00
        E 4 99 2e 7f
        E 313 89 2e 40
        E 145 99 28 61
        E 314 89 28 40
        E 187 b9 04 00
        E 0 99 2e 7f
        E 313 89 2e 40
        E 127 99 24 5e
        E 315 89 24 40
        E 161 99 26 7f
        E 36 b9 04 00
        E 2 99 2e 7f
        E 275 89 26 40
        E 39 89 2e 40
        E 100 99 24 6c
        E 314 89 24 40
        E 155 99 26 4d
        E 50 b9 04 00
        E 3 99 2e 7f
        E 257 89 26 40
        E 54 89 2e 40
        E 68 99 26 72
        E 313 89 26 40
        E 111 99 24 71
        E 109 b9 04 00
        E 3 99 2e 7f
        E 202 89 24 40
        E 109 89 2e 40
        E 589 99 24 7e
        E 40 b9 04 00
        E 3 99 2e 7f
        E 271 89 24 40
        E 40 89 2e 40
        E 183 99 26 76
        E 315 89 26 40
        E 144 b9 04 00
        E 4 99 2e 7f
        E 310 89 2e 40
        E 196 99 24 65
        E 314 89 24 40
        E 170 99 28 65
        E 40 b9 04 00
        E 4 99 2e 7f
        E 270 89 28 40
        E 43 89 2e 40
        E 639 b9 04 00
        E 0 99 2e 7f
        E 314 89 2e 40
        E 143 99 24 62
        E 313 89 24 40
        E 171 99 28 5e
        E 40 b9 04 00
        E 0 99 2e 7f
        E 274 89 28 40
        E 40 89 2e 40
        E 124 99 24 61
        E 313 89 24 40
        E 174 99 26 48
        E 44 b9 04 00
        E 3 99 2e 7f
        E 267 89 26 40
        E 44 89 2e 40
        E 108 99 26 73
        E 314 89 26 40
        E 161 99 24 41
        E 13 b9 04 00
        E 2 99 2e 7f
        E 298 89 24 40
        E 12 89 2e 40
        E 153 99 26 7d
        E 313 89 26 40
        E 171 99 24 7f
        E 59 99 31 60
        E 254 89 24 40
        E 60 89 31 40
        E 478 99 24 41
        E 130 b9 04 00
        E 3 99 2e 7f
        E 180 89 24 40
        E 130 89 2e 40
        E 181 99 28 61
        E 313 89 28 40
        E 162 b9 04 00
        E 2 99 2e 7f
        E 311 89 2e 40
        E 652 99 24 7f
        E 40 b9 04 00
        E 3 99 2e 7f
        E 270 89 24 40
        E 44 89 2e 40
        E 602 b9 04 00
        E 3 99 2e 7f
        E 310 89 2e 40
        E 186 99 26 7f
        E 314 89 26 40
        E 186 b9 04 00
        E 3 99 2e 7f
        E 311 89 2e 40
        E 130 99 24 65
        E 313 89 24 40
        E 159 99 26 7f
        E 40 b9 04 00
        E 3 99 2e 7f
        E 271 89 26 40
        E 40 89 2e 40
        E 87 99 24 6a
        E 313 89 24 40
        E 140 99 26 56
        E 84 b9 04 00
        E 0 99 2e 7f
        E 226 89 26 40
        E 87 89 2e 40
        E 47 99 28 3b
        E 313 89 28 40
        E 128 99 24 7c
        E 111 99 31 6b
        E 201 89 24 40
        E 113 89 31 40
        E 546 99 24 7f
        E 37 b9 04 00
        E 3 99 2e 7f
        E 274 89 24 40
        E 40 89 2e 40
        E 186 99 26 7f
        E 313 89 26 40
        E 134 b9 04 00
        E 0 99 2e 7f
        E 314 89 2e 40
        E 630 99 24 7f
        E 89 b9 04 00
        E 4 99 2e 7f
        E 221 89 24 40
        E 92 89 2e 40
        E 565 b9 04 00
        E 0 99 2e 7f
        E 314 89 2e 40
        E 192 99 26 78
        E 314 89 26 40
        E 170 b9 04 00
        E 0 99 2e 7f
        E 314 89 2e 40
        E 171 99 24 6a
        E 314 89 24 40
        E 164 99 26 7f
        E 49 b9 04 00
        E 4 99 2e 7f
        E 260 89 26 40
        E 50 89 2e 40
        E 137 99 24 6a
        E 310 89 24 40
        E 161 99 26 7f
        E 190 89 26 40
        E 2 99 26 5e
        E 245 89 26 40
        E 3 99 26 66
        E 200 89 26 40
        E 3 99 26 6e
        E 310 89 26 40
        E 115 99 24 7f
        E 22 99 31 56
        E 291 89 24 40
        E 22 89 31 40
        E 624 99 24 67
        E 6 99 33 7f
        E 308 89 24 40
        E 6 89 33 40
        E 158 99 26 7f
        E 314 89 26 40
        E 161 99 33 7f
        E 313 89 33 40
        E 646 99 24 7f
        E 52 99 33 7f
        E 262 89 24 40
        E 52 89 33 40
        E 605 99 33 47
        E 315 89 33 40
        E 179 99 28 62
        E 311 89 28 40
        E 155 99 33 79
        E 140 b9 04 12
        E 59 b9 04 22
        E 115 89 33 40
        E 86 b9 04 12
        E 47 99 24 67
        E 28 b9 04 00
        E 285 89 24 40
        E 131 b9 04 12
        E 43 b9 04 22
        E 6 99 26 76
        E 7 b9 04 32
        E 15 b9 04 43
        E 13 99 33 7f
        E 9 b9 04 32
        E 18 b9 04 20
        E 245 b9 04 0f
        E 7 89 26 40
        E 31 89 33 40
        E 37 b9 04 00
        E 38 99 24 62
        E 313 89 24 40
        E 156 99 26 52
        E 2 b9 04 12
        E 103 99 33 7f
        E 207 89 26 40
        E 106 89 33 40
        E 72 99 26 7b
        E 12 b9 04 00
        E 301 89 26 40
        E 140 b9 04 12
        E 18 b9 04 22
        E 32 b9 04 32
        E 2 99 24 7f
        E 38 b9 04 20
        E 31 b9 04 0f
        E 3 99 31 5a
        E 242 89 24 40
        E 68 89 31 40
        E 6 b9 04 20
        E 128 b9 04 30
        E 301 b9 04 20
        E 121 b9 04 0f
        E 16 99 24 68
        E 31 99 33 67
        E 92 b9 04 00
        E 190 89 24 40
        E 31 89 33 40
        E 187 99 28 69
        E 34 b9 04 12
        E 46 b9 04 22
        E 22 b9 04 32
        E 15 b9 04 44
        E 25 b9 04 34
        E 15 b9 04 22
        E 94 b9 04 12
        E 61 89 28 40
        E 156 b9 04 06
        E 28 99 33 7f
        E 71 b9 04 18
        E 38 b9 04 29
        E 33 b9 04 3a
        E 66 b9 04 4a
        E 96 b9 04 3a
        E 9 89 33 40
        E 37 b9 04 29
        E 44 b9 04 18
        E 25 99 24 5c
        E 25 b9 04 06
        E 18 b9 04 00
        E 270 89 24 40
        E 196 99 28 77
        E 25 b9 04 12
        E 12 b9 04 22
        E 15 99 33 7f
        E 4 b9 04 32
        E 34 b9 04 44
        E 4 b9 04 4c
        E 3 99 2c 1e
        E 21 b9 04 34
        E 9 b9 04 22
        E 19 b9 04 12
        E 139 b9 04 22
        E 29 89 28 40
        E 52 89 33 40
        E 44 89 2c 40
        E 43 b9 04 12
        E 93 b9 04 00
        E 426 99 33 7f
        E 21 b9 04 12
        E 62 b9 04 25
        E 15 b9 04 36
        E 29 b9 04 25
        E 14 b9 04 15
        E 172 89 33 40
        E 99 b9 04 0f
        E 81 99 28 73
        E 58 b9 04 20
        E 97 b9 04 30
        E 159 89 28 40
        E 46 b9 04 20
        E 81 99 26 7f
        E 86 b9 04 0f
        E 221 b9 04 00
        E 3 89 26 40
        E 177 99 28 54
        E 71 b9 04 12
        E 243 89 28 40
        E 180 99 30 7f
        E 164 b9 04 1d
        E 149 89 30 40
        E 167 99 30 7f
        E 129 b9 04 15
        E 185 89 30 40
        E 146 99 2d 7f
        E 285 b9 04 25
        E 29 89 2d 40
        E 20 b9 04 36
        E 79 b9 04 46
        E 34 99 2d 7f
        E 87 b9 04 36
        E 52 b9 04 25
        E 44 b9 04 15
        E 47 b9 04 03
        E 15 b9 04 00
        E 68 89 2d 40
        E 220 99 24 7f
        E 57 99 33 7f
        E 50 b9 04 12
        E 46 b9 04 22
        E 16 b9 04 32
        E 40 b9 04 22
        E 105 89 24 40
        E 56 89 33 40
        E 224 b9 04 18
        E 307 b9 04 29
        E 84 99 24 6a
        E 10 99 33 68
        E 213 b9 04 18
        E 90 89 24 40
        E 10 89 33 40
        E 90 b9 04 0c
        E 53 99 28 55
        E 313 89 28 40
        E 130 b9 04 1d
        E 69 99 33 7f
        E 59 b9 04 2e
        E 89 b9 04 3e
        E 94 b9 04 4c
        E 3 99 2c 06
        E 68 89 33 40
        E 13 b9 04 44
        E 65 b9 04 34
        E 56 b9 04 22
        E 9 99 24 6f
        E 66 b9 04 12
        E 34 89 2c 40
        E 65 b9 04 00
        E 149 89 24 40
        E 186 99 28 74
        E 43 99 33 7f
        E 38 b9 04 12
        E 24 b9 04 22
        E 13 b9 04 32
        E 9 b9 04 43
        E 28 b9 04 32
        E 13 b9 04 20
        E 146 89 28 40
        E 21 b9 04 15
        E 22 89 33 40
        E 347 b9 04 03
        E 41 b9 04 00
        E 276 b9 04 12
        E 19 99 33 5b
        E 27 b9 04 22
        E 31 b9 04 32
        E 209 b9 04 25
        E 46 89 33 40
        E 105 b9 04 15
        E 84 99 28 72
        E 156 b9 04 0f
        E 158 89 28 40
        E 149 b9 04 20
        E 84 99 33 7f
        E 195 b9 04 30
        E 118 89 33 40
        E 34 b9 04 20
        E 90 99 24 4e
        E 3 b9 04 0f
        E 66 b9 04 00
        E 245 89 24 40
        E 118 b9 04 12
        E 24 99 28 66
        E 24 b9 04 25
        E 14 b9 04 36
        E 9 99 33 7f
        E 31 b9 04 25
        E 19 b9 04 15
        E 89 b9 04 25
        E 128 89 28 40
        E 47 89 33 40
        E 68 b9 04 15
        E 40 99 24 5e
        E 31 b9 04 03
        E 22 b9 04 00
        E 261 89 24 40
        E 190 99 2d 7f
        E 9 99 30 7f
        E 46 b9 04 12
        E 22 b9 04 25
        E 12 b9 04 36
        E 34 b9 04 22
        E 191 89 2d 40
        E 8 89 30 40
        E 50 b9 04 27
        E 80 b9 04 15
        E 19 99 30 7f
        E 56 b9 04 03
        E 18 b9 04 00
        E 239 89 30 40
        E 139 b9 04 12
        E 3 99 24 74
        E 23 b9 04 22
        E 10 b9 04 32
        E 12 b9 04 43
        E 9 99 33 7f
        E 13 b9 04 32
        E 9 b9 04 22
        E 34 b9 04 12
        E 115 b9 04 22
        E 86 89 24 40
        E 57 89 33 40
        E 21 b9 04 32
        E 199 b9 04 3a
        E 239 b9 04 36
        E 81 99 24 2e
        E 77 99 33 7a
        E 35 b9 04 46
        E 201 89 24 40
        E 19 b9 04 54
        E 59 89 33 40
        E 143 99 28 62
        E 65 b9 04 44
        E 202 b9 04 34
        E 42 89 28 40
        E 178 99 33 7f
        E 3 b9 04 29
        E 92 b9 04 3a
        E 172 b9 04 44
        E 47 89 33 40
        E 99 b9 04 34
        E 93 b9 04 22
        E 89 b9 04 12
        E 116 b9 04 00
        E 180 b9 04 12
        E 34 99 24 7f
        E 15 b9 04 22
        E 3 99 31 76
        E 60 99 33 7f
        E 2 b9 04 12
        E 184 b9 04 06
        E 50 89 24 40
        E 18 89 31 40
        E 59 89 33 40
        E 373 b9 04 12
        E 176 b9 04 22
        E 21 99 33 64
        E 221 b9 04 18
        E 92 89 33 40
        E 156 b9 04 0f
        E 19 99 28 6d
        E 277 b9 04 20
        E 37 89 28 40
        E 161 99 33 75
        E 137 b9 04 30
        E 174 b9 04 34
        E 3 89 33 40
        E 56 b9 04 22
        E 52 99 24 5a
        E 17 b9 04 12
        E 70 b9 04 00
        E 228 89 24 40
        E 117 99 26 7f
        E 59 b9 04 12
        E 36 b9 04 25
        E 11 b9 04 36
        E 40 b9 04 22
        E 15 99 28 7f
        E 7 b9 04 12
        E 98 b9 04 22
        E 48 89 26 40
        E 160 89 28 40
        E 16 b9 04 12
        E 38 99 24 59
        E 46 b9 04 00
        E 267 89 24 40
        E 124 99 2d 7f
        E 35 b9 04 12
        E 36 b9 04 22
        E 13 99 30 46
        E 5 b9 04 32
        E 39 b9 04 22
        E 186 89 2d 40
        E 84 b9 04 27
        E 2 89 30 40
        E 63 b9 04 15
        E 64 99 30 7f
        E 7 b9 04 03
        E 13 b9 04 00
        E 294 89 30 40
        E 113 b9 04 12
        E 9 99 24 75
        E 12 b9 04 22
        E 33 b9 04 32
        E 13 b9 04 43
        E 7 b9 04 4c
        E 3 99 2c 1e
        E 15 99 33 7f
        E 9 b9 04 32
        E 13 b9 04 20
        E 165 b9 04 12
        E 43 89 24 40
        E 65 89 2c 40
        E 18 89 33 40
        E 107 b9 04 22
        E 71 b9 04 32
        E 84 b9 04 43
        E 211 b9 04 32
        E 22 99 24 68
        E 21 b9 04 22
        E 62 b9 04 12
        E 12 99 33 7f
        E 94 b9 04 00
        E 124 89 24 40
        E 96 89 33 40
        E 121 99 28 7d
        E 118 b9 04 12
        E 53 b9 04 22
        E 13 b9 04 32
        E 34 b9 04 20
        E 18 b9 04 0f
        E 75 89 28 40
        E 99 b9 04 09
        E 99 99 33 7f
        E 114 b9 04 1a
        E 47 b9 04 2c
        E 56 b9 04 3c
        E 97 89 33 40
        E 49 b9 04 2c
        E 49 b9 04 1a
        E 54 b9 04 09
        E 25 b9 04 00
        E 409 b9 04 12
        E 6 99 24 7f
        E 3 b9 04 25
        E 10 99 31 7f
        E 3 b9 04 36
        E 37 b9 04 46
        E 6 b9 04 4d
        E 4 99 2c 1a
        E 3 b9 04 56
        E 3 99 33 7f
        E 18 b9 04 46
        E 13 b9 04 36
        E 53 b9 04 25
        E 102 b9 04 15
        E 59 89 24 40
        E 12 89 31 40
        E 47 89 2c 40
        E 10 89 33 40
        E 115 b9 04 25
        E 192 b9 04 32
        E 182 b9 04 22
        E 39 99 33 7f
        E 114 b9 04 12
        E 197 89 33 40
        E 67 b9 04 03
        E 6 b9 04 00
        E 106 99 30 7f
        E 55 b9 04 12
        E 56 b9 04 22
        E 38 b9 04 32
        E 40 b9 04 22
        E 124 89 30 40
        E 40 b9 04 18
        E 109 99 33 54
        E 40 b9 04 29
        E 78 b9 04 3a
        E 196 89 33 40
        E 46 b9 04 29
        E 34 99 24 68
        E 65 b9 04 18
        E 196 b9 04 09
        E 52 89 24 40
        E 106 99 26 63
        E 12 b9 04 1a
        E 29 b9 04 2c
        E 28 b9 04 3c
        E 83 99 28 7f
        E 159 89 26 40
        E 52 b9 04 2c
        E 93 b9 04 1a
        E 10 89 28 40
        E 53 99 24 63
        E 130 b9 04 0c
        E 181 89 24 40
        E 130 b9 04 1d
        E 93 99 29 7f
        E 65 99 2d 7f
        E 117 b9 04 15
        E 109 b9 04 25
        E 22 89 29 40
        E 43 b9 04 36
        E 22 89 2d 40
        E 123 99 2d 7f
        E 114 b9 04 25
        E 71 b9 04 15
        E 105 b9 04 03
        E 24 89 2d 40
        E 6 b9 04 00
        E 152 99 24 7f
        E 88 99 33 7f
        E 56 b9 04 12
        E 34 b9 04 22
        E 87 b9 04 12
        E 49 89 24 40
        E 87 89 33 40
        E 168 b9 04 22
        E 56 b9 04 32
        E 96 b9 04 43
        E 151 99 24 68
        E 23 b9 04 32
        E 47 b9 04 22
        E 71 b9 04 12
        E 22 99 33 7f
        E 105 b9 04 00
        E 46 89 24 40
        E 162 89 33 40
        E 158 99 28 69
        E 41 b9 04 12
        E 34 b9 04 25
        E 22 b9 04 36
        E 13 b9 04 46
        E 27 b9 04 36
        E 22 b9 04 25
        E 50 b9 04 15
        E 105 89 28 40
        E 195 99 33 6d
        E 69 b9 04 25
        E 59 b9 04 36
        E 37 b9 04 46
        E 9 b9 04 4c
        E 4 99 2c 0a
        E 36 b9 04 56
        E 100 89 33 40
        E 65 b9 04 46
        E 37 b9 04 36
        E 41 b9 04 25
        E 15 99 24 78
        E 19 89 2c 40
        E 3 b9 04 15
        E 65 b9 04 03
        E 19 b9 04 00
        E 207 89 24 40
        E 264 99 31 7c
        E 53 99 33 7f
        E 10 b9 04 12
        E 9 b9 04 27
        E 3 99 24 7f
        E 4 b9 04 38
        E 5 b9 04 4a
        E 1 b9 04 4c
        E 3 99 2c 32
        E 24 b9 04 5a
        E 22 b9 04 4a
        E 6 b9 04 3a
        E 9 b9 04 29
        E 38 b9 04 18
        E 127 89 31 40
        E 40 b9 04 0f
        E 13 89 33 40
        E 21 89 24 40
        E 13 89 2c 40
        E 192 b9 04 20
        E 66 b9 04 30
        E 179 b9 04 3a
        E 118 b9 04 29
        E 100 99 33 77
        E 6 b9 04 18
        E 204 b9 04 09
        E 54 b9 04 00
        E 50 89 33 40
        E 180 99 26 7f
        E 52 b9 04 12
        E 31 b9 04 22
        E 19 b9 04 32
        E 62 b9 04 20
        E 103 b9 04 0f
        E 46 89 26 40
        E 99 99 33 4e
        E 91 b9 04 20
        E 37 b9 04 30
        E 43 b9 04 41
        E 53 b9 04 4c
        E 0 99 2c 08
        E 90 89 33 40
        E 65 b9 04 30
        E 31 b9 04 20
        E 3 99 24 5d
        E 50 b9 04 0f
        E 46 b9 04 00
        E 28 89 2c 40
        E 187 89 24 40
        E 142 99 26 7f
        E 66 b9 04 12
        E 12 b9 04 25
        E 43 b9 04 36
        E 16 b9 04 46
        E 6 b9 04 4d
        E 4 99 2c 22
        E 3 99 28 7f
        E 3 b9 04 56
        E 24 b9 04 46
        E 10 b9 04 36
        E 126 89 26 40
        E 88 b9 04 25
        E 52 89 2c 40
        E 3 89 28 40
        E 6 b9 04 15
        E 39 99 24 5d
        E 42 b9 04 03
        E 28 b9 04 00
        E 243 89 24 40
        E 93 99 30 3c
        E 118 b9 04 12
        E 18 b9 04 22
        E 7 b9 04 32
        E 6 89 30 40
        E 3 99 30 64
        E 34 b9 04 20
        E 115 b9 04 30
        E 46 89 30 40
        E 3 99 30 7f
        E 84 b9 04 20
        E 67 b9 04 0f
        E 76 89 30 40
        E 3 99 30 7f
        E 6 b9 04 00
        E 304 89 30 40
        E 103 b9 04 12
        E 4 99 24 7f
        E 12 b9 04 25
        E 40 b9 04 36
        E 15 b9 04 46
        E 3 b9 04 4c
        E 4 99 2c 20
        E 2 b9 04 56
        E 32 b9 04 44
        E 12 b9 04 34
        E 3 99 33 75
        E 47 b9 04 22
        E 142 89 24 40
        E 25 b9 04 15
        E 47 89 2c 40
        E 52 89 33 40
        E 97 b9 04 25
        E 133 b9 04 36
        E 276 b9 04 25
        E 19 99 24 68
        E 16 99 33 78
        E 33 b9 04 15
        E 119 b9 04 03
        E 25 b9 04 00
        E 120 89 24 40
        E 16 89 33 40
        E 159 99 28 76
        E 161 b9 04 12
        E 28 b9 04 22
        E 65 b9 04 12
        E 59 89 28 40
        E 202 99 33 47
        E 56 b9 04 22
        E 40 b9 04 32
        E 59 b9 04 43
        E 156 b9 04 32
        E 2 89 33 40
        E 47 b9 04 22
        E 9 99 24 62
        E 56 b9 04 12
        E 68 b9 04 00
        E 190 89 24 40
        E 102 99 24 0e
        E 72 89 24 40
        E 3 99 24 7f
        E 33 99 31 7f
        E 7 b9 04 12
        E 12 b9 04 22
        E 10 b9 04 32
        E 16 b9 04 43
        E 6 b9 04 4c
        E 3 99 2c 1a
        E 6 b9 04 53
        E 18 b9 04 41
        E 9 b9 04 30
        E 10 b9 04 20
        E 53 b9 04 0f
        E 131 89 24 40
        E 34 89 31 40
        E 18 b9 04 03
        E 34 89 2c 40
        E 488 b9 04 15
        E 179 99 33 4a
        E 35 b9 04 1a
        E 267 b9 04 09
        E 12 89 33 40
        E 102 b9 04 00
        E 94 99 28 75
        E 242 b9 04 12
        E 71 89 28 40
        E 93 99 33 2e
        E 140 b9 04 25
        E 62 b9 04 36
        E 112 89 33 40
        E 28 b9 04 25
        E 56 b9 04 15
        E 58 99 24 6f
        E 15 b9 04 03
        E 16 b9 04 00
        E 283 89 24 40
        E 140 99 26 79
        E 53 b9 04 12
        E 12 b9 04 22
        E 28 b9 04 32
        E 49 b9 04 22
        E 16 89 26 40
        E 3 99 26 5b
        E 245 b9 04 12
        E 65 89 26 40
        E 34 b9 04 00
        E 13 99 24 66
        E 314 89 24 40
        E 133 99 2d 7f
        E 12 b9 04 12
        E 25 b9 04 22
        E 10 99 30 70
        E 6 b9 04 32
        E 30 b9 04 20
        E 227 89 2d 40
        E 46 89 30 40
        E 29 b9 04 0f
        E 78 b9 04 00
        E 18 99 30 7f
        E 314 89 30 40
        E 114 b9 04 12
        E 23 b9 04 22
        E 2 99 24 7f
        E 31 b9 04 32
        E 40 b9 04 20
        E 22 99 33 7f
        E 143 b9 04 18
        E 78 89 24 40
        E 93 89 33 40
        E 81 b9 04 29
        E 201 b9 04 38
        E 178 b9 04 27
        E 84 99 24 79
        E 8 b9 04 15
        E 44 99 33 6b
        E 139 b9 04 03
        E 41 b9 04 00
        E 83 89 24 40
        E 50 89 33 40
        E 159 99 28 73
        E 146 b9 04 12
        E 15 b9 04 22
        E 13 b9 04 32
        E 33 b9 04 20
        E 32 b9 04 0f
        E 74 89 28 40
        E 193 b9 04 20
        E 53 b9 04 30
        E 3 99 33 3e
        E 46 b9 04 41
        E 40 b9 04 4c
        E 4 99 2c 08
        E 25 b9 04 51
        E 151 b9 04 41
        E 47 89 33 40
        E 3 b9 04 30
        E 34 b9 04 20
        E 7 99 24 60
        E 46 89 2c 40
        E 6 b9 04 0f
        E 56 b9 04 00
        E 205 89 24 40
        E 80 99 24 0b
        E 75 89 24 40
        E 3 99 24 7f
        E 60 b9 04 12
        E 6 b9 04 27
        E 2 99 31 7f
        E 7 b9 04 38
        E 3 b9 04 49
        E 3 b9 04 4c
        E 3 99 2c 30
        E 16 b9 04 5a
        E 12 99 33 4e
        E 10 b9 04 4a
        E 9 b9 04 38
        E 18 b9 04 27
        E 53 b9 04 15
        E 109 89 24 40
        E 68 b9 04 09
        E 7 89 31 40
        E 8 89 2c 40
        E 28 89 33 40
        E 137 b9 04 1a
        E 168 b9 04 2c
        E 316 99 33 41
        E 31 b9 04 1a
        E 140 b9 04 09
        E 80 b9 04 00
        E 63 89 33 40
        E 213 99 30 7f
        E 141 b9 04 12
        E 40 b9 04 22
        E 25 b9 04 32
        E 50 b9 04 22
        E 34 b9 04 12
        E 25 89 30 40
        E 133 99 33 48
        E 68 b9 04 22
        E 241 b9 04 12
        E 3 89 33 40
        E 21 99 24 6d
        E 67 b9 04 00
        E 246 89 24 40
        E 183 b9 04 12
        E 6 99 2d 7f
        E 9 b9 04 25
        E 37 b9 04 36
        E 12 b9 04 46
        E 3 b9 04 4c
        E 4 99 2c 22
        E 25 b9 04 36
        E 12 b9 04 25
        E 25 89 2d 40
        E 3 99 2d 7f
        E 10 b9 04 15
        E 121 b9 04 25
        E 117 89 2c 40
        E 62 89 2d 40
        E 41 b9 04 15
        E 46 99 24 67
        E 25 b9 04 03
        E 16 b9 04 00
        E 273 89 24 40
        E 168 99 29 59
        E 12 b9 04 12
        E 62 b9 04 22
        E 19 b9 04 32
        E 21 89 29 40
        E 3 99 29 74
        E 3 b9 04 20
        E 23 b9 04 0f
        E 263 b9 04 20
        E 22 89 29 40
        E 152 99 28 58
        E 31 b9 04 0f
        E 59 b9 04 00
        E 224 89 28 40
        E 170 b9 04 12
        E 16 b9 04 22
        E 3 99 24 7f
        E 15 b9 04 32
        E 13 99 33 7f
        E 30 b9 04 22
        E 23 b9 04 12
        E 233 89 24 40
        E 27 89 33 40
        E 31 b9 04 22
        E 165 b9 04 30
        E 280 b9 04 20
        E 99 99 24 74
        E 46 99 33 7f
        E 7 b9 04 0f
        E 121 b9 04 00
        E 136 89 24 40
        E 48 89 33 40
        E 172 99 28 7f
        E 93 b9 04 12
        E 25 b9 04 22
        E 13 b9 04 32
        E 36 b9 04 20
        E 38 b9 04 0f
        E 109 89 28 40
        E 196 b9 04 20
        E 21 99 33 4a
        E 16 b9 04 30
        E 47 b9 04 41
        E 194 b9 04 30
        E 38 b9 04 20
        E 19 89 33 40
        E 43 b9 04 0f
        E 44 99 24 5c
        E 9 b9 04 00
        E 304 89 24 40
        E 43 99 24 09
        E 84 89 24 40
        E 0 99 24 7f
        E 19 b9 04 12
        E 10 b9 04 25
        E 12 b9 04 36
        E 25 b9 04 46
        E 7 b9 04 4c
        E 0 99 2c 16
        E 20 99 31 7f
        E 3 b9 04 36
        E 13 b9 04 25
        E 15 99 33 56
        E 13 b9 04 15
        E 177 89 24 40
        E 71 89 2c 40
        E 22 89 31 40
        E 31 89 33 40
        E 78 b9 04 25
        E 210 b9 04 2e
        E 321 b9 04 27
        E 21 99 33 40
        E 112 b9 04 15
        E 146 b9 04 03
        E 46 b9 04 00
        E 9 89 33 40
        E 233 99 28 7f
        E 165 b9 04 12
        E 65 b9 04 22
        E 13 b9 04 32
        E 12 b9 04 43
        E 21 b9 04 32
        E 10 b9 04 22
        E 22 b9 04 12
        E 6 89 28 40
        E 92 99 33 5b
        E 218 b9 04 22
        E 62 b9 04 32
        E 34 89 33 40
        E 93 b9 04 22
        E 42 99 24 5e
        E 36 b9 04 12
        E 65 b9 04 00
        E 212 89 24 40
        E 130 99 26 7f
        E 68 b9 04 12
        E 12 b9 04 22
        E 50 b9 04 32
        E 9 b9 04 43
        E 9 b9 04 4c
        E 4 99 2c 1c
        E 18 b9 04 30
        E 9 99 28 3c
        E 4 b9 04 20
        E 130 89 26 40
        E 152 89 2c 40
        E 15 b9 04 0f
        E 13 89 28 40
        E 71 b9 04 00
        E 7 99 24 5d
        E 311 89 24 40
        E 116 99 2d 7f
        E 32 b9 04 12
        E 25 b9 04 22
        E 13 b9 04 32
        E 9 99 30 79
        E 15 b9 04 22
        E 15 b9 04 12
        E 187 b9 04 22
        E 16 89 2d 40
        E 80 89 30 40
        E 50 b9 04 12
        E 34 99 30 7f
        E 62 b9 04 00
        E 249 89 30 40
        E 121 99 24 7f
        E 46 b9 04 12
        E 16 b9 04 22
        E 18 b9 04 32
        E 16 99 33 7f
        E 24 b9 04 20
        E 28 b9 04 0f
        E 149 b9 04 20
        E 16 89 24 40
        E 96 89 33 40
        E 243 b9 04 12
        E 303 99 24 76
        E 16 b9 04 18
        E 44 99 33 62
        E 117 b9 04 06
        E 32 b9 04 00
        E 105 89 24 40
        E 57 89 33 40
        E 179 99 28 4c
        E 6 b9 04 12
        E 19 b9 04 22
        E 40 b9 04 12
        E 165 b9 04 09
        E 84 89 28 40
        E 161 99 33 60
        E 12 b9 04 1a
        E 62 b9 04 2c
        E 47 b9 04 3c
        E 49 b9 04 4c
        E 7 99 2c 08
        E 3 b9 04 4c
        E 109 b9 04 3c
        E 24 89 33 40
        E 16 b9 04 2c
        E 41 b9 04 1a
        E 43 b9 04 09
        E 9 99 24 6b
        E 22 b9 04 00
        E 43 89 2c 40
        E 248 89 24 40
        E 143 99 30 7f
        E 3 99 2d 7f
        E 69 b9 04 12
        E 18 b9 04 22
        E 44 b9 04 32
        E 12 b9 04 43
        E 18 b9 04 32
        E 13 b9 04 22
        E 26 b9 04 12
        E 80 b9 04 22
        E 30 89 30 40
        E 4 89 2d 40
        E 43 b9 04 32
        E 171 b9 04 22
        E 56 b9 04 12
        E 59 b9 04 00
        E 360 99 26 7e
        E 133 b9 04 12
        E 44 b9 04 22
        E 19 b9 04 32
        E 6 b9 04 43
        E 6 b9 04 4c
        E 3 99 2c 26
        E 3 89 26 40
        E 3 99 26 5d
        E 21 b9 04 32
        E 199 b9 04 22
        E 22 89 26 40
        E 3 99 26 4f
        E 34 b9 04 12
        E 26 89 2c 40
        E 37 b9 04 00
        E 124 89 26 40
        E 3 99 26 64
        E 264 89 26 40
        E 3 99 26 6b
        E 78 b9 04 12
        E 46 b9 04 22
        E 21 b9 04 32
        E 29 b9 04 20
        E 18 89 26 40
        E 4 99 26 5e
        E 9 b9 04 0f
        E 80 b9 04 20
        E 161 89 26 40
        E 3 99 26 54
        E 88 b9 04 0f
        E 71 b9 04 00
        E 57 89 26 40
        E 2 99 26 61
        E 295 89 26 40
        E 3 99 26 79
        E 113 b9 04 12
        E 36 b9 04 22
        E 43 89 26 40
        E 4 99 26 5f
        E 10 b9 04 12
        E 145 b9 04 22
        E 86 b9 04 32
        E 22 89 26 40
        E 4 99 26 5b
        E 81 b9 04 22
        E 57 b9 04 12
        E 58 b9 04 00
        E 34 89 26 40
        E 4 99 26 6f
        E 281 89 26 40
        E 3 99 26 7f
        E 145 b9 04 12
        E 57 b9 04 22
        E 6 89 26 40
        E 3 99 26 60
        E 44 b9 04 12
        E 118 b9 04 22
        E 89 89 26 40
        E 3 99 26 76
        E 116 b9 04 12
        E 52 b9 04 00
        E 72 89 26 40
        E 3 99 26 72
        E 311 89 26 40
        E 18 99 24 7f
        E 50 99 31 72
        E 12 b9 04 12
        E 9 b9 04 22
        E 32 b9 04 32
        E 28 b9 04 20
        E 17 b9 04 0f
        E 165 89 24 40
        E 50 89 31 40
        E 311 b9 04 1d
        E 164 b9 04 0c
        E 59 b9 04 00
        E 109 99 26 7b
        E 27 99 33 7f
        E 118 b9 04 12
        E 169 89 26 40
        E 27 89 33 40
        E 29 b9 04 22
        E 177 99 24 56
        E 12 b9 04 12
        E 111 b9 04 00
        E 189 89 24 40
        E 192 99 33 54
        E 29 b9 04 12
        E 34 b9 04 22
        E 252 89 33 40
        E 86 99 24 56
        E 3 b9 04 12
        E 68 b9 04 00
        E 243 89 24 40
        E 157 99 28 33
        E 47 b9 04 12
        E 16 99 33 7f
        E 36 b9 04 22
        E 53 b9 04 12
        E 162 89 28 40
        E 63 89 33 40
        E 121 b9 04 00
        E 412 b9 04 12
        E 25 b9 04 22
        E 19 b9 04 32
        E 18 99 33 6e
        E 5 b9 04 20
        E 26 b9 04 0f
        E 118 b9 04 20
        E 168 89 33 40
        E 12 b9 04 27
        E 78 99 24 4b
        E 7 b9 04 15
        E 102 b9 04 03
        E 15 b9 04 00
        E 189 89 24 40
        E 169 99 26 45
        E 49 99 33 65
        E 10 b9 04 12
        E 22 b9 04 22
        E 9 b9 04 32
        E 30 b9 04 20
        E 28 b9 04 0f
        E 165 89 26 40
        E 6 b9 04 20
        E 44 89 33 40
        E 179 b9 04 0f
        E 88 b9 04 00
        E 360 b9 04 12
        E 9 99 24 4d
        E 34 b9 04 25
        E 15 b9 04 36
        E 6 99 33 6a
        E 7 b9 04 46
        E 19 b9 04 36
        E 14 b9 04 25
        E 218 89 24 40
        E 56 89 33 40
        E 46 b9 04 2c
        E 48 99 24 39
        E 43 b9 04 1a
        E 90 b9 04 09
        E 53 b9 04 00
        E 127 89 24 40
        E 183 99 26 48
        E 35 b9 04 12
        E 6 99 33 5b
        E 17 b9 04 22
        E 50 b9 04 12
        E 153 b9 04 22
        E 50 89 26 40
        E 43 89 33 40
        E 103 b9 04 12
        E 95 b9 04 00
        E 388 b9 04 12
        E 6 99 24 78
        E 25 b9 04 22
        E 15 b9 04 32
        E 38 99 33 7f
        E 3 b9 04 20
        E 29 b9 04 0f
        E 204 89 24 40
        E 37 b9 04 06
        E 41 89 33 40
        E 245 b9 04 12
        E 835 b9 04 09
        E 652 b9 04 03
        E 668 b9 04 00
        E 4228 b0 7b 00
        GUID {ECE9EE47-DEFA-4D55-B5A3-D523A5C38BB8}
        IGNTEMPO 0 120 4 4
        SRCCOLOR 543
        VELLANE -1 100 0
      >
      TAKE NULL
    >
    <ITEM
      POSITION 678.24742268041234
      SNAPOFFS 0
      LENGTH 3.40206185567013
      LOOP 1
      ALLTAKES 0
      FADEIN 1 0 0 1 0 0
      FADEOUT 1 0.01 0 1 0 0
      MUTE 0
      SEL 0
      IGUID {FB731C4A-FB78-4F30-AF86-79C814491C32}
      IID 25
      VOLPAN 1
      TAKE SEL
      NAME "02-EZdrummer-Recorded MIDI"
      TAKEVOLPAN 0 1 -1
      SOFFS 0.01969025410846 0.06366515495074
      PLAYRATE 1 1 0 -1 0 0.0025
      CHANMODE 0
      TAKECOLOR 33531238 R
      GUID {CE5177F5-E9EC-408E-8EC3-F0B0A5B7DDA9}
      RECPASS 9
      <SOURCE MIDI
        HASDATA 1 960 QN
        POOLEDEVTS {55910A77-4DB5-4828-B859-67756AA19936}
        E 194 99 24 7f
        E 15 99 33 7f
        E 298 89 24 40
        E 16 89 33 40
        E 726 99 33 5b
        E 314 89 33 40
        E 651 99 33 56
        E 311 89 33 40
        E 494 99 26 69
        E 80 99 33 7c
        E 233 89 26 40
        E 77 89 33 40
        E 671 99 33 63
        E 314 89 33 40
        E 673 99 33 71
        E 313 89 33 40
        E 625 99 30 7f
        E 21 99 33 68
        E 292 89 30 40
        E 18 89 33 40
        E 633 99 33 5d
        E 314 89 33 40
        E 522 99 31 71
        E 6 99 24 7f
        E 53 99 33 6b
        E 257 89 31 40
        E 4 89 24 40
        E 52 89 33 40
        E 623 99 33 50
        E 311 89 33 40
        E 649 99 33 38
        E 310 89 33 40
        E 568 99 26 7f
        E 78 99 33 56
        E 236 89 26 40
        E 77 89 33 40
        E 591 99 33 45
        E 313 89 33 40
        E 571 99 30 7f
        E 317 89 30 40
        E 641 99 2d 7f
        E 314 89 2d 40
        E 575 99 29 64
        E 84 99 33 2c
        E 223 89 29 40
        E 91 89 33 40
        E 611 99 24 7f
        E 28 99 37 68
        E 37 99 33 6a
        E 248 89 24 40
        E 28 89 37 40
        E 38 89 33 40
        E 602 99 33 21
        E 313 89 33 40
        E 642 99 33 2f
        E 311 89 33 40
        E 580 99 28 7f
        E 50 99 33 60
        E 264 89 28 40
        E 50 89 33 40
        E 649 99 33 2d
        E 309 89 33 40
        E 584 99 33 3d
        E 315 89 33 40
        E 609 99 2d 7f
        E 314 89 2d 40
        E 665 99 33 29
        E 314 89 33 40
        E 661 99 24 7f
        E 65 99 33 5b
        E 248 89 24 40
        E 65 89 33 40
        E 100 99 24 4f
        E 313 89 24 40
        E 236 99 33 4c
        E 314 89 33 40
        E 115 99 24 62
        E 310 89 24 40
        E 174 99 26 7f
        E 77 99 33 5b
        E 237 89 26 40
        E 74 89 33 40
        E 602 99 24 7d
        E 93 99 33 67
        E 220 89 24 40
        E 94 89 33 40
        E 108 99 24 4b
        E 314 89 24 40
        E 252 99 33 3e
        E 313 89 33 40
        E 176 99 24 6c
        E 311 89 24 40
        E 131 99 26 7f
        E 83 99 33 6b
        E 229 89 26 40
        E 85 89 33 40
        E 611 99 24 7d
        E 112 99 33 4f
        E 202 89 24 40
        E 111 89 33 40
        E 115 99 24 67
        E 314 89 24 40
        E 115 99 26 7f
        E 108 89 26 40
        E 3 99 26 7f
        E 308 89 26 40
        E 642 99 24 7f
        E 84 99 31 68
        E 3 99 33 7f
        E 227 89 24 40
        E 80 89 31 40
        E 4 89 33 40
        E 1508 99 33 3a
        E 311 89 33 40
        E 546 99 28 72
        E 77 99 33 4e
        E 236 89 28 40
        E 77 89 33 40
        E 553 99 33 30
        E 314 89 33 40
        E 540 99 33 3a
        E 314 89 33 40
        E 667 99 2d 7f
        E 31 99 33 53
        E 279 89 2d 40
        E 31 89 33 40
        E 577 99 29 7f
        E 44 99 2d 7f
        E 269 89 29 40
        E 42 89 2d 40
        E 604 99 29 7f
        E 12 99 2d 7f
        E 302 89 29 40
        E 12 89 2d 40
        E 625 99 24 6c
        E 313 89 24 40
        E 558 99 24 7f
        E 314 89 24 40
        E 552 99 26 7f
        E 153 89 26 40
        E 6 99 26 7f
        E 310 89 26 40
        E 593 99 24 6e
        E 314 89 24 40
        E 695 99 30 7f
        E 2 99 2d 7f
        E 308 89 30 40
        E 3 89 2d 40
        E 708 99 24 5f
        E 311 89 24 40
        E 605 99 2d 7f
        E 7 99 29 7f
        E 303 89 2d 40
        E 3 89 29 40
        E 695 99 29 7f
        E 10 99 2d 7f
        E 304 89 29 40
        E 6 89 2d 40
        E 578 99 24 6e
        E 310 89 24 40
        E 605 99 24 6f
        E 311 89 24 40
        E 643 99 26 7f
        E 117 99 28 7f
        E 196 89 26 40
        E 118 89 28 40
        E 564 99 24 6b
        E 311 89 24 40
        E 578 99 24 7f
        E 310 89 24 40
        E 636 99 30 7f
        E 21 99 2d 7f
        E 290 89 30 40
        E 24 89 2d 40
        E 832 99 24 5c
        E 311 89 24 40
        E 748 99 26 5f
        E 15 99 29 7f
        E 37 99 24 56
        E 261 89 26 40
        E 15 89 29 40
        E 38 89 24 40
        E 658 99 26 38
        E 19 99 29 68
        E 36 99 24 44
        E 258 89 26 40
        E 16 89 29 40
        E 37 89 24 40
        E 587 99 24 3f
        E 19 99 26 34
        E 2 99 29 62
        E 286 89 24 40
        E 22 89 26 40
        E 3 89 29 40
        E 574 99 24 42
        E 28 99 26 32
        E 3 99 29 5e
        E 283 89 24 40
        E 25 89 26 40
        E 3 89 29 40
        E 555 99 24 43
        E 28 99 29 5e
        E 9 99 26 34
        E 277 89 24 40
        E 28 89 29 40
        E 6 89 26 40
        E 590 99 24 48
        E 46 99 29 7b
        E 3 99 26 49
        E 265 89 24 40
        E 46 89 29 40
        E 2 89 26 40
        E 591 99 24 4e
        E 9 99 26 54
        E 10 99 29 7d
        E 291 89 24 40
        E 13 89 26 40
        E 6 89 29 40
        E 661 99 24 51
        E 6 99 26 56
        E 3 99 29 7f
        E 304 89 24 40
        E 3 89 26 40
        E 4 89 29 40
        E 639 99 24 52
        E 19 99 26 5e
        E 22 99 29 7f
        E 272 89 24 40
        E 16 89 26 40
        E 25 89 29 40
        E 649 99 24 55
        E 3 99 26 5f
        E 9 99 29 7f
        E 298 89 24 40
        E 3 89 26 40
        E 13 89 29 40
        E 595 99 26 4e
        E 44 99 29 7f
        E 9 99 24 57
        E 258 89 26 40
        E 46 89 29 40
        E 10 89 24 40
        E 623 99 26 72
        E 16 99 29 7f
        E 15 99 24 62
        E 280 89 26 40
        E 19 89 29 40
        E 12 89 24 40
        E 602 99 26 6c
        E 37 99 29 7f
        E 22 99 24 58
        E 255 89 26 40
        E 37 89 29 40
        E 22 89 24 40
        E 562 99 28 50
        E 52 99 29 7f
        E 22 99 24 60
        E 239 89 28 40
        E 53 89 29 40
        E 18 89 24 40
        E 562 99 28 5d
        E 31 99 29 7f
        E 12 99 24 63
        E 271 89 28 40
        E 31 89 29 40
        E 9 89 24 40
        E 546 99 28 55
        E 21 99 29 7f
        E 23 99 24 64
        E 267 89 28 40
        E 25 89 29 40
        E 21 89 24 40
        E 597 99 26 7f
        E 9 99 33 7f
        E 24 99 24 7f
        E 277 89 26 40
        E 12 89 33 40
        E 25 89 24 40
        E 4588 99 26 58
        E 18 99 29 6b
        E 10 99 24 43
        E 282 89 26 40
        E 21 89 29 40
        E 10 89 24 40
        E 609 99 26 73
        E 3 99 29 7f
        E 11 99 24 64
        E 296 89 26 40
        E 3 89 29 40
        E 12 89 24 40
        E 578 99 26 7f
        E 6 99 24 67
        E 3 99 29 7f
        E 301 89 26 40
        E 6 89 24 40
        E 4 89 29 40
        E 716 99 24 7f
        E 6 99 31 6a
        E 29 99 33 7f
        E 279 89 24 40
        E 6 89 31 40
        E 28 89 33 40
        E 4992 b0 7b 00
        GUID {52103501-173C-4604-BE36-420022180025}
        IGNTEMPO 0 120 4 4
        SRCCOLOR 550
        VELLANE -1 100 0
      >
    >
  >
  <TRACK {D6B4CDEA-29C6-49BC-8F74-82D447FABA0E}
    NAME Bass
    PEAKCOL 16576
    BEAT -1
    AUTOMODE 0
    VOLPAN 1.30343281883499 0 -1 -1 1
    MUTESOLO 0 0 0
    IPHASE 0
    ISBUS 0 0
    BUSCOMP 0 0
    SHOWINMIX 1 0.6667 0.5 1 0.5 0 0 0
    FREEMODE 0
    SEL 0
    REC 1 0 1 0 0 0 0
    VU 2
    TRACKHEIGHT 0 0
    INQ 0 0 0 0.5 100 0 0 100
    NCHAN 2
    FX 1
    TRACKID {D6B4CDEA-29C6-49BC-8F74-82D447FABA0E}
    PERF 0
    MIDIOUT -1
    MAINSEND 1 0
    <FXCHAIN
      WNDRECT 33 60 655 403
      SHOW 1
      LASTSEL 0
      DOCKED 0
      BYPASS 0 0 0
      <VST "VST: Guitar Rig 5 (Native Instruments GmbH)" "Guitar Rig 5.dll" 0 "" 1315522357
        NUdpTu5e7f4EAAAAAQAAAAAAAAACAAAAAAAAAAQAAAAAAAAACAAAAAAAAAACAAAAAQAAAAAAAAACAAAAAAAAAMYVAAABAAAABwAQAA==
        LWluLQIAAAAjTkkjQ1MjRG9jdW1lbnQjI05JI1NvdW5kU2hlbGwjU291bmQjAAAAAAAAAAAAAABFAQAAYXRhZAIAAABkbnNzYmlsehYAAAAQAAAAeNpjYmBg0PX00zV1
        z/QDMhkAEaUCJ2F0YWQCAAAAb2ZuaWJpbHokAQAAEgMAAHjanZJNbsMgEIXX9SlG7FNcKZWiChM1UptVq8htD0BsnKLYgACnPX7B//XCirJjPt6bN4xNtr9VCRdurFAy
        QQ/3MQIuM5ULeUrQ1+fraoPAOiZzVirJEyQVgi2NiFW19KJCjeZ1HCMaRQBEG6W5cYJb6ksPJKs43cSBwEfJNOyYtQQ3uFWw2n0rQ99UrmAnuDmzShPc0dATT5sGcGTy
        3PcPZ7qvhWMGUnGCNcENaoydMJwzVWn/DOl64wBm7pEv6eBg1Ew7KbtM5pwRx9oNyxhAW3tyYWXNadgJPFfaL6YF/XVtuVlZ7mh6eMJ4Ihsu2sZ41nk5qZn9qqC7UX9r
        4ktR8Mz9y7ve/M5/QEjYp4/LA091i4NOyvCRCB7+Zhr9AYzU8zBhdGFkAgAAAHRzcnBiaWx62hMAAFTRAAB42u1d23bautbuf9un8MhtBsWWz2vQ7pESSFJCEgI5rdEb
        Aw6o+BQfkpC33G/0y9jYkg0B0zZSu9N1sYItT32e5ylZEnfavf2/Dx8+HP/3w4fGf55ti3s0/QC6zuc94RO/x5nOyB1DZ/J572rQrml7XBAaztiwXMf8vOe4e9x/vnxs
        TPwadILQj2zTCWujaeTMuGEErXHNieyh6X/eA4ok7HEj1/bQg6iNZ4xmNThGnegqL+mKpoE97t43bPPJ9ZM7qHPb+OH6tQyQjK7Ake/mV+I20MHboF483wzMNV2E0Ea4
        +0bI9U2PE3gOgH8E8A9Af/CCsvfl40eOawRu5IxrYyM0hkZgchPLHRpWzTZD33Vce9HrFKJOarY7NlMQY4je23Ac00IdKnv1hBJijI9gYDxFXXDoX+MePtcydgQc4lMN
        hqYdoCZS2qbYiotfRtN5HnXoGPF7XHaypqhx3NAyQzO/lF5c/zQXRfHl6Vk0P3369yxoQZ2/cLWorfWvnj5/3sNJ4cRqkwiS99DdR2g+YSJGb+NZRmjWhoYz+7y3t+pW
        AiRWKtc3x7WYQspUaY8r/grg0EJ/3xtWYMYMJjqvv4INw21EY+jm4gB7pbfwjFgLQ9QC6b6BekTPhK5thEuFi0WVN1poHLKJEI6IhkKJMk57IQx4sJTEiRNb1cg8GIXw
        0UTvaljRQrHKNBCVWCkxBJxv2i7ipW08L8Asf8IF3PoKGPXs4dLb57eC9QxeMJHQsvwmpo/1skI2Mtv0wwxZo06o+SvKr+DaCydcx3WQTVoVjWAdldQYXmYdy9Ikg5/t
        g/tjIXR6Dy9ndI1BIIxBYNgY+DXGUGdRm8TVisCBqgq1nlCqU/uRf/b1/sdtNGv+OI86D/3n8HE2eXew7w6WLZPQ1mmyWDXRWE8oNYn63U1nfHbrjvno5MU6Vn+cnt62
        3nOOd5NgzCQApsgHC0meOBWNYSWJ1AwCLTpVTm+7d1e21ZreTr/9mPdvDt6zjb8u2xAwf4hKwooqVHw61R5J228ew8lNv3XUNu7mSl+fn50cvDvRsvYIZe1Rd3WimA/1
        opA7MqCT+89P8pt70BLAoyXAIyQr7typn9/fZwgF+vgGBL7BFBnW1LXGGBMZANm9XqLsGkF88dq1IhuLlJ80RRYVjT7S0yXQU2jD+GJB4jwDEJsZRvM+5JrJUBlLOnnZ
        xNLVaRnie2JULJ/xscSB4ZmH5mjGCVVr5zVU0gDX6uqXL/uHULna/+H32+HFy8HRde/vCXAheuMxemPBiEqol/diFStpTpXQuEtw1LcOjiVLsjJTd11vg/38AgvaYOYl
        eKGZqRsStpv7IJ4diH4G0TecwHMDk0E+RhnIyGEQn/e4xFcO3JKiCKzg9DOcl+bI9cfFPIMZoPACGzsw/ZC7cAMY+wX2ZG8FuA/i+iEKcQyiNAmULWdMXejrc44NWUd8
        e00we7MKWxKwXKIPEZQpKs24RZVWtd5+lVaanPAdW/02VZqXvKIOI8frgPAbTzc54YnkhGe4+hb4Xcvva36tY2eg9m4JS3StZ3TNMayl0rBT65yCvGJEpa3DUqXYFbOy
        OwpNpmpYCa9hmapdZaJ2ZQlaW1lCa0MLXRS4JrJ2tgYn2iqJERQxssBHjcTIlGHoeR6DivevN/8jgyYEgWCZI9Rg7O5ra9r9XDT7Kc6t5drPR7A3wVUhar0Jnq0j1dtw
        Z9vo9CZoto9IbwJnhyj0NriqR563wbV9tHkb5a4QYX4HoEZ9K/eOni5f3r6AlfCh8MhBbK9WtJafTwvVS08Y9se9432+czG9fLi5uzp66NItVAFRqAKGC1Vl1zq17WZG
        5PozlhK2QTaSN0Bs4y5gOJpm+BSdPsAg9EdOmA2/hL47NOvN+Et5ltg49qoO078pPP8+H1i+N33TGeXwJIkBgEE3H2CzYifWRc7gz6sd4qm62Ntyy0G3OpXRT/wrs266
        VsWsOuy5mkgaRuat+b7mnEzmV/sD+Vv76iSwnflf9GX8coWPEXEjK149dA9jSs1/vl/47gRpBoeyITP43nRt23XSH2dG/P0kd5Ktfwq+H0UwNHwu/uxVRo0dVKuE3zNu
        frfcJ0T+0fz0ZDyi17Ug6mkIQ9sIZotXSK78nr6nEOvajqwQelbCuITHUh2VEUFsjSMzB1WL5+OdcbyQC92OPC/5663npOXd56QvnrIp1a0+h6IwG9R3Mm84d0bs4RvY
        3pqJc11iBWM3WlmSM8PDa6vi1AXjM365x/y1g2lLuniZlfrFxDMj11TLHCbhxzDnlbaQgC7pigp0eQsv9jNK/3sqz1W8+GUlp4IvhjuwvQPHsOZB5cpzLZk0c7DFC0G6
        UDvirP909yDN7g9/GIfviz3+vq/cZRlThIsFqeX3LNU06hVCqU7d9g6nIjzwurw57I2aE3MczY4n77PvvziVKiZS1+sjGM/APNlhhu/Qn2/3KdWb4rvJ8N1gGs0Ovu5t
        lkHBZ5aAXdxi3oCLF8FwCCF0Jv+Lk40LkjW3wjRjRbt9k1H9irb6NpN6W+r/m4DZReffBFhFL/Z7EuMNRvCTmbHKr1qYUHVrgHVU0hxmXD8KjKE9G/AR/63zr965HIR/
        U168/CIUsLa8Qdl9KOlP+a6c8WUYsI8Pd3EDl0uW2b1/TP7XfEz+xyx1+CVfvQM6X73r+AK6dKVq+7ZimFpDJI1SV+d3vtA7sW5aiv3VbmkttXv18r57zZbfue9caVec
        smBzZjS/O3Kd0IDxPOkomZaqLWQGLRjOs3GvfEu8VZkgknZkLTg4HnLQQbTyjf+kJQF0eRQ3CTKiiOk+shvffUquYfIt9jB1gxATFOqmJE/pt8/vFi6mHG84rlNbdaO8
        3wj5IdDQ5JroPuo9cLMR2e6JYt5edbuXl+e9+8AZgfaN3CRter09b7Dlo0vpFXM+OTsZbDZpfCo39CPCotda87aWvIMVrzZj/vXZgyom/DYVdx6B+0YY+Qa5fO+TzKu6
        SgfaiUPuqsHK19CDaWZJK/ap0EVNkSh9YhvmO8IgMeJliIjkSAdUJ5NixzFx6QEZaDolpZ9noNCfhg1H+EYjPBApCfAgzCSI/lzs6pPDUnmBll5ZeZJumQb+TdsnRVAk
        kQ6s8yjjFvpzpYdQgLLYw5cCuj6+VLQ5JXYEeqPhsFUZ2trsbEXWUkgiRHwC7nwWGo/5dO7JuXTjPgOtD+bm9Ovd+cu1tX/fe08eKu2l8aflDs2Dfh/7JNf0TZf2MPRh
        5tehj5J+2hxys8/ozkexvcTb2NBlkAsKiABtRM2MR8lKF5xHtFK8SzMQ8pgXuE68LyYLwJqgwCzABLNAmVlvD+yXBzwZr5q/GkHAXfhutkP+pXp3Zo9e3BkInWZd1MX2
        D+GXlcsy144nG9dGPY2HZsD1LcPjYmCb19MwFgCB9B4Bfw+k9bP6CtJnSkUgtv0ksTOmqAIB0M4UfHy3Y0qK9BV3M/hogizolNx6N//sAR/fACoAlLTIbmOQuLZvPkSm
        M5oT1SitwapBvvDLHFrU9SnKdgC9skLf4E5d2oiGmev+6rOwADw6Jjl0DGkjmrQyL+kb3hSOuFaPNiYpy38knjt+wUxN1akNregZKL0ISpN4SoNkgpahQn+SsCRN1CmF
        OTHPYNGfBVg6oDR0J+eo5CIqQRd0SoqV1XwCNyMwiUChxKmssgIFSAqQNUo+IXMJJS6pOi3ry42PL6ASBEGnxCmzl02utXor5q94jRK7jqQsuzu6lDatsv4jinUkZaxa
        b6aHy1y6ro1X7bOmwIPnwB7P9q97Z2ePQFQk/+CXVe07jFOv3/aChXFq+a8o0/Pt8E3Dp75L1PqvRSVd1CjVLxMBL9GJoU4V8Cql7GUCCFT4mKKGvDqlmDwRCVQi/SHY
        iUQgkhhAJBOIZAYQKQQihQFEKoFIZQCRRiDS6CPyMr90YTgszMB4AAfEwPSLJ+KAGHBGnoQDYsAXeTIOiAFX5Ck4IAY8kafigBhwRJ6GA2LAD9kCvo8I/Xl8GxB4qM/i
        28TWp7gbooRHIvBI1PHIBB6ZOh6FwKNQx6MSeFTqeDQCj0YbT/49St+1XPr+J//kY4GHuv8JRAIPdf8TSAQe6v4nkAk81P1PoBB4qPufQCXwUPc/gUbgoe5/PJgXYlPU
        34nzSN8JeRCUQAH6oMQSKJE+KKkESqIPSi6BkumDUkqgFPqg1BIolT4orQSKvp+akn6KASc1JZ0U5qEEWohID8WAe5qS7omJUaMp6Z2YGDiaks6JibGjKembmBg+mpKu
        iYURJD9fURBPSjMwlO0DAhEgPuXQVUqLM32RQMXAgLYvEYgY8E2+TCBiwDP5CoGIAb/kqwQiBrySrxGIWPBJNumU2Bjb9m1QRgXooxLLqET6qKQyKok+KrmMSqaPSimj
        UuijUsuoVPqotDIq+qPgjC22MrLtGiD1E9GGa5YQUQot4ZoFMfSWzhrDfKWxMYSOGWKhDlD6wq0LR/nMMhzRD77dCzcgEKHf9FEhgYGi8PKMgNaCNMQegLMKsCA8UBQe
        YEB4YlF4IvVtneFIxDklsiA7sSg7kQHZSUXZSQzITsI5JbEgO6koO4kB2clF2ckMyE7GOSWzIDu5KDuZAdkpRdkpDMhOwTmlsCA7pSg7hQHZqUXZqQzITsU5pbIgO7Uo
        O5UB2WlF2WkMyE7DOaWxIDutKDvtT19CCPAzy1o97iIh78fbQybLB38Aa3rbCh8G4v7L/ZVwHJiPnfYTO9vc8WwtH9T+itWD1+76MxpFWRYpLVZvZ1V6vBMKMZ8oLv5R
        Wlq8fiGhsPhHB1Yvg9WjP5rRBoToiIlXHv1HSXLrF1sKsqZSQtUDueDAH79IXcMizCm0YZhvocrfvnx9eJDvenp0+twOW9PmiX/ae48tlc4r/ONWptuENhB7xkiiSmtH
        x8J+z9wAsrDxerZj07FrjRnBdF3h+GYWXVSjvvoQiUZ94td8YzT78jH+5ZuGFSKGj5J9NcbD3JCXltNI71mmPzZCY/Gu6NI9nCyP4UjvokfyWII9xVnuaJYc0ZEoX4e7
        MMeGhdn+4m6MxXyMX22RtGtSfBKD5SY/0f3QnUwsk2Dh67104Gh26D45GzriUQjMOxLyjoRtO+o/wXA05YTXOxJ4Scc6Art3BDZ0JPIy1pG4e0fiho5kBZeRtHtH0oaO
        NEHFOpK37EgodyQTHQklZcAZp+Dd4Me7ZJ4it0bi+GL0v8e9NN4l55Ybz7UsIHHIEdSyfIdLojDi9IJsdhJSeoZM5Fvxr9CYxGcfIntOfvkTM7eL5NfyweXPyB7GNlnD
        OVTPWVSJa8oGrmm4Gqi7su3MfA4rsg0wyLZB5MTZ32sMk0VcnbXKDEu7qMQqnmRVH1px9ppsEbUl15J9kwnGBd0S636Fwmmv80/VcZetV+Zf10QIHDeO6z/Dw4Hhbc07
        AZSZN/B+nnm4M209o5d1DCuJr5viERABHo+EXUJsoccNgQnIGu5fBaFqj2eoGEq3AHu9Jwnokq6oQCf6Ayv6w7lcyG/SBoZpGXOEZYtsJxFmKc+JEWApzFKX6psezxOY
        hIJAUhA2U8gzk4QC2JUCWFIQd6UgLilIu1KQlhTkXSnISwpKkQJR2i5ILFSLcA9poC4baNLblhiUJQZ1ZwxgNwxp1Eh613blobakoFemUPZPqV5XN42y40lJCdVIER4l
        JQHWkGjUU1eQ/vxthxQ2kopxRVEm7ZVHoGqJ27NgEJpOXH7GnRSukeMyjRxWLfZ5OX3yg6tGyqq8qzwLyD1hDU9ktgynFXKIVMdxvL/qTdKYvOpV9N1e5fWI/sqr4JV9
        QXZZk8AxvGDqhviAQHZtIfXs19rTLxv1ApVGvaBs6eWtzsfMqKYNFwN8edqVP55xA8jqcmBU0vabx3By028dtY27udLX52cn8Z6d9epkRV7Jxls7tvptqjQveUUdRo7X
        AeE3vrcbWcBvPBZkF6pKdiz8pScM++Pe8T7fuZhePtzcXR09dHcEK6CEZNN85g5k+Y0Hie7CAj3DOq4fBcbQng34iP/W+VfvXA7Cwx2xCmDjwWU7URU2DubvwgM109lW
        V7982T+EytX+D7/fDi9eDo6udyQrauLG45x3ICuBjXvt7sIDOePBbe9wKsIDr8ubw96oOTHH0ex4V/XStCXZeWu+rzknk/nV/kD+1r46CWxnjqlXo17ydMk4aWloNBkx
        RX0ai0iT1n3owamLukSFtMt9haY/M+y8KkRO3UbOHBuZWJ7zE5IH/aRg4vJxFIeiRYTIXhxdXqY+F//U64sziw5sL8hfovxgo76EmgBH3EjLG+7e9W3bcIxJzKvFnE9K
        ZhJBFL18OMFaTPDyeeg+1woHcHOWeR/W7mNp1MiJJM6Cj2Y6y5S2dWBtlvCzRCaumk3fdEZmUIu7RxKepCU3dmfFUzFXU6xFAPFAd+kanKQQEBfhxLGzA6oxsk/QGaP8
        DL6YtXgMn+dF4tocSVCUV+RiiD8x9pxjCT4Md5pvLM7HJq6ihoj00PBrnhvAZNor3uUfy1+N0Jy4/jw/YBtLBJZ1a3rydjCKMxqMFDmDltNC78ZzED1IYKyvbSxUaQyq
        NBarNJaqNJarNFaqNFarNNaqNNYrNBaqSFCoIkGhigSFKhIUXpdgo04qNJYnr7WChheb+7txUDOO9UJbJZlGfXW4SYJXHq6S8GWgwIaiyWJ81QinXPo79f+uPzb9ZfRH
        sd93UR0Xjwda8RPpKX+LiEmM0C6iafwGcQ84Kejg4bT+ZTFtCp0AhZBFvBhNI2f25eP/A52W1V5hdGFkAgAAAEROU1NiaWx6FgAAABAAAAB42mNiYGDQ9fTTNXXP9AMy
        GQARpQIn
        ADgwdGllcyBTbGFwIEJhc3MAEAAAAA==
      >
      PRESETNAME "80ties Slap Bass"
      FLOATPOS 33 60 1035 897
      FXID {C2BF826B-A9F3-4DDD-B933-9DD295B68443}
      WAK 0
    >
    <ITEM
      POSITION 50.68872711971386
      SNAPOFFS 0
      LENGTH 162.63475173574568
      LOOP 1
      ALLTAKES 0
      FADEIN 1 0.007784 0 1 0 0
      FADEOUT 1 0.007784 0 1 0 0
      MUTE 0
      SEL 0
      IGUID {09417FF2-BDCC-473D-8AAF-85B92D3A4B70}
      IID 3
      NAME D__Recording_02-Bass-160910_2024.wav
      VOLPAN 1 0 1 -1
      SOFFS 0
      PLAYRATE 1.28476821192053 1 0 -1 0 0.0025
      CHANMODE 0
      GUID {8B661BB2-A137-43F3-9D0A-383012200AA4}
      RECPASS 2
      <SOURCE WAVE
        FILE "D__Recording_02-Bass-160910_2024.wav"
      >
    >
    <ITEM
      POSITION 213.71131273815368
      SNAPOFFS 0
      LENGTH 303.541822357809
      LOOP 1
      ALLTAKES 0
      FADEIN 1 0.007784 0 1 0 0
      FADEOUT 1 0.007784 0 1 0 0
      MUTE 0
      SEL 0
      IGUID {FB2DA69D-3DA7-48A9-BDA2-D1CA2B56E9C4}
      IID 7
      NAME D__Recording_02-Bass-160910_2030.wav
      VOLPAN 1 0 1 -1
      SOFFS 0
      PLAYRATE 1.28476821192053 1 0 -1 0 0.0025
      CHANMODE 0
      GUID {35856797-DC45-4070-BC51-42D1D39E982F}
      RECPASS 3
      <SOURCE WAVE
        FILE "D__Recording_02-Bass-160910_2030.wav"
      >
    >
    <ITEM
      POSITION 534.43298969072157
      SNAPOFFS 0
      LENGTH 30.30927835051557
      LOOP 1
      ALLTAKES 0
      FADEIN 1 0.01 0 1 0 0
      FADEOUT 1 0.01 0 1 0 0
      MUTE 0
      SEL 0
      IGUID {E2A069F1-F687-4E86-90EA-BF1C6E261A54}
      IID 29
      NAME D__Recording_03-Bass-160910_2205.wav
      VOLPAN 1 0 1 -1
      SOFFS 17.01031395376015
      PLAYRATE 1 1 0 -1 0 0.0025
      CHANMODE 0
      GUID {A70BCCA7-5420-480F-89C5-2C3A547A76B0}
      RECPASS 10
      <SOURCE WAVE
        FILE "D__Recording_03-Bass-160910_2205.wav"
      >
    >
    <ITEM
      POSITION 573.40206185567013
      SNAPOFFS 0
      LENGTH 105.15463917525767
      LOOP 1
      ALLTAKES 0
      FADEIN 1 0.01 0 1 0 0
      FADEOUT 1 0.01 0 1 0 0
      MUTE 0
      SEL 0
      IGUID {EB4D9632-1944-4BC0-94B1-F90F2881BD80}
      IID 29
      NAME D__Recording_03-Bass-160910_2205.wav
      VOLPAN 1 0 1 -1
      SOFFS 55.97938611870871
      PLAYRATE 1 1 0 -1 0 0.0025
      CHANMODE 0
      GUID {FDAF6A15-4835-4A96-B70A-729F519D26FF}
      RECPASS 10
      <SOURCE WAVE
        FILE "D__Recording_03-Bass-160910_2205.wav"
      >
    >
  >
  <TRACK {0974CC1A-9F6B-45F3-92BE-82FD775AEB7B}
    NAME "Guitar Direct"
    PEAKCOL 16576
    BEAT -1
    AUTOMODE 0
    VOLPAN 0.78736664651321 0 -1 -1 1
    MUTESOLO 0 0 0
    IPHASE 0
    ISBUS 0 0
    BUSCOMP 0 0
    SHOWINMIX 1 0.6667 0.5 1 0.5 0 0 0
    FREEMODE 0
    SEL 1
    REC 0 1 0 0 0 0 0
    VU 2
    TRACKHEIGHT 0 0
    INQ 0 0 0 0.5 100 0 0 100
    NCHAN 2
    FX 1
    TRACKID {0974CC1A-9F6B-45F3-92BE-82FD775AEB7B}
    PERF 0
    MIDIOUT -1
    MAINSEND 1 0
    <FXCHAIN
      SHOW 0
      LASTSEL 0
      DOCKED 0
      BYPASS 0 0 0
      <VST "VST: Guitar Rig 5 (Native Instruments GmbH)" "Guitar Rig 5.dll" 0 "" 1315522357
        NUdpTu5e7f4EAAAAAQAAAAAAAAACAAAAAAAAAAQAAAAAAAAACAAAAAAAAAACAAAAAQAAAAAAAAACAAAAAAAAAB4QAAABAAAAAAAQAA==
        LWluLQIAAAAjTkkjQ1MjRG9jdW1lbnQjI05JI1NvdW5kU2hlbGwjU291bmQjAAAAAAAAAAAAAABFAQAAYXRhZAIAAABkbnNzYmlsehYAAAAQAAAAeNpjYmBg0PX00zV1
        z/QDMhkAEaUCJ2F0YWQCAAAAb2ZuaWJpbHo3AQAAiwMAAHjanVNBbsIwEDyTV1i+U6cSh6oyRhxapEpIEW1PVQ8mbMBqYkfrDSq/r0NCCEhQxM07ntlZj205+S1ytgX0
        xtkxf3yIOQObupWx6zH//HgdPnHmSduVzp2FMbeOs4mKpHeVDaTMHcWjOOYqihiTJboSkAx4FcoAWF2A+pq7FaBlM9RkMgP4LcV+o+HoijYO1Rsg7tg8TTahr7NStHjd
        V/Qb18BS25+DR71Ws8qQRrYwazaSYg/thS2xXqeuKMNRLB2EHXCmPuLXeCxBd8btla2nJkKzrKgLpAOaOiBbnVegpjmFiEI+W5CigQ6EygMOPZBaJM9CvNMuBz844XeM
        xkOcmVw0fckySOnE73Zxd5vX520jmxalH/Qk947ca3ez7/1uTdi3XMg/Hr2yfhlSdN9IRX/FMB3FYXRhZAIAAAB0c3JwYmlseh8OAAD/iQAAeNrtXVt32roS7nntr/Di
        tcvF98tepHtR0lzakNCQ6159EaCAim/1JST9B+f3nj9w5LsEOGAnxW53+tJgyzOfxjOjGWkkMyf9m/+8efPmf/9986bz94NpMPfQ9ZBt7bX491yLgdbYniBrute6vDhg
        tRbj+cCaAMO24F7LslvM3x/edqYuiyzPdwMTWj47ngXWnBkFyJiwVmCOoLvXEhSJbzFj23Twg7iNA8ZzFk0wE13lJF3RNKHF3LnAhAvbje9g5ib4brtsBkjGV9DYtfMr
        YRtkkW0wF8eFHixg4SMT4x4CnxlCh+E5RhD+4oW/BPwHxyutD2/fMkzHswNrwk6AD0bAg8zUsEfAYE3ou7ZlmxHXGcJMWNOewATEBOF+A8uCBmaotNoxJSwYF8MgZIpZ
        MPhf5w49sJk4PAbLiUU+ND3cREraLLdiws5oOsdhhhYI+3H+JWuKG4cNDejD/FJysfhpJgjCyx+R2vsCfs6vLn8Ijwcyb+6f/gyme3stkhRJjJ0GiL6H794juCBeMe6N
        YwAfsiNgzfdarXW3YiChUtkunLAhhUSoUotZ/uWhkYH/vgOGB0MBU8zbT2AjcINgguz8dQitlV44INRCH7fAug8wR/yMb5vATxUufFV5o0jjsE34aEw15Fcok7Sjl4G6
        6Zs4tkKrGsPu2Ef3EPcVGEGkWKs0MJVQKQkEjAtNG8vSBA8RmPQniuC218BoZw+v9D6/5RULOBIipWX5TUIf26sK2cls0/UzZJ02peZPKL9Cai+aMl9sC9ukUdIIiqgk
        xnC4Pz88GlwK4sdD2Zp2zz/3ffesW6sx8JQx8A02Bq7AGNpN1CZxvSIwQlmFKiaU6JR4/Nh+4MzehIPvhvvt4EAejA67rw721cE2yyS0Ik0WywYaxYQSkzi4M24l99QU
        5sG+++keqfsH5+9eTeLVJBpmEgKhyN3oTR5bJY1hLYnEDARZ6k/EK+czBw/ko4Hvo6t/bhev0cYfF23whD/EKWFJFVp+OtEe//tidPTl+sblDqX2PXQOpjfj41cnukZ7
        +FXtUas6UcKHOoHPHAJk5f7zvbxzD7oC8DAFeIjfFXNmtc/u7jKEfP34Lih8FzNsWDPbmBBCbADI/lWKsg+88OKVbQQmMVK+1xRZVLT6kZ6kQE+QicKLS2+cawDEXoYR
        3vlML54qa5JOnveIcHW2CvE1MFpOn8m5xAvgwH04njN82dy5gEoywI37qivrcHY2fwwOf3QHXw/Ozvk/aIDzcY8nuMc8CFZQp/dCFVvRnDJDY5XBUV87OBYYAW1JRmbq
        tu1ssJ8XsKANZr4Cz4eZuuGXbec+iGsORDeD6ALLc2wPNlCOQQYysBqIz7lP8a0O3JKi8E3B6WY4z+HYdifLcUZjgKIBMXcAXZ8Z2B4K/ULz3r3hkT6IGfp4iGsgSkih
        /GRNan/pxTHHhqgjvF0wmO0sw5Z4IpYYIgxlhlMzJsrSyubbT9JKghP+qDv1r5Xe/vzwAZ44t5fG6dW7epdNOSo44RqcffPc1hHGktlccYWOvQG59yc+RffpAV+zgJEq
        TXNynRMhzxhxams1KVPsi1naHfiwUTmsROawjcpdZSp3bRK0AyWFdoAMfJFnetjamzU5caDSGIVljE2Qo0ZjbJRh6Hkcg5P3j9f/kkkTioCXxggsCt09W9DueaPZsyRX
        KLXnj2A7wVVi1NoJnq1Hqt1IZ9vRaSdoth+RdgKnwii0G1zlR57d4Np+tNmNcpcYYX4FoE57K/eOn169vH0CK5FT4YGFxV4uaV19PklUfwS3/sI+78JPPesfXf7iTK5P
        vXpn0QUqURUanKgqVfPUAzszItudNylgu8hm8i6w2JgB8sezDJ+i1w/Q892x5WfTL75rj2C7F1bKN0mME6fsNP1O4bl3+cTyHXShNc7hSVIDAHr9fILNCJ1YHzuD3y93
        CJfqQm/LpJNu7VpmP8kqs36yVwWWnfZcTyQZRgzt80S4PJq3LxUkide96f6+3v3659SqpTt8QMCMjXD30B0KKfX++jZw7SnWDAZHQ9D71rNN07aSH6cgrJ9kjrP9T963
        wwD5wGXCslcZN7ZwruJ/y6T5zbAXmPw9fL8A97i7BsKcRsg3gTePuhBf+TW8Z4hgbQaGjxwjFlwsY6mN0wgvtMYxzEGx4Xq8NQk3cuHbgePEf+16TVquviY9WGRLqluV
        Q9WwGjS0Mm/4aI2bh+/CdAoWznWpKRj7wdqUvDEyvDJKLl00fMUv95gvO5mW0iXTrMQvxp4ZuyY2c5iUHyOcV9JCEnRJV1RBl7fwYs9R+l+Tea6TxYulnAq5Ga5rOl0L
        GI9e6cyzkEwSOezbPx8uOYfvXQp9YPEnD9c8r319rVP+46rcZZlQhEFEKq1nKadRTxBKV9/14Um/ezy7vwT+uaL33e5Q8V5X3186lFoOpK6avPi+n6Hbdx+3K6TaKb7r
        DN81oc/Nwde/yeIn9NAkYIMbwhcw4RYYBiNE1vTfuNQYkWTtEouMpax2JzP6JS11Nwt6W2r/TsBU0fidACvpw35NULzBBJ4ZFavcuk0JZY8FKKKSxC/tn9e3i3/evbua
        oxF/ap3MLOWst/jztjYITdvaoFSfRvpdasobvgUDDcmpLubCZuItdq+F5H9MIflvs83hRSrehXoq3nVy81yyS/XgpuQwVUAkzbLHjsFd3U78uXK03z7zD4+E0XTxOnOz
        XY171R3mZZcrmrkqmt8d25YPULhGOo6XpNjonSED+Y/ZnFd+HN66SBC/7cCIJDgZMcjCtPJD/6SUAL48Dpt4GVEsdBfbjWsv4mvE+13mMLM9n3hRmM2aPQu/em136WIi
        8Y5lW+y6G6sruORM7KGLe3KH8nnYT+LxVXc8+To8g1eXEB7fng2Ob2hrLrbk6lZ8fHp8sdmSydVb3w0oQy404m0NuILxSlvFic+w3J2ka73ucEhU0kAX2rUXzuJBhh5w
        6hbSoZWfSEEd5iGqMqe+LCb8uBt6qdAu2WlYUej5LgSR+8LKG0J6wklt2aGPWdz6EXhE0dR7ledVoabXjib5/Ap52IegK4JeD6YLd5TXcMGRQWd0nFaTqAauR619kKVb
        3HuFlxWxHmBXIHNv+E8ExgQsSdeVmux3OM08HKh9guzcc/JUx8ODk1f75oCs0G5Dhd1OwHxEIPdO0d+5d9IlvSaTO/qZWZy92PmItD7ILgyw1wSeqweGEYFgLzl98dy2
        zTQWDM6+z/TRNTgHZ+7d9899cA6nare2WLC4ILwBsaCo/xGxYPHspSrjMaUeUFOejL3Co3/ygU4WZammkW4qULCEur3mVKTwiOTL4zhVU2uCJVGwpNrFJFN45NrxKBQe
        pXY8KoVHrR2PRuHR6sbjZN5oAGhnJGmcyNe0Wu4IJCqBQqXxWk3JkyOSqEQqFVC4ulIURyJRSU1BJZOo5Ka8QYVEpZBlITyv8TWFKY5KolKbYoMaiUqrv4TG5Mlid9JX
        1YRHoPDUHjGZ1P580j/VhEei8NQeKpkyhaf2UMlUKDy1h0qmSuGpPVQyNQpP7aGSl/mfoW3Y9fsfT6Dw1O5/PJHCU7v/8SQKT+3+x5MpPLX7H0+h8NTufzyVwlO7//E0
        Ck/t/icvIoN+kFe51TR/7DVskRVk27FQ7ce3jAoWI2sKnP3CJT/5t5js77TXl4N02sn3JuOPT7oQGOH3Lsfx5P9ktOYzlMk9A7rp5y7DZeg7NE0LapK7+JE8cSaeYgx7
        PI+LbZJvSjIDOAEGMYUe3Q2xwPuwa9FHb7Twa6CeYfvplz59ezo16MMTnubyBY3n+/bC2sCIU0WCEV+B0XARno7C8E8z4jlJJxgJOSO+JCNhAyORkwlGYnVG4gZGskK+
        I6k6I2kDI41XCUbyloz4VUYyxYhfUQZScArJhizUyjxFbo3UJkT8330rWTaKdx+DBzZb1gk/R8tmzjY5EQRLOiKb1TQm1WCBa4S/fDANdzFge45/uVOY20X8K30w/Zl8
        VZclJdTORVRKasoGqWmkGqhVxXYKH/ySYhMaKLbkWK2nBCaLpDprpQWWsCglKo4WFXWczpZSiw8PowQXns+zJLqXUDjtafmpOumy9dLyI46teY4ML4CzteySY3Mo4V04
        zxce6Uyzszij8XXTeCSIAjke8VWG2CWOGwYmQdZI/8qXHmtP4YLppZ/ifUpByPMccn5CeUMjvjbzHE0ZGOBxa1VJvndDqYpjlFMV8spS2JY0ABBjwl3eIoiLGa+Eb6Fg
        ichs5WirosfzuCymwJemkAdcMQWBpsBvTUFIKYhVKYgpBakqBSmlIFelIKcUlGUKVOFLRCLSSkqXk/hjVZlibltiUFIMamUMQjUMyWAYc9eqylBLKeilKay63USvy5vG
        qj9NSJW0EcpRJiSKjKTTTlxB8vOX7aLoxInwmlxTaq2WqLGxNzeic5zDrDpksnQt1FtavRJYbOjzcvp04UsnEVXOKg9uck/IkvHZlr6/RGiU6DiJ96V6koQa67qiV+vK
        04HKL+xKMhSu60qoz1X68vRI+kRfyMmXJT3MmngWcLyZ7ZNzNtm1SIOzX4VbjTrtJSqd9pLhJJe32oyUUU0aRqWMecCTP55Jg9u4E6hdnqggqxs/SFuJrLLxrJ8KZEVO
        2fgBnypodXHjzv4qZBVh4ynOVYSgiRt3eFZBq2kbDwutQlZVNn4QsgJZXtxYC50Noyv2GE+4rsyxxlOvmCUI3Us7/ol5JGE6c2e7pgksMA0BZPtVw0Yg+hA7G2UOwJ8x
        ye8kr7DdCQ4eMp9GJxgJBbIpsqZ4JMdeNfJ17Q/R3DDKDgplx7PAmn94+39icf5pYXRhZAIAAABETlNTYmlsehYAAAAQAAAAeNpjYmBg0PX00zV1z/QDMhkAEaUCJw==
        AG5vIHNvdW5kABAAAAA=
      >
      PRESETNAME "no sound"
      FLOATPOS 1323 105 1035 897
      FXID {79E8EB41-2883-4FC6-A30C-3CDEB041B191}
      WAK 0
    >
  >
  <TRACK {BA9571D5-CFD4-47FD-ACF8-F5906FAC9766}
    NAME "Guitar 58"
    PEAKCOL 16576
    BEAT -1
    AUTOMODE 0
    VOLPAN 1 0 -1 -1 1
    MUTESOLO 0 0 0
    IPHASE 0
    ISBUS 0 0
    BUSCOMP 0 0
    SHOWINMIX 1 0.6667 0.5 1 0.5 0 0 0
    FREEMODE 0
    SEL 0
    REC 0 4 0 0 0 0 0
    VU 2
    TRACKHEIGHT 0 0
    INQ 0 0 0 0.5 100 0 0 100
    NCHAN 2
    FX 1
    TRACKID {BA9571D5-CFD4-47FD-ACF8-F5906FAC9766}
    PERF 0
    MIDIOUT -1
    MAINSEND 1 0
  >
  <TRACK {0252A555-2EAF-4891-8D51-F507C83FDC1F}
    NAME "Guitar B1"
    PEAKCOL 16576
    BEAT -1
    AUTOMODE 0
    VOLPAN 1 0 -1 -1 1
    MUTESOLO 0 0 0
    IPHASE 0
    ISBUS 0 0
    BUSCOMP 0 0
    SHOWINMIX 1 0.6667 0.5 1 0.5 0 0 0
    FREEMODE 0
    SEL 0
    REC 0 0 0 0 0 0 0
    VU 2
    TRACKHEIGHT 0 0
    INQ 0 0 0 0.5 100 0 0 100
    NCHAN 2
    FX 1
    TRACKID {0252A555-2EAF-4891-8D51-F507C83FDC1F}
    PERF 0
    MIDIOUT -1
    MAINSEND 1 0
  >
  <TRACK {5BF75D34-8B61-4DCC-8782-7990F470CFA3}
    NAME "Keys Left"
    PEAKCOL 16576
    BEAT -1
    AUTOMODE 0
    VOLPAN 0.15961385577814 -1 -1 -1 1
    MUTESOLO 0 0 0
    IPHASE 0
    ISBUS 0 0
    BUSCOMP 0 0
    SHOWINMIX 1 0.6667 0.5 1 0.5 0 0 0
    FREEMODE 0
    SEL 0
    REC 0 2 1 0 0 0 0
    VU 2
    TRACKHEIGHT 0 0
    INQ 0 0 0 0.5 100 0 0 100
    NCHAN 2
    FX 1
    TRACKID {5BF75D34-8B61-4DCC-8782-7990F470CFA3}
    PERF 0
    MIDIOUT -1
    MAINSEND 1 0
    <FXCHAIN
      WNDRECT 1219 168 655 403
      SHOW 0
      LASTSEL 0
      DOCKED 0
    >
    <ITEM
      POSITION 0
      SNAPOFFS 0
      LENGTH 213.32347885545968
      LOOP 1
      ALLTAKES 0
      FADEIN 1 0.007784 0 1 0 0
      FADEOUT 1 0.007784 0 1 0 0
      MUTE 0
      SEL 0
      IGUID {F9DEE2C5-1C0A-4F32-AA7F-30AD26C5DB0A}
      IID 4
      NAME "D__Recording_06-Keys Left-160910_2023.wav"
      VOLPAN 1 0 1 -1
      SOFFS 0
      PLAYRATE 1.28476821192053 1 0 -1 0 0.0025
      CHANMODE 0
      GUID {5F3C0720-D08E-4C82-8D07-47ABB8F0B7AF}
      RECPASS 2
      <SOURCE WAVE
        FILE "D__Recording_06-Keys Left-160910_2023.wav"
      >
    >
    <ITEM
      POSITION 213.71131273815368
      SNAPOFFS 0
      LENGTH 303.541822357809
      LOOP 1
      ALLTAKES 0
      FADEIN 1 0.007784 0 1 0 0
      FADEOUT 1 0.007784 0 1 0 0
      MUTE 0
      SEL 0
      IGUID {BF57B029-FA6C-4215-AD39-D1CD462A2625}
      IID 8
      NAME "D__Recording_06-Keys Left-160910_2030.wav"
      VOLPAN 1 0 1 -1
      SOFFS 0
      PLAYRATE 1.28476821192053 1 0 -1 0 0.0025
      CHANMODE 0
      GUID {1A1D6E0A-AC6C-48A6-BBFB-9259930304FB}
      RECPASS 3
      <SOURCE WAVE
        FILE "D__Recording_06-Keys Left-160910_2030.wav"
      >
    >
    <ITEM
      POSITION 517.42267573696142
      SNAPOFFS 0
      LENGTH 188.78142857142856
      LOOP 1
      ALLTAKES 0
      FADEIN 1 0.01 0 1 0 0
      FADEOUT 1 0.01 0 1 0 0
      MUTE 0
      SEL 0
      IGUID {BEBEE603-A357-49CC-B2C5-CB66E36DAFE9}
      IID 13
      NAME "D__Recording_06-Keys Left-160910_2119.wav"
      VOLPAN 1 0 1 -1
      SOFFS 0
      PLAYRATE 1 1 0 -1 0 0.0025
      CHANMODE 0
      GUID {CC58ED6E-89FB-4DD3-A16B-A6F4F0B4AC6F}
      RECPASS 5
      <SOURCE WAVE
        FILE "D__Recording_06-Keys Left-160910_2119.wav"
      >
    >
  >
  <TRACK {3C7A4CE6-A2FD-43CE-83AB-6B6656E19490}
    NAME "keys midi"
    PEAKCOL 16576
    BEAT -1
    AUTOMODE 0
    VOLPAN 0.98827363418181 -1 -1 -1 1
    MUTESOLO 0 0 0
    IPHASE 0
    ISBUS 0 0
    BUSCOMP 0 0
    SHOWINMIX 1 0.6667 0.5 1 0.5 0 0 0
    FREEMODE 0
    SEL 0
    REC 0 4256 1 0 0 0 0
    VU 2
    TRACKHEIGHT 0 0
    INQ 0 0 0 0.5 100 0 0 100
    NCHAN 2
    FX 1
    TRACKID {3C7A4CE6-A2FD-43CE-83AB-6B6656E19490}
    PERF 0
    MIDIOUT -1
    MAINSEND 1 0
    <FXCHAIN
      SHOW 0
      LASTSEL 0
      DOCKED 0
      BYPASS 0 0 0
      <VST "VSTi: AAS Player (Applied Acoustics Systems)" "AAS Player.dll" 0 "" 1095789617
        MWxQQe5e7f4AAAAAAgAAAAEAAAAAAAAAAgAAAAAAAABYAQAAAQAAAAAAEAA=
        ewoJY3VycmVudFByb2dyYW0gPSA0NCwKCWFjdGl2ZUJhbmtJZCA9ICI4ZmUzOWQyYS0yMjM2LTRiMTgtYjFmOS1mMDEzYzRjNzZkYTkiLAoJY3VycmVudFByb2dyYW1C
        YW5rTmFtZSA9ICJTd2F0Y2hlcyIsCglhY3RpdmVCYW5rID0gMSwKCXBvbHlwaG9ueSA9IDEyLAoJY3VycmVudFByb2dyYW1CYW5rSWQgPSAiOGZlMzlkMmEtMjIzNi00
        YjE4LWIxZjktZjAxM2M0Yzc2ZGE5IiwKCXZlcnNpb24gPSAxLAoJY3VycmVudFByb2dyYW1OYW1lID0gIlNreWJsdWUiLAoJY3VycmVudFByb2dyYW1CYW5rID0gMSwK
        CXBhcmFtZXRlcnMgPSB7CgkJMSwKCX0sCglhY3RpdmVCYW5rTmFtZSA9ICJTd2F0Y2hlcyIsCn0=
        AERlZmF1bHQAEAAAAA==
      >
      PRESETNAME Default
      FLOATPOS 33 60 407 662
      FXID {CD62AABF-97FE-432C-B616-73D88C7609E3}
      WAK 0
    >
    <ITEM
      POSITION 0
      SNAPOFFS 0
      LENGTH 213.375
      LOOP 1
      ALLTAKES 0
      FADEIN 1 0 0 1 0 0
      FADEOUT 1 0 0 1 0 0
      MUTE 0
      SEL 0
      IGUID {EFCE624B-B58B-4E29-88CC-F28D0601F377}
      IID 2
      NAME "07-keys midi-Recorded MIDI"
      VOLPAN 1 0 1 -1
      SOFFS 0 0
      PLAYRATE 1 1 0 -1 0 0.0025
      CHANMODE 0
      GUID {37EA3CC7-C2C2-4EF5-A109-8307A7093FFD}
      RECPASS 1
      <SOURCE MIDI
        HASDATA 1 960 QN
        POOLEDEVTS {3EF8460B-806C-4E88-98F9-AC3542B57AFF}
        E 30737 91 30 6a
        E 18474 91 30 00
        E 15763 91 30 6a
        E 4085 91 35 28
        E 22 91 30 00
        E 4192 91 33 36
        E 19 91 35 00
        E 4305 91 32 2e
        E 56 91 33 00
        E 4216 91 30 2e
        E 31 91 32 00
        E 4279 91 35 30
        E 70 91 30 00
        E 4093 91 34 2c
        E 16 91 35 00
        E 4451 91 36 30
        E 99 91 34 00
        E 4064 91 36 00
        E 26 91 30 3a
        E 4291 91 35 2c
        E 65 91 30 00
        E 4192 91 34 48
        E 92 91 35 00
        E 4202 91 31 3e
        E 71 91 34 00
        E 4246 91 30 48
        E 55 91 31 00
        E 4231 91 35 33
        E 45 91 30 00
        E 4178 91 34 30
        E 32 91 35 00
        E 4285 91 36 48
        E 102 91 34 00
        E 4174 91 36 00
        E 27 91 30 5b
        E 4230 91 35 33
        E 60 91 30 00
        E 4473 91 34 48
        E 98 91 35 00
        E 4528 91 31 62
        E 90 91 34 00
        E 4445 91 30 3a
        E 75 91 31 00
        E 4215 91 35 3a
        E 69 91 30 00
        E 4043 91 34 33
        E 47 91 35 00
        E 4498 91 36 72
        E 102 91 34 00
        E 3740 91 36 00
        E 328 91 30 2a
        E 15 91 37 3e
        E 41 91 34 4e
        E 8221 91 30 00
        E 37 91 37 00
        E 16 91 34 00
        E 213 91 32 3e
        E 24 91 35 4e
        E 7 91 39 3a
        E 4954 91 35 00
        E 272 91 36 62
        E 3115 91 39 00
        E 84 91 36 00
        E 19 91 32 00
        E 440 91 35 36
        E 5 91 32 4e
        E 7 91 34 3a
        E 5 91 2d 43
        E 5 91 30 4e
        E 10 91 2f 48
        E 118 91 34 00
        E 29 91 30 00
        E 94 91 2d 00
        E 9384 91 35 00
        E 7 91 32 00
        E 43 91 2f 00
        E 2791 91 2d 0e
        E 5 91 30 1d
        E 21 91 34 1a
        E 1849 91 2d 00
        E 40 91 30 00
        E 324 91 2d 01
        E 6 91 30 01
        E 244 91 34 00
        E 65 91 30 00
        E 33 91 2d 00
        E 302 91 30 01
        E 30 91 2d 13
        E 21 91 34 09
        E 261 91 30 00
        E 5 91 34 00
        E 155 91 30 0d
        E 7 91 34 14
        E 287 91 2d 00
        E 32 91 30 00
        E 41 91 34 00
        E 633 91 30 5b
        E 3718 91 30 00
        E 32 91 2f 3e
        E 13664 91 2f 00
        E 12 91 30 30
        E 8427 91 2f 33
        E 53 91 30 00
        E 8529 91 30 30
        E 27 91 2f 00
        E 7513 91 35 30
        E 36 91 30 00
        E 4238 91 34 3a
        E 84 91 35 00
        E 4221 91 31 3a
        E 95 91 34 00
        E 3988 91 30 4e
        E 63 91 31 00
        E 4288 91 35 33
        E 85 91 30 00
        E 4013 91 34 33
        E 17 91 35 00
        E 4189 91 36 3e
        E 102 91 34 00
        E 4264 91 30 48
        E 118 91 36 00
        E 4037 91 35 33
        E 80 91 30 00
        E 4271 91 34 62
        E 104 91 35 00
        E 4175 91 31 6a
        E 74 91 34 00
        E 4169 91 30 4e
        E 86 91 31 00
        E 4069 91 35 36
        E 80 91 30 00
        E 4218 91 34 43
        E 44 91 35 00
        E 4201 91 36 4e
        E 94 91 34 00
        E 3928 91 36 00
        E 63 91 3c 43
        E 42 91 30 3a
        E 8496 91 3c 00
        E 8 91 3b 1a
        E 36 91 2f 33
        E 25 91 30 00
        E 8361 91 2f 00
        E 2 91 3c 3a
        E 7 91 3b 00
        E 20 91 30 1c
        E 8606 91 3d 43
        E 7 91 31 30
        E 56 91 3c 00
        E 43 91 30 00
        E 8354 91 31 00
        E 5 91 3d 00
        E 17 91 3c 36
        E 31 91 30 0a
        E 8517 91 3c 00
        E 2 91 2f 2e
        E 5 91 3b 28
        E 87 91 30 00
        E 8233 91 3b 00
        E 240 91 2f 00
        E 87 91 48 0d
        E 27 91 30 2c
        E 26 91 3e 3a
        E 742 91 3e 00
        E 297 91 3c 4e
        E 6661 91 48 00
        E 619 91 3c 00
        E 277 91 30 00
        E 104 91 31 2e
        E 19 91 3d 5b
        E 8277 91 31 00
        E 223 91 24 36
        E 19 91 3d 00
        E 16704 e1 00 3e
        E 104 e1 00 3d
        E 34 e1 00 3c
        E 34 e1 00 3a
        E 67 e1 00 39
        E 34 e1 00 38
        E 104 e1 00 37
        E 71 e1 00 36
        E 67 e1 00 35
        E 67 e1 00 34
        E 68 e1 00 33
        E 104 e1 00 32
        E 104 e1 00 31
        E 135 e1 00 30
        E 68 e1 00 2f
        E 70 e1 00 2e
        E 101 e1 00 2d
        E 70 e1 00 2c
        E 172 e1 00 2b
        E 239 e1 00 2a
        E 68 e1 00 29
        E 138 e1 00 28
        E 787 e1 00 27
        E 102 e1 00 25
        E 480 e1 00 24
        E 203 e1 00 23
        E 206 e1 00 22
        E 171 e1 00 21
        E 68 e1 00 20
        E 788 e1 00 1f
        E 343 e1 00 1e
        E 236 e1 00 1d
        E 141 e1 00 1c
        E 134 e1 00 1b
        E 445 e1 00 1a
        E 206 e1 00 19
        E 548 e1 00 18
        E 273 e1 00 17
        E 686 e1 00 16
        E 614 e1 00 15
        E 104 e1 00 14
        E 103 e1 00 13
        E 66 e1 00 10
        E 70 e1 00 0f
        E 650 e1 00 0e
        E 70 e1 00 0d
        E 101 e1 00 0e
        E 206 e1 00 0f
        E 174 e1 00 10
        E 101 e1 00 12
        E 169 e1 00 10
        E 169 e1 00 0f
        E 174 e1 00 0e
        E 203 e1 00 0f
        E 70 e1 00 12
        E 34 e1 00 13
        E 36 e1 00 15
        E 35 e1 00 17
        E 33 e1 00 18
        E 67 e1 00 19
        E 68 e1 00 1a
        E 71 e1 00 1b
        E 67 e1 00 1c
        E 242 e1 00 1d
        E 67 e1 00 1e
        E 307 e1 00 1f
        E 68 e1 00 20
        E 104 e1 00 21
        E 171 e1 00 23
        E 34 e1 00 24
        E 34 e1 00 28
        E 36 e1 00 2b
        E 34 e1 00 2e
        E 34 e1 00 31
        E 36 e1 00 33
        E 68 e1 00 34
        E 135 e1 00 35
        E 103 e1 00 36
        E 71 e1 00 37
        E 32 e1 00 38
        E 69 e1 00 39
        E 172 e1 00 3a
        E 70 e1 00 3c
        E 65 e1 00 3e
        E 68 e1 00 3f
        E 69 e1 00 40
        E 276 e1 00 3f
        E 32 e1 00 40
        E 3855 91 24 00
        E 223 91 30 62
        E 1386 91 24 48
        E 313 91 30 00
        E 2594 91 29 36
        E 19 91 24 00
        E 4334 91 28 3a
        E 97 91 29 00
        E 3870 91 25 43
        E 54 91 28 00
        E 4100 91 25 00
        E 38 91 24 24
        E 4044 91 29 3a
        E 8 91 24 00
        E 4192 91 28 54
        E 60 91 29 00
        E 4236 91 2a 54
        E 74 91 28 00
        E 4018 91 24 72
        E 31 91 2a 00
        E 4421 91 29 3a
        E 59 91 24 00
        E 3955 91 28 36
        E 36 91 29 00
        E 4377 91 25 48
        E 82 91 28 00
        E 3917 91 25 00
        E 32 91 30 62
        E 2493 91 3c 0c
        E 5583 91 30 00
        E 2 91 3c 00
        E 87 91 3b 01
        E 24 91 2f 30
        E 5982 e1 00 40
        E 70 e1 00 40
        E 34 e1 00 3e
        E 68 e1 00 40
        E 138 e1 00 40
        E 33 e1 00 43
        E 35 e1 00 47
        E 33 e1 00 4a
        E 37 e1 00 4b
        E 101 e1 00 4a
        E 137 e1 00 4b
        E 138 e1 00 4c
        E 34 e1 00 4d
        E 34 e1 00 4f
        E 34 e1 00 50
        E 70 e1 00 51
        E 34 e1 00 53
        E 34 e1 00 54
        E 33 e1 00 55
        E 37 e1 00 56
        E 70 e1 00 57
        E 99 e1 00 58
        E 34 e1 00 5a
        E 70 e1 00 5b
        E 67 e1 00 5d
        E 35 e1 00 5e
        E 67 e1 00 60
        E 36 e1 00 62
        E 34 e1 00 64
        E 34 e1 00 66
        E 33 e1 00 68
        E 37 e1 00 6a
        E 34 e1 00 6e
        E 34 e1 00 73
        E 34 e1 00 77
        E 33 e1 00 7a
        E 36 e1 00 7f
        E 87 91 2f 00
        E 13 91 3b 00
        E 277 91 3c 2e
        E 22 91 30 36
        E 21 e1 00 6a
        E 35 e1 00 58
        E 36 e1 00 46
        E 33 e1 00 40
        E 34 e1 00 3e
        E 34 e1 00 40
        E 36 e1 00 3e
        E 34 e1 00 40
        E 34 e1 00 3f
        E 36 e1 00 40
        E 66 e1 00 3f
        E 36 e1 00 40
        E 33 e1 00 3e
        E 35 e1 00 40
        E 33 e1 00 3e
        E 34 e1 00 40
        E 36 e1 00 3f
        E 32 e1 00 40
        E 70 e1 00 3f
        E 33 e1 00 40
        E 34 e1 00 3f
        E 34 e1 00 40
        E 36 e1 00 3f
        E 34 e1 00 40
        E 31 e1 00 3f
        E 37 e1 00 40
        E 137 e1 00 3f
        E 35 e1 00 40
        E 36 e1 00 3f
        E 31 e1 00 40
        E 34 e1 00 3f
        E 34 e1 00 40
        E 275 e1 00 40
        E 68 e1 00 41
        E 71 e1 00 42
        E 134 e1 00 43
        E 172 e1 00 44
        E 273 e1 00 46
        E 101 e1 00 47
        E 138 e1 00 48
        E 36 e1 00 49
        E 68 e1 00 4a
        E 237 e1 00 4b
        E 208 e1 00 4c
        E 101 e1 00 4d
        E 138 e1 00 4e
        E 137 e1 00 4f
        E 169 e1 00 50
        E 68 e1 00 51
        E 174 e1 00 53
        E 68 e1 00 54
        E 67 e1 00 56
        E 104 e1 00 57
        E 136 e1 00 58
        E 205 e1 00 59
        E 67 e1 00 5a
        E 515 e1 00 5b
        E 341 e1 00 5c
        E 308 e1 00 5d
        E 172 e1 00 5e
        E 172 e1 00 5f
        E 135 e1 00 60
        E 104 e1 00 61
        E 34 e1 00 62
        E 273 e1 00 63
        E 135 e1 00 64
        E 70 e1 00 65
        E 68 e1 00 66
        E 70 e1 00 67
        E 102 e1 00 68
        E 70 e1 00 69
        E 68 e1 00 6a
        E 70 e1 00 6c
        E 31 e1 00 6d
        E 33 e1 00 6e
        E 34 e1 00 6f
        E 37 e1 00 70
        E 34 e1 00 71
        E 34 e1 00 72
        E 33 e1 00 73
        E 36 e1 00 75
        E 34 e1 00 76
        E 34 e1 00 78
        E 36 e1 00 79
        E 32 e1 00 7b
        E 36 e1 00 7f
        E 667 91 3c 00
        E 46 91 30 00
        E 178 e1 00 76
        E 36 e1 00 60
        E 35 e1 00 4a
        E 33 e1 00 40
        E 17 91 3b 2a
        E 44 91 2f 33
        E 1969 e1 00 41
        E 343 e1 00 40
        E 237 e1 00 41
        E 104 e1 00 42
        E 100 e1 00 43
        E 138 e1 00 44
        E 68 e1 00 45
        E 70 e1 00 46
        E 37 e1 00 47
        E 135 e1 00 48
        E 101 e1 00 49
        E 68 e1 00 4a
        E 103 e1 00 4b
        E 35 e1 00 4c
        E 34 e1 00 4d
        E 67 e1 00 4e
        E 70 e1 00 4f
        E 68 e1 00 50
        E 70 e1 00 51
        E 32 e1 00 53
        E 275 e1 00 54
        E 104 e1 00 55
        E 206 e1 00 56
        E 169 e1 00 57
        E 137 e1 00 58
        E 70 e1 00 59
        E 99 e1 00 5a
        E 140 e1 00 5b
        E 99 e1 00 5c
        E 104 e1 00 5d
        E 105 e1 00 5e
        E 136 e1 00 60
        E 172 e1 00 61
        E 136 e1 00 62
        E 205 e1 00 63
        E 138 e1 00 64
        E 238 e1 00 65
        E 34 e1 00 66
        E 104 e1 00 67
        E 169 e1 00 68
        E 71 e1 00 69
        E 68 e1 00 6b
        E 67 e1 00 6c
        E 138 e1 00 6d
        E 136 e1 00 6e
        E 69 e1 00 6f
        E 104 e1 00 70
        E 68 e1 00 71
        E 34 e1 00 72
        E 34 e1 00 73
        E 33 e1 00 74
        E 38 e1 00 76
        E 32 e1 00 77
        E 34 e1 00 79
        E 31 e1 00 7b
        E 37 e1 00 7f
        E 415 91 2f 00
        E 37 91 3b 00
        E 166 e1 00 79
        E 34 e1 00 63
        E 34 e1 00 4e
        E 36 e1 00 3f
        E 87 91 3c 36
        E 46 91 30 20
        E 1587 e1 00 40
        E 67 e1 00 41
        E 68 e1 00 42
        E 104 e1 00 43
        E 104 e1 00 44
        E 102 e1 00 45
        E 70 e1 00 46
        E 67 e1 00 47
        E 102 e1 00 48
        E 67 e1 00 49
        E 105 e1 00 4a
        E 70 e1 00 4c
        E 67 e1 00 4e
        E 68 e1 00 4f
        E 67 e1 00 50
        E 71 e1 00 51
        E 34 e1 00 53
        E 33 e1 00 54
        E 70 e1 00 55
        E 136 e1 00 56
        E 67 e1 00 57
        E 70 e1 00 58
        E 67 e1 00 59
        E 103 e1 00 5a
        E 69 e1 00 5b
        E 68 e1 00 5c
        E 34 e1 00 5d
        E 171 e1 00 5e
        E 102 e1 00 5f
        E 275 e1 00 60
        E 307 e1 00 61
        E 309 e1 00 62
        E 136 e1 00 63
        E 239 e1 00 64
        E 137 e1 00 65
        E 411 e1 00 66
        E 376 e1 00 67
        E 240 e1 00 68
        E 239 e1 00 69
        E 104 e1 00 6a
        E 136 e1 00 6b
        E 173 e1 00 6c
        E 99 e1 00 6d
        E 70 e1 00 6e
        E 68 e1 00 6f
        E 71 e1 00 71
        E 33 e1 00 72
        E 36 e1 00 73
        E 31 e1 00 75
        E 37 e1 00 78
        E 34 e1 00 7a
        E 34 e1 00 7f
        E 531 91 3c 00
        E 75 91 30 00
        E 46 e1 00 70
        E 36 e1 00 60
        E 32 e1 00 53
        E 36 e1 00 48
        E 32 e1 00 40
        E 241 91 3b 1b
        E 22 91 39 1c
        E 7 91 2f 43
        E 391 91 39 00
        E 1819 e1 00 40
        E 206 e1 00 41
        E 101 e1 00 42
        E 686 e1 00 43
        E 34 e1 00 44
        E 34 e1 00 45
        E 37 e1 00 46
        E 67 e1 00 47
        E 34 e1 00 48
        E 101 e1 00 49
        E 71 e1 00 4a
        E 33 e1 00 4b
        E 34 e1 00 4c
        E 34 e1 00 4d
        E 70 e1 00 4f
        E 169 e1 00 50
        E 70 e1 00 51
        E 34 e1 00 53
        E 135 e1 00 54
        E 104 e1 00 55
        E 68 e1 00 56
        E 70 e1 00 57
        E 67 e1 00 58
        E 68 e1 00 59
        E 34 e1 00 5a
        E 70 e1 00 5b
        E 67 e1 00 5c
        E 276 e1 00 5d
        E 271 e1 00 5e
        E 171 e1 00 5f
        E 138 e1 00 60
        E 272 e1 00 61
        E 139 e1 00 62
        E 205 e1 00 63
        E 138 e1 00 64
        E 169 e1 00 65
        E 104 e1 00 66
        E 306 e1 00 67
        E 69 e1 00 68
        E 69 e1 00 69
        E 104 e1 00 6a
        E 32 e1 00 6b
        E 69 e1 00 6c
        E 68 e1 00 6d
        E 34 e1 00 6e
        E 36 e1 00 6f
        E 68 e1 00 71
        E 67 e1 00 72
        E 34 e1 00 73
        E 35 e1 00 74
        E 69 e1 00 75
        E 68 e1 00 76
        E 34 e1 00 77
        E 34 e1 00 78
        E 36 e1 00 7a
        E 34 e1 00 7d
        E 33 e1 00 7f
        E 476 91 2f 00
        E 68 91 3b 00
        E 109 e1 00 71
        E 34 e1 00 5c
        E 33 e1 00 48
        E 37 e1 00 40
        E 33 e1 00 3f
        E 88 91 3c 3a
        E 24 91 30 2a
        E 1882 e1 00 40
        E 309 e1 00 41
        E 68 e1 00 42
        E 104 e1 00 44
        E 33 e1 00 45
        E 34 e1 00 46
        E 34 e1 00 48
        E 36 e1 00 4a
        E 31 e1 00 4c
        E 37 e1 00 4d
        E 36 e1 00 4e
        E 203 e1 00 4f
        E 102 e1 00 50
        E 103 e1 00 51
        E 69 e1 00 54
        E 103 e1 00 55
        E 67 e1 00 56
        E 173 e1 00 57
        E 67 e1 00 58
        E 70 e1 00 59
        E 68 e1 00 5a
        E 103 e1 00 5b
        E 136 e1 00 5c
        E 309 e1 00 5d
        E 273 e1 00 5e
        E 239 e1 00 5f
        E 104 e1 00 60
        E 239 e1 00 61
        E 239 e1 00 62
        E 169 e1 00 63
        E 208 e1 00 64
        E 65 e1 00 65
        E 175 e1 00 66
        E 169 e1 00 67
        E 69 e1 00 68
        E 204 e1 00 69
        E 103 e1 00 6a
        E 68 e1 00 6b
        E 70 e1 00 6c
        E 172 e1 00 6d
        E 69 e1 00 6e
        E 32 e1 00 6f
        E 137 e1 00 70
        E 70 e1 00 71
        E 66 e1 00 72
        E 36 e1 00 74
        E 68 e1 00 75
        E 34 e1 00 77
        E 36 e1 00 79
        E 34 e1 00 7d
        E 34 e1 00 7f
        E 637 91 3c 00
        E 34 91 30 00
        E 152 e1 00 7e
        E 35 e1 00 68
        E 33 e1 00 54
        E 34 e1 00 42
        E 34 e1 00 40
        E 41 91 3b 33
        E 29 91 2f 48
        E 2949 e1 00 40
        E 107 e1 00 41
        E 65 e1 00 42
        E 67 e1 00 44
        E 71 e1 00 45
        E 73 e1 00 46
        E 62 e1 00 47
        E 36 e1 00 48
        E 68 e1 00 49
        E 137 e1 00 4a
        E 70 e1 00 4b
        E 66 e1 00 4d
        E 141 e1 00 4c
        E 135 e1 00 4d
        E 67 e1 00 4e
        E 172 e1 00 4f
        E 68 e1 00 50
        E 171 e1 00 51
        E 137 e1 00 53
        E 136 e1 00 54
        E 37 e1 00 55
        E 101 e1 00 56
        E 136 e1 00 57
        E 69 e1 00 58
        E 34 e1 00 59
        E 34 e1 00 5a
        E 33 e1 00 5b
        E 37 e1 00 5c
        E 70 e1 00 5d
        E 239 e1 00 5e
        E 68 e1 00 5f
        E 172 e1 00 60
        E 204 e1 00 61
        E 102 e1 00 62
        E 70 e1 00 63
        E 102 e1 00 64
        E 68 e1 00 65
        E 33 e1 00 66
        E 37 e1 00 67
        E 33 e1 00 68
        E 34 e1 00 6a
        E 36 e1 00 6b
        E 32 e1 00 6c
        E 33 e1 00 6d
        E 71 e1 00 6f
        E 33 e1 00 70
        E 37 e1 00 71
        E 33 e1 00 72
        E 34 e1 00 73
        E 68 e1 00 74
        E 34 e1 00 75
        E 33 e1 00 76
        E 34 e1 00 77
        E 34 e1 00 79
        E 71 e1 00 7a
        E 101 e1 00 7b
        E 33 e1 00 7d
        E 34 e1 00 7e
        E 37 e1 00 7f
        E 1029 91 3b 00
        E 31 91 2f 00
        E 37 e1 00 6e
        E 36 e1 00 58
        E 34 e1 00 47
        E 31 e1 00 3e
        E 36 e1 00 40
        E 3 91 30 54
        E 36 e1 00 40
        E 36 e1 00 3f
        E 34 e1 00 40
        E 34 e1 00 3e
        E 36 e1 00 40
        E 32 e1 00 3f
        E 36 e1 00 40
        E 31 e1 00 3f
        E 68 91 30 00
        E 5 e1 00 40
        E 31 e1 00 3f
        E 37 e1 00 40
        E 21 91 30 22
        E 22 e1 00 3f
        E 130 e1 00 40
        E 37 e1 00 3f
        E 33 e1 00 40
        E 34 e1 00 3f
        E 34 e1 00 40
        E 36 e1 00 3f
        E 135 e1 00 40
        E 37 e1 00 3f
        E 33 e1 00 40
        E 35 e1 00 3f
        E 33 e1 00 40
        E 37 e1 00 3f
        E 135 e1 00 40
        E 34 e1 00 3f
        E 34 e1 00 40
        E 33 e1 00 3f
        E 241 91 30 00
        E 34 e1 00 40
        E 35 e1 00 3f
        E 108 91 30 54
        E 974 91 30 00
        E 93 91 30 2a
        E 979 91 24 62
        E 998 91 30 00
        E 222 91 30 5b
        E 92 91 24 00
        E 849 91 30 00
        E 158 91 30 43
        E 1322 91 30 00
        E 169 91 30 54
        E 858 91 30 00
        E 201 91 30 5b
        E 2222 91 30 00
        E 271 91 30 6a
        E 1227 91 30 00
        E 150 91 30 4e
        E 795 b1 01 03
        E 33 b1 01 0b
        E 35 b1 01 12
        E 36 b1 01 19
        E 34 b1 01 1f
        E 33 b1 01 26
        E 34 b1 01 2d
        E 37 b1 01 35
        E 30 b1 01 3c
        E 37 b1 01 43
        E 34 b1 01 49
        E 34 b1 01 4f
        E 33 b1 01 55
        E 34 b1 01 5a
        E 36 b1 01 5f
        E 34 b1 01 64
        E 34 b1 01 69
        E 34 b1 01 6e
        E 34 b1 01 73
        E 34 b1 01 78
        E 33 b1 01 7d
        E 37 e1 00 40
        E 2 b1 01 7f
        E 887 e1 00 3f
        E 9200 b1 12 01
        E 6011 b1 12 02
        E 1980 b1 12 03
        E 2514 b1 01 7b
        E 34 b1 01 79
        E 36 b1 01 76
        E 33 b1 01 74
        E 34 b1 01 73
        E 37 b1 01 72
        E 68 b1 01 6f
        E 33 b1 01 6d
        E 34 b1 01 6b
        E 36 b1 01 6a
        E 68 b1 01 68
        E 34 b1 01 67
        E 67 b1 01 64
        E 34 b1 01 62
        E 36 b1 01 61
        E 34 b1 01 5f
        E 34 b1 01 5d
        E 34 b1 01 5b
        E 70 b1 01 5a
        E 67 b1 01 57
        E 35 b1 01 55
        E 33 b1 01 52
        E 34 b1 01 51
        E 104 b1 01 53
        E 36 b1 01 59
        E 34 b1 01 5e
        E 34 b1 01 62
        E 31 b1 01 66
        E 36 b1 01 6a
        E 34 b1 01 6d
        E 36 b1 01 72
        E 35 b1 01 76
        E 33 b1 01 7b
        E 34 b1 01 7f
        E 1229 e1 00 40
        E 240 e1 00 40
        E 104 e1 00 40
        E 599 91 30 00
        E 17 e1 00 3f
        E 128 91 30 48
        E 597 e1 00 40
        E 1916 e1 00 41
        E 67 e1 00 43
        E 102 e1 00 41
        E 33 e1 00 40
        E 36 e1 00 40
        E 1848 b1 01 7c
        E 37 b1 01 7a
        E 32 b1 01 78
        E 36 b1 01 76
        E 34 b1 01 74
        E 33 b1 01 72
        E 34 b1 01 71
        E 34 b1 01 6f
        E 36 b1 01 6e
        E 34 b1 01 6d
        E 34 b1 01 6b
        E 68 b1 01 6a
        E 68 b1 01 68
        E 33 b1 01 67
        E 104 b1 01 65
        E 67 b1 01 64
        E 37 b1 01 63
        E 32 b1 01 61
        E 69 b1 01 5f
        E 37 b1 01 5d
        E 31 b1 01 5c
        E 34 b1 01 5b
        E 38 b1 01 5a
        E 66 b1 01 58
        E 67 b1 01 56
        E 171 b1 01 59
        E 34 b1 01 5a
        E 34 b1 01 5d
        E 37 b1 01 60
        E 34 b1 01 63
        E 31 b1 01 66
        E 37 b1 01 68
        E 33 b1 01 6b
        E 34 b1 01 6e
        E 36 b1 01 71
        E 34 b1 01 73
        E 34 b1 01 75
        E 36 b1 01 78
        E 31 b1 01 79
        E 34 b1 01 7b
        E 34 b1 01 7e
        E 36 b1 01 7f
        E 1539 e1 00 3f
        E 68 e1 00 3e
        E 239 e1 00 3d
        E 104 e1 00 3c
        E 203 e1 00 3a
        E 273 e1 00 39
        E 70 e1 00 38
        E 138 e1 00 37
        E 103 e1 00 36
        E 206 e1 00 35
        E 68 e1 00 34
        E 168 e1 00 33
        E 208 e1 00 32
        E 1128 e1 00 31
        E 308 e1 00 30
        E 821 e1 00 2f
        E 138 e1 00 2e
        E 205 e1 00 2d
        E 272 e1 00 2c
        E 446 e1 00 2b
        E 345 e1 00 2a
        E 167 e1 00 29
        E 138 e1 00 28
        E 478 e1 00 27
        E 205 e1 00 25
        E 206 e1 00 24
        E 205 e1 00 23
        E 515 e1 00 22
        E 237 e1 00 21
        E 137 e1 00 20
        E 205 e1 00 1f
        E 515 e1 00 1e
        E 341 e1 00 1d
        E 104 e1 00 1c
        E 67 e1 00 1b
        E 34 e1 00 1a
        E 343 e1 00 19
        E 104 e1 00 17
        E 34 e1 00 16
        E 31 e1 00 15
        E 70 e1 00 14
        E 1541 e1 00 13
        E 547 e1 00 14
        E 478 e1 00 15
        E 141 e1 00 16
        E 270 e1 00 15
        E 239 e1 00 14
        E 307 e1 00 15
        E 447 e1 00 14
        E 135 e1 00 13
        E 343 e1 00 14
        E 408 e1 00 13
        E 926 e1 00 12
        E 103 e1 00 10
        E 136 e1 00 0f
        E 34 e1 00 0e
        E 171 e1 00 0f
        E 138 e1 00 10
        E 67 e1 00 12
        E 68 e1 00 14
        E 37 e1 00 15
        E 33 e1 00 18
        E 34 e1 00 1b
        E 34 e1 00 1d
        E 67 e1 00 1a
        E 37 e1 00 14
        E 31 e1 00 0b
        E 37 e1 00 05
        E 33 e1 00 02
        E 34 e1 00 00
        E 172 e1 00 02
        E 33 e1 00 07
        E 34 e1 00 0f
        E 37 e1 00 18
        E 33 e1 00 1d
        E 34 e1 00 1f
        E 34 e1 00 1e
        E 36 e1 00 1a
        E 32 e1 00 14
        E 36 e1 00 0b
        E 31 e1 00 03
        E 37 e1 00 00
        E 239 e1 00 03
        E 34 e1 00 0c
        E 34 e1 00 17
        E 33 e1 00 1e
        E 36 e1 00 1f
        E 34 e1 00 1a
        E 34 e1 00 0f
        E 34 e1 00 02
        E 33 e1 00 00
        E 274 e1 00 05
        E 36 e1 00 14
        E 34 e1 00 21
        E 33 e1 00 24
        E 35 e1 00 1e
        E 36 e1 00 0e
        E 31 e1 00 00
        E 34 e1 00 00
        E 275 e1 00 04
        E 34 e1 00 15
        E 34 e1 00 20
        E 34 e1 00 24
        E 36 e1 00 1f
        E 34 e1 00 10
        E 34 e1 00 02
        E 34 e1 00 00
        E 273 e1 00 04
        E 33 e1 00 13
        E 34 e1 00 1a
        E 36 e1 00 18
        E 35 e1 00 0c
        E 33 e1 00 00
        E 34 e1 00 00
        E 239 e1 00 00
        E 36 e1 00 0d
        E 34 e1 00 1f
        E 34 e1 00 25
        E 34 e1 00 20
        E 34 e1 00 10
        E 33 e1 00 01
        E 34 e1 00 00
        E 242 e1 00 08
        E 34 e1 00 20
        E 33 e1 00 2e
        E 36 e1 00 2f
        E 34 e1 00 28
        E 34 e1 00 15
        E 34 e1 00 01
        E 37 e1 00 00
        E 236 e1 00 02
        E 36 e1 00 16
        E 32 e1 00 24
        E 36 e1 00 29
        E 34 e1 00 24
        E 34 e1 00 14
        E 34 e1 00 00
        E 33 e1 00 00
        E 411 e1 00 01
        E 34 e1 00 03
        E 36 e1 00 0a
        E 34 e1 00 13
        E 34 e1 00 19
        E 33 e1 00 1c
        E 37 e1 00 1d
        E 34 e1 00 1e
        E 33 e1 00 20
        E 36 e1 00 22
        E 71 e1 00 1c
        E 32 e1 00 0d
        E 33 e1 00 00
        E 225 91 30 00
        E 427 e1 00 02
        E 32 e1 00 0d
        E 36 e1 00 27
        E 34 e1 00 4b
        E 34 e1 00 32
        E 34 e1 00 4c
        E 33 e1 00 31
        E 34 e1 00 4b
        E 36 e1 00 33
        E 34 e1 00 4a
        E 37 e1 00 34
        E 31 e1 00 46
        E 36 e1 00 38
        E 30 e1 00 43
        E 38 e1 00 3e
        E 33 e1 00 3f
        E 34 e1 00 41
        E 34 e1 00 3c
        E 34 e1 00 43
        E 36 e1 00 38
        E 33 e1 00 46
        E 33 e1 00 36
        E 36 e1 00 48
        E 33 e1 00 36
        E 34 e1 00 47
        E 34 e1 00 36
        E 37 e1 00 46
        E 32 e1 00 39
        E 35 e1 00 43
        E 34 e1 00 3c
        E 35 e1 00 40
        E 33 e1 00 3f
        E 36 e1 00 3e
        E 34 e1 00 41
        E 33 e1 00 3c
        E 34 e1 00 44
        E 36 e1 00 39
        E 31 e1 00 45
        E 37 e1 00 38
        E 34 e1 00 45
        E 34 e1 00 39
        E 34 e1 00 44
        E 33 e1 00 3a
        E 34 e1 00 42
        E 36 e1 00 3d
        E 32 e1 00 40
        E 36 e1 00 40
        E 33 e1 00 3e
        E 35 e1 00 41
        E 34 e1 00 3c
        E 36 e1 00 42
        E 34 e1 00 3a
        E 34 e1 00 43
        E 33 e1 00 3a
        E 33 e1 00 43
        E 35 e1 00 3c
        E 36 e1 00 41
        E 34 e1 00 3d
        E 34 e1 00 40
        E 34 e1 00 3f
        E 68 e1 00 40
        E 33 e1 00 3d
        E 34 e1 00 41
        E 36 e1 00 3c
        E 34 e1 00 42
        E 34 e1 00 3c
        E 34 e1 00 42
        E 36 e1 00 3d
        E 34 e1 00 40
        E 34 e1 00 3f
        E 67 e1 00 40
        E 37 e1 00 3e
        E 33 e1 00 41
        E 34 e1 00 3d
        E 34 e1 00 41
        E 34 e1 00 3d
        E 36 e1 00 41
        E 34 e1 00 3d
        E 31 e1 00 40
        E 36 e1 00 3f
        E 34 e1 00 40
        E 68 e1 00 3e
        E 34 e1 00 40
        E 36 e1 00 3d
        E 34 e1 00 41
        E 34 e1 00 3d
        E 34 e1 00 41
        E 33 e1 00 3e
        E 37 e1 00 40
        E 34 e1 00 3f
        E 34 e1 00 40
        E 70 e1 00 3e
        E 33 e1 00 40
        E 32 e1 00 3e
        E 36 e1 00 40
        E 34 e1 00 3e
        E 34 e1 00 40
        E 34 e1 00 3f
        E 33 e1 00 40
        E 70 e1 00 3f
        E 34 e1 00 40
        E 34 e1 00 3e
        E 34 e1 00 40
        E 34 e1 00 3e
        E 33 e1 00 40
        E 36 e1 00 3e
        E 34 e1 00 40
        E 34 e1 00 3f
        E 70 e1 00 40
        E 32 e1 00 3f
        E 36 e1 00 40
        E 34 e1 00 3e
        E 33 e1 00 40
        E 34 e1 00 3e
        E 37 e1 00 40
        E 34 e1 00 3f
        E 135 e1 00 40
        E 36 e1 00 3e
        E 34 e1 00 40
        E 34 e1 00 3e
        E 33 e1 00 40
        E 36 e1 00 3f
        E 32 e1 00 40
        E 36 e1 00 3f
        E 135 e1 00 40
        E 37 e1 00 3f
        E 33 e1 00 40
        E 32 e1 00 3f
        E 37 e1 00 40
        E 205 e1 00 3f
        E 34 e1 00 40
        E 34 e1 00 3f
        E 33 e1 00 40
        E 206 e1 00 3f
        E 34 e1 00 40
        E 33 e1 00 3f
        E 36 e1 00 40
        E 274 e1 00 3f
        E 33 e1 00 40
        E 1493 91 30 6a
        E 4612 91 30 00
        E 945 91 29 72
        E 517 91 29 00
        E 377 91 30 62
        E 1752 91 35 48
        E 55 91 30 00
        E 2791 91 35 00
        E 79 91 34 4e
        E 4226 91 31 6a
        E 32 91 34 00
        E 2553 91 31 00
        E 1504 91 30 26
        E 5 91 3c 72
        E 18 91 2f 24
        E 155 91 2f 00
        E 3998 91 30 00
        E 2825 e1 00 3f
        E 33 e1 00 3d
        E 36 e1 00 3e
        E 34 e1 00 40
        E 377 e1 00 40
        E 71 e1 00 41
        E 64 e1 00 40
        E 276 e1 00 40
        E 31 e1 00 3e
        E 36 e1 00 3d
        E 34 e1 00 39
        E 34 e1 00 37
        E 33 e1 00 35
        E 35 e1 00 33
        E 34 e1 00 31
        E 36 e1 00 2e
        E 34 e1 00 2c
        E 34 e1 00 2b
        E 33 e1 00 29
        E 36 e1 00 28
        E 32 e1 00 27
        E 70 e1 00 25
        E 68 e1 00 24
        E 33 e1 00 23
        E 36 e1 00 22
        E 34 e1 00 21
        E 68 e1 00 1f
        E 68 e1 00 1e
        E 103 e1 00 1d
        E 68 e1 00 1c
        E 34 e1 00 1b
        E 70 e1 00 1a
        E 34 e1 00 19
        E 34 e1 00 18
        E 34 e1 00 17
        E 35 e1 00 16
        E 66 e1 00 15
        E 34 e1 00 14
        E 36 e1 00 12
        E 34 e1 00 10
        E 34 e1 00 0e
        E 34 e1 00 0d
        E 36 e1 00 0b
        E 26 91 3c 00
        E 8 e1 00 09
        E 36 e1 00 07
        E 34 e1 00 04
        E 34 e1 00 02
        E 33 e1 00 01
        E 68 e1 00 00
        E 70 e1 00 00
        E 2223 e1 00 02
        E 33 e1 00 12
        E 37 e1 00 22
        E 34 e1 00 2c
        E 34 e1 00 31
        E 36 e1 00 33
        E 31 e1 00 35
        E 34 e1 00 36
        E 36 e1 00 38
        E 34 e1 00 39
        E 32 e1 00 3c
        E 72 e1 00 3d
        E 34 e1 00 3e
        E 33 e1 00 3f
        E 37 e1 00 40
        E 65 e1 00 40
        E 138 e1 00 40
        E 205 e1 00 3f
        E 34 e1 00 3e
        E 33 e1 00 39
        E 37 e1 00 34
        E 34 e1 00 2f
        E 34 e1 00 2b
        E 33 e1 00 27
        E 37 e1 00 22
        E 31 e1 00 1c
        E 34 e1 00 16
        E 34 e1 00 0c
        E 36 e1 00 02
        E 34 e1 00 00
        E 2087 e1 00 09
        E 34 e1 00 18
        E 34 e1 00 24
        E 36 e1 00 2e
        E 32 e1 00 34
        E 33 e1 00 38
        E 34 e1 00 3c
        E 37 e1 00 3e
        E 33 e1 00 3f
        E 22450 b0 7b 00
        GUID {FEDFDE80-3DCD-49C5-BC5F-3EF6324F6E83}
        IGNTEMPO 0 120 4 4
        SRCCOLOR 486
      >
    >
  >
  <TRACK {C9159F67-28BE-4544-A3B6-1F370575B1A6}
    NAME "keys midi"
    PEAKCOL 16576
    BEAT -1
    AUTOMODE 0
    VOLPAN 0.54151117676101 0 -1 -1 1
    MUTESOLO 0 0 0
    IPHASE 0
    ISBUS 0 0
    BUSCOMP 0 0
    SHOWINMIX 1 0.6667 0.5 1 0.5 0 0 0
    FREEMODE 0
    SEL 0
    REC 0 4256 1 0 0 0 0
    VU 2
    TRACKHEIGHT 0 0
    INQ 0 0 0 0.5 100 0 0 100
    NCHAN 2
    FX 1
    TRACKID {C9159F67-28BE-4544-A3B6-1F370575B1A6}
    PERF 0
    MIDIOUT -1
    MAINSEND 1 0
    <FXCHAIN
      WNDRECT 33 60 655 403
      SHOW 0
      LASTSEL 0
      DOCKED 0
      BYPASS 0 0 0
      <VST "VSTi: MinimogueVA (x86) (Glen Stegner)" MinimogueVA.dll 0 "" 909457712
        MDk1Nu5e7f4AAAAAAgAAAAEAAAAAAAAAAgAAAAAAAAD3KQEAAQAAAAAAEAA=
        zAANAFoAAAAWAAAAHx4AAKYmAACEZwAADDkAAOFKAAA+DwAA6wEAALtmAAANRAAAXjAAACQBAACZAAAAh34AADwVAADbEgAApi4AALMLAAC7QQAA8VoAAPFtAABJFgAA
        kF8AAL4YAAAjSAAAKQAAANYsAADpJgAARxUAAN5UAAAKAwAAUCMAAElfAABDZAAABk0AAE0HAAD8awAAyE0AAFp6AAASLQAArnIAAK1MAAD1fwAAQEsAAGcAbwCJawAA
        UmkAAGYTAACLQgAAbABvABxJAADyTQAAEyIAAOESAACWfwAA1BoAAH12AAADXQAAOBIAALdNAACzOQAAJTsAAB9wAABsPQAARU4AAAlFAADbCwAATzEAADsyAAByVwAA
        AAAAANwNAAB9eQAAnjoAAPY7AAAyXwAASRoAABI+AAD9XAAANmsAAHhYAADuIgAAmnUAACABAAAyBwAArlYAABwwAAANJgAAy2MAAF1uAABrAG8AAAAAACABAAAkAQAA
        CgMAAE0HAAACCQAA3A0AADwVAADUGgAApiYAAOkmAADWLAAAbD0AAAlFAAC3TQAARU4AAHhYAACRWQAA8VoAADJfAACucgAAi3kAAIAAAAAYLS0tLS0tLS0tLS1MZWFk
        LS0tLS0tLS0tD1NvZnQgTWluaSBzd2VlcAxGSyBpbm5lcmNpdHkTdm95YWdlciBicmFpbiBzYWxhZBJHdW5uYXIgbG92ZXMgSmVzdXMPU29mdCBNaW5pIHN3ZWVwEUZL
        IGhlcmUgaW4gbXkgY2FyCk9yZ2FuIGxlYWQRV2FrZW1hbidzIEpvdXJuZXkQRW1lcnNvbidzIFRhcmt1cw1zd2VlcGluZyBsZWFkCkZLIGFnbmV0aGEKc29uYXIgbGVh
        ZA1zaWxrIG1pbmlsZWFkCUJpZyBkcmlmdA5Wb3lfc3ludGh3b3JsZAdjcmVhbXkxFUZLIGJlcmxpbmVyIGtyYW5raGVpdA9GSyBhbmEgZG9zIHJlaXMIc2ltc3ludGgJ
        c2ltc3ludGgzClB1bHNlIGVjaG8Udm95YWdlciBzbGlwcGVyeV9vY3QSVXNlIFRoZSBNb2QgV2hlZWwhCXNpbXN5bnRoNBB2b3lhZ2VyIHNsaXBwZXJ5C29yY2hlc3Ry
        YWwzC0ZLIGRvZ2ZpZ2h0B2NyZWFteTAJcvh5a3NvcHAyFENyZWFteSAobW92ZSBhdHRhY2spDW1lbG9keSBicmFzczIPRksgcGFkZHkgcGFkcGFkF0ZLIG9zY2FyIHNh
        bGEgeHBlcmllbnNlC3NxdWFyZSBzb2xvEHNxdWFyZXN3ZWVwIDNvc2MRc3B1YXJlc29sbzQgc3dlZXAPaW5kdXN0cmlhbCBsZWFkEWhpcC1ob3Agc2luZSBsZWFkEWEg
        cmVtYXJrIHlvdSBtYWRlCFL4eWtzb3BwEy0tLS0tLUVmZmVjdHMtLS0tLS0Lc2NyYXRjaGluZzITRksgdW5jaGFpbmVkIG1lbG9keQhyaWdodCB1cApIZWxpY29wdGVy
        D01vdmUgZmlsdGVyIG1vZAZKaXRzanUYU3Rvcm0gKGluY3JlYXNlIGZpbGZlcm1vD0ZLIGJsYXVlIHN0dW5kZQd0YWtlb2ZmCERyb3BwaW5nDE1vdmUgb3NjMyBGVApi
        aXJkZmlsdGVyF3JhaW4gZG93biAobW92ZSBhdHRhY2spBnJpc2luZwxyaW90IGF0IFVGRkEQU2luZ2luZyB0aGVyZW1pbhRtb3ZlIGF0dGFjayBmb3IgZmFsbBVIb3ds
        aW4gZHJ1bSAoY29udG91cikTTGFzZXIgZHJ1bSAoYXR0YWNrKQx6aWctemFrIGRvd24KYmlyZCBub2lzZQtiaXJkIG5vaXNlMwpzY2FyeSB0b25lFS0tLS0tLS1SeXRo
        bWljLS0tLS0tLQ9QdWxzYXRpbmcgU3dlZXAPQnJvdGhlcnMgZyB3b3JrDXNwZWVkIGlzIG9zYzMPLS0tLS1Qb2x5LS0tLS0tDnJob2RlcyB0cmVtb2xvBXZpYmVzES0t
        LS0tLUJBU1NFUy0tLS0tDUZLIGJ1c3N5IGJhc3MMYmxhY2sgcnViYmVyDVNIT1JUIFNVQkJBU1MIc3ViIGJhc3MMTW9uc3RlciByaWZmCjJzdGVwIGJhc3MKUm91bmQg
        QmFzcxMzb3NjIGJhc3MgTWluaW1vc3RhEVN3ZWVwaW5nIExGTyBCYXNzDWJhc3Mgcm9ja3JpZmYJc291bCBiYXNzC2Jhc3MgZmVuZGVyEmJhc3MgZmVuZGVyIHNxdWFy
        ZRYtLS0tLVJpZmYgc291bmRzLS0tLS0tCVN1cGVyIFNhdxFzeW5jIG1vdmVfY29udG91chVGSyBicm90aGVycyBsaW9uaGVhcmQQRGFuY2UgZmxvb3IgcmlmZhNGSyB0
        aGUgYW5zd2VyIGlzIDQyE0Jhc3NyaWZmX2Rpc3RvcnRpb24GbWluaVRCB21pbmlUQjISaGlnaGVyIGFuZCBoaWdoZXIyDk1pbmlfcG93ZXJiYXNzFGRhbmNlIChhZGQg
        YXJwK2dhdGUpC2d1aXRhciBjb21wEnJvY2sgbW9vZ2Jhc3MgM29zYxZyaW5nIG1vdmUgKGYuIHN1c3RhaW4pCmluZHVzdGlhbDIYLS0tLS0tLWhhcmQgc3luYy0tLS0t
        LS0tEHN5bmMgQnJ1dGFsIGxlYWQJc3luYyBsZWFkDnN5bmMgT2JvZSBsZWFkCHN5bmMgc2F4D3N5bmMgV2luZHkgbGVhZA1zeW5jIHNlcXVlbnplEC0tLS1BcnAvR2F0
        ZS0tLS0Jc2lsayBhcnAyEEZLIHRoZSBxdWlldCBtYW4VRksgZmFpcnkgdmVsbyBzdHJpbmdzDm1ldGFsbGljIGdhdGUyC3NxdWFyZSBnYXRlDXN3ZWVwaW5nIGdhdGUO
        c3dlZXBpbmcgZ2F0ZTMOc3dlZXBpbmcgZ2F0ZTUOc3dlZXBpbmcgZ2F0ZTYKT3JnYW4gZ2F0ZQxqdW1waW5nIHJpZmYULS0tLS0tLURydW1zLS0tLS0tLS0NQ2xvc2Vk
        IEhpIEhhdAhIaS1oYXQgMghIaS1oYXQgMw9IaSBIYXQgYW5kIEJhc3MYc25hcmUgZHJ1bShtb3ZlIGVtcGFzaXMpD2hvdXNlIGRydW0gOTBgcwUwLjQwMAQ0LjkwBDMu
        MjUGLTMuMDAwBi0zLjAwMAYtMy4wMDAENy4zNQYtMy4wMDAGLTMuMDAwBi0zLjAwMAYtMy4wMDAFMTAuMDAGLTMuMDAwBi0zLjAwMAUwLjIwMAYtMy4wMDAEMy4xMAQ1
        Ljk1BDMuNTUEMS4wNAQ1LjQ5Bi0zLjAwMAUwLjAwMAYtMy4wMDAENy40OQUwLjAwMAYtMy4wMDAFMTAuMDAFMC4wMDAGLTMuMDAwBi0zLjAwMAYtMy4wMDAEMi4yNQQ1
        LjYwBi0zLjAwMAYtMy4wMDAGLTMuMDAwBDcuODAGLTMuMDAwBDcuNjAFMC4wMDAENC43MAQ1LjYwBDcuODAGLTMuMDAwBi0zLjAwMAYtMy4wMDAGLTMuMDAwBi0zLjAw
        MAQzLjUwBi0zLjAwMAYtMy4wMDAFMC44NTAENy4yNQYtMy4wMDAGLTMuMDAwBDQuMjAGLTMuMDAwBi0zLjAwMAYtMy4wMDAGLTMuMDAwBi0zLjAwMAQ0LjMwBDQuMzAG
        LTMuMDAwBDMuNjUFMC4wMDAENi40NQYtMy4wMDAFMC4wMDAEMi43MAQzLjA1Bi0zLjAwMAUwLjA1MAQyLjQ1BDMuOTUENS41NQYtMy4wMDAEMy4wNQYtMy4wMDAEMS4x
        NQYtMy4wMDAEMS4wNAYtMy4wMDAGLTMuMDAwBi0zLjAwMAQ2Ljg1BDEuNTAENC4zMAQxLjA1BTAuNzUwBTEwLjAwBDQuNTAENS4yNQQ1LjcwBDQuMzkEMS4xNQQzLjEw
        Bi0zLjAwMAQxLjA0Bi0zLjAwMAQ2LjIzBDIuNDAENy45NQQ1LjU1BTEwLjAwBDguNDAENy44MAQ2Ljc1BDQuOTAENC45MAQxLjY1BDQuMTAENC41NQQ0LjA1BDkuMjAE
        Ni40NQQ2LjQ1BDYuNDUENS4wNQYtMy4wMDAFMC4wMDAFMC4wMDAFMC4wMDAFMC4wMDAFMC4wMDAFMC4wMDAFMC4wMDAEOC44MAUxMC4wMAQ2LjI3BTEwLjAwBDkuOTMF
        MTAuMDAENS4xOQUxMC4wMAUxMC4wMAUxMC4wMAQ5LjQ0BDIuNDUEOS40MAQ5Ljk3BTEwLjAwBDkuNjYENi42OAUxMC4wMAUxMC4wMAUxMC4wMAQ5LjEwBTEwLjAwBDku
        NTAFMTAuMDAEOS4xMAQ5LjUwBDkuNDAFMTAuMDAENi42OAQ5LjM0BTEwLjAwBDkuNzAFMTAuMDAEOC4zOAQ5LjM0BDkuNDgEOS4yNwQ1LjE4BDkuOTMFMC4xNjgFMC4y
        MDAEOS41MwQ5LjUzBDcuMjYFMTAuMDAFMTAuMDAENS44MwQ1LjkzBTEwLjAwBDUuMDgFMC4wMDAENC45NAUxMC4wMAQ3LjM2BDMuMzcEOS43MAUwLjAwMAQ5LjAwBDcu
        MjMFMTAuMDAFMTAuMDAEOC4xNwUwLjAwMAUwLjAyNgUxMC4wMAQ2LjIwBTEwLjAwBTEwLjAwBDcuNTMFMTAuMDAFMTAuMDAFMTAuMDAEOC44OQQ5LjIzBDcuOTAENy45
        MAQxLjUzBDguNDAEMS41MwQ5LjkwBDkuODcFMTAuMDAEOS42MQUxMC4wMAUxMC4wMAUxMC4wMAUxMC4wMAUxMC4wMAUwLjAwMAQ4LjIxBTEwLjAwBTEwLjAwBTEwLjAw
        BTEwLjAwBTAuMDAwBTEwLjAwBDkuODcEOS40MAUxMC4wMAUxMC4wMAQ5LjcwBDIuNjEEMy41MgUwLjAwMAUwLjAwMAUwLjA3OQUwLjA3MwUwLjAwMAQ0LjQwBTEwLjAw
        BTEwLjAwBDUuNjMENy4zMwQ2LjI0BDkuNDgEOS40NAQ5LjQ0BDkuNDQEOS40NAUxMC4wMAQ5LjQwBDYuMTMFMTAuMDAFMTAuMDAFMTAuMDAFMTAuMDAFMTAuMDAFMTAu
        MDAEMi43NAQyLjY4BDIuODUEMy4wMwQyLjk2BDIuNjgENC4yNwQxLjE0BDEuMTQEMS45NgQxLjk3BDQuOTMENC4yNwQzLjM0BDEuODAEMy41NwUwLjkyNgQ0LjU3BDMu
        MDAEMi4wMwQxLjk1BDEuNzAENC41NQQxLjcwBDEuOTUEMy4wOAQ0LjQ1BDUuNTMEMi42NAQzLjM0BDQuNTUENC43NAQzLjA5BDIuOTMEMy4zNAQzLjM0BDMuMzQENC42
        MwQ0LjY4BDMuMzQEMi44OAQzLjI2BDMuMjYFMC45MTAFMC4wMDAFMC4wMDAENC4zNwQyLjgwBDMuMDAENy4wNQQyLjgwBDEuNzUEMS45NgQ5LjEzBDQuNDkENy4xNAQx
        Ljg1BDIuODAEMS44MgQzLjAwBDMuMDAEMi4wMgQ1LjUyBDUuMDYEMy4wMAQyLjY4BDEuNjMEMS42MwQxLjUwBDEuNzAFMTAuMDAFMTAuMDAFMC42MTEFMC4wMDAFMC4y
        MDAFMC4yMDAFMC4xNTIFMC4xMDcFMC4xNTIFMC4wMDAFMC4wMDAFMC4wMDAEMS41NgQxLjEyBTAuMTUyBTAuMTUyBDUuNzAEMS44OQQ1LjUzBDEuNjMEMi44MAUxMC4w
        MAUwLjAwMAUwLjE1MgUwLjE1MgQxLjczBTAuMDAwBDMuNDAENC43NgQyLjAzBDQuNzQENS43MgQ1LjI2BDYuODMENS4xMAQzLjE0BDMuMzAENS4xMAQ2LjQ2BDIuNjgE
        Mi42OAQyLjAyBDIuNjMENC45MAQzLjM0BDEuOTcEMS45NwQxLjk3BDEuOTcEMS4xNAQyLjYyBTAuMDAwBTAuMDAwBTAuMDAwBTAuMDAwBTAuMDAwBDIuODAEMi44MAYt
        MC4wNDkGLTAuMDQ2Bi0wLjAyNwYtMC4wNDAFMC4wMTYGLTAuMDQ2Bi0wLjAxMAYtMC4wNDkGLTAuMDQ5Bi0wLjAxMwUwLjAxMQYtMC4wMDcGLTAuMDIyBi0wLjAxMwYt
        MC4wODYGLTAuMDI2Bi0wLjAxNwYtMC4wNDkGLTAuMDE0BTAuMDA2BTAuMDA2Bi0wLjA0OQYtMC4wMjAGLTAuMDI4BTAuMDA2Bi0wLjAyMAUwLjA0NgYtMC4wNTcGLTAu
        MDE3Bi0wLjAyMAYtMC4wNDYGLTAuMDQyBi0wLjA5NQYtMC4wMzgGLTAuMDIwBi0wLjAyOAYtMC4wMTMGLTAuMDM1BTAuMDE2Bi0wLjAxMwYtMC4wMjcFMC4wMjUFMC4w
        MjUGLTAuMDM3Bi0wLjAwOAYtMC4wMjAFMC4wMTEGLTAuMDQ0Bi0wLjAxMwYtMC4wNDkGLTAuMDI4Bi0wLjAzNwUwLjAyOAYtMC4wMTUGLTAuMDE3Bi0wLjA0NgYtMC4w
        MjcGLTAuMDIyBi0wLjAwOQYtMC4wMTMGLTAuMDEzBi0wLjAxNgYtMC4wMjUGLTAuMDI1Bi0wLjAxMwYtMC4wMDUGLTAuMDM3Bi0wLjA0NgYtMC4wMDEGLTAuMDI2Bi0w
        LjAyMQYtMC4wMjEGLTAuMDU2Bi0wLjA1MwYtMC4wNDAGLTAuMDQwBi0wLjA0NAYtMC4wMTcGLTAuMDQ0Bi0wLjAwMgYtMC4wMjgGLTAuMDQ2BTAuMDEyBi0wLjA1MwYt
        MC4wNDQGLTAuMDQ0Bi0wLjAyOAYtMC4wMjAGLTAuMDI1Bi0wLjAwNwYtMC4wMjgGLTAuMDM3Bi0wLjA0NAYtMC4wNDQGLTAuMDQ0BTAuMDA2Bi0wLjA0MwUwLjAxMgYt
        MC4wMDYFMC4wMDYGLTAuMDM1Bi0wLjE0OQYtMC4wNDkGLTAuMDQ5Bi0wLjA0OQUwLjAzMAYtMC4wNDkFMC4wMzAGLTAuMDQ5Bi0wLjA0NgYtMC4wNDYGLTAuMDE0Bi0w
        LjE5NgYtMC4wNDkGLTAuMDI4BTAuMDExBTAuMDExBTAuMDExBTAuMDExBi0wLjA0OQUwLjAyNgYtMC4wMjMGLTAuMDIzBi0wLjAyMwYtMC4wMjMGLTAuMDIzBi0wLjAx
        NwYtMC4wMTcEMy4xNAQzLjQ0BDMuNjgEMy4yNAQyLjkxBDMuNDQENC41NwUwLjAwMAUwLjAwMAQxLjg5BDIuNzAENC4yMgQzLjEwBDMuMzAEMS43NAQyLjA1BDIuODAE
        NC45MgQyLjY5BDEuMTQFMC41NTYEMS41MAQzLjMwBDEuNTAFMC41NTYEMy4zMAQyLjcyBDQuNTcEMi44MAQzLjMwBDQuNzgEMi41MAQ0LjQxBDUuMDQEMy4zMAQzLjMw
        BDMuMzAENS40OQQ0LjcwBDMuMzAEMy4zMAQzLjM2BDMuMzYFMC4wMDAFMC4wMDAFMC4wMDAENC43MAQzLjMzBDIuNzAENC40MQQyLjY3BTAuMjAwBDIuNjcEMS40MAQz
        LjEyBDIuNjUEMi43OAQyLjg3BDIuMDUEMi43MAQyLjcwBDEuNzMEMS4yMAQxLjIwBDIuMTMEMy40MgUwLjIwMAUwLjIwMAQyLjAxBDEuNTAEMi42NwQyLjY3BTAuNDAw
        BTAuMDAwBTAuMzgxBTAuMzgxBTAuNTA4BDEuNTgFMC41MDgFMC4wMDAEMy41MAUwLjEyMwQxLjg0BTAuNTA4BTAuNTA4BTAuNTA4BDIuNjcEMS4yNQQxLjIwBDQuNDIE
        Mi42NwUwLjAwMAQxLjI5BTAuNTA4BTAuNTA4BTAuMDEwBDMuNTAENC40MAQzLjQwBDEuMTQEMi41MAQ2LjQ2BDIuNTQEMS45NQQzLjI4BDEuOTUEMy4yOAQxLjcyBDIu
        OTYEMy40NAQzLjQ0BDQuMjQFMC45NDYEMy4yNwQzLjMwBDIuODgEMi44MgQyLjg4BDIuNjIFMC4wMDAEMy4xMAUwLjA3NgUwLjA3NgUwLjA3NgUwLjA3NgUwLjA3NgQ0
        LjQ0BDQuODYFMTIuNTAFMTIuNTAFMC4wMTkFMTIuNTAFMTEuMTMFMTIuNTAFMC4yNzEFMTIuNTAFMTIuNTAFMTIuNTAEOC4wMAQ2LjAxBTExLjI1BTEyLjQyBTEyLjUw
        BTEwLjMzBDUuMzcFMTEuNzMFMTEuNjMFMTIuNTAFMTEuMzcENy40OQQ1LjM3BDcuNDkFMTEuMzcENS4zNwUxMi4xMgUxMS43NQQ1LjM3BTExLjM2BTEyLjUwBDkuODME
        OC44MQUxMC40MAUxMS4zNgUxMC44NgUxMi4wNAUxMi40NQUxMS4xMwQ1LjM3BDUuMzcENi4zNwQ2Ljc3BDkuMTkFMC4wMDAFMTIuNTAFMTEuNTAENy40MwUxMi41MAQ2
        Ljg2BTExLjI1BDYuNTUFMC4wMDAFMTEuMjcENC42NwUxMS44MwQ1LjM3BTEyLjEyBTEwLjQ5BTEyLjUwBTEyLjUwBTAuMDAwBTAuMDAwBTAuMDAwBTEyLjUwBDguMDAF
        MTIuNTAFMTIuNTAFMTAuNTMEOS42MgQ5LjAxBDkuMDEFMTIuNTAFMTIuNTAFMTAuMzIFMTAuMzIFMTIuNTAFMC4wMDAFMTIuNTAFMTIuNTAFMTIuNTAFMTIuNTAFMTIu
        NTAFMTIuNTAFMTIuNTAFMTIuNTAFMTIuNTAFMTIuNTAFMC4wMDAEOS42NAUxMi41MAUxMC42NQUxMi41MAUxMi41MAUxMi41MAUxMS4zNwUxMi41MAQxLjc1BTExLjYy
        BTEyLjUwBDkuODMENS4zNAUxMi41MAUxMi41MAUxMi41MAUxMi41MAUxMi41MAUwLjAwMAUxMi41MAUxMi41MAUxMi41MAUxMi41MAQ2LjEwBTExLjM3BTEwLjg2BDgu
        MDAEOC4wMAQ4LjAwBDguMDAFMTIuNTAFMTEuMjUFMTIuNTAFMTIuNTAFMTIuNTAFMTIuNTAFMTEuMDkFMTIuNTAFMTIuNTAFMC4wMzkFMC4wMzkFMC4wMTcFMC4wMzkG
        LTAuMDI0BTAuMDM5BTAuMDI5BTAuMDQ5BTAuMDQ5BTAuNTkxBi0wLjAyNAUwLjAwMAUwLjAxMAUwLjAwOAUwLjA3NQUwLjIxMAUwLjAwOAYtMC40MDEFMC4wMDIGLTAu
        MDI0Bi0wLjAyNAUwLjA0NAUwLjAwOAUwLjAyNAYtMC4wMjQFMC4wMDgGLTAuMDU2BTAuMDI5BTAuMDA4BTAuMDA4BTAuMDM5Bi0wLjk2OQUwLjA3NAYtMS4wMDAFMC4w
        MDgFMC4wMDgFMC4wMDgFMC40NjAGLTAuMDI0BTAuMTQ2BTAuMDI0BTAuMDA4BTAuMDA4BTAuMDE2BTAuMDAwBTAuMDQ4Bi0wLjAwOAUwLjAzNwUwLjAwOAUwLjg3OAUw
        LjA0OAUwLjA0MAYtMC4wMjMGLTAuNjYwBi0wLjk5OAYtMC45NTMFMC4wMjQFMC4wMDgFMC4wMjAFMC4wMDgFMC4wMDgFMC4wMDIFMC41NjYFMC41NjYFMC42MjgGLTAu
        MDI0BTAuMDQwBTAuMDQwBi0wLjAwOAUwLjAyNAUwLjAyNAUwLjAyNAUwLjAzOQYtMS4wMDAFMC4wMjcFMC4wMjcFMC4wMjcFMC4wMDIFMC4wMjcFMC4wMjcFMC4wMjcF
        MC4wNDgGLTAuMDI0BTAuMDI3BTAuMDI3BTAuMDI3BTAuMDMwBTAuMDQ4BTAuNTY2Bi0wLjAwMQUwLjAzMAUwLjAxNgUwLjAyNwUwLjAyNwUwLjAyNwYtMC4wMjQFMC4w
        MjcGLTAuMDI1BTAuMDAwBi0wLjAyNAYtMC45NjkFMC44NDkGLTAuMTgyBi0wLjQ4MAUwLjQ0OQUwLjU4MAUwLjQ0OQUwLjAyMAUwLjU0MwUwLjAzOQUwLjAzOQYtMC4w
        MDkFMC4yMDAFMC4wNDkFMC4wMDgGLTAuMDI0Bi0wLjAyNAYtMC4wMjQGLTAuMDI0BTAuMDQ5Bi0wLjAwOAUwLjAzNQUwLjAzNQUwLjAzNQUwLjAzNQUwLjAzNQUwLjAz
        MwUwLjAzMwQ3LjAwBDguODQEOS4zNgQ2Ljk2BDcuMTAENy44OQQ4LjE0BDYuNDUEOC4wMAQ2Ljg4BDUuNTcENi4yNAQ3LjgyBDguMzcENi45MQQ3LjQ2BDguOTcFMTAu
        MDAENC40MQQ3LjQwBDguNDAEOC42NQQ4LjI3BDYuMjgENi42NwQ4LjI3BDguNDcENC45MAQ5LjA1BDcuOTMENy41NQQ4LjE5BDMuOTQEOS4xMQQ3LjA1BDYuMTMENi45
        NQQ4LjgxBDcuNTIFMTAuMDAFMTAuMDAFMTAuMDAFMTAuMDAEOS43OQQyLjM4BDYuNjUENi45MAQ0LjgyBDkuODYENS45MQQ3LjA0BDMuNTYENC4yNgQ3Ljc2BDguMDIE
        Ni41OAQ2LjEyBDEuNjMENi41MgUxMC4wMAQ2LjY4BDMuNTkENi44OAQ2LjU4BDguMDEEMy42OAQ1Ljg0BDUuODQENy40OQQ1LjI0BDIuOTMEMi45MwQ3LjI4BDguOTQE
        OC40NgQ4LjQ2BTEwLjAwBDguODcEOC43NwQ4Ljk4BDcuNDgENi4yMgQ3LjM4BTEwLjAwBTEwLjAwBTEwLjAwBDYuMDQENy4wNQQ3LjAyBDguODkENy40NAQzLjI1BDcu
        MzAENi4zMAQ2LjIzBDYuNDcENy4xOAQ3LjUyBDQuODYENy45OQQ4LjA3BDQuOTQENi4zMwQ5LjMwBDUuMTgEOC42MQQ1LjQ0BDYuOTUENi4xNgQ4LjA1BDcuODUENC4y
        MgQ2LjIyBDYuMjMEMy45NQQzLjc3BDMuMjIEMy4xMgQ0LjEyBDMuMzkEOC4wNAQ4LjU1BDcuNTIENy41MgQ2LjAyBDYuNjgEOS40OAQ3Ljk4BTEwLjAwBTEwLjAwBTEw
        LjAwBTEwLjAwBTEwLjAwBTEwLjAwBTEwLjAwBTEwLjAwBTEwLjAwBTEwLjAwBTEwLjAwBTEwLjAwBTEwLjAwBTEwLjAwBTEwLjAwBTEwLjAwBTEwLjAwBTEwLjAwBTEw
        LjAwBTEwLjAwBTEwLjAwBTEwLjAwBTEwLjAwBTEwLjAwBTEwLjAwBTEwLjAwBTEwLjAwBTEwLjAwBTEwLjAwBTEwLjAwBTEwLjAwBTEwLjAwBTEwLjAwBTEwLjAwBTEw
        LjAwBTEwLjAwBTEwLjAwBDYuNDYFMTAuMDAFMTAuMDAFMTAuMDAFMC4wMDAFMC4wMDAFMTAuMDAFMTAuMDAFMTAuMDAFMTAuMDAFMTAuMDAFMC4wMDAFMTAuMDAFMTAu
        MDAFMTAuMDAFMTAuMDAFMC4wMDAFMTAuMDAFMTAuMDAFMTAuMDAFMTAuMDAFMTAuMDAFMC4wMDAFMC4wMDAFMTAuMDAFMTAuMDAFMTAuMDAENS42NwUxMC4wMAUxMC4w
        MAUxMC4wMAUxMC4wMAQ0LjU3BTEwLjAwBTEwLjAwBTEwLjAwBTEwLjAwBTEwLjAwBTEwLjAwBTEwLjAwBTEwLjAwBTEwLjAwBTEwLjAwBTEwLjAwBTEwLjAwBTEwLjAw
        BTEwLjAwBTEwLjAwBTEwLjAwBTEwLjAwBTEwLjAwBTEwLjAwBTEwLjAwBTEwLjAwBTEwLjAwBTEwLjAwBTEwLjAwBTAuMDAwBTEwLjAwBTEwLjAwBTEwLjAwBTEwLjAw
        BTEwLjAwBTEwLjAwBDYuNTAFMTAuMDAFMTAuMDAFMTAuMDAFMTAuMDAFMTAuMDAFMTAuMDAFMTAuMDAFMTAuMDAFMTAuMDAFMTAuMDAFMTAuMDAFMTAuMDAFMTAuMDAF
        MTAuMDAFMTAuMDAFMTAuMDAFMTAuMDAFMTAuMDAFMTAuMDAFMTAuMDAFMC4wMDAFMC4wMDAFMC4wMDAFMTAuMDAFMC4wMDAFMC4wMDAFMTAuMDAFMC4wMDAFMC4wMDAF
        MC4wMDAFMC4wMDAFMC4wMDAFMC4wMDAFMTAuMDAFMTAuMDAFMTAuMDAFMTAuMDAFMTAuMDAFMC4wMDAFMC4wMDAFMTAuMDAFMTAuMDAFMTAuMDAFMC4wMDAFMTAuMDAF
        MTAuMDAFMTAuMDAFMTAuMDAFMTAuMDAFMC4wMDAFMTAuMDAFMTAuMDAFMTAuMDAFMTAuMDAFMTAuMDAFMTAuMDAFMC4wMDAFMC4wMDAFMTAuMDAFMTAuMDAFMTAuMDAF
        MTAuMDAFMTAuMDAENS40MgUwLjAwMAUxMC4wMAUxMC4wMAUxMC4wMAUxMC4wMAUxMC4wMAUwLjAwMAUwLjAwMAUxMC4wMAUwLjAwMAUxMC4wMAUwLjAwMAUxMC4wMAUx
        MC4wMAUxMC4wMAQ2LjU0BTEwLjAwBTAuMDAwBTEwLjAwBTEwLjAwBTEwLjAwBTEwLjAwBTEwLjAwBTAuMDAwBTAuMDAwBTAuMDAwBTAuMDAwBTEwLjAwBTEwLjAwBTEw
        LjAwBDguMDAENS43NQUxMC4wMAUxMC4wMAUxMC4wMAUwLjAwMAUxMC4wMAUxMC4wMAUwLjAwMAUwLjAwMAUwLjAwMAUxMC4wMAUxMC4wMAUwLjAwMAUxMC4wMAUwLjAw
        MAUwLjAwMAUwLjAwMAUwLjAwMAUxMC4wMAUwLjAwMAUxMC4wMAUwLjAwMAUxMC4wMAUwLjAwMAUwLjAwMAUwLjAwMAUxMC4wMAUxMC4wMAUxMC4wMAQ4LjAwBTEwLjAw
        BTAuMDAwBTAuMDAwBTEwLjAwBTEwLjAwBTEwLjAwBTEwLjAwBTEwLjAwBTEwLjAwBTEwLjAwBTAuMDAwBTAuMDAwBTEwLjAwBTEwLjAwBTAuMDAwBTEwLjAwBTEwLjAw
        BTEwLjAwBTEwLjAwBTEwLjAwBTEwLjAwBTAuMDAwBTEwLjAwBTEwLjAwBTEwLjAwBTEwLjAwBTEwLjAwBTEwLjAwBTEwLjAwBDcuNjMFMTAuMDAENi4xNwUxMC4wMAUx
        MC4wMAUxMC4wMAQ1Ljc4BTEwLjAwBTEwLjAwBTEwLjAwBDkuODAENy41MgQ5LjIwBTEwLjAwBTEwLjAwBDguMDYEOC45MAQ2LjcwBDkuNjcEOS42NwQ5LjE3BDkuODcE
        OC4yNgUxMC4wMAQ5LjE3BDkuMDAEOC4wNAQ5LjkwBDguOTAEOS4wMwUxMC4wMAQ5LjkwBDkuOTcEOC4xMQQ5LjAzBDkuNjAEOS41NAQxLjgyBTEwLjAwBTEwLjAwBTEw
        LjAwBDkuNzgEOS43OAQ2LjAzBDguMTAFMTAuMDAENi4xNgQ1Ljc2BTEwLjAwBDguMDYFMC40NDcENS4xMwQ4LjU3BTAuNDUzBDMuNjUEOS45MAUxMC4wMAQ5LjAwBDgu
        MzcFMTAuMDAFMTAuMDAENy44NwQzLjY4BDMuMTgFMTAuMDAENS40MAUxMC4wMAUxMC4wMAQ4LjAwBTEwLjAwBDMuODIEMy43OAUxMC4wMAQ4LjM1BDguMzAEOC4zMAUx
        MC4wMAQ4LjY5BTEwLjAwBTEwLjAwBTEwLjAwBTEwLjAwBDkuNjcEMi4xMAQxLjU2BDEuNDcFMTAuMDAFMTAuMDAFMTAuMDAENi44MQUxMC4wMAUwLjAwMAQ2LjgwBDYu
        NzcFMTAuMDAEOS4xNwUxMC4wMAUxMC4wMAUxMC4wMAQ5LjY3BDkuOTAEOS41NAUxMC4wMAUxMC4wMAUxMC4wMAUxMC4wMAUxMC4wMAUxMC4wMAUxMC4wMAUxMC4wMAUx
        MC4wMAQ5Ljk5BDcuMzgENi4zMAQ5LjYwBDkuODAEOS44MAQ5LjgwBDkuODAFMTAuMDAENS44MAUxMC4wMAUxMC4wMAUxMC4wMAUxMC4wMAUxMC4wMAQ5LjAwBDkuMDAF
        MTAuMDAFMTAuMDAFMTAuMDAFMTAuMDAFMTAuMDAFMTAuMDAFMTAuMDAFMTAuMDAFMTAuMDAFMTAuMDAFMTAuMDAFMTAuMDAFMTAuMDAFMTAuMDAFMTAuMDAFMTAuMDAF
        MTAuMDAFMTAuMDAFMTAuMDAFMTAuMDAFMTAuMDAFMTAuMDAFMTAuMDAFMTAuMDAFMTAuMDAFMTAuMDAFMTAuMDAFMTAuMDAFMTAuMDAFMTAuMDAFMTAuMDAFMTAuMDAF
        MTAuMDAFMTAuMDAFMTAuMDAFMTAuMDAFMTAuMDAEOC43NwUxMC4wMAUxMC4wMAUxMC4wMAUwLjAwMAUwLjAwMAUxMC4wMAUxMC4wMAUxMC4wMAUxMC4wMAUxMC4wMAUw
        LjAwMAUxMC4wMAUxMC4wMAUxMC4wMAUxMC4wMAQyLjcxBTEwLjAwBTEwLjAwBTEwLjAwBTEwLjAwBTEwLjAwBTAuMDAwBTAuMDAwBTEwLjAwBTEwLjAwBTEwLjAwBDQu
        MjUFMTAuMDAFMTAuMDAFMTAuMDAFMTAuMDAENS40MwUxMC4wMAUxMC4wMAUxMC4wMAUwLjAwMAUxMC4wMAUxMC4wMAUxMC4wMAQ2LjYxBTEwLjAwBTEwLjAwBTEwLjAw
        BTEwLjAwBTEwLjAwBTEwLjAwBTEwLjAwBTEwLjAwBTEwLjAwBTEwLjAwBTEwLjAwBTEwLjAwBTEwLjAwBTEwLjAwBTEwLjAwBTEwLjAwBTEwLjAwBTEwLjAwBTEwLjAw
        BTEwLjAwBTEwLjAwBTEwLjAwBTEwLjAwBDkuMzQFMTAuMDAFMTAuMDAFMTAuMDAFMTAuMDAFMTAuMDAFMTAuMDAFMTAuMDAFMTAuMDAFMTAuMDAFMTAuMDAFMTAuMDAF
        MTAuMDAFMTAuMDAFMTAuMDAFMTAuMDAFMTAuMDAFMTAuMDAFMTAuMDAFMTAuMDAFMC4wMDAFMC4wMDAFMC4wMDAFMC4wMDAFMTAuMDAFMC4wMDAFMC4wMDAEMy42NgQz
        LjM4BDguMDIEMy4wOQQ1LjI5BDMuMzgFMTAuMDAENC41NwQ0LjU3BDMuNTQEMy41NQQxLjQ4BDMuMzAEMS42MgQzLjQxBDMuMTcFMC4wMDAEMS4wMAQ0Ljg1BDMuMDkE
        My4wOQQ1LjQ2BDEuNDUENi42MQQzLjA5BDEuNDUEMy40MQQ3LjA2BTAuMDAwBDYuODkEMy4zOAQzLjcwBDMuNTYFMC4zNTUENy4xNQQ3LjE1BDYuNTQENC4wMgUwLjIw
        MAQ1LjA3BDUuMjUENi44MQQ2LjgxBTAuMzMxBDcuNTQEMy41NAUwLjQxNAQxLjMyBDguMjkENS40NQQzLjU0BTEwLjAwBDcuMzAEMS44NAQzLjQ2BDMuNzAENS4yNQQy
        LjIwBDMuODAEOC4yOQQ4LjI5BDEuNzYEMy40NgQzLjQ2BDIuMjkENy4xNwQzLjM5BDMuMzkEMy44MAQzLjU4BDcuOTIENy45MgQ3LjgwBTEwLjAwBDIuNTgEMi41OAQx
        LjgzBDMuMDMENi41MQQzLjQ2BDIuNTgEOC43NAQzLjA5BDEuOTgENi44MQQ2LjUxBDMuNTQEMy41NAQzLjQ2BTAuMDc1BDMuNTQFMC4zMzEENi44MQQyLjc3BDguODcE
        My4wOQQyLjU4BDQuMTIEOC40OQQzLjA5BDMuNzAENy42MAQ2LjYxBTEwLjAwBDguMDIFMC40OTQENy4wMAQyLjk5BDEuNjEEMy4zOAQzLjM4BDMuOTgEMy4xMgQ0LjU3
        BDcuMTUEMy41NQQzLjU1BDMuNTUEMy41NQQ0LjU3BTEwLjAwBDguNTgEOC41OAQ4LjU4BDguNTgEOC41OAQ1LjQ4BDUuNDgEMy43NAQzLjc5Bi01LjAwMAQ1LjAwBDUu
        MDAEMy43OQYtMC4xNTAENS4wMAQ1LjAwBDUuMDAFMC4wMDAENS4wMAQzLjkwBDQuNzUENS4wMAUwLjAwMAUwLjUwMAYtNS4wMDAFMC45NTAFMC4wMDAENS4wMAQ0Ljkw
        Bi0xLjMwMAQ0LjkwBDUuMDAGLTEuMzAwBDUuMDAGLTMuMDAwBTAuNTAwBDQuNzUEMy43OQUwLjAwMAQxLjUwBi01LjAwMAQ0Ljc1BDQuNzUENC43NQQyLjMxBDUuMDAE
        Mi44NQQyLjg1Bi0wLjI1MAYtMC4yNTAGLTUuMDAwBi0wLjU5MQQ1LjAwBi0wLjUwMAQ1LjAwBDEuMTAENC4wMAYtMS4zMDAENS4wMAQzLjc5Bi0yLjgyMAUwLjAwMAUw
        LjAwMAQyLjg1BDUuMDAFMC4wMDAEMS4xMAQxLjEwBDUuMDAENS4wMAQ1LjAwBDEuMTAENS4wMAQ1LjAwBDUuMDAFMC4wMDAENC45MAUwLjc1MAQ0Ljc1BDMuODAGLTQu
        ODAwBDMuMTUEMy4xNQQ1LjAwBDUuMDAENS4wMAQ1LjAwBTAuMDAwBDUuMDAFMC4wMDAFMC4wMDAENS4wMAQ1LjAwBi0xLjMwMAQ1LjAwBDUuMDAENS4wMAYtMS4zMDAG
        LTUuMDAwBDUuMDAENS4wMAQ1LjAwBi0zLjAwMAQzLjE1BTAuMDAwBDQuOTAFMC4wMDAENC45MAQzLjUwBDMuNzkEMy43OQQzLjc5BDMuNzkEMy43OQQzLjc5BDMuNzkE
        My43OQQzLjc5BDUuMDAFMC43MDAENS4wMAQ0Ljc1BTAuMDAwBTAuMDAwBTAuMDAwBTAuMDAwBDUuMDAEMy45MAUwLjU5MQUwLjU5MQUwLjU5MQUwLjU5MQUwLjU5MQQ1
        LjAwBDUuMDAEMy41NQUwLjkwMAYtMy44MDAENC4yNQQ1LjAwBTAuOTAwBi00LjgwMAYtMC42NjkGLTAuNjY5BDUuMDAEMS45MAQ1LjAwBDMuNzAENS4wMAQxLjkxBi0w
        LjQ1MAYtNS4wMDAENS4wMAQxLjIwBTAuNDUwBi00LjM1MAQ1LjAwBTAuNzAwBDUuMDAGLTQuMzUwBTAuNzAwBDUuMDAGLTIuODAwBi01LjAwMAQ1LjAwBTAuOTAwBTAu
        MDAwBTAuNTAwBi00Ljk1MAQ1LjAwBDUuMDAENS4wMAQ0Ljk4BDUuMDAEMy44MAQzLjgwBDUuMDAENS4wMAQ1LjAwBTAuNTgyBDUuMDAFMC45MDAEMS45MQQyLjcwBDMu
        MzUGLTAuNDAwBDUuMDAEMS4xNQUwLjQ2NAUwLjAwMAUwLjAwMAQzLjgwBDUuMDAFMC4wMDAEMi43MAQyLjcwBDUuMDAEMS45MwQxLjkzBDIuNzAENC45MAQ1LjAwBDUu
        MDAFMC4wMDAENS4wMAQyLjQwBDIuNDAEMy44NQUwLjMwMAQzLjgwBDMuODAEMS41NQQ1LjAwBDEuNTUEMS45MwUwLjAwMAQ1LjAwBTAuNDUwBTAuMDAwBTAuMDAwBTAu
        MDAwBi0wLjQwMAQ1LjAwBDEuOTMGLTAuNjAwBi0wLjQwMAQ1LjAwBTAuMDAwBTAuMDAwBTAuMDAwBi00LjM1MAQzLjgwBTAuNzUwBDIuNTUFMC40NTAENS4wMAQyLjE3
        Bi0xLjAwMAQ0LjcwBDQuNzAENC43MAYtMS4wMDAENC43MAQzLjUwBTAuOTAwBTAuOTAwBi00LjIwMAUwLjA1MAYtMC42NjkENS4wMAQxLjkwBDEuOTAEMS45MAQxLjkw
        Bi0wLjY2OQQzLjcwBTAuOTAwBTAuOTAwBTAuOTAwBTAuOTAwBTAuOTAwBDUuMDAENS4wMAQxLjgwBDEuODAGLTQuNDAwBTAuOTAwBDUuMDAEMS44MAQ1LjAwBDUuMDAE
        NS4wMAQ1LjAwBTAuMDAwBDEuNjUEMy42MAUwLjM1MAYtMC4zODMFMC4wMDAENC44MAYtNS4wMDAFMC4zNTAFMC4wMDAFMC4wMDAENS4wMAQ0LjgwBDUuMDAFMC4wMDAE
        NC44MAQ1LjAwBi0zLjI1MAQ0LjgwBTAuMzUwBDEuODAFMC4wMDAEMi4xNQYtNS4wMDAFMC4zNTAENC40NQQ1LjAwBDIuNTUENS4wMAQ1LjAwBDUuMDAENC44MAQ0Ljgw
        Bi00LjgwMAQ1LjAwBi01LjAwMAQzLjAwBDIuMjIEMi4zNQYtNS4wMDAENS4wMAUwLjExOAQyLjYwBDEuNDIFMC4wMDAFMC4wMDAENS4wMAQ1LjAwBTAuMDAwBDIuMzUE
        Mi4zNQQ1LjAwBDEuODUEMS44NQQyLjM1BTAuMDAwBTAuMTE4BTAuMTE4BTAuMDAwBDUuMDAENS4wMAQ1LjAwBDUuMDAGLTMuNDAwBTAuMDAwBTAuMDAwBTAuMDAwBDUu
        MDAFMC4wMDAFMC43MDAFMC4wMDAGLTUuMDAwBTAuMDAwBTAuMDAwBTAuMDAwBTAuMDAwBDUuMDAENS4wMAQxLjg1BDEuNjUENS4wMAYtNC44MDAFMC4wMDAFMC4wMDAF
        MC4wMDAFMC4wMDAFMC4wMDAEMS4xNQUwLjAwMAUwLjAwMAUwLjAwMAYtMi4wNTYEMS44MAQxLjgwBDEuODAEMS44MAQxLjgwBDUuMDAEMS44MAQxLjgwBDEuODAENS4w
        MAQyLjEwBDUuMDAENC40NQUwLjAwMAUwLjAwMAUwLjAwMAUwLjAwMAQ1LjAwBDMuNjAENC4zNQQxLjgwBDEuODAEMS44MAQxLjgwBi0zLjQwMAYtMy40MDAGLTAuMDIz
        Bi0wLjAxNAYtMC4wNDIGLTAuMTQ5Bi0wLjAyNgYtMC4wMTQGLTAuMDc5Bi0wLjAyMwYtMC4wMjMGLTAuMDM0BDUuMDAFMC4xMDAFMC4wMTcGLTAuMDE5Bi0wLjA2MQYt
        MC4wMDkGLTAuMDMxBi0wLjA0OQUwLjA4MgUwLjAwNAYtMC4wMjkGLTAuMDExBi0wLjAzMQYtMC4wMTEGLTAuMDI1Bi0wLjAzMQUwLjA2MwYtMC4wNjcGLTAuMDMxBi0w
        LjAxOQYtMC4wMTQGLTAuMDA3Bi0wLjExOQYtMC4wMTMGLTAuMDE5Bi0wLjA3MgYtMC4wNDEGLTAuMDQ3Bi0wLjAyNgYtMC4wMzEGLTAuMDMxBi0wLjAzMQYtMC4wMzEG
        LTAuMTYzBi0wLjAzNQYtMC4yMDAGLTAuMDE1Bi0wLjA2MQYtMC4wNDcGLTAuMDY3BTAuMDM0Bi0wLjAzNQYtMC4wMjgFMC4wNjgGLTAuMDY3Bi0wLjA1NAYtMC4wMzEG
        LTAuMDM0BTAuMDQ3Bi0wLjA0NwYtMC4wNDcGLTAuMDI4Bi0wLjAxNAYtMC4wMTQGLTAuMDQ3BTAuMDAxBi0wLjAzNQYtMC4wMjYGLTAuMTk5Bi0wLjAxMQYtMC4wMjMG
        LTAuMDIzBTAuMDU2Bi0wLjA0MQYtMC4wNDEGLTAuMDQxBi0wLjAxNgYtMC4wMjgGLTAuMDE2Bi0wLjAxNAYtMC4wMjMGLTAuMjAwBTAuMDA0Bi0wLjAxNgYtMC4wMTYG
        LTAuMDE2Bi0wLjE0MgYtMC4wMjMGLTAuMDE0BTAuMTAwBi0wLjE0MgYtMC4xNjMGLTAuMjAwBi0wLjIwMAYtMC4yMDAGLTAuMDI1Bi0wLjAzOQUwLjEwMAYtMC4wMzIF
        MC4wMDQGLTAuMDA3Bi0wLjExNgYtMC4wMjMGLTAuMDIzBi0wLjAyMwYtMC4wMjMGLTAuMDIzBi0wLjAzMgYtMC4wMjMGLTAuMDE0Bi0wLjAxNAUwLjA5NwYtMC4xMDkG
        LTAuMDk0Bi0wLjA3MgYtMC4wMjgGLTAuMDI4Bi0wLjAyOAYtMC4wMjgGLTAuMDIzBTAuMDY3Bi0wLjAxNAYtMC4wMTQGLTAuMDE0Bi0wLjAxNAYtMC4wMTQGLTAuMDE5
        Bi0wLjAxOQUwLjAwMAUwLjAwMAUwLjAwMAUwLjAwMAQ2LjY3BTAuMDAwBTEwLjAwBTAuMDAwBTAuMDAwBTEwLjAwBDguMDAFMC4wMDAFMC4wMDAEOC4wMAUwLjAwMAUw
        LjAwMAUwLjAwMAUwLjAwMAUxMC4wMAUwLjAwMAUwLjAwMAUwLjAwMAUwLjAwMAUwLjAwMAUwLjAwMAUwLjAwMAUwLjAwMAUwLjAwMAUwLjAwMAUwLjAwMAUwLjAwMAUw
        LjAwMAUxMC4wMAUxMC4wMAUwLjAwMAUwLjAwMAUwLjAwMAUwLjQyMwUwLjAwMAUwLjAwMAUwLjAwMAUwLjAwMAUwLjAwMAUwLjAwMAUwLjAwMAUwLjAwMAUwLjAwMAUw
        LjAwMAUwLjAwMAUwLjAwMAUwLjAwMAUwLjAwMAUxMC4wMAQ4LjkxBTAuMDAwBTAuMDAwBTAuMDAwBTEwLjAwBTAuMDAwBTAuMDAwBTAuMDAwBTAuMDAwBTAuMDAwBTAu
        MDAwBTAuMDAwBTAuMDAwBTEwLjAwBTEwLjAwBDguMDAFMC4wMDAFMC4wMDAFMC4wMDAFMC4wMDAFMC4wMDAFMC4wMDAFMC4wMDAFMC4wMDAFMC4wMDAFMC4wMDAFMTAu
        MDAFMC4wMDAFMC4wMDAFMC4wMDAFMC4wMDAFMC4wMDAFMC4wMDAFMC4wMDAFMTAuMDAFMC4wMDAFMC4wMDAFMTAuMDAFMC4wMDAFMC4wMDAFMC4wMDAFMC4wMDAFMC4w
        MDAFMC4wMDAFMC4wMDAFMC4wMDAFMC4wMDAFMC4wMDAFMC4wMDAFMC4wMDAFMC4wMDAFMC4wMDAFMC4wMDAFMC4wMDAFMC4wMDAFMC4wMDAFMC4wMDAFMC4wMDAFMC4w
        MDAFMC4wMDAFMC4wMDAFMC4wMDAFMTAuMDAFMTAuMDAFMTAuMDAFMTAuMDAFMC4wMDAFMC4wMDAFMC4wMDAFMC4wMDAFMC4wMDAFMC4wMDAFMC4wMDAFMTAuMDAFMTAu
        MDAFMC4wMDAFMTAuMDAFMC4wMDAFMC4wMDAEMy4zMwUxMC4wMAUwLjAwMAUxMC4wMAUxMC4wMAUxMC4wMAUwLjAwMAUxMC4wMAUwLjAwMAUwLjAwMAQzLjMzBTAuMDAw
        BTAuMDAwBTAuMDAwBTAuMDAwBTAuMDAwBTAuMDAwBTAuMDAwBTEwLjAwBTAuMDAwBTAuMDAwBTEwLjAwBDMuMzMFMC4wMDAFMC4wMDAFMC4wMDAFMC4wMDAFMC4wMDAF
        MTAuMDAFMTAuMDAFMC4wMDAFMC4wMDAFMC4wMDAFMC4yMDcEMy4zMwUwLjAwMAUwLjAwMAUwLjAwMAUwLjAwMAUxMC4wMAUwLjAwMAUwLjAwMAQzLjMzBDMuMzMEMy4z
        MwUwLjAwMAUwLjAwMAUwLjAwMAUwLjAwMAQ5LjM3BTAuMDAwBTAuMDAwBTAuMDAwBTAuMDAwBTAuMDAwBDMuMzMFMC4wMDAFMC4wMDAFMC4wMDAFMC4wMDAEMy4zMwUw
        LjAwMAUwLjAwMAUwLjAwMAUwLjAwMAUwLjAwMAUwLjAwMAUwLjAwMAUwLjAwMAUwLjAwMAUwLjAwMAUwLjAwMAUwLjAwMAUwLjAwMAUwLjAwMAUwLjAwMAUwLjAwMAUx
        MC4wMAUwLjAwMAUwLjAwMAUwLjAwMAUwLjAwMAUwLjAwMAUxMC4wMAUwLjAwMAUwLjAwMAUwLjAwMAUwLjAwMAUwLjAwMAUwLjAwMAUwLjAwMAUwLjAwMAUwLjAwMAUw
        LjAwMAUwLjAwMAUwLjAwMAUwLjAwMAUxMC4wMAUwLjAwMAUwLjAwMAUwLjAwMAUwLjAwMAUwLjAwMAUwLjAwMAUwLjAwMAUxMC4wMAUxMC4wMAUxMC4wMAUxMC4wMAUx
        MC4wMAUwLjAwMAUwLjAwMAUwLjAwMAUwLjAwMAUwLjAwMAUxMC4wMAUwLjAwMAUwLjAwMAUxMC4wMAUxMC4wMAUxMC4wMAUxMC4wMAUwLjAwMAUwLjAwMAYtMC4wMDgG
        LTAuMDA4BTAuMDM5BTAuMDA0Bi0wLjAwOAYtMC4wMDgFMC4wMDcFMC4wMDgFMC4wMDgFMC4wMDgGLTAuMDA4BTAuMTAwBTAuMDAwBi0wLjAwOAUwLjAwMQUwLjAxMgYt
        MC4wMDgFMC4wMjUFMC4wMDgGLTAuMDA4Bi0wLjAwOAYtMC4wMjQGLTAuMDA4BTAuMDA4Bi0wLjAwOAYtMC4wMDgGLTAuMDAyBi0wLjAyMQYtMC4wMDgGLTAuMDA4Bi0w
        LjAwOAYtMC4wMDgGLTAuMDIxBi0wLjc4MAYtMC4wMDgGLTAuMDA4Bi0wLjAwOAUwLjAyOQYtMC4wMDgGLTAuMDA4Bi0wLjAwOAUwLjAzMgUwLjAzMgYtMC4wMTEFMC4w
        MDAFMC4wMTUFMC4wMDgFMC4wMDEFMC4wMDQGLTAuMDIxBTAuMDE1BTAuMDEzBTAuMDE0BTAuNjM2BTAuMDAwBi0wLjAwOAYtMC4wMDgGLTAuMDA4Bi0wLjAwOAUwLjAw
        NAUwLjAwNAYtMC4wMDgGLTAuMDA4Bi0wLjAwOAYtMC4wMDgFMC4wMjQFMC4wMTMFMC4wMTMFMC4wMDgGLTAuMDA4BTAuMDA4BTAuMDA4Bi0wLjAwOAUwLjAxOQYtMC4w
        MTUGLTAuMDE1Bi0wLjAwOAYtMC4wMDgGLTAuMDA4BTAuMDIzBi0wLjAwOQUwLjAxNQYtMC4wMDgGLTAuMDA4Bi0wLjAwOAYtMC4wMDgGLTAuMDA4BTAuMDE1Bi0wLjAw
        OAYtMC4wMDEGLTAuMDA4Bi0wLjAxMQYtMC4wMDgGLTAuMDA4Bi0wLjAwOAYtMC4wMDgGLTAuMDE1Bi0wLjAwOAUwLjAwNgYtMC4wMDgGLTAuMDA4BTAuNDk3Bi0wLjAw
        OAYtMC4wMDgGLTAuMDA4Bi0wLjAwOAYtMC4wMDgGLTAuMDA4Bi0wLjAwOAYtMC4wMDgGLTAuMDA4Bi0wLjAwNgYtMC4wMDQFMC4wMDgGLTAuMDA4Bi0wLjAwOAYtMC4w
        MDgGLTAuMDA4Bi0wLjAwOAUwLjAwOAUwLjAwMAUwLjAyMwUwLjAyMwUwLjAyMwUwLjAyMwUwLjAyMwUwLjAxMwUwLjAxMwQyLjg2BDIuODYEOC4xMAQzLjM3BDIuNzAE
        Mi44NgQ5Ljk2BTAuMDAwBTAuMDAwBDIuODMEMi42MAQzLjQyBDIuOTcEMS42MAQyLjEyBDEuNjMEMi42MAQyLjcwBDEuOTYEMS43MgQxLjcyBDQuNzQEMS4yNQQ3LjM3
        BDEuNzIEMS4yNQQyLjEyBDEuOTcEMi42MAQ2LjkxBDIuODYFMC45NzgEMy4yNwUwLjAwMAQ2LjU4BDYuNTEENi41MwUwLjM0OAUwLjAwMAQzLjQ0BDMuMjUENi41NgQ2
        LjA5BTAuMDIxBDYuNDkEMy4xOQQyLjc1BDIuMTIENi41MgQxLjE2BDMuNDAENC42NAQyLjg2BDEuNzAEMy4wNgUwLjk3OAQzLjIxBDIuODMEMS40OAQ2LjcwBDYuNjQE
        My4zMwQ5LjU3BTEwLjAwBDMuNDAENy41NwQ5LjU4BTEwLjAwBDEuNDgEMy4wMgQ3Ljk2BTAuMjk1BDEuNDUEMy4zOQQyLjc1BDIuNzUEMi44NQQzLjYxBDcuNzIEMi43
        OQQyLjc1BDguMDEEMS43MgUwLjk3OAQzLjA0BDcuNzIEMy40MAQzLjQwBDkuNzgFMC4wNDkEMy40MAUwLjAyMQQzLjA0BDcuNzIENy43MgQxLjcyBDIuNzUEMS43MQQ5
        LjMxBDEuNzIEMi43OAQzLjIwBTEwLjAwBTEwLjAwBDkuNTYEOS42MwQ5LjQ5BDkuODAEMi44NgQyLjg2BDIuODYFMC4xNjcEMi43MwUwLjAwMAQ3LjE4BDIuNjAEMi42
        MAQyLjYwBDIuNjAFMC4wMDAEMi45NwQ5LjQ3BDkuOTAEOS4zOAQ5LjI3BDkuOTUEMy4yNgQzLjUzBDUuNjUENC42OAUwLjAwMAQ5Ljk0BTAuMjcwBDQuNjgENC4zMgQ0
        LjQ5BDQuNDkEMi45OQQxLjk1BDIuMTYFMC4wMDAFMC4wMDAENC4wNQQyLjYyBTAuMDAwBDYuODQEMi45NQQzLjIwBDMuMjAENi45MAUwLjAwMAQ1LjEyBDMuMjAFMC4w
        MDAENC4wNQQxLjU5BTAuMDAwBTAuMDAwBDQuNjgFMC4wMDAEMy40NQQ1LjA5BTAuMDAwBDcuMzgENi43MgUwLjYyMQUwLjI3MAUwLjAwMAUwLjAwMAUxMC4wMAUxMC4w
        MAUxMC4wMAQ4LjA2BTAuMDc5BTAuMDAwBDkuNjEFMTAuMDAFMTAuMDAFMTAuMDAENS4wMwQ1LjQ5BTAuODA2BDYuMTkFMC4wMDAFMC4wMDAENS4wOQQzLjI5BDguNzAE
        OC43NwQ0LjEwBDEuNjUEMS42NQQ0LjYyBDYuNjQENi40NgQ2LjE2BDYuOTUENi45MAUwLjAwMAUwLjAwMAUwLjAwMAUwLjIzNgQzLjM4BDMuMzgEMi42MgUwLjA3OQQy
        LjYyBDIuMjgEMi42MgUwLjA3OQQzLjIwBDIuNjIEMi42MgQyLjYyBTAuMDAwBDIuOTkEMS42NQQxLjIyBTAuMDAwBDguMTAFMC4wMDAFMC4wMDAFMC4wMDAEMy4yMAQy
        LjYyBTAuMTYyBTAuMzY5BDMuMjAEMi44NQQ2LjMwBDQuODAENC44MAQ0LjgwBDQuODAENC44MAQ4LjM1BDQuODAENC42OAQ0LjY4BTAuMDAwBDIuMjgENC40OQQ3LjM4
        BTAuMDAwBTAuMDAwBTAuMDAwBTAuMDAwBDQuNDkFMC4wMDAEOC43MAQ4LjExBDguMTEEOC4xMQQ4LjExBDcuNTUEOC4zMAUxMC4wMAUxMC4wMAUwLjAwMAUxMC4wMAUx
        MC4wMAUxMC4wMAUwLjAwMAUwLjAwMAUwLjAwMAUwLjAwMAQ1LjAwBTAuMDAwBTEwLjAwBDUuMDAFMC4wMDAFMC4wMDAFMTAuMDAFMTAuMDAFMC4wMDAFMC4wMDAFMC4w
        MDAFMTAuMDAFMTAuMDAFMTAuMDAFMC4wMDAFMTAuMDAFMC4wMDAFMC4wMDAFMTAuMDAENS4wMAUxMC4wMAUxMC4wMAUwLjAwMAUwLjAwMAQ1LjAwBTAuMDAwBTAuMDAw
        BDEuNzYFMTAuMDAFMTAuMDAFMTAuMDAFMC4wMDAFMC4wMDAFMC4wMDAFMTAuMDAFMTAuMDAFMTAuMDAFMTAuMDAFMC4wMDAFMC4wMDAFMC4wMDAFMC4wMDAFMC4wMDAE
        Mi45NAUxMC4wMAUxMC4wMAUxMC4wMAUxMC4wMAUwLjAwMAUwLjAwMAUwLjAwMAUxMC4wMAUwLjAwMAUwLjAwMAUwLjAwMAUxMC4wMAUxMC4wMAUwLjAwMAUxMC4wMAUw
        LjAwMAUwLjAwMAUwLjAwMAUxMC4wMAUxMC4wMAUwLjAwMAUwLjAwMAUxMC4wMAUxMC4wMAUxMC4wMAUwLjAwMAUwLjAwMAUxMC4wMAUwLjAwMAUxMC4wMAUxMC4wMAUx
        MC4wMAUwLjAwMAUwLjAwMAUwLjAwMAUwLjAwMAUwLjAwMAUwLjAwMAUxMC4wMAUxMC4wMAUxMC4wMAUwLjAwMAUwLjAwMAUxMC4wMAUxMC4wMAUwLjAwMAUwLjAwMAUw
        LjAwMAUxMC4wMAUxMC4wMAUxMC4wMAUxMC4wMAUxMC4wMAUxMC4wMAUxMC4wMAUxMC4wMAUxMC4wMAUwLjAwMAUwLjAwMAUwLjAwMAUwLjAwMAQ1LjAwBDUuMDAENS4w
        MAQ1LjAwBTAuMDAwBTAuMDAwBTAuMDAwBTAuMDAwBTAuMDAwBTAuMDAwBTAuMDAwBTAuMDAwBTAuMDAwBDUuMDkENC42NAQ1LjQ0BDQuNzYENS4yMgQ0Ljc0BDQuNzEE
        NS4yMQQyLjc2BDEuNTkEMi4zNQQ1LjY2BDQuMzcENS44MQQxLjkwBDQuNDYENC4zNgQyLjg5BDIuNTcEMi45MQUwLjYzMAQ1LjM0BDQuMzYENS40OAUwLjYzMAQ0LjM2
        BDEuMDMENC4zNQQ0LjM2BDUuMTMENC4zNAQ0LjQ2BDUuNDkEMS4yNQQ1LjEzBDUuMTMEMy4yMAQ2LjkzBDUuMjIENC43NAQ0Ljc0BDQuODMENC44MAQ1LjExBDQuNDgE
        OC42NAQ3LjM0BDguNzAEMy40MAQ4Ljk2BDMuMDgENi45NQQyLjkyBDUuNDEENC43MwQ2Ljk2BDQuNzQENC45NgUwLjY1OAQzLjQwBDMuNDAENS42NgUwLjAwMAUwLjEw
        MgQ1LjEzBDEuOTYENS42NgUwLjQzOQQ1LjEwBDcuOTAENy4wMQQ3LjMwBTAuMDAwBTAuMDAwBTAuMTAwBTAuMTAwBDUuMDIENC42MgQ1LjAyBTAuMDAwBDIuMDAFMC4w
        MDAFMC4wMDAENC42MgQ0Ljc5BDQuOTIENS40OAQxLjg3BTAuMTAyBDMuMTIENS41OQQ1LjExBTAuMDAwBTAuMDAwBTAuMDAwBTAuNjMwBDIuMDAENy4xNQQzLjE0BDMu
        MTcEMy40MQQ1LjQ0BDUuMDkENS4wOQQ1LjA5BDUuMDkENS4wOQQ1LjAwBDUuMDkENC4yMgQ0LjY5BTAuMDAwBTAuOTYzBDQuNjUENS4xMwQzLjQ0BTAuMzE3BDUuMTQF
        MC4zMTcENS4yMQQ0LjM3BDMuMDEEMy4wMQQyLjkxBDIuOTEEMy4zMQQ1LjcxBDUuODEFMC4wMjkFMC4wMDMFMC4wNDcFMC4wMTYFMC4wMjMFMC4wMDMFMC4wMTIFMC4w
        MjAFMC4wMjAFMC4wMjQFMC41MTMGLTAuNzA3BTAuMDMyBTAuMDIxBTAuMDQ1BTAuNjAwBTAuMDIxBDEuMDAGLTAuMDg4Bi0wLjAwOAYtMC4wMDgFMC4yNDAFMC4wMjEF
        MC4zMjAGLTAuMDA4BTAuMDIxBi0wLjA1MgUwLjA1NAUwLjAyMQUwLjAyMQUwLjAwMwUwLjAwMAUwLjEwMwYtMC4zNTUFMC4wMjEGLTAuOTUzBTAuMDIxBi0wLjM1NgUw
        LjAyMwYtMC41MDMGLTAuMjU4BTAuMDIxBTAuMDIxBTAuMDE1Bi0wLjI2MAYtMS4wMDAFMC4wMjYFMC4wNDUFMC4wMDQFMC4wNDcFMC4wMjMFMC4wNjgGLTAuMDI4BTAu
        MDcxBTAuODY1BTAuMDIxBi0wLjI1OAYtMC4wMDYGLTAuMDM5BTAuMDA0BTAuMDA0BTAuMzYwBi0wLjk0MAYtMC45NDAGLTAuNzIxBTAuMDQwBTAuMzEzBTAuMDI1BTAu
        MDAwBTAuMjQwBTAuMDIzBTAuMDIzBi0wLjQ2NgYtMC4wOTUFMC4wMjAFMC4wMjAFMC4wMjAGLTAuMjc2BTAuMDIwBTAuMDIzBTAuMDIwBi0xLjAwMAYtMC4wMDgFMC4w
        MjAFMC4wMjAFMC4wMjAFMC4wMjMFMC4wMjMGLTAuOTQwBTAuMzEyBTAuMDIzBTAuMDE1Bi0xLjAwMAYtMS4wMDAGLTEuMDAwBi0wLjAwOAUwLjAyMAUwLjI2NgUwLjA0
        MAYtMC4wMDgFMC42ODAGLTAuODY1BTAuMDI5BTAuMDI5BTAuMDI5BTAuMDI5BTAuMDI5BTAuMDI5BTAuMDI5BTAuMDAzBTAuMDAzBTAuMzIxBTAuMTAxBTAuMDIwBi0w
        Ljk1MwYtMS4wMDAGLTEuMDAwBi0xLjAwMAYtMS4wMDAFMC4wMjAFMC4wMzYFMC4wMjMFMC4wMjMFMC4wMjMFMC4wMjMFMC4wMjMFMC4wNzgFMC4wNzgEMy4wMAQyLjc2
        BDIuMjAEMi43OAQzLjAwBDIuNzYEMi4xNwQ4LjAwBDguMDAFMC45MjUEOC4wMAUwLjAwMAQ4LjAwBDguMDAEMi45MgQyLjYyBDguMDAEMi40MwUwLjAwMAQ4LjAwBDgu
        MDAEMS4yMAQ4LjAwBDEuODIEOC4wMAQ4LjAwBDEuNTEEMi4xNQQ4LjAwBDguMDAEMy4wMAQzLjAwBDEuMjUFMC4wMDAEOC4wMAQ4LjAwBDguMDAEMi44OAUwLjc3NQQ4
        LjAwBDguMDAEOC4wMAQ4LjAwBTAuMDAwBDguMDAFMC45MjUEMi43NQQxLjUxBDEuNjMFMC4wNDcFMC45MjUEMy4wMAUwLjAwMAQyLjIzBDguMDAEMS43NwQ4LjAwBDIu
        MDcEOC4wMAQxLjYzBDEuNjMFMC45MjUEMy4wMAQzLjAwBDEuNjMEOC4wMAUwLjAwMAUwLjAwMAQ4LjAwBDEuMTcFMC45MjUFMC45MjUFMC45MjUFMC44NTAEMS43NwQx
        Ljc3BDEuNzcFMC45MjUEMS43NwQxLjg0BDEuNzcFMC45MjUEOC4wMAQxLjc3BDEuNzcEMS43NwUwLjkyNQUwLjkyNQQzLjAwBTAuMDAwBTAuOTI1BTAuMDAwBDEuNzcE
        MS43NwQxLjc3BDguMDAEMS43NwQ4LjAwBDguMDAEOC4wMAQxLjc3BTAuNzY2BDMuMDAEMy4wMAQzLjAwBDMuMDAEMy4wMAQzLjAwBDMuMDAEMi43NgQyLjc2BTAuMDAw
        BDIuMjIEOC4wMAQ4LjAwBDguMDAEOC4wMAQ4LjAwBDguMDAEOC4wMAQ4LjAwBTAuMDAwBTAuMDAwBTAuMDAwBTAuMDAwBTAuMDAwBDEuNjMEMS42MwQxLjMyBDEuMzIE
        Ni41MQQ0LjM2BDMuMTIEMS4zMgQ0Ljg4BDYuODAENi44MAUwLjAwMAQ0LjAwBDYuNzMENC4wMAQ0LjAwBDIuNjUENC4wMAQ0LjAwBDQuNjYENy40NQQ0LjUxBDQuNTEE
        My45OQQ0LjAwBDEuOTgENC41MQQ0LjAwBDYuNDkFMC4wMDAENC4wMAQ0LjAwBDEuMzIEMy41NwQ4LjI2BDcuNTEENC4wMAQ2LjU2BDQuMDAENC40NwQ0LjY4BDQuMDAE
        NC4wMAUwLjAwMAUwLjAwMAUwLjAwMAQ0LjI1BTAuMDAwBDQuOTIEMy43MAQ2LjA0BTAuMDAwBDUuODUEMy41MgQxLjMyBDQuMTIENC4wMAQ0Ljg0BDQuMDAFMC4wMDAE
        Ni4xMQQ4LjU1BTEwLjUzBDEuMzcEMi4wOAQyLjA4BDYuMDQENC4wMAUwLjAwMAUwLjAwMAQ0LjAwBDMuOTkEMS41MwQxLjUzBTAuMDAwBTAuMDAwBTAuMDAwBTAuMDAw
        BDQuMDAEMS4zNwQ0LjAwBDIuMDgFMC4wMDAFMC4wMDAENC41MQUwLjAwMAUwLjAwMAUwLjAwMAQxLjUzBTAuMDAwBDIuMDgENy43NAQxLjUzBDIuNTUFMC4wMDAFMC4w
        MDAFMC4wMDAEMy44MgUwLjAwMAQ0LjA3BDYuNTIENy4xNQQ0LjAwBDQuOTUEMS4zMgQxLjMyBDEuMzIEMS4zMgQxLjMyBDEuMzIEMS4zMgQxLjMyBDEuMzIENi45MAQ4
        LjA1BDEuODQENS44NAQzLjEyBDEuNDQEMS40NAUwLjQ5MwQyLjc2BDQuMDAENC4zMgQxLjMyBDcuMDUENi4yMAQxLjMyBDQuMTEENS43OQUwLjAwMAUwLjAwMAUwLjAw
        MAUwLjAwMAUwLjAwMAUwLjAwMAUwLjAwMAUwLjAwMAUwLjAwMAUwLjAwMAUwLjAwMAUwLjAwMAUwLjAwMAQxLjYyBTAuMDAwBTAuMDAwBTAuMDAwBTAuMDAwBDQuMjAF
        MC4xMDAFMC4xMDAFMC4wMDAFMC4wMDAFMC4wMDAFMC4xMDAFMC4wMDAFMC4zMDAFMC4wMDAFMC4wMDAFMC4wMDAFMC4wMDAFMC4wMDAENy43MAUwLjAwMAUwLjAwMAUw
        LjAwMAUwLjAwMAQzLjAzBDIuMzAFMC4wMDAFMC4wMDAFMC4wMDAFMC4wMDAFMC4wMDAFMC4wMDAFMC4wMDAFMC4wMDAFMC4wMDAFMC4wMDAENC41NgUwLjAwMAUwLjgw
        MAUwLjAwMAQyLjYzBTAuMDAwBTAuMDAwBTAuMDAwBTAuMDAwBTAuMDAwBTAuMDAwBDYuOTcFMC4wMDAFMC4wMDAFMC4wMDAFMC4wMDAFMC4wMDAFMC4wMDAFMC4wMDAF
        MC4wMDAFMC4wMDAFMC4wMDAFMC4wMDAGLTIuMDAwBi0yLjAwMAYtMi4wMDAGLTIuMDAwBi0yLjAwMAYtMi4wMDAGLTIuMDAwBi0wLjkyMAYtMi4wMDAGLTEuODgwBTAu
        MTYwBi0yLjAwMAYtMi4wMDAGLTIuMDAwBTAuMDAwBTAuMDAwBTAuMDAwBTAuMDAwBTAuMDAwBTAuMDAwBTAuMDQ4BTAuMDQ4BTAuMDQ4BTAuMTAwBTAuMDAwBTAuMDAw
        BTAuMDAwBTAuMTAwBTAuMDAwBDcuMDAFMC4wMDAFMC4wMDAFMC4wMDAFMC4wMDAFMC4wMDAFMC4wMDAFMC4wMDAFMC4wMDAFMC4wMDAENi4xNAQ1LjUxBTAuMDAwBTAu
        MDAwBTAuMDAwBTAuMDAwBTAuMDAwBTAuMDAwBTAuODAwBTAuMDAwBTAuMDAwBTAuMDAwBTAuMDAwBTAuMDAwBTAuMDAwBTAuODAwBTAuNjAwBTAuMDAwBTEwLjAwBTAu
        MDAwBTAuNTAwBDkuMjIFMTAuMDAFMC4wMDAEOC43NAQzLjIzBTAuMDAwBDcuMjcFMC4wMDAFMC44MDAFMTAuMDAEMi4wMwQ1Ljc5BTAuMDAwBTAuMDAwBDYuMjkEMy40
        OAUwLjAwMAUwLjAwMAQ2Ljg0BTAuMDAwBTAuMDAwBDYuODQEMy4zNgUwLjAwMAQ3LjQ3BTAuNTU1BTAuMDAwBDMuNzgEOC43NAUwLjAwMAUwLjU1NQUwLjc3MwQxLjEw
        BDUuMTYEOC45MgUwLjAwMAUwLjAwMAQyLjIwBTAuOTAwBTAuMDExBDkuMTAFMC4wMDAEOC42OAQ3LjA2BDcuNzgENC41MQQ3LjY0BTAuMTAwBDYuODAFMC4xMDMENy40
        MAQ5LjExBTAuMDAwBDguMjYEOC4zNgUwLjAwMAUwLjAwMAUwLjg0NgUwLjAwMAUwLjAwMAQ3LjYwBDguMzAEOC4yNwUwLjAwMAQ4LjkwBTAuMDAwBTAuMDAwBTAuMDAw
        Bi0yLjAwMAYtMi4wMDAGLTIuMDAwBi0yLjAwMAYtMi4wMDAGLTIuMDAwBi0yLjAwMAYtMC45MTQGLTIuMDAwBi0yLjAwMAYtMC4yNDAGLTIuMDAwBi0yLjAwMAYtMi4w
        MDAEMS43NAUwLjAwMAUwLjAwMAUwLjAwMAQxLjc0BTAuMDExBTAuMDAwBTAuMDAwBTAuMDAwBDEuMjAFMC4wMDAFMC42MjAFMC44MDAEMi4wNQQxLjcwBDYuMzAENy4w
        MQUwLjAwMAUwLjAwMAUwLjIwMAUwLjAwMAQ3LjAwBTAuNDA2BTEwLjAwBTEwLjAwBDYuNjgEMi4wNAQ3LjIzBTAuNzczBDYuNjAENi42MAQ2LjYwBDYuNjAENy4wNAUw
        LjgwMAUwLjA0MQQxLjgxBTAuMDQxBTAuMDQxBDEuODEEMi42MAQxLjEwATMBNAE5ATcBNwE3ATkBNwE3ATcBNwE5ATcBNwE3ATcBMwE4ATEBMAEzATcBNwE3ATUBNwE3
        ATcBNwE3ATcBNwExATMBNwE3ATcBMwEwATQBNwE3ATkBMwE3ATcBNwE3ATcBOQE3ATcBNAE5ATcBNwE0ATcBNwE3ATcBNwE0ATQBNwE3ATkBNQE3ATkBOQE5ATcBMAEz
        ATMBNAE3ATABNwE0ATcBMAE3ATcBNwE0ATQBNAE5ATYBNwE1ATkBMwEzATQBMwE5ATABNwE2ATMBMwEyATIBMgEwATMBNAE0ATkBNAEzATcBNAE0ATcBNQEzATcBNwE3
        ATcBNwE3ATcBNwYtMy43NTAFMC4xODYGLTIuODcxBi0xLjgzNAYtMi40NTAFMC4xODYGLTMuOTk2BTAuMTg2BTAuMTg2Bi0yLjcxNwUwLjE4NgYtMi40MjcFMC4xODYF
        MC4xODYGLTEuOTg1Bi0yLjQ3NgYtMi4yNzAGLTIuODcxBi01LjAwMAUwLjE4NgUwLjE4NgUwLjE4NgYtMi4yNzAGLTIuNjUwBTAuMTg2Bi0yLjI3MAYtMi4xMDAGLTIu
        ODcxBi0yLjI3MAUwLjE4NgYtMy4xNjIGLTIuNTAwBi0zLjExNAYtNS4wMDAFMC4xODYFMC4xODYFMC4xODYGLTEuODY1BTAuMTg2BTAuMTg2BTAuMTg2Bi0zLjYyMAYt
        My42MjAFMC4wMDAFMC4xODYFMC4xODYFMC4xODYGLTIuNDUwBi0yLjUwMAYtMy45ODcFMC4xODYFMC4xODYGLTIuNTAwBi00LjMzMgUwLjE4NgUwLjE4NgUwLjE4NgUw
        LjE4NgUwLjE4NgUwLjE4NgUwLjE4NgUwLjE4NgUwLjE4NgUwLjE4NgUwLjE4NgUwLjE4NgUwLjE4NgUwLjE4NgUwLjE4NgYtMi40MDQGLTEuOTAwBi0xLjkwMAUwLjE4
        NgYtNS4wMDAFMC4xODYFMC4xODYFMC4xODYFMC4xODYFMC4xODYFMC4xODYFMC4xODYFMC4xODYFMC4xODYFMC4xODYFMC4xODYFMC4xODYFMC4xODYFMC4xODYFMC4x
        ODYGLTIuNTkzBTAuMTg2BTAuMDAwBTAuMDAwBi0wLjk1MAUwLjE4NgUwLjE4NgUwLjE4NgUwLjE4NgYtMi43MDAFMC4xODYFMC4xODYGLTEuMDA4BTAuMTg2BTAuMTg2
        BTAuMTg2BTAuMTg2BTAuMTg2BTAuMTg2BTAuMTg2BTAuMTg2BTAuMTg2Bi0yLjU5MwYtMy45MTkFMC4xODYFMC4xODYFMC4xODYFMC4xODYGLTEuMzUwBi0xLjM1MAUw
        LjE4NgUwLjE4NgUwLjE4NgUwLjE4NgUwLjE4NgUwLjE4NgUwLjE4NgUwLjE4NgUwLjE4NgUwLjAwMAUwLjAwMAUwLjAwMAUxMC4wMAUwLjAwMAUwLjAwMAUwLjAwMAUw
        LjAwMAUwLjAwMAUwLjAwMAUwLjAwMAUxMC4wMAUwLjAwMAUwLjAwMAUxMC4wMAUxMC4wMAUwLjAwMAUwLjAwMAUxMC4wMAUwLjAwMAUwLjAwMAUwLjAwMAUwLjAwMAUw
        LjAwMAUwLjAwMAUwLjAwMAUwLjAwMAUxMC4wMAUwLjAwMAUwLjAwMAUwLjAwMAUwLjAwMAUxMC4wMAUwLjAwMAUwLjAwMAUwLjAwMAUwLjAwMAQyLjY3BTAuMDAwBTAu
        MDAwBTAuMDAwBTAuMDAwBTAuMDAwBTEwLjAwBTAuMDAwBTAuMDAwBTAuMDAwBTAuMDAwBTAuMDAwBTAuMDAwBTAuMDAwBTAuMDAwBTAuMDAwBDEuMzAFMC4wMDAFMC4w
        MDAGLTQuNjY2BTAuMDAwBTAuMDAwBTAuMDAwBTAuMDAwBTAuMDAwBTAuMDAwBTAuMDAwBTAuMDAwBTAuMDAwBTAuMDAwBTAuMDAwBTAuMDAwBTAuMDAwBTAuMDAwBTAu
        MDAwBTAuMDAwBTAuMDAwBTAuMDAwBTAuMDAwBTAuMDAwBTAuMDAwBTAuMDAwBTAuMDAwBTAuMDAwBTAuMDAwBTAuMDAwBTAuMDAwBTAuMDAwBTAuMDAwBTAuMDAwBTAu
        MDAwBTAuMDAwBTEwLjAwBTAuMDAwBTEwLjAwBTAuMDAwBTAuMDAwBTAuMDAwBTAuMDAwBTAuMDAwBTAuMDAwBTEwLjAwBTAuMDAwBTAuMDAwBDQuMTcFMC4wMDAFMC4w
        MDAFMC4wMDAFMC4wMDAFMC4wMDAFMC4wMDAFMC4wMDAFMC4wMDAFMC4wMDAFMTAuMDAFMTAuMDAFMC4wMDAFMC4wMDAFMC4wMDAFMC4wMDAFMC4wMDAFMC4wMDAFMC4w
        MDAFMC4wMDAFMC4wMDAFMC4wMDAFMC4wMDAFMC4wMDAFMC4wMDAFMC4wMDAFMC4wMDAEMi4xMwQxLjQzBDEuNTIEMy44MQUwLjAwMAQxLjQzBDMuMDEFMC4wMDAEMi4x
        MwQzLjE1BTAuNTkwBDIuMzQFMC4wMDAEMS4wMAQzLjcyBTAuNjQ3BDQuNjAEMS4yOQQyLjU2BTAuMDAwBDEuMDYFMC4wMDAFMC44NDYEMi41MgUwLjY2MgUwLjg0NgQx
        LjQyBDMuMTEENS4xMgQzLjIzBDIuNDUFMC44NjUEMS45MwUwLjAwMAQ0LjQ2BDIuMDUFMC43ODcEOC4xOQQ1Ljg3BTAuMDAwBDEuMDkENi40MgQ1LjY2BTAuMDAwBDIu
        MDAEMy45NAQ0LjMyBDIuMzcEMi4xMAQ0LjgyBDIuMTYEMi44NwQyLjk2BDMuODMEMi41OQQxLjg3BTAuMDAwBTAuMDAwBDEuOTgFMC4wMDAEMS45NgUwLjAwNwUwLjEw
        MgUwLjEwMgQxLjEwBDIuMjcFMC4wMDAEMi41MAQxLjI4BDEuNzcENC4xNgQ0LjE2BDIuOTAEMy4xNQQxLjM3BDEuMjAEMi4wMgUwLjM5NAUwLjAwMAUwLjYzMAQ1LjI5
        BDIuNjgFMC4zMzAFMC43NjYFMC44NjUEMS42NQUwLjkwMAQzLjIzBTAuMTAyBDcuNTMENC4xOQQ1LjQ3BDEuNjQEMi4xMQQyLjUxBDQuNjcENC43MAQzLjE1BDEuNDUF
        MC42NDIEMS4yMwQzLjI2BDYuNDUEMy4xMgQzLjg5BTAuNDE4BDUuMDkEMy45OAQxLjg5BDEuNDMEMS40MwUwLjAwMAQyLjExBTAuODY3BTAuNzUwBTAuMDAwBTAuNDAx
        BTAuNDAxBTAuNDAxBTAuMDAwBTAuMDAwBDEuMTIFMC43ODcEMy4xMQQzLjA5BTAuNzg3BDUuMjAFMC4wMDAENC44MwQ2LjEzBDUuOTkFMTAuMDAENi40NgQ0LjgwBDUu
        NjIFMTAuMDAFMTAuMDAFMTAuMDAENS4wMAQ2LjkyBDUuMDAENS4wMAQ1LjEyBDUuMDAENS4wMAUxMC4wMAQ5LjIxBDUuMDAENS4wMAQ3LjUxBDUuMDAENi42OQQ1LjAw
        BDUuMDAENS4xMgUxMC4wMAQ1LjAwBDUuMDAENC44MAUxMC4wMAQ2LjEyBDcuNDIENS4wMAQ2LjE2BDUuMDAENi43NgQ2LjQ2BDUuMDAENS4wMAQ3LjQyBDcuNDIENC43
        MQQ0LjgwBTEwLjAwBDYuNDYENS4xMgQ1Ljg3BTEwLjAwBTEwLjAwBDguNTAENC44MAQzLjkyBDUuMDAENS4wMAQ1LjAwBTEwLjAwBDUuMDAENS44NwQ1Ljg3BDYuNjQE
        NC42NwQ0LjY3BDUuODcENS4wMAUxMC4wMAUxMC4wMAQ1LjAwBDkuNDIEOC45MAQ4LjkwBDcuODEENS42MgQ3LjIwBDcuMjAFMTAuMDAENy40OAUxMC4wMAQ0LjY3BDcu
        MjAFMTAuMDAENS4wMAQ4LjUwBTEwLjAwBTEwLjAwBDguOTAFMTAuMDAENC42NwQ2LjkyBDguOTAENC43MQUxMC4wMAUxMC4wMAUxMC4wMAQ1LjAwBDcuMjAENC41NgQ1
        LjAwBDUuMDAENS4wMAQ3Ljk2BDQuODMENC44MwQ0LjgzBDQuODMENC44MwQ0LjgzBDQuODMENi4xMwQ2LjEzBDYuOTIENy41OQQ0LjYxBDIuMjYEMi45NAQ1LjM2BDUu
        MzYENS4zNgQ0LjgwBDUuMDAENi4xOQQ0LjgwBDIuNzAEMi44MAQ0LjgwBDUuMzQEMy45NAQ5LjExBDYuOTAENS42NgQ2LjIwBDcuMDkENi45MAQ3LjkxBDIuODQEMi44
        NAUxMC4wMAQ4LjAwBDYuNDYEOC4xMAQ1LjAwBDcuNDAFMTAuMDAEOC4xOQQ1LjcxBDQuNTkENS44OQQ1LjM5BDkuODEENy4zOAQ3LjE2BDYuMjkENy4zOAQ4LjI3BDUu
        MjIEOC4xOQQ0LjY1BDguNDMENy4xMwQ2LjAzBDMuNjYENC41MAQ5LjUwBDcuNTAENy40OQQ0LjM5BDguMTgEOC4xOAQ0LjIwBDQuMjIEMi44NgQ5LjA3BTEwLjAwBDYu
        NzkENi4wOQQ2LjQ4BDkuNDAEOS4wOQQ2LjkyBDYuOTAEOS4wNAQ4LjY1BDkuNjAEOC4xOAQ3LjAwBDguMTMENy43OQQ4LjAyBDkuMzQEOC45OQQ1LjY5BDYuNDgEOS4x
        MwQ4LjE5BDguNDgEOS44NQQ4LjgyBDcuMTYENy4xNgQzLjQ4BDUuMjAENC44NAQzLjY2BDEuMzEENi4yMAQ1LjkwBDMuMzkENC42MAUxMC4wMAQ4LjI1BDQuNjIENC4y
        MAQzLjUwBDUuMTAFMTAuMDAEOC45OQQ2LjQ2BDMuNzAEMi44NgQ2LjMzBDYuMTkENS45MQQ3LjY5BDQuNTQEOS4zMwQ4LjA2BDkuMjkEOC4xMAQ2LjAxBDkuMTEEOS4x
        MQQ5LjExBDguNDQEOS4xMQQ4LjExBDkuMTEENi45MAQ2LjkwBDYuMTcENi42OAQ5LjQ3BDkuNTAEOC43MgQ4LjcyBDguNzIEOC43MgQyLjg0BDcuMDkENC4wMAUwLjc4
        NwQyLjYwBDIuNjAFMC43ODcENC44OAQ0Ljg4ATABNAEyATABMAEwATIBMAEwATABMAE4ATABMAEwATABNAExATQBMAE0ATABMAEwATQBMAEwATgBMAEwATABMAEwATQB
        MAEwATABMAEwATABMAE0ATQBOAEwATABMAEwATABMQEwATABMwEzATABMAE2ATABMAEwATABMAE1ATUBMAE0ATQBNAEwATABNAE3ATABMQEwATYBNgEwATYBMAEwATAB
        MAEwATABMAE3ATABNQE0ATABOAE2ATYBMQE0ATABNAEwATABMAEyATABMAEwATABMAEwATABNAE0ATQBNAE0ATQBNwE3ATcBNwE0ATABMwEzATMBMwEzATMBMwQ1LjI2
        BDUuMTUENy41MAUxMC4wMAQ0LjMzBDUuMTUENC4zMQQyLjg0BDIuODQFMC4wMDAENy42MwQ1Ljc5BDYuMDYENi44MAQ2LjQ3BDcuNDEEMS4zNwQ4LjE3BDMuMzUEOS4x
        MgQ2LjY2BDYuOTMEMi40NAQ0LjE3BDcuNjEEMi40NAQ0LjE2BDcuMDIEMS40OAQ1LjQ4BDUuMzYENi44NwQzLjczBDMuMjIENy45OAQ4Ljc0BDkuOTQFMC42NjEEOC44
        NQQ3LjIzBDYuNjQEMy41MAQzLjUwBDUuMzQENi4xNQQyLjkxBDUuMTMENi4xMgQzLjMxBDQuMTMENy4xMQQ2LjMwBDMuMDUFMC44MTkENi45NwQ4LjgzBDYuNjQENC43
        MgQ4LjMwBDUuMzAENy41NAUxMC4wMAQ3LjIxBDkuNjAENy45MAQ3LjE2BDcuNDAEMS45MQQ2Ljc5BDQuMzMEMy4xOAQzLjE4BDIuNzQEMy4xNQQ1LjY2BDUuNDUEMS41
        MgUxMC4wMAQ2Ljk2BDQuMjUEMy4wOAUwLjAwMAQ4LjEzBDMuODEENC43OQQzLjU3BDkuMjgFMC4wMDAENy4yMQQ2LjU5BDEuMjgEMS43MAQ0Ljc5BDUuOTcENS45NwQz
        LjYwBDQuMDUEOC43MwQ1LjI5BDguMjIENy4zMAQyLjY0BDEuMzEEMy41OAQzLjU4BDYuMTIEMS4zMQQzLjAwBDUuMjYENS4xNQQ1LjE1BDIuMjEEMi4yMAQyLjQyBDgu
        NzQENC44NAQyLjc5BDIuNzkEMi43OQQyLjg0BDguNDkEMy4xOQQ3Ljk1BDkuODgEOS44OAQ3Ljk1BDYuNzEENS44NAQxLjkxBTAuNDAwBDIuNzAFMC42MDAFMC43MDAF
        MC40MDAEMS45NwUwLjAwMAUwLjAwMAUwLjAwMAUwLjAwMAQxLjkzBTAuMDAwBDUuMjAENS40NwUwLjAwMAQxLjA2BDEuNTEEMy40NgQxLjcxBDEuNzEFMC4wMDAEMS4w
        NgUwLjAwMAQxLjcxBDEuMDYFMC4wMDAEMi43MAQxLjA2BTAuMDAwBTAuMDAwBDUuODAEMi43MAUwLjM5NAUwLjAwMAUwLjAwMAUwLjAwMAQ0Ljg5BTAuMDAwBDEuNDgE
        MS4wNgQxLjA2BDEuMDYEMi43NgUwLjAwMAUwLjAwMAUwLjAwMAUwLjAwMAUwLjAwMAQ0Ljk4BTAuMDAwBTAuMDAwBTAuMDAwBDEuNzMFMC4wMDAFMC4wMDAEMS4wNgUw
        LjAwMAUwLjAwMAUwLjAwMAUwLjAwMAUwLjAwMAQzLjYxBDMuNjEFMC4wMDAFMC4wMDAFMC4wMDAEMS4xOAUwLjAwMAQxLjYwBDEuMzUEMS4zNQUwLjAwMAQ0LjY5BTAu
        NzQ1BTAuNzQ1BTAuMDAwBTAuMDAwBTAuMDAwBTAuMDAwBTAuMDAwBTAuMDAwBDEuNzEFMC4wMDAFMC4wMDAFMC4wMDAEMS40MAQxLjAwBDMuNjEENy4yMQQxLjQwBDYu
        ODEEMS4zMAQxLjMwBDEuMzAEMS43MQUwLjAwMAUwLjAwMAUwLjAwMAQxLjcxBTAuMDAwBDkuODIEMS45NwQxLjk3BDEuOTcEMS45NwQxLjk3BDEuOTcEMS45NwUwLjQw
        MAUwLjQwMAQ3LjIxBDEuOTAFMC4wMDAFMC4wMDAFMC4wMDAFMC4wMDAFMC4wMDAFMC4wMDAFMC4wMDAFMC41MDAEMS45NwQxLjk3BDEuOTcEMS45NwQxLjk3BDEuOTcE
        MS45NwQ0LjQwBDIuMDAENi41NwQxLjYwBDcuODgEMi4wMAQ3LjU4BDMuNTAEMy41MAUwLjAwMAQ0LjAwBTEwLjEzBDQuMDAENC4wMAQ0LjA4BDQuMDAENC4wMAQzLjIy
        BTAuMDAwBDUuMDIENS4wMgQ3Ljc4BDQuMDAENy43OAQ1LjAyBDQuMDAENS43MAUwLjAwMAQ0LjAwBDQuMDAENC40MAQ0LjAwBDguMzQENi44NwQ0LjAwBDYuMjgENC4w
        MAQ3Ljc3BDUuOTYENS4zMAQ1LjMwBTAuMDAwBTAuMDAwBTAuMDAwBDUuNTIFMC4wMDAENy44OAQzLjM2BDQuMTIFMC4wMDAENS4xNQQ0LjQ4BDIuMDAEMi4zNAQ0LjAw
        BDQuODQENS4zMAUwLjc5NgQ3LjQ4BDcuNTIEOC4wMAQyLjY1BTAuMDAwBTAuMDAwBDQuMTIENC4wMAUwLjAwMAUwLjAwMAQ0LjAwBDQuMDYEMi41MgQyLjUyBTAuMDAw
        BTAuMDAwBTAuMjQwBTAuMjQwBDMuNTIEMi42NQQzLjUyBTAuMDAwBTAuMDAwBTAuMDAwBDUuMDIFMC4wMDAFMC4wMDAFMC4wMDAFMC4wMDAFMC4wMDAFMC4wMDAFMTAu
        MTMFMC4wMDAEMi42OQUwLjAwMAUwLjAwMAUwLjAwMAQzLjg0BTAuMDAwBDMuMzkENy4wOAQ2Ljk0BDQuMDAENS4xNwQ0LjQwBDQuNDAENC40MAQ0LjQwBDQuNDAENC40
        MAQ0LjQwBDIuMDAEMi4wMAQzLjM4BDkuOTUEMS42MgQ1LjY0BDQuODQEMy4wNAQzLjA0BDEuODQEMi41NAQ0LjAwBDQuODQEMi4wMAQ1LjQzBDguNzAEMi4wMAQzLjk1
        BDUuODcEMS43NAQxLjc0BTAuMDAwBDMuMTQENS4wNAQxLjc0BDQuOTkEMS43NAQxLjc0BDEuNzQEMS43NAQ1LjEwBDEuNzQEMy40NwQxLjc0BDIuMTEEMy45NgUwLjAw
        MAUwLjAwMAQxLjc0BDEuNzQEMS43NAQ0LjI0BDEuNzQEMS43NAQxLjY0BDEuNzQFMC4wMDAEMy45NgQxLjc0BDEuNzQEMS43NAUwLjAwMAUwLjAwMAQxLjc0BDEuNzQE
        MS43NAQ2LjA4BDUuNDQEMS43NAQxLjc0BDMuMDYEMy4wNgQzLjYyBDEuNzQEMS43NAQxLjc0BDEuNzQEMS43NAUxMC4wMAQxLjc0BDEuNzQEMS43NAQ2LjQ0BDEuNzQE
        MS43NAQxLjc0BDEuNzQEMS43NAQxLjc0BDEuNzQEMi4zNgQxLjc0BDEuNzQEMS43NAQxLjc0BDEuNzQEMS43NAQxLjc0BTAuMDAwBTAuMDAwBTAuMDAwBDEuNzQENS42
        NAQ0LjkyBDQuOTIEMS43NAQxLjc0BDEuNzQEMS43NAQ0LjkyBDEuNzQEMS43NAQzLjEwBTAuMDAwBDEuNzQEMS43NAQxLjc0BDEuNzQENi4wNQQxLjc0BDMuNjIEMy40
        NAQxLjc0BDEuNzQEMS43NAQ0LjgxBTAuMTAwBDEuNzQEMS43NAQxLjc0BDYuMjEEMS43NAQxLjc0BDEuNzQEMS43NAQxLjc0BDEuNzQEMS43NAQxLjc0BDEuNzQFMC4w
        MDAEMS4xMAQxLjc0BDEuNzQEMS43NAQxLjc0BDEuNzQEMS43NAQxLjc0BDEuNzQEMi4zNgQyLjM2BDIuMzYEMi4zNgQyLjM2BDIuMzYEMi4zNgEgASABIAEgASABIAEg
        ASABIAEgASABIAEgASABIAEgASABIAEgASABIAEgASABIAEgASABIAEgASABIAEgASABIAEgASABIAEgASABIAEgASABIAEgASABIAEgASABIAEgASABIAEgASABIAEg
        ASABIAEgASABIAEgASABIAEgASABIAEgASABIAEgASABIAEgASABIAEgASABIAEgASABIAEgASABIAEgASABIAEgASABIAEgASABIAEgASABIAEgASABIAEgASABIAEg
        ASABIAEgASABIAEgASABIAEgASABIAEgASABIAEgASABIAEgASABIAEgASABIAEgASAFMC41MDAFMC4wMDAEMi43MwUwLjAwMAUwLjAwMAUwLjAwMAUxMC4wMAUwLjAw
        MAUwLjAwMAUwLjAwMAUwLjAwMAQ5LjA1BTAuMDAwBTAuMDAwBTAuMDAwBTAuMDAwBDEuMjEEMy4xMQUwLjY0MgUwLjAwMAQxLjI2BTAuMDAwBDEuMjEFMC4wMDAEMS4y
        NgUwLjUwMAUwLjAwMAUwLjgzMgQxLjIxBTAuMDAwBTAuMDAwBTAuMDAwBDEuODgEMS42NAUwLjAwMAUwLjAwMAUwLjAwMAQ4LjI2BTAuMDAwBTEwLjAwBDcuODEEMi4z
        MAQyLjMwBDguNzYFMC4wMDAFMC4wMDAFMC4wMDAFMC4wMDAFMC4wMDAENC45MgUwLjAwMAUwLjAwMAUwLjAwMAQ0Ljg1BTAuMDAwBTAuMDAwBDkuOTAFMC4wMDAFMC4w
        MDAFMC4wMDAFMC4wMDAFMC4wMDAFMC4wMDAFMC4wMDAFMC4wMDAFMC4wMDAFMC4wMDAEMy4wNwUwLjAwMAUwLjAwMAQyLjgzBDIuODMFMC4wMDAEMi41OQQxLjA3BDEu
        MDcFMC4wMDAFMC4wMDAFMC4wMDAFMC4wMDAEMi4yNgUwLjAwMAUwLjAwMAUwLjAwMAUwLjAwMAUwLjAwMAUwLjAwMAUwLjAwMAUwLjAwMAUwLjY5MAUwLjAwMAUwLjk3
        NQQ1LjI1BDIuNjQEMy44MgQxLjA3BDIuMjYFMC4wMDAFMC4wMDAFMC4wMDAFMC4wMDAENS45MQUwLjAwMAUwLjAwMAUwLjAwMAUwLjAwMAQzLjg3BTAuMDAwBTAuMDAw
        BTAuMDAwBTAuMDAwBDIuOTcEMS41NQQxLjU0BTAuMDAwBTAuMDAwBTAuMDAwBTAuMDAwBTAuMDAwBTAuMDAwBTAuMDAwBTAuMDAwBTAuMDAwBTAuMDAwBTAuMDAwBTAu
        MDAwBTAuMDAwBTAuMDAwATABMAEwATABMAEwATABMAEwATABMAEwATABMAEwATABMAEwATABMAEwATABMAEwATABMAEwATABMAEwATABMAEwATABMAEwATACMTABMAEw
        ATABMAEwATABMAEwATABMAEwATABMAEwATABNQEwATABMAEwATABMAEwATABMAEwATABMAEwATABMAEwATABMAEwATABMAEwATABMAEwATABMAEwATABMAEwATABMAEw
        ATABMAEwATABMAEwATABMAEwATABMAEwATACMzUBMAEwATABMAEwATABMAEwATABMAEwATABMAEwATABMAEwATABMAEwATABMAEwATABMAEwBTAuMDAwBTAuMDAwBTAu
        MDAwBTAuMDAwBTAuMDAwBTAuMDAwBTAuMDAwBTAuMDAwBTAuMDAwBTAuMDAwBTAuMDAwBTAuMDAwBTAuMDAwBTAuMDAwBTAuMDAwBTAuMDAwBTAuMDAwBTAuMDAwBTAu
        MDAwBTAuMDAwBTAuMDAwBTAuMDAwBTAuMDAwBTAuMDAwBTAuMDAwBTAuMDAwBTAuMDAwBTAuMDAwBTAuMDAwBTAuMDAwBTAuMDAwBTAuMDAwBTAuMDAwBTAuMDAwBTAu
        MDAwBTAuMDAwBTAuMDAwBDkuMDcFMC4wMDAFMC4wMDAFMC4wMDAFMC4wMDAFMC4wMDAFMC4wMDAFMC4wMDAFMC4wMDAFMC4wMDAFMC4wMDAFMC4wMDAFMC4wMDAFMC4w
        MDAFMC4wMDAFMC4wMDAFMC4zMDIFMC4wMDAFMC4wMDAFMC4wMDAFMC4wMDAFMC4wMDAFMC4wMDAFMC4wMDAFMC4wMDAFMC4wMDAFMC4wMDAFMC4wMDAFMC4wMDAFMC4w
        MDAFMC4wMDAFMC4wMDAFMC4wMDAFMC4wMDAFMC4wMDAFMC4wMDAFMC4wMDAFMC4wMDAFMC4wMDAFMC4wMDAFMC4wMDAFMC4wMDAFMC4wMDAFMC4wMDAFMC4wMDAFMC4w
        MDAFMC4wMDAFMC4wMDAFMC4wMDAFMC4wMDAFMC4wMDAFMC4wMDAFMC4wMDAFMC4wMDAFMC4wMDAFMC4wMDAFMC4wMDAFMC4wMDAFMC4wMDAFMC4wMDAFMC4wMDAFMC4w
        MDAFMC4wMDAFMC4wMDAENi41NwUwLjAwMAUwLjAwMAUwLjAwMAUwLjAwMAUwLjAwMAUwLjAwMAUwLjAwMAUwLjAwMAUwLjAwMAUwLjAwMAUwLjAwMAUwLjAwMAUwLjAw
        MAUwLjAwMAUwLjAwMAUwLjAwMAUwLjAwMAUwLjAwMAUwLjAwMAUwLjAwMAUwLjAwMAUwLjAwMAUwLjAwMAUwLjAwMAUwLjAwMAUwLjAwMActMTAuMDAwBi0yLjAwMAYt
        OC44MDAGLTIuMDAwBi0yLjAwMAYtMi4wMDAGLTAuOTAwBi0yLjAwMAYtMi4wMDAGLTIuMDAwBi0yLjAwMAYtNi45NTAGLTIuMDAwBi0yLjAwMAYtMi4wMDAGLTIuMDAw
        By0xMC4wMDAGLTguODAwBi01Ljc1MAYtMi4wMDAGLTIuMDAwBi0yLjAwMActMTAuMDAwBi0yLjAwMAYtMi4wMDAHLTEwLjAwMAYtMi4wMDAGLTQuNzAwBy0xMC4wMDAG
        LTIuMDAwBi0yLjAwMAYtMi4wMDAGLTkuNDUwBi0zLjE1MAYtMi4wMDAGLTIuMDAwBi0yLjAwMAYtNS4wODcGLTIuMDAwBi02LjU1MAYtNi4wMDAHLTEwLjAwMActMTAu
        MDAwBi0xLjYwMAYtMi4wMDAGLTIuMDAwBi0yLjAwMAYtMi4wMDAGLTIuMDAwBy0xMC4wMDAGLTIuMDAwBi0yLjAwMAYtMi4wMDAGLTcuNTM5Bi0yLjAwMAYtMi4wMDAH
        LTEwLjAwMAYtMi4wMDAGLTIuMDAwBi0yLjAwMAYtMi4wMDAGLTIuMDAwBi0yLjAwMAYtMi4wMDAGLTIuMDAwBi0yLjAwMActMTAuMDAwBi0yLjAwMAYtMi4wMDAGLTIu
        MDAwBi05Ljk1MAYtOS45NTAGLTIuMDAwBi05LjQ1MAYtNy42NTAGLTcuNjUwBi0yLjAwMAYtMi4wMDAGLTIuMDAwBi0yLjAwMAYtOS43MDAGLTIuMDAwBi0yLjAwMAYt
        Mi4wMDAGLTIuMDAwBi0yLjAwMAYtMi4wMDAGLTIuMDAwBi0yLjAwMAYtNS44MDAGLTIuMDAwBi0xLjYwMAYtMi4wMDAHLTEwLjAwMActMTAuMDAwBy0xMC4wMDAGLTku
        NzAwBi0yLjAwMAYtMi4wMDAGLTIuMDAwBi0yLjAwMAYtNy43ODIGLTIuMDAwBi0yLjAwMAYtMi4wMDAGLTIuMDAwBy0xMC4wMDAGLTIuMDAwBi0yLjAwMAYtMi4wMDAG
        LTIuMDAwBTAuMDAwBy0xMC4wMDAGLTkuODUwBi0yLjAwMAYtMi4wMDAGLTIuMDAwBi0yLjAwMAYtMi4wMDAGLTIuMDAwBi0yLjAwMAYtMi4wMDAGLTIuMDAwBi0yLjAw
        MAYtMi4wMDAGLTIuMDAwBi0yLjAwMAYtMi4wMDAFMC42MzgFMC42MzgFMC4yMjQEMy4zMgUwLjU2MAUwLjYzOAUwLjAwMAQ0LjgwBTAuMDAwBTAuMDAwBDIuODAENy42
        NAQxLjI2BDEuMTIFMC4wMDAEMS4zNAUwLjg1NAUwLjIyNAQ1Ljk3BTAuMDAwBTAuMDAwBDQuNDQEMS4yNQQ4LjAwBTAuMDAwBDEuMjUFMC4wMDAFMC4yMjQFMC44NTQE
        MS4xMgUwLjYzOAQxLjM0BDcuMjkEOC4wMAQxLjEyBDEuMTIEMi4zMgQxLjUwBTAuNTYwBTAuNjYzBTAuNjYzBTAuODU0BTAuODU0BTAuMDAwBDguMDAFMC4wMzEFMC44
        NDQEMy40NAQ0LjQxBTAuMjI0BDcuMjAFMC4wMDAFMC42MzgEMS40NQQ2LjI0BDEuMzQFMC42NjMEMS4yOAUwLjAwMAQ0LjQxBDQuNDEEMS4wNwQyLjIwBDIuMjAENC40
        MQUwLjAwMAUwLjAwMAUwLjAwMAQzLjA3BDcuMTEENy40MAQ3LjQwBDguMDAFMC4wMDAEMS4zNAQxLjM0BDEuMzQEMS4wNwQxLjM0BTAuMDAwBDEuMzQFMC4wMDAFMC4w
        MDAEMS4zNAQxLjM0BDEuMzQFMC41MjQFMC4wMDAEMi4yMAQ2Ljk1BTAuNTI0BTAuMDAwBTAuMDAwBDEuMzQEMS4zNAUwLjAwMAQxLjM0BTAuNzcwBDEuNDIFMC4wMDAE
        MS4zNAQxLjU5BTAuNjM4BTAuNjM4BTAuNjM4BTAuNjM4BTAuNjM4BTAuNjM4BTAuNjM4BTAuNjM4BTAuNjM4BDMuOTgENi4wMAUwLjAwMAQxLjEyBDIuODAEMi44MAQy
        LjgwBDIuODAENC44MAQxLjI2BTAuMDAwBTAuMDAwBTAuMDAwBTAuMDAwBTAuMDAwBDMuMDEEMy4wMQEyATIBMgEyATIBMgEyATIBMgEyATIBMgEyATIBMgEyATIBMgEy
        ATIBMgEyATIBMgEyATIBMgEyATIBMgEyATIBMgEyATIBMgEyATMBMgEyATIBMgEyATQBMgEyATIBMgEyATIBMgEyATIBNAEyATIBMgEyATIBMgEyATIBMgEyATIBMgEy
        ATIBMgEyATIBMgEyATIBMgEyATIBMgEyATIBMgEyATIBMgEyATIBMgEyATIBMgEyATQBMgEyATIBMgEyATIBMgEyATIBMwEyATIBMgEyATIBMgEyATIBMgEyATQBMgEy
        ATIBMgEyATIBMgEyATIBMgEyATIBMgEyATIFMC4wMDAFMC4wMDAFMC41MDEEMS4yNAUwLjAwMAUwLjAwMAUwLjAxMQUwLjAwMAUwLjAwMAUwLjAwMAUwLjAwMAUwLjAw
        MAQxLjA3BTAuMDAwBTAuNzAyBTAuMDAwBTAuMDAwBTAuMDAwBDEuODIFMC4wMDAFMC4wMDAEMS42NAUwLjAwMAQyLjk3BTAuMDAwBTAuMDAwBTAuMDAwBTAuODY2BTAu
        MDAwBTAuMDAwBTAuMDAwBTAuMDAwBTAuMTg3BTAuMDIxBTAuMDAwBTAuMDAwBTAuNzk3BTAuMjIwBTAuMDAwBTAuMDAwBTAuMDAwBTAuMDAwBTAuMDAwBTAuMDAwBTAu
        MDAwBDQuMDAEMS41MQUwLjIyNQUwLjAwMAUwLjAwMAUwLjA4MAUwLjc4MwQzLjc3BDEuMjUEMy44NAQzLjg4BTAuMDAwBTAuNDgwBDEuMjAFMC4wMDAFMC4wMDAEMS43
        OAQxLjQ0BDEuNDQEMy4xMAUwLjAwMAQzLjk2BTAuMDAwBDQuMDAFMC42ODgFMC4wMDAFMC4wMDAEMS41MgUwLjUyMgUwLjAwMAUwLjAwMAUwLjAwMAUwLjAwMAUwLjAw
        MAUwLjAwMAUwLjAwMAQ0LjAwBTAuMDAwBTAuMDAwBTAuMDAwBTAuMDAwBDEuNDAFMC4wMDAFMC4zNDAEMy4zNwQzLjY5BTAuMDAwBDIuMDUEMS44OQQzLjE2BTAuMDAw
        BTAuMDAwBDEuNTgEMS4yNQUwLjAwMAQzLjEyBDEuNDUFMC4wMDAFMC4wMDAFMC4wMDAFMC4wMDAFMC4wMDAEMS4wOAUwLjAwMAUwLjAwMAUwLjAwMAUwLjAwMAQyLjYz
        BTAuOTU1BTAuMDAwBTAuNDgwBTAuNzMzBTAuNTMzBDMuNzUFMC4wMDAFMC44NTUFMC4wMDAFMC4wMDAFMC4wMDAFMC4wMDAFMC4wMDAEMy45MQQzLjkxBTAuMDAwBTAu
        MDAwBTAuMDAwBTAuMDAwBTAuMDAwBTAuMDAwBTAuMDAwBTAuMDAwBTAuMDAwBTAuMDAwBTAuMDAwBTAuMDAwBTAuMDAwBTAuMDAwBTAuMDAwBTAuMDAwBTAuMDAwBTAu
        MDAwBTAuMDAwBTAuMDAwBTAuMDAwBTAuMDAwBTAuMDAwBTAuMDAwBTAuMDAwBTAuMDAwBTAuMDAwBTAuMDAwBTAuMDAwBTAuMDAwBTAuMDAwBTAuMDAwBTAuMDAwBTAu
        MDAwBTAuMDAwBTAuMDAwBTAuMDAwBDcuNjMFMC4wMDAFMC4wMDAFMC4wMDAFMC4wMDAFMC4wMDAFMC4wMDAFMC4wMDAFMC4wMDAFMC4wMDAFMC4wMDAFMC4wMDAFMC4w
        MDAFMC4wMDAFMC4wMDAFMC4wMDAEMi42MwUwLjAwMAUwLjAwMAUwLjAwMAUwLjAwMAUwLjAwMAUwLjAwMAUwLjAwMAUwLjAwMAUwLjAwMAUwLjAwMAUwLjAwMAUwLjAw
        MAUwLjAwMAUwLjAwMAUwLjAwMAUwLjAwMAUwLjAwMAUwLjAwMAUwLjAwMAUwLjAwMAUwLjAwMAUwLjAwMAUwLjAwMAUwLjAwMAUwLjAwMAUwLjAwMAUwLjAwMAUwLjAw
        MAUwLjAwMAUwLjAwMAUwLjAwMAUwLjAwMAUwLjAwMAUwLjAwMAUwLjAwMAUwLjAwMAUwLjAwMAUwLjAwMAUwLjAwMAUwLjAwMAUwLjAwMAUwLjAwMAUwLjAwMAUwLjAw
        MAUwLjAwMAUwLjAwMAUwLjAwMAQ1LjExBTAuMDAwBTAuMDAwBTAuMDAwBTAuMDAwBTAuMDAwBTAuMDAwBTAuMDAwBTAuMDAwBTAuMDAwBTAuMDAwBTAuMDAwBTAuMDAw
        BTAuMDAwBTAuMDAwBTAuMDAwBTAuMDAwBTAuMDAwBTAuMDAwBTAuMDAwBTAuMDAwBTAuMDAwBTAuMDAwBTAuMDAwBTAuMDAwBTAuMDAwBTAuMDAwBDguOTEENS4yOAQ2
        LjQxBDguMTkENy42OQQ1LjI4BDYuNDcEOS4wMAQ5LjM3BDguMjcEOS44MAQ3LjU4BDkuMTQENi44NAQ3LjA0BDYuNjUEOC41NQQ1LjY1BDQuMTEENC41NwQ0Ljc0BDgu
        NTEEOC45OAQ4LjgyBDkuNzMEOC45OAQ2LjM1BDkuMjkENy45NQQzLjAwBDUuMzYENi4wMAQ2Ljk1BDcuMDIEOC4wMAQ4LjQwBDcuOTQENC42NQQ2Ljg2BDYuNDAENi40
        MAQ5LjQwBDkuMzgFMTAuMDAFMTAuMDAENy42NAQ5Ljc5BTEwLjAwBDguMjMFMC40MzQEOS4yMAUxMC4wMAQ5LjY1BDMuODkFMTAuMDAEOS44MAUxMC4wMAUxMC4wMAQ5
        LjcwBDkuMjAEOS4yMAUxMC4wMAUxMC4wMAUxMC4wMAQ5LjM5BTEwLjAwBDguNDMENi43MAQ5LjgwBDYuNTQEOC4wNQQ4LjA1BDguMzAENy40NAQ4LjQ2BDguNDYENy4y
        NwQ0LjU5BDQuMTUEMy43OAQ0LjA0BDkuMjkENC41NwQ1LjY3BTAuMDAwBTAuMDAwBDkuMjAENy40OAQ5LjI4BDcuOTEENy42NgUxMC4wMAQ4LjcwBDkuMzMEOS4zMwQ5
        Ljg1BDMuOTAEOC41NQQ5LjE1BDMuODYEOC43MAQzLjAzBDguOTEEMy42MwQ4LjkxBDMuNjMEOC45MQQ4Ljc5BDguOTEENS4yOAQ1LjI4BDkuNjYEOC4wMAQ5Ljg0BDgu
        NDAEOS44MAQ5LjgwBDkuODAEOS4yMAQ5LjAwBDguODEEOS44MAQ1LjI4BDUuMjgENy43OAQ1LjI4BDMuMjYENS44NgUwLjAwMAUwLjAwMAUxMC4wMAUwLjAwMAUwLjAw
        MAUwLjAwMAUwLjAwMAUwLjAwMAUwLjAwMAUwLjAwMAUwLjAwMAUwLjAwMAUwLjAwMAUwLjAwMAUwLjAwMAUwLjAwMAUwLjAwMAUwLjAwMAUxMC4wMAUwLjAwMAUwLjAw
        MAUwLjAwMAUwLjAwMAUwLjAwMAUwLjAwMAUwLjAwMAUwLjAwMAUwLjAwMAUwLjAwMAUwLjAwMAUwLjAwMAUwLjAwMAUxMC4wMAUwLjAwMAUwLjAwMAUwLjAwMAUwLjAw
        MAQxLjg4BTAuMDAwBTAuMDAwBTAuMDAwBTAuMDAwBTAuMDAwBTAuMDAwBTAuMDAwBTAuMDAwBTAuMDAwBTAuMDAwBTAuMDAwBTAuMDAwBTAuMDAwBTAuMDAwBTAuMDAw
        BDIuOTcFMC4wMDAFMC4wMDAFMC4wMDAFMC4wMDAFMC4wMDAFMC4wMDAFMC4wMDAFMC4wMDAFMC4wMDAFMC4wMDAFMC4wMDAFMC4wMDAFMC4wMDAFMC4wMDAFMC4wMDAF
        MTAuMDAFMTAuMDAFMTAuMDAFMC4wMDAFMC4wMDAFMC4wMDAFMC4wMDAFMC4wMDAFMC4wMDAFMC4wMDAFMC4wMDAFMC4wMDAFMC4wMDAFMC4wMDAFMC4wMDAFMC4wMDAF
        MC4wMDAFMC4wMDAFMC4wMDAFMC4wMDAFMTAuMDAFMC4wMDAFMC4wMDAFMC4wMDAFMC4wMDAFMC4wMDAFMC4wMDAFMC4wMDAFMC4wMDAFMC4wMDAFMC4wMDAFMC4wMDAE
        NC40MwUwLjAwMAUwLjAwMAUwLjAwMAUwLjAwMAUwLjAwMAUwLjAwMAUwLjAwMAUwLjAwMAUwLjAwMAUxMC4wMAUxMC4wMAUxMC4wMAUxMC4wMAUxMC4wMAUxMC4wMAUx
        MC4wMAUxMC4wMAUxMC4wMAUwLjAwMAUwLjgwMAUxMC4wMAUxMC4wMAUxMC4wMAUxMC4wMAUxMC4wMAUxMC4wMAUwLjAwMAUwLjAwMAUwLjAwMAUwLjAwMAUwLjAwMAUw
        LjAwMAUwLjAwMAUwLjAwMAUwLjAwMAUwLjAwMAUwLjAwMAUwLjAwMAUwLjAwMAUwLjAwMAUwLjAwMAUwLjAwMAUwLjAwMAUwLjAwMAUwLjAwMAUwLjAwMAUwLjAwMAUw
        LjAwMAUwLjAwMAUwLjAwMAUwLjAwMAUwLjAwMAUwLjAwMAUwLjAwMAUwLjAwMAUwLjAwMAUwLjAwMAUwLjAwMAUwLjAwMAUwLjAwMAUwLjAwMAUwLjAwMAUwLjAwMAQz
        LjAzBTAuMDAwBTAuMDAwBTAuMDAwBTAuMDAwBTAuMDAwBTAuMDAwBTAuMDAwBTAuMDAwBTAuMDAwBTAuMDAwBTAuMDAwBTAuMDAwBTAuMDAwBTAuMDAwBTAuMDAwBDEu
        ODUFMC4wMDAFMC4wMDAFMC4wMDAFMC4wMDAFMC4wMDAFMC4wMDAFMC4wMDAFMC4wMDAFMC4wMDAFMC4wMDAFMC4wMDAENi4wMAQ2LjAwBDYuMDAFMC4wMDAFMC4wMDAF
        MC4wMDAFMC4wMDAFMC4wMDAENi4wMAUwLjAwMAUwLjAwMAUwLjAwMAUwLjAwMAUwLjAwMAUwLjAwMAUwLjAwMAUwLjAwMAUwLjAwMAUwLjAwMAUwLjAwMAUwLjAwMAUw
        LjAwMAUwLjAwMAUwLjAwMAUwLjAwMAUwLjAwMAQ2LjAwBTAuMDAwBTAuMDAwBTAuMDAwBTAuMDAwBTAuMDAwBTAuMDAwBTAuMDAwBTAuMDAwBTAuMDAwBDUuMzUFMC4w
        MDAFMC4wMDAFMC4wMDAFMC4wMDAFMC4wMDAFMC4wMDAFMC4wMDAFMC4wMDAFMC4wMDAENi4wMAUwLjAwMAUwLjAwMAUwLjAwMAUwLjAwMAQ2LjAwBDYuMDAENi4wMAUw
        LjAwMAUwLjAwMAUwLjAwMAUwLjAwMAUwLjAwMAUwLjAwMAUwLjAwMAUwLjAwMAUwLjAwMAUwLjAwMAUwLjAwMAUwLjAwMAUwLjAwMAUwLjAwMAUwLjAwMAUwLjAwMAUw
        LjAwMAUwLjAwMAUwLjAwMAUwLjAwMAUwLjAwMAUwLjAwMAUwLjAwMAUwLjAwMAUwLjAwMAUwLjAwMAUwLjAwMAUwLjAwMAUwLjAwMAUwLjAwMAUwLjAwMAUwLjAwMAUw
        LjAwMAUwLjAwMAUwLjAwMAUwLjAwMAUwLjAwMAUwLjAwMAUwLjAwMAUwLjAwMAUwLjAwMAUwLjAwMAUwLjAwMAUwLjAwMAUwLjAwMAUwLjAwMAUwLjAwMAUwLjAwMAUw
        LjAwMAUwLjAwMAUwLjAwMAUwLjAwMAUxMC4wMAUwLjAwMAUwLjAwMAUwLjAwMAUwLjAwMAUwLjAwMAUxMC4wMAUwLjAwMAUwLjAwMAUwLjAwMAQ5LjY3BTAuMDAwBTAu
        MDAwBTAuMDAwBTAuMDAwBTAuMDAwBTAuMDAwBTAuMDAwBTAuMDAwBTAuMDAwBTAuMDAwBTAuMDAwBTAuMDAwBTAuMDAwBTAuMDAwBTAuMDAwBTAuMDAwBTAuMDAwBTAu
        MDAwBTAuMDAwBTAuMDAwBDEuMDAEMS4wMAUwLjAwMAUwLjAwMAUwLjAwMAUwLjAwMAUwLjAwMAUwLjAwMAQxLjAwBTAuMDAwBTAuMDAwBTAuMDAwBTEwLjAwBTEwLjAw
        BTEwLjAwBTAuMDAwBTEwLjAwBTAuMDAwBTEwLjAwBTAuMDAwBTAuMDAwBTAuMDAwBTAuMDAwBTAuMDAwBTAuMDAwBTAuMDAwBTAuMDAwBDMuNDcFMC4wMDAFMC4wMDAF
        MC4wMDAFMC4wMDAFMC4wMDAFMC4wMDAFMC4wMDAFMC4wMDAFMC4wMDAFMC4wMDAFMC4wMDAFMC4wMDAFMC4wMDAFMC4wMDAFMC4wMDAFMC4wMDAFMTAuMDAFMC4wMDAF
        MC4wMDAFMC4wMDAFMC4wMDAFMC4wMDAFMC4wMDAFMC4wMDAFMC4wMDAFMC4wMDAFMC4wMDAFMC4wMDAFMC4wMDAFMC4wMDAFMC4wMDAFMC4wMDAFMTAuMDAFMC4wMDAF
        MC4wMDAFMC4wMDAFMC4wMDAFMTAuMDAFMC4wMDAFMC4wMDAFMC4wMDAFMC4wMDAFMC4wMDAFMC4wMDAFMC4wMDAFMC4wMDAFMC4wMDAFMC4wMDAFMC4wMDAFMC4wMDAF
        MC4wMDAFMC4wMDAFMC4wMDAFMC4wMDAFMC4wMDAFMC4wMDAFMC4wMDAFMC4wMDAFMTAuMDAFMC4wMDAFMC4wMDAFMC4wMDAFMC4wMDAEMi42OQUwLjAwMAUwLjAwMAUw
        LjAwMAUwLjAwMAUwLjAwMAUxMC4wMAUwLjAwMAUwLjAwMAUwLjAwMAUwLjAwMAUwLjAwMAUxMC4wMAUwLjAwMAUwLjAwMAUwLjAwMAQ1LjgxBTAuMDAwBTAuMDAwBTEw
        LjAwBTAuMDAwBTAuMDAwBTAuMDAwBTAuMDAwBTAuMDAwBTAuMDAwBTAuMDAwBTAuMDAwBTAuMDAwBTAuMDAwBTAuMDAwBTAuMDAwBTAuMDAwBTAuMDAwBTAuMDAwBTAu
        MDAwBTEwLjAwBTAuMDAwBTAuMDAwBTAuMDAwBTAuMDAwBTAuMDAwBTAuMDAwBTAuMDAwBTAuMDAwBTAuMDAwBTAuMDAwBTAuMDAwBTAuMDAwBTAuMDAwBTAuMDAwBTAu
        MDAwBTEwLjAwBTAuMDAwBTAuMDAwBTEwLjAwBTEwLjAwBTEwLjAwBTAuMDAwBTAuMDAwBTAuMDAwBTAuMDAwBTAuMDAwBTAuMDAwBDYuNTYFMC4wMDAFMC4wMDAFMC4w
        MDAFMC4wMDAFMTAuMDAFMC4wMDAFMC4wMDAFMC4wMDAFMC4wMDAFMC4wMDAFMTAuMDAFMTAuMDAFMC4wMDAFMC4wMDAFMC4wMDAFMC4wMDAFMC4wMDAFMC4wMDAFMC4w
        MDAFMC4wMDAFMC4wMDAFMC4wMDAFMC4wMDAFMC4wMDAFMC4wMDAFMC4wMDAFMC4wMDAFMC4wMDAFMC4wMDAFMC4wMDAFMC4wMDAFMC4wMDAFMC4wMDAFMC4wMDAFMC4w
        MDAFMC4wMDAFMC4wMDAFMC4wMDAFMC4wMDAFMC4wMDAFMC4wMDAFMC4wMDAFMC4wMDAFMTAuMDAFMTAuMDAFMC4wMDAFMC4wMDAFMC4wMDAFMC4wMDAFMC4wMDAFMC4w
        MDAFMC4wMDAFMC4wMDAFMC4wMDAFMC4wMDAFMC4wMDAFMC4wMDAFMC4wMDAFMC4wMDAFMC4wMDAFMC4wMDAFMC4wMDAFMC4wMDAEOC4zOQUwLjAwMAUxMC4wMAUwLjAw
        MAUwLjAwMAUwLjAwMAUwLjAwMAUwLjAwMAUwLjAwMAUwLjAwMAUwLjAwMAUwLjAwMAUxMC4wMAUwLjAwMAUwLjAwMAUwLjAwMAQ3LjY0BTAuMDAwBTAuMDAwBTAuMDAw
        BTAuMDAwBTAuMDAwBTAuMDAwBTAuMDAwBTAuMDAwBTEwLjAwBTEwLjAwBTAuMDAwBTAuMDAwBTAuMDAwBTAuMDAwBTAuMDAwBTAuMDAwBTAuMDAwBTAuMDAwBTAuMDAw
        BTEwLjAwBTAuMDAwBTAuMDAwBTAuMDAwBTAuMDAwBTAuMDAwBTAuMDAwBTAuMDAwBTAuMDAwBTAuMDAwBTAuMDAwBTAuMDAwBTAuMDAwBTAuMDAwBTAuMDAwBTEwLjAw
        BTAuMDAwBTAuMDAwBTEwLjAwBTAuMDAwBTAuMDAwBTEwLjAwBTAuMDAwBTAuMDAwBTAuMDAwBTAuMDAwBTAuMDAwBTAuMDAwBDUuODcFMTAuMDAFMTAuMDAFMTAuMDAF
        MTAuMDAFMTAuMDAFMTAuMDAFMTAuMDAFMC4wMDAFMC4wMDAFMC4wMDAFMC4wMDAFMC4wMDAFMC4wMDAFMC4wMDAFMC4wMDAFMC4wMDAFMC4wMDAFMC4wMDAFMC4wMDAF
        MC4wMDAFMC4wMDAFMC4wMDAFMC4wMDAFMC4wMDAFMC4wMDAFMC4wMDAFMC4wMDAFMTAuMDAFMTAuMDAFMC4wMDAFMC4wMDAFMC4wMDAFMC4wMDAFMC4wMDAFMC4wMDAF
        MC4wMDAFMC4wMDAFMC4wMDAFMC4wMDAFMC4wMDAFMC4wMDAFMC4wMDAFMC4wMDAFMTAuMDAFMC4wMDAFMC4wMDAFMC4wMDAFMC4wMDAFMC4wMDAFMC4wMDAFMC4wMDAF
        MC4wMDAFMC4wMDAFMC4wMDAFMC4wMDAFMC4wMDAFMC4wMDAFMC4wMDAFMC4wMDAFMTAuMDAFMC4wMDAFMC4wMDAFMC4wMDAEOS4xNwUwLjAwMAUwLjAwMAUwLjAwMAUw
        LjAwMAUwLjAwMAUwLjAwMAUwLjAwMAUwLjAwMAUwLjAwMAUwLjAwMAUwLjAwMAUxMC4wMAUwLjAwMAUwLjAwMAUwLjAwMAQ0LjM3BTAuMDAwBTAuMDAwBTAuMDAwBTAu
        MDAwBTAuMDAwBTAuMDAwBTAuMDAwBTAuMDAwBTEwLjAwBTEwLjAwBTAuMDAwBTAuMDAwBTAuMDAwBTEwLjAwBTAuMDAwBTAuMDAwBTAuMDAwBTAuMDAwBTAuMDAwBTEw
        LjAwBTAuMDAwBTAuMDAwBTAuMDAwBTAuMDAwBTAuMDAwBTAuMDAwBTAuMDAwBTAuMDAwBTAuMDAwBTAuMDAwBTAuMDAwBTAuMDAwBTEwLjAwBTAuMDAwBTEwLjAwBTAu
        MDAwBTEwLjAwBTAuMDAwBTEwLjAwBTAuMDAwBTAuMDAwBTAuMDAwBTAuMDAwBTEwLjAwBTAuMDAwBTAuMDAwBTAuMDAwBDQuOTEFMC4wMDAFMC4wMDAFMC4wMDAFMC4w
        MDAFMC4wMDAFMC4wMDAFMC4wMDAFMTAuMDAFMTAuMDAFMC4wMDAFMC4wMDAFMTAuMDAFMTAuMDAFMC4wMDAFMTAuMDAFMTAuMDAFMTAuMDAFMTAuMDAFMC4wMDAFMC4w
        MDAFMC4wMDAFMC4wMDAFMC4wMDAFMC4wMDAFMC4wMDAFMC4wMDAFMC4wMDAFMC4wMDAFMTAuMDAFMC4wMDAFMC4wMDAFMC4wMDAFMC4wMDAFMC4wMDAFMC4wMDAFMC4w
        MDAFMC4wMDAFMC4wMDAFMC4wMDAFMC4wMDAFMTAuMDAFMC4wMDAFMC4wMDAFMTAuMDAFMC4wMDAFMC4wMDAFMC4wMDAFMC4wMDAFMC4wMDAFMC4wMDAFMC4wMDAFMC4w
        MDAFMC4wMDAFMTAuMDAFMC4wMDAFMTAuMDAFMC4wMDAFMC4wMDAFMTAuMDAFMTAuMDAFMC4wMDAFMC4wMDAFMC4wMDAENS42NQUwLjAwMAUwLjAwMAUwLjAwMAUwLjAw
        MAUwLjAwMAUwLjAwMAUwLjAwMAUwLjAwMAUwLjAwMAUwLjAwMAUwLjAwMAUxMC4wMAUwLjAwMAUwLjAwMAUwLjAwMAQyLjcwBTAuMDAwBTAuMDAwBTAuMDAwBTAuMDAw
        BTAuMDAwBTAuMDAwBTAuMDAwBTAuMDAwBTEwLjAwBTEwLjAwBTAuMDAwBTAuMDAwBTAuMDAwBTAuMDAwBTAuMDAwBTAuMDAwBTAuMDAwBTAuMDAwBTAuMDAwBDIuMTMF
        MC4wMDAFMC4wMDAFMC4wMDAFMC4wMDAFMC4wMDAFMC4wMDAFMC4wMDAFMC4wMDAFMC4wMDAFMC4wMDAFMC4wMDAFMC4wMDAFMC4wMDAFMTAuMDAFMTAuMDAFMC4wMDAF
        MC4wMDAFMC4wMDAFMC4wMDAFMC4wMDAFMC4wMDAFMC4wMDAFMC4wMDAFMC4wMDAFMC4wMDAFMC4wMDAFMC4wMDAEMy4wNwUwLjAwMAUwLjAwMAUwLjAwMAUwLjAwMAUw
        LjAwMAUwLjAwMAUwLjAwMAUwLjAwMAUwLjAwMAUwLjAwMAUwLjAwMAUxMC4wMAUxMC4wMAUwLjAwMAUxMC4wMAUxMC4wMAUxMC4wMAUxMC4wMAUwLjAwMAUwLjAwMAUw
        LjAwMAUwLjAwMAUwLjAwMAUwLjAwMAUwLjAwMAUwLjAwMAUwLjQ5OAUwLjc5NwUwLjQ5NAUwLjUyMQUwLjUyMAUwLjM5NQUwLjIyMAUwLjY4MAUwLjU4OAUwLjcwOAQx
        LjAxBTAuNDkxBTAuNzgzBTAuMjk1BTAuMjI0BTAuMzg0BTAuNTA1BTAuNDk0BDEuMTAFMC41MDAFMC41MDAFMC41ODEFMC41MDUFMC4zMjAFMC41MDAFMC41MDUFMC40
        MDAFMC40OTQFMC41MDUFMC4yMTAFMC41NjYFMC4yNDIFMC41NDgEMS4xMAUwLjgyNAUwLjc1NAUwLjUyNAQxLjI3BTAuNTUwBTAuNTAyBTAuMzc4BTAuNDg1BTAuNDg1
        BTAuMTA1BTAuNDc1BTAuNDgwBTAuNjIwBTAuNjQwBTAuMzY3BTAuNDk0BTAuNTI3BTAuNjAwBTAuNTY3BDEuMTUFMC40NTAFMC42NDAFMC41NDAFMC42NjMFMC45MDAF
        MC44MzkFMC43MjAFMC41NjAFMC40NzMFMC40NzMFMC43MDAFMC44MTQFMC42MDEFMC42MDEFMC41NjAEMS4wMgUwLjMyMQUwLjMyMQUwLjAwMAUwLjIyMAUwLjEwNwUw
        LjEwNwUwLjAwMAUwLjAwMAUwLjAwMAUwLjAwMAUwLjAwMAUwLjAwMAUwLjUwMAUwLjAwMAUwLjAwMAUwLjAwMAUwLjUyMAUwLjM4MwUwLjQ3MwUwLjI4NgUwLjUyMAUw
        LjAzNgUwLjAwMAUwLjY0MAUwLjY0MAUwLjUwMAUwLjAwMAUwLjM2NgUwLjc0MwUwLjUwMAUwLjU3MwUwLjA0OAUwLjQ5MwUwLjQ5MwUwLjQ5MwUwLjQ5MwUwLjQ1MwUw
        LjQ5MwUwLjQ5MwUwLjc5NwUwLjc5NwUwLjI4NgQxLjM3BTAuNTg4BTAuNzU0BDEuMDEEMS4wMQQxLjAxBDEuMDEFMC42ODAFMC40NzcFMC40OTMFMC40OTMFMC40OTMF
        MC40OTMFMC40OTMFMC40OTMFMC40OTMFMTAuMDAENy43MAQzLjI0BDcuODQEOS40OQUxMC4wMAQ0LjU5BTEwLjAwBTEwLjAwBTEwLjAwBDcuMDAEOC40OQQ3LjAwBDcu
        MDAEOC44MwUxMC4wMAUxMC4wMAUxMC4wMAQ2LjM1BDkuNjAEOS42MAQ1LjM3BDguOTQENy40MAQ5LjYwBDguOTQEOS41MAUxMC4wMAUxMC4wMAQ5LjEwBDkuMTgENy41
        NQQ3LjMzBTAuMDAwBDkuMTAEOS4zOQQ4LjMwBDMuNzYEOC43MgQ5LjU0BDkuNTQENi41OQQzLjY0BTAuMDAwBDcuODYFMTAuMDAFMTAuMDAENy4xOAQ3LjU1BTEwLjAw
        BTEwLjAwBDYuMTAFMTAuMDAEMS40OQQ3LjAwBDYuODMEOS41NAUxMC4wMAQ4LjIzBDcuNTUEOC40OAQ5LjMwBDYuNzYENi43NgQ3LjU1BDguMDAFMTAuMDAFMTAuMDAE
        Ny45MAQ3Ljk1BDcuMDMENy4wMwQ3LjAwBDUuODEEOS40MgQ5LjQyBDMuNTYFMTAuMDAEMy41NgQzLjg2BTEwLjAwBTEwLjAwBTEwLjAwBDguMDgEOC4xNwQzLjU2BDgu
        NjAFMTAuMDAENi43NgQ3LjA2BDguNjAFMC4wMDAEOC4xNwQzLjU2BDMuNTYEOS42MAQ5LjgzBDYuMzAEOC42MQQ5LjMwBDYuODMEOS45NQUxMC4wMAUxMC4wMAUxMC4w
        MAUxMC4wMAUxMC4wMAUxMC4wMAUxMC4wMAQ3LjcwBDcuNzAEMy4zOAQ0LjQ4BDguOTgEOS4zOQQ4LjkwBDUuNzAENS43MAQ1LjcwBDkuMTAENy4xMAQxLjkwBTAuMDAw
        BTAuOTUyBDEuMjAFMC4wMDAEMS4yMgUwLjAwMAQ3LjgwBDUuODQENy4zMgQ2LjQ0BDIuNDMENS44NAUwLjAwMAQzLjg2BDMuODYFMTAuMDAEMS43OAQ1LjE4BDYuODYE
        My41NQQyLjAyBDYuMDQENi45MwQyLjQ5BDEuNTMENS42NgQ0LjcxBDQuNDIFMC42MzMFMTAuMDAENS43NwUwLjYzMwQyLjkxBTAuNjU4BDYuOTMEMi43MQQ3Ljc0BDcu
        MDMENS43NQQ2LjcyBDcuNjAENi40MAQyLjg2BDguNDIEMi40MwQ3Ljk3BDMuODAEMS42NwUwLjMwOAUwLjEyOQQ1LjEwBDYuNDYEMS42NQQzLjQxBDcuNTcENS4xOQQy
        LjMzBTAuMDAwBDQuMjkENC4xNAUwLjQ1MQUwLjAwMQQ4LjU3BDIuNTMEMi4zMgQyLjM0BDIuMzQENS4xMAQ2Ljg1BTAuOTAwBDEuODQEMy4xNwQxLjQyBDEuNDIFMC4y
        MDAENC40NQQ4Ljg1BDguODUEMi4zMAUwLjAwMAQzLjc4BDMuNzgENS4xMQQ1LjQ0BDUuMTEENC42OQQxLjQzBTEwLjAwBDUuMjcENy4wOAQ2LjQ2BDYuNTkEMi42MgUx
        MC4wMAQ2Ljg1BDcuMzUEMS43MgUwLjEyOQQyLjc0BDQuNTkENC4zNQQzLjg4BDIuOTIENi44MAQ1Ljk2BDguODIENi41MAQyLjE2BDguMzYENC4yOQQ0LjI5BDUuMTcE
        OC4zNgQ1LjE3BDcuODAENS44NAQ1Ljg0BTAuMzc5BDcuODYEMy4wNgQ2LjE2BDEuMzEEMS4zMQQxLjMxBDEuMzEEMy44NgQ0LjYwBDIuOTAFMC4wMDAFMC4wMDAEMy4w
        NwUwLjAwMAQ0LjI4BDQuMjgEMy4wMAQ1LjAwBDQuMTYFMC4wMDAFMC4wMDAFMC4wMDAFMC4wMzQFMC4wMDAFMC4wMDAFMC4wMDAFMC4wMDAEMi40OAUwLjAwMAQ1LjUw
        BDUuMjEFMC4wMDAFMC4wMDAENS4wNgQyLjYyBTAuMDAwBTAuMDAwBTAuMDAwBTAuMDAwBTAuMDAwBTAuMDAwBTAuMDAwBTAuMDAwBDcuMzMFMC4wMDAFMC4wMDAFMC4w
        MDAFMC4wMDAFMC4wMzQENC42MwUwLjAwMAUwLjAwMAUwLjAwMAQ3LjM3BTAuMDAwBTAuMDAwBTAuMDAwBTAuMDAwBTAuMDAwBTAuMDM0BTAuMDAwBTAuMDAwBTAuMDAw
        BTAuMDAwBTAuMDAwBDQuOTgFMC4wMDAFMC4wMDAFMC4wMDAENS41OAUwLjAwMAUwLjAwMAUwLjAwMAUwLjAwMAUwLjAwMAUwLjAwMAUwLjAwMAUwLjAwMAQ0LjkwBDQu
        OTAFMC4wMDAFMC4wMDAFMC4wMDAENC4wNwUwLjAwMAUwLjAwMAUwLjAwMAUwLjAwMAUwLjAwMAQ1LjI4BTAuMDAwBTAuMDAwBTAuMDAwBTAuMDAwBTAuMDAwBTAuMDAw
        BTAuMDAwBTAuMDAwBTAuMDAwBTAuMDAwBTAuMDAwBTAuMDAwBDMuNTEENC4xNwQ0LjkwBTAuNDAwBDMuNTEFMC4wMzQEMy4zMAQ0LjcwBDQuNzAFMC4wMDAFMC4wMDAE
        My4wNAUwLjAwMAUwLjAwMAUwLjAwMAUwLjU0NwQzLjc1BDMuNzUEMy43NQQzLjc1BDMuNzUEMy43NQQzLjc1BDUuMDAENS4wMAUwLjQwMAUwLjAzNAQ0LjcyBDQuNjAF
        MC4wMDAENS4wMwQ1LjAzBDUuMDMENS4wNAUwLjAwMAQzLjc1BDMuNzUEMy43NQQzLjc1BDMuNzUEMy43NQQzLjc1BTEwLjAwBTAuMDAwBTEwLjAwBTAuMDAwBTEwLjAw
        BTEwLjAwBTAuMDAwBTEwLjAwBTEwLjAwBTAuMDAwBTEwLjAwBTAuMDAwBTEwLjAwBTEwLjAwBTEwLjAwBTEwLjAwBTEwLjAwBTAuMDAwBTAuMDAwBTEwLjAwBTEwLjAw
        BTAuMDAwBTEwLjAwBTEwLjAwBTEwLjAwBTEwLjAwBTAuMDAwBTAuMDAwBTEwLjAwBTEwLjAwBTEwLjAwBTEwLjAwBTEwLjAwBTAuMDAwBTEwLjAwBTEwLjAwBTEwLjAw
        BDYuNTMFMTAuMDAFMTAuMDAFMTAuMDAFMTAuMDAFMTAuMDAFMC4wMDAFMC4wMDAFMTAuMDAFMC4wMDAFMC4wMDAFMC4wMDAFMTAuMDAFMC4wMDAFMC4wMDAFMTAuMDAE
        NC4yOQUwLjAwMAUwLjAwMAUxMC4wMAUxMC4wMAUwLjAwMAUwLjAwMAUwLjAwMAUxMC4wMAUxMC4wMAUxMC4wMAUxMC4wMAUxMC4wMAUwLjAwMAUwLjAwMAUwLjAwMAUw
        LjAwMAUwLjAwMAUwLjAwMAUxMC4wMAUwLjAwMAUxMC4wMAUxMC4wMAUxMC4wMAUxMC4wMAUxMC4wMAUwLjAwMAUxMC4wMAUxMC4wMAUwLjAwMAUxMC4wMAUxMC4wMAUx
        MC4wMAUxMC4wMAUxMC4wMAUxMC4wMAUwLjAwMAUxMC4wMAUwLjAwMAUxMC4wMAUxMC4wMAUxMC4wMAUxMC4wMAUxMC4wMAUwLjAwMAUwLjAwMAUxMC4wMAUxMC4wMAQ2
        LjkzBTEwLjAwBTEwLjAwBTEwLjAwBTEwLjAwBTEwLjAwBTEwLjAwBTEwLjAwBTAuMDAwBTAuMDAwBTAuMDAwBTAuMDAwBTEwLjAwBTEwLjAwBTEwLjAwBTEwLjAwBTEw
        LjAwBTEwLjAwBTEwLjAwBTEwLjAwBTAuMDAwBTAuMDAwBTAuMDAwBTAuMDAwBTEwLjAwBTAuMDAwBTAuMDAwBDEuOTkEMS45OQUxMC4wMAUxMC4wMAUxMC4wMAQxLjk5
        BDQuNTcEMS43MQQxLjcxBDEuMzQEMS42MwUxMC4wMAUwLjAwMAQxLjc2BDEuMTgEMS41NQQxLjc2BTEwLjAwBTEwLjAwBTEwLjAwBTEwLjAwBDIuMTEEMS43NgQyLjEx
        BTEwLjAwBDEuNzYEMS4xOAUxMC4wMAQxLjc2BDEuNzYEMS45OQQxLjU1BTEwLjAwBDQuNTcEMS43NgQxLjc2BDEuNzYENC4xMgUxMC4wMAQxLjgwBDEuODAEMS43NgQx
        Ljc2BDQuNTcFMTAuMDAFMTAuMDAFMTAuMDAEMS4xOAQ0LjY0BTEwLjAwBDEuMzQENS45MQQxLjk5BDUuNTgFMC4wMDAFMC4wMDAEMS44MAQyLjAyBTEwLjAwBDQuNjQE
        NC42NAUxMC4wMAQxLjk5BDEuOTkFMTAuMDAFMTAuMDAENS45MQQ1LjkxBTAuMDAwBDIuMTEEMS45MgQxLjkyBDEuMzQENC41NwQxLjU1BDEuNTUEMS41NQUxMC4wMAQx
        LjU1BDEuOTkEMS41NQQxLjM0BTEwLjAwBDEuNTUEMS41NQQxLjU1BDEuMzQEMS4zNAQxLjk5BTEwLjAwBDEuMzQENC41NwQxLjU1BDEuNTUEMS41NQUxMC4wMAQxLjU1
        BDEuNzgFMTAuMDAFMTAuMDAEMS41NQQ2LjMxBDEuOTkEMS45OQQxLjk5BDEuOTkEMS45OQQxLjk5BDEuOTkEMS45OQQxLjk5BTEwLjAwBDQuNTcEMS43MQQxLjc2BDEu
        NjMEMS42MwQxLjYzBDEuNjMEMS43MQUwLjAwMAQxLjk5BDEuOTkEMS45OQQxLjk5BDEuOTkENC42NAQ0LjY0BTAuMDAwBTAuMDAwBDUuOTkFMC4wMDAFMC4wMDAFMC4w
        MDAENC43MwUwLjAwMAUwLjAwMAUwLjAwMAUwLjAwMAQ0Ljc1BTAuMDAwBTAuMDAwBDMuMDkFMC4wMDAFMC4wMDAENy4wMAQ0LjYxBTAuMDAwBTAuMDAwBTAuMDAwBTAu
        MDAwBTAuMDAwBTAuMDAwBTAuMDAwBTAuMDAwBDQuNjEFMC4wMDAFMC42MzEFMC4wMDAFMC45MTAENC4yOAQ2LjczBDIuODMFMC4wMDAFMC4wMDAEMi40OQUwLjAwMAUw
        LjY5MQQzLjI5BDMuMjUENC4zNQQ2Ljg3BTAuMDAwBTAuMDAwBTAuMDAwBTAuMDAwBTAuMDAwBDUuNDkFMC4wMDAENS4xOAUwLjAwMAQxLjQ5BTAuMDAwBTAuMDAwBDQu
        NTkFMC4wMDAFMC4wMDAFMC4wMDAFMC4wMDAFMC4wMDAFMC4wMDAEMy4zNgUwLjAwMAUwLjAwMAUwLjAwMAQxLjI0BTAuMDAwBDIuODYEMi44MAQyLjgwBTAuMDAwBDIu
        MjEFMC42OTMEMi4yNAUwLjAwMAUwLjAwMAUwLjAwMAUwLjAwMAUwLjcyNAUwLjAwMAUwLjA0NQUwLjAwMAUwLjAwMAUwLjAwMAQzLjY3BDEuMzYFMC4wMDAEMy45OAQy
        LjAxBDcuMDAFMC4wMDAFMC4wMDAFMC4wMDAFMC4wMTMEMS4wNAUwLjAwMAUwLjAwMAUwLjAwMAUwLjAwMAQzLjQ4BTAuMDAwBTAuMDAwBTAuMDAwBDIuMzIFMC4wMDAF
        MC4wMDAFMC4wMDAFMC4wMDAFMC4wMDAEMi4wMAQ1LjQ0BTAuMDAwBTAuMDAwBTAuODQwBTAuODQwBTAuODQwBTAuODQwBTAuMDAwBTAuMDAwBTAuMDAwBTAuMDAzBTAu
        MDAwBTAuMDAwBTAuMDAwBTAuMDAwBTAuMDAwBDIuNjYEMy40NQQyLjQxBDIuNDUEMi45MAQyLjI5BDUuMjcEMS4yNAQxLjc3BDEuOTIEMS42NQQ0Ljg4BDEuOTkEMy42
        NQQ1LjIwBDIuMTUEMS44MwQyLjQ1BDMuMzQEMi42MwQyLjU5BDEuMjkEMi4wNQQxLjUwBDIuMjMEMS40NQQxLjkyBTAuMDAwBDIuMDUEMS44MgQxLjE0BDIuMDMENy40
        NQQyLjY1BDEuMzAEMS40MAQxLjM1BDcuMzUEMS43MgQyLjAxBDIuNDQEMS40NgQxLjM2BDIuNzYEMi4xMAQxLjUwBDEuOTAEMS42OQQxLjY4BDMuODUEMS45MAQxLjUw
        BDEuMjAEMi4wOAQxLjM3BDIuMDIEMi4yMgQxLjkwBDEuNjAFMC44NTYEMS41MgQxLjQ5BDMuMDMEMS40MAQxLjIwBDEuNTAEMS44MAQzLjk3BDEuNjAEMS42NAQyLjg0
        BDIuNTMFMC4wMDAFMC4zMTUFMC4xMDAFMC4xMDAFMC4wMDAFMC4wMDAFMC4wMDAFMC4wMDAFMC4wMDAFMC4wMDAFMC4wMzMFMC4wMDAFMC4wMDAFMC4wMDAEMS40NwQz
        LjY2BDIuMTIFMC4wMDAEMy4wMAQ1Ljk3BDEuNjEEMS45MQQxLjgxBDIuNzIFMC4wMDAEMi41OAQxLjY4BDMuODMEMS42MAQ3LjgzBDEuNzgEMi4xNgQyLjQwBDIuMTgE
        MS45NQQyLjQ3BDIuNDkENC4zNQQzLjY1BDQuNjkENC4yMQQ1Ljc2BDMuODgEMi44NQQ0LjkxBDUuMDEENC4zOAQzLjUwBDEuOTEFMC4wMDAFMC4wMDAFMC4wMDAFMC4w
        MDAFMC4wMDAFMC4wMDAFMC4wMDAFMC4wMDAFMC4wMDAFMC4wMDAFMC4wMDAFMC4wMDAFMC4wMDAFMC4wMDAFMC4wMDAFMC4wMDAFMC4wMDAFMC4wMDAFMC4wMDAFMC4w
        MDAFMC4wMDAFMC4wMDAFMC4wMDAFMC4wMDAFMC4wMDAFMC4wMDAFMC4wMDAFMC4wMDAFMC4wMDAFMC4wMDAFMC4wMDAFMC4wMDAFMC4wMDAFMC4wMDAFMC4wMDAFMC4w
        MDAFMC4wMDAFMC4wMDAFMC4wMDAFMC4wMDAFMC4wMDAFMC4wMDAFMC4wMDAFMC4wMDAEMi45MAUwLjAwMAUwLjAwMAUwLjAwMAUwLjAwMAUwLjAwMAUwLjAwMAUwLjAw
        MAUwLjAwMAUwLjAwMAUwLjAwMAUwLjAwMAUwLjAwMAUwLjAwMAUwLjAwMAUwLjAwMAQzLjYyBTAuMDAwBTAuMDAwBTAuMDAwBTAuMDAwBTAuMDAwBTAuMDAwBTAuMDAw
        BTAuMDAwBTAuMDAwBTAuMDAwBTAuMDAwBTAuMDAwBTAuMDAwBTAuMDAwBTAuMDAwBTAuMDAwBTAuMDAwBTAuMDAwBTAuMDAwBTAuMDAwBTAuMDAwBTAuMDAwBTAuMDAw
        BTAuMDAwBTAuMDAwBTAuMDAwBTAuMDAwBTAuMDAwBTAuMDAwBTAuMDAwBTAuMDAwBTAuMDAwBTAuMDAwBTAuMDAwBTAuMDAwBTAuMDAwBTAuMDAwBTAuMDAwBTAuMDAw
        BTAuMDAwBTAuMDAwBTAuMDAwBTAuMDAwBTAuMDAwBTAuMDAwBTAuMDAwBTAuMDAwBTAuMDAwBTAuMDAwBTAuMDAwBTAuMDAwBTAuMDAwBTAuMDAwBTAuMDAwBTAuMDAw
        BTEwLjAwBTEwLjAwBTAuMDAwBTAuMDAwBTAuMDAwBTAuMDAwBTAuMDAwBTAuMDAwBTAuMDAwBTAuMDAwBTAuMDAwBTAuMDAwBTAuMDAwBTAuMDAwBTAuMDAwBTAuMDAw
        BTAuMDAwBTAuMDAwBTAuMDAwBTAuMDAwBTAuMDAwBTAuMDAwBTAuMDAwBTAuMDAwBTAuMDAwBTAuMDAwBTAuMDAwBTAuMDAwBTAuMDAwBTAuMDAwBTAuMDAwBTAuMDAw
        BTAuMDAwBTAuMDAwBTAuMDAwBTAuMDAwBTAuMDAwBTAuMDAwBTAuMDAwBTAuMDAwBTAuMDAwBTAuMDAwBTAuMDAwBTAuMDAwBTAuMDAwBTAuMDAwBTAuMDAwBTAuMDAw
        BTAuMDAwBTAuMDAwBTAuMDAwBTAuMDAwBTAuMDAwBTAuMDAwBTAuMDAwBTAuMDAwBDQuNDQFMC4wMDAFMC4wMDAFMC4wMDAFMC4wMDAFMC4wMDAFMC4wMDAFMC4wMDAF
        MC4wMDAFMC4wMDAFMC4wMDAFMC4wMDAFMC4wMDAFMC4wMDAFMC4wMDAFMC4wMDAENC4wOAUwLjAwMAUwLjAwMAUwLjAwMAUwLjAwMAUwLjAwMAUwLjAwMAUwLjAwMAUw
        LjAwMAUwLjAwMAUwLjAwMAUwLjAwMAUwLjAwMAUwLjAwMAUwLjAwMAUwLjAwMAUwLjAwMAUwLjAwMAUwLjAwMAUwLjAwMAUwLjAwMAUwLjAwMAUwLjAwMAUwLjAwMAUw
        LjAwMAUwLjAwMAUwLjAwMAUwLjAwMAUwLjAwMAUwLjAwMAUwLjAwMAUwLjAwMAUwLjAwMAUwLjAwMAUwLjAwMAUwLjAwMAUwLjAwMAUwLjAwMAUwLjAwMAUwLjAwMAUw
        LjAwMAUwLjAwMAUwLjAwMAUwLjAwMAUwLjAwMAUwLjAwMAUwLjAwMAUwLjAwMAQzLjMwBTAuMDAwBTAuMDAwBTAuMDAwBTAuMDAwBTAuMDAwBTAuMDAwBTAuMDAwBTEw
        LjAwBTEwLjAwBTAuMDAwBTAuMDAwBTEwLjAwBTEwLjAwBTEwLjAwBTEwLjAwBTEwLjAwBTEwLjAwBTEwLjAwBTAuMDAwBTAuMDAwBTAuMDAwBTAuMDAwBTAuMDAwBTAu
        MDAwBTAuMDAwBTAuMDAwBTEwLjAwBTEwLjAwBDguODUFMTAuMDAFMTAuMDAFMTAuMDAENS42MAUxMC4wMAUxMC4wMAUxMC4wMAUxMC4wMAUwLjcwMAUxMC4wMAUxMC4w
        MAUxMC4wMAUxMC4wMAUxMC4wMAQ4Ljg1BTEwLjAwBTEwLjAwBTEwLjAwBTEwLjAwBTEwLjAwBTEwLjAwBTEwLjAwBTEwLjAwBTEwLjAwBDkuMTAFMTAuMDAFMTAuMDAF
        MTAuMDAFMTAuMDAEOS41MAUxMC4wMAUxMC4wMAUxMC4wMAUxMC4wMAQ1Ljg0BTEwLjAwBDkuMzAFMTAuMDAEMy42MAQzLjYwBTAuOTAwBTEwLjAwBTEwLjAwBTEwLjAw
        BTEwLjAwBTEwLjAwBDkuODAFMTAuMDAFMTAuMDAFMTAuMDAEOC44MgUxMC4wMAUxMC4wMAQ0LjA1BTEwLjAwBTEwLjAwBTEwLjAwBTEwLjAwBTEwLjAwBTEwLjAwBTEw
        LjAwBTEwLjAwBTEwLjAwBTEwLjAwBTEwLjAwBTEwLjAwBTEwLjAwBTEwLjAwBTEwLjAwBTEwLjAwBDkuNTUFMTAuMDAFMTAuMDAFMTAuMDAFMTAuMDAFMTAuMDAFMTAu
        MDAFMTAuMDAFMTAuMDAFMTAuMDAFMTAuMDAFMTAuMDAFMTAuMDAFMTAuMDAFMTAuMDAFMTAuMDAENC43MAUxMC4wMAUwLjkwMAUxMC4wMAUxMC4wMAUxMC4wMAQ5Ljk1
        BTEwLjAwBTEwLjAwBTEwLjAwBTEwLjAwBTEwLjAwBTAuNjQ2BTEwLjAwBTEwLjAwBTEwLjAwBTEwLjAwBTEwLjAwBTEwLjAwBTEwLjAwBTEwLjAwBTEwLjAwBDUuNDAE
        NC43MAQyLjI1BTEwLjAwBTEwLjAwBTEwLjAwBTEwLjAwBTEwLjAwBTEwLjAwBTEwLjAwBTEwLjAwBTEwLjAwBTEwLjAwBTEwLjAwBTEwLjAwBTEwLjAwBTEwLjAwATAB
        MgEyATIBMgEyATIBMgEyATIBMgEwATIBMgEyATIBMgExATABMgEyATIBMgEyATIBMgEyATIBMgEyATIBMgEyATIBMgEyATICMTIBMgEyATIBMgEyATIBMgEyATIBMgEy
        ATIBMgEyATIBOAEyATIBMgEyATIBMgEyATIBMgEyATIBMgEyATIBMgEyATIBMgEyATIBMgEyATIBMgEyATIBMgEyATIBMgEyATIBMgEyATIBMAEyATIBMgEyATIBMgEy
        ATIBMgEyATICMTYBMgEyATIBMgEyATIBMgEyATIBMAEyATIBMgEyATIBMgEyATIBMgEyATIBMgEyATIBMgEyBTAuMDAwBTAuMDAwBTAuMDAwBTAuMDAwBTAuMDAwBTAu
        MDAwBTAuMDAwBTAuMDAwBTAuMDAwBTAuMDAwBTAuMDAwBTAuMDAwBTAuMDAwBTAuMDAwBTAuMDAwBTAuMDAwBTAuMDAwBTAuMDAwBTAuMDAwBTAuMDAwBTAuMDAwBTAu
        MDAwBTAuMDAwBTAuMDAwBTAuMDAwBTAuMDAwBTAuMDAwBTAuMDAwBTAuMDAwBTAuMDAwBTAuMDAwBTAuMDAwBTAuMDAwBTAuMDAwBTAuMDAwBTAuMDAwBTAuMDAwBTAu
        MDAwBTAuMDAwBTAuMDAwBTAuMDAwBTAuMDAwBTAuMDAwBTAuMDAwBTAuMDAwBTAuMDAwBTAuMDAwBTAuMDAwBTAuMDAwBTAuMDAwBTAuMDAwBTAuMDAwBTAuMDAwBTAu
        MDAwBTAuMDAwBTAuMDAwBTAuMDAwBTAuMDAwBTAuMDAwBTAuMDAwBTAuMDAwBTAuMDAwBTAuMDAwBTAuMDAwBTAuMDAwBTAuMDAwBTAuMDAwBTAuMDAwBTAuMDAwBTAu
        MDAwBTAuMDAwBTAuMDAwBTAuMDAwBTAuMDAwBTAuMDAwBTAuMDAwBTAuMDAwBTAuMDAwBTAuMDAwBTAuMDAwBTAuMDAwBTAuMDAwBTAuMDAwBTAuMDAwBTAuMDAwBTAu
        MDAwBTAuMDAwBTAuMDAwBTAuMDAwBTAuMDAwBTAuMDAwBTAuMDAwBTAuMDAwBTAuMDAwBTAuMDAwBTAuMDAwBTAuMDAwBTAuMDAwBTAuMDAwBTAuMDAwBTAuMDAwBTAu
        MDAwBTAuMDAwBTAuMDAwBTAuMDAwBTAuMDAwBTAuMDAwBTAuMDAwBTAuMDAwBTAuMDAwBTAuMDAwBTAuMDAwBTAuMDAwBTAuMDAwBTAuMDAwBTAuMDAwBTAuMDAwBTAu
        MDAwBTAuMDAwBTAuMDAwBTAuMDAwBTAuMDAwBTAuMDAwBTAuMDAwBTAuMDAwBTAuMDAwBTAuMDAwBTAuMDAwBTAuMDAwBTAuMDAwBTAuMDAwBTAuMDAwBTAuMDAwBTAu
        MDAwBTAuMDAwBTAuMDAwBTAuMDAwBTAuMDAwBTAuMDAwBTAuMDAwBTAuMDAwBTAuMDAwBTAuMDAwBTAuMDAwBTAuMDAwBTAuMDAwBTAuMDAwBTAuMDAwBTAuMDAwBTAu
        MDAwBTAuMDAwBTAuMDAwBTAuMDAwBTAuMDAwBTAuMDAwBTAuMDAwBTAuMDAwBTAuMDAwBTAuMDAwBTAuMDAwBTAuMDAwBTAuMDAwBTAuMDAwBTAuMDAwBTAuMDAwBTAu
        MDAwBTAuMDAwBTAuMDAwBTAuMDAwBTAuMDAwBTAuMDAwBTAuMDAwBTAuMDAwBTAuMDAwBTAuMDAwBTAuMDAwBTAuMDAwBTAuMDAwBTAuMDAwBTAuMDAwBTAuMDAwBTAu
        MDAwBTAuMDAwBTAuMDAwBTAuMDAwBTAuMDAwBTAuMDAwBTAuMDAwBTAuMDAwBTAuMDAwBTAuMDAwBTAuMDAwBTAuMDAwBTAuMDAwBTAuMDAwBTAuMDAwBTAuMDAwBTAu
        MDAwBTAuMDAwBTAuMDAwBTAuMDAwBTAuMDAwBTAuMDAwBTAuMDAwBTAuMDAwBTAuMDAwBTAuMDAwBTAuMDAwBTAuMDAwBTAuMDAwBTAuMDAwBTAuMDAwBTAuMDAwBTAu
        MDAwBTAuMDAwBTAuMDAwBTAuMDAwBTAuMDAwBTAuMDAwBTAuMDAwBTAuMDAwBTAuMDAwBTAuMDAwBTAuMDAwBTAuMDAwBTAuMDAwBTAuMDAwBTAuMDAwBTAuMDAwBTAu
        MDAwBTAuMDAwBTAuMDAwBTAuMDAwBTAuMDAwBTAuMDAwBTAuMDAwBTAuMDAwBTAuMDAwBTAuMDAwBTAuMDAwBTAuMDAwBTAuMDAwBTAuMDAwBTAuMDAwBTAuMDAwBTAu
        MDAwBTAuMDAwBTAuMDAwBTAuMDAwBTAuMDAwBTAuMDAwBTAuMDAwBTAuMDAwBTAuMDAwBTAuMDAwBTAuMDAwBTAuMDAwBTAuMDAwBTAuMDAwBTAuMDAwBTAuMDAwBTAu
        MDAwBTAuMDAwBTAuMDAwBTAuMDAwBTAuMDAwBTAuMDAwBTAuMDAwBTAuMDAwBTAuMDAwBTAuMDAwBTAuMDAwBTAuMDAwBTAuMDAwBTAuMDAwBTAuMDAwBTAuMDAwBTAu
        MDAwBTAuMDAwBTAuMDAwBTAuMDAwBTAuMDAwBTAuMDAwBTAuMDAwBTAuMDAwBTAuMDAwBTAuMDAwBTAuMDAwBTAuMDAwBTAuMDAwBTAuMDAwBTAuMDAwBTAuMDAwBTAu
        MDAwBTAuMDAwBTAuMDAwBTAuMDAwBTAuMDAwBTAuMDAwBTAuMDAwBTAuMDAwBTAuMDAwBTAuMDAwBTAuMDAwBTAuMDAwBTAuMDAwBTAuMDAwBTAuMDAwBTAuMDAwBTAu
        MDAwBTAuMDAwBTAuMDAwBTAuMDAwBTAuMDAwBTAuMDAwBTAuMDAwBTAuMDAwBTAuMDAwBTAuMDAwBTAuMDAwBTAuMDAwBTAuMDAwBTAuMDAwBTAuMDAwBTAuMDAwBTAu
        MDAwBTAuMDAwBTAuMDAwBTAuMDAwBTAuMDAwBTAuMDAwBTAuMDAwBTAuMDAwBTAuMDAwBTAuMDAwBTAuMDAwBTAuMDAwBTAuMDAwBTAuMDAwBTAuMDAwBTAuMDAwBTAu
        MDAwBTAuMDAwBTAuMDAwBTAuMDAwBTAuMDAwBTAuMDAwBTAuMDAwBTAuMDAwBTAuMDAwBTAuMDAwBTAuMDAwBTAuMDAwBTAuMDAwBTAuMDAwBTAuMDAwBTAuMDAwBTAu
        MDAwBTAuMDAwBTAuMDAwBTAuMDAwBTAuMDAwBTAuMDAwBTAuMDAwBTAuMDAwBTAuMDAwBTAuMDAwBTAuMDAwBTAuMDAwBTAuMDAwBTAuMDAwBTAuMDAwBTAuMDAwBTAu
        MDAwBTAuMDAwBTAuMDAwBTAuMDAwBTAuMDAwBTAuMDAwBTAuMDAwBTAuMDAwBTAuMDAwBTAuMDAwBTAuMDAwBTAuMDAwBTAuMDAwBTAuMDAwBTAuMDAwBTAuMDAwBTAu
        MDAwBTAuMDAwBTAuMDAwBTAuMDAwBTAuMDAwBTAuMDAwBTAuMDAwBTAuMDAwBTAuMDAwBTAuMDAwBTAuMDAwBTAuMDAwBTAuMDAwBTAuMDAwBTAuMDAwBTAuMDAwBTAu
        MDAwBTAuMDAwBTAuMDAwBTAuMDAwBTAuMDAwBTAuMDAwBTAuMDAwBTAuMDAwBTAuMDAwBTAuMDAwBTAuMDAwBTAuMDAwBTAuMDAwBTAuMDAwBTAuMDAwBTAuMDAwBTAu
        MDAwBTAuMDAwBTAuMDAwBTAuMDAwBTAuMDAwBTAuMDAwBTAuMDAwBTAuMDAwBTAuMDAwBTAuMDAwBTAuMDAwBTAuMDAwBTAuMDAwBTAuMDAwBTAuMDAwBTAuMDAwBTAu
        MDAwBTAuMDAwBTAuMDAwBTAuMDAwBTAuMDAwBTAuMDAwBTAuMDAwBTAuMDAwBTAuMDAwBTAuMDAwBTAuMDAwBTAuMDAwBTAuMDAwBTAuMDAwBTAuMDAwBTAuMDAwBTAu
        MDAwBTAuMDAwBTAuMDAwBTAuMDAwBTAuMDAwBTAuMDAwBTAuMDAwBTAuMDAwBTAuMDAwBTAuMDAwBTAuMDAwBTAuMDAwBTAuMDAwBTAuMDAwBTAuMDAwBTAuMDAwBTAu
        MDAwBTAuMDAwBTAuMDAwBTAuMDAwBTAuMDAwBTAuMDAwBTAuMDAwBTAuMDAwBTAuMDAwBTAuMDAwBTAuMDAwBTAuMDAwBTAuMDAwBTAuMDAwBTAuMDAwBTAuMDAwBTAu
        MDAwBTAuMDAwBTAuMDAwBTAuMDAwBTAuMDAwBTAuMDAwBTAuMDAwBTAuMDAwBTAuMDAwBTAuMDAwBTAuMDAwBTAuMDAwBTAuMDAwBTAuMDAwBTAuMDAwBTAuMDAwBTAu
        MDAwBTAuMDAwBTAuMDAwBTAuMDAwBTAuMDAwBTAuMDAwBTAuMDAwBTAuMDAwBTAuMDAwBTAuMDAwBTAuMDAwBTAuMDAwBTAuMDAwBTAuMDAwBTAuMDAwBTAuMDAwBTAu
        MDAwBTAuMDAwBTAuMDAwBTAuMDAwBTAuMDAwBTAuMDAwBTAuMDAwBTAuMDAwBTAuMDAwBTAuMDAwBTAuMDAwBTAuMDAwBTAuMDAwBTAuMDAwBTAuMDAwBTAuMDAwBTAu
        MDAwBTAuMDAwBTAuMDAwBTAuMDAwBTAuMDAwBTAuMDAwBTAuMDAwBTAuMDAwBTAuMDAwBTAuMDAwBTAuMDAwBTAuMDAwBTAuMDAwBTAuMDAwBTAuMDAwBTAuMDAwBTAu
        MDAwBTAuMDAwBTAuMDAwBTAuMDAwBTAuMDAwBTAuMDAwBTAuMDAwBTAuMDAwBTAuMDAwBTAuMDAwBTAuMDAwBTAuMDAwBTAuMDAwBTAuMDAwBTAuMDAwBTAuMDAwBTAu
        MDAwBTAuMDAwBTAuMDAwBTAuMDAwBTAuMDAwBTAuMDAwBTAuMDAwBTAuMDAwBTAuMDAwBTAuMDAwBTAuMDAwBTAuMDAwBTAuMDAwBTAuMDAwBTAuMDAwBTAuMDAwBTAu
        MDAwBTAuMDAwBTAuMDAwBTAuMDAwBTAuMDAwBTAuMDAwBTAuMDAwBTAuMDAwBTAuMDAwBTAuMDAwBTAuMDAwBTAuMDAwBTAuMDAwBTAuMDAwBTAuMDAwBTAuMDAwBTAu
        MDAwBTAuMDAwBTAuMDAwBTAuMDAwBTAuMDAwBTAuMDAwBTAuMDAwBTAuMDAwBTAuMDAwBTAuMDAwBTAuMDAwBTAuMDAwBTAuMDAwBTAuMDAwBTAuMDAwBTAuMDAwBTAu
        MDAwBTAuMDAwBTAuMDAwBTAuMDAwBTAuMDAwBTAuMDAwBTAuMDAwBTAuMDAwBTAuMDAwBTAuMDAwBTAuMDAwBTAuMDAwBTAuMDAwBTAuMDAwBTAuMDAwBTAuMDAwBTAu
        MDAwBTAuMDAwBTAuMDAwBTAuMDAwBTAuMDAwBTAuMDAwBTAuMDAwBTAuMDAwBTAuMDAwBTAuMDAwBTAuMDAwBTAuMDAwBTAuMDAwBTAuMDAwBTAuMDAwBTAuMDAwBTAu
        MDAwBTAuMDAwBTAuMDAwBTAuMDAwBTAuMDAwBTAuMDAwBTAuMDAwBTAuMDAwBTAuMDAwBTAuMDAwBTAuMDAwBTAuMDAwBTAuMDAwBTAuMDAwBTAuMDAwBTAuMDAwBTAu
        MDAwBTAuMDAwBTAuMDAwBTAuMDAwBTAuMDAwBTAuMDAwBTAuMDAwBTAuMDAwBTAuMDAwBTAuMDAwBTAuMDAwBTAuMDAwBTAuMDAwBTAuMDAwBTAuMDAwBTAuMDAwBTAu
        MDAwBTAuMDAwBTAuMDAwBTAuMDAwBTAuMDAwBTAuMDAwBTAuMDAwBTAuMDAwBTAuMDAwBTAuMDAwBTAuMDAwBTAuMDAwBTAuMDAwBTAuMDAwBTAuMDAwBTAuMDAwBTAu
        MDAwBTAuMDAwBTAuMDAwBTAuMDAwBTAuMDAwBTAuMDAwBTAuMDAwBTAuMDAwBTAuMDAwBTAuMDAwBTAuMDAwBTAuMDAwBTAuMDAwBTAuMDAwBTAuMDAwBTAuMDAwBTAu
        MDAwBTAuMDAwBTAuMDAwBTAuMDAwBTAuMDAwBTAuMDAwBTAuMDAwBTAuMDAwBTAuMDAwBTAuMDAwBTAuMDAwBTAuMDAwBTAuMDAwBTAuMDAwBTAuMDAwBTAuMDAwBTAu
        MDAwBTAuMDAwBTAuMDAwBTAuMDAwBTAuMDAwBTAuMDAwBTAuMDAwBTAuMDAwBTAuMDAwBTAuMDAwBTAuMDAwBTAuMDAwBTAuMDAwBTAuMDAwBTAuMDAwBTAuMDAwBTAu
        MDAwBTAuMDAwBTAuMDAwBTAuMDAwBTAuMDAwBTAuMDAwBTAuMDAwBTAuMDAwBTAuMDAwBTAuMDAwBTAuMDAwBTAuMDAwBTAuMDAwBTAuMDAwBTAuMDAwBTAuMDAwBTAu
        MDAwBTAuMDAwBTAuMDAwBTAuMDAwBTAuMDAwBTAuMDAwBTAuMDAwBTAuMDAwBTAuMDAwBTAuMDAwBTAuMDAwBTAuMDAwBTAuMDAwBTAuMDAwBTAuMDAwBTAuMDAwBTAu
        MDAwBTAuMDAwBTAuMDAwBTAuMDAwBTAuMDAwBTAuMDAwBTAuMDAwBTAuMDAwBTAuMDAwBTAuMDAwBTAuMDAwBTAuMDAwBTAuMDAwBTAuMDAwBTAuMDAwBTAuMDAwBTAu
        MDAwBTAuMDAwBTAuMDAwBTAuMDAwBTAuMDAwBTAuMDAwBTAuMDAwBTAuMDAwBTAuMDAwBTAuMDAwBTAuMDAwBTAuMDAwBTAuMDAwBTAuMDAwBTAuMDAwBTAuMDAwBTAu
        MDAwBTAuMDAwBTAuMDAwBTAuMDAwBTAuMDAwBTAuMDAwBTAuMDAwBTAuMDAwBTAuMDAwBTAuMDAwBTAuMDAwBTAuMDAwBTAuMDAwBTAuMDAwBTAuMDAwBTAuMDAwBTAu
        MDAwBTAuMDAwBTAuMDAwBTAuMDAwBTAuMDAwBTAuMDAwBTAuMDAwBTAuMDAwBTAuMDAwBTAuMDAwBTAuMDAwBTAuMDAwBTAuMDAwBTAuMDAwBTAuMDAwBTAuMDAwBTAu
        MDAwBTAuMDAwBTAuMDAwBTAuMDAwBTAuMDAwBTAuMDAwBTAuMDAwBTAuMDAwBTAuMDAwBTAuMDAwBTAuMDAwBTAuMDAwBTAuMDAwBTAuMDAwBTAuMDAwBTAuMDAwBTAu
        MDAwBTAuMDAwBTAuMDAwBTAuMDAwBTAuMDAwBTAuMDAwBTAuMDAwBTAuMDAwBTAuMDAwBTAuMDAwBTAuMDAwBTAuMDAwBTAuMDAwBTAuMDAwBTAuMDAwBTAuMDAwBTAu
        MDAwBTAuMDAwBTAuMDAwBTAuMDAwBTAuMDAwBTAuMDAwBTAuMDAwBTAuMDAwBTAuMDAwBTAuMDAwBTAuMDAwBTAuMDAwBTAuMDAwBTAuMDAwBTAuMDAwBTAuMDAwBTAu
        MDAwBTAuMDAwBTAuMDAwBTAuMDAwBTAuMDAwBTAuMDAwBTAuMDAwBTAuMDAwBTAuMDAwBTAuMDAwBTAuMDAwBTAuMDAwBTAuMDAwBTAuMDAwBTAuMDAwBTAuMDAwBTAu
        MDAwBTAuMDAwBTAuMDAwBTAuMDAwBTAuMDAwBTAuMDAwBTAuMDAwBTAuMDAwBTAuMDAwBTAuMDAwBTAuMDAwBTAuMDAwBTAuMDAwBTAuMDAwBTAuMDAwBTAuMDAwBTAu
        MDAwBTAuMDAwBTAuMDAwBTAuMDAwBTAuMDAwBTAuMDAwBTAuMDAwBTAuMDAwBTAuMDAwBTAuMDAwBTAuMDAwBTAuMDAwBTAuMDAwBTAuMDAwBTAuMDAwBTAuMDAwBTAu
        MDAwBTAuMDAwBTAuMDAwBTAuMDAwBTAuMDAwBTAuMDAwBTAuMDAwBTAuMDAwBTAuMDAwBTAuMDAwBTAuMDAwBTAuMDAwBTAuMDAwBTAuMDAwBTAuMDAwBTAuMDAwBTAu
        MDAwBTAuMDAwBTAuMDAwBTAuMDAwBTAuMDAwBTAuMDAwBTAuMDAwBTAuMDAwBTAuMDAwBTAuMDAwBTAuMDAwBTAuMDAwBTAuMDAwBTAuMDAwBTAuMDAwBTAuMDAwBTAu
        MDAwBTAuMDAwBTAuMDAwBTAuMDAwBTAuMDAwBTAuMDAwBTAuMDAwBTAuMDAwBTAuMDAwBTAuMDAwBTAuMDAwBTAuMDAwBTAuMDAwBTAuMDAwBTAuMDAwBTAuMDAwBTAu
        MDAwBTAuMDAwBTAuMDAwBTAuMDAwBTAuMDAwBTAuMDAwBTAuMDAwBTAuMDAwBTAuMDAwBTAuMDAwBTAuMDAwBTAuMDAwBTAuMDAwBTAuMDAwBTAuMDAwBTAuMDAwBTAu
        MDAwBTAuMDAwBTAuMDAwBTAuMDAwBTAuMDAwBTAuMDAwBTAuMDAwBTAuMDAwBTAuMDAwBTAuMDAwBTAuMDAwBTAuMDAwBTAuMDAwBTAuMDAwBTAuMDAwBTAuMDAwBTAu
        MDAwBTAuMDAwBTAuMDAwBTAuMDAwBTAuMDAwBTAuMDAwBTAuMDAwBTAuMDAwBTAuMDAwBTAuMDAwBTAuMDAwBTAuMDAwBTAuMDAwBTAuMDAwBTAuMDAwBTAuMDAwBTAu
        MDAwBTAuMDAwBTAuMDAwBTAuMDAwBTAuMDAwBTAuMDAwBTAuMDAwBTAuMDAwBTAuMDAwBTAuMDAwBTAuMDAwBTAuMDAwBTAuMDAwBTAuMDAwBTAuMDAwBTAuMDAwBTAu
        MDAwBTAuMDAwBTAuMDAwBTAuMDAwBTAuMDAwBTAuMDAwBTAuMDAwBTAuMDAwBTAuMDAwBTAuMDAwBTAuMDAwBTAuMDAwBTAuMDAwBTAuMDAwBTAuMDAwBTAuMDAwBTAu
        MDAwBTAuMDAwBTAuMDAwBTAuMDAwBTAuMDAwBTAuMDAwBTAuMDAwBTAuMDAwBTAuMDAwBTAuMDAwBTAuMDAwBTAuMDAwBTAuMDAwBTAuMDAwBTAuMDAwBTAuMDAwBTAu
        MDAwBTAuMDAwBTAuMDAwBTAuMDAwBTAuMDAwBTAuMDAwBTAuMDAwBTAuMDAwBTAuMDAwBTAuMDAwBTAuMDAwBTAuMDAwBTAuMDAwBTAuMDAwBTAuMDAwBTAuMDAwBTAu
        MDAwBTAuMDAwBTAuMDAwBTAuMDAwBTAuMDAwBTAuMDAwBTAuMDAwBTAuMDAwBTAuMDAwBTAuMDAwBTAuMDAwBTAuMDAwBTAuMDAwBTAuMDAwBTAuMDAwBTAuMDAwBTAu
        MDAwBTAuMDAwBTAuMDAwBTAuMDAwBTAuMDAwBTAuMDAwBTAuMDAwBTAuMDAwBTAuMDAwBTAuMDAwBTAuMDAwBTAuMDAwBTAuMDAwBTAuMDAwBTAuMDAwBTAuMDAwBTAu
        MDAwBTAuMDAwBTAuMDAwBTAuMDAwBTAuMDAwBTAuMDAwBTAuMDAwBTAuMDAwBTAuMDAwBTAuMDAwBTAuMDAwBTAuMDAwBTAuMDAwBTAuMDAwBTAuMDAwBTAuMDAwBTAu
        MDAwBTAuMDAwBTAuMDAwBTAuMDAwBTAuMDAwBTAuMDAwBTAuMDAwBTAuMDAwBTAuMDAwBTAuMDAwBTAuMDAwBTAuMDAwBTAuMDAwBTAuMDAwBTAuMDAwBTAuMDAwBTAu
        MDAwBTAuMDAwBTAuMDAwBTAuMDAwBTAuMDAwBTAuMDAwBTAuMDAwBTAuMDAwBTAuMDAwBTAuMDAwBTAuMDAwBTAuMDAwBTAuMDAwBTAuMDAwBTAuMDAwBTAuMDAwBTAu
        MDAwBTAuMDAwBTAuMDAwBTAuMDAwBTAuMDAwBTAuMDAwBTAuMDAwBTAuMDAwBTAuMDAwBTAuMDAwBTAuMDAwBTAuMDAwBTAuMDAwBTAuMDAwBTAuMDAwBTAuMDAwBTAu
        MDAwBTAuMDAwBTAuMDAwBTAuMDAwBTAuMDAwBTAuMDAwBTAuMDAwBTAuMDAwBTAuMDAwBTAuMDAwBTAuMDAwBTAuMDAwBTAuMDAwBTAuMDAwBTAuMDAwBTAuMDAwBTAu
        MDAwBTAuMDAwBTAuMDAwBTAuMDAwBTAuMDAwBTAuMDAwBTAuMDAwBTAuMDAwBTAuMDAwBTAuMDAwBTAuMDAwBTAuMDAwBTAuMDAwBTAuMDAwBTAuMDAwBTAuMDAwBTAu
        MDAwBTAuMDAwBTAuMDAwBTAuMDAwBTAuMDAwBTAuMDAwBTAuMDAwBTAuMDAwBTAuMDAwBTAuMDAwBTAuMDAwBTAuMDAwBTAuMDAwBTAuMDAwBTAuMDAwBTAuMDAwBTAu
        MDAwBTAuMDAwBTAuMDAwBTAuMDAwBTAuMDAwBTAuMDAwBTAuMDAwBTAuMDAwBTAuMDAwBTAuMDAwBTAuMDAwBTAuMDAwBTAuMDAwBTAuMDAwBTAuMDAwBTAuMDAwBTAu
        MDAwBTAuMDAwBTAuMDAwBTAuMDAwBTAuMDAwBTAuMDAwBTAuMDAwBTAuMDAwBTAuMDAwBTAuMDAwBTAuMDAwBTAuMDAwBTAuMDAwBTAuMDAwBTAuMDAwBTAuMDAwBTAu
        MDAwBTAuMDAwBTAuMDAwBTAuMDAwBTAuMDAwBTAuMDAwBTAuMDAwBTAuMDAwBTAuMDAwBTAuMDAwBTAuMDAwBTAuMDAwBTAuMDAwBTAuMDAwBTAuMDAwBTAuMDAwBTAu
        MDAwBTAuMDAwBTAuMDAwBTAuMDAwBTAuMDAwBTAuMDAwBTAuMDAwBTAuMDAwBTAuMDAwBTAuMDAwBTAuMDAwBTAuMDAwBTAuMDAwBTAuMDAwBTAuMDAwBTAuMDAwBTAu
        MDAwBTAuMDAwBTAuMDAwBTAuMDAwBTAuMDAwBTAuMDAwBTAuMDAwBTAuMDAwBTAuMDAwBTAuMDAwBTAuMDAwBTAuMDAwBTAuMDAwBTAuMDAwBTAuMDAwBTAuMDAwBTAu
        MDAwBTAuMDAwBTAuMDAwBTAuMDAwBTAuMDAwBTAuMDAwBTAuMDAwBTAuMDAwBTAuMDAwBTAuMDAwBTAuMDAwBTAuMDAwBTAuMDAwBTAuMDAwBTAuMDAwBTAuMDAwBTAu
        MDAwBTAuMDAwBTAuMDAwBTAuMDAwBTAuMDAwBTAuMDAwBTAuMDAwBTAuMDAwBTAuMDAwBTAuMDAwBTAuMDAwBTAuMDAwBTAuMDAwBTAuMDAwBTAuMDAwBTAuMDAwBTAu
        MDAwBTAuMDAwBTAuMDAwBTAuMDAwBTAuMDAwBTAuMDAwBTAuMDAwBTAuMDAwBTAuMDAwBTAuMDAwBTAuMDAwBTAuMDAwBTAuMDAwBTAuMDAwBTAuMDAwBTAuMDAwBTAu
        MDAwBTAuMDAwBTAuMDAwBTAuMDAwBTAuMDAwBTAuMDAwBTAuMDAwBTAuMDAwBTAuMDAwBTAuMDAwBTAuMDAwBTAuMDAwBTAuMDAwBTAuMDAwBTAuMDAwBTAuMDAwBTAu
        MDAwBTAuMDAwBTAuMDAwBTAuMDAwBTAuMDAwBTAuMDAwBTAuMDAwBTAuMDAwBTAuMDAwBTAuMDAwBTAuMDAwBTAuMDAwBTAuMDAwBTAuMDAwBTAuMDAwBTAuMDAwBTAu
        MDAwBTAuMDAwBTAuMDAwBTAuMDAwBTAuMDAwBTAuMDAwBTAuMDAwBTAuMDAwBTAuMDAwBTAuMDAwBTAuMDAwBTAuMDAwBTAuMDAwBTAuMDAwBTAuMDAwBTAuMDAwBTAu
        MDAwBTAuMDAwBTAuMDAwBTAuMDAwBTAuMDAwBTAuMDAwBTAuMDAwBTAuMDAwBTAuMDAwBTAuMDAwBTAuMDAwBTAuMDAwBTAuMDAwBTAuMDAwBTAuMDAwBTAuMDAwBTAu
        MDAwBTAuMDAwBTAuMDAwBTAuMDAwBTAuMDAwBTAuMDAwBTAuMDAwBTAuMDAwBTAuMDAwBTAuMDAwBTAuMDAwBTAuMDAwBTAuMDAwBTAuMDAwBTAuMDAwBTAuMDAwBTAu
        MDAwBTAuMDAwBTAuMDAwBTAuMDAwBTAuMDAwBTAuMDAwBTAuMDAwBTAuMDAwBTAuMDAwBTAuMDAwBTAuMDAwBTAuMDAwBTAuMDAwBTAuMDAwBTAuMDAwBTAuMDAwBTAu
        MDAwBTAuMDAwBTAuMDAwBTAuMDAwBTAuMDAwBTAuMDAwBTAuMDAwBTAuMDAwBTAuMDAwBTAuMDAwBTAuMDAwBTAuMDAwBTAuMDAwBTAuMDAwBTAuMDAwBTAuMDAwBTAu
        MDAwBTAuMDAwBTAuMDAwBTAuMDAwBTAuMDAwBTAuMDAwBTAuMDAwBTAuMDAwBTAuMDAwBTAuMDAwBTAuMDAwBTAuMDAwBTAuMDAwBTAuMDAwBTAuMDAwBTAuMDAwBTAu
        MDAwBTAuMDAwBTAuMDAwBTAuMDAwBTAuMDAwBTAuMDAwBTAuMDAwBTAuMDAwBTAuMDAwBTAuMDAwBTAuMDAwBTAuMDAwBTAuMDAwBTAuMDAwBTAuMDAwBTAuMDAwBTAu
        MDAwBTAuMDAwBTAuMDAwBTAuMDAwBTAuMDAwBTAuMDAwBTAuMDAwBTAuMDAwBTAuMDAwBTAuMDAwBTAuMDAwBTAuMDAwBTAuMDAwBTAuMDAwBTAuMDAwBTAuMDAwBTAu
        MDAwBTAuMDAwBTAuMDAwBTAuMDAwBTAuMDAwBTAuMDAwBTAuMDAwBTAuMDAwBTAuMDAwBTAuMDAwBTAuMDAwBTAuMDAwBTAuMDAwBTAuMDAwBTAuMDAwBTAuMDAwBTAu
        MDAwBTAuMDAwBTAuMDAwBTAuMDAwBTAuMDAwBTAuMDAwBTAuMDAwBTAuMDAwBTAuMDAwBTAuMDAwBTAuMDAwBTAuMDAwBTAuMDAwBTAuMDAwBTAuMDAwBTAuMDAwBTAu
        MDAwBTAuMDAwBTAuMDAwBTAuMDAwBTAuMDAwBTAuMDAwBTAuMDAwBTAuMDAwBTAuMDAwBTAuMDAwBTAuMDAwBTAuMDAwBTAuMDAwBTAuMDAwBTAuMDAwBTAuMDAwBTAu
        MDAwBTAuMDAwBTAuMDAwBTAuMDAwBTAuMDAwBTAuMDAwBTAuMDAwBTAuMDAwBTAuMDAwBTAuMDAwBTAuMDAwBTAuMDAwBTAuMDAwBTAuMDAwBTAuMDAwBTAuMDAwBTAu
        MDAwBTAuMDAwBTAuMDAwBTAuMDAwBTAuMDAwBTAuMDAwBTAuMDAwBTAuMDAwBTAuMDAwBTAuMDAwBTAuMDAwBTAuMDAwBTAuMDAwBTAuMDAwBTAuMDAwBTAuMDAwBTAu
        MDAwBTAuMDAwBTAuMDAwBTAuMDAwBTAuMDAwBTAuMDAwBTAuMDAwBTAuMDAwBTAuMDAwBTAuMDAwBTAuMDAwBTAuMDAwBTAuMDAwBTAuMDAwBTAuMDAwBTAuMDAwBTAu
        MDAwBTAuMDAwBTAuMDAwBTAuMDAwBTAuMDAwBTAuMDAwBTAuMDAwBTAuMDAwBTAuMDAwBTAuMDAwBTAuMDAwBTAuMDAwBTAuMDAwBTAuMDAwBTAuMDAwBTAuMDAwBTAu
        MDAwBTAuMDAwBTAuMDAwBTAuMDAwBTAuMDAwBTAuMDAwBTAuMDAwBTAuMDAwBTAuMDAwBTAuMDAwBTAuMDAwBTAuMDAwBTAuMDAwBTAuMDAwBTAuMDAwBTAuMDAwBTAu
        MDAwBTAuMDAwBTAuMDAwBTAuMDAwBTAuMDAwBTAuMDAwBTAuMDAwBTAuMDAwBTAuMDAwBTAuMDAwBTAuMDAwBTAuMDAwBTAuMDAwBTAuMDAwBTAuMDAwBTAuMDAwBTAu
        MDAwBTAuMDAwBTAuMDAwBTAuMDAwBTAuMDAwBTAuMDAwBTAuMDAwBTAuMDAwBTAuMDAwBTAuMDAwBTAuMDAwBTAuMDAwBTAuMDAwBTAuMDAwBTAuMDAwBTAuMDAwBTAu
        MDAwBTAuMDAwBTAuMDAwBTAuMDAwBTAuMDAwBTAuMDAwBTAuMDAwBTAuMDAwBTAuMDAwBTAuMDAwBTAuMDAwBTAuMDAwBTAuMDAwBTAuMDAwBTAuMDAwBTAuMDAwBTAu
        MDAwBTAuMDAwBTAuMDAwBTAuMDAwBTAuMDAwBTAuMDAwBTAuMDAwBTAuMDAwBTAuMDAwBTAuMDAwBTAuMDAwBTAuMDAwBTAuMDAwBTAuMDAwBTAuMDAwBTAuMDAwBTAu
        MDAwBTAuMDAwBTAuMDAwBTAuMDAwBTAuMDAwBTAuMDAwBTAuMDAwBTAuMDAwBTAuMDAwBTAuMDAwBTAuMDAwBTAuMDAwBTAuMDAwBTAuMDAwBTAuMDAwBTAuMDAwBTAu
        MDAwBTAuMDAwBTAuMDAwBTAuMDAwBTAuMDAwBTAuMDAwBTAuMDAwBTAuMDAwBTAuMDAwBTAuMDAwBTAuMDAwBTAuMDAwBTAuMDAwBTAuMDAwBTAuMDAwBTAuMDAwBTAu
        MDAwBTAuMDAwBTAuMDAwBTAuMDAwBTAuMDAwBTAuMDAwBTAuMDAwBTAuMDAwBTAuMDAwBTAuMDAwBTAuMDAwBTAuMDAwBTAuMDAwBTAuMDAwBTAuMDAwBTAuMDAwBTAu
        MDAwBTAuMDAwBTAuMDAwBTAuMDAwBTAuMDAwBTAuMDAwBTAuMDAwBTAuMDAwBTAuMDAwBTAuMDAwBTAuMDAwBTAuMDAwBTAuMDAwBTAuMDAwBTAuMDAwBTAuMDAwBTAu
        MDAwBTAuMDAwBTAuMDAwBTAuMDAwBTAuMDAwBTAuMDAwBTAuMDAwBTAuMDAwBTAuMDAwBTAuMDAwBTAuMDAwBDEuMDAEMS4wMAQxLjAwBDEuMDAEMS4wMAQxLjAwBDEu
        MDAEMS4wMAQxLjAwBDEuMDAEMS4wMAQxLjAwBDEuMDAEMS4wMAQxLjAwBDEuMDAEMS4wMAQxLjAwBDEuMDAEMS4wMAQxLjAwBDEuMDAEMS4wMAQxLjAwBDEuMDAEMS4w
        MAQxLjAwBDEuMDAEMS4wMAQxLjAwBDEuMDAEMS4wMAQxLjAwBDEuMDAEMS4wMAQxLjAwBDEuMDAEMS4wMAQxLjAwBDEuMDAEMS4wMAQxLjAwBDEuMDAEMS4wMAQxLjAw
        BDEuMDAEMS4wMAQxLjAwBDEuMDAEMS4wMAQxLjAwBDEuMDAEMS4wMAQxLjAwBDEuMDAEMS4wMAQxLjAwBDEuMDAEMS4wMAQxLjAwBDEuMDAEMS4wMAQxLjAwBDEuMDAE
        MS4wMAQxLjAwBDEuMDAEMS4wMAQxLjAwBDEuMDAEMS4wMAQxLjAwBDEuMDAEMS4wMAQxLjAwBDEuMDAEMS4wMAQxLjAwBDEuMDAEMS4wMAQxLjAwBDEuMDAEMS4wMAQx
        LjAwBDEuMDAEMS4wMAQxLjAwBDEuMDAEMS4wMAQxLjAwBDEuMDAEMS4wMAQxLjAwBDEuMDAEMS4wMAQxLjAwBDEuMDAEMS4wMAQxLjAwBDEuMDAEMS4wMAQxLjAwBDEu
        MDAEMS4wMAQxLjAwBDEuMDAEMS4wMAQxLjAwBDEuMDAEMS4wMAQxLjAwBDEuMDAEMS4wMAQxLjAwBDEuMDAEMS4wMAQxLjAwBDEuMDAEMS4wMAQxLjAwBDEuMDAEMS4w
        MAQxLjAwBDEuMDAEMS4wMAQxLjAwBDEuMDAEMS4wMAUwLjAwMAUwLjAwMAUwLjAwMAUwLjAwMAUwLjAwMAUwLjAwMAUwLjAwMAUwLjAwMAUwLjAwMAUwLjAwMAUwLjAw
        MAUwLjAwMAUwLjAwMAUwLjAwMAUwLjAwMAUwLjAwMAUwLjAwMAUwLjAwMAUwLjAwMAUwLjAwMAUwLjAwMAUwLjAwMAUwLjAwMAUwLjAwMAUwLjAwMAUwLjAwMAUwLjAw
        MAUwLjAwMAUwLjAwMAUwLjAwMAUwLjAwMAUwLjAwMAUwLjAwMAUwLjAwMAUwLjAwMAUwLjAwMAUwLjAwMAUwLjAwMAUwLjAwMAUwLjAwMAUwLjAwMAUwLjAwMAUwLjAw
        MAUwLjAwMAUwLjAwMAUwLjAwMAUwLjAwMAUwLjAwMAUwLjAwMAUwLjAwMAUwLjAwMAUwLjAwMAUwLjAwMAUwLjAwMAUwLjAwMAUwLjAwMAUwLjAwMAUwLjAwMAUwLjAw
        MAUwLjAwMAUwLjAwMAUwLjAwMAUwLjAwMAUwLjAwMAUwLjAwMAUwLjAwMAUwLjAwMAUwLjAwMAUwLjAwMAUwLjAwMAUwLjAwMAUwLjAwMAUwLjAwMAUwLjAwMAUwLjAw
        MAUwLjAwMAUwLjAwMAUwLjAwMAUwLjAwMAUwLjAwMAUwLjAwMAUwLjAwMAUwLjAwMAUwLjAwMAUwLjAwMAUwLjAwMAUwLjAwMAUwLjAwMAUwLjAwMAUwLjAwMAUwLjAw
        MAUwLjAwMAUwLjAwMAUwLjAwMAUwLjAwMAUwLjAwMAUwLjAwMAUwLjAwMAUwLjAwMAUwLjAwMAUwLjAwMAUwLjAwMAUwLjAwMAUwLjAwMAUwLjAwMAUwLjAwMAUwLjAw
        MAUwLjAwMAUwLjAwMAUwLjAwMAUwLjAwMAUwLjAwMAUwLjAwMAUwLjAwMAUwLjAwMAUwLjAwMAUwLjAwMAUwLjAwMAUwLjAwMAUwLjAwMAUwLjAwMAUwLjAwMAUwLjAw
        MAUwLjAwMAUwLjAwMAUwLjAwMAUwLjAwMAUwLjAwMAUwLjAwMAUwLjAwMAUwLjAwMAUwLjAwMAUwLjAwMAUwLjAwMAUwLjAwMAUwLjAwMAUwLjAwMAUwLjAwMAUwLjAw
        MAUwLjAwMAUwLjAwMAUwLjAwMAUwLjAwMAUwLjAwMAUwLjAwMAUwLjAwMAUwLjAwMAUwLjAwMAUwLjAwMAUwLjAwMAUwLjAwMAUwLjAwMAUwLjAwMAUwLjAwMAUwLjAw
        MAUwLjAwMAUwLjAwMAUwLjAwMAUwLjAwMAUwLjAwMAUwLjAwMAUwLjAwMAUwLjAwMAUwLjAwMAUwLjAwMAUwLjAwMAUwLjAwMAUwLjAwMAUwLjAwMAUwLjAwMAUwLjAw
        MAUwLjAwMAUwLjAwMAUwLjAwMAUwLjAwMAUwLjAwMAUwLjAwMAUwLjAwMAUwLjAwMAUwLjAwMAUwLjAwMAUwLjAwMAUwLjAwMAUwLjAwMAUwLjAwMAUwLjAwMAUwLjAw
        MAUwLjAwMAUwLjAwMAUwLjAwMAUwLjAwMAUwLjAwMAUwLjAwMAUwLjAwMAUwLjAwMAUwLjAwMAUwLjAwMAUwLjAwMAUwLjAwMAUwLjAwMAUwLjAwMAUwLjAwMAUwLjAw
        MAUwLjAwMAUwLjAwMAUwLjAwMAUwLjAwMAUwLjAwMAUwLjAwMAUwLjAwMAUwLjAwMAUwLjAwMAUwLjAwMAUwLjAwMAUwLjAwMAUwLjAwMAUwLjAwMAUwLjAwMAUwLjAw
        MAUwLjAwMAUwLjAwMAUwLjAwMAUwLjAwMAUwLjAwMAUwLjAwMAUwLjAwMAUwLjAwMAUwLjAwMAUwLjAwMAUwLjAwMAUwLjAwMAUwLjAwMAUwLjAwMAUwLjAwMAUwLjAw
        MAUwLjAwMAUwLjAwMAUwLjAwMAUwLjAwMAUwLjAwMAUwLjAwMAUwLjAwMAUwLjAwMAUwLjAwMAUwLjAwMAUwLjAwMAUwLjAwMAUwLjAwMAUwLjAwMAUwLjAwMAUwLjAw
        MAUwLjAwMAUwLjAwMAUwLjAwMAUwLjAwMAUwLjAwMAUwLjAwMAUwLjAwMAUwLjAwMAUwLjAwMAUwLjAwMAUwLjAwMAUwLjAwMAUwLjAwMAUwLjAwMAUwLjAwMAUwLjAw
        MAUwLjAwMAUwLjAwMAUwLjAwMAUwLjAwMAUwLjAwMAUwLjAwMAUwLjAwMAUwLjAwMAUwLjAwMAUwLjAwMAUwLjAwMAUwLjAwMAUwLjAwMAUwLjAwMAUwLjAwMAUwLjAw
        MAUwLjAwMAUwLjAwMAUwLjAwMAUwLjAwMAUwLjAwMAUwLjAwMAUwLjAwMAUwLjAwMAUwLjAwMAUwLjAwMAUwLjAwMAUwLjAwMAUwLjAwMAUwLjAwMAUwLjAwMAUwLjAw
        MAUwLjAwMAUwLjAwMAUwLjAwMAUwLjAwMAUwLjAwMAUwLjAwMAUwLjAwMAUwLjAwMAUwLjAwMAUwLjAwMAUwLjAwMAUwLjAwMAUwLjAwMAUwLjAwMAUwLjAwMAUwLjAw
        MAUwLjAwMAUwLjAwMAUwLjAwMAUwLjAwMAUwLjAwMAUwLjAwMAUwLjAwMAUwLjAwMAUwLjAwMAUwLjAwMAUwLjAwMAUwLjAwMAUwLjAwMAUwLjAwMAUwLjAwMAUwLjAw
        MAUwLjAwMAUwLjAwMAUwLjAwMAUwLjAwMAUwLjAwMAUwLjAwMAUwLjAwMAUwLjAwMAUwLjAwMAUwLjAwMAUwLjAwMAUwLjAwMAUwLjAwMAUwLjAwMAUwLjAwMAUwLjAw
        MAUwLjAwMAUwLjAwMAUwLjAwMAUwLjAwMAUwLjAwMAUwLjAwMAUwLjAwMAUwLjAwMAUwLjAwMAUwLjAwMAUwLjAwMAUwLjAwMAUwLjAwMAUwLjAwMAUwLjAwMAUwLjAw
        MAUwLjAwMAUwLjAwMAUwLjAwMAUwLjAwMAUwLjAwMAUwLjAwMAUwLjAwMAUwLjAwMAUwLjAwMAUwLjAwMAUwLjAwMAUwLjAwMAUwLjAwMAUwLjAwMAUwLjAwMAUwLjAw
        MAUwLjAwMAUwLjAwMAUwLjAwMAUwLjAwMAUwLjAwMAUwLjAwMAUwLjAwMAUwLjAwMAUwLjAwMAUwLjAwMAUwLjAwMAUwLjAwMAUwLjAwMAUwLjAwMAUwLjAwMAUwLjAw
        MAUwLjAwMAUwLjAwMAUwLjAwMAUwLjAwMAUwLjAwMAUwLjAwMAUwLjAwMAUwLjAwMAUwLjAwMAUwLjAwMAUwLjAwMAUwLjAwMAUwLjAwMAUwLjAwMAUwLjAwMAUwLjAw
        MAUwLjAwMAUwLjAwMAUwLjAwMAUwLjAwMAUwLjAwMAUwLjAwMAUwLjAwMAUwLjAwMAUwLjAwMAUwLjAwMAUwLjAwMAUwLjAwMAUwLjAwMAUwLjAwMAUwLjAwMAUwLjAw
        MAUwLjAwMAUwLjAwMAUwLjAwMAUwLjAwMAUwLjAwMAUwLjAwMAUwLjAwMAUwLjAwMAUwLjAwMAUwLjAwMAUwLjAwMAUwLjAwMAUwLjAwMAUwLjAwMAUwLjAwMAUwLjAw
        MAUwLjAwMAUwLjAwMAUwLjAwMAUwLjAwMAUwLjAwMAUwLjAwMAUwLjAwMAUwLjAwMAUwLjAwMAUwLjAwMAUwLjAwMAUwLjAwMAUwLjAwMAUwLjAwMAUwLjAwMAUwLjAw
        MAUwLjAwMAUwLjAwMAUwLjAwMAUwLjAwMAUwLjAwMAUwLjAwMAUwLjAwMAUwLjAwMAUwLjAwMAUwLjAwMAUwLjAwMAUwLjAwMAUwLjAwMAUwLjAwMAUwLjAwMAUwLjAw
        MAUwLjAwMAUwLjAwMAUwLjAwMAUwLjAwMAUwLjAwMAUwLjAwMAUwLjAwMAUwLjAwMAUwLjAwMAUwLjAwMAUwLjAwMAUwLjAwMAUwLjAwMAUwLjAwMAUwLjAwMAUwLjAw
        MAUwLjAwMAUwLjAwMAUwLjAwMAUwLjAwMAUwLjAwMAUwLjAwMAUwLjAwMAUwLjAwMAUwLjAwMAUwLjAwMAUwLjAwMAUwLjAwMAUwLjAwMAUwLjAwMAUwLjAwMAUwLjAw
        MAUwLjAwMAUwLjAwMAUwLjAwMAUwLjAwMAUwLjAwMAQxLjAwBDEuMDAEMS4wMAQxLjAwBDEuMDAEMS4wMAQxLjAwBDEuMDAEMS4wMAQxLjAwBDEuMDAEMS4wMAQxLjAw
        BDEuMDAEMS4wMAQxLjAwBDEuMDAEMS4wMAQxLjAwBDEuMDAEMS4wMAQxLjAwBDEuMDAEMS4wMAQxLjAwBDEuMDAEMS4wMAQxLjAwBDEuMDAEMS4wMAQxLjAwBDEuMDAE
        MS4wMAQxLjAwBDEuMDAEMS4wMAQxLjAwBDEuMDAEMS4wMAQxLjAwBDEuMDAEMS4wMAQxLjAwBDEuMDAEMS4wMAQxLjAwBDEuMDAEMS4wMAQxLjAwBDEuMDAEMS4wMAQx
        LjAwBDEuMDAEMS4wMAQxLjAwBDEuMDAEMS4wMAQxLjAwBDEuMDAEMS4wMAQxLjAwBDEuMDAEMS4wMAQxLjAwBDEuMDAEMS4wMAQxLjAwBDEuMDAEMS4wMAQxLjAwBDEu
        MDAEMS4wMAQxLjAwBDEuMDAEMS4wMAQxLjAwBDEuMDAEMS4wMAQxLjAwBDEuMDAEMS4wMAQxLjAwBDEuMDAEMS4wMAQxLjAwBDEuMDAEMS4wMAQxLjAwBDEuMDAEMS4w
        MAQxLjAwBDEuMDAEMS4wMAQxLjAwBDEuMDAEMS4wMAQxLjAwBDEuMDAEMS4wMAQxLjAwBDEuMDAEMS4wMAQxLjAwBDEuMDAEMS4wMAQxLjAwBDEuMDAEMS4wMAQxLjAw
        BDEuMDAEMS4wMAQxLjAwBDEuMDAEMS4wMAQxLjAwBDEuMDAEMS4wMAQxLjAwBDEuMDAEMS4wMAQxLjAwBDEuMDAEMS4wMAQxLjAwBDEuMDAEMS4wMAQxLjAwBDEuMDAF
        MC4wMDAFMC4wMDAFMC4wMDAFMC4wMDAFMC4wMDAFMC4wMDAFMC4wMDAFMC4wMDAFMC4wMDAFMC4wMDAFMC4wMDAFMC4wMDAFMC4wMDAFMC4wMDAFMC4wMDAFMC4wMDAF
        MC4wMDAFMC4wMDAFMC4wMDAFMC4wMDAFMC4wMDAFMC4wMDAFMC4wMDAFMC4wMDAFMC4wMDAFMC4wMDAFMC4wMDAFMC4wMDAFMC4wMDAFMC4wMDAFMC4wMDAFMC4wMDAF
        MC4wMDAFMC4wMDAFMC4wMDAFMC4wMDAFMC4wMDAFMC4wMDAFMC4wMDAFMC4wMDAFMC4wMDAFMC4wMDAFMC4wMDAFMC4wMDAFMC4wMDAFMC4wMDAFMC4wMDAFMC4wMDAF
        MC4wMDAFMC4wMDAFMC4wMDAFMC4wMDAFMC4wMDAFMC4wMDAFMC4wMDAFMC4wMDAFMC4wMDAFMC4wMDAFMC4wMDAFMC4wMDAFMC4wMDAFMC4wMDAFMC4wMDAFMC4wMDAF
        MC4wMDAFMC4wMDAFMC4wMDAFMC4wMDAFMC4wMDAFMC4wMDAFMC4wMDAFMC4wMDAFMC4wMDAFMC4wMDAFMC4wMDAFMC4wMDAFMC4wMDAFMC4wMDAFMC4wMDAFMC4wMDAF
        MC4wMDAFMC4wMDAFMC4wMDAFMC4wMDAFMC4wMDAFMC4wMDAFMC4wMDAFMC4wMDAFMC4wMDAFMC4wMDAFMC4wMDAFMC4wMDAFMC4wMDAFMC4wMDAFMC4wMDAFMC4wMDAF
        MC4wMDAFMC4wMDAFMC4wMDAFMC4wMDAFMC4wMDAFMC4wMDAFMC4wMDAFMC4wMDAFMC4wMDAFMC4wMDAFMC4wMDAFMC4wMDAFMC4wMDAFMC4wMDAFMC4wMDAFMC4wMDAF
        MC4wMDAFMC4wMDAFMC4wMDAFMC4wMDAFMC4wMDAFMC4wMDAFMC4wMDAFMC4wMDAFMC4wMDAFMC4wMDAFMC4wMDAFMC4wMDAFMC4wMDAFMC4wMDAFMC4wMDAFMC4wMDAG
        AAAAAQAAAAAAAAAGAAAAgAAAAAAAAAAAAAAAAAAgQQAAAAAAAAAAAAAAAAAAIEEAAAAAAAAAAAAAAAAAAAAAAAAAAAAAAAAAAAAAAAAAAAAAAAAAAAAAAAAgQQAAIEEA
        AAAAAAAAAAAAAAAAAAAAAAAAAAAAAAAAAAAAAAAAAAAAIEEAAAAAAAAAAAAAAAAAAAAAAAAgQQAAIEEAAAAAAAAAAAAAAAAAAAAAAAAAAAAAAAAAAAAAAAAAAAAAAAAA
        ACBBAAAAAAAAAAAAAAAAAAAAAAAAAAAAACBBAAAAAAAAAAAAAAAAAAAAAAAAAAAAAAAAAAAAAAAAAAAAAAAAAAAAAAAAAAAAAAAAAAAAAAAAAAAAAAAAAAAAAAAAAAAA
        AAAAAAAAAAAAAAAAAAAAAAAAAAAAAAAAACBBAAAAAAAAAAAAAAAAAAAAAAAAAAAAAAAAAAAAAAAAAAAAAAAAAAAAAAAAAAAAAAAAAAAAAAAAAAAAAAAAAAAAAAAAAAAA
        ACBBAAAAAAAAAAAAAAAAAAAAAAAAAAAAACBBAAAAAAAAAAAAAAAAAAAAAAAAAAAAAAAAAAAAAAAAAAAAAAAAAAAAAAAAAAAAACBBAAAgQQAAAAAAACBBAAAgQQAAAAAA
        ACBBAAAgQQAAIEEAACBBAAAgQQAAAAAAAAAAAAAAAAAAAAAAAAAAAAAAAAAAAAAAAAAABgAAAIAAAAAAAAAAAAAAAAAAIEEAAAAAAAAAAAAAAAAAACBBAAAAAAAAAAAA
        AAAAAAAAAAAAAAAAAAAAAAAAAAAAAAAAAAAAAAAAAAAAIEEAACBBAAAAAAAAAAAAAAAAAAAAAAAAAAAAAAAAAAAAAAAAAAAAACBBAAAAAAAAAAAAAAAAAAAAAAAAIEEA
        ACBBAAAAAAAAAAAAAAAAAAAAAAAAAAAAAAAAAAAAAAAAAAAAAAAAAAAgQQAAAAAAAAAAAAAAAAAAAAAAAAAAAAAgQQAAAAAAAAAAAAAAAAAAAAAAAAAAAAAAAAAAAAAA
        AAAAAAAAAAAAAAAAAAAAAAAAAAAAAAAAAAAAAAAAAAAAAAAAAAAAAAAAAAAAAAAAAAAAAAAAAAAAAAAAAAAAAAAgQQAAAAAAAAAAAAAAAAAAAAAAAAAAAAAAAAAAAAAA
        AAAAAAAAAAAAAAAAAAAAAAAAAAAAAAAAAAAAAAAAAAAAAAAAAAAAAAAgQQAAAAAAAAAAAAAAAAAAAAAAAAAAAAAAAAAAAAAAAAAAAAAAAAAAAAAAAAAAAAAAAAAAAAAA
        AAAAAAAAAAAAAAAAAAAAAAAAAAAAAAAAAAAAAAAgQQAAAAAAACBBAAAAAAAAAAAAAAAAAAAgQQAAIEEAAAAAAAAAAAAAAAAAAAAAAAAAAAAAAAAAAAAAAAAAAAYAAACA
        AAAAAAAAAAAAAAAAACBBAAAAAAAAAAAAAAAAAAAAAAAAAAAAAAAAAAAAAAAAAAAAAAAAAAAAAAAAAAAAAAAAAAAAAAAAAAAAACBBAAAAAAAAAAAAAAAAAAAAAAAAAAAA
        AAAAAAAAAAAAAAAAAAAAAAAgQQAAAAAAAAAAAAAAAAAAAAAAACBBAAAAAAAAAAAAAAAAAAAAAAAAAAAAAAAAAAAAAAAAAAAAAAAAAAAAAAAAAAAAAAAAAAAAAAAAAAAA
        AAAAAAAAAAAAIEEAAAAAAAAAAAAAAAAAAAAAAAAAAAAAAAAAAAAAAAAAAAAAAAAAAAAAAAAAAAAAAAAAAAAAAAAAAAAAAAAAAAAAAAAAAAAAAAAAAAAAAAAAAAAAAAAA
        AAAAAAAAAAAAAAAAAAAAAAAAAAAAAAAAAAAAAAAAAAAAAAAAAAAAAAAAAAAAAAAAAAAAAAAAAAAAAAAAAAAAAAAAAAAAAAAAAAAAAAAAAAAAAAAAAAAAAAAAAAAAAAAA
        AAAAAAAAAAAAAAAAAAAAAAAAAAAAAAAAAAAAAAAAAAAAAAAAAAAAAAAAAAAAAAAAAAAAAAAAAAAAAAAAAAAAAAAAAAAAAAAAACBBAAAgQQAAAAAAACBBAAAgQQAAAAAA
        AAAAAAAAAAAAAAAAAAAAAAAAAAAAAAAAAAAAAAAAAAAAAAAGAAAAgAAAAAAAAAAAAAAAAAAgQQAAAAAAAAAAAAAAAAAAAAAAAAAAAAAAAAAAAAAAAAAAAAAAAAAAAAAA
        AAAAAAAAAAAAAAAAAAAAAAAgQQAAIEEAAAAAAAAAAAAAAAAAAAAAAAAAAAAAAAAAAAAAAAAAAAAAIEEAAAAAAAAAAAAAAAAAAAAAAAAgQQAAAAAAAAAAAAAAAAAAAAAA
        AAAAAAAAAAAAAAAAAAAAAAAAAAAAAAAAAAAAAAAAAAAAAAAAAAAAAAAAAAAAAAAAACBBAAAAAAAAAAAAAAAAAAAAAAAAAAAAAAAAAAAAAAAAAAAAAAAAAAAAAAAAAAAA
        AAAAAAAAAAAAAAAAAAAAAAAAAAAAAAAAAAAAAAAAAAAAAAAAAAAAAAAAAAAAAAAAAAAAAAAAAAAAAAAAAAAAAAAAAAAAAAAAAAAAAAAAAAAAAAAAAAAAAAAAAAAAAAAA
        AAAAAAAAAAAAAAAAAAAAAAAAAAAAAAAAAAAAAAAAAAAAAAAAAAAAAAAAAAAAAAAAACBBAAAAAAAAAAAAAAAAAAAAAAAAAAAAAAAAAAAAAAAAAAAAAAAAAAAAAAAAAAAA
        AAAAAAAgQQAAAAAAAAAAAAAgQQAAIEEAACBBAAAAAAAAAAAAACBBAAAAAAAAAAAAAAAAAAAAAAAAAAAAAAAAAAAAAAAAAAAAAAAABgAAAIAAAAAAAAAAAAAAAAAAAAAA
        AAAAAAAAAAAAAAAAAAAAAAAAAAAAAAAAAAAAAAAAAAAAAAAAAAAAAAAAAAAAAAAAAAAAAAAAAAAAAAAAAAAAAAAAAAAAAAAAAAAAAAAAAAAAAAAAAAAAAAAAAAAAAAAA
        AAAAAAAAAAAAAAAAAAAAAAAAAAAAAAAAAAAAAAAAAAAAAAAAAAAAAAAAAAAAAAAAAAAAAAAAAAAAAAAAAAAAAAAAAAAAAAAAAAAAAAAAAAAAAAAAAAAAAAAAAAAAAAAA
        AAAAAAAAAAAAAAAAAAAAAAAAAAAAAAAAAAAAAAAAAAAAAAAAAAAAAAAAAAAAAAAAAAAAAAAAAAAAAAAAAAAAAAAAAAAAAAAAAAAAAAAAAAAAAAAAAAAAAAAAAAAAAAAA
        AAAAAAAAAAAAAAAAAAAAAAAAAAAAAAAAAAAAAAAAAAAAAAAAAAAAAAAAAAAAAAAAAAAAAAAAAAAAAAAAAAAAAAAAAAAAAAAAAAAAAAAAAAAAAAAAAAAAAAAAAAAAAAAA
        AAAAAAAAAAAAAAAAAAAAAAAAAAAAAAAAAAAAAAAAAAAAAAAAAAAAAAAAAAAAAAAAAAAAAAAAAAAAAAAAAAAAAAAAAAAAAAAAAAAAAAAAAAAAAAAAAAAAAAAAAAAAAAAA
        AAAAAAAAAAAAAAAAAAAAAAAAAAYAAACAAAAAAAAAAAAAAAAAACBBAAAAAAAAAAAAAAAAAAAAAAAAAAAAAAAAAAAAAAAAAAAAAAAAAAAAAAAAAAAAAAAAAAAAAAAAAAAA
        ACBBAAAAAAAAAAAAAAAAAAAAAAAAAAAAAAAAAAAAAAAAAAAAAAAAAAAgQQAAAAAAAAAAAAAAAAAAAAAAACBBAAAAAAAAAAAAAAAAAAAAAAAAAAAAAAAAAAAAAAAAAAAA
        AAAAAAAAAAAAAAAAAAAAAAAAAAAAAAAAAAAAAAAAAAAAIEEAAAAAAAAAAAAAAAAAAAAAAAAAAAAAAAAAAAAAAAAAAAAAAAAAAAAAAAAAAAAAAAAAAAAAAAAAAAAAAAAA
        AAAAAAAAAAAAAAAAAAAAAAAAAAAAAAAAAAAAAAAAAAAAAAAAAAAAAAAAAAAAAAAAAAAAAAAAAAAAAAAAAAAAAAAAAAAAAAAAAAAAAAAAAAAAAAAAAAAAAAAAAAAAAAAA
        AAAAAAAAAAAAAAAAAAAAAAAAAAAAAAAAAAAAAAAAAAAAAAAAAAAAAAAAAAAAAAAAAAAAAAAAAAAAAAAAAAAAAAAAAAAAAAAAAAAAAAAAAAAAAAAAAAAAAAAAAAAAAAAA
        AAAAAAAgQQAAAAAAACBBAAAgQQAAIEEAACBBAAAAAAAAAAAAAAAAAAAAAAAAAAAAAAAAAAAAAAAAAAAGAAAAgAAAAAAAAAAAAAAAAAAgQQAAAAAAAAAAAAAAAAAAAAAA
        AAAAAAAAAAAAAAAAAAAAAAAAAAAAAAAAAAAAAAAAAAAAAAAAAAAAAAAgQQAAAAAAAAAAAAAAAAAAAAAAAAAAAAAAAAAAAAAAAAAAAAAAAAAAIEEAAAAAAAAAAAAAAAAA
        AAAAAAAgQQAAAAAAAAAAAAAAAAAAAAAAAAAAAAAAAAAAAAAAAAAAAAAAAAAAAAAAAAAAAAAAAAAAAAAAAAAAAAAAAAAAAAAAACBBAAAAAAAAAAAAAAAAAAAAAAAAAAAA
        AAAAAAAAAAAAAAAAAAAAAAAAAAAAAAAAAAAAAAAAAAAAAAAAAAAAAAAAAAAAAAAAAAAAAAAAAAAAAAAAAAAAAAAAAAAAAAAAAAAAAAAAAAAAAAAAAAAAAAAAAAAAAAAA
        AAAAAAAAAAAAAAAAAAAAAAAAAAAAAAAAAAAAAAAAAAAAAAAAAAAAAAAAAAAAAAAAAAAAAAAAAAAAAAAAAAAAAAAAAAAAAAAAACBBAAAAAAAAAAAAAAAAAAAAAAAAAAAA
        AAAAAAAAAAAAAAAAAAAAAAAAAAAAAAAAACBBAAAgQQAAAAAAAAAAAAAgQQAAAAAAACBBAAAgQQAAIEEAAAAAAAAAAAAAAAAAAAAAAAAAAAAAAAAAAAAAAAAAAAAAAAAA
        AAAABgAAAIAAAAAAAAAAAAAAAAAAIEEAAAAAAAAAAAAAAAAAAAAAAAAAAAAAAAAAAAAAAAAAAAAAAAAAAAAAAAAAAAAAAAAAAAAAAAAAAAAAIEEAACBBAAAAAAAAAAAA
        AAAAAAAAAAAAAAAAAAAAAAAAAAAAAAAAACBBAAAAAAAAAAAAAAAAAAAAAAAAIEEAAAAAAAAAAAAAAAAAAAAAAAAAAAAAAAAAAAAAAAAAAAAAAAAAAAAAAAAAAAAAAAAA
        AAAAAAAAAAAAAAAAAAAAAAAgQQAAAAAAAAAAAAAAAAAAAAAAAAAAAAAAAAAAAAAAAAAAAAAAAAAAAAAAAAAAAAAAAAAAAAAAAAAAAAAAAAAAAAAAAAAAAAAAAAAAAAAA
        AAAAAAAAAAAAAAAAAAAAAAAAAAAAAAAAAAAAAAAAAAAAAAAAAAAAAAAAAAAAAAAAAAAAAAAAAAAAAAAAAAAAAAAAAAAAAAAAAAAAAAAAAAAAAAAAAAAAAAAAAAAAAAAA
        AAAAAAAAAAAAAAAAAAAAAAAAAAAAAAAAAAAAAAAAAAAAAAAAAAAAAAAAAAAAAAAAAAAAAAAAAAAAAAAAAAAAAAAAAAAAIEEAAAAAAAAAAAAAAAAAACBBAAAgQQAAIEEA
        ACBBAAAgQQAAAAAAAAAAAAAAAAAAAAAAAAAAAAAAAAAAAAAAAAAAAAAAAAYAAACAAAAAAAAAAAAAAAAAACBBAAAAAAAAAAAAAAAAAAAAAAAAAAAAAAAAAAAAAAAAAAAA
        AAAAAAAAAAAAAAAAAAAAAAAAAAAAAAAAACBBAAAAAAAAAAAAAAAAAAAAAAAAAAAAAAAAAAAAAAAAAAAAAAAAAAAgQQAAAAAAAAAAAAAAAAAAAAAAACBBAAAAAAAAAAAA
        AAAAAAAAAAAAAAAAAAAAAAAAAAAAAAAAAAAAAAAAAAAAAAAAAAAAAAAAAAAAAAAAAAAAAAAAAAAAIEEAAAAAAAAAAAAAAAAAAAAAAAAAAAAAAAAAAAAAAAAAAAAAAAAA
        AAAAAAAAAAAAAAAAAAAAAAAAAAAAAAAAAAAAAAAAAAAAAAAAAAAAAAAAAAAAAAAAAAAAAAAAAAAAAAAAAAAAAAAAAAAAAAAAAAAAAAAAAAAAAAAAAAAAAAAAAAAAAAAA
        AAAAAAAAAAAAAAAAAAAAAAAAAAAAAAAAAAAAAAAAAAAAAAAAAAAAAAAAAAAAAAAAAAAAAAAAAAAAAAAAAAAAAAAAAAAAAAAAAAAAAAAAAAAAAAAAAAAAAAAAAAAAAAAA
        AAAAAAAAAAAAIEEAAAAAAAAAAAAAAAAAACBBAAAAAAAAAAAAACBBAAAgQQAAIEEAACBBAAAAAAAAAAAAAAAAAAAAAAAAAAAAAAAAAAAAAAAAAAAGAAAAgAAAAAAAAAAA
        AAAAAAAgQQAAAAAAAAAAAAAAAAAAAAAAAAAAAAAAAAAAAAAAAAAAAAAAAAAAAAAAAAAAAAAAAAAAAAAAAAAAAAAgQQAAAAAAAAAAAAAAAAAAAAAAAAAAAAAAAAAAAAAA
        AAAAAAAAAAAAIEEAAAAAAAAAAAAAAAAAAAAAAAAgQQAAAAAAAAAAAAAAAAAAAAAAAAAAAAAAAAAAAAAAAAAAAAAAAAAAAAAAAAAAAAAAAAAAAAAAAAAAAAAAAAAAAAAA
        ACBBAAAAAAAAAAAAAAAAAAAAAAAAAAAAAAAAAAAAAAAAAAAAAAAAAAAAAAAAAAAAAAAAAAAAAAAAAAAAAAAAAAAAAAAAAAAAAAAAAAAAAAAAAAAAAAAAAAAAAAAAAAAA
        AAAAAAAAAAAAAAAAAAAAAAAAAAAAAAAAAAAAAAAAAAAAAAAAAAAAAAAAAAAAAAAAAAAAAAAAAAAAAAAAAAAAAAAAAAAAAAAAAAAAAAAAAAAAAAAAAAAAAAAAAAAAAAAA
        AAAAAAAAAAAAAAAAAAAAAAAAAAAAAAAAAAAAAAAAAAAAAAAAAAAAAAAAAAAAAAAAAAAAAAAgQQAAAAAAAAAAAAAAAAAAAAAAACBBAAAAAAAAAAAAAAAAAAAAAAAAAAAA
        AAAAAAAAAAAAAAAAAAAAAAAAAAAAAAAAAAAABgAAAIAAAAAAAAAAAAAAAAAAIEEAAAAAAAAAAAAAAAAAACBBAAAAAAAAAAAAAAAAAAAAAAAAAAAAAAAAAAAAAAAAAAAA
        AAAAAAAAAAAAIEEAACBBAAAAAAAAAAAAAAAAAAAAAAAAAAAAAAAAAAAAAAAAAAAAACBBAAAAAAAAAAAAAAAAAAAAAAAAIEEAACBBAAAAAAAAAAAAAAAAAAAAAAAAAAAA
        AAAAAAAAAAAAAAAAAAAAAAAgQQAAAAAAAAAAAAAAAAAAAAAAAAAAAAAgQQAAAAAAAAAAAAAAAAAAAAAAAAAAAAAAAAAAAAAAAAAAAAAAAAAAAAAAAAAAAAAAAAAAAAAA
        AAAAAAAAAAAAAAAAAAAAAAAAAAAAAAAAAAAAAAAAAAAAAAAAAAAAAAAgQQAAAAAAAAAAAAAAAAAAAAAAAAAAAAAAAAAAAAAAAAAAAAAAAAAAAAAAAAAAAAAAAAAAAAAA
        AAAAAAAAAAAAAAAAAAAAAAAgQQAAAAAAAAAAAAAAAAAAAAAAAAAAAAAgQQAAAAAAAAAAAAAAAAAAAAAAAAAAAAAAAAAAAAAAAAAAAAAAAAAAAAAAAAAAAAAgQQAAIEEA
        AAAAAAAgQQAAIEEAACBBAAAAAAAAIEEAACBBAAAgQQAAIEEAAAAAAAAAAAAAAAAAAAAAAAAAAAAAAAAAAAAAAAAAAAYAAAABAAAAAAAAAAYAAACAAAAAAAAAAAAAAAAA
        ACBBAAAAAAAAAAAAAAAAAAAgQQAAAAAAAAAAAAAAAAAAAAAAAAAAAAAAAAAAAAAAAAAAAAAAAAAAAAAAACBBAAAAAAAAAAAAAAAAAAAAAAAAAAAAAAAAAAAAAAAAAAAA
        AAAAAAAgQQAAAAAAAAAAAAAAAAAAAAAAACBBAAAgQQAAAAAAAAAAAAAAAAAAAAAAAAAAAAAAAAAAAAAAAAAAAAAAAAAAIEEAAAAAAAAAAAAAAAAAAAAAAAAAAAAAIEEA
        AAAAAAAAAAAAAAAAAAAAAAAAAAAAAAAAAAAAAAAAAAAAAAAAAAAAAAAAAAAAAAAAAAAAAAAAAAAAAAAAAAAAAAAAAAAAAAAAAAAAAAAAAAAAAAAAAAAAAAAAAAAAIEEA
        AAAAAAAAAAAAAAAAAAAAAAAAAAAAAAAAAAAAAAAAAAAAAAAAAAAAAAAAAAAAAAAAAAAAAAAAAAAAAAAAAAAAAAAAAAAAIEEAAAAAAAAAAAAAAAAAAAAAAAAAAAAAAAAA
        AAAAAAAAAAAAAAAAAAAAAAAAAAAAAAAAAAAAAAAAAAAAAAAAAAAAAAAAAAAAAAAAACBBAAAAAAAAIEEAAAAAAAAgQQAAIEEAAAAAAAAAAAAAIEEAAAAAAAAAAAAAAAAA
        AAAAAAAAAAAAAAAAAAAAAAAAAAAAAAAGAAAAgAAAAAAAAAAAAAAAAAAgQQAAAAAAAAAAAAAAAAAAAAAAAAAAAAAAAAAAAAAAAAAAAAAAAAAAAAAAAAAAAAAAAAAAAAAA
        AAAAAAAgQQAAAAAAAAAAAAAAAAAAAAAAAAAAAAAAAAAAAAAAAAAAAAAAAAAAIEEAAAAAAAAAAAAAAAAAAAAAAAAgQQAAAAAAAAAAAAAAAAAAAAAAAAAAAAAAAAAAAAAA
        AAAAAAAAAAAAAAAAAAAAAAAAAAAAAAAAAAAAAAAAAAAAAAAAACBBAAAAAAAAAAAAAAAAAAAAAAAAAAAAAAAAAAAAAAAAAAAAAAAAAAAAAAAAAAAAAAAAAAAAAAAAAAAA
        AAAAAAAAAAAAAAAAAAAAAAAAAAAAAAAAAAAAAAAAAAAAAAAAAAAAAAAAAAAAAAAAAAAAAAAAAAAAAAAAAAAAAAAAAAAAAAAAAAAAAAAAAAAAAAAAAAAAAAAAAAAAAAAA
        AAAAAAAAAAAAAAAAAAAAAAAAAAAAAAAAAAAAAAAAAAAAAAAAAAAAAAAAAAAAAAAAAAAAAAAAAAAAAAAAAAAAAAAAAAAAAAAAAAAAAAAAAAAAAAAAAAAAAAAAAAAAAAAA
        AAAAAAAgQQAAAAAAAAAAAAAgQQAAIEEAAAAAAAAAAAAAAAAAAAAAAAAAAAAAAAAAAAAAAAAAAAAAAAAAAAAABgAAAIAAAAAAAAAAAAAAAAAAIEEAAAAAAAAAAAAAAAAA
        AAAAAAAAAAAAAAAAAAAAAAAAAAAAAAAAAAAAAAAAAAAAAAAAAAAAAAAAAAAAIEEAAAAAAAAAAAAAAAAAAAAAAAAAAAAAAAAAAAAAAAAAAAAAAAAAACBBAAAAAAAAAAAA
        AAAAAAAAAAAAIEEAAAAAAAAAAAAAAAAAAAAAAAAAAAAAAAAAAAAAAAAAAAAAAAAAAAAAAAAAAAAAAAAAAAAAAAAAAAAAAAAAAAAAAAAgQQAAAAAAAAAAAAAAAAAAAAAA
        AAAAAAAAAAAAAAAAAAAAAAAAAAAAAAAAAAAAAAAAAAAAAAAAAAAAAAAAAAAAAAAAAAAAAAAAAAAAAAAAAAAAAAAAAAAAAAAAAAAAAAAAAAAAAAAAAAAAAAAAAAAAAAAA
        AAAAAAAAAAAAAAAAAAAAAAAAAAAAAAAAAAAAAAAAAAAAAAAAAAAAAAAAAAAAAAAAAAAAAAAAAAAAAAAAAAAAAAAAAAAAAAAAAAAAAAAgQQAAAAAAAAAAAAAAAAAAAAAA
        AAAAAAAAAAAAAAAAAAAAAAAAAAAAAAAAAAAAAAAgQQAAIEEAAAAAAAAAAAAAAAAAAAAAAAAAAAAAAAAAAAAAAAAAAAAAAAAAAAAAAAAAAAAAAAAAAAAAAAAAAAAAAAAA
        AAAAAAAAAAYAAACAAAAAAAAAAAAAAAAAACBBAAAAAAAAAAAAAAAAAAAAAAAAAAAAAAAAAAAAAAAAAAAAACBBAAAAAAAAAAAAAAAAAAAAAAAAAAAAACBBAAAgQQAAAAAA
        AAAAAAAAAAAAAAAAAAAAAAAAAAAAAAAAAAAAAAAgQQAAAAAAAAAAAAAAAAAAAAAAACBBAAAAAAAAAAAAAAAAAAAAAAAAAAAAAAAAAAAAAAAAAAAAAAAAAAAAAAAAAAAA
        AAAAAAAAAAAAAAAAAAAAAAAAAAAAIEEAAAAAAAAAAAAAAAAAAAAAAAAAAAAAAAAAAAAAAAAAAAAAAAAAAAAAAAAAAAAAAAAAAAAAAAAAAAAAAAAAAAAAAAAAAAAAAAAA
        AAAAAAAAAAAAAAAAAAAAAAAAAAAAAAAAAAAAAAAAAAAAAAAAAAAAAAAAAAAAAAAAAAAAAAAAAAAAAAAAAAAAAAAAAAAAAAAAAAAAAAAAAAAAAAAAACBBAAAAAAAAAAAA
        AAAAAAAAAAAAAAAAAAAAAAAAAAAAIEEAAAAAAAAAAAAAAAAAAAAAAAAAAAAAAAAAAAAAAAAAAAAAAAAAAAAAAAAAAAAAIEEAAAAAAAAgQQAAAAAAACBBAAAAAAAAIEEA
        AAAAAAAAAAAAAAAAAAAAAAAAAAAAAAAAAAAAAAAAAAAAAAAAAAAAAAAAAAAAAAAGAAAAgAAAAAAAAAAAAAAAAAAAAAAAAAAAAAAAAAAAAAAAAAAAAAAAAAAAAAAAAAAA
        AAAAAAAAAAAAAAAAAAAAAAAAAAAAAAAAAAAAAAAAAAAAAAAAAAAAAAAAAAAAAAAAAAAAAAAAAAAAAAAAAAAAAAAAAAAAAAAAAAAAAAAAAAAAAAAAAAAAAAAAAAAAAAAA
        AAAAAAAAAAAAAAAAAAAAAAAAAAAAAAAAAAAAAAAAAAAAAAAAAAAAAAAAAAAAAAAAAAAAAAAAAAAAAAAAAAAAAAAAAAAAAAAAAAAAAAAAAAAAAAAAAAAAAAAAAAAAAAAA
        AAAAAAAAAAAAAAAAAAAAAAAAAAAAAAAAAAAAAAAAAAAAAAAAAAAAAAAAAAAAAAAAAAAAAAAAAAAAAAAAAAAAAAAAAAAAAAAAAAAAAAAAAAAAAAAAAAAAAAAAAAAAAAAA
        AAAAAAAAAAAAAAAAAAAAAAAAAAAAAAAAAAAAAAAAAAAAAAAAAAAAAAAAAAAAAAAAAAAAAAAAAAAAAAAAAAAAAAAAAAAAAAAAAAAAAAAAAAAAAAAAAAAAAAAAAAAAAAAA
        AAAAAAAAAAAAAAAAAAAAAAAAAAAAAAAAAAAAAAAAAAAAAAAAAAAAAAAAAAAAAAAAAAAAAAAAAAAAAAAAAAAAAAAAAAAAAAAAAAAAAAAAAAAAAAAAAAAABgAAAIAAAAAA
        AAAAAAAAAAAAAAAAAAAAAAAAAAAAAAAAAAAAAAAAAAAAAAAAAAAAAAAAAAAAAAAAAAAAAAAAAAAAAAAAAAAAAAAAAAAAAAAAAAAAAAAAAAAAAAAAAAAAAAAAAAAAAAAA
        AAAAAAAAAAAAAAAAAAAAAAAAAAAAAAAAAAAAAAAAAAAAAAAAAAAAAAAAAAAAAAAAAAAAAAAAAAAAAAAAAAAAAAAAAAAAAAAAAAAAAAAAAAAAAAAAAAAAAAAAAAAAAAAA
        AAAAAAAAAAAAAAAAAAAAAAAAAAAAAAAAAAAAAAAAAAAAAAAAAAAAAAAAAAAAAAAAAAAAAAAAAAAAAAAAAAAAAAAAAAAAAAAAAAAAAAAAAAAAAAAAAAAAAAAAAAAAAAAA
        AAAAAAAAAAAAAAAAAAAAAAAAAAAAAAAAAAAAAAAAAAAAAAAAAAAAAAAAAAAAAAAAAAAAAAAAAAAAAAAAAAAAAAAAAAAAAAAAAAAAAAAAAAAAAAAAAAAAAAAAAAAAAAAA
        AAAAAAAAAAAAAAAAAAAAAAAAAAAAAAAAAAAAAAAAAAAAAAAAAAAAAAAAAAAAAAAAAAAAAAAAAAAAAAAAAAAAAAAAAAAAAAAAAAAAAAAAAAAAAAAAAAAAAAAAAAAAAAAA
        AAAAAAAAAAAAAAAAAAAAAAAAAAAAAAAAAAAAAAAAAAYAAACAAAAAAAAAAAAAAAAAACBBAAAAAAAAAAAAAAAAAAAgQQAAAAAAAAAAAAAAAAAAAAAAAAAAAAAAAAAAAAAA
        AAAAAAAAAAAAAAAAACBBAAAAAAAAAAAAAAAAAAAAAAAAAAAAAAAAAAAAAAAAAAAAAAAAAAAgQQAAAAAAAAAAAAAAAAAAAAAAACBBAAAgQQAAAAAAAAAAAAAAAAAAAAAA
        AAAAAAAAAAAAAAAAAAAAAAAAAAAAIEEAAAAAAAAAAAAAAAAAAAAAAAAAAAAAIEEAAAAAAAAAAAAAAAAAAAAAAAAAAAAAAAAAAAAAAAAAAAAAAAAAAAAAAAAAAAAAAAAA
        AAAAAAAAAAAAAAAAAAAAAAAAAAAAAAAAAAAAAAAAAAAAAAAAAAAAAAAAAAAAIEEAAAAAAAAAAAAAAAAAAAAAAAAAAAAAAAAAAAAAAAAAAAAAAAAAAAAAAAAAAAAAAAAA
        AAAAAAAAAAAAAAAAAAAAAAAAAAAAIEEAAAAAAAAAAAAAAAAAAAAAAAAAAAAAAAAAAAAAAAAAAAAAAAAAAAAAAAAAAAAAAAAAAAAAAAAAAAAAAAAAAAAAAAAAAAAAAAAA
        ACBBAAAAAAAAIEEAACBBAAAAAAAAIEEAACBBAAAgQQAAAAAAACBBAAAAAAAAAAAAAAAAAAAAAAAAAAAAAAAAAAAAAAAAAAAGAAAAgAAAAAAAAAAAAAAAAAAgQQAAAAAA
        AAAAAAAAAAAAAAAAAAAAAAAAAAAAAAAAAAAAAAAAAAAAAAAAAAAAAAAAAAAAAAAAAAAAAAAgQQAAAAAAAAAAAAAAAAAAAAAAAAAAAAAAAAAAAAAAAAAAAAAAAAAAIEEA
        AAAAAAAAAAAAAAAAAAAAAAAgQQAAAAAAAAAAAAAAAAAAAAAAAAAAAAAAAAAAAAAAAAAAAAAAAAAAAAAAAAAAAAAAAAAAAAAAAAAAAAAAAAAAAAAAACBBAAAAAAAAAAAA
        AAAAAAAAAAAAAAAAAAAAAAAAAAAAAAAAAAAAAAAAAAAAAAAAAAAAAAAAAAAAAAAAAAAAAAAAAAAAAAAAAAAAAAAAAAAAAAAAAAAAAAAAAAAAAAAAAAAAAAAAAAAAAAAA
        AAAAAAAAAAAAAAAAAAAAAAAAAAAAAAAAAAAAAAAAAAAAAAAAAAAAAAAAAAAAAAAAAAAAAAAAAAAAAAAAAAAAAAAAAAAAAAAAAAAAAAAAAAAAAAAAAAAAAAAAAAAAAAAA
        AAAAAAAAAAAAAAAAAAAAAAAAAAAAAAAAAAAAAAAAAAAAAAAAACBBAAAgQQAAAAAAAAAAAAAAAAAAAAAAAAAAAAAgQQAAIEEAACBBAAAgQQAAAAAAAAAAAAAAAAAAAAAA
        AAAAAAAAAAAAAAAAAAAABgAAAIAAAAAAAAAAAAAAAAAAAAAAAAAAAAAAAAAAAAAAAAAAAAAAAAAAAAAAAAAAAAAAAAAAAAAAAAAAAAAAAAAAAAAAAAAAAAAAAAAAAAAA
        AAAAAAAAAAAAAAAAAAAAAAAAAAAAAAAAAAAAAAAAAAAAAAAAAAAAAAAAAAAAAAAAAAAAAAAAAAAAAAAAACBBAAAAAAAAAAAAAAAAAAAAAAAAAAAAAAAAAAAAAAAAAAAA
        AAAAAAAgQQAAAAAAAAAAAAAAAAAAAAAAAAAAAAAAAAAAAAAAAAAAAAAAAAAAAAAAAAAAAAAAAAAAAAAAAAAAAAAAAAAAAAAAAAAAAAAAAAAAAAAAAAAAAAAAAAAAIEEA
        AAAAAAAgQQAAAAAAAAAAAAAAAAAAAAAAAAAAAAAgQQAAAAAAAAAAAAAAAAAAAAAAAAAAAAAAAAAAAAAAAAAAAAAAAAAAAAAAAAAAAAAAAAAAAAAAAAAAAAAAAAAAAAAA
        AAAAAAAgQQAAAAAAAAAAAAAAAAAAAAAAAAAAAAAAAAAAAAAAAAAAAAAAAAAAAAAAAAAAAAAAAAAAAAAAAAAAAAAAAAAAAAAAAAAAAAAAAAAAAAAAACBBAAAAAAAAAAAA
        AAAAAAAAAAAAAAAAAAAAAAAAAAAAAAAAAAAAAAAAAAAAAAAAAAAAAAAAAAAAAAAAAAAAAAAAAA==
        AAAQAAAA
      >
      FLOATPOS 65 92 296 207
      FXID {AA0AE873-6BA4-4F0C-8C4C-3C75B9D8A048}
      WAK 0
    >
    <ITEM
      POSITION 0
      SNAPOFFS 0
      LENGTH 213.32409793814432
      LOOP 1
      ALLTAKES 0
      FADEIN 1 0 0 1 0 0
      FADEOUT 1 0 0 1 0 0
      MUTE 0
      SEL 0
      IGUID {7C1AF203-0FD5-47B4-83FA-6E43DDD67695}
      IID 5
      NAME "08-keys midi-Recorded MIDI"
      VOLPAN 1 0 1 -1
      SOFFS 0 0
      PLAYRATE 1 1 0 -1 0 0.0025
      CHANMODE 0
      GUID {3217E2BE-3014-4BCD-A876-9755545B419E}
      RECPASS 2
      <SOURCE MIDI
        HASDATA 1 960 QN
        POOLEDEVTS {96A86D56-7511-4E4F-8928-D2DA41E6B99C}
        E 1927 91 47 01
        E 419 91 45 00
        E 3985 91 47 00
        E 42 91 45 07
        E 4123 91 45 00
        E 100 91 44 01
        E 4071 91 45 17
        E 14 91 44 00
        E 7514 91 47 16
        E 203 91 45 00
        E 4083 91 44 0d
        E 14 91 47 00
        E 4093 91 44 00
        E 45 91 45 13
        E 7618 91 45 00
        E 573 91 47 01
        E 4462 91 44 01
        E 22 91 47 00
        E 3905 91 44 00
        E 207 91 41 00
        E 691 91 3e 00
        E 3501 91 3e 22
        E 5 91 41 33
        E 7 91 45 2a
        E 4344 91 47 14
        E 4661 91 44 01
        E 1978 91 47 00
        E 5984 91 44 00
        E 254 91 45 00
        E 5 91 41 00
        E 19 91 3e 00
        E 263 91 45 2a
        E 15 91 41 3e
        E 29 91 3e 30
        E 4274 91 45 00
        E 121 91 47 1e
        E 4095 91 47 00
        E 30 91 48 14
        E 4401 91 47 24
        E 132 91 48 00
        E 3792 91 47 00
        E 275 91 45 2c
        E 4377 91 47 1a
        E 2484 91 45 00
        E 1737 91 48 06
        E 241 91 47 00
        E 4053 91 47 0e
        E 140 91 48 00
        E 4037 91 47 00
        E 166 91 45 2c
        E 4167 91 47 26
        E 93 91 45 00
        E 181 91 41 00
        E 3849 91 47 00
        E 103 91 48 01
        E 4352 91 45 3a
        E 19 91 41 26
        E 162 91 48 00
        E 3327 91 45 00
        E 4 91 41 00
        E 281 91 3e 00
        E 488 91 45 30
        E 14 91 3e 28
        E 36 91 41 33
        E 4296 91 47 13
        E 24 91 45 00
        E 4192 91 48 17
        E 14 91 47 00
        E 4413 91 47 1a
        E 127 91 48 00
        E 3820 91 41 00
        E 43 91 47 00
        E 90 91 45 48
        E 17382 91 2b 2e
        E 48 91 45 00
        E 3 91 3e 00
        E 4730 91 29 2a
        E 146 91 2b 00
        E 3716 91 2b 1a
        E 72 91 29 00
        E 4175 91 2c 22
        E 147 91 2b 00
        E 4163 91 2b 1d
        E 15 91 2c 00
        E 4213 91 29 1d
        E 128 91 2b 00
        E 4169 91 2b 1d
        E 21 91 29 00
        E 4391 91 2c 2a
        E 174 91 2b 00
        E 4014 91 2c 00
        E 87 91 29 1e
        E 16716 91 43 28
        E 7 91 40 24
        E 4 91 47 1b
        E 991 91 29 00
        E 2844 91 43 00
        E 9 91 47 00
        E 13 91 40 00
        E 437 91 41 43
        E 7 91 45 28
        E 22 91 3e 2e
        E 4354 91 47 22
        E 55 91 45 00
        E 4248 91 47 00
        E 23 91 45 19
        E 193 91 41 00
        E 421 91 41 01
        E 3568 91 3c 26
        E 73 91 3e 00
        E 3962 91 3c 00
        E 167 91 3e 1a
        E 4279 91 47 17
        E 33 91 45 00
        E 4195 91 47 00
        E 19 91 45 01
        E 4269 91 3e 00
        E 34 91 3c 1c
        E 4254 91 3c 00
        E 29 91 3e 1e
        E 4248 91 47 12
        E 82 91 45 00
        E 4151 91 3c 19
        E 1840 91 3e 00
        E 6193 91 3c 00
        E 4614 91 41 00
        E 106 91 26 1e
        E 54 91 47 00
        E 8173 91 26 00
        E 89 91 29 22
        E 3781 91 29 00
        E 4975 91 30 10
        E 266 91 30 00
        E 320 91 30 19
        E 266 91 30 00
        E 228 91 30 15
        E 220 91 30 00
        E 293 91 30 1c
        E 233 91 30 00
        E 273 91 30 18
        E 254 91 30 00
        E 271 91 30 19
        E 222 91 30 00
        E 246 91 30 16
        E 194 91 30 00
        E 335 91 30 22
        E 260 91 30 00
        E 323 91 30 1b
        E 261 91 30 00
        E 253 91 30 1c
        E 227 91 30 00
        E 3537 91 32 1a
        E 250 91 32 00
        E 314 91 32 19
        E 300 91 32 00
        E 237 91 32 18
        E 298 91 32 00
        E 228 91 32 1a
        E 296 91 32 00
        E 235 91 32 1b
        E 261 91 32 00
        E 280 91 32 1e
        E 251 91 32 00
        E 285 91 32 1a
        E 261 91 32 00
        E 263 91 32 1e
        E 266 91 32 00
        E 278 91 32 1a
        E 225 91 32 00
        E 292 91 32 22
        E 237 91 32 00
        E 268 91 32 24
        E 225 91 32 00
        E 301 91 32 2a
        E 252 91 32 00
        E 271 91 32 26
        E 236 91 32 00
        E 288 91 32 26
        E 234 91 32 00
        E 276 91 32 26
        E 258 91 32 00
        E 257 91 32 1e
        E 224 91 32 00
        E 323 91 32 2c
        E 230 91 32 00
        E 319 91 32 24
        E 201 91 32 00
        E 323 91 32 1c
        E 235 91 32 00
        E 275 91 32 19
        E 271 91 32 00
        E 312 91 32 1b
        E 219 91 32 00
        E 300 91 32 20
        E 234 91 32 00
        E 271 91 32 20
        E 244 91 32 00
        E 280 91 32 26
        E 213 91 32 00
        E 270 91 32 26
        E 220 91 32 00
        E 321 91 32 26
        E 203 91 32 00
        E 292 91 32 2a
        E 228 91 32 00
        E 295 91 32 22
        E 229 91 32 00
        E 254 91 32 20
        E 235 91 32 00
        E 329 91 32 26
        E 204 91 32 00
        E 323 91 32 22
        E 209 91 32 00
        E 282 91 32 2c
        E 254 91 32 00
        E 294 91 34 33
        E 206 91 34 00
        E 302 91 34 30
        E 225 91 34 00
        E 324 91 34 26
        E 182 91 34 00
        E 329 91 34 36
        E 215 91 34 00
        E 315 91 34 33
        E 191 91 34 00
        E 318 91 34 33
        E 186 91 34 00
        E 375 91 34 43
        E 184 91 34 00
        E 302 91 34 3e
        E 345 91 34 00
        E 164 91 30 26
        E 190 91 30 00
        E 286 91 30 30
        E 235 91 30 00
        E 296 91 30 22
        E 192 91 30 00
        E 328 91 30 2e
        E 199 91 30 00
        E 342 91 30 28
        E 208 91 30 00
        E 336 91 30 30
        E 194 91 30 00
        E 377 91 30 2c
        E 166 91 30 00
        E 319 91 30 3a
        E 263 91 30 00
        E 268 91 32 48
        E 240 91 32 00
        E 362 91 32 48
        E 232 91 32 00
        E 311 91 32 33
        E 225 91 32 00
        E 314 91 32 3a
        E 210 91 32 00
        E 324 91 32 36
        E 201 91 32 00
        E 334 91 32 3a
        E 215 91 32 00
        E 311 91 32 36
        E 229 91 32 00
        E 324 91 32 36
        E 222 91 32 00
        E 324 91 32 3e
        E 227 91 32 00
        E 295 91 32 33
        E 210 91 32 00
        E 314 91 32 3a
        E 212 91 32 00
        E 317 91 32 3a
        E 220 91 32 00
        E 317 91 32 3a
        E 210 91 32 00
        E 326 91 32 33
        E 184 91 32 00
        E 342 91 32 3e
        E 219 91 32 00
        E 265 91 32 3e
        E 218 91 32 00
        E 328 91 34 62
        E 255 91 34 00
        E 312 91 34 43
        E 208 91 34 00
        E 308 91 34 48
        E 219 91 34 00
        E 297 91 34 3a
        E 218 91 34 00
        E 307 91 34 43
        E 202 91 34 00
        E 312 91 34 3e
        E 198 91 34 00
        E 339 91 34 48
        E 207 91 34 00
        E 293 91 34 4e
        E 430 91 34 00
        E 270 91 30 30
        E 198 91 30 00
        E 320 91 30 30
        E 243 91 30 00
        E 268 91 30 2c
        E 233 91 30 00
        E 284 91 30 2a
        E 184 91 30 00
        E 300 91 30 30
        E 200 91 30 00
        E 264 91 30 2a
        E 166 91 30 00
        E 302 91 30 3e
        E 256 91 30 00
        E 1037 91 26 54
        E 212 91 26 00
        E 322 91 26 3e
        E 224 91 26 00
        E 283 91 26 3a
        E 227 91 26 00
        E 297 91 26 3a
        E 230 91 26 00
        E 287 91 26 36
        E 230 91 26 00
        E 301 91 26 3a
        E 221 91 26 00
        E 282 91 26 33
        E 259 91 26 00
        E 290 91 26 2e
        E 254 91 26 00
        E 308 91 26 2c
        E 242 91 26 00
        E 361 91 26 28
        E 245 91 26 00
        E 264 91 26 2c
        E 232 91 26 00
        E 299 91 26 36
        E 257 91 26 00
        E 270 91 26 30
        E 247 91 26 00
        E 277 91 26 2c
        E 240 91 26 00
        E 266 91 26 28
        E 203 91 26 00
        E 294 91 26 36
        E 309 91 26 00
        E 215 91 28 48
        E 201 91 28 00
        E 342 91 28 3e
        E 232 91 28 00
        E 298 91 28 36
        E 227 91 28 00
        E 300 91 28 3a
        E 251 91 28 00
        E 314 91 28 36
        E 232 91 28 00
        E 298 91 28 3a
        E 224 91 28 00
        E 357 91 28 3e
        E 206 91 28 00
        E 340 91 28 48
        E 386 91 28 00
        E 227 91 24 30
        E 199 91 24 00
        E 309 91 24 33
        E 266 91 24 00
        E 295 91 24 33
        E 225 91 24 00
        E 318 91 24 3a
        E 218 91 24 00
        E 282 91 24 36
        E 235 91 24 00
        E 295 91 24 2e
        E 212 91 24 00
        E 302 91 24 36
        E 215 91 24 00
        E 307 91 24 3a
        E 261 91 24 00
        E 252 91 26 48
        E 205 91 26 00
        E 324 91 26 43
        E 239 91 26 00
        E 280 91 26 33
        E 223 91 26 00
        E 321 91 26 33
        E 213 91 26 00
        E 299 91 26 30
        E 212 91 26 00
        E 300 91 26 36
        E 232 91 26 00
        E 307 91 26 33
        E 234 91 26 00
        E 327 91 26 3a
        E 205 91 26 00
        E 306 91 26 3a
        E 228 91 26 00
        E 318 91 26 36
        E 216 91 26 00
        E 324 91 26 3a
        E 210 91 26 00
        E 333 91 26 36
        E 229 91 26 00
        E 292 91 26 26
        E 192 91 26 00
        E 314 91 26 30
        E 234 91 26 00
        E 341 91 26 2c
        E 215 91 26 00
        E 328 91 26 3a
        E 247 91 26 00
        E 243 91 26 3a
        E 93 91 26 00
        E 43 91 28 33
        E 268 91 28 00
        E 244 91 28 28
        E 259 91 28 00
        E 295 91 28 33
        E 241 91 28 00
        E 280 91 28 3a
        E 266 91 28 00
        E 271 91 28 30
        E 238 91 28 00
        E 293 91 28 36
        E 229 91 28 00
        E 252 91 28 30
        E 258 91 28 00
        E 283 91 28 3e
        E 300 91 28 00
        E 310 91 24 54
        E 190 91 24 00
        E 304 91 24 3a
        E 182 91 24 00
        E 352 91 24 43
        E 169 91 24 00
        E 341 91 24 54
        E 203 91 24 00
        E 368 91 24 48
        E 183 91 24 00
        E 319 91 24 36
        E 196 91 24 00
        E 335 91 24 30
        E 191 91 24 00
        E 256 91 24 33
        E 406 91 24 00
        E 452 91 40 48
        E 7 91 43 30
        E 5 91 3c 43
        E 3636 91 40 00
        E 42 91 3c 00
        E 1 91 43 00
        E 660 91 41 3a
        E 5 91 3e 5b
        E 9 91 3b 43
        E 3489 91 3b 00
        E 5 91 3e 00
        E 56 91 41 00
        E 4964 91 43 3e
        E 10 91 40 2c
        E 12 91 47 28
        E 1183 91 43 00
        E 4 91 40 00
        E 4 91 47 00
        E 382 91 45 2e
        E 5 91 41 48
        E 22 91 3e 33
        E 8547 91 45 00
        E 154 91 47 06
        E 7981 91 47 00
        E 328 91 48 1b
        E 4233 91 48 00
        E 152 91 47 28
        E 3866 91 41 00
        E 2 91 47 00
        E 18 91 3e 00
        E 320 91 41 33
        E 15 91 47 24
        E 5 91 3e 20
        E 1399 91 45 05
        E 90 91 47 00
        E 3123 91 47 13
        E 447 91 45 00
        E 3403 91 48 0b
        E 25 91 47 00
        E 4182 91 48 00
        E 90 91 47 01
        E 4397 91 47 00
        E 538 91 47 1d
        E 945 91 47 00
        E 225 91 45 01
        E 4897 91 47 1d
        E 94 91 45 00
        E 3929 91 47 00
        E 147 91 48 36
        E 4172 91 47 1c
        E 97 91 48 00
        E 4006 91 47 00
        E 135 91 45 1e
        E 4143 91 45 00
        E 27 91 47 17
        E 4059 91 48 28
        E 345 91 47 00
        E 4168 91 48 00
        E 75 91 47 01
        E 3786 91 47 00
        E 268 91 47 19
        E 391 91 47 00
        E 786 91 45 1e
        E 2874 91 47 28
        E 95 91 45 00
        E 3848 91 47 00
        E 44 91 48 2a
        E 4252 91 47 20
        E 126 91 48 00
        E 3406 91 47 00
        E 22 91 41 00
        E 58 91 3e 00
        E 381 91 41 62
        E 5 91 47 48
        E 8 91 3e 33
        E 865 91 47 00
        E 287 91 45 26
        E 3115 91 47 2a
        E 154 91 45 00
        E 4090 91 47 00
        E 261 91 48 05
        E 17 91 47 03
        E 541 91 47 00
        E 3520 91 47 15
        E 51 91 48 00
        E 4136 91 3e 00
        E 34 91 41 00
        E 68 91 47 00
        E 97 91 26 2e
        E 304 91 26 00
        E 246 91 26 1b
        E 351 91 26 00
        E 669 91 26 1b
        E 485 91 26 00
        E 604 91 26 1c
        E 271 91 26 00
        E 364 91 26 26
        E 469 91 26 00
        E 617 91 26 28
        E 287 91 26 00
        E 282 91 26 28
        E 455 91 26 00
        E 505 91 26 1d
        E 555 91 26 00
        E 404 91 26 26
        E 331 91 26 00
        E 261 91 26 24
        E 507 91 26 00
        E 510 91 26 2a
        E 309 91 26 00
        E 264 91 26 24
        E 333 91 26 00
        E 732 91 26 33
        E 447 91 26 00
        E 618 91 26 33
        E 300 91 26 00
        E 331 91 26 3a
        E 442 91 26 00
        E 628 91 26 43
        E 297 91 26 00
        E 314 91 26 3a
        E 390 91 26 00
        E 652 91 26 43
        E 558 91 26 00
        E 476 91 26 3e
        E 294 91 26 00
        E 283 91 26 43
        E 486 91 26 00
        E 449 91 26 48
        E 302 91 26 00
        E 300 91 26 43
        E 411 91 26 00
        E 573 91 26 43
        E 608 91 26 00
        E 577 91 26 4e
        E 278 91 26 00
        E 329 91 26 3e
        E 466 91 26 00
        E 549 91 26 54
        E 280 91 26 00
        E 338 91 26 43
        E 246 91 26 00
        E 721 91 26 54
        E 540 91 26 00
        E 529 91 26 54
        E 220 91 26 00
        E 324 91 26 4e
        E 435 91 26 00
        E 520 91 26 54
        E 273 91 26 00
        E 273 91 26 3a
        E 331 91 26 00
        E 799 91 26 54
        E 479 91 26 00
        E 616 91 26 54
        E 490 91 26 00
        E 563 91 26 5b
        E 597 91 26 00
        E 527 91 26 5b
        E 239 91 26 00
        E 304 91 26 48
        E 541 91 26 00
        E 508 91 26 5b
        E 471 91 26 00
        E 572 91 26 54
        E 271 91 26 00
        E 271 91 26 33
        E 185 91 26 00
        E 349 91 26 54
        E 731 91 26 00
        E 958 91 26 62
        E 537 91 26 00
        E 547 91 26 5b
        E 565 91 26 00
        E 491 91 26 54
        E 621 91 26 00
        E 464 91 26 5b
        E 273 91 26 00
        E 309 91 26 5b
        E 524 91 26 00
        E 462 91 26 5b
        E 623 91 26 00
        E 478 91 26 62
        E 287 91 26 00
        E 276 91 26 3e
        E 184 91 26 00
        E 333 91 26 54
        E 776 91 26 00
        E 698 91 26 5b
        E 698 91 26 00
        E 503 91 26 5b
        E 610 91 26 00
        E 393 91 26 54
        E 678 91 26 00
        E 483 91 26 62
        E 283 91 26 00
        E 355 91 26 43
        E 522 91 26 00
        E 1061 91 26 62
        E 260 91 26 00
        E 302 91 26 4e
        E 399 91 26 00
        E 560 91 26 5b
        E 701 91 26 00
        E 909 91 26 62
        E 536 91 26 00
        E 531 91 26 54
        E 455 91 26 00
        E 531 91 26 54
        E 641 91 26 00
        E 459 91 26 5b
        E 268 91 26 00
        E 372 91 26 5b
        E 598 91 26 00
        E 975 91 26 62
        E 234 91 26 00
        E 271 91 26 54
        E 481 91 26 00
        E 589 91 26 62
        E 684 91 26 00
        E 833 91 26 4e
        E 534 91 26 00
        E 512 91 26 62
        E 527 91 26 00
        E 580 91 26 5b
        E 592 91 26 00
        E 469 91 26 54
        E 234 91 26 00
        E 278 91 26 4e
        E 591 91 26 00
        E 957 91 26 48
        E 246 91 26 00
        E 334 91 26 48
        E 379 91 26 00
        E 800 91 3e 43
        E 14 91 26 43
        E 332 91 26 00
        E 84 91 3e 00
        E 1118 91 26 36
        E 37 91 3e 48
        E 391 91 26 00
        E 116 91 3e 00
        E 474 91 3e 54
        E 14 91 26 48
        E 445 91 26 00
        E 68 91 3e 00
        E 514 91 26 43
        E 7 91 3e 48
        E 616 91 26 00
        E 10 91 3e 00
        E 457 91 26 3a
        E 24 91 3e 4e
        E 157 91 26 00
        E 61 91 3e 00
        E 316 91 3e 43
        E 46 91 26 54
        E 335 91 3e 00
        E 35 91 26 00
        E 1556 91 3e 33
        E 7 91 26 2c
        E 507 91 26 00
        E 24 91 3e 00
        E 682 91 26 48
        E 9 91 3e 4e
        E 425 91 26 00
        E 51 91 3e 00
        E 1135 91 3e 4e
        E 5 91 26 3a
        E 407 91 26 00
        E 69 91 3e 00
        E 522 91 3e 43
        E 8 91 26 43
        E 417 91 26 00
        E 44 91 3e 00
        E 495 91 3e 48
        E 46 91 26 43
        E 480 91 26 00
        E 66 91 3e 00
        E 493 91 26 3e
        E 32 91 3e 48
        E 166 91 26 00
        E 45 91 3e 00
        E 315 91 3e 43
        E 34 91 26 3e
        E 324 91 26 00
        E 13 91 3e 00
        E 1707 91 3e 36
        E 55 91 26 20
        E 283 91 3e 00
        E 53 91 26 00
        E 836 91 41 16
        E 27 91 26 1c
        E 4 91 3e 08
        E 393 91 26 00
        E 119 91 41 00
        E 5 91 3e 00
        E 1018 91 45 2e
        E 5 91 26 14
        E 4 91 41 36
        E 17 91 3e 1d
        E 350 91 26 00
        E 29 91 41 00
        E 18 91 45 00
        E 14 91 3e 00
        E 575 91 26 24
        E 43 91 45 30
        E 7 91 41 3e
        E 15 91 3e 24
        E 338 91 41 00
        E 2 91 45 00
        E 10 91 26 00
        E 51 91 3e 00
        E 553 91 26 28
        E 5 91 45 36
        E 5 91 41 48
        E 10 91 3e 28
        E 449 91 45 00
        E 16 91 26 00
        E 3 91 41 00
        E 56 91 3e 00
        E 509 91 26 30
        E 37 91 41 48
        E 7 91 3e 30
        E 5 91 45 33
        E 152 91 45 00
        E 5 91 41 00
        E 31 91 26 00
        E 2 91 3e 00
        E 303 91 3e 33
        E 5 91 41 4e
        E 5 91 45 36
        E 33 91 26 3a
        E 247 91 41 00
        E 10 91 45 00
        E 62 91 3e 00
        E 48 91 26 00
        E 2736 91 41 36
        E 16 91 26 3a
        E 8 91 45 20
        E 5 91 3e 1d
        E 338 91 45 00
        E 63 91 41 00
        E 39 91 3e 00
        E 62 91 26 00
        E 1145 91 41 43
        E 5 91 45 36
        E 7 91 3e 30
        E 5 91 26 28
        E 329 91 41 00
        E 5 91 45 00
        E 50 91 3e 00
        E 3 91 26 00
        E 669 91 45 3a
        E 7 91 41 43
        E 5 91 3e 2e
        E 19 91 26 33
        E 264 91 41 00
        E 17 91 26 00
        E 0 91 45 00
        E 21 91 3e 00
        E 740 91 45 43
        E 7 91 41 4e
        E 14 91 3e 30
        E 29 91 26 2c
        E 5 91 24 2a
        E 307 91 24 00
        E 5 91 41 00
        E 11 91 45 00
        E 3 91 26 00
        E 17 91 3e 00
        E 894 91 26 2e
        E 5 91 41 3e
        E 7 91 3e 26
        E 5 91 45 24
        E 193 91 41 00
        E 5 91 45 00
        E 17 91 3e 00
        E 20 91 26 00
        E 277 91 45 33
        E 5 91 41 3e
        E 10 91 3e 2e
        E 5 91 26 3a
        E 280 91 45 00
        E 2 91 41 00
        E 32 91 3e 00
        E 17 91 26 00
        E 3039 91 26 30
        E 7 91 43 43
        E 5 91 3e 20
        E 12 91 47 22
        E 5 91 45 22
        E 362 91 45 00
        E 24 91 47 00
        E 22 91 43 00
        E 66 91 3e 00
        E 21 91 26 00
        E 1249 91 26 2e
        E 7 91 43 3e
        E 5 91 3e 2c
        E 5 91 47 1e
        E 421 91 43 00
        E 7 91 47 00
        E 24 91 26 00
        E 51 91 3e 00
        E 553 91 43 36
        E 7 91 47 2c
        E 5 91 3e 1d
        E 12 91 26 2e
        E 432 91 47 00
        E 8 91 43 00
        E 53 91 3e 00
        E 44 91 26 00
        E 661 91 45 3a
        E 10 91 41 3e
        E 7 91 3e 22
        E 19 91 26 30
        E 453 91 41 00
        E 28 91 45 00
        E 15 91 26 00
        E 15 91 3e 00
        E 594 91 26 30
        E 7 91 45 36
        E 4 91 3e 24
        E 5 91 41 33
        E 174 91 41 00
        E 15 91 45 00
        E 12 91 3e 00
        E 4 91 26 00
        E 363 91 45 3e
        E 5 91 41 48
        E 5 91 26 3e
        E 8 91 3e 2e
        E 323 91 45 00
        E 8 91 41 00
        E 28 91 3e 00
        E 41 91 26 00
        E 3117 91 41 48
        E 5 91 45 36
        E 7 91 3e 2c
        E 7 91 26 3a
        E 428 91 45 00
        E 5 91 41 00
        E 58 91 3e 00
        E 3 91 26 00
        E 1176 91 26 3e
        E 14 91 41 43
        E 7 91 45 3e
        E 8 91 3e 30
        E 403 91 45 00
        E 17 91 41 00
        E 27 91 26 00
        E 65 91 3e 00
        E 541 91 41 48
        E 5 91 45 3a
        E 5 91 3e 2e
        E 14 91 26 33
        E 370 91 45 00
        E 19 91 41 00
        E 54 91 26 00
        E 6 91 3e 00
        E 670 91 41 62
        E 7 91 45 5b
        E 5 91 26 5b
        E 5 91 3e 3a
        E 302 91 41 00
        E 5 91 45 00
        E 68 91 3e 00
        E 21 91 26 00
        E 1631 91 26 3a
        E 23 91 41 43
        E 5 91 3e 2c
        E 8 91 45 36
        E 488 91 45 00
        E 2 91 41 00
        E 63 91 3e 00
        E 34 91 26 00
        E 512 91 26 2e
        E 22 91 41 43
        E 12 91 3e 22
        E 8 91 45 28
        E 159 91 45 00
        E 2 91 41 00
        E 22 91 3e 00
        E 5 91 26 00
        E 333 91 26 3e
        E 10 91 41 43
        E 5 91 45 3e
        E 9 91 3e 26
        E 344 91 41 00
        E 4 91 45 00
        E 5 91 3e 00
        E 53 91 26 00
        E 542 91 26 43
        E 19 91 45 54
        E 5 91 41 54
        E 14 91 3e 36
        E 329 91 45 00
        E 14 91 3e 00
        E 2 91 41 00
        E 44 91 26 00
        E 1174 91 45 3e
        E 5 91 41 48
        E 12 91 3e 30
        E 7 91 26 3e
        E 372 91 45 00
        E 44 91 41 00
        E 46 91 3e 00
        E 41 91 26 00
        E 515 91 26 3a
        E 35 91 41 43
        E 6 91 45 3e
        E 9 91 3e 24
        E 143 91 26 00
        E 2 91 45 00
        E 5 91 41 00
        E 22 91 3e 00
        E 292 91 26 3a
        E 14 91 41 4e
        E 6 91 3e 30
        E 7 91 45 48
        E 319 91 45 00
        E 4 91 41 00
        E 10 91 26 00
        E 32 91 3e 00
        E 560 91 26 3e
        E 58 91 45 43
        E 5 91 41 48
        E 12 91 3e 2a
        E 365 91 45 00
        E 9 91 41 00
        E 44 91 3e 00
        E 38 91 26 00
        E 1035 91 26 43
        E 11 91 45 3e
        E 5 91 41 54
        E 6 91 3e 3e
        E 388 91 45 00
        E 3 91 41 00
        E 34 91 26 00
        E 74 91 3e 00
        E 631 91 41 54
        E 5 91 45 33
        E 5 91 3e 2c
        E 16 91 26 43
        E 185 91 41 00
        E 7 91 45 00
        E 2 91 26 00
        E 2 91 3e 00
        E 249 91 45 2e
        E 8 91 41 2e
        E 8 91 3e 22
        E 13 91 26 30
        E 215 91 3e 00
        E 14 91 41 00
        E 15 91 45 00
        E 136 91 26 00
        E 592 91 43 54
        E 7 91 47 43
        E 5 91 40 36
        E 3754 91 47 00
        E 22 91 43 00
        E 53 91 40 00
        E 560 91 41 48
        E 5 91 45 36
        E 17 91 3e 22
        E 13406 b1 01 7e
        E 68 b1 01 7d
        E 68 b1 01 7c
        E 67 b1 01 7b
        E 71 b1 01 7a
        E 67 b1 01 79
        E 138 b1 01 78
        E 67 b1 01 77
        E 70 b1 01 76
        E 68 b1 01 75
        E 68 b1 01 74
        E 103 b1 01 73
        E 34 b1 01 72
        E 68 b1 01 71
        E 68 b1 01 70
        E 70 b1 01 6f
        E 33 b1 01 6e
        E 71 b1 01 6d
        E 67 b1 01 6b
        E 68 b1 01 6a
        E 34 b1 01 69
        E 33 b1 01 68
        E 37 b1 01 67
        E 68 b1 01 66
        E 33 b1 01 65
        E 70 b1 01 64
        E 32 b1 01 63
        E 70 b1 01 62
        E 68 b1 01 61
        E 67 b1 01 60
        E 70 b1 01 5f
        E 68 b1 01 5e
        E 104 b1 01 5d
        E 139 b1 01 5c
        E 97 b1 01 5b
        E 71 b1 01 5a
        E 101 b1 01 59
        E 70 b1 01 58
        E 68 b1 01 57
        E 67 b1 01 56
        E 70 b1 01 55
        E 35 b1 01 54
        E 67 b1 01 52
        E 67 b1 01 51
        E 71 b1 01 4f
        E 34 b1 01 4e
        E 33 b1 01 4d
        E 68 b1 01 4b
        E 35 b1 01 4a
        E 35 b1 01 49
        E 68 b1 01 47
        E 33 b1 01 46
        E 71 b1 01 45
        E 33 b1 01 43
        E 34 b1 01 42
        E 68 b1 01 41
        E 67 b1 01 3f
        E 71 b1 01 3e
        E 70 b1 01 3d
        E 101 b1 01 3b
        E 33 b1 01 3a
        E 37 b1 01 39
        E 34 b1 01 38
        E 34 b1 01 37
        E 34 b1 01 36
        E 36 b1 01 35
        E 31 b1 01 34
        E 37 b1 01 32
        E 31 b1 01 31
        E 36 b1 01 2f
        E 34 b1 01 2d
        E 34 b1 01 2b
        E 34 b1 01 29
        E 36 b1 01 27
        E 31 b1 01 25
        E 36 b1 01 23
        E 34 b1 01 21
        E 34 b1 01 1f
        E 34 b1 01 1d
        E 33 b1 01 1b
        E 37 b1 01 18
        E 34 b1 01 16
        E 34 b1 01 13
        E 34 b1 01 12
        E 34 b1 01 10
        E 137 b1 01 0f
        E 1094 b1 01 10
        E 68 b1 01 11
        E 68 b1 01 13
        E 36 b1 01 15
        E 33 b1 01 18
        E 34 b1 01 1b
        E 34 b1 01 1d
        E 37 b1 01 1f
        E 34 b1 01 20
        E 33 b1 01 22
        E 34 b1 01 24
        E 34 b1 01 26
        E 33 b1 01 28
        E 35 b1 01 2b
        E 36 b1 01 2d
        E 34 b1 01 30
        E 34 b1 01 32
        E 33 b1 01 34
        E 34 b1 01 35
        E 36 b1 01 37
        E 32 b1 01 38
        E 36 b1 01 3a
        E 37 b1 01 3b
        E 31 b1 01 3c
        E 33 b1 01 3d
        E 37 b1 01 3e
        E 34 b1 01 3f
        E 33 b1 01 40
        E 34 b1 01 42
        E 34 b1 01 43
        E 36 b1 01 45
        E 34 b1 01 47
        E 34 b1 01 49
        E 34 b1 01 4b
        E 36 b1 01 4d
        E 32 b1 01 4f
        E 36 b1 01 52
        E 33 b1 01 55
        E 34 b1 01 57
        E 34 b1 01 5a
        E 34 b1 01 5b
        E 34 b1 01 5e
        E 36 b1 01 60
        E 32 b1 01 62
        E 35 b1 01 64
        E 34 b1 01 66
        E 34 b1 01 67
        E 35 b1 01 69
        E 33 b1 01 6a
        E 36 b1 01 6b
        E 66 b1 01 6d
        E 69 b1 01 6f
        E 34 b1 01 70
        E 37 b1 01 71
        E 33 b1 01 72
        E 33 b1 01 73
        E 37 b1 01 75
        E 32 b1 01 76
        E 36 b1 01 78
        E 32 b1 01 79
        E 36 b1 01 7a
        E 33 b1 01 7c
        E 34 b1 01 7e
        E 34 b1 01 7f
        E 2095 91 41 00
        E 5 91 45 00
        E 62 91 3e 00
        E 9569 b0 7b 00
        GUID {390E2E7C-06D7-4AB8-B337-7DEF8CCA6748}
        IGNTEMPO 0 120 4 4
        SRCCOLOR 493
      >
    >
    <ITEM
      POSITION 213.71131273815368
      SNAPOFFS 0
      LENGTH 303.54252577319585
      LOOP 1
      ALLTAKES 0
      FADEIN 1 0 0 1 0 0
      FADEOUT 1 0 0 1 0 0
      MUTE 0
      SEL 0
      IGUID {00A8AFC9-3C2B-4AAF-933E-38D66457A49B}
      IID 9
      NAME "08-keys midi-Recorded MIDI"
      VOLPAN 1 0 1 -1
      SOFFS 0 0
      PLAYRATE 1 1 0 -1 0 0.0025
      CHANMODE 0
      GUID {FEF0F8F9-984E-4108-A9B6-28EAB111F7EB}
      RECPASS 3
      <SOURCE MIDI
        HASDATA 1 960 QN
        POOLEDEVTS {E7EA2048-9DAE-44D0-AE98-F8F05A56B3EA}
        E 88 91 2b 00
        E 10 91 43 6a
        E 715 91 2b 4e
        E 19 91 43 00
        E 408 91 41 5b
        E 13 91 2b 00
        E 1200 91 2b 4e
        E 20 91 41 00
        E 331 91 2b 00
        E 50 91 43 54
        E 382 91 2b 5b
        E 15 91 43 00
        E 326 91 2b 00
        E 14 91 41 5b
        E 452 91 41 00
        E 39 91 2b 5b
        E 371 91 47 72
        E 107 91 2b 00
        E 763 91 2b 5b
        E 148 91 47 00
        E 140 91 2b 00
        E 508 91 2b 62
        E 410 91 2b 00
        E 32 91 43 54
        E 775 91 2b 6a
        E 27 91 43 00
        E 369 91 2b 00
        E 3 91 41 6a
        E 1246 91 41 00
        E 3 91 2b 62
        E 362 91 2b 00
        E 53 91 43 62
        E 421 91 2b 62
        E 21 91 43 00
        E 314 91 2b 00
        E 7 91 41 5b
        E 387 91 2b 5b
        E 30 91 41 00
        E 366 91 3e 62
        E 32 91 2b 00
        E 814 91 2b 5b
        E 133 91 3e 00
        E 188 91 2b 00
        E 469 91 2b 72
        E 462 91 2b 00
        E 16 91 43 6a
        E 745 91 2b 6a
        E 17 91 43 00
        E 415 91 2b 00
        E 8 91 41 72
        E 1280 91 2b 62
        E 15 91 41 00
        E 335 91 2b 00
        E 68 91 43 62
        E 391 91 2b 62
        E 46 91 43 00
        E 277 91 2b 00
        E 8 91 41 6a
        E 478 91 41 00
        E 54 91 2b 5b
        E 364 91 47 72
        E 99 91 2b 00
        E 802 91 2b 62
        E 152 91 47 00
        E 177 91 2b 00
        E 479 91 2b 6a
        E 383 91 43 72
        E 71 91 2b 00
        E 736 91 2b 5b
        E 39 91 43 00
        E 343 91 41 6a
        E 18 91 2b 00
        E 1176 91 41 00
        E 31 91 2b 54
        E 360 91 2b 00
        E 8 91 43 6a
        E 410 91 2b 54
        E 34 91 43 00
        E 321 91 41 62
        E 8 91 2b 00
        E 459 91 41 00
        E 4 91 2b 5b
        E 377 91 3e 72
        E 78 91 2b 00
        E 787 91 2b 62
        E 49 91 3e 00
        E 311 91 2b 00
        E 441 91 2b 6a
        E 419 91 2b 00
        E 3 91 43 6a
        E 667 91 2b 62
        E 14 91 43 00
        E 413 91 41 72
        E 8 91 2b 00
        E 1135 91 41 00
        E 61 91 2b 43
        E 352 91 2b 00
        E 3 91 43 72
        E 364 91 43 00
        E 34 91 2b 54
        E 334 91 2b 00
        E 21 91 41 62
        E 452 91 41 00
        E 70 91 2b 62
        E 365 91 47 7f
        E 73 91 2b 00
        E 792 91 2b 6a
        E 36 91 47 00
        E 331 91 2b 00
        E 469 91 2b 6a
        E 375 91 43 6a
        E 38 91 2b 00
        E 727 91 2b 62
        E 17 91 43 00
        E 385 91 41 6a
        E 4 91 2b 00
        E 1138 91 2b 3e
        E 12 91 41 00
        E 377 91 2b 00
        E 26 91 43 72
        E 409 91 2b 5b
        E 17 91 43 00
        E 321 91 2b 00
        E 32 91 41 6a
        E 413 91 2b 54
        E 11 91 41 00
        E 349 91 3e 72
        E 91 91 2b 00
        E 754 91 3e 00
        E 7 91 2b 6a
        E 375 91 2b 00
        E 411 91 2b 62
        E 405 91 2b 00
        E 10 91 43 72
        E 731 91 2b 62
        E 16 91 43 00
        E 396 91 2b 00
        E 31 91 41 7a
        E 1122 91 41 00
        E 29 91 2b 54
        E 362 91 2b 00
        E 22 91 43 6a
        E 379 91 43 00
        E 39 91 2b 62
        E 333 91 2b 00
        E 19 91 41 72
        E 394 91 41 00
        E 82 91 2b 4e
        E 353 91 47 72
        E 72 91 2b 00
        E 851 91 2b 6a
        E 111 91 47 00
        E 164 91 2b 00
        E 464 91 2b 72
        E 420 91 2b 00
        E 15 91 43 62
        E 681 91 43 00
        E 51 91 2b 6a
        E 391 91 41 7a
        E 41 91 2b 00
        E 1169 91 2b 5b
        E 11 91 41 00
        E 335 91 2b 00
        E 51 91 43 6a
        E 382 91 43 00
        E 34 91 2b 54
        E 331 91 2b 00
        E 27 91 41 72
        E 439 91 41 00
        E 77 91 2b 62
        E 319 91 3e 7a
        E 75 91 2b 00
        E 799 91 3e 00
        E 8 91 2b 72
        E 389 91 2b 00
        E 431 91 2b 6a
        E 419 91 43 7a
        E 42 91 2b 00
        E 707 91 2b 5b
        E 20 91 43 00
        E 386 91 41 72
        E 61 91 2b 00
        E 1084 91 41 00
        E 17 91 2b 54
        E 391 91 2b 00
        E 18 91 43 72
        E 430 91 43 00
        E 4 91 2b 5b
        E 348 91 41 72
        E 13 91 2b 00
        E 403 91 41 00
        E 91 91 2b 54
        E 346 91 47 7a
        E 113 91 2b 00
        E 798 91 2b 6a
        E 104 91 47 00
        E 203 91 2b 00
        E 515 91 2b 6a
        E 422 91 43 6a
        E 46 91 2b 00
        E 728 91 43 00
        E 58 91 2b 6a
        E 372 91 41 7a
        E 62 91 2b 00
        E 1008 91 41 00
        E 101 91 2b 5b
        E 314 91 2b 00
        E 24 91 43 6a
        E 420 91 43 00
        E 15 91 2b 62
        E 360 91 2b 00
        E 2 91 41 6a
        E 402 91 41 00
        E 26 91 2b 54
        E 353 91 3e 7a
        E 94 91 2b 00
        E 713 91 2b 62
        E 29 91 3e 00
        E 324 91 2b 00
        E 470 91 2b 6a
        E 417 91 2b 00
        E 4 91 43 72
        E 660 91 43 00
        E 84 91 2b 5b
        E 386 91 41 7a
        E 44 91 2b 00
        E 1095 91 41 00
        E 101 91 2b 54
        E 346 91 43 72
        E 14 91 2b 00
        E 413 91 43 00
        E 17 91 2b 62
        E 379 91 41 7a
        E 17 91 2b 00
        E 375 91 41 00
        E 127 91 2b 5b
        E 320 91 47 7a
        E 73 91 2b 00
        E 729 91 47 00
        E 46 91 2b 62
        E 338 91 2b 00
        E 471 91 2b 72
        E 426 91 2b 00
        E 6 91 43 72
        E 767 91 2b 6a
        E 9 91 43 00
        E 443 91 2b 00
        E 7 91 41 7a
        E 1099 91 41 00
        E 2 91 2b 5b
        E 382 91 43 7a
        E 16 91 2b 00
        E 382 91 43 00
        E 65 91 2b 62
        E 319 91 41 6a
        E 54 91 2b 00
        E 410 91 41 00
        E 59 91 2b 62
        E 360 91 3e 72
        E 135 91 2b 00
        E 746 91 2b 4e
        E 80 91 3e 00
        E 397 91 2b 00
        E 308 91 2b 54
        E 484 91 43 7a
        E 34 91 2b 00
        E 739 91 43 00
        E 2 91 2b 62
        E 423 91 41 7a
        E 41 91 2b 00
        E 1141 91 41 00
        E 90 91 2b 6a
        E 349 91 2b 00
        E 39 91 43 72
        E 393 91 2b 5b
        E 25 91 43 00
        E 362 91 2b 00
        E 3 91 41 6a
        E 464 91 41 00
        E 67 91 2b 62
        E 356 91 47 5b
        E 4 91 48 62
        E 63 91 2b 00
        E 681 91 48 00
        E 112 91 2b 6a
        E 135 91 47 00
        E 176 91 2b 00
        E 556 91 2b 72
        E 377 91 2b 00
        E 21 91 43 72
        E 670 91 43 00
        E 86 91 2b 6a
        E 377 91 41 7a
        E 46 91 2b 00
        E 1215 91 41 00
        E 10 91 2b 62
        E 348 91 2b 00
        E 32 91 43 72
        E 396 91 43 00
        E 67 91 2b 6a
        E 363 91 2b 00
        E 3 91 41 6a
        E 422 91 41 00
        E 68 91 2b 62
        E 331 91 3e 6a
        E 68 91 2b 00
        E 357 91 3e 00
        E 459 91 2b 62
        E 372 91 2b 00
        E 403 91 2b 62
        E 426 91 43 62
        E 5 91 45 62
        E 16 91 2b 00
        E 670 91 45 00
        E 19 91 43 00
        E 31 91 2b 43
        E 448 91 41 62
        E 20 91 2b 00
        E 1313 91 2b 30
        E 84 91 41 00
        E 295 91 43 4e
        E 29 91 2b 00
        E 419 91 2b 3e
        E 31 91 43 00
        E 367 91 41 5b
        E 21 91 2b 00
        E 390 91 2b 3a
        E 26 91 41 00
        E 360 91 45 43
        E 5 91 47 54
        E 7 91 2b 00
        E 730 91 45 00
        E 21 91 47 00
        E 124 91 2b 4e
        E 341 91 2b 00
        E 495 91 2b 62
        E 401 91 2b 00
        E 13 91 45 6a
        E 802 91 45 00
        E 18 91 2b 62
        E 409 91 43 7a
        E 31 91 2b 00
        E 1201 91 2b 5b
        E 74 91 43 00
        E 319 91 2b 00
        E 37 91 41 6a
        E 396 91 2b 48
        E 43 91 41 00
        E 316 91 2b 00
        E 42 91 43 6a
        E 1667 91 43 00
        E 112 91 2b 3e
        E 311 91 2b 00
        E 534 91 2b 72
        E 384 91 45 72
        E 63 91 2b 00
        E 739 91 45 00
        E 12 91 2b 5b
        E 408 91 43 72
        E 35 91 2b 00
        E 1244 91 2b 5b
        E 62 91 43 00
        E 307 91 2b 00
        E 7 91 45 6a
        E 438 91 2b 54
        E 43 91 45 00
        E 317 91 2b 00
        E 16 91 43 72
        E 1281 91 43 00
        E 467 91 2b 4e
        E 345 91 2b 00
        E 362 91 2b 54
        E 391 91 41 6a
        E 77 91 2b 00
        E 685 91 2b 48
        E 62 91 41 00
        E 315 91 2b 00
        E 43 91 40 5b
        E 1679 91 2b 33
        E 278 91 40 00
        E 713 91 40 54
        E 41 91 2b 00
        E 384 91 2b 3e
        E 19 91 40 00
        E 322 91 40 4e
        E 12 91 2b 00
        E 442 91 2b 5b
        E 53 91 40 00
        E 510 91 2b 00
        E 685 91 2b 4e
        E 458 91 43 4e
        E 66 91 2b 00
        E 651 91 43 00
        E 63 91 2b 4e
        E 389 91 41 6a
        E 80 91 2b 00
        E 1333 91 2b 30
        E 71 91 41 00
        E 296 91 2b 00
        E 20 91 43 5b
        E 379 91 2b 48
        E 29 91 43 00
        E 355 91 41 6a
        E 43 91 2b 00
        E 361 91 41 00
        E 15 91 2b 3e
        E 390 91 47 72
        E 140 91 2b 00
        E 670 91 2b 54
        E 55 91 47 00
        E 368 91 2b 00
        E 444 91 2b 5b
        E 466 91 43 72
        E 71 91 2b 00
        E 674 91 2b 54
        E 29 91 43 00
        E 430 91 41 72
        E 132 91 2b 00
        E 1223 91 2b 48
        E 94 91 41 00
        E 300 91 43 5b
        E 51 91 2b 00
        E 372 91 2b 43
        E 21 91 43 00
        E 373 91 2b 00
        E 2 91 41 6a
        E 432 91 2b 3e
        E 17 91 41 00
        E 372 91 3e 62
        E 90 91 2b 00
        E 771 91 2b 5b
        E 185 91 3e 00
        E 153 91 2b 00
        E 485 91 2b 6a
        E 402 91 43 62
        E 74 91 2b 00
        E 663 91 43 00
        E 84 91 2b 5b
        E 370 91 41 72
        E 156 91 2b 00
        E 1197 91 2b 26
        E 72 91 41 00
        E 345 91 43 6a
        E 22 91 2b 00
        E 387 91 43 00
        E 38 91 2b 54
        E 363 91 41 6a
        E 24 91 2b 00
        E 437 91 41 00
        E 26 91 2b 48
        E 378 91 47 6a
        E 82 91 2b 00
        E 736 91 2b 62
        E 92 91 47 00
        E 278 91 2b 00
        E 474 91 2b 62
        E 401 91 43 62
        E 53 91 2b 00
        E 785 91 2b 6a
        E 7 91 43 00
        E 403 91 41 72
        E 151 91 2b 00
        E 1094 91 41 00
        E 12 91 2b 4e
        E 380 91 43 6a
        E 14 91 2b 00
        E 428 91 43 00
        E 34 91 2b 54
        E 357 91 41 54
        E 46 91 2b 00
        E 373 91 41 00
        E 59 91 2b 54
        E 297 91 3e 72
        E 157 91 2b 00
        E 402 91 3e 00
        E 351 91 2b 62
        E 325 91 2b 00
        E 471 91 2b 6a
        E 421 91 45 72
        E 45 91 2b 00
        E 790 91 2b 54
        E 78 91 45 00
        E 355 91 43 72
        E 8 91 2b 00
        E 1272 91 2b 48
        E 73 91 43 00
        E 297 91 2b 00
        E 12 91 45 5b
        E 401 91 2b 5b
        E 58 91 45 00
        E 302 91 2b 00
        E 17 91 43 72
        E 1150 91 43 00
        E 556 91 2b 43
        E 396 91 2b 00
        E 399 91 2b 6a
        E 473 91 45 72
        E 7 91 2b 00
        E 824 91 2b 4e
        E 95 91 45 00
        E 316 91 2b 00
        E 65 91 43 7a
        E 1358 91 2b 54
        E 159 91 43 00
        E 230 91 2b 00
        E 51 91 45 6a
        E 442 91 2b 62
        E 75 91 45 00
        E 321 91 43 72
        E 53 91 2b 00
        E 986 91 43 00
        E 1420 91 2b 1d
        E 508 91 45 6a
        E 75 91 2b 00
        E 713 91 2b 28
        E 29 91 45 00
        E 403 91 43 7a
        E 53 91 2b 00
        E 1230 91 2b 3e
        E 162 91 43 00
        E 302 91 45 62
        E 24 91 2b 00
        E 406 91 2b 5b
        E 123 91 45 00
        E 294 91 43 72
        E 121 91 2b 00
        E 576 91 43 00
        E 1075 91 2b 48
        E 500 91 2b 00
        E 345 91 2b 62
        E 471 91 45 62
        E 138 91 2b 00
        E 635 91 2b 4e
        E 70 91 45 00
        E 375 91 43 7a
        E 109 91 2b 00
        E 1166 91 2b 62
        E 71 91 43 00
        E 280 91 2b 00
        E 29 91 45 6a
        E 416 91 2b 62
        E 118 91 45 00
        E 292 91 43 72
        E 34 91 2b 00
        E 379 91 2b 48
        E 196 91 43 00
        E 446 91 2b 00
        E 622 91 2b 6a
        E 389 91 2b 00
        E 435 91 2b 6a
        E 423 91 2b 00
        E 43 91 43 72
        E 825 91 2b 62
        E 69 91 43 00
        E 346 91 2b 00
        E 8 91 41 6a
        E 1323 91 2b 36
        E 40 91 41 00
        E 329 91 2b 00
        E 36 91 43 62
        E 450 91 43 00
        E 2 91 2b 62
        E 372 91 41 6a
        E 25 91 2b 00
        E 451 91 41 00
        E 51 91 2b 62
        E 367 91 47 7a
        E 126 91 2b 00
        E 781 91 2b 62
        E 157 91 47 00
        E 188 91 2b 00
        E 459 91 2b 6a
        E 495 91 43 72
        E 65 91 2b 00
        E 774 91 2b 33
        E 4 91 43 00
        E 3 91 29 33
        E 437 91 41 7a
        E 19 91 29 00
        E 22 91 2b 00
        E 1094 91 41 00
        E 63 91 2b 33
        E 399 91 43 72
        E 54 91 2b 00
        E 415 91 43 00
        E 43 91 2b 62
        E 355 91 41 62
        E 37 91 2b 00
        E 396 91 41 00
        E 65 91 2b 62
        E 333 91 3e 7a
        E 97 91 2b 00
        E 541 91 3e 00
        E 249 91 2b 4e
        E 392 91 2b 00
        E 420 91 2b 62
        E 447 91 43 72
        E 58 91 2b 00
        E 693 91 43 00
        E 29 91 2b 36
        E 420 91 41 72
        E 104 91 2b 00
        E 1170 91 2b 2e
        E 72 91 41 00
        E 374 91 2b 00
        E 3 91 43 6a
        E 421 91 2b 33
        E 31 91 43 00
        E 353 91 41 6a
        E 18 91 2b 00
        E 400 91 41 00
        E 46 91 2b 3a
        E 388 91 47 72
        E 145 91 2b 00
        E 720 91 47 00
        E 29 91 2b 5b
        E 435 91 2b 00
        E 397 91 2b 5b
        E 454 91 43 7a
        E 58 91 2b 00
        E 717 91 2b 5b
        E 46 91 43 00
        E 399 91 41 72
        E 150 91 2b 00
        E 1046 91 2b 1e
        E 17 91 41 00
        E 415 91 43 6a
        E 10 91 2b 00
        E 435 91 43 00
        E 2 91 2b 4e
        E 377 91 41 6a
        E 46 91 2b 00
        E 406 91 41 00
        E 36 91 2b 54
        E 336 91 3e 72
        E 152 91 2b 00
        E 713 91 3e 00
        E 36 91 2b 54
        E 416 91 2b 00
        E 396 91 2b 5b
        E 439 91 43 6a
        E 76 91 2b 00
        E 657 91 43 00
        E 2 91 2b 5b
        E 471 91 41 7a
        E 145 91 2b 00
        E 959 91 41 00
        E 73 91 2b 2c
        E 372 91 43 72
        E 84 91 2b 00
        E 397 91 43 00
        E 24 91 2b 62
        E 348 91 41 72
        E 48 91 2b 00
        E 371 91 41 00
        E 49 91 2b 54
        E 380 91 47 72
        E 143 91 2b 00
        E 651 91 2b 48
        E 124 91 47 00
        E 314 91 2b 00
        E 448 91 2b 62
        E 470 91 43 62
        E 55 91 2b 00
        E 723 91 43 00
        E 36 91 2b 5b
        E 427 91 41 7a
        E 135 91 2b 00
        E 979 91 41 00
        E 102 91 2b 54
        E 379 91 43 7a
        E 60 91 2b 00
        E 404 91 43 00
        E 29 91 2b 54
        E 374 91 41 6a
        E 18 91 2b 00
        E 386 91 41 00
        E 48 91 2b 54
        E 327 91 3e 72
        E 173 91 2b 00
        E 471 91 3e 00
        E 244 91 2b 3e
        E 411 91 2b 00
        E 469 91 2b 62
        E 418 91 43 62
        E 67 91 2b 00
        E 660 91 43 00
        E 73 91 2b 54
        E 408 91 41 72
        E 140 91 2b 00
        E 1119 91 2b 43
        E 14 91 41 00
        E 401 91 43 72
        E 34 91 2b 00
        E 374 91 43 00
        E 8 91 2b 48
        E 348 91 41 6a
        E 80 91 2b 00
        E 345 91 41 00
        E 60 91 2b 54
        E 358 91 47 72
        E 145 91 2b 00
        E 734 91 2b 54
        E 105 91 47 00
        E 267 91 2b 00
        E 443 91 2b 5b
        E 430 91 43 6a
        E 96 91 2b 00
        E 643 91 43 00
        E 104 91 2b 3e
        E 355 91 41 72
        E 191 91 2b 00
        E 1027 91 41 00
        E 2 91 2b 4e
        E 355 91 43 5b
        E 53 91 2b 00
        E 365 91 43 00
        E 43 91 2b 48
        E 370 91 41 5b
        E 68 91 2b 00
        E 318 91 41 00
        E 158 91 2b 5b
        E 360 91 3e 7a
        E 118 91 2b 00
        E 259 91 3e 00
        E 483 91 2b 62
        E 401 91 2b 00
        E 383 91 2b 5b
        E 448 91 45 7a
        E 82 91 2b 00
        E 675 91 2b 43
        E 16 91 45 00
        E 440 91 43 7a
        E 89 91 2b 00
        E 1172 91 2b 4e
        E 147 91 43 00
        E 276 91 2b 00
        E 26 91 45 5b
        E 382 91 2b 4e
        E 63 91 45 00
        E 343 91 43 72
        E 12 91 2b 00
        E 1126 91 43 00
        E 587 91 2b 2e
        E 566 91 2b 00
        E 229 91 2b 48
        E 534 91 45 7a
        E 137 91 2b 00
        E 699 91 2b 54
        E 89 91 45 00
        E 340 91 2b 00
        E 27 91 43 7a
        E 1235 91 2b 30
        E 26 91 43 00
        E 411 91 45 6a
        E 53 91 2b 00
        E 438 91 2b 6a
        E 67 91 45 00
        E 341 91 43 7a
        E 62 91 2b 00
        E 583 91 43 00
        E 1131 91 2b 48
        E 456 91 2b 00
        E 319 91 2b 62
        E 454 91 45 62
        E 121 91 2b 00
        E 720 91 2b 62
        E 60 91 45 00
        E 404 91 43 7a
        E 85 91 2b 00
        E 1241 91 2b 54
        E 41 91 43 00
        E 355 91 45 62
        E 5 91 2b 00
        E 478 91 2b 72
        E 51 91 45 00
        E 324 91 43 72
        E 82 91 2b 00
        E 457 91 43 00
        E 1191 91 2b 62
        E 406 91 2b 00
        E 394 91 2b 6a
        E 493 91 45 72
        E 65 91 2b 00
        E 729 91 2b 5b
        E 29 91 45 00
        E 430 91 43 7a
        E 102 91 2b 00
        E 1106 91 2b 62
        E 29 91 43 00
        E 351 91 2b 00
        E 9 91 45 72
        E 484 91 2b 72
        E 38 91 45 00
        E 315 91 2b 00
        E 43 91 43 6a
        E 424 91 2b 62
        E 33 91 43 00
        E 410 91 41 7a
        E 34 91 2b 00
        E 507 91 41 00
        E 3 91 2b 5b
        E 401 91 2b 00
        E 857 91 2b 6a
        E 421 91 2b 00
        E 27 91 43 72
        E 702 91 43 00
        E 109 91 2b 5b
        E 442 91 41 7a
        E 82 91 2b 00
        E 1211 91 2b 54
        E 77 91 41 00
        E 358 91 2b 00
        E 14 91 43 54
        E 418 91 2b 5b
        E 53 91 43 00
        E 341 91 41 6a
        E 19 91 2b 00
        E 443 91 41 00
        E 12 91 2b 62
        E 408 91 47 7a
        E 84 91 2b 00
        E 863 91 2b 6a
        E 145 91 47 00
        E 208 91 2b 00
        E 524 91 2b 72
        E 435 91 43 7a
        E 7 91 2b 00
        E 783 91 43 00
        E 46 91 2b 6a
        E 428 91 41 7a
        E 52 91 2b 00
        E 1240 91 2b 5b
        E 93 91 41 00
        E 359 91 2b 00
        E 12 91 43 5b
        E 434 91 2b 6a
        E 15 91 43 00
        E 363 91 41 6a
        E 65 91 2b 00
        E 383 91 41 00
        E 13 91 2b 54
        E 329 91 3e 72
        E 207 91 2b 00
        E 669 91 3e 00
        E 41 91 2b 72
        E 397 91 2b 00
        E 428 91 2b 72
        E 466 91 43 7a
        E 10 91 2b 00
        E 789 91 43 00
        E 64 91 2b 5b
        E 391 91 41 7a
        E 89 91 2b 00
        E 1215 91 2b 54
        E 119 91 41 00
        E 316 91 2b 00
        E 3 91 43 62
        E 413 91 2b 5b
        E 49 91 43 00
        E 320 91 41 6a
        E 58 91 2b 00
        E 392 91 41 00
        E 36 91 2b 54
        E 331 91 47 7f
        E 266 91 2b 00
        E 655 91 47 00
        E 24 91 2b 62
        E 388 91 2b 00
        E 407 91 2b 54
        E 483 91 43 6a
        E 48 91 2b 00
        E 817 91 2b 62
        E 53 91 43 00
        E 439 91 41 72
        E 140 91 2b 00
        E 1052 91 2b 43
        E 152 91 41 00
        E 314 91 43 62
        E 41 91 2b 00
        E 466 91 2b 54
        E 13 91 43 00
        E 344 91 41 6a
        E 49 91 2b 00
        E 372 91 41 00
        E 2 91 2b 48
        E 336 91 3e 72
        E 189 91 2b 00
        E 754 91 2b 54
        E 125 91 3e 00
        E 295 91 2b 00
        E 382 91 2b 54
        E 483 91 43 6a
        E 53 91 2b 00
        E 677 91 2b 28
        E 53 91 43 00
        E 410 91 41 72
        E 286 91 2b 00
        E 951 91 2b 2c
        E 80 91 41 00
        E 365 91 43 62
        E 97 91 2b 00
        E 372 91 2b 36
        E 24 91 43 00
        E 321 91 41 6a
        E 34 91 2b 00
        E 364 91 41 00
        E 43 91 2b 43
        E 378 91 47 7a
        E 251 91 2b 00
        E 587 91 2b 48
        E 78 91 47 00
        E 420 91 2b 00
        E 333 91 2b 48
        E 445 91 43 72
        E 131 91 2b 00
        E 724 91 43 00
        E 15 91 2b 43
        E 398 91 41 7a
        E 208 91 2b 00
        E 1046 91 2b 13
        E 15 91 29 12
        E 5 91 41 00
        E 340 91 29 00
        E 56 91 43 72
        E 34 91 2b 00
        E 381 91 2b 33
        E 63 91 43 00
        E 338 91 41 6a
        E 56 91 2b 00
        E 348 91 41 00
        E 53 91 2b 36
        E 326 91 3e 6a
        E 167 91 2b 00
        E 505 91 3e 00
        E 304 91 2b 4e
        E 377 91 2b 00
        E 447 91 2b 54
        E 454 91 45 72
        E 107 91 2b 00
        E 647 91 2b 43
        E 63 91 45 00
        E 418 91 43 7a
        E 27 91 2b 00
        E 1251 91 2b 3e
        E 70 91 43 00
        E 350 91 2b 00
        E 15 91 45 72
        E 418 91 45 00
        E 16 91 2b 43
        E 334 91 44 62
        E 173 91 2b 00
        E 233 91 44 00
        E 181 91 2b 4e
        E 336 91 43 72
        E 90 91 2b 00
        E 386 91 43 00
        E 20 91 2b 3a
        E 298 91 2b 00
        E 238 91 2b 3e
        E 360 91 2b 00
        E 272 91 2b 36
        E 484 91 2b 00
        E 34 91 45 72
        E 775 91 45 00
        E 5 91 2b 43
        E 452 91 43 7a
        E 104 91 2b 00
        E 1261 91 2b 5b
        E 48 91 43 00
        E 312 91 45 72
        E 12 91 2b 00
        E 420 91 2b 54
        E 66 91 45 00
        E 130 91 2b 00
        E 211 91 2b 43
        E 379 91 43 7f
        E 62 91 2b 00
        E 334 91 2b 5b
        E 51 91 43 00
        E 698 91 2b 00
        E 186 91 2b 4e
        E 440 91 2b 00
        E 270 91 2b 54
        E 529 91 45 7f
        E 55 91 2b 00
        E 745 91 2b 62
        E 10 91 45 00
        E 444 91 43 7f
        E 58 91 2b 00
        E 1283 91 2b 5b
        E 54 91 43 00
        E 347 91 2b 00
        E 10 91 45 72
        E 400 91 2b 5b
        E 54 91 45 00
        E 341 91 2b 00
        E 7 91 43 72
        E 437 91 2b 5b
        E 49 91 43 00
        E 352 91 41 72
        E 131 91 2b 00
        E 650 91 41 00
        E 99 91 2b 5b
        E 420 91 2b 00
        E 415 91 2b 6a
        E 431 91 45 7f
        E 67 91 2b 00
        E 738 91 45 00
        E 23 91 2b 62
        E 437 91 43 7f
        E 138 91 2b 00
        E 1242 91 2b 62
        E 32 91 43 00
        E 342 91 2b 00
        E 51 91 45 7a
        E 370 91 2b 4e
        E 80 91 45 00
        E 393 91 2b 00
        E 3 91 43 72
        E 415 91 2b 36
        E 112 91 43 00
        E 357 91 47 7f
        E 58 91 2b 00
        E 756 91 2b 5b
        E 173 91 47 00
        E 180 91 2b 00
        E 515 91 2b 6a
        E 456 91 45 7a
        E 41 91 2b 00
        E 769 91 45 00
        E 24 91 2b 72
        E 444 91 43 7f
        E 87 91 2b 00
        E 1259 91 2b 4e
        E 96 91 43 00
        E 334 91 45 6a
        E 24 91 2b 00
        E 401 91 2b 4e
        E 80 91 45 00
        E 331 91 43 72
        E 67 91 2b 00
        E 404 91 2b 4e
        E 12 91 43 00
        E 340 91 41 7a
        E 162 91 2b 00
        E 549 91 41 00
        E 191 91 2b 54
        E 404 91 2b 00
        E 422 91 2b 6a
        E 450 91 45 7a
        E 58 91 2b 00
        E 746 91 45 00
        E 2 91 2b 62
        E 506 91 43 7f
        E 70 91 2b 00
        E 1222 91 2b 4e
        E 92 91 43 00
        E 328 91 2b 00
        E 29 91 45 72
        E 438 91 2b 5b
        E 34 91 45 00
        E 369 91 43 72
        E 17 91 2b 00
        E 401 91 43 00
        E 32 91 2b 54
        E 372 91 47 7a
        E 116 91 2b 00
        E 509 91 47 00
        E 365 91 2b 54
        E 331 91 2b 00
        E 350 91 2b 48
        E 477 91 43 7a
        E 4 91 2b 00
        E 836 91 2b 5b
        E 49 91 43 00
        E 410 91 41 7a
        E 12 91 2b 00
        E 1334 91 2b 48
        E 43 91 41 00
        E 370 91 2b 00
        E 39 91 43 6a
        E 391 91 2b 54
        E 19 91 43 00
        E 360 91 41 62
        E 20 91 2b 00
        E 424 91 41 00
        E 42 91 2b 54
        E 401 91 47 72
        E 85 91 2b 00
        E 762 91 2b 5b
        E 59 91 47 00
        E 350 91 2b 00
        E 474 91 2b 6a
        E 464 91 43 7a
        E 44 91 2b 00
        E 743 91 43 00
        E 51 91 2b 6a
        E 399 91 41 7a
        E 140 91 2b 00
        E 1239 91 2b 3a
        E 135 91 41 00
        E 215 91 2b 00
        E 68 91 43 5b
        E 459 91 2b 5b
        E 7 91 43 00
        E 360 91 41 6a
        E 22 91 2b 00
        E 418 91 41 00
        E 24 91 2b 5b
        E 370 91 3e 72
        E 58 91 2b 00
        E 835 91 2b 48
        E 23 91 2d 30
        E 84 91 3e 00
        E 179 91 2d 00
        E 98 91 2b 00
        E 408 91 2b 54
        E 492 91 43 62
        E 84 91 2b 00
        E 655 91 43 00
        E 50 91 2b 54
        E 416 91 41 7a
        E 169 91 2b 00
        E 1206 91 2b 2e
        E 155 91 41 00
        E 249 91 2b 00
        E 50 91 43 62
        E 442 91 2b 54
        E 23 91 43 00
        E 352 91 41 72
        E 26 91 2b 00
        E 419 91 41 00
        E 67 91 2b 3e
        E 321 91 47 7a
        E 144 91 2b 00
        E 712 91 2b 54
        E 94 91 47 00
        E 336 91 2b 00
        E 442 91 2b 62
        E 481 91 43 7a
        E 38 91 2b 00
        E 715 91 43 00
        E 59 91 2b 54
        E 394 91 41 7a
        E 148 91 2b 00
        E 1069 91 2b 48
        E 38 91 41 00
        E 409 91 43 7a
        E 16 91 2b 00
        E 435 91 2b 5b
        E 8 91 43 00
        E 346 91 41 72
        E 35 91 2b 00
        E 389 91 41 00
        E 59 91 2b 48
        E 335 91 3e 7a
        E 136 91 2b 00
        E 613 91 3e 00
        E 126 91 2b 5b
        E 355 91 2b 00
        E 473 91 2b 62
        E 445 91 43 72
        E 37 91 2b 00
        E 620 91 43 00
        E 104 91 2b 54
        E 432 91 41 7a
        E 80 91 2b 00
        E 1269 91 2b 5b
        E 176 91 41 00
        E 225 91 2b 00
        E 75 91 43 62
        E 425 91 2b 4e
        E 17 91 43 00
        E 348 91 41 6a
        E 19 91 2b 00
        E 413 91 41 00
        E 29 91 2b 4e
        E 360 91 47 7f
        E 138 91 2b 00
        E 727 91 2b 54
        E 68 91 47 00
        E 387 91 2b 00
        E 371 91 2b 62
        E 440 91 43 7a
        E 89 91 2b 00
        E 689 91 43 00
        E 17 91 2b 43
        E 466 91 41 7a
        E 68 91 2b 00
        E 1188 91 41 00
        E 39 91 2b 54
        E 397 91 43 72
        E 11 91 2b 00
        E 380 91 43 00
        E 64 91 2b 5b
        E 360 91 41 72
        E 27 91 2b 00
        E 326 91 41 00
        E 88 91 2b 62
        E 319 91 3e 7a
        E 135 91 2b 00
        E 341 91 3e 00
        E 434 91 2b 5b
        E 341 91 2b 00
        E 507 91 2b 62
        E 459 91 45 7a
        E 71 91 2b 00
        E 596 91 45 00
        E 587 91 2b 54
        E 1146 91 2b 00
        E 207 91 43 7a
        E 1203 91 2b 30
        E 53 91 43 00
        E 783 91 2b 00
        E 74 91 41 7a
        E 784 91 41 00
        E 41 91 2b 0a
        E 276 91 2b 00
        E 449 91 2b 3e
        E 454 91 2b 00
        E 20 91 45 72
        E 611 91 45 00
        E 1489 91 43 72
        E 1072 91 43 00
        E 565 91 41 72
        E 839 91 41 00
        E 108 91 2b 30
        E 360 91 2b 00
        E 357 91 2b 43
        E 484 91 45 72
        E 156 91 2b 00
        E 936 91 2b 62
        E 135 91 45 00
        E 1208 91 43 72
        E 12 91 2b 00
        E 1114 91 2b 48
        E 268 91 43 00
        E 559 91 41 7a
        E 67 91 2b 00
        E 676 91 2b 33
        E 92 91 41 00
        E 339 91 2b 00
        E 393 91 2b 62
        E 454 91 45 6a
        E 90 91 2b 00
        E 1080 91 2b 5b
        E 171 91 45 00
        E 1174 91 43 72
        E 29 91 2b 00
        E 1185 91 2b 62
        E 158 91 43 00
        E 696 91 41 7a
        E 37 91 2b 00
        E 802 91 2b 54
        E 10 91 41 00
        E 374 91 2b 00
        E 414 91 2b 6a
        E 454 91 47 6a
        E 60 91 45 0b
        E 87 91 2b 00
        E 1070 91 45 00
        E 12 91 2b 6a
        E 29 91 47 00
        E 1370 91 43 7a
        E 70 91 2b 00
        E 1015 91 2b 54
        E 207 91 43 00
        E 624 91 41 62
        E 28 91 2b 00
        E 863 91 26 5b
        E 256 91 41 00
        E 80 91 26 00
        E 423 91 26 62
        E 478 91 45 6a
        E 97 91 26 00
        E 1012 91 26 62
        E 309 91 45 00
        E 1047 91 43 7a
        E 111 91 26 00
        E 925 91 26 4e
        E 283 91 43 00
        E 551 91 41 72
        E 29 91 26 00
        E 744 91 26 3e
        E 9 91 41 00
        E 430 91 26 00
        E 365 91 26 62
        E 445 91 45 6a
        E 145 91 26 00
        E 1055 91 26 62
        E 322 91 45 00
        E 1026 91 43 72
        E 44 91 26 00
        E 1082 91 26 4e
        E 126 91 43 00
        E 723 91 41 6a
        E 72 91 26 00
        E 713 91 41 00
        E 31 91 26 33
        E 12 91 28 30
        E 344 91 28 00
        E 53 91 26 00
        E 335 91 26 54
        E 515 91 45 72
        E 48 91 26 00
        E 1131 91 26 5b
        E 778 91 45 00
        E 599 91 43 6a
        E 55 91 26 00
        E 1122 91 26 54
        E 347 91 43 00
        E 525 91 41 5b
        E 40 91 26 00
        E 776 91 41 00
        E 138 91 2b 48
        E 268 91 2b 00
        E 437 91 2b 2c
        E 511 91 43 6a
        E 9 91 2b 00
        E 1196 91 2b 54
        E 876 91 43 00
        E 496 91 2b 00
        E 32 91 41 6a
        E 1062 91 41 00
        E 5 91 2b 3a
        E 367 91 43 62
        E 56 91 2b 00
        E 377 91 2b 48
        E 7 91 43 00
        E 331 91 41 62
        E 39 91 2b 00
        E 360 91 41 00
        E 99 91 2b 54
        E 357 91 47 7a
        E 109 91 2b 00
        E 703 91 47 00
        E 20 91 2b 6a
        E 335 91 2b 00
        E 402 91 2b 62
        E 490 91 43 72
        E 168 91 2b 00
        E 677 91 43 00
        E 7 91 2b 48
        E 404 91 41 72
        E 54 91 2b 00
        E 1043 91 41 00
        E 147 91 2b 62
        E 360 91 43 6a
        E 10 91 2b 00
        E 437 91 43 00
        E 10 91 2b 6a
        E 329 91 2b 00
        E 28 91 41 62
        E 419 91 41 00
        E 58 91 2b 54
        E 14 91 2d 48
        E 252 91 2d 00
        E 82 91 3e 7a
        E 17 91 2b 00
        E 799 91 2b 5b
        E 77 91 3e 00
        E 292 91 2b 00
        E 397 91 2b 5b
        E 449 91 43 7a
        E 63 91 2b 00
        E 822 91 2b 6a
        E 31 91 43 00
        E 394 91 41 72
        E 80 91 2b 00
        E 1128 91 2b 4e
        E 74 91 41 00
        E 315 91 43 6a
        E 39 91 2b 00
        E 335 91 2b 36
        E 68 91 43 00
        E 384 91 2b 00
        E 7 91 41 4e
        E 380 91 41 00
        E 47 91 2b 33
        E 387 91 47 43
        E 10 91 45 48
        E 65 91 45 00
        E 150 91 2b 00
        E 560 91 47 00
        E 145 91 2b 48
        E 394 91 2b 00
        E 277 91 2b 30
        E 344 91 2b 00
        E 206 91 2b 4e
        E 297 91 43 54
        E 57 91 2b 00
        E 595 91 43 00
        E 15 91 2b 54
        E 406 91 41 6a
        E 26 91 2b 00
        E 1152 91 41 00
        E 22 91 2b 48
        E 367 91 43 5b
        E 56 91 2b 00
        E 345 91 2b 5b
        E 107 91 43 00
        E 249 91 2b 00
        E 62 91 41 5b
        E 392 91 2b 48
        E 63 91 41 00
        E 437 91 3e 5b
        E 39 91 2b 00
        E 756 91 3e 00
        E 60 91 2b 43
        E 343 91 2b 00
        E 462 91 2b 5b
        E 432 91 43 6a
        E 34 91 2b 00
        E 763 91 2b 5b
        E 27 91 43 00
        E 384 91 41 62
        E 51 91 43 1b
        E 34 91 2b 00
        E 70 91 43 00
        E 976 91 2b 3a
        E 38 91 41 00
        E 327 91 43 54
        E 99 91 2b 00
        E 336 91 2b 4e
        E 84 91 43 00
        E 292 91 2b 00
        E 10 91 41 5b
        E 408 91 2b 43
        E 25 91 41 00
        E 361 91 47 6a
        E 124 91 2b 00
        E 708 91 2b 5b
        E 53 91 47 00
        E 319 91 2b 00
        E 374 91 2b 3e
        E 542 91 43 6a
        E 36 91 2b 00
        E 735 91 2b 5b
        E 48 91 43 00
        E 408 91 2b 00
        E 5 91 41 62
        E 1121 91 2b 4e
        E 92 91 41 00
        E 302 91 43 62
        E 82 91 2b 00
        E 348 91 2b 54
        E 39 91 43 00
        E 313 91 2b 00
        E 13 91 41 54
        E 357 91 41 00
        E 25 91 2b 43
        E 333 91 3e 54
        E 244 91 2b 00
        E 492 91 3e 00
        E 236 91 26 62
        E 270 91 26 00
        E 540 91 26 6a
        E 351 91 43 72
        E 164 91 26 00
        E 952 91 43 00
        E 111 91 26 11
        E 184 91 26 00
        E 556 91 26 5b
        E 360 91 26 00
        E 410 91 26 72
        E 416 91 45 72
        E 107 91 26 00
        E 1029 91 26 5b
        E 351 91 45 00
        E 490 91 26 00
        E 248 91 26 4e
        E 471 91 43 72
        E 39 91 26 00
        E 753 91 26 48
        E 61 91 43 00
        E 292 91 45 5b
        E 53 91 26 00
        E 332 91 26 4e
        E 120 91 45 00
        E 624 91 26 00
        E 306 91 26 3a
        E 305 91 26 00
        E 389 91 26 62
        E 497 91 45 7a
        E 179 91 26 00
        E 539 91 26 4e
        E 80 91 45 00
        E 372 91 43 6a
        E 39 91 26 00
        E 1322 91 26 43
        E 141 91 43 00
        E 290 91 41 6a
        E 20 91 26 00
        E 1517 91 26 33
        E 657 91 41 00
        E 116 91 26 00
        E 211 91 26 36
        E 512 91 26 00
        E 166 91 26 30
        E 540 91 45 6a
        E 200 91 26 00
        E 610 91 26 36
        E 136 91 45 00
        E 268 91 43 62
        E 101 91 26 00
        E 1381 91 26 48
        E 178 91 43 00
        E 266 91 41 62
        E 53 91 26 00
        E 1452 91 26 54
        E 877 91 26 00
        E 5 91 41 00
        E 248 91 26 43
        E 464 91 26 00
        E 358 91 24 3a
        E 5 91 26 36
        E 474 91 45 6a
        E 62 91 24 00
        E 24 91 26 00
        E 1136 91 26 5b
        E 1017 91 45 00
        E 299 91 43 72
        E 452 91 26 00
        E 658 91 26 3e
        E 350 91 43 00
        E 524 91 41 6a
        E 159 91 26 00
        E 752 91 26 5b
        E 147 91 41 00
        E 208 91 26 00
        E 444 91 26 72
        E 525 91 45 62
        E 184 91 26 00
        E 1116 91 24 54
        E 7 91 26 54
        E 362 91 45 00
        E 506 91 24 00
        E 430 91 43 72
        E 236 91 26 00
        E 998 91 26 6a
        E 239 91 43 00
        E 529 91 41 72
        E 121 91 26 00
        E 653 91 26 62
        E 103 91 41 00
        E 372 91 26 00
        E 382 91 26 72
        E 461 91 45 72
        E 191 91 26 00
        E 1051 91 26 6a
        E 360 91 45 00
        E 1005 91 43 7a
        E 116 91 26 00
        E 1039 91 26 3e
        E 220 91 43 00
        E 577 91 41 7a
        E 160 91 26 00
        E 717 91 26 6a
        E 179 91 41 00
        E 138 91 26 00
        E 517 91 26 72
        E 476 91 45 72
        E 186 91 26 00
        E 1024 91 26 72
        E 343 91 45 00
        E 926 91 43 7a
        E 123 91 26 00
        E 1050 91 26 62
        E 223 91 43 00
        E 543 91 41 72
        E 162 91 26 00
        E 670 91 26 72
        E 188 91 41 00
        E 133 91 26 00
        E 515 91 26 7a
        E 493 91 45 62
        E 5 91 47 62
        E 142 91 26 00
        E 954 91 47 00
        E 334 91 45 00
        E 3892 91 26 3e
        E 676 91 26 00
        E 162 91 26 3a
        E 5 91 24 3e
        E 524 91 45 6a
        E 95 91 24 00
        E 108 91 26 00
        E 877 91 26 4e
        E 851 91 45 00
        E 589 91 43 72
        E 228 91 26 00
        E 915 91 26 54
        E 328 91 43 00
        E 450 91 41 72
        E 139 91 26 00
        E 701 91 26 6a
        E 219 91 41 00
        E 695 91 26 00
        E 164 91 26 6a
        E 500 91 45 6a
        E 147 91 26 00
        E 1100 91 26 6a
        E 382 91 45 00
        E 857 91 43 72
        E 160 91 26 00
        E 1036 91 26 5b
        E 230 91 43 00
        E 536 91 41 72
        E 114 91 26 00
        E 775 91 26 7a
        E 61 91 41 00
        E 219 91 26 00
        E 534 91 26 7f
        E 433 91 45 72
        E 128 91 26 00
        E 1109 91 26 7a
        E 201 91 45 00
        E 1076 91 43 7a
        E 105 91 26 00
        E 1050 91 26 72
        E 204 91 43 00
        E 541 91 41 7a
        E 113 91 26 00
        E 737 91 26 72
        E 199 91 41 00
        E 197 91 26 00
        E 435 91 26 7a
        E 488 91 45 7a
        E 82 91 26 00
        E 1153 91 26 7a
        E 258 91 45 00
        E 1088 91 43 7a
        E 48 91 26 00
        E 1138 91 26 72
        E 336 91 43 00
        E 463 91 41 6a
        E 97 91 26 00
        E 771 91 41 00
        E 29 91 2b 62
        E 323 91 2b 00
        E 445 91 2b 62
        E 452 91 43 72
        E 82 91 2b 00
        E 769 91 2b 62
        E 4 91 43 00
        E 423 91 41 7a
        E 80 91 2b 00
        E 1189 91 2b 5b
        E 33 91 41 00
        E 384 91 2b 00
        E 3 91 43 6a
        E 406 91 43 00
        E 11 91 2b 6a
        E 356 91 2b 00
        E 12 91 41 72
        E 375 91 41 00
        E 26 91 2b 6a
        E 418 91 47 7a
        E 138 91 2b 00
        E 684 91 47 00
        E 46 91 2b 72
        E 379 91 2b 00
        E 461 91 2b 6a
        E 502 91 43 72
        E 49 91 2b 00
        E 744 91 43 00
        E 58 91 2b 43
        E 454 91 41 7f
        E 4 91 2b 00
        E 1040 91 41 00
        E 147 91 2b 62
        E 344 91 43 7a
        E 29 91 2b 00
        E 406 91 43 00
        E 31 91 2b 6a
        E 370 91 2b 00
        E 19 91 41 72
        E 418 91 41 00
        E 26 91 2b 6a
        E 362 91 3e 7a
        E 88 91 2b 00
        E 530 91 3e 00
        E 279 91 2b 72
        E 316 91 2b 00
        E 464 91 2b 6a
        E 518 91 43 7a
        E 101 91 2b 00
        E 698 91 43 00
        E 34 91 2b 5b
        E 454 91 41 7f
        E 106 91 2b 00
        E 1111 91 2b 54
        E 37 91 41 00
        E 377 91 43 6a
        E 7 91 2b 00
        E 431 91 2b 5b
        E 6 91 43 00
        E 373 91 41 72
        E 35 91 2b 00
        E 349 91 41 00
        E 55 91 2b 62
        E 346 91 47 6a
        E 126 91 2b 00
        E 695 91 47 00
        E 58 91 2b 72
        E 492 91 2b 00
        E 373 91 2b 48
        E 493 91 43 7a
        E 96 91 2b 00
        E 634 91 43 00
        E 55 91 2b 54
        E 425 91 41 7f
        E 60 91 2b 00
        E 1064 91 41 00
        E 50 91 2b 62
        E 331 91 43 6a
        E 39 91 2b 00
        E 387 91 43 00
        E 55 91 2b 6a
        E 328 91 41 6a
        E 10 91 2b 00
        E 363 91 41 00
        E 43 91 2b 54
        E 370 91 3e 7a
        E 142 91 2b 00
        E 484 91 3e 00
        E 227 91 2b 72
        E 379 91 2b 00
        E 473 91 2b 7a
        E 575 91 43 7a
        E 34 91 2b 00
        E 638 91 43 00
        E 116 91 2b 5b
        E 404 91 41 7f
        E 31 91 2b 00
        E 1111 91 41 00
        E 163 91 2b 54
        E 342 91 43 72
        E 49 91 2b 00
        E 420 91 43 00
        E 36 91 2b 6a
        E 372 91 2b 00
        E 15 91 41 7a
        E 372 91 41 00
        E 4 91 2b 54
        E 383 91 47 7a
        E 125 91 2b 00
        E 715 91 2b 6a
        E 44 91 47 00
        E 309 91 2b 00
        E 512 91 2b 6a
        E 488 91 43 62
        E 14 91 41 54
        E 46 91 2b 00
        E 508 91 41 00
        E 161 91 43 00
        E 52 91 2b 62
        E 408 91 41 7a
        E 56 91 2b 00
        E 1221 91 41 00
        E 3 91 2b 4e
        E 379 91 43 72
        E 27 91 2b 00
        E 360 91 2b 62
        E 20 91 43 00
        E 353 91 2b 00
        E 6 91 41 72
        E 404 91 41 00
        E 29 91 2b 62
        E 398 91 3e 7f
        E 155 91 2b 00
        E 592 91 3e 00
        E 184 91 2b 62
        E 403 91 2b 00
        E 380 91 2b 62
        E 466 91 43 7a
        E 31 91 2b 00
        E 647 91 43 00
        E 83 91 2b 54
        E 425 91 41 7f
        E 55 91 2b 00
        E 1223 91 2b 5b
        E 90 91 41 00
        E 313 91 43 62
        E 20 91 2b 00
        E 372 91 43 00
        E 19 91 2b 5b
        E 397 91 41 72
        E 29 91 2b 00
        E 349 91 41 00
        E 66 91 2b 4e
        E 378 91 47 7f
        E 134 91 2b 00
        E 721 91 2b 62
        E 111 91 47 00
        E 333 91 2b 00
        E 379 91 2b 5b
        E 442 91 43 7a
        E 126 91 2b 00
        E 594 91 43 00
        E 97 91 2b 62
        E 396 91 41 7f
        E 186 91 2b 00
        E 1003 91 41 00
        E 41 91 2b 5b
        E 381 91 43 72
        E 42 91 2b 00
        E 335 91 43 00
        E 20 91 2b 4e
        E 389 91 41 6a
        E 7 91 2b 00
        E 370 91 41 00
        E 47 91 2b 54
        E 339 91 3e 72
        E 145 91 2b 00
        E 347 91 3e 00
        E 501 91 26 62
        E 343 91 26 00
        E 348 91 26 5b
        E 508 91 45 6a
        E 65 91 26 00
        E 640 91 45 00
        E 38 91 26 5b
        E 423 91 43 72
        E 24 91 26 00
        E 1368 91 26 5b
        E 31 91 43 00
        E 442 91 26 00
        E 90 91 45 48
        E 198 91 45 00
        E 121 91 26 62
        E 360 91 41 7a
        E 19 91 26 00
        E 265 91 26 43
        E 892 91 41 00
        E 51 91 26 00
        E 286 91 26 4e
        E 504 91 26 00
        E 329 91 26 5b
        E 526 91 45 7f
        E 113 91 26 00
        E 728 91 26 62
        E 92 91 45 00
        E 372 91 43 7f
        E 7 91 26 00
        E 1196 91 26 43
        E 181 91 43 00
        E 326 91 41 6a
        E 73 91 26 00
        E 2450 91 26 72
        E 338 91 41 00
        E 94 91 26 00
        E 377 91 26 5b
        E 544 91 45 72
        E 12 91 26 00
        E 1239 91 26 6a
        E 416 91 45 00
        E 935 91 43 72
        E 55 91 26 00
        E 1201 91 26 5b
        E 246 91 43 00
        E 573 91 41 72
        E 82 91 26 00
        E 805 91 26 6a
        E 77 91 41 00
        E 374 91 26 00
        E 370 91 26 72
        E 520 91 45 72
        E 55 91 26 00
        E 1290 91 26 6a
        E 219 91 45 00
        E 1204 91 26 00
        E 12 91 43 7a
        E 1286 91 26 6a
        E 295 91 43 00
        E 567 91 41 7a
        E 63 91 26 00
        E 780 91 26 72
        E 350 91 41 00
        E 10 91 26 00
        E 443 91 26 7a
        E 517 91 45 72
        E 79 91 26 00
        E 1121 91 26 4e
        E 5 91 24 48
        E 381 91 45 00
        E 845 91 24 00
        E 185 91 43 7a
        E 149 91 26 00
        E 1016 91 26 6a
        E 323 91 43 00
        E 467 91 41 72
        E 164 91 26 00
        E 674 91 26 72
        E 348 91 26 00
        E 458 91 26 72
        E 93 91 41 00
        E 355 91 45 6a
        E 168 91 26 00
        E 1117 91 26 72
        E 408 91 45 00
        E 887 91 43 7a
        E 118 91 26 00
        E 1063 91 26 6a
        E 208 91 43 00
        E 558 91 41 72
        E 129 91 26 00
        E 739 91 26 7a
        E 321 91 26 00
        E 517 91 26 7a
        E 82 91 41 00
        E 420 91 45 7a
        E 151 91 26 00
        E 1089 91 26 7a
        E 283 91 45 00
        E 1044 91 43 7a
        E 67 91 26 00
        E 1085 91 26 72
        E 241 91 43 00
        E 595 91 41 72
        E 185 91 26 00
        E 750 91 2b 72
        E 183 91 41 00
        E 114 91 2b 00
        E 495 91 2b 4e
        E 5 91 2d 5b
        E 572 91 43 72
        E 8 91 2d 00
        E 34 91 2b 00
        E 734 91 43 00
        E 15 91 2b 4e
        E 382 91 45 72
        E 215 91 2b 00
        E 1178 91 45 00
        E 22 91 2b 54
        E 382 91 43 62
        E 58 91 2b 00
        E 383 91 2b 5b
        E 59 91 43 00
        E 331 91 41 62
        E 10 91 2b 00
        E 383 91 41 00
        E 29 91 2b 54
        E 399 91 47 72
        E 20 91 2b 00
        E 778 91 47 00
        E 43 91 2b 6a
        E 350 91 2b 00
        E 495 91 2b 6a
        E 452 91 43 72
        E 104 91 2b 00
        E 677 91 2b 6a
        E 21 91 43 00
        E 430 91 41 7a
        E 56 91 2b 00
        E 1176 91 41 00
        E 80 91 2b 62
        E 411 91 43 72
        E 11 91 2b 00
        E 415 91 43 00
        E 2 91 2b 5b
        E 381 91 41 6a
        E 13 91 2b 00
        E 367 91 41 00
        E 24 91 2b 43
        E 396 91 3e 72
        E 172 91 2b 00
        E 713 91 3e 00
        E 11 91 2b 72
        E 421 91 2b 00
        E 360 91 2b 6a
        E 411 91 43 62
        E 98 91 2b 00
        E 699 91 43 00
        E 34 91 2b 62
        E 446 91 41 72
        E 141 91 2b 00
        E 577 91 41 00
        E 444 91 2b 54
        E 375 91 43 54
        E 63 91 2b 00
        E 389 91 43 00
        E 27 91 2b 62
        E 398 91 41 6a
        E 20 91 2b 00
        E 311 91 41 00
        E 80 91 2b 43
        E 382 91 47 7a
        E 89 91 2b 00
        E 706 91 47 00
        E 19 91 2b 62
        E 432 91 2b 00
        E 394 91 2b 62
        E 491 91 43 72
        E 58 91 2b 00
        E 686 91 43 00
        E 50 91 2b 54
        E 462 91 41 7a
        E 127 91 2b 00
        E 1117 91 41 00
        E 5 91 2b 62
        E 396 91 43 5b
        E 7 91 2b 00
        E 351 91 43 00
        E 21 91 2b 4e
        E 377 91 41 5b
        E 37 91 2b 00
        E 379 91 41 00
        E 67 91 2b 5b
        E 353 91 3e 72
        E 119 91 2b 00
        E 287 91 3e 00
        E 7320 91 41 2e
        E 22 91 3e 2a
        E 6 91 45 26
        E 7846 91 45 00
        E 542 91 47 1a
        E 8339 91 47 00
        E 221 91 48 22
        E 4234 91 3e 00
        E 49 91 41 00
        E 24 91 48 00
        E 379 91 40 1d
        E 55 91 3c 03
        E 85 91 45 01
        E 4485 91 3c 00
        E 94 91 40 00
        E 7 91 45 00
        E 401 91 42 30
        E 41 91 41 4e
        E 14 91 3e 24
        E 6 91 47 2e
        E 26 91 42 00
        E 5129 91 48 13
        E 237 91 47 00
        E 179 91 41 00
        E 2411 91 41 24
        E 6703 91 48 00
        E 221 91 41 00
        E 68 91 3e 00
        E 488 91 45 3a
        E 9 91 3e 30
        E 5 91 41 54
        E 5139 91 47 2e
        E 1372 91 45 00
        E 3025 91 41 00
        E 60 91 47 00
        E 505 91 48 13
        E 12 91 42 4e
        E 2242 91 48 00
        E 51 91 42 00
        E 24 91 3e 00
        E 232 91 42 3e
        E 34 91 3e 1c
        E 12 91 48 26
        E 7325 91 26 6a
        E 2027 91 42 00
        E 15 91 48 00
        E 519 91 3e 00
        E 212 91 26 00
        E 293 91 26 11
        E 70 91 3e 24
        E 10 91 41 33
        E 22 91 47 24
        E 19 91 45 26
        E 597 91 45 00
        E 91 91 47 00
        E 902 91 45 01
        E 3126 91 45 00
        E 5 91 41 00
        E 19 91 3e 00
        E 310 91 43 5b
        E 4 91 47 3a
        E 5 91 3e 2c
        E 7 91 40 2c
        E 22 91 48 36
        E 416 91 48 00
        E 48 91 40 00
        E 4332 91 47 00
        E 312 91 43 00
        E 2 91 3e 00
        E 82 91 43 24
        E 16 91 3e 04
        E 58 91 48 43
        E 9742 91 48 00
        E 37 91 43 00
        E 200 91 3e 00
        E 36 91 26 00
        E 276 91 3e 05
        E 38 91 26 2a
        E 8 91 41 26
        E 26 91 45 24
        E 4921 91 45 00
        E 15 91 41 00
        E 28 91 3e 00
        E 293 91 3e 26
        E 18 91 43 54
        E 5 91 47 36
        E 42 91 48 2e
        E 765 91 48 00
        E 4053 91 43 00
        E 5 91 47 00
        E 379 91 48 16
        E 29 91 44 1e
        E 4750 91 44 00
        E 14 91 3e 00
        E 29 91 48 00
        E 177 91 48 0a
        E 7 91 44 48
        E 39 91 3e 48
        E 15312 91 26 00
        E 201 91 2b 4e
        E 109 91 44 00
        E 14 91 3e 00
        E 202 91 2b 00
        E 172 91 48 00
        E 230 91 2b 4e
        E 399 91 43 62
        E 77 91 2b 00
        E 633 91 2b 2a
        E 87 91 43 00
        E 338 91 41 62
        E 116 91 2b 00
        E 1008 91 2b 30
        E 36 91 41 00
        E 336 91 2b 00
        E 14 91 43 62
        E 370 91 2b 54
        E 46 91 43 00
        E 328 91 41 6a
        E 9 91 2b 00
        E 380 91 41 00
        E 102 91 2b 5b
        E 289 91 47 72
        E 179 91 2b 00
        E 633 91 2b 5b
        E 34 91 47 00
        E 276 91 2b 00
        E 468 91 2b 72
        E 377 91 43 6a
        E 65 91 2b 00
        E 672 91 2b 5b
        E 70 91 43 00
        E 392 91 41 7a
        E 99 91 2b 00
        E 1000 91 2b 5b
        E 34 91 41 00
        E 379 91 2b 00
        E 4 91 43 72
        E 385 91 2b 6a
        E 24 91 43 00
        E 324 91 41 72
        E 14 91 2b 00
        E 455 91 41 00
        E 2 91 2b 72
        E 348 91 3e 7a
        E 84 91 2b 00
        E 778 91 2b 6a
        E 155 91 3e 00
        E 140 91 2b 00
        E 428 91 2b 7a
        E 432 91 43 72
        E 55 91 2b 00
        E 621 91 2b 54
        E 25 91 43 00
        E 404 91 41 7a
        E 91 91 2b 00
        E 1234 91 2b 4e
        E 21 91 41 00
        E 359 91 43 72
        E 11 91 2b 00
        E 363 91 2b 62
        E 24 91 43 00
        E 370 91 41 72
        E 10 91 2b 00
        E 406 91 41 00
        E 26 91 2b 5b
        E 384 91 47 72
        E 133 91 2b 00
        E 658 91 2b 6a
        E 24 91 47 00
        E 285 91 2b 00
        E 418 91 2b 72
        E 410 91 43 72
        E 63 91 2b 00
        E 648 91 43 00
        E 26 91 2b 62
        E 425 91 41 7a
        E 90 91 2b 00
        E 1053 91 41 00
        E 10 91 2b 54
        E 387 91 43 7a
        E 9 91 2b 00
        E 392 91 2b 62
        E 7 91 43 00
        E 362 91 41 72
        E 51 91 2b 00
        E 331 91 41 00
        E 43 91 2b 62
        E 339 91 3e 7a
        E 155 91 2b 00
        E 555 91 3e 00
        E 142 91 2b 72
        E 390 91 2b 00
        E 345 91 2b 72
        E 427 91 43 7a
        E 80 91 2b 00
        E 629 91 2b 62
        E 28 91 43 00
        E 397 91 41 7a
        E 87 91 2b 00
        E 1097 91 41 00
        E 30 91 2b 62
        E 339 91 43 72
        E 17 91 2b 00
        E 357 91 2b 6a
        E 29 91 43 00
        E 358 91 41 72
        E 29 91 2b 00
        E 382 91 2b 6a
        E 17 91 41 00
        E 370 91 47 7a
        E 139 91 2b 00
        E 728 91 2b 6a
        E 82 91 47 00
        E 220 91 2b 00
        E 454 91 2b 72
        E 429 91 43 7a
        E 54 91 2b 00
        E 708 91 2b 6a
        E 5 91 43 00
        E 376 91 41 7a
        E 110 91 2b 00
        E 1072 91 41 00
        E 31 91 2b 62
        E 378 91 2b 00
        E 1 91 43 7a
        E 412 91 43 00
        E 38 91 2b 6a
        E 356 91 41 72
        E 26 91 2b 00
        E 367 91 41 00
        E 39 91 2b 72
        E 348 91 3e 7f
        E 70 91 2b 00
        E 461 91 3e 00
        E 273 91 2b 7a
        E 307 91 2b 00
        E 467 91 2b 7a
        E 466 91 43 72
        E 24 91 2b 00
        E 693 91 43 00
        E 51 91 2b 6a
        E 411 91 41 7f
        E 94 91 2b 00
        E 1196 91 41 00
        E 38 91 2b 72
        E 322 91 2b 00
        E 2 91 43 72
        E 381 91 2b 72
        E 25 91 43 00
        E 360 91 2b 00
        E 12 91 41 7a
        E 420 91 41 00
        E 8 91 2b 72
        E 365 91 47 7f
        E 91 91 2b 00
        E 788 91 2b 72
        E 31 91 47 00
        E 300 91 2b 00
        E 416 91 2b 7a
        E 464 91 43 7a
        E 9 91 2b 00
        E 747 91 43 00
        E 63 91 2b 6a
        E 386 91 41 7f
        E 138 91 2b 00
        E 1188 91 41 00
        E 37 91 2b 72
        E 364 91 43 7a
        E 8 91 2b 00
        E 423 91 43 00
        E 24 91 2b 6a
        E 324 91 41 72
        E 96 91 2b 00
        E 319 91 41 00
        E 84 91 2b 62
        E 322 91 3e 7a
        E 128 91 2b 00
        E 679 91 3e 00
        E 7 91 2b 7a
        E 329 91 2b 00
        E 442 91 2b 7a
        E 437 91 43 7a
        E 53 91 2b 00
        E 672 91 43 00
        E 77 91 2b 72
        E 404 91 41 7a
        E 127 91 2b 00
        E 1187 91 29 36
        E 5 91 2b 30
        E 33 91 41 00
        E 327 91 43 72
        E 41 91 29 00
        E 2 91 2b 00
        E 379 91 2b 5b
        E 37 91 43 00
        E 355 91 41 6a
        E 10 91 2b 00
        E 374 91 41 00
        E 111 91 2b 43
        E 234 91 2b 00
        E 71 91 48 5b
        E 7 91 47 4e
        E 640 91 48 00
        E 338 91 29 3a
        E 82 91 47 00
        E 134 91 29 00
        E 246 91 2b 43
        E 367 91 2b 00
        E 157 91 2b 43
        E 392 91 2b 00
        E 40 91 43 7a
        E 805 91 43 00
        E 24 91 2b 72
        E 380 91 41 7a
        E 38 91 2b 00
        E 1247 91 41 00
        E 2 91 2b 6a
        E 388 91 43 72
        E 6 91 2b 00
        E 365 91 43 00
        E 5 91 2b 6a
        E 332 91 2b 00
        E 23 91 41 7a
        E 490 91 41 00
        E 63 91 2b 72
        E 358 91 2b 00
        E 7 91 3e 72
        E 7 91 3c 7f
        E 384 91 3c 00
        E 27 91 3e 00
        E 459 91 2b 72
        E 230 91 2b 00
        E 167 91 2b 3e
        E 197 91 2b 00
        E 191 91 2b 5b
        E 324 91 43 7a
        E 19 91 2b 00
        E 341 91 2b 6a
        E 77 91 43 00
        E 118 91 2b 00
        E 211 91 2b 5b
        E 244 91 2b 00
        E 193 91 41 7a
        E 1280 91 2b 5b
        E 81 91 41 00
        E 348 91 43 72
        E 11 91 2b 00
        E 348 91 2b 62
        E 28 91 43 00
        E 339 91 41 72
        E 12 91 2b 00
        E 391 91 41 00
        E 127 91 2b 62
        E 316 91 47 7a
        E 164 91 2b 00
        E 699 91 2b 72
        E 69 91 47 00
        E 143 91 2b 00
        E 196 91 2b 48
        E 268 91 2b 00
        E 125 91 2b 4e
        E 310 91 2b 00
        E 53 91 43 7f
        E 382 91 2b 6a
        E 86 91 43 00
        E 104 91 2b 00
        E 201 91 2b 4e
        E 297 91 2b 00
        E 124 91 41 7a
        E 1198 91 41 00
        E 55 91 2b 62
        E 314 91 43 7a
        E 13 91 2b 00
        E 393 91 43 00
        E 3 91 2b 6a
        E 364 91 2b 00
        E 13 91 41 6a
        E 437 91 41 00
        E 10 91 2b 6a
        E 385 91 3e 7a
        E 120 91 2b 00
        E 780 91 2b 7a
        E 62 91 3e 00
        E 308 91 2b 00
        E 292 91 2b 6a
        E 526 91 41 7a
        E 92 91 2b 00
        E 711 91 2b 6a
        E 18 91 41 00
        E 325 91 2b 00
        E 23 91 43 7a
        E 1281 91 2b 6a
        E 8 91 43 00
        E 369 91 41 72
        E 56 91 2b 00
        E 304 91 41 00
        E 12 91 2b 54
        E 360 91 43 7a
        E 62 91 2b 00
        E 356 91 43 00
        E 20 91 2b 62
        E 316 91 41 6a
        E 60 91 2b 00
        E 546 91 41 00
        E 295 91 2b 72
        E 372 91 2b 00
        E 450 91 2b 6a
        E 412 91 45 7a
        E 93 91 2b 00
        E 693 91 45 00
        E 5 91 2b 6a
        E 453 91 43 7f
        E 79 91 2b 00
        E 2538 91 26 7a
        E 218 91 43 00
        E 77 91 26 00
        E 479 91 26 72
        E 466 91 45 7a
        E 128 91 26 00
        E 662 91 26 54
        E 116 91 45 00
        E 369 91 43 7f
        E 133 91 26 00
        E 1189 91 26 6a
        E 154 91 43 00
        E 321 91 41 72
        E 71 91 26 00
        E 2411 91 26 7a
        E 315 91 26 00
        E 461 91 26 72
        E 41 91 41 00
        E 413 91 45 72
        E 145 91 26 00
        E 1044 91 26 62
        E 239 91 45 00
        E 1060 91 43 72
        E 102 91 26 00
        E 1109 91 26 54
        E 266 91 43 00
        E 558 91 41 72
        E 82 91 26 00
        E 790 91 26 6a
        E 349 91 41 00
        E 42 91 26 00
        E 423 91 26 7a
        E 493 91 45 7a
        E 178 91 26 00
        E 1027 91 26 72
        E 232 91 45 00
        E 1028 91 43 7a
        E 142 91 26 00
        E 1034 91 26 62
        E 244 91 43 00
        E 592 91 41 72
        E 165 91 26 00
        E 681 91 26 6a
        E 217 91 41 00
        E 125 91 26 00
        E 424 91 26 7a
        E 492 91 45 72
        E 53 91 26 00
        E 1131 91 26 6a
        E 541 91 45 00
        E 691 91 43 7a
        E 58 91 26 00
        E 1065 91 26 54
        E 290 91 43 00
        E 538 91 41 6a
        E 90 91 26 00
        E 778 91 2b 62
        E 170 91 41 00
        E 128 91 2b 00
        E 466 91 2b 6a
        E 469 91 43 5b
        E 69 91 2b 00
        E 677 91 2b 5b
        E 8 91 43 00
        E 419 91 45 6a
        E 107 91 2b 00
        E 855 91 45 00
        E 1269 91 2b 0a
        E 232 91 2b 00
        E 348 91 2b 20
        E 369 91 43 6a
        E 29 91 2b 00
        E 638 91 2b 3e
        E 25 91 43 00
        E 260 91 41 6a
        E 174 91 2b 00
        E 686 91 2b 43
        E 7 91 41 00
        E 230 91 43 5b
        E 82 91 2b 00
        E 182 91 2b 33
        E 94 91 43 00
        E 159 91 41 4e
        E 44 91 2b 00
        E 219 91 2b 36
        E 65 91 41 00
        E 177 91 2b 00
        E 31 91 47 4e
        E 754 91 47 00
        E 15775 b0 7b 00
        GUID {1AC419FF-C820-4F6D-B3CE-EFB5E354B93D}
        IGNTEMPO 0 120 4 4
        SRCCOLOR 496
      >
    >
    <ITEM
      POSITION 517.42267573696142
      SNAPOFFS 0
      LENGTH 188.7825386597938
      LOOP 1
      ALLTAKES 0
      FADEIN 1 0 0 1 0 0
      FADEOUT 1 0 0 1 0 0
      MUTE 0
      SEL 0
      IGUID {D839638B-1765-4898-900A-652C3F6C17CD}
      IID 14
      NAME "08-keys midi-Recorded MIDI"
      VOLPAN 1 0 1 -1
      SOFFS 0 0
      PLAYRATE 1 1 0 -1 0 0.0025
      CHANMODE 0
      GUID {32871D19-7F05-40EE-AE0B-404BC3E85B4D}
      RECPASS 5
      <SOURCE MIDI
        HASDATA 1 960 QN
        POOLEDEVTS {83F876F2-3ADC-43EB-896F-C91E1EB35593}
        E 22957 91 41 2a
        E 8 91 45 1d
        E 5 91 3e 20
        E 7546 91 47 12
        E 6 91 45 00
        E 7788 91 48 1c
        E 143 91 47 00
        E 7446 91 48 00
        E 115 91 47 01
        E 7111 91 47 00
        E 133 91 41 00
        E 215 91 41 30
        E 19 91 45 33
        E 7678 91 47 13
        E 97 91 45 00
        E 7586 91 48 24
        E 388 91 47 00
        E 7304 91 48 00
        E 140 91 4a 06
        E 6522 91 4a 00
        E 278 91 41 00
        E 541 91 3e 00
        E 263 91 3e 24
        E 19 91 41 4e
        E 12 91 45 4e
        E 7531 91 47 0f
        E 140 91 45 00
        E 7455 91 47 00
        E 264 91 48 20
        E 7707 91 48 00
        E 108 91 47 01
        E 7242 91 47 00
        E 112 91 41 00
        E 226 91 41 3a
        E 44 91 45 2c
        E 7456 91 47 04
        E 52 91 45 00
        E 7840 91 47 00
        E 175 91 48 01
        E 7210 91 48 00
        E 184 91 4a 0d
        E 7812 91 2b 43
        E 124 91 4a 00
        E 54 91 41 00
        E 30 91 3e 00
        E 212 91 2b 00
        E 409 91 2b 33
        E 556 91 2b 00
        E 13 91 43 6a
        E 899 91 43 00
        E 16 91 2b 0a
        E 472 91 2b 00
        E 31 91 41 62
        E 1505 91 2b 26
        E 16 91 41 00
        E 394 91 43 4e
        E 34 91 2b 00
        E 465 91 2b 24
        E 35 91 43 00
        E 422 91 2b 00
        E 40 91 41 5b
        E 510 91 2b 33
        E 9 91 41 00
        E 474 91 47 72
        E 81 91 2b 00
        E 957 91 2b 3e
        E 65 91 47 00
        E 316 91 2b 00
        E 574 91 2b 5b
        E 556 91 43 6a
        E 33 91 2b 00
        E 870 91 43 00
        E 9 91 2b 2e
        E 518 91 41 6a
        E 16 91 2b 00
        E 1143 91 41 00
        E 148 91 2b 28
        E 395 91 43 72
        E 58 91 2b 00
        E 445 91 43 00
        E 28 91 2b 36
        E 462 91 2b 00
        E 6 91 41 6a
        E 541 91 41 00
        E 3 91 2b 3e
        E 481 91 3e 6a
        E 56 91 2b 00
        E 897 91 2b 43
        E 12 91 3e 00
        E 477 91 2b 00
        E 466 91 2b 54
        E 516 91 2b 00
        E 9 91 43 62
        E 879 91 43 00
        E 15 91 2b 30
        E 549 91 41 7a
        E 25 91 2b 00
        E 1509 91 2b 43
        E 37 91 41 00
        E 410 91 2b 00
        E 15 91 43 62
        E 444 91 2b 36
        E 23 91 43 00
        E 418 91 2b 00
        E 30 91 41 6a
        E 479 91 41 00
        E 9 91 2b 3e
        E 431 91 47 72
        E 112 91 2b 00
        E 876 91 2b 4e
        E 127 91 47 00
        E 251 91 2b 00
        E 506 91 2b 54
        E 528 91 2b 00
        E 18 91 43 6a
        E 966 91 2b 4e
        E 65 91 43 00
        E 463 91 41 6a
        E 19 91 2b 00
        E 1396 91 2b 3e
        E 50 91 41 00
        E 422 91 43 62
        E 6 91 2b 00
        E 434 91 43 00
        E 12 91 2b 3a
        E 414 91 2b 00
        E 46 91 41 6a
        E 451 91 2b 3a
        E 40 91 41 00
        E 444 91 3e 6a
        E 71 91 2b 00
        E 770 91 3e 00
        E 143 91 2b 5b
        E 434 91 2b 00
        E 519 91 2b 5b
        E 511 91 2b 00
        E 20 91 43 6a
        E 893 91 43 00
        E 4 91 2b 43
        E 515 91 41 72
        E 9 91 2b 00
        E 1428 91 2b 4e
        E 71 91 41 00
        E 404 91 43 62
        E 12 91 2b 00
        E 438 91 2b 36
        E 22 91 43 00
        E 428 91 2b 00
        E 22 91 41 72
        E 463 91 41 00
        E 34 91 2b 3e
        E 443 91 47 72
        E 111 91 2b 00
        E 926 91 2b 5b
        E 9 91 47 00
        E 379 91 2b 00
        E 547 91 2b 62
        E 545 91 43 72
        E 43 91 2b 00
        E 869 91 2b 5b
        E 13 91 43 00
        E 490 91 2b 00
        E 3 91 41 6a
        E 1320 91 2b 3a
        E 7 91 41 00
        E 412 91 43 5b
        E 43 91 2b 00
        E 469 91 43 00
        E 32 91 2b 48
        E 440 91 41 5b
        E 7 91 2b 00
        E 487 91 41 00
        E 30 91 2b 48
        E 438 91 3e 72
        E 93 91 2b 00
        E 944 91 2b 54
        E 9 91 3e 00
        E 385 91 2b 00
        E 590 91 2b 62
        E 518 91 2b 00
        E 13 91 43 6a
        E 854 91 43 00
        E 55 91 2b 54
        E 488 91 41 72
        E 55 91 2b 00
        E 1432 91 2b 54
        E 71 91 41 00
        E 441 91 2b 00
        E 3 91 43 62
        E 434 91 2b 43
        E 10 91 43 00
        E 409 91 2b 00
        E 3 91 41 6a
        E 466 91 41 00
        E 28 91 2b 48
        E 459 91 47 72
        E 109 91 2b 00
        E 733 91 47 00
        E 152 91 2b 5b
        E 379 91 2b 00
        E 574 91 2b 62
        E 511 91 2b 00
        E 44 91 43 6a
        E 863 91 43 00
        E 65 91 2b 5b
        E 483 91 41 72
        E 54 91 2b 00
        E 1425 91 2b 5b
        E 106 91 41 00
        E 344 91 2b 00
        E 99 91 43 6a
        E 413 91 2b 48
        E 13 91 43 00
        E 374 91 2b 00
        E 41 91 41 62
        E 422 91 2b 3a
        E 13 91 41 00
        E 481 91 3e 72
        E 112 91 2b 00
        E 661 91 3e 00
        E 248 91 2b 5b
        E 411 91 2b 00
        E 527 91 2b 54
        E 515 91 43 7a
        E 9 91 2b 00
        E 817 91 43 00
        E 62 91 2b 62
        E 500 91 41 72
        E 5 91 2b 00
        E 1422 91 2b 62
        E 106 91 41 00
        E 351 91 2b 00
        E 71 91 43 6a
        E 459 91 2b 4e
        E 34 91 43 00
        E 376 91 2b 00
        E 84 91 41 6a
        E 459 91 41 00
        E 15 91 2b 54
        E 454 91 47 72
        E 87 91 2b 00
        E 915 91 2b 62
        E 26 91 47 00
        E 334 91 2b 00
        E 537 91 2b 62
        E 472 91 2b 00
        E 38 91 43 72
        E 909 91 43 00
        E 16 91 2b 62
        E 501 91 2b 00
        E 3 91 41 72
        E 1340 91 2b 54
        E 55 91 41 00
        E 413 91 2b 00
        E 25 91 43 72
        E 468 91 43 00
        E 25 91 2b 54
        E 429 91 2b 00
        E 34 91 41 6a
        E 506 91 41 00
        E 12 91 2b 4e
        E 500 91 3e 7a
        E 74 91 2b 00
        E 702 91 3e 00
        E 180 91 2b 5b
        E 413 91 2b 00
        E 587 91 2b 5b
        E 477 91 2b 00
        E 28 91 43 72
        E 830 91 43 00
        E 80 91 2b 62
        E 484 91 41 72
        E 19 91 2b 00
        E 1381 91 2b 54
        E 6 91 41 00
        E 460 91 43 6a
        E 21 91 2b 00
        E 460 91 43 00
        E 25 91 2b 54
        E 416 91 2b 00
        E 43 91 41 7a
        E 441 91 41 00
        E 99 91 2b 54
        E 422 91 47 72
        E 121 91 2b 00
        E 817 91 47 00
        E 84 91 2b 6a
        E 391 91 2b 00
        E 552 91 2b 62
        E 528 91 2b 00
        E 17 91 43 7a
        E 784 91 43 00
        E 123 91 2b 5b
        E 504 91 41 7a
        E 22 91 2b 00
        E 1344 91 41 00
        E 21 91 2b 5b
        E 447 91 2b 00
        E 28 91 43 62
        E 447 91 43 00
        E 56 91 2b 54
        E 444 91 2b 00
        E 9 91 41 62
        E 475 91 41 00
        E 63 91 2b 54
        E 433 91 3e 72
        E 57 91 2b 00
        E 847 91 3e 00
        E 69 91 2b 62
        E 436 91 2b 00
        E 590 91 2b 6a
        E 438 91 2b 00
        E 75 91 43 7a
        E 869 91 43 00
        E 47 91 2b 54
        E 474 91 2b 00
        E 13 91 41 7a
        E 1421 91 41 00
        E 41 91 2b 6a
        E 441 91 2b 00
        E 49 91 43 72
        E 413 91 2b 54
        E 16 91 43 00
        E 381 91 2b 00
        E 74 91 41 72
        E 441 91 41 00
        E 103 91 2b 54
        E 434 91 47 62
        E 7 91 48 62
        E 118 91 2b 00
        E 527 91 48 00
        E 31 91 47 00
        E 252 91 2b 6a
        E 372 91 2b 00
        E 636 91 2b 5b
        E 382 91 2b 00
        E 159 91 43 6a
        E 850 91 43 00
        E 112 91 2b 5b
        E 434 91 41 72
        E 31 91 2b 00
        E 1348 91 2b 5b
        E 68 91 41 00
        E 344 91 2b 00
        E 56 91 43 62
        E 441 91 2b 4e
        E 21 91 43 00
        E 451 91 2b 00
        E 43 91 41 72
        E 482 91 41 00
        E 25 91 2b 54
        E 456 91 3e 72
        E 80 91 2b 00
        E 860 91 3e 00
        E 31 91 2b 62
        E 427 91 2b 00
        E 495 91 2b 62
        E 521 91 43 72
        E 15 91 2b 00
        E 929 91 2b 62
        E 6 91 43 00
        E 524 91 2b 00
        E 23 91 41 72
        E 1387 91 2b 62
        E 112 91 41 00
        E 369 91 2b 00
        E 65 91 43 62
        E 432 91 2b 48
        E 12 91 43 00
        E 420 91 2b 00
        E 37 91 41 72
        E 478 91 41 00
        E 27 91 2b 48
        E 491 91 47 72
        E 22 91 45 54
        E 56 91 2b 00
        E 460 91 45 00
        E 238 91 47 00
        E 146 91 2b 5b
        E 502 91 2b 00
        E 472 91 2b 54
        E 507 91 43 6a
        E 9 91 2b 00
        E 921 91 2b 54
        E 31 91 43 00
        E 485 91 41 6a
        E 16 91 2b 00
        E 1297 91 2b 54
        E 80 91 41 00
        E 425 91 43 6a
        E 41 91 2b 00
        E 438 91 43 00
        E 41 91 2b 48
        E 353 91 2b 00
        E 131 91 41 6a
        E 502 91 41 00
        E 6 91 2b 36
        E 441 91 3e 6a
        E 38 91 2b 00
        E 912 91 26 5b
        E 186 91 3e 00
        E 237 91 26 00
        E 573 91 26 54
        E 512 91 45 62
        E 69 91 26 00
        E 1295 91 26 4e
        E 492 91 45 00
        E 1133 91 43 62
        E 140 91 26 00
        E 1040 91 26 43
        E 230 91 43 00
        E 757 91 41 6a
        E 85 91 26 00
        E 871 91 26 48
        E 171 91 41 00
        E 301 91 26 00
        E 543 91 26 5b
        E 537 91 45 6a
        E 134 91 26 00
        E 1197 91 26 48
        E 116 91 45 00
        E 1415 91 43 7a
        E 111 91 26 00
        E 1280 91 26 48
        E 202 91 43 00
        E 800 91 41 7a
        E 68 91 26 00
        E 901 91 26 4e
        E 105 91 41 00
        E 357 91 26 00
        E 512 91 26 5b
        E 491 91 45 6a
        E 93 91 26 00
        E 1276 91 26 62
        E 164 91 45 00
        E 1359 91 43 7a
        E 134 91 26 00
        E 1264 91 26 36
        E 220 91 43 00
        E 689 91 41 72
        E 106 91 26 00
        E 846 91 26 5b
        E 107 91 41 00
        E 381 91 26 00
        E 488 91 26 5b
        E 477 91 45 62
        E 79 91 26 00
        E 1303 91 26 5b
        E 229 91 45 00
        E 1289 91 43 72
        E 99 91 26 00
        E 1257 91 26 54
        E 236 91 43 00
        E 776 91 41 7a
        E 104 91 26 00
        E 821 91 26 54
        E 40 91 41 00
        E 451 91 26 00
        E 518 91 26 62
        E 481 91 45 6a
        E 86 91 26 00
        E 1276 91 26 62
        E 271 91 45 00
        E 1297 91 43 72
        E 87 91 26 00
        E 1266 91 26 4e
        E 248 91 43 00
        E 761 91 41 7a
        E 102 91 26 00
        E 888 91 41 00
        E 3 91 26 54
        E 463 91 26 00
        E 506 91 26 6a
        E 487 91 45 7a
        E 121 91 26 00
        E 1202 91 26 62
        E 363 91 45 00
        E 1182 91 43 72
        E 112 91 26 00
        E 1248 91 26 4e
        E 375 91 43 00
        E 624 91 41 5b
        E 236 91 26 00
        E 878 91 2b 5b
        E 25 91 41 00
        E 357 91 2b 00
        E 472 91 2b 5b
        E 485 91 43 6a
        E 90 91 2b 00
        E 813 91 2b 4e
        E 43 91 43 00
        E 471 91 41 6a
        E 38 91 2b 00
        E 1369 91 2b 54
        E 112 91 41 00
        E 390 91 43 6a
        E 13 91 2b 00
        E 426 91 2b 4e
        E 55 91 43 00
        E 385 91 2b 00
        E 57 91 41 6a
        E 484 91 41 00
        E 43 91 2b 62
        E 431 91 47 72
        E 173 91 2b 00
        E 836 91 2b 6a
        E 133 91 47 00
        E 302 91 2b 00
        E 440 91 2b 72
        E 513 91 43 6a
        E 115 91 2b 00
        E 841 91 2b 6a
        E 78 91 43 00
        E 459 91 2b 00
        E 3 91 41 6a
        E 1359 91 2b 62
        E 91 91 41 00
        E 421 91 2b 00
        E 19 91 43 62
        E 468 91 2b 62
        E 63 91 43 00
        E 415 91 2b 00
        E 22 91 41 72
        E 470 91 2b 62
        E 21 91 41 00
        E 447 91 3e 72
        E 43 91 2b 00
        E 913 91 3e 00
        E 31 91 2b 72
        E 518 91 2b 00
        E 447 91 2b 62
        E 522 91 43 7a
        E 68 91 2b 00
        E 811 91 43 00
        E 11 91 2b 6a
        E 473 91 41 72
        E 9 91 2b 00
        E 1396 91 2b 54
        E 131 91 41 00
        E 369 91 2b 00
        E 32 91 43 62
        E 408 91 2b 5b
        E 63 91 43 00
        E 415 91 2b 00
        E 20 91 41 6a
        E 531 91 41 00
        E 3 91 2b 62
        E 468 91 47 7f
        E 140 91 2b 00
        E 819 91 47 00
        E 53 91 2b 72
        E 376 91 2b 00
        E 555 91 2b 72
        E 519 91 43 72
        E 28 91 2b 00
        E 941 91 2b 6a
        E 37 91 43 00
        E 431 91 2b 00
        E 5 91 41 72
        E 1366 91 2b 6a
        E 100 91 41 00
        E 379 91 2b 00
        E 6 91 43 62
        E 474 91 2b 62
        E 20 91 43 00
        E 413 91 2b 00
        E 9 91 41 62
        E 524 91 41 00
        E 28 91 2b 5b
        E 466 91 3e 72
        E 84 91 2b 00
        E 776 91 3e 00
        E 121 91 2b 6a
        E 434 91 2b 00
        E 482 91 2b 6a
        E 564 91 2b 00
        E 3 91 43 6a
        E 897 91 43 00
        E 25 91 2b 6a
        E 451 91 41 7a
        E 9 91 2b 00
        E 1455 91 2b 62
        E 100 91 41 00
        E 375 91 2b 00
        E 22 91 43 6a
        E 447 91 2b 54
        E 75 91 43 00
        E 399 91 2b 00
        E 17 91 41 72
        E 527 91 41 00
        E 25 91 2b 6a
        E 413 91 47 72
        E 118 91 2b 00
        E 869 91 2b 6a
        E 41 91 47 00
        E 400 91 2b 00
        E 471 91 2b 6a
        E 537 91 43 7a
        E 57 91 2b 00
        E 834 91 2b 6a
        E 60 91 43 00
        E 415 91 41 72
        E 22 91 2b 00
        E 1347 91 2b 62
        E 116 91 41 00
        E 383 91 2b 00
        E 16 91 43 72
        E 435 91 2b 62
        E 65 91 43 00
        E 410 91 2b 00
        E 6 91 41 6a
        E 512 91 2b 5b
        E 37 91 41 00
        E 499 91 3e 6a
        E 107 91 2b 00
        E 853 91 2b 62
        E 65 91 3e 00
        E 382 91 2b 00
        E 525 91 2b 6a
        E 527 91 43 6a
        E 59 91 2b 00
        E 801 91 2b 62
        E 13 91 43 00
        E 515 91 41 7a
        E 68 91 2b 00
        E 1425 91 2b 62
        E 155 91 41 00
        E 329 91 2b 00
        E 68 91 43 6a
        E 398 91 2b 62
        E 96 91 43 00
        E 382 91 2b 00
        E 25 91 41 6a
        E 459 91 41 00
        E 31 91 2b 62
        E 444 91 47 7a
        E 120 91 2b 00
        E 683 91 47 00
        E 174 91 2b 6a
        E 394 91 2b 00
        E 510 91 2b 72
        E 549 91 43 72
        E 19 91 2b 00
        E 872 91 43 00
        E 15 91 2b 6a
        E 450 91 41 72
        E 13 91 2b 00
        E 1427 91 2b 6a
        E 119 91 41 00
        E 354 91 2b 00
        E 52 91 43 6a
        E 460 91 2b 62
        E 18 91 43 00
        E 414 91 2b 00
        E 24 91 41 62
        E 481 91 41 00
        E 22 91 2b 5b
        E 432 91 3e 72
        E 111 91 2b 00
        E 742 91 3e 00
        E 180 91 2b 6a
        E 450 91 2b 00
        E 499 91 2b 62
        E 587 91 2b 00
        E 13 91 43 7a
        E 854 91 43 00
        E 11 91 2b 72
        E 473 91 41 72
        E 9 91 2b 00
        E 1288 91 2b 62
        E 65 91 41 00
        E 441 91 43 62
        E 13 91 2b 00
        E 493 91 43 00
        E 4 91 2b 5b
        E 447 91 2b 00
        E 33 91 41 6a
        E 485 91 41 00
        E 18 91 2b 5b
        E 468 91 47 7a
        E 221 91 2b 00
        E 761 91 2b 6a
        E 61 91 47 00
        E 423 91 2b 00
        E 462 91 2b 62
        E 602 91 43 62
        E 35 91 2b 00
        E 826 91 2b 5b
        E 64 91 43 00
        E 423 91 41 72
        E 49 91 2b 00
        E 1288 91 2b 5b
        E 143 91 41 00
        E 342 91 2b 00
        E 46 91 43 6a
        E 413 91 2b 5b
        E 59 91 43 00
        E 397 91 2b 00
        E 69 91 41 62
        E 484 91 2b 54
        E 50 91 41 00
        E 450 91 3e 7a
        E 111 91 2b 00
        E 848 91 2b 62
        E 55 91 3e 00
        E 392 91 2b 00
        E 459 91 2b 62
        E 594 91 2b 00
        E 17 91 43 72
        E 845 91 43 00
        E 81 91 2b 6a
        E 418 91 41 72
        E 53 91 2b 00
        E 1332 91 2b 48
        E 118 91 41 00
        E 426 91 2b 00
        E 5 91 43 72
        E 439 91 2b 54
        E 24 91 43 00
        E 438 91 41 72
        E 40 91 2b 00
        E 413 91 41 00
        E 68 91 2b 5b
        E 416 91 47 72
        E 121 91 2b 00
        E 685 91 47 00
        E 259 91 2b 6a
        E 434 91 2b 00
        E 550 91 2b 6a
        E 568 91 43 72
        E 17 91 2b 00
        E 876 91 2b 5b
        E 7 91 43 00
        E 447 91 41 7a
        E 6 91 2b 00
        E 1409 91 2b 62
        E 92 91 41 00
        E 383 91 2b 00
        E 46 91 43 6a
        E 392 91 2b 54
        E 59 91 43 00
        E 441 91 2b 00
        E 13 91 41 62
        E 489 91 41 00
        E 38 91 2b 54
        E 441 91 3e 72
        E 68 91 2b 00
        E 909 91 2b 62
        E 19 91 3e 00
        E 415 91 2b 00
        E 528 91 2b 6a
        E 506 91 43 72
        E 28 91 2b 00
        E 822 91 2b 5b
        E 26 91 43 00
        E 478 91 41 7a
        E 28 91 2b 00
        E 1394 91 2b 5b
        E 74 91 41 00
        E 387 91 2b 00
        E 47 91 43 6a
        E 383 91 2b 4e
        E 114 91 43 00
        E 332 91 2b 00
        E 65 91 41 6a
        E 488 91 41 00
        E 18 91 2b 62
        E 469 91 47 6a
        E 134 91 2b 00
        E 673 91 47 00
        E 273 91 2b 6a
        E 419 91 2b 00
        E 558 91 2b 6a
        E 522 91 43 6a
        E 32 91 2b 00
        E 872 91 43 00
        E 21 91 2b 72
        E 476 91 2b 00
        E 3 91 41 72
        E 1371 91 2b 6a
        E 109 91 41 00
        E 380 91 2b 00
        E 39 91 43 6a
        E 453 91 2b 62
        E 25 91 43 00
        E 471 91 41 62
        E 13 91 2b 00
        E 513 91 41 00
        E 5 91 2b 6a
        E 451 91 3e 72
        E 124 91 2b 00
        E 617 91 3e 00
        E 243 91 2b 72
        E 443 91 2b 00
        E 553 91 2b 6a
        E 443 91 43 72
        E 69 91 2b 00
        E 888 91 2b 72
        E 6 91 43 00
        E 434 91 2b 00
        E 47 91 41 7a
        E 1456 91 2b 6a
        E 139 91 41 00
        E 332 91 2b 00
        E 91 91 43 6a
        E 400 91 2b 62
        E 78 91 43 00
        E 410 91 41 72
        E 9 91 2b 00
        E 462 91 41 00
        E 127 91 2b 62
        E 376 91 47 72
        E 128 91 2b 00
        E 645 91 47 00
        E 168 91 2b 6a
        E 438 91 2b 00
        E 502 91 2b 62
        E 506 91 43 72
        E 19 91 2b 00
        E 847 91 43 00
        E 6 91 2b 6a
        E 487 91 2b 00
        E 3 91 41 72
        E 1385 91 2b 72
        E 205 91 41 00
        E 372 91 2b 00
        E 44 91 43 6a
        E 428 91 2b 62
        E 43 91 43 00
        E 376 91 2b 00
        E 16 91 41 5b
        E 494 91 41 00
        E 21 91 2b 4e
        E 432 91 3e 62
        E 214 91 2b 00
        E 819 91 26 5b
        E 121 91 3e 00
        E 332 91 26 00
        E 469 91 26 62
        E 621 91 45 5b
        E 149 91 26 00
        E 1226 91 26 54
        E 167 91 45 00
        E 1398 91 43 72
        E 55 91 26 00
        E 1254 91 26 4e
        E 193 91 43 00
        E 676 91 41 6a
        E 125 91 26 00
        E 902 91 26 62
        E 228 91 41 00
        E 245 91 26 00
        E 471 91 26 6a
        E 465 91 45 72
        E 225 91 26 00
        E 1173 91 26 6a
        E 161 91 45 00
        E 1375 91 43 72
        E 75 91 26 00
        E 1303 91 26 48
        E 255 91 43 00
        E 699 91 41 72
        E 64 91 26 00
        E 941 91 26 62
        E 136 91 41 00
        E 407 91 26 00
        E 426 91 26 6a
        E 474 91 45 72
        E 134 91 26 00
        E 1322 91 26 72
        E 183 91 45 00
        E 1310 91 43 7a
        E 56 91 26 00
        E 1307 91 26 5b
        E 288 91 43 00
        E 623 91 41 72
        E 120 91 26 00
        E 871 91 26 72
        E 65 91 41 00
        E 398 91 26 00
        E 509 91 26 6a
        E 493 91 45 72
        E 121 91 26 00
        E 1214 91 26 6a
        E 457 91 45 00
        E 1102 91 43 7a
        E 71 91 26 00
        E 1198 91 26 4e
        E 311 91 43 00
        E 655 91 41 7a
        E 143 91 26 00
        E 855 91 41 00
        E 22 91 26 72
        E 411 91 26 00
        E 515 91 26 6a
        E 530 91 45 72
        E 97 91 26 00
        E 1257 91 26 6a
        E 294 91 45 00
        E 1273 91 43 7a
        E 65 91 26 00
        E 1229 91 26 6a
        E 252 91 43 00
        E 729 91 41 72
        E 66 91 26 00
        E 928 91 26 72
        E 149 91 41 00
        E 319 91 26 00
        E 469 91 26 72
        E 552 91 45 7a
        E 122 91 26 00
        E 1250 91 26 62
        E 13 91 24 4e
        E 335 91 45 00
        E 646 91 24 00
        E 531 91 43 72
        E 219 91 26 00
        E 998 91 26 5b
        E 325 91 43 00
        E 795 91 41 7a
        E 96 91 26 00
        E 810 91 26 62
        E 155 91 41 00
        E 362 91 26 00
        E 455 91 26 6a
        E 593 91 45 72
        E 154 91 26 00
        E 1199 91 26 62
        E 441 91 45 00
        E 1164 91 43 7a
        E 127 91 26 00
        E 1140 91 26 62
        E 368 91 43 00
        E 677 91 41 7a
        E 44 91 26 00
        E 871 91 26 62
        E 57 91 41 00
        E 496 91 26 00
        E 457 91 26 62
        E 537 91 45 7a
        E 99 91 26 00
        E 1214 91 24 62
        E 4 91 26 62
        E 331 91 45 00
        E 1115 91 24 00
        E 49 91 43 72
        E 99 91 26 00
        E 1161 91 26 62
        E 184 91 43 00
        E 780 91 41 72
        E 126 91 26 00
        E 400 91 41 00
        E 663 91 41 72
        E 17 91 3e 4e
        E 6 91 45 54
        E 7492 91 47 2a
        E 106 91 45 00
        E 7599 91 47 00
        E 92 91 48 01
        E 7531 91 48 00
        E 47 91 47 03
        E 7452 91 47 00
        E 122 91 41 00
        E 127 91 41 18
        E 37 91 45 54
        E 7555 91 45 00
        E 12 91 47 1a
        E 7704 91 48 01
        E 115 91 47 00
        E 7338 91 4a 01
        E 232 91 48 00
        E 23268 91 4a 00
        E 3 91 3e 00
        E 3 91 41 00
        E 9911 b0 7b 00
        GUID {46D7B341-2177-4EA0-ACAD-554F38AB3FBD}
        IGNTEMPO 0 120 4 4
        SRCCOLOR 522
      >
    >
  >
  <TRACK {994C3B7F-A23F-4363-82E3-4C5DDEF04DF6}
    NAME "Keys Right"
    PEAKCOL 16576
    BEAT -1
    AUTOMODE 0
    VOLPAN 0.98827363418181 1 -1 -1 1
    MUTESOLO 0 0 0
    IPHASE 0
    ISBUS 0 0
    BUSCOMP 0 0
    SHOWINMIX 1 0.6667 0.5 1 0.5 0 0 0
    FREEMODE 0
    SEL 0
    REC 0 3 1 0 0 0 0
    VU 2
    TRACKHEIGHT 0 0
    INQ 0 0 0 0.5 100 0 0 100
    NCHAN 2
    FX 1
    TRACKID {994C3B7F-A23F-4363-82E3-4C5DDEF04DF6}
    PERF 0
    MIDIOUT -1
    MAINSEND 1 0
    <ITEM
      POSITION 0
      SNAPOFFS 0
      LENGTH 213.32347885545968
      LOOP 1
      ALLTAKES 0
      FADEIN 1 0.007784 0 1 0 0
      FADEOUT 1 0.007784 0 1 0 0
      MUTE 0
      SEL 0
      IGUID {03EB3B3D-3246-424C-B308-A0242945F481}
      IID 6
      NAME "D__Recording_09-Keys Right-160910_2023.wav"
      VOLPAN 1 0 1 -1
      SOFFS 0
      PLAYRATE 1.28476821192053 1 0 -1 0 0.0025
      CHANMODE 0
      GUID {8FB3BC02-ED23-4671-869D-2F25B7400E19}
      RECPASS 2
      <SOURCE WAVE
        FILE "D__Recording_09-Keys Right-160910_2023.wav"
      >
    >
    <ITEM
      POSITION 213.71131273815368
      SNAPOFFS 0
      LENGTH 303.541822357809
      LOOP 1
      ALLTAKES 0
      FADEIN 1 0.007784 0 1 0 0
      FADEOUT 1 0.007784 0 1 0 0
      MUTE 0
      SEL 0
      IGUID {3B3DBC9D-8EDC-41CD-9262-78F4DECE91ED}
      IID 10
      NAME "D__Recording_09-Keys Right-160910_2030.wav"
      VOLPAN 1 0 1 -1
      SOFFS 0
      PLAYRATE 1.28476821192053 1 0 -1 0 0.0025
      CHANMODE 0
      GUID {D5615D2F-E1F1-4D3E-A19B-920F8F0FE9B5}
      RECPASS 3
      <SOURCE WAVE
        FILE "D__Recording_09-Keys Right-160910_2030.wav"
      >
    >
    <ITEM
      POSITION 517.42267573696142
      SNAPOFFS 0
      LENGTH 188.78142857142856
      LOOP 1
      ALLTAKES 0
      FADEIN 1 0.01 0 1 0 0
      FADEOUT 1 0.01 0 1 0 0
      MUTE 0
      SEL 0
      IGUID {DF95DED8-D5BE-4801-8B67-AE8982F7F83E}
      IID 15
      NAME "D__Recording_09-Keys Right-160910_2119.wav"
      VOLPAN 1 0 1 -1
      SOFFS 0
      PLAYRATE 1 1 0 -1 0 0.0025
      CHANMODE 0
      GUID {73F73A82-8865-464E-862D-FAE4DBF80AC6}
      RECPASS 5
      <SOURCE WAVE
        FILE "D__Recording_09-Keys Right-160910_2119.wav"
      >
    >
  >
>
