<REAPER_PROJECT 0.1 "5.22/x64" 1468790920
  RIPPLE 0
  GROUPOVERRIDE 0 0 0
  AUTOXFADE 1
  ENVATTACH 1
  MIXERUIFLAGS 11 48
  PEAKGAIN 1
  FEEDBACK 0
  PANLAW 1
  PROJOFFS 0 0
  MAXPROJLEN 0 600
  GRID 3199 8 0.5 8 1 0 0
  TIMEMODE 1 5 -1 30 0
  PANMODE 3
  CURSOR 0
  ZOOM 29.79017957 0 0
  VZOOMEX 3
  USE_REC_CFG 0
  RECMODE 1
  SMPTESYNC 0 30 100 40 1000 300 0 0 1
  LOOP 0
  LOOPGRAN 0 4
  RECORD_PATH "" "D:\Recording"
  <RECORD_CFG
    ZXZhdxgA
  >
  <APPLYFX_CFG
  >
  RENDER_FILE ""
  RENDER_PATTERN ""
  RENDER_FMT 0 2 44100
  RENDER_1X 0
  RENDER_RANGE 1 0 0 18 1000
  RENDER_RESAMPLE 4 0 1
  RENDER_ADDTOPROJ 0
  RENDER_STEMS 0
  RENDER_DITHER 0
  TIMELOCKMODE 1
  TEMPOENVLOCKMODE 1
  ITEMMIX 0
  DEFPITCHMODE 589824
  TAKELANE 1
  SAMPLERATE 44100 0 0
  <RENDER_CFG
    bDNwbUABAAABAAAA//////////8EAAAAQAEAAAAAAAA=
  >
  LOCK 1
  <METRONOME 7 2
    VOL 0.25 0.125
    FREQ 800 1600 1
    BEATLEN 4
    SAMPLES "" ""
    PATTERN 2863311530 2863311529
  >
  GLOBAL_AUTO -1
  TEMPO 125 4 4
  PLAYRATE 1 0 0.25 4
  SELECTION 0 0
  SELECTION2 0 0
  MASTERAUTOMODE 0
  MASTERTRACKHEIGHT 0
  MASTERPEAKCOL 16576
  MASTERMUTESOLO 0
  MASTERTRACKVIEW 0 0.6667 0.5 0.5 0 0 0
  MASTERHWOUT 0 0 1 0 0 0 0 -1
  MASTER_NCH 2 2
  MASTER_VOLUME 1 0 -1 -1 1
  MASTER_FX 1
  MASTER_SEL 0
  <MASTERPLAYSPEEDENV
    ACT 0
    VIS 0 1 1
    LANEHEIGHT 0 0
    ARM 0
    DEFSHAPE 0 -1 -1
  >
  <TEMPOENVEX
    ACT 0
    VIS 1 0 1
    LANEHEIGHT 0 0
    ARM 0
    DEFSHAPE 1 -1 -1
  >
  <PROJBAY
  >
  <TRACK {E2A896FA-0360-4103-AFCB-2E5A63C29C02}
    NAME EZdrummer
    PEAKCOL 16576
    BEAT -1
    AUTOMODE 0
    VOLPAN 1 0 -1 -1 1
    MUTESOLO 0 0 0
    IPHASE 0
    ISBUS 0 0
    BUSCOMP 0 0
    SHOWINMIX 1 0.6667 0.5 1 0.5 0 0 0
    FREEMODE 0
    SEL 0
    REC 0 5088 1 0 0 0 0
    VU 2
    TRACKHEIGHT 0 0
    INQ 0 0 0 0.5 100 0 0 100
    NCHAN 2
    FX 1
    TRACKID {E2A896FA-0360-4103-AFCB-2E5A63C29C02}
    PERF 0
    MIDIOUT -1
    MAINSEND 1 0
    <FXCHAIN
      SHOW 0
      LASTSEL 0
      DOCKED 0
      BYPASS 0 0 0
      <VST "VSTi: EZdrummer (Toontrack) (32 out)" EZdrummer.dll 0 "" 1684432997
        ZWhmZO5e7f4AAAAAIAAAAAEAAAAAAAAAAgAAAAAAAAAEAAAAAAAAAAgAAAAAAAAAEAAAAAAAAAAgAAAAAAAAAEAAAAAAAAAAgAAAAAAAAAAAAQAAAAAAAAACAAAAAAAA
        AAQAAAAAAAAACAAAAAAAAAAQAAAAAAAAACAAAAAAAAAAQAAAAAAAAACAAAAAAAAAAAABAAAAAAAAAAIAAAAAAAAABAAAAAAAAAAIAAAAAAAAABAAAAAAAAAAIAAAAAAA
        AABAAAAAAAAAAIAAAAAAAAAAAAEAAAAAAAAAAgAAAAAAAAAEAAAAAAAAAAgAAAAAAAAAEAAAAAAAAAAgAAAAAAAAAEAAAAAAAAAAgAAAAACGDAAAAQAAALIAEAA=
        dmVyc2lvbiAxCkVaWCAiRVpYMl9FWmRydW1tZXIyX01vZGVybiIKaHVtYW5pemUgMQpwb3MgIktpY2siICIxODIyR01TIgpwb3MgIlNuYXJlIiAiMTNHTVMiCnBvcyAi
        SGF0cyIgIjE0SEhYIgpwb3MgIlRvbTEiICIxMEdNUzEiCnBvcyAiVG9tMiIgIjEyR01TMSIKcG9zICJUb20zIiAiMTRHTVMxIgpwb3MgIlRvbTQiICIxNkdNUzEiCnBv
        cyAiVG9tNSIgIjE4R01TMSIKcG9zICJSaWRlNCIgIjIxUmlkZVZpbnRhZ2UiCnBvcyAiQ3Jhc2gxIiAiMTlTYWJpYW4xIgpwb3MgIkNyYXNoMiIgIjE4U2FiaWFuMiIK
        cG9zICJDcmFzaDMiICIxOFNhYmlhbjMiCnBvcyAiQ3Jhc2g0IiAiMThTYWJpYW41IgptaXhlciB7CmJ1c3MgMCB7CnBhbiAwLjUKdm9sdW1lIDAuNzA3OTQ3CnBoYXNl
        cmV2ZXJzZSAwCnNvbG8gMAptdXRlIDAKcm91dGUgMAp9CmJ1c3MgMSB7CnBhbiAwLjUKdm9sdW1lIDAuNzA3OTQ3CnBoYXNlcmV2ZXJzZSAwCnNvbG8gMAptdXRlIDAK
        cm91dGUgMAp9CmJ1c3MgMiB7CnBhbiAwLjUKdm9sdW1lIDAuNzA3OTQ3CnBoYXNlcmV2ZXJzZSAwCnNvbG8gMAptdXRlIDAKcm91dGUgMAp9CmJ1c3MgMyB7CnBhbiAw
        LjUKdm9sdW1lIDAuNzA3OTQ3CnBoYXNlcmV2ZXJzZSAwCnNvbG8gMAptdXRlIDAKcm91dGUgMAp9CmJ1c3MgNCB7CnBhbiAwLjM3NQp2b2x1bWUgMC4zNTQ4MTQKcGhh
        c2VyZXZlcnNlIDAKc29sbyAwCm11dGUgMApyb3V0ZSAwCn0KYnVzcyA1IHsKcGFuIDAuMzc1CnZvbHVtZSAwLjM1NDgxNApwaGFzZXJldmVyc2UgMApzb2xvIDAKbXV0
        ZSAwCnJvdXRlIDAKfQpidXNzIDYgewpwYW4gMAp2b2x1bWUgMQpwaGFzZXJldmVyc2UgMApzb2xvIDAKbXV0ZSAwCnJvdXRlIDAKfQpidXNzIDcgewpwYW4gMQp2b2x1
        bWUgMQpwaGFzZXJldmVyc2UgMApzb2xvIDAKbXV0ZSAwCnJvdXRlIDAKfQpidXNzIDggewpwYW4gMAp2b2x1bWUgMC42MzA5NTgKcGhhc2VyZXZlcnNlIDAKc29sbyAw
        Cm11dGUgMApyb3V0ZSAwCn0KYnVzcyA5IHsKcGFuIDEKdm9sdW1lIDAuNjMwOTU4CnBoYXNlcmV2ZXJzZSAwCnNvbG8gMAptdXRlIDAKcm91dGUgMAp9CmJ1c3MgMTAg
        ewpwYW4gMAp2b2x1bWUgMC4zNDU1MTEKcGhhc2VyZXZlcnNlIDAKc29sbyAwCm11dGUgMApyb3V0ZSAwCn0KYnVzcyAxMSB7CnBhbiAxCnZvbHVtZSAwLjM0NTUxMQpw
        aGFzZXJldmVyc2UgMApzb2xvIDAKbXV0ZSAwCnJvdXRlIDAKfQpidXNzIDEyIHsKcGFuIDAKdm9sdW1lIDAuNDc1MjUxCnBoYXNlcmV2ZXJzZSAwCnNvbG8gMAptdXRl
        IDAKcm91dGUgMAp9CmJ1c3MgMTMgewpwYW4gMQp2b2x1bWUgMC40NzUyNTEKcGhhc2VyZXZlcnNlIDAKc29sbyAwCm11dGUgMApyb3V0ZSAwCn0KYnVzcyAxNCB7CnBh
        biAwCnZvbHVtZSAwLjE4MjYxNgpwaGFzZXJldmVyc2UgMApzb2xvIDAKbXV0ZSAwCnJvdXRlIDAKfQpidXNzIDE1IHsKcGFuIDEKdm9sdW1lIDAuMTgyNjE2CnBoYXNl
        cmV2ZXJzZSAwCnNvbG8gMAptdXRlIDAKcm91dGUgMAp9CmJ1c3MgMTYgewpwYW4gMC41CnZvbHVtZSAwLjcwNzk0NwpwaGFzZXJldmVyc2UgMApzb2xvIDAKbXV0ZSAw
        CnJvdXRlIDAKfQpidXNzIDE3IHsKcGFuIDAuNQp2b2x1bWUgMC43MDc5NDcKcGhhc2VyZXZlcnNlIDAKc29sbyAwCm11dGUgMApyb3V0ZSAwCn0KYnVzcyAxOCB7CnBh
        biAwLjEzODg4OQp2b2x1bWUgMC42MzA5NTgKcGhhc2VyZXZlcnNlIDAKc29sbyAwCm11dGUgMApyb3V0ZSAwCn0KYnVzcyAxOSB7CnBhbiAwLjEzODg4OQp2b2x1bWUg
        MC42MzA5NTgKcGhhc2VyZXZlcnNlIDAKc29sbyAwCm11dGUgMApyb3V0ZSAwCn0KYnVzcyAyMCB7CnBhbiAwLjgzMzMzMwp2b2x1bWUgMC42MzA5NTgKcGhhc2VyZXZl
        cnNlIDAKc29sbyAwCm11dGUgMApyb3V0ZSAwCn0KYnVzcyAyMSB7CnBhbiAwLjgzMzMzMwp2b2x1bWUgMC42MzA5NTgKcGhhc2VyZXZlcnNlIDAKc29sbyAwCm11dGUg
        MApyb3V0ZSAwCn0KYnVzcyAyMiB7CnBhbiAwCnZvbHVtZSAwLjI3OTM1MwpwaGFzZXJldmVyc2UgMApzb2xvIDAKbXV0ZSAwCnJvdXRlIDAKfQpidXNzIDIzIHsKcGFu
        IDEKdm9sdW1lIDAuMjc5MzUzCnBoYXNlcmV2ZXJzZSAwCnNvbG8gMAptdXRlIDAKcm91dGUgMAp9Cn0KRVoxc3R1ZmZFTkQgewp9CnNhbXBsZXIgewptYXN0ZXJ2b2wg
        MQpyZXZlcnNlIDAKcHJlc2V0ICJCYXNpYyIKa25vYiAwIDAuNDg1MTQ5Cmtub2IgMSAwLjUwNDk1MQprbm9iIDIgMC41Cmtub2IgMyAwLjUKa25vYiA0IDEKa25vYiA1
        IDEKZHJ1bXByb3BzIHsKIlhQZXJjLTAiIHggIkVaWFBfRVpkcnVtbWVyMl9QZXJjdXNzaW9uIiAiT25lc2hvdCIgIkNsYXBzMiIKIlhQZXJjLTEiIHggIkVaWFBfRVpk
        cnVtbWVyMl9QZXJjdXNzaW9uIiAiU2hha2VyIiAiU2hha2VyMSIKIlhQZXJjLTIiIHggIkVaWFBfRVpkcnVtbWVyMl9QZXJjdXNzaW9uIiAiVGFtYm91cmluZSIgIlRh
        bWIxIgp9Cn0KZWRydW0gbm9uZSBub25lCm1pZGlsZWFybiB7Cn0KRWRpdG9yIHsgClNvbmdUcmFjayB7ClZpc2libGVBcmVhIDAgNjUKVHJhY2tOYW1lICIiCkNsZWFy
        VHJhY2tGaXJzdApUaW1lU2lnIDQgNApHcmlkUmVzIDMyCkxvb3BBcmVhIDAgMApMb29wQWN0aXZlIDAKfQpWaXNpYmxlUmVzdWx0Q29sdW1ucyAxNiwyOCwwLDA7MTcs
        MjgsMCwwOzAsMTg1LDAsMDsxMSwyMDAsMCwwOzQsMTUwLDAsMDs2LDEzMCwwLDA7Nyw0NSwwLDA7OCw0NSwwLDA7Myw0NSwwLDA7ClZpc2libGVGaWx0ZXJDb2x1bW5z
        IDQ7Nzs1OzE7NTsyOzY7MjsKQnJvd3NlckhlaWdodCAxNjYKU2VsZWN0ZWRUYWdzICwwLDAsMCwwLDAsMCwwLDAsMCwwLDAsMCwwLDAsMCwwLDAsMCwwLDAsMCwwLDAs
        MCwwLDAsMCwwLDAsMCwwLDAsMCwwLDAsMCwwLDAsMCwwLDAsMCwwLDAsMCwwLDAsMCwwLDAsMCwwLDAsMCwwLDAsMCwwLDAsMCwwLDAsMCwwLDAsMCwwLDAsMCwwLDAs
        MCwwLDAsMCwwLDAsMCwwLDAsMCwwLDAsMCwwLDAsMCwwLDAsMCwwLDAsMCwwLDAsMCwwLDAsMCwwLDAsMCwwLDAsMCwwLDAsMCwwLDAsMCwwLDAsMCwwLDAsMCwwLDAs
        MCwwLDAsMCwwLDAsMCwwLDAsMApTZWxlY3RlZEZpbGUgClNlbGVjdGVkQnJvd3NlclBhdGggIiIKQnJvd3NlckludGVuc2l0eSAwOzMzOzA7NTk7CkNsZWFyVGFwMkZp
        bmQKQnJvd3NlcklzRmF2b3JpdGUgMApQcmV2aWV3SW5PcmlnaW5hbFRlbXBvIDAKQ2xlYXJTb25nQ3JlYXRvciAwClZpc2libGVUYWIgMQp9ClN5bmNUb0hvc3QgMSAx
        MjUKTWlkaU91dEVuYWJsZWQgMApNaWRpSW5DaGFubmVsIC0xCgA=
        AEtRQ1hRUzAwMzYzQQAQAAAA
      >
      PRESETNAME KQCXQS00363A
      FLOATPOS 24 52 917 722
      FXID {1D091DB2-5BDE-4D24-A1E6-F6D8D67496E6}
      WAK 0
    >
  >
  <TRACK {D6B4CDEA-29C6-49BC-8F74-82D447FABA0E}
    NAME Bass
    PEAKCOL 16576
    BEAT -1
    AUTOMODE 0
    VOLPAN 1 0 -1 -1 1
    MUTESOLO 0 0 0
    IPHASE 0
    ISBUS 0 0
    BUSCOMP 0 0
    SHOWINMIX 1 0.6667 0.5 1 0.5 0 0 0
    FREEMODE 0
    SEL 0
    REC 0 0 0 0 0 0 0
    VU 2
    TRACKHEIGHT 0 0
    INQ 0 0 0 0.5 100 0 0 100
    NCHAN 2
    FX 1
    TRACKID {D6B4CDEA-29C6-49BC-8F74-82D447FABA0E}
    PERF 0
    MIDIOUT -1
    MAINSEND 1 0
  >
  <TRACK {0974CC1A-9F6B-45F3-92BE-82FD775AEB7B}
    NAME "Guitar Direct"
    PEAKCOL 16576
    BEAT -1
    AUTOMODE 0
    VOLPAN 1 0 -1 -1 1
    MUTESOLO 0 0 0
    IPHASE 0
    ISBUS 0 0
    BUSCOMP 0 0
    SHOWINMIX 1 0.6667 0.5 1 0.5 0 0 0
    FREEMODE 0
    SEL 0
    REC 0 1 0 0 0 0 0
    VU 2
    TRACKHEIGHT 0 0
    INQ 0 0 0 0.5 100 0 0 100
    NCHAN 2
    FX 1
    TRACKID {0974CC1A-9F6B-45F3-92BE-82FD775AEB7B}
    PERF 0
    MIDIOUT -1
    MAINSEND 1 0
    <FXCHAIN
      SHOW 0
      LASTSEL 0
      DOCKED 0
      BYPASS 0 0 0
      <VST "VST: Guitar Rig 5 (Native Instruments GmbH)" "Guitar Rig 5.dll" 0 "" 1315522357
        NUdpTu5e7f4EAAAAAQAAAAAAAAACAAAAAAAAAAQAAAAAAAAACAAAAAAAAAACAAAAAQAAAAAAAAACAAAAAAAAABkQAAABAAAAAAAQAA==
        LWluLQIAAAAjTkkjQ1MjRG9jdW1lbnQjI05JI1NvdW5kU2hlbGwjU291bmQjAAAAAAAAAAAAAABFAQAAYXRhZAIAAABkbnNzYmlsehYAAAAQAAAAeNpjYmBg0PX00zV1
        z/QDMhkAEaUCJ2F0YWQCAAAAb2ZuaWJpbHo3AQAAiwMAAHjanVNBbsIwEDyTV1i+U6cSh6oyRhxapEpIEW1PVQ8mbMBqYkfrDSq/r0NCCEhQxM07ntlZj205+S1ytgX0
        xtkxf3yIOQObupWx6zH//HgdPnHmSduVzp2FMbeOs4mKpHeVDaTMHcWjOOYqihiTJboSkAx4FcoAWF2A+pq7FaBlM9RkMgP4LcV+o+HoijYO1Rsg7tg8TTahr7NStHjd
        V/Qb18BS25+DR71Ws8qQRrYwazaSYg/thS2xXqeuKMNRLB2EHXCmPuLXeCxBd8btla2nJkKzrKgLpAOaOiBbnVegpjmFiEI+W5CigQ6EygMOPZBaJM9CvNMuBz844XeM
        xkOcmVw0fckySOnE73Zxd5vX520jmxalH/Qk947ca3ez7/1uTdi3XMg/Hr2yfhlSdN9IRX/FMB3FYXRhZAIAAAB0c3JwYmlsehoOAAD/iQAAeNrtXety2sgSzvmbp1Dx
        N6Wg+yWFs4XBt8TYrPEtW/kzwAAKuq0uYO8bnOc9L3BG9xlABsk2UrzeStUaadT9Tau7p3umZ0Sd9+7/8+HDh//998OH1h8Phk4toONqlnnQYD8zDQqaI2usmdODxs31
        Ma00KNcD5hjolgkPGqbVoP74+rE1dWjNdD3HN6Dp0aOZb86poa/pY9r0jSF0DhqcJLANamQZNnoQtbHBaE5rY8RElRlBlRSFa1ATBxhwaTnRHcTcAL8sh04BieiKNnKs
        7ErQRjPxNoiL7UAX5rDwNAPhHvgm9c3XKVZG/75wyheBoTiGlRpfP36kqJZr+eaYHgMPDIELqaluDYFOG9BzLNMyQq4zDTGhDWsMYxBjDfUbmCbUEUOp0YwoIcE4CAYm
        U8SCQv+1JtoDnYrDpZCcaM2DhouaCHGb1VZU0BlFZRjE0ARBP66+p01R46ChDj2YXYov5j9N+X54Wemphn7I+jdG99eEZS9lbXHZPjho4KRwYvTU18h76O5Cg0vsFaPe
        2DrwID0E5vyg0dh0KwISKJXlwDEdUIiFKjSo1V+uNtTR3xOguzAQMMG8+QQ2DDfwx5qVvQ6usdYLGwRa6KEWSPcB4oie8SwDeInCBa8qaxRqHLIJTxsRDdk1yjjt8GVo
        7eRNnJmBVY1ge+RpC4j6CnQ/VKx1GohKoJQYAsqBhoVkaYCHEEzyUwvhNjfAaKYPr/U+u+XmCzgUIqFl2U1MH5vrCtlKbdPxUmStJqHmTyi/hGuvNqW+WyaySb2gEeRR
        iY3hpDs/Oe3fcPzhiWhO21ffep5TsTGwhDGwNTYGJscYmnXUJn6zIlBcUYXKJxTrFH/22HxgjM6YgZ8G3aZ/LPaHJ+8O9t3B1swklDxN5osGGvmEYpM4nug/BOfC4OZ+
        1zlaaHL3+OrTu0m8m0TNTILDFLkdvskzs6AxbCQRm8FZuy2AsWEv5mDg/+U49k2PN9+jjbcXbbCYP0QpYUEVWn061h7v13J4+v3u3mFOhOYC2sfT+9HZuxPdoD3suvbI
        ZZ0o5kNt36NOgGZm/vOzuHcPugbwJAF4gt4VdWk2LyeTFCFbPb5rAt/1DBnWzNLHmBBrALJ3m6DsATe4eGvpvoGNlJ8VSeQlpXqk5wnQc83Qgosrb5ypAcROihFOPKoT
        TZXVSSevOli4OluH+B4YrabP+FziNbBhF47mFFs0d86hEg9wo57siCqcXc4f/ZO/2/0/jy+v2Dc0wHmox2PUYxb4a6iTe4GKrWlOkaGxzOCobhwcc4yAtCQ9NXXLsrfY
        zwtY0BYzX4PnwVTd0Mu2Mh/E1Aeik0J0gOnalgtrKEc/BembNcRnLxJ86wO3IElsXXA6Kc4rOLKc8WqcURugWh+bO4COR/UtVwv8Qv3eve7iPogaeGiIqyFKSKA8MseV
        v/T8mGNL1BHczhnM9pZhCywWSww0BGWGUjMqzNKK5ttP0oqDE/a0PfXupE53fvIAz+0fN/rF7adppcEJQwQnTI2zb5bZOcJYMZtbJtex1yD3PmITdEcP6JoJ9ERp6pPr
        nHNZxohSW7NOmWKPT9Nu34O1ymEFPIetVe4qErlrnaAdSwm0Y01HF1mqg6y9XpMTxzKJkVvFWAc5KiTGWhmGmsUxKHk/vPuXTJoQBNwkRqC1wN3TOe2eN5o9S3K5Unv+
        CLYXXAVGrb3g2Xmk2o90dh2d9oJm9xFpL3BKjEL7wVV85NkPrt1Hm/0od4ER5jUAtZo7uXf09Prl3RNYAZ8K900k9mJJ6/rzcaL6t//DW1pXbXjUMf9Sxe/2+O7CrXYW
        nSMSVa7GiapUNk89tlIjspx5nQK263Qm7xqJjepr3miW4pPU6gG6njMyvXT6xXOsIWx2gkr5OolxbBedpt8rPGeSTSxPoAPNUQZPEGoA0O1lE2x64MR6yBn8frlDsFQX
        eFsqmXRrVjL7iVeZ9eK9KrDotOdmIvEwoivfxtzN6bx5I2kCf9eZdrtq+8+3U6uW7PABPjXSg91DEy2g1Pnys+9YU6QZFIqGoPuzYxmGZcY/LkBQP0mdpfuf3J8nvuYB
        hwrKXkXU2ES5ivczleZP3Voi8gv4eQkWqLu6hjgNNc8A7jzsQnTldXjPNIy14eueZuuR4CIZC02URriBNY5gBooO1uPNcbCRC932bTv6a99r0mL5Nen+Ml1S3akcqoLV
        oIGZesNHc1Q/fNeGnbNwzol1wdjzN6bktZHhrV5w6aLmK36Zx3zZybSELp5mxX4x8szINdGpwyT8GOa84hYCpwqqJHOquIMXe47Sv07muUkWL5ZySvhmuLZht02gP7qF
        M89cMnHk0HxcfG93euavG7/dnYCOdCEeHb7XKb+9KndRxBShH5JK6lmKadQThJLVd3Vw3mufzRY3wLuS1J7THkju++r7S4dSq4HUbZ0X37spuq7zuFsh1V7x3aX47jB9
        rg++3n0aP2kPdQLWv8d8ARVsgaEQQs2c/huXGkOStFVgkbGQ1e5lRr+gpe5nQW9H7d8LmDIavxdgBX3Y6wTFW0zgmVGxzGzalFD0WIA8KklM/M/dj+Vfnz7dzrUhe2Ge
        z0zpsrN8e1sbuLptbZDKTyP9LjXlNd+CoQ3wqS7q2qKiLXbvheRvppD8t9nm8CIV71w1Fe8qvnku3qV6fF9wmMohkmTZI1tnbn+Mvbl02m1eeien3HC6fJ+52a3GvewO
        86LLFfVcFc3ujizTA1qwRjqKlqTo8J1puuY9pnNe2XF4myJB9LZ9PZTgeEhpJqKVHfonJATQ5VHQxE2JIqE7yG4caxldw97vKoeZ5XrYi0JsNuxZeO213ZWLscRbpmXS
        m26sr+DiM7EnDurJRMvmYY/4s9v2aPzn4BLe3kB49uOyf3ZPWnO+JZe34rOLs+vtloyv3nqOTxhyrhHvasAljFfYKU58huXuJV3rtAcDrJIGOtCqvHAWDTLkgFO1kE7M
        7EQK4jAPXhYZ+WUxocedwEsFdklPg4pC13MgCN0XUt4A0hNOascOHaZx6yFwsaKpzzLLylxFr10bZ/Mr+GEfnCpxajWYrp1hVsMFhzqZ0TFKRaLqOy6x9oGXbjGfJVaU
        +GqA3YLUvaE/NTDCYAmqKlVkv4Np6uFA5RNkV66dpTouGpzcyjcHpIV2Wyrs9gLmUAOZdwr/zryTKqgVmdzpP6nFWcu9j0ibg+zcAHtD4Ll+YBgWCHbi0xevLMtIYkH/
        8tdMHd6BK3DpTH5964ErOJXblcWC+QXhNYgFefVNxIL5s5eyiMaUakBNWTz2Co7+yQY6kReFika6KUfA4qr2mlOewMPjL49hZEWuCJZAwBIqF5NI4BErxyMReKTK8cgE
        HrlyPAqBR6kaj516oz4gnZGgMDxb0Wq5zeGoOAKVwioVJU82j6PiiVRAYqpKUWwBRyXUBZWIoxLr8gYlHJWEl4WwrMJWFKbYMo5KrosNKjgqpfoSGoPFi91xX1URHo7A
        U3nEZBD783H/VBEegcBTeahkiASeykMlQyLwVB4qGTKBp/JQyVAIPJWHSm7qfwaWblXvf1yOwFO5/3F5Ak/l/scVCDyV+x9XJPBU7n9cicBTuf9xZQJP5f7HVQg8lfuf
        rIgMen5W5VbR/LFbs0VWkG7H0io/vmWYsxhZUeDs5S75ib/FZH+rubkcpNWMvzcZfXzSgUAPvnc5iib/x8MNn6GM7+nQST53GSxDT7RpUlAT30WPZIkz9hSlW6N5VGwT
        f1OS6sMx0LEp9PBugAUugq6FH8RRgq+BurrlJV/69KzpVCcPT3iay3dtNO9aS3MLI0bmMUZsCUaDZXA6CsU+zYhlBBVjxGWM2IKMuC2MeEbEGPHlGfFbGIkS/o6E8oyE
        LYwUVsYYiTsyYtcZiQQjdk0ZcMFJOBu8UCv1FJk1EpsQ0f8WjXjZKNp9DB7odFkn+BwtnTrb+EQQJOmQbFrTGFeD+Y4e/PLANNjFgOw5+uVMYWYX0a/kweRn/FVdGpdQ
        MxNRIalJW6Sm4GoglxXbBXzwCoqNq6HY4mO1nhKYyOPqrBQWWMyikKgYUlTEcTo7Si06PIwQXHA+z4roXkLhlKflJ6u4y1YLyw87tuY5MrwG9s6yi4/NIYR3bT9feLgz
        Tc/iDMfXbeMRx3P4eMSWGWJXOG4ZmDhRwf0rW3isvYBLqpN8ivcpBcHPc8j4ccUNDfvazHM0pa+Dx51VJf7eDaEqtl5MVfArK2Fb3ABAhAl1eYcgLmK8Fr4FgsUis7Wj
        rfIez+KyiAJbmEIWcEUUOJICuzMFLqHAl6XAJxSEshSEhIJYloKYUJBWKRCFLyGJUCsJXY7jj3VlirjtiEFKMMilMXDlMMSDYcRdKStDJaGgFqaw7nZjvS5uGuv+NCZV
        0EYIRxmTyDOSVjN2BfHPV9tF0YoS4Q25ptBYL1GjI2+uh+c4B1l1wGTlWqC3pHrFsOjA52X0ycKXViyqjFUW3GSekMbjsx19f4HQKNZxHO9L9SQONTZ1RS3XlacDlVfs
        SjwUbupKoM9l+vL0SPpEX/DJlxU9TJu4JrDdmeXhczbptVCD01+5W41azRUqreaK4cSXd9qMlFKNG4aljFnAkz2eSoPZuhOoWZwoJ8pbP0hbiqy09ayfEmR5Rtr6AZ8y
        aFV+687+MmQlbuspzmWEoPBbd3iWQasoWw8LLUNWlrZ+ELIEWZbfWgudDqNr9hhNuK7NsUZTr4glCNxLM/qJeMRhOjWxHMMAJpgGANL9qkEjEH6InQ4zB+DNqPh3nFdY
        zhgFD6lPIxOMmALeVDOnaCRHXjX0dc2v4dywlh4USo9mvjn/+vH/cnr+wWF0YWQCAAAARE5TU2JpbHoWAAAAEAAAAHjaY2JgYND19NM1dc/0AzIZABGlAic=
        AG5vIHNvdW5kABAAAAA=
      >
      PRESETNAME "no sound"
      FLOATPOS 1323 105 1035 897
      FXID {79E8EB41-2883-4FC6-A30C-3CDEB041B191}
      WAK 0
    >
  >
  <TRACK {BA9571D5-CFD4-47FD-ACF8-F5906FAC9766}
    NAME "Guitar 58"
    PEAKCOL 16576
    BEAT -1
    AUTOMODE 0
    VOLPAN 1 0 -1 -1 1
    MUTESOLO 0 0 0
    IPHASE 0
    ISBUS 0 0
    BUSCOMP 0 0
    SHOWINMIX 1 0.6667 0.5 1 0.5 0 0 0
    FREEMODE 0
    SEL 0
    REC 0 4 0 0 0 0 0
    VU 2
    TRACKHEIGHT 0 0
    INQ 0 0 0 0.5 100 0 0 100
    NCHAN 2
    FX 1
    TRACKID {BA9571D5-CFD4-47FD-ACF8-F5906FAC9766}
    PERF 0
    MIDIOUT -1
    MAINSEND 1 0
  >
  <TRACK {0252A555-2EAF-4891-8D51-F507C83FDC1F}
    NAME "Guitar B1"
    PEAKCOL 16576
    BEAT -1
    AUTOMODE 0
    VOLPAN 1 0 -1 -1 1
    MUTESOLO 0 0 0
    IPHASE 0
    ISBUS 0 0
    BUSCOMP 0 0
    SHOWINMIX 1 0.6667 0.5 1 0.5 0 0 0
    FREEMODE 0
    SEL 0
    REC 0 0 0 0 0 0 0
    VU 2
    TRACKHEIGHT 0 0
    INQ 0 0 0 0.5 100 0 0 100
    NCHAN 2
    FX 1
    TRACKID {0252A555-2EAF-4891-8D51-F507C83FDC1F}
    PERF 0
    MIDIOUT -1
    MAINSEND 1 0
  >
  <TRACK {5BF75D34-8B61-4DCC-8782-7990F470CFA3}
    NAME "Keys Left"
    PEAKCOL 16576
    BEAT -1
    AUTOMODE 0
    VOLPAN 1 0 -1 -1 1
    MUTESOLO 0 0 0
    IPHASE 0
    ISBUS 0 0
    BUSCOMP 0 0
    SHOWINMIX 1 0.6667 0.5 1 0.5 0 0 0
    FREEMODE 0
    SEL 0
    REC 0 2 1 0 0 0 0
    VU 2
    TRACKHEIGHT 0 0
    INQ 0 0 0 0.5 100 0 0 100
    NCHAN 2
    FX 1
    TRACKID {5BF75D34-8B61-4DCC-8782-7990F470CFA3}
    PERF 0
    MIDIOUT -1
    MAINSEND 1 0
  >
  <TRACK {994C3B7F-A23F-4363-82E3-4C5DDEF04DF6}
    NAME "Keys Right"
    PEAKCOL 16576
    BEAT -1
    AUTOMODE 0
    VOLPAN 1 0 -1 -1 1
    MUTESOLO 0 0 0
    IPHASE 0
    ISBUS 0 0
    BUSCOMP 0 0
    SHOWINMIX 1 0.6667 0.5 1 0.5 0 0 0
    FREEMODE 0
    SEL 0
    REC 0 3 1 0 0 0 0
    VU 2
    TRACKHEIGHT 0 0
    INQ 0 0 0 0.5 100 0 0 100
    NCHAN 2
    FX 1
    TRACKID {994C3B7F-A23F-4363-82E3-4C5DDEF04DF6}
    PERF 0
    MIDIOUT -1
    MAINSEND 1 0
  >
  <TRACK {075C3AF2-30C7-4B28-9914-7BAB471A30B8}
    NAME ""
    PEAKCOL 16576
    BEAT -1
    AUTOMODE 0
    VOLPAN 1 0 -1 -1 1
    MUTESOLO 0 0 0
    IPHASE 0
    ISBUS 0 0
    BUSCOMP 0 0
    SHOWINMIX 1 0.6667 0.5 1 0.5 0 0 0
    FREEMODE 0
    SEL 0
    REC 1 5088 1 0 0 0 0
    VU 2
    TRACKHEIGHT 0 0
    INQ 0 0 0 0.5 100 0 0 100
    NCHAN 2
    FX 1
    TRACKID {075C3AF2-30C7-4B28-9914-7BAB471A30B8}
    PERF 0
    MIDIOUT -1
    MAINSEND 1 0
    <FXCHAIN
      SHOW 0
      LASTSEL 0
      DOCKED 0
      BYPASS 0 0 0
      <VST "VSTi: AAS Player (Applied Acoustics Systems)" "AAS Player.dll" 0 "" 1095789617
        MWxQQe5e7f4AAAAAAgAAAAEAAAAAAAAAAgAAAAAAAABXAQAAAQAAAAAAEAA=
        ewoJY3VycmVudFByb2dyYW0gPSA0MiwKCWFjdGl2ZUJhbmtJZCA9ICI4ZmUzOWQyYS0yMjM2LTRiMTgtYjFmOS1mMDEzYzRjNzZkYTkiLAoJY3VycmVudFByb2dyYW1C
        YW5rTmFtZSA9ICJTd2F0Y2hlcyIsCglhY3RpdmVCYW5rID0gMSwKCXBvbHlwaG9ueSA9IDEyLAoJY3VycmVudFByb2dyYW1CYW5rSWQgPSAiOGZlMzlkMmEtMjIzNi00
        YjE4LWIxZjktZjAxM2M0Yzc2ZGE5IiwKCXZlcnNpb24gPSAxLAoJY3VycmVudFByb2dyYW1OYW1lID0gIkx1bWJlciIsCgljdXJyZW50UHJvZ3JhbUJhbmsgPSAxLAoJ
        cGFyYW1ldGVycyA9IHsKCQkxLAoJfSwKCWFjdGl2ZUJhbmtOYW1lID0gIlN3YXRjaGVzIiwKfQ==
        AERlZmF1bHQAEAAAAA==
      >
      PRESETNAME Default
      FLOAT 1151 185 407 662
      FXID {79DB0BA4-3301-44C3-8F4F-AEB8222CEC0C}
      WAK 0
    >
    <ITEM
      POSITION 0
      SNAPOFFS 0
      LENGTH 149.8855
      LOOP 1
      ALLTAKES 0
      FADEIN 1 0 0 1 0 0
      FADEOUT 1 0 0 1 0 0
      MUTE 0
      SEL 1
      IGUID {9578EF70-8910-4E8D-A278-68A6C61DBEE7}
      IID 1
      NAME "08-Recorded MIDI"
      VOLPAN 1 0 1 -1
      SOFFS 4.8 10
      PLAYRATE 1 1 0 -1 0 0.0025
      CHANMODE 0
      GUID {6D468425-F31E-497C-951A-3989A758F753}
      RECPASS 1
      <SOURCE MIDI
        HASDATA 1 960 QN
        POOLEDEVTS {EBD1035C-3C77-4998-96B5-7114B4F360E1}
        E 9819 91 3e 3a
        E 2832 e1 00 41
        E 28 e1 00 40
        E 198 e1 00 3f
        E 284 e1 00 40
        E 112 e1 00 40
        E 114 e1 00 41
        E 170 e1 00 40
        E 113 e1 00 41
        E 169 e1 00 42
        E 114 e1 00 43
        E 84 e1 00 44
        E 114 e1 00 45
        E 86 e1 00 46
        E 312 e1 00 47
        E 56 e1 00 48
        E 56 e1 00 49
        E 58 e1 00 4a
        E 56 e1 00 4b
        E 140 e1 00 4c
        E 58 e1 00 4d
        E 56 e1 00 4e
        E 256 e1 00 4f
        E 84 e1 00 50
        E 58 e1 00 51
        E 84 e1 00 54
        E 84 e1 00 55
        E 284 e1 00 56
        E 112 e1 00 57
        E 86 e1 00 58
        E 58 e1 00 59
        E 84 e1 00 5a
        E 170 e1 00 5b
        E 56 e1 00 5c
        E 86 e1 00 5d
        E 56 e1 00 5e
        E 28 e1 00 5f
        E 28 e1 00 60
        E 28 e1 00 61
        E 58 e1 00 62
        E 114 e1 00 63
        E 198 e1 00 64
        E 84 e1 00 65
        E 84 e1 00 66
        E 58 e1 00 67
        E 84 e1 00 68
        E 84 e1 00 67
        E 58 e1 00 66
        E 84 e1 00 64
        E 58 e1 00 63
        E 85 e1 00 62
        E 141 e1 00 61
        E 58 e1 00 62
        E 112 e1 00 61
        E 142 e1 00 60
        E 114 e1 00 5f
        E 84 e1 00 5e
        E 398 e1 00 5d
        E 56 e1 00 5c
        E 56 e1 00 5b
        E 30 e1 00 5a
        E 28 e1 00 59
        E 28 e1 00 58
        E 28 e1 00 57
        E 58 e1 00 55
        E 54 e1 00 54
        E 86 e1 00 53
        E 58 e1 00 51
        E 28 e1 00 50
        E 28 e1 00 4f
        E 28 e1 00 4e
        E 58 e1 00 4d
        E 28 e1 00 4c
        E 54 e1 00 4a
        E 30 e1 00 49
        E 28 e1 00 48
        E 114 e1 00 47
        E 84 e1 00 46
        E 56 e1 00 45
        E 114 e1 00 44
        E 28 e1 00 43
        E 29 e1 00 42
        E 57 e1 00 41
        E 86 e1 00 40
        E 54 e1 00 40
        E 651 e1 00 40
        E 173 e1 00 40
        E 140 e1 00 40
        E 58 e1 00 41
        E 310 e1 00 42
        E 368 e1 00 43
        E 113 e1 00 44
        E 879 e1 00 45
        E 538 e1 00 46
        E 114 e1 00 48
        E 170 e1 00 49
        E 168 e1 00 4a
        E 57 e1 00 4b
        E 85 e1 00 4c
        E 58 e1 00 4d
        E 26 e1 00 4e
        E 88 e1 00 4f
        E 28 e1 00 50
        E 56 e1 00 51
        E 142 e1 00 53
        E 112 e1 00 54
        E 142 e1 00 55
        E 114 e1 00 56
        E 114 e1 00 57
        E 56 e1 00 58
        E 56 e1 00 59
        E 114 e1 00 5a
        E 84 e1 00 5b
        E 55 e1 00 5c
        E 87 e1 00 5d
        E 140 e1 00 5e
        E 86 e1 00 5f
        E 56 e1 00 60
        E 58 e1 00 62
        E 56 e1 00 63
        E 58 e1 00 64
        E 83 e1 00 65
        E 115 e1 00 66
        E 84 e1 00 67
        E 114 e1 00 68
        E 55 e1 00 69
        E 455 e1 00 6a
        E 140 e1 00 6b
        E 113 e1 00 6c
        E 313 e1 00 6b
        E 312 e1 00 6a
        E 226 e1 00 69
        E 282 e1 00 68
        E 86 e1 00 67
        E 56 e1 00 66
        E 58 e1 00 65
        E 112 e1 00 64
        E 56 e1 00 62
        E 30 e1 00 61
        E 28 e1 00 5f
        E 55 e1 00 5e
        E 28 e1 00 5d
        E 171 e1 00 5c
        E 312 e1 00 5a
        E 55 e1 00 59
        E 31 e1 00 58
        E 28 e1 00 57
        E 28 e1 00 55
        E 28 e1 00 54
        E 27 e1 00 53
        E 29 e1 00 51
        E 28 e1 00 50
        E 30 e1 00 4f
        E 27 e1 00 4e
        E 28 e1 00 4c
        E 29 e1 00 4b
        E 56 e1 00 4a
        E 56 e1 00 49
        E 58 e1 00 48
        E 28 e1 00 47
        E 28 e1 00 45
        E 28 e1 00 44
        E 29 e1 00 43
        E 29 e1 00 42
        E 86 e1 00 41
        E 140 e1 00 40
        E 58 e1 00 40
        E 878 e1 00 40
        E 652 e1 00 41
        E 310 e1 00 42
        E 58 e1 00 43
        E 594 e1 00 44
        E 311 e1 00 45
        E 141 e1 00 46
        E 142 e1 00 47
        E 114 e1 00 48
        E 283 e1 00 49
        E 227 e1 00 4a
        E 56 e1 00 4b
        E 86 e1 00 4c
        E 56 e1 00 4e
        E 27 e1 00 4f
        E 56 e1 00 50
        E 57 e1 00 51
        E 86 e1 00 53
        E 30 e1 00 54
        E 84 e1 00 55
        E 198 e1 00 56
        E 56 e1 00 58
        E 85 e1 00 59
        E 57 e1 00 5a
        E 142 e1 00 5b
        E 142 e1 00 5c
        E 84 e1 00 5d
        E 113 e1 00 5e
        E 57 e1 00 5f
        E 142 e1 00 60
        E 55 e1 00 61
        E 87 e1 00 62
        E 85 e1 00 63
        E 82 e1 00 64
        E 228 e1 00 65
        E 114 e1 00 66
        E 57 e1 00 67
        E 482 e1 00 68
        E 55 e1 00 69
        E 992 e1 00 68
        E 85 e1 00 67
        E 55 e1 00 66
        E 87 e1 00 65
        E 56 e1 00 64
        E 55 e1 00 62
        E 31 e1 00 61
        E 28 e1 00 60
        E 86 e1 00 5f
        E 167 e1 00 5e
        E 143 e1 00 5d
        E 55 e1 00 5c
        E 86 e1 00 5b
        E 140 e1 00 5a
        E 87 e1 00 59
        E 169 e1 00 58
        E 115 e1 00 56
        E 141 e1 00 55
        E 29 e1 00 54
        E 28 e1 00 53
        E 28 e1 00 51
        E 28 e1 00 4f
        E 27 e1 00 4d
        E 28 e1 00 4b
        E 31 e1 00 4a
        E 28 e1 00 48
        E 29 e1 00 47
        E 28 e1 00 45
        E 54 e1 00 44
        E 31 e1 00 43
        E 28 e1 00 42
        E 28 e1 00 41
        E 58 e1 00 40
        E 3205 91 3e 00
        E 313 91 3e 4e
        E 3 91 3c 6a
        E 224 e1 00 41
        E 141 e1 00 40
        E 4 91 3c 00
        E 112 e1 00 41
        E 507 e1 00 42
        E 58 e1 00 43
        E 28 e1 00 44
        E 29 e1 00 46
        E 28 e1 00 48
        E 30 e1 00 49
        E 54 e1 00 4a
        E 116 e1 00 4b
        E 28 e1 00 4d
        E 83 e1 00 4e
        E 143 e1 00 4f
        E 83 e1 00 50
        E 59 e1 00 51
        E 56 e1 00 53
        E 57 e1 00 54
        E 29 e1 00 55
        E 25 e1 00 56
        E 59 e1 00 57
        E 170 e1 00 58
        E 56 e1 00 59
        E 114 e1 00 58
        E 169 e1 00 59
        E 57 e1 00 5a
        E 56 e1 00 5b
        E 225 e1 00 5c
        E 426 e1 00 5d
        E 199 e1 00 5e
        E 283 e1 00 5f
        E 369 e1 00 60
        E 141 e1 00 61
        E 85 e1 00 60
        E 30 e1 00 5f
        E 28 e1 00 5d
        E 28 e1 00 5c
        E 55 e1 00 5b
        E 30 e1 00 5a
        E 55 e1 00 58
        E 228 e1 00 59
        E 113 e1 00 58
        E 29 e1 00 57
        E 55 e1 00 56
        E 117 e1 00 55
        E 56 e1 00 54
        E 56 e1 00 53
        E 84 e1 00 54
        E 57 e1 00 55
        E 113 e1 00 56
        E 114 e1 00 55
        E 141 e1 00 54
        E 28 e1 00 53
        E 57 e1 00 51
        E 227 e1 00 50
        E 57 e1 00 4e
        E 111 e1 00 4d
        E 59 e1 00 4c
        E 28 e1 00 4b
        E 28 e1 00 4a
        E 28 e1 00 49
        E 58 e1 00 48
        E 84 e1 00 46
        E 58 e1 00 45
        E 55 e1 00 44
        E 57 e1 00 43
        E 28 e1 00 42
        E 30 e1 00 41
        E 55 e1 00 40
        E 59 e1 00 40
        E 1981 e1 00 40
        E 56 e1 00 42
        E 340 e1 00 43
        E 56 e1 00 44
        E 59 e1 00 45
        E 167 e1 00 47
        E 30 e1 00 48
        E 56 e1 00 49
        E 57 e1 00 4a
        E 86 e1 00 4b
        E 58 e1 00 4c
        E 28 e1 00 4d
        E 83 e1 00 4e
        E 114 e1 00 50
        E 29 e1 00 51
        E 56 e1 00 53
        E 83 e1 00 54
        E 89 e1 00 55
        E 196 e1 00 56
        E 86 e1 00 57
        E 84 e1 00 58
        E 283 e1 00 59
        E 112 e1 00 5a
        E 142 e1 00 5b
        E 170 e1 00 5c
        E 87 e1 00 5d
        E 27 e1 00 5e
        E 255 e1 00 5f
        E 340 e1 00 60
        E 227 e1 00 61
        E 199 e1 00 62
        E 396 e1 00 63
        E 141 e1 00 62
        E 340 e1 00 61
        E 56 e1 00 60
        E 142 e1 00 5f
        E 57 e1 00 5e
        E 624 e1 00 5d
        E 56 e1 00 5c
        E 253 e1 00 5b
        E 143 e1 00 5a
        E 28 e1 00 59
        E 58 e1 00 57
        E 55 e1 00 56
        E 31 e1 00 55
        E 54 e1 00 53
        E 30 e1 00 51
        E 28 e1 00 50
        E 28 e1 00 4f
        E 28 e1 00 4e
        E 27 e1 00 4d
        E 59 e1 00 4c
        E 55 e1 00 4a
        E 29 e1 00 49
        E 28 e1 00 48
        E 27 e1 00 47
        E 59 e1 00 46
        E 566 e1 00 45
        E 58 e1 00 44
        E 56 e1 00 43
        E 28 e1 00 42
        E 57 e1 00 41
        E 113 e1 00 40
        E 58 e1 00 40
        E 649 e1 00 40
        E 171 e1 00 41
        E 538 e1 00 42
        E 215 91 3e 00
        E 69 e1 00 41
        E 260 91 3e 43
        E 426 e1 00 40
        E 54 e1 00 41
        E 29 e1 00 43
        E 28 e1 00 45
        E 28 e1 00 48
        E 28 e1 00 49
        E 30 e1 00 4a
        E 112 e1 00 49
        E 29 e1 00 4a
        E 30 e1 00 4b
        E 167 e1 00 4c
        E 143 e1 00 4d
        E 55 e1 00 4e
        E 31 e1 00 4f
        E 55 e1 00 50
        E 59 e1 00 51
        E 54 e1 00 53
        E 141 e1 00 54
        E 143 e1 00 55
        E 226 e1 00 56
        E 86 e1 00 57
        E 197 e1 00 58
        E 198 e1 00 59
        E 114 e1 00 5a
        E 140 e1 00 5b
        E 86 e1 00 5c
        E 114 e1 00 5b
        E 86 e1 00 5c
        E 282 e1 00 5d
        E 142 e1 00 5e
        E 85 e1 00 60
        E 56 e1 00 61
        E 113 e1 00 62
        E 84 e1 00 63
        E 58 e1 00 62
        E 171 e1 00 63
        E 169 e1 00 64
        E 84 e1 00 65
        E 170 e1 00 64
        E 84 e1 00 65
        E 142 e1 00 64
        E 285 e1 00 63
        E 141 e1 00 62
        E 171 e1 00 61
        E 169 e1 00 60
        E 87 e1 00 5f
        E 225 e1 00 5e
        E 310 e1 00 5d
        E 171 e1 00 5c
        E 169 e1 00 5b
        E 58 e1 00 59
        E 29 e1 00 58
        E 56 e1 00 57
        E 113 e1 00 56
        E 282 e1 00 55
        E 172 e1 00 54
        E 54 e1 00 53
        E 58 e1 00 51
        E 115 e1 00 50
        E 226 e1 00 4f
        E 83 e1 00 4e
        E 58 e1 00 4c
        E 30 e1 00 4b
        E 54 e1 00 4a
        E 28 e1 00 49
        E 28 e1 00 48
        E 28 e1 00 47
        E 58 e1 00 46
        E 86 e1 00 45
        E 56 e1 00 44
        E 57 e1 00 43
        E 55 e1 00 42
        E 86 e1 00 41
        E 56 e1 00 40
        E 56 e1 00 40
        E 907 e1 00 40
        E 399 e1 00 41
        E 82 e1 00 42
        E 58 e1 00 44
        E 28 e1 00 45
        E 56 e1 00 46
        E 226 e1 00 47
        E 58 e1 00 48
        E 140 e1 00 49
        E 28 e1 00 4a
        E 58 e1 00 4b
        E 56 e1 00 4c
        E 142 e1 00 4d
        E 57 e1 00 4e
        E 225 e1 00 4f
        E 87 e1 00 50
        E 113 e1 00 51
        E 28 e1 00 53
        E 86 e1 00 54
        E 57 e1 00 55
        E 56 e1 00 56
        E 55 e1 00 57
        E 58 e1 00 58
        E 56 e1 00 59
        E 56 e1 00 5a
        E 86 e1 00 5c
        E 56 e1 00 5d
        E 87 e1 00 5e
        E 85 e1 00 5f
        E 169 e1 00 60
        E 169 e1 00 61
        E 58 e1 00 62
        E 339 e1 00 63
        E 85 e1 00 64
        E 282 e1 00 65
        E 170 e1 00 66
        E 170 e1 00 67
        E 143 e1 00 68
        E 113 e1 00 69
        E 622 e1 00 68
        E 114 e1 00 69
        E 199 e1 00 68
        E 395 e1 00 67
        E 57 e1 00 66
        E 84 e1 00 65
        E 86 e1 00 64
        E 143 e1 00 65
        E 112 e1 00 64
        E 142 e1 00 63
        E 84 e1 00 62
        E 56 e1 00 60
        E 59 e1 00 5f
        E 55 e1 00 5e
        E 28 e1 00 5c
        E 86 e1 00 5b
        E 453 e1 00 5a
        E 85 e1 00 59
        E 84 e1 00 58
        E 56 e1 00 56
        E 114 e1 00 55
        E 28 e1 00 54
        E 30 e1 00 53
        E 28 e1 00 51
        E 28 e1 00 4f
        E 29 e1 00 4e
        E 30 e1 00 4b
        E 28 e1 00 47
        E 27 e1 00 44
        E 26 e1 00 42
        E 31 e1 00 40
        E 27 e1 00 40
        E 131 91 3e 00
        E 338 91 3e 72
        E 1179 e1 00 40
        E 28 e1 00 42
        E 28 e1 00 43
        E 28 e1 00 44
        E 172 e1 00 45
        E 54 e1 00 47
        E 59 e1 00 48
        E 86 e1 00 49
        E 27 e1 00 4a
        E 28 e1 00 4b
        E 57 e1 00 4c
        E 170 e1 00 4d
        E 84 e1 00 4e
        E 85 e1 00 4f
        E 170 e1 00 50
        E 114 e1 00 51
        E 170 e1 00 53
        E 169 e1 00 54
        E 57 e1 00 55
        E 56 e1 00 56
        E 84 e1 00 57
        E 201 e1 00 58
        E 225 e1 00 59
        E 86 e1 00 5a
        E 84 e1 00 5b
        E 56 e1 00 5c
        E 114 e1 00 5d
        E 142 e1 00 5e
        E 424 e1 00 5f
        E 58 e1 00 60
        E 366 e1 00 61
        E 200 e1 00 60
        E 84 e1 00 61
        E 173 e1 00 60
        E 167 e1 00 61
        E 56 e1 00 60
        E 56 e1 00 5f
        E 200 e1 00 5e
        E 227 e1 00 5d
        E 253 e1 00 5c
        E 116 e1 00 5b
        E 226 e1 00 5a
        E 56 e1 00 58
        E 112 e1 00 57
        E 86 e1 00 56
        E 143 e1 00 55
        E 55 e1 00 54
        E 113 e1 00 53
        E 141 e1 00 51
        E 59 e1 00 50
        E 169 e1 00 4f
        E 85 e1 00 4e
        E 113 e1 00 4d
        E 56 e1 00 4c
        E 28 e1 00 4b
        E 58 e1 00 4a
        E 28 e1 00 49
        E 57 e1 00 48
        E 27 e1 00 47
        E 58 e1 00 46
        E 226 e1 00 44
        E 198 e1 00 43
        E 114 e1 00 42
        E 84 e1 00 41
        E 86 e1 00 40
        E 86 e1 00 40
        E 1188 e1 00 41
        E 28 e1 00 42
        E 28 e1 00 43
        E 284 e1 00 44
        E 58 e1 00 45
        E 82 e1 00 46
        E 58 e1 00 47
        E 28 e1 00 48
        E 59 e1 00 49
        E 55 e1 00 4a
        E 112 e1 00 4b
        E 58 e1 00 4c
        E 56 e1 00 4d
        E 30 e1 00 4e
        E 112 e1 00 4f
        E 56 e1 00 51
        E 56 e1 00 53
        E 30 e1 00 54
        E 28 e1 00 55
        E 57 e1 00 56
        E 197 e1 00 57
        E 58 e1 00 58
        E 84 e1 00 59
        E 84 e1 00 5a
        E 142 e1 00 5b
        E 114 e1 00 5c
        E 84 e1 00 5d
        E 58 e1 00 5e
        E 114 e1 00 5f
        E 84 e1 00 60
        E 56 e1 00 61
        E 56 e1 00 62
        E 58 e1 00 63
        E 56 e1 00 64
        E 114 e1 00 63
        E 56 e1 00 64
        E 229 e1 00 65
        E 111 e1 00 66
        E 539 e1 00 67
        E 454 e1 00 68
        E 167 e1 00 67
        E 426 e1 00 66
        E 114 e1 00 65
        E 142 e1 00 64
        E 115 e1 00 62
        E 195 e1 00 61
        E 228 e1 00 60
        E 56 e1 00 5e
        E 84 e1 00 5d
        E 114 e1 00 5c
        E 58 e1 00 5a
        E 56 e1 00 59
        E 201 e1 00 58
        E 225 e1 00 57
        E 56 e1 00 56
        E 170 e1 00 55
        E 56 e1 00 54
        E 170 e1 00 51
        E 86 e1 00 50
        E 56 e1 00 4f
        E 170 e1 00 4e
        E 58 e1 00 4d
        E 56 e1 00 4c
        E 28 e1 00 4b
        E 30 e1 00 4a
        E 82 e1 00 49
        E 30 e1 00 48
        E 56 e1 00 47
        E 28 e1 00 46
        E 30 e1 00 45
        E 28 e1 00 44
        E 28 e1 00 43
        E 84 e1 00 42
        E 114 e1 00 41
        E 199 e1 00 40
        E 141 e1 00 40
        E 1445 e1 00 40
        E 114 e1 00 41
        E 55 e1 00 42
        E 86 e1 00 43
        E 198 e1 00 44
        E 57 e1 00 45
        E 83 e1 00 46
        E 58 e1 00 47
        E 56 e1 00 48
        E 28 e1 00 4a
        E 56 e1 00 4b
        E 170 e1 00 4d
        E 29 e1 00 4e
        E 29 e1 00 50
        E 28 e1 00 51
        E 28 e1 00 53
        E 58 e1 00 55
        E 28 e1 00 57
        E 28 e1 00 58
        E 57 e1 00 59
        E 83 e1 00 5a
        E 58 e1 00 5b
        E 56 e1 00 5c
        E 142 e1 00 5d
        E 84 e1 00 5e
        E 86 e1 00 5f
        E 114 e1 00 60
        E 140 e1 00 61
        E 58 e1 00 62
        E 171 e1 00 63
        E 112 e1 00 62
        E 169 e1 00 63
        E 56 e1 00 64
        E 58 e1 00 63
        E 114 e1 00 64
        E 84 e1 00 65
        E 142 e1 00 66
        E 510 e1 00 65
        E 198 e1 00 63
        E 198 e1 00 64
        E 84 e1 00 65
        E 58 e1 00 66
        E 226 e1 00 65
        E 59 e1 00 64
        E 225 e1 00 63
        E 86 e1 00 62
        E 168 e1 00 61
        E 170 e1 00 5f
        E 29 e1 00 5e
        E 55 e1 00 5d
        E 58 e1 00 5c
        E 114 e1 00 5b
        E 28 e1 00 5a
        E 56 e1 00 58
        E 28 e1 00 57
        E 28 e1 00 56
        E 114 e1 00 57
        E 112 e1 00 56
        E 116 e1 00 55
        E 26 e1 00 54
        E 28 e1 00 53
        E 30 e1 00 51
        E 28 e1 00 50
        E 28 e1 00 4e
        E 28 e1 00 4c
        E 30 e1 00 4a
        E 28 e1 00 48
        E 28 e1 00 47
        E 28 e1 00 45
        E 28 e1 00 43
        E 28 e1 00 42
        E 28 e1 00 40
        E 28 e1 00 40
        E 391 91 3e 00
        E 631 e1 00 41
        E 56 e1 00 42
        E 56 e1 00 41
        E 58 e1 00 40
        E 56 e1 00 40
        E 116 91 3e 01
        E 880 e1 00 40
        E 56 e1 00 41
        E 84 e1 00 42
        E 56 e1 00 44
        E 30 e1 00 45
        E 56 e1 00 47
        E 86 e1 00 48
        E 28 e1 00 4a
        E 28 e1 00 4b
        E 28 e1 00 4c
        E 30 e1 00 4d
        E 168 e1 00 4e
        E 30 e1 00 4f
        E 56 e1 00 51
        E 140 e1 00 50
        E 86 e1 00 51
        E 84 e1 00 53
        E 116 e1 00 54
        E 54 e1 00 56
        E 142 e1 00 57
        E 256 e1 00 58
        E 111 e1 00 57
        E 57 e1 00 59
        E 30 e1 00 5b
        E 56 e1 00 5c
        E 86 e1 00 5d
        E 26 e1 00 5e
        E 116 e1 00 5d
        E 26 e1 00 5c
        E 58 e1 00 5d
        E 56 e1 00 5e
        E 114 e1 00 5f
        E 228 e1 00 60
        E 112 e1 00 62
        E 57 e1 00 63
        E 199 e1 00 64
        E 84 e1 00 65
        E 312 e1 00 66
        E 84 e1 00 65
        E 114 e1 00 66
        E 228 e1 00 67
        E 480 e1 00 68
        E 198 e1 00 69
        E 56 e1 00 68
        E 312 e1 00 69
        E 226 e1 00 68
        E 30 e1 00 67
        E 56 e1 00 66
        E 56 e1 00 65
        E 142 e1 00 63
        E 30 e1 00 62
        E 54 e1 00 61
        E 114 e1 00 60
        E 86 e1 00 5f
        E 28 e1 00 5e
        E 56 e1 00 5d
        E 58 e1 00 5c
        E 56 e1 00 5b
        E 28 e1 00 5a
        E 28 e1 00 59
        E 28 e1 00 57
        E 28 e1 00 56
        E 86 e1 00 54
        E 28 e1 00 53
        E 28 e1 00 51
        E 28 e1 00 4f
        E 30 e1 00 4e
        E 28 e1 00 4d
        E 86 e1 00 4c
        E 140 e1 00 4b
        E 30 e1 00 4a
        E 140 e1 00 49
        E 28 e1 00 48
        E 28 e1 00 47
        E 29 e1 00 46
        E 29 e1 00 45
        E 28 e1 00 43
        E 142 e1 00 44
        E 114 e1 00 43
        E 54 e1 00 42
        E 58 e1 00 41
        E 56 e1 00 40
        E 58 e1 00 40
        E 2048 91 3e 00
        E 260 91 3e 62
        E 500 e1 00 40
        E 28 e1 00 42
        E 28 e1 00 43
        E 30 e1 00 45
        E 54 e1 00 46
        E 86 e1 00 47
        E 30 e1 00 48
        E 26 e1 00 4a
        E 30 e1 00 4b
        E 84 e1 00 4c
        E 142 e1 00 4d
        E 28 e1 00 4e
        E 28 e1 00 4f
        E 28 e1 00 50
        E 58 e1 00 51
        E 56 e1 00 53
        E 30 e1 00 55
        E 28 e1 00 56
        E 54 e1 00 57
        E 114 e1 00 58
        E 58 e1 00 5a
        E 28 e1 00 5b
        E 112 e1 00 5c
        E 172 e1 00 5d
        E 140 e1 00 5e
        E 370 e1 00 5f
        E 56 e1 00 5e
        E 86 e1 00 5f
        E 112 e1 00 60
        E 56 e1 00 61
        E 30 e1 00 62
        E 56 e1 00 63
        E 170 e1 00 62
        E 58 e1 00 61
        E 310 e1 00 60
        E 596 e1 00 5f
        E 54 e1 00 5e
        E 86 e1 00 5d
        E 30 e1 00 5c
        E 168 e1 00 5b
        E 28 e1 00 5a
        E 30 e1 00 59
        E 56 e1 00 58
        E 142 e1 00 57
        E 56 e1 00 56
        E 56 e1 00 55
        E 86 e1 00 54
        E 142 e1 00 51
        E 28 e1 00 50
        E 28 e1 00 4f
        E 56 e1 00 4e
        E 142 e1 00 4d
        E 28 e1 00 4c
        E 28 e1 00 4a
        E 28 e1 00 49
        E 58 e1 00 48
        E 142 e1 00 47
        E 86 e1 00 46
        E 28 e1 00 45
        E 54 e1 00 44
        E 58 e1 00 42
        E 56 e1 00 41
        E 30 e1 00 40
        E 84 e1 00 40
        E 1700 e1 00 40
        E 198 e1 00 40
        E 170 e1 00 40
        E 56 e1 00 41
        E 86 e1 00 43
        E 28 e1 00 44
        E 26 e1 00 45
        E 58 e1 00 46
        E 57 e1 00 47
        E 85 e1 00 49
        E 56 e1 00 4a
        E 170 e1 00 4b
        E 28 e1 00 4c
        E 56 e1 00 4e
        E 86 e1 00 4f
        E 56 e1 00 50
        E 58 e1 00 51
        E 56 e1 00 53
        E 58 e1 00 54
        E 56 e1 00 55
        E 84 e1 00 56
        E 86 e1 00 58
        E 56 e1 00 59
        E 84 e1 00 5a
        E 116 e1 00 5b
        E 84 e1 00 5c
        E 142 e1 00 5d
        E 56 e1 00 5e
        E 56 e1 00 5f
        E 86 e1 00 60
        E 112 e1 00 61
        E 253 e1 00 62
        E 171 e1 00 64
        E 228 e1 00 65
        E 56 e1 00 66
        E 312 e1 00 67
        E 84 e1 00 68
        E 114 e1 00 69
        E 454 e1 00 6a
        E 112 e1 00 6b
        E 86 e1 00 6a
        E 170 e1 00 6b
        E 198 e1 00 6c
        E 84 e1 00 6b
        E 256 e1 00 6a
        E 56 e1 00 68
        E 56 e1 00 67
        E 56 e1 00 65
        E 30 e1 00 63
        E 28 e1 00 61
        E 28 e1 00 5e
        E 30 e1 00 5a
        E 26 e1 00 56
        E 28 e1 00 50
        E 30 e1 00 4b
        E 28 e1 00 46
        E 8 91 3e 00
        E 20 e1 00 43
        E 30 e1 00 40
        E 296 91 3e 62
        E 728 e1 00 40
        E 26 e1 00 41
        E 32 e1 00 42
        E 26 e1 00 43
        E 28 e1 00 44
        E 29 e1 00 45
        E 141 e1 00 46
        E 28 e1 00 48
        E 30 e1 00 49
        E 28 e1 00 4a
        E 56 e1 00 4c
        E 28 e1 00 4d
        E 56 e1 00 4e
        E 30 e1 00 4f
        E 28 e1 00 50
        E 28 e1 00 51
        E 28 e1 00 53
        E 28 e1 00 54
        E 56 e1 00 55
        E 58 e1 00 56
        E 58 e1 00 58
        E 54 e1 00 59
        E 30 e1 00 5a
        E 56 e1 00 5b
        E 198 e1 00 5c
        E 56 e1 00 5d
        E 313 e1 00 5e
        E 113 e1 00 5f
        E 29 e1 00 60
        E 57 e1 00 61
        E 112 e1 00 62
        E 142 e1 00 63
        E 56 e1 00 64
        E 28 e1 00 65
        E 28 e1 00 66
        E 170 e1 00 67
        E 228 e1 00 68
        E 56 e1 00 69
        E 367 e1 00 68
        E 85 e1 00 67
        E 142 e1 00 68
        E 28 e1 00 67
        E 30 e1 00 66
        E 198 e1 00 65
        E 226 e1 00 64
        E 86 e1 00 63
        E 112 e1 00 62
        E 84 e1 00 61
        E 58 e1 00 60
        E 56 e1 00 5f
        E 28 e1 00 5e
        E 30 e1 00 5d
        E 28 e1 00 5c
        E 56 e1 00 5a
        E 28 e1 00 59
        E 29 e1 00 58
        E 55 e1 00 56
        E 30 e1 00 54
        E 28 e1 00 51
        E 28 e1 00 4f
        E 28 e1 00 4d
        E 30 e1 00 4b
        E 28 e1 00 4a
        E 28 e1 00 48
        E 28 e1 00 47
        E 56 e1 00 46
        E 57 e1 00 44
        E 29 e1 00 43
        E 28 e1 00 41
        E 28 e1 00 40
        E 56 e1 00 40
        E 2182 b1 01 7c
        E 28 b1 01 79
        E 30 b1 01 76
        E 28 b1 01 72
        E 28 b1 01 6f
        E 28 b1 01 6b
        E 27 b1 01 68
        E 29 b1 01 65
        E 30 b1 01 62
        E 28 b1 01 5f
        E 28 b1 01 5c
        E 28 b1 01 5a
        E 28 b1 01 58
        E 28 b1 01 55
        E 28 b1 01 52
        E 30 b1 01 50
        E 28 b1 01 4c
        E 28 b1 01 46
        E 30 b1 01 3f
        E 30 b1 01 3b
        E 26 b1 01 37
        E 30 b1 01 35
        E 508 b1 01 34
        E 28 b1 01 31
        E 28 b1 01 2b
        E 28 b1 01 25
        E 28 b1 01 1f
        E 30 b1 01 18
        E 27 b1 01 10
        E 30 b1 01 07
        E 27 b1 01 00
        E 538 e1 00 41
        E 56 e1 00 42
        E 28 e1 00 41
        E 56 e1 00 44
        E 30 e1 00 46
        E 28 e1 00 48
        E 28 e1 00 4a
        E 30 e1 00 4b
        E 26 e1 00 4c
        E 58 e1 00 4e
        E 28 e1 00 4f
        E 28 e1 00 53
        E 28 e1 00 55
        E 30 e1 00 56
        E 140 e1 00 57
        E 32 e1 00 58
        E 194 e1 00 59
        E 86 e1 00 5a
        E 28 e1 00 5b
        E 28 e1 00 5c
        E 58 e1 00 5d
        E 84 e1 00 5f
        E 30 e1 00 60
        E 56 e1 00 61
        E 26 e1 00 62
        E 86 e1 00 63
        E 114 e1 00 64
        E 226 e1 00 65
        E 170 e1 00 66
        E 56 e1 00 67
        E 228 e1 00 68
        E 56 e1 00 67
        E 198 e1 00 68
        E 84 e1 00 69
        E 200 e1 00 6a
        E 197 e1 00 6b
        E 57 e1 00 6a
        E 86 e1 00 6b
        E 170 e1 00 6c
        E 198 e1 00 6b
        E 340 e1 00 6a
        E 112 e1 00 68
        E 86 e1 00 67
        E 58 e1 00 66
        E 56 e1 00 65
        E 198 e1 00 64
        E 84 e1 00 63
        E 170 e1 00 62
        E 58 e1 00 61
        E 114 e1 00 60
        E 112 e1 00 5f
        E 56 e1 00 5e
        E 114 e1 00 5d
        E 112 e1 00 5c
        E 86 e1 00 5a
        E 56 e1 00 59
        E 113 e1 00 57
        E 31 e1 00 56
        E 28 e1 00 55
        E 54 e1 00 54
        E 29 e1 00 53
        E 57 e1 00 50
        E 30 e1 00 4f
        E 84 e1 00 4e
        E 112 e1 00 4d
        E 86 e1 00 4c
        E 56 e1 00 4a
        E 56 e1 00 49
        E 58 e1 00 48
        E 84 e1 00 47
        E 58 e1 00 45
        E 56 e1 00 44
        E 114 e1 00 43
        E 56 e1 00 42
        E 56 e1 00 41
        E 114 e1 00 40
        E 56 e1 00 40
        E 2124 91 3e 00
        E 436 91 3e 7f
        E 305 e1 00 40
        E 285 e1 00 43
        E 26 e1 00 44
        E 30 e1 00 46
        E 198 e1 00 47
        E 56 e1 00 48
        E 58 e1 00 49
        E 28 e1 00 4a
        E 28 e1 00 4b
        E 112 e1 00 4e
        E 58 e1 00 4f
        E 198 e1 00 50
        E 56 e1 00 51
        E 114 e1 00 53
        E 114 e1 00 54
        E 56 e1 00 55
        E 226 e1 00 56
        E 28 e1 00 57
        E 58 e1 00 58
        E 396 e1 00 59
        E 86 e1 00 5a
        E 56 e1 00 5c
        E 56 e1 00 5d
        E 27 e1 00 5e
        E 171 e1 00 5f
        E 56 e1 00 60
        E 397 e1 00 61
        E 56 e1 00 62
        E 87 e1 00 61
        E 55 e1 00 62
        E 85 e1 00 63
        E 30 e1 00 62
        E 168 e1 00 63
        E 568 e1 00 62
        E 168 e1 00 61
        E 114 e1 00 60
        E 58 e1 00 5f
        E 25 e1 00 5e
        E 315 e1 00 5d
        E 84 e1 00 5c
        E 56 e1 00 5b
        E 114 e1 00 5a
        E 114 e1 00 59
        E 140 e1 00 57
        E 58 e1 00 56
        E 84 e1 00 55
        E 141 e1 00 54
        E 85 e1 00 53
        E 170 e1 00 51
        E 58 e1 00 50
        E 28 e1 00 4f
        E 56 e1 00 4d
        E 57 e1 00 4c
        E 57 e1 00 4b
        E 86 e1 00 4a
        E 112 e1 00 49
        E 28 e1 00 48
        E 58 e1 00 47
        E 112 e1 00 46
        E 28 e1 00 45
        E 169 e1 00 44
        E 57 e1 00 43
        E 58 e1 00 42
        E 57 e1 00 41
        E 85 e1 00 40
        E 56 e1 00 40
        E 2633 e1 00 40
        E 283 e1 00 41
        E 57 e1 00 42
        E 57 e1 00 43
        E 170 e1 00 44
        E 58 e1 00 45
        E 53 e1 00 47
        E 87 e1 00 48
        E 142 e1 00 4a
        E 28 e1 00 4b
        E 56 e1 00 4c
        E 197 e1 00 4d
        E 31 e1 00 4e
        E 56 e1 00 4f
        E 113 e1 00 50
        E 29 e1 00 51
        E 28 e1 00 53
        E 86 e1 00 54
        E 56 e1 00 55
        E 28 e1 00 56
        E 142 e1 00 57
        E 83 e1 00 58
        E 59 e1 00 59
        E 56 e1 00 5b
        E 84 e1 00 5c
        E 144 e1 00 5d
        E 112 e1 00 5e
        E 114 e1 00 5f
        E 198 e1 00 60
        E 56 e1 00 61
        E 142 e1 00 63
        E 84 e1 00 64
        E 142 e1 00 65
        E 169 e1 00 66
        E 87 e1 00 67
        E 84 e1 00 68
        E 83 e1 00 69
        E 143 e1 00 6a
        E 142 e1 00 6b
        E 114 e1 00 6a
        E 340 e1 00 69
        E 28 e1 00 67
        E 27 e1 00 65
        E 29 e1 00 62
        E 20 91 3e 00
        E 10 e1 00 60
        E 27 e1 00 5f
        E 28 e1 00 5d
        E 28 e1 00 5a
        E 29 e1 00 54
        E 28 e1 00 3e
        E 28 e1 00 41
        E 29 e1 00 3e
        E 29 e1 00 40
        E 28 e1 00 3f
        E 28 e1 00 40
        E 58 e1 00 3f
        E 28 e1 00 40
        E 27 e1 00 3e
        E 28 e1 00 41
        E 30 e1 00 3e
        E 28 e1 00 40
        E 28 e1 00 3f
        E 29 e1 00 40
        E 58 e1 00 3f
        E 25 e1 00 41
        E 30 e1 00 3e
        E 29 e1 00 40
        E 28 e1 00 3e
        E 30 e1 00 40
        E 28 e1 00 3f
        E 111 e1 00 40
        E 29 e1 00 3e
        E 28 e1 00 40
        E 30 e1 00 3e
        E 28 e1 00 40
        E 28 e1 00 3f
        E 28 e1 00 40
        E 2 91 3e 2c
        E 30 e1 00 40
        E 29 e1 00 3f
        E 29 e1 00 40
        E 27 e1 00 3f
        E 31 e1 00 40
        E 53 e1 00 3f
        E 29 e1 00 40
        E 30 e1 00 3f
        E 28 e1 00 40
        E 28 e1 00 3f
        E 28 e1 00 40
        E 28 e1 00 3f
        E 27 e1 00 40
        E 115 e1 00 3f
        E 27 e1 00 40
        E 29 e1 00 3f
        E 28 e1 00 40
        E 30 e1 00 3f
        E 28 e1 00 40
        E 114 e1 00 3f
        E 28 e1 00 40
        E 26 e1 00 3f
        E 30 e1 00 40
        E 28 e1 00 3f
        E 28 e1 00 40
        E 116 e1 00 3f
        E 26 e1 00 40
        E 58 e1 00 41
        E 55 e1 00 42
        E 29 e1 00 44
        E 28 e1 00 45
        E 57 e1 00 46
        E 141 e1 00 47
        E 170 e1 00 49
        E 30 e1 00 4a
        E 56 e1 00 4b
        E 86 e1 00 4a
        E 84 e1 00 4c
        E 60 e1 00 4d
        E 54 e1 00 4e
        E 84 e1 00 4d
        E 113 e1 00 4f
        E 57 e1 00 50
        E 170 e1 00 51
        E 142 e1 00 53
        E 56 e1 00 54
        E 58 e1 00 56
        E 56 e1 00 57
        E 28 e1 00 58
        E 84 e1 00 5a
        E 58 e1 00 5b
        E 27 e1 00 5c
        E 29 e1 00 5d
        E 58 e1 00 5e
        E 139 e1 00 5f
        E 57 e1 00 60
        E 114 e1 00 61
        E 58 e1 00 62
        E 140 e1 00 63
        E 58 e1 00 64
        E 112 e1 00 65
        E 56 e1 00 66
        E 144 e1 00 67
        E 56 e1 00 69
        E 114 e1 00 6a
        E 84 e1 00 6b
        E 56 e1 00 6c
        E 113 e1 00 6d
        E 56 e1 00 6e
        E 87 e1 00 6f
        E 27 e1 00 70
        E 29 e1 00 71
        E 28 e1 00 72
        E 114 e1 00 74
        E 170 e1 00 75
        E 56 e1 00 76
        E 86 e1 00 77
        E 54 e1 00 78
        E 58 e1 00 79
        E 86 e1 00 7a
        E 28 e1 00 7d
        E 55 e1 00 7e
        E 57 e1 00 7f
        E 509 e1 00 7e
        E 59 e1 00 7d
        E 140 e1 00 7e
        E 28 e1 00 7f
        E 398 e1 00 7e
        E 198 e1 00 7f
        E 169 e1 00 7e
        E 29 e1 00 7b
        E 27 e1 00 79
        E 29 e1 00 76
        E 28 e1 00 71
        E 10 91 3e 00
        E 20 e1 00 6b
        E 27 e1 00 63
        E 29 e1 00 4b
        E 29 e1 00 3c
        E 29 e1 00 43
        E 27 e1 00 3d
        E 28 e1 00 42
        E 29 e1 00 3e
        E 29 e1 00 40
        E 54 e1 00 3e
        E 31 e1 00 41
        E 28 e1 00 3d
        E 27 e1 00 42
        E 29 e1 00 3d
        E 28 e1 00 42
        E 30 e1 00 3e
        E 28 e1 00 40
        E 27 e1 00 3f
        E 43 91 3e 62
        E 17 e1 00 41
        E 29 e1 00 3e
        E 30 e1 00 41
        E 28 e1 00 3f
        E 27 e1 00 40
        E 57 e1 00 3f
        E 27 e1 00 41
        E 31 e1 00 3e
        E 27 e1 00 41
        E 29 e1 00 3e
        E 27 e1 00 41
        E 30 e1 00 3e
        E 29 e1 00 40
        E 54 e1 00 3f
        E 30 e1 00 40
        E 28 e1 00 3e
        E 28 e1 00 41
        E 28 e1 00 3e
        E 30 e1 00 41
        E 27 e1 00 40
        E 28 e1 00 40
        E 28 e1 00 43
        E 29 e1 00 44
        E 56 e1 00 45
        E 85 e1 00 44
        E 86 e1 00 45
        E 27 e1 00 47
        E 28 e1 00 48
        E 85 e1 00 49
        E 29 e1 00 4a
        E 28 e1 00 4b
        E 30 e1 00 4c
        E 56 e1 00 4d
        E 86 e1 00 4e
        E 140 e1 00 4d
        E 170 e1 00 4c
        E 227 e1 00 4b
        E 57 e1 00 4a
        E 112 e1 00 48
        E 29 e1 00 47
        E 56 e1 00 46
        E 87 e1 00 44
        E 56 e1 00 43
        E 56 e1 00 42
        E 86 e1 00 41
        E 56 e1 00 40
        E 84 e1 00 40
        E 624 e1 00 40
        E 28 e1 00 41
        E 84 e1 00 42
        E 172 e1 00 43
        E 56 e1 00 44
        E 28 e1 00 45
        E 114 e1 00 44
        E 55 e1 00 45
        E 143 e1 00 46
        E 84 e1 00 48
        E 28 e1 00 4a
        E 86 e1 00 4b
        E 142 e1 00 4c
        E 56 e1 00 4d
        E 83 e1 00 4e
        E 87 e1 00 4f
        E 58 e1 00 50
        E 55 e1 00 53
        E 57 e1 00 54
        E 170 e1 00 55
        E 56 e1 00 56
        E 55 e1 00 57
        E 114 e1 00 59
        E 29 e1 00 5a
        E 30 e1 00 5b
        E 55 e1 00 5c
        E 29 e1 00 5d
        E 142 e1 00 5e
        E 84 e1 00 5f
        E 30 e1 00 60
        E 56 e1 00 62
        E 84 e1 00 63
        E 86 e1 00 65
        E 56 e1 00 66
        E 27 e1 00 67
        E 29 e1 00 68
        E 55 e1 00 69
        E 87 e1 00 6a
        E 56 e1 00 6b
        E 58 e1 00 6c
        E 56 e1 00 6d
        E 84 e1 00 6f
        E 85 e1 00 70
        E 114 e1 00 71
        E 57 e1 00 72
        E 83 e1 00 73
        E 257 e1 00 74
        E 57 e1 00 75
        E 113 e1 00 76
        E 56 e1 00 77
        E 29 e1 00 76
        E 85 e1 00 78
        E 114 e1 00 76
        E 84 e1 00 75
        E 83 e1 00 74
        E 59 e1 00 73
        E 27 e1 00 72
        E 143 e1 00 71
        E 28 e1 00 70
        E 111 e1 00 6f
        E 115 e1 00 6e
        E 58 e1 00 6c
        E 112 e1 00 6d
        E 85 e1 00 6c
        E 56 e1 00 6a
        E 57 e1 00 69
        E 56 e1 00 68
        E 170 e1 00 67
        E 86 e1 00 66
        E 58 e1 00 65
        E 56 e1 00 64
        E 84 e1 00 63
        E 56 e1 00 61
        E 30 e1 00 60
        E 28 e1 00 5f
        E 27 e1 00 5d
        E 29 e1 00 5b
        E 28 e1 00 5a
        E 28 e1 00 59
        E 28 e1 00 58
        E 58 e1 00 56
        E 56 e1 00 53
        E 28 e1 00 50
        E 30 e1 00 4d
        E 27 e1 00 4a
        E 28 e1 00 47
        E 29 e1 00 45
        E 30 e1 00 43
        E 27 e1 00 41
        E 29 e1 00 40
        E 1330 e1 00 40
        E 27 e1 00 41
        E 86 e1 00 42
        E 140 e1 00 44
        E 86 e1 00 45
        E 86 e1 00 46
        E 29 e1 00 47
        E 56 e1 00 48
        E 28 e1 00 49
        E 56 e1 00 4b
        E 29 e1 00 4c
        E 254 e1 00 4e
        E 56 e1 00 4f
        E 115 e1 00 50
        E 58 e1 00 51
        E 56 e1 00 53
        E 25 e1 00 54
        E 31 e1 00 55
        E 27 e1 00 56
        E 59 e1 00 57
        E 55 e1 00 58
        E 85 e1 00 59
        E 55 e1 00 5a
        E 58 e1 00 5b
        E 56 e1 00 5c
        E 59 e1 00 5e
        E 56 e1 00 5f
        E 56 e1 00 60
        E 56 e1 00 61
        E 86 e1 00 62
        E 27 e1 00 63
        E 29 e1 00 64
        E 57 e1 00 65
        E 56 e1 00 66
        E 28 e1 00 67
        E 84 e1 00 68
        E 59 e1 00 69
        E 28 e1 00 6a
        E 55 e1 00 6b
        E 60 e1 00 6c
        E 54 e1 00 6e
        E 85 e1 00 6f
        E 29 e1 00 70
        E 29 e1 00 71
        E 56 e1 00 72
        E 197 e1 00 71
        E 58 e1 00 72
        E 57 e1 00 74
        E 83 e1 00 75
        E 87 e1 00 76
        E 56 e1 00 78
        E 27 e1 00 79
        E 56 e1 00 7a
        E 228 e1 00 7b
        E 169 e1 00 7a
        E 85 e1 00 7b
        E 88 e1 00 7d
        E 255 e1 00 7e
        E 622 e1 00 7f
        E 141 e1 00 7e
        E 143 e1 00 7b
        E 27 e1 00 78
        E 29 e1 00 75
        E 28 e1 00 6f
        E 27 e1 00 6a
        E 30 e1 00 63
        E 28 e1 00 5c
        E 16 91 3e 00
        E 13 e1 00 59
        E 27 e1 00 55
        E 31 e1 00 4f
        E 27 e1 00 3f
        E 29 e1 00 40
        E 27 e1 00 3e
        E 29 e1 00 41
        E 29 e1 00 3e
        E 28 e1 00 40
        E 28 e1 00 3f
        E 29 e1 00 40
        E 56 e1 00 3f
        E 29 e1 00 40
        E 29 e1 00 3f
        E 28 e1 00 40
        E 28 e1 00 3e
        E 28 e1 00 40
        E 27 e1 00 3f
        E 29 e1 00 40
        E 68 91 3e 48
        E 50 e1 00 3f
        E 27 e1 00 40
        E 31 e1 00 3f
        E 55 e1 00 40
        E 29 e1 00 3f
        E 28 e1 00 40
        E 27 e1 00 41
        E 58 e1 00 43
        E 56 e1 00 42
        E 56 e1 00 41
        E 56 e1 00 40
        E 569 e1 00 41
        E 55 e1 00 42
        E 170 e1 00 41
        E 87 e1 00 43
        E 26 e1 00 44
        E 58 e1 00 45
        E 112 e1 00 44
        E 255 e1 00 46
        E 29 e1 00 47
        E 340 e1 00 48
        E 56 e1 00 49
        E 29 e1 00 4b
        E 170 e1 00 4c
        E 56 e1 00 4d
        E 142 e1 00 4e
        E 57 e1 00 50
        E 27 e1 00 51
        E 57 e1 00 53
        E 58 e1 00 55
        E 28 e1 00 56
        E 142 e1 00 57
        E 27 e1 00 58
        E 29 e1 00 59
        E 29 e1 00 5a
        E 26 e1 00 5b
        E 28 e1 00 5c
        E 30 e1 00 5d
        E 56 e1 00 5e
        E 87 e1 00 5f
        E 56 e1 00 61
        E 27 e1 00 62
        E 57 e1 00 63
        E 29 e1 00 64
        E 84 e1 00 65
        E 28 e1 00 66
        E 114 e1 00 67
        E 58 e1 00 68
        E 140 e1 00 6a
        E 59 e1 00 6c
        E 54 e1 00 6d
        E 57 e1 00 6e
        E 29 e1 00 6f
        E 56 e1 00 70
        E 29 e1 00 71
        E 56 e1 00 72
        E 113 e1 00 73
        E 85 e1 00 75
        E 112 e1 00 76
        E 170 e1 00 77
        E 58 e1 00 79
        E 29 e1 00 7a
        E 57 e1 00 79
        E 227 e1 00 7a
        E 84 e1 00 7b
        E 369 e1 00 7d
        E 168 e1 00 7e
        E 58 e1 00 7f
        E 84 e1 00 7e
        E 142 e1 00 7d
        E 57 e1 00 7b
        E 225 e1 00 7a
        E 173 e1 00 7b
        E 84 e1 00 7a
        E 84 e1 00 79
        E 141 e1 00 78
        E 85 e1 00 77
        E 171 e1 00 76
        E 84 e1 00 75
        E 58 e1 00 74
        E 55 e1 00 73
        E 84 e1 00 72
        E 29 e1 00 70
        E 59 e1 00 6f
        E 198 e1 00 6e
        E 55 e1 00 6c
        E 170 e1 00 6b
        E 56 e1 00 6a
        E 59 e1 00 69
        E 84 e1 00 68
        E 29 e1 00 67
        E 57 e1 00 66
        E 112 e1 00 65
        E 28 e1 00 64
        E 29 e1 00 63
        E 28 e1 00 61
        E 29 e1 00 60
        E 28 e1 00 5e
        E 28 e1 00 5d
        E 55 e1 00 5c
        E 30 e1 00 5a
        E 28 e1 00 58
        E 28 e1 00 56
        E 28 e1 00 54
        E 28 e1 00 53
        E 31 e1 00 51
        E 55 e1 00 4f
        E 31 e1 00 4e
        E 111 e1 00 4d
        E 254 e1 00 4c
        E 31 e1 00 4b
        E 55 e1 00 4a
        E 28 e1 00 49
        E 28 e1 00 48
        E 30 e1 00 46
        E 27 e1 00 45
        E 27 e1 00 43
        E 30 e1 00 41
        E 29 e1 00 40
        E 27 e1 00 40
        E 1276 e1 00 40
        E 282 e1 00 41
        E 284 e1 00 42
        E 57 e1 00 43
        E 58 e1 00 44
        E 53 e1 00 45
        E 144 e1 00 46
        E 56 e1 00 48
        E 28 e1 00 49
        E 56 e1 00 4b
        E 114 e1 00 4c
        E 29 e1 00 4e
        E 27 e1 00 4f
        E 28 e1 00 50
        E 86 e1 00 51
        E 58 e1 00 53
        E 26 e1 00 54
        E 58 e1 00 55
        E 57 e1 00 56
        E 28 e1 00 57
        E 113 e1 00 58
        E 56 e1 00 59
        E 56 e1 00 5a
        E 58 e1 00 5b
        E 57 e1 00 5d
        E 55 e1 00 5e
        E 59 e1 00 5f
        E 55 e1 00 60
        E 29 e1 00 62
        E 113 e1 00 63
        E 29 e1 00 64
        E 58 e1 00 66
        E 83 e1 00 67
        E 56 e1 00 68
        E 87 e1 00 69
        E 225 e1 00 6a
        E 56 e1 00 6b
        E 86 e1 00 6c
        E 29 e1 00 6d
        E 55 e1 00 6e
        E 29 e1 00 6f
        E 28 e1 00 70
        E 57 e1 00 72
        E 140 e1 00 73
        E 59 e1 00 74
        E 27 e1 00 75
        E 56 e1 00 76
        E 86 e1 00 77
        E 57 e1 00 78
        E 56 e1 00 79
        E 200 e1 00 7a
        E 86 e1 00 7d
        E 28 e1 00 7e
        E 25 e1 00 7f
        E 28 e1 00 7e
        E 30 e1 00 7d
        E 114 e1 00 7f
        E 84 e1 00 7e
        E 29 e1 00 7d
        E 113 e1 00 7b
        E 112 e1 00 7a
        E 28 e1 00 79
        E 540 e1 00 78
        E 282 e1 00 76
        E 29 e1 00 75
        E 86 e1 00 77
        E 139 e1 00 75
        E 30 e1 00 74
        E 28 e1 00 72
        E 28 e1 00 70
        E 28 e1 00 6d
        E 30 e1 00 6a
        E 28 e1 00 65
        E 29 e1 00 5f
        E 27 e1 00 58
        E 28 e1 00 51
        E 28 e1 00 49
        E 28 e1 00 42
        E 28 e1 00 40
        E 130 91 3e 00
        E 1022 91 3e 18
        E 1006 e1 00 41
        E 511 e1 00 40
        E 849 e1 00 40
        E 340 e1 00 40
        E 112 e1 00 41
        E 28 e1 00 42
        E 58 e1 00 43
        E 28 e1 00 44
        E 198 e1 00 45
        E 31 e1 00 47
        E 28 e1 00 48
        E 28 e1 00 49
        E 55 e1 00 4a
        E 57 e1 00 4b
        E 30 e1 00 4c
        E 27 e1 00 4d
        E 28 e1 00 4f
        E 31 e1 00 50
        E 27 e1 00 51
        E 28 e1 00 53
        E 112 e1 00 54
        E 58 e1 00 56
        E 57 e1 00 57
        E 27 e1 00 58
        E 28 e1 00 59
        E 30 e1 00 5a
        E 56 e1 00 5b
        E 57 e1 00 5c
        E 55 e1 00 5d
        E 86 e1 00 5e
        E 56 e1 00 5f
        E 59 e1 00 60
        E 253 e1 00 61
        E 83 e1 00 62
        E 88 e1 00 63
        E 55 e1 00 64
        E 29 e1 00 65
        E 29 e1 00 66
        E 56 e1 00 68
        E 140 e1 00 69
        E 30 e1 00 6a
        E 83 e1 00 6b
        E 115 e1 00 6c
        E 226 e1 00 6e
        E 226 e1 00 6f
        E 144 e1 00 70
        E 84 e1 00 71
        E 199 e1 00 72
        E 226 e1 00 73
        E 170 e1 00 74
        E 113 e1 00 73
        E 84 e1 00 75
        E 115 e1 00 74
        E 141 e1 00 75
        E 57 e1 00 74
        E 83 e1 00 76
        E 30 e1 00 75
        E 56 e1 00 72
        E 28 e1 00 71
        E 56 e1 00 70
        E 86 e1 00 6f
        E 58 e1 00 6d
        E 28 e1 00 6b
        E 28 e1 00 69
        E 28 e1 00 68
        E 58 e1 00 67
        E 26 e1 00 66
        E 31 e1 00 65
        E 27 e1 00 64
        E 28 e1 00 63
        E 30 e1 00 62
        E 29 e1 00 60
        E 26 e1 00 5e
        E 57 e1 00 5d
        E 28 e1 00 5c
        E 28 e1 00 59
        E 28 e1 00 56
        E 30 e1 00 54
        E 28 e1 00 50
        E 29 e1 00 4d
        E 27 e1 00 49
        E 28 e1 00 46
        E 30 e1 00 42
        E 27 e1 00 40
        E 1331 e1 00 40
        E 58 e1 00 41
        E 282 e1 00 42
        E 114 e1 00 43
        E 170 e1 00 42
        E 56 e1 00 43
        E 56 e1 00 45
        E 58 e1 00 46
        E 56 e1 00 47
        E 57 e1 00 49
        E 85 e1 00 4a
        E 58 e1 00 4b
        E 26 e1 00 4c
        E 58 e1 00 4e
        E 56 e1 00 4f
        E 31 e1 00 50
        E 27 e1 00 51
        E 28 e1 00 53
        E 28 e1 00 54
        E 28 e1 00 55
        E 31 e1 00 56
        E 27 e1 00 57
        E 28 e1 00 58
        E 28 e1 00 59
        E 56 e1 00 5a
        E 28 e1 00 5b
        E 86 e1 00 5c
        E 84 e1 00 5e
        E 59 e1 00 5f
        E 27 e1 00 60
        E 56 e1 00 61
        E 58 e1 00 62
        E 54 e1 00 64
        E 58 e1 00 65
        E 56 e1 00 66
        E 142 e1 00 68
        E 58 e1 00 69
        E 84 e1 00 6a
        E 86 e1 00 6b
        E 56 e1 00 6c
        E 56 e1 00 6e
        E 28 e1 00 6f
        E 28 e1 00 70
        E 32 e1 00 71
        E 26 e1 00 72
        E 112 e1 00 73
        E 58 e1 00 74
        E 28 e1 00 75
        E 86 e1 00 76
        E 84 e1 00 77
        E 56 e1 00 79
        E 59 e1 00 7a
        E 55 e1 00 7b
        E 57 e1 00 7d
        E 339 e1 00 7e
        E 85 e1 00 7d
        E 56 e1 00 7b
        E 397 e1 00 7e
        E 56 e1 00 7f
        E 84 91 3e 00
        E 144 e1 00 7d
        E 84 e1 00 7f
        E 142 e1 00 7b
        E 28 e1 00 79
        E 30 e1 00 76
        E 28 e1 00 71
        E 28 e1 00 6b
        E 29 e1 00 65
        E 29 e1 00 5e
        E 29 e1 00 54
        E 27 e1 00 47
        E 26 91 3e 5b
        E 7 e1 00 40
        E 3001 e1 00 40
        E 112 e1 00 41
        E 142 e1 00 42
        E 226 e1 00 43
        E 58 e1 00 44
        E 284 e1 00 45
        E 28 e1 00 47
        E 28 e1 00 49
        E 28 e1 00 4a
        E 29 e1 00 4b
        E 55 e1 00 4c
        E 58 e1 00 4d
        E 28 e1 00 4f
        E 30 e1 00 50
        E 28 e1 00 53
        E 26 e1 00 54
        E 28 e1 00 55
        E 58 e1 00 56
        E 86 e1 00 58
        E 28 e1 00 59
        E 56 e1 00 5a
        E 28 e1 00 5b
        E 56 e1 00 5c
        E 86 e1 00 5d
        E 28 e1 00 5e
        E 28 e1 00 5f
        E 28 e1 00 60
        E 56 e1 00 61
        E 59 e1 00 62
        E 27 e1 00 63
        E 56 e1 00 64
        E 88 e1 00 65
        E 54 e1 00 66
        E 56 e1 00 67
        E 256 e1 00 68
        E 142 e1 00 69
        E 56 e1 00 6a
        E 170 e1 00 6b
        E 30 e1 00 6c
        E 254 e1 00 6e
        E 254 e1 00 6f
        E 56 e1 00 70
        E 626 e1 00 71
        E 140 e1 00 72
        E 254 e1 00 71
        E 228 e1 00 70
        E 56 e1 00 72
        E 112 e1 00 71
        E 142 e1 00 70
        E 28 e1 00 6f
        E 58 e1 00 6e
        E 112 e1 00 6d
        E 144 e1 00 6b
        E 28 e1 00 6a
        E 27 e1 00 68
        E 27 e1 00 66
        E 86 e1 00 65
        E 29 e1 00 64
        E 29 e1 00 62
        E 28 e1 00 61
        E 28 e1 00 60
        E 29 e1 00 5f
        E 55 e1 00 5d
        E 28 e1 00 5c
        E 31 e1 00 5a
        E 27 e1 00 59
        E 29 e1 00 58
        E 139 e1 00 57
        E 30 e1 00 56
        E 198 e1 00 55
        E 170 e1 00 54
        E 86 e1 00 53
        E 84 e1 00 50
        E 30 e1 00 4f
        E 28 e1 00 4d
        E 28 e1 00 4c
        E 28 e1 00 4a
        E 28 e1 00 48
        E 28 e1 00 46
        E 28 e1 00 44
        E 30 e1 00 43
        E 28 e1 00 42
        E 56 e1 00 41
        E 28 e1 00 40
        E 56 e1 00 40
        E 1076 e1 00 40
        E 794 e1 00 41
        E 198 e1 00 42
        E 58 e1 00 43
        E 84 e1 00 44
        E 56 e1 00 45
        E 58 e1 00 47
        E 56 e1 00 48
        E 56 e1 00 49
        E 86 e1 00 4a
        E 86 e1 00 4d
        E 26 e1 00 4e
        E 28 e1 00 4f
        E 86 e1 00 50
        E 28 e1 00 53
        E 30 e1 00 54
        E 56 e1 00 55
        E 56 e1 00 56
        E 86 e1 00 57
        E 56 e1 00 58
        E 28 e1 00 59
        E 56 e1 00 5a
        E 170 e1 00 5b
        E 114 e1 00 5c
        E 58 e1 00 5d
        E 168 e1 00 5e
        E 58 e1 00 5f
        E 84 e1 00 60
        E 57 e1 00 62
        E 113 e1 00 63
        E 57 e1 00 64
        E 29 e1 00 65
        E 84 e1 00 66
        E 58 e1 00 67
        E 54 e1 00 69
        E 58 e1 00 6a
        E 56 e1 00 6b
        E 30 e1 00 6c
        E 28 e1 00 6d
        E 28 e1 00 6e
        E 28 e1 00 6f
        E 368 e1 00 70
        E 56 e1 00 71
        E 142 e1 00 73
        E 58 e1 00 74
        E 168 e1 00 75
        E 58 e1 00 76
        E 1018 e1 00 78
        E 28 e1 00 79
        E 30 e1 00 7a
        E 85 e1 00 7d
        E 29 e1 00 7f
        E 286 91 3e 00
        E 26 e1 00 7b
        E 28 e1 00 73
        E 28 e1 00 6a
        E 28 e1 00 5a
        E 28 e1 00 40
        E 30 e1 00 3e
        E 28 e1 00 41
        E 28 e1 00 3e
        E 28 e1 00 41
        E 28 e1 00 3e
        E 28 e1 00 41
        E 30 e1 00 3e
        E 28 e1 00 40
        E 28 e1 00 40
        E 56 e1 00 40
        E 28 e1 00 3e
        E 28 e1 00 41
        E 28 e1 00 3e
        E 31 e1 00 41
        E 1 91 3e 72
        E 30 e1 00 40
        E 28 e1 00 3f
        E 28 e1 00 40
        E 28 e1 00 3e
        E 29 e1 00 41
        E 29 e1 00 3e
        E 28 e1 00 40
        E 28 e1 00 3f
        E 28 e1 00 40
        E 56 e1 00 3f
        E 28 e1 00 40
        E 30 e1 00 3e
        E 28 e1 00 40
        E 28 e1 00 3e
        E 28 e1 00 40
        E 28 e1 00 3f
        E 30 e1 00 40
        E 56 e1 00 3f
        E 28 e1 00 40
        E 30 e1 00 3f
        E 28 e1 00 40
        E 28 e1 00 3f
        E 30 e1 00 40
        E 29 e1 00 3f
        E 25 e1 00 40
        E 58 e1 00 3f
        E 28 e1 00 40
        E 28 e1 00 3f
        E 28 e1 00 40
        E 30 e1 00 3f
        E 28 e1 00 40
        E 28 e1 00 3f
        E 29 e1 00 40
        E 113 e1 00 3f
        E 28 e1 00 40
        E 28 e1 00 3f
        E 28 e1 00 40
        E 28 e1 00 3f
        E 28 e1 00 40
        E 115 e1 00 3f
        E 27 e1 00 40
        E 29 e1 00 3f
        E 27 e1 00 40
        E 31 e1 00 3f
        E 27 e1 00 40
        E 452 e1 00 40
        E 200 e1 00 41
        E 480 e1 00 42
        E 86 e1 00 43
        E 56 e1 00 45
        E 84 e1 00 46
        E 86 e1 00 47
        E 56 e1 00 48
        E 58 e1 00 4a
        E 56 e1 00 4b
        E 86 e1 00 4c
        E 54 e1 00 4d
        E 30 e1 00 4e
        E 56 e1 00 4f
        E 58 e1 00 50
        E 56 e1 00 53
        E 56 e1 00 54
        E 58 e1 00 55
        E 84 e1 00 56
        E 114 e1 00 57
        E 58 e1 00 58
        E 56 e1 00 59
        E 84 e1 00 5a
        E 86 e1 00 5b
        E 56 e1 00 5c
        E 58 e1 00 5d
        E 28 e1 00 5e
        E 56 e1 00 5f
        E 55 e1 00 60
        E 57 e1 00 61
        E 30 e1 00 62
        E 57 e1 00 63
        E 55 e1 00 65
        E 28 e1 00 66
        E 58 e1 00 67
        E 143 e1 00 68
        E 195 e1 00 69
        E 58 e1 00 6a
        E 170 e1 00 6b
        E 84 e1 00 6c
        E 58 e1 00 6d
        E 112 e1 00 6e
        E 86 e1 00 6f
        E 84 e1 00 70
        E 58 e1 00 71
        E 142 e1 00 72
        E 28 e1 00 73
        E 56 e1 00 74
        E 28 e1 00 75
        E 86 e1 00 74
        E 112 e1 00 75
        E 114 e1 00 74
        E 56 e1 00 75
        E 200 e1 00 74
        E 254 e1 00 75
        E 170 e1 00 74
        E 56 e1 00 72
        E 170 e1 00 71
        E 28 e1 00 70
        E 142 e1 00 6f
        E 86 e1 00 6e
        E 112 e1 00 6d
        E 86 e1 00 6c
        E 56 e1 00 6b
        E 56 e1 00 6a
        E 114 e1 00 69
        E 56 e1 00 68
        E 28 e1 00 67
        E 142 e1 00 65
        E 30 e1 00 63
        E 27 e1 00 62
        E 29 e1 00 60
        E 28 e1 00 5f
        E 28 e1 00 5e
        E 28 e1 00 5c
        E 28 e1 00 5a
        E 30 e1 00 59
        E 29 e1 00 58
        E 27 e1 00 56
        E 28 e1 00 54
        E 28 e1 00 51
        E 28 e1 00 50
        E 30 e1 00 4f
        E 56 e1 00 4e
        E 28 e1 00 4c
        E 28 e1 00 4b
        E 28 e1 00 4a
        E 28 e1 00 49
        E 29 e1 00 47
        E 27 e1 00 46
        E 30 e1 00 45
        E 28 e1 00 44
        E 57 e1 00 43
        E 27 e1 00 42
        E 30 e1 00 41
        E 56 e1 00 40
        E 58 e1 00 40
        E 1330 e1 00 40
        E 28 e1 00 41
        E 170 e1 00 40
        E 58 e1 00 41
        E 28 e1 00 42
        E 56 e1 00 43
        E 340 e1 00 45
        E 56 e1 00 46
        E 170 e1 00 47
        E 58 e1 00 48
        E 54 e1 00 49
        E 58 e1 00 4b
        E 86 e1 00 4c
        E 56 e1 00 4d
        E 56 e1 00 4e
        E 56 e1 00 4f
        E 30 e1 00 51
        E 84 e1 00 53
        E 28 e1 00 54
        E 56 e1 00 55
        E 59 e1 00 56
        E 27 e1 00 57
        E 56 e1 00 58
        E 58 e1 00 59
        E 56 e1 00 5b
        E 56 e1 00 5c
        E 84 e1 00 5e
        E 58 e1 00 5f
        E 55 e1 00 60
        E 87 e1 00 61
        E 28 e1 00 62
        E 84 e1 00 63
        E 58 e1 00 64
        E 56 e1 00 66
        E 84 e1 00 67
        E 58 e1 00 68
        E 58 e1 00 6a
        E 54 e1 00 6b
        E 86 e1 00 6c
        E 58 e1 00 6e
        E 112 e1 00 6f
        E 30 e1 00 70
        E 27 e1 00 71
        E 57 e1 00 72
        E 170 e1 00 73
        E 28 e1 00 74
        E 56 e1 00 75
        E 58 e1 00 74
        E 56 e1 00 75
        E 57 e1 00 76
        E 85 e1 00 77
        E 58 e1 00 78
        E 254 e1 00 79
        E 112 e1 00 7a
        E 114 e1 00 7b
        E 198 e1 00 7d
        E 142 e1 00 7e
        E 30 e1 00 7f
        E 820 e1 00 76
        E 28 e1 00 6d
        E 14 91 3e 00
        E 16 e1 00 62
        E 29 e1 00 46
        E 27 e1 00 38
        E 28 e1 00 45
        E 30 e1 00 3a
        E 28 e1 00 43
        E 28 e1 00 3d
        E 28 e1 00 40
        E 30 e1 00 41
        E 28 e1 00 3c
        E 28 e1 00 43
        E 26 e1 00 3a
        E 29 e1 00 44
        E 29 e1 00 3a
        E 28 e1 00 43
        E 30 e1 00 3c
        E 28 e1 00 41
        E 28 e1 00 3f
        E 56 e1 00 41
        E 28 e1 00 3d
        E 28 e1 00 43
        E 30 e1 00 3a
        E 28 e1 00 43
        E 28 e1 00 3c
        E 28 e1 00 42
        E 28 e1 00 3d
        E 28 e1 00 40
        E 56 e1 00 3e
        E 30 e1 00 41
        E 28 e1 00 3d
        E 28 e1 00 42
        E 16 91 3e 54
        E 16 e1 00 3f
        E 28 e1 00 40
        E 30 e1 00 40
        E 28 e1 00 3e
        E 28 e1 00 42
        E 28 e1 00 3d
        E 28 e1 00 42
        E 28 e1 00 3d
        E 29 e1 00 41
        E 29 e1 00 3e
        E 28 e1 00 40
        E 56 e1 00 3e
        E 28 e1 00 41
        E 28 e1 00 3d
        E 30 e1 00 41
        E 28 e1 00 3d
        E 28 e1 00 41
        E 28 e1 00 3e
        E 30 e1 00 40
        E 198 e1 00 40
        E 1358 e1 00 40
        E 197 e1 00 41
        E 31 e1 00 42
        E 28 e1 00 43
        E 32 e1 00 45
        E 24 e1 00 47
        E 30 e1 00 48
        E 56 e1 00 4a
        E 56 e1 00 4b
        E 28 e1 00 4c
        E 28 e1 00 4e
        E 30 e1 00 4f
        E 56 e1 00 50
        E 56 e1 00 51
        E 56 e1 00 54
        E 28 e1 00 55
        E 58 e1 00 56
        E 142 e1 00 57
        E 114 e1 00 59
        E 28 e1 00 5a
        E 28 e1 00 5b
        E 114 e1 00 5c
        E 140 e1 00 5e
        E 28 e1 00 5f
        E 58 e1 00 60
        E 84 e1 00 61
        E 28 e1 00 62
        E 58 e1 00 63
        E 56 e1 00 65
        E 58 e1 00 66
        E 56 e1 00 67
        E 28 e1 00 68
        E 28 e1 00 6a
        E 56 e1 00 6c
        E 30 e1 00 6d
        E 84 e1 00 6e
        E 83 e1 00 6f
        E 59 e1 00 71
        E 112 e1 00 72
        E 114 e1 00 73
        E 28 e1 00 74
        E 56 e1 00 75
        E 86 e1 00 76
        E 30 e1 00 75
        E 112 e1 00 76
        E 170 e1 00 77
        E 86 e1 00 76
        E 84 e1 00 77
        E 56 e1 00 78
        E 86 e1 00 77
        E 56 e1 00 78
        E 312 e1 00 77
        E 226 e1 00 76
        E 142 e1 00 77
        E 28 e1 00 76
        E 60 e1 00 75
        E 252 e1 00 74
        E 86 e1 00 73
        E 84 e1 00 72
        E 28 e1 00 71
        E 27 e1 00 70
        E 31 e1 00 6f
        E 28 e1 00 6e
        E 28 e1 00 6b
        E 28 e1 00 69
        E 28 e1 00 66
        E 28 e1 00 61
        E 28 e1 00 5d
        E 30 e1 00 5a
        E 28 e1 00 58
        E 28 e1 00 55
        E 28 e1 00 51
        E 28 e1 00 4d
        E 30 e1 00 49
        E 26 e1 00 45
        E 30 e1 00 43
        E 28 e1 00 41
        E 28 e1 00 40
        E 28 e1 00 3f
        E 28 e1 00 40
        E 1786 e1 00 40
        E 56 e1 00 41
        E 368 e1 00 40
        E 84 e1 00 42
        E 30 e1 00 43
        E 168 e1 00 44
        E 172 e1 00 45
        E 140 e1 00 47
        E 28 e1 00 48
        E 58 e1 00 4a
        E 28 e1 00 4b
        E 56 e1 00 4c
        E 56 e1 00 4e
        E 30 e1 00 4f
        E 58 e1 00 50
        E 82 e1 00 51
        E 58 e1 00 53
        E 114 e1 00 54
        E 28 e1 00 55
        E 56 e1 00 56
        E 58 e1 00 58
        E 26 e1 00 59
        E 30 e1 00 5a
        E 28 e1 00 5b
        E 28 e1 00 5c
        E 55 e1 00 5e
        E 57 e1 00 5f
        E 86 e1 00 60
        E 28 e1 00 61
        E 28 e1 00 63
        E 30 e1 00 64
        E 56 e1 00 65
        E 28 e1 00 66
        E 28 e1 00 67
        E 114 e1 00 66
        E 84 e1 00 67
        E 30 e1 00 68
        E 56 e1 00 6a
        E 84 e1 00 6b
        E 28 e1 00 6c
        E 58 e1 00 6d
        E 84 e1 00 6e
        E 28 e1 00 6f
        E 28 e1 00 70
        E 32 e1 00 71
        E 26 e1 00 72
        E 198 e1 00 74
        E 58 e1 00 75
        E 140 e1 00 76
        E 56 e1 00 77
        E 58 e1 00 78
        E 140 e1 00 79
        E 30 e1 00 7a
        E 56 e1 00 7b
        E 114 e1 00 7e
        E 28 e1 00 7f
        E 1484 91 3e 00
        E 442 e1 00 77
        E 30 e1 00 6d
        E 28 e1 00 5f
        E 28 e1 00 4f
        E 20 91 32 72
        E 12 e1 00 3f
        E 28 e1 00 40
        E 28 e1 00 3f
        E 28 e1 00 40
        E 114 e1 00 3f
        E 28 e1 00 40
        E 28 e1 00 3f
        E 30 e1 00 40
        E 28 e1 00 3f
        E 26 e1 00 40
        E 114 e1 00 3f
        E 30 e1 00 40
        E 28 e1 00 3f
        E 28 e1 00 40
        E 30 e1 00 3f
        E 26 e1 00 40
        E 170 e1 00 3f
        E 28 e1 00 40
        E 28 e1 00 3f
        E 28 e1 00 40
        E 170 e1 00 3f
        E 30 e1 00 40
        E 28 e1 00 3f
        E 28 e1 00 40
        E 27 e1 00 3f
        E 114 e1 00 40
        E 341 e1 00 3f
        E 28 e1 00 40
        E 1162 e1 00 40
        E 112 e1 00 40
        E 594 e1 00 40
        E 86 e1 00 40
        E 311 e1 00 40
        E 227 e1 00 40
        E 5316 91 32 00
        E 1148 91 26 7a
        E 5378 e1 00 3f
        E 86 e1 00 40
        E 27 e1 00 41
        E 113 e1 00 40
        E 30 e1 00 3f
        E 113 e1 00 40
        E 57 e1 00 40
        E 226 e1 00 40
        E 84 e1 00 3f
        E 142 e1 00 3e
        E 58 e1 00 3d
        E 56 e1 00 3c
        E 142 e1 00 3a
        E 57 e1 00 39
        E 141 e1 00 38
        E 169 e1 00 37
        E 284 e1 00 36
        E 143 e1 00 35
        E 198 e1 00 34
        E 226 e1 00 33
        E 200 e1 00 32
        E 112 e1 00 31
        E 58 e1 00 30
        E 84 e1 00 2f
        E 596 e1 00 2e
        E 480 e1 00 2d
        E 142 e1 00 2c
        E 256 e1 00 2d
        E 225 e1 00 2e
        E 84 e1 00 2f
        E 31 e1 00 30
        E 28 e1 00 31
        E 28 e1 00 32
        E 28 e1 00 33
        E 28 e1 00 34
        E 253 e1 00 35
        E 143 e1 00 34
        E 58 e1 00 35
        E 56 e1 00 38
        E 28 e1 00 39
        E 30 e1 00 3c
        E 28 e1 00 3d
        E 28 e1 00 3f
        E 56 e1 00 40
        E 28 e1 00 3f
        E 86 e1 00 40
        E 168 e1 00 3f
        E 540 e1 00 40
        E 7546 91 26 00
        E 12914 b0 7b 00
        GUID {0F5EC9DE-04E3-4176-8A40-90BC1146561A}
        IGNTEMPO 0 120 4 4
        SRCCOLOR 2
      >
    >
  >
>
