<REAPER_PROJECT 0.1 "5.22/x64" 1470182257
  RIPPLE 0
  GROUPOVERRIDE 0 0 0
  AUTOXFADE 1
  ENVATTACH 1
  MIXERUIFLAGS 11 48
  PEAKGAIN 1
  FEEDBACK 0
  PANLAW 1
  PROJOFFS 0 0
  MAXPROJLEN 0 600
  GRID 3199 8 0.5 8 1 0 0
  TIMEMODE 1 5 -1 30 0
  PANMODE 3
  CURSOR 76.32
  ZOOM 55.1200783830612 3971 0
  VZOOMEX 3
  USE_REC_CFG 0
  RECMODE 1
  SMPTESYNC 0 30 100 40 1000 300 0 0 1
  LOOP 0
  LOOPGRAN 0 4
  RECORD_PATH "" "D:\Recording"
  <RECORD_CFG
    ZXZhdxgA
  >
  <APPLYFX_CFG
  >
  RENDER_FILE "D:\2016\Render\Exo-Lord.wav"
  RENDER_FMT 0 2 44100
  RENDER_1X 0
  RENDER_RANGE 2 0 0 18 1000
  RENDER_RESAMPLE 4 0 1
  RENDER_ADDTOPROJ 0
  RENDER_STEMS 0
  RENDER_DITHER 0
  TIMELOCKMODE 1
  TEMPOENVLOCKMODE 1
  ITEMMIX 0
  DEFPITCHMODE 589824
  TAKELANE 1
  SAMPLERATE 44100 0 0
  <RENDER_CFG
    ZXZhdxgAAA==
  >
  LOCK 1
  <METRONOME 6 2
    VOL 0.25 0.125
    FREQ 800 1600 1
    BEATLEN 4
    SAMPLES "" ""
    PATTERN 2863311530 2863311529
  >
  GLOBAL_AUTO -1
  TEMPO 125 4 4
  PLAYRATE 1 0 0.25 4
  SELECTION 345.6 32.64
  SELECTION2 345.6 32.64
  MASTERAUTOMODE 0
  MASTERTRACKHEIGHT 0
  MASTERPEAKCOL 16576
  MASTERMUTESOLO 0
  MASTERTRACKVIEW 0 0.6667 0.5 0.5 0 0 0
  MASTERHWOUT 0 0 1 0 0 0 0 -1
  MASTER_NCH 2 2
  MASTER_VOLUME 0.77019387072009 0 -1 -1 1
  MASTER_FX 1
  MASTER_SEL 0
  <MASTERPLAYSPEEDENV
    ACT 0
    VIS 0 1 1
    LANEHEIGHT 0 0
    ARM 0
    DEFSHAPE 0 -1 -1
  >
  <TEMPOENVEX
    ACT 0
    VIS 1 0 1
    LANEHEIGHT 0 0
    ARM 0
    DEFSHAPE 1 -1 -1
  >
  MARKER 1 34.08 Start 0 0 1 R
  <PROJBAY
  >
  <TRACK {0EF95ED7-96AA-4685-A071-BC7706513EB4}
    NAME "Exo-Lord / Dildo Daggins"
    PEAKCOL 24076144
    BEAT -1
    AUTOMODE 0
    VOLPAN 0.26351193423099 0 -1 -1 1
    MUTESOLO 1 0 0
    IPHASE 0
    ISBUS 0 0
    BUSCOMP 0 0
    SHOWINMIX 1 0.6667 0.5 1 0.5 0 0 0
    FREEMODE 0
    SEL 0
    REC 0 0 0 0 0 0 0
    VU 2
    TRACKHEIGHT 0 0
    INQ 0 0 0 0.5 100 0 0 100
    NCHAN 2
    FX 1
    TRACKID {0EF95ED7-96AA-4685-A071-BC7706513EB4}
    PERF 0
    MIDIOUT -1
    MAINSEND 1 0
    <ITEM
      POSITION 38.4
      SNAPOFFS 0
      LENGTH 269.3532207180242
      LOOP 1
      ALLTAKES 0
      FADEIN 1 0.01 0 1 0 0
      FADEOUT 1 0.01 0 1 0 0
      MUTE 0
      BEAT 0
      SEL 0
      IGUID {8DC73C41-29A2-4161-A152-79B1EF76CF2E}
      IID 1
      NAME Exo-Lord.wma
      VOLPAN 1 0 1.383409 -1
      SOFFS 159.14176794410724
      PLAYRATE 1 0 0 -1 0 0.0025
      CHANMODE 0
      GUID {095CF6DA-0FCC-486A-9DD8-F4D5A6ABD550}
      <SOURCE VIDEO
        FLIP 0 1
        FILE "Exo-Lord.wma"
      >
    >
  >
  <TRACK {E2A896FA-0360-4103-AFCB-2E5A63C29C02}
    NAME EZdrummer
    PEAKCOL 21863318
    BEAT -1
    AUTOMODE 0
    VOLPAN 0.70069290290533 0 -1 -1 1
    MUTESOLO 0 0 0
    IPHASE 0
    ISBUS 0 0
    BUSCOMP 0 0
    SHOWINMIX 1 0.6667 0.5 1 0.5 0 0 0
    FREEMODE 0
    SEL 0
    REC 0 5088 2 0 0 0 0
    VU 2
    TRACKHEIGHT 0 0
    INQ 0 0 0 0.5 100 0 0 100
    NCHAN 2
    FX 1
    TRACKID {E2A896FA-0360-4103-AFCB-2E5A63C29C02}
    PERF 0
    MIDIOUT -1
    MAINSEND 1 0
    <FXCHAIN
      WNDRECT 1011 63 1147 769
      SHOW 0
      LASTSEL 2
      DOCKED 0
      BYPASS 0 0 0
      <VST "VSTi: EZdrummer (Toontrack) (32 out)" EZdrummer.dll 0 "" 1684432997
        ZWhmZO5e7f4AAAAAIAAAAAEAAAAAAAAAAgAAAAAAAAAEAAAAAAAAAAgAAAAAAAAAEAAAAAAAAAAgAAAAAAAAAEAAAAAAAAAAgAAAAAAAAAAAAQAAAAAAAAACAAAAAAAA
        AAQAAAAAAAAACAAAAAAAAAAQAAAAAAAAACAAAAAAAAAAQAAAAAAAAACAAAAAAAAAAAABAAAAAAAAAAIAAAAAAAAABAAAAAAAAAAIAAAAAAAAABAAAAAAAAAAIAAAAAAA
        AABAAAAAAAAAAIAAAAAAAAAAAAEAAAAAAAAAAgAAAAAAAAAEAAAAAAAAAAgAAAAAAAAAEAAAAAAAAAAgAAAAAAAAAEAAAAAAAAAAgAAAAADwDAAAAQAAALIAEAA=
        dmVyc2lvbiAxCkVaWCAiRVpYMl9FWmRydW1tZXIyX01vZGVybiIKaHVtYW5pemUgMQpwb3MgIktpY2siICIxNDI0R01TMiIKcG9zICJTbmFyZSIgIjEzR01TNiIKcG9z
        ICJIYXRzIiAiMTNISFgiCnBvcyAiVG9tMSIgIiIKcG9zICJUb20yIiAiMTRHTVMyIgpwb3MgIlRvbTMiICIiCnBvcyAiVG9tNCIgIjE2R01TMyIKcG9zICJUb201IiAi
        MThHTVMzIgpwb3MgIlJpZGU0IiAiMjBTYWJpYW5SaWRlIgpwb3MgIkNyYXNoMSIgIjIwU2FiaWFuMSIKcG9zICJDcmFzaDIiICIyMFNhYmlhbjIiCnBvcyAiQ3Jhc2gz
        IiAiMTgtMlNhYmlhbjMiCnBvcyAiQ3Jhc2g0IiAiMTgtMlNhYmlhbjUiCm1peGVyIHsKYnVzcyAwIHsKcGFuIDAuNQp2b2x1bWUgMC44NjAzMDcKcGhhc2VyZXZlcnNl
        IDAKc29sbyAwCm11dGUgMApyb3V0ZSAwCn0KYnVzcyAxIHsKcGFuIDAuNQp2b2x1bWUgMC44NjAzMDcKcGhhc2VyZXZlcnNlIDAKc29sbyAwCm11dGUgMApyb3V0ZSAw
        Cn0KYnVzcyAyIHsKcGFuIDAuNQp2b2x1bWUgMC43MDc5NDcKcGhhc2VyZXZlcnNlIDAKc29sbyAwCm11dGUgMApyb3V0ZSAwCn0KYnVzcyAzIHsKcGFuIDAuNQp2b2x1
        bWUgMC43MDc5NDcKcGhhc2VyZXZlcnNlIDAKc29sbyAwCm11dGUgMApyb3V0ZSAwCn0KYnVzcyA0IHsKcGFuIDAuMzc1CnZvbHVtZSAwLjM1NDgxNApwaGFzZXJldmVy
        c2UgMApzb2xvIDAKbXV0ZSAwCnJvdXRlIDAKfQpidXNzIDUgewpwYW4gMC4zNzUKdm9sdW1lIDAuMzU0ODE0CnBoYXNlcmV2ZXJzZSAwCnNvbG8gMAptdXRlIDAKcm91
        dGUgMAp9CmJ1c3MgNiB7CnBhbiAwCnZvbHVtZSAwLjgxNDUKcGhhc2VyZXZlcnNlIDAKc29sbyAwCm11dGUgMApyb3V0ZSAwCn0KYnVzcyA3IHsKcGFuIDAuOTE2NjY3
        CnZvbHVtZSAwLjgxNDUKcGhhc2VyZXZlcnNlIDAKc29sbyAwCm11dGUgMApyb3V0ZSAwCn0KYnVzcyA4IHsKcGFuIDAKdm9sdW1lIDAuMzk5OTI3CnBoYXNlcmV2ZXJz
        ZSAwCnNvbG8gMAptdXRlIDAKcm91dGUgMAp9CmJ1c3MgOSB7CnBhbiAxCnZvbHVtZSAwLjM5OTkyNwpwaGFzZXJldmVyc2UgMApzb2xvIDAKbXV0ZSAwCnJvdXRlIDAK
        fQpidXNzIDEwIHsKcGFuIDAKdm9sdW1lIDAuMzQ1NTExCnBoYXNlcmV2ZXJzZSAwCnNvbG8gMAptdXRlIDAKcm91dGUgMAp9CmJ1c3MgMTEgewpwYW4gMQp2b2x1bWUg
        MC4zNDU1MTEKcGhhc2VyZXZlcnNlIDAKc29sbyAwCm11dGUgMApyb3V0ZSAwCn0KYnVzcyAxMiB7CnBhbiAwLjUKdm9sdW1lIDAuNDc1MjUxCnBoYXNlcmV2ZXJzZSAw
        CnNvbG8gMAptdXRlIDAKcm91dGUgMAp9CmJ1c3MgMTMgewpwYW4gMC41CnZvbHVtZSAwLjQ3NTI1MQpwaGFzZXJldmVyc2UgMApzb2xvIDAKbXV0ZSAwCnJvdXRlIDAK
        fQpidXNzIDE0IHsKcGFuIDAuNQp2b2x1bWUgMC4xODI2MTYKcGhhc2VyZXZlcnNlIDAKc29sbyAwCm11dGUgMApyb3V0ZSAwCn0KYnVzcyAxNSB7CnBhbiAwLjUKdm9s
        dW1lIDAuMTgyNjE2CnBoYXNlcmV2ZXJzZSAwCnNvbG8gMAptdXRlIDAKcm91dGUgMAp9CmJ1c3MgMTYgewpwYW4gMC41CnZvbHVtZSAwLjcwNzk0NwpwaGFzZXJldmVy
        c2UgMApzb2xvIDAKbXV0ZSAwCnJvdXRlIDAKfQpidXNzIDE3IHsKcGFuIDAuNQp2b2x1bWUgMC43MDc5NDcKcGhhc2VyZXZlcnNlIDAKc29sbyAwCm11dGUgMApyb3V0
        ZSAwCn0KYnVzcyAxOCB7CnBhbiAwLjEzODg4OQp2b2x1bWUgMC42MzA5NTgKcGhhc2VyZXZlcnNlIDAKc29sbyAwCm11dGUgMApyb3V0ZSAwCn0KYnVzcyAxOSB7CnBh
        biAwLjEzODg4OQp2b2x1bWUgMC42MzA5NTgKcGhhc2VyZXZlcnNlIDAKc29sbyAwCm11dGUgMApyb3V0ZSAwCn0KYnVzcyAyMCB7CnBhbiAwLjgzMzMzMwp2b2x1bWUg
        MC42MzA5NTgKcGhhc2VyZXZlcnNlIDAKc29sbyAwCm11dGUgMApyb3V0ZSAwCn0KYnVzcyAyMSB7CnBhbiAwLjgzMzMzMwp2b2x1bWUgMC42MzA5NTgKcGhhc2VyZXZl
        cnNlIDAKc29sbyAwCm11dGUgMApyb3V0ZSAwCn0KYnVzcyAyMiB7CnBhbiAwCnZvbHVtZSAwLjI3OTM1MwpwaGFzZXJldmVyc2UgMApzb2xvIDAKbXV0ZSAwCnJvdXRl
        IDAKfQpidXNzIDIzIHsKcGFuIDEKdm9sdW1lIDAuMjc5MzUzCnBoYXNlcmV2ZXJzZSAwCnNvbG8gMAptdXRlIDAKcm91dGUgMAp9Cn0KRVoxc3R1ZmZFTkQgewp9CnNh
        bXBsZXIgewptYXN0ZXJ2b2wgMQpyZXZlcnNlIDAKcHJlc2V0ICJCYXNpYyIKa25vYiAwIDAuNDg1MTQ5Cmtub2IgMSAwLjUwNDk1MQprbm9iIDIgMC41Cmtub2IgMyAw
        LjUKa25vYiA0IDEKa25vYiA1IDEKZHJ1bXByb3BzIHsKIlhQZXJjLTAiIHggIkVaWFBfRVpkcnVtbWVyMl9QZXJjdXNzaW9uIiAiT25lc2hvdCIgIkNsYXBzMiIKIlhQ
        ZXJjLTEiIHggIkVaWFBfRVpkcnVtbWVyMl9QZXJjdXNzaW9uIiAiU2hha2VyIiAiU2hha2VyMSIKIlhQZXJjLTIiIHggIkVaWFBfRVpkcnVtbWVyMl9QZXJjdXNzaW9u
        IiAiVGFtYm91cmluZSIgIlRhbWIxIgp9Cn0KZWRydW0gbm9uZSBub25lCm1pZGlsZWFybiB7Cn0KRWRpdG9yIHsgClNvbmdUcmFjayB7ClZpc2libGVBcmVhIDEwMS43
        MTggMTY2LjcxOApUcmFja05hbWUgIiIKQ2xlYXJUcmFja0ZpcnN0ClRpbWVTaWcgNCA0CkdyaWRSZXMgMzIKTG9vcEFyZWEgMCAwCkxvb3BBY3RpdmUgMAp9ClZpc2li
        bGVSZXN1bHRDb2x1bW5zIDE2LDI4LDAsMDsxNywyOCwwLDA7MCwxODUsMCwwOzExLDIwMCwwLDA7NCwxNTAsMCwwOzYsMTMwLDAsMDs3LDQ1LDAsMDs4LDQ1LDAsMDsz
        LDQ1LDAsMDsKVmlzaWJsZUZpbHRlckNvbHVtbnMgNDs3OzU7MTs1OzI7NjsyOwpCcm93c2VySGVpZ2h0IDE2NgpTZWxlY3RlZFRhZ3MgLDAsMCwwLDAsMCwwLDAsMCww
        LDAsMCwwLDAsMCwwLDAsMCwwLDAsMCwwLDAsMCwwLDAsMCwwLDAsMCwwLDAsMCwwLDAsMCwwLDAsMCwwLDAsMCwwLDAsMCwwLDAsMCwwLDAsMCwwLDAsMCwwLDAsMCww
        LDAsMCwwLDAsMCwwLDAsMCwwLDAsMCwwLDAsMCwwLDAsMCwwLDAsMCwwLDAsMCwwLDAsMCwwLDAsMCwwLDAsMCwwLDAsMCwwLDAsMCwwLDAsMCwwLDAsMCwwLDAsMCww
        LDAsMCwwLDAsMCwwLDAsMCwwLDAsMCwwLDAsMCwwLDAsMCwwLDAsMCwwLDAsMCwwClNlbGVjdGVkRmlsZSAKU2VsZWN0ZWRCcm93c2VyUGF0aCAiMDAwMjAwQExJQlJB
        UllfT0ZfVEhFX0VYVFJFTUUvMjAxQFNUUkFJR0hUXzQjNC8yMDAtUzAxMkBSSURFL1ZhcmlhdGlvbl8wMS5taWQiCkJyb3dzZXJJbnRlbnNpdHkgMDszMzswOzU5OwpD
        bGVhclRhcDJGaW5kCkJyb3dzZXJJc0Zhdm9yaXRlIDAKUHJldmlld0luT3JpZ2luYWxUZW1wbyAwCkNsZWFyU29uZ0NyZWF0b3IgMApWaXNpYmxlVGFiIDAKfQpTeW5j
        VG9Ib3N0IDEgMTI1Ck1pZGlPdXRFbmFibGVkIDAKTWlkaUluQ2hhbm5lbCAtMQoA
        AEtRQ1hRUzAwMzYzQQAQAAAA
      >
      PRESETNAME KQCXQS00363A
      FLOATPOS 1090 93 917 722
      FXID {1D091DB2-5BDE-4D24-A1E6-F6D8D67496E6}
      WAK 0
      BYPASS 1 0 0
      <VST "VST: RVerb Stereo (Waves)" "WaveShell-VST 9.6_x64.dll" 0 "" 1381123667
        U0ZSUu5e7f4CAAAAAQAAAAAAAAACAAAAAAAAAAIAAAABAAAAAAAAAAIAAAAAAAAAhQUAAAEAAAAAABAA
        AAAFhQAAAAMAAAABUlJGU3NldEEAAAVlWFBzdDxQcmVzZXRDaHVua1hNTFRyZWUgdmVyc2lvbj0iMiI+CiAgICA8UHJlc2V0IE5hbWU9Ik1lZGl1bSBEYXJrIFBsYXRl
        IiBHZW5lcmljVHlwZT0iUlJWQiI+CiAgICAgICAgPFByZXNldEhlYWRlcj4KICAgICAgICAgICAgPFBsdWdpbk5hbWU+UlZlcmI8L1BsdWdpbk5hbWU+CiAgICAgICAg
        ICAgIDxQbHVnaW5TdWJDb21wPlJSRlM8L1BsdWdpblN1YkNvbXA+CiAgICAgICAgICAgIDxQbHVnaW5WZXJzaW9uPjkuNi4wLjE1NTwvUGx1Z2luVmVyc2lvbj4KICAg
        ICAgICAgICAgPEFjdGl2ZVNldHVwPlNFVFVQX0E8L0FjdGl2ZVNldHVwPgogICAgICAgICAgICA8UmVhZE9ubHk+dHJ1ZTwvUmVhZE9ubHk+CiAgICAgICAgPC9QcmVz
        ZXRIZWFkZXI+CiAgICAgICAgPFByZXNldERhdGEgU2V0dXA9IlNFVFVQX0EiIFNldHVwTmFtZT0iTWVkaXVtIERhcmsgUGxhdGUiPgogICAgICAgICAgICA8UGFyYW1l
        dGVycyBUeXBlPSJSZWFsV29ybGQiPjMgMCAxLjYwMDAwMDAwMDAwMDAwMDEgMjIuNjAwMDAwMDAwMDAwMDAxIDAgMCAxMCAxLjA5NjAwMDAwMDAwMDAwMDEgMC45MDAw
        MDAwMDAwMDAwMDAwMiAwLjM5MDAwMDAwMDAwMDAwMDAxCjI1OCA0MzEyIDAuNzA5OTk5OTk5OTk5OTk5OTYgMC4xMDEwMDAwMDAwMDAwMDAwMSAxICogKiAwIDAKLTI0
        IDIwMyAyNDQwLjA5OTk5OTk5OTk5OTkgMCAxOTg4IDcgMCAyIDQwCjEgMi4wMjk5OTk5OTk5OTk5OTk4IDIuNDU1MTY2NzU2NTQ4MzkzIDUwIDQgLTQwIDIgMS41IDU1
        MDYKLTYgMSAwLjg0OTk5OTk5OTk5OTk5OTk4IDEgOSAqIDEgMSAxCjEgLTEgNSA0MCAzLjUgMCAxIDEgODAKLTMwLjE5OTk5OTk5OTk5OTk5OSAxIDAgMTg0IDAgMCAw
        ICogKgoqIDAgKiAqICogPC9QYXJhbWV0ZXJzPgogICAgICAgIDwvUHJlc2V0RGF0YT4KICAgICAgICA8UHJlc2V0RGF0YSBTZXR1cD0iU0VUVVBfQiI+CiAgICAgICAg
        ICAgIDxQYXJhbWV0ZXJzIFR5cGU9IlJlYWxXb3JsZCI+MSAyIDIuMzk5OTk5OTk5OTk5OTk5OSAxMDAgMCAwIDcgMS42MDAwMDAwMDAwMDAwMDAxIDEgMC41OTk5OTk5
        OTk5OTk5OTk5OAo0OTIgMjAwOCAwLjcwOTk5OTk5OTk5OTk5OTk2IDAuMjg3MDAwMDAwMDAwMDAwMDMgMSAqICogMCAwCi0xMC42OTk5OTk5OTk5OTk5OTkgMTU2IDU3
        MjMuMTAwMDAwMDAwMDAwNCAwIDE5ODggNyAwIDEgMTAuMDIKMSAzIDEwLjEgOTAyNy41IDAgLTIgMiAxLjUgMjg4NQotMy41IDEgMC44NDk5OTk5OTk5OTk5OTk5OCAw
        LjIyIDAgKiAxIDEgMQowIC0xIDAgMCAzLjUgMCAxIDIgODAKLTQwIDMgMCAzNDAgLTAuNSAxIDAuMjk5OTk5OTk5OTk5OTk5OTkgKiAqCiogMCAqICogKiA8L1BhcmFt
        ZXRlcnM+CiAgICAgICAgPC9QcmVzZXREYXRhPgogICAgPC9QcmVzZXQ+CjwvUHJlc2V0Q2h1bmtYTUxUcmVlPgotOCA4
        AAAQAAAA
      >
      FLOATPOS 999 642 651 381
      FXID {130D5D4C-2790-4F32-9AE1-38B397787725}
      WAK 0
      BYPASS 0 0 0
      <VST "VST3: H-Comp Stereo (Waves)" "WaveShell-VST3 9.6_x64.vst3" 0 "" 103137592{565354434C4153682D636F6D70207374}
        OMElBu5e7f4EAAAAAQAAAAAAAAACAAAAAAAAAAQAAAAAAAAACAAAAAAAAAACAAAAAQAAAAAAAAACAAAAAAAAAPwDAAABAAAAAAAQAA==
        7AMAAAEAAAAAAAPJAAAAAwAAAAFDTEFTc2V0QQAAA6lYUHN0PFByZXNldENodW5rWE1MVHJlZSB2ZXJzaW9uPSIyIj4KICAgIDxQcmVzZXQgTmFtZT0iRHJ1bXMgSGVh
        dnkiIEdlbmVyaWNUeXBlPSJIQ01QIj4KICAgICAgICA8UHJlc2V0SGVhZGVyPgogICAgICAgICAgICA8UGx1Z2luTmFtZT5ILUNvbXA8L1BsdWdpbk5hbWU+CiAgICAg
        ICAgICAgIDxQbHVnaW5TdWJDb21wPkNMQVM8L1BsdWdpblN1YkNvbXA+CiAgICAgICAgICAgIDxQbHVnaW5WZXJzaW9uPjkuNi41MC4xPC9QbHVnaW5WZXJzaW9uPgog
        ICAgICAgICAgICA8QWN0aXZlU2V0dXA+U0VUVVBfQTwvQWN0aXZlU2V0dXA+CiAgICAgICAgICAgIDxSZWFkT25seT50cnVlPC9SZWFkT25seT4KICAgICAgICA8L1By
        ZXNldEhlYWRlcj4KICAgICAgICA8UHJlc2V0RGF0YSBTZXR1cD0iU0VUVVBfQSIgU2V0dXBOYW1lPSJEcnVtcyBIZWF2eSI+CiAgICAgICAgICAgIDxQYXJhbWV0ZXJz
        IFR5cGU9IlJlYWxXb3JsZCI+LTE3LjMwMDAwMDAwMDAwMDAwMSA2LjczMDAwMDAwMDAwMDAwMDQgKiAwIDEwMCA2LjA5OTk5OTk5OTk5OTk5OTYgMS4zMTAwMDAwMDAw
        MDAwMDAxIDMzLjg5MDAwMDAwMDAwMDAwMSAxIDIKMTIwICogKiAxICogKiAqICogKgoqICogKiAqICogKiAqICogMAozICogKiAqICogKiAqICogKgoqICogKiAqICog
        KiAqIDwvUGFyYW1ldGVycz4KICAgICAgICA8L1ByZXNldERhdGE+CiAgICAgICAgPFByZXNldERhdGEgU2V0dXA9IlNFVFVQX0IiPgogICAgICAgICAgICA8UGFyYW1l
        dGVycyBUeXBlPSJSZWFsV29ybGQiPi0xOCAzICogMSAxMDAgMCA3IDEwMC4yNjAwMDAwMDAwMDAwMSA1IDIKMTIwICogKiAxICogKiAqICogKgoqICogKiAqICogKiAq
        ICogMAoyICogKiAqICogKiAqICogKgoqICogKiAqICogKiAqIDwvUGFyYW1ldGVycz4KICAgICAgICA8L1ByZXNldERhdGE+CiAgICA8L1ByZXNldD4KPC9QcmVzZXRD
        aHVua1hNTFRyZWU+CgAAAAA8QnlwYXNzIFZlcnNpb249IjEuMCIgQnlwYXNzPSIwIi8+CgAAAAAAAAAA
        AEZ1bGwgUmVzZXQAEAAAAA==
      >
      PRESETNAME "Full Reset"
      FLOATPOS 1043 95 660 516
      FXID {8BB88E83-A044-4E39-BF96-517349B0BEEF}
      WAK 0
    >
    <ITEM
      POSITION 38.4
      SNAPOFFS 0
      LENGTH 30.72
      LOOP 1
      ALLTAKES 0
      FADEIN 1 0 0 1 0 0
      FADEOUT 1 0 0 1 0 0
      MUTE 0
      SEL 0
      IGUID {B4725D75-A1F4-47C5-9AE2-D7695E24A1FE}
      IID 5
      NAME "02-EZdrummer-Recorded MIDI"
      VOLPAN 1 0 1 -1
      SOFFS 133.92 279
      PLAYRATE 1 1 0 -1 0 0.0025
      CHANMODE 0
      GUID {4E7D3DBA-CD3C-4235-ACC6-CE203F70ECB0}
      RECPASS 2
      <SOURCE MIDI
        HASDATA 1 960 QN
        POOLEDEVTS {08D1166D-107D-4456-9905-3EDE8CF3F74C}
        E 15360 99 24 4a 32
        E 0 99 29 5a 50
        E 90 89 24 40 32
        E 112 89 29 40 50
        E 38 99 24 21 -116
        E 200 89 24 40 -116
        E 40 99 29 51 16
        E 200 89 29 40 16
        E 280 99 26 7f 24
        E 0 99 29 7f 46
        E 200 89 26 40 24
        E 0 89 29 40 46
        E 280 99 29 57 -4
        E 200 89 29 40 -4
        E 280 99 29 66 19
        E 0 99 24 51 38
        E 200 89 24 40 38
        E 1 89 29 40 19
        E 279 99 29 5a 2
        E 0 99 24 3b 34
        E 198 89 24 40 34
        E 4 89 29 40 2
        E 38 99 24 1a -6
        E 198 89 24 40 -6
        E 42 99 29 6b 59
        E 0 99 26 6c 60
        E 199 89 29 40 59
        E 1 89 26 40 60
        E 280 99 29 6a 36
        E 200 89 29 40 36
        E 280 99 29 78 74
        E 0 99 24 49 88
        E 146 89 24 40 88
        E 54 89 29 40 74
        E 40 99 24 20 -5
        E 201 89 24 40 -5
        E 39 99 29 4f 40
        E 202 89 29 40 40
        E 278 99 26 7e 32
        E 0 99 29 7e 50
        E 199 89 26 40 32
        E 1 89 29 40 50
        E 280 99 29 4d 20
        E 200 89 29 40 20
        E 280 99 29 7b 14
        E 0 99 24 53 18
        E 200 89 29 40 14
        E 2 89 24 40 18
        E 278 99 24 40 -10
        E 0 99 29 72 8
        E 182 89 24 40 -10
        E 18 89 29 40 8
        E 40 99 24 20 -66
        E 200 89 24 40 -66
        E 40 99 26 7d 26
        E 0 99 29 7b 38
        E 200 89 26 40 26
        E 0 89 29 40 38
        E 280 99 29 69 11
        E 201 89 29 40 11
        E 279 99 24 51 36
        E 0 99 29 77 44
        E 200 89 24 40 36
        E 0 89 29 40 44
        E 280 99 24 35 -116
        E 0 99 24 14 8
        E 0 99 29 68 14
        E 122 89 24 40 -116
        E 76 89 24 40 8
        E 2 89 29 40 14
        E 280 99 26 78 20
        E 0 99 29 7c 38
        E 202 89 26 40 20
        E 2 89 29 40 38
        E 276 99 29 5d 49
        E 203 89 29 40 49
        E 277 99 24 4a 60
        E 0 99 29 7f 76
        E 168 89 24 40 60
        E 32 89 29 40 76
        E 40 99 24 21 -10
        E 198 89 24 40 -10
        E 42 99 29 63 26
        E 202 89 29 40 26
        E 278 99 26 7f 68
        E 0 99 29 7f 76
        E 200 89 26 40 68
        E 0 89 29 40 76
        E 280 99 29 5b 56
        E 198 89 29 40 56
        E 282 99 29 67 56
        E 0 99 24 4f 58
        E 200 89 29 40 56
        E 0 89 24 40 58
        E 280 99 24 3b -44
        E 0 99 29 62 28
        E 0 99 24 1a 75
        E 118 89 24 40 -44
        E 82 89 29 40 28
        E 3 89 24 40 75
        E 277 99 26 7f 40
        E 0 99 29 7f 58
        E 202 89 26 40 40
        E 2 89 29 40 58
        E 276 99 29 5c 50
        E 200 89 29 40 50
        E 280 99 24 4b 54
        E 0 99 29 73 60
        E 156 89 24 40 54
        E 44 89 29 40 60
        E 40 99 24 1b -30
        E 200 89 24 40 -30
        E 40 99 29 66 28
        E 202 89 29 40 28
        E 278 99 26 76 30
        E 0 99 29 7f 68
        E 200 89 26 40 30
        E 2 89 29 40 68
        E 278 99 29 75 43
        E 201 89 29 40 43
        E 279 99 24 51 70
        E 0 99 29 7f 74
        E 200 89 24 40 70
        E 0 89 29 40 74
        E 280 99 24 44 40
        E 0 99 29 6e 50
        E 184 89 24 40 40
        E 16 89 29 40 50
        E 40 99 24 1d -14
        E 200 89 24 40 -14
        E 40 99 26 76 62
        E 0 99 29 7f 84
        E 200 89 26 40 62
        E 2 89 29 40 84
        E 278 99 29 7f 74
        E 200 89 29 40 74
        E 280 99 24 4b 98
        E 0 99 29 7f 104
        E 200 89 24 40 98
        E 0 89 29 40 104
        E 280 99 24 3d 62
        E 0 99 29 6e 100
        E 184 89 24 40 62
        E 16 89 29 40 100
        E 40 99 24 24 8
        E 200 89 24 40 8
        E 40 99 29 7c 108
        E 0 99 26 5f 116
        E 200 89 29 40 108
        E 0 89 26 40 116
        E 280 99 29 74 118
        E 200 89 29 40 118
        E 520 99 29 7f -106
        E 0 99 24 4c -86
        E 0 99 24 1c 66
        E 150 89 24 40 -86
        E 47 89 24 40 66
        E 5 89 29 40 -106
        E 38 99 29 66 80
        E 200 89 29 40 80
        E 280 99 29 7f 94
        E 0 99 26 7c 99
        E 200 89 29 40 94
        E 1 89 26 40 99
        E 279 99 29 67 62
        E 200 89 29 40 62
        E 280 99 29 7f 36
        E 0 99 24 4c 86
        E 200 89 29 40 36
        E 0 89 24 40 86
        E 280 99 29 7a 56
        E 0 99 24 3d 60
        E 176 89 24 40 60
        E 26 89 29 40 56
        E 38 99 24 1e -2
        E 200 89 24 40 -2
        E 40 99 26 7b 92
        E 0 99 29 7f 96
        E 200 89 29 40 96
        E 2 89 26 40 92
        E 278 99 29 65 102
        E 198 89 29 40 102
        E 282 99 24 49 94
        E 0 99 29 77 104
        E 200 89 24 40 94
        E 0 89 29 40 104
        E 280 99 24 3b 62
        E 0 99 29 6d 110
        E 200 89 24 40 62
        E 2 89 29 40 110
        E 278 99 24 0d -80
        E 0 99 26 69 106
        E 200 89 24 40 -80
        E 0 89 26 40 106
        E 40 99 29 7f -112
        E 200 89 29 40 -112
        E 40 99 29 7f 98
        E 200 89 29 40 98
        E 280 99 24 48 102
        E 0 99 29 7b 108
        E 200 89 24 40 102
        E 0 89 29 40 108
        E 280 99 24 39 36
        E 0 99 29 74 102
        E 156 89 24 40 36
        E 44 89 29 40 102
        E 40 99 24 18 -48
        E 202 89 24 40 -48
        E 38 99 26 7d 100
        E 200 89 26 40 100
        E 40 99 29 7f -114
        E 201 89 29 40 -114
        E 39 99 29 70 88
        E 200 89 29 40 88
        E 40 99 26 36 -46
        E 200 89 26 40 -46
        E 40 99 24 51 20
        E 0 99 29 71 44
        E 141 89 24 40 20
        E 59 89 29 40 44
        E 40 99 24 1d -76
        E 198 89 24 40 -76
        E 42 99 29 78 60
        E 200 89 29 40 60
        E 280 99 26 7f 79
        E 0 99 29 7f 102
        E 201 89 26 40 79
        E 0 89 29 40 102
        E 279 99 29 53 84
        E 200 89 29 40 84
        E 280 99 24 4d 52
        E 0 99 29 7f 60
        E 166 89 24 40 52
        E 38 89 29 40 60
        E 36 99 24 18 -20
        E 200 89 24 40 -20
        E 40 99 24 1c -8
        E 0 99 29 71 66
        E 199 89 24 40 -8
        E 1 89 29 40 66
        E 280 99 26 7f 38
        E 0 99 29 7f 74
        E 200 89 26 40 38
        E 0 89 29 40 74
        E 280 99 29 7f 58
        E 202 89 29 40 58
        E 38 99 30 7f 18
        E 112 89 30 40 18
        E 128 99 30 1f -108
        E 0 99 2d 7f 20
        E 0 99 24 53 22
        E 200 89 2d 40 20
        E 2 89 30 40 -108
        E 0 89 24 40 22
        E 278 99 29 7f 14
        E 200 89 29 40 14
        E 280 99 26 7f -29
        E 0 99 29 7f 12
        E 201 89 26 40 -29
        E 0 89 29 40 12
        E 279 99 29 59 22
        E 202 89 29 40 22
        E 278 99 24 4d
        E 0 99 29 7f 6
        E 200 89 24 40
        E 0 89 29 40 6
        E 280 99 24 3a
        E 0 99 29 7f 12
        E 154 89 24 40
        E 46 89 29 40 12
        E 40 99 24 13 -84
        E 200 89 24 40 -84
        E 40 99 26 7f 21
        E 0 99 29 7f 29
        E 201 89 26 40 21
        E 0 89 29 40 29
        E 279 99 29 78 24
        E 202 89 29 40 24
        E 278 99 24 4d 28
        E 0 99 29 7f 36
        E 199 89 29 40 36
        E 1 89 24 40 28
        E 280 99 24 3b -4
        E 0 99 29 7f 40
        E 199 89 29 40 40
        E 3 89 24 40 -4
        E 38 99 24 1e -26
        E 200 89 24 40 -26
        E 40 99 26 7f 49
        E 0 99 29 7f 66
        E 201 89 26 40 49
        E 1 89 29 40 66
        E 278 99 29 70 64
        E 200 89 29 40 64
        E 280 99 24 47 32
        E 0 99 29 7f 35
        E 199 89 24 40 32
        E 6 89 29 40 35
        E 275 99 24 3b -32
        E 0 99 29 6a 68
        E 199 89 24 40 -32
        E 1 89 29 40 68
        E 40 99 24 17 -59
        E 201 89 24 40 -59
        E 39 99 26 7f 60
        E 0 99 29 7f 68
        E 200 89 26 40 60
        E 0 89 29 40 68
        E 280 99 29 7f 19
        E 201 89 29 40 19
        E 39 99 30 7f 16
        E 0 99 24 4e 108
        E 90 89 24 40 108
        E 110 89 30 40 16
        E 40 99 24 27 -40
        E 0 99 2d 7f
        E 198 89 24 40 -40
        E 2 89 2d 40
        E 280 99 29 7f 5
        E 201 89 29 40 5
        E 279 99 26 7f 10
        E 0 99 29 7f 32
        E 199 89 26 40 10
        E 0 89 29 40 32
        E 281 99 29 7f 16
        E 200 89 29 40 16
        E 280 99 29 7f 41
        E 0 99 24 4e 52
        E 201 89 29 40 41
        E 1 89 24 40 52
        E 278 99 24 3d 14
        E 0 99 29 7f 30
        E 180 89 24 40 14
        E 20 89 29 40 30
        E 40 99 24 19 -45
        E 203 89 24 40 -45
        E 37 99 26 7f 4
        E 0 99 29 7f 22
        E 202 89 26 40 4
        E 0 89 29 40 22
        E 278 99 29 7f 26
        E 202 89 29 40 26
        E 278 99 29 7f 45
        E 0 99 24 50 53
        E 200 89 24 40 53
        E 1 89 29 40 45
        E 279 99 24 33 -29
        E 0 99 29 7f 49
        E 201 89 24 40 -29
        E 0 89 29 40 49
        E 279 99 29 7f 69
        E 0 99 26 7f 73
        E 201 89 26 40 73
        E 1 89 29 40 69
        E 278 99 29 78 68
        E 202 89 29 40 68
        E 278 99 29 7f 68
        E 0 99 24 50 72
        E 200 89 29 40 68
        E 0 89 24 40 72
        E 280 99 24 3d 58
        E 0 99 29 7f 63
        E 144 89 24 40 58
        E 57 89 29 40 63
        E 39 99 24 1a -36
        E 200 89 24 40 -36
        E 40 99 26 7f 74
        E 0 99 29 7f 82
        E 199 89 26 40 74
        E 3 89 29 40 82
        E 278 99 29 7f 39
        E 201 89 29 40 39
        E 39 99 30 7f 16
        E 200 89 30 40 16
        E 40 99 24 53 -66
        E 0 99 24 26 13
        E 0 99 2d 7f 25
        E 77 89 24 40 -66
        E 121 89 24 40 13
        E 3 89 2d 40 25
        E 279 99 2d 5a -86
        E 199 89 2d 40 -86
        E 281 99 29 7f -6
        E 0 99 26 7f -4
        E 200 89 29 40 -6
        E 0 89 26 40 -4
        E 280 99 29 7d -8
        E 199 89 29 40 -8
        E 281 99 24 53 11
        E 0 99 29 7f 28
        E 0 99 24 24 112
        E 99 89 24 40 11
        E 100 89 24 40 112
        E 1 89 29 40 28
        E 280 99 29 7f 23
        E 0 99 24 47 54
        E 134 89 24 40 54
        E 66 89 29 40 23
        E 40 99 24 1e -50
        E 200 89 24 40 -50
        E 40 99 26 7f 38
        E 0 99 29 7f 62
        E 200 89 29 40 62
        E 1 89 26 40 38
        E 279 99 29 7f 47
        E 201 89 29 40 47
        E 279 99 29 7f 66
        E 0 99 24 4b 76
        E 199 89 24 40 76
        E 1 89 29 40 66
        E 280 99 29 7f 52
        E 0 99 24 3a 70
        E 139 89 24 40 70
        E 61 89 29 40 52
        E 40 99 24 1b -28
        E 198 89 24 40 -28
        E 42 99 26 7b 68
        E 0 99 29 7f 84
        E 199 89 26 40 68
        E 1 89 29 40 84
        E 280 99 29 7f 90
        E 202 89 29 40 90
        E 278 99 24 50 42
        E 0 99 29 7f 62
        E 199 89 29 40 62
        E 1 89 24 40 42
        E 280 99 24 39 19
        E 0 99 29 7f 58
        E 171 89 24 40 19
        E 28 89 29 40 58
        E 41 99 24 1a -48
        E 200 89 24 40 -48
        E 40 99 26 7f 87
        E 0 99 29 7f 91
        E 201 89 26 40 87
        E 0 89 29 40 91
        E 279 99 29 7f 42
        E 200 89 29 40 42
        E 40 99 30 7f 9
        E 201 89 30 40 9
        E 39 99 24 52 -86
        E 0 99 24 24 -2
        E 0 99 2d 7f 14
        E 82 89 24 40 -86
        E 118 89 24 40 -2
        E 2 89 2d 40 14
        E 38 99 24 43 59
        E 201 89 24 40 59
        E 39 99 2d 7f -24
        E 200 89 2d 40 -24
        E 280 99 29 7f 3
        E 0 99 26 7b 7
        E 200 89 29 40 3
        E 1 89 26 40 7
        E 279 99 29 7c -10
        E 200 89 29 40 -10
        E 280 99 24 4c 20
        E 0 99 29 7f 30
        E 199 89 29 40 30
        E 1 89 24 40 20
        E 280 99 24 3e 22
        E 0 99 29 7f 46
        E 130 89 24 40 22
        E 70 89 29 40 46
        E 40 99 24 1c -86
        E 200 89 24 40 -86
        E 40 99 26 7f 21
        E 0 99 29 7f 52
        E 201 89 26 40 21
        E 1 89 29 40 52
        E 278 99 29 7f 28
        E 202 89 29 40 28
        E 278 99 29 7f 68
        E 0 99 24 4d 70
        E 116 89 24 40 70
        E 84 89 29 40 68
        E 40 99 24 1f -52
        E 199 89 24 40 -52
        E 41 99 29 72 56
        E 201 89 29 40 56
        E 225 b9 04 12
        E 54 99 26 64 58
        E 0 99 29 7f 78
        E 12 b9 04 22
        E 60 b9 04 32
        E 128 89 29 40 78
        E 2 89 26 40 58
        E 87 b9 04 22
        E 84 b9 04 12
        E 107 99 29 7f 48
        E 38 b9 04 09
        E 162 89 29 40 48
        E 23 b9 04 0f
        E 257 99 24 50 -25
        E 0 99 29 7f 46
        E 39 b9 04 03
        E 32 b9 04 00
        E 129 89 24 40 -25
        E 0 89 29 40 46
        E 280 99 29 68 59
        E 201 89 29 40 59
        E 279 99 26 7f 63
        E 0 99 29 7f 86
        E 200 89 29 40 86
        E 3 89 26 40 63
        E 277 99 29 7f 42
        E 201 89 29 40 42
        E 39 99 30 7f -11
        E 0 99 24 52 92
        E 79 89 24 40 92
        E 124 89 30 40 -11
        E 37 99 24 27 -67
        E 0 99 2d 7f
        E 192 b9 04 0f
        E 6 89 24 40 -67
        E 2 89 2d 40
        E 40 99 30 72 -34
        E 0 99 30 35 32
        E 62 89 30 40 -34
        E 137 89 30 40 32
        E 9 b9 04 00
        E 32 99 2d 7f -77
        E 0 99 24 54 111
        E 109 89 24 40 111
        E 91 89 2d 40 -77
        E 40 99 24 20 -18
        E 197 89 24 40 -18
        E 43 99 26 7f 6
        E 0 99 29 7f 14
        E 199 89 26 40 6
        E 0 89 29 40 14
        E 281 99 29 7d -9
        E 203 89 29 40 -9
        E 277 99 24 5c -21
        E 0 99 29 7f 3
        E 200 89 24 40 -21
        E 1 89 29 40 3
        E 279 99 24 43 10
        E 0 99 29 7f 12
        E 171 89 24 40 10
        E 26 89 29 40 12
        E 43 99 24 1d -54
        E 198 89 24 40 -54
        E 42 99 26 7f 3
        E 0 99 29 7f 26
        E 200 89 29 40 26
        E 1 89 26 40 3
        E 279 99 29 6e 27
        E 200 89 29 40 27
        E 280 99 24 4d 43
        E 0 99 29 7f 56
        E 201 89 24 40 43
        E 1 89 29 40 56
        E 278 99 24 40 -50
        E 0 99 29 7f 22
        E 0 99 24 1e 71
        E 119 89 24 40 -50
        E 80 89 29 40 22
        E 1 89 24 40 71
        E 280 99 26 6c 56
        E 0 99 29 7f 67
        E 199 89 26 40 56
        E 3 89 29 40 67
        E 278 99 29 7f 61
        E 201 89 29 40 61
        E 279 99 24 52 26
        E 0 99 29 7f 48
        E 199 89 29 40 48
        E 1 89 24 40 26
        E 280 99 24 43 -11
        E 0 99 29 7f 24
        E 170 89 24 40 -11
        E 31 89 29 40 24
        E 39 99 24 17 -79
        E 201 89 24 40 -79
        E 39 99 26 7f 10
        E 0 99 29 7f 38
        E 201 89 26 40 10
        E 0 89 29 40 38
        E 279 99 29 7f 35
        E 203 89 29 40 35
        E 37 99 30 7b -15
        E 0 99 24 53 91
        E 0 99 30 1f 99
        E 76 89 24 40 91
        E 36 89 30 40 -15
        E 87 89 30 40 99
        E 41 99 24 25 -70
        E 0 99 2d 7f 7
        E 199 89 24 40 -70
        E 1 89 2d 40 7
        E 280 99 29 7f 26
        E 0 99 24 4a 90
        E 93 89 24 40 90
        E 108 89 29 40 26
        E 39 99 24 1d -54
        E 197 89 24 40 -54
        E 43 99 24 30 -6
        E 0 99 29 7f 37
        E 0 99 26 7f 50
        E 199 89 26 40 50
        E 2 89 24 40 -6
        E 0 89 29 40 37
        E 279 99 29 7f 17
        E 200 89 29 40 17
        E 280 99 24 51 -31
        E 0 99 29 7f 17
        E 200 89 29 40 17
        E 1 89 24 40 -31
        E 279 99 24 3d 16
        E 0 99 29 7f 33
        E 145 89 24 40 16
        E 56 89 29 40 33
        E 39 99 24 1b -78
        E 200 89 24 40 -78
        E 40 99 26 7f 8
        E 0 99 29 7f 31
        E 199 89 26 40 8
        E 1 89 29 40 31
        E 280 99 29 7f 10
        E 200 89 29 40 10
        E 40 99 30 7f -27
        E 0 99 24 54 32
        E 87 89 24 40 32
        E 113 89 30 40 -27
        E 40 99 24 24 -118
        E 0 99 2d 7f 7
        E 197 89 24 40 -118
        E 6 89 2d 40 7
        E 37 99 24 47 -41
        E 0 99 24 1f 43
        E 83 89 24 40 -41
        E 117 89 24 40 43
        E 40 99 2d 60 -69
        E 200 89 2d 40 -69
        E 280 99 26 7f -9
        E 0 99 29 7f 26
        E 199 89 29 40 26
        E 1 89 26 40 -9
        E 280 99 29 7f 5
        E 200 89 29 40 5
        E 280 99 24 5a 8
        E 0 99 29 7f 32
        E 199 89 24 40 8
        E 0 89 29 40 32
        E 281 99 24 46 15
        E 0 99 29 7f 41
        E 148 89 24 40 15
        E 52 89 29 40 41
        E 40 99 24 1e -75
        E 198 89 24 40 -75
        E 42 99 26 7f -7
        E 0 99 29 7f 48
        E 200 89 29 40 48
        E 2 89 26 40 -7
        E 278 99 29 7f 43
        E 0 99 24 3b 101
        E 200 89 29 40 43
        E 0 89 24 40 101
        E 40 99 30 7f 87
        E 89 89 30 40 87
        E 151 99 30 2b -61
        E 0 99 24 5e 27
        E 0 99 2d 7f 79
        E 200 89 30 40 -61
        E 0 89 24 40 27
        E 0 89 2d 40 79
        E 206 b9 04 00
        E 28 b9 04 00
        E 46 99 1a 1a -73
        E 0 99 1a 42 -42
        E 0 99 30 7a -39
        E 0 99 2d 7f 21
        E 28 89 1a 40 -73
        E 169 89 1a 40 -42
        E 4 89 2d 40 21
        E 1 89 30 40 -39
        E 38 99 24 4d -107
        E 0 99 24 23 -27
        E 78 89 24 40 -107
        E 120 89 24 40 -27
        E 42 99 26 6f 42
        E 0 99 29 7f 45
        E 200 89 26 40 42
        E 2 89 29 40 45
        E 278 99 29 7f 55
        E 200 89 29 40 55
        E 280 99 29 7f 59
        E 0 99 24 56 99
        E 200 89 29 40 59
        E 0 89 24 40 99
        E 280 99 24 3a 35
        E 0 99 29 7f 46
        E 168 89 24 40 35
        E 33 89 29 40 46
        E 39 99 24 19 -37
        E 200 89 24 40 -37
        E 40 99 26 7f 15
        E 0 99 29 7f 63
        E 203 89 26 40 15
        E 0 89 29 40 63
        E 277 99 29 7f 65
        E 200 89 29 40 65
        E 40 99 26 4a -1
        E 200 89 26 40 -1
        E 40 99 24 56 -22
        E 0 99 29 7f 59
        E 199 89 24 40 -22
        E 2 89 29 40 59
        E 279 99 24 37 -69
        E 0 99 29 7f 65
        E 198 89 24 40 -69
        E 3 89 29 40 65
        E 39 99 24 16 -109
        E 201 89 24 40 -109
        E 39 99 26 7c 63
        E 0 99 29 7f 85
        E 200 89 26 40 63
        E 0 89 29 40 85
        E 280 99 29 7f 83
        E 200 89 29 40 83
        E 280 99 24 4d 91
        E 0 99 29 7f 107
        E 200 89 24 40 91
        E 0 89 29 40 107
        E 280 99 24 3c 31
        E 0 99 29 7f 105
        E 122 89 24 40 31
        E 78 89 29 40 105
        E 40 99 24 1c -87
        E 200 89 24 40 -87
        E 40 99 26 7f 107
        E 200 89 26 40 107
        E 40 99 29 7f -102
        E 199 89 29 40 -102
        E 281 99 29 7f -118
        E 0 99 30 7f 71
        E 199 89 29 40 -118
        E 3 89 30 40 71
        E 38 99 24 6c -5
        E 0 99 2d 7f 117
        E 200 89 24 40 -5
        E 0 89 2d 40 117
        E 280 99 24 43 -105
        E 0 99 2d 7f 81
        E 200 89 24 40 -105
        E 1 89 2d 40 81
        E 279 99 26 7f 54
        E 0 99 29 7f 95
        E 89 89 26 40 54
        E 114 89 29 40 95
        E 37 99 26 35 -95
        E 198 89 26 40 -95
        E 42 99 29 7f 91
        E 203 89 29 40 91
        E 277 99 29 7f 91
        E 0 99 24 4e 113
        E 200 89 29 40 91
        E 1 89 24 40 113
        E 279 99 29 7f 91
        E 0 99 24 3e 95
        E 158 89 24 40 95
        E 44 89 29 40 91
        E 38 99 24 1f 15
        E 198 89 24 40 15
        E 42 99 26 7f 67
        E 0 99 29 7f 95
        E 200 89 26 40 67
        E 1 89 29 40 95
        E 279 99 29 7f 91
        E 200 89 29 40 91
        E 280 99 24 50 71
        E 0 99 29 7f 89
        E 202 89 24 40 71
        E 0 89 29 40 89
        E 278 99 24 3e 10
        E 0 99 29 7f 101
        E 199 89 24 40 10
        E 1 89 29 40 101
        E 40 99 24 20 -6
        E 201 89 24 40 -6
        E 39 99 26 7e 110
        E 201 89 26 40 110
        E 39 99 29 7f -113
        E 200 89 29 40 -113
        E 280 99 29 7f -93
        E 200 89 29 40 -93
        E 40 99 24 4a 59
        E 0 99 29 7f 91
        E 200 89 24 40 59
        E 1 89 29 40 91
        E 39 99 24 31 113
        E 140 89 24 40 113
        E 100 99 24 0a 17
        E 0 99 29 7f 91
        E 198 89 24 40 17
        E 2 89 29 40 91
        E 280 99 26 7f 67
        E 0 99 29 7f 106
        E 199 89 29 40 106
        E 3 89 26 40 67
        E 278 99 29 7f 61
        E 200 89 29 40 61
        E 40 99 30 7f 32
        E 111 89 30 40 32
        E 129 99 30 25 -95
        E 0 99 24 58 -22
        E 0 99 2d 7f 65
        E 200 89 2d 40 65
        E 1 89 30 40 -95
        E 2 89 24 40 -22
        E 2 b9 04 03
        E 35 99 1a 27 -33
        E 0 99 30 6d 17
        E 0 99 30 28 102
        E 85 89 30 40 17
        E 48 b9 04 06
        E 66 89 30 40 102
        E 1 89 1a 40 -33
        E 40 99 2d 7f 20
        E 0 99 24 49 55
        E 17 b9 04 00
        E 71 89 24 40 55
        E 113 89 2d 40 20
        E 39 99 24 22 -97
        E 202 89 24 40 -97
        E 38 99 26 73 19
        E 0 99 29 7f 47
        E 200 89 26 40 19
        E 4 89 29 40 47
        E 276 99 29 7f 31
        E 200 89 29 40 31
        E 280 99 29 7f 31
        E 0 99 24 53 41
        E 200 89 29 40 31
        E 0 89 24 40 41
        E 280 99 24 3d 58
        E 0 99 29 7f 58
        E 149 89 24 40 58
        E 51 89 29 40 58
        E 40 99 24 1c -31
        E 200 89 24 40 -31
        E 40 99 26 78 45
        E 0 99 29 7f 63
        E 200 89 26 40 45
        E 0 89 29 40 63
        E 280 99 29 7f 47
        E 200 89 29 40 47
        E 40 99 2d 7f -23
        E 203 89 2d 40 -23
        E 37 99 24 5d 11
        E 0 99 2d 7f 15
        E 200 89 24 40 11
        E 2 89 2d 40 15
        E 278 99 2d 7f 23
        E 0 99 24 48 77
        E 184 89 24 40 77
        E 16 89 2d 40 23
        E 40 99 24 28 23
        E 200 89 24 40 23
        E 40 99 2d 7f -73
        E 0 99 26 65 103
        E 62 89 26 40 103
        E 138 89 2d 40 -73
        E 40 99 26 4b -70
        E 199 89 26 40 -70
        E 41 99 29 7f -83
        E 201 89 29 40 -83
        E 39 99 26 6e 100
        E 201 89 26 40 100
        E 39 99 29 7f 49
        E 200 89 29 40 49
        E 280 99 29 7f 99
        E 201 89 29 40 99
        E 39 99 24 37 -79
        E 203 89 24 40 -79
        E 37 99 24 47 55
        E 200 89 24 40 55
        E 40 99 26 6b -98
        E 0 99 29 7f -75
        E 199 89 26 40 -98
        E 1 89 29 40 -75
        E 280 99 29 7f -86
        E 199 89 29 40 -86
        E 281 99 24 4f -107
        E 0 99 29 7f -85
        E 200 89 24 40 -107
        E 0 89 29 40 -85
        E 40 99 24 30 91
        E 200 89 24 40 91
        E 40 99 29 75 -61
        E 200 89 29 40 -61
        E 280 99 24 3f -102
        E 0 99 29 7f -82
        E 201 89 24 40 -102
        E 0 89 29 40 -82
        E 279 99 29 4f -9
        E 200 89 29 40 -9
        E 4840 99 29 7f -6
        E 0 99 24 50 21
        E 201 89 29 40 -6
        E 1 89 24 40 21
        E 278 99 29 7f -55
        E 0 99 24 3a -47
        E 200 89 24 40 -47
        E 2 89 29 40 -55
        E 38 99 24 1e -79
        E 200 89 24 40 -79
        E 40 99 26 7f -59
        E 0 99 29 7f -21
        E 200 89 26 40 -59
        E 0 89 29 40 -21
        E 280 99 29 7f -73
        E 0 99 30 41 81
        E 200 89 29 40 -73
        E 0 89 30 40 81
        E 40 99 24 57 74
        E 199 89 24 40 74
        E 41 99 2d 7f -85
        E 202 89 2d 40 -85
        E 278 99 29 42 -119
        E 0 99 2d 18 -105
        E 200 89 29 40 -119
        E 2 89 2d 40 -105
        E 278 99 26 7f -89
        E 0 99 29 7f -69
        E 200 89 26 40 -89
        E 0 89 29 40 -69
        E 280 99 29 7f -79
        E 201 89 29 40 -79
        E 279 99 24 53 -77
        E 0 99 29 7f -49
        E 200 89 24 40 -77
        E 2 89 29 40 -49
        E 278 99 24 3b -101
        E 0 99 29 7f -55
        E 0 99 24 23 17
        E 116 89 24 40 -101
        E 84 89 29 40 -55
        E 0 89 24 40 17
        E 280 99 26 7f -69
        E 0 99 29 7f -30
        E 199 89 29 40 -30
        E 1 89 26 40 -69
        E 280 99 29 7f -37
        E 200 89 29 40 -37
        E 280 99 24 58 -83
        E 0 99 29 7f -35
        E 200 89 29 40 -35
        E 2 89 24 40 -83
        E 278 99 24 3d -103
        E 0 99 29 7f -17
        E 0 99 24 1f 15
        E 114 89 24 40 -103
        E 84 89 24 40 15
        E 2 89 29 40 -17
        E 280 99 29 7f -11
        E 200 89 29 40 -11
        E 280 99 29 7f 23
        E 200 89 29 40 23
        E 280 99 24 4c 35
        E 0 99 29 7f 69
        E 200 89 24 40 35
        E 0 89 29 40 69
        E 280 99 24 3d 17
        E 0 99 29 7f 83
        E 170 89 24 40 17
        E 32 89 29 40 83
        E 38 99 24 1d -51
        E 198 89 24 40 -51
        E 42 99 26 6c 89
        E 0 99 29 7f 105
        E 78 89 26 40 89
        E 122 89 29 40 105
        E 40 99 26 3d -73
        E 200 89 26 40 -73
        E 40 99 29 7f 47
        E 202 89 29 40 47
        E 38 99 30 7f -5
        E 200 89 30 40 -5
        E 40 99 24 5f -55
        E 0 99 2d 7f 39
        E 200 89 24 40 -55
        E 0 89 2d 40 39
        E 280 99 29 3d 1
        E 0 99 2d 1b 15
        E 202 89 29 40 1
        E 0 89 2d 40 15
        E 278 99 26 7f 29
        E 0 99 29 7f 53
        E 202 89 26 40 29
        E 0 89 29 40 53
        E 278 99 29 7f 41
        E 200 89 29 40 41
        E 280 99 24 56 39
        E 0 99 29 7f 53
        E 200 89 24 40 39
        E 0 89 29 40 53
        E 280 99 24 3d 49
        E 0 99 29 7f 93
        E 146 89 24 40 49
        E 54 89 29 40 93
        E 40 99 24 1f -43
        E 200 89 24 40 -43
        E 40 99 26 7f 39
        E 0 99 29 7f 85
        E 200 89 29 40 85
        E 2 89 26 40 39
        E 278 99 29 7f 71
        E 200 89 29 40 71
        E 280 99 24 4d 75
        E 0 99 29 7f 85
        E 200 89 24 40 75
        E 2 89 29 40 85
        E 278 99 29 7f 85
        E 0 99 24 3a 87
        E 190 89 24 40 87
        E 12 89 29 40 85
        E 38 99 24 19 41
        E 198 89 24 40 41
        E 42 99 26 7f 69
        E 0 99 29 7f 111
        E 200 89 29 40 111
        E 2 89 26 40 69
        E 278 99 29 7f 117
        E 200 89 29 40 117
        E 280 99 24 51 59
        E 0 99 29 7f 101
        E 200 89 29 40 101
        E 2 89 24 40 59
        E 278 99 24 37 22
        E 0 99 29 7f 74
        E 149 89 24 40 22
        E 50 89 29 40 74
        E 41 99 24 18 -67
        E 200 89 24 40 -67
        E 40 99 26 7b 65
        E 0 99 29 7f 103
        E 200 89 26 40 65
        E 0 89 29 40 103
        E 280 99 29 7f 59
        E 201 89 29 40 59
        E 39 99 30 7f -3
        E 200 89 30 40 -3
        E 40 99 24 62 -59
        E 0 99 2d 7f 47
        E 200 89 24 40 -59
        E 0 89 2d 40 47
        E 280 99 29 7f 65
        E 200 89 29 40 65
        E 40 99 26 7f -95
        E 202 89 26 40 -95
        E 38 99 29 7f 61
        E 200 89 29 40 61
        E 280 99 29 7f 73
        E 200 89 29 40 73
        E 280 99 24 5a 77
        E 0 99 29 7f 81
        E 200 89 24 40 77
        E 0 89 29 40 81
        E 280 99 24 45 55
        E 0 99 29 7f 89
        E 114 89 24 40 55
        E 88 89 29 40 89
        E 38 99 24 22 -69
        E 198 89 24 40 -69
        E 42 99 26 7f 19
        E 0 99 29 7f 66
        E 200 89 26 40 19
        E 1 89 29 40 66
        E 279 99 29 7f 61
        E 200 89 29 40 61
        E 280 99 24 52 23
        E 0 99 29 7f 67
        E 200 89 29 40 67
        E 2 89 24 40 23
        E 278 99 24 3d 33
        E 0 99 29 7f 63
        E 144 89 24 40 33
        E 56 89 29 40 63
        E 40 99 24 1f -61
        E 200 89 24 40 -61
        E 40 99 26 7c 53
        E 0 99 29 7f 107
        E 200 89 26 40 53
        E 0 89 29 40 107
        E 280 99 29 7f 91
        E 200 89 29 40 91
        E 280 99 24 56 87
        E 200 89 24 40 87
        E 40 99 29 7f -115
        E 200 89 29 40 -115
        E 40 99 24 3c 47
        E 0 99 29 7f 103
        E 144 89 24 40 47
        E 55 89 29 40 103
        E 41 99 24 19 -47
        E 200 89 24 40 -47
        E 40 99 26 7f 63
        E 0 99 29 7f 105
        E 200 89 26 40 63
        E 0 89 29 40 105
        E 280 99 29 7f 69
        E 181 b9 04 00
        E 19 89 29 40 69
        E 40 99 1a 34 -57
        E 0 99 30 77 -27
        E 200 89 1a 40 -57
        E 0 89 30 40 -27
        E 40 99 24 70 -45
        E 0 99 2d 7f 85
        E 200 89 24 40 -45
        E 0 89 2d 40 85
        E 40 99 24 49 113
        E 200 89 24 40 113
        E 40 99 2d 7f -3
        E 200 89 2d 40 -3
        E 280 99 26 7f 7
        E 0 99 29 7f 37
        E 200 89 26 40 7
        E 0 89 29 40 37
        E 280 99 29 7f 31
        E 200 89 29 40 31
        E 280 99 24 55 -33
        E 0 99 29 7f 31
        E 200 89 29 40 31
        E 2 89 24 40 -33
        E 278 99 24 40 -69
        E 0 99 29 7f 29
        E 200 89 29 40 29
        E 2 89 24 40 -69
        E 278 99 26 7c 9
        E 0 99 29 7f 49
        E 200 89 26 40 9
        E 1 89 29 40 49
        E 279 99 29 7f 59
        E 202 89 29 40 59
        E 278 99 24 53 57
        E 0 99 29 7f 79
        E 200 89 24 40 57
        E 0 89 29 40 79
        E 280 99 24 40 -11
        E 0 99 29 7f 61
        E 0 99 24 22 97
        E 108 89 24 40 -11
        E 92 89 29 40 61
        E 1 89 24 40 97
        E 279 99 26 75 17
        E 0 99 29 7f 75
        E 200 89 26 40 17
        E 4 89 29 40 75
        E 276 99 29 78 87
        E 200 89 29 40 87
        E 280 99 24 54 51
        E 0 99 29 7f 97
        E 104 89 24 40 51
        E 96 89 29 40 97
        E 40 99 24 21 -83
        E 198 89 24 40 -83
        E 42 99 29 7f 87
        E 200 89 29 40 87
        E 40 99 24 43 -109
        E 0 99 24 23 61
        E 168 89 24 40 -109
        E 32 89 24 40 61
        E 40 99 26 7f 83
        E 0 99 29 7f 111
        E 199 89 29 40 111
        E 5 89 26 40 83
        E 276 99 29 7f 71
        E 202 89 29 40 71
        E 38 99 30 7f -7
        E 200 89 30 40 -7
        E 40 99 24 67 -19
        E 0 99 2d 7f 89
        E 200 89 24 40 -19
        E 0 89 2d 40 89
        E 280 99 24 3c -81
        E 0 99 24 1e
        E 0 99 2d 7f 79
        E 80 89 24 40 -81
        E 120 89 2d 40 79
        E 1 89 24 40
        E 279 99 26 7f 43
        E 0 99 29 7f 77
        E 200 89 29 40 77
        E 2 89 26 40 43
        E 278 99 29 7f 61
        E 200 89 29 40 61
        E 280 99 29 7f 67
        E 0 99 24 55 95
        E 200 89 29 40 67
        E 0 89 24 40 95
        E 280 99 24 3e -5
        E 0 99 29 7f 73
        E 200 89 24 40 -5
        E 0 89 29 40 73
        E 280 99 26 7f 39
        E 0 99 29 7f 93
        E 200 89 26 40 39
        E 0 89 29 40 93
        E 280 99 29 7f 62
        E 201 89 29 40 62
        E 279 99 24 53 53
        E 0 99 29 7f 77
        E 200 89 24 40 53
        E 0 89 29 40 77
        E 280 99 24 3f 57
        E 0 99 29 7f 81
        E 156 89 24 40 57
        E 45 89 29 40 81
        E 39 99 24 1c -25
        E 202 89 24 40 -25
        E 38 99 26 7d 46
        E 0 99 29 7f 91
        E 201 89 26 40 46
        E 1 89 29 40 91
        E 278 99 29 7f 63
        E 200 89 29 40 63
        E 40 99 30 78 -17
        E 200 89 30 40 -17
        E 40 99 24 66 -43
        E 0 99 2d 7f 69
        E 201 89 2d 40 69
        E 1 89 24 40 -43
        E 38 99 24 3b 97
        E 202 89 24 40 97
        E 38 99 2d 7f 41
        E 204 89 2d 40 41
        E 276 99 26 7f -1
        E 0 99 29 7f 45
        E 199 89 29 40 45
        E 1 89 26 40 -1
        E 280 99 29 7f 35
        E 200 89 29 40 35
        E 280 99 24 55 25
        E 0 99 29 7f 27
        E 200 89 24 40 25
        E 2 89 29 40 27
        E 278 99 24 3d -23
        E 0 99 29 7f 21
        E 200 89 29 40 21
        E 2 89 24 40 -23
        E 278 99 26 7f -15
        E 0 99 29 7f 38
        E 200 89 29 40 38
        E 2 89 26 40 -15
        E 278 99 29 7f 25
        E 202 89 29 40 25
        E 278 99 29 7f 32
        E 0 99 24 50 38
        E 201 89 29 40 32
        E 0 89 24 40 38
        E 279 99 24 3c -13
        E 0 99 29 7f 26
        E 138 89 24 40 -13
        E 65 89 29 40 26
        E 37 99 24 1c -115
        E 200 89 24 40 -115
        E 40 99 26 7f 8
        E 0 99 29 7f 61
        E 201 89 29 40 61
        E 2 89 26 40 8
        E 277 99 29 7f 35
        E 200 89 29 40 35
        E 280 99 24 50 -1
        E 0 99 29 7f 60
        E 200 89 24 40 -1
        E 1 89 29 40 60
        E 279 99 24 37 -62
        E 0 99 29 7f 22
        E 201 89 24 40 -62
        E 4 89 29 40 22
        E 275 99 26 7f 13
        E 0 99 29 7f 59
        E 200 89 26 40 13
        E 2 89 29 40 59
        E 278 99 29 7f 23
        E 199 89 29 40 23
        E 41 99 30 7f -37
        E 202 89 30 40 -37
        E 38 99 24 62 -83
        E 0 99 2d 7f 55
        E 200 89 24 40 -83
        E 0 89 2d 40 55
        E 40 99 30 7e -37
        E 17 b9 04 06
        E 182 89 30 40 -37
        E 4 b9 04 00
        E 37 99 24 51 -91
        E 0 99 2d 7f 5
        E 200 89 24 40 -91
        E 0 89 2d 40 5
        E 280 99 26 7f -10
        E 0 99 29 7f 46
        E 201 89 29 40 46
        E 1 89 26 40 -10
        E 278 99 29 7f 5
        E 200 89 29 40 5
        E 280 99 24 55 31
        E 0 99 29 7f 37
        E 200 89 24 40 31
        E 0 89 29 40 37
        E 280 99 24 3e -31
        E 0 99 29 7f 10
        E 0 99 24 1d 99
        E 128 89 24 40 -31
        E 72 89 24 40 99
        E 1 89 29 40 10
        E 279 99 26 7f 5
        E 0 99 29 7f 51
        E 200 89 26 40 5
        E 0 89 29 40 51
        E 280 99 29 7f -7
        E 200 89 29 40 -7
        E 40 99 26 52 -105
        E 200 89 26 40 -105
        E 40 99 24 64 -22
        E 0 99 29 7f -12
        E 201 89 24 40 -22
        E 0 89 29 40 -12
        E 279 99 29 7f -3
        E 199 89 29 40 -3
        E 281 99 26 7f 9
        E 0 99 29 7f 35
        E 200 89 26 40 9
        E 2 89 29 40 35
        E 278 99 29 7f 19
        E 202 89 29 40 19
        E 278 99 29 7f 38
        E 0 99 24 57 45
        E 200 89 24 40 45
        E 1 89 29 40 38
        E 279 99 24 34 -53
        E 0 99 29 7f 45
        E 200 89 24 40 -53
        E 2 89 29 40 45
        E 278 99 26 7f 21
        E 0 99 29 7f 57
        E 200 89 26 40 21
        E 2 89 29 40 57
        E 278 99 29 7f 15
        E 200 89 29 40 15
        E 40 99 30 7c -45
        E 200 89 30 40 -45
        E 40 99 24 60 -65
        E 0 99 2d 7f 45
        E 200 89 24 40 -65
        E 2 89 2d 40 45
        E 38 99 30 7f -38
        E 200 89 30 40 -38
        E 40 99 24 4b -47
        E 0 99 2d 7f -11
        E 199 89 24 40 -47
        E 1 89 2d 40 -11
        E 280 99 26 7f 1
        E 0 99 29 7f 37
        E 200 89 26 40 1
        E 0 89 29 40 37
        E 280 99 29 7f 27
        E 199 89 29 40 27
        E 281 99 29 7f 25
        E 0 99 24 4f 59
        E 201 89 24 40 59
        E 1 89 29 40 25
        E 278 99 24 42 -15
        E 0 99 29 7f 26
        E 200 89 24 40 -15
        E 1 89 29 40 26
        E 279 99 26 7f 23
        E 0 99 29 7f 77
        E 200 89 26 40 23
        E 0 89 29 40 77
        E 280 99 29 7f 73
        E 200 89 29 40 73
        E 280 99 24 52 77
        E 0 99 29 7f 85
        E 200 89 24 40 77
        E 0 89 29 40 85
        E 280 99 24 3d 15
        E 0 99 29 7f 71
        E 0 99 24 1f 119
        E 104 89 24 40 15
        E 96 89 29 40 71
        E 0 89 24 40 119
        E 280 99 26 7f 25
        E 0 99 29 7f 65
        E 200 89 26 40 25
        E 0 89 29 40 65
        E 280 99 29 7f 49
        E 200 89 29 40 49
        E 40 99 28 58 -2
        E 0 99 28 2a 97
        E 97 89 28 40 -2
        E 103 89 28 40 97
        E 40 99 26 64 66
        E 0 99 24 49 75
        E 126 89 24 40 75
        E 75 89 26 40 66
        E 39 99 24 24 -37
        E 0 99 26 40 37
        E 96 89 26 40 37
        E 104 89 24 40 -37
        E 40 99 26 23 -105
        E 0 99 26 7e 49
        E 152 89 26 40 -105
        E 44 89 26 40 49
        E 44 99 26 66 7
        E 200 89 26 40 7
        E 40 99 26 78 28
        E 201 89 26 40 28
        E 39 99 26 61 17
        E 200 89 26 40 17
        E 40 99 26 7f 25
        E 200 89 26 40 25
        E 40 99 26 68 -9
        E 202 89 26 40 -9
        E 38 99 33 41 -15
        E 0 99 33 7f 30
        E 0 99 24 5f 89
        E 44 89 33 40 -15
        E 157 89 33 40 30
        E 1 89 24 40 89
        E 278 99 29 7f -29
        E 200 89 29 40 -29
        E 280 99 26 7f -23
        E 0 99 29 7f 20
        E 202 89 26 40 -23
        E 0 89 29 40 20
        E 278 99 29 7f 9
        E 200 89 29 40 9
        E 280 99 24 51 15
        E 0 99 29 7f 33
        E 200 89 24 40 15
        E 0 89 29 40 33
        E 280 99 29 7f 25
        E 200 89 29 40 25
        E 280 99 26 7f -7
        E 0 99 29 7f 45
        E 199 89 26 40 -7
        E 2 89 29 40 45
        E 279 99 29 7f 23
        E 200 89 29 40 23
        E 280 99 29 7f 35
        E 0 99 24 4e 45
        E 199 89 24 40 45
        E 1 89 29 40 35
        E 280 99 24 3d -59
        E 0 99 24 1d 33
        E 0 99 29 7f 41
        E 90 89 24 40 -59
        E 109 89 29 40 41
        E 2 89 24 40 33
        E 279 99 26 7f 34
        E 0 99 29 7f 79
        E 200 89 29 40 79
        E 3 89 26 40 34
        E 277 99 29 7f 65
        E 200 89 29 40 65
        E 280 99 24 51 36
        E 0 99 29 7f 59
        E 200 89 29 40 59
        E 1 89 24 40 36
        E 279 99 29 7f 52
        E 201 89 29 40 52
        E 279 99 26 7f 21
        E 0 99 29 7f 73
        E 199 89 26 40 21
        E 1 89 29 40 73
        E 280 99 29 7f 37
        E 200 89 29 40 37
        E 40 99 30 6d -38
        E 203 89 30 40 -38
        E 37 99 24 64 -78
        E 0 99 2d 7f 57
        E 200 89 2d 40 57
        E 1 89 24 40 -78
        E 39 99 30 5c -15
        E 35 b9 04 06
        E 165 89 30 40 -15
        E 40 99 24 51 -32
        E 0 99 2d 7f
        E 26 b9 04 00
        E 174 89 2d 40
        E 1 89 24 40 -32
        E 279 99 26 74 3
        E 0 99 29 7f 41
        E 199 89 26 40 3
        E 2 89 29 40 41
        E 279 99 29 7f 28
        E 200 89 29 40 28
        E 280 99 29 7f 51
        E 0 99 24 54 68
        E 199 89 29 40 51
        E 2 89 24 40 68
        E 279 99 24 41 13
        E 0 99 29 7f 55
        E 0 99 24 22 110
        E 94 89 24 40 13
        E 106 89 29 40 55
        E 1 89 24 40 110
        E 279 99 26 7f 29
        E 0 99 29 7f 71
        E 200 89 26 40 29
        E 0 89 29 40 71
        E 280 99 29 7f 52
        E 200 89 29 40 52
        E 280 99 24 4e 57
        E 0 99 29 7f 70
        E 200 89 24 40 57
        E 1 89 29 40 70
        E 279 99 29 7f 79
        E 199 89 29 40 79
        E 281 99 26 7f 63
        E 0 99 29 7f 84
        E 201 89 26 40 63
        E 0 89 29 40 84
        E 279 99 29 7f 67
        E 200 89 29 40 67
        E 2 b9 04 00
        E 38 99 1a 7f -36
        E 201 89 1a 40 -36
        E 14 b9 04 12
        E 25 99 24 56 -61
        E 0 99 24 28 35
        E 0 99 29 7f 45
        E 29 b9 04 22
        E 60 b9 04 32
        E 4 89 24 40 -61
        E 106 89 24 40 35
        E 0 89 29 40 45
        E 3 b9 04 22
        E 136 b9 04 12
        E 142 99 29 7f 62
        E 201 89 29 40 62
        E 279 99 26 7f 58
        E 0 99 29 7f 80
        E 200 89 26 40 58
        E 3 89 29 40 80
        E 202 b9 04 06
        E 75 99 29 7f 52
        E 201 89 29 40 52
        E 39 99 28 4a -11
        E 5 b9 04 00
        E 195 89 28 40 -11
        E 40 99 24 6b -38
        E 0 99 2d 7f 42
        E 201 89 24 40 -38
        E 0 89 2d 40 42
        E 39 99 30 7f -12
        E 12 b9 04 0f
        E 189 89 30 40 -12
        E 39 99 2d 7f 6
        E 0 99 24 4e 10
        E 98 b9 04 06
        E 104 89 2d 40 6
        E 1 89 24 40 10
        E 146 b9 04 00
        E 131 99 26 7f -46
        E 0 99 29 7f 11
        E 200 89 29 40 11
        E 3 89 26 40 -46
        E 277 99 29 7f -10
        E 199 b9 04 09
        E 2 89 29 40 -10
        E 279 99 24 58 7
        E 0 99 29 7f 10
        E 201 89 29 40 10
        E 1 89 24 40 7
        E 278 99 24 37 -94
        E 0 99 29 7f -4
        E 200 89 24 40 -94
        E 3 89 29 40 -4
        E 25 b9 04 00
        E 252 99 26 7f -35
        E 0 99 29 7f 32
        E 199 89 26 40 -35
        E 2 89 29 40 32
        E 279 99 29 7f -1
        E 0 99 26 21 109
        E 199 89 26 40 109
        E 3 89 29 40 -1
        E 278 99 24 55 10
        E 0 99 29 7f 14
        E 200 89 24 40 10
        E 3 89 29 40 14
        E 37 99 24 29 79
        E 202 89 24 40 79
        E 38 99 29 7f 26
        E 201 89 29 40 26
        E 279 99 26 7b -15
        E 0 99 29 7f 49
        E 200 89 26 40 -15
        E 0 89 29 40 49
        E 280 99 29 7f 22
        E 0 99 1a 7f 98
        E 96 b9 04 00
        E 104 89 1a 40 98
        E 1 89 29 40 22
        E 176 b9 04 12
        E 7 b9 04 25
        E 62 b9 04 36
        E 34 99 24 65 -45
        E 0 99 29 7f -5
        E 52 b9 04 46
        E 110 b9 04 36
        E 39 89 29 40 -5
        E 2 89 24 40 -45
        E 41 b9 04 25
        E 108 b9 04 18
        E 128 99 29 7f 34
        E 21 b9 04 0f
        E 180 89 29 40 34
        E 279 99 26 7f 51
        E 0 99 29 7f 70
        E 64 b9 04 09
        E 135 89 26 40 51
        E 1 89 29 40 70
        E 8 b9 04 00
        E 272 99 29 7f 9
        E 100 b9 04 09
        E 102 89 29 40 9
        E 38 99 30 7f -54
        E 0 99 24 6e 82
        E 25 b9 04 00
        E 175 89 24 40 82
        E 3 89 30 40 -54
        E 27 b9 04 12
        E 10 99 2d 7f 20
        E 128 b9 04 1d
        E 73 89 2d 40 20
        E 39 99 30 64 -37
        E 0 99 24 49 32
        E 116 b9 04 0f
        E 83 89 30 40 -37
        E 1 89 24 40 32
        E 40 99 2d 7f -14
        E 57 b9 04 06
        E 144 89 2d 40 -14
        E 65 b9 04 00
        E 214 99 26 7f -3
        E 0 99 29 7f 18
        E 200 89 29 40 18
        E 2 89 26 40 -3
        E 278 99 29 7f 11
        E 199 89 29 40 11
        E 24 b9 04 09
        E 257 99 24 5d -2
        E 0 99 29 7f 28
        E 200 89 29 40 28
        E 1 89 24 40 -2
        E 39 99 24 16 21
        E 202 89 24 40 21
        E 38 99 29 7f 10
        E 200 89 29 40 10
        E 40 99 24 23 -41
        E 173 b9 04 03
        E 4 b9 04 00
        E 22 89 24 40 -41
        E 41 99 26 7f 60
        E 0 99 29 7f 77
        E 200 89 26 40 60
        E 0 89 29 40 77
        E 280 99 29 7f 52
        E 200 89 29 40 52
        E 280 99 24 5c 70
        E 0 99 29 7f 99
        E 200 89 24 40 70
        E 1 89 29 40 99
        E 57 b9 04 12
        E 40 b9 04 22
        E 40 b9 04 32
        E 142 99 29 7f 95
        E 83 b9 04 22
        E 35 b9 04 12
        E 36 b9 04 00
        E 45 89 29 40 95
        E 281 99 2c 50 33
        E 0 99 26 7f 97
        E 0 99 29 7f 108
        E 18 b9 04 12
        E 4 b9 04 25
        E 4 b9 04 38
        E 2 b9 04 49
        E 2 b9 04 4f
        E 5 b9 04 5b
        E 35 b9 04 6c
        E 115 b9 04 5c
        E 15 89 2c 40 33
        E 2 89 26 40 97
        E 0 89 29 40 108
        E 4 b9 04 4c
        E 19 b9 04 3c
        E 31 b9 04 2c
        E 46 b9 04 1a
        E 124 b9 04 12
        E 54 99 29 7f 106
        E 201 89 29 40 106
        E 16 b9 04 20
        E 280 b9 04 0f
        E 67 b9 04 00
        E 156 99 29 7f -118
        E 0 99 24 64 -85
        E 96 b9 04 0c
        E 103 89 24 40 -85
        E 1 89 29 40 -118
        E 40 99 24 31 -10
        E 0 99 29 7f 118
        E 200 89 24 40 -10
        E 1 89 29 40 118
        E 279 99 26 7f 98
        E 121 b9 04 03
        E 10 b9 04 00
        E 69 89 26 40 98
        E 40 99 29 7f -117
        E 141 b9 04 12
        E 58 89 29 40 -117
        E 41 99 29 7f 83
        E 6 b9 04 00
        E 172 b9 04 12
        E 9 b9 04 22
        E 8 b9 04 32
        E 4 89 29 40 83
        E 7 b9 04 43
        E 4 b9 04 4c
        E 5 b9 04 54
        E 7 b9 04 65
        E 18 99 2c 1c -27
        E 0 99 30 5b -12
        E 15 b9 04 75
        E 62 b9 04 65
        E 18 b9 04 55
        E 11 b9 04 44
        E 11 b9 04 34
        E 8 b9 04 22
        E 12 b9 04 12
        E 11 b9 04 00
        E 52 89 2c 40 -27
        E 0 89 30 40 -12
        E 40 99 24 7f -1
        E 0 99 2d 7f 82
        E 149 b9 04 12
        E 1 b9 04 25
        E 3 b9 04 38
        E 2 b9 04 49
        E 2 b9 04 53
        E 5 b9 04 5a
        E 2 b9 04 6e
        E 10 b9 04 5d
        E 13 b9 04 6e
        E 12 89 24 40 -1
        E 1 89 2d 40 82
        E 40 99 2c 7a -81
        E 46 b9 04 5d
        E 12 b9 04 4c
        E 8 b9 04 3c
        E 11 b9 04 2c
        E 9 b9 04 1a
        E 12 b9 04 09
        E 6 b9 04 00
        E 94 89 2c 40 -81
        E 42 99 24 58 -42
        E 0 99 2d 7f 36
        E 110 b9 04 12
        E 11 b9 04 25
        E 17 b9 04 36
        E 15 b9 04 46
        E 3 b9 04 4c
        E 8 b9 04 56
        E 37 89 2d 40 36
        E 1 89 24 40 -42
        E 25 b9 04 46
        E 13 99 2c 12 -82
        E 15 b9 04 36
        E 186 89 2c 40 -82
        E 39 99 26 7f 57
        E 0 99 29 7f 104
        E 33 b9 04 2e
        E 67 b9 04 1d
        E 99 89 26 40 57
        E 1 89 29 40 104
        E 65 b9 04 0f
        E 142 b9 04 06
        E 73 99 29 7f 85
        E 199 89 29 40 85
        E 64 b9 04 12
        E 217 99 24 64 90
        E 0 99 29 7f 111
        E 41 b9 04 03
        E 6 b9 04 00
        E 153 89 29 40 111
        E 1 89 24 40 90
        E 279 99 24 3d 29
        E 201 89 24 40 29
        E 39 99 29 7f -119
        E 200 89 29 40 -119
        E 40 99 26 7e 75
        E 200 89 26 40 75
        E 40 99 29 7f -113
        E 199 89 29 40 -113
        E 41 99 29 7f 108
        E 200 89 29 40 108
        E 520 99 29 7f -106
        E 0 99 24 72 -96
        E 200 89 29 40 -106
        E 1 89 24 40 -96
        E 39 99 24 3b 61
        E 73 89 24 40 61
        E 167 99 24 19 -102
        E 0 99 29 7f -100
        E 51 b9 04 06
        E 148 89 24 40 -102
        E 3 89 29 40 -100
        E 146 b9 04 00
        E 132 99 26 7f -107
        E 0 99 29 7f -98
        E 200 89 26 40 -107
        E 3 89 29 40 -98
        E 37 99 29 7f 118
        E 200 89 29 40 118
        E 280 99 29 7f 100
        E 0 99 24 60 107
        E 202 89 29 40 100
        E 0 89 24 40 107
        E 278 99 29 7f 70
        E 200 89 29 40 70
        E 280 99 26 7f 29
        E 0 99 29 7f 56
        E 201 89 26 40 29
        E 0 89 29 40 56
        E 279 99 29 7f 44
        E 182 b9 04 09
        E 18 89 29 40 44
        E 40 99 30 5c -34
        E 200 89 30 40 -34
        E 40 99 24 7f -45
        E 0 99 2d 7f 52
        E 109 b9 04 1a
        E 91 89 2d 40 52
        E 2 89 24 40 -45
        E 38 99 30 79 -38
        E 59 b9 04 27
        E 141 89 30 40 -38
        E 40 99 24 5b -10
        E 0 99 2d 7f 9
        E 3 b9 04 18
        E 138 b9 04 0f
        E 58 89 2d 40 9
        E 2 89 24 40 -10
        E 169 b9 04 06
        E 110 99 26 7f 62
        E 0 99 29 7f 70
        E 66 b9 04 00
        E 134 89 26 40 62
        E 0 89 29 40 70
        E 280 99 29 7f 46
        E 200 89 29 40 46
        E 24 b9 04 09
        E 256 99 29 7f 44
        E 0 99 24 7d 54
        E 200 89 29 40 44
        E 0 89 24 40 54
        E 280 99 24 48 24
        E 0 99 29 7f 50
        E 124 89 24 40 24
        E 76 89 29 40 50
        E 40 99 24 21 -90
        E 200 89 24 40 -90
        E 40 99 26 7f -16
        E 0 99 29 7f 38
        E 200 89 29 40 38
        E 2 89 26 40 -16
        E 278 99 29 7f 42
        E 16 b9 04 03
        E 184 89 29 40 42
        E 280 99 29 7f 64
        E 0 99 24 68 78
        E 201 89 29 40 64
        E 2 89 24 40 78
        E 277 99 24 44 -12
        E 0 99 29 7f 58
        E 200 89 29 40 58
        E 2 89 24 40 -12
        E 278 99 26 7f 41
        E 0 99 29 7f 68
        E 199 89 26 40 41
        E 2 89 29 40 68
        E 157 b9 04 00
        E 122 99 29 7f 66
        E 200 89 29 40 66
        E 280 99 29 7f 71
        E 0 99 24 74 93
        E 199 89 29 40 71
        E 2 89 24 40 93
        E 279 99 24 45 26
        E 0 99 29 7f 60
        E 100 89 24 40 26
        E 100 89 29 40 60
        E 40 99 24 1e -112
        E 202 89 24 40 -112
        E 38 99 26 7b 14
        E 0 99 29 7f 56
        E 200 89 26 40 14
        E 0 89 29 40 56
        E 280 99 29 7f 28
        E 200 89 29 40 28
        E 2 b9 04 0c
        E 38 99 30 65 -30
        E 202 89 30 40 -30
        E 38 99 24 7e -23
        E 0 99 2d 7f 38
        E 186 b9 04 18
        E 14 89 2d 40 38
        E 1 89 24 40 -23
        E 39 99 30 60 -48
        E 200 89 30 40 -48
        E 40 99 2d 7f -3
        E 0 99 24 5a
        E 152 b9 04 0f
        E 47 89 2d 40 -3
        E 3 89 24 40
        E 152 b9 04 06
        E 126 99 26 74 45
        E 0 99 29 7f 58
        E 18 b9 04 00
        E 182 89 29 40 58
        E 1 89 26 40 45
        E 279 99 29 7f 34
        E 202 89 29 40 34
        E 278 99 24 67 38
        E 0 99 29 7f 40
        E 200 89 24 40 38
        E 2 89 29 40 40
        E 278 99 24 46 -14
        E 0 99 29 7f 40
        E 0 99 24 20 96
        E 106 89 24 40 -14
        E 92 89 24 40 96
        E 2 89 29 40 40
        E 280 99 26 7f 6
        E 0 99 29 7f 52
        E 200 89 29 40 52
        E 4 89 26 40 6
        E 276 99 29 7f 46
        E 131 b9 04 00
        E 69 89 29 40 46
        E 40 99 1a 7f -107
        E 118 b9 04 12
        E 7 b9 04 25
        E 3 b9 04 38
        E 2 b9 04 4c
        E 6 b9 04 4c
        E 65 89 1a 40 -107
        E 3 b9 04 5c
        E 36 99 2c 46 -108
        E 0 99 24 7e
        E 0 99 29 7f 44
        E 90 b9 04 4c
        E 56 b9 04 3c
        E 54 89 2c 40 -108
        E 0 89 29 40 44
        E 1 89 24 40
        E 161 b9 04 2c
        E 112 b9 04 1d
        E 6 99 29 7f 64
        E 200 89 29 40 64
        E 280 99 26 7f 58
        E 0 99 29 7f 82
        E 200 89 26 40 58
        E 0 89 29 40 82
        E 280 99 29 7f 74
        E 70 b9 04 12
        E 130 89 29 40 74
        E 136 b9 04 18
        E 144 99 24 67 68
        E 0 99 29 7f 90
        E 202 89 24 40 68
        E 0 89 29 40 90
        E 278 99 24 43 -16
        E 0 99 29 7f 70
        E 64 b9 04 12
        E 136 89 24 40 -16
        E 2 89 29 40 70
        E 278 99 26 7c 66
        E 0 99 29 7f 102
        E 110 b9 04 09
        E 90 89 29 40 102
        E 3 89 26 40 66
        E 57 b9 04 00
        E 220 99 29 7f 70
        E 140 b9 04 0f
        E 60 89 29 40 70
        E 40 99 30 77 2
        E 200 89 30 40 2
        E 40 99 24 7f 4
        E 0 99 2d 7f 105
        E 199 89 2d 40 105
        E 2 89 24 40 4
        E 39 99 30 7a 16
        E 0 99 30 23 114
        E 30 b9 04 18
        E 64 89 30 40 16
        E 104 89 30 40 114
        E 6 b9 04 1d
        E 36 99 24 5f 8
        E 0 99 2d 7f 48
        E 200 89 24 40 8
        E 0 89 2d 40 48
        E 112 b9 04 12
        E 168 99 26 66 48
        E 0 99 29 7f 96
        E 132 b9 04 09
        E 68 89 26 40 48
        E 1 89 29 40 96
        E 279 99 29 7f 78
        E 202 89 29 40 78
        E 38 b9 04 12
        E 240 99 24 6f 94
        E 0 99 29 7f 106
        E 72 b9 04 09
        E 128 89 24 40 94
        E 2 89 29 40 106
        E 90 b9 04 12
        E 188 99 24 3c -22
        E 0 99 29 7f 108
        E 200 89 29 40 108
        E 2 89 24 40 -22
        E 278 99 26 7f 104
        E 112 b9 04 09
        E 88 89 26 40 104
        E 40 99 29 7f -102
        E 200 89 29 40 -102
        E 218 b9 04 00
        E 62 99 29 7f -119
        E 0 99 29 34 -16
        E 0 99 1a 7f 104
        E 101 89 29 40 -119
        E 1 b9 04 00
        E 100 89 29 40 -16
        E 0 89 1a 40 104
        E 38 99 2c 2a 58
        E 38 b9 04 12
        E 4 b9 04 22
        E 4 b9 04 34
        E 4 b9 04 46
        E 7 b9 04 4c
        E 27 b9 04 56
        E 38 b9 04 66
        E 80 89 2c 40 58
        E 38 b9 04 56
        E 0 99 24 7f -108
        E 0 99 29 7f -90
        E 48 b9 04 46
        E 67 b9 04 36
        E 85 89 29 40 -90
        E 2 89 24 40 -108
        E 62 b9 04 3a
        E 52 b9 04 29
        E 110 b9 04 1d
        E 54 99 29 7f -112
        E 200 89 29 40 -112
        E 162 b9 04 15
        E 118 99 26 7e -80
        E 0 99 29 7f -54
        E 200 89 29 40 -54
        E 1 89 26 40 -80
        E 147 b9 04 0c
        E 132 99 29 7f -80
        E 188 b9 04 12
        E 12 89 29 40 -80
        E 280 99 24 70 -64
        E 0 99 29 7f -48
        E 200 89 29 40 -48
        E 1 89 24 40 -64
        E 279 99 24 45 -88
        E 0 99 29 7f -34
        E 0 99 24 21 24
        E 110 89 24 40 -88
        E 90 89 29 40 -34
        E 0 89 24 40 24
        E 210 b9 04 09
        E 70 99 26 7a -80
        E 0 99 29 7f -32
        E 14 b9 04 00
        E 186 89 26 40 -80
        E 1 89 29 40 -32
        E 279 99 29 7f -56
        E 18 b9 04 0f
        E 152 b9 04 15
        E 30 89 29 40 -56
        E 40 99 30 7c -120
        E 0 99 30 26 -32
        E 86 89 30 40 -120
        E 63 b9 04 0f
        E 51 89 30 40 -32
        E 40 99 24 7f -116
        E 0 99 2d 7f -44
        E 60 b9 04 1d
        E 140 89 24 40 -116
        E 4 89 2d 40 -44
        E 22 b9 04 27
        E 14 99 30 7f -108
        E 200 89 30 40 -108
        E 36 b9 04 1d
        E 4 99 24 5d -108
        E 0 99 2d 7f -68
        E 196 b9 04 12
        E 4 89 24 40 -108
        E 0 89 2d 40 -68
        E 266 b9 04 06
        E 14 99 26 7f -76
        E 0 99 29 7f -35
        E 122 b9 04 00
        E 77 89 29 40 -35
        E 1 89 26 40 -76
        E 280 99 29 7f -42
        E 116 b9 04 09
        E 84 89 29 40 -42
        E 280 99 24 7f -54
        E 0 99 29 7f -50
        E 200 89 29 40 -50
        E 2 89 24 40 -54
        E 278 99 24 41 -80
        E 0 99 29 7f -58
        E 0 99 24 1a 76
        E 154 89 24 40 -80
        E 46 89 29 40 -58
        E 0 89 24 40 76
        E 280 99 26 7f -80
        E 0 99 29 7f -67
        E 199 89 29 40 -67
        E 3 89 26 40 -80
        E 164 b9 04 00
        E 114 99 29 7f -90
        E 0 99 1a 7f 88
        E 86 b9 04 00
        E 113 89 29 40 -90
        E 1 89 1a 40 88
        E 40 99 2c 34 68
        E 0 99 24 7f 96
        E 52 b9 04 12
        E 4 b9 04 22
        E 4 b9 04 32
        E 4 b9 04 44
        E 2 b9 04 4c
        E 40 b9 04 54
        E 94 89 2c 40 68
        E 2 89 24 40 96
        E 12 b9 04 5f
        E 26 99 29 7f -86
        E 56 b9 04 4f
        E 86 b9 04 3f
        E 62 89 29 40 -86
        E 170 b9 04 2e
        E 106 99 29 71 -110
        E 46 b9 04 20
        E 156 89 29 40 -110
        E 124 b9 04 18
        E 154 99 26 7f -112
        E 0 99 29 7f -88
        E 66 b9 04 0f
        E 135 89 26 40 -112
        E 0 89 29 40 -88
        E 39 99 29 7f 110
        E 34 b9 04 09
        E 166 89 29 40 110
        E 50 b9 04 12
        E 230 99 24 71 40
        E 0 99 29 7f 78
        E 200 89 24 40 40
        E 0 89 29 40 78
        E 280 99 24 3a -42
        E 0 99 24 1b 54
        E 0 99 29 7f 102
        E 94 89 24 40 -42
        E 105 89 29 40 102
        E 3 89 24 40 54
        E 278 99 26 7f 80
        E 0 99 29 7f 112
        E 158 b9 04 09
        E 42 89 26 40 80
        E 1 89 29 40 112
        E 135 b9 04 00
        E 144 99 29 7f 92
        E 200 89 29 40 92
        E 5 b9 04 09
        E 35 99 30 68 25
        E 199 89 30 40 25
        E 41 99 24 7f 28
        E 0 99 2d 7f 92
        E 200 89 2d 40 92
        E 2 89 24 40 28
        E 18 b9 04 18
        E 20 99 30 72 6
        E 200 89 30 40 6
        E 40 99 24 5a 20
        E 0 99 2d 7f 24
        E 201 89 24 40 20
        E 2 89 2d 40 24
        E 20 b9 04 0f
        E 231 b9 04 09
        E 26 99 26 6f 32
        E 0 99 29 7f 66
        E 186 b9 04 00
        E 14 89 29 40 66
        E 2 89 26 40 32
        E 278 99 29 7f 48
        E 200 89 29 40 48
        E 14 b9 04 0c
        E 266 99 24 7f 58
        E 0 99 29 7f 60
        E 200 89 24 40 58
        E 0 89 29 40 60
        E 280 99 24 47 48
        E 0 99 29 7f 70
        E 118 89 24 40 48
        E 84 89 29 40 70
        E 38 99 24 1e -72
        E 202 89 24 40 -72
        E 38 99 26 75 34
        E 0 99 29 7f 68
        E 200 89 26 40 34
        E 1 89 29 40 68
        E 25 b9 04 06
        E 174 b9 04 00
        E 80 99 29 7f 37
        E 202 89 29 40 37
        E 38 99 1a 7f 44
        E 42 b9 04 00
        E 154 b9 04 12
        E 4 89 1a 40 44
        E 4 b9 04 27
        E 8 b9 04 38
        E 28 99 2c 0e 18
        E 0 99 24 7f 54
        E 0 99 29 7f 86
        E 12 b9 04 49
        E 4 b9 04 4c
        E 102 b9 04 57
        E 52 b9 04 47
        E 29 89 29 40 86
        E 1 89 2c 40 18
        E 0 89 24 40 54
        E 14 b9 04 36
        E 56 b9 04 25
        E 104 b9 04 1a
        E 106 99 29 7f 82
        E 202 89 29 40 82
        E 278 99 26 7f 78
        E 0 99 29 7f 112
        E 77 b9 04 12
        E 123 89 26 40 78
        E 0 89 29 40 112
        E 238 b9 04 09
        E 42 99 29 7f 78
        E 200 89 29 40 78
        E 42 b9 04 12
        E 238 99 29 7f 66
        E 0 99 24 7f 76
        E 136 b9 04 0c
        E 66 89 29 40 66
        E 2 89 24 40 76
        E 276 99 24 49 68
        E 0 99 29 7f 78
        E 120 89 24 40 68
        E 80 89 29 40 78
        E 40 99 24 22 -50
        E 200 89 24 40 -50
        E 40 99 26 7f 40
        E 0 99 29 7f 84
        E 200 89 26 40 40
        E 0 89 29 40 84
        E 82 b9 04 03
        E 10 b9 04 00
        E 188 99 29 7f 60
        E 158 b9 04 0c
        E 44 89 29 40 60
        E 38 99 30 7f -20
        E 204 89 30 40 -20
        E 36 99 24 7f 9
        E 0 99 2d 7f 80
        E 201 89 24 40 9
        E 5 89 2d 40 80
        E 2 b9 04 18
        E 32 99 30 67 -28
        E 0 99 30 2b 44
        E 70 89 30 40 -28
        E 132 89 30 40 44
        E 38 99 24 5b 4
        E 0 99 2d 7f 32
        E 200 89 24 40 4
        E 2 89 2d 40 32
        E 46 b9 04 0f
        E 232 99 26 6d 20
        E 0 99 29 7f 58
        E 128 b9 04 06
        E 72 89 26 40 20
        E 2 89 29 40 58
        E 170 b9 04 00
        E 108 99 29 7f 62
        E 198 b9 04 0c
        E 2 89 29 40 62
        E 280 99 29 7f 88
        E 0 99 24 7f 100
        E 200 89 29 40 88
        E 0 89 24 40 100
        E 280 99 24 4a 72
        E 0 99 29 7f 78
        E 200 89 24 40 72
        E 0 89 29 40 78
        E 280 99 26 7f 20
        E 0 99 29 7f 82
        E 200 89 29 40 82
        E 2 89 26 40 20
        E 278 99 29 7f 90
        E 0 99 26 6c 106
        E 200 89 29 40 90
        E 0 89 26 40 106
        E 6 b9 04 00
        E 274 99 2e 7f 70
        E 68 b9 04 09
        E 4 b9 04 12
        E 10 b9 04 25
        E 8 b9 04 36
        E 66 b9 04 46
        E 18 b9 04 4c
        E 28 89 2e 40 70
        E 38 99 24 7a -94
        E 0 99 29 7f -86
        E 0 99 2c 08 -64
        E 66 b9 04 36
        E 120 b9 04 27
        E 14 89 29 40 -86
        E 2 89 24 40 -94
        E 0 89 2c 40 -64
        E 142 b9 04 1d
        E 136 99 29 7f -118
        E 200 89 29 40 -118
        E 40 99 26 7c 108
        E 164 b9 04 15
        E 36 89 26 40 108
        E 40 99 29 7f -112
        E 180 b9 04 0f
        E 22 89 29 40 -112
        E 38 99 29 7f 108
        E 82 b9 04 09
        E 118 89 29 40 108
        E 124 b9 04 0f
        E 396 99 29 7f -102
        E 0 99 24 7f -70
        E 200 89 29 40 -102
        E 2 89 24 40 -70
        E 38 99 24 44 90
        E 0 99 29 7f 96
        E 200 89 24 40 90
        E 4 89 29 40 96
        E 276 99 26 7f 84
        E 0 99 29 7f 112
        E 200 89 29 40 112
        E 2 89 26 40 84
        E 134 b9 04 03
        E 45 b9 04 00
        E 99 99 29 7f 82
        E 116 b9 04 0f
        E 83 89 29 40 82
        E 41 99 30 79 6
        E 200 89 30 40 6
        E 40 90 34 7f
        E 0 99 24 7e -4
        E 0 99 29 69
        E 120 b9 04 1d
        E 80 89 29 40
        E 2 89 24 40 -4
        E 38 80 34 00
        E 240 99 24 4f -36
        E 0 99 29 69 40
        E 200 89 29 40 40
        E 2 89 24 40 -36
        E 278 90 26 7f
        E 0 99 29 69 40
        E 44 b9 04 00
        E 12 b9 04 06
        E 144 89 29 40 40
        E 40 80 26 00
        E 0 99 26 57 -118
        E 108 89 26 40 -118
        E 132 99 29 69 68
        E 200 89 29 40 68
        E 94 b9 04 09
        E 186 99 29 69 66
        E 40 99 24 72
        E 160 89 29 40 66
        E 40 89 24 40
        E 240 99 24 4a 64
        E 0 99 29 69 70
        E 40 99 24 22
        E 62 89 24 40 64
        E 98 89 29 40 70
        E 40 89 24 40
        E 240 99 26 7f 20
        E 0 99 29 69 64
        E 200 89 26 40 20
        E 0 89 29 40 64
        E 238 b9 04 03
        E 6 b9 04 00
        E 36 99 29 69 44
        E 200 89 29 40 44
        E 40 99 2e 7f 22
        E 20 b9 04 00
        E 152 b9 04 12
        E 8 b9 04 22
        E 4 b9 04 34
        E 15 89 2e 40 22
        E 29 b9 04 44
        E 12 99 2c 0e 4
        E 0 99 29 69 56
        E 0 99 24 7f 58
        E 2 b9 04 4c
        E 28 b9 04 54
        E 170 89 2c 40 4
        E 1 89 29 40 56
        E 0 89 24 40 58
        E 5 b9 04 44
        E 76 b9 04 34
        E 156 b9 04 29
        E 42 99 29 69 28
        E 200 89 29 40 28
        E 34 b9 04 1d
        E 246 99 26 7f 40
        E 0 99 29 69 60
        E 199 89 26 40 40
        E 1 89 29 40 60
        E 14 b9 04 18
        E 190 b9 04 0f
        E 76 99 29 69 47
        E 203 89 29 40 47
        E 277 99 29 69 56
        E 0 99 24 7f 86
        E 200 89 24 40 86
        E 1 89 29 40 56
        E 279 99 24 4c
        E 0 99 29 69 31
        E 200 89 24 40
        E 1 89 29 40 31
        E 279 99 26 7f -16
        E 0 99 29 69 30
        E 202 89 26 40 -16
        E 0 89 29 40 30
        E 92 b9 04 03
        E 6 b9 04 00
        E 180 99 29 69 -12
        E 136 b9 04 0c
        E 65 89 29 40 -12
        E 39 99 30 69 -88
        E 202 89 30 40 -88
        E 38 99 24 7f -30
        E 0 99 2d 6d 1
        E 128 b9 04 1a
        E 74 89 24 40 -30
        E 1 89 2d 40 1
        E 37 99 30 61 -58
        E 0 99 30 2c 20
        E 50 b9 04 25
        E 26 89 30 40 -58
        E 124 89 30 40 20
        E 40 99 24 57 -68
        E 0 99 2d 6d -42
        E 16 b9 04 1a
        E 170 b9 04 12
        E 14 89 24 40 -68
        E 0 89 2d 40 -42
        E 280 99 26 7d -82
        E 0 99 29 69 -18
        E 70 b9 04 0c
        E 130 89 29 40 -18
        E 2 89 26 40 -82
        E 178 b9 04 03
        E 100 99 29 69 -28
        E 182 b9 04 0f
        E 18 89 29 40 -28
        E 280 99 29 69 -2
        E 0 99 24 7f 12
        E 200 89 29 40 -2
        E 0 89 24 40 12
        E 280 99 29 69 -24
        E 0 99 24 4e -19
        E 0 99 24 20 78
        E 95 89 24 40 -19
        E 105 89 29 40 -24
        E 0 89 24 40 78
        E 280 99 26 7f -38
        E 0 99 29 69 -6
        E 200 89 29 40 -6
        E 2 89 26 40 -38
        E 192 b9 04 03
        E 40 b9 04 00
        E 46 99 29 69 -11
        E 182 b9 04 00
        E 19 89 29 40 -11
        E 39 99 1a 7f -56
        E 164 b9 04 12
        E 10 b9 04 25
        E 26 89 1a 40 -56
        E 14 b9 04 36
        E 22 b9 04 46
        E 4 99 24 7f 3
        E 0 99 29 69 18
        E 0 99 2c 0a 24
        E 19 b9 04 4c
        E 159 b9 04 36
        E 22 89 29 40 18
        E 2 89 2c 40 24
        E 1 89 24 40 3
        E 73 b9 04 25
        E 130 b9 04 1d
        E 74 99 29 69 16
        E 112 b9 04 25
        E 87 89 29 40 16
        E 26 b9 04 1d
        E 255 99 26 7f 24
        E 0 99 29 69 32
        E 38 b9 04 18
        E 162 89 26 40 24
        E 0 89 29 40 32
        E 104 b9 04 0c
        E 166 b9 04 06
        E 10 99 29 69 12
        E 200 89 29 40 12
        E 70 b9 04 0c
        E 210 99 29 69 32
        E 0 99 24 7f 54
        E 200 89 29 40 32
        E 2 89 24 40 54
        E 56 b9 04 12
        E 222 99 24 4d 18
        E 0 99 29 69 34
        E 116 89 24 40 18
        E 84 89 29 40 34
        E 40 99 24 20 -102
        E 200 89 24 40 -102
        E 22 b9 04 06
        E 18 99 26 7f -16
        E 0 99 29 69 28
        E 94 b9 04 00
        E 105 89 29 40 28
        E 2 89 26 40 -16
        E 279 99 29 69 15
        E 94 b9 04 12
        E 107 89 29 40 15
        E 39 99 30 77 -50
        E 20 b9 04 1a
        E 162 b9 04 0f
        E 20 89 30 40 -50
        E 38 99 24 7f -28
        E 0 99 2d 6d 40
        E 144 b9 04 1d
        E 56 89 24 40 -28
        E 2 89 2d 40 40
        E 38 99 30 51 -16
        E 0 99 30 24 74
        E 8 b9 04 2e
        E 80 89 30 40 -16
        E 114 89 30 40 74
        E 38 99 24 5a -42
        E 0 99 2d 6d -12
        E 74 b9 04 25
        E 107 b9 04 1a
        E 19 89 24 40 -42
        E 0 89 2d 40 -12
        E 148 b9 04 12
        E 132 90 32 7f
        E 0 99 26 7f -42
        E 0 99 29 69 6
        E 88 b9 04 06
        E 112 89 29 40 6
        E 4 89 26 40 -42
        E 36 80 32 00
        E 32 b9 04 00
        E 208 99 29 69 10
        E 144 b9 04 0f
        E 56 89 29 40 10
        E 280 99 29 69 18
        E 0 99 24 7f 54
        E 42 b9 04 09
        E 160 89 29 40 18
        E 0 89 24 40 54
        E 20 b9 04 12
        E 258 99 29 69 24
        E 0 99 24 52 32
        E 102 89 24 40 32
        E 100 89 29 40 24
        E 38 99 24 21 -102
        E 182 b9 04 0c
        E 16 89 24 40 -102
        E 42 99 26 7f -16
        E 0 99 29 69 22
        E 200 89 29 40 22
        E 2 89 26 40 -16
        E 78 b9 04 06
        E 200 99 29 69 -4
        E 6 b9 04 00
        E 196 89 29 40 -4
        E 18 b9 04 00
        E 20 99 2e 7f -18
        E 116 b9 04 12
        E 8 b9 04 25
        E 6 b9 04 36
        E 44 b9 04 46
        E 20 b9 04 4c
        E 6 89 2e 40 -18
        E 40 99 2c 0c -44
        E 0 99 24 7f -2
        E 0 99 29 69 12
        E 44 b9 04 4d
        E 42 b9 04 3c
        E 38 b9 04 2c
        E 76 89 24 40 -2
        E 1 89 2c 40 -44
        E 1 89 29 40 12
        E 38 b9 04 1d
        E 238 b9 04 2e
        E 2 99 29 69 12
        E 200 89 29 40 12
        E 78 b9 04 27
        E 119 b9 04 1a
        E 83 99 26 7f 12
        E 0 99 29 69 26
        E 200 89 26 40 12
        E 2 89 29 40 26
        E 158 b9 04 0f
        E 120 99 29 69 44
        E 200 89 29 40 44
        E 28 b9 04 15
        E 252 99 29 69 46
        E 0 99 24 7f 72
        E 200 89 29 40 46
        E 0 89 24 40 72
        E 280 99 24 4f 26
        E 0 99 29 69 40
        E 200 89 24 40 26
        E 0 89 29 40 40
        E 254 b9 04 0f
        E 26 99 26 7b 2
        E 0 99 29 69 34
        E 200 89 26 40 2
        E 2 89 29 40 34
        E 8 b9 04 03
        E 36 b9 04 00
        E 234 99 29 69 16
        E 26 b9 04 12
        E 176 89 29 40 16
        E 4 b9 04 1a
        E 34 99 31 7f -82
        E 134 b9 04 09
        E 68 89 31 40 -82
        E 38 99 24 7f -14
        E 0 99 2d 6d 13
        E 0 99 29 57 16
        E 164 b9 04 15
        E 38 89 24 40 -14
        E 0 89 29 40 16
        E 1 89 2d 40 13
        E 277 99 24 4c -60
        E 0 99 2d 6d 5
        E 100 b9 04 0f
        E 100 89 24 40 -60
        E 3 89 2d 40 5
        E 277 90 30 6d
        E 0 99 26 7f -12
        E 0 99 29 69 -2
        E 0 99 26 36 80
        E 88 89 26 40 -12
        E 2 b9 04 06
        E 108 89 26 40 80
        E 2 89 29 40 -2
        E 40 80 30 00
        E 240 99 29 69 32
        E 128 b9 04 0f
        E 74 89 29 40 32
        E 200 b9 04 03
        E 16 b9 04 00
        E 62 99 24 7f -42
        E 0 99 29 69 2
        E 176 b9 04 0c
        E 23 89 29 40 2
        E 3 89 24 40 -42
        E 278 99 29 69 -31
        E 203 89 29 40 -31
        E 277 99 26 7f -42
        E 0 99 29 69 -4
        E 200 89 26 40 -42
        E 2 89 29 40 -4
        E 90 b9 04 03
        E 188 99 29 69 -24
        E 104 b9 04 0c
        E 96 89 29 40 -24
        E 40 99 26 3e -32
        E 186 b9 04 06
        E 14 89 26 40 -32
        E 40 99 24 7f -46
        E 0 99 29 69 -23
        E 128 b9 04 0f
        E 73 89 29 40 -23
        E 2 89 24 40 -46
        E 277 99 24 4b -76
        E 0 99 29 69 -38
        E 200 89 24 40 -76
        E 0 89 29 40 -38
        E 280 99 26 7f -38
        E 0 99 29 69 -20
        E 200 89 26 40 -38
        E 0 89 29 40 -20
        E 46 b9 04 06
        E 234 99 29 69 -14
        E 154 b9 04 0f
        E 48 89 29 40 -14
        E 278 99 29 69 -10
        E 0 99 24 7f -4
        E 50 b9 04 09
        E 150 89 29 40 -10
        E 4 89 24 40 -4
        E 276 99 29 69 -24
        E 200 89 29 40 -24
        E 280 99 26 7e -22
        E 0 99 29 69 8
        E 200 89 29 40 8
        E 2 89 26 40 -22
        E 98 b9 04 00
        E 180 99 29 69 -12
        E 106 b9 04 0c
        E 98 89 29 40 -12
        E 36 99 30 77 -71
        E 201 89 30 40 -71
        E 39 99 24 7f -49
        E 0 99 2d 6d 26
        E 160 b9 04 18
        E 41 89 24 40 -49
        E 1 89 2d 40 26
        E 38 99 30 60 -79
        E 0 99 30 11 28
        E 105 89 30 40 -79
        E 95 89 30 40 28
        E 40 99 24 5b -76
        E 0 99 2d 6d -32
        E 191 b9 04 0c
        E 9 89 24 40 -76
        E 0 89 2d 40 -32
        E 280 90 34 7f
        E 0 99 26 7f -58
        E 0 99 29 69 -17
        E 74 b9 04 03
        E 44 b9 04 00
        E 82 89 26 40 -58
        E 3 89 29 40 -17
        E 37 80 34 00
        E 240 99 29 69 -24
        E 114 b9 04 0c
        E 88 89 29 40 -24
        E 79 b9 04 12
        E 199 99 29 69 -14
        E 0 99 24 7f 18
        E 47 b9 04 09
        E 152 89 29 40 -14
        E 1 89 24 40 18
        E 280 99 24 4f -39
        E 0 99 29 69 -22
        E 200 89 24 40 -39
        E 0 89 29 40 -22
        E 280 99 26 7f -8
        E 0 99 29 69 20
        E 136 b9 04 0f
        E 63 89 26 40 -8
        E 1 89 29 40 20
        E 162 b9 04 00
        E 118 99 29 69 -18
        E 0 99 29 16 88
        E 103 89 29 40 -18
        E 91 b9 04 00
        E 6 89 29 40 88
        E 40 99 2e 7f -44
        E 202 89 2e 40 -44
        E 38 99 2c 4a
        E 0 99 24 7f -22
        E 0 99 29 69 12
        E 46 b9 04 5a
        E 32 b9 04 12
        E 6 b9 04 27
        E 2 b9 04 38
        E 4 b9 04 4a
        E 2 b9 04 4f
        E 4 b9 04 5a
        E 14 b9 04 4a
        E 19 b9 04 5a
        E 1 b9 04 3a
        E 46 b9 04 6a
        E 24 89 29 40 12
        E 2 89 2c 40
        E 0 89 24 40 -22
        E 132 b9 04 29
        E 122 b9 04 1d
        E 24 99 24 0a -68
        E 0 99 29 69 28
        E 199 89 24 40 -68
        E 3 89 29 40 28
        E 278 99 26 7f 3
        E 0 99 29 69 18
        E 200 89 26 40 3
        E 0 89 29 40 18
        E 71 b9 04 12
        E 209 99 29 69 9
        E 201 89 29 40 9
        E 43 b9 04 1a
        E 236 99 29 69 25
        E 0 99 24 7f 37
        E 41 b9 04 12
        E 159 89 29 40 25
        E 3 89 24 40 37
        E 277 99 24 50 -24
        E 0 99 29 69 6
        E 202 89 29 40 6
        E 2 89 24 40 -24
        E 276 99 26 7f -32
        E 0 99 29 69 21
        E 153 b9 04 00
        E 47 89 29 40 21
        E 2 89 26 40 -32
        E 278 99 29 69 -28
        E 98 b9 04 12
        E 104 89 29 40 -28
        E 38 99 26 59 -54
        E 46 b9 04 1d
        E 154 89 26 40 -54
        E 40 99 24 7f -4
        E 0 99 31 7f -2
        E 50 b9 04 25
        E 134 b9 04 36
        E 18 89 24 40 -4
        E 0 89 31 40 -2
        E 278 99 24 4b -51
        E 0 99 29 69
        E 4 b9 04 27
        E 114 b9 04 1a
        E 82 89 29 40
        E 3 89 24 40 -51
        E 72 b9 04 12
        E 169 b9 04 09
        E 36 99 26 7f -14
        E 0 99 29 69 16
        E 199 89 26 40 -14
        E 1 89 29 40 16
        E 280 99 29 69 -21
        E 201 89 29 40 -21
        E 254 b9 04 00
        E 25 99 29 69 -12
        E 0 99 24 6e 32
        E 202 89 29 40 -12
        E 0 89 24 40 32
        E 20 b9 04 09
        E 258 99 24 43 -12
        E 0 99 29 69 -4
        E 0 99 24 1f 79
        E 89 89 24 40 -12
        E 111 89 29 40 -4
        E 1 89 24 40 79
        E 279 99 26 7f -2
        E 0 99 29 69 24
        E 150 b9 04 00
        E 50 89 26 40 -2
        E 2 89 29 40 24
        E 278 99 29 69 -31
        E 16 b9 04 0f
        E 166 b9 04 15
        E 21 89 29 40 -31
        E 37 99 30 77 -70
        E 159 b9 04 0f
        E 42 89 30 40 -70
        E 39 99 24 7f -104
        E 0 99 2d 6d -15
        E 44 b9 04 20
        E 149 b9 04 29
        E 7 89 2d 40 -15
        E 2 89 24 40 -104
        E 38 99 30 61 -86
        E 0 99 30 1e 9
        E 91 89 30 40 -86
        E 92 b9 04 18
        E 17 89 30 40 9
        E 40 99 24 60 -114
        E 0 99 2d 6d -50
        E 178 b9 04 0f
        E 22 89 24 40 -114
        E 0 89 2d 40 -50
        E 198 b9 04 09
        E 82 90 38 7f
        E 0 99 26 7f -70
        E 0 99 29 69 -27
        E 157 b9 04 03
        E 45 89 26 40 -70
        E 0 89 29 40 -27
        E 30 b9 04 00
        E 8 80 38 00
        E 240 99 29 5b -26
        E 124 b9 04 09
        E 76 89 29 40 -26
        E 280 99 29 69 -18
        E 0 99 24 7f -15
        E 200 89 29 40 -18
        E 1 89 24 40 -15
        E 48 b9 04 0f
        E 231 99 24 4c -25
        E 0 99 29 69 -8
        E 0 99 24 1e 81
        E 104 89 24 40 -25
        E 96 89 29 40 -8
        E 0 89 24 40 81
        E 80 b9 04 09
        E 200 99 26 7f -64
        E 0 99 29 69 -4
        E 106 b9 04 03
        E 94 89 26 40 -64
        E 2 89 29 40 -4
        E 10 b9 04 00
        E 268 99 29 69 -28
        E 97 b9 04 0f
        E 103 89 29 40 -28
        E 40 99 30 60 -64
        E 200 89 30 40 -64
        E 40 99 24 7f -36
        E 0 99 2d 6d -12
        E 115 b9 04 1d
        E 85 89 2d 40 -12
        E 2 89 24 40 -36
        E 38 99 30 42 -86
        E 201 89 30 40 -86
        E 39 99 24 69 -60
        E 0 99 2d 6d -58
        E 101 b9 04 12
        E 101 89 24 40 -60
        E 0 89 2d 40 -58
        E 230 b9 04 0c
        E 48 90 37 7f
        E 0 99 26 7f -92
        E 0 99 29 69 -24
        E 116 b9 04 03
        E 9 b9 04 00
        E 75 89 26 40 -92
        E 2 89 29 40 -24
        E 38 80 37 00
        E 240 99 29 69 -44
        E 120 b9 04 09
        E 80 89 29 40 -44
        E 280 99 29 69 -41
        E 0 99 24 7c -4
        E 200 89 29 40 -41
        E 2 89 24 40 -4
        E 278 99 29 69 -46
        E 0 99 24 47 -34
        E 0 99 24 1d 56
        E 88 89 24 40 -34
        E 112 89 29 40 -46
        E 0 89 24 40 56
        E 280 99 26 7f -21
        E 0 99 29 69 3
        E 36 b9 04 00
        E 165 89 26 40 -21
        E 0 89 29 40 3
        E 279 99 29 69 -36
        E 0 99 29 18 59
        E 63 b9 04 0f
        E 31 89 29 40 -36
        E 105 89 29 40 59
        E 41 99 30 6f -55
        E 201 89 30 40 -55
        E 39 99 24 7f -66
        E 0 99 2d 6d -7
        E 191 b9 04 1d
        E 11 89 24 40 -66
        E 1 89 2d 40 -7
        E 37 99 30 66 -35
        E 0 99 30 29 44
        E 76 89 30 40 -35
        E 35 b9 04 22
        E 91 89 30 40 44
        E 38 99 24 66 -56
        E 0 99 2d 6d -50
        E 56 b9 04 18
        E 142 b9 04 0f
        E 1 89 2d 40 -50
        E 2 89 24 40 -56
        E 160 b9 04 09
        E 119 99 26 7f -56
        E 0 99 29 69 -2
        E 200 89 29 40 -2
        E 1 89 26 40 -56
        E 89 b9 04 00
        E 190 99 29 65 -29
        E 177 b9 04 06
        E 25 89 29 40 -29
        E 278 99 29 69 -13
        E 0 99 24 7f 29
        E 201 89 29 40 -13
        E 0 89 24 40 29
        E 279 99 29 69 -14
        E 0 99 24 4d 6
        E 0 99 24 1e 94
        E 86 89 24 40 6
        E 113 89 24 40 94
        E 3 89 29 40 -14
        E 278 99 26 7f -4
        E 0 99 29 69 17
        E 133 b9 04 00
        E 70 89 29 40 17
        E 1 89 26 40 -4
        E 276 99 29 69 -6
        E 96 b9 04 0c
        E 104 89 29 40 -6
        E 40 99 30 77 -45
        E 28 b9 04 12
        E 175 89 30 40 -45
        E 13 b9 04 09
        E 24 99 24 7f -50
        E 0 99 2d 6d 34
        E 178 b9 04 12
        E 22 89 2d 40 34
        E 2 89 24 40 -50
        E 38 99 30 5a
        E 104 b9 04 18
        E 98 89 30 40
        E 38 99 24 6a -47
        E 0 99 2d 6d -24
        E 158 b9 04 0f
        E 42 89 2d 40 -24
        E 3 89 24 40 -47
        E 219 b9 04 06
        E 58 99 26 78 -29
        E 0 99 29 69 8
        E 0 99 2e 7f
        E 81 b9 04 00
        E 35 b9 04 12
        E 8 b9 04 25
        E 6 b9 04 36
        E 44 b9 04 46
        E 20 b9 04 4c
        E 6 89 2e 40
        E 2 89 29 40 8
        E 1 89 26 40 -29
        E 277 99 2c 0c
        E 0 99 29 69 -2
        E 44 b9 04 4d
        E 42 b9 04 3c
        E 38 b9 04 2c
        E 18 b9 04 0c
        E 59 89 2c 40
        E 0 89 29 40 -2
        E 279 99 29 69 9
        E 0 99 24 7f 38
        E 44 b9 04 06
        E 157 89 29 40 9
        E 0 89 24 40 38
        E 279 99 24 47 -14
        E 0 99 29 69 18
        E 199 89 24 40 -14
        E 1 89 29 40 18
        E 280 99 26 7f -6
        E 0 99 29 69 35
        E 126 b9 04 00
        E 73 89 26 40 -6
        E 2 89 29 40 35
        E 279 99 29 69 -24
        E 94 b9 04 09
        E 105 89 29 40 -24
        E 41 99 30 6b -35
        E 203 89 30 40 -35
        E 37 99 24 7f -90
        E 0 99 2d 6d 6
        E 147 b9 04 15
        E 52 89 2d 40 6
        E 5 89 24 40 -90
        E 36 99 30 61 -12
        E 66 b9 04 1a
        E 136 89 30 40 -12
        E 38 99 24 66 -85
        E 0 99 2d 6d -31
        E 110 b9 04 12
        E 91 89 2d 40 -31
        E 1 89 24 40 -85
        E 177 b9 04 0c
        E 101 90 3a 7f
        E 0 99 26 7f -24
        E 0 99 29 69 3
        E 156 b9 04 03
        E 45 89 26 40 -24
        E 0 89 29 40 3
        E 39 80 3a 00
        E 8 b9 04 00
        E 232 99 29 69 -1
        E 176 b9 04 09
        E 26 89 29 40 -1
        E 278 99 29 69 -1
        E 0 99 24 7f 29
        E 202 89 29 40 -1
        E 1 89 24 40 29
        E 277 99 24 49 -16
        E 0 99 29 69 -4
        E 199 89 24 40 -16
        E 2 89 29 40 -4
        E 279 99 26 7f -24
        E 0 99 29 69 10
        E 199 89 29 40 10
        E 3 89 26 40 -24
        E 18 b9 04 00
        E 260 99 29 69 -18
        E 48 b9 04 0c
        E 151 89 29 40 -18
        E 13 b9 04 12
        E 28 99 30 77 -53
        E 197 b9 04 09
        E 3 89 30 40 -53
        E 40 99 24 7f -51
        E 0 99 2d 7f
        E 146 b9 04 15
        E 54 89 2d 40
        E 3 89 24 40 -51
        E 37 99 30 6c -11
        E 0 99 30 3b 46
        E 53 89 30 40 -11
        E 11 b9 04 1d
        E 133 89 30 40 46
        E 43 99 24 5e -56
        E 0 99 2d 7f -38
        E 143 b9 04 15
        E 56 89 2d 40 -38
        E 3 89 24 40 -56
        E 175 b9 04 09
        E 103 99 26 78 -64
        E 0 99 29 7f -16
        E 200 89 26 40 -64
        E 0 89 29 40 -16
        E 4 b9 04 00
        E 276 99 29 7f -19
        E 196 b9 04 06
        E 7 89 29 40 -19
        E 277 99 29 7f -4
        E 0 99 24 7f 41
        E 199 89 29 40 -4
        E 1 89 24 40 41
        E 280 99 24 43 -32
        E 0 99 29 7f -5
        E 200 89 24 40 -32
        E 0 89 29 40 -5
        E 280 99 26 7f -49
        E 0 99 29 7f
        E 112 b9 04 00
        E 88 89 29 40
        E 2 89 26 40 -49
        E 278 99 29 7f
        E 109 b9 04 0c
        E 91 89 29 40
        E 40 99 30 71 -81
        E 0 99 30 21 41
        E 121 89 30 40 -81
        E 79 89 30 40 41
        E 35 b9 04 03
        E 5 99 24 7f -42
        E 0 99 2d 7f 12
        E 171 b9 04 0f
        E 28 89 24 40 -42
        E 0 89 2d 40 12
        E 41 99 30 4f -47
        E 0 99 30 30 29
        E 72 89 30 40 -47
        E 127 89 30 40 29
        E 41 99 24 4e -76
        E 0 99 2d 7f -24
        E 202 89 2d 40 -24
        E 1 89 24 40 -76
        E 37 99 30 5c -16
        E 202 89 30 40 -16
        E 38 99 29 2f -39
        E 0 99 2d 7f -31
        E 200 89 2d 40 -31
        E 2 89 29 40 -39
        E 28 b9 04 03
        E 31 b9 04 00
        E 219 99 29 7f -23
        E 154 b9 04 06
        E 47 89 29 40 -23
        E 39 99 26 6b -34
        E 80 b9 04 00
        E 119 89 26 40 -34
        E 41 99 29 7f 11
        E 0 99 24 5a 43
        E 0 99 29 4e 86
        E 71 89 29 40 11
        E 126 89 29 40 86
        E 3 89 24 40 43
        E 40 99 26 5f -18
        E 0 99 26 25 74
        E 41 b9 04 0c
        E 49 89 26 40 -18
        E 112 89 26 40 74
        E 38 99 24 4b -24
        E 0 99 29 1d 13
        E 0 99 2d 7f 19
        E 197 b9 04 18
        E 2 89 24 40 -24
        E 4 89 29 40 13
        E 2 89 2d 40 19
        E 35 99 30 59 -18
        E 0 99 30 37 47
        E 63 89 30 40 -18
        E 137 89 30 40 47
        E 40 99 33 77 -53
        E 0 99 33 2b 104
        E 155 89 33 40 -53
        E 44 89 33 40 104
        E 41 99 26 53 -81
        E 128 b9 04 0f
        E 74 89 26 40 -81
        E 38 99 26 7f -40
        E 200 89 26 40 -40
        E 40 99 26 4f -69
        E 200 89 26 40 -69
        E 40 99 26 7f -37
        E 205 89 26 40 -37
        E 35 99 26 44 -29
        E 202 89 26 40 -29
        E 38 99 26 7f -36
        E 204 89 26 40 -36
        E 36 99 26 53 -21
        E 201 89 26 40 -21
        E 39 99 26 7f -15
        E 201 89 26 40 -15
        E 39 99 26 48 -40
        E 199 89 26 40 -40
        E 41 99 26 76 -19
        E 190 89 26 40 -19
        E 50 99 26 4a -67
        E 200 89 26 40 -67
        E 40 99 26 7f -17
        E 169 b9 04 15
        E 32 89 26 40 -17
        E 39 99 26 72 -35
        E 203 89 26 40 -35
        E 37 99 26 65 41
        E 203 89 26 40 41
        E 37 99 24 41 -120
        E 0 99 24 22 -27
        E 0 99 26 3f 88
        E 91 89 24 40 -120
        E 24 b9 04 1d
        E 37 89 26 40 88
        E 49 89 24 40 -27
        E 39 99 26 5d 1
        E 201 89 26 40 1
        E 39 99 26 47 -31
        E 8 b9 04 27
        E 195 89 26 40 -31
        E 37 99 26 7f 27
        E 151 b9 04 1a
        E 50 89 26 40 27
        E 39 99 24 67 -62
        E 0 99 26 46 24
        E 0 99 24 28 37
        E 97 89 24 40 -62
        E 103 89 26 40 24
        E 0 89 24 40 37
        E 40 99 26 7f 47
        E 110 89 26 40 47
        E 130 99 26 2a -81
        E 0 99 26 54 65
        E 144 89 26 40 -81
        E 56 89 26 40 65
        E 6 b9 04 20
        E 34 99 26 7a 79
        E 0 99 24 4f 97
        E 146 89 24 40 97
        E 46 89 26 40 79
        E 27 b9 04 1a
        E 21 99 24 20 5
        E 0 99 26 56 33
        E 201 89 24 40 5
        E 0 89 26 40 33
        E 39 99 26 6d 80
        E 179 89 26 40 80
        E 61 99 26 39 21
        E 0 99 26 21 91
        E 68 89 26 40 21
        E 132 89 26 40 91
        E 40 99 26 72 55
        E 0 99 24 3f 109
        E 174 89 26 40 55
        E 27 89 24 40 109
        E 39 99 26 3a -9
        E 0 99 26 20 72
        E 0 99 24 14 111
        E 81 89 26 40 -9
        E 118 89 26 40 72
        E 3 89 24 40 111
        E 35 b9 04 25
        E 3 99 26 6c 40
        E 159 b9 04 30
        E 18 89 26 40 40
        E 63 99 26 3e -21
        E 0 99 26 26 47
        E 0 99 2c 04 117
        E 44 b9 04 41
        E 22 89 26 40 -21
        E 49 b9 04 4c
        E 32 b9 04 51
        E 53 89 26 40 47
        E 0 89 2c 40 117
        E 40 99 24 7f 9
        E 0 99 31 7f 81
        E 27 b9 04 5d
        E 175 89 31 40 81
        E 1 89 24 40 9
        E 166 b9 04 64
        E 122 b9 04 54
        E 24 b9 04 44
        E 22 b9 04 34
        E 18 b9 04 22
        E 24 b9 04 12
        E 28 b9 04 00
        E 8428 b0 7b 00
        GUID {B47AA600-2DBD-4449-89A2-01832EFAA2CC}
        IGNTEMPO 0 120 4 4
        SRCCOLOR 151
        VELLANE -1 100 0
        CFGEDITVIEW 329854.512472 0.074447 59 12 0 -1 0 0 0 0.5
        KEYSNAP 0
        TRACKSEL -252
        EVTFILTER 0 -1 -1 -1 -1 0 0 0 0 -1 -1 -1 -1 0 -1 0 -1 -1
        CFGEDIT 1 1 0 1 0 0 1 1 1 1 1 0.25 320 95 2496 860 0 0 0 0 0 0 0 0 0 0.5 0 0 1 64
      >
    >
    <ITEM
      POSITION 69.12000000001399
      SNAPOFFS 0
      LENGTH 30.72
      LOOP 1
      ALLTAKES 0
      FADEIN 1 0 0 1 0 0
      FADEOUT 1 0 0 1 0 0
      MUTE 0
      SEL 0
      IGUID {4F71912A-0B45-4E78-B398-596455CB1AF2}
      IID 5
      NAME "02-EZdrummer-Recorded MIDI"
      VOLPAN 1 0 1 -1
      SOFFS 133.92 279
      PLAYRATE 1 1 0 -1 0 0.0025
      CHANMODE 0
      GUID {13BCF2BF-A5C8-4828-B391-33DE1FACC4C1}
      RECPASS 2
      <SOURCE MIDI
        HASDATA 1 960 QN
        POOLEDEVTS {3BDCF6ED-4513-4784-A46C-EBC9C3A97132}
        E 15360 99 24 4a 32
        E 0 99 29 5a 50
        E 90 89 24 40 32
        E 112 89 29 40 50
        E 38 99 24 21 -116
        E 200 89 24 40 -116
        E 40 99 29 51 16
        E 200 89 29 40 16
        E 280 99 26 7f 24
        E 0 99 29 7f 46
        E 200 89 26 40 24
        E 0 89 29 40 46
        E 280 99 29 57 -4
        E 200 89 29 40 -4
        E 280 99 29 66 19
        E 0 99 24 51 38
        E 200 89 24 40 38
        E 1 89 29 40 19
        E 279 99 29 5a 2
        E 0 99 24 3b 34
        E 198 89 24 40 34
        E 4 89 29 40 2
        E 38 99 24 1a -6
        E 198 89 24 40 -6
        E 42 99 29 6b 59
        E 0 99 26 6c 60
        E 199 89 29 40 59
        E 1 89 26 40 60
        E 280 99 29 6a 36
        E 200 89 29 40 36
        E 280 99 29 78 74
        E 0 99 24 49 88
        E 146 89 24 40 88
        E 54 89 29 40 74
        E 40 99 24 20 -5
        E 201 89 24 40 -5
        E 39 99 29 4f 40
        E 202 89 29 40 40
        E 278 99 26 7e 32
        E 0 99 29 7e 50
        E 199 89 26 40 32
        E 1 89 29 40 50
        E 280 99 29 4d 20
        E 200 89 29 40 20
        E 280 99 29 7b 14
        E 0 99 24 53 18
        E 200 89 29 40 14
        E 2 89 24 40 18
        E 278 99 24 40 -10
        E 0 99 29 72 8
        E 182 89 24 40 -10
        E 18 89 29 40 8
        E 40 99 24 20 -66
        E 200 89 24 40 -66
        E 40 99 26 7d 26
        E 0 99 29 7b 38
        E 200 89 26 40 26
        E 0 89 29 40 38
        E 280 99 29 69 11
        E 201 89 29 40 11
        E 279 99 24 51 36
        E 0 99 29 77 44
        E 200 89 24 40 36
        E 0 89 29 40 44
        E 280 99 24 35 -116
        E 0 99 24 14 8
        E 0 99 29 68 14
        E 122 89 24 40 -116
        E 76 89 24 40 8
        E 2 89 29 40 14
        E 280 99 26 78 20
        E 0 99 29 7c 38
        E 202 89 26 40 20
        E 2 89 29 40 38
        E 276 99 29 5d 49
        E 203 89 29 40 49
        E 277 99 24 4a 60
        E 0 99 29 7f 76
        E 168 89 24 40 60
        E 32 89 29 40 76
        E 40 99 24 21 -10
        E 198 89 24 40 -10
        E 42 99 29 63 26
        E 202 89 29 40 26
        E 278 99 26 7f 68
        E 0 99 29 7f 76
        E 200 89 26 40 68
        E 0 89 29 40 76
        E 280 99 29 5b 56
        E 198 89 29 40 56
        E 282 99 29 67 56
        E 0 99 24 4f 58
        E 200 89 29 40 56
        E 0 89 24 40 58
        E 280 99 24 3b -44
        E 0 99 29 62 28
        E 0 99 24 1a 75
        E 118 89 24 40 -44
        E 82 89 29 40 28
        E 3 89 24 40 75
        E 277 99 26 7f 40
        E 0 99 29 7f 58
        E 202 89 26 40 40
        E 2 89 29 40 58
        E 276 99 29 5c 50
        E 200 89 29 40 50
        E 280 99 24 4b 54
        E 0 99 29 73 60
        E 156 89 24 40 54
        E 44 89 29 40 60
        E 40 99 24 1b -30
        E 200 89 24 40 -30
        E 40 99 29 66 28
        E 202 89 29 40 28
        E 278 99 26 76 30
        E 0 99 29 7f 68
        E 200 89 26 40 30
        E 2 89 29 40 68
        E 278 99 29 75 43
        E 201 89 29 40 43
        E 279 99 24 51 70
        E 0 99 29 7f 74
        E 200 89 24 40 70
        E 0 89 29 40 74
        E 280 99 24 44 40
        E 0 99 29 6e 50
        E 184 89 24 40 40
        E 16 89 29 40 50
        E 40 99 24 1d -14
        E 200 89 24 40 -14
        E 40 99 26 76 62
        E 0 99 29 7f 84
        E 200 89 26 40 62
        E 2 89 29 40 84
        E 278 99 29 7f 74
        E 200 89 29 40 74
        E 280 99 24 4b 98
        E 0 99 29 7f 104
        E 200 89 24 40 98
        E 0 89 29 40 104
        E 280 99 24 3d 62
        E 0 99 29 6e 100
        E 184 89 24 40 62
        E 16 89 29 40 100
        E 40 99 24 24 8
        E 200 89 24 40 8
        E 40 99 29 7c 108
        E 0 99 26 5f 116
        E 200 89 29 40 108
        E 0 89 26 40 116
        E 280 99 29 74 118
        E 200 89 29 40 118
        E 520 99 29 7f -106
        E 0 99 24 4c -86
        E 0 99 24 1c 66
        E 150 89 24 40 -86
        E 47 89 24 40 66
        E 5 89 29 40 -106
        E 38 99 29 66 80
        E 200 89 29 40 80
        E 280 99 29 7f 94
        E 0 99 26 7c 99
        E 200 89 29 40 94
        E 1 89 26 40 99
        E 279 99 29 67 62
        E 200 89 29 40 62
        E 280 99 29 7f 36
        E 0 99 24 4c 86
        E 200 89 29 40 36
        E 0 89 24 40 86
        E 280 99 29 7a 56
        E 0 99 24 3d 60
        E 176 89 24 40 60
        E 26 89 29 40 56
        E 38 99 24 1e -2
        E 200 89 24 40 -2
        E 40 99 26 7b 92
        E 0 99 29 7f 96
        E 200 89 29 40 96
        E 2 89 26 40 92
        E 278 99 29 65 102
        E 198 89 29 40 102
        E 282 99 24 49 94
        E 0 99 29 77 104
        E 200 89 24 40 94
        E 0 89 29 40 104
        E 280 99 24 3b 62
        E 0 99 29 6d 110
        E 200 89 24 40 62
        E 2 89 29 40 110
        E 278 99 24 0d -80
        E 0 99 26 69 106
        E 200 89 24 40 -80
        E 0 89 26 40 106
        E 40 99 29 7f -112
        E 200 89 29 40 -112
        E 40 99 29 7f 98
        E 200 89 29 40 98
        E 280 99 24 48 102
        E 0 99 29 7b 108
        E 200 89 24 40 102
        E 0 89 29 40 108
        E 280 99 24 39 36
        E 0 99 29 74 102
        E 156 89 24 40 36
        E 44 89 29 40 102
        E 40 99 24 18 -48
        E 202 89 24 40 -48
        E 38 99 26 7d 100
        E 200 89 26 40 100
        E 40 99 29 7f -114
        E 201 89 29 40 -114
        E 39 99 29 70 88
        E 200 89 29 40 88
        E 40 99 26 36 -46
        E 200 89 26 40 -46
        E 40 99 24 51 20
        E 0 99 29 71 44
        E 141 89 24 40 20
        E 59 89 29 40 44
        E 40 99 24 1d -76
        E 198 89 24 40 -76
        E 42 99 29 78 60
        E 200 89 29 40 60
        E 280 99 26 7f 79
        E 0 99 29 7f 102
        E 201 89 26 40 79
        E 0 89 29 40 102
        E 279 99 29 53 84
        E 200 89 29 40 84
        E 280 99 24 4d 52
        E 0 99 29 7f 60
        E 166 89 24 40 52
        E 38 89 29 40 60
        E 36 99 24 18 -20
        E 200 89 24 40 -20
        E 40 99 24 1c -8
        E 0 99 29 71 66
        E 199 89 24 40 -8
        E 1 89 29 40 66
        E 280 99 26 7f 38
        E 0 99 29 7f 74
        E 200 89 26 40 38
        E 0 89 29 40 74
        E 280 99 29 7f 58
        E 202 89 29 40 58
        E 38 99 30 7f 18
        E 112 89 30 40 18
        E 128 99 30 1f -108
        E 0 99 2d 7f 20
        E 0 99 24 53 22
        E 200 89 2d 40 20
        E 2 89 30 40 -108
        E 0 89 24 40 22
        E 278 99 29 7f 14
        E 200 89 29 40 14
        E 280 99 26 7f -29
        E 0 99 29 7f 12
        E 201 89 26 40 -29
        E 0 89 29 40 12
        E 279 99 29 59 22
        E 202 89 29 40 22
        E 278 99 24 4d
        E 0 99 29 7f 6
        E 200 89 24 40
        E 0 89 29 40 6
        E 280 99 24 3a
        E 0 99 29 7f 12
        E 154 89 24 40
        E 46 89 29 40 12
        E 40 99 24 13 -84
        E 200 89 24 40 -84
        E 40 99 26 7f 21
        E 0 99 29 7f 29
        E 201 89 26 40 21
        E 0 89 29 40 29
        E 279 99 29 78 24
        E 202 89 29 40 24
        E 278 99 24 4d 28
        E 0 99 29 7f 36
        E 199 89 29 40 36
        E 1 89 24 40 28
        E 280 99 24 3b -4
        E 0 99 29 7f 40
        E 199 89 29 40 40
        E 3 89 24 40 -4
        E 38 99 24 1e -26
        E 200 89 24 40 -26
        E 40 99 26 7f 49
        E 0 99 29 7f 66
        E 201 89 26 40 49
        E 1 89 29 40 66
        E 278 99 29 70 64
        E 200 89 29 40 64
        E 280 99 24 47 32
        E 0 99 29 7f 35
        E 199 89 24 40 32
        E 6 89 29 40 35
        E 275 99 24 3b -32
        E 0 99 29 6a 68
        E 199 89 24 40 -32
        E 1 89 29 40 68
        E 40 99 24 17 -59
        E 201 89 24 40 -59
        E 39 99 26 7f 60
        E 0 99 29 7f 68
        E 200 89 26 40 60
        E 0 89 29 40 68
        E 280 99 29 7f 19
        E 201 89 29 40 19
        E 39 99 30 7f 16
        E 0 99 24 4e 108
        E 90 89 24 40 108
        E 110 89 30 40 16
        E 40 99 24 27 -40
        E 0 99 2d 7f
        E 198 89 24 40 -40
        E 2 89 2d 40
        E 280 99 29 7f 5
        E 201 89 29 40 5
        E 279 99 26 7f 10
        E 0 99 29 7f 32
        E 199 89 26 40 10
        E 0 89 29 40 32
        E 281 99 29 7f 16
        E 200 89 29 40 16
        E 280 99 29 7f 41
        E 0 99 24 4e 52
        E 201 89 29 40 41
        E 1 89 24 40 52
        E 278 99 24 3d 14
        E 0 99 29 7f 30
        E 180 89 24 40 14
        E 20 89 29 40 30
        E 40 99 24 19 -45
        E 203 89 24 40 -45
        E 37 99 26 7f 4
        E 0 99 29 7f 22
        E 202 89 26 40 4
        E 0 89 29 40 22
        E 278 99 29 7f 26
        E 202 89 29 40 26
        E 278 99 29 7f 45
        E 0 99 24 50 53
        E 200 89 24 40 53
        E 1 89 29 40 45
        E 279 99 24 33 -29
        E 0 99 29 7f 49
        E 201 89 24 40 -29
        E 0 89 29 40 49
        E 279 99 29 7f 69
        E 0 99 26 7f 73
        E 201 89 26 40 73
        E 1 89 29 40 69
        E 278 99 29 78 68
        E 202 89 29 40 68
        E 278 99 29 7f 68
        E 0 99 24 50 72
        E 200 89 29 40 68
        E 0 89 24 40 72
        E 280 99 24 3d 58
        E 0 99 29 7f 63
        E 144 89 24 40 58
        E 57 89 29 40 63
        E 39 99 24 1a -36
        E 200 89 24 40 -36
        E 40 99 26 7f 74
        E 0 99 29 7f 82
        E 199 89 26 40 74
        E 3 89 29 40 82
        E 278 99 29 7f 39
        E 201 89 29 40 39
        E 39 99 30 7f 16
        E 200 89 30 40 16
        E 40 99 24 53 -66
        E 0 99 24 26 13
        E 0 99 2d 7f 25
        E 77 89 24 40 -66
        E 121 89 24 40 13
        E 3 89 2d 40 25
        E 279 99 2d 5a -86
        E 199 89 2d 40 -86
        E 281 99 29 7f -6
        E 0 99 26 7f -4
        E 200 89 29 40 -6
        E 0 89 26 40 -4
        E 280 99 29 7d -8
        E 199 89 29 40 -8
        E 281 99 24 53 11
        E 0 99 29 7f 28
        E 0 99 24 24 112
        E 99 89 24 40 11
        E 100 89 24 40 112
        E 1 89 29 40 28
        E 280 99 29 7f 23
        E 0 99 24 47 54
        E 134 89 24 40 54
        E 66 89 29 40 23
        E 40 99 24 1e -50
        E 200 89 24 40 -50
        E 40 99 26 7f 38
        E 0 99 29 7f 62
        E 200 89 29 40 62
        E 1 89 26 40 38
        E 279 99 29 7f 47
        E 201 89 29 40 47
        E 279 99 29 7f 66
        E 0 99 24 4b 76
        E 199 89 24 40 76
        E 1 89 29 40 66
        E 280 99 29 7f 52
        E 0 99 24 3a 70
        E 139 89 24 40 70
        E 61 89 29 40 52
        E 40 99 24 1b -28
        E 198 89 24 40 -28
        E 42 99 26 7b 68
        E 0 99 29 7f 84
        E 199 89 26 40 68
        E 1 89 29 40 84
        E 280 99 29 7f 90
        E 202 89 29 40 90
        E 278 99 24 50 42
        E 0 99 29 7f 62
        E 199 89 29 40 62
        E 1 89 24 40 42
        E 280 99 24 39 19
        E 0 99 29 7f 58
        E 171 89 24 40 19
        E 28 89 29 40 58
        E 41 99 24 1a -48
        E 200 89 24 40 -48
        E 40 99 26 7f 87
        E 0 99 29 7f 91
        E 201 89 26 40 87
        E 0 89 29 40 91
        E 279 99 29 7f 42
        E 200 89 29 40 42
        E 40 99 30 7f 9
        E 201 89 30 40 9
        E 39 99 24 52 -86
        E 0 99 24 24 -2
        E 0 99 2d 7f 14
        E 82 89 24 40 -86
        E 118 89 24 40 -2
        E 2 89 2d 40 14
        E 38 99 24 43 59
        E 201 89 24 40 59
        E 39 99 2d 7f -24
        E 200 89 2d 40 -24
        E 280 99 29 7f 3
        E 0 99 26 7b 7
        E 200 89 29 40 3
        E 1 89 26 40 7
        E 279 99 29 7c -10
        E 200 89 29 40 -10
        E 280 99 24 4c 20
        E 0 99 29 7f 30
        E 199 89 29 40 30
        E 1 89 24 40 20
        E 280 99 24 3e 22
        E 0 99 29 7f 46
        E 130 89 24 40 22
        E 70 89 29 40 46
        E 40 99 24 1c -86
        E 200 89 24 40 -86
        E 40 99 26 7f 21
        E 0 99 29 7f 52
        E 201 89 26 40 21
        E 1 89 29 40 52
        E 278 99 29 7f 28
        E 202 89 29 40 28
        E 278 99 29 7f 68
        E 0 99 24 4d 70
        E 116 89 24 40 70
        E 84 89 29 40 68
        E 40 99 24 1f -52
        E 199 89 24 40 -52
        E 41 99 29 72 56
        E 201 89 29 40 56
        E 225 b9 04 12
        E 54 99 26 64 58
        E 0 99 29 7f 78
        E 12 b9 04 22
        E 60 b9 04 32
        E 128 89 29 40 78
        E 2 89 26 40 58
        E 87 b9 04 22
        E 84 b9 04 12
        E 107 99 29 7f 48
        E 38 b9 04 09
        E 162 89 29 40 48
        E 23 b9 04 0f
        E 257 99 24 50 -25
        E 0 99 29 7f 46
        E 39 b9 04 03
        E 32 b9 04 00
        E 129 89 24 40 -25
        E 0 89 29 40 46
        E 280 99 29 68 59
        E 201 89 29 40 59
        E 279 99 26 7f 63
        E 0 99 29 7f 86
        E 200 89 29 40 86
        E 3 89 26 40 63
        E 277 99 29 7f 42
        E 201 89 29 40 42
        E 39 99 30 7f -11
        E 0 99 24 52 92
        E 79 89 24 40 92
        E 124 89 30 40 -11
        E 37 99 24 27 -67
        E 0 99 2d 7f
        E 192 b9 04 0f
        E 6 89 24 40 -67
        E 2 89 2d 40
        E 40 99 30 72 -34
        E 0 99 30 35 32
        E 62 89 30 40 -34
        E 137 89 30 40 32
        E 9 b9 04 00
        E 32 99 2d 7f -77
        E 0 99 24 54 111
        E 109 89 24 40 111
        E 91 89 2d 40 -77
        E 40 99 24 20 -18
        E 197 89 24 40 -18
        E 43 99 26 7f 6
        E 0 99 29 7f 14
        E 199 89 26 40 6
        E 0 89 29 40 14
        E 281 99 29 7d -9
        E 203 89 29 40 -9
        E 277 99 24 5c -21
        E 0 99 29 7f 3
        E 200 89 24 40 -21
        E 1 89 29 40 3
        E 279 99 24 43 10
        E 0 99 29 7f 12
        E 171 89 24 40 10
        E 26 89 29 40 12
        E 43 99 24 1d -54
        E 198 89 24 40 -54
        E 42 99 26 7f 3
        E 0 99 29 7f 26
        E 200 89 29 40 26
        E 1 89 26 40 3
        E 279 99 29 6e 27
        E 200 89 29 40 27
        E 280 99 24 4d 43
        E 0 99 29 7f 56
        E 201 89 24 40 43
        E 1 89 29 40 56
        E 278 99 24 40 -50
        E 0 99 29 7f 22
        E 0 99 24 1e 71
        E 119 89 24 40 -50
        E 80 89 29 40 22
        E 1 89 24 40 71
        E 280 99 26 6c 56
        E 0 99 29 7f 67
        E 199 89 26 40 56
        E 3 89 29 40 67
        E 278 99 29 7f 61
        E 201 89 29 40 61
        E 279 99 24 52 26
        E 0 99 29 7f 48
        E 199 89 29 40 48
        E 1 89 24 40 26
        E 280 99 24 43 -11
        E 0 99 29 7f 24
        E 170 89 24 40 -11
        E 31 89 29 40 24
        E 39 99 24 17 -79
        E 201 89 24 40 -79
        E 39 99 26 7f 10
        E 0 99 29 7f 38
        E 201 89 26 40 10
        E 0 89 29 40 38
        E 279 99 29 7f 35
        E 203 89 29 40 35
        E 37 99 30 7b -15
        E 0 99 24 53 91
        E 0 99 30 1f 99
        E 76 89 24 40 91
        E 36 89 30 40 -15
        E 87 89 30 40 99
        E 41 99 24 25 -70
        E 0 99 2d 7f 7
        E 199 89 24 40 -70
        E 1 89 2d 40 7
        E 280 99 29 7f 26
        E 0 99 24 4a 90
        E 93 89 24 40 90
        E 108 89 29 40 26
        E 39 99 24 1d -54
        E 197 89 24 40 -54
        E 43 99 24 30 -6
        E 0 99 29 7f 37
        E 0 99 26 7f 50
        E 199 89 26 40 50
        E 2 89 24 40 -6
        E 0 89 29 40 37
        E 279 99 29 7f 17
        E 200 89 29 40 17
        E 280 99 24 51 -31
        E 0 99 29 7f 17
        E 200 89 29 40 17
        E 1 89 24 40 -31
        E 279 99 24 3d 16
        E 0 99 29 7f 33
        E 145 89 24 40 16
        E 56 89 29 40 33
        E 39 99 24 1b -78
        E 200 89 24 40 -78
        E 40 99 26 7f 8
        E 0 99 29 7f 31
        E 199 89 26 40 8
        E 1 89 29 40 31
        E 280 99 29 7f 10
        E 200 89 29 40 10
        E 40 99 30 7f -27
        E 0 99 24 54 32
        E 87 89 24 40 32
        E 113 89 30 40 -27
        E 40 99 24 24 -118
        E 0 99 2d 7f 7
        E 197 89 24 40 -118
        E 6 89 2d 40 7
        E 37 99 24 47 -41
        E 0 99 24 1f 43
        E 83 89 24 40 -41
        E 117 89 24 40 43
        E 40 99 2d 60 -69
        E 200 89 2d 40 -69
        E 280 99 26 7f -9
        E 0 99 29 7f 26
        E 199 89 29 40 26
        E 1 89 26 40 -9
        E 280 99 29 7f 5
        E 200 89 29 40 5
        E 280 99 24 5a 8
        E 0 99 29 7f 32
        E 199 89 24 40 8
        E 0 89 29 40 32
        E 281 99 24 46 15
        E 0 99 29 7f 41
        E 148 89 24 40 15
        E 52 89 29 40 41
        E 40 99 24 1e -75
        E 198 89 24 40 -75
        E 42 99 26 7f -7
        E 0 99 29 7f 48
        E 200 89 29 40 48
        E 2 89 26 40 -7
        E 278 99 29 7f 43
        E 0 99 24 3b 101
        E 200 89 29 40 43
        E 0 89 24 40 101
        E 40 99 30 7f 87
        E 89 89 30 40 87
        E 151 99 30 2b -61
        E 0 99 24 5e 27
        E 0 99 2d 7f 79
        E 200 89 30 40 -61
        E 0 89 24 40 27
        E 0 89 2d 40 79
        E 206 b9 04 00
        E 28 b9 04 00
        E 46 99 1a 1a -73
        E 0 99 1a 42 -42
        E 0 99 30 7a -39
        E 0 99 2d 7f 21
        E 28 89 1a 40 -73
        E 169 89 1a 40 -42
        E 4 89 2d 40 21
        E 1 89 30 40 -39
        E 38 99 24 4d -107
        E 0 99 24 23 -27
        E 78 89 24 40 -107
        E 120 89 24 40 -27
        E 42 99 26 6f 42
        E 0 99 29 7f 45
        E 200 89 26 40 42
        E 2 89 29 40 45
        E 278 99 29 7f 55
        E 200 89 29 40 55
        E 280 99 29 7f 59
        E 0 99 24 56 99
        E 200 89 29 40 59
        E 0 89 24 40 99
        E 280 99 24 3a 35
        E 0 99 29 7f 46
        E 168 89 24 40 35
        E 33 89 29 40 46
        E 39 99 24 19 -37
        E 200 89 24 40 -37
        E 40 99 26 7f 15
        E 0 99 29 7f 63
        E 203 89 26 40 15
        E 0 89 29 40 63
        E 277 99 29 7f 65
        E 200 89 29 40 65
        E 40 99 26 4a -1
        E 200 89 26 40 -1
        E 40 99 24 56 -22
        E 0 99 29 7f 59
        E 199 89 24 40 -22
        E 2 89 29 40 59
        E 279 99 24 37 -69
        E 0 99 29 7f 65
        E 198 89 24 40 -69
        E 3 89 29 40 65
        E 39 99 24 16 -109
        E 201 89 24 40 -109
        E 39 99 26 7c 63
        E 0 99 29 7f 85
        E 200 89 26 40 63
        E 0 89 29 40 85
        E 280 99 29 7f 83
        E 200 89 29 40 83
        E 280 99 24 4d 91
        E 0 99 29 7f 107
        E 200 89 24 40 91
        E 0 89 29 40 107
        E 280 99 24 3c 31
        E 0 99 29 7f 105
        E 122 89 24 40 31
        E 78 89 29 40 105
        E 40 99 24 1c -87
        E 200 89 24 40 -87
        E 40 99 26 7f 107
        E 200 89 26 40 107
        E 40 99 29 7f -102
        E 199 89 29 40 -102
        E 281 99 29 7f -118
        E 0 99 30 7f 71
        E 199 89 29 40 -118
        E 3 89 30 40 71
        E 38 99 24 6c -5
        E 0 99 2d 7f 117
        E 200 89 24 40 -5
        E 0 89 2d 40 117
        E 280 99 24 43 -105
        E 0 99 2d 7f 81
        E 200 89 24 40 -105
        E 1 89 2d 40 81
        E 279 99 26 7f 54
        E 0 99 29 7f 95
        E 89 89 26 40 54
        E 114 89 29 40 95
        E 37 99 26 35 -95
        E 198 89 26 40 -95
        E 42 99 29 7f 91
        E 203 89 29 40 91
        E 277 99 29 7f 91
        E 0 99 24 4e 113
        E 200 89 29 40 91
        E 1 89 24 40 113
        E 279 99 29 7f 91
        E 0 99 24 3e 95
        E 158 89 24 40 95
        E 44 89 29 40 91
        E 38 99 24 1f 15
        E 198 89 24 40 15
        E 42 99 26 7f 67
        E 0 99 29 7f 95
        E 200 89 26 40 67
        E 1 89 29 40 95
        E 279 99 29 7f 91
        E 200 89 29 40 91
        E 280 99 24 50 71
        E 0 99 29 7f 89
        E 202 89 24 40 71
        E 0 89 29 40 89
        E 278 99 24 3e 10
        E 0 99 29 7f 101
        E 199 89 24 40 10
        E 1 89 29 40 101
        E 40 99 24 20 -6
        E 201 89 24 40 -6
        E 39 99 26 7e 110
        E 201 89 26 40 110
        E 39 99 29 7f -113
        E 200 89 29 40 -113
        E 280 99 29 7f -93
        E 200 89 29 40 -93
        E 40 99 24 4a 59
        E 0 99 29 7f 91
        E 200 89 24 40 59
        E 1 89 29 40 91
        E 39 99 24 31 113
        E 140 89 24 40 113
        E 100 99 24 0a 17
        E 0 99 29 7f 91
        E 198 89 24 40 17
        E 2 89 29 40 91
        E 280 99 26 7f 67
        E 0 99 29 7f 106
        E 199 89 29 40 106
        E 3 89 26 40 67
        E 278 99 29 7f 61
        E 200 89 29 40 61
        E 40 99 30 7f 32
        E 111 89 30 40 32
        E 129 99 30 25 -95
        E 0 99 24 58 -22
        E 0 99 2d 7f 65
        E 200 89 2d 40 65
        E 1 89 30 40 -95
        E 2 89 24 40 -22
        E 2 b9 04 03
        E 35 99 1a 27 -33
        E 0 99 30 6d 17
        E 0 99 30 28 102
        E 85 89 30 40 17
        E 48 b9 04 06
        E 66 89 30 40 102
        E 1 89 1a 40 -33
        E 40 99 2d 7f 20
        E 0 99 24 49 55
        E 17 b9 04 00
        E 71 89 24 40 55
        E 113 89 2d 40 20
        E 39 99 24 22 -97
        E 202 89 24 40 -97
        E 38 99 26 73 19
        E 0 99 29 7f 47
        E 200 89 26 40 19
        E 4 89 29 40 47
        E 276 99 29 7f 31
        E 200 89 29 40 31
        E 280 99 29 7f 31
        E 0 99 24 53 41
        E 200 89 29 40 31
        E 0 89 24 40 41
        E 280 99 24 3d 58
        E 0 99 29 7f 58
        E 149 89 24 40 58
        E 51 89 29 40 58
        E 40 99 24 1c -31
        E 200 89 24 40 -31
        E 40 99 26 78 45
        E 0 99 29 7f 63
        E 200 89 26 40 45
        E 0 89 29 40 63
        E 280 99 29 7f 47
        E 200 89 29 40 47
        E 40 99 2d 7f -23
        E 203 89 2d 40 -23
        E 37 99 24 5d 11
        E 0 99 2d 7f 15
        E 200 89 24 40 11
        E 2 89 2d 40 15
        E 278 99 2d 7f 23
        E 0 99 24 48 77
        E 184 89 24 40 77
        E 16 89 2d 40 23
        E 40 99 24 28 23
        E 200 89 24 40 23
        E 40 99 2d 7f -73
        E 0 99 26 65 103
        E 62 89 26 40 103
        E 138 89 2d 40 -73
        E 40 99 26 4b -70
        E 199 89 26 40 -70
        E 41 99 29 7f -83
        E 201 89 29 40 -83
        E 39 99 26 6e 100
        E 201 89 26 40 100
        E 39 99 29 7f 49
        E 200 89 29 40 49
        E 280 99 29 7f 99
        E 201 89 29 40 99
        E 39 99 24 37 -79
        E 203 89 24 40 -79
        E 37 99 24 47 55
        E 200 89 24 40 55
        E 40 99 26 6b -98
        E 0 99 29 7f -75
        E 199 89 26 40 -98
        E 1 89 29 40 -75
        E 280 99 29 7f -86
        E 199 89 29 40 -86
        E 281 99 24 4f -107
        E 0 99 29 7f -85
        E 200 89 24 40 -107
        E 0 89 29 40 -85
        E 40 99 24 30 91
        E 200 89 24 40 91
        E 40 99 29 75 -61
        E 200 89 29 40 -61
        E 280 99 24 3f -102
        E 0 99 29 7f -82
        E 201 89 24 40 -102
        E 0 89 29 40 -82
        E 279 99 29 4f -9
        E 200 89 29 40 -9
        E 4840 99 29 7f -6
        E 0 99 24 50 21
        E 201 89 29 40 -6
        E 1 89 24 40 21
        E 278 99 29 7f -55
        E 0 99 24 3a -47
        E 200 89 24 40 -47
        E 2 89 29 40 -55
        E 38 99 24 1e -79
        E 200 89 24 40 -79
        E 40 99 26 7f -59
        E 0 99 29 7f -21
        E 200 89 26 40 -59
        E 0 89 29 40 -21
        E 280 99 29 7f -73
        E 0 99 30 41 81
        E 200 89 29 40 -73
        E 0 89 30 40 81
        E 40 99 24 57 74
        E 199 89 24 40 74
        E 41 99 2d 7f -85
        E 202 89 2d 40 -85
        E 278 99 29 42 -119
        E 0 99 2d 18 -105
        E 200 89 29 40 -119
        E 2 89 2d 40 -105
        E 278 99 26 7f -89
        E 0 99 29 7f -69
        E 200 89 26 40 -89
        E 0 89 29 40 -69
        E 280 99 29 7f -79
        E 201 89 29 40 -79
        E 279 99 24 53 -77
        E 0 99 29 7f -49
        E 200 89 24 40 -77
        E 2 89 29 40 -49
        E 278 99 24 3b -101
        E 0 99 29 7f -55
        E 0 99 24 23 17
        E 116 89 24 40 -101
        E 84 89 29 40 -55
        E 0 89 24 40 17
        E 280 99 26 7f -69
        E 0 99 29 7f -30
        E 199 89 29 40 -30
        E 1 89 26 40 -69
        E 280 99 29 7f -37
        E 200 89 29 40 -37
        E 280 99 24 58 -83
        E 0 99 29 7f -35
        E 200 89 29 40 -35
        E 2 89 24 40 -83
        E 278 99 24 3d -103
        E 0 99 29 7f -17
        E 0 99 24 1f 15
        E 114 89 24 40 -103
        E 84 89 24 40 15
        E 2 89 29 40 -17
        E 280 99 29 7f -11
        E 200 89 29 40 -11
        E 280 99 29 7f 23
        E 200 89 29 40 23
        E 280 99 24 4c 35
        E 0 99 29 7f 69
        E 200 89 24 40 35
        E 0 89 29 40 69
        E 280 99 24 3d 17
        E 0 99 29 7f 83
        E 170 89 24 40 17
        E 32 89 29 40 83
        E 38 99 24 1d -51
        E 198 89 24 40 -51
        E 42 99 26 6c 89
        E 0 99 29 7f 105
        E 78 89 26 40 89
        E 122 89 29 40 105
        E 40 99 26 3d -73
        E 200 89 26 40 -73
        E 40 99 29 7f 47
        E 202 89 29 40 47
        E 38 99 30 7f -5
        E 200 89 30 40 -5
        E 40 99 24 5f -55
        E 0 99 2d 7f 39
        E 200 89 24 40 -55
        E 0 89 2d 40 39
        E 280 99 29 3d 1
        E 0 99 2d 1b 15
        E 202 89 29 40 1
        E 0 89 2d 40 15
        E 278 99 26 7f 29
        E 0 99 29 7f 53
        E 202 89 26 40 29
        E 0 89 29 40 53
        E 278 99 29 7f 41
        E 200 89 29 40 41
        E 280 99 24 56 39
        E 0 99 29 7f 53
        E 200 89 24 40 39
        E 0 89 29 40 53
        E 280 99 24 3d 49
        E 0 99 29 7f 93
        E 146 89 24 40 49
        E 54 89 29 40 93
        E 40 99 24 1f -43
        E 200 89 24 40 -43
        E 40 99 26 7f 39
        E 0 99 29 7f 85
        E 200 89 29 40 85
        E 2 89 26 40 39
        E 278 99 29 7f 71
        E 200 89 29 40 71
        E 280 99 24 4d 75
        E 0 99 29 7f 85
        E 200 89 24 40 75
        E 2 89 29 40 85
        E 278 99 29 7f 85
        E 0 99 24 3a 87
        E 190 89 24 40 87
        E 12 89 29 40 85
        E 38 99 24 19 41
        E 198 89 24 40 41
        E 42 99 26 7f 69
        E 0 99 29 7f 111
        E 200 89 29 40 111
        E 2 89 26 40 69
        E 278 99 29 7f 117
        E 200 89 29 40 117
        E 280 99 24 51 59
        E 0 99 29 7f 101
        E 200 89 29 40 101
        E 2 89 24 40 59
        E 278 99 24 37 22
        E 0 99 29 7f 74
        E 149 89 24 40 22
        E 50 89 29 40 74
        E 41 99 24 18 -67
        E 200 89 24 40 -67
        E 40 99 26 7b 65
        E 0 99 29 7f 103
        E 200 89 26 40 65
        E 0 89 29 40 103
        E 280 99 29 7f 59
        E 201 89 29 40 59
        E 39 99 30 7f -3
        E 200 89 30 40 -3
        E 40 99 24 62 -59
        E 0 99 2d 7f 47
        E 200 89 24 40 -59
        E 0 89 2d 40 47
        E 280 99 29 7f 65
        E 200 89 29 40 65
        E 40 99 26 7f -95
        E 202 89 26 40 -95
        E 38 99 29 7f 61
        E 200 89 29 40 61
        E 280 99 29 7f 73
        E 200 89 29 40 73
        E 280 99 24 5a 77
        E 0 99 29 7f 81
        E 200 89 24 40 77
        E 0 89 29 40 81
        E 280 99 24 45 55
        E 0 99 29 7f 89
        E 114 89 24 40 55
        E 88 89 29 40 89
        E 38 99 24 22 -69
        E 198 89 24 40 -69
        E 42 99 26 7f 19
        E 0 99 29 7f 66
        E 200 89 26 40 19
        E 1 89 29 40 66
        E 279 99 29 7f 61
        E 200 89 29 40 61
        E 280 99 24 52 23
        E 0 99 29 7f 67
        E 200 89 29 40 67
        E 2 89 24 40 23
        E 278 99 24 3d 33
        E 0 99 29 7f 63
        E 144 89 24 40 33
        E 56 89 29 40 63
        E 40 99 24 1f -61
        E 200 89 24 40 -61
        E 40 99 26 7c 53
        E 0 99 29 7f 107
        E 200 89 26 40 53
        E 0 89 29 40 107
        E 280 99 29 7f 91
        E 200 89 29 40 91
        E 280 99 24 56 87
        E 200 89 24 40 87
        E 40 99 29 7f -115
        E 200 89 29 40 -115
        E 40 99 24 3c 47
        E 0 99 29 7f 103
        E 144 89 24 40 47
        E 55 89 29 40 103
        E 41 99 24 19 -47
        E 200 89 24 40 -47
        E 40 99 26 7f 63
        E 0 99 29 7f 105
        E 200 89 26 40 63
        E 0 89 29 40 105
        E 280 99 29 7f 69
        E 181 b9 04 00
        E 19 89 29 40 69
        E 40 99 1a 34 -57
        E 0 99 30 77 -27
        E 200 89 1a 40 -57
        E 0 89 30 40 -27
        E 40 99 24 70 -45
        E 0 99 2d 7f 85
        E 200 89 24 40 -45
        E 0 89 2d 40 85
        E 40 99 24 49 113
        E 200 89 24 40 113
        E 40 99 2d 7f -3
        E 200 89 2d 40 -3
        E 280 99 26 7f 7
        E 0 99 29 7f 37
        E 200 89 26 40 7
        E 0 89 29 40 37
        E 280 99 29 7f 31
        E 200 89 29 40 31
        E 280 99 24 55 -33
        E 0 99 29 7f 31
        E 200 89 29 40 31
        E 2 89 24 40 -33
        E 278 99 24 40 -69
        E 0 99 29 7f 29
        E 200 89 29 40 29
        E 2 89 24 40 -69
        E 278 99 26 7c 9
        E 0 99 29 7f 49
        E 200 89 26 40 9
        E 1 89 29 40 49
        E 279 99 29 7f 59
        E 202 89 29 40 59
        E 278 99 24 53 57
        E 0 99 29 7f 79
        E 200 89 24 40 57
        E 0 89 29 40 79
        E 280 99 24 40 -11
        E 0 99 29 7f 61
        E 0 99 24 22 97
        E 108 89 24 40 -11
        E 92 89 29 40 61
        E 1 89 24 40 97
        E 279 99 26 75 17
        E 0 99 29 7f 75
        E 200 89 26 40 17
        E 4 89 29 40 75
        E 276 99 29 78 87
        E 200 89 29 40 87
        E 280 99 24 54 51
        E 0 99 29 7f 97
        E 104 89 24 40 51
        E 96 89 29 40 97
        E 40 99 24 21 -83
        E 198 89 24 40 -83
        E 42 99 29 7f 87
        E 200 89 29 40 87
        E 40 99 24 43 -109
        E 0 99 24 23 61
        E 168 89 24 40 -109
        E 32 89 24 40 61
        E 40 99 26 7f 83
        E 0 99 29 7f 111
        E 199 89 29 40 111
        E 5 89 26 40 83
        E 276 99 29 7f 71
        E 202 89 29 40 71
        E 38 99 30 7f -7
        E 200 89 30 40 -7
        E 40 99 24 67 -19
        E 0 99 2d 7f 89
        E 200 89 24 40 -19
        E 0 89 2d 40 89
        E 280 99 24 3c -81
        E 0 99 24 1e
        E 0 99 2d 7f 79
        E 80 89 24 40 -81
        E 120 89 2d 40 79
        E 1 89 24 40
        E 279 99 26 7f 43
        E 0 99 29 7f 77
        E 200 89 29 40 77
        E 2 89 26 40 43
        E 278 99 29 7f 61
        E 200 89 29 40 61
        E 280 99 29 7f 67
        E 0 99 24 55 95
        E 200 89 29 40 67
        E 0 89 24 40 95
        E 280 99 24 3e -5
        E 0 99 29 7f 73
        E 200 89 24 40 -5
        E 0 89 29 40 73
        E 280 99 26 7f 39
        E 0 99 29 7f 93
        E 200 89 26 40 39
        E 0 89 29 40 93
        E 280 99 29 7f 62
        E 201 89 29 40 62
        E 279 99 24 53 53
        E 0 99 29 7f 77
        E 200 89 24 40 53
        E 0 89 29 40 77
        E 280 99 24 3f 57
        E 0 99 29 7f 81
        E 156 89 24 40 57
        E 45 89 29 40 81
        E 39 99 24 1c -25
        E 202 89 24 40 -25
        E 38 99 26 7d 46
        E 0 99 29 7f 91
        E 201 89 26 40 46
        E 1 89 29 40 91
        E 278 99 29 7f 63
        E 200 89 29 40 63
        E 40 99 30 78 -17
        E 200 89 30 40 -17
        E 40 99 24 66 -43
        E 0 99 2d 7f 69
        E 201 89 2d 40 69
        E 1 89 24 40 -43
        E 38 99 24 3b 97
        E 202 89 24 40 97
        E 38 99 2d 7f 41
        E 204 89 2d 40 41
        E 276 99 26 7f -1
        E 0 99 29 7f 45
        E 199 89 29 40 45
        E 1 89 26 40 -1
        E 280 99 29 7f 35
        E 200 89 29 40 35
        E 280 99 24 55 25
        E 0 99 29 7f 27
        E 200 89 24 40 25
        E 2 89 29 40 27
        E 278 99 24 3d -23
        E 0 99 29 7f 21
        E 200 89 29 40 21
        E 2 89 24 40 -23
        E 278 99 26 7f -15
        E 0 99 29 7f 38
        E 200 89 29 40 38
        E 2 89 26 40 -15
        E 278 99 29 7f 25
        E 202 89 29 40 25
        E 278 99 29 7f 32
        E 0 99 24 50 38
        E 201 89 29 40 32
        E 0 89 24 40 38
        E 279 99 24 3c -13
        E 0 99 29 7f 26
        E 138 89 24 40 -13
        E 65 89 29 40 26
        E 37 99 24 1c -115
        E 200 89 24 40 -115
        E 40 99 26 7f 8
        E 0 99 29 7f 61
        E 201 89 29 40 61
        E 2 89 26 40 8
        E 277 99 29 7f 35
        E 200 89 29 40 35
        E 280 99 24 50 -1
        E 0 99 29 7f 60
        E 200 89 24 40 -1
        E 1 89 29 40 60
        E 279 99 24 37 -62
        E 0 99 29 7f 22
        E 201 89 24 40 -62
        E 4 89 29 40 22
        E 275 99 26 7f 13
        E 0 99 29 7f 59
        E 200 89 26 40 13
        E 2 89 29 40 59
        E 278 99 29 7f 23
        E 199 89 29 40 23
        E 41 99 30 7f -37
        E 202 89 30 40 -37
        E 38 99 24 62 -83
        E 0 99 2d 7f 55
        E 200 89 24 40 -83
        E 0 89 2d 40 55
        E 40 99 30 7e -37
        E 17 b9 04 06
        E 182 89 30 40 -37
        E 4 b9 04 00
        E 37 99 24 51 -91
        E 0 99 2d 7f 5
        E 200 89 24 40 -91
        E 0 89 2d 40 5
        E 280 99 26 7f -10
        E 0 99 29 7f 46
        E 201 89 29 40 46
        E 1 89 26 40 -10
        E 278 99 29 7f 5
        E 200 89 29 40 5
        E 280 99 24 55 31
        E 0 99 29 7f 37
        E 200 89 24 40 31
        E 0 89 29 40 37
        E 280 99 24 3e -31
        E 0 99 29 7f 10
        E 0 99 24 1d 99
        E 128 89 24 40 -31
        E 72 89 24 40 99
        E 1 89 29 40 10
        E 279 99 26 7f 5
        E 0 99 29 7f 51
        E 200 89 26 40 5
        E 0 89 29 40 51
        E 280 99 29 7f -7
        E 200 89 29 40 -7
        E 40 99 26 52 -105
        E 200 89 26 40 -105
        E 40 99 24 64 -22
        E 0 99 29 7f -12
        E 201 89 24 40 -22
        E 0 89 29 40 -12
        E 279 99 29 7f -3
        E 199 89 29 40 -3
        E 281 99 26 7f 9
        E 0 99 29 7f 35
        E 200 89 26 40 9
        E 2 89 29 40 35
        E 278 99 29 7f 19
        E 202 89 29 40 19
        E 278 99 29 7f 38
        E 0 99 24 57 45
        E 200 89 24 40 45
        E 1 89 29 40 38
        E 279 99 24 34 -53
        E 0 99 29 7f 45
        E 200 89 24 40 -53
        E 2 89 29 40 45
        E 278 99 26 7f 21
        E 0 99 29 7f 57
        E 200 89 26 40 21
        E 2 89 29 40 57
        E 278 99 29 7f 15
        E 200 89 29 40 15
        E 40 99 30 7c -45
        E 200 89 30 40 -45
        E 40 99 24 60 -65
        E 0 99 2d 7f 45
        E 200 89 24 40 -65
        E 2 89 2d 40 45
        E 38 99 30 7f -38
        E 200 89 30 40 -38
        E 40 99 24 4b -47
        E 0 99 2d 7f -11
        E 199 89 24 40 -47
        E 1 89 2d 40 -11
        E 280 99 26 7f 1
        E 0 99 29 7f 37
        E 200 89 26 40 1
        E 0 89 29 40 37
        E 280 99 29 7f 27
        E 199 89 29 40 27
        E 281 99 29 7f 25
        E 0 99 24 4f 59
        E 201 89 24 40 59
        E 1 89 29 40 25
        E 278 99 24 42 -15
        E 0 99 29 7f 26
        E 200 89 24 40 -15
        E 1 89 29 40 26
        E 279 99 26 7f 23
        E 0 99 29 7f 77
        E 200 89 26 40 23
        E 0 89 29 40 77
        E 280 99 29 7f 73
        E 200 89 29 40 73
        E 280 99 24 52 77
        E 0 99 29 7f 85
        E 200 89 24 40 77
        E 0 89 29 40 85
        E 280 99 24 3d 15
        E 0 99 29 7f 71
        E 0 99 24 1f 119
        E 104 89 24 40 15
        E 96 89 29 40 71
        E 0 89 24 40 119
        E 280 99 26 7f 25
        E 0 99 29 7f 65
        E 200 89 26 40 25
        E 0 89 29 40 65
        E 280 99 29 7f 49
        E 200 89 29 40 49
        E 40 99 28 58 -2
        E 0 99 28 2a 97
        E 97 89 28 40 -2
        E 103 89 28 40 97
        E 40 99 26 64 66
        E 0 99 24 49 75
        E 126 89 24 40 75
        E 75 89 26 40 66
        E 39 99 24 24 -37
        E 0 99 26 40 37
        E 96 89 26 40 37
        E 104 89 24 40 -37
        E 40 99 26 23 -105
        E 0 99 26 7e 49
        E 152 89 26 40 -105
        E 44 89 26 40 49
        E 44 99 26 66 7
        E 200 89 26 40 7
        E 40 99 26 78 28
        E 201 89 26 40 28
        E 39 99 26 61 17
        E 200 89 26 40 17
        E 40 99 26 7f 25
        E 200 89 26 40 25
        E 40 99 26 68 -9
        E 202 89 26 40 -9
        E 38 99 33 41 -15
        E 0 99 33 7f 30
        E 0 99 24 5f 89
        E 44 89 33 40 -15
        E 157 89 33 40 30
        E 1 89 24 40 89
        E 278 99 29 7f -29
        E 200 89 29 40 -29
        E 280 99 26 7f -23
        E 0 99 29 7f 20
        E 202 89 26 40 -23
        E 0 89 29 40 20
        E 278 99 29 7f 9
        E 200 89 29 40 9
        E 280 99 24 51 15
        E 0 99 29 7f 33
        E 200 89 24 40 15
        E 0 89 29 40 33
        E 280 99 29 7f 25
        E 200 89 29 40 25
        E 280 99 26 7f -7
        E 0 99 29 7f 45
        E 199 89 26 40 -7
        E 2 89 29 40 45
        E 279 99 29 7f 23
        E 200 89 29 40 23
        E 280 99 29 7f 35
        E 0 99 24 4e 45
        E 199 89 24 40 45
        E 1 89 29 40 35
        E 280 99 24 3d -59
        E 0 99 24 1d 33
        E 0 99 29 7f 41
        E 90 89 24 40 -59
        E 109 89 29 40 41
        E 2 89 24 40 33
        E 279 99 26 7f 34
        E 0 99 29 7f 79
        E 200 89 29 40 79
        E 3 89 26 40 34
        E 277 99 29 7f 65
        E 200 89 29 40 65
        E 280 99 24 51 36
        E 0 99 29 7f 59
        E 200 89 29 40 59
        E 1 89 24 40 36
        E 279 99 29 7f 52
        E 201 89 29 40 52
        E 279 99 26 7f 21
        E 0 99 29 7f 73
        E 199 89 26 40 21
        E 1 89 29 40 73
        E 280 99 29 7f 37
        E 200 89 29 40 37
        E 40 99 30 6d -38
        E 203 89 30 40 -38
        E 37 99 24 64 -78
        E 0 99 2d 7f 57
        E 200 89 2d 40 57
        E 1 89 24 40 -78
        E 39 99 30 5c -15
        E 35 b9 04 06
        E 165 89 30 40 -15
        E 40 99 24 51 -32
        E 0 99 2d 7f
        E 26 b9 04 00
        E 174 89 2d 40
        E 1 89 24 40 -32
        E 279 99 26 74 3
        E 0 99 29 7f 41
        E 199 89 26 40 3
        E 2 89 29 40 41
        E 279 99 29 7f 28
        E 200 89 29 40 28
        E 280 99 29 7f 51
        E 0 99 24 54 68
        E 199 89 29 40 51
        E 2 89 24 40 68
        E 279 99 24 41 13
        E 0 99 29 7f 55
        E 0 99 24 22 110
        E 94 89 24 40 13
        E 106 89 29 40 55
        E 1 89 24 40 110
        E 279 99 26 7f 29
        E 0 99 29 7f 71
        E 200 89 26 40 29
        E 0 89 29 40 71
        E 280 99 29 7f 52
        E 200 89 29 40 52
        E 280 99 24 4e 57
        E 0 99 29 7f 70
        E 200 89 24 40 57
        E 1 89 29 40 70
        E 279 99 29 7f 79
        E 199 89 29 40 79
        E 281 99 26 7f 63
        E 0 99 29 7f 84
        E 201 89 26 40 63
        E 0 89 29 40 84
        E 279 99 29 7f 67
        E 200 89 29 40 67
        E 2 b9 04 00
        E 38 99 1a 7f -36
        E 201 89 1a 40 -36
        E 14 b9 04 12
        E 25 99 24 56 -61
        E 0 99 24 28 35
        E 0 99 29 7f 45
        E 29 b9 04 22
        E 60 b9 04 32
        E 4 89 24 40 -61
        E 106 89 24 40 35
        E 0 89 29 40 45
        E 3 b9 04 22
        E 136 b9 04 12
        E 142 99 29 7f 62
        E 201 89 29 40 62
        E 279 99 26 7f 58
        E 0 99 29 7f 80
        E 200 89 26 40 58
        E 3 89 29 40 80
        E 202 b9 04 06
        E 75 99 29 7f 52
        E 201 89 29 40 52
        E 39 99 28 4a -11
        E 5 b9 04 00
        E 195 89 28 40 -11
        E 40 99 24 6b -38
        E 0 99 2d 7f 42
        E 201 89 24 40 -38
        E 0 89 2d 40 42
        E 39 99 30 7f -12
        E 12 b9 04 0f
        E 189 89 30 40 -12
        E 39 99 2d 7f 6
        E 0 99 24 4e 10
        E 98 b9 04 06
        E 104 89 2d 40 6
        E 1 89 24 40 10
        E 146 b9 04 00
        E 131 99 26 7f -46
        E 0 99 29 7f 11
        E 200 89 29 40 11
        E 3 89 26 40 -46
        E 277 99 29 7f -10
        E 199 b9 04 09
        E 2 89 29 40 -10
        E 279 99 24 58 7
        E 0 99 29 7f 10
        E 201 89 29 40 10
        E 1 89 24 40 7
        E 278 99 24 37 -94
        E 0 99 29 7f -4
        E 200 89 24 40 -94
        E 3 89 29 40 -4
        E 25 b9 04 00
        E 252 99 26 7f -35
        E 0 99 29 7f 32
        E 199 89 26 40 -35
        E 2 89 29 40 32
        E 279 99 29 7f -1
        E 0 99 26 21 109
        E 199 89 26 40 109
        E 3 89 29 40 -1
        E 278 99 24 55 10
        E 0 99 29 7f 14
        E 200 89 24 40 10
        E 3 89 29 40 14
        E 37 99 24 29 79
        E 202 89 24 40 79
        E 38 99 29 7f 26
        E 201 89 29 40 26
        E 279 99 26 7b -15
        E 0 99 29 7f 49
        E 200 89 26 40 -15
        E 0 89 29 40 49
        E 280 99 29 7f 22
        E 0 99 1a 7f 98
        E 96 b9 04 00
        E 104 89 1a 40 98
        E 1 89 29 40 22
        E 176 b9 04 12
        E 7 b9 04 25
        E 62 b9 04 36
        E 34 99 24 65 -45
        E 0 99 29 7f -5
        E 52 b9 04 46
        E 110 b9 04 36
        E 39 89 29 40 -5
        E 2 89 24 40 -45
        E 41 b9 04 25
        E 108 b9 04 18
        E 128 99 29 7f 34
        E 21 b9 04 0f
        E 180 89 29 40 34
        E 279 99 26 7f 51
        E 0 99 29 7f 70
        E 64 b9 04 09
        E 135 89 26 40 51
        E 1 89 29 40 70
        E 8 b9 04 00
        E 272 99 29 7f 9
        E 100 b9 04 09
        E 102 89 29 40 9
        E 38 99 30 7f -54
        E 0 99 24 6e 82
        E 25 b9 04 00
        E 175 89 24 40 82
        E 3 89 30 40 -54
        E 27 b9 04 12
        E 10 99 2d 7f 20
        E 128 b9 04 1d
        E 73 89 2d 40 20
        E 39 99 30 64 -37
        E 0 99 24 49 32
        E 116 b9 04 0f
        E 83 89 30 40 -37
        E 1 89 24 40 32
        E 40 99 2d 7f -14
        E 57 b9 04 06
        E 144 89 2d 40 -14
        E 65 b9 04 00
        E 214 99 26 7f -3
        E 0 99 29 7f 18
        E 200 89 29 40 18
        E 2 89 26 40 -3
        E 278 99 29 7f 11
        E 199 89 29 40 11
        E 24 b9 04 09
        E 257 99 24 5d -2
        E 0 99 29 7f 28
        E 200 89 29 40 28
        E 1 89 24 40 -2
        E 39 99 24 16 21
        E 202 89 24 40 21
        E 38 99 29 7f 10
        E 200 89 29 40 10
        E 40 99 24 23 -41
        E 173 b9 04 03
        E 4 b9 04 00
        E 22 89 24 40 -41
        E 41 99 26 7f 60
        E 0 99 29 7f 77
        E 200 89 26 40 60
        E 0 89 29 40 77
        E 280 99 29 7f 52
        E 200 89 29 40 52
        E 280 99 24 5c 70
        E 0 99 29 7f 99
        E 200 89 24 40 70
        E 1 89 29 40 99
        E 57 b9 04 12
        E 40 b9 04 22
        E 40 b9 04 32
        E 142 99 29 7f 95
        E 83 b9 04 22
        E 35 b9 04 12
        E 36 b9 04 00
        E 45 89 29 40 95
        E 281 99 2c 50 33
        E 0 99 26 7f 97
        E 0 99 29 7f 108
        E 18 b9 04 12
        E 4 b9 04 25
        E 4 b9 04 38
        E 2 b9 04 49
        E 2 b9 04 4f
        E 5 b9 04 5b
        E 35 b9 04 6c
        E 115 b9 04 5c
        E 15 89 2c 40 33
        E 2 89 26 40 97
        E 0 89 29 40 108
        E 4 b9 04 4c
        E 19 b9 04 3c
        E 31 b9 04 2c
        E 46 b9 04 1a
        E 124 b9 04 12
        E 54 99 29 7f 106
        E 201 89 29 40 106
        E 16 b9 04 20
        E 280 b9 04 0f
        E 67 b9 04 00
        E 156 99 29 7f -118
        E 0 99 24 64 -85
        E 96 b9 04 0c
        E 103 89 24 40 -85
        E 1 89 29 40 -118
        E 40 99 24 31 -10
        E 0 99 29 7f 118
        E 200 89 24 40 -10
        E 1 89 29 40 118
        E 279 99 26 7f 98
        E 121 b9 04 03
        E 10 b9 04 00
        E 69 89 26 40 98
        E 40 99 29 7f -117
        E 141 b9 04 12
        E 58 89 29 40 -117
        E 41 99 29 7f 83
        E 6 b9 04 00
        E 172 b9 04 12
        E 9 b9 04 22
        E 8 b9 04 32
        E 4 89 29 40 83
        E 7 b9 04 43
        E 4 b9 04 4c
        E 5 b9 04 54
        E 7 b9 04 65
        E 18 99 2c 1c -27
        E 0 99 30 5b -12
        E 15 b9 04 75
        E 62 b9 04 65
        E 18 b9 04 55
        E 11 b9 04 44
        E 11 b9 04 34
        E 8 b9 04 22
        E 12 b9 04 12
        E 11 b9 04 00
        E 52 89 2c 40 -27
        E 0 89 30 40 -12
        E 40 99 24 7f -1
        E 0 99 2d 7f 82
        E 149 b9 04 12
        E 1 b9 04 25
        E 3 b9 04 38
        E 2 b9 04 49
        E 2 b9 04 53
        E 5 b9 04 5a
        E 2 b9 04 6e
        E 10 b9 04 5d
        E 13 b9 04 6e
        E 12 89 24 40 -1
        E 1 89 2d 40 82
        E 40 99 2c 7a -81
        E 46 b9 04 5d
        E 12 b9 04 4c
        E 8 b9 04 3c
        E 11 b9 04 2c
        E 9 b9 04 1a
        E 12 b9 04 09
        E 6 b9 04 00
        E 94 89 2c 40 -81
        E 42 99 24 58 -42
        E 0 99 2d 7f 36
        E 110 b9 04 12
        E 11 b9 04 25
        E 17 b9 04 36
        E 15 b9 04 46
        E 3 b9 04 4c
        E 8 b9 04 56
        E 37 89 2d 40 36
        E 1 89 24 40 -42
        E 25 b9 04 46
        E 13 99 2c 12 -82
        E 15 b9 04 36
        E 186 89 2c 40 -82
        E 39 99 26 7f 57
        E 0 99 29 7f 104
        E 33 b9 04 2e
        E 67 b9 04 1d
        E 99 89 26 40 57
        E 1 89 29 40 104
        E 65 b9 04 0f
        E 142 b9 04 06
        E 73 99 29 7f 85
        E 199 89 29 40 85
        E 64 b9 04 12
        E 217 99 24 64 90
        E 0 99 29 7f 111
        E 41 b9 04 03
        E 6 b9 04 00
        E 153 89 29 40 111
        E 1 89 24 40 90
        E 279 99 24 3d 29
        E 201 89 24 40 29
        E 39 99 29 7f -119
        E 200 89 29 40 -119
        E 40 99 26 7e 75
        E 200 89 26 40 75
        E 40 99 29 7f -113
        E 199 89 29 40 -113
        E 41 99 29 7f 108
        E 200 89 29 40 108
        E 520 99 29 7f -106
        E 0 99 24 72 -96
        E 200 89 29 40 -106
        E 1 89 24 40 -96
        E 39 99 24 3b 61
        E 73 89 24 40 61
        E 167 99 24 19 -102
        E 0 99 29 7f -100
        E 51 b9 04 06
        E 148 89 24 40 -102
        E 3 89 29 40 -100
        E 146 b9 04 00
        E 132 99 26 7f -107
        E 0 99 29 7f -98
        E 200 89 26 40 -107
        E 3 89 29 40 -98
        E 37 99 29 7f 118
        E 200 89 29 40 118
        E 280 99 29 7f 100
        E 0 99 24 60 107
        E 202 89 29 40 100
        E 0 89 24 40 107
        E 278 99 29 7f 70
        E 200 89 29 40 70
        E 280 99 26 7f 29
        E 0 99 29 7f 56
        E 201 89 26 40 29
        E 0 89 29 40 56
        E 279 99 29 7f 44
        E 182 b9 04 09
        E 18 89 29 40 44
        E 40 99 30 5c -34
        E 200 89 30 40 -34
        E 40 99 24 7f -45
        E 0 99 2d 7f 52
        E 109 b9 04 1a
        E 91 89 2d 40 52
        E 2 89 24 40 -45
        E 38 99 30 79 -38
        E 59 b9 04 27
        E 141 89 30 40 -38
        E 40 99 24 5b -10
        E 0 99 2d 7f 9
        E 3 b9 04 18
        E 138 b9 04 0f
        E 58 89 2d 40 9
        E 2 89 24 40 -10
        E 169 b9 04 06
        E 110 99 26 7f 62
        E 0 99 29 7f 70
        E 66 b9 04 00
        E 134 89 26 40 62
        E 0 89 29 40 70
        E 280 99 29 7f 46
        E 200 89 29 40 46
        E 24 b9 04 09
        E 256 99 29 7f 44
        E 0 99 24 7d 54
        E 200 89 29 40 44
        E 0 89 24 40 54
        E 280 99 24 48 24
        E 0 99 29 7f 50
        E 124 89 24 40 24
        E 76 89 29 40 50
        E 40 99 24 21 -90
        E 200 89 24 40 -90
        E 40 99 26 7f -16
        E 0 99 29 7f 38
        E 200 89 29 40 38
        E 2 89 26 40 -16
        E 278 99 29 7f 42
        E 16 b9 04 03
        E 184 89 29 40 42
        E 280 99 29 7f 64
        E 0 99 24 68 78
        E 201 89 29 40 64
        E 2 89 24 40 78
        E 277 99 24 44 -12
        E 0 99 29 7f 58
        E 200 89 29 40 58
        E 2 89 24 40 -12
        E 278 99 26 7f 41
        E 0 99 29 7f 68
        E 199 89 26 40 41
        E 2 89 29 40 68
        E 157 b9 04 00
        E 122 99 29 7f 66
        E 200 89 29 40 66
        E 280 99 29 7f 71
        E 0 99 24 74 93
        E 199 89 29 40 71
        E 2 89 24 40 93
        E 279 99 24 45 26
        E 0 99 29 7f 60
        E 100 89 24 40 26
        E 100 89 29 40 60
        E 40 99 24 1e -112
        E 202 89 24 40 -112
        E 38 99 26 7b 14
        E 0 99 29 7f 56
        E 200 89 26 40 14
        E 0 89 29 40 56
        E 280 99 29 7f 28
        E 200 89 29 40 28
        E 2 b9 04 0c
        E 38 99 30 65 -30
        E 202 89 30 40 -30
        E 38 99 24 7e -23
        E 0 99 2d 7f 38
        E 186 b9 04 18
        E 14 89 2d 40 38
        E 1 89 24 40 -23
        E 39 99 30 60 -48
        E 200 89 30 40 -48
        E 40 99 2d 7f -3
        E 0 99 24 5a
        E 152 b9 04 0f
        E 47 89 2d 40 -3
        E 3 89 24 40
        E 152 b9 04 06
        E 126 99 26 74 45
        E 0 99 29 7f 58
        E 18 b9 04 00
        E 182 89 29 40 58
        E 1 89 26 40 45
        E 279 99 29 7f 34
        E 202 89 29 40 34
        E 278 99 24 67 38
        E 0 99 29 7f 40
        E 200 89 24 40 38
        E 2 89 29 40 40
        E 278 99 24 46 -14
        E 0 99 29 7f 40
        E 0 99 24 20 96
        E 106 89 24 40 -14
        E 92 89 24 40 96
        E 2 89 29 40 40
        E 280 99 26 7f 6
        E 0 99 29 7f 52
        E 200 89 29 40 52
        E 4 89 26 40 6
        E 276 99 29 7f 46
        E 131 b9 04 00
        E 69 89 29 40 46
        E 40 99 1a 7f -107
        E 118 b9 04 12
        E 7 b9 04 25
        E 3 b9 04 38
        E 2 b9 04 4c
        E 6 b9 04 4c
        E 65 89 1a 40 -107
        E 3 b9 04 5c
        E 36 99 2c 46 -108
        E 0 99 24 7e
        E 0 99 29 7f 44
        E 90 b9 04 4c
        E 56 b9 04 3c
        E 54 89 2c 40 -108
        E 0 89 29 40 44
        E 1 89 24 40
        E 161 b9 04 2c
        E 112 b9 04 1d
        E 6 99 29 7f 64
        E 200 89 29 40 64
        E 280 99 26 7f 58
        E 0 99 29 7f 82
        E 200 89 26 40 58
        E 0 89 29 40 82
        E 280 99 29 7f 74
        E 70 b9 04 12
        E 130 89 29 40 74
        E 136 b9 04 18
        E 144 99 24 67 68
        E 0 99 29 7f 90
        E 202 89 24 40 68
        E 0 89 29 40 90
        E 278 99 24 43 -16
        E 0 99 29 7f 70
        E 64 b9 04 12
        E 136 89 24 40 -16
        E 2 89 29 40 70
        E 278 99 26 7c 66
        E 0 99 29 7f 102
        E 110 b9 04 09
        E 90 89 29 40 102
        E 3 89 26 40 66
        E 57 b9 04 00
        E 220 99 29 7f 70
        E 140 b9 04 0f
        E 60 89 29 40 70
        E 40 99 30 77 2
        E 200 89 30 40 2
        E 40 99 24 7f 4
        E 0 99 2d 7f 105
        E 199 89 2d 40 105
        E 2 89 24 40 4
        E 39 99 30 7a 16
        E 0 99 30 23 114
        E 30 b9 04 18
        E 64 89 30 40 16
        E 104 89 30 40 114
        E 6 b9 04 1d
        E 36 99 24 5f 8
        E 0 99 2d 7f 48
        E 200 89 24 40 8
        E 0 89 2d 40 48
        E 112 b9 04 12
        E 168 99 26 66 48
        E 0 99 29 7f 96
        E 132 b9 04 09
        E 68 89 26 40 48
        E 1 89 29 40 96
        E 279 99 29 7f 78
        E 202 89 29 40 78
        E 38 b9 04 12
        E 240 99 24 6f 94
        E 0 99 29 7f 106
        E 72 b9 04 09
        E 128 89 24 40 94
        E 2 89 29 40 106
        E 90 b9 04 12
        E 188 99 24 3c -22
        E 0 99 29 7f 108
        E 200 89 29 40 108
        E 2 89 24 40 -22
        E 278 99 26 7f 104
        E 112 b9 04 09
        E 88 89 26 40 104
        E 40 99 29 7f -102
        E 200 89 29 40 -102
        E 218 b9 04 00
        E 62 99 29 7f -119
        E 0 99 29 34 -16
        E 0 99 1a 7f 104
        E 101 89 29 40 -119
        E 1 b9 04 00
        E 100 89 29 40 -16
        E 0 89 1a 40 104
        E 38 99 2c 2a 58
        E 38 b9 04 12
        E 4 b9 04 22
        E 4 b9 04 34
        E 4 b9 04 46
        E 7 b9 04 4c
        E 27 b9 04 56
        E 38 b9 04 66
        E 80 89 2c 40 58
        E 38 b9 04 56
        E 0 99 24 7f -108
        E 0 99 29 7f -90
        E 48 b9 04 46
        E 67 b9 04 36
        E 85 89 29 40 -90
        E 2 89 24 40 -108
        E 62 b9 04 3a
        E 52 b9 04 29
        E 110 b9 04 1d
        E 54 99 29 7f -112
        E 200 89 29 40 -112
        E 162 b9 04 15
        E 118 99 26 7e -80
        E 0 99 29 7f -54
        E 200 89 29 40 -54
        E 1 89 26 40 -80
        E 147 b9 04 0c
        E 132 99 29 7f -80
        E 188 b9 04 12
        E 12 89 29 40 -80
        E 280 99 24 70 -64
        E 0 99 29 7f -48
        E 200 89 29 40 -48
        E 1 89 24 40 -64
        E 279 99 24 45 -88
        E 0 99 29 7f -34
        E 0 99 24 21 24
        E 110 89 24 40 -88
        E 90 89 29 40 -34
        E 0 89 24 40 24
        E 210 b9 04 09
        E 70 99 26 7a -80
        E 0 99 29 7f -32
        E 14 b9 04 00
        E 186 89 26 40 -80
        E 1 89 29 40 -32
        E 279 99 29 7f -56
        E 18 b9 04 0f
        E 152 b9 04 15
        E 30 89 29 40 -56
        E 40 99 30 7c -120
        E 0 99 30 26 -32
        E 86 89 30 40 -120
        E 63 b9 04 0f
        E 51 89 30 40 -32
        E 40 99 24 7f -116
        E 0 99 2d 7f -44
        E 60 b9 04 1d
        E 140 89 24 40 -116
        E 4 89 2d 40 -44
        E 22 b9 04 27
        E 14 99 30 7f -108
        E 200 89 30 40 -108
        E 36 b9 04 1d
        E 4 99 24 5d -108
        E 0 99 2d 7f -68
        E 196 b9 04 12
        E 4 89 24 40 -108
        E 0 89 2d 40 -68
        E 266 b9 04 06
        E 14 99 26 7f -76
        E 0 99 29 7f -35
        E 122 b9 04 00
        E 77 89 29 40 -35
        E 1 89 26 40 -76
        E 280 99 29 7f -42
        E 116 b9 04 09
        E 84 89 29 40 -42
        E 280 99 24 7f -54
        E 0 99 29 7f -50
        E 200 89 29 40 -50
        E 2 89 24 40 -54
        E 278 99 24 41 -80
        E 0 99 29 7f -58
        E 0 99 24 1a 76
        E 154 89 24 40 -80
        E 46 89 29 40 -58
        E 0 89 24 40 76
        E 280 99 26 7f -80
        E 0 99 29 7f -67
        E 199 89 29 40 -67
        E 3 89 26 40 -80
        E 164 b9 04 00
        E 114 99 29 7f -90
        E 0 99 1a 7f 88
        E 86 b9 04 00
        E 113 89 29 40 -90
        E 1 89 1a 40 88
        E 40 99 2c 34 68
        E 0 99 24 7f 96
        E 52 b9 04 12
        E 4 b9 04 22
        E 4 b9 04 32
        E 4 b9 04 44
        E 2 b9 04 4c
        E 40 b9 04 54
        E 94 89 2c 40 68
        E 2 89 24 40 96
        E 12 b9 04 5f
        E 26 99 29 7f -86
        E 56 b9 04 4f
        E 86 b9 04 3f
        E 62 89 29 40 -86
        E 170 b9 04 2e
        E 106 99 29 71 -110
        E 46 b9 04 20
        E 156 89 29 40 -110
        E 124 b9 04 18
        E 154 99 26 7f -112
        E 0 99 29 7f -88
        E 66 b9 04 0f
        E 135 89 26 40 -112
        E 0 89 29 40 -88
        E 39 99 29 7f 110
        E 34 b9 04 09
        E 166 89 29 40 110
        E 50 b9 04 12
        E 230 99 24 71 40
        E 0 99 29 7f 78
        E 200 89 24 40 40
        E 0 89 29 40 78
        E 280 99 24 3a -42
        E 0 99 24 1b 54
        E 0 99 29 7f 102
        E 94 89 24 40 -42
        E 105 89 29 40 102
        E 3 89 24 40 54
        E 278 99 26 7f 80
        E 0 99 29 7f 112
        E 158 b9 04 09
        E 42 89 26 40 80
        E 1 89 29 40 112
        E 135 b9 04 00
        E 144 99 29 7f 92
        E 200 89 29 40 92
        E 5 b9 04 09
        E 35 99 30 68 25
        E 199 89 30 40 25
        E 41 99 24 7f 28
        E 0 99 2d 7f 92
        E 200 89 2d 40 92
        E 2 89 24 40 28
        E 18 b9 04 18
        E 20 99 30 72 6
        E 200 89 30 40 6
        E 40 99 24 5a 20
        E 0 99 2d 7f 24
        E 201 89 24 40 20
        E 2 89 2d 40 24
        E 20 b9 04 0f
        E 231 b9 04 09
        E 26 99 26 6f 32
        E 0 99 29 7f 66
        E 186 b9 04 00
        E 14 89 29 40 66
        E 2 89 26 40 32
        E 278 99 29 7f 48
        E 200 89 29 40 48
        E 14 b9 04 0c
        E 266 99 24 7f 58
        E 0 99 29 7f 60
        E 200 89 24 40 58
        E 0 89 29 40 60
        E 280 99 24 47 48
        E 0 99 29 7f 70
        E 118 89 24 40 48
        E 84 89 29 40 70
        E 38 99 24 1e -72
        E 202 89 24 40 -72
        E 38 99 26 75 34
        E 0 99 29 7f 68
        E 200 89 26 40 34
        E 1 89 29 40 68
        E 25 b9 04 06
        E 174 b9 04 00
        E 80 99 29 7f 37
        E 202 89 29 40 37
        E 38 99 1a 7f 44
        E 42 b9 04 00
        E 154 b9 04 12
        E 4 89 1a 40 44
        E 4 b9 04 27
        E 8 b9 04 38
        E 28 99 2c 0e 18
        E 0 99 24 7f 54
        E 0 99 29 7f 86
        E 12 b9 04 49
        E 4 b9 04 4c
        E 102 b9 04 57
        E 52 b9 04 47
        E 29 89 29 40 86
        E 1 89 2c 40 18
        E 0 89 24 40 54
        E 14 b9 04 36
        E 56 b9 04 25
        E 104 b9 04 1a
        E 106 99 29 7f 82
        E 202 89 29 40 82
        E 278 99 26 7f 78
        E 0 99 29 7f 112
        E 77 b9 04 12
        E 123 89 26 40 78
        E 0 89 29 40 112
        E 238 b9 04 09
        E 42 99 29 7f 78
        E 200 89 29 40 78
        E 42 b9 04 12
        E 238 99 29 7f 66
        E 0 99 24 7f 76
        E 136 b9 04 0c
        E 66 89 29 40 66
        E 2 89 24 40 76
        E 276 99 24 49 68
        E 0 99 29 7f 78
        E 120 89 24 40 68
        E 80 89 29 40 78
        E 40 99 24 22 -50
        E 200 89 24 40 -50
        E 40 99 26 7f 40
        E 0 99 29 7f 84
        E 200 89 26 40 40
        E 0 89 29 40 84
        E 82 b9 04 03
        E 10 b9 04 00
        E 188 99 29 7f 60
        E 158 b9 04 0c
        E 44 89 29 40 60
        E 38 99 30 7f -20
        E 204 89 30 40 -20
        E 36 99 24 7f 9
        E 0 99 2d 7f 80
        E 201 89 24 40 9
        E 5 89 2d 40 80
        E 2 b9 04 18
        E 32 99 30 67 -28
        E 0 99 30 2b 44
        E 70 89 30 40 -28
        E 132 89 30 40 44
        E 38 99 24 5b 4
        E 0 99 2d 7f 32
        E 200 89 24 40 4
        E 2 89 2d 40 32
        E 46 b9 04 0f
        E 232 99 26 6d 20
        E 0 99 29 7f 58
        E 128 b9 04 06
        E 72 89 26 40 20
        E 2 89 29 40 58
        E 170 b9 04 00
        E 108 99 29 7f 62
        E 198 b9 04 0c
        E 2 89 29 40 62
        E 280 99 29 7f 88
        E 0 99 24 7f 100
        E 200 89 29 40 88
        E 0 89 24 40 100
        E 280 99 24 4a 72
        E 0 99 29 7f 78
        E 200 89 24 40 72
        E 0 89 29 40 78
        E 280 99 26 7f 20
        E 0 99 29 7f 82
        E 200 89 29 40 82
        E 2 89 26 40 20
        E 278 99 29 7f 90
        E 0 99 26 6c 106
        E 200 89 29 40 90
        E 0 89 26 40 106
        E 6 b9 04 00
        E 274 99 2e 7f 70
        E 68 b9 04 09
        E 4 b9 04 12
        E 10 b9 04 25
        E 8 b9 04 36
        E 66 b9 04 46
        E 18 b9 04 4c
        E 28 89 2e 40 70
        E 38 99 24 7a -94
        E 0 99 29 7f -86
        E 0 99 2c 08 -64
        E 66 b9 04 36
        E 120 b9 04 27
        E 14 89 29 40 -86
        E 2 89 24 40 -94
        E 0 89 2c 40 -64
        E 142 b9 04 1d
        E 136 99 29 7f -118
        E 200 89 29 40 -118
        E 40 99 26 7c 108
        E 164 b9 04 15
        E 36 89 26 40 108
        E 40 99 29 7f -112
        E 180 b9 04 0f
        E 22 89 29 40 -112
        E 38 99 29 7f 108
        E 82 b9 04 09
        E 118 89 29 40 108
        E 124 b9 04 0f
        E 396 99 29 7f -102
        E 0 99 24 7f -70
        E 200 89 29 40 -102
        E 2 89 24 40 -70
        E 38 99 24 44 90
        E 0 99 29 7f 96
        E 200 89 24 40 90
        E 4 89 29 40 96
        E 276 99 26 7f 84
        E 0 99 29 7f 112
        E 200 89 29 40 112
        E 2 89 26 40 84
        E 134 b9 04 03
        E 45 b9 04 00
        E 99 99 29 7f 82
        E 116 b9 04 0f
        E 83 89 29 40 82
        E 41 99 30 79 6
        E 200 89 30 40 6
        E 40 90 34 7f
        E 0 99 24 7e -4
        E 0 99 29 69
        E 120 b9 04 1d
        E 80 89 29 40
        E 2 89 24 40 -4
        E 38 80 34 00
        E 240 99 24 4f -36
        E 0 99 29 69 40
        E 200 89 29 40 40
        E 2 89 24 40 -36
        E 278 90 26 7f
        E 0 99 29 69 40
        E 44 b9 04 00
        E 12 b9 04 06
        E 144 89 29 40 40
        E 40 80 26 00
        E 0 99 26 57 -118
        E 108 89 26 40 -118
        E 132 99 29 69 68
        E 200 89 29 40 68
        E 94 b9 04 09
        E 186 99 29 69 66
        E 40 99 24 72
        E 160 89 29 40 66
        E 40 89 24 40
        E 240 99 24 4a 64
        E 0 99 29 69 70
        E 40 99 24 22
        E 62 89 24 40 64
        E 98 89 29 40 70
        E 40 89 24 40
        E 240 99 26 7f 20
        E 0 99 29 69 64
        E 200 89 26 40 20
        E 0 89 29 40 64
        E 238 b9 04 03
        E 6 b9 04 00
        E 36 99 29 69 44
        E 200 89 29 40 44
        E 40 99 2e 7f 22
        E 20 b9 04 00
        E 152 b9 04 12
        E 8 b9 04 22
        E 4 b9 04 34
        E 15 89 2e 40 22
        E 29 b9 04 44
        E 12 99 2c 0e 4
        E 0 99 29 69 56
        E 0 99 24 7f 58
        E 2 b9 04 4c
        E 28 b9 04 54
        E 170 89 2c 40 4
        E 1 89 29 40 56
        E 0 89 24 40 58
        E 5 b9 04 44
        E 76 b9 04 34
        E 156 b9 04 29
        E 42 99 29 69 28
        E 200 89 29 40 28
        E 34 b9 04 1d
        E 246 99 26 7f 40
        E 0 99 29 69 60
        E 199 89 26 40 40
        E 1 89 29 40 60
        E 14 b9 04 18
        E 190 b9 04 0f
        E 76 99 29 69 47
        E 203 89 29 40 47
        E 277 99 29 69 56
        E 0 99 24 7f 86
        E 200 89 24 40 86
        E 1 89 29 40 56
        E 279 99 24 4c
        E 0 99 29 69 31
        E 200 89 24 40
        E 1 89 29 40 31
        E 279 99 26 7f -16
        E 0 99 29 69 30
        E 202 89 26 40 -16
        E 0 89 29 40 30
        E 92 b9 04 03
        E 6 b9 04 00
        E 180 99 29 69 -12
        E 136 b9 04 0c
        E 65 89 29 40 -12
        E 39 99 30 69 -88
        E 202 89 30 40 -88
        E 38 99 24 7f -30
        E 0 99 2d 6d 1
        E 128 b9 04 1a
        E 74 89 24 40 -30
        E 1 89 2d 40 1
        E 37 99 30 61 -58
        E 0 99 30 2c 20
        E 50 b9 04 25
        E 26 89 30 40 -58
        E 124 89 30 40 20
        E 40 99 24 57 -68
        E 0 99 2d 6d -42
        E 16 b9 04 1a
        E 170 b9 04 12
        E 14 89 24 40 -68
        E 0 89 2d 40 -42
        E 280 99 26 7d -82
        E 0 99 29 69 -18
        E 70 b9 04 0c
        E 130 89 29 40 -18
        E 2 89 26 40 -82
        E 178 b9 04 03
        E 100 99 29 69 -28
        E 182 b9 04 0f
        E 18 89 29 40 -28
        E 280 99 29 69 -2
        E 0 99 24 7f 12
        E 200 89 29 40 -2
        E 0 89 24 40 12
        E 280 99 29 69 -24
        E 0 99 24 4e -19
        E 0 99 24 20 78
        E 95 89 24 40 -19
        E 105 89 29 40 -24
        E 0 89 24 40 78
        E 280 99 26 7f -38
        E 0 99 29 69 -6
        E 200 89 29 40 -6
        E 2 89 26 40 -38
        E 192 b9 04 03
        E 40 b9 04 00
        E 46 99 29 69 -11
        E 182 b9 04 00
        E 19 89 29 40 -11
        E 39 99 1a 7f -56
        E 164 b9 04 12
        E 10 b9 04 25
        E 26 89 1a 40 -56
        E 14 b9 04 36
        E 22 b9 04 46
        E 4 99 24 7f 3
        E 0 99 29 69 18
        E 0 99 2c 0a 24
        E 19 b9 04 4c
        E 159 b9 04 36
        E 22 89 29 40 18
        E 2 89 2c 40 24
        E 1 89 24 40 3
        E 73 b9 04 25
        E 130 b9 04 1d
        E 74 99 29 69 16
        E 112 b9 04 25
        E 87 89 29 40 16
        E 26 b9 04 1d
        E 255 99 26 7f 24
        E 0 99 29 69 32
        E 38 b9 04 18
        E 162 89 26 40 24
        E 0 89 29 40 32
        E 104 b9 04 0c
        E 166 b9 04 06
        E 10 99 29 69 12
        E 200 89 29 40 12
        E 70 b9 04 0c
        E 210 99 29 69 32
        E 0 99 24 7f 54
        E 200 89 29 40 32
        E 2 89 24 40 54
        E 56 b9 04 12
        E 222 99 24 4d 18
        E 0 99 29 69 34
        E 116 89 24 40 18
        E 84 89 29 40 34
        E 40 99 24 20 -102
        E 200 89 24 40 -102
        E 22 b9 04 06
        E 18 99 26 7f -16
        E 0 99 29 69 28
        E 94 b9 04 00
        E 105 89 29 40 28
        E 2 89 26 40 -16
        E 279 99 29 69 15
        E 94 b9 04 12
        E 107 89 29 40 15
        E 39 99 30 77 -50
        E 20 b9 04 1a
        E 162 b9 04 0f
        E 20 89 30 40 -50
        E 38 99 24 7f -28
        E 0 99 2d 6d 40
        E 144 b9 04 1d
        E 56 89 24 40 -28
        E 2 89 2d 40 40
        E 38 99 30 51 -16
        E 0 99 30 24 74
        E 8 b9 04 2e
        E 80 89 30 40 -16
        E 114 89 30 40 74
        E 38 99 24 5a -42
        E 0 99 2d 6d -12
        E 74 b9 04 25
        E 107 b9 04 1a
        E 19 89 24 40 -42
        E 0 89 2d 40 -12
        E 148 b9 04 12
        E 132 90 32 7f
        E 0 99 26 7f -42
        E 0 99 29 69 6
        E 88 b9 04 06
        E 112 89 29 40 6
        E 4 89 26 40 -42
        E 36 80 32 00
        E 32 b9 04 00
        E 208 99 29 69 10
        E 144 b9 04 0f
        E 56 89 29 40 10
        E 280 99 29 69 18
        E 0 99 24 7f 54
        E 42 b9 04 09
        E 160 89 29 40 18
        E 0 89 24 40 54
        E 20 b9 04 12
        E 258 99 29 69 24
        E 0 99 24 52 32
        E 102 89 24 40 32
        E 100 89 29 40 24
        E 38 99 24 21 -102
        E 182 b9 04 0c
        E 16 89 24 40 -102
        E 42 99 26 7f -16
        E 0 99 29 69 22
        E 200 89 29 40 22
        E 2 89 26 40 -16
        E 78 b9 04 06
        E 200 99 29 69 -4
        E 6 b9 04 00
        E 196 89 29 40 -4
        E 18 b9 04 00
        E 20 99 2e 7f -18
        E 116 b9 04 12
        E 8 b9 04 25
        E 6 b9 04 36
        E 44 b9 04 46
        E 20 b9 04 4c
        E 6 89 2e 40 -18
        E 40 99 2c 0c -44
        E 0 99 24 7f -2
        E 0 99 29 69 12
        E 44 b9 04 4d
        E 42 b9 04 3c
        E 38 b9 04 2c
        E 76 89 24 40 -2
        E 1 89 2c 40 -44
        E 1 89 29 40 12
        E 38 b9 04 1d
        E 238 b9 04 2e
        E 2 99 29 69 12
        E 200 89 29 40 12
        E 78 b9 04 27
        E 119 b9 04 1a
        E 83 99 26 7f 12
        E 0 99 29 69 26
        E 200 89 26 40 12
        E 2 89 29 40 26
        E 158 b9 04 0f
        E 120 99 29 69 44
        E 200 89 29 40 44
        E 28 b9 04 15
        E 252 99 29 69 46
        E 0 99 24 7f 72
        E 200 89 29 40 46
        E 0 89 24 40 72
        E 280 99 24 4f 26
        E 0 99 29 69 40
        E 200 89 24 40 26
        E 0 89 29 40 40
        E 254 b9 04 0f
        E 26 99 26 7b 2
        E 0 99 29 69 34
        E 200 89 26 40 2
        E 2 89 29 40 34
        E 8 b9 04 03
        E 36 b9 04 00
        E 234 99 29 69 16
        E 26 b9 04 12
        E 176 89 29 40 16
        E 4 b9 04 1a
        E 34 99 31 7f -82
        E 134 b9 04 09
        E 68 89 31 40 -82
        E 38 99 24 7f -14
        E 0 99 2d 6d 13
        E 0 99 29 57 16
        E 164 b9 04 15
        E 38 89 24 40 -14
        E 0 89 29 40 16
        E 1 89 2d 40 13
        E 277 99 24 4c -60
        E 0 99 2d 6d 5
        E 100 b9 04 0f
        E 100 89 24 40 -60
        E 3 89 2d 40 5
        E 277 90 30 6d
        E 0 99 26 7f -12
        E 0 99 29 69 -2
        E 0 99 26 36 80
        E 88 89 26 40 -12
        E 2 b9 04 06
        E 108 89 26 40 80
        E 2 89 29 40 -2
        E 40 80 30 00
        E 240 99 29 69 32
        E 128 b9 04 0f
        E 74 89 29 40 32
        E 200 b9 04 03
        E 16 b9 04 00
        E 62 99 24 7f -42
        E 0 99 29 69 2
        E 176 b9 04 0c
        E 23 89 29 40 2
        E 3 89 24 40 -42
        E 278 99 29 69 -31
        E 203 89 29 40 -31
        E 277 99 26 7f -42
        E 0 99 29 69 -4
        E 200 89 26 40 -42
        E 2 89 29 40 -4
        E 90 b9 04 03
        E 188 99 29 69 -24
        E 104 b9 04 0c
        E 96 89 29 40 -24
        E 40 99 26 3e -32
        E 186 b9 04 06
        E 14 89 26 40 -32
        E 40 99 24 7f -46
        E 0 99 29 69 -23
        E 128 b9 04 0f
        E 73 89 29 40 -23
        E 2 89 24 40 -46
        E 277 99 24 4b -76
        E 0 99 29 69 -38
        E 200 89 24 40 -76
        E 0 89 29 40 -38
        E 280 99 26 7f -38
        E 0 99 29 69 -20
        E 200 89 26 40 -38
        E 0 89 29 40 -20
        E 46 b9 04 06
        E 234 99 29 69 -14
        E 154 b9 04 0f
        E 48 89 29 40 -14
        E 278 99 29 69 -10
        E 0 99 24 7f -4
        E 50 b9 04 09
        E 150 89 29 40 -10
        E 4 89 24 40 -4
        E 276 99 29 69 -24
        E 200 89 29 40 -24
        E 280 99 26 7e -22
        E 0 99 29 69 8
        E 200 89 29 40 8
        E 2 89 26 40 -22
        E 98 b9 04 00
        E 180 99 29 69 -12
        E 106 b9 04 0c
        E 98 89 29 40 -12
        E 36 99 30 77 -71
        E 201 89 30 40 -71
        E 39 99 24 7f -49
        E 0 99 2d 6d 26
        E 160 b9 04 18
        E 41 89 24 40 -49
        E 1 89 2d 40 26
        E 38 99 30 60 -79
        E 0 99 30 11 28
        E 105 89 30 40 -79
        E 95 89 30 40 28
        E 40 99 24 5b -76
        E 0 99 2d 6d -32
        E 191 b9 04 0c
        E 9 89 24 40 -76
        E 0 89 2d 40 -32
        E 280 90 34 7f
        E 0 99 26 7f -58
        E 0 99 29 69 -17
        E 74 b9 04 03
        E 44 b9 04 00
        E 82 89 26 40 -58
        E 3 89 29 40 -17
        E 37 80 34 00
        E 240 99 29 69 -24
        E 114 b9 04 0c
        E 88 89 29 40 -24
        E 79 b9 04 12
        E 199 99 29 69 -14
        E 0 99 24 7f 18
        E 47 b9 04 09
        E 152 89 29 40 -14
        E 1 89 24 40 18
        E 280 99 24 4f -39
        E 0 99 29 69 -22
        E 200 89 24 40 -39
        E 0 89 29 40 -22
        E 280 99 26 7f -8
        E 0 99 29 69 20
        E 136 b9 04 0f
        E 63 89 26 40 -8
        E 1 89 29 40 20
        E 162 b9 04 00
        E 118 99 29 69 -18
        E 0 99 29 16 88
        E 103 89 29 40 -18
        E 91 b9 04 00
        E 6 89 29 40 88
        E 40 99 2e 7f -44
        E 202 89 2e 40 -44
        E 38 99 2c 4a
        E 0 99 24 7f -22
        E 0 99 29 69 12
        E 46 b9 04 5a
        E 32 b9 04 12
        E 6 b9 04 27
        E 2 b9 04 38
        E 4 b9 04 4a
        E 2 b9 04 4f
        E 4 b9 04 5a
        E 14 b9 04 4a
        E 19 b9 04 5a
        E 1 b9 04 3a
        E 46 b9 04 6a
        E 24 89 29 40 12
        E 2 89 2c 40
        E 0 89 24 40 -22
        E 132 b9 04 29
        E 122 b9 04 1d
        E 24 99 24 0a -68
        E 0 99 29 69 28
        E 199 89 24 40 -68
        E 3 89 29 40 28
        E 278 99 26 7f 3
        E 0 99 29 69 18
        E 200 89 26 40 3
        E 0 89 29 40 18
        E 71 b9 04 12
        E 209 99 29 69 9
        E 201 89 29 40 9
        E 43 b9 04 1a
        E 236 99 29 69 25
        E 0 99 24 7f 37
        E 41 b9 04 12
        E 159 89 29 40 25
        E 3 89 24 40 37
        E 277 99 24 50 -24
        E 0 99 29 69 6
        E 202 89 29 40 6
        E 2 89 24 40 -24
        E 276 99 26 7f -32
        E 0 99 29 69 21
        E 153 b9 04 00
        E 47 89 29 40 21
        E 2 89 26 40 -32
        E 278 99 29 69 -28
        E 98 b9 04 12
        E 104 89 29 40 -28
        E 38 99 26 59 -54
        E 46 b9 04 1d
        E 154 89 26 40 -54
        E 40 99 24 7f -4
        E 0 99 31 7f -2
        E 50 b9 04 25
        E 134 b9 04 36
        E 18 89 24 40 -4
        E 0 89 31 40 -2
        E 278 99 24 4b -51
        E 0 99 29 69
        E 4 b9 04 27
        E 114 b9 04 1a
        E 82 89 29 40
        E 3 89 24 40 -51
        E 72 b9 04 12
        E 169 b9 04 09
        E 36 99 26 7f -14
        E 0 99 29 69 16
        E 199 89 26 40 -14
        E 1 89 29 40 16
        E 280 99 29 69 -21
        E 201 89 29 40 -21
        E 254 b9 04 00
        E 25 99 29 69 -12
        E 0 99 24 6e 32
        E 202 89 29 40 -12
        E 0 89 24 40 32
        E 20 b9 04 09
        E 258 99 24 43 -12
        E 0 99 29 69 -4
        E 0 99 24 1f 79
        E 89 89 24 40 -12
        E 111 89 29 40 -4
        E 1 89 24 40 79
        E 279 99 26 7f -2
        E 0 99 29 69 24
        E 150 b9 04 00
        E 50 89 26 40 -2
        E 2 89 29 40 24
        E 278 99 29 69 -31
        E 16 b9 04 0f
        E 166 b9 04 15
        E 21 89 29 40 -31
        E 37 99 30 77 -70
        E 159 b9 04 0f
        E 42 89 30 40 -70
        E 39 99 24 7f -104
        E 0 99 2d 6d -15
        E 44 b9 04 20
        E 149 b9 04 29
        E 7 89 2d 40 -15
        E 2 89 24 40 -104
        E 38 99 30 61 -86
        E 0 99 30 1e 9
        E 91 89 30 40 -86
        E 92 b9 04 18
        E 17 89 30 40 9
        E 40 99 24 60 -114
        E 0 99 2d 6d -50
        E 178 b9 04 0f
        E 22 89 24 40 -114
        E 0 89 2d 40 -50
        E 198 b9 04 09
        E 82 90 38 7f
        E 0 99 26 7f -70
        E 0 99 29 69 -27
        E 157 b9 04 03
        E 45 89 26 40 -70
        E 0 89 29 40 -27
        E 30 b9 04 00
        E 8 80 38 00
        E 240 99 29 5b -26
        E 124 b9 04 09
        E 76 89 29 40 -26
        E 280 99 29 69 -18
        E 0 99 24 7f -15
        E 200 89 29 40 -18
        E 1 89 24 40 -15
        E 48 b9 04 0f
        E 231 99 24 4c -25
        E 0 99 29 69 -8
        E 0 99 24 1e 81
        E 104 89 24 40 -25
        E 96 89 29 40 -8
        E 0 89 24 40 81
        E 80 b9 04 09
        E 200 99 26 7f -64
        E 0 99 29 69 -4
        E 106 b9 04 03
        E 94 89 26 40 -64
        E 2 89 29 40 -4
        E 10 b9 04 00
        E 268 99 29 69 -28
        E 97 b9 04 0f
        E 103 89 29 40 -28
        E 40 99 30 60 -64
        E 200 89 30 40 -64
        E 40 99 24 7f -36
        E 0 99 2d 6d -12
        E 115 b9 04 1d
        E 85 89 2d 40 -12
        E 2 89 24 40 -36
        E 38 99 30 42 -86
        E 201 89 30 40 -86
        E 39 99 24 69 -60
        E 0 99 2d 6d -58
        E 101 b9 04 12
        E 101 89 24 40 -60
        E 0 89 2d 40 -58
        E 230 b9 04 0c
        E 48 90 37 7f
        E 0 99 26 7f -92
        E 0 99 29 69 -24
        E 116 b9 04 03
        E 9 b9 04 00
        E 75 89 26 40 -92
        E 2 89 29 40 -24
        E 38 80 37 00
        E 240 99 29 69 -44
        E 120 b9 04 09
        E 80 89 29 40 -44
        E 280 99 29 69 -41
        E 0 99 24 7c -4
        E 200 89 29 40 -41
        E 2 89 24 40 -4
        E 278 99 29 69 -46
        E 0 99 24 47 -34
        E 0 99 24 1d 56
        E 88 89 24 40 -34
        E 112 89 29 40 -46
        E 0 89 24 40 56
        E 280 99 26 7f -21
        E 0 99 29 69 3
        E 36 b9 04 00
        E 165 89 26 40 -21
        E 0 89 29 40 3
        E 279 99 29 69 -36
        E 0 99 29 18 59
        E 63 b9 04 0f
        E 31 89 29 40 -36
        E 105 89 29 40 59
        E 41 99 30 6f -55
        E 201 89 30 40 -55
        E 39 99 24 7f -66
        E 0 99 2d 6d -7
        E 191 b9 04 1d
        E 11 89 24 40 -66
        E 1 89 2d 40 -7
        E 37 99 30 66 -35
        E 0 99 30 29 44
        E 76 89 30 40 -35
        E 35 b9 04 22
        E 91 89 30 40 44
        E 38 99 24 66 -56
        E 0 99 2d 6d -50
        E 56 b9 04 18
        E 142 b9 04 0f
        E 1 89 2d 40 -50
        E 2 89 24 40 -56
        E 160 b9 04 09
        E 119 99 26 7f -56
        E 0 99 29 69 -2
        E 200 89 29 40 -2
        E 1 89 26 40 -56
        E 89 b9 04 00
        E 190 99 29 65 -29
        E 177 b9 04 06
        E 25 89 29 40 -29
        E 278 99 29 69 -13
        E 0 99 24 7f 29
        E 201 89 29 40 -13
        E 0 89 24 40 29
        E 279 99 29 69 -14
        E 0 99 24 4d 6
        E 0 99 24 1e 94
        E 86 89 24 40 6
        E 113 89 24 40 94
        E 3 89 29 40 -14
        E 278 99 26 7f -4
        E 0 99 29 69 17
        E 133 b9 04 00
        E 70 89 29 40 17
        E 1 89 26 40 -4
        E 276 99 29 69 -6
        E 96 b9 04 0c
        E 104 89 29 40 -6
        E 40 99 30 77 -45
        E 28 b9 04 12
        E 175 89 30 40 -45
        E 13 b9 04 09
        E 24 99 24 7f -50
        E 0 99 2d 6d 34
        E 178 b9 04 12
        E 22 89 2d 40 34
        E 2 89 24 40 -50
        E 38 99 30 5a
        E 104 b9 04 18
        E 98 89 30 40
        E 38 99 24 6a -47
        E 0 99 2d 6d -24
        E 158 b9 04 0f
        E 42 89 2d 40 -24
        E 3 89 24 40 -47
        E 219 b9 04 06
        E 58 99 26 78 -29
        E 0 99 29 69 8
        E 0 99 2e 7f
        E 81 b9 04 00
        E 35 b9 04 12
        E 8 b9 04 25
        E 6 b9 04 36
        E 44 b9 04 46
        E 20 b9 04 4c
        E 6 89 2e 40
        E 2 89 29 40 8
        E 1 89 26 40 -29
        E 277 99 2c 0c
        E 0 99 29 69 -2
        E 44 b9 04 4d
        E 42 b9 04 3c
        E 38 b9 04 2c
        E 18 b9 04 0c
        E 59 89 2c 40
        E 0 89 29 40 -2
        E 279 99 29 69 9
        E 0 99 24 7f 38
        E 44 b9 04 06
        E 157 89 29 40 9
        E 0 89 24 40 38
        E 279 99 24 47 -14
        E 0 99 29 69 18
        E 199 89 24 40 -14
        E 1 89 29 40 18
        E 280 99 26 7f -6
        E 0 99 29 69 35
        E 126 b9 04 00
        E 73 89 26 40 -6
        E 2 89 29 40 35
        E 279 99 29 69 -24
        E 94 b9 04 09
        E 105 89 29 40 -24
        E 41 99 30 6b -35
        E 203 89 30 40 -35
        E 37 99 24 7f -90
        E 0 99 2d 6d 6
        E 147 b9 04 15
        E 52 89 2d 40 6
        E 5 89 24 40 -90
        E 36 99 30 61 -12
        E 66 b9 04 1a
        E 136 89 30 40 -12
        E 38 99 24 66 -85
        E 0 99 2d 6d -31
        E 110 b9 04 12
        E 91 89 2d 40 -31
        E 1 89 24 40 -85
        E 177 b9 04 0c
        E 101 90 3a 7f
        E 0 99 26 7f -24
        E 0 99 29 69 3
        E 156 b9 04 03
        E 45 89 26 40 -24
        E 0 89 29 40 3
        E 39 80 3a 00
        E 8 b9 04 00
        E 232 99 29 69 -1
        E 176 b9 04 09
        E 26 89 29 40 -1
        E 278 99 29 69 -1
        E 0 99 24 7f 29
        E 202 89 29 40 -1
        E 1 89 24 40 29
        E 277 99 24 49 -16
        E 0 99 29 69 -4
        E 199 89 24 40 -16
        E 2 89 29 40 -4
        E 279 99 26 7f -24
        E 0 99 29 69 10
        E 199 89 29 40 10
        E 3 89 26 40 -24
        E 18 b9 04 00
        E 260 99 29 69 -18
        E 48 b9 04 0c
        E 151 89 29 40 -18
        E 13 b9 04 12
        E 28 99 30 77 -53
        E 197 b9 04 09
        E 3 89 30 40 -53
        E 40 99 24 7f -51
        E 0 99 2d 7f
        E 146 b9 04 15
        E 54 89 2d 40
        E 3 89 24 40 -51
        E 37 99 30 6c -11
        E 0 99 30 3b 46
        E 53 89 30 40 -11
        E 11 b9 04 1d
        E 133 89 30 40 46
        E 43 99 24 5e -56
        E 0 99 2d 7f -38
        E 143 b9 04 15
        E 56 89 2d 40 -38
        E 3 89 24 40 -56
        E 175 b9 04 09
        E 103 99 26 78 -64
        E 0 99 29 7f -16
        E 200 89 26 40 -64
        E 0 89 29 40 -16
        E 4 b9 04 00
        E 276 99 29 7f -19
        E 196 b9 04 06
        E 7 89 29 40 -19
        E 277 99 29 7f -4
        E 0 99 24 7f 41
        E 199 89 29 40 -4
        E 1 89 24 40 41
        E 280 99 24 43 -32
        E 0 99 29 7f -5
        E 200 89 24 40 -32
        E 0 89 29 40 -5
        E 280 99 26 7f -49
        E 0 99 29 7f
        E 112 b9 04 00
        E 88 89 29 40
        E 2 89 26 40 -49
        E 278 99 29 7f
        E 109 b9 04 0c
        E 91 89 29 40
        E 40 99 30 71 -81
        E 0 99 30 21 41
        E 121 89 30 40 -81
        E 79 89 30 40 41
        E 35 b9 04 03
        E 5 99 24 7f -42
        E 0 99 2d 7f 12
        E 171 b9 04 0f
        E 28 89 24 40 -42
        E 0 89 2d 40 12
        E 41 99 30 4f -47
        E 0 99 30 30 29
        E 72 89 30 40 -47
        E 127 89 30 40 29
        E 41 99 24 4e -76
        E 0 99 2d 7f -24
        E 202 89 2d 40 -24
        E 1 89 24 40 -76
        E 37 99 30 5c -16
        E 202 89 30 40 -16
        E 38 99 29 2f -39
        E 0 99 2d 7f -31
        E 200 89 2d 40 -31
        E 2 89 29 40 -39
        E 28 b9 04 03
        E 31 b9 04 00
        E 219 99 29 7f -23
        E 154 b9 04 06
        E 47 89 29 40 -23
        E 39 99 26 6b -34
        E 80 b9 04 00
        E 119 89 26 40 -34
        E 41 99 29 7f 11
        E 0 99 24 5a 43
        E 0 99 29 4e 86
        E 71 89 29 40 11
        E 126 89 29 40 86
        E 3 89 24 40 43
        E 40 99 26 5f -18
        E 0 99 26 25 74
        E 41 b9 04 0c
        E 49 89 26 40 -18
        E 112 89 26 40 74
        E 38 99 24 4b -24
        E 0 99 29 1d 13
        E 0 99 2d 7f 19
        E 197 b9 04 18
        E 2 89 24 40 -24
        E 4 89 29 40 13
        E 2 89 2d 40 19
        E 35 99 30 59 -18
        E 0 99 30 37 47
        E 63 89 30 40 -18
        E 137 89 30 40 47
        E 40 99 33 77 -53
        E 0 99 33 2b 104
        E 155 89 33 40 -53
        E 44 89 33 40 104
        E 41 99 26 53 -81
        E 128 b9 04 0f
        E 74 89 26 40 -81
        E 38 99 26 7f -40
        E 200 89 26 40 -40
        E 40 99 26 4f -69
        E 200 89 26 40 -69
        E 40 99 26 7f -37
        E 205 89 26 40 -37
        E 35 99 26 44 -29
        E 202 89 26 40 -29
        E 38 99 26 7f -36
        E 204 89 26 40 -36
        E 36 99 26 53 -21
        E 201 89 26 40 -21
        E 39 99 26 7f -15
        E 201 89 26 40 -15
        E 39 99 26 48 -40
        E 199 89 26 40 -40
        E 41 99 26 76 -19
        E 190 89 26 40 -19
        E 50 99 26 4a -67
        E 200 89 26 40 -67
        E 40 99 26 7f -17
        E 169 b9 04 15
        E 32 89 26 40 -17
        E 39 99 26 72 -35
        E 203 89 26 40 -35
        E 37 99 26 65 41
        E 203 89 26 40 41
        E 37 99 24 41 -120
        E 0 99 24 22 -27
        E 0 99 26 3f 88
        E 91 89 24 40 -120
        E 24 b9 04 1d
        E 37 89 26 40 88
        E 49 89 24 40 -27
        E 39 99 26 5d 1
        E 201 89 26 40 1
        E 39 99 26 47 -31
        E 8 b9 04 27
        E 195 89 26 40 -31
        E 37 99 26 7f 27
        E 151 b9 04 1a
        E 50 89 26 40 27
        E 39 99 24 67 -62
        E 0 99 26 46 24
        E 0 99 24 28 37
        E 97 89 24 40 -62
        E 103 89 26 40 24
        E 0 89 24 40 37
        E 40 99 26 7f 47
        E 110 89 26 40 47
        E 130 99 26 2a -81
        E 0 99 26 54 65
        E 144 89 26 40 -81
        E 56 89 26 40 65
        E 6 b9 04 20
        E 34 99 26 7a 79
        E 0 99 24 4f 97
        E 146 89 24 40 97
        E 46 89 26 40 79
        E 27 b9 04 1a
        E 21 99 24 20 5
        E 0 99 26 56 33
        E 201 89 24 40 5
        E 0 89 26 40 33
        E 39 99 26 6d 80
        E 179 89 26 40 80
        E 61 99 26 39 21
        E 0 99 26 21 91
        E 68 89 26 40 21
        E 132 89 26 40 91
        E 40 99 26 72 55
        E 0 99 24 3f 109
        E 174 89 26 40 55
        E 27 89 24 40 109
        E 39 99 26 3a -9
        E 0 99 26 20 72
        E 0 99 24 14 111
        E 81 89 26 40 -9
        E 118 89 26 40 72
        E 3 89 24 40 111
        E 35 b9 04 25
        E 3 99 26 6c 40
        E 159 b9 04 30
        E 18 89 26 40 40
        E 63 99 26 3e -21
        E 0 99 26 26 47
        E 0 99 2c 04 117
        E 44 b9 04 41
        E 22 89 26 40 -21
        E 49 b9 04 4c
        E 32 b9 04 51
        E 53 89 26 40 47
        E 0 89 2c 40 117
        E 40 99 24 7f 9
        E 0 99 31 7f 81
        E 27 b9 04 5d
        E 175 89 31 40 81
        E 1 89 24 40 9
        E 166 b9 04 64
        E 122 b9 04 54
        E 24 b9 04 44
        E 22 b9 04 34
        E 18 b9 04 22
        E 24 b9 04 12
        E 28 b9 04 00
        E 8428 b0 7b 00
        GUID {B47AA600-2DBD-4449-89A2-01832EFAA2CC}
        IGNTEMPO 0 120 4 4
        SRCCOLOR 151
        VELLANE -1 100 0
        CFGEDITVIEW 329854.512472 0.074447 59 12 0 -1 0 0 0 0.5
        KEYSNAP 0
        TRACKSEL -252
        EVTFILTER 0 -1 -1 -1 -1 0 0 0 0 -1 -1 -1 -1 0 -1 0 -1 -1
        CFGEDIT 1 1 0 1 0 0 1 1 1 1 1 0.25 320 95 2496 860 0 0 0 0 0 0 0 0 0 0.5 0 0 1 64
      >
    >
    <ITEM
      POSITION 99.83999999998605
      SNAPOFFS 0
      LENGTH 30.72
      LOOP 1
      ALLTAKES 0
      FADEIN 1 0 0 1 0 0
      FADEOUT 1 0 0 1 0 0
      MUTE 0
      SEL 0
      IGUID {742346C6-3BA5-49FC-97A1-8C1BF842E59B}
      IID 5
      NAME "02-EZdrummer-Recorded MIDI"
      VOLPAN 1 0 1 -1
      SOFFS 133.92 279
      PLAYRATE 1 1 0 -1 0 0.0025
      CHANMODE 0
      GUID {7DF8CCED-3AED-48C9-A48F-0D3F50938326}
      RECPASS 2
      <SOURCE MIDI
        HASDATA 1 960 QN
        POOLEDEVTS {923EDECE-E7D8-422D-8690-1F2B33A60D26}
        E 15360 99 24 4a 32
        E 0 99 29 5a 50
        E 90 89 24 40 32
        E 112 89 29 40 50
        E 38 99 24 21 -116
        E 200 89 24 40 -116
        E 40 99 29 51 16
        E 200 89 29 40 16
        E 280 99 26 7f 24
        E 0 99 29 7f 46
        E 200 89 26 40 24
        E 0 89 29 40 46
        E 280 99 29 57 -4
        E 200 89 29 40 -4
        E 280 99 29 66 19
        E 0 99 24 51 38
        E 200 89 24 40 38
        E 1 89 29 40 19
        E 279 99 29 5a 2
        E 0 99 24 3b 34
        E 198 89 24 40 34
        E 4 89 29 40 2
        E 38 99 24 1a -6
        E 198 89 24 40 -6
        E 42 99 29 6b 59
        E 0 99 26 6c 60
        E 199 89 29 40 59
        E 1 89 26 40 60
        E 280 99 29 6a 36
        E 200 89 29 40 36
        E 280 99 29 78 74
        E 0 99 24 49 88
        E 146 89 24 40 88
        E 54 89 29 40 74
        E 40 99 24 20 -5
        E 201 89 24 40 -5
        E 39 99 29 4f 40
        E 202 89 29 40 40
        E 278 99 26 7e 32
        E 0 99 29 7e 50
        E 199 89 26 40 32
        E 1 89 29 40 50
        E 280 99 29 4d 20
        E 200 89 29 40 20
        E 280 99 29 7b 14
        E 0 99 24 53 18
        E 200 89 29 40 14
        E 2 89 24 40 18
        E 278 99 24 40 -10
        E 0 99 29 72 8
        E 182 89 24 40 -10
        E 18 89 29 40 8
        E 40 99 24 20 -66
        E 200 89 24 40 -66
        E 40 99 26 7d 26
        E 0 99 29 7b 38
        E 200 89 26 40 26
        E 0 89 29 40 38
        E 280 99 29 69 11
        E 201 89 29 40 11
        E 279 99 24 51 36
        E 0 99 29 77 44
        E 200 89 24 40 36
        E 0 89 29 40 44
        E 280 99 24 35 -116
        E 0 99 24 14 8
        E 0 99 29 68 14
        E 122 89 24 40 -116
        E 76 89 24 40 8
        E 2 89 29 40 14
        E 280 99 26 78 20
        E 0 99 29 7c 38
        E 202 89 26 40 20
        E 2 89 29 40 38
        E 276 99 29 5d 49
        E 203 89 29 40 49
        E 277 99 24 4a 60
        E 0 99 29 7f 76
        E 168 89 24 40 60
        E 32 89 29 40 76
        E 40 99 24 21 -10
        E 198 89 24 40 -10
        E 42 99 29 63 26
        E 202 89 29 40 26
        E 278 99 26 7f 68
        E 0 99 29 7f 76
        E 200 89 26 40 68
        E 0 89 29 40 76
        E 280 99 29 5b 56
        E 198 89 29 40 56
        E 282 99 29 67 56
        E 0 99 24 4f 58
        E 200 89 29 40 56
        E 0 89 24 40 58
        E 280 99 24 3b -44
        E 0 99 29 62 28
        E 0 99 24 1a 75
        E 118 89 24 40 -44
        E 82 89 29 40 28
        E 3 89 24 40 75
        E 277 99 26 7f 40
        E 0 99 29 7f 58
        E 202 89 26 40 40
        E 2 89 29 40 58
        E 276 99 29 5c 50
        E 200 89 29 40 50
        E 280 99 24 4b 54
        E 0 99 29 73 60
        E 156 89 24 40 54
        E 44 89 29 40 60
        E 40 99 24 1b -30
        E 200 89 24 40 -30
        E 40 99 29 66 28
        E 202 89 29 40 28
        E 278 99 26 76 30
        E 0 99 29 7f 68
        E 200 89 26 40 30
        E 2 89 29 40 68
        E 278 99 29 75 43
        E 201 89 29 40 43
        E 279 99 24 51 70
        E 0 99 29 7f 74
        E 200 89 24 40 70
        E 0 89 29 40 74
        E 280 99 24 44 40
        E 0 99 29 6e 50
        E 184 89 24 40 40
        E 16 89 29 40 50
        E 40 99 24 1d -14
        E 200 89 24 40 -14
        E 40 99 26 76 62
        E 0 99 29 7f 84
        E 200 89 26 40 62
        E 2 89 29 40 84
        E 278 99 29 7f 74
        E 200 89 29 40 74
        E 280 99 24 4b 98
        E 0 99 29 7f 104
        E 200 89 24 40 98
        E 0 89 29 40 104
        E 280 99 24 3d 62
        E 0 99 29 6e 100
        E 184 89 24 40 62
        E 16 89 29 40 100
        E 40 99 24 24 8
        E 200 89 24 40 8
        E 40 99 29 7c 108
        E 0 99 26 5f 116
        E 200 89 29 40 108
        E 0 89 26 40 116
        E 280 99 29 74 118
        E 200 89 29 40 118
        E 520 99 29 7f -106
        E 0 99 24 4c -86
        E 0 99 24 1c 66
        E 150 89 24 40 -86
        E 47 89 24 40 66
        E 5 89 29 40 -106
        E 38 99 29 66 80
        E 200 89 29 40 80
        E 280 99 29 7f 94
        E 0 99 26 7c 99
        E 200 89 29 40 94
        E 1 89 26 40 99
        E 279 99 29 67 62
        E 200 89 29 40 62
        E 280 99 29 7f 36
        E 0 99 24 4c 86
        E 200 89 29 40 36
        E 0 89 24 40 86
        E 280 99 29 7a 56
        E 0 99 24 3d 60
        E 176 89 24 40 60
        E 26 89 29 40 56
        E 38 99 24 1e -2
        E 200 89 24 40 -2
        E 40 99 26 7b 92
        E 0 99 29 7f 96
        E 200 89 29 40 96
        E 2 89 26 40 92
        E 278 99 29 65 102
        E 198 89 29 40 102
        E 282 99 24 49 94
        E 0 99 29 77 104
        E 200 89 24 40 94
        E 0 89 29 40 104
        E 280 99 24 3b 62
        E 0 99 29 6d 110
        E 200 89 24 40 62
        E 2 89 29 40 110
        E 278 99 24 0d -80
        E 0 99 26 69 106
        E 200 89 24 40 -80
        E 0 89 26 40 106
        E 40 99 29 7f -112
        E 200 89 29 40 -112
        E 40 99 29 7f 98
        E 200 89 29 40 98
        E 280 99 24 48 102
        E 0 99 29 7b 108
        E 200 89 24 40 102
        E 0 89 29 40 108
        E 280 99 24 39 36
        E 0 99 29 74 102
        E 156 89 24 40 36
        E 44 89 29 40 102
        E 40 99 24 18 -48
        E 202 89 24 40 -48
        E 38 99 26 7d 100
        E 200 89 26 40 100
        E 40 99 29 7f -114
        E 201 89 29 40 -114
        E 39 99 29 70 88
        E 200 89 29 40 88
        E 40 99 26 36 -46
        E 200 89 26 40 -46
        E 40 99 24 51 20
        E 0 99 29 71 44
        E 141 89 24 40 20
        E 59 89 29 40 44
        E 40 99 24 1d -76
        E 198 89 24 40 -76
        E 42 99 29 78 60
        E 200 89 29 40 60
        E 280 99 26 7f 79
        E 0 99 29 7f 102
        E 201 89 26 40 79
        E 0 89 29 40 102
        E 279 99 29 53 84
        E 200 89 29 40 84
        E 280 99 24 4d 52
        E 0 99 29 7f 60
        E 166 89 24 40 52
        E 38 89 29 40 60
        E 36 99 24 18 -20
        E 200 89 24 40 -20
        E 40 99 24 1c -8
        E 0 99 29 71 66
        E 199 89 24 40 -8
        E 1 89 29 40 66
        E 280 99 26 7f 38
        E 0 99 29 7f 74
        E 200 89 26 40 38
        E 0 89 29 40 74
        E 280 99 29 7f 58
        E 202 89 29 40 58
        E 38 99 30 7f 18
        E 112 89 30 40 18
        E 128 99 30 1f -108
        E 0 99 2d 7f 20
        E 0 99 24 53 22
        E 200 89 2d 40 20
        E 2 89 30 40 -108
        E 0 89 24 40 22
        E 278 99 29 7f 14
        E 200 89 29 40 14
        E 280 99 26 7f -29
        E 0 99 29 7f 12
        E 201 89 26 40 -29
        E 0 89 29 40 12
        E 279 99 29 59 22
        E 202 89 29 40 22
        E 278 99 24 4d
        E 0 99 29 7f 6
        E 200 89 24 40
        E 0 89 29 40 6
        E 280 99 24 3a
        E 0 99 29 7f 12
        E 154 89 24 40
        E 46 89 29 40 12
        E 40 99 24 13 -84
        E 200 89 24 40 -84
        E 40 99 26 7f 21
        E 0 99 29 7f 29
        E 201 89 26 40 21
        E 0 89 29 40 29
        E 279 99 29 78 24
        E 202 89 29 40 24
        E 278 99 24 4d 28
        E 0 99 29 7f 36
        E 199 89 29 40 36
        E 1 89 24 40 28
        E 280 99 24 3b -4
        E 0 99 29 7f 40
        E 199 89 29 40 40
        E 3 89 24 40 -4
        E 38 99 24 1e -26
        E 200 89 24 40 -26
        E 40 99 26 7f 49
        E 0 99 29 7f 66
        E 201 89 26 40 49
        E 1 89 29 40 66
        E 278 99 29 70 64
        E 200 89 29 40 64
        E 280 99 24 47 32
        E 0 99 29 7f 35
        E 199 89 24 40 32
        E 6 89 29 40 35
        E 275 99 24 3b -32
        E 0 99 29 6a 68
        E 199 89 24 40 -32
        E 1 89 29 40 68
        E 40 99 24 17 -59
        E 201 89 24 40 -59
        E 39 99 26 7f 60
        E 0 99 29 7f 68
        E 200 89 26 40 60
        E 0 89 29 40 68
        E 280 99 29 7f 19
        E 201 89 29 40 19
        E 39 99 30 7f 16
        E 0 99 24 4e 108
        E 90 89 24 40 108
        E 110 89 30 40 16
        E 40 99 24 27 -40
        E 0 99 2d 7f
        E 198 89 24 40 -40
        E 2 89 2d 40
        E 280 99 29 7f 5
        E 201 89 29 40 5
        E 279 99 26 7f 10
        E 0 99 29 7f 32
        E 199 89 26 40 10
        E 0 89 29 40 32
        E 281 99 29 7f 16
        E 200 89 29 40 16
        E 280 99 29 7f 41
        E 0 99 24 4e 52
        E 201 89 29 40 41
        E 1 89 24 40 52
        E 278 99 24 3d 14
        E 0 99 29 7f 30
        E 180 89 24 40 14
        E 20 89 29 40 30
        E 40 99 24 19 -45
        E 203 89 24 40 -45
        E 37 99 26 7f 4
        E 0 99 29 7f 22
        E 202 89 26 40 4
        E 0 89 29 40 22
        E 278 99 29 7f 26
        E 202 89 29 40 26
        E 278 99 29 7f 45
        E 0 99 24 50 53
        E 200 89 24 40 53
        E 1 89 29 40 45
        E 279 99 24 33 -29
        E 0 99 29 7f 49
        E 201 89 24 40 -29
        E 0 89 29 40 49
        E 279 99 29 7f 69
        E 0 99 26 7f 73
        E 201 89 26 40 73
        E 1 89 29 40 69
        E 278 99 29 78 68
        E 202 89 29 40 68
        E 278 99 29 7f 68
        E 0 99 24 50 72
        E 200 89 29 40 68
        E 0 89 24 40 72
        E 280 99 24 3d 58
        E 0 99 29 7f 63
        E 144 89 24 40 58
        E 57 89 29 40 63
        E 39 99 24 1a -36
        E 200 89 24 40 -36
        E 40 99 26 7f 74
        E 0 99 29 7f 82
        E 199 89 26 40 74
        E 3 89 29 40 82
        E 278 99 29 7f 39
        E 201 89 29 40 39
        E 39 99 30 7f 16
        E 200 89 30 40 16
        E 40 99 24 53 -66
        E 0 99 24 26 13
        E 0 99 2d 7f 25
        E 77 89 24 40 -66
        E 121 89 24 40 13
        E 3 89 2d 40 25
        E 279 99 2d 5a -86
        E 199 89 2d 40 -86
        E 281 99 29 7f -6
        E 0 99 26 7f -4
        E 200 89 29 40 -6
        E 0 89 26 40 -4
        E 280 99 29 7d -8
        E 199 89 29 40 -8
        E 281 99 24 53 11
        E 0 99 29 7f 28
        E 0 99 24 24 112
        E 99 89 24 40 11
        E 100 89 24 40 112
        E 1 89 29 40 28
        E 280 99 29 7f 23
        E 0 99 24 47 54
        E 134 89 24 40 54
        E 66 89 29 40 23
        E 40 99 24 1e -50
        E 200 89 24 40 -50
        E 40 99 26 7f 38
        E 0 99 29 7f 62
        E 200 89 29 40 62
        E 1 89 26 40 38
        E 279 99 29 7f 47
        E 201 89 29 40 47
        E 279 99 29 7f 66
        E 0 99 24 4b 76
        E 199 89 24 40 76
        E 1 89 29 40 66
        E 280 99 29 7f 52
        E 0 99 24 3a 70
        E 139 89 24 40 70
        E 61 89 29 40 52
        E 40 99 24 1b -28
        E 198 89 24 40 -28
        E 42 99 26 7b 68
        E 0 99 29 7f 84
        E 199 89 26 40 68
        E 1 89 29 40 84
        E 280 99 29 7f 90
        E 202 89 29 40 90
        E 278 99 24 50 42
        E 0 99 29 7f 62
        E 199 89 29 40 62
        E 1 89 24 40 42
        E 280 99 24 39 19
        E 0 99 29 7f 58
        E 171 89 24 40 19
        E 28 89 29 40 58
        E 41 99 24 1a -48
        E 200 89 24 40 -48
        E 40 99 26 7f 87
        E 0 99 29 7f 91
        E 201 89 26 40 87
        E 0 89 29 40 91
        E 279 99 29 7f 42
        E 200 89 29 40 42
        E 40 99 30 7f 9
        E 201 89 30 40 9
        E 39 99 24 52 -86
        E 0 99 24 24 -2
        E 0 99 2d 7f 14
        E 82 89 24 40 -86
        E 118 89 24 40 -2
        E 2 89 2d 40 14
        E 38 99 24 43 59
        E 201 89 24 40 59
        E 39 99 2d 7f -24
        E 200 89 2d 40 -24
        E 280 99 29 7f 3
        E 0 99 26 7b 7
        E 200 89 29 40 3
        E 1 89 26 40 7
        E 279 99 29 7c -10
        E 200 89 29 40 -10
        E 280 99 24 4c 20
        E 0 99 29 7f 30
        E 199 89 29 40 30
        E 1 89 24 40 20
        E 280 99 24 3e 22
        E 0 99 29 7f 46
        E 130 89 24 40 22
        E 70 89 29 40 46
        E 40 99 24 1c -86
        E 200 89 24 40 -86
        E 40 99 26 7f 21
        E 0 99 29 7f 52
        E 201 89 26 40 21
        E 1 89 29 40 52
        E 278 99 29 7f 28
        E 202 89 29 40 28
        E 278 99 29 7f 68
        E 0 99 24 4d 70
        E 116 89 24 40 70
        E 84 89 29 40 68
        E 40 99 24 1f -52
        E 199 89 24 40 -52
        E 41 99 29 72 56
        E 201 89 29 40 56
        E 225 b9 04 12
        E 54 99 26 64 58
        E 0 99 29 7f 78
        E 12 b9 04 22
        E 60 b9 04 32
        E 128 89 29 40 78
        E 2 89 26 40 58
        E 87 b9 04 22
        E 84 b9 04 12
        E 107 99 29 7f 48
        E 38 b9 04 09
        E 162 89 29 40 48
        E 23 b9 04 0f
        E 257 99 24 50 -25
        E 0 99 29 7f 46
        E 39 b9 04 03
        E 32 b9 04 00
        E 129 89 24 40 -25
        E 0 89 29 40 46
        E 280 99 29 68 59
        E 201 89 29 40 59
        E 279 99 26 7f 63
        E 0 99 29 7f 86
        E 200 89 29 40 86
        E 3 89 26 40 63
        E 277 99 29 7f 42
        E 201 89 29 40 42
        E 39 99 30 7f -11
        E 0 99 24 52 92
        E 79 89 24 40 92
        E 124 89 30 40 -11
        E 37 99 24 27 -67
        E 0 99 2d 7f
        E 192 b9 04 0f
        E 6 89 24 40 -67
        E 2 89 2d 40
        E 40 99 30 72 -34
        E 0 99 30 35 32
        E 62 89 30 40 -34
        E 137 89 30 40 32
        E 9 b9 04 00
        E 32 99 2d 7f -77
        E 0 99 24 54 111
        E 109 89 24 40 111
        E 91 89 2d 40 -77
        E 40 99 24 20 -18
        E 197 89 24 40 -18
        E 43 99 26 7f 6
        E 0 99 29 7f 14
        E 199 89 26 40 6
        E 0 89 29 40 14
        E 281 99 29 7d -9
        E 203 89 29 40 -9
        E 277 99 24 5c -21
        E 0 99 29 7f 3
        E 200 89 24 40 -21
        E 1 89 29 40 3
        E 279 99 24 43 10
        E 0 99 29 7f 12
        E 171 89 24 40 10
        E 26 89 29 40 12
        E 43 99 24 1d -54
        E 198 89 24 40 -54
        E 42 99 26 7f 3
        E 0 99 29 7f 26
        E 200 89 29 40 26
        E 1 89 26 40 3
        E 279 99 29 6e 27
        E 200 89 29 40 27
        E 280 99 24 4d 43
        E 0 99 29 7f 56
        E 201 89 24 40 43
        E 1 89 29 40 56
        E 278 99 24 40 -50
        E 0 99 29 7f 22
        E 0 99 24 1e 71
        E 119 89 24 40 -50
        E 80 89 29 40 22
        E 1 89 24 40 71
        E 280 99 26 6c 56
        E 0 99 29 7f 67
        E 199 89 26 40 56
        E 3 89 29 40 67
        E 278 99 29 7f 61
        E 201 89 29 40 61
        E 279 99 24 52 26
        E 0 99 29 7f 48
        E 199 89 29 40 48
        E 1 89 24 40 26
        E 280 99 24 43 -11
        E 0 99 29 7f 24
        E 170 89 24 40 -11
        E 31 89 29 40 24
        E 39 99 24 17 -79
        E 201 89 24 40 -79
        E 39 99 26 7f 10
        E 0 99 29 7f 38
        E 201 89 26 40 10
        E 0 89 29 40 38
        E 279 99 29 7f 35
        E 203 89 29 40 35
        E 37 99 30 7b -15
        E 0 99 24 53 91
        E 0 99 30 1f 99
        E 76 89 24 40 91
        E 36 89 30 40 -15
        E 87 89 30 40 99
        E 41 99 24 25 -70
        E 0 99 2d 7f 7
        E 199 89 24 40 -70
        E 1 89 2d 40 7
        E 280 99 29 7f 26
        E 0 99 24 4a 90
        E 93 89 24 40 90
        E 108 89 29 40 26
        E 39 99 24 1d -54
        E 197 89 24 40 -54
        E 43 99 24 30 -6
        E 0 99 29 7f 37
        E 0 99 26 7f 50
        E 199 89 26 40 50
        E 2 89 24 40 -6
        E 0 89 29 40 37
        E 279 99 29 7f 17
        E 200 89 29 40 17
        E 280 99 24 51 -31
        E 0 99 29 7f 17
        E 200 89 29 40 17
        E 1 89 24 40 -31
        E 279 99 24 3d 16
        E 0 99 29 7f 33
        E 145 89 24 40 16
        E 56 89 29 40 33
        E 39 99 24 1b -78
        E 200 89 24 40 -78
        E 40 99 26 7f 8
        E 0 99 29 7f 31
        E 199 89 26 40 8
        E 1 89 29 40 31
        E 280 99 29 7f 10
        E 200 89 29 40 10
        E 40 99 30 7f -27
        E 0 99 24 54 32
        E 87 89 24 40 32
        E 113 89 30 40 -27
        E 40 99 24 24 -118
        E 0 99 2d 7f 7
        E 197 89 24 40 -118
        E 6 89 2d 40 7
        E 37 99 24 47 -41
        E 0 99 24 1f 43
        E 83 89 24 40 -41
        E 117 89 24 40 43
        E 40 99 2d 60 -69
        E 200 89 2d 40 -69
        E 280 99 26 7f -9
        E 0 99 29 7f 26
        E 199 89 29 40 26
        E 1 89 26 40 -9
        E 280 99 29 7f 5
        E 200 89 29 40 5
        E 280 99 24 5a 8
        E 0 99 29 7f 32
        E 199 89 24 40 8
        E 0 89 29 40 32
        E 281 99 24 46 15
        E 0 99 29 7f 41
        E 148 89 24 40 15
        E 52 89 29 40 41
        E 40 99 24 1e -75
        E 198 89 24 40 -75
        E 42 99 26 7f -7
        E 0 99 29 7f 48
        E 200 89 29 40 48
        E 2 89 26 40 -7
        E 278 99 29 7f 43
        E 0 99 24 3b 101
        E 200 89 29 40 43
        E 0 89 24 40 101
        E 40 99 30 7f 87
        E 89 89 30 40 87
        E 151 99 30 2b -61
        E 0 99 24 5e 27
        E 0 99 2d 7f 79
        E 200 89 30 40 -61
        E 0 89 24 40 27
        E 0 89 2d 40 79
        E 206 b9 04 00
        E 28 b9 04 00
        E 46 99 1a 1a -73
        E 0 99 1a 42 -42
        E 0 99 30 7a -39
        E 0 99 2d 7f 21
        E 28 89 1a 40 -73
        E 169 89 1a 40 -42
        E 4 89 2d 40 21
        E 1 89 30 40 -39
        E 38 99 24 4d -107
        E 0 99 24 23 -27
        E 78 89 24 40 -107
        E 120 89 24 40 -27
        E 42 99 26 6f 42
        E 0 99 29 7f 45
        E 200 89 26 40 42
        E 2 89 29 40 45
        E 278 99 29 7f 55
        E 200 89 29 40 55
        E 280 99 29 7f 59
        E 0 99 24 56 99
        E 200 89 29 40 59
        E 0 89 24 40 99
        E 280 99 24 3a 35
        E 0 99 29 7f 46
        E 168 89 24 40 35
        E 33 89 29 40 46
        E 39 99 24 19 -37
        E 200 89 24 40 -37
        E 40 99 26 7f 15
        E 0 99 29 7f 63
        E 203 89 26 40 15
        E 0 89 29 40 63
        E 277 99 29 7f 65
        E 200 89 29 40 65
        E 40 99 26 4a -1
        E 200 89 26 40 -1
        E 40 99 24 56 -22
        E 0 99 29 7f 59
        E 199 89 24 40 -22
        E 2 89 29 40 59
        E 279 99 24 37 -69
        E 0 99 29 7f 65
        E 198 89 24 40 -69
        E 3 89 29 40 65
        E 39 99 24 16 -109
        E 201 89 24 40 -109
        E 39 99 26 7c 63
        E 0 99 29 7f 85
        E 200 89 26 40 63
        E 0 89 29 40 85
        E 280 99 29 7f 83
        E 200 89 29 40 83
        E 280 99 24 4d 91
        E 0 99 29 7f 107
        E 200 89 24 40 91
        E 0 89 29 40 107
        E 280 99 24 3c 31
        E 0 99 29 7f 105
        E 122 89 24 40 31
        E 78 89 29 40 105
        E 40 99 24 1c -87
        E 200 89 24 40 -87
        E 40 99 26 7f 107
        E 200 89 26 40 107
        E 40 99 29 7f -102
        E 199 89 29 40 -102
        E 281 99 29 7f -118
        E 0 99 30 7f 71
        E 199 89 29 40 -118
        E 3 89 30 40 71
        E 38 99 24 6c -5
        E 0 99 2d 7f 117
        E 200 89 24 40 -5
        E 0 89 2d 40 117
        E 280 99 24 43 -105
        E 0 99 2d 7f 81
        E 200 89 24 40 -105
        E 1 89 2d 40 81
        E 279 99 26 7f 54
        E 0 99 29 7f 95
        E 89 89 26 40 54
        E 114 89 29 40 95
        E 37 99 26 35 -95
        E 198 89 26 40 -95
        E 42 99 29 7f 91
        E 203 89 29 40 91
        E 277 99 29 7f 91
        E 0 99 24 4e 113
        E 200 89 29 40 91
        E 1 89 24 40 113
        E 279 99 29 7f 91
        E 0 99 24 3e 95
        E 158 89 24 40 95
        E 44 89 29 40 91
        E 38 99 24 1f 15
        E 198 89 24 40 15
        E 42 99 26 7f 67
        E 0 99 29 7f 95
        E 200 89 26 40 67
        E 1 89 29 40 95
        E 279 99 29 7f 91
        E 200 89 29 40 91
        E 280 99 24 50 71
        E 0 99 29 7f 89
        E 202 89 24 40 71
        E 0 89 29 40 89
        E 278 99 24 3e 10
        E 0 99 29 7f 101
        E 199 89 24 40 10
        E 1 89 29 40 101
        E 40 99 24 20 -6
        E 201 89 24 40 -6
        E 39 99 26 7e 110
        E 201 89 26 40 110
        E 39 99 29 7f -113
        E 200 89 29 40 -113
        E 280 99 29 7f -93
        E 200 89 29 40 -93
        E 40 99 24 4a 59
        E 0 99 29 7f 91
        E 200 89 24 40 59
        E 1 89 29 40 91
        E 39 99 24 31 113
        E 140 89 24 40 113
        E 100 99 24 0a 17
        E 0 99 29 7f 91
        E 198 89 24 40 17
        E 2 89 29 40 91
        E 280 99 26 7f 67
        E 0 99 29 7f 106
        E 199 89 29 40 106
        E 3 89 26 40 67
        E 278 99 29 7f 61
        E 200 89 29 40 61
        E 40 99 30 7f 32
        E 111 89 30 40 32
        E 129 99 30 25 -95
        E 0 99 24 58 -22
        E 0 99 2d 7f 65
        E 200 89 2d 40 65
        E 1 89 30 40 -95
        E 2 89 24 40 -22
        E 2 b9 04 03
        E 35 99 1a 27 -33
        E 0 99 30 6d 17
        E 0 99 30 28 102
        E 85 89 30 40 17
        E 48 b9 04 06
        E 66 89 30 40 102
        E 1 89 1a 40 -33
        E 40 99 2d 7f 20
        E 0 99 24 49 55
        E 17 b9 04 00
        E 71 89 24 40 55
        E 113 89 2d 40 20
        E 39 99 24 22 -97
        E 202 89 24 40 -97
        E 38 99 26 73 19
        E 0 99 29 7f 47
        E 200 89 26 40 19
        E 4 89 29 40 47
        E 276 99 29 7f 31
        E 200 89 29 40 31
        E 280 99 29 7f 31
        E 0 99 24 53 41
        E 200 89 29 40 31
        E 0 89 24 40 41
        E 280 99 24 3d 58
        E 0 99 29 7f 58
        E 149 89 24 40 58
        E 51 89 29 40 58
        E 40 99 24 1c -31
        E 200 89 24 40 -31
        E 40 99 26 78 45
        E 0 99 29 7f 63
        E 200 89 26 40 45
        E 0 89 29 40 63
        E 280 99 29 7f 47
        E 200 89 29 40 47
        E 40 99 2d 7f -23
        E 203 89 2d 40 -23
        E 37 99 24 5d 11
        E 0 99 2d 7f 15
        E 200 89 24 40 11
        E 2 89 2d 40 15
        E 278 99 2d 7f 23
        E 0 99 24 48 77
        E 184 89 24 40 77
        E 16 89 2d 40 23
        E 40 99 24 28 23
        E 200 89 24 40 23
        E 40 99 2d 7f -73
        E 0 99 26 65 103
        E 62 89 26 40 103
        E 138 89 2d 40 -73
        E 40 99 26 4b -70
        E 199 89 26 40 -70
        E 41 99 29 7f -83
        E 201 89 29 40 -83
        E 39 99 26 6e 100
        E 201 89 26 40 100
        E 39 99 29 7f 49
        E 200 89 29 40 49
        E 280 99 29 7f 99
        E 201 89 29 40 99
        E 39 99 24 37 -79
        E 203 89 24 40 -79
        E 37 99 24 47 55
        E 200 89 24 40 55
        E 40 99 26 6b -98
        E 0 99 29 7f -75
        E 199 89 26 40 -98
        E 1 89 29 40 -75
        E 280 99 29 7f -86
        E 199 89 29 40 -86
        E 281 99 24 4f -107
        E 0 99 29 7f -85
        E 200 89 24 40 -107
        E 0 89 29 40 -85
        E 40 99 24 30 91
        E 200 89 24 40 91
        E 40 99 29 75 -61
        E 200 89 29 40 -61
        E 280 99 24 3f -102
        E 0 99 29 7f -82
        E 201 89 24 40 -102
        E 0 89 29 40 -82
        E 279 99 29 4f -9
        E 200 89 29 40 -9
        E 4840 99 29 7f -6
        E 0 99 24 50 21
        E 201 89 29 40 -6
        E 1 89 24 40 21
        E 278 99 29 7f -55
        E 0 99 24 3a -47
        E 200 89 24 40 -47
        E 2 89 29 40 -55
        E 38 99 24 1e -79
        E 200 89 24 40 -79
        E 40 99 26 7f -59
        E 0 99 29 7f -21
        E 200 89 26 40 -59
        E 0 89 29 40 -21
        E 280 99 29 7f -73
        E 0 99 30 41 81
        E 200 89 29 40 -73
        E 0 89 30 40 81
        E 40 99 24 57 74
        E 199 89 24 40 74
        E 41 99 2d 7f -85
        E 202 89 2d 40 -85
        E 278 99 29 42 -119
        E 0 99 2d 18 -105
        E 200 89 29 40 -119
        E 2 89 2d 40 -105
        E 278 99 26 7f -89
        E 0 99 29 7f -69
        E 200 89 26 40 -89
        E 0 89 29 40 -69
        E 280 99 29 7f -79
        E 201 89 29 40 -79
        E 279 99 24 53 -77
        E 0 99 29 7f -49
        E 200 89 24 40 -77
        E 2 89 29 40 -49
        E 278 99 24 3b -101
        E 0 99 29 7f -55
        E 0 99 24 23 17
        E 116 89 24 40 -101
        E 84 89 29 40 -55
        E 0 89 24 40 17
        E 280 99 26 7f -69
        E 0 99 29 7f -30
        E 199 89 29 40 -30
        E 1 89 26 40 -69
        E 280 99 29 7f -37
        E 200 89 29 40 -37
        E 280 99 24 58 -83
        E 0 99 29 7f -35
        E 200 89 29 40 -35
        E 2 89 24 40 -83
        E 278 99 24 3d -103
        E 0 99 29 7f -17
        E 0 99 24 1f 15
        E 114 89 24 40 -103
        E 84 89 24 40 15
        E 2 89 29 40 -17
        E 280 99 29 7f -11
        E 200 89 29 40 -11
        E 280 99 29 7f 23
        E 200 89 29 40 23
        E 280 99 24 4c 35
        E 0 99 29 7f 69
        E 200 89 24 40 35
        E 0 89 29 40 69
        E 280 99 24 3d 17
        E 0 99 29 7f 83
        E 170 89 24 40 17
        E 32 89 29 40 83
        E 38 99 24 1d -51
        E 198 89 24 40 -51
        E 42 99 26 6c 89
        E 0 99 29 7f 105
        E 78 89 26 40 89
        E 122 89 29 40 105
        E 40 99 26 3d -73
        E 200 89 26 40 -73
        E 40 99 29 7f 47
        E 202 89 29 40 47
        E 38 99 30 7f -5
        E 200 89 30 40 -5
        E 40 99 24 5f -55
        E 0 99 2d 7f 39
        E 200 89 24 40 -55
        E 0 89 2d 40 39
        E 280 99 29 3d 1
        E 0 99 2d 1b 15
        E 202 89 29 40 1
        E 0 89 2d 40 15
        E 278 99 26 7f 29
        E 0 99 29 7f 53
        E 202 89 26 40 29
        E 0 89 29 40 53
        E 278 99 29 7f 41
        E 200 89 29 40 41
        E 280 99 24 56 39
        E 0 99 29 7f 53
        E 200 89 24 40 39
        E 0 89 29 40 53
        E 280 99 24 3d 49
        E 0 99 29 7f 93
        E 146 89 24 40 49
        E 54 89 29 40 93
        E 40 99 24 1f -43
        E 200 89 24 40 -43
        E 40 99 26 7f 39
        E 0 99 29 7f 85
        E 200 89 29 40 85
        E 2 89 26 40 39
        E 278 99 29 7f 71
        E 200 89 29 40 71
        E 280 99 24 4d 75
        E 0 99 29 7f 85
        E 200 89 24 40 75
        E 2 89 29 40 85
        E 278 99 29 7f 85
        E 0 99 24 3a 87
        E 190 89 24 40 87
        E 12 89 29 40 85
        E 38 99 24 19 41
        E 198 89 24 40 41
        E 42 99 26 7f 69
        E 0 99 29 7f 111
        E 200 89 29 40 111
        E 2 89 26 40 69
        E 278 99 29 7f 117
        E 200 89 29 40 117
        E 280 99 24 51 59
        E 0 99 29 7f 101
        E 200 89 29 40 101
        E 2 89 24 40 59
        E 278 99 24 37 22
        E 0 99 29 7f 74
        E 149 89 24 40 22
        E 50 89 29 40 74
        E 41 99 24 18 -67
        E 200 89 24 40 -67
        E 40 99 26 7b 65
        E 0 99 29 7f 103
        E 200 89 26 40 65
        E 0 89 29 40 103
        E 280 99 29 7f 59
        E 201 89 29 40 59
        E 39 99 30 7f -3
        E 200 89 30 40 -3
        E 40 99 24 62 -59
        E 0 99 2d 7f 47
        E 200 89 24 40 -59
        E 0 89 2d 40 47
        E 280 99 29 7f 65
        E 200 89 29 40 65
        E 40 99 26 7f -95
        E 202 89 26 40 -95
        E 38 99 29 7f 61
        E 200 89 29 40 61
        E 280 99 29 7f 73
        E 200 89 29 40 73
        E 280 99 24 5a 77
        E 0 99 29 7f 81
        E 200 89 24 40 77
        E 0 89 29 40 81
        E 280 99 24 45 55
        E 0 99 29 7f 89
        E 114 89 24 40 55
        E 88 89 29 40 89
        E 38 99 24 22 -69
        E 198 89 24 40 -69
        E 42 99 26 7f 19
        E 0 99 29 7f 66
        E 200 89 26 40 19
        E 1 89 29 40 66
        E 279 99 29 7f 61
        E 200 89 29 40 61
        E 280 99 24 52 23
        E 0 99 29 7f 67
        E 200 89 29 40 67
        E 2 89 24 40 23
        E 278 99 24 3d 33
        E 0 99 29 7f 63
        E 144 89 24 40 33
        E 56 89 29 40 63
        E 40 99 24 1f -61
        E 200 89 24 40 -61
        E 40 99 26 7c 53
        E 0 99 29 7f 107
        E 200 89 26 40 53
        E 0 89 29 40 107
        E 280 99 29 7f 91
        E 200 89 29 40 91
        E 280 99 24 56 87
        E 200 89 24 40 87
        E 40 99 29 7f -115
        E 200 89 29 40 -115
        E 40 99 24 3c 47
        E 0 99 29 7f 103
        E 144 89 24 40 47
        E 55 89 29 40 103
        E 41 99 24 19 -47
        E 200 89 24 40 -47
        E 40 99 26 7f 63
        E 0 99 29 7f 105
        E 200 89 26 40 63
        E 0 89 29 40 105
        E 280 99 29 7f 69
        E 181 b9 04 00
        E 19 89 29 40 69
        E 40 99 1a 34 -57
        E 0 99 30 77 -27
        E 200 89 1a 40 -57
        E 0 89 30 40 -27
        E 40 99 24 70 -45
        E 0 99 2d 7f 85
        E 200 89 24 40 -45
        E 0 89 2d 40 85
        E 40 99 24 49 113
        E 200 89 24 40 113
        E 40 99 2d 7f -3
        E 200 89 2d 40 -3
        E 280 99 26 7f 7
        E 0 99 29 7f 37
        E 200 89 26 40 7
        E 0 89 29 40 37
        E 280 99 29 7f 31
        E 200 89 29 40 31
        E 280 99 24 55 -33
        E 0 99 29 7f 31
        E 200 89 29 40 31
        E 2 89 24 40 -33
        E 278 99 24 40 -69
        E 0 99 29 7f 29
        E 200 89 29 40 29
        E 2 89 24 40 -69
        E 278 99 26 7c 9
        E 0 99 29 7f 49
        E 200 89 26 40 9
        E 1 89 29 40 49
        E 279 99 29 7f 59
        E 202 89 29 40 59
        E 278 99 24 53 57
        E 0 99 29 7f 79
        E 200 89 24 40 57
        E 0 89 29 40 79
        E 280 99 24 40 -11
        E 0 99 29 7f 61
        E 0 99 24 22 97
        E 108 89 24 40 -11
        E 92 89 29 40 61
        E 1 89 24 40 97
        E 279 99 26 75 17
        E 0 99 29 7f 75
        E 200 89 26 40 17
        E 4 89 29 40 75
        E 276 99 29 78 87
        E 200 89 29 40 87
        E 280 99 24 54 51
        E 0 99 29 7f 97
        E 104 89 24 40 51
        E 96 89 29 40 97
        E 40 99 24 21 -83
        E 198 89 24 40 -83
        E 42 99 29 7f 87
        E 200 89 29 40 87
        E 40 99 24 43 -109
        E 0 99 24 23 61
        E 168 89 24 40 -109
        E 32 89 24 40 61
        E 40 99 26 7f 83
        E 0 99 29 7f 111
        E 199 89 29 40 111
        E 5 89 26 40 83
        E 276 99 29 7f 71
        E 202 89 29 40 71
        E 38 99 30 7f -7
        E 200 89 30 40 -7
        E 40 99 24 67 -19
        E 0 99 2d 7f 89
        E 200 89 24 40 -19
        E 0 89 2d 40 89
        E 280 99 24 3c -81
        E 0 99 24 1e
        E 0 99 2d 7f 79
        E 80 89 24 40 -81
        E 120 89 2d 40 79
        E 1 89 24 40
        E 279 99 26 7f 43
        E 0 99 29 7f 77
        E 200 89 29 40 77
        E 2 89 26 40 43
        E 278 99 29 7f 61
        E 200 89 29 40 61
        E 280 99 29 7f 67
        E 0 99 24 55 95
        E 200 89 29 40 67
        E 0 89 24 40 95
        E 280 99 24 3e -5
        E 0 99 29 7f 73
        E 200 89 24 40 -5
        E 0 89 29 40 73
        E 280 99 26 7f 39
        E 0 99 29 7f 93
        E 200 89 26 40 39
        E 0 89 29 40 93
        E 280 99 29 7f 62
        E 201 89 29 40 62
        E 279 99 24 53 53
        E 0 99 29 7f 77
        E 200 89 24 40 53
        E 0 89 29 40 77
        E 280 99 24 3f 57
        E 0 99 29 7f 81
        E 156 89 24 40 57
        E 45 89 29 40 81
        E 39 99 24 1c -25
        E 202 89 24 40 -25
        E 38 99 26 7d 46
        E 0 99 29 7f 91
        E 201 89 26 40 46
        E 1 89 29 40 91
        E 278 99 29 7f 63
        E 200 89 29 40 63
        E 40 99 30 78 -17
        E 200 89 30 40 -17
        E 40 99 24 66 -43
        E 0 99 2d 7f 69
        E 201 89 2d 40 69
        E 1 89 24 40 -43
        E 38 99 24 3b 97
        E 202 89 24 40 97
        E 38 99 2d 7f 41
        E 204 89 2d 40 41
        E 276 99 26 7f -1
        E 0 99 29 7f 45
        E 199 89 29 40 45
        E 1 89 26 40 -1
        E 280 99 29 7f 35
        E 200 89 29 40 35
        E 280 99 24 55 25
        E 0 99 29 7f 27
        E 200 89 24 40 25
        E 2 89 29 40 27
        E 278 99 24 3d -23
        E 0 99 29 7f 21
        E 200 89 29 40 21
        E 2 89 24 40 -23
        E 278 99 26 7f -15
        E 0 99 29 7f 38
        E 200 89 29 40 38
        E 2 89 26 40 -15
        E 278 99 29 7f 25
        E 202 89 29 40 25
        E 278 99 29 7f 32
        E 0 99 24 50 38
        E 201 89 29 40 32
        E 0 89 24 40 38
        E 279 99 24 3c -13
        E 0 99 29 7f 26
        E 138 89 24 40 -13
        E 65 89 29 40 26
        E 37 99 24 1c -115
        E 200 89 24 40 -115
        E 40 99 26 7f 8
        E 0 99 29 7f 61
        E 201 89 29 40 61
        E 2 89 26 40 8
        E 277 99 29 7f 35
        E 200 89 29 40 35
        E 280 99 24 50 -1
        E 0 99 29 7f 60
        E 200 89 24 40 -1
        E 1 89 29 40 60
        E 279 99 24 37 -62
        E 0 99 29 7f 22
        E 201 89 24 40 -62
        E 4 89 29 40 22
        E 275 99 26 7f 13
        E 0 99 29 7f 59
        E 200 89 26 40 13
        E 2 89 29 40 59
        E 278 99 29 7f 23
        E 199 89 29 40 23
        E 41 99 30 7f -37
        E 202 89 30 40 -37
        E 38 99 24 62 -83
        E 0 99 2d 7f 55
        E 200 89 24 40 -83
        E 0 89 2d 40 55
        E 40 99 30 7e -37
        E 17 b9 04 06
        E 182 89 30 40 -37
        E 4 b9 04 00
        E 37 99 24 51 -91
        E 0 99 2d 7f 5
        E 200 89 24 40 -91
        E 0 89 2d 40 5
        E 280 99 26 7f -10
        E 0 99 29 7f 46
        E 201 89 29 40 46
        E 1 89 26 40 -10
        E 278 99 29 7f 5
        E 200 89 29 40 5
        E 280 99 24 55 31
        E 0 99 29 7f 37
        E 200 89 24 40 31
        E 0 89 29 40 37
        E 280 99 24 3e -31
        E 0 99 29 7f 10
        E 0 99 24 1d 99
        E 128 89 24 40 -31
        E 72 89 24 40 99
        E 1 89 29 40 10
        E 279 99 26 7f 5
        E 0 99 29 7f 51
        E 200 89 26 40 5
        E 0 89 29 40 51
        E 280 99 29 7f -7
        E 200 89 29 40 -7
        E 40 99 26 52 -105
        E 200 89 26 40 -105
        E 40 99 24 64 -22
        E 0 99 29 7f -12
        E 201 89 24 40 -22
        E 0 89 29 40 -12
        E 279 99 29 7f -3
        E 199 89 29 40 -3
        E 281 99 26 7f 9
        E 0 99 29 7f 35
        E 200 89 26 40 9
        E 2 89 29 40 35
        E 278 99 29 7f 19
        E 202 89 29 40 19
        E 278 99 29 7f 38
        E 0 99 24 57 45
        E 200 89 24 40 45
        E 1 89 29 40 38
        E 279 99 24 34 -53
        E 0 99 29 7f 45
        E 200 89 24 40 -53
        E 2 89 29 40 45
        E 278 99 26 7f 21
        E 0 99 29 7f 57
        E 200 89 26 40 21
        E 2 89 29 40 57
        E 278 99 29 7f 15
        E 200 89 29 40 15
        E 40 99 30 7c -45
        E 200 89 30 40 -45
        E 40 99 24 60 -65
        E 0 99 2d 7f 45
        E 200 89 24 40 -65
        E 2 89 2d 40 45
        E 38 99 30 7f -38
        E 200 89 30 40 -38
        E 40 99 24 4b -47
        E 0 99 2d 7f -11
        E 199 89 24 40 -47
        E 1 89 2d 40 -11
        E 280 99 26 7f 1
        E 0 99 29 7f 37
        E 200 89 26 40 1
        E 0 89 29 40 37
        E 280 99 29 7f 27
        E 199 89 29 40 27
        E 281 99 29 7f 25
        E 0 99 24 4f 59
        E 201 89 24 40 59
        E 1 89 29 40 25
        E 278 99 24 42 -15
        E 0 99 29 7f 26
        E 200 89 24 40 -15
        E 1 89 29 40 26
        E 279 99 26 7f 23
        E 0 99 29 7f 77
        E 200 89 26 40 23
        E 0 89 29 40 77
        E 280 99 29 7f 73
        E 200 89 29 40 73
        E 280 99 24 52 77
        E 0 99 29 7f 85
        E 200 89 24 40 77
        E 0 89 29 40 85
        E 280 99 24 3d 15
        E 0 99 29 7f 71
        E 0 99 24 1f 119
        E 104 89 24 40 15
        E 96 89 29 40 71
        E 0 89 24 40 119
        E 280 99 26 7f 25
        E 0 99 29 7f 65
        E 200 89 26 40 25
        E 0 89 29 40 65
        E 280 99 29 7f 49
        E 200 89 29 40 49
        E 40 99 28 58 -2
        E 0 99 28 2a 97
        E 97 89 28 40 -2
        E 103 89 28 40 97
        E 40 99 26 64 66
        E 0 99 24 49 75
        E 126 89 24 40 75
        E 75 89 26 40 66
        E 39 99 24 24 -37
        E 0 99 26 40 37
        E 96 89 26 40 37
        E 104 89 24 40 -37
        E 40 99 26 23 -105
        E 0 99 26 7e 49
        E 152 89 26 40 -105
        E 44 89 26 40 49
        E 44 99 26 66 7
        E 200 89 26 40 7
        E 40 99 26 78 28
        E 201 89 26 40 28
        E 39 99 26 61 17
        E 200 89 26 40 17
        E 40 99 26 7f 25
        E 200 89 26 40 25
        E 40 99 26 68 -9
        E 202 89 26 40 -9
        E 38 99 33 41 -15
        E 0 99 33 7f 30
        E 0 99 24 5f 89
        E 44 89 33 40 -15
        E 157 89 33 40 30
        E 1 89 24 40 89
        E 278 99 29 7f -29
        E 200 89 29 40 -29
        E 280 99 26 7f -23
        E 0 99 29 7f 20
        E 202 89 26 40 -23
        E 0 89 29 40 20
        E 278 99 29 7f 9
        E 200 89 29 40 9
        E 280 99 24 51 15
        E 0 99 29 7f 33
        E 200 89 24 40 15
        E 0 89 29 40 33
        E 280 99 29 7f 25
        E 200 89 29 40 25
        E 280 99 26 7f -7
        E 0 99 29 7f 45
        E 199 89 26 40 -7
        E 2 89 29 40 45
        E 279 99 29 7f 23
        E 200 89 29 40 23
        E 280 99 29 7f 35
        E 0 99 24 4e 45
        E 199 89 24 40 45
        E 1 89 29 40 35
        E 280 99 24 3d -59
        E 0 99 24 1d 33
        E 0 99 29 7f 41
        E 90 89 24 40 -59
        E 109 89 29 40 41
        E 2 89 24 40 33
        E 279 99 26 7f 34
        E 0 99 29 7f 79
        E 200 89 29 40 79
        E 3 89 26 40 34
        E 277 99 29 7f 65
        E 200 89 29 40 65
        E 280 99 24 51 36
        E 0 99 29 7f 59
        E 200 89 29 40 59
        E 1 89 24 40 36
        E 279 99 29 7f 52
        E 201 89 29 40 52
        E 279 99 26 7f 21
        E 0 99 29 7f 73
        E 199 89 26 40 21
        E 1 89 29 40 73
        E 280 99 29 7f 37
        E 200 89 29 40 37
        E 40 99 30 6d -38
        E 203 89 30 40 -38
        E 37 99 24 64 -78
        E 0 99 2d 7f 57
        E 200 89 2d 40 57
        E 1 89 24 40 -78
        E 39 99 30 5c -15
        E 35 b9 04 06
        E 165 89 30 40 -15
        E 40 99 24 51 -32
        E 0 99 2d 7f
        E 26 b9 04 00
        E 174 89 2d 40
        E 1 89 24 40 -32
        E 279 99 26 74 3
        E 0 99 29 7f 41
        E 199 89 26 40 3
        E 2 89 29 40 41
        E 279 99 29 7f 28
        E 200 89 29 40 28
        E 280 99 29 7f 51
        E 0 99 24 54 68
        E 199 89 29 40 51
        E 2 89 24 40 68
        E 279 99 24 41 13
        E 0 99 29 7f 55
        E 0 99 24 22 110
        E 94 89 24 40 13
        E 106 89 29 40 55
        E 1 89 24 40 110
        E 279 99 26 7f 29
        E 0 99 29 7f 71
        E 200 89 26 40 29
        E 0 89 29 40 71
        E 280 99 29 7f 52
        E 200 89 29 40 52
        E 280 99 24 4e 57
        E 0 99 29 7f 70
        E 200 89 24 40 57
        E 1 89 29 40 70
        E 279 99 29 7f 79
        E 199 89 29 40 79
        E 281 99 26 7f 63
        E 0 99 29 7f 84
        E 201 89 26 40 63
        E 0 89 29 40 84
        E 279 99 29 7f 67
        E 200 89 29 40 67
        E 2 b9 04 00
        E 38 99 1a 7f -36
        E 201 89 1a 40 -36
        E 14 b9 04 12
        E 25 99 24 56 -61
        E 0 99 24 28 35
        E 0 99 29 7f 45
        E 29 b9 04 22
        E 60 b9 04 32
        E 4 89 24 40 -61
        E 106 89 24 40 35
        E 0 89 29 40 45
        E 3 b9 04 22
        E 136 b9 04 12
        E 142 99 29 7f 62
        E 201 89 29 40 62
        E 279 99 26 7f 58
        E 0 99 29 7f 80
        E 200 89 26 40 58
        E 3 89 29 40 80
        E 202 b9 04 06
        E 75 99 29 7f 52
        E 201 89 29 40 52
        E 39 99 28 4a -11
        E 5 b9 04 00
        E 195 89 28 40 -11
        E 40 99 24 6b -38
        E 0 99 2d 7f 42
        E 201 89 24 40 -38
        E 0 89 2d 40 42
        E 39 99 30 7f -12
        E 12 b9 04 0f
        E 189 89 30 40 -12
        E 39 99 2d 7f 6
        E 0 99 24 4e 10
        E 98 b9 04 06
        E 104 89 2d 40 6
        E 1 89 24 40 10
        E 146 b9 04 00
        E 131 99 26 7f -46
        E 0 99 29 7f 11
        E 200 89 29 40 11
        E 3 89 26 40 -46
        E 277 99 29 7f -10
        E 199 b9 04 09
        E 2 89 29 40 -10
        E 279 99 24 58 7
        E 0 99 29 7f 10
        E 201 89 29 40 10
        E 1 89 24 40 7
        E 278 99 24 37 -94
        E 0 99 29 7f -4
        E 200 89 24 40 -94
        E 3 89 29 40 -4
        E 25 b9 04 00
        E 252 99 26 7f -35
        E 0 99 29 7f 32
        E 199 89 26 40 -35
        E 2 89 29 40 32
        E 279 99 29 7f -1
        E 0 99 26 21 109
        E 199 89 26 40 109
        E 3 89 29 40 -1
        E 278 99 24 55 10
        E 0 99 29 7f 14
        E 200 89 24 40 10
        E 3 89 29 40 14
        E 37 99 24 29 79
        E 202 89 24 40 79
        E 38 99 29 7f 26
        E 201 89 29 40 26
        E 279 99 26 7b -15
        E 0 99 29 7f 49
        E 200 89 26 40 -15
        E 0 89 29 40 49
        E 280 99 29 7f 22
        E 0 99 1a 7f 98
        E 96 b9 04 00
        E 104 89 1a 40 98
        E 1 89 29 40 22
        E 176 b9 04 12
        E 7 b9 04 25
        E 62 b9 04 36
        E 34 99 24 65 -45
        E 0 99 29 7f -5
        E 52 b9 04 46
        E 110 b9 04 36
        E 39 89 29 40 -5
        E 2 89 24 40 -45
        E 41 b9 04 25
        E 108 b9 04 18
        E 128 99 29 7f 34
        E 21 b9 04 0f
        E 180 89 29 40 34
        E 279 99 26 7f 51
        E 0 99 29 7f 70
        E 64 b9 04 09
        E 135 89 26 40 51
        E 1 89 29 40 70
        E 8 b9 04 00
        E 272 99 29 7f 9
        E 100 b9 04 09
        E 102 89 29 40 9
        E 38 99 30 7f -54
        E 0 99 24 6e 82
        E 25 b9 04 00
        E 175 89 24 40 82
        E 3 89 30 40 -54
        E 27 b9 04 12
        E 10 99 2d 7f 20
        E 128 b9 04 1d
        E 73 89 2d 40 20
        E 39 99 30 64 -37
        E 0 99 24 49 32
        E 116 b9 04 0f
        E 83 89 30 40 -37
        E 1 89 24 40 32
        E 40 99 2d 7f -14
        E 57 b9 04 06
        E 144 89 2d 40 -14
        E 65 b9 04 00
        E 214 99 26 7f -3
        E 0 99 29 7f 18
        E 200 89 29 40 18
        E 2 89 26 40 -3
        E 278 99 29 7f 11
        E 199 89 29 40 11
        E 24 b9 04 09
        E 257 99 24 5d -2
        E 0 99 29 7f 28
        E 200 89 29 40 28
        E 1 89 24 40 -2
        E 39 99 24 16 21
        E 202 89 24 40 21
        E 38 99 29 7f 10
        E 200 89 29 40 10
        E 40 99 24 23 -41
        E 173 b9 04 03
        E 4 b9 04 00
        E 22 89 24 40 -41
        E 41 99 26 7f 60
        E 0 99 29 7f 77
        E 200 89 26 40 60
        E 0 89 29 40 77
        E 280 99 29 7f 52
        E 200 89 29 40 52
        E 280 99 24 5c 70
        E 0 99 29 7f 99
        E 200 89 24 40 70
        E 1 89 29 40 99
        E 57 b9 04 12
        E 40 b9 04 22
        E 40 b9 04 32
        E 142 99 29 7f 95
        E 83 b9 04 22
        E 35 b9 04 12
        E 36 b9 04 00
        E 45 89 29 40 95
        E 281 99 2c 50 33
        E 0 99 26 7f 97
        E 0 99 29 7f 108
        E 18 b9 04 12
        E 4 b9 04 25
        E 4 b9 04 38
        E 2 b9 04 49
        E 2 b9 04 4f
        E 5 b9 04 5b
        E 35 b9 04 6c
        E 115 b9 04 5c
        E 15 89 2c 40 33
        E 2 89 26 40 97
        E 0 89 29 40 108
        E 4 b9 04 4c
        E 19 b9 04 3c
        E 31 b9 04 2c
        E 46 b9 04 1a
        E 124 b9 04 12
        E 54 99 29 7f 106
        E 201 89 29 40 106
        E 16 b9 04 20
        E 280 b9 04 0f
        E 67 b9 04 00
        E 156 99 29 7f -118
        E 0 99 24 64 -85
        E 96 b9 04 0c
        E 103 89 24 40 -85
        E 1 89 29 40 -118
        E 40 99 24 31 -10
        E 0 99 29 7f 118
        E 200 89 24 40 -10
        E 1 89 29 40 118
        E 279 99 26 7f 98
        E 121 b9 04 03
        E 10 b9 04 00
        E 69 89 26 40 98
        E 40 99 29 7f -117
        E 141 b9 04 12
        E 58 89 29 40 -117
        E 41 99 29 7f 83
        E 6 b9 04 00
        E 172 b9 04 12
        E 9 b9 04 22
        E 8 b9 04 32
        E 4 89 29 40 83
        E 7 b9 04 43
        E 4 b9 04 4c
        E 5 b9 04 54
        E 7 b9 04 65
        E 18 99 2c 1c -27
        E 0 99 30 5b -12
        E 15 b9 04 75
        E 62 b9 04 65
        E 18 b9 04 55
        E 11 b9 04 44
        E 11 b9 04 34
        E 8 b9 04 22
        E 12 b9 04 12
        E 11 b9 04 00
        E 52 89 2c 40 -27
        E 0 89 30 40 -12
        E 40 99 24 7f -1
        E 0 99 2d 7f 82
        E 149 b9 04 12
        E 1 b9 04 25
        E 3 b9 04 38
        E 2 b9 04 49
        E 2 b9 04 53
        E 5 b9 04 5a
        E 2 b9 04 6e
        E 10 b9 04 5d
        E 13 b9 04 6e
        E 12 89 24 40 -1
        E 1 89 2d 40 82
        E 40 99 2c 7a -81
        E 46 b9 04 5d
        E 12 b9 04 4c
        E 8 b9 04 3c
        E 11 b9 04 2c
        E 9 b9 04 1a
        E 12 b9 04 09
        E 6 b9 04 00
        E 94 89 2c 40 -81
        E 42 99 24 58 -42
        E 0 99 2d 7f 36
        E 110 b9 04 12
        E 11 b9 04 25
        E 17 b9 04 36
        E 15 b9 04 46
        E 3 b9 04 4c
        E 8 b9 04 56
        E 37 89 2d 40 36
        E 1 89 24 40 -42
        E 25 b9 04 46
        E 13 99 2c 12 -82
        E 15 b9 04 36
        E 186 89 2c 40 -82
        E 39 99 26 7f 57
        E 0 99 29 7f 104
        E 33 b9 04 2e
        E 67 b9 04 1d
        E 99 89 26 40 57
        E 1 89 29 40 104
        E 65 b9 04 0f
        E 142 b9 04 06
        E 73 99 29 7f 85
        E 199 89 29 40 85
        E 64 b9 04 12
        E 217 99 24 64 90
        E 0 99 29 7f 111
        E 41 b9 04 03
        E 6 b9 04 00
        E 153 89 29 40 111
        E 1 89 24 40 90
        E 279 99 24 3d 29
        E 201 89 24 40 29
        E 39 99 29 7f -119
        E 200 89 29 40 -119
        E 40 99 26 7e 75
        E 200 89 26 40 75
        E 40 99 29 7f -113
        E 199 89 29 40 -113
        E 41 99 29 7f 108
        E 200 89 29 40 108
        E 520 99 29 7f -106
        E 0 99 24 72 -96
        E 200 89 29 40 -106
        E 1 89 24 40 -96
        E 39 99 24 3b 61
        E 73 89 24 40 61
        E 167 99 24 19 -102
        E 0 99 29 7f -100
        E 51 b9 04 06
        E 148 89 24 40 -102
        E 3 89 29 40 -100
        E 146 b9 04 00
        E 132 99 26 7f -107
        E 0 99 29 7f -98
        E 200 89 26 40 -107
        E 3 89 29 40 -98
        E 37 99 29 7f 118
        E 200 89 29 40 118
        E 280 99 29 7f 100
        E 0 99 24 60 107
        E 202 89 29 40 100
        E 0 89 24 40 107
        E 278 99 29 7f 70
        E 200 89 29 40 70
        E 280 99 26 7f 29
        E 0 99 29 7f 56
        E 201 89 26 40 29
        E 0 89 29 40 56
        E 279 99 29 7f 44
        E 182 b9 04 09
        E 18 89 29 40 44
        E 40 99 30 5c -34
        E 200 89 30 40 -34
        E 40 99 24 7f -45
        E 0 99 2d 7f 52
        E 109 b9 04 1a
        E 91 89 2d 40 52
        E 2 89 24 40 -45
        E 38 99 30 79 -38
        E 59 b9 04 27
        E 141 89 30 40 -38
        E 40 99 24 5b -10
        E 0 99 2d 7f 9
        E 3 b9 04 18
        E 138 b9 04 0f
        E 58 89 2d 40 9
        E 2 89 24 40 -10
        E 169 b9 04 06
        E 110 99 26 7f 62
        E 0 99 29 7f 70
        E 66 b9 04 00
        E 134 89 26 40 62
        E 0 89 29 40 70
        E 280 99 29 7f 46
        E 200 89 29 40 46
        E 24 b9 04 09
        E 256 99 29 7f 44
        E 0 99 24 7d 54
        E 200 89 29 40 44
        E 0 89 24 40 54
        E 280 99 24 48 24
        E 0 99 29 7f 50
        E 124 89 24 40 24
        E 76 89 29 40 50
        E 40 99 24 21 -90
        E 200 89 24 40 -90
        E 40 99 26 7f -16
        E 0 99 29 7f 38
        E 200 89 29 40 38
        E 2 89 26 40 -16
        E 278 99 29 7f 42
        E 16 b9 04 03
        E 184 89 29 40 42
        E 280 99 29 7f 64
        E 0 99 24 68 78
        E 201 89 29 40 64
        E 2 89 24 40 78
        E 277 99 24 44 -12
        E 0 99 29 7f 58
        E 200 89 29 40 58
        E 2 89 24 40 -12
        E 278 99 26 7f 41
        E 0 99 29 7f 68
        E 199 89 26 40 41
        E 2 89 29 40 68
        E 157 b9 04 00
        E 122 99 29 7f 66
        E 200 89 29 40 66
        E 280 99 29 7f 71
        E 0 99 24 74 93
        E 199 89 29 40 71
        E 2 89 24 40 93
        E 279 99 24 45 26
        E 0 99 29 7f 60
        E 100 89 24 40 26
        E 100 89 29 40 60
        E 40 99 24 1e -112
        E 202 89 24 40 -112
        E 38 99 26 7b 14
        E 0 99 29 7f 56
        E 200 89 26 40 14
        E 0 89 29 40 56
        E 280 99 29 7f 28
        E 200 89 29 40 28
        E 2 b9 04 0c
        E 38 99 30 65 -30
        E 202 89 30 40 -30
        E 38 99 24 7e -23
        E 0 99 2d 7f 38
        E 186 b9 04 18
        E 14 89 2d 40 38
        E 1 89 24 40 -23
        E 39 99 30 60 -48
        E 200 89 30 40 -48
        E 40 99 2d 7f -3
        E 0 99 24 5a
        E 152 b9 04 0f
        E 47 89 2d 40 -3
        E 3 89 24 40
        E 152 b9 04 06
        E 126 99 26 74 45
        E 0 99 29 7f 58
        E 18 b9 04 00
        E 182 89 29 40 58
        E 1 89 26 40 45
        E 279 99 29 7f 34
        E 202 89 29 40 34
        E 278 99 24 67 38
        E 0 99 29 7f 40
        E 200 89 24 40 38
        E 2 89 29 40 40
        E 278 99 24 46 -14
        E 0 99 29 7f 40
        E 0 99 24 20 96
        E 106 89 24 40 -14
        E 92 89 24 40 96
        E 2 89 29 40 40
        E 280 99 26 7f 6
        E 0 99 29 7f 52
        E 200 89 29 40 52
        E 4 89 26 40 6
        E 276 99 29 7f 46
        E 131 b9 04 00
        E 69 89 29 40 46
        E 40 99 1a 7f -107
        E 118 b9 04 12
        E 7 b9 04 25
        E 3 b9 04 38
        E 2 b9 04 4c
        E 6 b9 04 4c
        E 65 89 1a 40 -107
        E 3 b9 04 5c
        E 36 99 2c 46 -108
        E 0 99 24 7e
        E 0 99 29 7f 44
        E 90 b9 04 4c
        E 56 b9 04 3c
        E 54 89 2c 40 -108
        E 0 89 29 40 44
        E 1 89 24 40
        E 161 b9 04 2c
        E 112 b9 04 1d
        E 6 99 29 7f 64
        E 200 89 29 40 64
        E 280 99 26 7f 58
        E 0 99 29 7f 82
        E 200 89 26 40 58
        E 0 89 29 40 82
        E 280 99 29 7f 74
        E 70 b9 04 12
        E 130 89 29 40 74
        E 136 b9 04 18
        E 144 99 24 67 68
        E 0 99 29 7f 90
        E 202 89 24 40 68
        E 0 89 29 40 90
        E 278 99 24 43 -16
        E 0 99 29 7f 70
        E 64 b9 04 12
        E 136 89 24 40 -16
        E 2 89 29 40 70
        E 278 99 26 7c 66
        E 0 99 29 7f 102
        E 110 b9 04 09
        E 90 89 29 40 102
        E 3 89 26 40 66
        E 57 b9 04 00
        E 220 99 29 7f 70
        E 140 b9 04 0f
        E 60 89 29 40 70
        E 40 99 30 77 2
        E 200 89 30 40 2
        E 40 99 24 7f 4
        E 0 99 2d 7f 105
        E 199 89 2d 40 105
        E 2 89 24 40 4
        E 39 99 30 7a 16
        E 0 99 30 23 114
        E 30 b9 04 18
        E 64 89 30 40 16
        E 104 89 30 40 114
        E 6 b9 04 1d
        E 36 99 24 5f 8
        E 0 99 2d 7f 48
        E 200 89 24 40 8
        E 0 89 2d 40 48
        E 112 b9 04 12
        E 168 99 26 66 48
        E 0 99 29 7f 96
        E 132 b9 04 09
        E 68 89 26 40 48
        E 1 89 29 40 96
        E 279 99 29 7f 78
        E 202 89 29 40 78
        E 38 b9 04 12
        E 240 99 24 6f 94
        E 0 99 29 7f 106
        E 72 b9 04 09
        E 128 89 24 40 94
        E 2 89 29 40 106
        E 90 b9 04 12
        E 188 99 24 3c -22
        E 0 99 29 7f 108
        E 200 89 29 40 108
        E 2 89 24 40 -22
        E 278 99 26 7f 104
        E 112 b9 04 09
        E 88 89 26 40 104
        E 40 99 29 7f -102
        E 200 89 29 40 -102
        E 218 b9 04 00
        E 62 99 29 7f -119
        E 0 99 29 34 -16
        E 0 99 1a 7f 104
        E 101 89 29 40 -119
        E 1 b9 04 00
        E 100 89 29 40 -16
        E 0 89 1a 40 104
        E 38 99 2c 2a 58
        E 38 b9 04 12
        E 4 b9 04 22
        E 4 b9 04 34
        E 4 b9 04 46
        E 7 b9 04 4c
        E 27 b9 04 56
        E 38 b9 04 66
        E 80 89 2c 40 58
        E 38 b9 04 56
        E 0 99 24 7f -108
        E 0 99 29 7f -90
        E 48 b9 04 46
        E 67 b9 04 36
        E 85 89 29 40 -90
        E 2 89 24 40 -108
        E 62 b9 04 3a
        E 52 b9 04 29
        E 110 b9 04 1d
        E 54 99 29 7f -112
        E 200 89 29 40 -112
        E 162 b9 04 15
        E 118 99 26 7e -80
        E 0 99 29 7f -54
        E 200 89 29 40 -54
        E 1 89 26 40 -80
        E 147 b9 04 0c
        E 132 99 29 7f -80
        E 188 b9 04 12
        E 12 89 29 40 -80
        E 280 99 24 70 -64
        E 0 99 29 7f -48
        E 200 89 29 40 -48
        E 1 89 24 40 -64
        E 279 99 24 45 -88
        E 0 99 29 7f -34
        E 0 99 24 21 24
        E 110 89 24 40 -88
        E 90 89 29 40 -34
        E 0 89 24 40 24
        E 210 b9 04 09
        E 70 99 26 7a -80
        E 0 99 29 7f -32
        E 14 b9 04 00
        E 186 89 26 40 -80
        E 1 89 29 40 -32
        E 279 99 29 7f -56
        E 18 b9 04 0f
        E 152 b9 04 15
        E 30 89 29 40 -56
        E 40 99 30 7c -120
        E 0 99 30 26 -32
        E 86 89 30 40 -120
        E 63 b9 04 0f
        E 51 89 30 40 -32
        E 40 99 24 7f -116
        E 0 99 2d 7f -44
        E 60 b9 04 1d
        E 140 89 24 40 -116
        E 4 89 2d 40 -44
        E 22 b9 04 27
        E 14 99 30 7f -108
        E 200 89 30 40 -108
        E 36 b9 04 1d
        E 4 99 24 5d -108
        E 0 99 2d 7f -68
        E 196 b9 04 12
        E 4 89 24 40 -108
        E 0 89 2d 40 -68
        E 266 b9 04 06
        E 14 99 26 7f -76
        E 0 99 29 7f -35
        E 122 b9 04 00
        E 77 89 29 40 -35
        E 1 89 26 40 -76
        E 280 99 29 7f -42
        E 116 b9 04 09
        E 84 89 29 40 -42
        E 280 99 24 7f -54
        E 0 99 29 7f -50
        E 200 89 29 40 -50
        E 2 89 24 40 -54
        E 278 99 24 41 -80
        E 0 99 29 7f -58
        E 0 99 24 1a 76
        E 154 89 24 40 -80
        E 46 89 29 40 -58
        E 0 89 24 40 76
        E 280 99 26 7f -80
        E 0 99 29 7f -67
        E 199 89 29 40 -67
        E 3 89 26 40 -80
        E 164 b9 04 00
        E 114 99 29 7f -90
        E 0 99 1a 7f 88
        E 86 b9 04 00
        E 113 89 29 40 -90
        E 1 89 1a 40 88
        E 40 99 2c 34 68
        E 0 99 24 7f 96
        E 52 b9 04 12
        E 4 b9 04 22
        E 4 b9 04 32
        E 4 b9 04 44
        E 2 b9 04 4c
        E 40 b9 04 54
        E 94 89 2c 40 68
        E 2 89 24 40 96
        E 12 b9 04 5f
        E 26 99 29 7f -86
        E 56 b9 04 4f
        E 86 b9 04 3f
        E 62 89 29 40 -86
        E 170 b9 04 2e
        E 106 99 29 71 -110
        E 46 b9 04 20
        E 156 89 29 40 -110
        E 124 b9 04 18
        E 154 99 26 7f -112
        E 0 99 29 7f -88
        E 66 b9 04 0f
        E 135 89 26 40 -112
        E 0 89 29 40 -88
        E 39 99 29 7f 110
        E 34 b9 04 09
        E 166 89 29 40 110
        E 50 b9 04 12
        E 230 99 24 71 40
        E 0 99 29 7f 78
        E 200 89 24 40 40
        E 0 89 29 40 78
        E 280 99 24 3a -42
        E 0 99 24 1b 54
        E 0 99 29 7f 102
        E 94 89 24 40 -42
        E 105 89 29 40 102
        E 3 89 24 40 54
        E 278 99 26 7f 80
        E 0 99 29 7f 112
        E 158 b9 04 09
        E 42 89 26 40 80
        E 1 89 29 40 112
        E 135 b9 04 00
        E 144 99 29 7f 92
        E 200 89 29 40 92
        E 5 b9 04 09
        E 35 99 30 68 25
        E 199 89 30 40 25
        E 41 99 24 7f 28
        E 0 99 2d 7f 92
        E 200 89 2d 40 92
        E 2 89 24 40 28
        E 18 b9 04 18
        E 20 99 30 72 6
        E 200 89 30 40 6
        E 40 99 24 5a 20
        E 0 99 2d 7f 24
        E 201 89 24 40 20
        E 2 89 2d 40 24
        E 20 b9 04 0f
        E 231 b9 04 09
        E 26 99 26 6f 32
        E 0 99 29 7f 66
        E 186 b9 04 00
        E 14 89 29 40 66
        E 2 89 26 40 32
        E 278 99 29 7f 48
        E 200 89 29 40 48
        E 14 b9 04 0c
        E 266 99 24 7f 58
        E 0 99 29 7f 60
        E 200 89 24 40 58
        E 0 89 29 40 60
        E 280 99 24 47 48
        E 0 99 29 7f 70
        E 118 89 24 40 48
        E 84 89 29 40 70
        E 38 99 24 1e -72
        E 202 89 24 40 -72
        E 38 99 26 75 34
        E 0 99 29 7f 68
        E 200 89 26 40 34
        E 1 89 29 40 68
        E 25 b9 04 06
        E 174 b9 04 00
        E 80 99 29 7f 37
        E 202 89 29 40 37
        E 38 99 1a 7f 44
        E 42 b9 04 00
        E 154 b9 04 12
        E 4 89 1a 40 44
        E 4 b9 04 27
        E 8 b9 04 38
        E 28 99 2c 0e 18
        E 0 99 24 7f 54
        E 0 99 29 7f 86
        E 12 b9 04 49
        E 4 b9 04 4c
        E 102 b9 04 57
        E 52 b9 04 47
        E 29 89 29 40 86
        E 1 89 2c 40 18
        E 0 89 24 40 54
        E 14 b9 04 36
        E 56 b9 04 25
        E 104 b9 04 1a
        E 106 99 29 7f 82
        E 202 89 29 40 82
        E 278 99 26 7f 78
        E 0 99 29 7f 112
        E 77 b9 04 12
        E 123 89 26 40 78
        E 0 89 29 40 112
        E 238 b9 04 09
        E 42 99 29 7f 78
        E 200 89 29 40 78
        E 42 b9 04 12
        E 238 99 29 7f 66
        E 0 99 24 7f 76
        E 136 b9 04 0c
        E 66 89 29 40 66
        E 2 89 24 40 76
        E 276 99 24 49 68
        E 0 99 29 7f 78
        E 120 89 24 40 68
        E 80 89 29 40 78
        E 40 99 24 22 -50
        E 200 89 24 40 -50
        E 40 99 26 7f 40
        E 0 99 29 7f 84
        E 200 89 26 40 40
        E 0 89 29 40 84
        E 82 b9 04 03
        E 10 b9 04 00
        E 188 99 29 7f 60
        E 158 b9 04 0c
        E 44 89 29 40 60
        E 38 99 30 7f -20
        E 204 89 30 40 -20
        E 36 99 24 7f 9
        E 0 99 2d 7f 80
        E 201 89 24 40 9
        E 5 89 2d 40 80
        E 2 b9 04 18
        E 32 99 30 67 -28
        E 0 99 30 2b 44
        E 70 89 30 40 -28
        E 132 89 30 40 44
        E 38 99 24 5b 4
        E 0 99 2d 7f 32
        E 200 89 24 40 4
        E 2 89 2d 40 32
        E 46 b9 04 0f
        E 232 99 26 6d 20
        E 0 99 29 7f 58
        E 128 b9 04 06
        E 72 89 26 40 20
        E 2 89 29 40 58
        E 170 b9 04 00
        E 108 99 29 7f 62
        E 198 b9 04 0c
        E 2 89 29 40 62
        E 280 99 29 7f 88
        E 0 99 24 7f 100
        E 200 89 29 40 88
        E 0 89 24 40 100
        E 280 99 24 4a 72
        E 0 99 29 7f 78
        E 200 89 24 40 72
        E 0 89 29 40 78
        E 280 99 26 7f 20
        E 0 99 29 7f 82
        E 200 89 29 40 82
        E 2 89 26 40 20
        E 278 99 29 7f 90
        E 0 99 26 6c 106
        E 200 89 29 40 90
        E 0 89 26 40 106
        E 6 b9 04 00
        E 274 99 2e 7f 70
        E 68 b9 04 09
        E 4 b9 04 12
        E 10 b9 04 25
        E 8 b9 04 36
        E 66 b9 04 46
        E 18 b9 04 4c
        E 28 89 2e 40 70
        E 38 99 24 7a -94
        E 0 99 29 7f -86
        E 0 99 2c 08 -64
        E 66 b9 04 36
        E 120 b9 04 27
        E 14 89 29 40 -86
        E 2 89 24 40 -94
        E 0 89 2c 40 -64
        E 142 b9 04 1d
        E 136 99 29 7f -118
        E 200 89 29 40 -118
        E 40 99 26 7c 108
        E 164 b9 04 15
        E 36 89 26 40 108
        E 40 99 29 7f -112
        E 180 b9 04 0f
        E 22 89 29 40 -112
        E 38 99 29 7f 108
        E 82 b9 04 09
        E 118 89 29 40 108
        E 124 b9 04 0f
        E 396 99 29 7f -102
        E 0 99 24 7f -70
        E 200 89 29 40 -102
        E 2 89 24 40 -70
        E 38 99 24 44 90
        E 0 99 29 7f 96
        E 200 89 24 40 90
        E 4 89 29 40 96
        E 276 99 26 7f 84
        E 0 99 29 7f 112
        E 200 89 29 40 112
        E 2 89 26 40 84
        E 134 b9 04 03
        E 45 b9 04 00
        E 99 99 29 7f 82
        E 116 b9 04 0f
        E 83 89 29 40 82
        E 41 99 30 79 6
        E 200 89 30 40 6
        E 40 90 34 7f
        E 0 99 24 7e -4
        E 0 99 29 69
        E 120 b9 04 1d
        E 80 89 29 40
        E 2 89 24 40 -4
        E 38 80 34 00
        E 240 99 24 4f -36
        E 0 99 29 69 40
        E 200 89 29 40 40
        E 2 89 24 40 -36
        E 278 90 26 7f
        E 0 99 29 69 40
        E 44 b9 04 00
        E 12 b9 04 06
        E 144 89 29 40 40
        E 40 80 26 00
        E 0 99 26 57 -118
        E 108 89 26 40 -118
        E 132 99 29 69 68
        E 200 89 29 40 68
        E 94 b9 04 09
        E 186 99 29 69 66
        E 40 99 24 72
        E 160 89 29 40 66
        E 40 89 24 40
        E 240 99 24 4a 64
        E 0 99 29 69 70
        E 40 99 24 22
        E 62 89 24 40 64
        E 98 89 29 40 70
        E 40 89 24 40
        E 240 99 26 7f 20
        E 0 99 29 69 64
        E 200 89 26 40 20
        E 0 89 29 40 64
        E 238 b9 04 03
        E 6 b9 04 00
        E 36 99 29 69 44
        E 200 89 29 40 44
        E 40 99 2e 7f 22
        E 20 b9 04 00
        E 152 b9 04 12
        E 8 b9 04 22
        E 4 b9 04 34
        E 15 89 2e 40 22
        E 29 b9 04 44
        E 12 99 2c 0e 4
        E 0 99 29 69 56
        E 0 99 24 7f 58
        E 2 b9 04 4c
        E 28 b9 04 54
        E 170 89 2c 40 4
        E 1 89 29 40 56
        E 0 89 24 40 58
        E 5 b9 04 44
        E 76 b9 04 34
        E 156 b9 04 29
        E 42 99 29 69 28
        E 200 89 29 40 28
        E 34 b9 04 1d
        E 246 99 26 7f 40
        E 0 99 29 69 60
        E 199 89 26 40 40
        E 1 89 29 40 60
        E 14 b9 04 18
        E 190 b9 04 0f
        E 76 99 29 69 47
        E 203 89 29 40 47
        E 277 99 29 69 56
        E 0 99 24 7f 86
        E 200 89 24 40 86
        E 1 89 29 40 56
        E 279 99 24 4c
        E 0 99 29 69 31
        E 200 89 24 40
        E 1 89 29 40 31
        E 279 99 26 7f -16
        E 0 99 29 69 30
        E 202 89 26 40 -16
        E 0 89 29 40 30
        E 92 b9 04 03
        E 6 b9 04 00
        E 180 99 29 69 -12
        E 136 b9 04 0c
        E 65 89 29 40 -12
        E 39 99 30 69 -88
        E 202 89 30 40 -88
        E 38 99 24 7f -30
        E 0 99 2d 6d 1
        E 128 b9 04 1a
        E 74 89 24 40 -30
        E 1 89 2d 40 1
        E 37 99 30 61 -58
        E 0 99 30 2c 20
        E 50 b9 04 25
        E 26 89 30 40 -58
        E 124 89 30 40 20
        E 40 99 24 57 -68
        E 0 99 2d 6d -42
        E 16 b9 04 1a
        E 170 b9 04 12
        E 14 89 24 40 -68
        E 0 89 2d 40 -42
        E 280 99 26 7d -82
        E 0 99 29 69 -18
        E 70 b9 04 0c
        E 130 89 29 40 -18
        E 2 89 26 40 -82
        E 178 b9 04 03
        E 100 99 29 69 -28
        E 182 b9 04 0f
        E 18 89 29 40 -28
        E 280 99 29 69 -2
        E 0 99 24 7f 12
        E 200 89 29 40 -2
        E 0 89 24 40 12
        E 280 99 29 69 -24
        E 0 99 24 4e -19
        E 0 99 24 20 78
        E 95 89 24 40 -19
        E 105 89 29 40 -24
        E 0 89 24 40 78
        E 280 99 26 7f -38
        E 0 99 29 69 -6
        E 200 89 29 40 -6
        E 2 89 26 40 -38
        E 192 b9 04 03
        E 40 b9 04 00
        E 46 99 29 69 -11
        E 182 b9 04 00
        E 19 89 29 40 -11
        E 39 99 1a 7f -56
        E 164 b9 04 12
        E 10 b9 04 25
        E 26 89 1a 40 -56
        E 14 b9 04 36
        E 22 b9 04 46
        E 4 99 24 7f 3
        E 0 99 29 69 18
        E 0 99 2c 0a 24
        E 19 b9 04 4c
        E 159 b9 04 36
        E 22 89 29 40 18
        E 2 89 2c 40 24
        E 1 89 24 40 3
        E 73 b9 04 25
        E 130 b9 04 1d
        E 74 99 29 69 16
        E 112 b9 04 25
        E 87 89 29 40 16
        E 26 b9 04 1d
        E 255 99 26 7f 24
        E 0 99 29 69 32
        E 38 b9 04 18
        E 162 89 26 40 24
        E 0 89 29 40 32
        E 104 b9 04 0c
        E 166 b9 04 06
        E 10 99 29 69 12
        E 200 89 29 40 12
        E 70 b9 04 0c
        E 210 99 29 69 32
        E 0 99 24 7f 54
        E 200 89 29 40 32
        E 2 89 24 40 54
        E 56 b9 04 12
        E 222 99 24 4d 18
        E 0 99 29 69 34
        E 116 89 24 40 18
        E 84 89 29 40 34
        E 40 99 24 20 -102
        E 200 89 24 40 -102
        E 22 b9 04 06
        E 18 99 26 7f -16
        E 0 99 29 69 28
        E 94 b9 04 00
        E 105 89 29 40 28
        E 2 89 26 40 -16
        E 279 99 29 69 15
        E 94 b9 04 12
        E 107 89 29 40 15
        E 39 99 30 77 -50
        E 20 b9 04 1a
        E 162 b9 04 0f
        E 20 89 30 40 -50
        E 38 99 24 7f -28
        E 0 99 2d 6d 40
        E 144 b9 04 1d
        E 56 89 24 40 -28
        E 2 89 2d 40 40
        E 38 99 30 51 -16
        E 0 99 30 24 74
        E 8 b9 04 2e
        E 80 89 30 40 -16
        E 114 89 30 40 74
        E 38 99 24 5a -42
        E 0 99 2d 6d -12
        E 74 b9 04 25
        E 107 b9 04 1a
        E 19 89 24 40 -42
        E 0 89 2d 40 -12
        E 148 b9 04 12
        E 132 90 32 7f
        E 0 99 26 7f -42
        E 0 99 29 69 6
        E 88 b9 04 06
        E 112 89 29 40 6
        E 4 89 26 40 -42
        E 36 80 32 00
        E 32 b9 04 00
        E 208 99 29 69 10
        E 144 b9 04 0f
        E 56 89 29 40 10
        E 280 99 29 69 18
        E 0 99 24 7f 54
        E 42 b9 04 09
        E 160 89 29 40 18
        E 0 89 24 40 54
        E 20 b9 04 12
        E 258 99 29 69 24
        E 0 99 24 52 32
        E 102 89 24 40 32
        E 100 89 29 40 24
        E 38 99 24 21 -102
        E 182 b9 04 0c
        E 16 89 24 40 -102
        E 42 99 26 7f -16
        E 0 99 29 69 22
        E 200 89 29 40 22
        E 2 89 26 40 -16
        E 78 b9 04 06
        E 200 99 29 69 -4
        E 6 b9 04 00
        E 196 89 29 40 -4
        E 18 b9 04 00
        E 20 99 2e 7f -18
        E 116 b9 04 12
        E 8 b9 04 25
        E 6 b9 04 36
        E 44 b9 04 46
        E 20 b9 04 4c
        E 6 89 2e 40 -18
        E 40 99 2c 0c -44
        E 0 99 24 7f -2
        E 0 99 29 69 12
        E 44 b9 04 4d
        E 42 b9 04 3c
        E 38 b9 04 2c
        E 76 89 24 40 -2
        E 1 89 2c 40 -44
        E 1 89 29 40 12
        E 38 b9 04 1d
        E 238 b9 04 2e
        E 2 99 29 69 12
        E 200 89 29 40 12
        E 78 b9 04 27
        E 119 b9 04 1a
        E 83 99 26 7f 12
        E 0 99 29 69 26
        E 200 89 26 40 12
        E 2 89 29 40 26
        E 158 b9 04 0f
        E 120 99 29 69 44
        E 200 89 29 40 44
        E 28 b9 04 15
        E 252 99 29 69 46
        E 0 99 24 7f 72
        E 200 89 29 40 46
        E 0 89 24 40 72
        E 280 99 24 4f 26
        E 0 99 29 69 40
        E 200 89 24 40 26
        E 0 89 29 40 40
        E 254 b9 04 0f
        E 26 99 26 7b 2
        E 0 99 29 69 34
        E 200 89 26 40 2
        E 2 89 29 40 34
        E 8 b9 04 03
        E 36 b9 04 00
        E 234 99 29 69 16
        E 26 b9 04 12
        E 176 89 29 40 16
        E 4 b9 04 1a
        E 34 99 31 7f -82
        E 134 b9 04 09
        E 68 89 31 40 -82
        E 38 99 24 7f -14
        E 0 99 2d 6d 13
        E 0 99 29 57 16
        E 164 b9 04 15
        E 38 89 24 40 -14
        E 0 89 29 40 16
        E 1 89 2d 40 13
        E 277 99 24 4c -60
        E 0 99 2d 6d 5
        E 100 b9 04 0f
        E 100 89 24 40 -60
        E 3 89 2d 40 5
        E 277 90 30 6d
        E 0 99 26 7f -12
        E 0 99 29 69 -2
        E 0 99 26 36 80
        E 88 89 26 40 -12
        E 2 b9 04 06
        E 108 89 26 40 80
        E 2 89 29 40 -2
        E 40 80 30 00
        E 240 99 29 69 32
        E 128 b9 04 0f
        E 74 89 29 40 32
        E 200 b9 04 03
        E 16 b9 04 00
        E 62 99 24 7f -42
        E 0 99 29 69 2
        E 176 b9 04 0c
        E 23 89 29 40 2
        E 3 89 24 40 -42
        E 278 99 29 69 -31
        E 203 89 29 40 -31
        E 277 99 26 7f -42
        E 0 99 29 69 -4
        E 200 89 26 40 -42
        E 2 89 29 40 -4
        E 90 b9 04 03
        E 188 99 29 69 -24
        E 104 b9 04 0c
        E 96 89 29 40 -24
        E 40 99 26 3e -32
        E 186 b9 04 06
        E 14 89 26 40 -32
        E 40 99 24 7f -46
        E 0 99 29 69 -23
        E 128 b9 04 0f
        E 73 89 29 40 -23
        E 2 89 24 40 -46
        E 277 99 24 4b -76
        E 0 99 29 69 -38
        E 200 89 24 40 -76
        E 0 89 29 40 -38
        E 280 99 26 7f -38
        E 0 99 29 69 -20
        E 200 89 26 40 -38
        E 0 89 29 40 -20
        E 46 b9 04 06
        E 234 99 29 69 -14
        E 154 b9 04 0f
        E 48 89 29 40 -14
        E 278 99 29 69 -10
        E 0 99 24 7f -4
        E 50 b9 04 09
        E 150 89 29 40 -10
        E 4 89 24 40 -4
        E 276 99 29 69 -24
        E 200 89 29 40 -24
        E 280 99 26 7e -22
        E 0 99 29 69 8
        E 200 89 29 40 8
        E 2 89 26 40 -22
        E 98 b9 04 00
        E 180 99 29 69 -12
        E 106 b9 04 0c
        E 98 89 29 40 -12
        E 36 99 30 77 -71
        E 201 89 30 40 -71
        E 39 99 24 7f -49
        E 0 99 2d 6d 26
        E 160 b9 04 18
        E 41 89 24 40 -49
        E 1 89 2d 40 26
        E 38 99 30 60 -79
        E 0 99 30 11 28
        E 105 89 30 40 -79
        E 95 89 30 40 28
        E 40 99 24 5b -76
        E 0 99 2d 6d -32
        E 191 b9 04 0c
        E 9 89 24 40 -76
        E 0 89 2d 40 -32
        E 280 90 34 7f
        E 0 99 26 7f -58
        E 0 99 29 69 -17
        E 74 b9 04 03
        E 44 b9 04 00
        E 82 89 26 40 -58
        E 3 89 29 40 -17
        E 37 80 34 00
        E 240 99 29 69 -24
        E 114 b9 04 0c
        E 88 89 29 40 -24
        E 79 b9 04 12
        E 199 99 29 69 -14
        E 0 99 24 7f 18
        E 47 b9 04 09
        E 152 89 29 40 -14
        E 1 89 24 40 18
        E 280 99 24 4f -39
        E 0 99 29 69 -22
        E 200 89 24 40 -39
        E 0 89 29 40 -22
        E 280 99 26 7f -8
        E 0 99 29 69 20
        E 136 b9 04 0f
        E 63 89 26 40 -8
        E 1 89 29 40 20
        E 162 b9 04 00
        E 118 99 29 69 -18
        E 0 99 29 16 88
        E 103 89 29 40 -18
        E 91 b9 04 00
        E 6 89 29 40 88
        E 40 99 2e 7f -44
        E 202 89 2e 40 -44
        E 38 99 2c 4a
        E 0 99 24 7f -22
        E 0 99 29 69 12
        E 46 b9 04 5a
        E 32 b9 04 12
        E 6 b9 04 27
        E 2 b9 04 38
        E 4 b9 04 4a
        E 2 b9 04 4f
        E 4 b9 04 5a
        E 14 b9 04 4a
        E 19 b9 04 5a
        E 1 b9 04 3a
        E 46 b9 04 6a
        E 24 89 29 40 12
        E 2 89 2c 40
        E 0 89 24 40 -22
        E 132 b9 04 29
        E 122 b9 04 1d
        E 24 99 24 0a -68
        E 0 99 29 69 28
        E 199 89 24 40 -68
        E 3 89 29 40 28
        E 278 99 26 7f 3
        E 0 99 29 69 18
        E 200 89 26 40 3
        E 0 89 29 40 18
        E 71 b9 04 12
        E 209 99 29 69 9
        E 201 89 29 40 9
        E 43 b9 04 1a
        E 236 99 29 69 25
        E 0 99 24 7f 37
        E 41 b9 04 12
        E 159 89 29 40 25
        E 3 89 24 40 37
        E 277 99 24 50 -24
        E 0 99 29 69 6
        E 202 89 29 40 6
        E 2 89 24 40 -24
        E 276 99 26 7f -32
        E 0 99 29 69 21
        E 153 b9 04 00
        E 47 89 29 40 21
        E 2 89 26 40 -32
        E 278 99 29 69 -28
        E 98 b9 04 12
        E 104 89 29 40 -28
        E 38 99 26 59 -54
        E 46 b9 04 1d
        E 154 89 26 40 -54
        E 40 99 24 7f -4
        E 0 99 31 7f -2
        E 50 b9 04 25
        E 134 b9 04 36
        E 18 89 24 40 -4
        E 0 89 31 40 -2
        E 278 99 24 4b -51
        E 0 99 29 69
        E 4 b9 04 27
        E 114 b9 04 1a
        E 82 89 29 40
        E 3 89 24 40 -51
        E 72 b9 04 12
        E 169 b9 04 09
        E 36 99 26 7f -14
        E 0 99 29 69 16
        E 199 89 26 40 -14
        E 1 89 29 40 16
        E 280 99 29 69 -21
        E 201 89 29 40 -21
        E 254 b9 04 00
        E 25 99 29 69 -12
        E 0 99 24 6e 32
        E 202 89 29 40 -12
        E 0 89 24 40 32
        E 20 b9 04 09
        E 258 99 24 43 -12
        E 0 99 29 69 -4
        E 0 99 24 1f 79
        E 89 89 24 40 -12
        E 111 89 29 40 -4
        E 1 89 24 40 79
        E 279 99 26 7f -2
        E 0 99 29 69 24
        E 150 b9 04 00
        E 50 89 26 40 -2
        E 2 89 29 40 24
        E 278 99 29 69 -31
        E 16 b9 04 0f
        E 166 b9 04 15
        E 21 89 29 40 -31
        E 37 99 30 77 -70
        E 159 b9 04 0f
        E 42 89 30 40 -70
        E 39 99 24 7f -104
        E 0 99 2d 6d -15
        E 44 b9 04 20
        E 149 b9 04 29
        E 7 89 2d 40 -15
        E 2 89 24 40 -104
        E 38 99 30 61 -86
        E 0 99 30 1e 9
        E 91 89 30 40 -86
        E 92 b9 04 18
        E 17 89 30 40 9
        E 40 99 24 60 -114
        E 0 99 2d 6d -50
        E 178 b9 04 0f
        E 22 89 24 40 -114
        E 0 89 2d 40 -50
        E 198 b9 04 09
        E 82 90 38 7f
        E 0 99 26 7f -70
        E 0 99 29 69 -27
        E 157 b9 04 03
        E 45 89 26 40 -70
        E 0 89 29 40 -27
        E 30 b9 04 00
        E 8 80 38 00
        E 240 99 29 5b -26
        E 124 b9 04 09
        E 76 89 29 40 -26
        E 280 99 29 69 -18
        E 0 99 24 7f -15
        E 200 89 29 40 -18
        E 1 89 24 40 -15
        E 48 b9 04 0f
        E 231 99 24 4c -25
        E 0 99 29 69 -8
        E 0 99 24 1e 81
        E 104 89 24 40 -25
        E 96 89 29 40 -8
        E 0 89 24 40 81
        E 80 b9 04 09
        E 200 99 26 7f -64
        E 0 99 29 69 -4
        E 106 b9 04 03
        E 94 89 26 40 -64
        E 2 89 29 40 -4
        E 10 b9 04 00
        E 268 99 29 69 -28
        E 97 b9 04 0f
        E 103 89 29 40 -28
        E 40 99 30 60 -64
        E 200 89 30 40 -64
        E 40 99 24 7f -36
        E 0 99 2d 6d -12
        E 115 b9 04 1d
        E 85 89 2d 40 -12
        E 2 89 24 40 -36
        E 38 99 30 42 -86
        E 201 89 30 40 -86
        E 39 99 24 69 -60
        E 0 99 2d 6d -58
        E 101 b9 04 12
        E 101 89 24 40 -60
        E 0 89 2d 40 -58
        E 230 b9 04 0c
        E 48 90 37 7f
        E 0 99 26 7f -92
        E 0 99 29 69 -24
        E 116 b9 04 03
        E 9 b9 04 00
        E 75 89 26 40 -92
        E 2 89 29 40 -24
        E 38 80 37 00
        E 240 99 29 69 -44
        E 120 b9 04 09
        E 80 89 29 40 -44
        E 280 99 29 69 -41
        E 0 99 24 7c -4
        E 200 89 29 40 -41
        E 2 89 24 40 -4
        E 278 99 29 69 -46
        E 0 99 24 47 -34
        E 0 99 24 1d 56
        E 88 89 24 40 -34
        E 112 89 29 40 -46
        E 0 89 24 40 56
        E 280 99 26 7f -21
        E 0 99 29 69 3
        E 36 b9 04 00
        E 165 89 26 40 -21
        E 0 89 29 40 3
        E 279 99 29 69 -36
        E 0 99 29 18 59
        E 63 b9 04 0f
        E 31 89 29 40 -36
        E 105 89 29 40 59
        E 41 99 30 6f -55
        E 201 89 30 40 -55
        E 39 99 24 7f -66
        E 0 99 2d 6d -7
        E 191 b9 04 1d
        E 11 89 24 40 -66
        E 1 89 2d 40 -7
        E 37 99 30 66 -35
        E 0 99 30 29 44
        E 76 89 30 40 -35
        E 35 b9 04 22
        E 91 89 30 40 44
        E 38 99 24 66 -56
        E 0 99 2d 6d -50
        E 56 b9 04 18
        E 142 b9 04 0f
        E 1 89 2d 40 -50
        E 2 89 24 40 -56
        E 160 b9 04 09
        E 119 99 26 7f -56
        E 0 99 29 69 -2
        E 200 89 29 40 -2
        E 1 89 26 40 -56
        E 89 b9 04 00
        E 190 99 29 65 -29
        E 177 b9 04 06
        E 25 89 29 40 -29
        E 278 99 29 69 -13
        E 0 99 24 7f 29
        E 201 89 29 40 -13
        E 0 89 24 40 29
        E 279 99 29 69 -14
        E 0 99 24 4d 6
        E 0 99 24 1e 94
        E 86 89 24 40 6
        E 113 89 24 40 94
        E 3 89 29 40 -14
        E 278 99 26 7f -4
        E 0 99 29 69 17
        E 133 b9 04 00
        E 70 89 29 40 17
        E 1 89 26 40 -4
        E 276 99 29 69 -6
        E 96 b9 04 0c
        E 104 89 29 40 -6
        E 40 99 30 77 -45
        E 28 b9 04 12
        E 175 89 30 40 -45
        E 13 b9 04 09
        E 24 99 24 7f -50
        E 0 99 2d 6d 34
        E 178 b9 04 12
        E 22 89 2d 40 34
        E 2 89 24 40 -50
        E 38 99 30 5a
        E 104 b9 04 18
        E 98 89 30 40
        E 38 99 24 6a -47
        E 0 99 2d 6d -24
        E 158 b9 04 0f
        E 42 89 2d 40 -24
        E 3 89 24 40 -47
        E 219 b9 04 06
        E 58 99 26 78 -29
        E 0 99 29 69 8
        E 0 99 2e 7f
        E 81 b9 04 00
        E 35 b9 04 12
        E 8 b9 04 25
        E 6 b9 04 36
        E 44 b9 04 46
        E 20 b9 04 4c
        E 6 89 2e 40
        E 2 89 29 40 8
        E 1 89 26 40 -29
        E 277 99 2c 0c
        E 0 99 29 69 -2
        E 44 b9 04 4d
        E 42 b9 04 3c
        E 38 b9 04 2c
        E 18 b9 04 0c
        E 59 89 2c 40
        E 0 89 29 40 -2
        E 279 99 29 69 9
        E 0 99 24 7f 38
        E 44 b9 04 06
        E 157 89 29 40 9
        E 0 89 24 40 38
        E 279 99 24 47 -14
        E 0 99 29 69 18
        E 199 89 24 40 -14
        E 1 89 29 40 18
        E 280 99 26 7f -6
        E 0 99 29 69 35
        E 126 b9 04 00
        E 73 89 26 40 -6
        E 2 89 29 40 35
        E 279 99 29 69 -24
        E 94 b9 04 09
        E 105 89 29 40 -24
        E 41 99 30 6b -35
        E 203 89 30 40 -35
        E 37 99 24 7f -90
        E 0 99 2d 6d 6
        E 147 b9 04 15
        E 52 89 2d 40 6
        E 5 89 24 40 -90
        E 36 99 30 61 -12
        E 66 b9 04 1a
        E 136 89 30 40 -12
        E 38 99 24 66 -85
        E 0 99 2d 6d -31
        E 110 b9 04 12
        E 91 89 2d 40 -31
        E 1 89 24 40 -85
        E 177 b9 04 0c
        E 101 90 3a 7f
        E 0 99 26 7f -24
        E 0 99 29 69 3
        E 156 b9 04 03
        E 45 89 26 40 -24
        E 0 89 29 40 3
        E 39 80 3a 00
        E 8 b9 04 00
        E 232 99 29 69 -1
        E 176 b9 04 09
        E 26 89 29 40 -1
        E 278 99 29 69 -1
        E 0 99 24 7f 29
        E 202 89 29 40 -1
        E 1 89 24 40 29
        E 277 99 24 49 -16
        E 0 99 29 69 -4
        E 199 89 24 40 -16
        E 2 89 29 40 -4
        E 279 99 26 7f -24
        E 0 99 29 69 10
        E 199 89 29 40 10
        E 3 89 26 40 -24
        E 18 b9 04 00
        E 260 99 29 69 -18
        E 48 b9 04 0c
        E 151 89 29 40 -18
        E 13 b9 04 12
        E 28 99 30 77 -53
        E 197 b9 04 09
        E 3 89 30 40 -53
        E 40 99 24 7f -51
        E 0 99 2d 7f
        E 146 b9 04 15
        E 54 89 2d 40
        E 3 89 24 40 -51
        E 37 99 30 6c -11
        E 0 99 30 3b 46
        E 53 89 30 40 -11
        E 11 b9 04 1d
        E 133 89 30 40 46
        E 43 99 24 5e -56
        E 0 99 2d 7f -38
        E 143 b9 04 15
        E 56 89 2d 40 -38
        E 3 89 24 40 -56
        E 175 b9 04 09
        E 103 99 26 78 -64
        E 0 99 29 7f -16
        E 200 89 26 40 -64
        E 0 89 29 40 -16
        E 4 b9 04 00
        E 276 99 29 7f -19
        E 196 b9 04 06
        E 7 89 29 40 -19
        E 277 99 29 7f -4
        E 0 99 24 7f 41
        E 199 89 29 40 -4
        E 1 89 24 40 41
        E 280 99 24 43 -32
        E 0 99 29 7f -5
        E 200 89 24 40 -32
        E 0 89 29 40 -5
        E 280 99 26 7f -49
        E 0 99 29 7f
        E 112 b9 04 00
        E 88 89 29 40
        E 2 89 26 40 -49
        E 278 99 29 7f
        E 109 b9 04 0c
        E 91 89 29 40
        E 40 99 30 71 -81
        E 0 99 30 21 41
        E 121 89 30 40 -81
        E 79 89 30 40 41
        E 35 b9 04 03
        E 5 99 24 7f -42
        E 0 99 2d 7f 12
        E 171 b9 04 0f
        E 28 89 24 40 -42
        E 0 89 2d 40 12
        E 41 99 30 4f -47
        E 0 99 30 30 29
        E 72 89 30 40 -47
        E 127 89 30 40 29
        E 41 99 24 4e -76
        E 0 99 2d 7f -24
        E 202 89 2d 40 -24
        E 1 89 24 40 -76
        E 37 99 30 5c -16
        E 202 89 30 40 -16
        E 38 99 29 2f -39
        E 0 99 2d 7f -31
        E 200 89 2d 40 -31
        E 2 89 29 40 -39
        E 28 b9 04 03
        E 31 b9 04 00
        E 219 99 29 7f -23
        E 154 b9 04 06
        E 47 89 29 40 -23
        E 39 99 26 6b -34
        E 80 b9 04 00
        E 119 89 26 40 -34
        E 41 99 29 7f 11
        E 0 99 24 5a 43
        E 0 99 29 4e 86
        E 71 89 29 40 11
        E 126 89 29 40 86
        E 3 89 24 40 43
        E 40 99 26 5f -18
        E 0 99 26 25 74
        E 41 b9 04 0c
        E 49 89 26 40 -18
        E 112 89 26 40 74
        E 38 99 24 4b -24
        E 0 99 29 1d 13
        E 0 99 2d 7f 19
        E 197 b9 04 18
        E 2 89 24 40 -24
        E 4 89 29 40 13
        E 2 89 2d 40 19
        E 35 99 30 59 -18
        E 0 99 30 37 47
        E 63 89 30 40 -18
        E 137 89 30 40 47
        E 40 99 33 77 -53
        E 0 99 33 2b 104
        E 155 89 33 40 -53
        E 44 89 33 40 104
        E 41 99 26 53 -81
        E 128 b9 04 0f
        E 74 89 26 40 -81
        E 38 99 26 7f -40
        E 200 89 26 40 -40
        E 40 99 26 4f -69
        E 200 89 26 40 -69
        E 40 99 26 7f -37
        E 205 89 26 40 -37
        E 35 99 26 44 -29
        E 202 89 26 40 -29
        E 38 99 26 7f -36
        E 204 89 26 40 -36
        E 36 99 26 53 -21
        E 201 89 26 40 -21
        E 39 99 26 7f -15
        E 201 89 26 40 -15
        E 39 99 26 48 -40
        E 199 89 26 40 -40
        E 41 99 26 76 -19
        E 190 89 26 40 -19
        E 50 99 26 4a -67
        E 200 89 26 40 -67
        E 40 99 26 7f -17
        E 169 b9 04 15
        E 32 89 26 40 -17
        E 39 99 26 72 -35
        E 203 89 26 40 -35
        E 37 99 26 65 41
        E 203 89 26 40 41
        E 37 99 24 41 -120
        E 0 99 24 22 -27
        E 0 99 26 3f 88
        E 91 89 24 40 -120
        E 24 b9 04 1d
        E 37 89 26 40 88
        E 49 89 24 40 -27
        E 39 99 26 5d 1
        E 201 89 26 40 1
        E 39 99 26 47 -31
        E 8 b9 04 27
        E 195 89 26 40 -31
        E 37 99 26 7f 27
        E 151 b9 04 1a
        E 50 89 26 40 27
        E 39 99 24 67 -62
        E 0 99 26 46 24
        E 0 99 24 28 37
        E 97 89 24 40 -62
        E 103 89 26 40 24
        E 0 89 24 40 37
        E 40 99 26 7f 47
        E 110 89 26 40 47
        E 130 99 26 2a -81
        E 0 99 26 54 65
        E 144 89 26 40 -81
        E 56 89 26 40 65
        E 6 b9 04 20
        E 34 99 26 7a 79
        E 0 99 24 4f 97
        E 146 89 24 40 97
        E 46 89 26 40 79
        E 27 b9 04 1a
        E 21 99 24 20 5
        E 0 99 26 56 33
        E 201 89 24 40 5
        E 0 89 26 40 33
        E 39 99 26 6d 80
        E 179 89 26 40 80
        E 61 99 26 39 21
        E 0 99 26 21 91
        E 68 89 26 40 21
        E 132 89 26 40 91
        E 40 99 26 72 55
        E 0 99 24 3f 109
        E 174 89 26 40 55
        E 27 89 24 40 109
        E 39 99 26 3a -9
        E 0 99 26 20 72
        E 0 99 24 14 111
        E 81 89 26 40 -9
        E 118 89 26 40 72
        E 3 89 24 40 111
        E 35 b9 04 25
        E 3 99 26 6c 40
        E 159 b9 04 30
        E 18 89 26 40 40
        E 63 99 26 3e -21
        E 0 99 26 26 47
        E 0 99 2c 04 117
        E 44 b9 04 41
        E 22 89 26 40 -21
        E 49 b9 04 4c
        E 32 b9 04 51
        E 53 89 26 40 47
        E 0 89 2c 40 117
        E 40 99 24 7f 9
        E 0 99 31 7f 81
        E 27 b9 04 5d
        E 175 89 31 40 81
        E 1 89 24 40 9
        E 166 b9 04 64
        E 122 b9 04 54
        E 24 b9 04 44
        E 22 b9 04 34
        E 18 b9 04 22
        E 24 b9 04 12
        E 28 b9 04 00
        E 8428 b0 7b 00
        GUID {B47AA600-2DBD-4449-89A2-01832EFAA2CC}
        IGNTEMPO 0 120 4 4
        SRCCOLOR 151
        VELLANE -1 100 0
        CFGEDITVIEW 329854.512472 0.074447 59 12 0 -1 0 0 0 0.5
        KEYSNAP 0
        TRACKSEL -252
        EVTFILTER 0 -1 -1 -1 -1 0 0 0 0 -1 -1 -1 -1 0 -1 0 -1 -1
        CFGEDIT 1 1 0 1 0 0 1 1 1 1 1 0.25 320 95 2496 860 0 0 0 0 0 0 0 0 0 0.5 0 0 1 64
      >
    >
    <ITEM
      POSITION 130.55999999995811
      SNAPOFFS 0
      LENGTH 30.72
      LOOP 1
      ALLTAKES 0
      FADEIN 1 0 0 1 0 0
      FADEOUT 1 0 0 1 0 0
      MUTE 0
      SEL 0
      IGUID {7B642DB2-EC93-4646-8BCC-3B6AF0E5B1E6}
      IID 5
      NAME "02-EZdrummer-Recorded MIDI"
      VOLPAN 1 0 1 -1
      SOFFS 133.92 279
      PLAYRATE 1 1 0 -1 0 0.0025
      CHANMODE 0
      GUID {879016CD-6328-401E-99FA-068DCE39DA3C}
      RECPASS 2
      <SOURCE MIDI
        HASDATA 1 960 QN
        POOLEDEVTS {F2FD9A7B-87AE-4E3A-9B95-90387733E5B4}
        E 15360 99 24 4a 32
        E 0 99 29 5a 50
        E 90 89 24 40 32
        E 112 89 29 40 50
        E 38 99 24 21 -116
        E 200 89 24 40 -116
        E 40 99 29 51 16
        E 200 89 29 40 16
        E 280 99 26 7f 24
        E 0 99 29 7f 46
        E 200 89 26 40 24
        E 0 89 29 40 46
        E 280 99 29 57 -4
        E 200 89 29 40 -4
        E 280 99 29 66 19
        E 0 99 24 51 38
        E 200 89 24 40 38
        E 1 89 29 40 19
        E 279 99 29 5a 2
        E 0 99 24 3b 34
        E 198 89 24 40 34
        E 4 89 29 40 2
        E 38 99 24 1a -6
        E 198 89 24 40 -6
        E 42 99 29 6b 59
        E 0 99 26 6c 60
        E 199 89 29 40 59
        E 1 89 26 40 60
        E 280 99 29 6a 36
        E 200 89 29 40 36
        E 280 99 29 78 74
        E 0 99 24 49 88
        E 146 89 24 40 88
        E 54 89 29 40 74
        E 40 99 24 20 -5
        E 201 89 24 40 -5
        E 39 99 29 4f 40
        E 202 89 29 40 40
        E 278 99 26 7e 32
        E 0 99 29 7e 50
        E 199 89 26 40 32
        E 1 89 29 40 50
        E 280 99 29 4d 20
        E 200 89 29 40 20
        E 280 99 29 7b 14
        E 0 99 24 53 18
        E 200 89 29 40 14
        E 2 89 24 40 18
        E 278 99 24 40 -10
        E 0 99 29 72 8
        E 182 89 24 40 -10
        E 18 89 29 40 8
        E 40 99 24 20 -66
        E 200 89 24 40 -66
        E 40 99 26 7d 26
        E 0 99 29 7b 38
        E 200 89 26 40 26
        E 0 89 29 40 38
        E 280 99 29 69 11
        E 201 89 29 40 11
        E 279 99 24 51 36
        E 0 99 29 77 44
        E 200 89 24 40 36
        E 0 89 29 40 44
        E 280 99 24 35 -116
        E 0 99 24 14 8
        E 0 99 29 68 14
        E 122 89 24 40 -116
        E 76 89 24 40 8
        E 2 89 29 40 14
        E 280 99 26 78 20
        E 0 99 29 7c 38
        E 202 89 26 40 20
        E 2 89 29 40 38
        E 276 99 29 5d 49
        E 203 89 29 40 49
        E 277 99 24 4a 60
        E 0 99 29 7f 76
        E 168 89 24 40 60
        E 32 89 29 40 76
        E 40 99 24 21 -10
        E 198 89 24 40 -10
        E 42 99 29 63 26
        E 202 89 29 40 26
        E 278 99 26 7f 68
        E 0 99 29 7f 76
        E 200 89 26 40 68
        E 0 89 29 40 76
        E 280 99 29 5b 56
        E 198 89 29 40 56
        E 282 99 29 67 56
        E 0 99 24 4f 58
        E 200 89 29 40 56
        E 0 89 24 40 58
        E 280 99 24 3b -44
        E 0 99 29 62 28
        E 0 99 24 1a 75
        E 118 89 24 40 -44
        E 82 89 29 40 28
        E 3 89 24 40 75
        E 277 99 26 7f 40
        E 0 99 29 7f 58
        E 202 89 26 40 40
        E 2 89 29 40 58
        E 276 99 29 5c 50
        E 200 89 29 40 50
        E 280 99 24 4b 54
        E 0 99 29 73 60
        E 156 89 24 40 54
        E 44 89 29 40 60
        E 40 99 24 1b -30
        E 200 89 24 40 -30
        E 40 99 29 66 28
        E 202 89 29 40 28
        E 278 99 26 76 30
        E 0 99 29 7f 68
        E 200 89 26 40 30
        E 2 89 29 40 68
        E 278 99 29 75 43
        E 201 89 29 40 43
        E 279 99 24 51 70
        E 0 99 29 7f 74
        E 200 89 24 40 70
        E 0 89 29 40 74
        E 280 99 24 44 40
        E 0 99 29 6e 50
        E 184 89 24 40 40
        E 16 89 29 40 50
        E 40 99 24 1d -14
        E 200 89 24 40 -14
        E 40 99 26 76 62
        E 0 99 29 7f 84
        E 200 89 26 40 62
        E 2 89 29 40 84
        E 278 99 29 7f 74
        E 200 89 29 40 74
        E 280 99 24 4b 98
        E 0 99 29 7f 104
        E 200 89 24 40 98
        E 0 89 29 40 104
        E 280 99 24 3d 62
        E 0 99 29 6e 100
        E 184 89 24 40 62
        E 16 89 29 40 100
        E 40 99 24 24 8
        E 200 89 24 40 8
        E 40 99 29 7c 108
        E 0 99 26 5f 116
        E 200 89 29 40 108
        E 0 89 26 40 116
        E 280 99 29 74 118
        E 200 89 29 40 118
        E 520 99 29 7f -106
        E 0 99 24 4c -86
        E 0 99 24 1c 66
        E 150 89 24 40 -86
        E 47 89 24 40 66
        E 5 89 29 40 -106
        E 38 99 29 66 80
        E 200 89 29 40 80
        E 280 99 29 7f 94
        E 0 99 26 7c 99
        E 200 89 29 40 94
        E 1 89 26 40 99
        E 279 99 29 67 62
        E 200 89 29 40 62
        E 280 99 29 7f 36
        E 0 99 24 4c 86
        E 200 89 29 40 36
        E 0 89 24 40 86
        E 280 99 29 7a 56
        E 0 99 24 3d 60
        E 176 89 24 40 60
        E 26 89 29 40 56
        E 38 99 24 1e -2
        E 200 89 24 40 -2
        E 40 99 26 7b 92
        E 0 99 29 7f 96
        E 200 89 29 40 96
        E 2 89 26 40 92
        E 278 99 29 65 102
        E 198 89 29 40 102
        E 282 99 24 49 94
        E 0 99 29 77 104
        E 200 89 24 40 94
        E 0 89 29 40 104
        E 280 99 24 3b 62
        E 0 99 29 6d 110
        E 200 89 24 40 62
        E 2 89 29 40 110
        E 278 99 24 0d -80
        E 0 99 26 69 106
        E 200 89 24 40 -80
        E 0 89 26 40 106
        E 40 99 29 7f -112
        E 200 89 29 40 -112
        E 40 99 29 7f 98
        E 200 89 29 40 98
        E 280 99 24 48 102
        E 0 99 29 7b 108
        E 200 89 24 40 102
        E 0 89 29 40 108
        E 280 99 24 39 36
        E 0 99 29 74 102
        E 156 89 24 40 36
        E 44 89 29 40 102
        E 40 99 24 18 -48
        E 202 89 24 40 -48
        E 38 99 26 7d 100
        E 200 89 26 40 100
        E 40 99 29 7f -114
        E 201 89 29 40 -114
        E 39 99 29 70 88
        E 200 89 29 40 88
        E 40 99 26 36 -46
        E 200 89 26 40 -46
        E 40 99 24 51 20
        E 0 99 29 71 44
        E 141 89 24 40 20
        E 59 89 29 40 44
        E 40 99 24 1d -76
        E 198 89 24 40 -76
        E 42 99 29 78 60
        E 200 89 29 40 60
        E 280 99 26 7f 79
        E 0 99 29 7f 102
        E 201 89 26 40 79
        E 0 89 29 40 102
        E 279 99 29 53 84
        E 200 89 29 40 84
        E 280 99 24 4d 52
        E 0 99 29 7f 60
        E 166 89 24 40 52
        E 38 89 29 40 60
        E 36 99 24 18 -20
        E 200 89 24 40 -20
        E 40 99 24 1c -8
        E 0 99 29 71 66
        E 199 89 24 40 -8
        E 1 89 29 40 66
        E 280 99 26 7f 38
        E 0 99 29 7f 74
        E 200 89 26 40 38
        E 0 89 29 40 74
        E 280 99 29 7f 58
        E 202 89 29 40 58
        E 38 99 30 7f 18
        E 112 89 30 40 18
        E 128 99 30 1f -108
        E 0 99 2d 7f 20
        E 0 99 24 53 22
        E 200 89 2d 40 20
        E 2 89 30 40 -108
        E 0 89 24 40 22
        E 278 99 29 7f 14
        E 200 89 29 40 14
        E 280 99 26 7f -29
        E 0 99 29 7f 12
        E 201 89 26 40 -29
        E 0 89 29 40 12
        E 279 99 29 59 22
        E 202 89 29 40 22
        E 278 99 24 4d
        E 0 99 29 7f 6
        E 200 89 24 40
        E 0 89 29 40 6
        E 280 99 24 3a
        E 0 99 29 7f 12
        E 154 89 24 40
        E 46 89 29 40 12
        E 40 99 24 13 -84
        E 200 89 24 40 -84
        E 40 99 26 7f 21
        E 0 99 29 7f 29
        E 201 89 26 40 21
        E 0 89 29 40 29
        E 279 99 29 78 24
        E 202 89 29 40 24
        E 278 99 24 4d 28
        E 0 99 29 7f 36
        E 199 89 29 40 36
        E 1 89 24 40 28
        E 280 99 24 3b -4
        E 0 99 29 7f 40
        E 199 89 29 40 40
        E 3 89 24 40 -4
        E 38 99 24 1e -26
        E 200 89 24 40 -26
        E 40 99 26 7f 49
        E 0 99 29 7f 66
        E 201 89 26 40 49
        E 1 89 29 40 66
        E 278 99 29 70 64
        E 200 89 29 40 64
        E 280 99 24 47 32
        E 0 99 29 7f 35
        E 199 89 24 40 32
        E 6 89 29 40 35
        E 275 99 24 3b -32
        E 0 99 29 6a 68
        E 199 89 24 40 -32
        E 1 89 29 40 68
        E 40 99 24 17 -59
        E 201 89 24 40 -59
        E 39 99 26 7f 60
        E 0 99 29 7f 68
        E 200 89 26 40 60
        E 0 89 29 40 68
        E 280 99 29 7f 19
        E 201 89 29 40 19
        E 39 99 30 7f 16
        E 0 99 24 4e 108
        E 90 89 24 40 108
        E 110 89 30 40 16
        E 40 99 24 27 -40
        E 0 99 2d 7f
        E 198 89 24 40 -40
        E 2 89 2d 40
        E 280 99 29 7f 5
        E 201 89 29 40 5
        E 279 99 26 7f 10
        E 0 99 29 7f 32
        E 199 89 26 40 10
        E 0 89 29 40 32
        E 281 99 29 7f 16
        E 200 89 29 40 16
        E 280 99 29 7f 41
        E 0 99 24 4e 52
        E 201 89 29 40 41
        E 1 89 24 40 52
        E 278 99 24 3d 14
        E 0 99 29 7f 30
        E 180 89 24 40 14
        E 20 89 29 40 30
        E 40 99 24 19 -45
        E 203 89 24 40 -45
        E 37 99 26 7f 4
        E 0 99 29 7f 22
        E 202 89 26 40 4
        E 0 89 29 40 22
        E 278 99 29 7f 26
        E 202 89 29 40 26
        E 278 99 29 7f 45
        E 0 99 24 50 53
        E 200 89 24 40 53
        E 1 89 29 40 45
        E 279 99 24 33 -29
        E 0 99 29 7f 49
        E 201 89 24 40 -29
        E 0 89 29 40 49
        E 279 99 29 7f 69
        E 0 99 26 7f 73
        E 201 89 26 40 73
        E 1 89 29 40 69
        E 278 99 29 78 68
        E 202 89 29 40 68
        E 278 99 29 7f 68
        E 0 99 24 50 72
        E 200 89 29 40 68
        E 0 89 24 40 72
        E 280 99 24 3d 58
        E 0 99 29 7f 63
        E 144 89 24 40 58
        E 57 89 29 40 63
        E 39 99 24 1a -36
        E 200 89 24 40 -36
        E 40 99 26 7f 74
        E 0 99 29 7f 82
        E 199 89 26 40 74
        E 3 89 29 40 82
        E 278 99 29 7f 39
        E 201 89 29 40 39
        E 39 99 30 7f 16
        E 200 89 30 40 16
        E 40 99 24 53 -66
        E 0 99 24 26 13
        E 0 99 2d 7f 25
        E 77 89 24 40 -66
        E 121 89 24 40 13
        E 3 89 2d 40 25
        E 279 99 2d 5a -86
        E 199 89 2d 40 -86
        E 281 99 29 7f -6
        E 0 99 26 7f -4
        E 200 89 29 40 -6
        E 0 89 26 40 -4
        E 280 99 29 7d -8
        E 199 89 29 40 -8
        E 281 99 24 53 11
        E 0 99 29 7f 28
        E 0 99 24 24 112
        E 99 89 24 40 11
        E 100 89 24 40 112
        E 1 89 29 40 28
        E 280 99 29 7f 23
        E 0 99 24 47 54
        E 134 89 24 40 54
        E 66 89 29 40 23
        E 40 99 24 1e -50
        E 200 89 24 40 -50
        E 40 99 26 7f 38
        E 0 99 29 7f 62
        E 200 89 29 40 62
        E 1 89 26 40 38
        E 279 99 29 7f 47
        E 201 89 29 40 47
        E 279 99 29 7f 66
        E 0 99 24 4b 76
        E 199 89 24 40 76
        E 1 89 29 40 66
        E 280 99 29 7f 52
        E 0 99 24 3a 70
        E 139 89 24 40 70
        E 61 89 29 40 52
        E 40 99 24 1b -28
        E 198 89 24 40 -28
        E 42 99 26 7b 68
        E 0 99 29 7f 84
        E 199 89 26 40 68
        E 1 89 29 40 84
        E 280 99 29 7f 90
        E 202 89 29 40 90
        E 278 99 24 50 42
        E 0 99 29 7f 62
        E 199 89 29 40 62
        E 1 89 24 40 42
        E 280 99 24 39 19
        E 0 99 29 7f 58
        E 171 89 24 40 19
        E 28 89 29 40 58
        E 41 99 24 1a -48
        E 200 89 24 40 -48
        E 40 99 26 7f 87
        E 0 99 29 7f 91
        E 201 89 26 40 87
        E 0 89 29 40 91
        E 279 99 29 7f 42
        E 200 89 29 40 42
        E 40 99 30 7f 9
        E 201 89 30 40 9
        E 39 99 24 52 -86
        E 0 99 24 24 -2
        E 0 99 2d 7f 14
        E 82 89 24 40 -86
        E 118 89 24 40 -2
        E 2 89 2d 40 14
        E 38 99 24 43 59
        E 201 89 24 40 59
        E 39 99 2d 7f -24
        E 200 89 2d 40 -24
        E 280 99 29 7f 3
        E 0 99 26 7b 7
        E 200 89 29 40 3
        E 1 89 26 40 7
        E 279 99 29 7c -10
        E 200 89 29 40 -10
        E 280 99 24 4c 20
        E 0 99 29 7f 30
        E 199 89 29 40 30
        E 1 89 24 40 20
        E 280 99 24 3e 22
        E 0 99 29 7f 46
        E 130 89 24 40 22
        E 70 89 29 40 46
        E 40 99 24 1c -86
        E 200 89 24 40 -86
        E 40 99 26 7f 21
        E 0 99 29 7f 52
        E 201 89 26 40 21
        E 1 89 29 40 52
        E 278 99 29 7f 28
        E 202 89 29 40 28
        E 278 99 29 7f 68
        E 0 99 24 4d 70
        E 116 89 24 40 70
        E 84 89 29 40 68
        E 40 99 24 1f -52
        E 199 89 24 40 -52
        E 41 99 29 72 56
        E 201 89 29 40 56
        E 225 b9 04 12
        E 54 99 26 64 58
        E 0 99 29 7f 78
        E 12 b9 04 22
        E 60 b9 04 32
        E 128 89 29 40 78
        E 2 89 26 40 58
        E 87 b9 04 22
        E 84 b9 04 12
        E 107 99 29 7f 48
        E 38 b9 04 09
        E 162 89 29 40 48
        E 23 b9 04 0f
        E 257 99 24 50 -25
        E 0 99 29 7f 46
        E 39 b9 04 03
        E 32 b9 04 00
        E 129 89 24 40 -25
        E 0 89 29 40 46
        E 280 99 29 68 59
        E 201 89 29 40 59
        E 279 99 26 7f 63
        E 0 99 29 7f 86
        E 200 89 29 40 86
        E 3 89 26 40 63
        E 277 99 29 7f 42
        E 201 89 29 40 42
        E 39 99 30 7f -11
        E 0 99 24 52 92
        E 79 89 24 40 92
        E 124 89 30 40 -11
        E 37 99 24 27 -67
        E 0 99 2d 7f
        E 192 b9 04 0f
        E 6 89 24 40 -67
        E 2 89 2d 40
        E 40 99 30 72 -34
        E 0 99 30 35 32
        E 62 89 30 40 -34
        E 137 89 30 40 32
        E 9 b9 04 00
        E 32 99 2d 7f -77
        E 0 99 24 54 111
        E 109 89 24 40 111
        E 91 89 2d 40 -77
        E 40 99 24 20 -18
        E 197 89 24 40 -18
        E 43 99 26 7f 6
        E 0 99 29 7f 14
        E 199 89 26 40 6
        E 0 89 29 40 14
        E 281 99 29 7d -9
        E 203 89 29 40 -9
        E 277 99 24 5c -21
        E 0 99 29 7f 3
        E 200 89 24 40 -21
        E 1 89 29 40 3
        E 279 99 24 43 10
        E 0 99 29 7f 12
        E 171 89 24 40 10
        E 26 89 29 40 12
        E 43 99 24 1d -54
        E 198 89 24 40 -54
        E 42 99 26 7f 3
        E 0 99 29 7f 26
        E 200 89 29 40 26
        E 1 89 26 40 3
        E 279 99 29 6e 27
        E 200 89 29 40 27
        E 280 99 24 4d 43
        E 0 99 29 7f 56
        E 201 89 24 40 43
        E 1 89 29 40 56
        E 278 99 24 40 -50
        E 0 99 29 7f 22
        E 0 99 24 1e 71
        E 119 89 24 40 -50
        E 80 89 29 40 22
        E 1 89 24 40 71
        E 280 99 26 6c 56
        E 0 99 29 7f 67
        E 199 89 26 40 56
        E 3 89 29 40 67
        E 278 99 29 7f 61
        E 201 89 29 40 61
        E 279 99 24 52 26
        E 0 99 29 7f 48
        E 199 89 29 40 48
        E 1 89 24 40 26
        E 280 99 24 43 -11
        E 0 99 29 7f 24
        E 170 89 24 40 -11
        E 31 89 29 40 24
        E 39 99 24 17 -79
        E 201 89 24 40 -79
        E 39 99 26 7f 10
        E 0 99 29 7f 38
        E 201 89 26 40 10
        E 0 89 29 40 38
        E 279 99 29 7f 35
        E 203 89 29 40 35
        E 37 99 30 7b -15
        E 0 99 24 53 91
        E 0 99 30 1f 99
        E 76 89 24 40 91
        E 36 89 30 40 -15
        E 87 89 30 40 99
        E 41 99 24 25 -70
        E 0 99 2d 7f 7
        E 199 89 24 40 -70
        E 1 89 2d 40 7
        E 280 99 29 7f 26
        E 0 99 24 4a 90
        E 93 89 24 40 90
        E 108 89 29 40 26
        E 39 99 24 1d -54
        E 197 89 24 40 -54
        E 43 99 24 30 -6
        E 0 99 29 7f 37
        E 0 99 26 7f 50
        E 199 89 26 40 50
        E 2 89 24 40 -6
        E 0 89 29 40 37
        E 279 99 29 7f 17
        E 200 89 29 40 17
        E 280 99 24 51 -31
        E 0 99 29 7f 17
        E 200 89 29 40 17
        E 1 89 24 40 -31
        E 279 99 24 3d 16
        E 0 99 29 7f 33
        E 145 89 24 40 16
        E 56 89 29 40 33
        E 39 99 24 1b -78
        E 200 89 24 40 -78
        E 40 99 26 7f 8
        E 0 99 29 7f 31
        E 199 89 26 40 8
        E 1 89 29 40 31
        E 280 99 29 7f 10
        E 200 89 29 40 10
        E 40 99 30 7f -27
        E 0 99 24 54 32
        E 87 89 24 40 32
        E 113 89 30 40 -27
        E 40 99 24 24 -118
        E 0 99 2d 7f 7
        E 197 89 24 40 -118
        E 6 89 2d 40 7
        E 37 99 24 47 -41
        E 0 99 24 1f 43
        E 83 89 24 40 -41
        E 117 89 24 40 43
        E 40 99 2d 60 -69
        E 200 89 2d 40 -69
        E 280 99 26 7f -9
        E 0 99 29 7f 26
        E 199 89 29 40 26
        E 1 89 26 40 -9
        E 280 99 29 7f 5
        E 200 89 29 40 5
        E 280 99 24 5a 8
        E 0 99 29 7f 32
        E 199 89 24 40 8
        E 0 89 29 40 32
        E 281 99 24 46 15
        E 0 99 29 7f 41
        E 148 89 24 40 15
        E 52 89 29 40 41
        E 40 99 24 1e -75
        E 198 89 24 40 -75
        E 42 99 26 7f -7
        E 0 99 29 7f 48
        E 200 89 29 40 48
        E 2 89 26 40 -7
        E 278 99 29 7f 43
        E 0 99 24 3b 101
        E 200 89 29 40 43
        E 0 89 24 40 101
        E 40 99 30 7f 87
        E 89 89 30 40 87
        E 151 99 30 2b -61
        E 0 99 24 5e 27
        E 0 99 2d 7f 79
        E 200 89 30 40 -61
        E 0 89 24 40 27
        E 0 89 2d 40 79
        E 206 b9 04 00
        E 28 b9 04 00
        E 46 99 1a 1a -73
        E 0 99 1a 42 -42
        E 0 99 30 7a -39
        E 0 99 2d 7f 21
        E 28 89 1a 40 -73
        E 169 89 1a 40 -42
        E 4 89 2d 40 21
        E 1 89 30 40 -39
        E 38 99 24 4d -107
        E 0 99 24 23 -27
        E 78 89 24 40 -107
        E 120 89 24 40 -27
        E 42 99 26 6f 42
        E 0 99 29 7f 45
        E 200 89 26 40 42
        E 2 89 29 40 45
        E 278 99 29 7f 55
        E 200 89 29 40 55
        E 280 99 29 7f 59
        E 0 99 24 56 99
        E 200 89 29 40 59
        E 0 89 24 40 99
        E 280 99 24 3a 35
        E 0 99 29 7f 46
        E 168 89 24 40 35
        E 33 89 29 40 46
        E 39 99 24 19 -37
        E 200 89 24 40 -37
        E 40 99 26 7f 15
        E 0 99 29 7f 63
        E 203 89 26 40 15
        E 0 89 29 40 63
        E 277 99 29 7f 65
        E 200 89 29 40 65
        E 40 99 26 4a -1
        E 200 89 26 40 -1
        E 40 99 24 56 -22
        E 0 99 29 7f 59
        E 199 89 24 40 -22
        E 2 89 29 40 59
        E 279 99 24 37 -69
        E 0 99 29 7f 65
        E 198 89 24 40 -69
        E 3 89 29 40 65
        E 39 99 24 16 -109
        E 201 89 24 40 -109
        E 39 99 26 7c 63
        E 0 99 29 7f 85
        E 200 89 26 40 63
        E 0 89 29 40 85
        E 280 99 29 7f 83
        E 200 89 29 40 83
        E 280 99 24 4d 91
        E 0 99 29 7f 107
        E 200 89 24 40 91
        E 0 89 29 40 107
        E 280 99 24 3c 31
        E 0 99 29 7f 105
        E 122 89 24 40 31
        E 78 89 29 40 105
        E 40 99 24 1c -87
        E 200 89 24 40 -87
        E 40 99 26 7f 107
        E 200 89 26 40 107
        E 40 99 29 7f -102
        E 199 89 29 40 -102
        E 281 99 29 7f -118
        E 0 99 30 7f 71
        E 199 89 29 40 -118
        E 3 89 30 40 71
        E 38 99 24 6c -5
        E 0 99 2d 7f 117
        E 200 89 24 40 -5
        E 0 89 2d 40 117
        E 280 99 24 43 -105
        E 0 99 2d 7f 81
        E 200 89 24 40 -105
        E 1 89 2d 40 81
        E 279 99 26 7f 54
        E 0 99 29 7f 95
        E 89 89 26 40 54
        E 114 89 29 40 95
        E 37 99 26 35 -95
        E 198 89 26 40 -95
        E 42 99 29 7f 91
        E 203 89 29 40 91
        E 277 99 29 7f 91
        E 0 99 24 4e 113
        E 200 89 29 40 91
        E 1 89 24 40 113
        E 279 99 29 7f 91
        E 0 99 24 3e 95
        E 158 89 24 40 95
        E 44 89 29 40 91
        E 38 99 24 1f 15
        E 198 89 24 40 15
        E 42 99 26 7f 67
        E 0 99 29 7f 95
        E 200 89 26 40 67
        E 1 89 29 40 95
        E 279 99 29 7f 91
        E 200 89 29 40 91
        E 280 99 24 50 71
        E 0 99 29 7f 89
        E 202 89 24 40 71
        E 0 89 29 40 89
        E 278 99 24 3e 10
        E 0 99 29 7f 101
        E 199 89 24 40 10
        E 1 89 29 40 101
        E 40 99 24 20 -6
        E 201 89 24 40 -6
        E 39 99 26 7e 110
        E 201 89 26 40 110
        E 39 99 29 7f -113
        E 200 89 29 40 -113
        E 280 99 29 7f -93
        E 200 89 29 40 -93
        E 40 99 24 4a 59
        E 0 99 29 7f 91
        E 200 89 24 40 59
        E 1 89 29 40 91
        E 39 99 24 31 113
        E 140 89 24 40 113
        E 100 99 24 0a 17
        E 0 99 29 7f 91
        E 198 89 24 40 17
        E 2 89 29 40 91
        E 280 99 26 7f 67
        E 0 99 29 7f 106
        E 199 89 29 40 106
        E 3 89 26 40 67
        E 278 99 29 7f 61
        E 200 89 29 40 61
        E 40 99 30 7f 32
        E 111 89 30 40 32
        E 129 99 30 25 -95
        E 0 99 24 58 -22
        E 0 99 2d 7f 65
        E 200 89 2d 40 65
        E 1 89 30 40 -95
        E 2 89 24 40 -22
        E 2 b9 04 03
        E 35 99 1a 27 -33
        E 0 99 30 6d 17
        E 0 99 30 28 102
        E 85 89 30 40 17
        E 48 b9 04 06
        E 66 89 30 40 102
        E 1 89 1a 40 -33
        E 40 99 2d 7f 20
        E 0 99 24 49 55
        E 17 b9 04 00
        E 71 89 24 40 55
        E 113 89 2d 40 20
        E 39 99 24 22 -97
        E 202 89 24 40 -97
        E 38 99 26 73 19
        E 0 99 29 7f 47
        E 200 89 26 40 19
        E 4 89 29 40 47
        E 276 99 29 7f 31
        E 200 89 29 40 31
        E 280 99 29 7f 31
        E 0 99 24 53 41
        E 200 89 29 40 31
        E 0 89 24 40 41
        E 280 99 24 3d 58
        E 0 99 29 7f 58
        E 149 89 24 40 58
        E 51 89 29 40 58
        E 40 99 24 1c -31
        E 200 89 24 40 -31
        E 40 99 26 78 45
        E 0 99 29 7f 63
        E 200 89 26 40 45
        E 0 89 29 40 63
        E 280 99 29 7f 47
        E 200 89 29 40 47
        E 40 99 2d 7f -23
        E 203 89 2d 40 -23
        E 37 99 24 5d 11
        E 0 99 2d 7f 15
        E 200 89 24 40 11
        E 2 89 2d 40 15
        E 278 99 2d 7f 23
        E 0 99 24 48 77
        E 184 89 24 40 77
        E 16 89 2d 40 23
        E 40 99 24 28 23
        E 200 89 24 40 23
        E 40 99 2d 7f -73
        E 0 99 26 65 103
        E 62 89 26 40 103
        E 138 89 2d 40 -73
        E 40 99 26 4b -70
        E 199 89 26 40 -70
        E 41 99 29 7f -83
        E 201 89 29 40 -83
        E 39 99 26 6e 100
        E 201 89 26 40 100
        E 39 99 29 7f 49
        E 200 89 29 40 49
        E 280 99 29 7f 99
        E 201 89 29 40 99
        E 39 99 24 37 -79
        E 203 89 24 40 -79
        E 37 99 24 47 55
        E 200 89 24 40 55
        E 40 99 26 6b -98
        E 0 99 29 7f -75
        E 199 89 26 40 -98
        E 1 89 29 40 -75
        E 280 99 29 7f -86
        E 199 89 29 40 -86
        E 281 99 24 4f -107
        E 0 99 29 7f -85
        E 200 89 24 40 -107
        E 0 89 29 40 -85
        E 40 99 24 30 91
        E 200 89 24 40 91
        E 40 99 29 75 -61
        E 200 89 29 40 -61
        E 280 99 24 3f -102
        E 0 99 29 7f -82
        E 201 89 24 40 -102
        E 0 89 29 40 -82
        E 279 99 29 4f -9
        E 200 89 29 40 -9
        E 4840 99 29 7f -6
        E 0 99 24 50 21
        E 201 89 29 40 -6
        E 1 89 24 40 21
        E 278 99 29 7f -55
        E 0 99 24 3a -47
        E 200 89 24 40 -47
        E 2 89 29 40 -55
        E 38 99 24 1e -79
        E 200 89 24 40 -79
        E 40 99 26 7f -59
        E 0 99 29 7f -21
        E 200 89 26 40 -59
        E 0 89 29 40 -21
        E 280 99 29 7f -73
        E 0 99 30 41 81
        E 200 89 29 40 -73
        E 0 89 30 40 81
        E 40 99 24 57 74
        E 199 89 24 40 74
        E 41 99 2d 7f -85
        E 202 89 2d 40 -85
        E 278 99 29 42 -119
        E 0 99 2d 18 -105
        E 200 89 29 40 -119
        E 2 89 2d 40 -105
        E 278 99 26 7f -89
        E 0 99 29 7f -69
        E 200 89 26 40 -89
        E 0 89 29 40 -69
        E 280 99 29 7f -79
        E 201 89 29 40 -79
        E 279 99 24 53 -77
        E 0 99 29 7f -49
        E 200 89 24 40 -77
        E 2 89 29 40 -49
        E 278 99 24 3b -101
        E 0 99 29 7f -55
        E 0 99 24 23 17
        E 116 89 24 40 -101
        E 84 89 29 40 -55
        E 0 89 24 40 17
        E 280 99 26 7f -69
        E 0 99 29 7f -30
        E 199 89 29 40 -30
        E 1 89 26 40 -69
        E 280 99 29 7f -37
        E 200 89 29 40 -37
        E 280 99 24 58 -83
        E 0 99 29 7f -35
        E 200 89 29 40 -35
        E 2 89 24 40 -83
        E 278 99 24 3d -103
        E 0 99 29 7f -17
        E 0 99 24 1f 15
        E 114 89 24 40 -103
        E 84 89 24 40 15
        E 2 89 29 40 -17
        E 280 99 29 7f -11
        E 200 89 29 40 -11
        E 280 99 29 7f 23
        E 200 89 29 40 23
        E 280 99 24 4c 35
        E 0 99 29 7f 69
        E 200 89 24 40 35
        E 0 89 29 40 69
        E 280 99 24 3d 17
        E 0 99 29 7f 83
        E 170 89 24 40 17
        E 32 89 29 40 83
        E 38 99 24 1d -51
        E 198 89 24 40 -51
        E 42 99 26 6c 89
        E 0 99 29 7f 105
        E 78 89 26 40 89
        E 122 89 29 40 105
        E 40 99 26 3d -73
        E 200 89 26 40 -73
        E 40 99 29 7f 47
        E 202 89 29 40 47
        E 38 99 30 7f -5
        E 200 89 30 40 -5
        E 40 99 24 5f -55
        E 0 99 2d 7f 39
        E 200 89 24 40 -55
        E 0 89 2d 40 39
        E 280 99 29 3d 1
        E 0 99 2d 1b 15
        E 202 89 29 40 1
        E 0 89 2d 40 15
        E 278 99 26 7f 29
        E 0 99 29 7f 53
        E 202 89 26 40 29
        E 0 89 29 40 53
        E 278 99 29 7f 41
        E 200 89 29 40 41
        E 280 99 24 56 39
        E 0 99 29 7f 53
        E 200 89 24 40 39
        E 0 89 29 40 53
        E 280 99 24 3d 49
        E 0 99 29 7f 93
        E 146 89 24 40 49
        E 54 89 29 40 93
        E 40 99 24 1f -43
        E 200 89 24 40 -43
        E 40 99 26 7f 39
        E 0 99 29 7f 85
        E 200 89 29 40 85
        E 2 89 26 40 39
        E 278 99 29 7f 71
        E 200 89 29 40 71
        E 280 99 24 4d 75
        E 0 99 29 7f 85
        E 200 89 24 40 75
        E 2 89 29 40 85
        E 278 99 29 7f 85
        E 0 99 24 3a 87
        E 190 89 24 40 87
        E 12 89 29 40 85
        E 38 99 24 19 41
        E 198 89 24 40 41
        E 42 99 26 7f 69
        E 0 99 29 7f 111
        E 200 89 29 40 111
        E 2 89 26 40 69
        E 278 99 29 7f 117
        E 200 89 29 40 117
        E 280 99 24 51 59
        E 0 99 29 7f 101
        E 200 89 29 40 101
        E 2 89 24 40 59
        E 278 99 24 37 22
        E 0 99 29 7f 74
        E 149 89 24 40 22
        E 50 89 29 40 74
        E 41 99 24 18 -67
        E 200 89 24 40 -67
        E 40 99 26 7b 65
        E 0 99 29 7f 103
        E 200 89 26 40 65
        E 0 89 29 40 103
        E 280 99 29 7f 59
        E 201 89 29 40 59
        E 39 99 30 7f -3
        E 200 89 30 40 -3
        E 40 99 24 62 -59
        E 0 99 2d 7f 47
        E 200 89 24 40 -59
        E 0 89 2d 40 47
        E 280 99 29 7f 65
        E 200 89 29 40 65
        E 40 99 26 7f -95
        E 202 89 26 40 -95
        E 38 99 29 7f 61
        E 200 89 29 40 61
        E 280 99 29 7f 73
        E 200 89 29 40 73
        E 280 99 24 5a 77
        E 0 99 29 7f 81
        E 200 89 24 40 77
        E 0 89 29 40 81
        E 280 99 24 45 55
        E 0 99 29 7f 89
        E 114 89 24 40 55
        E 88 89 29 40 89
        E 38 99 24 22 -69
        E 198 89 24 40 -69
        E 42 99 26 7f 19
        E 0 99 29 7f 66
        E 200 89 26 40 19
        E 1 89 29 40 66
        E 279 99 29 7f 61
        E 200 89 29 40 61
        E 280 99 24 52 23
        E 0 99 29 7f 67
        E 200 89 29 40 67
        E 2 89 24 40 23
        E 278 99 24 3d 33
        E 0 99 29 7f 63
        E 144 89 24 40 33
        E 56 89 29 40 63
        E 40 99 24 1f -61
        E 200 89 24 40 -61
        E 40 99 26 7c 53
        E 0 99 29 7f 107
        E 200 89 26 40 53
        E 0 89 29 40 107
        E 280 99 29 7f 91
        E 200 89 29 40 91
        E 280 99 24 56 87
        E 200 89 24 40 87
        E 40 99 29 7f -115
        E 200 89 29 40 -115
        E 40 99 24 3c 47
        E 0 99 29 7f 103
        E 144 89 24 40 47
        E 55 89 29 40 103
        E 41 99 24 19 -47
        E 200 89 24 40 -47
        E 40 99 26 7f 63
        E 0 99 29 7f 105
        E 200 89 26 40 63
        E 0 89 29 40 105
        E 280 99 29 7f 69
        E 181 b9 04 00
        E 19 89 29 40 69
        E 40 99 1a 34 -57
        E 0 99 30 77 -27
        E 200 89 1a 40 -57
        E 0 89 30 40 -27
        E 40 99 24 70 -45
        E 0 99 2d 7f 85
        E 200 89 24 40 -45
        E 0 89 2d 40 85
        E 40 99 24 49 113
        E 200 89 24 40 113
        E 40 99 2d 7f -3
        E 200 89 2d 40 -3
        E 280 99 26 7f 7
        E 0 99 29 7f 37
        E 200 89 26 40 7
        E 0 89 29 40 37
        E 280 99 29 7f 31
        E 200 89 29 40 31
        E 280 99 24 55 -33
        E 0 99 29 7f 31
        E 200 89 29 40 31
        E 2 89 24 40 -33
        E 278 99 24 40 -69
        E 0 99 29 7f 29
        E 200 89 29 40 29
        E 2 89 24 40 -69
        E 278 99 26 7c 9
        E 0 99 29 7f 49
        E 200 89 26 40 9
        E 1 89 29 40 49
        E 279 99 29 7f 59
        E 202 89 29 40 59
        E 278 99 24 53 57
        E 0 99 29 7f 79
        E 200 89 24 40 57
        E 0 89 29 40 79
        E 280 99 24 40 -11
        E 0 99 29 7f 61
        E 0 99 24 22 97
        E 108 89 24 40 -11
        E 92 89 29 40 61
        E 1 89 24 40 97
        E 279 99 26 75 17
        E 0 99 29 7f 75
        E 200 89 26 40 17
        E 4 89 29 40 75
        E 276 99 29 78 87
        E 200 89 29 40 87
        E 280 99 24 54 51
        E 0 99 29 7f 97
        E 104 89 24 40 51
        E 96 89 29 40 97
        E 40 99 24 21 -83
        E 198 89 24 40 -83
        E 42 99 29 7f 87
        E 200 89 29 40 87
        E 40 99 24 43 -109
        E 0 99 24 23 61
        E 168 89 24 40 -109
        E 32 89 24 40 61
        E 40 99 26 7f 83
        E 0 99 29 7f 111
        E 199 89 29 40 111
        E 5 89 26 40 83
        E 276 99 29 7f 71
        E 202 89 29 40 71
        E 38 99 30 7f -7
        E 200 89 30 40 -7
        E 40 99 24 67 -19
        E 0 99 2d 7f 89
        E 200 89 24 40 -19
        E 0 89 2d 40 89
        E 280 99 24 3c -81
        E 0 99 24 1e
        E 0 99 2d 7f 79
        E 80 89 24 40 -81
        E 120 89 2d 40 79
        E 1 89 24 40
        E 279 99 26 7f 43
        E 0 99 29 7f 77
        E 200 89 29 40 77
        E 2 89 26 40 43
        E 278 99 29 7f 61
        E 200 89 29 40 61
        E 280 99 29 7f 67
        E 0 99 24 55 95
        E 200 89 29 40 67
        E 0 89 24 40 95
        E 280 99 24 3e -5
        E 0 99 29 7f 73
        E 200 89 24 40 -5
        E 0 89 29 40 73
        E 280 99 26 7f 39
        E 0 99 29 7f 93
        E 200 89 26 40 39
        E 0 89 29 40 93
        E 280 99 29 7f 62
        E 201 89 29 40 62
        E 279 99 24 53 53
        E 0 99 29 7f 77
        E 200 89 24 40 53
        E 0 89 29 40 77
        E 280 99 24 3f 57
        E 0 99 29 7f 81
        E 156 89 24 40 57
        E 45 89 29 40 81
        E 39 99 24 1c -25
        E 202 89 24 40 -25
        E 38 99 26 7d 46
        E 0 99 29 7f 91
        E 201 89 26 40 46
        E 1 89 29 40 91
        E 278 99 29 7f 63
        E 200 89 29 40 63
        E 40 99 30 78 -17
        E 200 89 30 40 -17
        E 40 99 24 66 -43
        E 0 99 2d 7f 69
        E 201 89 2d 40 69
        E 1 89 24 40 -43
        E 38 99 24 3b 97
        E 202 89 24 40 97
        E 38 99 2d 7f 41
        E 204 89 2d 40 41
        E 276 99 26 7f -1
        E 0 99 29 7f 45
        E 199 89 29 40 45
        E 1 89 26 40 -1
        E 280 99 29 7f 35
        E 200 89 29 40 35
        E 280 99 24 55 25
        E 0 99 29 7f 27
        E 200 89 24 40 25
        E 2 89 29 40 27
        E 278 99 24 3d -23
        E 0 99 29 7f 21
        E 200 89 29 40 21
        E 2 89 24 40 -23
        E 278 99 26 7f -15
        E 0 99 29 7f 38
        E 200 89 29 40 38
        E 2 89 26 40 -15
        E 278 99 29 7f 25
        E 202 89 29 40 25
        E 278 99 29 7f 32
        E 0 99 24 50 38
        E 201 89 29 40 32
        E 0 89 24 40 38
        E 279 99 24 3c -13
        E 0 99 29 7f 26
        E 138 89 24 40 -13
        E 65 89 29 40 26
        E 37 99 24 1c -115
        E 200 89 24 40 -115
        E 40 99 26 7f 8
        E 0 99 29 7f 61
        E 201 89 29 40 61
        E 2 89 26 40 8
        E 277 99 29 7f 35
        E 200 89 29 40 35
        E 280 99 24 50 -1
        E 0 99 29 7f 60
        E 200 89 24 40 -1
        E 1 89 29 40 60
        E 279 99 24 37 -62
        E 0 99 29 7f 22
        E 201 89 24 40 -62
        E 4 89 29 40 22
        E 275 99 26 7f 13
        E 0 99 29 7f 59
        E 200 89 26 40 13
        E 2 89 29 40 59
        E 278 99 29 7f 23
        E 199 89 29 40 23
        E 41 99 30 7f -37
        E 202 89 30 40 -37
        E 38 99 24 62 -83
        E 0 99 2d 7f 55
        E 200 89 24 40 -83
        E 0 89 2d 40 55
        E 40 99 30 7e -37
        E 17 b9 04 06
        E 182 89 30 40 -37
        E 4 b9 04 00
        E 37 99 24 51 -91
        E 0 99 2d 7f 5
        E 200 89 24 40 -91
        E 0 89 2d 40 5
        E 280 99 26 7f -10
        E 0 99 29 7f 46
        E 201 89 29 40 46
        E 1 89 26 40 -10
        E 278 99 29 7f 5
        E 200 89 29 40 5
        E 280 99 24 55 31
        E 0 99 29 7f 37
        E 200 89 24 40 31
        E 0 89 29 40 37
        E 280 99 24 3e -31
        E 0 99 29 7f 10
        E 0 99 24 1d 99
        E 128 89 24 40 -31
        E 72 89 24 40 99
        E 1 89 29 40 10
        E 279 99 26 7f 5
        E 0 99 29 7f 51
        E 200 89 26 40 5
        E 0 89 29 40 51
        E 280 99 29 7f -7
        E 200 89 29 40 -7
        E 40 99 26 52 -105
        E 200 89 26 40 -105
        E 40 99 24 64 -22
        E 0 99 29 7f -12
        E 201 89 24 40 -22
        E 0 89 29 40 -12
        E 279 99 29 7f -3
        E 199 89 29 40 -3
        E 281 99 26 7f 9
        E 0 99 29 7f 35
        E 200 89 26 40 9
        E 2 89 29 40 35
        E 278 99 29 7f 19
        E 202 89 29 40 19
        E 278 99 29 7f 38
        E 0 99 24 57 45
        E 200 89 24 40 45
        E 1 89 29 40 38
        E 279 99 24 34 -53
        E 0 99 29 7f 45
        E 200 89 24 40 -53
        E 2 89 29 40 45
        E 278 99 26 7f 21
        E 0 99 29 7f 57
        E 200 89 26 40 21
        E 2 89 29 40 57
        E 278 99 29 7f 15
        E 200 89 29 40 15
        E 40 99 30 7c -45
        E 200 89 30 40 -45
        E 40 99 24 60 -65
        E 0 99 2d 7f 45
        E 200 89 24 40 -65
        E 2 89 2d 40 45
        E 38 99 30 7f -38
        E 200 89 30 40 -38
        E 40 99 24 4b -47
        E 0 99 2d 7f -11
        E 199 89 24 40 -47
        E 1 89 2d 40 -11
        E 280 99 26 7f 1
        E 0 99 29 7f 37
        E 200 89 26 40 1
        E 0 89 29 40 37
        E 280 99 29 7f 27
        E 199 89 29 40 27
        E 281 99 29 7f 25
        E 0 99 24 4f 59
        E 201 89 24 40 59
        E 1 89 29 40 25
        E 278 99 24 42 -15
        E 0 99 29 7f 26
        E 200 89 24 40 -15
        E 1 89 29 40 26
        E 279 99 26 7f 23
        E 0 99 29 7f 77
        E 200 89 26 40 23
        E 0 89 29 40 77
        E 280 99 29 7f 73
        E 200 89 29 40 73
        E 280 99 24 52 77
        E 0 99 29 7f 85
        E 200 89 24 40 77
        E 0 89 29 40 85
        E 280 99 24 3d 15
        E 0 99 29 7f 71
        E 0 99 24 1f 119
        E 104 89 24 40 15
        E 96 89 29 40 71
        E 0 89 24 40 119
        E 280 99 26 7f 25
        E 0 99 29 7f 65
        E 200 89 26 40 25
        E 0 89 29 40 65
        E 280 99 29 7f 49
        E 200 89 29 40 49
        E 40 99 28 58 -2
        E 0 99 28 2a 97
        E 97 89 28 40 -2
        E 103 89 28 40 97
        E 40 99 26 64 66
        E 0 99 24 49 75
        E 126 89 24 40 75
        E 75 89 26 40 66
        E 39 99 24 24 -37
        E 0 99 26 40 37
        E 96 89 26 40 37
        E 104 89 24 40 -37
        E 40 99 26 23 -105
        E 0 99 26 7e 49
        E 152 89 26 40 -105
        E 44 89 26 40 49
        E 44 99 26 66 7
        E 200 89 26 40 7
        E 40 99 26 78 28
        E 201 89 26 40 28
        E 39 99 26 61 17
        E 200 89 26 40 17
        E 40 99 26 7f 25
        E 200 89 26 40 25
        E 40 99 26 68 -9
        E 202 89 26 40 -9
        E 38 99 33 41 -15
        E 0 99 33 7f 30
        E 0 99 24 5f 89
        E 44 89 33 40 -15
        E 157 89 33 40 30
        E 1 89 24 40 89
        E 278 99 29 7f -29
        E 200 89 29 40 -29
        E 280 99 26 7f -23
        E 0 99 29 7f 20
        E 202 89 26 40 -23
        E 0 89 29 40 20
        E 278 99 29 7f 9
        E 200 89 29 40 9
        E 280 99 24 51 15
        E 0 99 29 7f 33
        E 200 89 24 40 15
        E 0 89 29 40 33
        E 280 99 29 7f 25
        E 200 89 29 40 25
        E 280 99 26 7f -7
        E 0 99 29 7f 45
        E 199 89 26 40 -7
        E 2 89 29 40 45
        E 279 99 29 7f 23
        E 200 89 29 40 23
        E 280 99 29 7f 35
        E 0 99 24 4e 45
        E 199 89 24 40 45
        E 1 89 29 40 35
        E 280 99 24 3d -59
        E 0 99 24 1d 33
        E 0 99 29 7f 41
        E 90 89 24 40 -59
        E 109 89 29 40 41
        E 2 89 24 40 33
        E 279 99 26 7f 34
        E 0 99 29 7f 79
        E 200 89 29 40 79
        E 3 89 26 40 34
        E 277 99 29 7f 65
        E 200 89 29 40 65
        E 280 99 24 51 36
        E 0 99 29 7f 59
        E 200 89 29 40 59
        E 1 89 24 40 36
        E 279 99 29 7f 52
        E 201 89 29 40 52
        E 279 99 26 7f 21
        E 0 99 29 7f 73
        E 199 89 26 40 21
        E 1 89 29 40 73
        E 280 99 29 7f 37
        E 200 89 29 40 37
        E 40 99 30 6d -38
        E 203 89 30 40 -38
        E 37 99 24 64 -78
        E 0 99 2d 7f 57
        E 200 89 2d 40 57
        E 1 89 24 40 -78
        E 39 99 30 5c -15
        E 35 b9 04 06
        E 165 89 30 40 -15
        E 40 99 24 51 -32
        E 0 99 2d 7f
        E 26 b9 04 00
        E 174 89 2d 40
        E 1 89 24 40 -32
        E 279 99 26 74 3
        E 0 99 29 7f 41
        E 199 89 26 40 3
        E 2 89 29 40 41
        E 279 99 29 7f 28
        E 200 89 29 40 28
        E 280 99 29 7f 51
        E 0 99 24 54 68
        E 199 89 29 40 51
        E 2 89 24 40 68
        E 279 99 24 41 13
        E 0 99 29 7f 55
        E 0 99 24 22 110
        E 94 89 24 40 13
        E 106 89 29 40 55
        E 1 89 24 40 110
        E 279 99 26 7f 29
        E 0 99 29 7f 71
        E 200 89 26 40 29
        E 0 89 29 40 71
        E 280 99 29 7f 52
        E 200 89 29 40 52
        E 280 99 24 4e 57
        E 0 99 29 7f 70
        E 200 89 24 40 57
        E 1 89 29 40 70
        E 279 99 29 7f 79
        E 199 89 29 40 79
        E 281 99 26 7f 63
        E 0 99 29 7f 84
        E 201 89 26 40 63
        E 0 89 29 40 84
        E 279 99 29 7f 67
        E 200 89 29 40 67
        E 2 b9 04 00
        E 38 99 1a 7f -36
        E 201 89 1a 40 -36
        E 14 b9 04 12
        E 25 99 24 56 -61
        E 0 99 24 28 35
        E 0 99 29 7f 45
        E 29 b9 04 22
        E 60 b9 04 32
        E 4 89 24 40 -61
        E 106 89 24 40 35
        E 0 89 29 40 45
        E 3 b9 04 22
        E 136 b9 04 12
        E 142 99 29 7f 62
        E 201 89 29 40 62
        E 279 99 26 7f 58
        E 0 99 29 7f 80
        E 200 89 26 40 58
        E 3 89 29 40 80
        E 202 b9 04 06
        E 75 99 29 7f 52
        E 201 89 29 40 52
        E 39 99 28 4a -11
        E 5 b9 04 00
        E 195 89 28 40 -11
        E 40 99 24 6b -38
        E 0 99 2d 7f 42
        E 201 89 24 40 -38
        E 0 89 2d 40 42
        E 39 99 30 7f -12
        E 12 b9 04 0f
        E 189 89 30 40 -12
        E 39 99 2d 7f 6
        E 0 99 24 4e 10
        E 98 b9 04 06
        E 104 89 2d 40 6
        E 1 89 24 40 10
        E 146 b9 04 00
        E 131 99 26 7f -46
        E 0 99 29 7f 11
        E 200 89 29 40 11
        E 3 89 26 40 -46
        E 277 99 29 7f -10
        E 199 b9 04 09
        E 2 89 29 40 -10
        E 279 99 24 58 7
        E 0 99 29 7f 10
        E 201 89 29 40 10
        E 1 89 24 40 7
        E 278 99 24 37 -94
        E 0 99 29 7f -4
        E 200 89 24 40 -94
        E 3 89 29 40 -4
        E 25 b9 04 00
        E 252 99 26 7f -35
        E 0 99 29 7f 32
        E 199 89 26 40 -35
        E 2 89 29 40 32
        E 279 99 29 7f -1
        E 0 99 26 21 109
        E 199 89 26 40 109
        E 3 89 29 40 -1
        E 278 99 24 55 10
        E 0 99 29 7f 14
        E 200 89 24 40 10
        E 3 89 29 40 14
        E 37 99 24 29 79
        E 202 89 24 40 79
        E 38 99 29 7f 26
        E 201 89 29 40 26
        E 279 99 26 7b -15
        E 0 99 29 7f 49
        E 200 89 26 40 -15
        E 0 89 29 40 49
        E 280 99 29 7f 22
        E 0 99 1a 7f 98
        E 96 b9 04 00
        E 104 89 1a 40 98
        E 1 89 29 40 22
        E 176 b9 04 12
        E 7 b9 04 25
        E 62 b9 04 36
        E 34 99 24 65 -45
        E 0 99 29 7f -5
        E 52 b9 04 46
        E 110 b9 04 36
        E 39 89 29 40 -5
        E 2 89 24 40 -45
        E 41 b9 04 25
        E 108 b9 04 18
        E 128 99 29 7f 34
        E 21 b9 04 0f
        E 180 89 29 40 34
        E 279 99 26 7f 51
        E 0 99 29 7f 70
        E 64 b9 04 09
        E 135 89 26 40 51
        E 1 89 29 40 70
        E 8 b9 04 00
        E 272 99 29 7f 9
        E 100 b9 04 09
        E 102 89 29 40 9
        E 38 99 30 7f -54
        E 0 99 24 6e 82
        E 25 b9 04 00
        E 175 89 24 40 82
        E 3 89 30 40 -54
        E 27 b9 04 12
        E 10 99 2d 7f 20
        E 128 b9 04 1d
        E 73 89 2d 40 20
        E 39 99 30 64 -37
        E 0 99 24 49 32
        E 116 b9 04 0f
        E 83 89 30 40 -37
        E 1 89 24 40 32
        E 40 99 2d 7f -14
        E 57 b9 04 06
        E 144 89 2d 40 -14
        E 65 b9 04 00
        E 214 99 26 7f -3
        E 0 99 29 7f 18
        E 200 89 29 40 18
        E 2 89 26 40 -3
        E 278 99 29 7f 11
        E 199 89 29 40 11
        E 24 b9 04 09
        E 257 99 24 5d -2
        E 0 99 29 7f 28
        E 200 89 29 40 28
        E 1 89 24 40 -2
        E 39 99 24 16 21
        E 202 89 24 40 21
        E 38 99 29 7f 10
        E 200 89 29 40 10
        E 40 99 24 23 -41
        E 173 b9 04 03
        E 4 b9 04 00
        E 22 89 24 40 -41
        E 41 99 26 7f 60
        E 0 99 29 7f 77
        E 200 89 26 40 60
        E 0 89 29 40 77
        E 280 99 29 7f 52
        E 200 89 29 40 52
        E 280 99 24 5c 70
        E 0 99 29 7f 99
        E 200 89 24 40 70
        E 1 89 29 40 99
        E 57 b9 04 12
        E 40 b9 04 22
        E 40 b9 04 32
        E 142 99 29 7f 95
        E 83 b9 04 22
        E 35 b9 04 12
        E 36 b9 04 00
        E 45 89 29 40 95
        E 281 99 2c 50 33
        E 0 99 26 7f 97
        E 0 99 29 7f 108
        E 18 b9 04 12
        E 4 b9 04 25
        E 4 b9 04 38
        E 2 b9 04 49
        E 2 b9 04 4f
        E 5 b9 04 5b
        E 35 b9 04 6c
        E 115 b9 04 5c
        E 15 89 2c 40 33
        E 2 89 26 40 97
        E 0 89 29 40 108
        E 4 b9 04 4c
        E 19 b9 04 3c
        E 31 b9 04 2c
        E 46 b9 04 1a
        E 124 b9 04 12
        E 54 99 29 7f 106
        E 201 89 29 40 106
        E 16 b9 04 20
        E 280 b9 04 0f
        E 67 b9 04 00
        E 156 99 29 7f -118
        E 0 99 24 64 -85
        E 96 b9 04 0c
        E 103 89 24 40 -85
        E 1 89 29 40 -118
        E 40 99 24 31 -10
        E 0 99 29 7f 118
        E 200 89 24 40 -10
        E 1 89 29 40 118
        E 279 99 26 7f 98
        E 121 b9 04 03
        E 10 b9 04 00
        E 69 89 26 40 98
        E 40 99 29 7f -117
        E 141 b9 04 12
        E 58 89 29 40 -117
        E 41 99 29 7f 83
        E 6 b9 04 00
        E 172 b9 04 12
        E 9 b9 04 22
        E 8 b9 04 32
        E 4 89 29 40 83
        E 7 b9 04 43
        E 4 b9 04 4c
        E 5 b9 04 54
        E 7 b9 04 65
        E 18 99 2c 1c -27
        E 0 99 30 5b -12
        E 15 b9 04 75
        E 62 b9 04 65
        E 18 b9 04 55
        E 11 b9 04 44
        E 11 b9 04 34
        E 8 b9 04 22
        E 12 b9 04 12
        E 11 b9 04 00
        E 52 89 2c 40 -27
        E 0 89 30 40 -12
        E 40 99 24 7f -1
        E 0 99 2d 7f 82
        E 149 b9 04 12
        E 1 b9 04 25
        E 3 b9 04 38
        E 2 b9 04 49
        E 2 b9 04 53
        E 5 b9 04 5a
        E 2 b9 04 6e
        E 10 b9 04 5d
        E 13 b9 04 6e
        E 12 89 24 40 -1
        E 1 89 2d 40 82
        E 40 99 2c 7a -81
        E 46 b9 04 5d
        E 12 b9 04 4c
        E 8 b9 04 3c
        E 11 b9 04 2c
        E 9 b9 04 1a
        E 12 b9 04 09
        E 6 b9 04 00
        E 94 89 2c 40 -81
        E 42 99 24 58 -42
        E 0 99 2d 7f 36
        E 110 b9 04 12
        E 11 b9 04 25
        E 17 b9 04 36
        E 15 b9 04 46
        E 3 b9 04 4c
        E 8 b9 04 56
        E 37 89 2d 40 36
        E 1 89 24 40 -42
        E 25 b9 04 46
        E 13 99 2c 12 -82
        E 15 b9 04 36
        E 186 89 2c 40 -82
        E 39 99 26 7f 57
        E 0 99 29 7f 104
        E 33 b9 04 2e
        E 67 b9 04 1d
        E 99 89 26 40 57
        E 1 89 29 40 104
        E 65 b9 04 0f
        E 142 b9 04 06
        E 73 99 29 7f 85
        E 199 89 29 40 85
        E 64 b9 04 12
        E 217 99 24 64 90
        E 0 99 29 7f 111
        E 41 b9 04 03
        E 6 b9 04 00
        E 153 89 29 40 111
        E 1 89 24 40 90
        E 279 99 24 3d 29
        E 201 89 24 40 29
        E 39 99 29 7f -119
        E 200 89 29 40 -119
        E 40 99 26 7e 75
        E 200 89 26 40 75
        E 40 99 29 7f -113
        E 199 89 29 40 -113
        E 41 99 29 7f 108
        E 200 89 29 40 108
        E 520 99 29 7f -106
        E 0 99 24 72 -96
        E 200 89 29 40 -106
        E 1 89 24 40 -96
        E 39 99 24 3b 61
        E 73 89 24 40 61
        E 167 99 24 19 -102
        E 0 99 29 7f -100
        E 51 b9 04 06
        E 148 89 24 40 -102
        E 3 89 29 40 -100
        E 146 b9 04 00
        E 132 99 26 7f -107
        E 0 99 29 7f -98
        E 200 89 26 40 -107
        E 3 89 29 40 -98
        E 37 99 29 7f 118
        E 200 89 29 40 118
        E 280 99 29 7f 100
        E 0 99 24 60 107
        E 202 89 29 40 100
        E 0 89 24 40 107
        E 278 99 29 7f 70
        E 200 89 29 40 70
        E 280 99 26 7f 29
        E 0 99 29 7f 56
        E 201 89 26 40 29
        E 0 89 29 40 56
        E 279 99 29 7f 44
        E 182 b9 04 09
        E 18 89 29 40 44
        E 40 99 30 5c -34
        E 200 89 30 40 -34
        E 40 99 24 7f -45
        E 0 99 2d 7f 52
        E 109 b9 04 1a
        E 91 89 2d 40 52
        E 2 89 24 40 -45
        E 38 99 30 79 -38
        E 59 b9 04 27
        E 141 89 30 40 -38
        E 40 99 24 5b -10
        E 0 99 2d 7f 9
        E 3 b9 04 18
        E 138 b9 04 0f
        E 58 89 2d 40 9
        E 2 89 24 40 -10
        E 169 b9 04 06
        E 110 99 26 7f 62
        E 0 99 29 7f 70
        E 66 b9 04 00
        E 134 89 26 40 62
        E 0 89 29 40 70
        E 280 99 29 7f 46
        E 200 89 29 40 46
        E 24 b9 04 09
        E 256 99 29 7f 44
        E 0 99 24 7d 54
        E 200 89 29 40 44
        E 0 89 24 40 54
        E 280 99 24 48 24
        E 0 99 29 7f 50
        E 124 89 24 40 24
        E 76 89 29 40 50
        E 40 99 24 21 -90
        E 200 89 24 40 -90
        E 40 99 26 7f -16
        E 0 99 29 7f 38
        E 200 89 29 40 38
        E 2 89 26 40 -16
        E 278 99 29 7f 42
        E 16 b9 04 03
        E 184 89 29 40 42
        E 280 99 29 7f 64
        E 0 99 24 68 78
        E 201 89 29 40 64
        E 2 89 24 40 78
        E 277 99 24 44 -12
        E 0 99 29 7f 58
        E 200 89 29 40 58
        E 2 89 24 40 -12
        E 278 99 26 7f 41
        E 0 99 29 7f 68
        E 199 89 26 40 41
        E 2 89 29 40 68
        E 157 b9 04 00
        E 122 99 29 7f 66
        E 200 89 29 40 66
        E 280 99 29 7f 71
        E 0 99 24 74 93
        E 199 89 29 40 71
        E 2 89 24 40 93
        E 279 99 24 45 26
        E 0 99 29 7f 60
        E 100 89 24 40 26
        E 100 89 29 40 60
        E 40 99 24 1e -112
        E 202 89 24 40 -112
        E 38 99 26 7b 14
        E 0 99 29 7f 56
        E 200 89 26 40 14
        E 0 89 29 40 56
        E 280 99 29 7f 28
        E 200 89 29 40 28
        E 2 b9 04 0c
        E 38 99 30 65 -30
        E 202 89 30 40 -30
        E 38 99 24 7e -23
        E 0 99 2d 7f 38
        E 186 b9 04 18
        E 14 89 2d 40 38
        E 1 89 24 40 -23
        E 39 99 30 60 -48
        E 200 89 30 40 -48
        E 40 99 2d 7f -3
        E 0 99 24 5a
        E 152 b9 04 0f
        E 47 89 2d 40 -3
        E 3 89 24 40
        E 152 b9 04 06
        E 126 99 26 74 45
        E 0 99 29 7f 58
        E 18 b9 04 00
        E 182 89 29 40 58
        E 1 89 26 40 45
        E 279 99 29 7f 34
        E 202 89 29 40 34
        E 278 99 24 67 38
        E 0 99 29 7f 40
        E 200 89 24 40 38
        E 2 89 29 40 40
        E 278 99 24 46 -14
        E 0 99 29 7f 40
        E 0 99 24 20 96
        E 106 89 24 40 -14
        E 92 89 24 40 96
        E 2 89 29 40 40
        E 280 99 26 7f 6
        E 0 99 29 7f 52
        E 200 89 29 40 52
        E 4 89 26 40 6
        E 276 99 29 7f 46
        E 131 b9 04 00
        E 69 89 29 40 46
        E 40 99 1a 7f -107
        E 118 b9 04 12
        E 7 b9 04 25
        E 3 b9 04 38
        E 2 b9 04 4c
        E 6 b9 04 4c
        E 65 89 1a 40 -107
        E 3 b9 04 5c
        E 36 99 2c 46 -108
        E 0 99 24 7e
        E 0 99 29 7f 44
        E 90 b9 04 4c
        E 56 b9 04 3c
        E 54 89 2c 40 -108
        E 0 89 29 40 44
        E 1 89 24 40
        E 161 b9 04 2c
        E 112 b9 04 1d
        E 6 99 29 7f 64
        E 200 89 29 40 64
        E 280 99 26 7f 58
        E 0 99 29 7f 82
        E 200 89 26 40 58
        E 0 89 29 40 82
        E 280 99 29 7f 74
        E 70 b9 04 12
        E 130 89 29 40 74
        E 136 b9 04 18
        E 144 99 24 67 68
        E 0 99 29 7f 90
        E 202 89 24 40 68
        E 0 89 29 40 90
        E 278 99 24 43 -16
        E 0 99 29 7f 70
        E 64 b9 04 12
        E 136 89 24 40 -16
        E 2 89 29 40 70
        E 278 99 26 7c 66
        E 0 99 29 7f 102
        E 110 b9 04 09
        E 90 89 29 40 102
        E 3 89 26 40 66
        E 57 b9 04 00
        E 220 99 29 7f 70
        E 140 b9 04 0f
        E 60 89 29 40 70
        E 40 99 30 77 2
        E 200 89 30 40 2
        E 40 99 24 7f 4
        E 0 99 2d 7f 105
        E 199 89 2d 40 105
        E 2 89 24 40 4
        E 39 99 30 7a 16
        E 0 99 30 23 114
        E 30 b9 04 18
        E 64 89 30 40 16
        E 104 89 30 40 114
        E 6 b9 04 1d
        E 36 99 24 5f 8
        E 0 99 2d 7f 48
        E 200 89 24 40 8
        E 0 89 2d 40 48
        E 112 b9 04 12
        E 168 99 26 66 48
        E 0 99 29 7f 96
        E 132 b9 04 09
        E 68 89 26 40 48
        E 1 89 29 40 96
        E 279 99 29 7f 78
        E 202 89 29 40 78
        E 38 b9 04 12
        E 240 99 24 6f 94
        E 0 99 29 7f 106
        E 72 b9 04 09
        E 128 89 24 40 94
        E 2 89 29 40 106
        E 90 b9 04 12
        E 188 99 24 3c -22
        E 0 99 29 7f 108
        E 200 89 29 40 108
        E 2 89 24 40 -22
        E 278 99 26 7f 104
        E 112 b9 04 09
        E 88 89 26 40 104
        E 40 99 29 7f -102
        E 200 89 29 40 -102
        E 218 b9 04 00
        E 62 99 29 7f -119
        E 0 99 29 34 -16
        E 0 99 1a 7f 104
        E 101 89 29 40 -119
        E 1 b9 04 00
        E 100 89 29 40 -16
        E 0 89 1a 40 104
        E 38 99 2c 2a 58
        E 38 b9 04 12
        E 4 b9 04 22
        E 4 b9 04 34
        E 4 b9 04 46
        E 7 b9 04 4c
        E 27 b9 04 56
        E 38 b9 04 66
        E 80 89 2c 40 58
        E 38 b9 04 56
        E 0 99 24 7f -108
        E 0 99 29 7f -90
        E 48 b9 04 46
        E 67 b9 04 36
        E 85 89 29 40 -90
        E 2 89 24 40 -108
        E 62 b9 04 3a
        E 52 b9 04 29
        E 110 b9 04 1d
        E 54 99 29 7f -112
        E 200 89 29 40 -112
        E 162 b9 04 15
        E 118 99 26 7e -80
        E 0 99 29 7f -54
        E 200 89 29 40 -54
        E 1 89 26 40 -80
        E 147 b9 04 0c
        E 132 99 29 7f -80
        E 188 b9 04 12
        E 12 89 29 40 -80
        E 280 99 24 70 -64
        E 0 99 29 7f -48
        E 200 89 29 40 -48
        E 1 89 24 40 -64
        E 279 99 24 45 -88
        E 0 99 29 7f -34
        E 0 99 24 21 24
        E 110 89 24 40 -88
        E 90 89 29 40 -34
        E 0 89 24 40 24
        E 210 b9 04 09
        E 70 99 26 7a -80
        E 0 99 29 7f -32
        E 14 b9 04 00
        E 186 89 26 40 -80
        E 1 89 29 40 -32
        E 279 99 29 7f -56
        E 18 b9 04 0f
        E 152 b9 04 15
        E 30 89 29 40 -56
        E 40 99 30 7c -120
        E 0 99 30 26 -32
        E 86 89 30 40 -120
        E 63 b9 04 0f
        E 51 89 30 40 -32
        E 40 99 24 7f -116
        E 0 99 2d 7f -44
        E 60 b9 04 1d
        E 140 89 24 40 -116
        E 4 89 2d 40 -44
        E 22 b9 04 27
        E 14 99 30 7f -108
        E 200 89 30 40 -108
        E 36 b9 04 1d
        E 4 99 24 5d -108
        E 0 99 2d 7f -68
        E 196 b9 04 12
        E 4 89 24 40 -108
        E 0 89 2d 40 -68
        E 266 b9 04 06
        E 14 99 26 7f -76
        E 0 99 29 7f -35
        E 122 b9 04 00
        E 77 89 29 40 -35
        E 1 89 26 40 -76
        E 280 99 29 7f -42
        E 116 b9 04 09
        E 84 89 29 40 -42
        E 280 99 24 7f -54
        E 0 99 29 7f -50
        E 200 89 29 40 -50
        E 2 89 24 40 -54
        E 278 99 24 41 -80
        E 0 99 29 7f -58
        E 0 99 24 1a 76
        E 154 89 24 40 -80
        E 46 89 29 40 -58
        E 0 89 24 40 76
        E 280 99 26 7f -80
        E 0 99 29 7f -67
        E 199 89 29 40 -67
        E 3 89 26 40 -80
        E 164 b9 04 00
        E 114 99 29 7f -90
        E 0 99 1a 7f 88
        E 86 b9 04 00
        E 113 89 29 40 -90
        E 1 89 1a 40 88
        E 40 99 2c 34 68
        E 0 99 24 7f 96
        E 52 b9 04 12
        E 4 b9 04 22
        E 4 b9 04 32
        E 4 b9 04 44
        E 2 b9 04 4c
        E 40 b9 04 54
        E 94 89 2c 40 68
        E 2 89 24 40 96
        E 12 b9 04 5f
        E 26 99 29 7f -86
        E 56 b9 04 4f
        E 86 b9 04 3f
        E 62 89 29 40 -86
        E 170 b9 04 2e
        E 106 99 29 71 -110
        E 46 b9 04 20
        E 156 89 29 40 -110
        E 124 b9 04 18
        E 154 99 26 7f -112
        E 0 99 29 7f -88
        E 66 b9 04 0f
        E 135 89 26 40 -112
        E 0 89 29 40 -88
        E 39 99 29 7f 110
        E 34 b9 04 09
        E 166 89 29 40 110
        E 50 b9 04 12
        E 230 99 24 71 40
        E 0 99 29 7f 78
        E 200 89 24 40 40
        E 0 89 29 40 78
        E 280 99 24 3a -42
        E 0 99 24 1b 54
        E 0 99 29 7f 102
        E 94 89 24 40 -42
        E 105 89 29 40 102
        E 3 89 24 40 54
        E 278 99 26 7f 80
        E 0 99 29 7f 112
        E 158 b9 04 09
        E 42 89 26 40 80
        E 1 89 29 40 112
        E 135 b9 04 00
        E 144 99 29 7f 92
        E 200 89 29 40 92
        E 5 b9 04 09
        E 35 99 30 68 25
        E 199 89 30 40 25
        E 41 99 24 7f 28
        E 0 99 2d 7f 92
        E 200 89 2d 40 92
        E 2 89 24 40 28
        E 18 b9 04 18
        E 20 99 30 72 6
        E 200 89 30 40 6
        E 40 99 24 5a 20
        E 0 99 2d 7f 24
        E 201 89 24 40 20
        E 2 89 2d 40 24
        E 20 b9 04 0f
        E 231 b9 04 09
        E 26 99 26 6f 32
        E 0 99 29 7f 66
        E 186 b9 04 00
        E 14 89 29 40 66
        E 2 89 26 40 32
        E 278 99 29 7f 48
        E 200 89 29 40 48
        E 14 b9 04 0c
        E 266 99 24 7f 58
        E 0 99 29 7f 60
        E 200 89 24 40 58
        E 0 89 29 40 60
        E 280 99 24 47 48
        E 0 99 29 7f 70
        E 118 89 24 40 48
        E 84 89 29 40 70
        E 38 99 24 1e -72
        E 202 89 24 40 -72
        E 38 99 26 75 34
        E 0 99 29 7f 68
        E 200 89 26 40 34
        E 1 89 29 40 68
        E 25 b9 04 06
        E 174 b9 04 00
        E 80 99 29 7f 37
        E 202 89 29 40 37
        E 38 99 1a 7f 44
        E 42 b9 04 00
        E 154 b9 04 12
        E 4 89 1a 40 44
        E 4 b9 04 27
        E 8 b9 04 38
        E 28 99 2c 0e 18
        E 0 99 24 7f 54
        E 0 99 29 7f 86
        E 12 b9 04 49
        E 4 b9 04 4c
        E 102 b9 04 57
        E 52 b9 04 47
        E 29 89 29 40 86
        E 1 89 2c 40 18
        E 0 89 24 40 54
        E 14 b9 04 36
        E 56 b9 04 25
        E 104 b9 04 1a
        E 106 99 29 7f 82
        E 202 89 29 40 82
        E 278 99 26 7f 78
        E 0 99 29 7f 112
        E 77 b9 04 12
        E 123 89 26 40 78
        E 0 89 29 40 112
        E 238 b9 04 09
        E 42 99 29 7f 78
        E 200 89 29 40 78
        E 42 b9 04 12
        E 238 99 29 7f 66
        E 0 99 24 7f 76
        E 136 b9 04 0c
        E 66 89 29 40 66
        E 2 89 24 40 76
        E 276 99 24 49 68
        E 0 99 29 7f 78
        E 120 89 24 40 68
        E 80 89 29 40 78
        E 40 99 24 22 -50
        E 200 89 24 40 -50
        E 40 99 26 7f 40
        E 0 99 29 7f 84
        E 200 89 26 40 40
        E 0 89 29 40 84
        E 82 b9 04 03
        E 10 b9 04 00
        E 188 99 29 7f 60
        E 158 b9 04 0c
        E 44 89 29 40 60
        E 38 99 30 7f -20
        E 204 89 30 40 -20
        E 36 99 24 7f 9
        E 0 99 2d 7f 80
        E 201 89 24 40 9
        E 5 89 2d 40 80
        E 2 b9 04 18
        E 32 99 30 67 -28
        E 0 99 30 2b 44
        E 70 89 30 40 -28
        E 132 89 30 40 44
        E 38 99 24 5b 4
        E 0 99 2d 7f 32
        E 200 89 24 40 4
        E 2 89 2d 40 32
        E 46 b9 04 0f
        E 232 99 26 6d 20
        E 0 99 29 7f 58
        E 128 b9 04 06
        E 72 89 26 40 20
        E 2 89 29 40 58
        E 170 b9 04 00
        E 108 99 29 7f 62
        E 198 b9 04 0c
        E 2 89 29 40 62
        E 280 99 29 7f 88
        E 0 99 24 7f 100
        E 200 89 29 40 88
        E 0 89 24 40 100
        E 280 99 24 4a 72
        E 0 99 29 7f 78
        E 200 89 24 40 72
        E 0 89 29 40 78
        E 280 99 26 7f 20
        E 0 99 29 7f 82
        E 200 89 29 40 82
        E 2 89 26 40 20
        E 278 99 29 7f 90
        E 0 99 26 6c 106
        E 200 89 29 40 90
        E 0 89 26 40 106
        E 6 b9 04 00
        E 274 99 2e 7f 70
        E 68 b9 04 09
        E 4 b9 04 12
        E 10 b9 04 25
        E 8 b9 04 36
        E 66 b9 04 46
        E 18 b9 04 4c
        E 28 89 2e 40 70
        E 38 99 24 7a -94
        E 0 99 29 7f -86
        E 0 99 2c 08 -64
        E 66 b9 04 36
        E 120 b9 04 27
        E 14 89 29 40 -86
        E 2 89 24 40 -94
        E 0 89 2c 40 -64
        E 142 b9 04 1d
        E 136 99 29 7f -118
        E 200 89 29 40 -118
        E 40 99 26 7c 108
        E 164 b9 04 15
        E 36 89 26 40 108
        E 40 99 29 7f -112
        E 180 b9 04 0f
        E 22 89 29 40 -112
        E 38 99 29 7f 108
        E 82 b9 04 09
        E 118 89 29 40 108
        E 124 b9 04 0f
        E 396 99 29 7f -102
        E 0 99 24 7f -70
        E 200 89 29 40 -102
        E 2 89 24 40 -70
        E 38 99 24 44 90
        E 0 99 29 7f 96
        E 200 89 24 40 90
        E 4 89 29 40 96
        E 276 99 26 7f 84
        E 0 99 29 7f 112
        E 200 89 29 40 112
        E 2 89 26 40 84
        E 134 b9 04 03
        E 45 b9 04 00
        E 99 99 29 7f 82
        E 116 b9 04 0f
        E 83 89 29 40 82
        E 41 99 30 79 6
        E 200 89 30 40 6
        E 40 90 34 7f
        E 0 99 24 7e -4
        E 0 99 29 69
        E 120 b9 04 1d
        E 80 89 29 40
        E 2 89 24 40 -4
        E 38 80 34 00
        E 240 99 24 4f -36
        E 0 99 29 69 40
        E 200 89 29 40 40
        E 2 89 24 40 -36
        E 278 90 26 7f
        E 0 99 29 69 40
        E 44 b9 04 00
        E 12 b9 04 06
        E 144 89 29 40 40
        E 40 80 26 00
        E 0 99 26 57 -118
        E 108 89 26 40 -118
        E 132 99 29 69 68
        E 200 89 29 40 68
        E 94 b9 04 09
        E 186 99 29 69 66
        E 40 99 24 72
        E 160 89 29 40 66
        E 40 89 24 40
        E 240 99 24 4a 64
        E 0 99 29 69 70
        E 40 99 24 22
        E 62 89 24 40 64
        E 98 89 29 40 70
        E 40 89 24 40
        E 240 99 26 7f 20
        E 0 99 29 69 64
        E 200 89 26 40 20
        E 0 89 29 40 64
        E 238 b9 04 03
        E 6 b9 04 00
        E 36 99 29 69 44
        E 200 89 29 40 44
        E 40 99 2e 7f 22
        E 20 b9 04 00
        E 152 b9 04 12
        E 8 b9 04 22
        E 4 b9 04 34
        E 15 89 2e 40 22
        E 29 b9 04 44
        E 12 99 2c 0e 4
        E 0 99 29 69 56
        E 0 99 24 7f 58
        E 2 b9 04 4c
        E 28 b9 04 54
        E 170 89 2c 40 4
        E 1 89 29 40 56
        E 0 89 24 40 58
        E 5 b9 04 44
        E 76 b9 04 34
        E 156 b9 04 29
        E 42 99 29 69 28
        E 200 89 29 40 28
        E 34 b9 04 1d
        E 246 99 26 7f 40
        E 0 99 29 69 60
        E 199 89 26 40 40
        E 1 89 29 40 60
        E 14 b9 04 18
        E 190 b9 04 0f
        E 76 99 29 69 47
        E 203 89 29 40 47
        E 277 99 29 69 56
        E 0 99 24 7f 86
        E 200 89 24 40 86
        E 1 89 29 40 56
        E 279 99 24 4c
        E 0 99 29 69 31
        E 200 89 24 40
        E 1 89 29 40 31
        E 279 99 26 7f -16
        E 0 99 29 69 30
        E 202 89 26 40 -16
        E 0 89 29 40 30
        E 92 b9 04 03
        E 6 b9 04 00
        E 180 99 29 69 -12
        E 136 b9 04 0c
        E 65 89 29 40 -12
        E 39 99 30 69 -88
        E 202 89 30 40 -88
        E 38 99 24 7f -30
        E 0 99 2d 6d 1
        E 128 b9 04 1a
        E 74 89 24 40 -30
        E 1 89 2d 40 1
        E 37 99 30 61 -58
        E 0 99 30 2c 20
        E 50 b9 04 25
        E 26 89 30 40 -58
        E 124 89 30 40 20
        E 40 99 24 57 -68
        E 0 99 2d 6d -42
        E 16 b9 04 1a
        E 170 b9 04 12
        E 14 89 24 40 -68
        E 0 89 2d 40 -42
        E 280 99 26 7d -82
        E 0 99 29 69 -18
        E 70 b9 04 0c
        E 130 89 29 40 -18
        E 2 89 26 40 -82
        E 178 b9 04 03
        E 100 99 29 69 -28
        E 182 b9 04 0f
        E 18 89 29 40 -28
        E 280 99 29 69 -2
        E 0 99 24 7f 12
        E 200 89 29 40 -2
        E 0 89 24 40 12
        E 280 99 29 69 -24
        E 0 99 24 4e -19
        E 0 99 24 20 78
        E 95 89 24 40 -19
        E 105 89 29 40 -24
        E 0 89 24 40 78
        E 280 99 26 7f -38
        E 0 99 29 69 -6
        E 200 89 29 40 -6
        E 2 89 26 40 -38
        E 192 b9 04 03
        E 40 b9 04 00
        E 46 99 29 69 -11
        E 182 b9 04 00
        E 19 89 29 40 -11
        E 39 99 1a 7f -56
        E 164 b9 04 12
        E 10 b9 04 25
        E 26 89 1a 40 -56
        E 14 b9 04 36
        E 22 b9 04 46
        E 4 99 24 7f 3
        E 0 99 29 69 18
        E 0 99 2c 0a 24
        E 19 b9 04 4c
        E 159 b9 04 36
        E 22 89 29 40 18
        E 2 89 2c 40 24
        E 1 89 24 40 3
        E 73 b9 04 25
        E 130 b9 04 1d
        E 74 99 29 69 16
        E 112 b9 04 25
        E 87 89 29 40 16
        E 26 b9 04 1d
        E 255 99 26 7f 24
        E 0 99 29 69 32
        E 38 b9 04 18
        E 162 89 26 40 24
        E 0 89 29 40 32
        E 104 b9 04 0c
        E 166 b9 04 06
        E 10 99 29 69 12
        E 200 89 29 40 12
        E 70 b9 04 0c
        E 210 99 29 69 32
        E 0 99 24 7f 54
        E 200 89 29 40 32
        E 2 89 24 40 54
        E 56 b9 04 12
        E 222 99 24 4d 18
        E 0 99 29 69 34
        E 116 89 24 40 18
        E 84 89 29 40 34
        E 40 99 24 20 -102
        E 200 89 24 40 -102
        E 22 b9 04 06
        E 18 99 26 7f -16
        E 0 99 29 69 28
        E 94 b9 04 00
        E 105 89 29 40 28
        E 2 89 26 40 -16
        E 279 99 29 69 15
        E 94 b9 04 12
        E 107 89 29 40 15
        E 39 99 30 77 -50
        E 20 b9 04 1a
        E 162 b9 04 0f
        E 20 89 30 40 -50
        E 38 99 24 7f -28
        E 0 99 2d 6d 40
        E 144 b9 04 1d
        E 56 89 24 40 -28
        E 2 89 2d 40 40
        E 38 99 30 51 -16
        E 0 99 30 24 74
        E 8 b9 04 2e
        E 80 89 30 40 -16
        E 114 89 30 40 74
        E 38 99 24 5a -42
        E 0 99 2d 6d -12
        E 74 b9 04 25
        E 107 b9 04 1a
        E 19 89 24 40 -42
        E 0 89 2d 40 -12
        E 148 b9 04 12
        E 132 90 32 7f
        E 0 99 26 7f -42
        E 0 99 29 69 6
        E 88 b9 04 06
        E 112 89 29 40 6
        E 4 89 26 40 -42
        E 36 80 32 00
        E 32 b9 04 00
        E 208 99 29 69 10
        E 144 b9 04 0f
        E 56 89 29 40 10
        E 280 99 29 69 18
        E 0 99 24 7f 54
        E 42 b9 04 09
        E 160 89 29 40 18
        E 0 89 24 40 54
        E 20 b9 04 12
        E 258 99 29 69 24
        E 0 99 24 52 32
        E 102 89 24 40 32
        E 100 89 29 40 24
        E 38 99 24 21 -102
        E 182 b9 04 0c
        E 16 89 24 40 -102
        E 42 99 26 7f -16
        E 0 99 29 69 22
        E 200 89 29 40 22
        E 2 89 26 40 -16
        E 78 b9 04 06
        E 200 99 29 69 -4
        E 6 b9 04 00
        E 196 89 29 40 -4
        E 18 b9 04 00
        E 20 99 2e 7f -18
        E 116 b9 04 12
        E 8 b9 04 25
        E 6 b9 04 36
        E 44 b9 04 46
        E 20 b9 04 4c
        E 6 89 2e 40 -18
        E 40 99 2c 0c -44
        E 0 99 24 7f -2
        E 0 99 29 69 12
        E 44 b9 04 4d
        E 42 b9 04 3c
        E 38 b9 04 2c
        E 76 89 24 40 -2
        E 1 89 2c 40 -44
        E 1 89 29 40 12
        E 38 b9 04 1d
        E 238 b9 04 2e
        E 2 99 29 69 12
        E 200 89 29 40 12
        E 78 b9 04 27
        E 119 b9 04 1a
        E 83 99 26 7f 12
        E 0 99 29 69 26
        E 200 89 26 40 12
        E 2 89 29 40 26
        E 158 b9 04 0f
        E 120 99 29 69 44
        E 200 89 29 40 44
        E 28 b9 04 15
        E 252 99 29 69 46
        E 0 99 24 7f 72
        E 200 89 29 40 46
        E 0 89 24 40 72
        E 280 99 24 4f 26
        E 0 99 29 69 40
        E 200 89 24 40 26
        E 0 89 29 40 40
        E 254 b9 04 0f
        E 26 99 26 7b 2
        E 0 99 29 69 34
        E 200 89 26 40 2
        E 2 89 29 40 34
        E 8 b9 04 03
        E 36 b9 04 00
        E 234 99 29 69 16
        E 26 b9 04 12
        E 176 89 29 40 16
        E 4 b9 04 1a
        E 34 99 31 7f -82
        E 134 b9 04 09
        E 68 89 31 40 -82
        E 38 99 24 7f -14
        E 0 99 2d 6d 13
        E 0 99 29 57 16
        E 164 b9 04 15
        E 38 89 24 40 -14
        E 0 89 29 40 16
        E 1 89 2d 40 13
        E 277 99 24 4c -60
        E 0 99 2d 6d 5
        E 100 b9 04 0f
        E 100 89 24 40 -60
        E 3 89 2d 40 5
        E 277 90 30 6d
        E 0 99 26 7f -12
        E 0 99 29 69 -2
        E 0 99 26 36 80
        E 88 89 26 40 -12
        E 2 b9 04 06
        E 108 89 26 40 80
        E 2 89 29 40 -2
        E 40 80 30 00
        E 240 99 29 69 32
        E 128 b9 04 0f
        E 74 89 29 40 32
        E 200 b9 04 03
        E 16 b9 04 00
        E 62 99 24 7f -42
        E 0 99 29 69 2
        E 176 b9 04 0c
        E 23 89 29 40 2
        E 3 89 24 40 -42
        E 278 99 29 69 -31
        E 203 89 29 40 -31
        E 277 99 26 7f -42
        E 0 99 29 69 -4
        E 200 89 26 40 -42
        E 2 89 29 40 -4
        E 90 b9 04 03
        E 188 99 29 69 -24
        E 104 b9 04 0c
        E 96 89 29 40 -24
        E 40 99 26 3e -32
        E 186 b9 04 06
        E 14 89 26 40 -32
        E 40 99 24 7f -46
        E 0 99 29 69 -23
        E 128 b9 04 0f
        E 73 89 29 40 -23
        E 2 89 24 40 -46
        E 277 99 24 4b -76
        E 0 99 29 69 -38
        E 200 89 24 40 -76
        E 0 89 29 40 -38
        E 280 99 26 7f -38
        E 0 99 29 69 -20
        E 200 89 26 40 -38
        E 0 89 29 40 -20
        E 46 b9 04 06
        E 234 99 29 69 -14
        E 154 b9 04 0f
        E 48 89 29 40 -14
        E 278 99 29 69 -10
        E 0 99 24 7f -4
        E 50 b9 04 09
        E 150 89 29 40 -10
        E 4 89 24 40 -4
        E 276 99 29 69 -24
        E 200 89 29 40 -24
        E 280 99 26 7e -22
        E 0 99 29 69 8
        E 200 89 29 40 8
        E 2 89 26 40 -22
        E 98 b9 04 00
        E 180 99 29 69 -12
        E 106 b9 04 0c
        E 98 89 29 40 -12
        E 36 99 30 77 -71
        E 201 89 30 40 -71
        E 39 99 24 7f -49
        E 0 99 2d 6d 26
        E 160 b9 04 18
        E 41 89 24 40 -49
        E 1 89 2d 40 26
        E 38 99 30 60 -79
        E 0 99 30 11 28
        E 105 89 30 40 -79
        E 95 89 30 40 28
        E 40 99 24 5b -76
        E 0 99 2d 6d -32
        E 191 b9 04 0c
        E 9 89 24 40 -76
        E 0 89 2d 40 -32
        E 280 90 34 7f
        E 0 99 26 7f -58
        E 0 99 29 69 -17
        E 74 b9 04 03
        E 44 b9 04 00
        E 82 89 26 40 -58
        E 3 89 29 40 -17
        E 37 80 34 00
        E 240 99 29 69 -24
        E 114 b9 04 0c
        E 88 89 29 40 -24
        E 79 b9 04 12
        E 199 99 29 69 -14
        E 0 99 24 7f 18
        E 47 b9 04 09
        E 152 89 29 40 -14
        E 1 89 24 40 18
        E 280 99 24 4f -39
        E 0 99 29 69 -22
        E 200 89 24 40 -39
        E 0 89 29 40 -22
        E 280 99 26 7f -8
        E 0 99 29 69 20
        E 136 b9 04 0f
        E 63 89 26 40 -8
        E 1 89 29 40 20
        E 162 b9 04 00
        E 118 99 29 69 -18
        E 0 99 29 16 88
        E 103 89 29 40 -18
        E 91 b9 04 00
        E 6 89 29 40 88
        E 40 99 2e 7f -44
        E 202 89 2e 40 -44
        E 38 99 2c 4a
        E 0 99 24 7f -22
        E 0 99 29 69 12
        E 46 b9 04 5a
        E 32 b9 04 12
        E 6 b9 04 27
        E 2 b9 04 38
        E 4 b9 04 4a
        E 2 b9 04 4f
        E 4 b9 04 5a
        E 14 b9 04 4a
        E 19 b9 04 5a
        E 1 b9 04 3a
        E 46 b9 04 6a
        E 24 89 29 40 12
        E 2 89 2c 40
        E 0 89 24 40 -22
        E 132 b9 04 29
        E 122 b9 04 1d
        E 24 99 24 0a -68
        E 0 99 29 69 28
        E 199 89 24 40 -68
        E 3 89 29 40 28
        E 278 99 26 7f 3
        E 0 99 29 69 18
        E 200 89 26 40 3
        E 0 89 29 40 18
        E 71 b9 04 12
        E 209 99 29 69 9
        E 201 89 29 40 9
        E 43 b9 04 1a
        E 236 99 29 69 25
        E 0 99 24 7f 37
        E 41 b9 04 12
        E 159 89 29 40 25
        E 3 89 24 40 37
        E 277 99 24 50 -24
        E 0 99 29 69 6
        E 202 89 29 40 6
        E 2 89 24 40 -24
        E 276 99 26 7f -32
        E 0 99 29 69 21
        E 153 b9 04 00
        E 47 89 29 40 21
        E 2 89 26 40 -32
        E 278 99 29 69 -28
        E 98 b9 04 12
        E 104 89 29 40 -28
        E 38 99 26 59 -54
        E 46 b9 04 1d
        E 154 89 26 40 -54
        E 40 99 24 7f -4
        E 0 99 31 7f -2
        E 50 b9 04 25
        E 134 b9 04 36
        E 18 89 24 40 -4
        E 0 89 31 40 -2
        E 278 99 24 4b -51
        E 0 99 29 69
        E 4 b9 04 27
        E 114 b9 04 1a
        E 82 89 29 40
        E 3 89 24 40 -51
        E 72 b9 04 12
        E 169 b9 04 09
        E 36 99 26 7f -14
        E 0 99 29 69 16
        E 199 89 26 40 -14
        E 1 89 29 40 16
        E 280 99 29 69 -21
        E 201 89 29 40 -21
        E 254 b9 04 00
        E 25 99 29 69 -12
        E 0 99 24 6e 32
        E 202 89 29 40 -12
        E 0 89 24 40 32
        E 20 b9 04 09
        E 258 99 24 43 -12
        E 0 99 29 69 -4
        E 0 99 24 1f 79
        E 89 89 24 40 -12
        E 111 89 29 40 -4
        E 1 89 24 40 79
        E 279 99 26 7f -2
        E 0 99 29 69 24
        E 150 b9 04 00
        E 50 89 26 40 -2
        E 2 89 29 40 24
        E 278 99 29 69 -31
        E 16 b9 04 0f
        E 166 b9 04 15
        E 21 89 29 40 -31
        E 37 99 30 77 -70
        E 159 b9 04 0f
        E 42 89 30 40 -70
        E 39 99 24 7f -104
        E 0 99 2d 6d -15
        E 44 b9 04 20
        E 149 b9 04 29
        E 7 89 2d 40 -15
        E 2 89 24 40 -104
        E 38 99 30 61 -86
        E 0 99 30 1e 9
        E 91 89 30 40 -86
        E 92 b9 04 18
        E 17 89 30 40 9
        E 40 99 24 60 -114
        E 0 99 2d 6d -50
        E 178 b9 04 0f
        E 22 89 24 40 -114
        E 0 89 2d 40 -50
        E 198 b9 04 09
        E 82 90 38 7f
        E 0 99 26 7f -70
        E 0 99 29 69 -27
        E 157 b9 04 03
        E 45 89 26 40 -70
        E 0 89 29 40 -27
        E 30 b9 04 00
        E 8 80 38 00
        E 240 99 29 5b -26
        E 124 b9 04 09
        E 76 89 29 40 -26
        E 280 99 29 69 -18
        E 0 99 24 7f -15
        E 200 89 29 40 -18
        E 1 89 24 40 -15
        E 48 b9 04 0f
        E 231 99 24 4c -25
        E 0 99 29 69 -8
        E 0 99 24 1e 81
        E 104 89 24 40 -25
        E 96 89 29 40 -8
        E 0 89 24 40 81
        E 80 b9 04 09
        E 200 99 26 7f -64
        E 0 99 29 69 -4
        E 106 b9 04 03
        E 94 89 26 40 -64
        E 2 89 29 40 -4
        E 10 b9 04 00
        E 268 99 29 69 -28
        E 97 b9 04 0f
        E 103 89 29 40 -28
        E 40 99 30 60 -64
        E 200 89 30 40 -64
        E 40 99 24 7f -36
        E 0 99 2d 6d -12
        E 115 b9 04 1d
        E 85 89 2d 40 -12
        E 2 89 24 40 -36
        E 38 99 30 42 -86
        E 201 89 30 40 -86
        E 39 99 24 69 -60
        E 0 99 2d 6d -58
        E 101 b9 04 12
        E 101 89 24 40 -60
        E 0 89 2d 40 -58
        E 230 b9 04 0c
        E 48 90 37 7f
        E 0 99 26 7f -92
        E 0 99 29 69 -24
        E 116 b9 04 03
        E 9 b9 04 00
        E 75 89 26 40 -92
        E 2 89 29 40 -24
        E 38 80 37 00
        E 240 99 29 69 -44
        E 120 b9 04 09
        E 80 89 29 40 -44
        E 280 99 29 69 -41
        E 0 99 24 7c -4
        E 200 89 29 40 -41
        E 2 89 24 40 -4
        E 278 99 29 69 -46
        E 0 99 24 47 -34
        E 0 99 24 1d 56
        E 88 89 24 40 -34
        E 112 89 29 40 -46
        E 0 89 24 40 56
        E 280 99 26 7f -21
        E 0 99 29 69 3
        E 36 b9 04 00
        E 165 89 26 40 -21
        E 0 89 29 40 3
        E 279 99 29 69 -36
        E 0 99 29 18 59
        E 63 b9 04 0f
        E 31 89 29 40 -36
        E 105 89 29 40 59
        E 41 99 30 6f -55
        E 201 89 30 40 -55
        E 39 99 24 7f -66
        E 0 99 2d 6d -7
        E 191 b9 04 1d
        E 11 89 24 40 -66
        E 1 89 2d 40 -7
        E 37 99 30 66 -35
        E 0 99 30 29 44
        E 76 89 30 40 -35
        E 35 b9 04 22
        E 91 89 30 40 44
        E 38 99 24 66 -56
        E 0 99 2d 6d -50
        E 56 b9 04 18
        E 142 b9 04 0f
        E 1 89 2d 40 -50
        E 2 89 24 40 -56
        E 160 b9 04 09
        E 119 99 26 7f -56
        E 0 99 29 69 -2
        E 200 89 29 40 -2
        E 1 89 26 40 -56
        E 89 b9 04 00
        E 190 99 29 65 -29
        E 177 b9 04 06
        E 25 89 29 40 -29
        E 278 99 29 69 -13
        E 0 99 24 7f 29
        E 201 89 29 40 -13
        E 0 89 24 40 29
        E 279 99 29 69 -14
        E 0 99 24 4d 6
        E 0 99 24 1e 94
        E 86 89 24 40 6
        E 113 89 24 40 94
        E 3 89 29 40 -14
        E 278 99 26 7f -4
        E 0 99 29 69 17
        E 133 b9 04 00
        E 70 89 29 40 17
        E 1 89 26 40 -4
        E 276 99 29 69 -6
        E 96 b9 04 0c
        E 104 89 29 40 -6
        E 40 99 30 77 -45
        E 28 b9 04 12
        E 175 89 30 40 -45
        E 13 b9 04 09
        E 24 99 24 7f -50
        E 0 99 2d 6d 34
        E 178 b9 04 12
        E 22 89 2d 40 34
        E 2 89 24 40 -50
        E 38 99 30 5a
        E 104 b9 04 18
        E 98 89 30 40
        E 38 99 24 6a -47
        E 0 99 2d 6d -24
        E 158 b9 04 0f
        E 42 89 2d 40 -24
        E 3 89 24 40 -47
        E 219 b9 04 06
        E 58 99 26 78 -29
        E 0 99 29 69 8
        E 0 99 2e 7f
        E 81 b9 04 00
        E 35 b9 04 12
        E 8 b9 04 25
        E 6 b9 04 36
        E 44 b9 04 46
        E 20 b9 04 4c
        E 6 89 2e 40
        E 2 89 29 40 8
        E 1 89 26 40 -29
        E 277 99 2c 0c
        E 0 99 29 69 -2
        E 44 b9 04 4d
        E 42 b9 04 3c
        E 38 b9 04 2c
        E 18 b9 04 0c
        E 59 89 2c 40
        E 0 89 29 40 -2
        E 279 99 29 69 9
        E 0 99 24 7f 38
        E 44 b9 04 06
        E 157 89 29 40 9
        E 0 89 24 40 38
        E 279 99 24 47 -14
        E 0 99 29 69 18
        E 199 89 24 40 -14
        E 1 89 29 40 18
        E 280 99 26 7f -6
        E 0 99 29 69 35
        E 126 b9 04 00
        E 73 89 26 40 -6
        E 2 89 29 40 35
        E 279 99 29 69 -24
        E 94 b9 04 09
        E 105 89 29 40 -24
        E 41 99 30 6b -35
        E 203 89 30 40 -35
        E 37 99 24 7f -90
        E 0 99 2d 6d 6
        E 147 b9 04 15
        E 52 89 2d 40 6
        E 5 89 24 40 -90
        E 36 99 30 61 -12
        E 66 b9 04 1a
        E 136 89 30 40 -12
        E 38 99 24 66 -85
        E 0 99 2d 6d -31
        E 110 b9 04 12
        E 91 89 2d 40 -31
        E 1 89 24 40 -85
        E 177 b9 04 0c
        E 101 90 3a 7f
        E 0 99 26 7f -24
        E 0 99 29 69 3
        E 156 b9 04 03
        E 45 89 26 40 -24
        E 0 89 29 40 3
        E 39 80 3a 00
        E 8 b9 04 00
        E 232 99 29 69 -1
        E 176 b9 04 09
        E 26 89 29 40 -1
        E 278 99 29 69 -1
        E 0 99 24 7f 29
        E 202 89 29 40 -1
        E 1 89 24 40 29
        E 277 99 24 49 -16
        E 0 99 29 69 -4
        E 199 89 24 40 -16
        E 2 89 29 40 -4
        E 279 99 26 7f -24
        E 0 99 29 69 10
        E 199 89 29 40 10
        E 3 89 26 40 -24
        E 18 b9 04 00
        E 260 99 29 69 -18
        E 48 b9 04 0c
        E 151 89 29 40 -18
        E 13 b9 04 12
        E 28 99 30 77 -53
        E 197 b9 04 09
        E 3 89 30 40 -53
        E 40 99 24 7f -51
        E 0 99 2d 7f
        E 146 b9 04 15
        E 54 89 2d 40
        E 3 89 24 40 -51
        E 37 99 30 6c -11
        E 0 99 30 3b 46
        E 53 89 30 40 -11
        E 11 b9 04 1d
        E 133 89 30 40 46
        E 43 99 24 5e -56
        E 0 99 2d 7f -38
        E 143 b9 04 15
        E 56 89 2d 40 -38
        E 3 89 24 40 -56
        E 175 b9 04 09
        E 103 99 26 78 -64
        E 0 99 29 7f -16
        E 200 89 26 40 -64
        E 0 89 29 40 -16
        E 4 b9 04 00
        E 276 99 29 7f -19
        E 196 b9 04 06
        E 7 89 29 40 -19
        E 277 99 29 7f -4
        E 0 99 24 7f 41
        E 199 89 29 40 -4
        E 1 89 24 40 41
        E 280 99 24 43 -32
        E 0 99 29 7f -5
        E 200 89 24 40 -32
        E 0 89 29 40 -5
        E 280 99 26 7f -49
        E 0 99 29 7f
        E 112 b9 04 00
        E 88 89 29 40
        E 2 89 26 40 -49
        E 278 99 29 7f
        E 109 b9 04 0c
        E 91 89 29 40
        E 40 99 30 71 -81
        E 0 99 30 21 41
        E 121 89 30 40 -81
        E 79 89 30 40 41
        E 35 b9 04 03
        E 5 99 24 7f -42
        E 0 99 2d 7f 12
        E 171 b9 04 0f
        E 28 89 24 40 -42
        E 0 89 2d 40 12
        E 41 99 30 4f -47
        E 0 99 30 30 29
        E 72 89 30 40 -47
        E 127 89 30 40 29
        E 41 99 24 4e -76
        E 0 99 2d 7f -24
        E 202 89 2d 40 -24
        E 1 89 24 40 -76
        E 37 99 30 5c -16
        E 202 89 30 40 -16
        E 38 99 29 2f -39
        E 0 99 2d 7f -31
        E 200 89 2d 40 -31
        E 2 89 29 40 -39
        E 28 b9 04 03
        E 31 b9 04 00
        E 219 99 29 7f -23
        E 154 b9 04 06
        E 47 89 29 40 -23
        E 39 99 26 6b -34
        E 80 b9 04 00
        E 119 89 26 40 -34
        E 41 99 29 7f 11
        E 0 99 24 5a 43
        E 0 99 29 4e 86
        E 71 89 29 40 11
        E 126 89 29 40 86
        E 3 89 24 40 43
        E 40 99 26 5f -18
        E 0 99 26 25 74
        E 41 b9 04 0c
        E 49 89 26 40 -18
        E 112 89 26 40 74
        E 38 99 24 4b -24
        E 0 99 29 1d 13
        E 0 99 2d 7f 19
        E 197 b9 04 18
        E 2 89 24 40 -24
        E 4 89 29 40 13
        E 2 89 2d 40 19
        E 35 99 30 59 -18
        E 0 99 30 37 47
        E 63 89 30 40 -18
        E 137 89 30 40 47
        E 40 99 33 77 -53
        E 0 99 33 2b 104
        E 155 89 33 40 -53
        E 44 89 33 40 104
        E 41 99 26 53 -81
        E 128 b9 04 0f
        E 74 89 26 40 -81
        E 38 99 26 7f -40
        E 200 89 26 40 -40
        E 40 99 26 4f -69
        E 200 89 26 40 -69
        E 40 99 26 7f -37
        E 205 89 26 40 -37
        E 35 99 26 44 -29
        E 202 89 26 40 -29
        E 38 99 26 7f -36
        E 204 89 26 40 -36
        E 36 99 26 53 -21
        E 201 89 26 40 -21
        E 39 99 26 7f -15
        E 201 89 26 40 -15
        E 39 99 26 48 -40
        E 199 89 26 40 -40
        E 41 99 26 76 -19
        E 190 89 26 40 -19
        E 50 99 26 4a -67
        E 200 89 26 40 -67
        E 40 99 26 7f -17
        E 169 b9 04 15
        E 32 89 26 40 -17
        E 39 99 26 72 -35
        E 203 89 26 40 -35
        E 37 99 26 65 41
        E 203 89 26 40 41
        E 37 99 24 41 -120
        E 0 99 24 22 -27
        E 0 99 26 3f 88
        E 91 89 24 40 -120
        E 24 b9 04 1d
        E 37 89 26 40 88
        E 49 89 24 40 -27
        E 39 99 26 5d 1
        E 201 89 26 40 1
        E 39 99 26 47 -31
        E 8 b9 04 27
        E 195 89 26 40 -31
        E 37 99 26 7f 27
        E 151 b9 04 1a
        E 50 89 26 40 27
        E 39 99 24 67 -62
        E 0 99 26 46 24
        E 0 99 24 28 37
        E 97 89 24 40 -62
        E 103 89 26 40 24
        E 0 89 24 40 37
        E 40 99 26 7f 47
        E 110 89 26 40 47
        E 130 99 26 2a -81
        E 0 99 26 54 65
        E 144 89 26 40 -81
        E 56 89 26 40 65
        E 6 b9 04 20
        E 34 99 26 7a 79
        E 0 99 24 4f 97
        E 146 89 24 40 97
        E 46 89 26 40 79
        E 27 b9 04 1a
        E 21 99 24 20 5
        E 0 99 26 56 33
        E 201 89 24 40 5
        E 0 89 26 40 33
        E 39 99 26 6d 80
        E 179 89 26 40 80
        E 61 99 26 39 21
        E 0 99 26 21 91
        E 68 89 26 40 21
        E 132 89 26 40 91
        E 40 99 26 72 55
        E 0 99 24 3f 109
        E 174 89 26 40 55
        E 27 89 24 40 109
        E 39 99 26 3a -9
        E 0 99 26 20 72
        E 0 99 24 14 111
        E 81 89 26 40 -9
        E 118 89 26 40 72
        E 3 89 24 40 111
        E 35 b9 04 25
        E 3 99 26 6c 40
        E 159 b9 04 30
        E 18 89 26 40 40
        E 63 99 26 3e -21
        E 0 99 26 26 47
        E 0 99 2c 04 117
        E 44 b9 04 41
        E 22 89 26 40 -21
        E 49 b9 04 4c
        E 32 b9 04 51
        E 53 89 26 40 47
        E 0 89 2c 40 117
        E 40 99 24 7f 9
        E 0 99 31 7f 81
        E 27 b9 04 5d
        E 175 89 31 40 81
        E 1 89 24 40 9
        E 166 b9 04 64
        E 122 b9 04 54
        E 24 b9 04 44
        E 22 b9 04 34
        E 18 b9 04 22
        E 24 b9 04 12
        E 28 b9 04 00
        E 8428 b0 7b 00
        GUID {B47AA600-2DBD-4449-89A2-01832EFAA2CC}
        IGNTEMPO 0 120 4 4
        SRCCOLOR 151
        VELLANE -1 100 0
        CFGEDITVIEW 329854.512472 0.074447 59 12 0 -1 0 0 0 0.5
        KEYSNAP 0
        TRACKSEL -252
        EVTFILTER 0 -1 -1 -1 -1 0 0 0 0 -1 -1 -1 -1 0 -1 0 -1 -1
        CFGEDIT 1 1 0 1 0 0 1 1 1 1 1 0.25 320 95 2496 860 0 0 0 0 0 0 0 0 0 0.5 0 0 1 64
      >
    >
    <ITEM
      POSITION 161.28000000004661
      SNAPOFFS 0
      LENGTH 30.72
      LOOP 1
      ALLTAKES 0
      FADEIN 1 0 0 1 0 0
      FADEOUT 1 0 0 1 0 0
      MUTE 0
      SEL 0
      IGUID {FFED5829-E820-4786-B9CD-0BCAE9E4DCA1}
      IID 5
      NAME "02-EZdrummer-Recorded MIDI"
      VOLPAN 1 0 1 -1
      SOFFS 133.92 279
      PLAYRATE 1 1 0 -1 0 0.0025
      CHANMODE 0
      GUID {3A875706-05AA-46C7-93E8-8A061629F23C}
      RECPASS 2
      <SOURCE MIDI
        HASDATA 1 960 QN
        POOLEDEVTS {FF643B25-A90C-44C2-88D9-31D2804CCD41}
        E 15360 99 24 4a 32
        E 0 99 29 5a 50
        E 90 89 24 40 32
        E 112 89 29 40 50
        E 38 99 24 21 -116
        E 200 89 24 40 -116
        E 40 99 29 51 16
        E 200 89 29 40 16
        E 280 99 26 7f 24
        E 0 99 29 7f 46
        E 200 89 26 40 24
        E 0 89 29 40 46
        E 280 99 29 57 -4
        E 200 89 29 40 -4
        E 280 99 29 66 19
        E 0 99 24 51 38
        E 200 89 24 40 38
        E 1 89 29 40 19
        E 279 99 29 5a 2
        E 0 99 24 3b 34
        E 198 89 24 40 34
        E 4 89 29 40 2
        E 38 99 24 1a -6
        E 198 89 24 40 -6
        E 42 99 29 6b 59
        E 0 99 26 6c 60
        E 199 89 29 40 59
        E 1 89 26 40 60
        E 280 99 29 6a 36
        E 200 89 29 40 36
        E 280 99 29 78 74
        E 0 99 24 49 88
        E 146 89 24 40 88
        E 54 89 29 40 74
        E 40 99 24 20 -5
        E 201 89 24 40 -5
        E 39 99 29 4f 40
        E 202 89 29 40 40
        E 278 99 26 7e 32
        E 0 99 29 7e 50
        E 199 89 26 40 32
        E 1 89 29 40 50
        E 280 99 29 4d 20
        E 200 89 29 40 20
        E 280 99 29 7b 14
        E 0 99 24 53 18
        E 200 89 29 40 14
        E 2 89 24 40 18
        E 278 99 24 40 -10
        E 0 99 29 72 8
        E 182 89 24 40 -10
        E 18 89 29 40 8
        E 40 99 24 20 -66
        E 200 89 24 40 -66
        E 40 99 26 7d 26
        E 0 99 29 7b 38
        E 200 89 26 40 26
        E 0 89 29 40 38
        E 280 99 29 69 11
        E 201 89 29 40 11
        E 279 99 24 51 36
        E 0 99 29 77 44
        E 200 89 24 40 36
        E 0 89 29 40 44
        E 280 99 24 35 -116
        E 0 99 24 14 8
        E 0 99 29 68 14
        E 122 89 24 40 -116
        E 76 89 24 40 8
        E 2 89 29 40 14
        E 280 99 26 78 20
        E 0 99 29 7c 38
        E 202 89 26 40 20
        E 2 89 29 40 38
        E 276 99 29 5d 49
        E 203 89 29 40 49
        E 277 99 24 4a 60
        E 0 99 29 7f 76
        E 168 89 24 40 60
        E 32 89 29 40 76
        E 40 99 24 21 -10
        E 198 89 24 40 -10
        E 42 99 29 63 26
        E 202 89 29 40 26
        E 278 99 26 7f 68
        E 0 99 29 7f 76
        E 200 89 26 40 68
        E 0 89 29 40 76
        E 280 99 29 5b 56
        E 198 89 29 40 56
        E 282 99 29 67 56
        E 0 99 24 4f 58
        E 200 89 29 40 56
        E 0 89 24 40 58
        E 280 99 24 3b -44
        E 0 99 29 62 28
        E 0 99 24 1a 75
        E 118 89 24 40 -44
        E 82 89 29 40 28
        E 3 89 24 40 75
        E 277 99 26 7f 40
        E 0 99 29 7f 58
        E 202 89 26 40 40
        E 2 89 29 40 58
        E 276 99 29 5c 50
        E 200 89 29 40 50
        E 280 99 24 4b 54
        E 0 99 29 73 60
        E 156 89 24 40 54
        E 44 89 29 40 60
        E 40 99 24 1b -30
        E 200 89 24 40 -30
        E 40 99 29 66 28
        E 202 89 29 40 28
        E 278 99 26 76 30
        E 0 99 29 7f 68
        E 200 89 26 40 30
        E 2 89 29 40 68
        E 278 99 29 75 43
        E 201 89 29 40 43
        E 279 99 24 51 70
        E 0 99 29 7f 74
        E 200 89 24 40 70
        E 0 89 29 40 74
        E 280 99 24 44 40
        E 0 99 29 6e 50
        E 184 89 24 40 40
        E 16 89 29 40 50
        E 40 99 24 1d -14
        E 200 89 24 40 -14
        E 40 99 26 76 62
        E 0 99 29 7f 84
        E 200 89 26 40 62
        E 2 89 29 40 84
        E 278 99 29 7f 74
        E 200 89 29 40 74
        E 280 99 24 4b 98
        E 0 99 29 7f 104
        E 200 89 24 40 98
        E 0 89 29 40 104
        E 280 99 24 3d 62
        E 0 99 29 6e 100
        E 184 89 24 40 62
        E 16 89 29 40 100
        E 40 99 24 24 8
        E 200 89 24 40 8
        E 40 99 29 7c 108
        E 0 99 26 5f 116
        E 200 89 29 40 108
        E 0 89 26 40 116
        E 280 99 29 74 118
        E 200 89 29 40 118
        E 520 99 29 7f -106
        E 0 99 24 4c -86
        E 0 99 24 1c 66
        E 150 89 24 40 -86
        E 47 89 24 40 66
        E 5 89 29 40 -106
        E 38 99 29 66 80
        E 200 89 29 40 80
        E 280 99 29 7f 94
        E 0 99 26 7c 99
        E 200 89 29 40 94
        E 1 89 26 40 99
        E 279 99 29 67 62
        E 200 89 29 40 62
        E 280 99 29 7f 36
        E 0 99 24 4c 86
        E 200 89 29 40 36
        E 0 89 24 40 86
        E 280 99 29 7a 56
        E 0 99 24 3d 60
        E 176 89 24 40 60
        E 26 89 29 40 56
        E 38 99 24 1e -2
        E 200 89 24 40 -2
        E 40 99 26 7b 92
        E 0 99 29 7f 96
        E 200 89 29 40 96
        E 2 89 26 40 92
        E 278 99 29 65 102
        E 198 89 29 40 102
        E 282 99 24 49 94
        E 0 99 29 77 104
        E 200 89 24 40 94
        E 0 89 29 40 104
        E 280 99 24 3b 62
        E 0 99 29 6d 110
        E 200 89 24 40 62
        E 2 89 29 40 110
        E 278 99 24 0d -80
        E 0 99 26 69 106
        E 200 89 24 40 -80
        E 0 89 26 40 106
        E 40 99 29 7f -112
        E 200 89 29 40 -112
        E 40 99 29 7f 98
        E 200 89 29 40 98
        E 280 99 24 48 102
        E 0 99 29 7b 108
        E 200 89 24 40 102
        E 0 89 29 40 108
        E 280 99 24 39 36
        E 0 99 29 74 102
        E 156 89 24 40 36
        E 44 89 29 40 102
        E 40 99 24 18 -48
        E 202 89 24 40 -48
        E 38 99 26 7d 100
        E 200 89 26 40 100
        E 40 99 29 7f -114
        E 201 89 29 40 -114
        E 39 99 29 70 88
        E 200 89 29 40 88
        E 40 99 26 36 -46
        E 200 89 26 40 -46
        E 40 99 24 51 20
        E 0 99 29 71 44
        E 141 89 24 40 20
        E 59 89 29 40 44
        E 40 99 24 1d -76
        E 198 89 24 40 -76
        E 42 99 29 78 60
        E 200 89 29 40 60
        E 280 99 26 7f 79
        E 0 99 29 7f 102
        E 201 89 26 40 79
        E 0 89 29 40 102
        E 279 99 29 53 84
        E 200 89 29 40 84
        E 280 99 24 4d 52
        E 0 99 29 7f 60
        E 166 89 24 40 52
        E 38 89 29 40 60
        E 36 99 24 18 -20
        E 200 89 24 40 -20
        E 40 99 24 1c -8
        E 0 99 29 71 66
        E 199 89 24 40 -8
        E 1 89 29 40 66
        E 280 99 26 7f 38
        E 0 99 29 7f 74
        E 200 89 26 40 38
        E 0 89 29 40 74
        E 280 99 29 7f 58
        E 202 89 29 40 58
        E 38 99 30 7f 18
        E 112 89 30 40 18
        E 128 99 30 1f -108
        E 0 99 2d 7f 20
        E 0 99 24 53 22
        E 200 89 2d 40 20
        E 2 89 30 40 -108
        E 0 89 24 40 22
        E 278 99 29 7f 14
        E 200 89 29 40 14
        E 280 99 26 7f -29
        E 0 99 29 7f 12
        E 201 89 26 40 -29
        E 0 89 29 40 12
        E 279 99 29 59 22
        E 202 89 29 40 22
        E 278 99 24 4d
        E 0 99 29 7f 6
        E 200 89 24 40
        E 0 89 29 40 6
        E 280 99 24 3a
        E 0 99 29 7f 12
        E 154 89 24 40
        E 46 89 29 40 12
        E 40 99 24 13 -84
        E 200 89 24 40 -84
        E 40 99 26 7f 21
        E 0 99 29 7f 29
        E 201 89 26 40 21
        E 0 89 29 40 29
        E 279 99 29 78 24
        E 202 89 29 40 24
        E 278 99 24 4d 28
        E 0 99 29 7f 36
        E 199 89 29 40 36
        E 1 89 24 40 28
        E 280 99 24 3b -4
        E 0 99 29 7f 40
        E 199 89 29 40 40
        E 3 89 24 40 -4
        E 38 99 24 1e -26
        E 200 89 24 40 -26
        E 40 99 26 7f 49
        E 0 99 29 7f 66
        E 201 89 26 40 49
        E 1 89 29 40 66
        E 278 99 29 70 64
        E 200 89 29 40 64
        E 280 99 24 47 32
        E 0 99 29 7f 35
        E 199 89 24 40 32
        E 6 89 29 40 35
        E 275 99 24 3b -32
        E 0 99 29 6a 68
        E 199 89 24 40 -32
        E 1 89 29 40 68
        E 40 99 24 17 -59
        E 201 89 24 40 -59
        E 39 99 26 7f 60
        E 0 99 29 7f 68
        E 200 89 26 40 60
        E 0 89 29 40 68
        E 280 99 29 7f 19
        E 201 89 29 40 19
        E 39 99 30 7f 16
        E 0 99 24 4e 108
        E 90 89 24 40 108
        E 110 89 30 40 16
        E 40 99 24 27 -40
        E 0 99 2d 7f
        E 198 89 24 40 -40
        E 2 89 2d 40
        E 280 99 29 7f 5
        E 201 89 29 40 5
        E 279 99 26 7f 10
        E 0 99 29 7f 32
        E 199 89 26 40 10
        E 0 89 29 40 32
        E 281 99 29 7f 16
        E 200 89 29 40 16
        E 280 99 29 7f 41
        E 0 99 24 4e 52
        E 201 89 29 40 41
        E 1 89 24 40 52
        E 278 99 24 3d 14
        E 0 99 29 7f 30
        E 180 89 24 40 14
        E 20 89 29 40 30
        E 40 99 24 19 -45
        E 203 89 24 40 -45
        E 37 99 26 7f 4
        E 0 99 29 7f 22
        E 202 89 26 40 4
        E 0 89 29 40 22
        E 278 99 29 7f 26
        E 202 89 29 40 26
        E 278 99 29 7f 45
        E 0 99 24 50 53
        E 200 89 24 40 53
        E 1 89 29 40 45
        E 279 99 24 33 -29
        E 0 99 29 7f 49
        E 201 89 24 40 -29
        E 0 89 29 40 49
        E 279 99 29 7f 69
        E 0 99 26 7f 73
        E 201 89 26 40 73
        E 1 89 29 40 69
        E 278 99 29 78 68
        E 202 89 29 40 68
        E 278 99 29 7f 68
        E 0 99 24 50 72
        E 200 89 29 40 68
        E 0 89 24 40 72
        E 280 99 24 3d 58
        E 0 99 29 7f 63
        E 144 89 24 40 58
        E 57 89 29 40 63
        E 39 99 24 1a -36
        E 200 89 24 40 -36
        E 40 99 26 7f 74
        E 0 99 29 7f 82
        E 199 89 26 40 74
        E 3 89 29 40 82
        E 278 99 29 7f 39
        E 201 89 29 40 39
        E 39 99 30 7f 16
        E 200 89 30 40 16
        E 40 99 24 53 -66
        E 0 99 24 26 13
        E 0 99 2d 7f 25
        E 77 89 24 40 -66
        E 121 89 24 40 13
        E 3 89 2d 40 25
        E 279 99 2d 5a -86
        E 199 89 2d 40 -86
        E 281 99 29 7f -6
        E 0 99 26 7f -4
        E 200 89 29 40 -6
        E 0 89 26 40 -4
        E 280 99 29 7d -8
        E 199 89 29 40 -8
        E 281 99 24 53 11
        E 0 99 29 7f 28
        E 0 99 24 24 112
        E 99 89 24 40 11
        E 100 89 24 40 112
        E 1 89 29 40 28
        E 280 99 29 7f 23
        E 0 99 24 47 54
        E 134 89 24 40 54
        E 66 89 29 40 23
        E 40 99 24 1e -50
        E 200 89 24 40 -50
        E 40 99 26 7f 38
        E 0 99 29 7f 62
        E 200 89 29 40 62
        E 1 89 26 40 38
        E 279 99 29 7f 47
        E 201 89 29 40 47
        E 279 99 29 7f 66
        E 0 99 24 4b 76
        E 199 89 24 40 76
        E 1 89 29 40 66
        E 280 99 29 7f 52
        E 0 99 24 3a 70
        E 139 89 24 40 70
        E 61 89 29 40 52
        E 40 99 24 1b -28
        E 198 89 24 40 -28
        E 42 99 26 7b 68
        E 0 99 29 7f 84
        E 199 89 26 40 68
        E 1 89 29 40 84
        E 280 99 29 7f 90
        E 202 89 29 40 90
        E 278 99 24 50 42
        E 0 99 29 7f 62
        E 199 89 29 40 62
        E 1 89 24 40 42
        E 280 99 24 39 19
        E 0 99 29 7f 58
        E 171 89 24 40 19
        E 28 89 29 40 58
        E 41 99 24 1a -48
        E 200 89 24 40 -48
        E 40 99 26 7f 87
        E 0 99 29 7f 91
        E 201 89 26 40 87
        E 0 89 29 40 91
        E 279 99 29 7f 42
        E 200 89 29 40 42
        E 40 99 30 7f 9
        E 201 89 30 40 9
        E 39 99 24 52 -86
        E 0 99 24 24 -2
        E 0 99 2d 7f 14
        E 82 89 24 40 -86
        E 118 89 24 40 -2
        E 2 89 2d 40 14
        E 38 99 24 43 59
        E 201 89 24 40 59
        E 39 99 2d 7f -24
        E 200 89 2d 40 -24
        E 280 99 29 7f 3
        E 0 99 26 7b 7
        E 200 89 29 40 3
        E 1 89 26 40 7
        E 279 99 29 7c -10
        E 200 89 29 40 -10
        E 280 99 24 4c 20
        E 0 99 29 7f 30
        E 199 89 29 40 30
        E 1 89 24 40 20
        E 280 99 24 3e 22
        E 0 99 29 7f 46
        E 130 89 24 40 22
        E 70 89 29 40 46
        E 40 99 24 1c -86
        E 200 89 24 40 -86
        E 40 99 26 7f 21
        E 0 99 29 7f 52
        E 201 89 26 40 21
        E 1 89 29 40 52
        E 278 99 29 7f 28
        E 202 89 29 40 28
        E 278 99 29 7f 68
        E 0 99 24 4d 70
        E 116 89 24 40 70
        E 84 89 29 40 68
        E 40 99 24 1f -52
        E 199 89 24 40 -52
        E 41 99 29 72 56
        E 201 89 29 40 56
        E 225 b9 04 12
        E 54 99 26 64 58
        E 0 99 29 7f 78
        E 12 b9 04 22
        E 60 b9 04 32
        E 128 89 29 40 78
        E 2 89 26 40 58
        E 87 b9 04 22
        E 84 b9 04 12
        E 107 99 29 7f 48
        E 38 b9 04 09
        E 162 89 29 40 48
        E 23 b9 04 0f
        E 257 99 24 50 -25
        E 0 99 29 7f 46
        E 39 b9 04 03
        E 32 b9 04 00
        E 129 89 24 40 -25
        E 0 89 29 40 46
        E 280 99 29 68 59
        E 201 89 29 40 59
        E 279 99 26 7f 63
        E 0 99 29 7f 86
        E 200 89 29 40 86
        E 3 89 26 40 63
        E 277 99 29 7f 42
        E 201 89 29 40 42
        E 39 99 30 7f -11
        E 0 99 24 52 92
        E 79 89 24 40 92
        E 124 89 30 40 -11
        E 37 99 24 27 -67
        E 0 99 2d 7f
        E 192 b9 04 0f
        E 6 89 24 40 -67
        E 2 89 2d 40
        E 40 99 30 72 -34
        E 0 99 30 35 32
        E 62 89 30 40 -34
        E 137 89 30 40 32
        E 9 b9 04 00
        E 32 99 2d 7f -77
        E 0 99 24 54 111
        E 109 89 24 40 111
        E 91 89 2d 40 -77
        E 40 99 24 20 -18
        E 197 89 24 40 -18
        E 43 99 26 7f 6
        E 0 99 29 7f 14
        E 199 89 26 40 6
        E 0 89 29 40 14
        E 281 99 29 7d -9
        E 203 89 29 40 -9
        E 277 99 24 5c -21
        E 0 99 29 7f 3
        E 200 89 24 40 -21
        E 1 89 29 40 3
        E 279 99 24 43 10
        E 0 99 29 7f 12
        E 171 89 24 40 10
        E 26 89 29 40 12
        E 43 99 24 1d -54
        E 198 89 24 40 -54
        E 42 99 26 7f 3
        E 0 99 29 7f 26
        E 200 89 29 40 26
        E 1 89 26 40 3
        E 279 99 29 6e 27
        E 200 89 29 40 27
        E 280 99 24 4d 43
        E 0 99 29 7f 56
        E 201 89 24 40 43
        E 1 89 29 40 56
        E 278 99 24 40 -50
        E 0 99 29 7f 22
        E 0 99 24 1e 71
        E 119 89 24 40 -50
        E 80 89 29 40 22
        E 1 89 24 40 71
        E 280 99 26 6c 56
        E 0 99 29 7f 67
        E 199 89 26 40 56
        E 3 89 29 40 67
        E 278 99 29 7f 61
        E 201 89 29 40 61
        E 279 99 24 52 26
        E 0 99 29 7f 48
        E 199 89 29 40 48
        E 1 89 24 40 26
        E 280 99 24 43 -11
        E 0 99 29 7f 24
        E 170 89 24 40 -11
        E 31 89 29 40 24
        E 39 99 24 17 -79
        E 201 89 24 40 -79
        E 39 99 26 7f 10
        E 0 99 29 7f 38
        E 201 89 26 40 10
        E 0 89 29 40 38
        E 279 99 29 7f 35
        E 203 89 29 40 35
        E 37 99 30 7b -15
        E 0 99 24 53 91
        E 0 99 30 1f 99
        E 76 89 24 40 91
        E 36 89 30 40 -15
        E 87 89 30 40 99
        E 41 99 24 25 -70
        E 0 99 2d 7f 7
        E 199 89 24 40 -70
        E 1 89 2d 40 7
        E 280 99 29 7f 26
        E 0 99 24 4a 90
        E 93 89 24 40 90
        E 108 89 29 40 26
        E 39 99 24 1d -54
        E 197 89 24 40 -54
        E 43 99 24 30 -6
        E 0 99 29 7f 37
        E 0 99 26 7f 50
        E 199 89 26 40 50
        E 2 89 24 40 -6
        E 0 89 29 40 37
        E 279 99 29 7f 17
        E 200 89 29 40 17
        E 280 99 24 51 -31
        E 0 99 29 7f 17
        E 200 89 29 40 17
        E 1 89 24 40 -31
        E 279 99 24 3d 16
        E 0 99 29 7f 33
        E 145 89 24 40 16
        E 56 89 29 40 33
        E 39 99 24 1b -78
        E 200 89 24 40 -78
        E 40 99 26 7f 8
        E 0 99 29 7f 31
        E 199 89 26 40 8
        E 1 89 29 40 31
        E 280 99 29 7f 10
        E 200 89 29 40 10
        E 40 99 30 7f -27
        E 0 99 24 54 32
        E 87 89 24 40 32
        E 113 89 30 40 -27
        E 40 99 24 24 -118
        E 0 99 2d 7f 7
        E 197 89 24 40 -118
        E 6 89 2d 40 7
        E 37 99 24 47 -41
        E 0 99 24 1f 43
        E 83 89 24 40 -41
        E 117 89 24 40 43
        E 40 99 2d 60 -69
        E 200 89 2d 40 -69
        E 280 99 26 7f -9
        E 0 99 29 7f 26
        E 199 89 29 40 26
        E 1 89 26 40 -9
        E 280 99 29 7f 5
        E 200 89 29 40 5
        E 280 99 24 5a 8
        E 0 99 29 7f 32
        E 199 89 24 40 8
        E 0 89 29 40 32
        E 281 99 24 46 15
        E 0 99 29 7f 41
        E 148 89 24 40 15
        E 52 89 29 40 41
        E 40 99 24 1e -75
        E 198 89 24 40 -75
        E 42 99 26 7f -7
        E 0 99 29 7f 48
        E 200 89 29 40 48
        E 2 89 26 40 -7
        E 278 99 29 7f 43
        E 0 99 24 3b 101
        E 200 89 29 40 43
        E 0 89 24 40 101
        E 40 99 30 7f 87
        E 89 89 30 40 87
        E 151 99 30 2b -61
        E 0 99 24 5e 27
        E 0 99 2d 7f 79
        E 200 89 30 40 -61
        E 0 89 24 40 27
        E 0 89 2d 40 79
        E 206 b9 04 00
        E 28 b9 04 00
        E 46 99 1a 1a -73
        E 0 99 1a 42 -42
        E 0 99 30 7a -39
        E 0 99 2d 7f 21
        E 28 89 1a 40 -73
        E 169 89 1a 40 -42
        E 4 89 2d 40 21
        E 1 89 30 40 -39
        E 38 99 24 4d -107
        E 0 99 24 23 -27
        E 78 89 24 40 -107
        E 120 89 24 40 -27
        E 42 99 26 6f 42
        E 0 99 29 7f 45
        E 200 89 26 40 42
        E 2 89 29 40 45
        E 278 99 29 7f 55
        E 200 89 29 40 55
        E 280 99 29 7f 59
        E 0 99 24 56 99
        E 200 89 29 40 59
        E 0 89 24 40 99
        E 280 99 24 3a 35
        E 0 99 29 7f 46
        E 168 89 24 40 35
        E 33 89 29 40 46
        E 39 99 24 19 -37
        E 200 89 24 40 -37
        E 40 99 26 7f 15
        E 0 99 29 7f 63
        E 203 89 26 40 15
        E 0 89 29 40 63
        E 277 99 29 7f 65
        E 200 89 29 40 65
        E 40 99 26 4a -1
        E 200 89 26 40 -1
        E 40 99 24 56 -22
        E 0 99 29 7f 59
        E 199 89 24 40 -22
        E 2 89 29 40 59
        E 279 99 24 37 -69
        E 0 99 29 7f 65
        E 198 89 24 40 -69
        E 3 89 29 40 65
        E 39 99 24 16 -109
        E 201 89 24 40 -109
        E 39 99 26 7c 63
        E 0 99 29 7f 85
        E 200 89 26 40 63
        E 0 89 29 40 85
        E 280 99 29 7f 83
        E 200 89 29 40 83
        E 280 99 24 4d 91
        E 0 99 29 7f 107
        E 200 89 24 40 91
        E 0 89 29 40 107
        E 280 99 24 3c 31
        E 0 99 29 7f 105
        E 122 89 24 40 31
        E 78 89 29 40 105
        E 40 99 24 1c -87
        E 200 89 24 40 -87
        E 40 99 26 7f 107
        E 200 89 26 40 107
        E 40 99 29 7f -102
        E 199 89 29 40 -102
        E 281 99 29 7f -118
        E 0 99 30 7f 71
        E 199 89 29 40 -118
        E 3 89 30 40 71
        E 38 99 24 6c -5
        E 0 99 2d 7f 117
        E 200 89 24 40 -5
        E 0 89 2d 40 117
        E 280 99 24 43 -105
        E 0 99 2d 7f 81
        E 200 89 24 40 -105
        E 1 89 2d 40 81
        E 279 99 26 7f 54
        E 0 99 29 7f 95
        E 89 89 26 40 54
        E 114 89 29 40 95
        E 37 99 26 35 -95
        E 198 89 26 40 -95
        E 42 99 29 7f 91
        E 203 89 29 40 91
        E 277 99 29 7f 91
        E 0 99 24 4e 113
        E 200 89 29 40 91
        E 1 89 24 40 113
        E 279 99 29 7f 91
        E 0 99 24 3e 95
        E 158 89 24 40 95
        E 44 89 29 40 91
        E 38 99 24 1f 15
        E 198 89 24 40 15
        E 42 99 26 7f 67
        E 0 99 29 7f 95
        E 200 89 26 40 67
        E 1 89 29 40 95
        E 279 99 29 7f 91
        E 200 89 29 40 91
        E 280 99 24 50 71
        E 0 99 29 7f 89
        E 202 89 24 40 71
        E 0 89 29 40 89
        E 278 99 24 3e 10
        E 0 99 29 7f 101
        E 199 89 24 40 10
        E 1 89 29 40 101
        E 40 99 24 20 -6
        E 201 89 24 40 -6
        E 39 99 26 7e 110
        E 201 89 26 40 110
        E 39 99 29 7f -113
        E 200 89 29 40 -113
        E 280 99 29 7f -93
        E 200 89 29 40 -93
        E 40 99 24 4a 59
        E 0 99 29 7f 91
        E 200 89 24 40 59
        E 1 89 29 40 91
        E 39 99 24 31 113
        E 140 89 24 40 113
        E 100 99 24 0a 17
        E 0 99 29 7f 91
        E 198 89 24 40 17
        E 2 89 29 40 91
        E 280 99 26 7f 67
        E 0 99 29 7f 106
        E 199 89 29 40 106
        E 3 89 26 40 67
        E 278 99 29 7f 61
        E 200 89 29 40 61
        E 40 99 30 7f 32
        E 111 89 30 40 32
        E 129 99 30 25 -95
        E 0 99 24 58 -22
        E 0 99 2d 7f 65
        E 200 89 2d 40 65
        E 1 89 30 40 -95
        E 2 89 24 40 -22
        E 2 b9 04 03
        E 35 99 1a 27 -33
        E 0 99 30 6d 17
        E 0 99 30 28 102
        E 85 89 30 40 17
        E 48 b9 04 06
        E 66 89 30 40 102
        E 1 89 1a 40 -33
        E 40 99 2d 7f 20
        E 0 99 24 49 55
        E 17 b9 04 00
        E 71 89 24 40 55
        E 113 89 2d 40 20
        E 39 99 24 22 -97
        E 202 89 24 40 -97
        E 38 99 26 73 19
        E 0 99 29 7f 47
        E 200 89 26 40 19
        E 4 89 29 40 47
        E 276 99 29 7f 31
        E 200 89 29 40 31
        E 280 99 29 7f 31
        E 0 99 24 53 41
        E 200 89 29 40 31
        E 0 89 24 40 41
        E 280 99 24 3d 58
        E 0 99 29 7f 58
        E 149 89 24 40 58
        E 51 89 29 40 58
        E 40 99 24 1c -31
        E 200 89 24 40 -31
        E 40 99 26 78 45
        E 0 99 29 7f 63
        E 200 89 26 40 45
        E 0 89 29 40 63
        E 280 99 29 7f 47
        E 200 89 29 40 47
        E 40 99 2d 7f -23
        E 203 89 2d 40 -23
        E 37 99 24 5d 11
        E 0 99 2d 7f 15
        E 200 89 24 40 11
        E 2 89 2d 40 15
        E 278 99 2d 7f 23
        E 0 99 24 48 77
        E 184 89 24 40 77
        E 16 89 2d 40 23
        E 40 99 24 28 23
        E 200 89 24 40 23
        E 40 99 2d 7f -73
        E 0 99 26 65 103
        E 62 89 26 40 103
        E 138 89 2d 40 -73
        E 40 99 26 4b -70
        E 199 89 26 40 -70
        E 41 99 29 7f -83
        E 201 89 29 40 -83
        E 39 99 26 6e 100
        E 201 89 26 40 100
        E 39 99 29 7f 49
        E 200 89 29 40 49
        E 280 99 29 7f 99
        E 201 89 29 40 99
        E 39 99 24 37 -79
        E 203 89 24 40 -79
        E 37 99 24 47 55
        E 200 89 24 40 55
        E 40 99 26 6b -98
        E 0 99 29 7f -75
        E 199 89 26 40 -98
        E 1 89 29 40 -75
        E 280 99 29 7f -86
        E 199 89 29 40 -86
        E 281 99 24 4f -107
        E 0 99 29 7f -85
        E 200 89 24 40 -107
        E 0 89 29 40 -85
        E 40 99 24 30 91
        E 200 89 24 40 91
        E 40 99 29 75 -61
        E 200 89 29 40 -61
        E 280 99 24 3f -102
        E 0 99 29 7f -82
        E 201 89 24 40 -102
        E 0 89 29 40 -82
        E 279 99 29 4f -9
        E 200 89 29 40 -9
        E 4840 99 29 7f -6
        E 0 99 24 50 21
        E 201 89 29 40 -6
        E 1 89 24 40 21
        E 278 99 29 7f -55
        E 0 99 24 3a -47
        E 200 89 24 40 -47
        E 2 89 29 40 -55
        E 38 99 24 1e -79
        E 200 89 24 40 -79
        E 40 99 26 7f -59
        E 0 99 29 7f -21
        E 200 89 26 40 -59
        E 0 89 29 40 -21
        E 280 99 29 7f -73
        E 0 99 30 41 81
        E 200 89 29 40 -73
        E 0 89 30 40 81
        E 40 99 24 57 74
        E 199 89 24 40 74
        E 41 99 2d 7f -85
        E 202 89 2d 40 -85
        E 278 99 29 42 -119
        E 0 99 2d 18 -105
        E 200 89 29 40 -119
        E 2 89 2d 40 -105
        E 278 99 26 7f -89
        E 0 99 29 7f -69
        E 200 89 26 40 -89
        E 0 89 29 40 -69
        E 280 99 29 7f -79
        E 201 89 29 40 -79
        E 279 99 24 53 -77
        E 0 99 29 7f -49
        E 200 89 24 40 -77
        E 2 89 29 40 -49
        E 278 99 24 3b -101
        E 0 99 29 7f -55
        E 0 99 24 23 17
        E 116 89 24 40 -101
        E 84 89 29 40 -55
        E 0 89 24 40 17
        E 280 99 26 7f -69
        E 0 99 29 7f -30
        E 199 89 29 40 -30
        E 1 89 26 40 -69
        E 280 99 29 7f -37
        E 200 89 29 40 -37
        E 280 99 24 58 -83
        E 0 99 29 7f -35
        E 200 89 29 40 -35
        E 2 89 24 40 -83
        E 278 99 24 3d -103
        E 0 99 29 7f -17
        E 0 99 24 1f 15
        E 114 89 24 40 -103
        E 84 89 24 40 15
        E 2 89 29 40 -17
        E 280 99 29 7f -11
        E 200 89 29 40 -11
        E 280 99 29 7f 23
        E 200 89 29 40 23
        E 280 99 24 4c 35
        E 0 99 29 7f 69
        E 200 89 24 40 35
        E 0 89 29 40 69
        E 280 99 24 3d 17
        E 0 99 29 7f 83
        E 170 89 24 40 17
        E 32 89 29 40 83
        E 38 99 24 1d -51
        E 198 89 24 40 -51
        E 42 99 26 6c 89
        E 0 99 29 7f 105
        E 78 89 26 40 89
        E 122 89 29 40 105
        E 40 99 26 3d -73
        E 200 89 26 40 -73
        E 40 99 29 7f 47
        E 202 89 29 40 47
        E 38 99 30 7f -5
        E 200 89 30 40 -5
        E 40 99 24 5f -55
        E 0 99 2d 7f 39
        E 200 89 24 40 -55
        E 0 89 2d 40 39
        E 280 99 29 3d 1
        E 0 99 2d 1b 15
        E 202 89 29 40 1
        E 0 89 2d 40 15
        E 278 99 26 7f 29
        E 0 99 29 7f 53
        E 202 89 26 40 29
        E 0 89 29 40 53
        E 278 99 29 7f 41
        E 200 89 29 40 41
        E 280 99 24 56 39
        E 0 99 29 7f 53
        E 200 89 24 40 39
        E 0 89 29 40 53
        E 280 99 24 3d 49
        E 0 99 29 7f 93
        E 146 89 24 40 49
        E 54 89 29 40 93
        E 40 99 24 1f -43
        E 200 89 24 40 -43
        E 40 99 26 7f 39
        E 0 99 29 7f 85
        E 200 89 29 40 85
        E 2 89 26 40 39
        E 278 99 29 7f 71
        E 200 89 29 40 71
        E 280 99 24 4d 75
        E 0 99 29 7f 85
        E 200 89 24 40 75
        E 2 89 29 40 85
        E 278 99 29 7f 85
        E 0 99 24 3a 87
        E 190 89 24 40 87
        E 12 89 29 40 85
        E 38 99 24 19 41
        E 198 89 24 40 41
        E 42 99 26 7f 69
        E 0 99 29 7f 111
        E 200 89 29 40 111
        E 2 89 26 40 69
        E 278 99 29 7f 117
        E 200 89 29 40 117
        E 280 99 24 51 59
        E 0 99 29 7f 101
        E 200 89 29 40 101
        E 2 89 24 40 59
        E 278 99 24 37 22
        E 0 99 29 7f 74
        E 149 89 24 40 22
        E 50 89 29 40 74
        E 41 99 24 18 -67
        E 200 89 24 40 -67
        E 40 99 26 7b 65
        E 0 99 29 7f 103
        E 200 89 26 40 65
        E 0 89 29 40 103
        E 280 99 29 7f 59
        E 201 89 29 40 59
        E 39 99 30 7f -3
        E 200 89 30 40 -3
        E 40 99 24 62 -59
        E 0 99 2d 7f 47
        E 200 89 24 40 -59
        E 0 89 2d 40 47
        E 280 99 29 7f 65
        E 200 89 29 40 65
        E 40 99 26 7f -95
        E 202 89 26 40 -95
        E 38 99 29 7f 61
        E 200 89 29 40 61
        E 280 99 29 7f 73
        E 200 89 29 40 73
        E 280 99 24 5a 77
        E 0 99 29 7f 81
        E 200 89 24 40 77
        E 0 89 29 40 81
        E 280 99 24 45 55
        E 0 99 29 7f 89
        E 114 89 24 40 55
        E 88 89 29 40 89
        E 38 99 24 22 -69
        E 198 89 24 40 -69
        E 42 99 26 7f 19
        E 0 99 29 7f 66
        E 200 89 26 40 19
        E 1 89 29 40 66
        E 279 99 29 7f 61
        E 200 89 29 40 61
        E 280 99 24 52 23
        E 0 99 29 7f 67
        E 200 89 29 40 67
        E 2 89 24 40 23
        E 278 99 24 3d 33
        E 0 99 29 7f 63
        E 144 89 24 40 33
        E 56 89 29 40 63
        E 40 99 24 1f -61
        E 200 89 24 40 -61
        E 40 99 26 7c 53
        E 0 99 29 7f 107
        E 200 89 26 40 53
        E 0 89 29 40 107
        E 280 99 29 7f 91
        E 200 89 29 40 91
        E 280 99 24 56 87
        E 200 89 24 40 87
        E 40 99 29 7f -115
        E 200 89 29 40 -115
        E 40 99 24 3c 47
        E 0 99 29 7f 103
        E 144 89 24 40 47
        E 55 89 29 40 103
        E 41 99 24 19 -47
        E 200 89 24 40 -47
        E 40 99 26 7f 63
        E 0 99 29 7f 105
        E 200 89 26 40 63
        E 0 89 29 40 105
        E 280 99 29 7f 69
        E 181 b9 04 00
        E 19 89 29 40 69
        E 40 99 1a 34 -57
        E 0 99 30 77 -27
        E 200 89 1a 40 -57
        E 0 89 30 40 -27
        E 40 99 24 70 -45
        E 0 99 2d 7f 85
        E 200 89 24 40 -45
        E 0 89 2d 40 85
        E 40 99 24 49 113
        E 200 89 24 40 113
        E 40 99 2d 7f -3
        E 200 89 2d 40 -3
        E 280 99 26 7f 7
        E 0 99 29 7f 37
        E 200 89 26 40 7
        E 0 89 29 40 37
        E 280 99 29 7f 31
        E 200 89 29 40 31
        E 280 99 24 55 -33
        E 0 99 29 7f 31
        E 200 89 29 40 31
        E 2 89 24 40 -33
        E 278 99 24 40 -69
        E 0 99 29 7f 29
        E 200 89 29 40 29
        E 2 89 24 40 -69
        E 278 99 26 7c 9
        E 0 99 29 7f 49
        E 200 89 26 40 9
        E 1 89 29 40 49
        E 279 99 29 7f 59
        E 202 89 29 40 59
        E 278 99 24 53 57
        E 0 99 29 7f 79
        E 200 89 24 40 57
        E 0 89 29 40 79
        E 280 99 24 40 -11
        E 0 99 29 7f 61
        E 0 99 24 22 97
        E 108 89 24 40 -11
        E 92 89 29 40 61
        E 1 89 24 40 97
        E 279 99 26 75 17
        E 0 99 29 7f 75
        E 200 89 26 40 17
        E 4 89 29 40 75
        E 276 99 29 78 87
        E 200 89 29 40 87
        E 280 99 24 54 51
        E 0 99 29 7f 97
        E 104 89 24 40 51
        E 96 89 29 40 97
        E 40 99 24 21 -83
        E 198 89 24 40 -83
        E 42 99 29 7f 87
        E 200 89 29 40 87
        E 40 99 24 43 -109
        E 0 99 24 23 61
        E 168 89 24 40 -109
        E 32 89 24 40 61
        E 40 99 26 7f 83
        E 0 99 29 7f 111
        E 199 89 29 40 111
        E 5 89 26 40 83
        E 276 99 29 7f 71
        E 202 89 29 40 71
        E 38 99 30 7f -7
        E 200 89 30 40 -7
        E 40 99 24 67 -19
        E 0 99 2d 7f 89
        E 200 89 24 40 -19
        E 0 89 2d 40 89
        E 280 99 24 3c -81
        E 0 99 24 1e
        E 0 99 2d 7f 79
        E 80 89 24 40 -81
        E 120 89 2d 40 79
        E 1 89 24 40
        E 279 99 26 7f 43
        E 0 99 29 7f 77
        E 200 89 29 40 77
        E 2 89 26 40 43
        E 278 99 29 7f 61
        E 200 89 29 40 61
        E 280 99 29 7f 67
        E 0 99 24 55 95
        E 200 89 29 40 67
        E 0 89 24 40 95
        E 280 99 24 3e -5
        E 0 99 29 7f 73
        E 200 89 24 40 -5
        E 0 89 29 40 73
        E 280 99 26 7f 39
        E 0 99 29 7f 93
        E 200 89 26 40 39
        E 0 89 29 40 93
        E 280 99 29 7f 62
        E 201 89 29 40 62
        E 279 99 24 53 53
        E 0 99 29 7f 77
        E 200 89 24 40 53
        E 0 89 29 40 77
        E 280 99 24 3f 57
        E 0 99 29 7f 81
        E 156 89 24 40 57
        E 45 89 29 40 81
        E 39 99 24 1c -25
        E 202 89 24 40 -25
        E 38 99 26 7d 46
        E 0 99 29 7f 91
        E 201 89 26 40 46
        E 1 89 29 40 91
        E 278 99 29 7f 63
        E 200 89 29 40 63
        E 40 99 30 78 -17
        E 200 89 30 40 -17
        E 40 99 24 66 -43
        E 0 99 2d 7f 69
        E 201 89 2d 40 69
        E 1 89 24 40 -43
        E 38 99 24 3b 97
        E 202 89 24 40 97
        E 38 99 2d 7f 41
        E 204 89 2d 40 41
        E 276 99 26 7f -1
        E 0 99 29 7f 45
        E 199 89 29 40 45
        E 1 89 26 40 -1
        E 280 99 29 7f 35
        E 200 89 29 40 35
        E 280 99 24 55 25
        E 0 99 29 7f 27
        E 200 89 24 40 25
        E 2 89 29 40 27
        E 278 99 24 3d -23
        E 0 99 29 7f 21
        E 200 89 29 40 21
        E 2 89 24 40 -23
        E 278 99 26 7f -15
        E 0 99 29 7f 38
        E 200 89 29 40 38
        E 2 89 26 40 -15
        E 278 99 29 7f 25
        E 202 89 29 40 25
        E 278 99 29 7f 32
        E 0 99 24 50 38
        E 201 89 29 40 32
        E 0 89 24 40 38
        E 279 99 24 3c -13
        E 0 99 29 7f 26
        E 138 89 24 40 -13
        E 65 89 29 40 26
        E 37 99 24 1c -115
        E 200 89 24 40 -115
        E 40 99 26 7f 8
        E 0 99 29 7f 61
        E 201 89 29 40 61
        E 2 89 26 40 8
        E 277 99 29 7f 35
        E 200 89 29 40 35
        E 280 99 24 50 -1
        E 0 99 29 7f 60
        E 200 89 24 40 -1
        E 1 89 29 40 60
        E 279 99 24 37 -62
        E 0 99 29 7f 22
        E 201 89 24 40 -62
        E 4 89 29 40 22
        E 275 99 26 7f 13
        E 0 99 29 7f 59
        E 200 89 26 40 13
        E 2 89 29 40 59
        E 278 99 29 7f 23
        E 199 89 29 40 23
        E 41 99 30 7f -37
        E 202 89 30 40 -37
        E 38 99 24 62 -83
        E 0 99 2d 7f 55
        E 200 89 24 40 -83
        E 0 89 2d 40 55
        E 40 99 30 7e -37
        E 17 b9 04 06
        E 182 89 30 40 -37
        E 4 b9 04 00
        E 37 99 24 51 -91
        E 0 99 2d 7f 5
        E 200 89 24 40 -91
        E 0 89 2d 40 5
        E 280 99 26 7f -10
        E 0 99 29 7f 46
        E 201 89 29 40 46
        E 1 89 26 40 -10
        E 278 99 29 7f 5
        E 200 89 29 40 5
        E 280 99 24 55 31
        E 0 99 29 7f 37
        E 200 89 24 40 31
        E 0 89 29 40 37
        E 280 99 24 3e -31
        E 0 99 29 7f 10
        E 0 99 24 1d 99
        E 128 89 24 40 -31
        E 72 89 24 40 99
        E 1 89 29 40 10
        E 279 99 26 7f 5
        E 0 99 29 7f 51
        E 200 89 26 40 5
        E 0 89 29 40 51
        E 280 99 29 7f -7
        E 200 89 29 40 -7
        E 40 99 26 52 -105
        E 200 89 26 40 -105
        E 40 99 24 64 -22
        E 0 99 29 7f -12
        E 201 89 24 40 -22
        E 0 89 29 40 -12
        E 279 99 29 7f -3
        E 199 89 29 40 -3
        E 281 99 26 7f 9
        E 0 99 29 7f 35
        E 200 89 26 40 9
        E 2 89 29 40 35
        E 278 99 29 7f 19
        E 202 89 29 40 19
        E 278 99 29 7f 38
        E 0 99 24 57 45
        E 200 89 24 40 45
        E 1 89 29 40 38
        E 279 99 24 34 -53
        E 0 99 29 7f 45
        E 200 89 24 40 -53
        E 2 89 29 40 45
        E 278 99 26 7f 21
        E 0 99 29 7f 57
        E 200 89 26 40 21
        E 2 89 29 40 57
        E 278 99 29 7f 15
        E 200 89 29 40 15
        E 40 99 30 7c -45
        E 200 89 30 40 -45
        E 40 99 24 60 -65
        E 0 99 2d 7f 45
        E 200 89 24 40 -65
        E 2 89 2d 40 45
        E 38 99 30 7f -38
        E 200 89 30 40 -38
        E 40 99 24 4b -47
        E 0 99 2d 7f -11
        E 199 89 24 40 -47
        E 1 89 2d 40 -11
        E 280 99 26 7f 1
        E 0 99 29 7f 37
        E 200 89 26 40 1
        E 0 89 29 40 37
        E 280 99 29 7f 27
        E 199 89 29 40 27
        E 281 99 29 7f 25
        E 0 99 24 4f 59
        E 201 89 24 40 59
        E 1 89 29 40 25
        E 278 99 24 42 -15
        E 0 99 29 7f 26
        E 200 89 24 40 -15
        E 1 89 29 40 26
        E 279 99 26 7f 23
        E 0 99 29 7f 77
        E 200 89 26 40 23
        E 0 89 29 40 77
        E 280 99 29 7f 73
        E 200 89 29 40 73
        E 280 99 24 52 77
        E 0 99 29 7f 85
        E 200 89 24 40 77
        E 0 89 29 40 85
        E 280 99 24 3d 15
        E 0 99 29 7f 71
        E 0 99 24 1f 119
        E 104 89 24 40 15
        E 96 89 29 40 71
        E 0 89 24 40 119
        E 280 99 26 7f 25
        E 0 99 29 7f 65
        E 200 89 26 40 25
        E 0 89 29 40 65
        E 280 99 29 7f 49
        E 200 89 29 40 49
        E 40 99 28 58 -2
        E 0 99 28 2a 97
        E 97 89 28 40 -2
        E 103 89 28 40 97
        E 40 99 26 64 66
        E 0 99 24 49 75
        E 126 89 24 40 75
        E 75 89 26 40 66
        E 39 99 24 24 -37
        E 0 99 26 40 37
        E 96 89 26 40 37
        E 104 89 24 40 -37
        E 40 99 26 23 -105
        E 0 99 26 7e 49
        E 152 89 26 40 -105
        E 44 89 26 40 49
        E 44 99 26 66 7
        E 200 89 26 40 7
        E 40 99 26 78 28
        E 201 89 26 40 28
        E 39 99 26 61 17
        E 200 89 26 40 17
        E 40 99 26 7f 25
        E 200 89 26 40 25
        E 40 99 26 68 -9
        E 202 89 26 40 -9
        E 38 99 33 41 -15
        E 0 99 33 7f 30
        E 0 99 24 5f 89
        E 44 89 33 40 -15
        E 157 89 33 40 30
        E 1 89 24 40 89
        E 278 99 29 7f -29
        E 200 89 29 40 -29
        E 280 99 26 7f -23
        E 0 99 29 7f 20
        E 202 89 26 40 -23
        E 0 89 29 40 20
        E 278 99 29 7f 9
        E 200 89 29 40 9
        E 280 99 24 51 15
        E 0 99 29 7f 33
        E 200 89 24 40 15
        E 0 89 29 40 33
        E 280 99 29 7f 25
        E 200 89 29 40 25
        E 280 99 26 7f -7
        E 0 99 29 7f 45
        E 199 89 26 40 -7
        E 2 89 29 40 45
        E 279 99 29 7f 23
        E 200 89 29 40 23
        E 280 99 29 7f 35
        E 0 99 24 4e 45
        E 199 89 24 40 45
        E 1 89 29 40 35
        E 280 99 24 3d -59
        E 0 99 24 1d 33
        E 0 99 29 7f 41
        E 90 89 24 40 -59
        E 109 89 29 40 41
        E 2 89 24 40 33
        E 279 99 26 7f 34
        E 0 99 29 7f 79
        E 200 89 29 40 79
        E 3 89 26 40 34
        E 277 99 29 7f 65
        E 200 89 29 40 65
        E 280 99 24 51 36
        E 0 99 29 7f 59
        E 200 89 29 40 59
        E 1 89 24 40 36
        E 279 99 29 7f 52
        E 201 89 29 40 52
        E 279 99 26 7f 21
        E 0 99 29 7f 73
        E 199 89 26 40 21
        E 1 89 29 40 73
        E 280 99 29 7f 37
        E 200 89 29 40 37
        E 40 99 30 6d -38
        E 203 89 30 40 -38
        E 37 99 24 64 -78
        E 0 99 2d 7f 57
        E 200 89 2d 40 57
        E 1 89 24 40 -78
        E 39 99 30 5c -15
        E 35 b9 04 06
        E 165 89 30 40 -15
        E 40 99 24 51 -32
        E 0 99 2d 7f
        E 26 b9 04 00
        E 174 89 2d 40
        E 1 89 24 40 -32
        E 279 99 26 74 3
        E 0 99 29 7f 41
        E 199 89 26 40 3
        E 2 89 29 40 41
        E 279 99 29 7f 28
        E 200 89 29 40 28
        E 280 99 29 7f 51
        E 0 99 24 54 68
        E 199 89 29 40 51
        E 2 89 24 40 68
        E 279 99 24 41 13
        E 0 99 29 7f 55
        E 0 99 24 22 110
        E 94 89 24 40 13
        E 106 89 29 40 55
        E 1 89 24 40 110
        E 279 99 26 7f 29
        E 0 99 29 7f 71
        E 200 89 26 40 29
        E 0 89 29 40 71
        E 280 99 29 7f 52
        E 200 89 29 40 52
        E 280 99 24 4e 57
        E 0 99 29 7f 70
        E 200 89 24 40 57
        E 1 89 29 40 70
        E 279 99 29 7f 79
        E 199 89 29 40 79
        E 281 99 26 7f 63
        E 0 99 29 7f 84
        E 201 89 26 40 63
        E 0 89 29 40 84
        E 279 99 29 7f 67
        E 200 89 29 40 67
        E 2 b9 04 00
        E 38 99 1a 7f -36
        E 201 89 1a 40 -36
        E 14 b9 04 12
        E 25 99 24 56 -61
        E 0 99 24 28 35
        E 0 99 29 7f 45
        E 29 b9 04 22
        E 60 b9 04 32
        E 4 89 24 40 -61
        E 106 89 24 40 35
        E 0 89 29 40 45
        E 3 b9 04 22
        E 136 b9 04 12
        E 142 99 29 7f 62
        E 201 89 29 40 62
        E 279 99 26 7f 58
        E 0 99 29 7f 80
        E 200 89 26 40 58
        E 3 89 29 40 80
        E 202 b9 04 06
        E 75 99 29 7f 52
        E 201 89 29 40 52
        E 39 99 28 4a -11
        E 5 b9 04 00
        E 195 89 28 40 -11
        E 40 99 24 6b -38
        E 0 99 2d 7f 42
        E 201 89 24 40 -38
        E 0 89 2d 40 42
        E 39 99 30 7f -12
        E 12 b9 04 0f
        E 189 89 30 40 -12
        E 39 99 2d 7f 6
        E 0 99 24 4e 10
        E 98 b9 04 06
        E 104 89 2d 40 6
        E 1 89 24 40 10
        E 146 b9 04 00
        E 131 99 26 7f -46
        E 0 99 29 7f 11
        E 200 89 29 40 11
        E 3 89 26 40 -46
        E 277 99 29 7f -10
        E 199 b9 04 09
        E 2 89 29 40 -10
        E 279 99 24 58 7
        E 0 99 29 7f 10
        E 201 89 29 40 10
        E 1 89 24 40 7
        E 278 99 24 37 -94
        E 0 99 29 7f -4
        E 200 89 24 40 -94
        E 3 89 29 40 -4
        E 25 b9 04 00
        E 252 99 26 7f -35
        E 0 99 29 7f 32
        E 199 89 26 40 -35
        E 2 89 29 40 32
        E 279 99 29 7f -1
        E 0 99 26 21 109
        E 199 89 26 40 109
        E 3 89 29 40 -1
        E 278 99 24 55 10
        E 0 99 29 7f 14
        E 200 89 24 40 10
        E 3 89 29 40 14
        E 37 99 24 29 79
        E 202 89 24 40 79
        E 38 99 29 7f 26
        E 201 89 29 40 26
        E 279 99 26 7b -15
        E 0 99 29 7f 49
        E 200 89 26 40 -15
        E 0 89 29 40 49
        E 280 99 29 7f 22
        E 0 99 1a 7f 98
        E 96 b9 04 00
        E 104 89 1a 40 98
        E 1 89 29 40 22
        E 176 b9 04 12
        E 7 b9 04 25
        E 62 b9 04 36
        E 34 99 24 65 -45
        E 0 99 29 7f -5
        E 52 b9 04 46
        E 110 b9 04 36
        E 39 89 29 40 -5
        E 2 89 24 40 -45
        E 41 b9 04 25
        E 108 b9 04 18
        E 128 99 29 7f 34
        E 21 b9 04 0f
        E 180 89 29 40 34
        E 279 99 26 7f 51
        E 0 99 29 7f 70
        E 64 b9 04 09
        E 135 89 26 40 51
        E 1 89 29 40 70
        E 8 b9 04 00
        E 272 99 29 7f 9
        E 100 b9 04 09
        E 102 89 29 40 9
        E 38 99 30 7f -54
        E 0 99 24 6e 82
        E 25 b9 04 00
        E 175 89 24 40 82
        E 3 89 30 40 -54
        E 27 b9 04 12
        E 10 99 2d 7f 20
        E 128 b9 04 1d
        E 73 89 2d 40 20
        E 39 99 30 64 -37
        E 0 99 24 49 32
        E 116 b9 04 0f
        E 83 89 30 40 -37
        E 1 89 24 40 32
        E 40 99 2d 7f -14
        E 57 b9 04 06
        E 144 89 2d 40 -14
        E 65 b9 04 00
        E 214 99 26 7f -3
        E 0 99 29 7f 18
        E 200 89 29 40 18
        E 2 89 26 40 -3
        E 278 99 29 7f 11
        E 199 89 29 40 11
        E 24 b9 04 09
        E 257 99 24 5d -2
        E 0 99 29 7f 28
        E 200 89 29 40 28
        E 1 89 24 40 -2
        E 39 99 24 16 21
        E 202 89 24 40 21
        E 38 99 29 7f 10
        E 200 89 29 40 10
        E 40 99 24 23 -41
        E 173 b9 04 03
        E 4 b9 04 00
        E 22 89 24 40 -41
        E 41 99 26 7f 60
        E 0 99 29 7f 77
        E 200 89 26 40 60
        E 0 89 29 40 77
        E 280 99 29 7f 52
        E 200 89 29 40 52
        E 280 99 24 5c 70
        E 0 99 29 7f 99
        E 200 89 24 40 70
        E 1 89 29 40 99
        E 57 b9 04 12
        E 40 b9 04 22
        E 40 b9 04 32
        E 142 99 29 7f 95
        E 83 b9 04 22
        E 35 b9 04 12
        E 36 b9 04 00
        E 45 89 29 40 95
        E 281 99 2c 50 33
        E 0 99 26 7f 97
        E 0 99 29 7f 108
        E 18 b9 04 12
        E 4 b9 04 25
        E 4 b9 04 38
        E 2 b9 04 49
        E 2 b9 04 4f
        E 5 b9 04 5b
        E 35 b9 04 6c
        E 115 b9 04 5c
        E 15 89 2c 40 33
        E 2 89 26 40 97
        E 0 89 29 40 108
        E 4 b9 04 4c
        E 19 b9 04 3c
        E 31 b9 04 2c
        E 46 b9 04 1a
        E 124 b9 04 12
        E 54 99 29 7f 106
        E 201 89 29 40 106
        E 16 b9 04 20
        E 280 b9 04 0f
        E 67 b9 04 00
        E 156 99 29 7f -118
        E 0 99 24 64 -85
        E 96 b9 04 0c
        E 103 89 24 40 -85
        E 1 89 29 40 -118
        E 40 99 24 31 -10
        E 0 99 29 7f 118
        E 200 89 24 40 -10
        E 1 89 29 40 118
        E 279 99 26 7f 98
        E 121 b9 04 03
        E 10 b9 04 00
        E 69 89 26 40 98
        E 40 99 29 7f -117
        E 141 b9 04 12
        E 58 89 29 40 -117
        E 41 99 29 7f 83
        E 6 b9 04 00
        E 172 b9 04 12
        E 9 b9 04 22
        E 8 b9 04 32
        E 4 89 29 40 83
        E 7 b9 04 43
        E 4 b9 04 4c
        E 5 b9 04 54
        E 7 b9 04 65
        E 18 99 2c 1c -27
        E 0 99 30 5b -12
        E 15 b9 04 75
        E 62 b9 04 65
        E 18 b9 04 55
        E 11 b9 04 44
        E 11 b9 04 34
        E 8 b9 04 22
        E 12 b9 04 12
        E 11 b9 04 00
        E 52 89 2c 40 -27
        E 0 89 30 40 -12
        E 40 99 24 7f -1
        E 0 99 2d 7f 82
        E 149 b9 04 12
        E 1 b9 04 25
        E 3 b9 04 38
        E 2 b9 04 49
        E 2 b9 04 53
        E 5 b9 04 5a
        E 2 b9 04 6e
        E 10 b9 04 5d
        E 13 b9 04 6e
        E 12 89 24 40 -1
        E 1 89 2d 40 82
        E 40 99 2c 7a -81
        E 46 b9 04 5d
        E 12 b9 04 4c
        E 8 b9 04 3c
        E 11 b9 04 2c
        E 9 b9 04 1a
        E 12 b9 04 09
        E 6 b9 04 00
        E 94 89 2c 40 -81
        E 42 99 24 58 -42
        E 0 99 2d 7f 36
        E 110 b9 04 12
        E 11 b9 04 25
        E 17 b9 04 36
        E 15 b9 04 46
        E 3 b9 04 4c
        E 8 b9 04 56
        E 37 89 2d 40 36
        E 1 89 24 40 -42
        E 25 b9 04 46
        E 13 99 2c 12 -82
        E 15 b9 04 36
        E 186 89 2c 40 -82
        E 39 99 26 7f 57
        E 0 99 29 7f 104
        E 33 b9 04 2e
        E 67 b9 04 1d
        E 99 89 26 40 57
        E 1 89 29 40 104
        E 65 b9 04 0f
        E 142 b9 04 06
        E 73 99 29 7f 85
        E 199 89 29 40 85
        E 64 b9 04 12
        E 217 99 24 64 90
        E 0 99 29 7f 111
        E 41 b9 04 03
        E 6 b9 04 00
        E 153 89 29 40 111
        E 1 89 24 40 90
        E 279 99 24 3d 29
        E 201 89 24 40 29
        E 39 99 29 7f -119
        E 200 89 29 40 -119
        E 40 99 26 7e 75
        E 200 89 26 40 75
        E 40 99 29 7f -113
        E 199 89 29 40 -113
        E 41 99 29 7f 108
        E 200 89 29 40 108
        E 520 99 29 7f -106
        E 0 99 24 72 -96
        E 200 89 29 40 -106
        E 1 89 24 40 -96
        E 39 99 24 3b 61
        E 73 89 24 40 61
        E 167 99 24 19 -102
        E 0 99 29 7f -100
        E 51 b9 04 06
        E 148 89 24 40 -102
        E 3 89 29 40 -100
        E 146 b9 04 00
        E 132 99 26 7f -107
        E 0 99 29 7f -98
        E 200 89 26 40 -107
        E 3 89 29 40 -98
        E 37 99 29 7f 118
        E 200 89 29 40 118
        E 280 99 29 7f 100
        E 0 99 24 60 107
        E 202 89 29 40 100
        E 0 89 24 40 107
        E 278 99 29 7f 70
        E 200 89 29 40 70
        E 280 99 26 7f 29
        E 0 99 29 7f 56
        E 201 89 26 40 29
        E 0 89 29 40 56
        E 279 99 29 7f 44
        E 182 b9 04 09
        E 18 89 29 40 44
        E 40 99 30 5c -34
        E 200 89 30 40 -34
        E 40 99 24 7f -45
        E 0 99 2d 7f 52
        E 109 b9 04 1a
        E 91 89 2d 40 52
        E 2 89 24 40 -45
        E 38 99 30 79 -38
        E 59 b9 04 27
        E 141 89 30 40 -38
        E 40 99 24 5b -10
        E 0 99 2d 7f 9
        E 3 b9 04 18
        E 138 b9 04 0f
        E 58 89 2d 40 9
        E 2 89 24 40 -10
        E 169 b9 04 06
        E 110 99 26 7f 62
        E 0 99 29 7f 70
        E 66 b9 04 00
        E 134 89 26 40 62
        E 0 89 29 40 70
        E 280 99 29 7f 46
        E 200 89 29 40 46
        E 24 b9 04 09
        E 256 99 29 7f 44
        E 0 99 24 7d 54
        E 200 89 29 40 44
        E 0 89 24 40 54
        E 280 99 24 48 24
        E 0 99 29 7f 50
        E 124 89 24 40 24
        E 76 89 29 40 50
        E 40 99 24 21 -90
        E 200 89 24 40 -90
        E 40 99 26 7f -16
        E 0 99 29 7f 38
        E 200 89 29 40 38
        E 2 89 26 40 -16
        E 278 99 29 7f 42
        E 16 b9 04 03
        E 184 89 29 40 42
        E 280 99 29 7f 64
        E 0 99 24 68 78
        E 201 89 29 40 64
        E 2 89 24 40 78
        E 277 99 24 44 -12
        E 0 99 29 7f 58
        E 200 89 29 40 58
        E 2 89 24 40 -12
        E 278 99 26 7f 41
        E 0 99 29 7f 68
        E 199 89 26 40 41
        E 2 89 29 40 68
        E 157 b9 04 00
        E 122 99 29 7f 66
        E 200 89 29 40 66
        E 280 99 29 7f 71
        E 0 99 24 74 93
        E 199 89 29 40 71
        E 2 89 24 40 93
        E 279 99 24 45 26
        E 0 99 29 7f 60
        E 100 89 24 40 26
        E 100 89 29 40 60
        E 40 99 24 1e -112
        E 202 89 24 40 -112
        E 38 99 26 7b 14
        E 0 99 29 7f 56
        E 200 89 26 40 14
        E 0 89 29 40 56
        E 280 99 29 7f 28
        E 200 89 29 40 28
        E 2 b9 04 0c
        E 38 99 30 65 -30
        E 202 89 30 40 -30
        E 38 99 24 7e -23
        E 0 99 2d 7f 38
        E 186 b9 04 18
        E 14 89 2d 40 38
        E 1 89 24 40 -23
        E 39 99 30 60 -48
        E 200 89 30 40 -48
        E 40 99 2d 7f -3
        E 0 99 24 5a
        E 152 b9 04 0f
        E 47 89 2d 40 -3
        E 3 89 24 40
        E 152 b9 04 06
        E 126 99 26 74 45
        E 0 99 29 7f 58
        E 18 b9 04 00
        E 182 89 29 40 58
        E 1 89 26 40 45
        E 279 99 29 7f 34
        E 202 89 29 40 34
        E 278 99 24 67 38
        E 0 99 29 7f 40
        E 200 89 24 40 38
        E 2 89 29 40 40
        E 278 99 24 46 -14
        E 0 99 29 7f 40
        E 0 99 24 20 96
        E 106 89 24 40 -14
        E 92 89 24 40 96
        E 2 89 29 40 40
        E 280 99 26 7f 6
        E 0 99 29 7f 52
        E 200 89 29 40 52
        E 4 89 26 40 6
        E 276 99 29 7f 46
        E 131 b9 04 00
        E 69 89 29 40 46
        E 40 99 1a 7f -107
        E 118 b9 04 12
        E 7 b9 04 25
        E 3 b9 04 38
        E 2 b9 04 4c
        E 6 b9 04 4c
        E 65 89 1a 40 -107
        E 3 b9 04 5c
        E 36 99 2c 46 -108
        E 0 99 24 7e
        E 0 99 29 7f 44
        E 90 b9 04 4c
        E 56 b9 04 3c
        E 54 89 2c 40 -108
        E 0 89 29 40 44
        E 1 89 24 40
        E 161 b9 04 2c
        E 112 b9 04 1d
        E 6 99 29 7f 64
        E 200 89 29 40 64
        E 280 99 26 7f 58
        E 0 99 29 7f 82
        E 200 89 26 40 58
        E 0 89 29 40 82
        E 280 99 29 7f 74
        E 70 b9 04 12
        E 130 89 29 40 74
        E 136 b9 04 18
        E 144 99 24 67 68
        E 0 99 29 7f 90
        E 202 89 24 40 68
        E 0 89 29 40 90
        E 278 99 24 43 -16
        E 0 99 29 7f 70
        E 64 b9 04 12
        E 136 89 24 40 -16
        E 2 89 29 40 70
        E 278 99 26 7c 66
        E 0 99 29 7f 102
        E 110 b9 04 09
        E 90 89 29 40 102
        E 3 89 26 40 66
        E 57 b9 04 00
        E 220 99 29 7f 70
        E 140 b9 04 0f
        E 60 89 29 40 70
        E 40 99 30 77 2
        E 200 89 30 40 2
        E 40 99 24 7f 4
        E 0 99 2d 7f 105
        E 199 89 2d 40 105
        E 2 89 24 40 4
        E 39 99 30 7a 16
        E 0 99 30 23 114
        E 30 b9 04 18
        E 64 89 30 40 16
        E 104 89 30 40 114
        E 6 b9 04 1d
        E 36 99 24 5f 8
        E 0 99 2d 7f 48
        E 200 89 24 40 8
        E 0 89 2d 40 48
        E 112 b9 04 12
        E 168 99 26 66 48
        E 0 99 29 7f 96
        E 132 b9 04 09
        E 68 89 26 40 48
        E 1 89 29 40 96
        E 279 99 29 7f 78
        E 202 89 29 40 78
        E 38 b9 04 12
        E 240 99 24 6f 94
        E 0 99 29 7f 106
        E 72 b9 04 09
        E 128 89 24 40 94
        E 2 89 29 40 106
        E 90 b9 04 12
        E 188 99 24 3c -22
        E 0 99 29 7f 108
        E 200 89 29 40 108
        E 2 89 24 40 -22
        E 278 99 26 7f 104
        E 112 b9 04 09
        E 88 89 26 40 104
        E 40 99 29 7f -102
        E 200 89 29 40 -102
        E 218 b9 04 00
        E 62 99 29 7f -119
        E 0 99 29 34 -16
        E 0 99 1a 7f 104
        E 101 89 29 40 -119
        E 1 b9 04 00
        E 100 89 29 40 -16
        E 0 89 1a 40 104
        E 38 99 2c 2a 58
        E 38 b9 04 12
        E 4 b9 04 22
        E 4 b9 04 34
        E 4 b9 04 46
        E 7 b9 04 4c
        E 27 b9 04 56
        E 38 b9 04 66
        E 80 89 2c 40 58
        E 38 b9 04 56
        E 0 99 24 7f -108
        E 0 99 29 7f -90
        E 48 b9 04 46
        E 67 b9 04 36
        E 85 89 29 40 -90
        E 2 89 24 40 -108
        E 62 b9 04 3a
        E 52 b9 04 29
        E 110 b9 04 1d
        E 54 99 29 7f -112
        E 200 89 29 40 -112
        E 162 b9 04 15
        E 118 99 26 7e -80
        E 0 99 29 7f -54
        E 200 89 29 40 -54
        E 1 89 26 40 -80
        E 147 b9 04 0c
        E 132 99 29 7f -80
        E 188 b9 04 12
        E 12 89 29 40 -80
        E 280 99 24 70 -64
        E 0 99 29 7f -48
        E 200 89 29 40 -48
        E 1 89 24 40 -64
        E 279 99 24 45 -88
        E 0 99 29 7f -34
        E 0 99 24 21 24
        E 110 89 24 40 -88
        E 90 89 29 40 -34
        E 0 89 24 40 24
        E 210 b9 04 09
        E 70 99 26 7a -80
        E 0 99 29 7f -32
        E 14 b9 04 00
        E 186 89 26 40 -80
        E 1 89 29 40 -32
        E 279 99 29 7f -56
        E 18 b9 04 0f
        E 152 b9 04 15
        E 30 89 29 40 -56
        E 40 99 30 7c -120
        E 0 99 30 26 -32
        E 86 89 30 40 -120
        E 63 b9 04 0f
        E 51 89 30 40 -32
        E 40 99 24 7f -116
        E 0 99 2d 7f -44
        E 60 b9 04 1d
        E 140 89 24 40 -116
        E 4 89 2d 40 -44
        E 22 b9 04 27
        E 14 99 30 7f -108
        E 200 89 30 40 -108
        E 36 b9 04 1d
        E 4 99 24 5d -108
        E 0 99 2d 7f -68
        E 196 b9 04 12
        E 4 89 24 40 -108
        E 0 89 2d 40 -68
        E 266 b9 04 06
        E 14 99 26 7f -76
        E 0 99 29 7f -35
        E 122 b9 04 00
        E 77 89 29 40 -35
        E 1 89 26 40 -76
        E 280 99 29 7f -42
        E 116 b9 04 09
        E 84 89 29 40 -42
        E 280 99 24 7f -54
        E 0 99 29 7f -50
        E 200 89 29 40 -50
        E 2 89 24 40 -54
        E 278 99 24 41 -80
        E 0 99 29 7f -58
        E 0 99 24 1a 76
        E 154 89 24 40 -80
        E 46 89 29 40 -58
        E 0 89 24 40 76
        E 280 99 26 7f -80
        E 0 99 29 7f -67
        E 199 89 29 40 -67
        E 3 89 26 40 -80
        E 164 b9 04 00
        E 114 99 29 7f -90
        E 0 99 1a 7f 88
        E 86 b9 04 00
        E 113 89 29 40 -90
        E 1 89 1a 40 88
        E 40 99 2c 34 68
        E 0 99 24 7f 96
        E 52 b9 04 12
        E 4 b9 04 22
        E 4 b9 04 32
        E 4 b9 04 44
        E 2 b9 04 4c
        E 40 b9 04 54
        E 94 89 2c 40 68
        E 2 89 24 40 96
        E 12 b9 04 5f
        E 26 99 29 7f -86
        E 56 b9 04 4f
        E 86 b9 04 3f
        E 62 89 29 40 -86
        E 170 b9 04 2e
        E 106 99 29 71 -110
        E 46 b9 04 20
        E 156 89 29 40 -110
        E 124 b9 04 18
        E 154 99 26 7f -112
        E 0 99 29 7f -88
        E 66 b9 04 0f
        E 135 89 26 40 -112
        E 0 89 29 40 -88
        E 39 99 29 7f 110
        E 34 b9 04 09
        E 166 89 29 40 110
        E 50 b9 04 12
        E 230 99 24 71 40
        E 0 99 29 7f 78
        E 200 89 24 40 40
        E 0 89 29 40 78
        E 280 99 24 3a -42
        E 0 99 24 1b 54
        E 0 99 29 7f 102
        E 94 89 24 40 -42
        E 105 89 29 40 102
        E 3 89 24 40 54
        E 278 99 26 7f 80
        E 0 99 29 7f 112
        E 158 b9 04 09
        E 42 89 26 40 80
        E 1 89 29 40 112
        E 135 b9 04 00
        E 144 99 29 7f 92
        E 200 89 29 40 92
        E 5 b9 04 09
        E 35 99 30 68 25
        E 199 89 30 40 25
        E 41 99 24 7f 28
        E 0 99 2d 7f 92
        E 200 89 2d 40 92
        E 2 89 24 40 28
        E 18 b9 04 18
        E 20 99 30 72 6
        E 200 89 30 40 6
        E 40 99 24 5a 20
        E 0 99 2d 7f 24
        E 201 89 24 40 20
        E 2 89 2d 40 24
        E 20 b9 04 0f
        E 231 b9 04 09
        E 26 99 26 6f 32
        E 0 99 29 7f 66
        E 186 b9 04 00
        E 14 89 29 40 66
        E 2 89 26 40 32
        E 278 99 29 7f 48
        E 200 89 29 40 48
        E 14 b9 04 0c
        E 266 99 24 7f 58
        E 0 99 29 7f 60
        E 200 89 24 40 58
        E 0 89 29 40 60
        E 280 99 24 47 48
        E 0 99 29 7f 70
        E 118 89 24 40 48
        E 84 89 29 40 70
        E 38 99 24 1e -72
        E 202 89 24 40 -72
        E 38 99 26 75 34
        E 0 99 29 7f 68
        E 200 89 26 40 34
        E 1 89 29 40 68
        E 25 b9 04 06
        E 174 b9 04 00
        E 80 99 29 7f 37
        E 202 89 29 40 37
        E 38 99 1a 7f 44
        E 42 b9 04 00
        E 154 b9 04 12
        E 4 89 1a 40 44
        E 4 b9 04 27
        E 8 b9 04 38
        E 28 99 2c 0e 18
        E 0 99 24 7f 54
        E 0 99 29 7f 86
        E 12 b9 04 49
        E 4 b9 04 4c
        E 102 b9 04 57
        E 52 b9 04 47
        E 29 89 29 40 86
        E 1 89 2c 40 18
        E 0 89 24 40 54
        E 14 b9 04 36
        E 56 b9 04 25
        E 104 b9 04 1a
        E 106 99 29 7f 82
        E 202 89 29 40 82
        E 278 99 26 7f 78
        E 0 99 29 7f 112
        E 77 b9 04 12
        E 123 89 26 40 78
        E 0 89 29 40 112
        E 238 b9 04 09
        E 42 99 29 7f 78
        E 200 89 29 40 78
        E 42 b9 04 12
        E 238 99 29 7f 66
        E 0 99 24 7f 76
        E 136 b9 04 0c
        E 66 89 29 40 66
        E 2 89 24 40 76
        E 276 99 24 49 68
        E 0 99 29 7f 78
        E 120 89 24 40 68
        E 80 89 29 40 78
        E 40 99 24 22 -50
        E 200 89 24 40 -50
        E 40 99 26 7f 40
        E 0 99 29 7f 84
        E 200 89 26 40 40
        E 0 89 29 40 84
        E 82 b9 04 03
        E 10 b9 04 00
        E 188 99 29 7f 60
        E 158 b9 04 0c
        E 44 89 29 40 60
        E 38 99 30 7f -20
        E 204 89 30 40 -20
        E 36 99 24 7f 9
        E 0 99 2d 7f 80
        E 201 89 24 40 9
        E 5 89 2d 40 80
        E 2 b9 04 18
        E 32 99 30 67 -28
        E 0 99 30 2b 44
        E 70 89 30 40 -28
        E 132 89 30 40 44
        E 38 99 24 5b 4
        E 0 99 2d 7f 32
        E 200 89 24 40 4
        E 2 89 2d 40 32
        E 46 b9 04 0f
        E 232 99 26 6d 20
        E 0 99 29 7f 58
        E 128 b9 04 06
        E 72 89 26 40 20
        E 2 89 29 40 58
        E 170 b9 04 00
        E 108 99 29 7f 62
        E 198 b9 04 0c
        E 2 89 29 40 62
        E 280 99 29 7f 88
        E 0 99 24 7f 100
        E 200 89 29 40 88
        E 0 89 24 40 100
        E 280 99 24 4a 72
        E 0 99 29 7f 78
        E 200 89 24 40 72
        E 0 89 29 40 78
        E 280 99 26 7f 20
        E 0 99 29 7f 82
        E 200 89 29 40 82
        E 2 89 26 40 20
        E 278 99 29 7f 90
        E 0 99 26 6c 106
        E 200 89 29 40 90
        E 0 89 26 40 106
        E 6 b9 04 00
        E 274 99 2e 7f 70
        E 68 b9 04 09
        E 4 b9 04 12
        E 10 b9 04 25
        E 8 b9 04 36
        E 66 b9 04 46
        E 18 b9 04 4c
        E 28 89 2e 40 70
        E 38 99 24 7a -94
        E 0 99 29 7f -86
        E 0 99 2c 08 -64
        E 66 b9 04 36
        E 120 b9 04 27
        E 14 89 29 40 -86
        E 2 89 24 40 -94
        E 0 89 2c 40 -64
        E 142 b9 04 1d
        E 136 99 29 7f -118
        E 200 89 29 40 -118
        E 40 99 26 7c 108
        E 164 b9 04 15
        E 36 89 26 40 108
        E 40 99 29 7f -112
        E 180 b9 04 0f
        E 22 89 29 40 -112
        E 38 99 29 7f 108
        E 82 b9 04 09
        E 118 89 29 40 108
        E 124 b9 04 0f
        E 396 99 29 7f -102
        E 0 99 24 7f -70
        E 200 89 29 40 -102
        E 2 89 24 40 -70
        E 38 99 24 44 90
        E 0 99 29 7f 96
        E 200 89 24 40 90
        E 4 89 29 40 96
        E 276 99 26 7f 84
        E 0 99 29 7f 112
        E 200 89 29 40 112
        E 2 89 26 40 84
        E 134 b9 04 03
        E 45 b9 04 00
        E 99 99 29 7f 82
        E 116 b9 04 0f
        E 83 89 29 40 82
        E 41 99 30 79 6
        E 200 89 30 40 6
        E 40 90 34 7f
        E 0 99 24 7e -4
        E 0 99 29 69
        E 120 b9 04 1d
        E 80 89 29 40
        E 2 89 24 40 -4
        E 38 80 34 00
        E 240 99 24 4f -36
        E 0 99 29 69 40
        E 200 89 29 40 40
        E 2 89 24 40 -36
        E 278 90 26 7f
        E 0 99 29 69 40
        E 44 b9 04 00
        E 12 b9 04 06
        E 144 89 29 40 40
        E 40 80 26 00
        E 0 99 26 57 -118
        E 108 89 26 40 -118
        E 132 99 29 69 68
        E 200 89 29 40 68
        E 94 b9 04 09
        E 186 99 29 69 66
        E 40 99 24 72
        E 160 89 29 40 66
        E 40 89 24 40
        E 240 99 24 4a 64
        E 0 99 29 69 70
        E 40 99 24 22
        E 62 89 24 40 64
        E 98 89 29 40 70
        E 40 89 24 40
        E 240 99 26 7f 20
        E 0 99 29 69 64
        E 200 89 26 40 20
        E 0 89 29 40 64
        E 238 b9 04 03
        E 6 b9 04 00
        E 36 99 29 69 44
        E 200 89 29 40 44
        E 40 99 2e 7f 22
        E 20 b9 04 00
        E 152 b9 04 12
        E 8 b9 04 22
        E 4 b9 04 34
        E 15 89 2e 40 22
        E 29 b9 04 44
        E 12 99 2c 0e 4
        E 0 99 29 69 56
        E 0 99 24 7f 58
        E 2 b9 04 4c
        E 28 b9 04 54
        E 170 89 2c 40 4
        E 1 89 29 40 56
        E 0 89 24 40 58
        E 5 b9 04 44
        E 76 b9 04 34
        E 156 b9 04 29
        E 42 99 29 69 28
        E 200 89 29 40 28
        E 34 b9 04 1d
        E 246 99 26 7f 40
        E 0 99 29 69 60
        E 199 89 26 40 40
        E 1 89 29 40 60
        E 14 b9 04 18
        E 190 b9 04 0f
        E 76 99 29 69 47
        E 203 89 29 40 47
        E 277 99 29 69 56
        E 0 99 24 7f 86
        E 200 89 24 40 86
        E 1 89 29 40 56
        E 279 99 24 4c
        E 0 99 29 69 31
        E 200 89 24 40
        E 1 89 29 40 31
        E 279 99 26 7f -16
        E 0 99 29 69 30
        E 202 89 26 40 -16
        E 0 89 29 40 30
        E 92 b9 04 03
        E 6 b9 04 00
        E 180 99 29 69 -12
        E 136 b9 04 0c
        E 65 89 29 40 -12
        E 39 99 30 69 -88
        E 202 89 30 40 -88
        E 38 99 24 7f -30
        E 0 99 2d 6d 1
        E 128 b9 04 1a
        E 74 89 24 40 -30
        E 1 89 2d 40 1
        E 37 99 30 61 -58
        E 0 99 30 2c 20
        E 50 b9 04 25
        E 26 89 30 40 -58
        E 124 89 30 40 20
        E 40 99 24 57 -68
        E 0 99 2d 6d -42
        E 16 b9 04 1a
        E 170 b9 04 12
        E 14 89 24 40 -68
        E 0 89 2d 40 -42
        E 280 99 26 7d -82
        E 0 99 29 69 -18
        E 70 b9 04 0c
        E 130 89 29 40 -18
        E 2 89 26 40 -82
        E 178 b9 04 03
        E 100 99 29 69 -28
        E 182 b9 04 0f
        E 18 89 29 40 -28
        E 280 99 29 69 -2
        E 0 99 24 7f 12
        E 200 89 29 40 -2
        E 0 89 24 40 12
        E 280 99 29 69 -24
        E 0 99 24 4e -19
        E 0 99 24 20 78
        E 95 89 24 40 -19
        E 105 89 29 40 -24
        E 0 89 24 40 78
        E 280 99 26 7f -38
        E 0 99 29 69 -6
        E 200 89 29 40 -6
        E 2 89 26 40 -38
        E 192 b9 04 03
        E 40 b9 04 00
        E 46 99 29 69 -11
        E 182 b9 04 00
        E 19 89 29 40 -11
        E 39 99 1a 7f -56
        E 164 b9 04 12
        E 10 b9 04 25
        E 26 89 1a 40 -56
        E 14 b9 04 36
        E 22 b9 04 46
        E 4 99 24 7f 3
        E 0 99 29 69 18
        E 0 99 2c 0a 24
        E 19 b9 04 4c
        E 159 b9 04 36
        E 22 89 29 40 18
        E 2 89 2c 40 24
        E 1 89 24 40 3
        E 73 b9 04 25
        E 130 b9 04 1d
        E 74 99 29 69 16
        E 112 b9 04 25
        E 87 89 29 40 16
        E 26 b9 04 1d
        E 255 99 26 7f 24
        E 0 99 29 69 32
        E 38 b9 04 18
        E 162 89 26 40 24
        E 0 89 29 40 32
        E 104 b9 04 0c
        E 166 b9 04 06
        E 10 99 29 69 12
        E 200 89 29 40 12
        E 70 b9 04 0c
        E 210 99 29 69 32
        E 0 99 24 7f 54
        E 200 89 29 40 32
        E 2 89 24 40 54
        E 56 b9 04 12
        E 222 99 24 4d 18
        E 0 99 29 69 34
        E 116 89 24 40 18
        E 84 89 29 40 34
        E 40 99 24 20 -102
        E 200 89 24 40 -102
        E 22 b9 04 06
        E 18 99 26 7f -16
        E 0 99 29 69 28
        E 94 b9 04 00
        E 105 89 29 40 28
        E 2 89 26 40 -16
        E 279 99 29 69 15
        E 94 b9 04 12
        E 107 89 29 40 15
        E 39 99 30 77 -50
        E 20 b9 04 1a
        E 162 b9 04 0f
        E 20 89 30 40 -50
        E 38 99 24 7f -28
        E 0 99 2d 6d 40
        E 144 b9 04 1d
        E 56 89 24 40 -28
        E 2 89 2d 40 40
        E 38 99 30 51 -16
        E 0 99 30 24 74
        E 8 b9 04 2e
        E 80 89 30 40 -16
        E 114 89 30 40 74
        E 38 99 24 5a -42
        E 0 99 2d 6d -12
        E 74 b9 04 25
        E 107 b9 04 1a
        E 19 89 24 40 -42
        E 0 89 2d 40 -12
        E 148 b9 04 12
        E 132 90 32 7f
        E 0 99 26 7f -42
        E 0 99 29 69 6
        E 88 b9 04 06
        E 112 89 29 40 6
        E 4 89 26 40 -42
        E 36 80 32 00
        E 32 b9 04 00
        E 208 99 29 69 10
        E 144 b9 04 0f
        E 56 89 29 40 10
        E 280 99 29 69 18
        E 0 99 24 7f 54
        E 42 b9 04 09
        E 160 89 29 40 18
        E 0 89 24 40 54
        E 20 b9 04 12
        E 258 99 29 69 24
        E 0 99 24 52 32
        E 102 89 24 40 32
        E 100 89 29 40 24
        E 38 99 24 21 -102
        E 182 b9 04 0c
        E 16 89 24 40 -102
        E 42 99 26 7f -16
        E 0 99 29 69 22
        E 200 89 29 40 22
        E 2 89 26 40 -16
        E 78 b9 04 06
        E 200 99 29 69 -4
        E 6 b9 04 00
        E 196 89 29 40 -4
        E 18 b9 04 00
        E 20 99 2e 7f -18
        E 116 b9 04 12
        E 8 b9 04 25
        E 6 b9 04 36
        E 44 b9 04 46
        E 20 b9 04 4c
        E 6 89 2e 40 -18
        E 40 99 2c 0c -44
        E 0 99 24 7f -2
        E 0 99 29 69 12
        E 44 b9 04 4d
        E 42 b9 04 3c
        E 38 b9 04 2c
        E 76 89 24 40 -2
        E 1 89 2c 40 -44
        E 1 89 29 40 12
        E 38 b9 04 1d
        E 238 b9 04 2e
        E 2 99 29 69 12
        E 200 89 29 40 12
        E 78 b9 04 27
        E 119 b9 04 1a
        E 83 99 26 7f 12
        E 0 99 29 69 26
        E 200 89 26 40 12
        E 2 89 29 40 26
        E 158 b9 04 0f
        E 120 99 29 69 44
        E 200 89 29 40 44
        E 28 b9 04 15
        E 252 99 29 69 46
        E 0 99 24 7f 72
        E 200 89 29 40 46
        E 0 89 24 40 72
        E 280 99 24 4f 26
        E 0 99 29 69 40
        E 200 89 24 40 26
        E 0 89 29 40 40
        E 254 b9 04 0f
        E 26 99 26 7b 2
        E 0 99 29 69 34
        E 200 89 26 40 2
        E 2 89 29 40 34
        E 8 b9 04 03
        E 36 b9 04 00
        E 234 99 29 69 16
        E 26 b9 04 12
        E 176 89 29 40 16
        E 4 b9 04 1a
        E 34 99 31 7f -82
        E 134 b9 04 09
        E 68 89 31 40 -82
        E 38 99 24 7f -14
        E 0 99 2d 6d 13
        E 0 99 29 57 16
        E 164 b9 04 15
        E 38 89 24 40 -14
        E 0 89 29 40 16
        E 1 89 2d 40 13
        E 277 99 24 4c -60
        E 0 99 2d 6d 5
        E 100 b9 04 0f
        E 100 89 24 40 -60
        E 3 89 2d 40 5
        E 277 90 30 6d
        E 0 99 26 7f -12
        E 0 99 29 69 -2
        E 0 99 26 36 80
        E 88 89 26 40 -12
        E 2 b9 04 06
        E 108 89 26 40 80
        E 2 89 29 40 -2
        E 40 80 30 00
        E 240 99 29 69 32
        E 128 b9 04 0f
        E 74 89 29 40 32
        E 200 b9 04 03
        E 16 b9 04 00
        E 62 99 24 7f -42
        E 0 99 29 69 2
        E 176 b9 04 0c
        E 23 89 29 40 2
        E 3 89 24 40 -42
        E 278 99 29 69 -31
        E 203 89 29 40 -31
        E 277 99 26 7f -42
        E 0 99 29 69 -4
        E 200 89 26 40 -42
        E 2 89 29 40 -4
        E 90 b9 04 03
        E 188 99 29 69 -24
        E 104 b9 04 0c
        E 96 89 29 40 -24
        E 40 99 26 3e -32
        E 186 b9 04 06
        E 14 89 26 40 -32
        E 40 99 24 7f -46
        E 0 99 29 69 -23
        E 128 b9 04 0f
        E 73 89 29 40 -23
        E 2 89 24 40 -46
        E 277 99 24 4b -76
        E 0 99 29 69 -38
        E 200 89 24 40 -76
        E 0 89 29 40 -38
        E 280 99 26 7f -38
        E 0 99 29 69 -20
        E 200 89 26 40 -38
        E 0 89 29 40 -20
        E 46 b9 04 06
        E 234 99 29 69 -14
        E 154 b9 04 0f
        E 48 89 29 40 -14
        E 278 99 29 69 -10
        E 0 99 24 7f -4
        E 50 b9 04 09
        E 150 89 29 40 -10
        E 4 89 24 40 -4
        E 276 99 29 69 -24
        E 200 89 29 40 -24
        E 280 99 26 7e -22
        E 0 99 29 69 8
        E 200 89 29 40 8
        E 2 89 26 40 -22
        E 98 b9 04 00
        E 180 99 29 69 -12
        E 106 b9 04 0c
        E 98 89 29 40 -12
        E 36 99 30 77 -71
        E 201 89 30 40 -71
        E 39 99 24 7f -49
        E 0 99 2d 6d 26
        E 160 b9 04 18
        E 41 89 24 40 -49
        E 1 89 2d 40 26
        E 38 99 30 60 -79
        E 0 99 30 11 28
        E 105 89 30 40 -79
        E 95 89 30 40 28
        E 40 99 24 5b -76
        E 0 99 2d 6d -32
        E 191 b9 04 0c
        E 9 89 24 40 -76
        E 0 89 2d 40 -32
        E 280 90 34 7f
        E 0 99 26 7f -58
        E 0 99 29 69 -17
        E 74 b9 04 03
        E 44 b9 04 00
        E 82 89 26 40 -58
        E 3 89 29 40 -17
        E 37 80 34 00
        E 240 99 29 69 -24
        E 114 b9 04 0c
        E 88 89 29 40 -24
        E 79 b9 04 12
        E 199 99 29 69 -14
        E 0 99 24 7f 18
        E 47 b9 04 09
        E 152 89 29 40 -14
        E 1 89 24 40 18
        E 280 99 24 4f -39
        E 0 99 29 69 -22
        E 200 89 24 40 -39
        E 0 89 29 40 -22
        E 280 99 26 7f -8
        E 0 99 29 69 20
        E 136 b9 04 0f
        E 63 89 26 40 -8
        E 1 89 29 40 20
        E 162 b9 04 00
        E 118 99 29 69 -18
        E 0 99 29 16 88
        E 103 89 29 40 -18
        E 91 b9 04 00
        E 6 89 29 40 88
        E 40 99 2e 7f -44
        E 202 89 2e 40 -44
        E 38 99 2c 4a
        E 0 99 24 7f -22
        E 0 99 29 69 12
        E 46 b9 04 5a
        E 32 b9 04 12
        E 6 b9 04 27
        E 2 b9 04 38
        E 4 b9 04 4a
        E 2 b9 04 4f
        E 4 b9 04 5a
        E 14 b9 04 4a
        E 19 b9 04 5a
        E 1 b9 04 3a
        E 46 b9 04 6a
        E 24 89 29 40 12
        E 2 89 2c 40
        E 0 89 24 40 -22
        E 132 b9 04 29
        E 122 b9 04 1d
        E 24 99 24 0a -68
        E 0 99 29 69 28
        E 199 89 24 40 -68
        E 3 89 29 40 28
        E 278 99 26 7f 3
        E 0 99 29 69 18
        E 200 89 26 40 3
        E 0 89 29 40 18
        E 71 b9 04 12
        E 209 99 29 69 9
        E 201 89 29 40 9
        E 43 b9 04 1a
        E 236 99 29 69 25
        E 0 99 24 7f 37
        E 41 b9 04 12
        E 159 89 29 40 25
        E 3 89 24 40 37
        E 277 99 24 50 -24
        E 0 99 29 69 6
        E 202 89 29 40 6
        E 2 89 24 40 -24
        E 276 99 26 7f -32
        E 0 99 29 69 21
        E 153 b9 04 00
        E 47 89 29 40 21
        E 2 89 26 40 -32
        E 278 99 29 69 -28
        E 98 b9 04 12
        E 104 89 29 40 -28
        E 38 99 26 59 -54
        E 46 b9 04 1d
        E 154 89 26 40 -54
        E 40 99 24 7f -4
        E 0 99 31 7f -2
        E 50 b9 04 25
        E 134 b9 04 36
        E 18 89 24 40 -4
        E 0 89 31 40 -2
        E 278 99 24 4b -51
        E 0 99 29 69
        E 4 b9 04 27
        E 114 b9 04 1a
        E 82 89 29 40
        E 3 89 24 40 -51
        E 72 b9 04 12
        E 169 b9 04 09
        E 36 99 26 7f -14
        E 0 99 29 69 16
        E 199 89 26 40 -14
        E 1 89 29 40 16
        E 280 99 29 69 -21
        E 201 89 29 40 -21
        E 254 b9 04 00
        E 25 99 29 69 -12
        E 0 99 24 6e 32
        E 202 89 29 40 -12
        E 0 89 24 40 32
        E 20 b9 04 09
        E 258 99 24 43 -12
        E 0 99 29 69 -4
        E 0 99 24 1f 79
        E 89 89 24 40 -12
        E 111 89 29 40 -4
        E 1 89 24 40 79
        E 279 99 26 7f -2
        E 0 99 29 69 24
        E 150 b9 04 00
        E 50 89 26 40 -2
        E 2 89 29 40 24
        E 278 99 29 69 -31
        E 16 b9 04 0f
        E 166 b9 04 15
        E 21 89 29 40 -31
        E 37 99 30 77 -70
        E 159 b9 04 0f
        E 42 89 30 40 -70
        E 39 99 24 7f -104
        E 0 99 2d 6d -15
        E 44 b9 04 20
        E 149 b9 04 29
        E 7 89 2d 40 -15
        E 2 89 24 40 -104
        E 38 99 30 61 -86
        E 0 99 30 1e 9
        E 91 89 30 40 -86
        E 92 b9 04 18
        E 17 89 30 40 9
        E 40 99 24 60 -114
        E 0 99 2d 6d -50
        E 178 b9 04 0f
        E 22 89 24 40 -114
        E 0 89 2d 40 -50
        E 198 b9 04 09
        E 82 90 38 7f
        E 0 99 26 7f -70
        E 0 99 29 69 -27
        E 157 b9 04 03
        E 45 89 26 40 -70
        E 0 89 29 40 -27
        E 30 b9 04 00
        E 8 80 38 00
        E 240 99 29 5b -26
        E 124 b9 04 09
        E 76 89 29 40 -26
        E 280 99 29 69 -18
        E 0 99 24 7f -15
        E 200 89 29 40 -18
        E 1 89 24 40 -15
        E 48 b9 04 0f
        E 231 99 24 4c -25
        E 0 99 29 69 -8
        E 0 99 24 1e 81
        E 104 89 24 40 -25
        E 96 89 29 40 -8
        E 0 89 24 40 81
        E 80 b9 04 09
        E 200 99 26 7f -64
        E 0 99 29 69 -4
        E 106 b9 04 03
        E 94 89 26 40 -64
        E 2 89 29 40 -4
        E 10 b9 04 00
        E 268 99 29 69 -28
        E 97 b9 04 0f
        E 103 89 29 40 -28
        E 40 99 30 60 -64
        E 200 89 30 40 -64
        E 40 99 24 7f -36
        E 0 99 2d 6d -12
        E 115 b9 04 1d
        E 85 89 2d 40 -12
        E 2 89 24 40 -36
        E 38 99 30 42 -86
        E 201 89 30 40 -86
        E 39 99 24 69 -60
        E 0 99 2d 6d -58
        E 101 b9 04 12
        E 101 89 24 40 -60
        E 0 89 2d 40 -58
        E 230 b9 04 0c
        E 48 90 37 7f
        E 0 99 26 7f -92
        E 0 99 29 69 -24
        E 116 b9 04 03
        E 9 b9 04 00
        E 75 89 26 40 -92
        E 2 89 29 40 -24
        E 38 80 37 00
        E 240 99 29 69 -44
        E 120 b9 04 09
        E 80 89 29 40 -44
        E 280 99 29 69 -41
        E 0 99 24 7c -4
        E 200 89 29 40 -41
        E 2 89 24 40 -4
        E 278 99 29 69 -46
        E 0 99 24 47 -34
        E 0 99 24 1d 56
        E 88 89 24 40 -34
        E 112 89 29 40 -46
        E 0 89 24 40 56
        E 280 99 26 7f -21
        E 0 99 29 69 3
        E 36 b9 04 00
        E 165 89 26 40 -21
        E 0 89 29 40 3
        E 279 99 29 69 -36
        E 0 99 29 18 59
        E 63 b9 04 0f
        E 31 89 29 40 -36
        E 105 89 29 40 59
        E 41 99 30 6f -55
        E 201 89 30 40 -55
        E 39 99 24 7f -66
        E 0 99 2d 6d -7
        E 191 b9 04 1d
        E 11 89 24 40 -66
        E 1 89 2d 40 -7
        E 37 99 30 66 -35
        E 0 99 30 29 44
        E 76 89 30 40 -35
        E 35 b9 04 22
        E 91 89 30 40 44
        E 38 99 24 66 -56
        E 0 99 2d 6d -50
        E 56 b9 04 18
        E 142 b9 04 0f
        E 1 89 2d 40 -50
        E 2 89 24 40 -56
        E 160 b9 04 09
        E 119 99 26 7f -56
        E 0 99 29 69 -2
        E 200 89 29 40 -2
        E 1 89 26 40 -56
        E 89 b9 04 00
        E 190 99 29 65 -29
        E 177 b9 04 06
        E 25 89 29 40 -29
        E 278 99 29 69 -13
        E 0 99 24 7f 29
        E 201 89 29 40 -13
        E 0 89 24 40 29
        E 279 99 29 69 -14
        E 0 99 24 4d 6
        E 0 99 24 1e 94
        E 86 89 24 40 6
        E 113 89 24 40 94
        E 3 89 29 40 -14
        E 278 99 26 7f -4
        E 0 99 29 69 17
        E 133 b9 04 00
        E 70 89 29 40 17
        E 1 89 26 40 -4
        E 276 99 29 69 -6
        E 96 b9 04 0c
        E 104 89 29 40 -6
        E 40 99 30 77 -45
        E 28 b9 04 12
        E 175 89 30 40 -45
        E 13 b9 04 09
        E 24 99 24 7f -50
        E 0 99 2d 6d 34
        E 178 b9 04 12
        E 22 89 2d 40 34
        E 2 89 24 40 -50
        E 38 99 30 5a
        E 104 b9 04 18
        E 98 89 30 40
        E 38 99 24 6a -47
        E 0 99 2d 6d -24
        E 158 b9 04 0f
        E 42 89 2d 40 -24
        E 3 89 24 40 -47
        E 219 b9 04 06
        E 58 99 26 78 -29
        E 0 99 29 69 8
        E 0 99 2e 7f
        E 81 b9 04 00
        E 35 b9 04 12
        E 8 b9 04 25
        E 6 b9 04 36
        E 44 b9 04 46
        E 20 b9 04 4c
        E 6 89 2e 40
        E 2 89 29 40 8
        E 1 89 26 40 -29
        E 277 99 2c 0c
        E 0 99 29 69 -2
        E 44 b9 04 4d
        E 42 b9 04 3c
        E 38 b9 04 2c
        E 18 b9 04 0c
        E 59 89 2c 40
        E 0 89 29 40 -2
        E 279 99 29 69 9
        E 0 99 24 7f 38
        E 44 b9 04 06
        E 157 89 29 40 9
        E 0 89 24 40 38
        E 279 99 24 47 -14
        E 0 99 29 69 18
        E 199 89 24 40 -14
        E 1 89 29 40 18
        E 280 99 26 7f -6
        E 0 99 29 69 35
        E 126 b9 04 00
        E 73 89 26 40 -6
        E 2 89 29 40 35
        E 279 99 29 69 -24
        E 94 b9 04 09
        E 105 89 29 40 -24
        E 41 99 30 6b -35
        E 203 89 30 40 -35
        E 37 99 24 7f -90
        E 0 99 2d 6d 6
        E 147 b9 04 15
        E 52 89 2d 40 6
        E 5 89 24 40 -90
        E 36 99 30 61 -12
        E 66 b9 04 1a
        E 136 89 30 40 -12
        E 38 99 24 66 -85
        E 0 99 2d 6d -31
        E 110 b9 04 12
        E 91 89 2d 40 -31
        E 1 89 24 40 -85
        E 177 b9 04 0c
        E 101 90 3a 7f
        E 0 99 26 7f -24
        E 0 99 29 69 3
        E 156 b9 04 03
        E 45 89 26 40 -24
        E 0 89 29 40 3
        E 39 80 3a 00
        E 8 b9 04 00
        E 232 99 29 69 -1
        E 176 b9 04 09
        E 26 89 29 40 -1
        E 278 99 29 69 -1
        E 0 99 24 7f 29
        E 202 89 29 40 -1
        E 1 89 24 40 29
        E 277 99 24 49 -16
        E 0 99 29 69 -4
        E 199 89 24 40 -16
        E 2 89 29 40 -4
        E 279 99 26 7f -24
        E 0 99 29 69 10
        E 199 89 29 40 10
        E 3 89 26 40 -24
        E 18 b9 04 00
        E 260 99 29 69 -18
        E 48 b9 04 0c
        E 151 89 29 40 -18
        E 13 b9 04 12
        E 28 99 30 77 -53
        E 197 b9 04 09
        E 3 89 30 40 -53
        E 40 99 24 7f -51
        E 0 99 2d 7f
        E 146 b9 04 15
        E 54 89 2d 40
        E 3 89 24 40 -51
        E 37 99 30 6c -11
        E 0 99 30 3b 46
        E 53 89 30 40 -11
        E 11 b9 04 1d
        E 133 89 30 40 46
        E 43 99 24 5e -56
        E 0 99 2d 7f -38
        E 143 b9 04 15
        E 56 89 2d 40 -38
        E 3 89 24 40 -56
        E 175 b9 04 09
        E 103 99 26 78 -64
        E 0 99 29 7f -16
        E 200 89 26 40 -64
        E 0 89 29 40 -16
        E 4 b9 04 00
        E 276 99 29 7f -19
        E 196 b9 04 06
        E 7 89 29 40 -19
        E 277 99 29 7f -4
        E 0 99 24 7f 41
        E 199 89 29 40 -4
        E 1 89 24 40 41
        E 280 99 24 43 -32
        E 0 99 29 7f -5
        E 200 89 24 40 -32
        E 0 89 29 40 -5
        E 280 99 26 7f -49
        E 0 99 29 7f
        E 112 b9 04 00
        E 88 89 29 40
        E 2 89 26 40 -49
        E 278 99 29 7f
        E 109 b9 04 0c
        E 91 89 29 40
        E 40 99 30 71 -81
        E 0 99 30 21 41
        E 121 89 30 40 -81
        E 79 89 30 40 41
        E 35 b9 04 03
        E 5 99 24 7f -42
        E 0 99 2d 7f 12
        E 171 b9 04 0f
        E 28 89 24 40 -42
        E 0 89 2d 40 12
        E 41 99 30 4f -47
        E 0 99 30 30 29
        E 72 89 30 40 -47
        E 127 89 30 40 29
        E 41 99 24 4e -76
        E 0 99 2d 7f -24
        E 202 89 2d 40 -24
        E 1 89 24 40 -76
        E 37 99 30 5c -16
        E 202 89 30 40 -16
        E 38 99 29 2f -39
        E 0 99 2d 7f -31
        E 200 89 2d 40 -31
        E 2 89 29 40 -39
        E 28 b9 04 03
        E 31 b9 04 00
        E 219 99 29 7f -23
        E 154 b9 04 06
        E 47 89 29 40 -23
        E 39 99 26 6b -34
        E 80 b9 04 00
        E 119 89 26 40 -34
        E 41 99 29 7f 11
        E 0 99 24 5a 43
        E 0 99 29 4e 86
        E 71 89 29 40 11
        E 126 89 29 40 86
        E 3 89 24 40 43
        E 40 99 26 5f -18
        E 0 99 26 25 74
        E 41 b9 04 0c
        E 49 89 26 40 -18
        E 112 89 26 40 74
        E 38 99 24 4b -24
        E 0 99 29 1d 13
        E 0 99 2d 7f 19
        E 197 b9 04 18
        E 2 89 24 40 -24
        E 4 89 29 40 13
        E 2 89 2d 40 19
        E 35 99 30 59 -18
        E 0 99 30 37 47
        E 63 89 30 40 -18
        E 137 89 30 40 47
        E 40 99 33 77 -53
        E 0 99 33 2b 104
        E 155 89 33 40 -53
        E 44 89 33 40 104
        E 41 99 26 53 -81
        E 128 b9 04 0f
        E 74 89 26 40 -81
        E 38 99 26 7f -40
        E 200 89 26 40 -40
        E 40 99 26 4f -69
        E 200 89 26 40 -69
        E 40 99 26 7f -37
        E 205 89 26 40 -37
        E 35 99 26 44 -29
        E 202 89 26 40 -29
        E 38 99 26 7f -36
        E 204 89 26 40 -36
        E 36 99 26 53 -21
        E 201 89 26 40 -21
        E 39 99 26 7f -15
        E 201 89 26 40 -15
        E 39 99 26 48 -40
        E 199 89 26 40 -40
        E 41 99 26 76 -19
        E 190 89 26 40 -19
        E 50 99 26 4a -67
        E 200 89 26 40 -67
        E 40 99 26 7f -17
        E 169 b9 04 15
        E 32 89 26 40 -17
        E 39 99 26 72 -35
        E 203 89 26 40 -35
        E 37 99 26 65 41
        E 203 89 26 40 41
        E 37 99 24 41 -120
        E 0 99 24 22 -27
        E 0 99 26 3f 88
        E 91 89 24 40 -120
        E 24 b9 04 1d
        E 37 89 26 40 88
        E 49 89 24 40 -27
        E 39 99 26 5d 1
        E 201 89 26 40 1
        E 39 99 26 47 -31
        E 8 b9 04 27
        E 195 89 26 40 -31
        E 37 99 26 7f 27
        E 151 b9 04 1a
        E 50 89 26 40 27
        E 39 99 24 67 -62
        E 0 99 26 46 24
        E 0 99 24 28 37
        E 97 89 24 40 -62
        E 103 89 26 40 24
        E 0 89 24 40 37
        E 40 99 26 7f 47
        E 110 89 26 40 47
        E 130 99 26 2a -81
        E 0 99 26 54 65
        E 144 89 26 40 -81
        E 56 89 26 40 65
        E 6 b9 04 20
        E 34 99 26 7a 79
        E 0 99 24 4f 97
        E 146 89 24 40 97
        E 46 89 26 40 79
        E 27 b9 04 1a
        E 21 99 24 20 5
        E 0 99 26 56 33
        E 201 89 24 40 5
        E 0 89 26 40 33
        E 39 99 26 6d 80
        E 179 89 26 40 80
        E 61 99 26 39 21
        E 0 99 26 21 91
        E 68 89 26 40 21
        E 132 89 26 40 91
        E 40 99 26 72 55
        E 0 99 24 3f 109
        E 174 89 26 40 55
        E 27 89 24 40 109
        E 39 99 26 3a -9
        E 0 99 26 20 72
        E 0 99 24 14 111
        E 81 89 26 40 -9
        E 118 89 26 40 72
        E 3 89 24 40 111
        E 35 b9 04 25
        E 3 99 26 6c 40
        E 159 b9 04 30
        E 18 89 26 40 40
        E 63 99 26 3e -21
        E 0 99 26 26 47
        E 0 99 2c 04 117
        E 44 b9 04 41
        E 22 89 26 40 -21
        E 49 b9 04 4c
        E 32 b9 04 51
        E 53 89 26 40 47
        E 0 89 2c 40 117
        E 40 99 24 7f 9
        E 0 99 31 7f 81
        E 27 b9 04 5d
        E 175 89 31 40 81
        E 1 89 24 40 9
        E 166 b9 04 64
        E 122 b9 04 54
        E 24 b9 04 44
        E 22 b9 04 34
        E 18 b9 04 22
        E 24 b9 04 12
        E 28 b9 04 00
        E 8428 b0 7b 00
        GUID {B47AA600-2DBD-4449-89A2-01832EFAA2CC}
        IGNTEMPO 0 120 4 4
        SRCCOLOR 151
        VELLANE -1 100 0
        CFGEDITVIEW 329854.512472 0.074447 59 12 0 -1 0 0 0 0.5
        KEYSNAP 0
        TRACKSEL -252
        EVTFILTER 0 -1 -1 -1 -1 0 0 0 0 -1 -1 -1 -1 0 -1 0 -1 -1
        CFGEDIT 1 1 0 1 0 0 1 1 1 1 1 0.25 320 95 2496 860 0 0 0 0 0 0 0 0 0 0.5 0 0 1 64
      >
    >
    <ITEM
      POSITION 192.00000000001864
      SNAPOFFS 0
      LENGTH 30.72
      LOOP 1
      ALLTAKES 0
      FADEIN 1 0 0 1 0 0
      FADEOUT 1 0 0 1 0 0
      MUTE 0
      SEL 0
      IGUID {5C99404D-9C2E-434E-A22A-E73E70C31FA3}
      IID 5
      NAME "02-EZdrummer-Recorded MIDI"
      VOLPAN 1 0 1 -1
      SOFFS 133.91999999999987 278.99999999999977
      PLAYRATE 1 1 0 -1 0 0.0025
      CHANMODE 0
      GUID {20828EFF-E20E-443C-A4DA-E4F240A0032A}
      RECPASS 2
      <SOURCE MIDI
        HASDATA 1 960 QN
        POOLEDEVTS {668B9D97-A0F4-40E5-A1A3-F9302C743016}
        E 15360 99 24 4a 32
        E 0 99 29 5a 50
        E 90 89 24 40 32
        E 112 89 29 40 50
        E 38 99 24 21 -116
        E 200 89 24 40 -116
        E 40 99 29 51 16
        E 200 89 29 40 16
        E 280 99 26 7f 24
        E 0 99 29 7f 46
        E 200 89 26 40 24
        E 0 89 29 40 46
        E 280 99 29 57 -4
        E 200 89 29 40 -4
        E 280 99 29 66 19
        E 0 99 24 51 38
        E 200 89 24 40 38
        E 1 89 29 40 19
        E 279 99 29 5a 2
        E 0 99 24 3b 34
        E 198 89 24 40 34
        E 4 89 29 40 2
        E 38 99 24 1a -6
        E 198 89 24 40 -6
        E 42 99 29 6b 59
        E 0 99 26 6c 60
        E 199 89 29 40 59
        E 1 89 26 40 60
        E 280 99 29 6a 36
        E 200 89 29 40 36
        E 280 99 29 78 74
        E 0 99 24 49 88
        E 146 89 24 40 88
        E 54 89 29 40 74
        E 40 99 24 20 -5
        E 201 89 24 40 -5
        E 39 99 29 4f 40
        E 202 89 29 40 40
        E 278 99 26 7e 32
        E 0 99 29 7e 50
        E 199 89 26 40 32
        E 1 89 29 40 50
        E 280 99 29 4d 20
        E 200 89 29 40 20
        E 280 99 29 7b 14
        E 0 99 24 53 18
        E 200 89 29 40 14
        E 2 89 24 40 18
        E 278 99 24 40 -10
        E 0 99 29 72 8
        E 182 89 24 40 -10
        E 18 89 29 40 8
        E 40 99 24 20 -66
        E 200 89 24 40 -66
        E 40 99 26 7d 26
        E 0 99 29 7b 38
        E 200 89 26 40 26
        E 0 89 29 40 38
        E 280 99 29 69 11
        E 201 89 29 40 11
        E 279 99 24 51 36
        E 0 99 29 77 44
        E 200 89 24 40 36
        E 0 89 29 40 44
        E 280 99 24 35 -116
        E 0 99 24 14 8
        E 0 99 29 68 14
        E 122 89 24 40 -116
        E 76 89 24 40 8
        E 2 89 29 40 14
        E 280 99 26 78 20
        E 0 99 29 7c 38
        E 202 89 26 40 20
        E 2 89 29 40 38
        E 276 99 29 5d 49
        E 203 89 29 40 49
        E 277 99 24 4a 60
        E 0 99 29 7f 76
        E 168 89 24 40 60
        E 32 89 29 40 76
        E 40 99 24 21 -10
        E 198 89 24 40 -10
        E 42 99 29 63 26
        E 202 89 29 40 26
        E 278 99 26 7f 68
        E 0 99 29 7f 76
        E 200 89 26 40 68
        E 0 89 29 40 76
        E 280 99 29 5b 56
        E 198 89 29 40 56
        E 282 99 29 67 56
        E 0 99 24 4f 58
        E 200 89 29 40 56
        E 0 89 24 40 58
        E 280 99 24 3b -44
        E 0 99 29 62 28
        E 0 99 24 1a 75
        E 118 89 24 40 -44
        E 82 89 29 40 28
        E 3 89 24 40 75
        E 277 99 26 7f 40
        E 0 99 29 7f 58
        E 202 89 26 40 40
        E 2 89 29 40 58
        E 276 99 29 5c 50
        E 200 89 29 40 50
        E 280 99 24 4b 54
        E 0 99 29 73 60
        E 156 89 24 40 54
        E 44 89 29 40 60
        E 40 99 24 1b -30
        E 200 89 24 40 -30
        E 40 99 29 66 28
        E 202 89 29 40 28
        E 278 99 26 76 30
        E 0 99 29 7f 68
        E 200 89 26 40 30
        E 2 89 29 40 68
        E 278 99 29 75 43
        E 201 89 29 40 43
        E 279 99 24 51 70
        E 0 99 29 7f 74
        E 200 89 24 40 70
        E 0 89 29 40 74
        E 280 99 24 44 40
        E 0 99 29 6e 50
        E 184 89 24 40 40
        E 16 89 29 40 50
        E 40 99 24 1d -14
        E 200 89 24 40 -14
        E 40 99 26 76 62
        E 0 99 29 7f 84
        E 200 89 26 40 62
        E 2 89 29 40 84
        E 278 99 29 7f 74
        E 200 89 29 40 74
        E 280 99 24 4b 98
        E 0 99 29 7f 104
        E 200 89 24 40 98
        E 0 89 29 40 104
        E 280 99 24 3d 62
        E 0 99 29 6e 100
        E 184 89 24 40 62
        E 16 89 29 40 100
        E 40 99 24 24 8
        E 200 89 24 40 8
        E 40 99 29 7c 108
        E 0 99 26 5f 116
        E 200 89 29 40 108
        E 0 89 26 40 116
        E 280 99 29 74 118
        E 200 89 29 40 118
        E 520 99 29 7f -106
        E 0 99 24 4c -86
        E 0 99 24 1c 66
        E 150 89 24 40 -86
        E 47 89 24 40 66
        E 5 89 29 40 -106
        E 38 99 29 66 80
        E 200 89 29 40 80
        E 280 99 29 7f 94
        E 0 99 26 7c 99
        E 200 89 29 40 94
        E 1 89 26 40 99
        E 279 99 29 67 62
        E 200 89 29 40 62
        E 280 99 29 7f 36
        E 0 99 24 4c 86
        E 200 89 29 40 36
        E 0 89 24 40 86
        E 280 99 29 7a 56
        E 0 99 24 3d 60
        E 176 89 24 40 60
        E 26 89 29 40 56
        E 38 99 24 1e -2
        E 200 89 24 40 -2
        E 40 99 26 7b 92
        E 0 99 29 7f 96
        E 200 89 29 40 96
        E 2 89 26 40 92
        E 278 99 29 65 102
        E 198 89 29 40 102
        E 282 99 24 49 94
        E 0 99 29 77 104
        E 200 89 24 40 94
        E 0 89 29 40 104
        E 280 99 24 3b 62
        E 0 99 29 6d 110
        E 200 89 24 40 62
        E 2 89 29 40 110
        E 278 99 24 0d -80
        E 0 99 26 69 106
        E 200 89 24 40 -80
        E 0 89 26 40 106
        E 40 99 29 7f -112
        E 200 89 29 40 -112
        E 40 99 29 7f 98
        E 200 89 29 40 98
        E 280 99 24 48 102
        E 0 99 29 7b 108
        E 200 89 24 40 102
        E 0 89 29 40 108
        E 280 99 24 39 36
        E 0 99 29 74 102
        E 156 89 24 40 36
        E 44 89 29 40 102
        E 40 99 24 18 -48
        E 202 89 24 40 -48
        E 38 99 26 7d 100
        E 200 89 26 40 100
        E 40 99 29 7f -114
        E 201 89 29 40 -114
        E 39 99 29 70 88
        E 200 89 29 40 88
        E 40 99 26 36 -46
        E 200 89 26 40 -46
        E 40 99 24 51 20
        E 0 99 29 71 44
        E 141 89 24 40 20
        E 59 89 29 40 44
        E 40 99 24 1d -76
        E 198 89 24 40 -76
        E 42 99 29 78 60
        E 200 89 29 40 60
        E 280 99 26 7f 79
        E 0 99 29 7f 102
        E 201 89 26 40 79
        E 0 89 29 40 102
        E 279 99 29 53 84
        E 200 89 29 40 84
        E 280 99 24 4d 52
        E 0 99 29 7f 60
        E 166 89 24 40 52
        E 38 89 29 40 60
        E 36 99 24 18 -20
        E 200 89 24 40 -20
        E 40 99 24 1c -8
        E 0 99 29 71 66
        E 199 89 24 40 -8
        E 1 89 29 40 66
        E 280 99 26 7f 38
        E 0 99 29 7f 74
        E 200 89 26 40 38
        E 0 89 29 40 74
        E 280 99 29 7f 58
        E 202 89 29 40 58
        E 38 99 30 7f 18
        E 112 89 30 40 18
        E 128 99 30 1f -108
        E 0 99 2d 7f 20
        E 0 99 24 53 22
        E 200 89 2d 40 20
        E 2 89 30 40 -108
        E 0 89 24 40 22
        E 278 99 29 7f 14
        E 200 89 29 40 14
        E 280 99 26 7f -29
        E 0 99 29 7f 12
        E 201 89 26 40 -29
        E 0 89 29 40 12
        E 279 99 29 59 22
        E 202 89 29 40 22
        E 278 99 24 4d
        E 0 99 29 7f 6
        E 200 89 24 40
        E 0 89 29 40 6
        E 280 99 24 3a
        E 0 99 29 7f 12
        E 154 89 24 40
        E 46 89 29 40 12
        E 40 99 24 13 -84
        E 200 89 24 40 -84
        E 40 99 26 7f 21
        E 0 99 29 7f 29
        E 201 89 26 40 21
        E 0 89 29 40 29
        E 279 99 29 78 24
        E 202 89 29 40 24
        E 278 99 24 4d 28
        E 0 99 29 7f 36
        E 199 89 29 40 36
        E 1 89 24 40 28
        E 280 99 24 3b -4
        E 0 99 29 7f 40
        E 199 89 29 40 40
        E 3 89 24 40 -4
        E 38 99 24 1e -26
        E 200 89 24 40 -26
        E 40 99 26 7f 49
        E 0 99 29 7f 66
        E 201 89 26 40 49
        E 1 89 29 40 66
        E 278 99 29 70 64
        E 200 89 29 40 64
        E 280 99 24 47 32
        E 0 99 29 7f 35
        E 199 89 24 40 32
        E 6 89 29 40 35
        E 275 99 24 3b -32
        E 0 99 29 6a 68
        E 199 89 24 40 -32
        E 1 89 29 40 68
        E 40 99 24 17 -59
        E 201 89 24 40 -59
        E 39 99 26 7f 60
        E 0 99 29 7f 68
        E 200 89 26 40 60
        E 0 89 29 40 68
        E 280 99 29 7f 19
        E 201 89 29 40 19
        E 39 99 30 7f 16
        E 0 99 24 4e 108
        E 90 89 24 40 108
        E 110 89 30 40 16
        E 40 99 24 27 -40
        E 0 99 2d 7f
        E 198 89 24 40 -40
        E 2 89 2d 40
        E 280 99 29 7f 5
        E 201 89 29 40 5
        E 279 99 26 7f 10
        E 0 99 29 7f 32
        E 199 89 26 40 10
        E 0 89 29 40 32
        E 281 99 29 7f 16
        E 200 89 29 40 16
        E 280 99 29 7f 41
        E 0 99 24 4e 52
        E 201 89 29 40 41
        E 1 89 24 40 52
        E 278 99 24 3d 14
        E 0 99 29 7f 30
        E 180 89 24 40 14
        E 20 89 29 40 30
        E 40 99 24 19 -45
        E 203 89 24 40 -45
        E 37 99 26 7f 4
        E 0 99 29 7f 22
        E 202 89 26 40 4
        E 0 89 29 40 22
        E 278 99 29 7f 26
        E 202 89 29 40 26
        E 278 99 29 7f 45
        E 0 99 24 50 53
        E 200 89 24 40 53
        E 1 89 29 40 45
        E 279 99 24 33 -29
        E 0 99 29 7f 49
        E 201 89 24 40 -29
        E 0 89 29 40 49
        E 279 99 29 7f 69
        E 0 99 26 7f 73
        E 201 89 26 40 73
        E 1 89 29 40 69
        E 278 99 29 78 68
        E 202 89 29 40 68
        E 278 99 29 7f 68
        E 0 99 24 50 72
        E 200 89 29 40 68
        E 0 89 24 40 72
        E 280 99 24 3d 58
        E 0 99 29 7f 63
        E 144 89 24 40 58
        E 57 89 29 40 63
        E 39 99 24 1a -36
        E 200 89 24 40 -36
        E 40 99 26 7f 74
        E 0 99 29 7f 82
        E 199 89 26 40 74
        E 3 89 29 40 82
        E 278 99 29 7f 39
        E 201 89 29 40 39
        E 39 99 30 7f 16
        E 200 89 30 40 16
        E 40 99 24 53 -66
        E 0 99 24 26 13
        E 0 99 2d 7f 25
        E 77 89 24 40 -66
        E 121 89 24 40 13
        E 3 89 2d 40 25
        E 279 99 2d 5a -86
        E 199 89 2d 40 -86
        E 281 99 29 7f -6
        E 0 99 26 7f -4
        E 200 89 29 40 -6
        E 0 89 26 40 -4
        E 280 99 29 7d -8
        E 199 89 29 40 -8
        E 281 99 24 53 11
        E 0 99 29 7f 28
        E 0 99 24 24 112
        E 99 89 24 40 11
        E 100 89 24 40 112
        E 1 89 29 40 28
        E 280 99 29 7f 23
        E 0 99 24 47 54
        E 134 89 24 40 54
        E 66 89 29 40 23
        E 40 99 24 1e -50
        E 200 89 24 40 -50
        E 40 99 26 7f 38
        E 0 99 29 7f 62
        E 200 89 29 40 62
        E 1 89 26 40 38
        E 279 99 29 7f 47
        E 201 89 29 40 47
        E 279 99 29 7f 66
        E 0 99 24 4b 76
        E 199 89 24 40 76
        E 1 89 29 40 66
        E 280 99 29 7f 52
        E 0 99 24 3a 70
        E 139 89 24 40 70
        E 61 89 29 40 52
        E 40 99 24 1b -28
        E 198 89 24 40 -28
        E 42 99 26 7b 68
        E 0 99 29 7f 84
        E 199 89 26 40 68
        E 1 89 29 40 84
        E 280 99 29 7f 90
        E 202 89 29 40 90
        E 278 99 24 50 42
        E 0 99 29 7f 62
        E 199 89 29 40 62
        E 1 89 24 40 42
        E 280 99 24 39 19
        E 0 99 29 7f 58
        E 171 89 24 40 19
        E 28 89 29 40 58
        E 41 99 24 1a -48
        E 200 89 24 40 -48
        E 40 99 26 7f 87
        E 0 99 29 7f 91
        E 201 89 26 40 87
        E 0 89 29 40 91
        E 279 99 29 7f 42
        E 200 89 29 40 42
        E 40 99 30 7f 9
        E 201 89 30 40 9
        E 39 99 24 52 -86
        E 0 99 24 24 -2
        E 0 99 2d 7f 14
        E 82 89 24 40 -86
        E 118 89 24 40 -2
        E 2 89 2d 40 14
        E 38 99 24 43 59
        E 201 89 24 40 59
        E 39 99 2d 7f -24
        E 200 89 2d 40 -24
        E 280 99 29 7f 3
        E 0 99 26 7b 7
        E 200 89 29 40 3
        E 1 89 26 40 7
        E 279 99 29 7c -10
        E 200 89 29 40 -10
        E 280 99 24 4c 20
        E 0 99 29 7f 30
        E 199 89 29 40 30
        E 1 89 24 40 20
        E 280 99 24 3e 22
        E 0 99 29 7f 46
        E 130 89 24 40 22
        E 70 89 29 40 46
        E 40 99 24 1c -86
        E 200 89 24 40 -86
        E 40 99 26 7f 21
        E 0 99 29 7f 52
        E 201 89 26 40 21
        E 1 89 29 40 52
        E 278 99 29 7f 28
        E 202 89 29 40 28
        E 278 99 29 7f 68
        E 0 99 24 4d 70
        E 116 89 24 40 70
        E 84 89 29 40 68
        E 40 99 24 1f -52
        E 199 89 24 40 -52
        E 41 99 29 72 56
        E 201 89 29 40 56
        E 225 b9 04 12
        E 54 99 26 64 58
        E 0 99 29 7f 78
        E 12 b9 04 22
        E 60 b9 04 32
        E 128 89 29 40 78
        E 2 89 26 40 58
        E 87 b9 04 22
        E 84 b9 04 12
        E 107 99 29 7f 48
        E 38 b9 04 09
        E 162 89 29 40 48
        E 23 b9 04 0f
        E 257 99 24 50 -25
        E 0 99 29 7f 46
        E 39 b9 04 03
        E 32 b9 04 00
        E 129 89 24 40 -25
        E 0 89 29 40 46
        E 280 99 29 68 59
        E 201 89 29 40 59
        E 279 99 26 7f 63
        E 0 99 29 7f 86
        E 200 89 29 40 86
        E 3 89 26 40 63
        E 277 99 29 7f 42
        E 201 89 29 40 42
        E 39 99 30 7f -11
        E 0 99 24 52 92
        E 79 89 24 40 92
        E 124 89 30 40 -11
        E 37 99 24 27 -67
        E 0 99 2d 7f
        E 192 b9 04 0f
        E 6 89 24 40 -67
        E 2 89 2d 40
        E 40 99 30 72 -34
        E 0 99 30 35 32
        E 62 89 30 40 -34
        E 137 89 30 40 32
        E 9 b9 04 00
        E 32 99 2d 7f -77
        E 0 99 24 54 111
        E 109 89 24 40 111
        E 91 89 2d 40 -77
        E 40 99 24 20 -18
        E 197 89 24 40 -18
        E 43 99 26 7f 6
        E 0 99 29 7f 14
        E 199 89 26 40 6
        E 0 89 29 40 14
        E 281 99 29 7d -9
        E 203 89 29 40 -9
        E 277 99 24 5c -21
        E 0 99 29 7f 3
        E 200 89 24 40 -21
        E 1 89 29 40 3
        E 279 99 24 43 10
        E 0 99 29 7f 12
        E 171 89 24 40 10
        E 26 89 29 40 12
        E 43 99 24 1d -54
        E 198 89 24 40 -54
        E 42 99 26 7f 3
        E 0 99 29 7f 26
        E 200 89 29 40 26
        E 1 89 26 40 3
        E 279 99 29 6e 27
        E 200 89 29 40 27
        E 280 99 24 4d 43
        E 0 99 29 7f 56
        E 201 89 24 40 43
        E 1 89 29 40 56
        E 278 99 24 40 -50
        E 0 99 29 7f 22
        E 0 99 24 1e 71
        E 119 89 24 40 -50
        E 80 89 29 40 22
        E 1 89 24 40 71
        E 280 99 26 6c 56
        E 0 99 29 7f 67
        E 199 89 26 40 56
        E 3 89 29 40 67
        E 278 99 29 7f 61
        E 201 89 29 40 61
        E 279 99 24 52 26
        E 0 99 29 7f 48
        E 199 89 29 40 48
        E 1 89 24 40 26
        E 280 99 24 43 -11
        E 0 99 29 7f 24
        E 170 89 24 40 -11
        E 31 89 29 40 24
        E 39 99 24 17 -79
        E 201 89 24 40 -79
        E 39 99 26 7f 10
        E 0 99 29 7f 38
        E 201 89 26 40 10
        E 0 89 29 40 38
        E 279 99 29 7f 35
        E 203 89 29 40 35
        E 37 99 30 7b -15
        E 0 99 24 53 91
        E 0 99 30 1f 99
        E 76 89 24 40 91
        E 36 89 30 40 -15
        E 87 89 30 40 99
        E 41 99 24 25 -70
        E 0 99 2d 7f 7
        E 199 89 24 40 -70
        E 1 89 2d 40 7
        E 280 99 29 7f 26
        E 0 99 24 4a 90
        E 93 89 24 40 90
        E 108 89 29 40 26
        E 39 99 24 1d -54
        E 197 89 24 40 -54
        E 43 99 24 30 -6
        E 0 99 29 7f 37
        E 0 99 26 7f 50
        E 199 89 26 40 50
        E 2 89 24 40 -6
        E 0 89 29 40 37
        E 279 99 29 7f 17
        E 200 89 29 40 17
        E 280 99 24 51 -31
        E 0 99 29 7f 17
        E 200 89 29 40 17
        E 1 89 24 40 -31
        E 279 99 24 3d 16
        E 0 99 29 7f 33
        E 145 89 24 40 16
        E 56 89 29 40 33
        E 39 99 24 1b -78
        E 200 89 24 40 -78
        E 40 99 26 7f 8
        E 0 99 29 7f 31
        E 199 89 26 40 8
        E 1 89 29 40 31
        E 280 99 29 7f 10
        E 200 89 29 40 10
        E 40 99 30 7f -27
        E 0 99 24 54 32
        E 87 89 24 40 32
        E 113 89 30 40 -27
        E 40 99 24 24 -118
        E 0 99 2d 7f 7
        E 197 89 24 40 -118
        E 6 89 2d 40 7
        E 37 99 24 47 -41
        E 0 99 24 1f 43
        E 83 89 24 40 -41
        E 117 89 24 40 43
        E 40 99 2d 60 -69
        E 200 89 2d 40 -69
        E 280 99 26 7f -9
        E 0 99 29 7f 26
        E 199 89 29 40 26
        E 1 89 26 40 -9
        E 280 99 29 7f 5
        E 200 89 29 40 5
        E 280 99 24 5a 8
        E 0 99 29 7f 32
        E 199 89 24 40 8
        E 0 89 29 40 32
        E 281 99 24 46 15
        E 0 99 29 7f 41
        E 148 89 24 40 15
        E 52 89 29 40 41
        E 40 99 24 1e -75
        E 198 89 24 40 -75
        E 42 99 26 7f -7
        E 0 99 29 7f 48
        E 200 89 29 40 48
        E 2 89 26 40 -7
        E 278 99 29 7f 43
        E 0 99 24 3b 101
        E 200 89 29 40 43
        E 0 89 24 40 101
        E 40 99 30 7f 87
        E 89 89 30 40 87
        E 151 99 30 2b -61
        E 0 99 24 5e 27
        E 0 99 2d 7f 79
        E 200 89 30 40 -61
        E 0 89 24 40 27
        E 0 89 2d 40 79
        E 206 b9 04 00
        E 28 b9 04 00
        E 46 99 1a 1a -73
        E 0 99 1a 42 -42
        E 0 99 30 7a -39
        E 0 99 2d 7f 21
        E 28 89 1a 40 -73
        E 169 89 1a 40 -42
        E 4 89 2d 40 21
        E 1 89 30 40 -39
        E 38 99 24 4d -107
        E 0 99 24 23 -27
        E 78 89 24 40 -107
        E 120 89 24 40 -27
        E 42 99 26 6f 42
        E 0 99 29 7f 45
        E 200 89 26 40 42
        E 2 89 29 40 45
        E 278 99 29 7f 55
        E 200 89 29 40 55
        E 280 99 29 7f 59
        E 0 99 24 56 99
        E 200 89 29 40 59
        E 0 89 24 40 99
        E 280 99 24 3a 35
        E 0 99 29 7f 46
        E 168 89 24 40 35
        E 33 89 29 40 46
        E 39 99 24 19 -37
        E 200 89 24 40 -37
        E 40 99 26 7f 15
        E 0 99 29 7f 63
        E 203 89 26 40 15
        E 0 89 29 40 63
        E 277 99 29 7f 65
        E 200 89 29 40 65
        E 40 99 26 4a -1
        E 200 89 26 40 -1
        E 40 99 24 56 -22
        E 0 99 29 7f 59
        E 199 89 24 40 -22
        E 2 89 29 40 59
        E 279 99 24 37 -69
        E 0 99 29 7f 65
        E 198 89 24 40 -69
        E 3 89 29 40 65
        E 39 99 24 16 -109
        E 201 89 24 40 -109
        E 39 99 26 7c 63
        E 0 99 29 7f 85
        E 200 89 26 40 63
        E 0 89 29 40 85
        E 280 99 29 7f 83
        E 200 89 29 40 83
        E 280 99 24 4d 91
        E 0 99 29 7f 107
        E 200 89 24 40 91
        E 0 89 29 40 107
        E 280 99 24 3c 31
        E 0 99 29 7f 105
        E 122 89 24 40 31
        E 78 89 29 40 105
        E 40 99 24 1c -87
        E 200 89 24 40 -87
        E 40 99 26 7f 107
        E 200 89 26 40 107
        E 40 99 29 7f -102
        E 199 89 29 40 -102
        E 281 99 29 7f -118
        E 0 99 30 7f 71
        E 199 89 29 40 -118
        E 3 89 30 40 71
        E 38 99 24 6c -5
        E 0 99 2d 7f 117
        E 200 89 24 40 -5
        E 0 89 2d 40 117
        E 280 99 24 43 -105
        E 0 99 2d 7f 81
        E 200 89 24 40 -105
        E 1 89 2d 40 81
        E 279 99 26 7f 54
        E 0 99 29 7f 95
        E 89 89 26 40 54
        E 114 89 29 40 95
        E 37 99 26 35 -95
        E 198 89 26 40 -95
        E 42 99 29 7f 91
        E 203 89 29 40 91
        E 277 99 29 7f 91
        E 0 99 24 4e 113
        E 200 89 29 40 91
        E 1 89 24 40 113
        E 279 99 29 7f 91
        E 0 99 24 3e 95
        E 158 89 24 40 95
        E 44 89 29 40 91
        E 38 99 24 1f 15
        E 198 89 24 40 15
        E 42 99 26 7f 67
        E 0 99 29 7f 95
        E 200 89 26 40 67
        E 1 89 29 40 95
        E 279 99 29 7f 91
        E 200 89 29 40 91
        E 280 99 24 50 71
        E 0 99 29 7f 89
        E 202 89 24 40 71
        E 0 89 29 40 89
        E 278 99 24 3e 10
        E 0 99 29 7f 101
        E 199 89 24 40 10
        E 1 89 29 40 101
        E 40 99 24 20 -6
        E 201 89 24 40 -6
        E 39 99 26 7e 110
        E 201 89 26 40 110
        E 39 99 29 7f -113
        E 200 89 29 40 -113
        E 280 99 29 7f -93
        E 200 89 29 40 -93
        E 40 99 24 4a 59
        E 0 99 29 7f 91
        E 200 89 24 40 59
        E 1 89 29 40 91
        E 39 99 24 31 113
        E 140 89 24 40 113
        E 100 99 24 0a 17
        E 0 99 29 7f 91
        E 198 89 24 40 17
        E 2 89 29 40 91
        E 280 99 26 7f 67
        E 0 99 29 7f 106
        E 199 89 29 40 106
        E 3 89 26 40 67
        E 278 99 29 7f 61
        E 200 89 29 40 61
        E 40 99 30 7f 32
        E 111 89 30 40 32
        E 129 99 30 25 -95
        E 0 99 24 58 -22
        E 0 99 2d 7f 65
        E 200 89 2d 40 65
        E 1 89 30 40 -95
        E 2 89 24 40 -22
        E 2 b9 04 03
        E 35 99 1a 27 -33
        E 0 99 30 6d 17
        E 0 99 30 28 102
        E 85 89 30 40 17
        E 48 b9 04 06
        E 66 89 30 40 102
        E 1 89 1a 40 -33
        E 40 99 2d 7f 20
        E 0 99 24 49 55
        E 17 b9 04 00
        E 71 89 24 40 55
        E 113 89 2d 40 20
        E 39 99 24 22 -97
        E 202 89 24 40 -97
        E 38 99 26 73 19
        E 0 99 29 7f 47
        E 200 89 26 40 19
        E 4 89 29 40 47
        E 276 99 29 7f 31
        E 200 89 29 40 31
        E 280 99 29 7f 31
        E 0 99 24 53 41
        E 200 89 29 40 31
        E 0 89 24 40 41
        E 280 99 24 3d 58
        E 0 99 29 7f 58
        E 149 89 24 40 58
        E 51 89 29 40 58
        E 40 99 24 1c -31
        E 200 89 24 40 -31
        E 40 99 26 78 45
        E 0 99 29 7f 63
        E 200 89 26 40 45
        E 0 89 29 40 63
        E 280 99 29 7f 47
        E 200 89 29 40 47
        E 40 99 2d 7f -23
        E 203 89 2d 40 -23
        E 37 99 24 5d 11
        E 0 99 2d 7f 15
        E 200 89 24 40 11
        E 2 89 2d 40 15
        E 278 99 2d 7f 23
        E 0 99 24 48 77
        E 184 89 24 40 77
        E 16 89 2d 40 23
        E 40 99 24 28 23
        E 200 89 24 40 23
        E 40 99 2d 7f -73
        E 0 99 26 65 103
        E 62 89 26 40 103
        E 138 89 2d 40 -73
        E 40 99 26 4b -70
        E 199 89 26 40 -70
        E 41 99 29 7f -83
        E 201 89 29 40 -83
        E 39 99 26 6e 100
        E 201 89 26 40 100
        E 39 99 29 7f 49
        E 200 89 29 40 49
        E 280 99 29 7f 99
        E 201 89 29 40 99
        E 39 99 24 37 -79
        E 203 89 24 40 -79
        E 37 99 24 47 55
        E 200 89 24 40 55
        E 40 99 26 6b -98
        E 0 99 29 7f -75
        E 199 89 26 40 -98
        E 1 89 29 40 -75
        E 280 99 29 7f -86
        E 199 89 29 40 -86
        E 281 99 24 4f -107
        E 0 99 29 7f -85
        E 200 89 24 40 -107
        E 0 89 29 40 -85
        E 40 99 24 30 91
        E 200 89 24 40 91
        E 40 99 29 75 -61
        E 200 89 29 40 -61
        E 280 99 24 3f -102
        E 0 99 29 7f -82
        E 201 89 24 40 -102
        E 0 89 29 40 -82
        E 279 99 29 4f -9
        E 200 89 29 40 -9
        E 4840 99 29 7f -6
        E 0 99 24 50 21
        E 201 89 29 40 -6
        E 1 89 24 40 21
        E 278 99 29 7f -55
        E 0 99 24 3a -47
        E 200 89 24 40 -47
        E 2 89 29 40 -55
        E 38 99 24 1e -79
        E 200 89 24 40 -79
        E 40 99 26 7f -59
        E 0 99 29 7f -21
        E 200 89 26 40 -59
        E 0 89 29 40 -21
        E 280 99 29 7f -73
        E 0 99 30 41 81
        E 200 89 29 40 -73
        E 0 89 30 40 81
        E 40 99 24 57 74
        E 199 89 24 40 74
        E 41 99 2d 7f -85
        E 202 89 2d 40 -85
        E 278 99 29 42 -119
        E 0 99 2d 18 -105
        E 200 89 29 40 -119
        E 2 89 2d 40 -105
        E 278 99 26 7f -89
        E 0 99 29 7f -69
        E 200 89 26 40 -89
        E 0 89 29 40 -69
        E 280 99 29 7f -79
        E 201 89 29 40 -79
        E 279 99 24 53 -77
        E 0 99 29 7f -49
        E 200 89 24 40 -77
        E 2 89 29 40 -49
        E 278 99 24 3b -101
        E 0 99 29 7f -55
        E 0 99 24 23 17
        E 116 89 24 40 -101
        E 84 89 29 40 -55
        E 0 89 24 40 17
        E 280 99 26 7f -69
        E 0 99 29 7f -30
        E 199 89 29 40 -30
        E 1 89 26 40 -69
        E 280 99 29 7f -37
        E 200 89 29 40 -37
        E 280 99 24 58 -83
        E 0 99 29 7f -35
        E 200 89 29 40 -35
        E 2 89 24 40 -83
        E 278 99 24 3d -103
        E 0 99 29 7f -17
        E 0 99 24 1f 15
        E 114 89 24 40 -103
        E 84 89 24 40 15
        E 2 89 29 40 -17
        E 280 99 29 7f -11
        E 200 89 29 40 -11
        E 280 99 29 7f 23
        E 200 89 29 40 23
        E 280 99 24 4c 35
        E 0 99 29 7f 69
        E 200 89 24 40 35
        E 0 89 29 40 69
        E 280 99 24 3d 17
        E 0 99 29 7f 83
        E 170 89 24 40 17
        E 32 89 29 40 83
        E 38 99 24 1d -51
        E 198 89 24 40 -51
        E 42 99 26 6c 89
        E 0 99 29 7f 105
        E 78 89 26 40 89
        E 122 89 29 40 105
        E 40 99 26 3d -73
        E 200 89 26 40 -73
        E 40 99 29 7f 47
        E 202 89 29 40 47
        E 38 99 30 7f -5
        E 200 89 30 40 -5
        E 40 99 24 5f -55
        E 0 99 2d 7f 39
        E 200 89 24 40 -55
        E 0 89 2d 40 39
        E 280 99 29 3d 1
        E 0 99 2d 1b 15
        E 202 89 29 40 1
        E 0 89 2d 40 15
        E 278 99 26 7f 29
        E 0 99 29 7f 53
        E 202 89 26 40 29
        E 0 89 29 40 53
        E 278 99 29 7f 41
        E 200 89 29 40 41
        E 280 99 24 56 39
        E 0 99 29 7f 53
        E 200 89 24 40 39
        E 0 89 29 40 53
        E 280 99 24 3d 49
        E 0 99 29 7f 93
        E 146 89 24 40 49
        E 54 89 29 40 93
        E 40 99 24 1f -43
        E 200 89 24 40 -43
        E 40 99 26 7f 39
        E 0 99 29 7f 85
        E 200 89 29 40 85
        E 2 89 26 40 39
        E 278 99 29 7f 71
        E 200 89 29 40 71
        E 280 99 24 4d 75
        E 0 99 29 7f 85
        E 200 89 24 40 75
        E 2 89 29 40 85
        E 278 99 29 7f 85
        E 0 99 24 3a 87
        E 190 89 24 40 87
        E 12 89 29 40 85
        E 38 99 24 19 41
        E 198 89 24 40 41
        E 42 99 26 7f 69
        E 0 99 29 7f 111
        E 200 89 29 40 111
        E 2 89 26 40 69
        E 278 99 29 7f 117
        E 200 89 29 40 117
        E 280 99 24 51 59
        E 0 99 29 7f 101
        E 200 89 29 40 101
        E 2 89 24 40 59
        E 278 99 24 37 22
        E 0 99 29 7f 74
        E 149 89 24 40 22
        E 50 89 29 40 74
        E 41 99 24 18 -67
        E 200 89 24 40 -67
        E 40 99 26 7b 65
        E 0 99 29 7f 103
        E 200 89 26 40 65
        E 0 89 29 40 103
        E 280 99 29 7f 59
        E 201 89 29 40 59
        E 39 99 30 7f -3
        E 200 89 30 40 -3
        E 40 99 24 62 -59
        E 0 99 2d 7f 47
        E 200 89 24 40 -59
        E 0 89 2d 40 47
        E 280 99 29 7f 65
        E 200 89 29 40 65
        E 40 99 26 7f -95
        E 202 89 26 40 -95
        E 38 99 29 7f 61
        E 200 89 29 40 61
        E 280 99 29 7f 73
        E 200 89 29 40 73
        E 280 99 24 5a 77
        E 0 99 29 7f 81
        E 200 89 24 40 77
        E 0 89 29 40 81
        E 280 99 24 45 55
        E 0 99 29 7f 89
        E 114 89 24 40 55
        E 88 89 29 40 89
        E 38 99 24 22 -69
        E 198 89 24 40 -69
        E 42 99 26 7f 19
        E 0 99 29 7f 66
        E 200 89 26 40 19
        E 1 89 29 40 66
        E 279 99 29 7f 61
        E 200 89 29 40 61
        E 280 99 24 52 23
        E 0 99 29 7f 67
        E 200 89 29 40 67
        E 2 89 24 40 23
        E 278 99 24 3d 33
        E 0 99 29 7f 63
        E 144 89 24 40 33
        E 56 89 29 40 63
        E 40 99 24 1f -61
        E 200 89 24 40 -61
        E 40 99 26 7c 53
        E 0 99 29 7f 107
        E 200 89 26 40 53
        E 0 89 29 40 107
        E 280 99 29 7f 91
        E 200 89 29 40 91
        E 280 99 24 56 87
        E 200 89 24 40 87
        E 40 99 29 7f -115
        E 200 89 29 40 -115
        E 40 99 24 3c 47
        E 0 99 29 7f 103
        E 144 89 24 40 47
        E 55 89 29 40 103
        E 41 99 24 19 -47
        E 200 89 24 40 -47
        E 40 99 26 7f 63
        E 0 99 29 7f 105
        E 200 89 26 40 63
        E 0 89 29 40 105
        E 280 99 29 7f 69
        E 181 b9 04 00
        E 19 89 29 40 69
        E 40 99 1a 34 -57
        E 0 99 30 77 -27
        E 200 89 1a 40 -57
        E 0 89 30 40 -27
        E 40 99 24 70 -45
        E 0 99 2d 7f 85
        E 200 89 24 40 -45
        E 0 89 2d 40 85
        E 40 99 24 49 113
        E 200 89 24 40 113
        E 40 99 2d 7f -3
        E 200 89 2d 40 -3
        E 280 99 26 7f 7
        E 0 99 29 7f 37
        E 200 89 26 40 7
        E 0 89 29 40 37
        E 280 99 29 7f 31
        E 200 89 29 40 31
        E 280 99 24 55 -33
        E 0 99 29 7f 31
        E 200 89 29 40 31
        E 2 89 24 40 -33
        E 278 99 24 40 -69
        E 0 99 29 7f 29
        E 200 89 29 40 29
        E 2 89 24 40 -69
        E 278 99 26 7c 9
        E 0 99 29 7f 49
        E 200 89 26 40 9
        E 1 89 29 40 49
        E 279 99 29 7f 59
        E 202 89 29 40 59
        E 278 99 24 53 57
        E 0 99 29 7f 79
        E 200 89 24 40 57
        E 0 89 29 40 79
        E 280 99 24 40 -11
        E 0 99 29 7f 61
        E 0 99 24 22 97
        E 108 89 24 40 -11
        E 92 89 29 40 61
        E 1 89 24 40 97
        E 279 99 26 75 17
        E 0 99 29 7f 75
        E 200 89 26 40 17
        E 4 89 29 40 75
        E 276 99 29 78 87
        E 200 89 29 40 87
        E 280 99 24 54 51
        E 0 99 29 7f 97
        E 104 89 24 40 51
        E 96 89 29 40 97
        E 40 99 24 21 -83
        E 198 89 24 40 -83
        E 42 99 29 7f 87
        E 200 89 29 40 87
        E 40 99 24 43 -109
        E 0 99 24 23 61
        E 168 89 24 40 -109
        E 32 89 24 40 61
        E 40 99 26 7f 83
        E 0 99 29 7f 111
        E 199 89 29 40 111
        E 5 89 26 40 83
        E 276 99 29 7f 71
        E 202 89 29 40 71
        E 38 99 30 7f -7
        E 200 89 30 40 -7
        E 40 99 24 67 -19
        E 0 99 2d 7f 89
        E 200 89 24 40 -19
        E 0 89 2d 40 89
        E 280 99 24 3c -81
        E 0 99 24 1e
        E 0 99 2d 7f 79
        E 80 89 24 40 -81
        E 120 89 2d 40 79
        E 1 89 24 40
        E 279 99 26 7f 43
        E 0 99 29 7f 77
        E 200 89 29 40 77
        E 2 89 26 40 43
        E 278 99 29 7f 61
        E 200 89 29 40 61
        E 280 99 29 7f 67
        E 0 99 24 55 95
        E 200 89 29 40 67
        E 0 89 24 40 95
        E 280 99 24 3e -5
        E 0 99 29 7f 73
        E 200 89 24 40 -5
        E 0 89 29 40 73
        E 280 99 26 7f 39
        E 0 99 29 7f 93
        E 200 89 26 40 39
        E 0 89 29 40 93
        E 280 99 29 7f 62
        E 201 89 29 40 62
        E 279 99 24 53 53
        E 0 99 29 7f 77
        E 200 89 24 40 53
        E 0 89 29 40 77
        E 280 99 24 3f 57
        E 0 99 29 7f 81
        E 156 89 24 40 57
        E 45 89 29 40 81
        E 39 99 24 1c -25
        E 202 89 24 40 -25
        E 38 99 26 7d 46
        E 0 99 29 7f 91
        E 201 89 26 40 46
        E 1 89 29 40 91
        E 278 99 29 7f 63
        E 200 89 29 40 63
        E 40 99 30 78 -17
        E 200 89 30 40 -17
        E 40 99 24 66 -43
        E 0 99 2d 7f 69
        E 201 89 2d 40 69
        E 1 89 24 40 -43
        E 38 99 24 3b 97
        E 202 89 24 40 97
        E 38 99 2d 7f 41
        E 204 89 2d 40 41
        E 276 99 26 7f -1
        E 0 99 29 7f 45
        E 199 89 29 40 45
        E 1 89 26 40 -1
        E 280 99 29 7f 35
        E 200 89 29 40 35
        E 280 99 24 55 25
        E 0 99 29 7f 27
        E 200 89 24 40 25
        E 2 89 29 40 27
        E 278 99 24 3d -23
        E 0 99 29 7f 21
        E 200 89 29 40 21
        E 2 89 24 40 -23
        E 278 99 26 7f -15
        E 0 99 29 7f 38
        E 200 89 29 40 38
        E 2 89 26 40 -15
        E 278 99 29 7f 25
        E 202 89 29 40 25
        E 278 99 29 7f 32
        E 0 99 24 50 38
        E 201 89 29 40 32
        E 0 89 24 40 38
        E 279 99 24 3c -13
        E 0 99 29 7f 26
        E 138 89 24 40 -13
        E 65 89 29 40 26
        E 37 99 24 1c -115
        E 200 89 24 40 -115
        E 40 99 26 7f 8
        E 0 99 29 7f 61
        E 201 89 29 40 61
        E 2 89 26 40 8
        E 277 99 29 7f 35
        E 200 89 29 40 35
        E 280 99 24 50 -1
        E 0 99 29 7f 60
        E 200 89 24 40 -1
        E 1 89 29 40 60
        E 279 99 24 37 -62
        E 0 99 29 7f 22
        E 201 89 24 40 -62
        E 4 89 29 40 22
        E 275 99 26 7f 13
        E 0 99 29 7f 59
        E 200 89 26 40 13
        E 2 89 29 40 59
        E 278 99 29 7f 23
        E 199 89 29 40 23
        E 41 99 30 7f -37
        E 202 89 30 40 -37
        E 38 99 24 62 -83
        E 0 99 2d 7f 55
        E 200 89 24 40 -83
        E 0 89 2d 40 55
        E 40 99 30 7e -37
        E 17 b9 04 06
        E 182 89 30 40 -37
        E 4 b9 04 00
        E 37 99 24 51 -91
        E 0 99 2d 7f 5
        E 200 89 24 40 -91
        E 0 89 2d 40 5
        E 280 99 26 7f -10
        E 0 99 29 7f 46
        E 201 89 29 40 46
        E 1 89 26 40 -10
        E 278 99 29 7f 5
        E 200 89 29 40 5
        E 280 99 24 55 31
        E 0 99 29 7f 37
        E 200 89 24 40 31
        E 0 89 29 40 37
        E 280 99 24 3e -31
        E 0 99 29 7f 10
        E 0 99 24 1d 99
        E 128 89 24 40 -31
        E 72 89 24 40 99
        E 1 89 29 40 10
        E 279 99 26 7f 5
        E 0 99 29 7f 51
        E 200 89 26 40 5
        E 0 89 29 40 51
        E 280 99 29 7f -7
        E 200 89 29 40 -7
        E 40 99 26 52 -105
        E 200 89 26 40 -105
        E 40 99 24 64 -22
        E 0 99 29 7f -12
        E 201 89 24 40 -22
        E 0 89 29 40 -12
        E 279 99 29 7f -3
        E 199 89 29 40 -3
        E 281 99 26 7f 9
        E 0 99 29 7f 35
        E 200 89 26 40 9
        E 2 89 29 40 35
        E 278 99 29 7f 19
        E 202 89 29 40 19
        E 278 99 29 7f 38
        E 0 99 24 57 45
        E 200 89 24 40 45
        E 1 89 29 40 38
        E 279 99 24 34 -53
        E 0 99 29 7f 45
        E 200 89 24 40 -53
        E 2 89 29 40 45
        E 278 99 26 7f 21
        E 0 99 29 7f 57
        E 200 89 26 40 21
        E 2 89 29 40 57
        E 278 99 29 7f 15
        E 200 89 29 40 15
        E 40 99 30 7c -45
        E 200 89 30 40 -45
        E 40 99 24 60 -65
        E 0 99 2d 7f 45
        E 200 89 24 40 -65
        E 2 89 2d 40 45
        E 38 99 30 7f -38
        E 200 89 30 40 -38
        E 40 99 24 4b -47
        E 0 99 2d 7f -11
        E 199 89 24 40 -47
        E 1 89 2d 40 -11
        E 280 99 26 7f 1
        E 0 99 29 7f 37
        E 200 89 26 40 1
        E 0 89 29 40 37
        E 280 99 29 7f 27
        E 199 89 29 40 27
        E 281 99 29 7f 25
        E 0 99 24 4f 59
        E 201 89 24 40 59
        E 1 89 29 40 25
        E 278 99 24 42 -15
        E 0 99 29 7f 26
        E 200 89 24 40 -15
        E 1 89 29 40 26
        E 279 99 26 7f 23
        E 0 99 29 7f 77
        E 200 89 26 40 23
        E 0 89 29 40 77
        E 280 99 29 7f 73
        E 200 89 29 40 73
        E 280 99 24 52 77
        E 0 99 29 7f 85
        E 200 89 24 40 77
        E 0 89 29 40 85
        E 280 99 24 3d 15
        E 0 99 29 7f 71
        E 0 99 24 1f 119
        E 104 89 24 40 15
        E 96 89 29 40 71
        E 0 89 24 40 119
        E 280 99 26 7f 25
        E 0 99 29 7f 65
        E 200 89 26 40 25
        E 0 89 29 40 65
        E 280 99 29 7f 49
        E 200 89 29 40 49
        E 40 99 28 58 -2
        E 0 99 28 2a 97
        E 97 89 28 40 -2
        E 103 89 28 40 97
        E 40 99 26 64 66
        E 0 99 24 49 75
        E 126 89 24 40 75
        E 75 89 26 40 66
        E 39 99 24 24 -37
        E 0 99 26 40 37
        E 96 89 26 40 37
        E 104 89 24 40 -37
        E 40 99 26 23 -105
        E 0 99 26 7e 49
        E 152 89 26 40 -105
        E 44 89 26 40 49
        E 44 99 26 66 7
        E 200 89 26 40 7
        E 40 99 26 78 28
        E 201 89 26 40 28
        E 39 99 26 61 17
        E 200 89 26 40 17
        E 40 99 26 7f 25
        E 200 89 26 40 25
        E 40 99 26 68 -9
        E 202 89 26 40 -9
        E 38 99 33 41 -15
        E 0 99 33 7f 30
        E 0 99 24 5f 89
        E 44 89 33 40 -15
        E 157 89 33 40 30
        E 1 89 24 40 89
        E 278 99 29 7f -29
        E 200 89 29 40 -29
        E 280 99 26 7f -23
        E 0 99 29 7f 20
        E 202 89 26 40 -23
        E 0 89 29 40 20
        E 278 99 29 7f 9
        E 200 89 29 40 9
        E 280 99 24 51 15
        E 0 99 29 7f 33
        E 200 89 24 40 15
        E 0 89 29 40 33
        E 280 99 29 7f 25
        E 200 89 29 40 25
        E 280 99 26 7f -7
        E 0 99 29 7f 45
        E 199 89 26 40 -7
        E 2 89 29 40 45
        E 279 99 29 7f 23
        E 200 89 29 40 23
        E 280 99 29 7f 35
        E 0 99 24 4e 45
        E 199 89 24 40 45
        E 1 89 29 40 35
        E 280 99 24 3d -59
        E 0 99 24 1d 33
        E 0 99 29 7f 41
        E 90 89 24 40 -59
        E 109 89 29 40 41
        E 2 89 24 40 33
        E 279 99 26 7f 34
        E 0 99 29 7f 79
        E 200 89 29 40 79
        E 3 89 26 40 34
        E 277 99 29 7f 65
        E 200 89 29 40 65
        E 280 99 24 51 36
        E 0 99 29 7f 59
        E 200 89 29 40 59
        E 1 89 24 40 36
        E 279 99 29 7f 52
        E 201 89 29 40 52
        E 279 99 26 7f 21
        E 0 99 29 7f 73
        E 199 89 26 40 21
        E 1 89 29 40 73
        E 280 99 29 7f 37
        E 200 89 29 40 37
        E 40 99 30 6d -38
        E 203 89 30 40 -38
        E 37 99 24 64 -78
        E 0 99 2d 7f 57
        E 200 89 2d 40 57
        E 1 89 24 40 -78
        E 39 99 30 5c -15
        E 35 b9 04 06
        E 165 89 30 40 -15
        E 40 99 24 51 -32
        E 0 99 2d 7f
        E 26 b9 04 00
        E 174 89 2d 40
        E 1 89 24 40 -32
        E 279 99 26 74 3
        E 0 99 29 7f 41
        E 199 89 26 40 3
        E 2 89 29 40 41
        E 279 99 29 7f 28
        E 200 89 29 40 28
        E 280 99 29 7f 51
        E 0 99 24 54 68
        E 199 89 29 40 51
        E 2 89 24 40 68
        E 279 99 24 41 13
        E 0 99 29 7f 55
        E 0 99 24 22 110
        E 94 89 24 40 13
        E 106 89 29 40 55
        E 1 89 24 40 110
        E 279 99 26 7f 29
        E 0 99 29 7f 71
        E 200 89 26 40 29
        E 0 89 29 40 71
        E 280 99 29 7f 52
        E 200 89 29 40 52
        E 280 99 24 4e 57
        E 0 99 29 7f 70
        E 200 89 24 40 57
        E 1 89 29 40 70
        E 279 99 29 7f 79
        E 199 89 29 40 79
        E 281 99 26 7f 63
        E 0 99 29 7f 84
        E 201 89 26 40 63
        E 0 89 29 40 84
        E 279 99 29 7f 67
        E 200 89 29 40 67
        E 2 b9 04 00
        E 38 99 1a 7f -36
        E 201 89 1a 40 -36
        E 14 b9 04 12
        E 25 99 24 56 -61
        E 0 99 24 28 35
        E 0 99 29 7f 45
        E 29 b9 04 22
        E 60 b9 04 32
        E 4 89 24 40 -61
        E 106 89 24 40 35
        E 0 89 29 40 45
        E 3 b9 04 22
        E 136 b9 04 12
        E 142 99 29 7f 62
        E 201 89 29 40 62
        E 279 99 26 7f 58
        E 0 99 29 7f 80
        E 200 89 26 40 58
        E 3 89 29 40 80
        E 202 b9 04 06
        E 75 99 29 7f 52
        E 201 89 29 40 52
        E 39 99 28 4a -11
        E 5 b9 04 00
        E 195 89 28 40 -11
        E 40 99 24 6b -38
        E 0 99 2d 7f 42
        E 201 89 24 40 -38
        E 0 89 2d 40 42
        E 39 99 30 7f -12
        E 12 b9 04 0f
        E 189 89 30 40 -12
        E 39 99 2d 7f 6
        E 0 99 24 4e 10
        E 98 b9 04 06
        E 104 89 2d 40 6
        E 1 89 24 40 10
        E 146 b9 04 00
        E 131 99 26 7f -46
        E 0 99 29 7f 11
        E 200 89 29 40 11
        E 3 89 26 40 -46
        E 277 99 29 7f -10
        E 199 b9 04 09
        E 2 89 29 40 -10
        E 279 99 24 58 7
        E 0 99 29 7f 10
        E 201 89 29 40 10
        E 1 89 24 40 7
        E 278 99 24 37 -94
        E 0 99 29 7f -4
        E 200 89 24 40 -94
        E 3 89 29 40 -4
        E 25 b9 04 00
        E 252 99 26 7f -35
        E 0 99 29 7f 32
        E 199 89 26 40 -35
        E 2 89 29 40 32
        E 279 99 29 7f -1
        E 0 99 26 21 109
        E 199 89 26 40 109
        E 3 89 29 40 -1
        E 278 99 24 55 10
        E 0 99 29 7f 14
        E 200 89 24 40 10
        E 3 89 29 40 14
        E 37 99 24 29 79
        E 202 89 24 40 79
        E 38 99 29 7f 26
        E 201 89 29 40 26
        E 279 99 26 7b -15
        E 0 99 29 7f 49
        E 200 89 26 40 -15
        E 0 89 29 40 49
        E 280 99 29 7f 22
        E 0 99 1a 7f 98
        E 96 b9 04 00
        E 104 89 1a 40 98
        E 1 89 29 40 22
        E 176 b9 04 12
        E 7 b9 04 25
        E 62 b9 04 36
        E 34 99 24 65 -45
        E 0 99 29 7f -5
        E 52 b9 04 46
        E 110 b9 04 36
        E 39 89 29 40 -5
        E 2 89 24 40 -45
        E 41 b9 04 25
        E 108 b9 04 18
        E 128 99 29 7f 34
        E 21 b9 04 0f
        E 180 89 29 40 34
        E 279 99 26 7f 51
        E 0 99 29 7f 70
        E 64 b9 04 09
        E 135 89 26 40 51
        E 1 89 29 40 70
        E 8 b9 04 00
        E 272 99 29 7f 9
        E 100 b9 04 09
        E 102 89 29 40 9
        E 38 99 30 7f -54
        E 0 99 24 6e 82
        E 25 b9 04 00
        E 175 89 24 40 82
        E 3 89 30 40 -54
        E 27 b9 04 12
        E 10 99 2d 7f 20
        E 128 b9 04 1d
        E 73 89 2d 40 20
        E 39 99 30 64 -37
        E 0 99 24 49 32
        E 116 b9 04 0f
        E 83 89 30 40 -37
        E 1 89 24 40 32
        E 40 99 2d 7f -14
        E 57 b9 04 06
        E 144 89 2d 40 -14
        E 65 b9 04 00
        E 214 99 26 7f -3
        E 0 99 29 7f 18
        E 200 89 29 40 18
        E 2 89 26 40 -3
        E 278 99 29 7f 11
        E 199 89 29 40 11
        E 24 b9 04 09
        E 257 99 24 5d -2
        E 0 99 29 7f 28
        E 200 89 29 40 28
        E 1 89 24 40 -2
        E 39 99 24 16 21
        E 202 89 24 40 21
        E 38 99 29 7f 10
        E 200 89 29 40 10
        E 40 99 24 23 -41
        E 173 b9 04 03
        E 4 b9 04 00
        E 22 89 24 40 -41
        E 41 99 26 7f 60
        E 0 99 29 7f 77
        E 200 89 26 40 60
        E 0 89 29 40 77
        E 280 99 29 7f 52
        E 200 89 29 40 52
        E 280 99 24 5c 70
        E 0 99 29 7f 99
        E 200 89 24 40 70
        E 1 89 29 40 99
        E 57 b9 04 12
        E 40 b9 04 22
        E 40 b9 04 32
        E 142 99 29 7f 95
        E 83 b9 04 22
        E 35 b9 04 12
        E 36 b9 04 00
        E 45 89 29 40 95
        E 281 99 2c 50 33
        E 0 99 26 7f 97
        E 0 99 29 7f 108
        E 18 b9 04 12
        E 4 b9 04 25
        E 4 b9 04 38
        E 2 b9 04 49
        E 2 b9 04 4f
        E 5 b9 04 5b
        E 35 b9 04 6c
        E 115 b9 04 5c
        E 15 89 2c 40 33
        E 2 89 26 40 97
        E 0 89 29 40 108
        E 4 b9 04 4c
        E 19 b9 04 3c
        E 31 b9 04 2c
        E 46 b9 04 1a
        E 124 b9 04 12
        E 54 99 29 7f 106
        E 201 89 29 40 106
        E 16 b9 04 20
        E 280 b9 04 0f
        E 67 b9 04 00
        E 156 99 29 7f -118
        E 0 99 24 64 -85
        E 96 b9 04 0c
        E 103 89 24 40 -85
        E 1 89 29 40 -118
        E 40 99 24 31 -10
        E 0 99 29 7f 118
        E 200 89 24 40 -10
        E 1 89 29 40 118
        E 279 99 26 7f 98
        E 121 b9 04 03
        E 10 b9 04 00
        E 69 89 26 40 98
        E 40 99 29 7f -117
        E 141 b9 04 12
        E 58 89 29 40 -117
        E 41 99 29 7f 83
        E 6 b9 04 00
        E 172 b9 04 12
        E 9 b9 04 22
        E 8 b9 04 32
        E 4 89 29 40 83
        E 7 b9 04 43
        E 4 b9 04 4c
        E 5 b9 04 54
        E 7 b9 04 65
        E 18 99 2c 1c -27
        E 0 99 30 5b -12
        E 15 b9 04 75
        E 62 b9 04 65
        E 18 b9 04 55
        E 11 b9 04 44
        E 11 b9 04 34
        E 8 b9 04 22
        E 12 b9 04 12
        E 11 b9 04 00
        E 52 89 2c 40 -27
        E 0 89 30 40 -12
        E 40 99 24 7f -1
        E 0 99 2d 7f 82
        E 149 b9 04 12
        E 1 b9 04 25
        E 3 b9 04 38
        E 2 b9 04 49
        E 2 b9 04 53
        E 5 b9 04 5a
        E 2 b9 04 6e
        E 10 b9 04 5d
        E 13 b9 04 6e
        E 12 89 24 40 -1
        E 1 89 2d 40 82
        E 40 99 2c 7a -81
        E 46 b9 04 5d
        E 12 b9 04 4c
        E 8 b9 04 3c
        E 11 b9 04 2c
        E 9 b9 04 1a
        E 12 b9 04 09
        E 6 b9 04 00
        E 94 89 2c 40 -81
        E 42 99 24 58 -42
        E 0 99 2d 7f 36
        E 110 b9 04 12
        E 11 b9 04 25
        E 17 b9 04 36
        E 15 b9 04 46
        E 3 b9 04 4c
        E 8 b9 04 56
        E 37 89 2d 40 36
        E 1 89 24 40 -42
        E 25 b9 04 46
        E 13 99 2c 12 -82
        E 15 b9 04 36
        E 186 89 2c 40 -82
        E 39 99 26 7f 57
        E 0 99 29 7f 104
        E 33 b9 04 2e
        E 67 b9 04 1d
        E 99 89 26 40 57
        E 1 89 29 40 104
        E 65 b9 04 0f
        E 142 b9 04 06
        E 73 99 29 7f 85
        E 199 89 29 40 85
        E 64 b9 04 12
        E 217 99 24 64 90
        E 0 99 29 7f 111
        E 41 b9 04 03
        E 6 b9 04 00
        E 153 89 29 40 111
        E 1 89 24 40 90
        E 279 99 24 3d 29
        E 201 89 24 40 29
        E 39 99 29 7f -119
        E 200 89 29 40 -119
        E 40 99 26 7e 75
        E 200 89 26 40 75
        E 40 99 29 7f -113
        E 199 89 29 40 -113
        E 41 99 29 7f 108
        E 200 89 29 40 108
        E 520 99 29 7f -106
        E 0 99 24 72 -96
        E 200 89 29 40 -106
        E 1 89 24 40 -96
        E 39 99 24 3b 61
        E 73 89 24 40 61
        E 167 99 24 19 -102
        E 0 99 29 7f -100
        E 51 b9 04 06
        E 148 89 24 40 -102
        E 3 89 29 40 -100
        E 146 b9 04 00
        E 132 99 26 7f -107
        E 0 99 29 7f -98
        E 200 89 26 40 -107
        E 3 89 29 40 -98
        E 37 99 29 7f 118
        E 200 89 29 40 118
        E 280 99 29 7f 100
        E 0 99 24 60 107
        E 202 89 29 40 100
        E 0 89 24 40 107
        E 278 99 29 7f 70
        E 200 89 29 40 70
        E 280 99 26 7f 29
        E 0 99 29 7f 56
        E 201 89 26 40 29
        E 0 89 29 40 56
        E 279 99 29 7f 44
        E 182 b9 04 09
        E 18 89 29 40 44
        E 40 99 30 5c -34
        E 200 89 30 40 -34
        E 40 99 24 7f -45
        E 0 99 2d 7f 52
        E 109 b9 04 1a
        E 91 89 2d 40 52
        E 2 89 24 40 -45
        E 38 99 30 79 -38
        E 59 b9 04 27
        E 141 89 30 40 -38
        E 40 99 24 5b -10
        E 0 99 2d 7f 9
        E 3 b9 04 18
        E 138 b9 04 0f
        E 58 89 2d 40 9
        E 2 89 24 40 -10
        E 169 b9 04 06
        E 110 99 26 7f 62
        E 0 99 29 7f 70
        E 66 b9 04 00
        E 134 89 26 40 62
        E 0 89 29 40 70
        E 280 99 29 7f 46
        E 200 89 29 40 46
        E 24 b9 04 09
        E 256 99 29 7f 44
        E 0 99 24 7d 54
        E 200 89 29 40 44
        E 0 89 24 40 54
        E 280 99 24 48 24
        E 0 99 29 7f 50
        E 124 89 24 40 24
        E 76 89 29 40 50
        E 40 99 24 21 -90
        E 200 89 24 40 -90
        E 40 99 26 7f -16
        E 0 99 29 7f 38
        E 200 89 29 40 38
        E 2 89 26 40 -16
        E 278 99 29 7f 42
        E 16 b9 04 03
        E 184 89 29 40 42
        E 280 99 29 7f 64
        E 0 99 24 68 78
        E 201 89 29 40 64
        E 2 89 24 40 78
        E 277 99 24 44 -12
        E 0 99 29 7f 58
        E 200 89 29 40 58
        E 2 89 24 40 -12
        E 278 99 26 7f 41
        E 0 99 29 7f 68
        E 199 89 26 40 41
        E 2 89 29 40 68
        E 157 b9 04 00
        E 122 99 29 7f 66
        E 200 89 29 40 66
        E 280 99 29 7f 71
        E 0 99 24 74 93
        E 199 89 29 40 71
        E 2 89 24 40 93
        E 279 99 24 45 26
        E 0 99 29 7f 60
        E 100 89 24 40 26
        E 100 89 29 40 60
        E 40 99 24 1e -112
        E 202 89 24 40 -112
        E 38 99 26 7b 14
        E 0 99 29 7f 56
        E 200 89 26 40 14
        E 0 89 29 40 56
        E 280 99 29 7f 28
        E 200 89 29 40 28
        E 2 b9 04 0c
        E 38 99 30 65 -30
        E 202 89 30 40 -30
        E 38 99 24 7e -23
        E 0 99 2d 7f 38
        E 186 b9 04 18
        E 14 89 2d 40 38
        E 1 89 24 40 -23
        E 39 99 30 60 -48
        E 200 89 30 40 -48
        E 40 99 2d 7f -3
        E 0 99 24 5a
        E 152 b9 04 0f
        E 47 89 2d 40 -3
        E 3 89 24 40
        E 152 b9 04 06
        E 126 99 26 74 45
        E 0 99 29 7f 58
        E 18 b9 04 00
        E 182 89 29 40 58
        E 1 89 26 40 45
        E 279 99 29 7f 34
        E 202 89 29 40 34
        E 278 99 24 67 38
        E 0 99 29 7f 40
        E 200 89 24 40 38
        E 2 89 29 40 40
        E 278 99 24 46 -14
        E 0 99 29 7f 40
        E 0 99 24 20 96
        E 106 89 24 40 -14
        E 92 89 24 40 96
        E 2 89 29 40 40
        E 280 99 26 7f 6
        E 0 99 29 7f 52
        E 200 89 29 40 52
        E 4 89 26 40 6
        E 276 99 29 7f 46
        E 131 b9 04 00
        E 69 89 29 40 46
        E 40 99 1a 7f -107
        E 118 b9 04 12
        E 7 b9 04 25
        E 3 b9 04 38
        E 2 b9 04 4c
        E 6 b9 04 4c
        E 65 89 1a 40 -107
        E 3 b9 04 5c
        E 36 99 2c 46 -108
        E 0 99 24 7e
        E 0 99 29 7f 44
        E 90 b9 04 4c
        E 56 b9 04 3c
        E 54 89 2c 40 -108
        E 0 89 29 40 44
        E 1 89 24 40
        E 161 b9 04 2c
        E 112 b9 04 1d
        E 6 99 29 7f 64
        E 200 89 29 40 64
        E 280 99 26 7f 58
        E 0 99 29 7f 82
        E 200 89 26 40 58
        E 0 89 29 40 82
        E 280 99 29 7f 74
        E 70 b9 04 12
        E 130 89 29 40 74
        E 136 b9 04 18
        E 144 99 24 67 68
        E 0 99 29 7f 90
        E 202 89 24 40 68
        E 0 89 29 40 90
        E 278 99 24 43 -16
        E 0 99 29 7f 70
        E 64 b9 04 12
        E 136 89 24 40 -16
        E 2 89 29 40 70
        E 278 99 26 7c 66
        E 0 99 29 7f 102
        E 110 b9 04 09
        E 90 89 29 40 102
        E 3 89 26 40 66
        E 57 b9 04 00
        E 220 99 29 7f 70
        E 140 b9 04 0f
        E 60 89 29 40 70
        E 40 99 30 77 2
        E 200 89 30 40 2
        E 40 99 24 7f 4
        E 0 99 2d 7f 105
        E 199 89 2d 40 105
        E 2 89 24 40 4
        E 39 99 30 7a 16
        E 0 99 30 23 114
        E 30 b9 04 18
        E 64 89 30 40 16
        E 104 89 30 40 114
        E 6 b9 04 1d
        E 36 99 24 5f 8
        E 0 99 2d 7f 48
        E 200 89 24 40 8
        E 0 89 2d 40 48
        E 112 b9 04 12
        E 168 99 26 66 48
        E 0 99 29 7f 96
        E 132 b9 04 09
        E 68 89 26 40 48
        E 1 89 29 40 96
        E 279 99 29 7f 78
        E 202 89 29 40 78
        E 38 b9 04 12
        E 240 99 24 6f 94
        E 0 99 29 7f 106
        E 72 b9 04 09
        E 128 89 24 40 94
        E 2 89 29 40 106
        E 90 b9 04 12
        E 188 99 24 3c -22
        E 0 99 29 7f 108
        E 200 89 29 40 108
        E 2 89 24 40 -22
        E 278 99 26 7f 104
        E 112 b9 04 09
        E 88 89 26 40 104
        E 40 99 29 7f -102
        E 200 89 29 40 -102
        E 218 b9 04 00
        E 62 99 29 7f -119
        E 0 99 29 34 -16
        E 0 99 1a 7f 104
        E 101 89 29 40 -119
        E 1 b9 04 00
        E 100 89 29 40 -16
        E 0 89 1a 40 104
        E 38 99 2c 2a 58
        E 38 b9 04 12
        E 4 b9 04 22
        E 4 b9 04 34
        E 4 b9 04 46
        E 7 b9 04 4c
        E 27 b9 04 56
        E 38 b9 04 66
        E 80 89 2c 40 58
        E 38 b9 04 56
        E 0 99 24 7f -108
        E 0 99 29 7f -90
        E 48 b9 04 46
        E 67 b9 04 36
        E 85 89 29 40 -90
        E 2 89 24 40 -108
        E 62 b9 04 3a
        E 52 b9 04 29
        E 110 b9 04 1d
        E 54 99 29 7f -112
        E 200 89 29 40 -112
        E 162 b9 04 15
        E 118 99 26 7e -80
        E 0 99 29 7f -54
        E 200 89 29 40 -54
        E 1 89 26 40 -80
        E 147 b9 04 0c
        E 132 99 29 7f -80
        E 188 b9 04 12
        E 12 89 29 40 -80
        E 280 99 24 70 -64
        E 0 99 29 7f -48
        E 200 89 29 40 -48
        E 1 89 24 40 -64
        E 279 99 24 45 -88
        E 0 99 29 7f -34
        E 0 99 24 21 24
        E 110 89 24 40 -88
        E 90 89 29 40 -34
        E 0 89 24 40 24
        E 210 b9 04 09
        E 70 99 26 7a -80
        E 0 99 29 7f -32
        E 14 b9 04 00
        E 186 89 26 40 -80
        E 1 89 29 40 -32
        E 279 99 29 7f -56
        E 18 b9 04 0f
        E 152 b9 04 15
        E 30 89 29 40 -56
        E 40 99 30 7c -120
        E 0 99 30 26 -32
        E 86 89 30 40 -120
        E 63 b9 04 0f
        E 51 89 30 40 -32
        E 40 99 24 7f -116
        E 0 99 2d 7f -44
        E 60 b9 04 1d
        E 140 89 24 40 -116
        E 4 89 2d 40 -44
        E 22 b9 04 27
        E 14 99 30 7f -108
        E 200 89 30 40 -108
        E 36 b9 04 1d
        E 4 99 24 5d -108
        E 0 99 2d 7f -68
        E 196 b9 04 12
        E 4 89 24 40 -108
        E 0 89 2d 40 -68
        E 266 b9 04 06
        E 14 99 26 7f -76
        E 0 99 29 7f -35
        E 122 b9 04 00
        E 77 89 29 40 -35
        E 1 89 26 40 -76
        E 280 99 29 7f -42
        E 116 b9 04 09
        E 84 89 29 40 -42
        E 280 99 24 7f -54
        E 0 99 29 7f -50
        E 200 89 29 40 -50
        E 2 89 24 40 -54
        E 278 99 24 41 -80
        E 0 99 29 7f -58
        E 0 99 24 1a 76
        E 154 89 24 40 -80
        E 46 89 29 40 -58
        E 0 89 24 40 76
        E 280 99 26 7f -80
        E 0 99 29 7f -67
        E 199 89 29 40 -67
        E 3 89 26 40 -80
        E 164 b9 04 00
        E 114 99 29 7f -90
        E 0 99 1a 7f 88
        E 86 b9 04 00
        E 113 89 29 40 -90
        E 1 89 1a 40 88
        E 40 99 2c 34 68
        E 0 99 24 7f 96
        E 52 b9 04 12
        E 4 b9 04 22
        E 4 b9 04 32
        E 4 b9 04 44
        E 2 b9 04 4c
        E 40 b9 04 54
        E 94 89 2c 40 68
        E 2 89 24 40 96
        E 12 b9 04 5f
        E 26 99 29 7f -86
        E 56 b9 04 4f
        E 86 b9 04 3f
        E 62 89 29 40 -86
        E 170 b9 04 2e
        E 106 99 29 71 -110
        E 46 b9 04 20
        E 156 89 29 40 -110
        E 124 b9 04 18
        E 154 99 26 7f -112
        E 0 99 29 7f -88
        E 66 b9 04 0f
        E 135 89 26 40 -112
        E 0 89 29 40 -88
        E 39 99 29 7f 110
        E 34 b9 04 09
        E 166 89 29 40 110
        E 50 b9 04 12
        E 230 99 24 71 40
        E 0 99 29 7f 78
        E 200 89 24 40 40
        E 0 89 29 40 78
        E 280 99 24 3a -42
        E 0 99 24 1b 54
        E 0 99 29 7f 102
        E 94 89 24 40 -42
        E 105 89 29 40 102
        E 3 89 24 40 54
        E 278 99 26 7f 80
        E 0 99 29 7f 112
        E 158 b9 04 09
        E 42 89 26 40 80
        E 1 89 29 40 112
        E 135 b9 04 00
        E 144 99 29 7f 92
        E 200 89 29 40 92
        E 5 b9 04 09
        E 35 99 30 68 25
        E 199 89 30 40 25
        E 41 99 24 7f 28
        E 0 99 2d 7f 92
        E 200 89 2d 40 92
        E 2 89 24 40 28
        E 18 b9 04 18
        E 20 99 30 72 6
        E 200 89 30 40 6
        E 40 99 24 5a 20
        E 0 99 2d 7f 24
        E 201 89 24 40 20
        E 2 89 2d 40 24
        E 20 b9 04 0f
        E 231 b9 04 09
        E 26 99 26 6f 32
        E 0 99 29 7f 66
        E 186 b9 04 00
        E 14 89 29 40 66
        E 2 89 26 40 32
        E 278 99 29 7f 48
        E 200 89 29 40 48
        E 14 b9 04 0c
        E 266 99 24 7f 58
        E 0 99 29 7f 60
        E 200 89 24 40 58
        E 0 89 29 40 60
        E 280 99 24 47 48
        E 0 99 29 7f 70
        E 118 89 24 40 48
        E 84 89 29 40 70
        E 38 99 24 1e -72
        E 202 89 24 40 -72
        E 38 99 26 75 34
        E 0 99 29 7f 68
        E 200 89 26 40 34
        E 1 89 29 40 68
        E 25 b9 04 06
        E 174 b9 04 00
        E 80 99 29 7f 37
        E 202 89 29 40 37
        E 38 99 1a 7f 44
        E 42 b9 04 00
        E 154 b9 04 12
        E 4 89 1a 40 44
        E 4 b9 04 27
        E 8 b9 04 38
        E 28 99 2c 0e 18
        E 0 99 24 7f 54
        E 0 99 29 7f 86
        E 12 b9 04 49
        E 4 b9 04 4c
        E 102 b9 04 57
        E 52 b9 04 47
        E 29 89 29 40 86
        E 1 89 2c 40 18
        E 0 89 24 40 54
        E 14 b9 04 36
        E 56 b9 04 25
        E 104 b9 04 1a
        E 106 99 29 7f 82
        E 202 89 29 40 82
        E 278 99 26 7f 78
        E 0 99 29 7f 112
        E 77 b9 04 12
        E 123 89 26 40 78
        E 0 89 29 40 112
        E 238 b9 04 09
        E 42 99 29 7f 78
        E 200 89 29 40 78
        E 42 b9 04 12
        E 238 99 29 7f 66
        E 0 99 24 7f 76
        E 136 b9 04 0c
        E 66 89 29 40 66
        E 2 89 24 40 76
        E 276 99 24 49 68
        E 0 99 29 7f 78
        E 120 89 24 40 68
        E 80 89 29 40 78
        E 40 99 24 22 -50
        E 200 89 24 40 -50
        E 40 99 26 7f 40
        E 0 99 29 7f 84
        E 200 89 26 40 40
        E 0 89 29 40 84
        E 82 b9 04 03
        E 10 b9 04 00
        E 188 99 29 7f 60
        E 158 b9 04 0c
        E 44 89 29 40 60
        E 38 99 30 7f -20
        E 204 89 30 40 -20
        E 36 99 24 7f 9
        E 0 99 2d 7f 80
        E 201 89 24 40 9
        E 5 89 2d 40 80
        E 2 b9 04 18
        E 32 99 30 67 -28
        E 0 99 30 2b 44
        E 70 89 30 40 -28
        E 132 89 30 40 44
        E 38 99 24 5b 4
        E 0 99 2d 7f 32
        E 200 89 24 40 4
        E 2 89 2d 40 32
        E 46 b9 04 0f
        E 232 99 26 6d 20
        E 0 99 29 7f 58
        E 128 b9 04 06
        E 72 89 26 40 20
        E 2 89 29 40 58
        E 170 b9 04 00
        E 108 99 29 7f 62
        E 198 b9 04 0c
        E 2 89 29 40 62
        E 280 99 29 7f 88
        E 0 99 24 7f 100
        E 200 89 29 40 88
        E 0 89 24 40 100
        E 280 99 24 4a 72
        E 0 99 29 7f 78
        E 200 89 24 40 72
        E 0 89 29 40 78
        E 280 99 26 7f 20
        E 0 99 29 7f 82
        E 200 89 29 40 82
        E 2 89 26 40 20
        E 278 99 29 7f 90
        E 0 99 26 6c 106
        E 200 89 29 40 90
        E 0 89 26 40 106
        E 6 b9 04 00
        E 274 99 2e 7f 70
        E 68 b9 04 09
        E 4 b9 04 12
        E 10 b9 04 25
        E 8 b9 04 36
        E 66 b9 04 46
        E 18 b9 04 4c
        E 28 89 2e 40 70
        E 38 99 24 7a -94
        E 0 99 29 7f -86
        E 0 99 2c 08 -64
        E 66 b9 04 36
        E 120 b9 04 27
        E 14 89 29 40 -86
        E 2 89 24 40 -94
        E 0 89 2c 40 -64
        E 142 b9 04 1d
        E 136 99 29 7f -118
        E 200 89 29 40 -118
        E 40 99 26 7c 108
        E 164 b9 04 15
        E 36 89 26 40 108
        E 40 99 29 7f -112
        E 180 b9 04 0f
        E 22 89 29 40 -112
        E 38 99 29 7f 108
        E 82 b9 04 09
        E 118 89 29 40 108
        E 124 b9 04 0f
        E 396 99 29 7f -102
        E 0 99 24 7f -70
        E 200 89 29 40 -102
        E 2 89 24 40 -70
        E 38 99 24 44 90
        E 0 99 29 7f 96
        E 200 89 24 40 90
        E 4 89 29 40 96
        E 276 99 26 7f 84
        E 0 99 29 7f 112
        E 200 89 29 40 112
        E 2 89 26 40 84
        E 134 b9 04 03
        E 45 b9 04 00
        E 99 99 29 7f 82
        E 116 b9 04 0f
        E 83 89 29 40 82
        E 41 99 30 79 6
        E 200 89 30 40 6
        E 40 90 34 7f
        E 0 99 24 7e -4
        E 0 99 29 69
        E 120 b9 04 1d
        E 80 89 29 40
        E 2 89 24 40 -4
        E 38 80 34 00
        E 240 99 24 4f -36
        E 0 99 29 69 40
        E 200 89 29 40 40
        E 2 89 24 40 -36
        E 278 90 26 7f
        E 0 99 29 69 40
        E 44 b9 04 00
        E 12 b9 04 06
        E 144 89 29 40 40
        E 40 80 26 00
        E 0 99 26 57 -118
        E 108 89 26 40 -118
        E 132 99 29 69 68
        E 200 89 29 40 68
        E 94 b9 04 09
        E 186 99 29 69 66
        E 40 99 24 72
        E 160 89 29 40 66
        E 40 89 24 40
        E 240 99 24 4a 64
        E 0 99 29 69 70
        E 40 99 24 22
        E 62 89 24 40 64
        E 98 89 29 40 70
        E 40 89 24 40
        E 240 99 26 7f 20
        E 0 99 29 69 64
        E 200 89 26 40 20
        E 0 89 29 40 64
        E 238 b9 04 03
        E 6 b9 04 00
        E 36 99 29 69 44
        E 200 89 29 40 44
        E 40 99 2e 7f 22
        E 20 b9 04 00
        E 152 b9 04 12
        E 8 b9 04 22
        E 4 b9 04 34
        E 15 89 2e 40 22
        E 29 b9 04 44
        E 12 99 2c 0e 4
        E 0 99 29 69 56
        E 0 99 24 7f 58
        E 2 b9 04 4c
        E 28 b9 04 54
        E 170 89 2c 40 4
        E 1 89 29 40 56
        E 0 89 24 40 58
        E 5 b9 04 44
        E 76 b9 04 34
        E 156 b9 04 29
        E 42 99 29 69 28
        E 200 89 29 40 28
        E 34 b9 04 1d
        E 246 99 26 7f 40
        E 0 99 29 69 60
        E 199 89 26 40 40
        E 1 89 29 40 60
        E 14 b9 04 18
        E 190 b9 04 0f
        E 76 99 29 69 47
        E 203 89 29 40 47
        E 277 99 29 69 56
        E 0 99 24 7f 86
        E 200 89 24 40 86
        E 1 89 29 40 56
        E 279 99 24 4c
        E 0 99 29 69 31
        E 200 89 24 40
        E 1 89 29 40 31
        E 279 99 26 7f -16
        E 0 99 29 69 30
        E 202 89 26 40 -16
        E 0 89 29 40 30
        E 92 b9 04 03
        E 6 b9 04 00
        E 180 99 29 69 -12
        E 136 b9 04 0c
        E 65 89 29 40 -12
        E 39 99 30 69 -88
        E 202 89 30 40 -88
        E 38 99 24 7f -30
        E 0 99 2d 6d 1
        E 128 b9 04 1a
        E 74 89 24 40 -30
        E 1 89 2d 40 1
        E 37 99 30 61 -58
        E 0 99 30 2c 20
        E 50 b9 04 25
        E 26 89 30 40 -58
        E 124 89 30 40 20
        E 40 99 24 57 -68
        E 0 99 2d 6d -42
        E 16 b9 04 1a
        E 170 b9 04 12
        E 14 89 24 40 -68
        E 0 89 2d 40 -42
        E 280 99 26 7d -82
        E 0 99 29 69 -18
        E 70 b9 04 0c
        E 130 89 29 40 -18
        E 2 89 26 40 -82
        E 178 b9 04 03
        E 100 99 29 69 -28
        E 182 b9 04 0f
        E 18 89 29 40 -28
        E 280 99 29 69 -2
        E 0 99 24 7f 12
        E 200 89 29 40 -2
        E 0 89 24 40 12
        E 280 99 29 69 -24
        E 0 99 24 4e -19
        E 0 99 24 20 78
        E 95 89 24 40 -19
        E 105 89 29 40 -24
        E 0 89 24 40 78
        E 280 99 26 7f -38
        E 0 99 29 69 -6
        E 200 89 29 40 -6
        E 2 89 26 40 -38
        E 192 b9 04 03
        E 40 b9 04 00
        E 46 99 29 69 -11
        E 182 b9 04 00
        E 19 89 29 40 -11
        E 39 99 1a 7f -56
        E 164 b9 04 12
        E 10 b9 04 25
        E 26 89 1a 40 -56
        E 14 b9 04 36
        E 22 b9 04 46
        E 4 99 24 7f 3
        E 0 99 29 69 18
        E 0 99 2c 0a 24
        E 19 b9 04 4c
        E 159 b9 04 36
        E 22 89 29 40 18
        E 2 89 2c 40 24
        E 1 89 24 40 3
        E 73 b9 04 25
        E 130 b9 04 1d
        E 74 99 29 69 16
        E 112 b9 04 25
        E 87 89 29 40 16
        E 26 b9 04 1d
        E 255 99 26 7f 24
        E 0 99 29 69 32
        E 38 b9 04 18
        E 162 89 26 40 24
        E 0 89 29 40 32
        E 104 b9 04 0c
        E 166 b9 04 06
        E 10 99 29 69 12
        E 200 89 29 40 12
        E 70 b9 04 0c
        E 210 99 29 69 32
        E 0 99 24 7f 54
        E 200 89 29 40 32
        E 2 89 24 40 54
        E 56 b9 04 12
        E 222 99 24 4d 18
        E 0 99 29 69 34
        E 116 89 24 40 18
        E 84 89 29 40 34
        E 40 99 24 20 -102
        E 200 89 24 40 -102
        E 22 b9 04 06
        E 18 99 26 7f -16
        E 0 99 29 69 28
        E 94 b9 04 00
        E 105 89 29 40 28
        E 2 89 26 40 -16
        E 279 99 29 69 15
        E 94 b9 04 12
        E 107 89 29 40 15
        E 39 99 30 77 -50
        E 20 b9 04 1a
        E 162 b9 04 0f
        E 20 89 30 40 -50
        E 38 99 24 7f -28
        E 0 99 2d 6d 40
        E 144 b9 04 1d
        E 56 89 24 40 -28
        E 2 89 2d 40 40
        E 38 99 30 51 -16
        E 0 99 30 24 74
        E 8 b9 04 2e
        E 80 89 30 40 -16
        E 114 89 30 40 74
        E 38 99 24 5a -42
        E 0 99 2d 6d -12
        E 74 b9 04 25
        E 107 b9 04 1a
        E 19 89 24 40 -42
        E 0 89 2d 40 -12
        E 148 b9 04 12
        E 132 90 32 7f
        E 0 99 26 7f -42
        E 0 99 29 69 6
        E 88 b9 04 06
        E 112 89 29 40 6
        E 4 89 26 40 -42
        E 36 80 32 00
        E 32 b9 04 00
        E 208 99 29 69 10
        E 144 b9 04 0f
        E 56 89 29 40 10
        E 280 99 29 69 18
        E 0 99 24 7f 54
        E 42 b9 04 09
        E 160 89 29 40 18
        E 0 89 24 40 54
        E 20 b9 04 12
        E 258 99 29 69 24
        E 0 99 24 52 32
        E 102 89 24 40 32
        E 100 89 29 40 24
        E 38 99 24 21 -102
        E 182 b9 04 0c
        E 16 89 24 40 -102
        E 42 99 26 7f -16
        E 0 99 29 69 22
        E 200 89 29 40 22
        E 2 89 26 40 -16
        E 78 b9 04 06
        E 200 99 29 69 -4
        E 6 b9 04 00
        E 196 89 29 40 -4
        E 18 b9 04 00
        E 20 99 2e 7f -18
        E 116 b9 04 12
        E 8 b9 04 25
        E 6 b9 04 36
        E 44 b9 04 46
        E 20 b9 04 4c
        E 6 89 2e 40 -18
        E 40 99 2c 0c -44
        E 0 99 24 7f -2
        E 0 99 29 69 12
        E 44 b9 04 4d
        E 42 b9 04 3c
        E 38 b9 04 2c
        E 76 89 24 40 -2
        E 1 89 2c 40 -44
        E 1 89 29 40 12
        E 38 b9 04 1d
        E 238 b9 04 2e
        E 2 99 29 69 12
        E 200 89 29 40 12
        E 78 b9 04 27
        E 119 b9 04 1a
        E 83 99 26 7f 12
        E 0 99 29 69 26
        E 200 89 26 40 12
        E 2 89 29 40 26
        E 158 b9 04 0f
        E 120 99 29 69 44
        E 200 89 29 40 44
        E 28 b9 04 15
        E 252 99 29 69 46
        E 0 99 24 7f 72
        E 200 89 29 40 46
        E 0 89 24 40 72
        E 280 99 24 4f 26
        E 0 99 29 69 40
        E 200 89 24 40 26
        E 0 89 29 40 40
        E 254 b9 04 0f
        E 26 99 26 7b 2
        E 0 99 29 69 34
        E 200 89 26 40 2
        E 2 89 29 40 34
        E 8 b9 04 03
        E 36 b9 04 00
        E 234 99 29 69 16
        E 26 b9 04 12
        E 176 89 29 40 16
        E 4 b9 04 1a
        E 34 99 31 7f -82
        E 134 b9 04 09
        E 68 89 31 40 -82
        E 38 99 24 7f -14
        E 0 99 2d 6d 13
        E 0 99 29 57 16
        E 164 b9 04 15
        E 38 89 24 40 -14
        E 0 89 29 40 16
        E 1 89 2d 40 13
        E 277 99 24 4c -60
        E 0 99 2d 6d 5
        E 100 b9 04 0f
        E 100 89 24 40 -60
        E 3 89 2d 40 5
        E 277 90 30 6d
        E 0 99 26 7f -12
        E 0 99 29 69 -2
        E 0 99 26 36 80
        E 88 89 26 40 -12
        E 2 b9 04 06
        E 108 89 26 40 80
        E 2 89 29 40 -2
        E 40 80 30 00
        E 240 99 29 69 32
        E 128 b9 04 0f
        E 74 89 29 40 32
        E 200 b9 04 03
        E 16 b9 04 00
        E 62 99 24 7f -42
        E 0 99 29 69 2
        E 176 b9 04 0c
        E 23 89 29 40 2
        E 3 89 24 40 -42
        E 278 99 29 69 -31
        E 203 89 29 40 -31
        E 277 99 26 7f -42
        E 0 99 29 69 -4
        E 200 89 26 40 -42
        E 2 89 29 40 -4
        E 90 b9 04 03
        E 188 99 29 69 -24
        E 104 b9 04 0c
        E 96 89 29 40 -24
        E 40 99 26 3e -32
        E 186 b9 04 06
        E 14 89 26 40 -32
        E 40 99 24 7f -46
        E 0 99 29 69 -23
        E 128 b9 04 0f
        E 73 89 29 40 -23
        E 2 89 24 40 -46
        E 277 99 24 4b -76
        E 0 99 29 69 -38
        E 200 89 24 40 -76
        E 0 89 29 40 -38
        E 280 99 26 7f -38
        E 0 99 29 69 -20
        E 200 89 26 40 -38
        E 0 89 29 40 -20
        E 46 b9 04 06
        E 234 99 29 69 -14
        E 154 b9 04 0f
        E 48 89 29 40 -14
        E 278 99 29 69 -10
        E 0 99 24 7f -4
        E 50 b9 04 09
        E 150 89 29 40 -10
        E 4 89 24 40 -4
        E 276 99 29 69 -24
        E 200 89 29 40 -24
        E 280 99 26 7e -22
        E 0 99 29 69 8
        E 200 89 29 40 8
        E 2 89 26 40 -22
        E 98 b9 04 00
        E 180 99 29 69 -12
        E 106 b9 04 0c
        E 98 89 29 40 -12
        E 36 99 30 77 -71
        E 201 89 30 40 -71
        E 39 99 24 7f -49
        E 0 99 2d 6d 26
        E 160 b9 04 18
        E 41 89 24 40 -49
        E 1 89 2d 40 26
        E 38 99 30 60 -79
        E 0 99 30 11 28
        E 105 89 30 40 -79
        E 95 89 30 40 28
        E 40 99 24 5b -76
        E 0 99 2d 6d -32
        E 191 b9 04 0c
        E 9 89 24 40 -76
        E 0 89 2d 40 -32
        E 280 90 34 7f
        E 0 99 26 7f -58
        E 0 99 29 69 -17
        E 74 b9 04 03
        E 44 b9 04 00
        E 82 89 26 40 -58
        E 3 89 29 40 -17
        E 37 80 34 00
        E 240 99 29 69 -24
        E 114 b9 04 0c
        E 88 89 29 40 -24
        E 79 b9 04 12
        E 199 99 29 69 -14
        E 0 99 24 7f 18
        E 47 b9 04 09
        E 152 89 29 40 -14
        E 1 89 24 40 18
        E 280 99 24 4f -39
        E 0 99 29 69 -22
        E 200 89 24 40 -39
        E 0 89 29 40 -22
        E 280 99 26 7f -8
        E 0 99 29 69 20
        E 136 b9 04 0f
        E 63 89 26 40 -8
        E 1 89 29 40 20
        E 162 b9 04 00
        E 118 99 29 69 -18
        E 0 99 29 16 88
        E 103 89 29 40 -18
        E 91 b9 04 00
        E 6 89 29 40 88
        E 40 99 2e 7f -44
        E 202 89 2e 40 -44
        E 38 99 2c 4a
        E 0 99 24 7f -22
        E 0 99 29 69 12
        E 46 b9 04 5a
        E 32 b9 04 12
        E 6 b9 04 27
        E 2 b9 04 38
        E 4 b9 04 4a
        E 2 b9 04 4f
        E 4 b9 04 5a
        E 14 b9 04 4a
        E 19 b9 04 5a
        E 1 b9 04 3a
        E 46 b9 04 6a
        E 24 89 29 40 12
        E 2 89 2c 40
        E 0 89 24 40 -22
        E 132 b9 04 29
        E 122 b9 04 1d
        E 24 99 24 0a -68
        E 0 99 29 69 28
        E 199 89 24 40 -68
        E 3 89 29 40 28
        E 278 99 26 7f 3
        E 0 99 29 69 18
        E 200 89 26 40 3
        E 0 89 29 40 18
        E 71 b9 04 12
        E 209 99 29 69 9
        E 201 89 29 40 9
        E 43 b9 04 1a
        E 236 99 29 69 25
        E 0 99 24 7f 37
        E 41 b9 04 12
        E 159 89 29 40 25
        E 3 89 24 40 37
        E 277 99 24 50 -24
        E 0 99 29 69 6
        E 202 89 29 40 6
        E 2 89 24 40 -24
        E 276 99 26 7f -32
        E 0 99 29 69 21
        E 153 b9 04 00
        E 47 89 29 40 21
        E 2 89 26 40 -32
        E 278 99 29 69 -28
        E 98 b9 04 12
        E 104 89 29 40 -28
        E 38 99 26 59 -54
        E 46 b9 04 1d
        E 154 89 26 40 -54
        E 40 99 24 7f -4
        E 0 99 31 7f -2
        E 50 b9 04 25
        E 134 b9 04 36
        E 18 89 24 40 -4
        E 0 89 31 40 -2
        E 278 99 24 4b -51
        E 0 99 29 69
        E 4 b9 04 27
        E 114 b9 04 1a
        E 82 89 29 40
        E 3 89 24 40 -51
        E 72 b9 04 12
        E 169 b9 04 09
        E 36 99 26 7f -14
        E 0 99 29 69 16
        E 199 89 26 40 -14
        E 1 89 29 40 16
        E 280 99 29 69 -21
        E 201 89 29 40 -21
        E 254 b9 04 00
        E 25 99 29 69 -12
        E 0 99 24 6e 32
        E 202 89 29 40 -12
        E 0 89 24 40 32
        E 20 b9 04 09
        E 258 99 24 43 -12
        E 0 99 29 69 -4
        E 0 99 24 1f 79
        E 89 89 24 40 -12
        E 111 89 29 40 -4
        E 1 89 24 40 79
        E 279 99 26 7f -2
        E 0 99 29 69 24
        E 150 b9 04 00
        E 50 89 26 40 -2
        E 2 89 29 40 24
        E 278 99 29 69 -31
        E 16 b9 04 0f
        E 166 b9 04 15
        E 21 89 29 40 -31
        E 37 99 30 77 -70
        E 159 b9 04 0f
        E 42 89 30 40 -70
        E 39 99 24 7f -104
        E 0 99 2d 6d -15
        E 44 b9 04 20
        E 149 b9 04 29
        E 7 89 2d 40 -15
        E 2 89 24 40 -104
        E 38 99 30 61 -86
        E 0 99 30 1e 9
        E 91 89 30 40 -86
        E 92 b9 04 18
        E 17 89 30 40 9
        E 40 99 24 60 -114
        E 0 99 2d 6d -50
        E 178 b9 04 0f
        E 22 89 24 40 -114
        E 0 89 2d 40 -50
        E 198 b9 04 09
        E 82 90 38 7f
        E 0 99 26 7f -70
        E 0 99 29 69 -27
        E 157 b9 04 03
        E 45 89 26 40 -70
        E 0 89 29 40 -27
        E 30 b9 04 00
        E 8 80 38 00
        E 240 99 29 5b -26
        E 124 b9 04 09
        E 76 89 29 40 -26
        E 280 99 29 69 -18
        E 0 99 24 7f -15
        E 200 89 29 40 -18
        E 1 89 24 40 -15
        E 48 b9 04 0f
        E 231 99 24 4c -25
        E 0 99 29 69 -8
        E 0 99 24 1e 81
        E 104 89 24 40 -25
        E 96 89 29 40 -8
        E 0 89 24 40 81
        E 80 b9 04 09
        E 200 99 26 7f -64
        E 0 99 29 69 -4
        E 106 b9 04 03
        E 94 89 26 40 -64
        E 2 89 29 40 -4
        E 10 b9 04 00
        E 268 99 29 69 -28
        E 97 b9 04 0f
        E 103 89 29 40 -28
        E 40 99 30 60 -64
        E 200 89 30 40 -64
        E 40 99 24 7f -36
        E 0 99 2d 6d -12
        E 115 b9 04 1d
        E 85 89 2d 40 -12
        E 2 89 24 40 -36
        E 38 99 30 42 -86
        E 201 89 30 40 -86
        E 39 99 24 69 -60
        E 0 99 2d 6d -58
        E 101 b9 04 12
        E 101 89 24 40 -60
        E 0 89 2d 40 -58
        E 230 b9 04 0c
        E 48 90 37 7f
        E 0 99 26 7f -92
        E 0 99 29 69 -24
        E 116 b9 04 03
        E 9 b9 04 00
        E 75 89 26 40 -92
        E 2 89 29 40 -24
        E 38 80 37 00
        E 240 99 29 69 -44
        E 120 b9 04 09
        E 80 89 29 40 -44
        E 280 99 29 69 -41
        E 0 99 24 7c -4
        E 200 89 29 40 -41
        E 2 89 24 40 -4
        E 278 99 29 69 -46
        E 0 99 24 47 -34
        E 0 99 24 1d 56
        E 88 89 24 40 -34
        E 112 89 29 40 -46
        E 0 89 24 40 56
        E 280 99 26 7f -21
        E 0 99 29 69 3
        E 36 b9 04 00
        E 165 89 26 40 -21
        E 0 89 29 40 3
        E 279 99 29 69 -36
        E 0 99 29 18 59
        E 63 b9 04 0f
        E 31 89 29 40 -36
        E 105 89 29 40 59
        E 41 99 30 6f -55
        E 201 89 30 40 -55
        E 39 99 24 7f -66
        E 0 99 2d 6d -7
        E 191 b9 04 1d
        E 11 89 24 40 -66
        E 1 89 2d 40 -7
        E 37 99 30 66 -35
        E 0 99 30 29 44
        E 76 89 30 40 -35
        E 35 b9 04 22
        E 91 89 30 40 44
        E 38 99 24 66 -56
        E 0 99 2d 6d -50
        E 56 b9 04 18
        E 142 b9 04 0f
        E 1 89 2d 40 -50
        E 2 89 24 40 -56
        E 160 b9 04 09
        E 119 99 26 7f -56
        E 0 99 29 69 -2
        E 200 89 29 40 -2
        E 1 89 26 40 -56
        E 89 b9 04 00
        E 190 99 29 65 -29
        E 177 b9 04 06
        E 25 89 29 40 -29
        E 278 99 29 69 -13
        E 0 99 24 7f 29
        E 201 89 29 40 -13
        E 0 89 24 40 29
        E 279 99 29 69 -14
        E 0 99 24 4d 6
        E 0 99 24 1e 94
        E 86 89 24 40 6
        E 113 89 24 40 94
        E 3 89 29 40 -14
        E 278 99 26 7f -4
        E 0 99 29 69 17
        E 133 b9 04 00
        E 70 89 29 40 17
        E 1 89 26 40 -4
        E 276 99 29 69 -6
        E 96 b9 04 0c
        E 104 89 29 40 -6
        E 40 99 30 77 -45
        E 28 b9 04 12
        E 175 89 30 40 -45
        E 13 b9 04 09
        E 24 99 24 7f -50
        E 0 99 2d 6d 34
        E 178 b9 04 12
        E 22 89 2d 40 34
        E 2 89 24 40 -50
        E 38 99 30 5a
        E 104 b9 04 18
        E 98 89 30 40
        E 38 99 24 6a -47
        E 0 99 2d 6d -24
        E 158 b9 04 0f
        E 42 89 2d 40 -24
        E 3 89 24 40 -47
        E 219 b9 04 06
        E 58 99 26 78 -29
        E 0 99 29 69 8
        E 0 99 2e 7f
        E 81 b9 04 00
        E 35 b9 04 12
        E 8 b9 04 25
        E 6 b9 04 36
        E 44 b9 04 46
        E 20 b9 04 4c
        E 6 89 2e 40
        E 2 89 29 40 8
        E 1 89 26 40 -29
        E 277 99 2c 0c
        E 0 99 29 69 -2
        E 44 b9 04 4d
        E 42 b9 04 3c
        E 38 b9 04 2c
        E 18 b9 04 0c
        E 59 89 2c 40
        E 0 89 29 40 -2
        E 279 99 29 69 9
        E 0 99 24 7f 38
        E 44 b9 04 06
        E 157 89 29 40 9
        E 0 89 24 40 38
        E 279 99 24 47 -14
        E 0 99 29 69 18
        E 199 89 24 40 -14
        E 1 89 29 40 18
        E 280 99 26 7f -6
        E 0 99 29 69 35
        E 126 b9 04 00
        E 73 89 26 40 -6
        E 2 89 29 40 35
        E 279 99 29 69 -24
        E 94 b9 04 09
        E 105 89 29 40 -24
        E 41 99 30 6b -35
        E 203 89 30 40 -35
        E 37 99 24 7f -90
        E 0 99 2d 6d 6
        E 147 b9 04 15
        E 52 89 2d 40 6
        E 5 89 24 40 -90
        E 36 99 30 61 -12
        E 66 b9 04 1a
        E 136 89 30 40 -12
        E 38 99 24 66 -85
        E 0 99 2d 6d -31
        E 110 b9 04 12
        E 91 89 2d 40 -31
        E 1 89 24 40 -85
        E 177 b9 04 0c
        E 101 90 3a 7f
        E 0 99 26 7f -24
        E 0 99 29 69 3
        E 156 b9 04 03
        E 45 89 26 40 -24
        E 0 89 29 40 3
        E 39 80 3a 00
        E 8 b9 04 00
        E 232 99 29 69 -1
        E 176 b9 04 09
        E 26 89 29 40 -1
        E 278 99 29 69 -1
        E 0 99 24 7f 29
        E 202 89 29 40 -1
        E 1 89 24 40 29
        E 277 99 24 49 -16
        E 0 99 29 69 -4
        E 199 89 24 40 -16
        E 2 89 29 40 -4
        E 279 99 26 7f -24
        E 0 99 29 69 10
        E 199 89 29 40 10
        E 3 89 26 40 -24
        E 18 b9 04 00
        E 260 99 29 69 -18
        E 48 b9 04 0c
        E 151 89 29 40 -18
        E 13 b9 04 12
        E 28 99 30 77 -53
        E 197 b9 04 09
        E 3 89 30 40 -53
        E 40 99 24 7f -51
        E 0 99 2d 7f
        E 146 b9 04 15
        E 54 89 2d 40
        E 3 89 24 40 -51
        E 37 99 30 6c -11
        E 0 99 30 3b 46
        E 53 89 30 40 -11
        E 11 b9 04 1d
        E 133 89 30 40 46
        E 43 99 24 5e -56
        E 0 99 2d 7f -38
        E 143 b9 04 15
        E 56 89 2d 40 -38
        E 3 89 24 40 -56
        E 175 b9 04 09
        E 103 99 26 78 -64
        E 0 99 29 7f -16
        E 200 89 26 40 -64
        E 0 89 29 40 -16
        E 4 b9 04 00
        E 276 99 29 7f -19
        E 196 b9 04 06
        E 7 89 29 40 -19
        E 277 99 29 7f -4
        E 0 99 24 7f 41
        E 199 89 29 40 -4
        E 1 89 24 40 41
        E 280 99 24 43 -32
        E 0 99 29 7f -5
        E 200 89 24 40 -32
        E 0 89 29 40 -5
        E 280 99 26 7f -49
        E 0 99 29 7f
        E 112 b9 04 00
        E 88 89 29 40
        E 2 89 26 40 -49
        E 278 99 29 7f
        E 109 b9 04 0c
        E 91 89 29 40
        E 40 99 30 71 -81
        E 0 99 30 21 41
        E 121 89 30 40 -81
        E 79 89 30 40 41
        E 35 b9 04 03
        E 5 99 24 7f -42
        E 0 99 2d 7f 12
        E 171 b9 04 0f
        E 28 89 24 40 -42
        E 0 89 2d 40 12
        E 41 99 30 4f -47
        E 0 99 30 30 29
        E 72 89 30 40 -47
        E 127 89 30 40 29
        E 41 99 24 4e -76
        E 0 99 2d 7f -24
        E 202 89 2d 40 -24
        E 1 89 24 40 -76
        E 37 99 30 5c -16
        E 202 89 30 40 -16
        E 38 99 29 2f -39
        E 0 99 2d 7f -31
        E 200 89 2d 40 -31
        E 2 89 29 40 -39
        E 28 b9 04 03
        E 31 b9 04 00
        E 219 99 29 7f -23
        E 154 b9 04 06
        E 47 89 29 40 -23
        E 39 99 26 6b -34
        E 80 b9 04 00
        E 119 89 26 40 -34
        E 41 99 29 7f 11
        E 0 99 24 5a 43
        E 0 99 29 4e 86
        E 71 89 29 40 11
        E 126 89 29 40 86
        E 3 89 24 40 43
        E 40 99 26 5f -18
        E 0 99 26 25 74
        E 41 b9 04 0c
        E 49 89 26 40 -18
        E 112 89 26 40 74
        E 38 99 24 4b -24
        E 0 99 29 1d 13
        E 0 99 2d 7f 19
        E 197 b9 04 18
        E 2 89 24 40 -24
        E 4 89 29 40 13
        E 2 89 2d 40 19
        E 35 99 30 59 -18
        E 0 99 30 37 47
        E 63 89 30 40 -18
        E 137 89 30 40 47
        E 40 99 33 77 -53
        E 0 99 33 2b 104
        E 155 89 33 40 -53
        E 44 89 33 40 104
        E 41 99 26 53 -81
        E 128 b9 04 0f
        E 74 89 26 40 -81
        E 38 99 26 7f -40
        E 200 89 26 40 -40
        E 40 99 26 4f -69
        E 200 89 26 40 -69
        E 40 99 26 7f -37
        E 205 89 26 40 -37
        E 35 99 26 44 -29
        E 202 89 26 40 -29
        E 38 99 26 7f -36
        E 204 89 26 40 -36
        E 36 99 26 53 -21
        E 201 89 26 40 -21
        E 39 99 26 7f -15
        E 201 89 26 40 -15
        E 39 99 26 48 -40
        E 199 89 26 40 -40
        E 41 99 26 76 -19
        E 190 89 26 40 -19
        E 50 99 26 4a -67
        E 200 89 26 40 -67
        E 40 99 26 7f -17
        E 169 b9 04 15
        E 32 89 26 40 -17
        E 39 99 26 72 -35
        E 203 89 26 40 -35
        E 37 99 26 65 41
        E 203 89 26 40 41
        E 37 99 24 41 -120
        E 0 99 24 22 -27
        E 0 99 26 3f 88
        E 91 89 24 40 -120
        E 24 b9 04 1d
        E 37 89 26 40 88
        E 49 89 24 40 -27
        E 39 99 26 5d 1
        E 201 89 26 40 1
        E 39 99 26 47 -31
        E 8 b9 04 27
        E 195 89 26 40 -31
        E 37 99 26 7f 27
        E 151 b9 04 1a
        E 50 89 26 40 27
        E 39 99 24 67 -62
        E 0 99 26 46 24
        E 0 99 24 28 37
        E 97 89 24 40 -62
        E 103 89 26 40 24
        E 0 89 24 40 37
        E 40 99 26 7f 47
        E 110 89 26 40 47
        E 130 99 26 2a -81
        E 0 99 26 54 65
        E 144 89 26 40 -81
        E 56 89 26 40 65
        E 6 b9 04 20
        E 34 99 26 7a 79
        E 0 99 24 4f 97
        E 146 89 24 40 97
        E 46 89 26 40 79
        E 27 b9 04 1a
        E 21 99 24 20 5
        E 0 99 26 56 33
        E 201 89 24 40 5
        E 0 89 26 40 33
        E 39 99 26 6d 80
        E 179 89 26 40 80
        E 61 99 26 39 21
        E 0 99 26 21 91
        E 68 89 26 40 21
        E 132 89 26 40 91
        E 40 99 26 72 55
        E 0 99 24 3f 109
        E 174 89 26 40 55
        E 27 89 24 40 109
        E 39 99 26 3a -9
        E 0 99 26 20 72
        E 0 99 24 14 111
        E 81 89 26 40 -9
        E 118 89 26 40 72
        E 3 89 24 40 111
        E 35 b9 04 25
        E 3 99 26 6c 40
        E 159 b9 04 30
        E 18 89 26 40 40
        E 63 99 26 3e -21
        E 0 99 26 26 47
        E 0 99 2c 04 117
        E 44 b9 04 41
        E 22 89 26 40 -21
        E 49 b9 04 4c
        E 32 b9 04 51
        E 53 89 26 40 47
        E 0 89 2c 40 117
        E 40 99 24 7f 9
        E 0 99 31 7f 81
        E 27 b9 04 5d
        E 175 89 31 40 81
        E 1 89 24 40 9
        E 166 b9 04 64
        E 122 b9 04 54
        E 24 b9 04 44
        E 22 b9 04 34
        E 18 b9 04 22
        E 24 b9 04 12
        E 28 b9 04 00
        E 8428 b0 7b 00
        GUID {B47AA600-2DBD-4449-89A2-01832EFAA2CC}
        IGNTEMPO 0 120 4 4
        SRCCOLOR 151
        VELLANE -1 100 0
        CFGEDITVIEW 329854.512472 0.074447 59 12 0 -1 0 0 0 0.5
        KEYSNAP 0
        TRACKSEL -252
        EVTFILTER 0 -1 -1 -1 -1 0 0 0 0 -1 -1 -1 -1 0 -1 0 -1 -1
        CFGEDIT 1 1 0 1 0 0 1 1 1 1 1 0.25 320 95 2496 860 0 0 0 0 0 0 0 0 0 0.5 0 0 1 64
      >
    >
    <ITEM
      POSITION 222.71999999999071
      SNAPOFFS 0
      LENGTH 30.72
      LOOP 1
      ALLTAKES 0
      FADEIN 1 0 0 1 0 0
      FADEOUT 1 0 0 1 0 0
      MUTE 0
      SEL 0
      IGUID {4025CDDA-2D13-43B5-9FF9-6CF774CD6779}
      IID 5
      NAME "02-EZdrummer-Recorded MIDI"
      VOLPAN 1 0 1 -1
      SOFFS 133.92 279
      PLAYRATE 1 1 0 -1 0 0.0025
      CHANMODE 0
      GUID {4ACCDBEF-18ED-45FD-B32B-987C2E46CB0F}
      RECPASS 2
      <SOURCE MIDI
        HASDATA 1 960 QN
        POOLEDEVTS {98DF74DB-5F1F-4F00-952F-5133DC66D914}
        E 15360 99 24 4a 32
        E 0 99 29 5a 50
        E 90 89 24 40 32
        E 112 89 29 40 50
        E 38 99 24 21 -116
        E 200 89 24 40 -116
        E 40 99 29 51 16
        E 200 89 29 40 16
        E 280 99 26 7f 24
        E 0 99 29 7f 46
        E 200 89 26 40 24
        E 0 89 29 40 46
        E 280 99 29 57 -4
        E 200 89 29 40 -4
        E 280 99 29 66 19
        E 0 99 24 51 38
        E 200 89 24 40 38
        E 1 89 29 40 19
        E 279 99 29 5a 2
        E 0 99 24 3b 34
        E 198 89 24 40 34
        E 4 89 29 40 2
        E 38 99 24 1a -6
        E 198 89 24 40 -6
        E 42 99 29 6b 59
        E 0 99 26 6c 60
        E 199 89 29 40 59
        E 1 89 26 40 60
        E 280 99 29 6a 36
        E 200 89 29 40 36
        E 280 99 29 78 74
        E 0 99 24 49 88
        E 146 89 24 40 88
        E 54 89 29 40 74
        E 40 99 24 20 -5
        E 201 89 24 40 -5
        E 39 99 29 4f 40
        E 202 89 29 40 40
        E 278 99 26 7e 32
        E 0 99 29 7e 50
        E 199 89 26 40 32
        E 1 89 29 40 50
        E 280 99 29 4d 20
        E 200 89 29 40 20
        E 280 99 29 7b 14
        E 0 99 24 53 18
        E 200 89 29 40 14
        E 2 89 24 40 18
        E 278 99 24 40 -10
        E 0 99 29 72 8
        E 182 89 24 40 -10
        E 18 89 29 40 8
        E 40 99 24 20 -66
        E 200 89 24 40 -66
        E 40 99 26 7d 26
        E 0 99 29 7b 38
        E 200 89 26 40 26
        E 0 89 29 40 38
        E 280 99 29 69 11
        E 201 89 29 40 11
        E 279 99 24 51 36
        E 0 99 29 77 44
        E 200 89 24 40 36
        E 0 89 29 40 44
        E 280 99 24 35 -116
        E 0 99 24 14 8
        E 0 99 29 68 14
        E 122 89 24 40 -116
        E 76 89 24 40 8
        E 2 89 29 40 14
        E 280 99 26 78 20
        E 0 99 29 7c 38
        E 202 89 26 40 20
        E 2 89 29 40 38
        E 276 99 29 5d 49
        E 203 89 29 40 49
        E 277 99 24 4a 60
        E 0 99 29 7f 76
        E 168 89 24 40 60
        E 32 89 29 40 76
        E 40 99 24 21 -10
        E 198 89 24 40 -10
        E 42 99 29 63 26
        E 202 89 29 40 26
        E 278 99 26 7f 68
        E 0 99 29 7f 76
        E 200 89 26 40 68
        E 0 89 29 40 76
        E 280 99 29 5b 56
        E 198 89 29 40 56
        E 282 99 29 67 56
        E 0 99 24 4f 58
        E 200 89 29 40 56
        E 0 89 24 40 58
        E 280 99 24 3b -44
        E 0 99 29 62 28
        E 0 99 24 1a 75
        E 118 89 24 40 -44
        E 82 89 29 40 28
        E 3 89 24 40 75
        E 277 99 26 7f 40
        E 0 99 29 7f 58
        E 202 89 26 40 40
        E 2 89 29 40 58
        E 276 99 29 5c 50
        E 200 89 29 40 50
        E 280 99 24 4b 54
        E 0 99 29 73 60
        E 156 89 24 40 54
        E 44 89 29 40 60
        E 40 99 24 1b -30
        E 200 89 24 40 -30
        E 40 99 29 66 28
        E 202 89 29 40 28
        E 278 99 26 76 30
        E 0 99 29 7f 68
        E 200 89 26 40 30
        E 2 89 29 40 68
        E 278 99 29 75 43
        E 201 89 29 40 43
        E 279 99 24 51 70
        E 0 99 29 7f 74
        E 200 89 24 40 70
        E 0 89 29 40 74
        E 280 99 24 44 40
        E 0 99 29 6e 50
        E 184 89 24 40 40
        E 16 89 29 40 50
        E 40 99 24 1d -14
        E 200 89 24 40 -14
        E 40 99 26 76 62
        E 0 99 29 7f 84
        E 200 89 26 40 62
        E 2 89 29 40 84
        E 278 99 29 7f 74
        E 200 89 29 40 74
        E 280 99 24 4b 98
        E 0 99 29 7f 104
        E 200 89 24 40 98
        E 0 89 29 40 104
        E 280 99 24 3d 62
        E 0 99 29 6e 100
        E 184 89 24 40 62
        E 16 89 29 40 100
        E 40 99 24 24 8
        E 200 89 24 40 8
        E 40 99 29 7c 108
        E 0 99 26 5f 116
        E 200 89 29 40 108
        E 0 89 26 40 116
        E 280 99 29 74 118
        E 200 89 29 40 118
        E 520 99 29 7f -106
        E 0 99 24 4c -86
        E 0 99 24 1c 66
        E 150 89 24 40 -86
        E 47 89 24 40 66
        E 5 89 29 40 -106
        E 38 99 29 66 80
        E 200 89 29 40 80
        E 280 99 29 7f 94
        E 0 99 26 7c 99
        E 200 89 29 40 94
        E 1 89 26 40 99
        E 279 99 29 67 62
        E 200 89 29 40 62
        E 280 99 29 7f 36
        E 0 99 24 4c 86
        E 200 89 29 40 36
        E 0 89 24 40 86
        E 280 99 29 7a 56
        E 0 99 24 3d 60
        E 176 89 24 40 60
        E 26 89 29 40 56
        E 38 99 24 1e -2
        E 200 89 24 40 -2
        E 40 99 26 7b 92
        E 0 99 29 7f 96
        E 200 89 29 40 96
        E 2 89 26 40 92
        E 278 99 29 65 102
        E 198 89 29 40 102
        E 282 99 24 49 94
        E 0 99 29 77 104
        E 200 89 24 40 94
        E 0 89 29 40 104
        E 280 99 24 3b 62
        E 0 99 29 6d 110
        E 200 89 24 40 62
        E 2 89 29 40 110
        E 278 99 24 0d -80
        E 0 99 26 69 106
        E 200 89 24 40 -80
        E 0 89 26 40 106
        E 40 99 29 7f -112
        E 200 89 29 40 -112
        E 40 99 29 7f 98
        E 200 89 29 40 98
        E 280 99 24 48 102
        E 0 99 29 7b 108
        E 200 89 24 40 102
        E 0 89 29 40 108
        E 280 99 24 39 36
        E 0 99 29 74 102
        E 156 89 24 40 36
        E 44 89 29 40 102
        E 40 99 24 18 -48
        E 202 89 24 40 -48
        E 38 99 26 7d 100
        E 200 89 26 40 100
        E 40 99 29 7f -114
        E 201 89 29 40 -114
        E 39 99 29 70 88
        E 200 89 29 40 88
        E 40 99 26 36 -46
        E 200 89 26 40 -46
        E 40 99 24 51 20
        E 0 99 29 71 44
        E 141 89 24 40 20
        E 59 89 29 40 44
        E 40 99 24 1d -76
        E 198 89 24 40 -76
        E 42 99 29 78 60
        E 200 89 29 40 60
        E 280 99 26 7f 79
        E 0 99 29 7f 102
        E 201 89 26 40 79
        E 0 89 29 40 102
        E 279 99 29 53 84
        E 200 89 29 40 84
        E 280 99 24 4d 52
        E 0 99 29 7f 60
        E 166 89 24 40 52
        E 38 89 29 40 60
        E 36 99 24 18 -20
        E 200 89 24 40 -20
        E 40 99 24 1c -8
        E 0 99 29 71 66
        E 199 89 24 40 -8
        E 1 89 29 40 66
        E 280 99 26 7f 38
        E 0 99 29 7f 74
        E 200 89 26 40 38
        E 0 89 29 40 74
        E 280 99 29 7f 58
        E 202 89 29 40 58
        E 38 99 30 7f 18
        E 112 89 30 40 18
        E 128 99 30 1f -108
        E 0 99 2d 7f 20
        E 0 99 24 53 22
        E 200 89 2d 40 20
        E 2 89 30 40 -108
        E 0 89 24 40 22
        E 278 99 29 7f 14
        E 200 89 29 40 14
        E 280 99 26 7f -29
        E 0 99 29 7f 12
        E 201 89 26 40 -29
        E 0 89 29 40 12
        E 279 99 29 59 22
        E 202 89 29 40 22
        E 278 99 24 4d
        E 0 99 29 7f 6
        E 200 89 24 40
        E 0 89 29 40 6
        E 280 99 24 3a
        E 0 99 29 7f 12
        E 154 89 24 40
        E 46 89 29 40 12
        E 40 99 24 13 -84
        E 200 89 24 40 -84
        E 40 99 26 7f 21
        E 0 99 29 7f 29
        E 201 89 26 40 21
        E 0 89 29 40 29
        E 279 99 29 78 24
        E 202 89 29 40 24
        E 278 99 24 4d 28
        E 0 99 29 7f 36
        E 199 89 29 40 36
        E 1 89 24 40 28
        E 280 99 24 3b -4
        E 0 99 29 7f 40
        E 199 89 29 40 40
        E 3 89 24 40 -4
        E 38 99 24 1e -26
        E 200 89 24 40 -26
        E 40 99 26 7f 49
        E 0 99 29 7f 66
        E 201 89 26 40 49
        E 1 89 29 40 66
        E 278 99 29 70 64
        E 200 89 29 40 64
        E 280 99 24 47 32
        E 0 99 29 7f 35
        E 199 89 24 40 32
        E 6 89 29 40 35
        E 275 99 24 3b -32
        E 0 99 29 6a 68
        E 199 89 24 40 -32
        E 1 89 29 40 68
        E 40 99 24 17 -59
        E 201 89 24 40 -59
        E 39 99 26 7f 60
        E 0 99 29 7f 68
        E 200 89 26 40 60
        E 0 89 29 40 68
        E 280 99 29 7f 19
        E 201 89 29 40 19
        E 39 99 30 7f 16
        E 0 99 24 4e 108
        E 90 89 24 40 108
        E 110 89 30 40 16
        E 40 99 24 27 -40
        E 0 99 2d 7f
        E 198 89 24 40 -40
        E 2 89 2d 40
        E 280 99 29 7f 5
        E 201 89 29 40 5
        E 279 99 26 7f 10
        E 0 99 29 7f 32
        E 199 89 26 40 10
        E 0 89 29 40 32
        E 281 99 29 7f 16
        E 200 89 29 40 16
        E 280 99 29 7f 41
        E 0 99 24 4e 52
        E 201 89 29 40 41
        E 1 89 24 40 52
        E 278 99 24 3d 14
        E 0 99 29 7f 30
        E 180 89 24 40 14
        E 20 89 29 40 30
        E 40 99 24 19 -45
        E 203 89 24 40 -45
        E 37 99 26 7f 4
        E 0 99 29 7f 22
        E 202 89 26 40 4
        E 0 89 29 40 22
        E 278 99 29 7f 26
        E 202 89 29 40 26
        E 278 99 29 7f 45
        E 0 99 24 50 53
        E 200 89 24 40 53
        E 1 89 29 40 45
        E 279 99 24 33 -29
        E 0 99 29 7f 49
        E 201 89 24 40 -29
        E 0 89 29 40 49
        E 279 99 29 7f 69
        E 0 99 26 7f 73
        E 201 89 26 40 73
        E 1 89 29 40 69
        E 278 99 29 78 68
        E 202 89 29 40 68
        E 278 99 29 7f 68
        E 0 99 24 50 72
        E 200 89 29 40 68
        E 0 89 24 40 72
        E 280 99 24 3d 58
        E 0 99 29 7f 63
        E 144 89 24 40 58
        E 57 89 29 40 63
        E 39 99 24 1a -36
        E 200 89 24 40 -36
        E 40 99 26 7f 74
        E 0 99 29 7f 82
        E 199 89 26 40 74
        E 3 89 29 40 82
        E 278 99 29 7f 39
        E 201 89 29 40 39
        E 39 99 30 7f 16
        E 200 89 30 40 16
        E 40 99 24 53 -66
        E 0 99 24 26 13
        E 0 99 2d 7f 25
        E 77 89 24 40 -66
        E 121 89 24 40 13
        E 3 89 2d 40 25
        E 279 99 2d 5a -86
        E 199 89 2d 40 -86
        E 281 99 29 7f -6
        E 0 99 26 7f -4
        E 200 89 29 40 -6
        E 0 89 26 40 -4
        E 280 99 29 7d -8
        E 199 89 29 40 -8
        E 281 99 24 53 11
        E 0 99 29 7f 28
        E 0 99 24 24 112
        E 99 89 24 40 11
        E 100 89 24 40 112
        E 1 89 29 40 28
        E 280 99 29 7f 23
        E 0 99 24 47 54
        E 134 89 24 40 54
        E 66 89 29 40 23
        E 40 99 24 1e -50
        E 200 89 24 40 -50
        E 40 99 26 7f 38
        E 0 99 29 7f 62
        E 200 89 29 40 62
        E 1 89 26 40 38
        E 279 99 29 7f 47
        E 201 89 29 40 47
        E 279 99 29 7f 66
        E 0 99 24 4b 76
        E 199 89 24 40 76
        E 1 89 29 40 66
        E 280 99 29 7f 52
        E 0 99 24 3a 70
        E 139 89 24 40 70
        E 61 89 29 40 52
        E 40 99 24 1b -28
        E 198 89 24 40 -28
        E 42 99 26 7b 68
        E 0 99 29 7f 84
        E 199 89 26 40 68
        E 1 89 29 40 84
        E 280 99 29 7f 90
        E 202 89 29 40 90
        E 278 99 24 50 42
        E 0 99 29 7f 62
        E 199 89 29 40 62
        E 1 89 24 40 42
        E 280 99 24 39 19
        E 0 99 29 7f 58
        E 171 89 24 40 19
        E 28 89 29 40 58
        E 41 99 24 1a -48
        E 200 89 24 40 -48
        E 40 99 26 7f 87
        E 0 99 29 7f 91
        E 201 89 26 40 87
        E 0 89 29 40 91
        E 279 99 29 7f 42
        E 200 89 29 40 42
        E 40 99 30 7f 9
        E 201 89 30 40 9
        E 39 99 24 52 -86
        E 0 99 24 24 -2
        E 0 99 2d 7f 14
        E 82 89 24 40 -86
        E 118 89 24 40 -2
        E 2 89 2d 40 14
        E 38 99 24 43 59
        E 201 89 24 40 59
        E 39 99 2d 7f -24
        E 200 89 2d 40 -24
        E 280 99 29 7f 3
        E 0 99 26 7b 7
        E 200 89 29 40 3
        E 1 89 26 40 7
        E 279 99 29 7c -10
        E 200 89 29 40 -10
        E 280 99 24 4c 20
        E 0 99 29 7f 30
        E 199 89 29 40 30
        E 1 89 24 40 20
        E 280 99 24 3e 22
        E 0 99 29 7f 46
        E 130 89 24 40 22
        E 70 89 29 40 46
        E 40 99 24 1c -86
        E 200 89 24 40 -86
        E 40 99 26 7f 21
        E 0 99 29 7f 52
        E 201 89 26 40 21
        E 1 89 29 40 52
        E 278 99 29 7f 28
        E 202 89 29 40 28
        E 278 99 29 7f 68
        E 0 99 24 4d 70
        E 116 89 24 40 70
        E 84 89 29 40 68
        E 40 99 24 1f -52
        E 199 89 24 40 -52
        E 41 99 29 72 56
        E 201 89 29 40 56
        E 225 b9 04 12
        E 54 99 26 64 58
        E 0 99 29 7f 78
        E 12 b9 04 22
        E 60 b9 04 32
        E 128 89 29 40 78
        E 2 89 26 40 58
        E 87 b9 04 22
        E 84 b9 04 12
        E 107 99 29 7f 48
        E 38 b9 04 09
        E 162 89 29 40 48
        E 23 b9 04 0f
        E 257 99 24 50 -25
        E 0 99 29 7f 46
        E 39 b9 04 03
        E 32 b9 04 00
        E 129 89 24 40 -25
        E 0 89 29 40 46
        E 280 99 29 68 59
        E 201 89 29 40 59
        E 279 99 26 7f 63
        E 0 99 29 7f 86
        E 200 89 29 40 86
        E 3 89 26 40 63
        E 277 99 29 7f 42
        E 201 89 29 40 42
        E 39 99 30 7f -11
        E 0 99 24 52 92
        E 79 89 24 40 92
        E 124 89 30 40 -11
        E 37 99 24 27 -67
        E 0 99 2d 7f
        E 192 b9 04 0f
        E 6 89 24 40 -67
        E 2 89 2d 40
        E 40 99 30 72 -34
        E 0 99 30 35 32
        E 62 89 30 40 -34
        E 137 89 30 40 32
        E 9 b9 04 00
        E 32 99 2d 7f -77
        E 0 99 24 54 111
        E 109 89 24 40 111
        E 91 89 2d 40 -77
        E 40 99 24 20 -18
        E 197 89 24 40 -18
        E 43 99 26 7f 6
        E 0 99 29 7f 14
        E 199 89 26 40 6
        E 0 89 29 40 14
        E 281 99 29 7d -9
        E 203 89 29 40 -9
        E 277 99 24 5c -21
        E 0 99 29 7f 3
        E 200 89 24 40 -21
        E 1 89 29 40 3
        E 279 99 24 43 10
        E 0 99 29 7f 12
        E 171 89 24 40 10
        E 26 89 29 40 12
        E 43 99 24 1d -54
        E 198 89 24 40 -54
        E 42 99 26 7f 3
        E 0 99 29 7f 26
        E 200 89 29 40 26
        E 1 89 26 40 3
        E 279 99 29 6e 27
        E 200 89 29 40 27
        E 280 99 24 4d 43
        E 0 99 29 7f 56
        E 201 89 24 40 43
        E 1 89 29 40 56
        E 278 99 24 40 -50
        E 0 99 29 7f 22
        E 0 99 24 1e 71
        E 119 89 24 40 -50
        E 80 89 29 40 22
        E 1 89 24 40 71
        E 280 99 26 6c 56
        E 0 99 29 7f 67
        E 199 89 26 40 56
        E 3 89 29 40 67
        E 278 99 29 7f 61
        E 201 89 29 40 61
        E 279 99 24 52 26
        E 0 99 29 7f 48
        E 199 89 29 40 48
        E 1 89 24 40 26
        E 280 99 24 43 -11
        E 0 99 29 7f 24
        E 170 89 24 40 -11
        E 31 89 29 40 24
        E 39 99 24 17 -79
        E 201 89 24 40 -79
        E 39 99 26 7f 10
        E 0 99 29 7f 38
        E 201 89 26 40 10
        E 0 89 29 40 38
        E 279 99 29 7f 35
        E 203 89 29 40 35
        E 37 99 30 7b -15
        E 0 99 24 53 91
        E 0 99 30 1f 99
        E 76 89 24 40 91
        E 36 89 30 40 -15
        E 87 89 30 40 99
        E 41 99 24 25 -70
        E 0 99 2d 7f 7
        E 199 89 24 40 -70
        E 1 89 2d 40 7
        E 280 99 29 7f 26
        E 0 99 24 4a 90
        E 93 89 24 40 90
        E 108 89 29 40 26
        E 39 99 24 1d -54
        E 197 89 24 40 -54
        E 43 99 24 30 -6
        E 0 99 29 7f 37
        E 0 99 26 7f 50
        E 199 89 26 40 50
        E 2 89 24 40 -6
        E 0 89 29 40 37
        E 279 99 29 7f 17
        E 200 89 29 40 17
        E 280 99 24 51 -31
        E 0 99 29 7f 17
        E 200 89 29 40 17
        E 1 89 24 40 -31
        E 279 99 24 3d 16
        E 0 99 29 7f 33
        E 145 89 24 40 16
        E 56 89 29 40 33
        E 39 99 24 1b -78
        E 200 89 24 40 -78
        E 40 99 26 7f 8
        E 0 99 29 7f 31
        E 199 89 26 40 8
        E 1 89 29 40 31
        E 280 99 29 7f 10
        E 200 89 29 40 10
        E 40 99 30 7f -27
        E 0 99 24 54 32
        E 87 89 24 40 32
        E 113 89 30 40 -27
        E 40 99 24 24 -118
        E 0 99 2d 7f 7
        E 197 89 24 40 -118
        E 6 89 2d 40 7
        E 37 99 24 47 -41
        E 0 99 24 1f 43
        E 83 89 24 40 -41
        E 117 89 24 40 43
        E 40 99 2d 60 -69
        E 200 89 2d 40 -69
        E 280 99 26 7f -9
        E 0 99 29 7f 26
        E 199 89 29 40 26
        E 1 89 26 40 -9
        E 280 99 29 7f 5
        E 200 89 29 40 5
        E 280 99 24 5a 8
        E 0 99 29 7f 32
        E 199 89 24 40 8
        E 0 89 29 40 32
        E 281 99 24 46 15
        E 0 99 29 7f 41
        E 148 89 24 40 15
        E 52 89 29 40 41
        E 40 99 24 1e -75
        E 198 89 24 40 -75
        E 42 99 26 7f -7
        E 0 99 29 7f 48
        E 200 89 29 40 48
        E 2 89 26 40 -7
        E 278 99 29 7f 43
        E 0 99 24 3b 101
        E 200 89 29 40 43
        E 0 89 24 40 101
        E 40 99 30 7f 87
        E 89 89 30 40 87
        E 151 99 30 2b -61
        E 0 99 24 5e 27
        E 0 99 2d 7f 79
        E 200 89 30 40 -61
        E 0 89 24 40 27
        E 0 89 2d 40 79
        E 206 b9 04 00
        E 28 b9 04 00
        E 46 99 1a 1a -73
        E 0 99 1a 42 -42
        E 0 99 30 7a -39
        E 0 99 2d 7f 21
        E 28 89 1a 40 -73
        E 169 89 1a 40 -42
        E 4 89 2d 40 21
        E 1 89 30 40 -39
        E 38 99 24 4d -107
        E 0 99 24 23 -27
        E 78 89 24 40 -107
        E 120 89 24 40 -27
        E 42 99 26 6f 42
        E 0 99 29 7f 45
        E 200 89 26 40 42
        E 2 89 29 40 45
        E 278 99 29 7f 55
        E 200 89 29 40 55
        E 280 99 29 7f 59
        E 0 99 24 56 99
        E 200 89 29 40 59
        E 0 89 24 40 99
        E 280 99 24 3a 35
        E 0 99 29 7f 46
        E 168 89 24 40 35
        E 33 89 29 40 46
        E 39 99 24 19 -37
        E 200 89 24 40 -37
        E 40 99 26 7f 15
        E 0 99 29 7f 63
        E 203 89 26 40 15
        E 0 89 29 40 63
        E 277 99 29 7f 65
        E 200 89 29 40 65
        E 40 99 26 4a -1
        E 200 89 26 40 -1
        E 40 99 24 56 -22
        E 0 99 29 7f 59
        E 199 89 24 40 -22
        E 2 89 29 40 59
        E 279 99 24 37 -69
        E 0 99 29 7f 65
        E 198 89 24 40 -69
        E 3 89 29 40 65
        E 39 99 24 16 -109
        E 201 89 24 40 -109
        E 39 99 26 7c 63
        E 0 99 29 7f 85
        E 200 89 26 40 63
        E 0 89 29 40 85
        E 280 99 29 7f 83
        E 200 89 29 40 83
        E 280 99 24 4d 91
        E 0 99 29 7f 107
        E 200 89 24 40 91
        E 0 89 29 40 107
        E 280 99 24 3c 31
        E 0 99 29 7f 105
        E 122 89 24 40 31
        E 78 89 29 40 105
        E 40 99 24 1c -87
        E 200 89 24 40 -87
        E 40 99 26 7f 107
        E 200 89 26 40 107
        E 40 99 29 7f -102
        E 199 89 29 40 -102
        E 281 99 29 7f -118
        E 0 99 30 7f 71
        E 199 89 29 40 -118
        E 3 89 30 40 71
        E 38 99 24 6c -5
        E 0 99 2d 7f 117
        E 200 89 24 40 -5
        E 0 89 2d 40 117
        E 280 99 24 43 -105
        E 0 99 2d 7f 81
        E 200 89 24 40 -105
        E 1 89 2d 40 81
        E 279 99 26 7f 54
        E 0 99 29 7f 95
        E 89 89 26 40 54
        E 114 89 29 40 95
        E 37 99 26 35 -95
        E 198 89 26 40 -95
        E 42 99 29 7f 91
        E 203 89 29 40 91
        E 277 99 29 7f 91
        E 0 99 24 4e 113
        E 200 89 29 40 91
        E 1 89 24 40 113
        E 279 99 29 7f 91
        E 0 99 24 3e 95
        E 158 89 24 40 95
        E 44 89 29 40 91
        E 38 99 24 1f 15
        E 198 89 24 40 15
        E 42 99 26 7f 67
        E 0 99 29 7f 95
        E 200 89 26 40 67
        E 1 89 29 40 95
        E 279 99 29 7f 91
        E 200 89 29 40 91
        E 280 99 24 50 71
        E 0 99 29 7f 89
        E 202 89 24 40 71
        E 0 89 29 40 89
        E 278 99 24 3e 10
        E 0 99 29 7f 101
        E 199 89 24 40 10
        E 1 89 29 40 101
        E 40 99 24 20 -6
        E 201 89 24 40 -6
        E 39 99 26 7e 110
        E 201 89 26 40 110
        E 39 99 29 7f -113
        E 200 89 29 40 -113
        E 280 99 29 7f -93
        E 200 89 29 40 -93
        E 40 99 24 4a 59
        E 0 99 29 7f 91
        E 200 89 24 40 59
        E 1 89 29 40 91
        E 39 99 24 31 113
        E 140 89 24 40 113
        E 100 99 24 0a 17
        E 0 99 29 7f 91
        E 198 89 24 40 17
        E 2 89 29 40 91
        E 280 99 26 7f 67
        E 0 99 29 7f 106
        E 199 89 29 40 106
        E 3 89 26 40 67
        E 278 99 29 7f 61
        E 200 89 29 40 61
        E 40 99 30 7f 32
        E 111 89 30 40 32
        E 129 99 30 25 -95
        E 0 99 24 58 -22
        E 0 99 2d 7f 65
        E 200 89 2d 40 65
        E 1 89 30 40 -95
        E 2 89 24 40 -22
        E 2 b9 04 03
        E 35 99 1a 27 -33
        E 0 99 30 6d 17
        E 0 99 30 28 102
        E 85 89 30 40 17
        E 48 b9 04 06
        E 66 89 30 40 102
        E 1 89 1a 40 -33
        E 40 99 2d 7f 20
        E 0 99 24 49 55
        E 17 b9 04 00
        E 71 89 24 40 55
        E 113 89 2d 40 20
        E 39 99 24 22 -97
        E 202 89 24 40 -97
        E 38 99 26 73 19
        E 0 99 29 7f 47
        E 200 89 26 40 19
        E 4 89 29 40 47
        E 276 99 29 7f 31
        E 200 89 29 40 31
        E 280 99 29 7f 31
        E 0 99 24 53 41
        E 200 89 29 40 31
        E 0 89 24 40 41
        E 280 99 24 3d 58
        E 0 99 29 7f 58
        E 149 89 24 40 58
        E 51 89 29 40 58
        E 40 99 24 1c -31
        E 200 89 24 40 -31
        E 40 99 26 78 45
        E 0 99 29 7f 63
        E 200 89 26 40 45
        E 0 89 29 40 63
        E 280 99 29 7f 47
        E 200 89 29 40 47
        E 40 99 2d 7f -23
        E 203 89 2d 40 -23
        E 37 99 24 5d 11
        E 0 99 2d 7f 15
        E 200 89 24 40 11
        E 2 89 2d 40 15
        E 278 99 2d 7f 23
        E 0 99 24 48 77
        E 184 89 24 40 77
        E 16 89 2d 40 23
        E 40 99 24 28 23
        E 200 89 24 40 23
        E 40 99 2d 7f -73
        E 0 99 26 65 103
        E 62 89 26 40 103
        E 138 89 2d 40 -73
        E 40 99 26 4b -70
        E 199 89 26 40 -70
        E 41 99 29 7f -83
        E 201 89 29 40 -83
        E 39 99 26 6e 100
        E 201 89 26 40 100
        E 39 99 29 7f 49
        E 200 89 29 40 49
        E 280 99 29 7f 99
        E 201 89 29 40 99
        E 39 99 24 37 -79
        E 203 89 24 40 -79
        E 37 99 24 47 55
        E 200 89 24 40 55
        E 40 99 26 6b -98
        E 0 99 29 7f -75
        E 199 89 26 40 -98
        E 1 89 29 40 -75
        E 280 99 29 7f -86
        E 199 89 29 40 -86
        E 281 99 24 4f -107
        E 0 99 29 7f -85
        E 200 89 24 40 -107
        E 0 89 29 40 -85
        E 40 99 24 30 91
        E 200 89 24 40 91
        E 40 99 29 75 -61
        E 200 89 29 40 -61
        E 280 99 24 3f -102
        E 0 99 29 7f -82
        E 201 89 24 40 -102
        E 0 89 29 40 -82
        E 279 99 29 4f -9
        E 200 89 29 40 -9
        E 4840 99 29 7f -6
        E 0 99 24 50 21
        E 201 89 29 40 -6
        E 1 89 24 40 21
        E 278 99 29 7f -55
        E 0 99 24 3a -47
        E 200 89 24 40 -47
        E 2 89 29 40 -55
        E 38 99 24 1e -79
        E 200 89 24 40 -79
        E 40 99 26 7f -59
        E 0 99 29 7f -21
        E 200 89 26 40 -59
        E 0 89 29 40 -21
        E 280 99 29 7f -73
        E 0 99 30 41 81
        E 200 89 29 40 -73
        E 0 89 30 40 81
        E 40 99 24 57 74
        E 199 89 24 40 74
        E 41 99 2d 7f -85
        E 202 89 2d 40 -85
        E 278 99 29 42 -119
        E 0 99 2d 18 -105
        E 200 89 29 40 -119
        E 2 89 2d 40 -105
        E 278 99 26 7f -89
        E 0 99 29 7f -69
        E 200 89 26 40 -89
        E 0 89 29 40 -69
        E 280 99 29 7f -79
        E 201 89 29 40 -79
        E 279 99 24 53 -77
        E 0 99 29 7f -49
        E 200 89 24 40 -77
        E 2 89 29 40 -49
        E 278 99 24 3b -101
        E 0 99 29 7f -55
        E 0 99 24 23 17
        E 116 89 24 40 -101
        E 84 89 29 40 -55
        E 0 89 24 40 17
        E 280 99 26 7f -69
        E 0 99 29 7f -30
        E 199 89 29 40 -30
        E 1 89 26 40 -69
        E 280 99 29 7f -37
        E 200 89 29 40 -37
        E 280 99 24 58 -83
        E 0 99 29 7f -35
        E 200 89 29 40 -35
        E 2 89 24 40 -83
        E 278 99 24 3d -103
        E 0 99 29 7f -17
        E 0 99 24 1f 15
        E 114 89 24 40 -103
        E 84 89 24 40 15
        E 2 89 29 40 -17
        E 280 99 29 7f -11
        E 200 89 29 40 -11
        E 280 99 29 7f 23
        E 200 89 29 40 23
        E 280 99 24 4c 35
        E 0 99 29 7f 69
        E 200 89 24 40 35
        E 0 89 29 40 69
        E 280 99 24 3d 17
        E 0 99 29 7f 83
        E 170 89 24 40 17
        E 32 89 29 40 83
        E 38 99 24 1d -51
        E 198 89 24 40 -51
        E 42 99 26 6c 89
        E 0 99 29 7f 105
        E 78 89 26 40 89
        E 122 89 29 40 105
        E 40 99 26 3d -73
        E 200 89 26 40 -73
        E 40 99 29 7f 47
        E 202 89 29 40 47
        E 38 99 30 7f -5
        E 200 89 30 40 -5
        E 40 99 24 5f -55
        E 0 99 2d 7f 39
        E 200 89 24 40 -55
        E 0 89 2d 40 39
        E 280 99 29 3d 1
        E 0 99 2d 1b 15
        E 202 89 29 40 1
        E 0 89 2d 40 15
        E 278 99 26 7f 29
        E 0 99 29 7f 53
        E 202 89 26 40 29
        E 0 89 29 40 53
        E 278 99 29 7f 41
        E 200 89 29 40 41
        E 280 99 24 56 39
        E 0 99 29 7f 53
        E 200 89 24 40 39
        E 0 89 29 40 53
        E 280 99 24 3d 49
        E 0 99 29 7f 93
        E 146 89 24 40 49
        E 54 89 29 40 93
        E 40 99 24 1f -43
        E 200 89 24 40 -43
        E 40 99 26 7f 39
        E 0 99 29 7f 85
        E 200 89 29 40 85
        E 2 89 26 40 39
        E 278 99 29 7f 71
        E 200 89 29 40 71
        E 280 99 24 4d 75
        E 0 99 29 7f 85
        E 200 89 24 40 75
        E 2 89 29 40 85
        E 278 99 29 7f 85
        E 0 99 24 3a 87
        E 190 89 24 40 87
        E 12 89 29 40 85
        E 38 99 24 19 41
        E 198 89 24 40 41
        E 42 99 26 7f 69
        E 0 99 29 7f 111
        E 200 89 29 40 111
        E 2 89 26 40 69
        E 278 99 29 7f 117
        E 200 89 29 40 117
        E 280 99 24 51 59
        E 0 99 29 7f 101
        E 200 89 29 40 101
        E 2 89 24 40 59
        E 278 99 24 37 22
        E 0 99 29 7f 74
        E 149 89 24 40 22
        E 50 89 29 40 74
        E 41 99 24 18 -67
        E 200 89 24 40 -67
        E 40 99 26 7b 65
        E 0 99 29 7f 103
        E 200 89 26 40 65
        E 0 89 29 40 103
        E 280 99 29 7f 59
        E 201 89 29 40 59
        E 39 99 30 7f -3
        E 200 89 30 40 -3
        E 40 99 24 62 -59
        E 0 99 2d 7f 47
        E 200 89 24 40 -59
        E 0 89 2d 40 47
        E 280 99 29 7f 65
        E 200 89 29 40 65
        E 40 99 26 7f -95
        E 202 89 26 40 -95
        E 38 99 29 7f 61
        E 200 89 29 40 61
        E 280 99 29 7f 73
        E 200 89 29 40 73
        E 280 99 24 5a 77
        E 0 99 29 7f 81
        E 200 89 24 40 77
        E 0 89 29 40 81
        E 280 99 24 45 55
        E 0 99 29 7f 89
        E 114 89 24 40 55
        E 88 89 29 40 89
        E 38 99 24 22 -69
        E 198 89 24 40 -69
        E 42 99 26 7f 19
        E 0 99 29 7f 66
        E 200 89 26 40 19
        E 1 89 29 40 66
        E 279 99 29 7f 61
        E 200 89 29 40 61
        E 280 99 24 52 23
        E 0 99 29 7f 67
        E 200 89 29 40 67
        E 2 89 24 40 23
        E 278 99 24 3d 33
        E 0 99 29 7f 63
        E 144 89 24 40 33
        E 56 89 29 40 63
        E 40 99 24 1f -61
        E 200 89 24 40 -61
        E 40 99 26 7c 53
        E 0 99 29 7f 107
        E 200 89 26 40 53
        E 0 89 29 40 107
        E 280 99 29 7f 91
        E 200 89 29 40 91
        E 280 99 24 56 87
        E 200 89 24 40 87
        E 40 99 29 7f -115
        E 200 89 29 40 -115
        E 40 99 24 3c 47
        E 0 99 29 7f 103
        E 144 89 24 40 47
        E 55 89 29 40 103
        E 41 99 24 19 -47
        E 200 89 24 40 -47
        E 40 99 26 7f 63
        E 0 99 29 7f 105
        E 200 89 26 40 63
        E 0 89 29 40 105
        E 280 99 29 7f 69
        E 181 b9 04 00
        E 19 89 29 40 69
        E 40 99 1a 34 -57
        E 0 99 30 77 -27
        E 200 89 1a 40 -57
        E 0 89 30 40 -27
        E 40 99 24 70 -45
        E 0 99 2d 7f 85
        E 200 89 24 40 -45
        E 0 89 2d 40 85
        E 40 99 24 49 113
        E 200 89 24 40 113
        E 40 99 2d 7f -3
        E 200 89 2d 40 -3
        E 280 99 26 7f 7
        E 0 99 29 7f 37
        E 200 89 26 40 7
        E 0 89 29 40 37
        E 280 99 29 7f 31
        E 200 89 29 40 31
        E 280 99 24 55 -33
        E 0 99 29 7f 31
        E 200 89 29 40 31
        E 2 89 24 40 -33
        E 278 99 24 40 -69
        E 0 99 29 7f 29
        E 200 89 29 40 29
        E 2 89 24 40 -69
        E 278 99 26 7c 9
        E 0 99 29 7f 49
        E 200 89 26 40 9
        E 1 89 29 40 49
        E 279 99 29 7f 59
        E 202 89 29 40 59
        E 278 99 24 53 57
        E 0 99 29 7f 79
        E 200 89 24 40 57
        E 0 89 29 40 79
        E 280 99 24 40 -11
        E 0 99 29 7f 61
        E 0 99 24 22 97
        E 108 89 24 40 -11
        E 92 89 29 40 61
        E 1 89 24 40 97
        E 279 99 26 75 17
        E 0 99 29 7f 75
        E 200 89 26 40 17
        E 4 89 29 40 75
        E 276 99 29 78 87
        E 200 89 29 40 87
        E 280 99 24 54 51
        E 0 99 29 7f 97
        E 104 89 24 40 51
        E 96 89 29 40 97
        E 40 99 24 21 -83
        E 198 89 24 40 -83
        E 42 99 29 7f 87
        E 200 89 29 40 87
        E 40 99 24 43 -109
        E 0 99 24 23 61
        E 168 89 24 40 -109
        E 32 89 24 40 61
        E 40 99 26 7f 83
        E 0 99 29 7f 111
        E 199 89 29 40 111
        E 5 89 26 40 83
        E 276 99 29 7f 71
        E 202 89 29 40 71
        E 38 99 30 7f -7
        E 200 89 30 40 -7
        E 40 99 24 67 -19
        E 0 99 2d 7f 89
        E 200 89 24 40 -19
        E 0 89 2d 40 89
        E 280 99 24 3c -81
        E 0 99 24 1e
        E 0 99 2d 7f 79
        E 80 89 24 40 -81
        E 120 89 2d 40 79
        E 1 89 24 40
        E 279 99 26 7f 43
        E 0 99 29 7f 77
        E 200 89 29 40 77
        E 2 89 26 40 43
        E 278 99 29 7f 61
        E 200 89 29 40 61
        E 280 99 29 7f 67
        E 0 99 24 55 95
        E 200 89 29 40 67
        E 0 89 24 40 95
        E 280 99 24 3e -5
        E 0 99 29 7f 73
        E 200 89 24 40 -5
        E 0 89 29 40 73
        E 280 99 26 7f 39
        E 0 99 29 7f 93
        E 200 89 26 40 39
        E 0 89 29 40 93
        E 280 99 29 7f 62
        E 201 89 29 40 62
        E 279 99 24 53 53
        E 0 99 29 7f 77
        E 200 89 24 40 53
        E 0 89 29 40 77
        E 280 99 24 3f 57
        E 0 99 29 7f 81
        E 156 89 24 40 57
        E 45 89 29 40 81
        E 39 99 24 1c -25
        E 202 89 24 40 -25
        E 38 99 26 7d 46
        E 0 99 29 7f 91
        E 201 89 26 40 46
        E 1 89 29 40 91
        E 278 99 29 7f 63
        E 200 89 29 40 63
        E 40 99 30 78 -17
        E 200 89 30 40 -17
        E 40 99 24 66 -43
        E 0 99 2d 7f 69
        E 201 89 2d 40 69
        E 1 89 24 40 -43
        E 38 99 24 3b 97
        E 202 89 24 40 97
        E 38 99 2d 7f 41
        E 204 89 2d 40 41
        E 276 99 26 7f -1
        E 0 99 29 7f 45
        E 199 89 29 40 45
        E 1 89 26 40 -1
        E 280 99 29 7f 35
        E 200 89 29 40 35
        E 280 99 24 55 25
        E 0 99 29 7f 27
        E 200 89 24 40 25
        E 2 89 29 40 27
        E 278 99 24 3d -23
        E 0 99 29 7f 21
        E 200 89 29 40 21
        E 2 89 24 40 -23
        E 278 99 26 7f -15
        E 0 99 29 7f 38
        E 200 89 29 40 38
        E 2 89 26 40 -15
        E 278 99 29 7f 25
        E 202 89 29 40 25
        E 278 99 29 7f 32
        E 0 99 24 50 38
        E 201 89 29 40 32
        E 0 89 24 40 38
        E 279 99 24 3c -13
        E 0 99 29 7f 26
        E 138 89 24 40 -13
        E 65 89 29 40 26
        E 37 99 24 1c -115
        E 200 89 24 40 -115
        E 40 99 26 7f 8
        E 0 99 29 7f 61
        E 201 89 29 40 61
        E 2 89 26 40 8
        E 277 99 29 7f 35
        E 200 89 29 40 35
        E 280 99 24 50 -1
        E 0 99 29 7f 60
        E 200 89 24 40 -1
        E 1 89 29 40 60
        E 279 99 24 37 -62
        E 0 99 29 7f 22
        E 201 89 24 40 -62
        E 4 89 29 40 22
        E 275 99 26 7f 13
        E 0 99 29 7f 59
        E 200 89 26 40 13
        E 2 89 29 40 59
        E 278 99 29 7f 23
        E 199 89 29 40 23
        E 41 99 30 7f -37
        E 202 89 30 40 -37
        E 38 99 24 62 -83
        E 0 99 2d 7f 55
        E 200 89 24 40 -83
        E 0 89 2d 40 55
        E 40 99 30 7e -37
        E 17 b9 04 06
        E 182 89 30 40 -37
        E 4 b9 04 00
        E 37 99 24 51 -91
        E 0 99 2d 7f 5
        E 200 89 24 40 -91
        E 0 89 2d 40 5
        E 280 99 26 7f -10
        E 0 99 29 7f 46
        E 201 89 29 40 46
        E 1 89 26 40 -10
        E 278 99 29 7f 5
        E 200 89 29 40 5
        E 280 99 24 55 31
        E 0 99 29 7f 37
        E 200 89 24 40 31
        E 0 89 29 40 37
        E 280 99 24 3e -31
        E 0 99 29 7f 10
        E 0 99 24 1d 99
        E 128 89 24 40 -31
        E 72 89 24 40 99
        E 1 89 29 40 10
        E 279 99 26 7f 5
        E 0 99 29 7f 51
        E 200 89 26 40 5
        E 0 89 29 40 51
        E 280 99 29 7f -7
        E 200 89 29 40 -7
        E 40 99 26 52 -105
        E 200 89 26 40 -105
        E 40 99 24 64 -22
        E 0 99 29 7f -12
        E 201 89 24 40 -22
        E 0 89 29 40 -12
        E 279 99 29 7f -3
        E 199 89 29 40 -3
        E 281 99 26 7f 9
        E 0 99 29 7f 35
        E 200 89 26 40 9
        E 2 89 29 40 35
        E 278 99 29 7f 19
        E 202 89 29 40 19
        E 278 99 29 7f 38
        E 0 99 24 57 45
        E 200 89 24 40 45
        E 1 89 29 40 38
        E 279 99 24 34 -53
        E 0 99 29 7f 45
        E 200 89 24 40 -53
        E 2 89 29 40 45
        E 278 99 26 7f 21
        E 0 99 29 7f 57
        E 200 89 26 40 21
        E 2 89 29 40 57
        E 278 99 29 7f 15
        E 200 89 29 40 15
        E 40 99 30 7c -45
        E 200 89 30 40 -45
        E 40 99 24 60 -65
        E 0 99 2d 7f 45
        E 200 89 24 40 -65
        E 2 89 2d 40 45
        E 38 99 30 7f -38
        E 200 89 30 40 -38
        E 40 99 24 4b -47
        E 0 99 2d 7f -11
        E 199 89 24 40 -47
        E 1 89 2d 40 -11
        E 280 99 26 7f 1
        E 0 99 29 7f 37
        E 200 89 26 40 1
        E 0 89 29 40 37
        E 280 99 29 7f 27
        E 199 89 29 40 27
        E 281 99 29 7f 25
        E 0 99 24 4f 59
        E 201 89 24 40 59
        E 1 89 29 40 25
        E 278 99 24 42 -15
        E 0 99 29 7f 26
        E 200 89 24 40 -15
        E 1 89 29 40 26
        E 279 99 26 7f 23
        E 0 99 29 7f 77
        E 200 89 26 40 23
        E 0 89 29 40 77
        E 280 99 29 7f 73
        E 200 89 29 40 73
        E 280 99 24 52 77
        E 0 99 29 7f 85
        E 200 89 24 40 77
        E 0 89 29 40 85
        E 280 99 24 3d 15
        E 0 99 29 7f 71
        E 0 99 24 1f 119
        E 104 89 24 40 15
        E 96 89 29 40 71
        E 0 89 24 40 119
        E 280 99 26 7f 25
        E 0 99 29 7f 65
        E 200 89 26 40 25
        E 0 89 29 40 65
        E 280 99 29 7f 49
        E 200 89 29 40 49
        E 40 99 28 58 -2
        E 0 99 28 2a 97
        E 97 89 28 40 -2
        E 103 89 28 40 97
        E 40 99 26 64 66
        E 0 99 24 49 75
        E 126 89 24 40 75
        E 75 89 26 40 66
        E 39 99 24 24 -37
        E 0 99 26 40 37
        E 96 89 26 40 37
        E 104 89 24 40 -37
        E 40 99 26 23 -105
        E 0 99 26 7e 49
        E 152 89 26 40 -105
        E 44 89 26 40 49
        E 44 99 26 66 7
        E 200 89 26 40 7
        E 40 99 26 78 28
        E 201 89 26 40 28
        E 39 99 26 61 17
        E 200 89 26 40 17
        E 40 99 26 7f 25
        E 200 89 26 40 25
        E 40 99 26 68 -9
        E 202 89 26 40 -9
        E 38 99 33 41 -15
        E 0 99 33 7f 30
        E 0 99 24 5f 89
        E 44 89 33 40 -15
        E 157 89 33 40 30
        E 1 89 24 40 89
        E 278 99 29 7f -29
        E 200 89 29 40 -29
        E 280 99 26 7f -23
        E 0 99 29 7f 20
        E 202 89 26 40 -23
        E 0 89 29 40 20
        E 278 99 29 7f 9
        E 200 89 29 40 9
        E 280 99 24 51 15
        E 0 99 29 7f 33
        E 200 89 24 40 15
        E 0 89 29 40 33
        E 280 99 29 7f 25
        E 200 89 29 40 25
        E 280 99 26 7f -7
        E 0 99 29 7f 45
        E 199 89 26 40 -7
        E 2 89 29 40 45
        E 279 99 29 7f 23
        E 200 89 29 40 23
        E 280 99 29 7f 35
        E 0 99 24 4e 45
        E 199 89 24 40 45
        E 1 89 29 40 35
        E 280 99 24 3d -59
        E 0 99 24 1d 33
        E 0 99 29 7f 41
        E 90 89 24 40 -59
        E 109 89 29 40 41
        E 2 89 24 40 33
        E 279 99 26 7f 34
        E 0 99 29 7f 79
        E 200 89 29 40 79
        E 3 89 26 40 34
        E 277 99 29 7f 65
        E 200 89 29 40 65
        E 280 99 24 51 36
        E 0 99 29 7f 59
        E 200 89 29 40 59
        E 1 89 24 40 36
        E 279 99 29 7f 52
        E 201 89 29 40 52
        E 279 99 26 7f 21
        E 0 99 29 7f 73
        E 199 89 26 40 21
        E 1 89 29 40 73
        E 280 99 29 7f 37
        E 200 89 29 40 37
        E 40 99 30 6d -38
        E 203 89 30 40 -38
        E 37 99 24 64 -78
        E 0 99 2d 7f 57
        E 200 89 2d 40 57
        E 1 89 24 40 -78
        E 39 99 30 5c -15
        E 35 b9 04 06
        E 165 89 30 40 -15
        E 40 99 24 51 -32
        E 0 99 2d 7f
        E 26 b9 04 00
        E 174 89 2d 40
        E 1 89 24 40 -32
        E 279 99 26 74 3
        E 0 99 29 7f 41
        E 199 89 26 40 3
        E 2 89 29 40 41
        E 279 99 29 7f 28
        E 200 89 29 40 28
        E 280 99 29 7f 51
        E 0 99 24 54 68
        E 199 89 29 40 51
        E 2 89 24 40 68
        E 279 99 24 41 13
        E 0 99 29 7f 55
        E 0 99 24 22 110
        E 94 89 24 40 13
        E 106 89 29 40 55
        E 1 89 24 40 110
        E 279 99 26 7f 29
        E 0 99 29 7f 71
        E 200 89 26 40 29
        E 0 89 29 40 71
        E 280 99 29 7f 52
        E 200 89 29 40 52
        E 280 99 24 4e 57
        E 0 99 29 7f 70
        E 200 89 24 40 57
        E 1 89 29 40 70
        E 279 99 29 7f 79
        E 199 89 29 40 79
        E 281 99 26 7f 63
        E 0 99 29 7f 84
        E 201 89 26 40 63
        E 0 89 29 40 84
        E 279 99 29 7f 67
        E 200 89 29 40 67
        E 2 b9 04 00
        E 38 99 1a 7f -36
        E 201 89 1a 40 -36
        E 14 b9 04 12
        E 25 99 24 56 -61
        E 0 99 24 28 35
        E 0 99 29 7f 45
        E 29 b9 04 22
        E 60 b9 04 32
        E 4 89 24 40 -61
        E 106 89 24 40 35
        E 0 89 29 40 45
        E 3 b9 04 22
        E 136 b9 04 12
        E 142 99 29 7f 62
        E 201 89 29 40 62
        E 279 99 26 7f 58
        E 0 99 29 7f 80
        E 200 89 26 40 58
        E 3 89 29 40 80
        E 202 b9 04 06
        E 75 99 29 7f 52
        E 201 89 29 40 52
        E 39 99 28 4a -11
        E 5 b9 04 00
        E 195 89 28 40 -11
        E 40 99 24 6b -38
        E 0 99 2d 7f 42
        E 201 89 24 40 -38
        E 0 89 2d 40 42
        E 39 99 30 7f -12
        E 12 b9 04 0f
        E 189 89 30 40 -12
        E 39 99 2d 7f 6
        E 0 99 24 4e 10
        E 98 b9 04 06
        E 104 89 2d 40 6
        E 1 89 24 40 10
        E 146 b9 04 00
        E 131 99 26 7f -46
        E 0 99 29 7f 11
        E 200 89 29 40 11
        E 3 89 26 40 -46
        E 277 99 29 7f -10
        E 199 b9 04 09
        E 2 89 29 40 -10
        E 279 99 24 58 7
        E 0 99 29 7f 10
        E 201 89 29 40 10
        E 1 89 24 40 7
        E 278 99 24 37 -94
        E 0 99 29 7f -4
        E 200 89 24 40 -94
        E 3 89 29 40 -4
        E 25 b9 04 00
        E 252 99 26 7f -35
        E 0 99 29 7f 32
        E 199 89 26 40 -35
        E 2 89 29 40 32
        E 279 99 29 7f -1
        E 0 99 26 21 109
        E 199 89 26 40 109
        E 3 89 29 40 -1
        E 278 99 24 55 10
        E 0 99 29 7f 14
        E 200 89 24 40 10
        E 3 89 29 40 14
        E 37 99 24 29 79
        E 202 89 24 40 79
        E 38 99 29 7f 26
        E 201 89 29 40 26
        E 279 99 26 7b -15
        E 0 99 29 7f 49
        E 200 89 26 40 -15
        E 0 89 29 40 49
        E 280 99 29 7f 22
        E 0 99 1a 7f 98
        E 96 b9 04 00
        E 104 89 1a 40 98
        E 1 89 29 40 22
        E 176 b9 04 12
        E 7 b9 04 25
        E 62 b9 04 36
        E 34 99 24 65 -45
        E 0 99 29 7f -5
        E 52 b9 04 46
        E 110 b9 04 36
        E 39 89 29 40 -5
        E 2 89 24 40 -45
        E 41 b9 04 25
        E 108 b9 04 18
        E 128 99 29 7f 34
        E 21 b9 04 0f
        E 180 89 29 40 34
        E 279 99 26 7f 51
        E 0 99 29 7f 70
        E 64 b9 04 09
        E 135 89 26 40 51
        E 1 89 29 40 70
        E 8 b9 04 00
        E 272 99 29 7f 9
        E 100 b9 04 09
        E 102 89 29 40 9
        E 38 99 30 7f -54
        E 0 99 24 6e 82
        E 25 b9 04 00
        E 175 89 24 40 82
        E 3 89 30 40 -54
        E 27 b9 04 12
        E 10 99 2d 7f 20
        E 128 b9 04 1d
        E 73 89 2d 40 20
        E 39 99 30 64 -37
        E 0 99 24 49 32
        E 116 b9 04 0f
        E 83 89 30 40 -37
        E 1 89 24 40 32
        E 40 99 2d 7f -14
        E 57 b9 04 06
        E 144 89 2d 40 -14
        E 65 b9 04 00
        E 214 99 26 7f -3
        E 0 99 29 7f 18
        E 200 89 29 40 18
        E 2 89 26 40 -3
        E 278 99 29 7f 11
        E 199 89 29 40 11
        E 24 b9 04 09
        E 257 99 24 5d -2
        E 0 99 29 7f 28
        E 200 89 29 40 28
        E 1 89 24 40 -2
        E 39 99 24 16 21
        E 202 89 24 40 21
        E 38 99 29 7f 10
        E 200 89 29 40 10
        E 40 99 24 23 -41
        E 173 b9 04 03
        E 4 b9 04 00
        E 22 89 24 40 -41
        E 41 99 26 7f 60
        E 0 99 29 7f 77
        E 200 89 26 40 60
        E 0 89 29 40 77
        E 280 99 29 7f 52
        E 200 89 29 40 52
        E 280 99 24 5c 70
        E 0 99 29 7f 99
        E 200 89 24 40 70
        E 1 89 29 40 99
        E 57 b9 04 12
        E 40 b9 04 22
        E 40 b9 04 32
        E 142 99 29 7f 95
        E 83 b9 04 22
        E 35 b9 04 12
        E 36 b9 04 00
        E 45 89 29 40 95
        E 281 99 2c 50 33
        E 0 99 26 7f 97
        E 0 99 29 7f 108
        E 18 b9 04 12
        E 4 b9 04 25
        E 4 b9 04 38
        E 2 b9 04 49
        E 2 b9 04 4f
        E 5 b9 04 5b
        E 35 b9 04 6c
        E 115 b9 04 5c
        E 15 89 2c 40 33
        E 2 89 26 40 97
        E 0 89 29 40 108
        E 4 b9 04 4c
        E 19 b9 04 3c
        E 31 b9 04 2c
        E 46 b9 04 1a
        E 124 b9 04 12
        E 54 99 29 7f 106
        E 201 89 29 40 106
        E 16 b9 04 20
        E 280 b9 04 0f
        E 67 b9 04 00
        E 156 99 29 7f -118
        E 0 99 24 64 -85
        E 96 b9 04 0c
        E 103 89 24 40 -85
        E 1 89 29 40 -118
        E 40 99 24 31 -10
        E 0 99 29 7f 118
        E 200 89 24 40 -10
        E 1 89 29 40 118
        E 279 99 26 7f 98
        E 121 b9 04 03
        E 10 b9 04 00
        E 69 89 26 40 98
        E 40 99 29 7f -117
        E 141 b9 04 12
        E 58 89 29 40 -117
        E 41 99 29 7f 83
        E 6 b9 04 00
        E 172 b9 04 12
        E 9 b9 04 22
        E 8 b9 04 32
        E 4 89 29 40 83
        E 7 b9 04 43
        E 4 b9 04 4c
        E 5 b9 04 54
        E 7 b9 04 65
        E 18 99 2c 1c -27
        E 0 99 30 5b -12
        E 15 b9 04 75
        E 62 b9 04 65
        E 18 b9 04 55
        E 11 b9 04 44
        E 11 b9 04 34
        E 8 b9 04 22
        E 12 b9 04 12
        E 11 b9 04 00
        E 52 89 2c 40 -27
        E 0 89 30 40 -12
        E 40 99 24 7f -1
        E 0 99 2d 7f 82
        E 149 b9 04 12
        E 1 b9 04 25
        E 3 b9 04 38
        E 2 b9 04 49
        E 2 b9 04 53
        E 5 b9 04 5a
        E 2 b9 04 6e
        E 10 b9 04 5d
        E 13 b9 04 6e
        E 12 89 24 40 -1
        E 1 89 2d 40 82
        E 40 99 2c 7a -81
        E 46 b9 04 5d
        E 12 b9 04 4c
        E 8 b9 04 3c
        E 11 b9 04 2c
        E 9 b9 04 1a
        E 12 b9 04 09
        E 6 b9 04 00
        E 94 89 2c 40 -81
        E 42 99 24 58 -42
        E 0 99 2d 7f 36
        E 110 b9 04 12
        E 11 b9 04 25
        E 17 b9 04 36
        E 15 b9 04 46
        E 3 b9 04 4c
        E 8 b9 04 56
        E 37 89 2d 40 36
        E 1 89 24 40 -42
        E 25 b9 04 46
        E 13 99 2c 12 -82
        E 15 b9 04 36
        E 186 89 2c 40 -82
        E 39 99 26 7f 57
        E 0 99 29 7f 104
        E 33 b9 04 2e
        E 67 b9 04 1d
        E 99 89 26 40 57
        E 1 89 29 40 104
        E 65 b9 04 0f
        E 142 b9 04 06
        E 73 99 29 7f 85
        E 199 89 29 40 85
        E 64 b9 04 12
        E 217 99 24 64 90
        E 0 99 29 7f 111
        E 41 b9 04 03
        E 6 b9 04 00
        E 153 89 29 40 111
        E 1 89 24 40 90
        E 279 99 24 3d 29
        E 201 89 24 40 29
        E 39 99 29 7f -119
        E 200 89 29 40 -119
        E 40 99 26 7e 75
        E 200 89 26 40 75
        E 40 99 29 7f -113
        E 199 89 29 40 -113
        E 41 99 29 7f 108
        E 200 89 29 40 108
        E 520 99 29 7f -106
        E 0 99 24 72 -96
        E 200 89 29 40 -106
        E 1 89 24 40 -96
        E 39 99 24 3b 61
        E 73 89 24 40 61
        E 167 99 24 19 -102
        E 0 99 29 7f -100
        E 51 b9 04 06
        E 148 89 24 40 -102
        E 3 89 29 40 -100
        E 146 b9 04 00
        E 132 99 26 7f -107
        E 0 99 29 7f -98
        E 200 89 26 40 -107
        E 3 89 29 40 -98
        E 37 99 29 7f 118
        E 200 89 29 40 118
        E 280 99 29 7f 100
        E 0 99 24 60 107
        E 202 89 29 40 100
        E 0 89 24 40 107
        E 278 99 29 7f 70
        E 200 89 29 40 70
        E 280 99 26 7f 29
        E 0 99 29 7f 56
        E 201 89 26 40 29
        E 0 89 29 40 56
        E 279 99 29 7f 44
        E 182 b9 04 09
        E 18 89 29 40 44
        E 40 99 30 5c -34
        E 200 89 30 40 -34
        E 40 99 24 7f -45
        E 0 99 2d 7f 52
        E 109 b9 04 1a
        E 91 89 2d 40 52
        E 2 89 24 40 -45
        E 38 99 30 79 -38
        E 59 b9 04 27
        E 141 89 30 40 -38
        E 40 99 24 5b -10
        E 0 99 2d 7f 9
        E 3 b9 04 18
        E 138 b9 04 0f
        E 58 89 2d 40 9
        E 2 89 24 40 -10
        E 169 b9 04 06
        E 110 99 26 7f 62
        E 0 99 29 7f 70
        E 66 b9 04 00
        E 134 89 26 40 62
        E 0 89 29 40 70
        E 280 99 29 7f 46
        E 200 89 29 40 46
        E 24 b9 04 09
        E 256 99 29 7f 44
        E 0 99 24 7d 54
        E 200 89 29 40 44
        E 0 89 24 40 54
        E 280 99 24 48 24
        E 0 99 29 7f 50
        E 124 89 24 40 24
        E 76 89 29 40 50
        E 40 99 24 21 -90
        E 200 89 24 40 -90
        E 40 99 26 7f -16
        E 0 99 29 7f 38
        E 200 89 29 40 38
        E 2 89 26 40 -16
        E 278 99 29 7f 42
        E 16 b9 04 03
        E 184 89 29 40 42
        E 280 99 29 7f 64
        E 0 99 24 68 78
        E 201 89 29 40 64
        E 2 89 24 40 78
        E 277 99 24 44 -12
        E 0 99 29 7f 58
        E 200 89 29 40 58
        E 2 89 24 40 -12
        E 278 99 26 7f 41
        E 0 99 29 7f 68
        E 199 89 26 40 41
        E 2 89 29 40 68
        E 157 b9 04 00
        E 122 99 29 7f 66
        E 200 89 29 40 66
        E 280 99 29 7f 71
        E 0 99 24 74 93
        E 199 89 29 40 71
        E 2 89 24 40 93
        E 279 99 24 45 26
        E 0 99 29 7f 60
        E 100 89 24 40 26
        E 100 89 29 40 60
        E 40 99 24 1e -112
        E 202 89 24 40 -112
        E 38 99 26 7b 14
        E 0 99 29 7f 56
        E 200 89 26 40 14
        E 0 89 29 40 56
        E 280 99 29 7f 28
        E 200 89 29 40 28
        E 2 b9 04 0c
        E 38 99 30 65 -30
        E 202 89 30 40 -30
        E 38 99 24 7e -23
        E 0 99 2d 7f 38
        E 186 b9 04 18
        E 14 89 2d 40 38
        E 1 89 24 40 -23
        E 39 99 30 60 -48
        E 200 89 30 40 -48
        E 40 99 2d 7f -3
        E 0 99 24 5a
        E 152 b9 04 0f
        E 47 89 2d 40 -3
        E 3 89 24 40
        E 152 b9 04 06
        E 126 99 26 74 45
        E 0 99 29 7f 58
        E 18 b9 04 00
        E 182 89 29 40 58
        E 1 89 26 40 45
        E 279 99 29 7f 34
        E 202 89 29 40 34
        E 278 99 24 67 38
        E 0 99 29 7f 40
        E 200 89 24 40 38
        E 2 89 29 40 40
        E 278 99 24 46 -14
        E 0 99 29 7f 40
        E 0 99 24 20 96
        E 106 89 24 40 -14
        E 92 89 24 40 96
        E 2 89 29 40 40
        E 280 99 26 7f 6
        E 0 99 29 7f 52
        E 200 89 29 40 52
        E 4 89 26 40 6
        E 276 99 29 7f 46
        E 131 b9 04 00
        E 69 89 29 40 46
        E 40 99 1a 7f -107
        E 118 b9 04 12
        E 7 b9 04 25
        E 3 b9 04 38
        E 2 b9 04 4c
        E 6 b9 04 4c
        E 65 89 1a 40 -107
        E 3 b9 04 5c
        E 36 99 2c 46 -108
        E 0 99 24 7e
        E 0 99 29 7f 44
        E 90 b9 04 4c
        E 56 b9 04 3c
        E 54 89 2c 40 -108
        E 0 89 29 40 44
        E 1 89 24 40
        E 161 b9 04 2c
        E 112 b9 04 1d
        E 6 99 29 7f 64
        E 200 89 29 40 64
        E 280 99 26 7f 58
        E 0 99 29 7f 82
        E 200 89 26 40 58
        E 0 89 29 40 82
        E 280 99 29 7f 74
        E 70 b9 04 12
        E 130 89 29 40 74
        E 136 b9 04 18
        E 144 99 24 67 68
        E 0 99 29 7f 90
        E 202 89 24 40 68
        E 0 89 29 40 90
        E 278 99 24 43 -16
        E 0 99 29 7f 70
        E 64 b9 04 12
        E 136 89 24 40 -16
        E 2 89 29 40 70
        E 278 99 26 7c 66
        E 0 99 29 7f 102
        E 110 b9 04 09
        E 90 89 29 40 102
        E 3 89 26 40 66
        E 57 b9 04 00
        E 220 99 29 7f 70
        E 140 b9 04 0f
        E 60 89 29 40 70
        E 40 99 30 77 2
        E 200 89 30 40 2
        E 40 99 24 7f 4
        E 0 99 2d 7f 105
        E 199 89 2d 40 105
        E 2 89 24 40 4
        E 39 99 30 7a 16
        E 0 99 30 23 114
        E 30 b9 04 18
        E 64 89 30 40 16
        E 104 89 30 40 114
        E 6 b9 04 1d
        E 36 99 24 5f 8
        E 0 99 2d 7f 48
        E 200 89 24 40 8
        E 0 89 2d 40 48
        E 112 b9 04 12
        E 168 99 26 66 48
        E 0 99 29 7f 96
        E 132 b9 04 09
        E 68 89 26 40 48
        E 1 89 29 40 96
        E 279 99 29 7f 78
        E 202 89 29 40 78
        E 38 b9 04 12
        E 240 99 24 6f 94
        E 0 99 29 7f 106
        E 72 b9 04 09
        E 128 89 24 40 94
        E 2 89 29 40 106
        E 90 b9 04 12
        E 188 99 24 3c -22
        E 0 99 29 7f 108
        E 200 89 29 40 108
        E 2 89 24 40 -22
        E 278 99 26 7f 104
        E 112 b9 04 09
        E 88 89 26 40 104
        E 40 99 29 7f -102
        E 200 89 29 40 -102
        E 218 b9 04 00
        E 62 99 29 7f -119
        E 0 99 29 34 -16
        E 0 99 1a 7f 104
        E 101 89 29 40 -119
        E 1 b9 04 00
        E 100 89 29 40 -16
        E 0 89 1a 40 104
        E 38 99 2c 2a 58
        E 38 b9 04 12
        E 4 b9 04 22
        E 4 b9 04 34
        E 4 b9 04 46
        E 7 b9 04 4c
        E 27 b9 04 56
        E 38 b9 04 66
        E 80 89 2c 40 58
        E 38 b9 04 56
        E 0 99 24 7f -108
        E 0 99 29 7f -90
        E 48 b9 04 46
        E 67 b9 04 36
        E 85 89 29 40 -90
        E 2 89 24 40 -108
        E 62 b9 04 3a
        E 52 b9 04 29
        E 110 b9 04 1d
        E 54 99 29 7f -112
        E 200 89 29 40 -112
        E 162 b9 04 15
        E 118 99 26 7e -80
        E 0 99 29 7f -54
        E 200 89 29 40 -54
        E 1 89 26 40 -80
        E 147 b9 04 0c
        E 132 99 29 7f -80
        E 188 b9 04 12
        E 12 89 29 40 -80
        E 280 99 24 70 -64
        E 0 99 29 7f -48
        E 200 89 29 40 -48
        E 1 89 24 40 -64
        E 279 99 24 45 -88
        E 0 99 29 7f -34
        E 0 99 24 21 24
        E 110 89 24 40 -88
        E 90 89 29 40 -34
        E 0 89 24 40 24
        E 210 b9 04 09
        E 70 99 26 7a -80
        E 0 99 29 7f -32
        E 14 b9 04 00
        E 186 89 26 40 -80
        E 1 89 29 40 -32
        E 279 99 29 7f -56
        E 18 b9 04 0f
        E 152 b9 04 15
        E 30 89 29 40 -56
        E 40 99 30 7c -120
        E 0 99 30 26 -32
        E 86 89 30 40 -120
        E 63 b9 04 0f
        E 51 89 30 40 -32
        E 40 99 24 7f -116
        E 0 99 2d 7f -44
        E 60 b9 04 1d
        E 140 89 24 40 -116
        E 4 89 2d 40 -44
        E 22 b9 04 27
        E 14 99 30 7f -108
        E 200 89 30 40 -108
        E 36 b9 04 1d
        E 4 99 24 5d -108
        E 0 99 2d 7f -68
        E 196 b9 04 12
        E 4 89 24 40 -108
        E 0 89 2d 40 -68
        E 266 b9 04 06
        E 14 99 26 7f -76
        E 0 99 29 7f -35
        E 122 b9 04 00
        E 77 89 29 40 -35
        E 1 89 26 40 -76
        E 280 99 29 7f -42
        E 116 b9 04 09
        E 84 89 29 40 -42
        E 280 99 24 7f -54
        E 0 99 29 7f -50
        E 200 89 29 40 -50
        E 2 89 24 40 -54
        E 278 99 24 41 -80
        E 0 99 29 7f -58
        E 0 99 24 1a 76
        E 154 89 24 40 -80
        E 46 89 29 40 -58
        E 0 89 24 40 76
        E 280 99 26 7f -80
        E 0 99 29 7f -67
        E 199 89 29 40 -67
        E 3 89 26 40 -80
        E 164 b9 04 00
        E 114 99 29 7f -90
        E 0 99 1a 7f 88
        E 86 b9 04 00
        E 113 89 29 40 -90
        E 1 89 1a 40 88
        E 40 99 2c 34 68
        E 0 99 24 7f 96
        E 52 b9 04 12
        E 4 b9 04 22
        E 4 b9 04 32
        E 4 b9 04 44
        E 2 b9 04 4c
        E 40 b9 04 54
        E 94 89 2c 40 68
        E 2 89 24 40 96
        E 12 b9 04 5f
        E 26 99 29 7f -86
        E 56 b9 04 4f
        E 86 b9 04 3f
        E 62 89 29 40 -86
        E 170 b9 04 2e
        E 106 99 29 71 -110
        E 46 b9 04 20
        E 156 89 29 40 -110
        E 124 b9 04 18
        E 154 99 26 7f -112
        E 0 99 29 7f -88
        E 66 b9 04 0f
        E 135 89 26 40 -112
        E 0 89 29 40 -88
        E 39 99 29 7f 110
        E 34 b9 04 09
        E 166 89 29 40 110
        E 50 b9 04 12
        E 230 99 24 71 40
        E 0 99 29 7f 78
        E 200 89 24 40 40
        E 0 89 29 40 78
        E 280 99 24 3a -42
        E 0 99 24 1b 54
        E 0 99 29 7f 102
        E 94 89 24 40 -42
        E 105 89 29 40 102
        E 3 89 24 40 54
        E 278 99 26 7f 80
        E 0 99 29 7f 112
        E 158 b9 04 09
        E 42 89 26 40 80
        E 1 89 29 40 112
        E 135 b9 04 00
        E 144 99 29 7f 92
        E 200 89 29 40 92
        E 5 b9 04 09
        E 35 99 30 68 25
        E 199 89 30 40 25
        E 41 99 24 7f 28
        E 0 99 2d 7f 92
        E 200 89 2d 40 92
        E 2 89 24 40 28
        E 18 b9 04 18
        E 20 99 30 72 6
        E 200 89 30 40 6
        E 40 99 24 5a 20
        E 0 99 2d 7f 24
        E 201 89 24 40 20
        E 2 89 2d 40 24
        E 20 b9 04 0f
        E 231 b9 04 09
        E 26 99 26 6f 32
        E 0 99 29 7f 66
        E 186 b9 04 00
        E 14 89 29 40 66
        E 2 89 26 40 32
        E 278 99 29 7f 48
        E 200 89 29 40 48
        E 14 b9 04 0c
        E 266 99 24 7f 58
        E 0 99 29 7f 60
        E 200 89 24 40 58
        E 0 89 29 40 60
        E 280 99 24 47 48
        E 0 99 29 7f 70
        E 118 89 24 40 48
        E 84 89 29 40 70
        E 38 99 24 1e -72
        E 202 89 24 40 -72
        E 38 99 26 75 34
        E 0 99 29 7f 68
        E 200 89 26 40 34
        E 1 89 29 40 68
        E 25 b9 04 06
        E 174 b9 04 00
        E 80 99 29 7f 37
        E 202 89 29 40 37
        E 38 99 1a 7f 44
        E 42 b9 04 00
        E 154 b9 04 12
        E 4 89 1a 40 44
        E 4 b9 04 27
        E 8 b9 04 38
        E 28 99 2c 0e 18
        E 0 99 24 7f 54
        E 0 99 29 7f 86
        E 12 b9 04 49
        E 4 b9 04 4c
        E 102 b9 04 57
        E 52 b9 04 47
        E 29 89 29 40 86
        E 1 89 2c 40 18
        E 0 89 24 40 54
        E 14 b9 04 36
        E 56 b9 04 25
        E 104 b9 04 1a
        E 106 99 29 7f 82
        E 202 89 29 40 82
        E 278 99 26 7f 78
        E 0 99 29 7f 112
        E 77 b9 04 12
        E 123 89 26 40 78
        E 0 89 29 40 112
        E 238 b9 04 09
        E 42 99 29 7f 78
        E 200 89 29 40 78
        E 42 b9 04 12
        E 238 99 29 7f 66
        E 0 99 24 7f 76
        E 136 b9 04 0c
        E 66 89 29 40 66
        E 2 89 24 40 76
        E 276 99 24 49 68
        E 0 99 29 7f 78
        E 120 89 24 40 68
        E 80 89 29 40 78
        E 40 99 24 22 -50
        E 200 89 24 40 -50
        E 40 99 26 7f 40
        E 0 99 29 7f 84
        E 200 89 26 40 40
        E 0 89 29 40 84
        E 82 b9 04 03
        E 10 b9 04 00
        E 188 99 29 7f 60
        E 158 b9 04 0c
        E 44 89 29 40 60
        E 38 99 30 7f -20
        E 204 89 30 40 -20
        E 36 99 24 7f 9
        E 0 99 2d 7f 80
        E 201 89 24 40 9
        E 5 89 2d 40 80
        E 2 b9 04 18
        E 32 99 30 67 -28
        E 0 99 30 2b 44
        E 70 89 30 40 -28
        E 132 89 30 40 44
        E 38 99 24 5b 4
        E 0 99 2d 7f 32
        E 200 89 24 40 4
        E 2 89 2d 40 32
        E 46 b9 04 0f
        E 232 99 26 6d 20
        E 0 99 29 7f 58
        E 128 b9 04 06
        E 72 89 26 40 20
        E 2 89 29 40 58
        E 170 b9 04 00
        E 108 99 29 7f 62
        E 198 b9 04 0c
        E 2 89 29 40 62
        E 280 99 29 7f 88
        E 0 99 24 7f 100
        E 200 89 29 40 88
        E 0 89 24 40 100
        E 280 99 24 4a 72
        E 0 99 29 7f 78
        E 200 89 24 40 72
        E 0 89 29 40 78
        E 280 99 26 7f 20
        E 0 99 29 7f 82
        E 200 89 29 40 82
        E 2 89 26 40 20
        E 278 99 29 7f 90
        E 0 99 26 6c 106
        E 200 89 29 40 90
        E 0 89 26 40 106
        E 6 b9 04 00
        E 274 99 2e 7f 70
        E 68 b9 04 09
        E 4 b9 04 12
        E 10 b9 04 25
        E 8 b9 04 36
        E 66 b9 04 46
        E 18 b9 04 4c
        E 28 89 2e 40 70
        E 38 99 24 7a -94
        E 0 99 29 7f -86
        E 0 99 2c 08 -64
        E 66 b9 04 36
        E 120 b9 04 27
        E 14 89 29 40 -86
        E 2 89 24 40 -94
        E 0 89 2c 40 -64
        E 142 b9 04 1d
        E 136 99 29 7f -118
        E 200 89 29 40 -118
        E 40 99 26 7c 108
        E 164 b9 04 15
        E 36 89 26 40 108
        E 40 99 29 7f -112
        E 180 b9 04 0f
        E 22 89 29 40 -112
        E 38 99 29 7f 108
        E 82 b9 04 09
        E 118 89 29 40 108
        E 124 b9 04 0f
        E 396 99 29 7f -102
        E 0 99 24 7f -70
        E 200 89 29 40 -102
        E 2 89 24 40 -70
        E 38 99 24 44 90
        E 0 99 29 7f 96
        E 200 89 24 40 90
        E 4 89 29 40 96
        E 276 99 26 7f 84
        E 0 99 29 7f 112
        E 200 89 29 40 112
        E 2 89 26 40 84
        E 134 b9 04 03
        E 45 b9 04 00
        E 99 99 29 7f 82
        E 116 b9 04 0f
        E 83 89 29 40 82
        E 41 99 30 79 6
        E 200 89 30 40 6
        E 40 90 34 7f
        E 0 99 24 7e -4
        E 0 99 29 69
        E 120 b9 04 1d
        E 80 89 29 40
        E 2 89 24 40 -4
        E 38 80 34 00
        E 240 99 24 4f -36
        E 0 99 29 69 40
        E 200 89 29 40 40
        E 2 89 24 40 -36
        E 278 90 26 7f
        E 0 99 29 69 40
        E 44 b9 04 00
        E 12 b9 04 06
        E 144 89 29 40 40
        E 40 80 26 00
        E 0 99 26 57 -118
        E 108 89 26 40 -118
        E 132 99 29 69 68
        E 200 89 29 40 68
        E 94 b9 04 09
        E 186 99 29 69 66
        E 40 99 24 72
        E 160 89 29 40 66
        E 40 89 24 40
        E 240 99 24 4a 64
        E 0 99 29 69 70
        E 40 99 24 22
        E 62 89 24 40 64
        E 98 89 29 40 70
        E 40 89 24 40
        E 240 99 26 7f 20
        E 0 99 29 69 64
        E 200 89 26 40 20
        E 0 89 29 40 64
        E 238 b9 04 03
        E 6 b9 04 00
        E 36 99 29 69 44
        E 200 89 29 40 44
        E 40 99 2e 7f 22
        E 20 b9 04 00
        E 152 b9 04 12
        E 8 b9 04 22
        E 4 b9 04 34
        E 15 89 2e 40 22
        E 29 b9 04 44
        E 12 99 2c 0e 4
        E 0 99 29 69 56
        E 0 99 24 7f 58
        E 2 b9 04 4c
        E 28 b9 04 54
        E 170 89 2c 40 4
        E 1 89 29 40 56
        E 0 89 24 40 58
        E 5 b9 04 44
        E 76 b9 04 34
        E 156 b9 04 29
        E 42 99 29 69 28
        E 200 89 29 40 28
        E 34 b9 04 1d
        E 246 99 26 7f 40
        E 0 99 29 69 60
        E 199 89 26 40 40
        E 1 89 29 40 60
        E 14 b9 04 18
        E 190 b9 04 0f
        E 76 99 29 69 47
        E 203 89 29 40 47
        E 277 99 29 69 56
        E 0 99 24 7f 86
        E 200 89 24 40 86
        E 1 89 29 40 56
        E 279 99 24 4c
        E 0 99 29 69 31
        E 200 89 24 40
        E 1 89 29 40 31
        E 279 99 26 7f -16
        E 0 99 29 69 30
        E 202 89 26 40 -16
        E 0 89 29 40 30
        E 92 b9 04 03
        E 6 b9 04 00
        E 180 99 29 69 -12
        E 136 b9 04 0c
        E 65 89 29 40 -12
        E 39 99 30 69 -88
        E 202 89 30 40 -88
        E 38 99 24 7f -30
        E 0 99 2d 6d 1
        E 128 b9 04 1a
        E 74 89 24 40 -30
        E 1 89 2d 40 1
        E 37 99 30 61 -58
        E 0 99 30 2c 20
        E 50 b9 04 25
        E 26 89 30 40 -58
        E 124 89 30 40 20
        E 40 99 24 57 -68
        E 0 99 2d 6d -42
        E 16 b9 04 1a
        E 170 b9 04 12
        E 14 89 24 40 -68
        E 0 89 2d 40 -42
        E 280 99 26 7d -82
        E 0 99 29 69 -18
        E 70 b9 04 0c
        E 130 89 29 40 -18
        E 2 89 26 40 -82
        E 178 b9 04 03
        E 100 99 29 69 -28
        E 182 b9 04 0f
        E 18 89 29 40 -28
        E 280 99 29 69 -2
        E 0 99 24 7f 12
        E 200 89 29 40 -2
        E 0 89 24 40 12
        E 280 99 29 69 -24
        E 0 99 24 4e -19
        E 0 99 24 20 78
        E 95 89 24 40 -19
        E 105 89 29 40 -24
        E 0 89 24 40 78
        E 280 99 26 7f -38
        E 0 99 29 69 -6
        E 200 89 29 40 -6
        E 2 89 26 40 -38
        E 192 b9 04 03
        E 40 b9 04 00
        E 46 99 29 69 -11
        E 182 b9 04 00
        E 19 89 29 40 -11
        E 39 99 1a 7f -56
        E 164 b9 04 12
        E 10 b9 04 25
        E 26 89 1a 40 -56
        E 14 b9 04 36
        E 22 b9 04 46
        E 4 99 24 7f 3
        E 0 99 29 69 18
        E 0 99 2c 0a 24
        E 19 b9 04 4c
        E 159 b9 04 36
        E 22 89 29 40 18
        E 2 89 2c 40 24
        E 1 89 24 40 3
        E 73 b9 04 25
        E 130 b9 04 1d
        E 74 99 29 69 16
        E 112 b9 04 25
        E 87 89 29 40 16
        E 26 b9 04 1d
        E 255 99 26 7f 24
        E 0 99 29 69 32
        E 38 b9 04 18
        E 162 89 26 40 24
        E 0 89 29 40 32
        E 104 b9 04 0c
        E 166 b9 04 06
        E 10 99 29 69 12
        E 200 89 29 40 12
        E 70 b9 04 0c
        E 210 99 29 69 32
        E 0 99 24 7f 54
        E 200 89 29 40 32
        E 2 89 24 40 54
        E 56 b9 04 12
        E 222 99 24 4d 18
        E 0 99 29 69 34
        E 116 89 24 40 18
        E 84 89 29 40 34
        E 40 99 24 20 -102
        E 200 89 24 40 -102
        E 22 b9 04 06
        E 18 99 26 7f -16
        E 0 99 29 69 28
        E 94 b9 04 00
        E 105 89 29 40 28
        E 2 89 26 40 -16
        E 279 99 29 69 15
        E 94 b9 04 12
        E 107 89 29 40 15
        E 39 99 30 77 -50
        E 20 b9 04 1a
        E 162 b9 04 0f
        E 20 89 30 40 -50
        E 38 99 24 7f -28
        E 0 99 2d 6d 40
        E 144 b9 04 1d
        E 56 89 24 40 -28
        E 2 89 2d 40 40
        E 38 99 30 51 -16
        E 0 99 30 24 74
        E 8 b9 04 2e
        E 80 89 30 40 -16
        E 114 89 30 40 74
        E 38 99 24 5a -42
        E 0 99 2d 6d -12
        E 74 b9 04 25
        E 107 b9 04 1a
        E 19 89 24 40 -42
        E 0 89 2d 40 -12
        E 148 b9 04 12
        E 132 90 32 7f
        E 0 99 26 7f -42
        E 0 99 29 69 6
        E 88 b9 04 06
        E 112 89 29 40 6
        E 4 89 26 40 -42
        E 36 80 32 00
        E 32 b9 04 00
        E 208 99 29 69 10
        E 144 b9 04 0f
        E 56 89 29 40 10
        E 280 99 29 69 18
        E 0 99 24 7f 54
        E 42 b9 04 09
        E 160 89 29 40 18
        E 0 89 24 40 54
        E 20 b9 04 12
        E 258 99 29 69 24
        E 0 99 24 52 32
        E 102 89 24 40 32
        E 100 89 29 40 24
        E 38 99 24 21 -102
        E 182 b9 04 0c
        E 16 89 24 40 -102
        E 42 99 26 7f -16
        E 0 99 29 69 22
        E 200 89 29 40 22
        E 2 89 26 40 -16
        E 78 b9 04 06
        E 200 99 29 69 -4
        E 6 b9 04 00
        E 196 89 29 40 -4
        E 18 b9 04 00
        E 20 99 2e 7f -18
        E 116 b9 04 12
        E 8 b9 04 25
        E 6 b9 04 36
        E 44 b9 04 46
        E 20 b9 04 4c
        E 6 89 2e 40 -18
        E 40 99 2c 0c -44
        E 0 99 24 7f -2
        E 0 99 29 69 12
        E 44 b9 04 4d
        E 42 b9 04 3c
        E 38 b9 04 2c
        E 76 89 24 40 -2
        E 1 89 2c 40 -44
        E 1 89 29 40 12
        E 38 b9 04 1d
        E 238 b9 04 2e
        E 2 99 29 69 12
        E 200 89 29 40 12
        E 78 b9 04 27
        E 119 b9 04 1a
        E 83 99 26 7f 12
        E 0 99 29 69 26
        E 200 89 26 40 12
        E 2 89 29 40 26
        E 158 b9 04 0f
        E 120 99 29 69 44
        E 200 89 29 40 44
        E 28 b9 04 15
        E 252 99 29 69 46
        E 0 99 24 7f 72
        E 200 89 29 40 46
        E 0 89 24 40 72
        E 280 99 24 4f 26
        E 0 99 29 69 40
        E 200 89 24 40 26
        E 0 89 29 40 40
        E 254 b9 04 0f
        E 26 99 26 7b 2
        E 0 99 29 69 34
        E 200 89 26 40 2
        E 2 89 29 40 34
        E 8 b9 04 03
        E 36 b9 04 00
        E 234 99 29 69 16
        E 26 b9 04 12
        E 176 89 29 40 16
        E 4 b9 04 1a
        E 34 99 31 7f -82
        E 134 b9 04 09
        E 68 89 31 40 -82
        E 38 99 24 7f -14
        E 0 99 2d 6d 13
        E 0 99 29 57 16
        E 164 b9 04 15
        E 38 89 24 40 -14
        E 0 89 29 40 16
        E 1 89 2d 40 13
        E 277 99 24 4c -60
        E 0 99 2d 6d 5
        E 100 b9 04 0f
        E 100 89 24 40 -60
        E 3 89 2d 40 5
        E 277 90 30 6d
        E 0 99 26 7f -12
        E 0 99 29 69 -2
        E 0 99 26 36 80
        E 88 89 26 40 -12
        E 2 b9 04 06
        E 108 89 26 40 80
        E 2 89 29 40 -2
        E 40 80 30 00
        E 240 99 29 69 32
        E 128 b9 04 0f
        E 74 89 29 40 32
        E 200 b9 04 03
        E 16 b9 04 00
        E 62 99 24 7f -42
        E 0 99 29 69 2
        E 176 b9 04 0c
        E 23 89 29 40 2
        E 3 89 24 40 -42
        E 278 99 29 69 -31
        E 203 89 29 40 -31
        E 277 99 26 7f -42
        E 0 99 29 69 -4
        E 200 89 26 40 -42
        E 2 89 29 40 -4
        E 90 b9 04 03
        E 188 99 29 69 -24
        E 104 b9 04 0c
        E 96 89 29 40 -24
        E 40 99 26 3e -32
        E 186 b9 04 06
        E 14 89 26 40 -32
        E 40 99 24 7f -46
        E 0 99 29 69 -23
        E 128 b9 04 0f
        E 73 89 29 40 -23
        E 2 89 24 40 -46
        E 277 99 24 4b -76
        E 0 99 29 69 -38
        E 200 89 24 40 -76
        E 0 89 29 40 -38
        E 280 99 26 7f -38
        E 0 99 29 69 -20
        E 200 89 26 40 -38
        E 0 89 29 40 -20
        E 46 b9 04 06
        E 234 99 29 69 -14
        E 154 b9 04 0f
        E 48 89 29 40 -14
        E 278 99 29 69 -10
        E 0 99 24 7f -4
        E 50 b9 04 09
        E 150 89 29 40 -10
        E 4 89 24 40 -4
        E 276 99 29 69 -24
        E 200 89 29 40 -24
        E 280 99 26 7e -22
        E 0 99 29 69 8
        E 200 89 29 40 8
        E 2 89 26 40 -22
        E 98 b9 04 00
        E 180 99 29 69 -12
        E 106 b9 04 0c
        E 98 89 29 40 -12
        E 36 99 30 77 -71
        E 201 89 30 40 -71
        E 39 99 24 7f -49
        E 0 99 2d 6d 26
        E 160 b9 04 18
        E 41 89 24 40 -49
        E 1 89 2d 40 26
        E 38 99 30 60 -79
        E 0 99 30 11 28
        E 105 89 30 40 -79
        E 95 89 30 40 28
        E 40 99 24 5b -76
        E 0 99 2d 6d -32
        E 191 b9 04 0c
        E 9 89 24 40 -76
        E 0 89 2d 40 -32
        E 280 90 34 7f
        E 0 99 26 7f -58
        E 0 99 29 69 -17
        E 74 b9 04 03
        E 44 b9 04 00
        E 82 89 26 40 -58
        E 3 89 29 40 -17
        E 37 80 34 00
        E 240 99 29 69 -24
        E 114 b9 04 0c
        E 88 89 29 40 -24
        E 79 b9 04 12
        E 199 99 29 69 -14
        E 0 99 24 7f 18
        E 47 b9 04 09
        E 152 89 29 40 -14
        E 1 89 24 40 18
        E 280 99 24 4f -39
        E 0 99 29 69 -22
        E 200 89 24 40 -39
        E 0 89 29 40 -22
        E 280 99 26 7f -8
        E 0 99 29 69 20
        E 136 b9 04 0f
        E 63 89 26 40 -8
        E 1 89 29 40 20
        E 162 b9 04 00
        E 118 99 29 69 -18
        E 0 99 29 16 88
        E 103 89 29 40 -18
        E 91 b9 04 00
        E 6 89 29 40 88
        E 40 99 2e 7f -44
        E 202 89 2e 40 -44
        E 38 99 2c 4a
        E 0 99 24 7f -22
        E 0 99 29 69 12
        E 46 b9 04 5a
        E 32 b9 04 12
        E 6 b9 04 27
        E 2 b9 04 38
        E 4 b9 04 4a
        E 2 b9 04 4f
        E 4 b9 04 5a
        E 14 b9 04 4a
        E 19 b9 04 5a
        E 1 b9 04 3a
        E 46 b9 04 6a
        E 24 89 29 40 12
        E 2 89 2c 40
        E 0 89 24 40 -22
        E 132 b9 04 29
        E 122 b9 04 1d
        E 24 99 24 0a -68
        E 0 99 29 69 28
        E 199 89 24 40 -68
        E 3 89 29 40 28
        E 278 99 26 7f 3
        E 0 99 29 69 18
        E 200 89 26 40 3
        E 0 89 29 40 18
        E 71 b9 04 12
        E 209 99 29 69 9
        E 201 89 29 40 9
        E 43 b9 04 1a
        E 236 99 29 69 25
        E 0 99 24 7f 37
        E 41 b9 04 12
        E 159 89 29 40 25
        E 3 89 24 40 37
        E 277 99 24 50 -24
        E 0 99 29 69 6
        E 202 89 29 40 6
        E 2 89 24 40 -24
        E 276 99 26 7f -32
        E 0 99 29 69 21
        E 153 b9 04 00
        E 47 89 29 40 21
        E 2 89 26 40 -32
        E 278 99 29 69 -28
        E 98 b9 04 12
        E 104 89 29 40 -28
        E 38 99 26 59 -54
        E 46 b9 04 1d
        E 154 89 26 40 -54
        E 40 99 24 7f -4
        E 0 99 31 7f -2
        E 50 b9 04 25
        E 134 b9 04 36
        E 18 89 24 40 -4
        E 0 89 31 40 -2
        E 278 99 24 4b -51
        E 0 99 29 69
        E 4 b9 04 27
        E 114 b9 04 1a
        E 82 89 29 40
        E 3 89 24 40 -51
        E 72 b9 04 12
        E 169 b9 04 09
        E 36 99 26 7f -14
        E 0 99 29 69 16
        E 199 89 26 40 -14
        E 1 89 29 40 16
        E 280 99 29 69 -21
        E 201 89 29 40 -21
        E 254 b9 04 00
        E 25 99 29 69 -12
        E 0 99 24 6e 32
        E 202 89 29 40 -12
        E 0 89 24 40 32
        E 20 b9 04 09
        E 258 99 24 43 -12
        E 0 99 29 69 -4
        E 0 99 24 1f 79
        E 89 89 24 40 -12
        E 111 89 29 40 -4
        E 1 89 24 40 79
        E 279 99 26 7f -2
        E 0 99 29 69 24
        E 150 b9 04 00
        E 50 89 26 40 -2
        E 2 89 29 40 24
        E 278 99 29 69 -31
        E 16 b9 04 0f
        E 166 b9 04 15
        E 21 89 29 40 -31
        E 37 99 30 77 -70
        E 159 b9 04 0f
        E 42 89 30 40 -70
        E 39 99 24 7f -104
        E 0 99 2d 6d -15
        E 44 b9 04 20
        E 149 b9 04 29
        E 7 89 2d 40 -15
        E 2 89 24 40 -104
        E 38 99 30 61 -86
        E 0 99 30 1e 9
        E 91 89 30 40 -86
        E 92 b9 04 18
        E 17 89 30 40 9
        E 40 99 24 60 -114
        E 0 99 2d 6d -50
        E 178 b9 04 0f
        E 22 89 24 40 -114
        E 0 89 2d 40 -50
        E 198 b9 04 09
        E 82 90 38 7f
        E 0 99 26 7f -70
        E 0 99 29 69 -27
        E 157 b9 04 03
        E 45 89 26 40 -70
        E 0 89 29 40 -27
        E 30 b9 04 00
        E 8 80 38 00
        E 240 99 29 5b -26
        E 124 b9 04 09
        E 76 89 29 40 -26
        E 280 99 29 69 -18
        E 0 99 24 7f -15
        E 200 89 29 40 -18
        E 1 89 24 40 -15
        E 48 b9 04 0f
        E 231 99 24 4c -25
        E 0 99 29 69 -8
        E 0 99 24 1e 81
        E 104 89 24 40 -25
        E 96 89 29 40 -8
        E 0 89 24 40 81
        E 80 b9 04 09
        E 200 99 26 7f -64
        E 0 99 29 69 -4
        E 106 b9 04 03
        E 94 89 26 40 -64
        E 2 89 29 40 -4
        E 10 b9 04 00
        E 268 99 29 69 -28
        E 97 b9 04 0f
        E 103 89 29 40 -28
        E 40 99 30 60 -64
        E 200 89 30 40 -64
        E 40 99 24 7f -36
        E 0 99 2d 6d -12
        E 115 b9 04 1d
        E 85 89 2d 40 -12
        E 2 89 24 40 -36
        E 38 99 30 42 -86
        E 201 89 30 40 -86
        E 39 99 24 69 -60
        E 0 99 2d 6d -58
        E 101 b9 04 12
        E 101 89 24 40 -60
        E 0 89 2d 40 -58
        E 230 b9 04 0c
        E 48 90 37 7f
        E 0 99 26 7f -92
        E 0 99 29 69 -24
        E 116 b9 04 03
        E 9 b9 04 00
        E 75 89 26 40 -92
        E 2 89 29 40 -24
        E 38 80 37 00
        E 240 99 29 69 -44
        E 120 b9 04 09
        E 80 89 29 40 -44
        E 280 99 29 69 -41
        E 0 99 24 7c -4
        E 200 89 29 40 -41
        E 2 89 24 40 -4
        E 278 99 29 69 -46
        E 0 99 24 47 -34
        E 0 99 24 1d 56
        E 88 89 24 40 -34
        E 112 89 29 40 -46
        E 0 89 24 40 56
        E 280 99 26 7f -21
        E 0 99 29 69 3
        E 36 b9 04 00
        E 165 89 26 40 -21
        E 0 89 29 40 3
        E 279 99 29 69 -36
        E 0 99 29 18 59
        E 63 b9 04 0f
        E 31 89 29 40 -36
        E 105 89 29 40 59
        E 41 99 30 6f -55
        E 201 89 30 40 -55
        E 39 99 24 7f -66
        E 0 99 2d 6d -7
        E 191 b9 04 1d
        E 11 89 24 40 -66
        E 1 89 2d 40 -7
        E 37 99 30 66 -35
        E 0 99 30 29 44
        E 76 89 30 40 -35
        E 35 b9 04 22
        E 91 89 30 40 44
        E 38 99 24 66 -56
        E 0 99 2d 6d -50
        E 56 b9 04 18
        E 142 b9 04 0f
        E 1 89 2d 40 -50
        E 2 89 24 40 -56
        E 160 b9 04 09
        E 119 99 26 7f -56
        E 0 99 29 69 -2
        E 200 89 29 40 -2
        E 1 89 26 40 -56
        E 89 b9 04 00
        E 190 99 29 65 -29
        E 177 b9 04 06
        E 25 89 29 40 -29
        E 278 99 29 69 -13
        E 0 99 24 7f 29
        E 201 89 29 40 -13
        E 0 89 24 40 29
        E 279 99 29 69 -14
        E 0 99 24 4d 6
        E 0 99 24 1e 94
        E 86 89 24 40 6
        E 113 89 24 40 94
        E 3 89 29 40 -14
        E 278 99 26 7f -4
        E 0 99 29 69 17
        E 133 b9 04 00
        E 70 89 29 40 17
        E 1 89 26 40 -4
        E 276 99 29 69 -6
        E 96 b9 04 0c
        E 104 89 29 40 -6
        E 40 99 30 77 -45
        E 28 b9 04 12
        E 175 89 30 40 -45
        E 13 b9 04 09
        E 24 99 24 7f -50
        E 0 99 2d 6d 34
        E 178 b9 04 12
        E 22 89 2d 40 34
        E 2 89 24 40 -50
        E 38 99 30 5a
        E 104 b9 04 18
        E 98 89 30 40
        E 38 99 24 6a -47
        E 0 99 2d 6d -24
        E 158 b9 04 0f
        E 42 89 2d 40 -24
        E 3 89 24 40 -47
        E 219 b9 04 06
        E 58 99 26 78 -29
        E 0 99 29 69 8
        E 0 99 2e 7f
        E 81 b9 04 00
        E 35 b9 04 12
        E 8 b9 04 25
        E 6 b9 04 36
        E 44 b9 04 46
        E 20 b9 04 4c
        E 6 89 2e 40
        E 2 89 29 40 8
        E 1 89 26 40 -29
        E 277 99 2c 0c
        E 0 99 29 69 -2
        E 44 b9 04 4d
        E 42 b9 04 3c
        E 38 b9 04 2c
        E 18 b9 04 0c
        E 59 89 2c 40
        E 0 89 29 40 -2
        E 279 99 29 69 9
        E 0 99 24 7f 38
        E 44 b9 04 06
        E 157 89 29 40 9
        E 0 89 24 40 38
        E 279 99 24 47 -14
        E 0 99 29 69 18
        E 199 89 24 40 -14
        E 1 89 29 40 18
        E 280 99 26 7f -6
        E 0 99 29 69 35
        E 126 b9 04 00
        E 73 89 26 40 -6
        E 2 89 29 40 35
        E 279 99 29 69 -24
        E 94 b9 04 09
        E 105 89 29 40 -24
        E 41 99 30 6b -35
        E 203 89 30 40 -35
        E 37 99 24 7f -90
        E 0 99 2d 6d 6
        E 147 b9 04 15
        E 52 89 2d 40 6
        E 5 89 24 40 -90
        E 36 99 30 61 -12
        E 66 b9 04 1a
        E 136 89 30 40 -12
        E 38 99 24 66 -85
        E 0 99 2d 6d -31
        E 110 b9 04 12
        E 91 89 2d 40 -31
        E 1 89 24 40 -85
        E 177 b9 04 0c
        E 101 90 3a 7f
        E 0 99 26 7f -24
        E 0 99 29 69 3
        E 156 b9 04 03
        E 45 89 26 40 -24
        E 0 89 29 40 3
        E 39 80 3a 00
        E 8 b9 04 00
        E 232 99 29 69 -1
        E 176 b9 04 09
        E 26 89 29 40 -1
        E 278 99 29 69 -1
        E 0 99 24 7f 29
        E 202 89 29 40 -1
        E 1 89 24 40 29
        E 277 99 24 49 -16
        E 0 99 29 69 -4
        E 199 89 24 40 -16
        E 2 89 29 40 -4
        E 279 99 26 7f -24
        E 0 99 29 69 10
        E 199 89 29 40 10
        E 3 89 26 40 -24
        E 18 b9 04 00
        E 260 99 29 69 -18
        E 48 b9 04 0c
        E 151 89 29 40 -18
        E 13 b9 04 12
        E 28 99 30 77 -53
        E 197 b9 04 09
        E 3 89 30 40 -53
        E 40 99 24 7f -51
        E 0 99 2d 7f
        E 146 b9 04 15
        E 54 89 2d 40
        E 3 89 24 40 -51
        E 37 99 30 6c -11
        E 0 99 30 3b 46
        E 53 89 30 40 -11
        E 11 b9 04 1d
        E 133 89 30 40 46
        E 43 99 24 5e -56
        E 0 99 2d 7f -38
        E 143 b9 04 15
        E 56 89 2d 40 -38
        E 3 89 24 40 -56
        E 175 b9 04 09
        E 103 99 26 78 -64
        E 0 99 29 7f -16
        E 200 89 26 40 -64
        E 0 89 29 40 -16
        E 4 b9 04 00
        E 276 99 29 7f -19
        E 196 b9 04 06
        E 7 89 29 40 -19
        E 277 99 29 7f -4
        E 0 99 24 7f 41
        E 199 89 29 40 -4
        E 1 89 24 40 41
        E 280 99 24 43 -32
        E 0 99 29 7f -5
        E 200 89 24 40 -32
        E 0 89 29 40 -5
        E 280 99 26 7f -49
        E 0 99 29 7f
        E 112 b9 04 00
        E 88 89 29 40
        E 2 89 26 40 -49
        E 278 99 29 7f
        E 109 b9 04 0c
        E 91 89 29 40
        E 40 99 30 71 -81
        E 0 99 30 21 41
        E 121 89 30 40 -81
        E 79 89 30 40 41
        E 35 b9 04 03
        E 5 99 24 7f -42
        E 0 99 2d 7f 12
        E 171 b9 04 0f
        E 28 89 24 40 -42
        E 0 89 2d 40 12
        E 41 99 30 4f -47
        E 0 99 30 30 29
        E 72 89 30 40 -47
        E 127 89 30 40 29
        E 41 99 24 4e -76
        E 0 99 2d 7f -24
        E 202 89 2d 40 -24
        E 1 89 24 40 -76
        E 37 99 30 5c -16
        E 202 89 30 40 -16
        E 38 99 29 2f -39
        E 0 99 2d 7f -31
        E 200 89 2d 40 -31
        E 2 89 29 40 -39
        E 28 b9 04 03
        E 31 b9 04 00
        E 219 99 29 7f -23
        E 154 b9 04 06
        E 47 89 29 40 -23
        E 39 99 26 6b -34
        E 80 b9 04 00
        E 119 89 26 40 -34
        E 41 99 29 7f 11
        E 0 99 24 5a 43
        E 0 99 29 4e 86
        E 71 89 29 40 11
        E 126 89 29 40 86
        E 3 89 24 40 43
        E 40 99 26 5f -18
        E 0 99 26 25 74
        E 41 b9 04 0c
        E 49 89 26 40 -18
        E 112 89 26 40 74
        E 38 99 24 4b -24
        E 0 99 29 1d 13
        E 0 99 2d 7f 19
        E 197 b9 04 18
        E 2 89 24 40 -24
        E 4 89 29 40 13
        E 2 89 2d 40 19
        E 35 99 30 59 -18
        E 0 99 30 37 47
        E 63 89 30 40 -18
        E 137 89 30 40 47
        E 40 99 33 77 -53
        E 0 99 33 2b 104
        E 155 89 33 40 -53
        E 44 89 33 40 104
        E 41 99 26 53 -81
        E 128 b9 04 0f
        E 74 89 26 40 -81
        E 38 99 26 7f -40
        E 200 89 26 40 -40
        E 40 99 26 4f -69
        E 200 89 26 40 -69
        E 40 99 26 7f -37
        E 205 89 26 40 -37
        E 35 99 26 44 -29
        E 202 89 26 40 -29
        E 38 99 26 7f -36
        E 204 89 26 40 -36
        E 36 99 26 53 -21
        E 201 89 26 40 -21
        E 39 99 26 7f -15
        E 201 89 26 40 -15
        E 39 99 26 48 -40
        E 199 89 26 40 -40
        E 41 99 26 76 -19
        E 190 89 26 40 -19
        E 50 99 26 4a -67
        E 200 89 26 40 -67
        E 40 99 26 7f -17
        E 169 b9 04 15
        E 32 89 26 40 -17
        E 39 99 26 72 -35
        E 203 89 26 40 -35
        E 37 99 26 65 41
        E 203 89 26 40 41
        E 37 99 24 41 -120
        E 0 99 24 22 -27
        E 0 99 26 3f 88
        E 91 89 24 40 -120
        E 24 b9 04 1d
        E 37 89 26 40 88
        E 49 89 24 40 -27
        E 39 99 26 5d 1
        E 201 89 26 40 1
        E 39 99 26 47 -31
        E 8 b9 04 27
        E 195 89 26 40 -31
        E 37 99 26 7f 27
        E 151 b9 04 1a
        E 50 89 26 40 27
        E 39 99 24 67 -62
        E 0 99 26 46 24
        E 0 99 24 28 37
        E 97 89 24 40 -62
        E 103 89 26 40 24
        E 0 89 24 40 37
        E 40 99 26 7f 47
        E 110 89 26 40 47
        E 130 99 26 2a -81
        E 0 99 26 54 65
        E 144 89 26 40 -81
        E 56 89 26 40 65
        E 6 b9 04 20
        E 34 99 26 7a 79
        E 0 99 24 4f 97
        E 146 89 24 40 97
        E 46 89 26 40 79
        E 27 b9 04 1a
        E 21 99 24 20 5
        E 0 99 26 56 33
        E 201 89 24 40 5
        E 0 89 26 40 33
        E 39 99 26 6d 80
        E 179 89 26 40 80
        E 61 99 26 39 21
        E 0 99 26 21 91
        E 68 89 26 40 21
        E 132 89 26 40 91
        E 40 99 26 72 55
        E 0 99 24 3f 109
        E 174 89 26 40 55
        E 27 89 24 40 109
        E 39 99 26 3a -9
        E 0 99 26 20 72
        E 0 99 24 14 111
        E 81 89 26 40 -9
        E 118 89 26 40 72
        E 3 89 24 40 111
        E 35 b9 04 25
        E 3 99 26 6c 40
        E 159 b9 04 30
        E 18 89 26 40 40
        E 63 99 26 3e -21
        E 0 99 26 26 47
        E 0 99 2c 04 117
        E 44 b9 04 41
        E 22 89 26 40 -21
        E 49 b9 04 4c
        E 32 b9 04 51
        E 53 89 26 40 47
        E 0 89 2c 40 117
        E 40 99 24 7f 9
        E 0 99 31 7f 81
        E 27 b9 04 5d
        E 175 89 31 40 81
        E 1 89 24 40 9
        E 166 b9 04 64
        E 122 b9 04 54
        E 24 b9 04 44
        E 22 b9 04 34
        E 18 b9 04 22
        E 24 b9 04 12
        E 28 b9 04 00
        E 8428 b0 7b 00
        GUID {B47AA600-2DBD-4449-89A2-01832EFAA2CC}
        IGNTEMPO 0 120 4 4
        SRCCOLOR 151
        VELLANE -1 100 0
        CFGEDITVIEW 329854.512472 0.074447 59 12 0 -1 0 0 0 0.5
        KEYSNAP 0
        TRACKSEL -252
        EVTFILTER 0 -1 -1 -1 -1 0 0 0 0 -1 -1 -1 -1 0 -1 0 -1 -1
        CFGEDIT 1 1 0 1 0 0 1 1 1 1 1 0.25 320 95 2496 860 0 0 0 0 0 0 0 0 0 0.5 0 0 1 64
      >
    >
    <ITEM
      POSITION 253.43999999996274
      SNAPOFFS 0
      LENGTH 30.72
      LOOP 1
      ALLTAKES 0
      FADEIN 1 0 0 1 0 0
      FADEOUT 1 0 0 1 0 0
      MUTE 0
      SEL 0
      IGUID {C3075C11-F467-4B4B-8117-92ACD4918C99}
      IID 5
      NAME "02-EZdrummer-Recorded MIDI"
      VOLPAN 1 0 1 -1
      SOFFS 133.92 279
      PLAYRATE 1 1 0 -1 0 0.0025
      CHANMODE 0
      GUID {80D0E4EF-132F-41CC-86DA-BA7CDD1B1E94}
      RECPASS 2
      <SOURCE MIDI
        HASDATA 1 960 QN
        POOLEDEVTS {1EC1E37C-8D98-418D-BC77-21C1DBEF6A03}
        E 15360 99 24 4a 32
        E 0 99 29 5a 50
        E 90 89 24 40 32
        E 112 89 29 40 50
        E 38 99 24 21 -116
        E 200 89 24 40 -116
        E 40 99 29 51 16
        E 200 89 29 40 16
        E 280 99 26 7f 24
        E 0 99 29 7f 46
        E 200 89 26 40 24
        E 0 89 29 40 46
        E 280 99 29 57 -4
        E 200 89 29 40 -4
        E 280 99 29 66 19
        E 0 99 24 51 38
        E 200 89 24 40 38
        E 1 89 29 40 19
        E 279 99 29 5a 2
        E 0 99 24 3b 34
        E 198 89 24 40 34
        E 4 89 29 40 2
        E 38 99 24 1a -6
        E 198 89 24 40 -6
        E 42 99 29 6b 59
        E 0 99 26 6c 60
        E 199 89 29 40 59
        E 1 89 26 40 60
        E 280 99 29 6a 36
        E 200 89 29 40 36
        E 280 99 29 78 74
        E 0 99 24 49 88
        E 146 89 24 40 88
        E 54 89 29 40 74
        E 40 99 24 20 -5
        E 201 89 24 40 -5
        E 39 99 29 4f 40
        E 202 89 29 40 40
        E 278 99 26 7e 32
        E 0 99 29 7e 50
        E 199 89 26 40 32
        E 1 89 29 40 50
        E 280 99 29 4d 20
        E 200 89 29 40 20
        E 280 99 29 7b 14
        E 0 99 24 53 18
        E 200 89 29 40 14
        E 2 89 24 40 18
        E 278 99 24 40 -10
        E 0 99 29 72 8
        E 182 89 24 40 -10
        E 18 89 29 40 8
        E 40 99 24 20 -66
        E 200 89 24 40 -66
        E 40 99 26 7d 26
        E 0 99 29 7b 38
        E 200 89 26 40 26
        E 0 89 29 40 38
        E 280 99 29 69 11
        E 201 89 29 40 11
        E 279 99 24 51 36
        E 0 99 29 77 44
        E 200 89 24 40 36
        E 0 89 29 40 44
        E 280 99 24 35 -116
        E 0 99 24 14 8
        E 0 99 29 68 14
        E 122 89 24 40 -116
        E 76 89 24 40 8
        E 2 89 29 40 14
        E 280 99 26 78 20
        E 0 99 29 7c 38
        E 202 89 26 40 20
        E 2 89 29 40 38
        E 276 99 29 5d 49
        E 203 89 29 40 49
        E 277 99 24 4a 60
        E 0 99 29 7f 76
        E 168 89 24 40 60
        E 32 89 29 40 76
        E 40 99 24 21 -10
        E 198 89 24 40 -10
        E 42 99 29 63 26
        E 202 89 29 40 26
        E 278 99 26 7f 68
        E 0 99 29 7f 76
        E 200 89 26 40 68
        E 0 89 29 40 76
        E 280 99 29 5b 56
        E 198 89 29 40 56
        E 282 99 29 67 56
        E 0 99 24 4f 58
        E 200 89 29 40 56
        E 0 89 24 40 58
        E 280 99 24 3b -44
        E 0 99 29 62 28
        E 0 99 24 1a 75
        E 118 89 24 40 -44
        E 82 89 29 40 28
        E 3 89 24 40 75
        E 277 99 26 7f 40
        E 0 99 29 7f 58
        E 202 89 26 40 40
        E 2 89 29 40 58
        E 276 99 29 5c 50
        E 200 89 29 40 50
        E 280 99 24 4b 54
        E 0 99 29 73 60
        E 156 89 24 40 54
        E 44 89 29 40 60
        E 40 99 24 1b -30
        E 200 89 24 40 -30
        E 40 99 29 66 28
        E 202 89 29 40 28
        E 278 99 26 76 30
        E 0 99 29 7f 68
        E 200 89 26 40 30
        E 2 89 29 40 68
        E 278 99 29 75 43
        E 201 89 29 40 43
        E 279 99 24 51 70
        E 0 99 29 7f 74
        E 200 89 24 40 70
        E 0 89 29 40 74
        E 280 99 24 44 40
        E 0 99 29 6e 50
        E 184 89 24 40 40
        E 16 89 29 40 50
        E 40 99 24 1d -14
        E 200 89 24 40 -14
        E 40 99 26 76 62
        E 0 99 29 7f 84
        E 200 89 26 40 62
        E 2 89 29 40 84
        E 278 99 29 7f 74
        E 200 89 29 40 74
        E 280 99 24 4b 98
        E 0 99 29 7f 104
        E 200 89 24 40 98
        E 0 89 29 40 104
        E 280 99 24 3d 62
        E 0 99 29 6e 100
        E 184 89 24 40 62
        E 16 89 29 40 100
        E 40 99 24 24 8
        E 200 89 24 40 8
        E 40 99 29 7c 108
        E 0 99 26 5f 116
        E 200 89 29 40 108
        E 0 89 26 40 116
        E 280 99 29 74 118
        E 200 89 29 40 118
        E 520 99 29 7f -106
        E 0 99 24 4c -86
        E 0 99 24 1c 66
        E 150 89 24 40 -86
        E 47 89 24 40 66
        E 5 89 29 40 -106
        E 38 99 29 66 80
        E 200 89 29 40 80
        E 280 99 29 7f 94
        E 0 99 26 7c 99
        E 200 89 29 40 94
        E 1 89 26 40 99
        E 279 99 29 67 62
        E 200 89 29 40 62
        E 280 99 29 7f 36
        E 0 99 24 4c 86
        E 200 89 29 40 36
        E 0 89 24 40 86
        E 280 99 29 7a 56
        E 0 99 24 3d 60
        E 176 89 24 40 60
        E 26 89 29 40 56
        E 38 99 24 1e -2
        E 200 89 24 40 -2
        E 40 99 26 7b 92
        E 0 99 29 7f 96
        E 200 89 29 40 96
        E 2 89 26 40 92
        E 278 99 29 65 102
        E 198 89 29 40 102
        E 282 99 24 49 94
        E 0 99 29 77 104
        E 200 89 24 40 94
        E 0 89 29 40 104
        E 280 99 24 3b 62
        E 0 99 29 6d 110
        E 200 89 24 40 62
        E 2 89 29 40 110
        E 278 99 24 0d -80
        E 0 99 26 69 106
        E 200 89 24 40 -80
        E 0 89 26 40 106
        E 40 99 29 7f -112
        E 200 89 29 40 -112
        E 40 99 29 7f 98
        E 200 89 29 40 98
        E 280 99 24 48 102
        E 0 99 29 7b 108
        E 200 89 24 40 102
        E 0 89 29 40 108
        E 280 99 24 39 36
        E 0 99 29 74 102
        E 156 89 24 40 36
        E 44 89 29 40 102
        E 40 99 24 18 -48
        E 202 89 24 40 -48
        E 38 99 26 7d 100
        E 200 89 26 40 100
        E 40 99 29 7f -114
        E 201 89 29 40 -114
        E 39 99 29 70 88
        E 200 89 29 40 88
        E 40 99 26 36 -46
        E 200 89 26 40 -46
        E 40 99 24 51 20
        E 0 99 29 71 44
        E 141 89 24 40 20
        E 59 89 29 40 44
        E 40 99 24 1d -76
        E 198 89 24 40 -76
        E 42 99 29 78 60
        E 200 89 29 40 60
        E 280 99 26 7f 79
        E 0 99 29 7f 102
        E 201 89 26 40 79
        E 0 89 29 40 102
        E 279 99 29 53 84
        E 200 89 29 40 84
        E 280 99 24 4d 52
        E 0 99 29 7f 60
        E 166 89 24 40 52
        E 38 89 29 40 60
        E 36 99 24 18 -20
        E 200 89 24 40 -20
        E 40 99 24 1c -8
        E 0 99 29 71 66
        E 199 89 24 40 -8
        E 1 89 29 40 66
        E 280 99 26 7f 38
        E 0 99 29 7f 74
        E 200 89 26 40 38
        E 0 89 29 40 74
        E 280 99 29 7f 58
        E 202 89 29 40 58
        E 38 99 30 7f 18
        E 112 89 30 40 18
        E 128 99 30 1f -108
        E 0 99 2d 7f 20
        E 0 99 24 53 22
        E 200 89 2d 40 20
        E 2 89 30 40 -108
        E 0 89 24 40 22
        E 278 99 29 7f 14
        E 200 89 29 40 14
        E 280 99 26 7f -29
        E 0 99 29 7f 12
        E 201 89 26 40 -29
        E 0 89 29 40 12
        E 279 99 29 59 22
        E 202 89 29 40 22
        E 278 99 24 4d
        E 0 99 29 7f 6
        E 200 89 24 40
        E 0 89 29 40 6
        E 280 99 24 3a
        E 0 99 29 7f 12
        E 154 89 24 40
        E 46 89 29 40 12
        E 40 99 24 13 -84
        E 200 89 24 40 -84
        E 40 99 26 7f 21
        E 0 99 29 7f 29
        E 201 89 26 40 21
        E 0 89 29 40 29
        E 279 99 29 78 24
        E 202 89 29 40 24
        E 278 99 24 4d 28
        E 0 99 29 7f 36
        E 199 89 29 40 36
        E 1 89 24 40 28
        E 280 99 24 3b -4
        E 0 99 29 7f 40
        E 199 89 29 40 40
        E 3 89 24 40 -4
        E 38 99 24 1e -26
        E 200 89 24 40 -26
        E 40 99 26 7f 49
        E 0 99 29 7f 66
        E 201 89 26 40 49
        E 1 89 29 40 66
        E 278 99 29 70 64
        E 200 89 29 40 64
        E 280 99 24 47 32
        E 0 99 29 7f 35
        E 199 89 24 40 32
        E 6 89 29 40 35
        E 275 99 24 3b -32
        E 0 99 29 6a 68
        E 199 89 24 40 -32
        E 1 89 29 40 68
        E 40 99 24 17 -59
        E 201 89 24 40 -59
        E 39 99 26 7f 60
        E 0 99 29 7f 68
        E 200 89 26 40 60
        E 0 89 29 40 68
        E 280 99 29 7f 19
        E 201 89 29 40 19
        E 39 99 30 7f 16
        E 0 99 24 4e 108
        E 90 89 24 40 108
        E 110 89 30 40 16
        E 40 99 24 27 -40
        E 0 99 2d 7f
        E 198 89 24 40 -40
        E 2 89 2d 40
        E 280 99 29 7f 5
        E 201 89 29 40 5
        E 279 99 26 7f 10
        E 0 99 29 7f 32
        E 199 89 26 40 10
        E 0 89 29 40 32
        E 281 99 29 7f 16
        E 200 89 29 40 16
        E 280 99 29 7f 41
        E 0 99 24 4e 52
        E 201 89 29 40 41
        E 1 89 24 40 52
        E 278 99 24 3d 14
        E 0 99 29 7f 30
        E 180 89 24 40 14
        E 20 89 29 40 30
        E 40 99 24 19 -45
        E 203 89 24 40 -45
        E 37 99 26 7f 4
        E 0 99 29 7f 22
        E 202 89 26 40 4
        E 0 89 29 40 22
        E 278 99 29 7f 26
        E 202 89 29 40 26
        E 278 99 29 7f 45
        E 0 99 24 50 53
        E 200 89 24 40 53
        E 1 89 29 40 45
        E 279 99 24 33 -29
        E 0 99 29 7f 49
        E 201 89 24 40 -29
        E 0 89 29 40 49
        E 279 99 29 7f 69
        E 0 99 26 7f 73
        E 201 89 26 40 73
        E 1 89 29 40 69
        E 278 99 29 78 68
        E 202 89 29 40 68
        E 278 99 29 7f 68
        E 0 99 24 50 72
        E 200 89 29 40 68
        E 0 89 24 40 72
        E 280 99 24 3d 58
        E 0 99 29 7f 63
        E 144 89 24 40 58
        E 57 89 29 40 63
        E 39 99 24 1a -36
        E 200 89 24 40 -36
        E 40 99 26 7f 74
        E 0 99 29 7f 82
        E 199 89 26 40 74
        E 3 89 29 40 82
        E 278 99 29 7f 39
        E 201 89 29 40 39
        E 39 99 30 7f 16
        E 200 89 30 40 16
        E 40 99 24 53 -66
        E 0 99 24 26 13
        E 0 99 2d 7f 25
        E 77 89 24 40 -66
        E 121 89 24 40 13
        E 3 89 2d 40 25
        E 279 99 2d 5a -86
        E 199 89 2d 40 -86
        E 281 99 29 7f -6
        E 0 99 26 7f -4
        E 200 89 29 40 -6
        E 0 89 26 40 -4
        E 280 99 29 7d -8
        E 199 89 29 40 -8
        E 281 99 24 53 11
        E 0 99 29 7f 28
        E 0 99 24 24 112
        E 99 89 24 40 11
        E 100 89 24 40 112
        E 1 89 29 40 28
        E 280 99 29 7f 23
        E 0 99 24 47 54
        E 134 89 24 40 54
        E 66 89 29 40 23
        E 40 99 24 1e -50
        E 200 89 24 40 -50
        E 40 99 26 7f 38
        E 0 99 29 7f 62
        E 200 89 29 40 62
        E 1 89 26 40 38
        E 279 99 29 7f 47
        E 201 89 29 40 47
        E 279 99 29 7f 66
        E 0 99 24 4b 76
        E 199 89 24 40 76
        E 1 89 29 40 66
        E 280 99 29 7f 52
        E 0 99 24 3a 70
        E 139 89 24 40 70
        E 61 89 29 40 52
        E 40 99 24 1b -28
        E 198 89 24 40 -28
        E 42 99 26 7b 68
        E 0 99 29 7f 84
        E 199 89 26 40 68
        E 1 89 29 40 84
        E 280 99 29 7f 90
        E 202 89 29 40 90
        E 278 99 24 50 42
        E 0 99 29 7f 62
        E 199 89 29 40 62
        E 1 89 24 40 42
        E 280 99 24 39 19
        E 0 99 29 7f 58
        E 171 89 24 40 19
        E 28 89 29 40 58
        E 41 99 24 1a -48
        E 200 89 24 40 -48
        E 40 99 26 7f 87
        E 0 99 29 7f 91
        E 201 89 26 40 87
        E 0 89 29 40 91
        E 279 99 29 7f 42
        E 200 89 29 40 42
        E 40 99 30 7f 9
        E 201 89 30 40 9
        E 39 99 24 52 -86
        E 0 99 24 24 -2
        E 0 99 2d 7f 14
        E 82 89 24 40 -86
        E 118 89 24 40 -2
        E 2 89 2d 40 14
        E 38 99 24 43 59
        E 201 89 24 40 59
        E 39 99 2d 7f -24
        E 200 89 2d 40 -24
        E 280 99 29 7f 3
        E 0 99 26 7b 7
        E 200 89 29 40 3
        E 1 89 26 40 7
        E 279 99 29 7c -10
        E 200 89 29 40 -10
        E 280 99 24 4c 20
        E 0 99 29 7f 30
        E 199 89 29 40 30
        E 1 89 24 40 20
        E 280 99 24 3e 22
        E 0 99 29 7f 46
        E 130 89 24 40 22
        E 70 89 29 40 46
        E 40 99 24 1c -86
        E 200 89 24 40 -86
        E 40 99 26 7f 21
        E 0 99 29 7f 52
        E 201 89 26 40 21
        E 1 89 29 40 52
        E 278 99 29 7f 28
        E 202 89 29 40 28
        E 278 99 29 7f 68
        E 0 99 24 4d 70
        E 116 89 24 40 70
        E 84 89 29 40 68
        E 40 99 24 1f -52
        E 199 89 24 40 -52
        E 41 99 29 72 56
        E 201 89 29 40 56
        E 225 b9 04 12
        E 54 99 26 64 58
        E 0 99 29 7f 78
        E 12 b9 04 22
        E 60 b9 04 32
        E 128 89 29 40 78
        E 2 89 26 40 58
        E 87 b9 04 22
        E 84 b9 04 12
        E 107 99 29 7f 48
        E 38 b9 04 09
        E 162 89 29 40 48
        E 23 b9 04 0f
        E 257 99 24 50 -25
        E 0 99 29 7f 46
        E 39 b9 04 03
        E 32 b9 04 00
        E 129 89 24 40 -25
        E 0 89 29 40 46
        E 280 99 29 68 59
        E 201 89 29 40 59
        E 279 99 26 7f 63
        E 0 99 29 7f 86
        E 200 89 29 40 86
        E 3 89 26 40 63
        E 277 99 29 7f 42
        E 201 89 29 40 42
        E 39 99 30 7f -11
        E 0 99 24 52 92
        E 79 89 24 40 92
        E 124 89 30 40 -11
        E 37 99 24 27 -67
        E 0 99 2d 7f
        E 192 b9 04 0f
        E 6 89 24 40 -67
        E 2 89 2d 40
        E 40 99 30 72 -34
        E 0 99 30 35 32
        E 62 89 30 40 -34
        E 137 89 30 40 32
        E 9 b9 04 00
        E 32 99 2d 7f -77
        E 0 99 24 54 111
        E 109 89 24 40 111
        E 91 89 2d 40 -77
        E 40 99 24 20 -18
        E 197 89 24 40 -18
        E 43 99 26 7f 6
        E 0 99 29 7f 14
        E 199 89 26 40 6
        E 0 89 29 40 14
        E 281 99 29 7d -9
        E 203 89 29 40 -9
        E 277 99 24 5c -21
        E 0 99 29 7f 3
        E 200 89 24 40 -21
        E 1 89 29 40 3
        E 279 99 24 43 10
        E 0 99 29 7f 12
        E 171 89 24 40 10
        E 26 89 29 40 12
        E 43 99 24 1d -54
        E 198 89 24 40 -54
        E 42 99 26 7f 3
        E 0 99 29 7f 26
        E 200 89 29 40 26
        E 1 89 26 40 3
        E 279 99 29 6e 27
        E 200 89 29 40 27
        E 280 99 24 4d 43
        E 0 99 29 7f 56
        E 201 89 24 40 43
        E 1 89 29 40 56
        E 278 99 24 40 -50
        E 0 99 29 7f 22
        E 0 99 24 1e 71
        E 119 89 24 40 -50
        E 80 89 29 40 22
        E 1 89 24 40 71
        E 280 99 26 6c 56
        E 0 99 29 7f 67
        E 199 89 26 40 56
        E 3 89 29 40 67
        E 278 99 29 7f 61
        E 201 89 29 40 61
        E 279 99 24 52 26
        E 0 99 29 7f 48
        E 199 89 29 40 48
        E 1 89 24 40 26
        E 280 99 24 43 -11
        E 0 99 29 7f 24
        E 170 89 24 40 -11
        E 31 89 29 40 24
        E 39 99 24 17 -79
        E 201 89 24 40 -79
        E 39 99 26 7f 10
        E 0 99 29 7f 38
        E 201 89 26 40 10
        E 0 89 29 40 38
        E 279 99 29 7f 35
        E 203 89 29 40 35
        E 37 99 30 7b -15
        E 0 99 24 53 91
        E 0 99 30 1f 99
        E 76 89 24 40 91
        E 36 89 30 40 -15
        E 87 89 30 40 99
        E 41 99 24 25 -70
        E 0 99 2d 7f 7
        E 199 89 24 40 -70
        E 1 89 2d 40 7
        E 280 99 29 7f 26
        E 0 99 24 4a 90
        E 93 89 24 40 90
        E 108 89 29 40 26
        E 39 99 24 1d -54
        E 197 89 24 40 -54
        E 43 99 24 30 -6
        E 0 99 29 7f 37
        E 0 99 26 7f 50
        E 199 89 26 40 50
        E 2 89 24 40 -6
        E 0 89 29 40 37
        E 279 99 29 7f 17
        E 200 89 29 40 17
        E 280 99 24 51 -31
        E 0 99 29 7f 17
        E 200 89 29 40 17
        E 1 89 24 40 -31
        E 279 99 24 3d 16
        E 0 99 29 7f 33
        E 145 89 24 40 16
        E 56 89 29 40 33
        E 39 99 24 1b -78
        E 200 89 24 40 -78
        E 40 99 26 7f 8
        E 0 99 29 7f 31
        E 199 89 26 40 8
        E 1 89 29 40 31
        E 280 99 29 7f 10
        E 200 89 29 40 10
        E 40 99 30 7f -27
        E 0 99 24 54 32
        E 87 89 24 40 32
        E 113 89 30 40 -27
        E 40 99 24 24 -118
        E 0 99 2d 7f 7
        E 197 89 24 40 -118
        E 6 89 2d 40 7
        E 37 99 24 47 -41
        E 0 99 24 1f 43
        E 83 89 24 40 -41
        E 117 89 24 40 43
        E 40 99 2d 60 -69
        E 200 89 2d 40 -69
        E 280 99 26 7f -9
        E 0 99 29 7f 26
        E 199 89 29 40 26
        E 1 89 26 40 -9
        E 280 99 29 7f 5
        E 200 89 29 40 5
        E 280 99 24 5a 8
        E 0 99 29 7f 32
        E 199 89 24 40 8
        E 0 89 29 40 32
        E 281 99 24 46 15
        E 0 99 29 7f 41
        E 148 89 24 40 15
        E 52 89 29 40 41
        E 40 99 24 1e -75
        E 198 89 24 40 -75
        E 42 99 26 7f -7
        E 0 99 29 7f 48
        E 200 89 29 40 48
        E 2 89 26 40 -7
        E 278 99 29 7f 43
        E 0 99 24 3b 101
        E 200 89 29 40 43
        E 0 89 24 40 101
        E 40 99 30 7f 87
        E 89 89 30 40 87
        E 151 99 30 2b -61
        E 0 99 24 5e 27
        E 0 99 2d 7f 79
        E 200 89 30 40 -61
        E 0 89 24 40 27
        E 0 89 2d 40 79
        E 206 b9 04 00
        E 28 b9 04 00
        E 46 99 1a 1a -73
        E 0 99 1a 42 -42
        E 0 99 30 7a -39
        E 0 99 2d 7f 21
        E 28 89 1a 40 -73
        E 169 89 1a 40 -42
        E 4 89 2d 40 21
        E 1 89 30 40 -39
        E 38 99 24 4d -107
        E 0 99 24 23 -27
        E 78 89 24 40 -107
        E 120 89 24 40 -27
        E 42 99 26 6f 42
        E 0 99 29 7f 45
        E 200 89 26 40 42
        E 2 89 29 40 45
        E 278 99 29 7f 55
        E 200 89 29 40 55
        E 280 99 29 7f 59
        E 0 99 24 56 99
        E 200 89 29 40 59
        E 0 89 24 40 99
        E 280 99 24 3a 35
        E 0 99 29 7f 46
        E 168 89 24 40 35
        E 33 89 29 40 46
        E 39 99 24 19 -37
        E 200 89 24 40 -37
        E 40 99 26 7f 15
        E 0 99 29 7f 63
        E 203 89 26 40 15
        E 0 89 29 40 63
        E 277 99 29 7f 65
        E 200 89 29 40 65
        E 40 99 26 4a -1
        E 200 89 26 40 -1
        E 40 99 24 56 -22
        E 0 99 29 7f 59
        E 199 89 24 40 -22
        E 2 89 29 40 59
        E 279 99 24 37 -69
        E 0 99 29 7f 65
        E 198 89 24 40 -69
        E 3 89 29 40 65
        E 39 99 24 16 -109
        E 201 89 24 40 -109
        E 39 99 26 7c 63
        E 0 99 29 7f 85
        E 200 89 26 40 63
        E 0 89 29 40 85
        E 280 99 29 7f 83
        E 200 89 29 40 83
        E 280 99 24 4d 91
        E 0 99 29 7f 107
        E 200 89 24 40 91
        E 0 89 29 40 107
        E 280 99 24 3c 31
        E 0 99 29 7f 105
        E 122 89 24 40 31
        E 78 89 29 40 105
        E 40 99 24 1c -87
        E 200 89 24 40 -87
        E 40 99 26 7f 107
        E 200 89 26 40 107
        E 40 99 29 7f -102
        E 199 89 29 40 -102
        E 281 99 29 7f -118
        E 0 99 30 7f 71
        E 199 89 29 40 -118
        E 3 89 30 40 71
        E 38 99 24 6c -5
        E 0 99 2d 7f 117
        E 200 89 24 40 -5
        E 0 89 2d 40 117
        E 280 99 24 43 -105
        E 0 99 2d 7f 81
        E 200 89 24 40 -105
        E 1 89 2d 40 81
        E 279 99 26 7f 54
        E 0 99 29 7f 95
        E 89 89 26 40 54
        E 114 89 29 40 95
        E 37 99 26 35 -95
        E 198 89 26 40 -95
        E 42 99 29 7f 91
        E 203 89 29 40 91
        E 277 99 29 7f 91
        E 0 99 24 4e 113
        E 200 89 29 40 91
        E 1 89 24 40 113
        E 279 99 29 7f 91
        E 0 99 24 3e 95
        E 158 89 24 40 95
        E 44 89 29 40 91
        E 38 99 24 1f 15
        E 198 89 24 40 15
        E 42 99 26 7f 67
        E 0 99 29 7f 95
        E 200 89 26 40 67
        E 1 89 29 40 95
        E 279 99 29 7f 91
        E 200 89 29 40 91
        E 280 99 24 50 71
        E 0 99 29 7f 89
        E 202 89 24 40 71
        E 0 89 29 40 89
        E 278 99 24 3e 10
        E 0 99 29 7f 101
        E 199 89 24 40 10
        E 1 89 29 40 101
        E 40 99 24 20 -6
        E 201 89 24 40 -6
        E 39 99 26 7e 110
        E 201 89 26 40 110
        E 39 99 29 7f -113
        E 200 89 29 40 -113
        E 280 99 29 7f -93
        E 200 89 29 40 -93
        E 40 99 24 4a 59
        E 0 99 29 7f 91
        E 200 89 24 40 59
        E 1 89 29 40 91
        E 39 99 24 31 113
        E 140 89 24 40 113
        E 100 99 24 0a 17
        E 0 99 29 7f 91
        E 198 89 24 40 17
        E 2 89 29 40 91
        E 280 99 26 7f 67
        E 0 99 29 7f 106
        E 199 89 29 40 106
        E 3 89 26 40 67
        E 278 99 29 7f 61
        E 200 89 29 40 61
        E 40 99 30 7f 32
        E 111 89 30 40 32
        E 129 99 30 25 -95
        E 0 99 24 58 -22
        E 0 99 2d 7f 65
        E 200 89 2d 40 65
        E 1 89 30 40 -95
        E 2 89 24 40 -22
        E 2 b9 04 03
        E 35 99 1a 27 -33
        E 0 99 30 6d 17
        E 0 99 30 28 102
        E 85 89 30 40 17
        E 48 b9 04 06
        E 66 89 30 40 102
        E 1 89 1a 40 -33
        E 40 99 2d 7f 20
        E 0 99 24 49 55
        E 17 b9 04 00
        E 71 89 24 40 55
        E 113 89 2d 40 20
        E 39 99 24 22 -97
        E 202 89 24 40 -97
        E 38 99 26 73 19
        E 0 99 29 7f 47
        E 200 89 26 40 19
        E 4 89 29 40 47
        E 276 99 29 7f 31
        E 200 89 29 40 31
        E 280 99 29 7f 31
        E 0 99 24 53 41
        E 200 89 29 40 31
        E 0 89 24 40 41
        E 280 99 24 3d 58
        E 0 99 29 7f 58
        E 149 89 24 40 58
        E 51 89 29 40 58
        E 40 99 24 1c -31
        E 200 89 24 40 -31
        E 40 99 26 78 45
        E 0 99 29 7f 63
        E 200 89 26 40 45
        E 0 89 29 40 63
        E 280 99 29 7f 47
        E 200 89 29 40 47
        E 40 99 2d 7f -23
        E 203 89 2d 40 -23
        E 37 99 24 5d 11
        E 0 99 2d 7f 15
        E 200 89 24 40 11
        E 2 89 2d 40 15
        E 278 99 2d 7f 23
        E 0 99 24 48 77
        E 184 89 24 40 77
        E 16 89 2d 40 23
        E 40 99 24 28 23
        E 200 89 24 40 23
        E 40 99 2d 7f -73
        E 0 99 26 65 103
        E 62 89 26 40 103
        E 138 89 2d 40 -73
        E 40 99 26 4b -70
        E 199 89 26 40 -70
        E 41 99 29 7f -83
        E 201 89 29 40 -83
        E 39 99 26 6e 100
        E 201 89 26 40 100
        E 39 99 29 7f 49
        E 200 89 29 40 49
        E 280 99 29 7f 99
        E 201 89 29 40 99
        E 39 99 24 37 -79
        E 203 89 24 40 -79
        E 37 99 24 47 55
        E 200 89 24 40 55
        E 40 99 26 6b -98
        E 0 99 29 7f -75
        E 199 89 26 40 -98
        E 1 89 29 40 -75
        E 280 99 29 7f -86
        E 199 89 29 40 -86
        E 281 99 24 4f -107
        E 0 99 29 7f -85
        E 200 89 24 40 -107
        E 0 89 29 40 -85
        E 40 99 24 30 91
        E 200 89 24 40 91
        E 40 99 29 75 -61
        E 200 89 29 40 -61
        E 280 99 24 3f -102
        E 0 99 29 7f -82
        E 201 89 24 40 -102
        E 0 89 29 40 -82
        E 279 99 29 4f -9
        E 200 89 29 40 -9
        E 4840 99 29 7f -6
        E 0 99 24 50 21
        E 201 89 29 40 -6
        E 1 89 24 40 21
        E 278 99 29 7f -55
        E 0 99 24 3a -47
        E 200 89 24 40 -47
        E 2 89 29 40 -55
        E 38 99 24 1e -79
        E 200 89 24 40 -79
        E 40 99 26 7f -59
        E 0 99 29 7f -21
        E 200 89 26 40 -59
        E 0 89 29 40 -21
        E 280 99 29 7f -73
        E 0 99 30 41 81
        E 200 89 29 40 -73
        E 0 89 30 40 81
        E 40 99 24 57 74
        E 199 89 24 40 74
        E 41 99 2d 7f -85
        E 202 89 2d 40 -85
        E 278 99 29 42 -119
        E 0 99 2d 18 -105
        E 200 89 29 40 -119
        E 2 89 2d 40 -105
        E 278 99 26 7f -89
        E 0 99 29 7f -69
        E 200 89 26 40 -89
        E 0 89 29 40 -69
        E 280 99 29 7f -79
        E 201 89 29 40 -79
        E 279 99 24 53 -77
        E 0 99 29 7f -49
        E 200 89 24 40 -77
        E 2 89 29 40 -49
        E 278 99 24 3b -101
        E 0 99 29 7f -55
        E 0 99 24 23 17
        E 116 89 24 40 -101
        E 84 89 29 40 -55
        E 0 89 24 40 17
        E 280 99 26 7f -69
        E 0 99 29 7f -30
        E 199 89 29 40 -30
        E 1 89 26 40 -69
        E 280 99 29 7f -37
        E 200 89 29 40 -37
        E 280 99 24 58 -83
        E 0 99 29 7f -35
        E 200 89 29 40 -35
        E 2 89 24 40 -83
        E 278 99 24 3d -103
        E 0 99 29 7f -17
        E 0 99 24 1f 15
        E 114 89 24 40 -103
        E 84 89 24 40 15
        E 2 89 29 40 -17
        E 280 99 29 7f -11
        E 200 89 29 40 -11
        E 280 99 29 7f 23
        E 200 89 29 40 23
        E 280 99 24 4c 35
        E 0 99 29 7f 69
        E 200 89 24 40 35
        E 0 89 29 40 69
        E 280 99 24 3d 17
        E 0 99 29 7f 83
        E 170 89 24 40 17
        E 32 89 29 40 83
        E 38 99 24 1d -51
        E 198 89 24 40 -51
        E 42 99 26 6c 89
        E 0 99 29 7f 105
        E 78 89 26 40 89
        E 122 89 29 40 105
        E 40 99 26 3d -73
        E 200 89 26 40 -73
        E 40 99 29 7f 47
        E 202 89 29 40 47
        E 38 99 30 7f -5
        E 200 89 30 40 -5
        E 40 99 24 5f -55
        E 0 99 2d 7f 39
        E 200 89 24 40 -55
        E 0 89 2d 40 39
        E 280 99 29 3d 1
        E 0 99 2d 1b 15
        E 202 89 29 40 1
        E 0 89 2d 40 15
        E 278 99 26 7f 29
        E 0 99 29 7f 53
        E 202 89 26 40 29
        E 0 89 29 40 53
        E 278 99 29 7f 41
        E 200 89 29 40 41
        E 280 99 24 56 39
        E 0 99 29 7f 53
        E 200 89 24 40 39
        E 0 89 29 40 53
        E 280 99 24 3d 49
        E 0 99 29 7f 93
        E 146 89 24 40 49
        E 54 89 29 40 93
        E 40 99 24 1f -43
        E 200 89 24 40 -43
        E 40 99 26 7f 39
        E 0 99 29 7f 85
        E 200 89 29 40 85
        E 2 89 26 40 39
        E 278 99 29 7f 71
        E 200 89 29 40 71
        E 280 99 24 4d 75
        E 0 99 29 7f 85
        E 200 89 24 40 75
        E 2 89 29 40 85
        E 278 99 29 7f 85
        E 0 99 24 3a 87
        E 190 89 24 40 87
        E 12 89 29 40 85
        E 38 99 24 19 41
        E 198 89 24 40 41
        E 42 99 26 7f 69
        E 0 99 29 7f 111
        E 200 89 29 40 111
        E 2 89 26 40 69
        E 278 99 29 7f 117
        E 200 89 29 40 117
        E 280 99 24 51 59
        E 0 99 29 7f 101
        E 200 89 29 40 101
        E 2 89 24 40 59
        E 278 99 24 37 22
        E 0 99 29 7f 74
        E 149 89 24 40 22
        E 50 89 29 40 74
        E 41 99 24 18 -67
        E 200 89 24 40 -67
        E 40 99 26 7b 65
        E 0 99 29 7f 103
        E 200 89 26 40 65
        E 0 89 29 40 103
        E 280 99 29 7f 59
        E 201 89 29 40 59
        E 39 99 30 7f -3
        E 200 89 30 40 -3
        E 40 99 24 62 -59
        E 0 99 2d 7f 47
        E 200 89 24 40 -59
        E 0 89 2d 40 47
        E 280 99 29 7f 65
        E 200 89 29 40 65
        E 40 99 26 7f -95
        E 202 89 26 40 -95
        E 38 99 29 7f 61
        E 200 89 29 40 61
        E 280 99 29 7f 73
        E 200 89 29 40 73
        E 280 99 24 5a 77
        E 0 99 29 7f 81
        E 200 89 24 40 77
        E 0 89 29 40 81
        E 280 99 24 45 55
        E 0 99 29 7f 89
        E 114 89 24 40 55
        E 88 89 29 40 89
        E 38 99 24 22 -69
        E 198 89 24 40 -69
        E 42 99 26 7f 19
        E 0 99 29 7f 66
        E 200 89 26 40 19
        E 1 89 29 40 66
        E 279 99 29 7f 61
        E 200 89 29 40 61
        E 280 99 24 52 23
        E 0 99 29 7f 67
        E 200 89 29 40 67
        E 2 89 24 40 23
        E 278 99 24 3d 33
        E 0 99 29 7f 63
        E 144 89 24 40 33
        E 56 89 29 40 63
        E 40 99 24 1f -61
        E 200 89 24 40 -61
        E 40 99 26 7c 53
        E 0 99 29 7f 107
        E 200 89 26 40 53
        E 0 89 29 40 107
        E 280 99 29 7f 91
        E 200 89 29 40 91
        E 280 99 24 56 87
        E 200 89 24 40 87
        E 40 99 29 7f -115
        E 200 89 29 40 -115
        E 40 99 24 3c 47
        E 0 99 29 7f 103
        E 144 89 24 40 47
        E 55 89 29 40 103
        E 41 99 24 19 -47
        E 200 89 24 40 -47
        E 40 99 26 7f 63
        E 0 99 29 7f 105
        E 200 89 26 40 63
        E 0 89 29 40 105
        E 280 99 29 7f 69
        E 181 b9 04 00
        E 19 89 29 40 69
        E 40 99 1a 34 -57
        E 0 99 30 77 -27
        E 200 89 1a 40 -57
        E 0 89 30 40 -27
        E 40 99 24 70 -45
        E 0 99 2d 7f 85
        E 200 89 24 40 -45
        E 0 89 2d 40 85
        E 40 99 24 49 113
        E 200 89 24 40 113
        E 40 99 2d 7f -3
        E 200 89 2d 40 -3
        E 280 99 26 7f 7
        E 0 99 29 7f 37
        E 200 89 26 40 7
        E 0 89 29 40 37
        E 280 99 29 7f 31
        E 200 89 29 40 31
        E 280 99 24 55 -33
        E 0 99 29 7f 31
        E 200 89 29 40 31
        E 2 89 24 40 -33
        E 278 99 24 40 -69
        E 0 99 29 7f 29
        E 200 89 29 40 29
        E 2 89 24 40 -69
        E 278 99 26 7c 9
        E 0 99 29 7f 49
        E 200 89 26 40 9
        E 1 89 29 40 49
        E 279 99 29 7f 59
        E 202 89 29 40 59
        E 278 99 24 53 57
        E 0 99 29 7f 79
        E 200 89 24 40 57
        E 0 89 29 40 79
        E 280 99 24 40 -11
        E 0 99 29 7f 61
        E 0 99 24 22 97
        E 108 89 24 40 -11
        E 92 89 29 40 61
        E 1 89 24 40 97
        E 279 99 26 75 17
        E 0 99 29 7f 75
        E 200 89 26 40 17
        E 4 89 29 40 75
        E 276 99 29 78 87
        E 200 89 29 40 87
        E 280 99 24 54 51
        E 0 99 29 7f 97
        E 104 89 24 40 51
        E 96 89 29 40 97
        E 40 99 24 21 -83
        E 198 89 24 40 -83
        E 42 99 29 7f 87
        E 200 89 29 40 87
        E 40 99 24 43 -109
        E 0 99 24 23 61
        E 168 89 24 40 -109
        E 32 89 24 40 61
        E 40 99 26 7f 83
        E 0 99 29 7f 111
        E 199 89 29 40 111
        E 5 89 26 40 83
        E 276 99 29 7f 71
        E 202 89 29 40 71
        E 38 99 30 7f -7
        E 200 89 30 40 -7
        E 40 99 24 67 -19
        E 0 99 2d 7f 89
        E 200 89 24 40 -19
        E 0 89 2d 40 89
        E 280 99 24 3c -81
        E 0 99 24 1e
        E 0 99 2d 7f 79
        E 80 89 24 40 -81
        E 120 89 2d 40 79
        E 1 89 24 40
        E 279 99 26 7f 43
        E 0 99 29 7f 77
        E 200 89 29 40 77
        E 2 89 26 40 43
        E 278 99 29 7f 61
        E 200 89 29 40 61
        E 280 99 29 7f 67
        E 0 99 24 55 95
        E 200 89 29 40 67
        E 0 89 24 40 95
        E 280 99 24 3e -5
        E 0 99 29 7f 73
        E 200 89 24 40 -5
        E 0 89 29 40 73
        E 280 99 26 7f 39
        E 0 99 29 7f 93
        E 200 89 26 40 39
        E 0 89 29 40 93
        E 280 99 29 7f 62
        E 201 89 29 40 62
        E 279 99 24 53 53
        E 0 99 29 7f 77
        E 200 89 24 40 53
        E 0 89 29 40 77
        E 280 99 24 3f 57
        E 0 99 29 7f 81
        E 156 89 24 40 57
        E 45 89 29 40 81
        E 39 99 24 1c -25
        E 202 89 24 40 -25
        E 38 99 26 7d 46
        E 0 99 29 7f 91
        E 201 89 26 40 46
        E 1 89 29 40 91
        E 278 99 29 7f 63
        E 200 89 29 40 63
        E 40 99 30 78 -17
        E 200 89 30 40 -17
        E 40 99 24 66 -43
        E 0 99 2d 7f 69
        E 201 89 2d 40 69
        E 1 89 24 40 -43
        E 38 99 24 3b 97
        E 202 89 24 40 97
        E 38 99 2d 7f 41
        E 204 89 2d 40 41
        E 276 99 26 7f -1
        E 0 99 29 7f 45
        E 199 89 29 40 45
        E 1 89 26 40 -1
        E 280 99 29 7f 35
        E 200 89 29 40 35
        E 280 99 24 55 25
        E 0 99 29 7f 27
        E 200 89 24 40 25
        E 2 89 29 40 27
        E 278 99 24 3d -23
        E 0 99 29 7f 21
        E 200 89 29 40 21
        E 2 89 24 40 -23
        E 278 99 26 7f -15
        E 0 99 29 7f 38
        E 200 89 29 40 38
        E 2 89 26 40 -15
        E 278 99 29 7f 25
        E 202 89 29 40 25
        E 278 99 29 7f 32
        E 0 99 24 50 38
        E 201 89 29 40 32
        E 0 89 24 40 38
        E 279 99 24 3c -13
        E 0 99 29 7f 26
        E 138 89 24 40 -13
        E 65 89 29 40 26
        E 37 99 24 1c -115
        E 200 89 24 40 -115
        E 40 99 26 7f 8
        E 0 99 29 7f 61
        E 201 89 29 40 61
        E 2 89 26 40 8
        E 277 99 29 7f 35
        E 200 89 29 40 35
        E 280 99 24 50 -1
        E 0 99 29 7f 60
        E 200 89 24 40 -1
        E 1 89 29 40 60
        E 279 99 24 37 -62
        E 0 99 29 7f 22
        E 201 89 24 40 -62
        E 4 89 29 40 22
        E 275 99 26 7f 13
        E 0 99 29 7f 59
        E 200 89 26 40 13
        E 2 89 29 40 59
        E 278 99 29 7f 23
        E 199 89 29 40 23
        E 41 99 30 7f -37
        E 202 89 30 40 -37
        E 38 99 24 62 -83
        E 0 99 2d 7f 55
        E 200 89 24 40 -83
        E 0 89 2d 40 55
        E 40 99 30 7e -37
        E 17 b9 04 06
        E 182 89 30 40 -37
        E 4 b9 04 00
        E 37 99 24 51 -91
        E 0 99 2d 7f 5
        E 200 89 24 40 -91
        E 0 89 2d 40 5
        E 280 99 26 7f -10
        E 0 99 29 7f 46
        E 201 89 29 40 46
        E 1 89 26 40 -10
        E 278 99 29 7f 5
        E 200 89 29 40 5
        E 280 99 24 55 31
        E 0 99 29 7f 37
        E 200 89 24 40 31
        E 0 89 29 40 37
        E 280 99 24 3e -31
        E 0 99 29 7f 10
        E 0 99 24 1d 99
        E 128 89 24 40 -31
        E 72 89 24 40 99
        E 1 89 29 40 10
        E 279 99 26 7f 5
        E 0 99 29 7f 51
        E 200 89 26 40 5
        E 0 89 29 40 51
        E 280 99 29 7f -7
        E 200 89 29 40 -7
        E 40 99 26 52 -105
        E 200 89 26 40 -105
        E 40 99 24 64 -22
        E 0 99 29 7f -12
        E 201 89 24 40 -22
        E 0 89 29 40 -12
        E 279 99 29 7f -3
        E 199 89 29 40 -3
        E 281 99 26 7f 9
        E 0 99 29 7f 35
        E 200 89 26 40 9
        E 2 89 29 40 35
        E 278 99 29 7f 19
        E 202 89 29 40 19
        E 278 99 29 7f 38
        E 0 99 24 57 45
        E 200 89 24 40 45
        E 1 89 29 40 38
        E 279 99 24 34 -53
        E 0 99 29 7f 45
        E 200 89 24 40 -53
        E 2 89 29 40 45
        E 278 99 26 7f 21
        E 0 99 29 7f 57
        E 200 89 26 40 21
        E 2 89 29 40 57
        E 278 99 29 7f 15
        E 200 89 29 40 15
        E 40 99 30 7c -45
        E 200 89 30 40 -45
        E 40 99 24 60 -65
        E 0 99 2d 7f 45
        E 200 89 24 40 -65
        E 2 89 2d 40 45
        E 38 99 30 7f -38
        E 200 89 30 40 -38
        E 40 99 24 4b -47
        E 0 99 2d 7f -11
        E 199 89 24 40 -47
        E 1 89 2d 40 -11
        E 280 99 26 7f 1
        E 0 99 29 7f 37
        E 200 89 26 40 1
        E 0 89 29 40 37
        E 280 99 29 7f 27
        E 199 89 29 40 27
        E 281 99 29 7f 25
        E 0 99 24 4f 59
        E 201 89 24 40 59
        E 1 89 29 40 25
        E 278 99 24 42 -15
        E 0 99 29 7f 26
        E 200 89 24 40 -15
        E 1 89 29 40 26
        E 279 99 26 7f 23
        E 0 99 29 7f 77
        E 200 89 26 40 23
        E 0 89 29 40 77
        E 280 99 29 7f 73
        E 200 89 29 40 73
        E 280 99 24 52 77
        E 0 99 29 7f 85
        E 200 89 24 40 77
        E 0 89 29 40 85
        E 280 99 24 3d 15
        E 0 99 29 7f 71
        E 0 99 24 1f 119
        E 104 89 24 40 15
        E 96 89 29 40 71
        E 0 89 24 40 119
        E 280 99 26 7f 25
        E 0 99 29 7f 65
        E 200 89 26 40 25
        E 0 89 29 40 65
        E 280 99 29 7f 49
        E 200 89 29 40 49
        E 40 99 28 58 -2
        E 0 99 28 2a 97
        E 97 89 28 40 -2
        E 103 89 28 40 97
        E 40 99 26 64 66
        E 0 99 24 49 75
        E 126 89 24 40 75
        E 75 89 26 40 66
        E 39 99 24 24 -37
        E 0 99 26 40 37
        E 96 89 26 40 37
        E 104 89 24 40 -37
        E 40 99 26 23 -105
        E 0 99 26 7e 49
        E 152 89 26 40 -105
        E 44 89 26 40 49
        E 44 99 26 66 7
        E 200 89 26 40 7
        E 40 99 26 78 28
        E 201 89 26 40 28
        E 39 99 26 61 17
        E 200 89 26 40 17
        E 40 99 26 7f 25
        E 200 89 26 40 25
        E 40 99 26 68 -9
        E 202 89 26 40 -9
        E 38 99 33 41 -15
        E 0 99 33 7f 30
        E 0 99 24 5f 89
        E 44 89 33 40 -15
        E 157 89 33 40 30
        E 1 89 24 40 89
        E 278 99 29 7f -29
        E 200 89 29 40 -29
        E 280 99 26 7f -23
        E 0 99 29 7f 20
        E 202 89 26 40 -23
        E 0 89 29 40 20
        E 278 99 29 7f 9
        E 200 89 29 40 9
        E 280 99 24 51 15
        E 0 99 29 7f 33
        E 200 89 24 40 15
        E 0 89 29 40 33
        E 280 99 29 7f 25
        E 200 89 29 40 25
        E 280 99 26 7f -7
        E 0 99 29 7f 45
        E 199 89 26 40 -7
        E 2 89 29 40 45
        E 279 99 29 7f 23
        E 200 89 29 40 23
        E 280 99 29 7f 35
        E 0 99 24 4e 45
        E 199 89 24 40 45
        E 1 89 29 40 35
        E 280 99 24 3d -59
        E 0 99 24 1d 33
        E 0 99 29 7f 41
        E 90 89 24 40 -59
        E 109 89 29 40 41
        E 2 89 24 40 33
        E 279 99 26 7f 34
        E 0 99 29 7f 79
        E 200 89 29 40 79
        E 3 89 26 40 34
        E 277 99 29 7f 65
        E 200 89 29 40 65
        E 280 99 24 51 36
        E 0 99 29 7f 59
        E 200 89 29 40 59
        E 1 89 24 40 36
        E 279 99 29 7f 52
        E 201 89 29 40 52
        E 279 99 26 7f 21
        E 0 99 29 7f 73
        E 199 89 26 40 21
        E 1 89 29 40 73
        E 280 99 29 7f 37
        E 200 89 29 40 37
        E 40 99 30 6d -38
        E 203 89 30 40 -38
        E 37 99 24 64 -78
        E 0 99 2d 7f 57
        E 200 89 2d 40 57
        E 1 89 24 40 -78
        E 39 99 30 5c -15
        E 35 b9 04 06
        E 165 89 30 40 -15
        E 40 99 24 51 -32
        E 0 99 2d 7f
        E 26 b9 04 00
        E 174 89 2d 40
        E 1 89 24 40 -32
        E 279 99 26 74 3
        E 0 99 29 7f 41
        E 199 89 26 40 3
        E 2 89 29 40 41
        E 279 99 29 7f 28
        E 200 89 29 40 28
        E 280 99 29 7f 51
        E 0 99 24 54 68
        E 199 89 29 40 51
        E 2 89 24 40 68
        E 279 99 24 41 13
        E 0 99 29 7f 55
        E 0 99 24 22 110
        E 94 89 24 40 13
        E 106 89 29 40 55
        E 1 89 24 40 110
        E 279 99 26 7f 29
        E 0 99 29 7f 71
        E 200 89 26 40 29
        E 0 89 29 40 71
        E 280 99 29 7f 52
        E 200 89 29 40 52
        E 280 99 24 4e 57
        E 0 99 29 7f 70
        E 200 89 24 40 57
        E 1 89 29 40 70
        E 279 99 29 7f 79
        E 199 89 29 40 79
        E 281 99 26 7f 63
        E 0 99 29 7f 84
        E 201 89 26 40 63
        E 0 89 29 40 84
        E 279 99 29 7f 67
        E 200 89 29 40 67
        E 2 b9 04 00
        E 38 99 1a 7f -36
        E 201 89 1a 40 -36
        E 14 b9 04 12
        E 25 99 24 56 -61
        E 0 99 24 28 35
        E 0 99 29 7f 45
        E 29 b9 04 22
        E 60 b9 04 32
        E 4 89 24 40 -61
        E 106 89 24 40 35
        E 0 89 29 40 45
        E 3 b9 04 22
        E 136 b9 04 12
        E 142 99 29 7f 62
        E 201 89 29 40 62
        E 279 99 26 7f 58
        E 0 99 29 7f 80
        E 200 89 26 40 58
        E 3 89 29 40 80
        E 202 b9 04 06
        E 75 99 29 7f 52
        E 201 89 29 40 52
        E 39 99 28 4a -11
        E 5 b9 04 00
        E 195 89 28 40 -11
        E 40 99 24 6b -38
        E 0 99 2d 7f 42
        E 201 89 24 40 -38
        E 0 89 2d 40 42
        E 39 99 30 7f -12
        E 12 b9 04 0f
        E 189 89 30 40 -12
        E 39 99 2d 7f 6
        E 0 99 24 4e 10
        E 98 b9 04 06
        E 104 89 2d 40 6
        E 1 89 24 40 10
        E 146 b9 04 00
        E 131 99 26 7f -46
        E 0 99 29 7f 11
        E 200 89 29 40 11
        E 3 89 26 40 -46
        E 277 99 29 7f -10
        E 199 b9 04 09
        E 2 89 29 40 -10
        E 279 99 24 58 7
        E 0 99 29 7f 10
        E 201 89 29 40 10
        E 1 89 24 40 7
        E 278 99 24 37 -94
        E 0 99 29 7f -4
        E 200 89 24 40 -94
        E 3 89 29 40 -4
        E 25 b9 04 00
        E 252 99 26 7f -35
        E 0 99 29 7f 32
        E 199 89 26 40 -35
        E 2 89 29 40 32
        E 279 99 29 7f -1
        E 0 99 26 21 109
        E 199 89 26 40 109
        E 3 89 29 40 -1
        E 278 99 24 55 10
        E 0 99 29 7f 14
        E 200 89 24 40 10
        E 3 89 29 40 14
        E 37 99 24 29 79
        E 202 89 24 40 79
        E 38 99 29 7f 26
        E 201 89 29 40 26
        E 279 99 26 7b -15
        E 0 99 29 7f 49
        E 200 89 26 40 -15
        E 0 89 29 40 49
        E 280 99 29 7f 22
        E 0 99 1a 7f 98
        E 96 b9 04 00
        E 104 89 1a 40 98
        E 1 89 29 40 22
        E 176 b9 04 12
        E 7 b9 04 25
        E 62 b9 04 36
        E 34 99 24 65 -45
        E 0 99 29 7f -5
        E 52 b9 04 46
        E 110 b9 04 36
        E 39 89 29 40 -5
        E 2 89 24 40 -45
        E 41 b9 04 25
        E 108 b9 04 18
        E 128 99 29 7f 34
        E 21 b9 04 0f
        E 180 89 29 40 34
        E 279 99 26 7f 51
        E 0 99 29 7f 70
        E 64 b9 04 09
        E 135 89 26 40 51
        E 1 89 29 40 70
        E 8 b9 04 00
        E 272 99 29 7f 9
        E 100 b9 04 09
        E 102 89 29 40 9
        E 38 99 30 7f -54
        E 0 99 24 6e 82
        E 25 b9 04 00
        E 175 89 24 40 82
        E 3 89 30 40 -54
        E 27 b9 04 12
        E 10 99 2d 7f 20
        E 128 b9 04 1d
        E 73 89 2d 40 20
        E 39 99 30 64 -37
        E 0 99 24 49 32
        E 116 b9 04 0f
        E 83 89 30 40 -37
        E 1 89 24 40 32
        E 40 99 2d 7f -14
        E 57 b9 04 06
        E 144 89 2d 40 -14
        E 65 b9 04 00
        E 214 99 26 7f -3
        E 0 99 29 7f 18
        E 200 89 29 40 18
        E 2 89 26 40 -3
        E 278 99 29 7f 11
        E 199 89 29 40 11
        E 24 b9 04 09
        E 257 99 24 5d -2
        E 0 99 29 7f 28
        E 200 89 29 40 28
        E 1 89 24 40 -2
        E 39 99 24 16 21
        E 202 89 24 40 21
        E 38 99 29 7f 10
        E 200 89 29 40 10
        E 40 99 24 23 -41
        E 173 b9 04 03
        E 4 b9 04 00
        E 22 89 24 40 -41
        E 41 99 26 7f 60
        E 0 99 29 7f 77
        E 200 89 26 40 60
        E 0 89 29 40 77
        E 280 99 29 7f 52
        E 200 89 29 40 52
        E 280 99 24 5c 70
        E 0 99 29 7f 99
        E 200 89 24 40 70
        E 1 89 29 40 99
        E 57 b9 04 12
        E 40 b9 04 22
        E 40 b9 04 32
        E 142 99 29 7f 95
        E 83 b9 04 22
        E 35 b9 04 12
        E 36 b9 04 00
        E 45 89 29 40 95
        E 281 99 2c 50 33
        E 0 99 26 7f 97
        E 0 99 29 7f 108
        E 18 b9 04 12
        E 4 b9 04 25
        E 4 b9 04 38
        E 2 b9 04 49
        E 2 b9 04 4f
        E 5 b9 04 5b
        E 35 b9 04 6c
        E 115 b9 04 5c
        E 15 89 2c 40 33
        E 2 89 26 40 97
        E 0 89 29 40 108
        E 4 b9 04 4c
        E 19 b9 04 3c
        E 31 b9 04 2c
        E 46 b9 04 1a
        E 124 b9 04 12
        E 54 99 29 7f 106
        E 201 89 29 40 106
        E 16 b9 04 20
        E 280 b9 04 0f
        E 67 b9 04 00
        E 156 99 29 7f -118
        E 0 99 24 64 -85
        E 96 b9 04 0c
        E 103 89 24 40 -85
        E 1 89 29 40 -118
        E 40 99 24 31 -10
        E 0 99 29 7f 118
        E 200 89 24 40 -10
        E 1 89 29 40 118
        E 279 99 26 7f 98
        E 121 b9 04 03
        E 10 b9 04 00
        E 69 89 26 40 98
        E 40 99 29 7f -117
        E 141 b9 04 12
        E 58 89 29 40 -117
        E 41 99 29 7f 83
        E 6 b9 04 00
        E 172 b9 04 12
        E 9 b9 04 22
        E 8 b9 04 32
        E 4 89 29 40 83
        E 7 b9 04 43
        E 4 b9 04 4c
        E 5 b9 04 54
        E 7 b9 04 65
        E 18 99 2c 1c -27
        E 0 99 30 5b -12
        E 15 b9 04 75
        E 62 b9 04 65
        E 18 b9 04 55
        E 11 b9 04 44
        E 11 b9 04 34
        E 8 b9 04 22
        E 12 b9 04 12
        E 11 b9 04 00
        E 52 89 2c 40 -27
        E 0 89 30 40 -12
        E 40 99 24 7f -1
        E 0 99 2d 7f 82
        E 149 b9 04 12
        E 1 b9 04 25
        E 3 b9 04 38
        E 2 b9 04 49
        E 2 b9 04 53
        E 5 b9 04 5a
        E 2 b9 04 6e
        E 10 b9 04 5d
        E 13 b9 04 6e
        E 12 89 24 40 -1
        E 1 89 2d 40 82
        E 40 99 2c 7a -81
        E 46 b9 04 5d
        E 12 b9 04 4c
        E 8 b9 04 3c
        E 11 b9 04 2c
        E 9 b9 04 1a
        E 12 b9 04 09
        E 6 b9 04 00
        E 94 89 2c 40 -81
        E 42 99 24 58 -42
        E 0 99 2d 7f 36
        E 110 b9 04 12
        E 11 b9 04 25
        E 17 b9 04 36
        E 15 b9 04 46
        E 3 b9 04 4c
        E 8 b9 04 56
        E 37 89 2d 40 36
        E 1 89 24 40 -42
        E 25 b9 04 46
        E 13 99 2c 12 -82
        E 15 b9 04 36
        E 186 89 2c 40 -82
        E 39 99 26 7f 57
        E 0 99 29 7f 104
        E 33 b9 04 2e
        E 67 b9 04 1d
        E 99 89 26 40 57
        E 1 89 29 40 104
        E 65 b9 04 0f
        E 142 b9 04 06
        E 73 99 29 7f 85
        E 199 89 29 40 85
        E 64 b9 04 12
        E 217 99 24 64 90
        E 0 99 29 7f 111
        E 41 b9 04 03
        E 6 b9 04 00
        E 153 89 29 40 111
        E 1 89 24 40 90
        E 279 99 24 3d 29
        E 201 89 24 40 29
        E 39 99 29 7f -119
        E 200 89 29 40 -119
        E 40 99 26 7e 75
        E 200 89 26 40 75
        E 40 99 29 7f -113
        E 199 89 29 40 -113
        E 41 99 29 7f 108
        E 200 89 29 40 108
        E 520 99 29 7f -106
        E 0 99 24 72 -96
        E 200 89 29 40 -106
        E 1 89 24 40 -96
        E 39 99 24 3b 61
        E 73 89 24 40 61
        E 167 99 24 19 -102
        E 0 99 29 7f -100
        E 51 b9 04 06
        E 148 89 24 40 -102
        E 3 89 29 40 -100
        E 146 b9 04 00
        E 132 99 26 7f -107
        E 0 99 29 7f -98
        E 200 89 26 40 -107
        E 3 89 29 40 -98
        E 37 99 29 7f 118
        E 200 89 29 40 118
        E 280 99 29 7f 100
        E 0 99 24 60 107
        E 202 89 29 40 100
        E 0 89 24 40 107
        E 278 99 29 7f 70
        E 200 89 29 40 70
        E 280 99 26 7f 29
        E 0 99 29 7f 56
        E 201 89 26 40 29
        E 0 89 29 40 56
        E 279 99 29 7f 44
        E 182 b9 04 09
        E 18 89 29 40 44
        E 40 99 30 5c -34
        E 200 89 30 40 -34
        E 40 99 24 7f -45
        E 0 99 2d 7f 52
        E 109 b9 04 1a
        E 91 89 2d 40 52
        E 2 89 24 40 -45
        E 38 99 30 79 -38
        E 59 b9 04 27
        E 141 89 30 40 -38
        E 40 99 24 5b -10
        E 0 99 2d 7f 9
        E 3 b9 04 18
        E 138 b9 04 0f
        E 58 89 2d 40 9
        E 2 89 24 40 -10
        E 169 b9 04 06
        E 110 99 26 7f 62
        E 0 99 29 7f 70
        E 66 b9 04 00
        E 134 89 26 40 62
        E 0 89 29 40 70
        E 280 99 29 7f 46
        E 200 89 29 40 46
        E 24 b9 04 09
        E 256 99 29 7f 44
        E 0 99 24 7d 54
        E 200 89 29 40 44
        E 0 89 24 40 54
        E 280 99 24 48 24
        E 0 99 29 7f 50
        E 124 89 24 40 24
        E 76 89 29 40 50
        E 40 99 24 21 -90
        E 200 89 24 40 -90
        E 40 99 26 7f -16
        E 0 99 29 7f 38
        E 200 89 29 40 38
        E 2 89 26 40 -16
        E 278 99 29 7f 42
        E 16 b9 04 03
        E 184 89 29 40 42
        E 280 99 29 7f 64
        E 0 99 24 68 78
        E 201 89 29 40 64
        E 2 89 24 40 78
        E 277 99 24 44 -12
        E 0 99 29 7f 58
        E 200 89 29 40 58
        E 2 89 24 40 -12
        E 278 99 26 7f 41
        E 0 99 29 7f 68
        E 199 89 26 40 41
        E 2 89 29 40 68
        E 157 b9 04 00
        E 122 99 29 7f 66
        E 200 89 29 40 66
        E 280 99 29 7f 71
        E 0 99 24 74 93
        E 199 89 29 40 71
        E 2 89 24 40 93
        E 279 99 24 45 26
        E 0 99 29 7f 60
        E 100 89 24 40 26
        E 100 89 29 40 60
        E 40 99 24 1e -112
        E 202 89 24 40 -112
        E 38 99 26 7b 14
        E 0 99 29 7f 56
        E 200 89 26 40 14
        E 0 89 29 40 56
        E 280 99 29 7f 28
        E 200 89 29 40 28
        E 2 b9 04 0c
        E 38 99 30 65 -30
        E 202 89 30 40 -30
        E 38 99 24 7e -23
        E 0 99 2d 7f 38
        E 186 b9 04 18
        E 14 89 2d 40 38
        E 1 89 24 40 -23
        E 39 99 30 60 -48
        E 200 89 30 40 -48
        E 40 99 2d 7f -3
        E 0 99 24 5a
        E 152 b9 04 0f
        E 47 89 2d 40 -3
        E 3 89 24 40
        E 152 b9 04 06
        E 126 99 26 74 45
        E 0 99 29 7f 58
        E 18 b9 04 00
        E 182 89 29 40 58
        E 1 89 26 40 45
        E 279 99 29 7f 34
        E 202 89 29 40 34
        E 278 99 24 67 38
        E 0 99 29 7f 40
        E 200 89 24 40 38
        E 2 89 29 40 40
        E 278 99 24 46 -14
        E 0 99 29 7f 40
        E 0 99 24 20 96
        E 106 89 24 40 -14
        E 92 89 24 40 96
        E 2 89 29 40 40
        E 280 99 26 7f 6
        E 0 99 29 7f 52
        E 200 89 29 40 52
        E 4 89 26 40 6
        E 276 99 29 7f 46
        E 131 b9 04 00
        E 69 89 29 40 46
        E 40 99 1a 7f -107
        E 118 b9 04 12
        E 7 b9 04 25
        E 3 b9 04 38
        E 2 b9 04 4c
        E 6 b9 04 4c
        E 65 89 1a 40 -107
        E 3 b9 04 5c
        E 36 99 2c 46 -108
        E 0 99 24 7e
        E 0 99 29 7f 44
        E 90 b9 04 4c
        E 56 b9 04 3c
        E 54 89 2c 40 -108
        E 0 89 29 40 44
        E 1 89 24 40
        E 161 b9 04 2c
        E 112 b9 04 1d
        E 6 99 29 7f 64
        E 200 89 29 40 64
        E 280 99 26 7f 58
        E 0 99 29 7f 82
        E 200 89 26 40 58
        E 0 89 29 40 82
        E 280 99 29 7f 74
        E 70 b9 04 12
        E 130 89 29 40 74
        E 136 b9 04 18
        E 144 99 24 67 68
        E 0 99 29 7f 90
        E 202 89 24 40 68
        E 0 89 29 40 90
        E 278 99 24 43 -16
        E 0 99 29 7f 70
        E 64 b9 04 12
        E 136 89 24 40 -16
        E 2 89 29 40 70
        E 278 99 26 7c 66
        E 0 99 29 7f 102
        E 110 b9 04 09
        E 90 89 29 40 102
        E 3 89 26 40 66
        E 57 b9 04 00
        E 220 99 29 7f 70
        E 140 b9 04 0f
        E 60 89 29 40 70
        E 40 99 30 77 2
        E 200 89 30 40 2
        E 40 99 24 7f 4
        E 0 99 2d 7f 105
        E 199 89 2d 40 105
        E 2 89 24 40 4
        E 39 99 30 7a 16
        E 0 99 30 23 114
        E 30 b9 04 18
        E 64 89 30 40 16
        E 104 89 30 40 114
        E 6 b9 04 1d
        E 36 99 24 5f 8
        E 0 99 2d 7f 48
        E 200 89 24 40 8
        E 0 89 2d 40 48
        E 112 b9 04 12
        E 168 99 26 66 48
        E 0 99 29 7f 96
        E 132 b9 04 09
        E 68 89 26 40 48
        E 1 89 29 40 96
        E 279 99 29 7f 78
        E 202 89 29 40 78
        E 38 b9 04 12
        E 240 99 24 6f 94
        E 0 99 29 7f 106
        E 72 b9 04 09
        E 128 89 24 40 94
        E 2 89 29 40 106
        E 90 b9 04 12
        E 188 99 24 3c -22
        E 0 99 29 7f 108
        E 200 89 29 40 108
        E 2 89 24 40 -22
        E 278 99 26 7f 104
        E 112 b9 04 09
        E 88 89 26 40 104
        E 40 99 29 7f -102
        E 200 89 29 40 -102
        E 218 b9 04 00
        E 62 99 29 7f -119
        E 0 99 29 34 -16
        E 0 99 1a 7f 104
        E 101 89 29 40 -119
        E 1 b9 04 00
        E 100 89 29 40 -16
        E 0 89 1a 40 104
        E 38 99 2c 2a 58
        E 38 b9 04 12
        E 4 b9 04 22
        E 4 b9 04 34
        E 4 b9 04 46
        E 7 b9 04 4c
        E 27 b9 04 56
        E 38 b9 04 66
        E 80 89 2c 40 58
        E 38 b9 04 56
        E 0 99 24 7f -108
        E 0 99 29 7f -90
        E 48 b9 04 46
        E 67 b9 04 36
        E 85 89 29 40 -90
        E 2 89 24 40 -108
        E 62 b9 04 3a
        E 52 b9 04 29
        E 110 b9 04 1d
        E 54 99 29 7f -112
        E 200 89 29 40 -112
        E 162 b9 04 15
        E 118 99 26 7e -80
        E 0 99 29 7f -54
        E 200 89 29 40 -54
        E 1 89 26 40 -80
        E 147 b9 04 0c
        E 132 99 29 7f -80
        E 188 b9 04 12
        E 12 89 29 40 -80
        E 280 99 24 70 -64
        E 0 99 29 7f -48
        E 200 89 29 40 -48
        E 1 89 24 40 -64
        E 279 99 24 45 -88
        E 0 99 29 7f -34
        E 0 99 24 21 24
        E 110 89 24 40 -88
        E 90 89 29 40 -34
        E 0 89 24 40 24
        E 210 b9 04 09
        E 70 99 26 7a -80
        E 0 99 29 7f -32
        E 14 b9 04 00
        E 186 89 26 40 -80
        E 1 89 29 40 -32
        E 279 99 29 7f -56
        E 18 b9 04 0f
        E 152 b9 04 15
        E 30 89 29 40 -56
        E 40 99 30 7c -120
        E 0 99 30 26 -32
        E 86 89 30 40 -120
        E 63 b9 04 0f
        E 51 89 30 40 -32
        E 40 99 24 7f -116
        E 0 99 2d 7f -44
        E 60 b9 04 1d
        E 140 89 24 40 -116
        E 4 89 2d 40 -44
        E 22 b9 04 27
        E 14 99 30 7f -108
        E 200 89 30 40 -108
        E 36 b9 04 1d
        E 4 99 24 5d -108
        E 0 99 2d 7f -68
        E 196 b9 04 12
        E 4 89 24 40 -108
        E 0 89 2d 40 -68
        E 266 b9 04 06
        E 14 99 26 7f -76
        E 0 99 29 7f -35
        E 122 b9 04 00
        E 77 89 29 40 -35
        E 1 89 26 40 -76
        E 280 99 29 7f -42
        E 116 b9 04 09
        E 84 89 29 40 -42
        E 280 99 24 7f -54
        E 0 99 29 7f -50
        E 200 89 29 40 -50
        E 2 89 24 40 -54
        E 278 99 24 41 -80
        E 0 99 29 7f -58
        E 0 99 24 1a 76
        E 154 89 24 40 -80
        E 46 89 29 40 -58
        E 0 89 24 40 76
        E 280 99 26 7f -80
        E 0 99 29 7f -67
        E 199 89 29 40 -67
        E 3 89 26 40 -80
        E 164 b9 04 00
        E 114 99 29 7f -90
        E 0 99 1a 7f 88
        E 86 b9 04 00
        E 113 89 29 40 -90
        E 1 89 1a 40 88
        E 40 99 2c 34 68
        E 0 99 24 7f 96
        E 52 b9 04 12
        E 4 b9 04 22
        E 4 b9 04 32
        E 4 b9 04 44
        E 2 b9 04 4c
        E 40 b9 04 54
        E 94 89 2c 40 68
        E 2 89 24 40 96
        E 12 b9 04 5f
        E 26 99 29 7f -86
        E 56 b9 04 4f
        E 86 b9 04 3f
        E 62 89 29 40 -86
        E 170 b9 04 2e
        E 106 99 29 71 -110
        E 46 b9 04 20
        E 156 89 29 40 -110
        E 124 b9 04 18
        E 154 99 26 7f -112
        E 0 99 29 7f -88
        E 66 b9 04 0f
        E 135 89 26 40 -112
        E 0 89 29 40 -88
        E 39 99 29 7f 110
        E 34 b9 04 09
        E 166 89 29 40 110
        E 50 b9 04 12
        E 230 99 24 71 40
        E 0 99 29 7f 78
        E 200 89 24 40 40
        E 0 89 29 40 78
        E 280 99 24 3a -42
        E 0 99 24 1b 54
        E 0 99 29 7f 102
        E 94 89 24 40 -42
        E 105 89 29 40 102
        E 3 89 24 40 54
        E 278 99 26 7f 80
        E 0 99 29 7f 112
        E 158 b9 04 09
        E 42 89 26 40 80
        E 1 89 29 40 112
        E 135 b9 04 00
        E 144 99 29 7f 92
        E 200 89 29 40 92
        E 5 b9 04 09
        E 35 99 30 68 25
        E 199 89 30 40 25
        E 41 99 24 7f 28
        E 0 99 2d 7f 92
        E 200 89 2d 40 92
        E 2 89 24 40 28
        E 18 b9 04 18
        E 20 99 30 72 6
        E 200 89 30 40 6
        E 40 99 24 5a 20
        E 0 99 2d 7f 24
        E 201 89 24 40 20
        E 2 89 2d 40 24
        E 20 b9 04 0f
        E 231 b9 04 09
        E 26 99 26 6f 32
        E 0 99 29 7f 66
        E 186 b9 04 00
        E 14 89 29 40 66
        E 2 89 26 40 32
        E 278 99 29 7f 48
        E 200 89 29 40 48
        E 14 b9 04 0c
        E 266 99 24 7f 58
        E 0 99 29 7f 60
        E 200 89 24 40 58
        E 0 89 29 40 60
        E 280 99 24 47 48
        E 0 99 29 7f 70
        E 118 89 24 40 48
        E 84 89 29 40 70
        E 38 99 24 1e -72
        E 202 89 24 40 -72
        E 38 99 26 75 34
        E 0 99 29 7f 68
        E 200 89 26 40 34
        E 1 89 29 40 68
        E 25 b9 04 06
        E 174 b9 04 00
        E 80 99 29 7f 37
        E 202 89 29 40 37
        E 38 99 1a 7f 44
        E 42 b9 04 00
        E 154 b9 04 12
        E 4 89 1a 40 44
        E 4 b9 04 27
        E 8 b9 04 38
        E 28 99 2c 0e 18
        E 0 99 24 7f 54
        E 0 99 29 7f 86
        E 12 b9 04 49
        E 4 b9 04 4c
        E 102 b9 04 57
        E 52 b9 04 47
        E 29 89 29 40 86
        E 1 89 2c 40 18
        E 0 89 24 40 54
        E 14 b9 04 36
        E 56 b9 04 25
        E 104 b9 04 1a
        E 106 99 29 7f 82
        E 202 89 29 40 82
        E 278 99 26 7f 78
        E 0 99 29 7f 112
        E 77 b9 04 12
        E 123 89 26 40 78
        E 0 89 29 40 112
        E 238 b9 04 09
        E 42 99 29 7f 78
        E 200 89 29 40 78
        E 42 b9 04 12
        E 238 99 29 7f 66
        E 0 99 24 7f 76
        E 136 b9 04 0c
        E 66 89 29 40 66
        E 2 89 24 40 76
        E 276 99 24 49 68
        E 0 99 29 7f 78
        E 120 89 24 40 68
        E 80 89 29 40 78
        E 40 99 24 22 -50
        E 200 89 24 40 -50
        E 40 99 26 7f 40
        E 0 99 29 7f 84
        E 200 89 26 40 40
        E 0 89 29 40 84
        E 82 b9 04 03
        E 10 b9 04 00
        E 188 99 29 7f 60
        E 158 b9 04 0c
        E 44 89 29 40 60
        E 38 99 30 7f -20
        E 204 89 30 40 -20
        E 36 99 24 7f 9
        E 0 99 2d 7f 80
        E 201 89 24 40 9
        E 5 89 2d 40 80
        E 2 b9 04 18
        E 32 99 30 67 -28
        E 0 99 30 2b 44
        E 70 89 30 40 -28
        E 132 89 30 40 44
        E 38 99 24 5b 4
        E 0 99 2d 7f 32
        E 200 89 24 40 4
        E 2 89 2d 40 32
        E 46 b9 04 0f
        E 232 99 26 6d 20
        E 0 99 29 7f 58
        E 128 b9 04 06
        E 72 89 26 40 20
        E 2 89 29 40 58
        E 170 b9 04 00
        E 108 99 29 7f 62
        E 198 b9 04 0c
        E 2 89 29 40 62
        E 280 99 29 7f 88
        E 0 99 24 7f 100
        E 200 89 29 40 88
        E 0 89 24 40 100
        E 280 99 24 4a 72
        E 0 99 29 7f 78
        E 200 89 24 40 72
        E 0 89 29 40 78
        E 280 99 26 7f 20
        E 0 99 29 7f 82
        E 200 89 29 40 82
        E 2 89 26 40 20
        E 278 99 29 7f 90
        E 0 99 26 6c 106
        E 200 89 29 40 90
        E 0 89 26 40 106
        E 6 b9 04 00
        E 274 99 2e 7f 70
        E 68 b9 04 09
        E 4 b9 04 12
        E 10 b9 04 25
        E 8 b9 04 36
        E 66 b9 04 46
        E 18 b9 04 4c
        E 28 89 2e 40 70
        E 38 99 24 7a -94
        E 0 99 29 7f -86
        E 0 99 2c 08 -64
        E 66 b9 04 36
        E 120 b9 04 27
        E 14 89 29 40 -86
        E 2 89 24 40 -94
        E 0 89 2c 40 -64
        E 142 b9 04 1d
        E 136 99 29 7f -118
        E 200 89 29 40 -118
        E 40 99 26 7c 108
        E 164 b9 04 15
        E 36 89 26 40 108
        E 40 99 29 7f -112
        E 180 b9 04 0f
        E 22 89 29 40 -112
        E 38 99 29 7f 108
        E 82 b9 04 09
        E 118 89 29 40 108
        E 124 b9 04 0f
        E 396 99 29 7f -102
        E 0 99 24 7f -70
        E 200 89 29 40 -102
        E 2 89 24 40 -70
        E 38 99 24 44 90
        E 0 99 29 7f 96
        E 200 89 24 40 90
        E 4 89 29 40 96
        E 276 99 26 7f 84
        E 0 99 29 7f 112
        E 200 89 29 40 112
        E 2 89 26 40 84
        E 134 b9 04 03
        E 45 b9 04 00
        E 99 99 29 7f 82
        E 116 b9 04 0f
        E 83 89 29 40 82
        E 41 99 30 79 6
        E 200 89 30 40 6
        E 40 90 34 7f
        E 0 99 24 7e -4
        E 0 99 29 69
        E 120 b9 04 1d
        E 80 89 29 40
        E 2 89 24 40 -4
        E 38 80 34 00
        E 240 99 24 4f -36
        E 0 99 29 69 40
        E 200 89 29 40 40
        E 2 89 24 40 -36
        E 278 90 26 7f
        E 0 99 29 69 40
        E 44 b9 04 00
        E 12 b9 04 06
        E 144 89 29 40 40
        E 40 80 26 00
        E 0 99 26 57 -118
        E 108 89 26 40 -118
        E 132 99 29 69 68
        E 200 89 29 40 68
        E 94 b9 04 09
        E 186 99 29 69 66
        E 40 99 24 72
        E 160 89 29 40 66
        E 40 89 24 40
        E 240 99 24 4a 64
        E 0 99 29 69 70
        E 40 99 24 22
        E 62 89 24 40 64
        E 98 89 29 40 70
        E 40 89 24 40
        E 240 99 26 7f 20
        E 0 99 29 69 64
        E 200 89 26 40 20
        E 0 89 29 40 64
        E 238 b9 04 03
        E 6 b9 04 00
        E 36 99 29 69 44
        E 200 89 29 40 44
        E 40 99 2e 7f 22
        E 20 b9 04 00
        E 152 b9 04 12
        E 8 b9 04 22
        E 4 b9 04 34
        E 15 89 2e 40 22
        E 29 b9 04 44
        E 12 99 2c 0e 4
        E 0 99 29 69 56
        E 0 99 24 7f 58
        E 2 b9 04 4c
        E 28 b9 04 54
        E 170 89 2c 40 4
        E 1 89 29 40 56
        E 0 89 24 40 58
        E 5 b9 04 44
        E 76 b9 04 34
        E 156 b9 04 29
        E 42 99 29 69 28
        E 200 89 29 40 28
        E 34 b9 04 1d
        E 246 99 26 7f 40
        E 0 99 29 69 60
        E 199 89 26 40 40
        E 1 89 29 40 60
        E 14 b9 04 18
        E 190 b9 04 0f
        E 76 99 29 69 47
        E 203 89 29 40 47
        E 277 99 29 69 56
        E 0 99 24 7f 86
        E 200 89 24 40 86
        E 1 89 29 40 56
        E 279 99 24 4c
        E 0 99 29 69 31
        E 200 89 24 40
        E 1 89 29 40 31
        E 279 99 26 7f -16
        E 0 99 29 69 30
        E 202 89 26 40 -16
        E 0 89 29 40 30
        E 92 b9 04 03
        E 6 b9 04 00
        E 180 99 29 69 -12
        E 136 b9 04 0c
        E 65 89 29 40 -12
        E 39 99 30 69 -88
        E 202 89 30 40 -88
        E 38 99 24 7f -30
        E 0 99 2d 6d 1
        E 128 b9 04 1a
        E 74 89 24 40 -30
        E 1 89 2d 40 1
        E 37 99 30 61 -58
        E 0 99 30 2c 20
        E 50 b9 04 25
        E 26 89 30 40 -58
        E 124 89 30 40 20
        E 40 99 24 57 -68
        E 0 99 2d 6d -42
        E 16 b9 04 1a
        E 170 b9 04 12
        E 14 89 24 40 -68
        E 0 89 2d 40 -42
        E 280 99 26 7d -82
        E 0 99 29 69 -18
        E 70 b9 04 0c
        E 130 89 29 40 -18
        E 2 89 26 40 -82
        E 178 b9 04 03
        E 100 99 29 69 -28
        E 182 b9 04 0f
        E 18 89 29 40 -28
        E 280 99 29 69 -2
        E 0 99 24 7f 12
        E 200 89 29 40 -2
        E 0 89 24 40 12
        E 280 99 29 69 -24
        E 0 99 24 4e -19
        E 0 99 24 20 78
        E 95 89 24 40 -19
        E 105 89 29 40 -24
        E 0 89 24 40 78
        E 280 99 26 7f -38
        E 0 99 29 69 -6
        E 200 89 29 40 -6
        E 2 89 26 40 -38
        E 192 b9 04 03
        E 40 b9 04 00
        E 46 99 29 69 -11
        E 182 b9 04 00
        E 19 89 29 40 -11
        E 39 99 1a 7f -56
        E 164 b9 04 12
        E 10 b9 04 25
        E 26 89 1a 40 -56
        E 14 b9 04 36
        E 22 b9 04 46
        E 4 99 24 7f 3
        E 0 99 29 69 18
        E 0 99 2c 0a 24
        E 19 b9 04 4c
        E 159 b9 04 36
        E 22 89 29 40 18
        E 2 89 2c 40 24
        E 1 89 24 40 3
        E 73 b9 04 25
        E 130 b9 04 1d
        E 74 99 29 69 16
        E 112 b9 04 25
        E 87 89 29 40 16
        E 26 b9 04 1d
        E 255 99 26 7f 24
        E 0 99 29 69 32
        E 38 b9 04 18
        E 162 89 26 40 24
        E 0 89 29 40 32
        E 104 b9 04 0c
        E 166 b9 04 06
        E 10 99 29 69 12
        E 200 89 29 40 12
        E 70 b9 04 0c
        E 210 99 29 69 32
        E 0 99 24 7f 54
        E 200 89 29 40 32
        E 2 89 24 40 54
        E 56 b9 04 12
        E 222 99 24 4d 18
        E 0 99 29 69 34
        E 116 89 24 40 18
        E 84 89 29 40 34
        E 40 99 24 20 -102
        E 200 89 24 40 -102
        E 22 b9 04 06
        E 18 99 26 7f -16
        E 0 99 29 69 28
        E 94 b9 04 00
        E 105 89 29 40 28
        E 2 89 26 40 -16
        E 279 99 29 69 15
        E 94 b9 04 12
        E 107 89 29 40 15
        E 39 99 30 77 -50
        E 20 b9 04 1a
        E 162 b9 04 0f
        E 20 89 30 40 -50
        E 38 99 24 7f -28
        E 0 99 2d 6d 40
        E 144 b9 04 1d
        E 56 89 24 40 -28
        E 2 89 2d 40 40
        E 38 99 30 51 -16
        E 0 99 30 24 74
        E 8 b9 04 2e
        E 80 89 30 40 -16
        E 114 89 30 40 74
        E 38 99 24 5a -42
        E 0 99 2d 6d -12
        E 74 b9 04 25
        E 107 b9 04 1a
        E 19 89 24 40 -42
        E 0 89 2d 40 -12
        E 148 b9 04 12
        E 132 90 32 7f
        E 0 99 26 7f -42
        E 0 99 29 69 6
        E 88 b9 04 06
        E 112 89 29 40 6
        E 4 89 26 40 -42
        E 36 80 32 00
        E 32 b9 04 00
        E 208 99 29 69 10
        E 144 b9 04 0f
        E 56 89 29 40 10
        E 280 99 29 69 18
        E 0 99 24 7f 54
        E 42 b9 04 09
        E 160 89 29 40 18
        E 0 89 24 40 54
        E 20 b9 04 12
        E 258 99 29 69 24
        E 0 99 24 52 32
        E 102 89 24 40 32
        E 100 89 29 40 24
        E 38 99 24 21 -102
        E 182 b9 04 0c
        E 16 89 24 40 -102
        E 42 99 26 7f -16
        E 0 99 29 69 22
        E 200 89 29 40 22
        E 2 89 26 40 -16
        E 78 b9 04 06
        E 200 99 29 69 -4
        E 6 b9 04 00
        E 196 89 29 40 -4
        E 18 b9 04 00
        E 20 99 2e 7f -18
        E 116 b9 04 12
        E 8 b9 04 25
        E 6 b9 04 36
        E 44 b9 04 46
        E 20 b9 04 4c
        E 6 89 2e 40 -18
        E 40 99 2c 0c -44
        E 0 99 24 7f -2
        E 0 99 29 69 12
        E 44 b9 04 4d
        E 42 b9 04 3c
        E 38 b9 04 2c
        E 76 89 24 40 -2
        E 1 89 2c 40 -44
        E 1 89 29 40 12
        E 38 b9 04 1d
        E 238 b9 04 2e
        E 2 99 29 69 12
        E 200 89 29 40 12
        E 78 b9 04 27
        E 119 b9 04 1a
        E 83 99 26 7f 12
        E 0 99 29 69 26
        E 200 89 26 40 12
        E 2 89 29 40 26
        E 158 b9 04 0f
        E 120 99 29 69 44
        E 200 89 29 40 44
        E 28 b9 04 15
        E 252 99 29 69 46
        E 0 99 24 7f 72
        E 200 89 29 40 46
        E 0 89 24 40 72
        E 280 99 24 4f 26
        E 0 99 29 69 40
        E 200 89 24 40 26
        E 0 89 29 40 40
        E 254 b9 04 0f
        E 26 99 26 7b 2
        E 0 99 29 69 34
        E 200 89 26 40 2
        E 2 89 29 40 34
        E 8 b9 04 03
        E 36 b9 04 00
        E 234 99 29 69 16
        E 26 b9 04 12
        E 176 89 29 40 16
        E 4 b9 04 1a
        E 34 99 31 7f -82
        E 134 b9 04 09
        E 68 89 31 40 -82
        E 38 99 24 7f -14
        E 0 99 2d 6d 13
        E 0 99 29 57 16
        E 164 b9 04 15
        E 38 89 24 40 -14
        E 0 89 29 40 16
        E 1 89 2d 40 13
        E 277 99 24 4c -60
        E 0 99 2d 6d 5
        E 100 b9 04 0f
        E 100 89 24 40 -60
        E 3 89 2d 40 5
        E 277 90 30 6d
        E 0 99 26 7f -12
        E 0 99 29 69 -2
        E 0 99 26 36 80
        E 88 89 26 40 -12
        E 2 b9 04 06
        E 108 89 26 40 80
        E 2 89 29 40 -2
        E 40 80 30 00
        E 240 99 29 69 32
        E 128 b9 04 0f
        E 74 89 29 40 32
        E 200 b9 04 03
        E 16 b9 04 00
        E 62 99 24 7f -42
        E 0 99 29 69 2
        E 176 b9 04 0c
        E 23 89 29 40 2
        E 3 89 24 40 -42
        E 278 99 29 69 -31
        E 203 89 29 40 -31
        E 277 99 26 7f -42
        E 0 99 29 69 -4
        E 200 89 26 40 -42
        E 2 89 29 40 -4
        E 90 b9 04 03
        E 188 99 29 69 -24
        E 104 b9 04 0c
        E 96 89 29 40 -24
        E 40 99 26 3e -32
        E 186 b9 04 06
        E 14 89 26 40 -32
        E 40 99 24 7f -46
        E 0 99 29 69 -23
        E 128 b9 04 0f
        E 73 89 29 40 -23
        E 2 89 24 40 -46
        E 277 99 24 4b -76
        E 0 99 29 69 -38
        E 200 89 24 40 -76
        E 0 89 29 40 -38
        E 280 99 26 7f -38
        E 0 99 29 69 -20
        E 200 89 26 40 -38
        E 0 89 29 40 -20
        E 46 b9 04 06
        E 234 99 29 69 -14
        E 154 b9 04 0f
        E 48 89 29 40 -14
        E 278 99 29 69 -10
        E 0 99 24 7f -4
        E 50 b9 04 09
        E 150 89 29 40 -10
        E 4 89 24 40 -4
        E 276 99 29 69 -24
        E 200 89 29 40 -24
        E 280 99 26 7e -22
        E 0 99 29 69 8
        E 200 89 29 40 8
        E 2 89 26 40 -22
        E 98 b9 04 00
        E 180 99 29 69 -12
        E 106 b9 04 0c
        E 98 89 29 40 -12
        E 36 99 30 77 -71
        E 201 89 30 40 -71
        E 39 99 24 7f -49
        E 0 99 2d 6d 26
        E 160 b9 04 18
        E 41 89 24 40 -49
        E 1 89 2d 40 26
        E 38 99 30 60 -79
        E 0 99 30 11 28
        E 105 89 30 40 -79
        E 95 89 30 40 28
        E 40 99 24 5b -76
        E 0 99 2d 6d -32
        E 191 b9 04 0c
        E 9 89 24 40 -76
        E 0 89 2d 40 -32
        E 280 90 34 7f
        E 0 99 26 7f -58
        E 0 99 29 69 -17
        E 74 b9 04 03
        E 44 b9 04 00
        E 82 89 26 40 -58
        E 3 89 29 40 -17
        E 37 80 34 00
        E 240 99 29 69 -24
        E 114 b9 04 0c
        E 88 89 29 40 -24
        E 79 b9 04 12
        E 199 99 29 69 -14
        E 0 99 24 7f 18
        E 47 b9 04 09
        E 152 89 29 40 -14
        E 1 89 24 40 18
        E 280 99 24 4f -39
        E 0 99 29 69 -22
        E 200 89 24 40 -39
        E 0 89 29 40 -22
        E 280 99 26 7f -8
        E 0 99 29 69 20
        E 136 b9 04 0f
        E 63 89 26 40 -8
        E 1 89 29 40 20
        E 162 b9 04 00
        E 118 99 29 69 -18
        E 0 99 29 16 88
        E 103 89 29 40 -18
        E 91 b9 04 00
        E 6 89 29 40 88
        E 40 99 2e 7f -44
        E 202 89 2e 40 -44
        E 38 99 2c 4a
        E 0 99 24 7f -22
        E 0 99 29 69 12
        E 46 b9 04 5a
        E 32 b9 04 12
        E 6 b9 04 27
        E 2 b9 04 38
        E 4 b9 04 4a
        E 2 b9 04 4f
        E 4 b9 04 5a
        E 14 b9 04 4a
        E 19 b9 04 5a
        E 1 b9 04 3a
        E 46 b9 04 6a
        E 24 89 29 40 12
        E 2 89 2c 40
        E 0 89 24 40 -22
        E 132 b9 04 29
        E 122 b9 04 1d
        E 24 99 24 0a -68
        E 0 99 29 69 28
        E 199 89 24 40 -68
        E 3 89 29 40 28
        E 278 99 26 7f 3
        E 0 99 29 69 18
        E 200 89 26 40 3
        E 0 89 29 40 18
        E 71 b9 04 12
        E 209 99 29 69 9
        E 201 89 29 40 9
        E 43 b9 04 1a
        E 236 99 29 69 25
        E 0 99 24 7f 37
        E 41 b9 04 12
        E 159 89 29 40 25
        E 3 89 24 40 37
        E 277 99 24 50 -24
        E 0 99 29 69 6
        E 202 89 29 40 6
        E 2 89 24 40 -24
        E 276 99 26 7f -32
        E 0 99 29 69 21
        E 153 b9 04 00
        E 47 89 29 40 21
        E 2 89 26 40 -32
        E 278 99 29 69 -28
        E 98 b9 04 12
        E 104 89 29 40 -28
        E 38 99 26 59 -54
        E 46 b9 04 1d
        E 154 89 26 40 -54
        E 40 99 24 7f -4
        E 0 99 31 7f -2
        E 50 b9 04 25
        E 134 b9 04 36
        E 18 89 24 40 -4
        E 0 89 31 40 -2
        E 278 99 24 4b -51
        E 0 99 29 69
        E 4 b9 04 27
        E 114 b9 04 1a
        E 82 89 29 40
        E 3 89 24 40 -51
        E 72 b9 04 12
        E 169 b9 04 09
        E 36 99 26 7f -14
        E 0 99 29 69 16
        E 199 89 26 40 -14
        E 1 89 29 40 16
        E 280 99 29 69 -21
        E 201 89 29 40 -21
        E 254 b9 04 00
        E 25 99 29 69 -12
        E 0 99 24 6e 32
        E 202 89 29 40 -12
        E 0 89 24 40 32
        E 20 b9 04 09
        E 258 99 24 43 -12
        E 0 99 29 69 -4
        E 0 99 24 1f 79
        E 89 89 24 40 -12
        E 111 89 29 40 -4
        E 1 89 24 40 79
        E 279 99 26 7f -2
        E 0 99 29 69 24
        E 150 b9 04 00
        E 50 89 26 40 -2
        E 2 89 29 40 24
        E 278 99 29 69 -31
        E 16 b9 04 0f
        E 166 b9 04 15
        E 21 89 29 40 -31
        E 37 99 30 77 -70
        E 159 b9 04 0f
        E 42 89 30 40 -70
        E 39 99 24 7f -104
        E 0 99 2d 6d -15
        E 44 b9 04 20
        E 149 b9 04 29
        E 7 89 2d 40 -15
        E 2 89 24 40 -104
        E 38 99 30 61 -86
        E 0 99 30 1e 9
        E 91 89 30 40 -86
        E 92 b9 04 18
        E 17 89 30 40 9
        E 40 99 24 60 -114
        E 0 99 2d 6d -50
        E 178 b9 04 0f
        E 22 89 24 40 -114
        E 0 89 2d 40 -50
        E 198 b9 04 09
        E 82 90 38 7f
        E 0 99 26 7f -70
        E 0 99 29 69 -27
        E 157 b9 04 03
        E 45 89 26 40 -70
        E 0 89 29 40 -27
        E 30 b9 04 00
        E 8 80 38 00
        E 240 99 29 5b -26
        E 124 b9 04 09
        E 76 89 29 40 -26
        E 280 99 29 69 -18
        E 0 99 24 7f -15
        E 200 89 29 40 -18
        E 1 89 24 40 -15
        E 48 b9 04 0f
        E 231 99 24 4c -25
        E 0 99 29 69 -8
        E 0 99 24 1e 81
        E 104 89 24 40 -25
        E 96 89 29 40 -8
        E 0 89 24 40 81
        E 80 b9 04 09
        E 200 99 26 7f -64
        E 0 99 29 69 -4
        E 106 b9 04 03
        E 94 89 26 40 -64
        E 2 89 29 40 -4
        E 10 b9 04 00
        E 268 99 29 69 -28
        E 97 b9 04 0f
        E 103 89 29 40 -28
        E 40 99 30 60 -64
        E 200 89 30 40 -64
        E 40 99 24 7f -36
        E 0 99 2d 6d -12
        E 115 b9 04 1d
        E 85 89 2d 40 -12
        E 2 89 24 40 -36
        E 38 99 30 42 -86
        E 201 89 30 40 -86
        E 39 99 24 69 -60
        E 0 99 2d 6d -58
        E 101 b9 04 12
        E 101 89 24 40 -60
        E 0 89 2d 40 -58
        E 230 b9 04 0c
        E 48 90 37 7f
        E 0 99 26 7f -92
        E 0 99 29 69 -24
        E 116 b9 04 03
        E 9 b9 04 00
        E 75 89 26 40 -92
        E 2 89 29 40 -24
        E 38 80 37 00
        E 240 99 29 69 -44
        E 120 b9 04 09
        E 80 89 29 40 -44
        E 280 99 29 69 -41
        E 0 99 24 7c -4
        E 200 89 29 40 -41
        E 2 89 24 40 -4
        E 278 99 29 69 -46
        E 0 99 24 47 -34
        E 0 99 24 1d 56
        E 88 89 24 40 -34
        E 112 89 29 40 -46
        E 0 89 24 40 56
        E 280 99 26 7f -21
        E 0 99 29 69 3
        E 36 b9 04 00
        E 165 89 26 40 -21
        E 0 89 29 40 3
        E 279 99 29 69 -36
        E 0 99 29 18 59
        E 63 b9 04 0f
        E 31 89 29 40 -36
        E 105 89 29 40 59
        E 41 99 30 6f -55
        E 201 89 30 40 -55
        E 39 99 24 7f -66
        E 0 99 2d 6d -7
        E 191 b9 04 1d
        E 11 89 24 40 -66
        E 1 89 2d 40 -7
        E 37 99 30 66 -35
        E 0 99 30 29 44
        E 76 89 30 40 -35
        E 35 b9 04 22
        E 91 89 30 40 44
        E 38 99 24 66 -56
        E 0 99 2d 6d -50
        E 56 b9 04 18
        E 142 b9 04 0f
        E 1 89 2d 40 -50
        E 2 89 24 40 -56
        E 160 b9 04 09
        E 119 99 26 7f -56
        E 0 99 29 69 -2
        E 200 89 29 40 -2
        E 1 89 26 40 -56
        E 89 b9 04 00
        E 190 99 29 65 -29
        E 177 b9 04 06
        E 25 89 29 40 -29
        E 278 99 29 69 -13
        E 0 99 24 7f 29
        E 201 89 29 40 -13
        E 0 89 24 40 29
        E 279 99 29 69 -14
        E 0 99 24 4d 6
        E 0 99 24 1e 94
        E 86 89 24 40 6
        E 113 89 24 40 94
        E 3 89 29 40 -14
        E 278 99 26 7f -4
        E 0 99 29 69 17
        E 133 b9 04 00
        E 70 89 29 40 17
        E 1 89 26 40 -4
        E 276 99 29 69 -6
        E 96 b9 04 0c
        E 104 89 29 40 -6
        E 40 99 30 77 -45
        E 28 b9 04 12
        E 175 89 30 40 -45
        E 13 b9 04 09
        E 24 99 24 7f -50
        E 0 99 2d 6d 34
        E 178 b9 04 12
        E 22 89 2d 40 34
        E 2 89 24 40 -50
        E 38 99 30 5a
        E 104 b9 04 18
        E 98 89 30 40
        E 38 99 24 6a -47
        E 0 99 2d 6d -24
        E 158 b9 04 0f
        E 42 89 2d 40 -24
        E 3 89 24 40 -47
        E 219 b9 04 06
        E 58 99 26 78 -29
        E 0 99 29 69 8
        E 0 99 2e 7f
        E 81 b9 04 00
        E 35 b9 04 12
        E 8 b9 04 25
        E 6 b9 04 36
        E 44 b9 04 46
        E 20 b9 04 4c
        E 6 89 2e 40
        E 2 89 29 40 8
        E 1 89 26 40 -29
        E 277 99 2c 0c
        E 0 99 29 69 -2
        E 44 b9 04 4d
        E 42 b9 04 3c
        E 38 b9 04 2c
        E 18 b9 04 0c
        E 59 89 2c 40
        E 0 89 29 40 -2
        E 279 99 29 69 9
        E 0 99 24 7f 38
        E 44 b9 04 06
        E 157 89 29 40 9
        E 0 89 24 40 38
        E 279 99 24 47 -14
        E 0 99 29 69 18
        E 199 89 24 40 -14
        E 1 89 29 40 18
        E 280 99 26 7f -6
        E 0 99 29 69 35
        E 126 b9 04 00
        E 73 89 26 40 -6
        E 2 89 29 40 35
        E 279 99 29 69 -24
        E 94 b9 04 09
        E 105 89 29 40 -24
        E 41 99 30 6b -35
        E 203 89 30 40 -35
        E 37 99 24 7f -90
        E 0 99 2d 6d 6
        E 147 b9 04 15
        E 52 89 2d 40 6
        E 5 89 24 40 -90
        E 36 99 30 61 -12
        E 66 b9 04 1a
        E 136 89 30 40 -12
        E 38 99 24 66 -85
        E 0 99 2d 6d -31
        E 110 b9 04 12
        E 91 89 2d 40 -31
        E 1 89 24 40 -85
        E 177 b9 04 0c
        E 101 90 3a 7f
        E 0 99 26 7f -24
        E 0 99 29 69 3
        E 156 b9 04 03
        E 45 89 26 40 -24
        E 0 89 29 40 3
        E 39 80 3a 00
        E 8 b9 04 00
        E 232 99 29 69 -1
        E 176 b9 04 09
        E 26 89 29 40 -1
        E 278 99 29 69 -1
        E 0 99 24 7f 29
        E 202 89 29 40 -1
        E 1 89 24 40 29
        E 277 99 24 49 -16
        E 0 99 29 69 -4
        E 199 89 24 40 -16
        E 2 89 29 40 -4
        E 279 99 26 7f -24
        E 0 99 29 69 10
        E 199 89 29 40 10
        E 3 89 26 40 -24
        E 18 b9 04 00
        E 260 99 29 69 -18
        E 48 b9 04 0c
        E 151 89 29 40 -18
        E 13 b9 04 12
        E 28 99 30 77 -53
        E 197 b9 04 09
        E 3 89 30 40 -53
        E 40 99 24 7f -51
        E 0 99 2d 7f
        E 146 b9 04 15
        E 54 89 2d 40
        E 3 89 24 40 -51
        E 37 99 30 6c -11
        E 0 99 30 3b 46
        E 53 89 30 40 -11
        E 11 b9 04 1d
        E 133 89 30 40 46
        E 43 99 24 5e -56
        E 0 99 2d 7f -38
        E 143 b9 04 15
        E 56 89 2d 40 -38
        E 3 89 24 40 -56
        E 175 b9 04 09
        E 103 99 26 78 -64
        E 0 99 29 7f -16
        E 200 89 26 40 -64
        E 0 89 29 40 -16
        E 4 b9 04 00
        E 276 99 29 7f -19
        E 196 b9 04 06
        E 7 89 29 40 -19
        E 277 99 29 7f -4
        E 0 99 24 7f 41
        E 199 89 29 40 -4
        E 1 89 24 40 41
        E 280 99 24 43 -32
        E 0 99 29 7f -5
        E 200 89 24 40 -32
        E 0 89 29 40 -5
        E 280 99 26 7f -49
        E 0 99 29 7f
        E 112 b9 04 00
        E 88 89 29 40
        E 2 89 26 40 -49
        E 278 99 29 7f
        E 109 b9 04 0c
        E 91 89 29 40
        E 40 99 30 71 -81
        E 0 99 30 21 41
        E 121 89 30 40 -81
        E 79 89 30 40 41
        E 35 b9 04 03
        E 5 99 24 7f -42
        E 0 99 2d 7f 12
        E 171 b9 04 0f
        E 28 89 24 40 -42
        E 0 89 2d 40 12
        E 41 99 30 4f -47
        E 0 99 30 30 29
        E 72 89 30 40 -47
        E 127 89 30 40 29
        E 41 99 24 4e -76
        E 0 99 2d 7f -24
        E 202 89 2d 40 -24
        E 1 89 24 40 -76
        E 37 99 30 5c -16
        E 202 89 30 40 -16
        E 38 99 29 2f -39
        E 0 99 2d 7f -31
        E 200 89 2d 40 -31
        E 2 89 29 40 -39
        E 28 b9 04 03
        E 31 b9 04 00
        E 219 99 29 7f -23
        E 154 b9 04 06
        E 47 89 29 40 -23
        E 39 99 26 6b -34
        E 80 b9 04 00
        E 119 89 26 40 -34
        E 41 99 29 7f 11
        E 0 99 24 5a 43
        E 0 99 29 4e 86
        E 71 89 29 40 11
        E 126 89 29 40 86
        E 3 89 24 40 43
        E 40 99 26 5f -18
        E 0 99 26 25 74
        E 41 b9 04 0c
        E 49 89 26 40 -18
        E 112 89 26 40 74
        E 38 99 24 4b -24
        E 0 99 29 1d 13
        E 0 99 2d 7f 19
        E 197 b9 04 18
        E 2 89 24 40 -24
        E 4 89 29 40 13
        E 2 89 2d 40 19
        E 35 99 30 59 -18
        E 0 99 30 37 47
        E 63 89 30 40 -18
        E 137 89 30 40 47
        E 40 99 33 77 -53
        E 0 99 33 2b 104
        E 155 89 33 40 -53
        E 44 89 33 40 104
        E 41 99 26 53 -81
        E 128 b9 04 0f
        E 74 89 26 40 -81
        E 38 99 26 7f -40
        E 200 89 26 40 -40
        E 40 99 26 4f -69
        E 200 89 26 40 -69
        E 40 99 26 7f -37
        E 205 89 26 40 -37
        E 35 99 26 44 -29
        E 202 89 26 40 -29
        E 38 99 26 7f -36
        E 204 89 26 40 -36
        E 36 99 26 53 -21
        E 201 89 26 40 -21
        E 39 99 26 7f -15
        E 201 89 26 40 -15
        E 39 99 26 48 -40
        E 199 89 26 40 -40
        E 41 99 26 76 -19
        E 190 89 26 40 -19
        E 50 99 26 4a -67
        E 200 89 26 40 -67
        E 40 99 26 7f -17
        E 169 b9 04 15
        E 32 89 26 40 -17
        E 39 99 26 72 -35
        E 203 89 26 40 -35
        E 37 99 26 65 41
        E 203 89 26 40 41
        E 37 99 24 41 -120
        E 0 99 24 22 -27
        E 0 99 26 3f 88
        E 91 89 24 40 -120
        E 24 b9 04 1d
        E 37 89 26 40 88
        E 49 89 24 40 -27
        E 39 99 26 5d 1
        E 201 89 26 40 1
        E 39 99 26 47 -31
        E 8 b9 04 27
        E 195 89 26 40 -31
        E 37 99 26 7f 27
        E 151 b9 04 1a
        E 50 89 26 40 27
        E 39 99 24 67 -62
        E 0 99 26 46 24
        E 0 99 24 28 37
        E 97 89 24 40 -62
        E 103 89 26 40 24
        E 0 89 24 40 37
        E 40 99 26 7f 47
        E 110 89 26 40 47
        E 130 99 26 2a -81
        E 0 99 26 54 65
        E 144 89 26 40 -81
        E 56 89 26 40 65
        E 6 b9 04 20
        E 34 99 26 7a 79
        E 0 99 24 4f 97
        E 146 89 24 40 97
        E 46 89 26 40 79
        E 27 b9 04 1a
        E 21 99 24 20 5
        E 0 99 26 56 33
        E 201 89 24 40 5
        E 0 89 26 40 33
        E 39 99 26 6d 80
        E 179 89 26 40 80
        E 61 99 26 39 21
        E 0 99 26 21 91
        E 68 89 26 40 21
        E 132 89 26 40 91
        E 40 99 26 72 55
        E 0 99 24 3f 109
        E 174 89 26 40 55
        E 27 89 24 40 109
        E 39 99 26 3a -9
        E 0 99 26 20 72
        E 0 99 24 14 111
        E 81 89 26 40 -9
        E 118 89 26 40 72
        E 3 89 24 40 111
        E 35 b9 04 25
        E 3 99 26 6c 40
        E 159 b9 04 30
        E 18 89 26 40 40
        E 63 99 26 3e -21
        E 0 99 26 26 47
        E 0 99 2c 04 117
        E 44 b9 04 41
        E 22 89 26 40 -21
        E 49 b9 04 4c
        E 32 b9 04 51
        E 53 89 26 40 47
        E 0 89 2c 40 117
        E 40 99 24 7f 9
        E 0 99 31 7f 81
        E 27 b9 04 5d
        E 175 89 31 40 81
        E 1 89 24 40 9
        E 166 b9 04 64
        E 122 b9 04 54
        E 24 b9 04 44
        E 22 b9 04 34
        E 18 b9 04 22
        E 24 b9 04 12
        E 28 b9 04 00
        E 8428 b0 7b 00
        GUID {B47AA600-2DBD-4449-89A2-01832EFAA2CC}
        IGNTEMPO 0 120 4 4
        SRCCOLOR 151
        VELLANE -1 100 0
        CFGEDITVIEW 329854.512472 0.074447 59 12 0 -1 0 0 0 0.5
        KEYSNAP 0
        TRACKSEL -252
        EVTFILTER 0 -1 -1 -1 -1 0 0 0 0 -1 -1 -1 -1 0 -1 0 -1 -1
        CFGEDIT 1 1 0 1 0 0 1 1 1 1 1 0.25 320 95 2496 860 0 0 0 0 0 0 0 0 0 0.5 0 0 1 64
      >
    >
    <ITEM
      POSITION 284.16000000005101
      SNAPOFFS 0
      LENGTH 30.72
      LOOP 1
      ALLTAKES 0
      FADEIN 1 0 0 1 0 0
      FADEOUT 1 0 0 1 0 0
      MUTE 0
      SEL 0
      IGUID {1A228F74-B02E-490E-98D3-A8379935105E}
      IID 5
      NAME "02-EZdrummer-Recorded MIDI"
      VOLPAN 1 0 1 -1
      SOFFS 133.92 279
      PLAYRATE 1 1 0 -1 0 0.0025
      CHANMODE 0
      GUID {D238F3E1-8B72-4923-AAA8-B1DCEF992352}
      RECPASS 2
      <SOURCE MIDI
        HASDATA 1 960 QN
        POOLEDEVTS {06DBF339-4B76-4D2C-8210-982860F0AD3E}
        E 15360 99 24 4a 32
        E 0 99 29 5a 50
        E 90 89 24 40 32
        E 112 89 29 40 50
        E 38 99 24 21 -116
        E 200 89 24 40 -116
        E 40 99 29 51 16
        E 200 89 29 40 16
        E 280 99 26 7f 24
        E 0 99 29 7f 46
        E 200 89 26 40 24
        E 0 89 29 40 46
        E 280 99 29 57 -4
        E 200 89 29 40 -4
        E 280 99 29 66 19
        E 0 99 24 51 38
        E 200 89 24 40 38
        E 1 89 29 40 19
        E 279 99 29 5a 2
        E 0 99 24 3b 34
        E 198 89 24 40 34
        E 4 89 29 40 2
        E 38 99 24 1a -6
        E 198 89 24 40 -6
        E 42 99 29 6b 59
        E 0 99 26 6c 60
        E 199 89 29 40 59
        E 1 89 26 40 60
        E 280 99 29 6a 36
        E 200 89 29 40 36
        E 280 99 29 78 74
        E 0 99 24 49 88
        E 146 89 24 40 88
        E 54 89 29 40 74
        E 40 99 24 20 -5
        E 201 89 24 40 -5
        E 39 99 29 4f 40
        E 202 89 29 40 40
        E 278 99 26 7e 32
        E 0 99 29 7e 50
        E 199 89 26 40 32
        E 1 89 29 40 50
        E 280 99 29 4d 20
        E 200 89 29 40 20
        E 280 99 29 7b 14
        E 0 99 24 53 18
        E 200 89 29 40 14
        E 2 89 24 40 18
        E 278 99 24 40 -10
        E 0 99 29 72 8
        E 182 89 24 40 -10
        E 18 89 29 40 8
        E 40 99 24 20 -66
        E 200 89 24 40 -66
        E 40 99 26 7d 26
        E 0 99 29 7b 38
        E 200 89 26 40 26
        E 0 89 29 40 38
        E 280 99 29 69 11
        E 201 89 29 40 11
        E 279 99 24 51 36
        E 0 99 29 77 44
        E 200 89 24 40 36
        E 0 89 29 40 44
        E 280 99 24 35 -116
        E 0 99 24 14 8
        E 0 99 29 68 14
        E 122 89 24 40 -116
        E 76 89 24 40 8
        E 2 89 29 40 14
        E 280 99 26 78 20
        E 0 99 29 7c 38
        E 202 89 26 40 20
        E 2 89 29 40 38
        E 276 99 29 5d 49
        E 203 89 29 40 49
        E 277 99 24 4a 60
        E 0 99 29 7f 76
        E 168 89 24 40 60
        E 32 89 29 40 76
        E 40 99 24 21 -10
        E 198 89 24 40 -10
        E 42 99 29 63 26
        E 202 89 29 40 26
        E 278 99 26 7f 68
        E 0 99 29 7f 76
        E 200 89 26 40 68
        E 0 89 29 40 76
        E 280 99 29 5b 56
        E 198 89 29 40 56
        E 282 99 29 67 56
        E 0 99 24 4f 58
        E 200 89 29 40 56
        E 0 89 24 40 58
        E 280 99 24 3b -44
        E 0 99 29 62 28
        E 0 99 24 1a 75
        E 118 89 24 40 -44
        E 82 89 29 40 28
        E 3 89 24 40 75
        E 277 99 26 7f 40
        E 0 99 29 7f 58
        E 202 89 26 40 40
        E 2 89 29 40 58
        E 276 99 29 5c 50
        E 200 89 29 40 50
        E 280 99 24 4b 54
        E 0 99 29 73 60
        E 156 89 24 40 54
        E 44 89 29 40 60
        E 40 99 24 1b -30
        E 200 89 24 40 -30
        E 40 99 29 66 28
        E 202 89 29 40 28
        E 278 99 26 76 30
        E 0 99 29 7f 68
        E 200 89 26 40 30
        E 2 89 29 40 68
        E 278 99 29 75 43
        E 201 89 29 40 43
        E 279 99 24 51 70
        E 0 99 29 7f 74
        E 200 89 24 40 70
        E 0 89 29 40 74
        E 280 99 24 44 40
        E 0 99 29 6e 50
        E 184 89 24 40 40
        E 16 89 29 40 50
        E 40 99 24 1d -14
        E 200 89 24 40 -14
        E 40 99 26 76 62
        E 0 99 29 7f 84
        E 200 89 26 40 62
        E 2 89 29 40 84
        E 278 99 29 7f 74
        E 200 89 29 40 74
        E 280 99 24 4b 98
        E 0 99 29 7f 104
        E 200 89 24 40 98
        E 0 89 29 40 104
        E 280 99 24 3d 62
        E 0 99 29 6e 100
        E 184 89 24 40 62
        E 16 89 29 40 100
        E 40 99 24 24 8
        E 200 89 24 40 8
        E 40 99 29 7c 108
        E 0 99 26 5f 116
        E 200 89 29 40 108
        E 0 89 26 40 116
        E 280 99 29 74 118
        E 200 89 29 40 118
        E 520 99 29 7f -106
        E 0 99 24 4c -86
        E 0 99 24 1c 66
        E 150 89 24 40 -86
        E 47 89 24 40 66
        E 5 89 29 40 -106
        E 38 99 29 66 80
        E 200 89 29 40 80
        E 280 99 29 7f 94
        E 0 99 26 7c 99
        E 200 89 29 40 94
        E 1 89 26 40 99
        E 279 99 29 67 62
        E 200 89 29 40 62
        E 280 99 29 7f 36
        E 0 99 24 4c 86
        E 200 89 29 40 36
        E 0 89 24 40 86
        E 280 99 29 7a 56
        E 0 99 24 3d 60
        E 176 89 24 40 60
        E 26 89 29 40 56
        E 38 99 24 1e -2
        E 200 89 24 40 -2
        E 40 99 26 7b 92
        E 0 99 29 7f 96
        E 200 89 29 40 96
        E 2 89 26 40 92
        E 278 99 29 65 102
        E 198 89 29 40 102
        E 282 99 24 49 94
        E 0 99 29 77 104
        E 200 89 24 40 94
        E 0 89 29 40 104
        E 280 99 24 3b 62
        E 0 99 29 6d 110
        E 200 89 24 40 62
        E 2 89 29 40 110
        E 278 99 24 0d -80
        E 0 99 26 69 106
        E 200 89 24 40 -80
        E 0 89 26 40 106
        E 40 99 29 7f -112
        E 200 89 29 40 -112
        E 40 99 29 7f 98
        E 200 89 29 40 98
        E 280 99 24 48 102
        E 0 99 29 7b 108
        E 200 89 24 40 102
        E 0 89 29 40 108
        E 280 99 24 39 36
        E 0 99 29 74 102
        E 156 89 24 40 36
        E 44 89 29 40 102
        E 40 99 24 18 -48
        E 202 89 24 40 -48
        E 38 99 26 7d 100
        E 200 89 26 40 100
        E 40 99 29 7f -114
        E 201 89 29 40 -114
        E 39 99 29 70 88
        E 200 89 29 40 88
        E 40 99 26 36 -46
        E 200 89 26 40 -46
        E 40 99 24 51 20
        E 0 99 29 71 44
        E 141 89 24 40 20
        E 59 89 29 40 44
        E 40 99 24 1d -76
        E 198 89 24 40 -76
        E 42 99 29 78 60
        E 200 89 29 40 60
        E 280 99 26 7f 79
        E 0 99 29 7f 102
        E 201 89 26 40 79
        E 0 89 29 40 102
        E 279 99 29 53 84
        E 200 89 29 40 84
        E 280 99 24 4d 52
        E 0 99 29 7f 60
        E 166 89 24 40 52
        E 38 89 29 40 60
        E 36 99 24 18 -20
        E 200 89 24 40 -20
        E 40 99 24 1c -8
        E 0 99 29 71 66
        E 199 89 24 40 -8
        E 1 89 29 40 66
        E 280 99 26 7f 38
        E 0 99 29 7f 74
        E 200 89 26 40 38
        E 0 89 29 40 74
        E 280 99 29 7f 58
        E 202 89 29 40 58
        E 38 99 30 7f 18
        E 112 89 30 40 18
        E 128 99 30 1f -108
        E 0 99 2d 7f 20
        E 0 99 24 53 22
        E 200 89 2d 40 20
        E 2 89 30 40 -108
        E 0 89 24 40 22
        E 278 99 29 7f 14
        E 200 89 29 40 14
        E 280 99 26 7f -29
        E 0 99 29 7f 12
        E 201 89 26 40 -29
        E 0 89 29 40 12
        E 279 99 29 59 22
        E 202 89 29 40 22
        E 278 99 24 4d
        E 0 99 29 7f 6
        E 200 89 24 40
        E 0 89 29 40 6
        E 280 99 24 3a
        E 0 99 29 7f 12
        E 154 89 24 40
        E 46 89 29 40 12
        E 40 99 24 13 -84
        E 200 89 24 40 -84
        E 40 99 26 7f 21
        E 0 99 29 7f 29
        E 201 89 26 40 21
        E 0 89 29 40 29
        E 279 99 29 78 24
        E 202 89 29 40 24
        E 278 99 24 4d 28
        E 0 99 29 7f 36
        E 199 89 29 40 36
        E 1 89 24 40 28
        E 280 99 24 3b -4
        E 0 99 29 7f 40
        E 199 89 29 40 40
        E 3 89 24 40 -4
        E 38 99 24 1e -26
        E 200 89 24 40 -26
        E 40 99 26 7f 49
        E 0 99 29 7f 66
        E 201 89 26 40 49
        E 1 89 29 40 66
        E 278 99 29 70 64
        E 200 89 29 40 64
        E 280 99 24 47 32
        E 0 99 29 7f 35
        E 199 89 24 40 32
        E 6 89 29 40 35
        E 275 99 24 3b -32
        E 0 99 29 6a 68
        E 199 89 24 40 -32
        E 1 89 29 40 68
        E 40 99 24 17 -59
        E 201 89 24 40 -59
        E 39 99 26 7f 60
        E 0 99 29 7f 68
        E 200 89 26 40 60
        E 0 89 29 40 68
        E 280 99 29 7f 19
        E 201 89 29 40 19
        E 39 99 30 7f 16
        E 0 99 24 4e 108
        E 90 89 24 40 108
        E 110 89 30 40 16
        E 40 99 24 27 -40
        E 0 99 2d 7f
        E 198 89 24 40 -40
        E 2 89 2d 40
        E 280 99 29 7f 5
        E 201 89 29 40 5
        E 279 99 26 7f 10
        E 0 99 29 7f 32
        E 199 89 26 40 10
        E 0 89 29 40 32
        E 281 99 29 7f 16
        E 200 89 29 40 16
        E 280 99 29 7f 41
        E 0 99 24 4e 52
        E 201 89 29 40 41
        E 1 89 24 40 52
        E 278 99 24 3d 14
        E 0 99 29 7f 30
        E 180 89 24 40 14
        E 20 89 29 40 30
        E 40 99 24 19 -45
        E 203 89 24 40 -45
        E 37 99 26 7f 4
        E 0 99 29 7f 22
        E 202 89 26 40 4
        E 0 89 29 40 22
        E 278 99 29 7f 26
        E 202 89 29 40 26
        E 278 99 29 7f 45
        E 0 99 24 50 53
        E 200 89 24 40 53
        E 1 89 29 40 45
        E 279 99 24 33 -29
        E 0 99 29 7f 49
        E 201 89 24 40 -29
        E 0 89 29 40 49
        E 279 99 29 7f 69
        E 0 99 26 7f 73
        E 201 89 26 40 73
        E 1 89 29 40 69
        E 278 99 29 78 68
        E 202 89 29 40 68
        E 278 99 29 7f 68
        E 0 99 24 50 72
        E 200 89 29 40 68
        E 0 89 24 40 72
        E 280 99 24 3d 58
        E 0 99 29 7f 63
        E 144 89 24 40 58
        E 57 89 29 40 63
        E 39 99 24 1a -36
        E 200 89 24 40 -36
        E 40 99 26 7f 74
        E 0 99 29 7f 82
        E 199 89 26 40 74
        E 3 89 29 40 82
        E 278 99 29 7f 39
        E 201 89 29 40 39
        E 39 99 30 7f 16
        E 200 89 30 40 16
        E 40 99 24 53 -66
        E 0 99 24 26 13
        E 0 99 2d 7f 25
        E 77 89 24 40 -66
        E 121 89 24 40 13
        E 3 89 2d 40 25
        E 279 99 2d 5a -86
        E 199 89 2d 40 -86
        E 281 99 29 7f -6
        E 0 99 26 7f -4
        E 200 89 29 40 -6
        E 0 89 26 40 -4
        E 280 99 29 7d -8
        E 199 89 29 40 -8
        E 281 99 24 53 11
        E 0 99 29 7f 28
        E 0 99 24 24 112
        E 99 89 24 40 11
        E 100 89 24 40 112
        E 1 89 29 40 28
        E 280 99 29 7f 23
        E 0 99 24 47 54
        E 134 89 24 40 54
        E 66 89 29 40 23
        E 40 99 24 1e -50
        E 200 89 24 40 -50
        E 40 99 26 7f 38
        E 0 99 29 7f 62
        E 200 89 29 40 62
        E 1 89 26 40 38
        E 279 99 29 7f 47
        E 201 89 29 40 47
        E 279 99 29 7f 66
        E 0 99 24 4b 76
        E 199 89 24 40 76
        E 1 89 29 40 66
        E 280 99 29 7f 52
        E 0 99 24 3a 70
        E 139 89 24 40 70
        E 61 89 29 40 52
        E 40 99 24 1b -28
        E 198 89 24 40 -28
        E 42 99 26 7b 68
        E 0 99 29 7f 84
        E 199 89 26 40 68
        E 1 89 29 40 84
        E 280 99 29 7f 90
        E 202 89 29 40 90
        E 278 99 24 50 42
        E 0 99 29 7f 62
        E 199 89 29 40 62
        E 1 89 24 40 42
        E 280 99 24 39 19
        E 0 99 29 7f 58
        E 171 89 24 40 19
        E 28 89 29 40 58
        E 41 99 24 1a -48
        E 200 89 24 40 -48
        E 40 99 26 7f 87
        E 0 99 29 7f 91
        E 201 89 26 40 87
        E 0 89 29 40 91
        E 279 99 29 7f 42
        E 200 89 29 40 42
        E 40 99 30 7f 9
        E 201 89 30 40 9
        E 39 99 24 52 -86
        E 0 99 24 24 -2
        E 0 99 2d 7f 14
        E 82 89 24 40 -86
        E 118 89 24 40 -2
        E 2 89 2d 40 14
        E 38 99 24 43 59
        E 201 89 24 40 59
        E 39 99 2d 7f -24
        E 200 89 2d 40 -24
        E 280 99 29 7f 3
        E 0 99 26 7b 7
        E 200 89 29 40 3
        E 1 89 26 40 7
        E 279 99 29 7c -10
        E 200 89 29 40 -10
        E 280 99 24 4c 20
        E 0 99 29 7f 30
        E 199 89 29 40 30
        E 1 89 24 40 20
        E 280 99 24 3e 22
        E 0 99 29 7f 46
        E 130 89 24 40 22
        E 70 89 29 40 46
        E 40 99 24 1c -86
        E 200 89 24 40 -86
        E 40 99 26 7f 21
        E 0 99 29 7f 52
        E 201 89 26 40 21
        E 1 89 29 40 52
        E 278 99 29 7f 28
        E 202 89 29 40 28
        E 278 99 29 7f 68
        E 0 99 24 4d 70
        E 116 89 24 40 70
        E 84 89 29 40 68
        E 40 99 24 1f -52
        E 199 89 24 40 -52
        E 41 99 29 72 56
        E 201 89 29 40 56
        E 225 b9 04 12
        E 54 99 26 64 58
        E 0 99 29 7f 78
        E 12 b9 04 22
        E 60 b9 04 32
        E 128 89 29 40 78
        E 2 89 26 40 58
        E 87 b9 04 22
        E 84 b9 04 12
        E 107 99 29 7f 48
        E 38 b9 04 09
        E 162 89 29 40 48
        E 23 b9 04 0f
        E 257 99 24 50 -25
        E 0 99 29 7f 46
        E 39 b9 04 03
        E 32 b9 04 00
        E 129 89 24 40 -25
        E 0 89 29 40 46
        E 280 99 29 68 59
        E 201 89 29 40 59
        E 279 99 26 7f 63
        E 0 99 29 7f 86
        E 200 89 29 40 86
        E 3 89 26 40 63
        E 277 99 29 7f 42
        E 201 89 29 40 42
        E 39 99 30 7f -11
        E 0 99 24 52 92
        E 79 89 24 40 92
        E 124 89 30 40 -11
        E 37 99 24 27 -67
        E 0 99 2d 7f
        E 192 b9 04 0f
        E 6 89 24 40 -67
        E 2 89 2d 40
        E 40 99 30 72 -34
        E 0 99 30 35 32
        E 62 89 30 40 -34
        E 137 89 30 40 32
        E 9 b9 04 00
        E 32 99 2d 7f -77
        E 0 99 24 54 111
        E 109 89 24 40 111
        E 91 89 2d 40 -77
        E 40 99 24 20 -18
        E 197 89 24 40 -18
        E 43 99 26 7f 6
        E 0 99 29 7f 14
        E 199 89 26 40 6
        E 0 89 29 40 14
        E 281 99 29 7d -9
        E 203 89 29 40 -9
        E 277 99 24 5c -21
        E 0 99 29 7f 3
        E 200 89 24 40 -21
        E 1 89 29 40 3
        E 279 99 24 43 10
        E 0 99 29 7f 12
        E 171 89 24 40 10
        E 26 89 29 40 12
        E 43 99 24 1d -54
        E 198 89 24 40 -54
        E 42 99 26 7f 3
        E 0 99 29 7f 26
        E 200 89 29 40 26
        E 1 89 26 40 3
        E 279 99 29 6e 27
        E 200 89 29 40 27
        E 280 99 24 4d 43
        E 0 99 29 7f 56
        E 201 89 24 40 43
        E 1 89 29 40 56
        E 278 99 24 40 -50
        E 0 99 29 7f 22
        E 0 99 24 1e 71
        E 119 89 24 40 -50
        E 80 89 29 40 22
        E 1 89 24 40 71
        E 280 99 26 6c 56
        E 0 99 29 7f 67
        E 199 89 26 40 56
        E 3 89 29 40 67
        E 278 99 29 7f 61
        E 201 89 29 40 61
        E 279 99 24 52 26
        E 0 99 29 7f 48
        E 199 89 29 40 48
        E 1 89 24 40 26
        E 280 99 24 43 -11
        E 0 99 29 7f 24
        E 170 89 24 40 -11
        E 31 89 29 40 24
        E 39 99 24 17 -79
        E 201 89 24 40 -79
        E 39 99 26 7f 10
        E 0 99 29 7f 38
        E 201 89 26 40 10
        E 0 89 29 40 38
        E 279 99 29 7f 35
        E 203 89 29 40 35
        E 37 99 30 7b -15
        E 0 99 24 53 91
        E 0 99 30 1f 99
        E 76 89 24 40 91
        E 36 89 30 40 -15
        E 87 89 30 40 99
        E 41 99 24 25 -70
        E 0 99 2d 7f 7
        E 199 89 24 40 -70
        E 1 89 2d 40 7
        E 280 99 29 7f 26
        E 0 99 24 4a 90
        E 93 89 24 40 90
        E 108 89 29 40 26
        E 39 99 24 1d -54
        E 197 89 24 40 -54
        E 43 99 24 30 -6
        E 0 99 29 7f 37
        E 0 99 26 7f 50
        E 199 89 26 40 50
        E 2 89 24 40 -6
        E 0 89 29 40 37
        E 279 99 29 7f 17
        E 200 89 29 40 17
        E 280 99 24 51 -31
        E 0 99 29 7f 17
        E 200 89 29 40 17
        E 1 89 24 40 -31
        E 279 99 24 3d 16
        E 0 99 29 7f 33
        E 145 89 24 40 16
        E 56 89 29 40 33
        E 39 99 24 1b -78
        E 200 89 24 40 -78
        E 40 99 26 7f 8
        E 0 99 29 7f 31
        E 199 89 26 40 8
        E 1 89 29 40 31
        E 280 99 29 7f 10
        E 200 89 29 40 10
        E 40 99 30 7f -27
        E 0 99 24 54 32
        E 87 89 24 40 32
        E 113 89 30 40 -27
        E 40 99 24 24 -118
        E 0 99 2d 7f 7
        E 197 89 24 40 -118
        E 6 89 2d 40 7
        E 37 99 24 47 -41
        E 0 99 24 1f 43
        E 83 89 24 40 -41
        E 117 89 24 40 43
        E 40 99 2d 60 -69
        E 200 89 2d 40 -69
        E 280 99 26 7f -9
        E 0 99 29 7f 26
        E 199 89 29 40 26
        E 1 89 26 40 -9
        E 280 99 29 7f 5
        E 200 89 29 40 5
        E 280 99 24 5a 8
        E 0 99 29 7f 32
        E 199 89 24 40 8
        E 0 89 29 40 32
        E 281 99 24 46 15
        E 0 99 29 7f 41
        E 148 89 24 40 15
        E 52 89 29 40 41
        E 40 99 24 1e -75
        E 198 89 24 40 -75
        E 42 99 26 7f -7
        E 0 99 29 7f 48
        E 200 89 29 40 48
        E 2 89 26 40 -7
        E 278 99 29 7f 43
        E 0 99 24 3b 101
        E 200 89 29 40 43
        E 0 89 24 40 101
        E 40 99 30 7f 87
        E 89 89 30 40 87
        E 151 99 30 2b -61
        E 0 99 24 5e 27
        E 0 99 2d 7f 79
        E 200 89 30 40 -61
        E 0 89 24 40 27
        E 0 89 2d 40 79
        E 206 b9 04 00
        E 28 b9 04 00
        E 46 99 1a 1a -73
        E 0 99 1a 42 -42
        E 0 99 30 7a -39
        E 0 99 2d 7f 21
        E 28 89 1a 40 -73
        E 169 89 1a 40 -42
        E 4 89 2d 40 21
        E 1 89 30 40 -39
        E 38 99 24 4d -107
        E 0 99 24 23 -27
        E 78 89 24 40 -107
        E 120 89 24 40 -27
        E 42 99 26 6f 42
        E 0 99 29 7f 45
        E 200 89 26 40 42
        E 2 89 29 40 45
        E 278 99 29 7f 55
        E 200 89 29 40 55
        E 280 99 29 7f 59
        E 0 99 24 56 99
        E 200 89 29 40 59
        E 0 89 24 40 99
        E 280 99 24 3a 35
        E 0 99 29 7f 46
        E 168 89 24 40 35
        E 33 89 29 40 46
        E 39 99 24 19 -37
        E 200 89 24 40 -37
        E 40 99 26 7f 15
        E 0 99 29 7f 63
        E 203 89 26 40 15
        E 0 89 29 40 63
        E 277 99 29 7f 65
        E 200 89 29 40 65
        E 40 99 26 4a -1
        E 200 89 26 40 -1
        E 40 99 24 56 -22
        E 0 99 29 7f 59
        E 199 89 24 40 -22
        E 2 89 29 40 59
        E 279 99 24 37 -69
        E 0 99 29 7f 65
        E 198 89 24 40 -69
        E 3 89 29 40 65
        E 39 99 24 16 -109
        E 201 89 24 40 -109
        E 39 99 26 7c 63
        E 0 99 29 7f 85
        E 200 89 26 40 63
        E 0 89 29 40 85
        E 280 99 29 7f 83
        E 200 89 29 40 83
        E 280 99 24 4d 91
        E 0 99 29 7f 107
        E 200 89 24 40 91
        E 0 89 29 40 107
        E 280 99 24 3c 31
        E 0 99 29 7f 105
        E 122 89 24 40 31
        E 78 89 29 40 105
        E 40 99 24 1c -87
        E 200 89 24 40 -87
        E 40 99 26 7f 107
        E 200 89 26 40 107
        E 40 99 29 7f -102
        E 199 89 29 40 -102
        E 281 99 29 7f -118
        E 0 99 30 7f 71
        E 199 89 29 40 -118
        E 3 89 30 40 71
        E 38 99 24 6c -5
        E 0 99 2d 7f 117
        E 200 89 24 40 -5
        E 0 89 2d 40 117
        E 280 99 24 43 -105
        E 0 99 2d 7f 81
        E 200 89 24 40 -105
        E 1 89 2d 40 81
        E 279 99 26 7f 54
        E 0 99 29 7f 95
        E 89 89 26 40 54
        E 114 89 29 40 95
        E 37 99 26 35 -95
        E 198 89 26 40 -95
        E 42 99 29 7f 91
        E 203 89 29 40 91
        E 277 99 29 7f 91
        E 0 99 24 4e 113
        E 200 89 29 40 91
        E 1 89 24 40 113
        E 279 99 29 7f 91
        E 0 99 24 3e 95
        E 158 89 24 40 95
        E 44 89 29 40 91
        E 38 99 24 1f 15
        E 198 89 24 40 15
        E 42 99 26 7f 67
        E 0 99 29 7f 95
        E 200 89 26 40 67
        E 1 89 29 40 95
        E 279 99 29 7f 91
        E 200 89 29 40 91
        E 280 99 24 50 71
        E 0 99 29 7f 89
        E 202 89 24 40 71
        E 0 89 29 40 89
        E 278 99 24 3e 10
        E 0 99 29 7f 101
        E 199 89 24 40 10
        E 1 89 29 40 101
        E 40 99 24 20 -6
        E 201 89 24 40 -6
        E 39 99 26 7e 110
        E 201 89 26 40 110
        E 39 99 29 7f -113
        E 200 89 29 40 -113
        E 280 99 29 7f -93
        E 200 89 29 40 -93
        E 40 99 24 4a 59
        E 0 99 29 7f 91
        E 200 89 24 40 59
        E 1 89 29 40 91
        E 39 99 24 31 113
        E 140 89 24 40 113
        E 100 99 24 0a 17
        E 0 99 29 7f 91
        E 198 89 24 40 17
        E 2 89 29 40 91
        E 280 99 26 7f 67
        E 0 99 29 7f 106
        E 199 89 29 40 106
        E 3 89 26 40 67
        E 278 99 29 7f 61
        E 200 89 29 40 61
        E 40 99 30 7f 32
        E 111 89 30 40 32
        E 129 99 30 25 -95
        E 0 99 24 58 -22
        E 0 99 2d 7f 65
        E 200 89 2d 40 65
        E 1 89 30 40 -95
        E 2 89 24 40 -22
        E 2 b9 04 03
        E 35 99 1a 27 -33
        E 0 99 30 6d 17
        E 0 99 30 28 102
        E 85 89 30 40 17
        E 48 b9 04 06
        E 66 89 30 40 102
        E 1 89 1a 40 -33
        E 40 99 2d 7f 20
        E 0 99 24 49 55
        E 17 b9 04 00
        E 71 89 24 40 55
        E 113 89 2d 40 20
        E 39 99 24 22 -97
        E 202 89 24 40 -97
        E 38 99 26 73 19
        E 0 99 29 7f 47
        E 200 89 26 40 19
        E 4 89 29 40 47
        E 276 99 29 7f 31
        E 200 89 29 40 31
        E 280 99 29 7f 31
        E 0 99 24 53 41
        E 200 89 29 40 31
        E 0 89 24 40 41
        E 280 99 24 3d 58
        E 0 99 29 7f 58
        E 149 89 24 40 58
        E 51 89 29 40 58
        E 40 99 24 1c -31
        E 200 89 24 40 -31
        E 40 99 26 78 45
        E 0 99 29 7f 63
        E 200 89 26 40 45
        E 0 89 29 40 63
        E 280 99 29 7f 47
        E 200 89 29 40 47
        E 40 99 2d 7f -23
        E 203 89 2d 40 -23
        E 37 99 24 5d 11
        E 0 99 2d 7f 15
        E 200 89 24 40 11
        E 2 89 2d 40 15
        E 278 99 2d 7f 23
        E 0 99 24 48 77
        E 184 89 24 40 77
        E 16 89 2d 40 23
        E 40 99 24 28 23
        E 200 89 24 40 23
        E 40 99 2d 7f -73
        E 0 99 26 65 103
        E 62 89 26 40 103
        E 138 89 2d 40 -73
        E 40 99 26 4b -70
        E 199 89 26 40 -70
        E 41 99 29 7f -83
        E 201 89 29 40 -83
        E 39 99 26 6e 100
        E 201 89 26 40 100
        E 39 99 29 7f 49
        E 200 89 29 40 49
        E 280 99 29 7f 99
        E 201 89 29 40 99
        E 39 99 24 37 -79
        E 203 89 24 40 -79
        E 37 99 24 47 55
        E 200 89 24 40 55
        E 40 99 26 6b -98
        E 0 99 29 7f -75
        E 199 89 26 40 -98
        E 1 89 29 40 -75
        E 280 99 29 7f -86
        E 199 89 29 40 -86
        E 281 99 24 4f -107
        E 0 99 29 7f -85
        E 200 89 24 40 -107
        E 0 89 29 40 -85
        E 40 99 24 30 91
        E 200 89 24 40 91
        E 40 99 29 75 -61
        E 200 89 29 40 -61
        E 280 99 24 3f -102
        E 0 99 29 7f -82
        E 201 89 24 40 -102
        E 0 89 29 40 -82
        E 279 99 29 4f -9
        E 200 89 29 40 -9
        E 4840 99 29 7f -6
        E 0 99 24 50 21
        E 201 89 29 40 -6
        E 1 89 24 40 21
        E 278 99 29 7f -55
        E 0 99 24 3a -47
        E 200 89 24 40 -47
        E 2 89 29 40 -55
        E 38 99 24 1e -79
        E 200 89 24 40 -79
        E 40 99 26 7f -59
        E 0 99 29 7f -21
        E 200 89 26 40 -59
        E 0 89 29 40 -21
        E 280 99 29 7f -73
        E 0 99 30 41 81
        E 200 89 29 40 -73
        E 0 89 30 40 81
        E 40 99 24 57 74
        E 199 89 24 40 74
        E 41 99 2d 7f -85
        E 202 89 2d 40 -85
        E 278 99 29 42 -119
        E 0 99 2d 18 -105
        E 200 89 29 40 -119
        E 2 89 2d 40 -105
        E 278 99 26 7f -89
        E 0 99 29 7f -69
        E 200 89 26 40 -89
        E 0 89 29 40 -69
        E 280 99 29 7f -79
        E 201 89 29 40 -79
        E 279 99 24 53 -77
        E 0 99 29 7f -49
        E 200 89 24 40 -77
        E 2 89 29 40 -49
        E 278 99 24 3b -101
        E 0 99 29 7f -55
        E 0 99 24 23 17
        E 116 89 24 40 -101
        E 84 89 29 40 -55
        E 0 89 24 40 17
        E 280 99 26 7f -69
        E 0 99 29 7f -30
        E 199 89 29 40 -30
        E 1 89 26 40 -69
        E 280 99 29 7f -37
        E 200 89 29 40 -37
        E 280 99 24 58 -83
        E 0 99 29 7f -35
        E 200 89 29 40 -35
        E 2 89 24 40 -83
        E 278 99 24 3d -103
        E 0 99 29 7f -17
        E 0 99 24 1f 15
        E 114 89 24 40 -103
        E 84 89 24 40 15
        E 2 89 29 40 -17
        E 280 99 29 7f -11
        E 200 89 29 40 -11
        E 280 99 29 7f 23
        E 200 89 29 40 23
        E 280 99 24 4c 35
        E 0 99 29 7f 69
        E 200 89 24 40 35
        E 0 89 29 40 69
        E 280 99 24 3d 17
        E 0 99 29 7f 83
        E 170 89 24 40 17
        E 32 89 29 40 83
        E 38 99 24 1d -51
        E 198 89 24 40 -51
        E 42 99 26 6c 89
        E 0 99 29 7f 105
        E 78 89 26 40 89
        E 122 89 29 40 105
        E 40 99 26 3d -73
        E 200 89 26 40 -73
        E 40 99 29 7f 47
        E 202 89 29 40 47
        E 38 99 30 7f -5
        E 200 89 30 40 -5
        E 40 99 24 5f -55
        E 0 99 2d 7f 39
        E 200 89 24 40 -55
        E 0 89 2d 40 39
        E 280 99 29 3d 1
        E 0 99 2d 1b 15
        E 202 89 29 40 1
        E 0 89 2d 40 15
        E 278 99 26 7f 29
        E 0 99 29 7f 53
        E 202 89 26 40 29
        E 0 89 29 40 53
        E 278 99 29 7f 41
        E 200 89 29 40 41
        E 280 99 24 56 39
        E 0 99 29 7f 53
        E 200 89 24 40 39
        E 0 89 29 40 53
        E 280 99 24 3d 49
        E 0 99 29 7f 93
        E 146 89 24 40 49
        E 54 89 29 40 93
        E 40 99 24 1f -43
        E 200 89 24 40 -43
        E 40 99 26 7f 39
        E 0 99 29 7f 85
        E 200 89 29 40 85
        E 2 89 26 40 39
        E 278 99 29 7f 71
        E 200 89 29 40 71
        E 280 99 24 4d 75
        E 0 99 29 7f 85
        E 200 89 24 40 75
        E 2 89 29 40 85
        E 278 99 29 7f 85
        E 0 99 24 3a 87
        E 190 89 24 40 87
        E 12 89 29 40 85
        E 38 99 24 19 41
        E 198 89 24 40 41
        E 42 99 26 7f 69
        E 0 99 29 7f 111
        E 200 89 29 40 111
        E 2 89 26 40 69
        E 278 99 29 7f 117
        E 200 89 29 40 117
        E 280 99 24 51 59
        E 0 99 29 7f 101
        E 200 89 29 40 101
        E 2 89 24 40 59
        E 278 99 24 37 22
        E 0 99 29 7f 74
        E 149 89 24 40 22
        E 50 89 29 40 74
        E 41 99 24 18 -67
        E 200 89 24 40 -67
        E 40 99 26 7b 65
        E 0 99 29 7f 103
        E 200 89 26 40 65
        E 0 89 29 40 103
        E 280 99 29 7f 59
        E 201 89 29 40 59
        E 39 99 30 7f -3
        E 200 89 30 40 -3
        E 40 99 24 62 -59
        E 0 99 2d 7f 47
        E 200 89 24 40 -59
        E 0 89 2d 40 47
        E 280 99 29 7f 65
        E 200 89 29 40 65
        E 40 99 26 7f -95
        E 202 89 26 40 -95
        E 38 99 29 7f 61
        E 200 89 29 40 61
        E 280 99 29 7f 73
        E 200 89 29 40 73
        E 280 99 24 5a 77
        E 0 99 29 7f 81
        E 200 89 24 40 77
        E 0 89 29 40 81
        E 280 99 24 45 55
        E 0 99 29 7f 89
        E 114 89 24 40 55
        E 88 89 29 40 89
        E 38 99 24 22 -69
        E 198 89 24 40 -69
        E 42 99 26 7f 19
        E 0 99 29 7f 66
        E 200 89 26 40 19
        E 1 89 29 40 66
        E 279 99 29 7f 61
        E 200 89 29 40 61
        E 280 99 24 52 23
        E 0 99 29 7f 67
        E 200 89 29 40 67
        E 2 89 24 40 23
        E 278 99 24 3d 33
        E 0 99 29 7f 63
        E 144 89 24 40 33
        E 56 89 29 40 63
        E 40 99 24 1f -61
        E 200 89 24 40 -61
        E 40 99 26 7c 53
        E 0 99 29 7f 107
        E 200 89 26 40 53
        E 0 89 29 40 107
        E 280 99 29 7f 91
        E 200 89 29 40 91
        E 280 99 24 56 87
        E 200 89 24 40 87
        E 40 99 29 7f -115
        E 200 89 29 40 -115
        E 40 99 24 3c 47
        E 0 99 29 7f 103
        E 144 89 24 40 47
        E 55 89 29 40 103
        E 41 99 24 19 -47
        E 200 89 24 40 -47
        E 40 99 26 7f 63
        E 0 99 29 7f 105
        E 200 89 26 40 63
        E 0 89 29 40 105
        E 280 99 29 7f 69
        E 181 b9 04 00
        E 19 89 29 40 69
        E 40 99 1a 34 -57
        E 0 99 30 77 -27
        E 200 89 1a 40 -57
        E 0 89 30 40 -27
        E 40 99 24 70 -45
        E 0 99 2d 7f 85
        E 200 89 24 40 -45
        E 0 89 2d 40 85
        E 40 99 24 49 113
        E 200 89 24 40 113
        E 40 99 2d 7f -3
        E 200 89 2d 40 -3
        E 280 99 26 7f 7
        E 0 99 29 7f 37
        E 200 89 26 40 7
        E 0 89 29 40 37
        E 280 99 29 7f 31
        E 200 89 29 40 31
        E 280 99 24 55 -33
        E 0 99 29 7f 31
        E 200 89 29 40 31
        E 2 89 24 40 -33
        E 278 99 24 40 -69
        E 0 99 29 7f 29
        E 200 89 29 40 29
        E 2 89 24 40 -69
        E 278 99 26 7c 9
        E 0 99 29 7f 49
        E 200 89 26 40 9
        E 1 89 29 40 49
        E 279 99 29 7f 59
        E 202 89 29 40 59
        E 278 99 24 53 57
        E 0 99 29 7f 79
        E 200 89 24 40 57
        E 0 89 29 40 79
        E 280 99 24 40 -11
        E 0 99 29 7f 61
        E 0 99 24 22 97
        E 108 89 24 40 -11
        E 92 89 29 40 61
        E 1 89 24 40 97
        E 279 99 26 75 17
        E 0 99 29 7f 75
        E 200 89 26 40 17
        E 4 89 29 40 75
        E 276 99 29 78 87
        E 200 89 29 40 87
        E 280 99 24 54 51
        E 0 99 29 7f 97
        E 104 89 24 40 51
        E 96 89 29 40 97
        E 40 99 24 21 -83
        E 198 89 24 40 -83
        E 42 99 29 7f 87
        E 200 89 29 40 87
        E 40 99 24 43 -109
        E 0 99 24 23 61
        E 168 89 24 40 -109
        E 32 89 24 40 61
        E 40 99 26 7f 83
        E 0 99 29 7f 111
        E 199 89 29 40 111
        E 5 89 26 40 83
        E 276 99 29 7f 71
        E 202 89 29 40 71
        E 38 99 30 7f -7
        E 200 89 30 40 -7
        E 40 99 24 67 -19
        E 0 99 2d 7f 89
        E 200 89 24 40 -19
        E 0 89 2d 40 89
        E 280 99 24 3c -81
        E 0 99 24 1e
        E 0 99 2d 7f 79
        E 80 89 24 40 -81
        E 120 89 2d 40 79
        E 1 89 24 40
        E 279 99 26 7f 43
        E 0 99 29 7f 77
        E 200 89 29 40 77
        E 2 89 26 40 43
        E 278 99 29 7f 61
        E 200 89 29 40 61
        E 280 99 29 7f 67
        E 0 99 24 55 95
        E 200 89 29 40 67
        E 0 89 24 40 95
        E 280 99 24 3e -5
        E 0 99 29 7f 73
        E 200 89 24 40 -5
        E 0 89 29 40 73
        E 280 99 26 7f 39
        E 0 99 29 7f 93
        E 200 89 26 40 39
        E 0 89 29 40 93
        E 280 99 29 7f 62
        E 201 89 29 40 62
        E 279 99 24 53 53
        E 0 99 29 7f 77
        E 200 89 24 40 53
        E 0 89 29 40 77
        E 280 99 24 3f 57
        E 0 99 29 7f 81
        E 156 89 24 40 57
        E 45 89 29 40 81
        E 39 99 24 1c -25
        E 202 89 24 40 -25
        E 38 99 26 7d 46
        E 0 99 29 7f 91
        E 201 89 26 40 46
        E 1 89 29 40 91
        E 278 99 29 7f 63
        E 200 89 29 40 63
        E 40 99 30 78 -17
        E 200 89 30 40 -17
        E 40 99 24 66 -43
        E 0 99 2d 7f 69
        E 201 89 2d 40 69
        E 1 89 24 40 -43
        E 38 99 24 3b 97
        E 202 89 24 40 97
        E 38 99 2d 7f 41
        E 204 89 2d 40 41
        E 276 99 26 7f -1
        E 0 99 29 7f 45
        E 199 89 29 40 45
        E 1 89 26 40 -1
        E 280 99 29 7f 35
        E 200 89 29 40 35
        E 280 99 24 55 25
        E 0 99 29 7f 27
        E 200 89 24 40 25
        E 2 89 29 40 27
        E 278 99 24 3d -23
        E 0 99 29 7f 21
        E 200 89 29 40 21
        E 2 89 24 40 -23
        E 278 99 26 7f -15
        E 0 99 29 7f 38
        E 200 89 29 40 38
        E 2 89 26 40 -15
        E 278 99 29 7f 25
        E 202 89 29 40 25
        E 278 99 29 7f 32
        E 0 99 24 50 38
        E 201 89 29 40 32
        E 0 89 24 40 38
        E 279 99 24 3c -13
        E 0 99 29 7f 26
        E 138 89 24 40 -13
        E 65 89 29 40 26
        E 37 99 24 1c -115
        E 200 89 24 40 -115
        E 40 99 26 7f 8
        E 0 99 29 7f 61
        E 201 89 29 40 61
        E 2 89 26 40 8
        E 277 99 29 7f 35
        E 200 89 29 40 35
        E 280 99 24 50 -1
        E 0 99 29 7f 60
        E 200 89 24 40 -1
        E 1 89 29 40 60
        E 279 99 24 37 -62
        E 0 99 29 7f 22
        E 201 89 24 40 -62
        E 4 89 29 40 22
        E 275 99 26 7f 13
        E 0 99 29 7f 59
        E 200 89 26 40 13
        E 2 89 29 40 59
        E 278 99 29 7f 23
        E 199 89 29 40 23
        E 41 99 30 7f -37
        E 202 89 30 40 -37
        E 38 99 24 62 -83
        E 0 99 2d 7f 55
        E 200 89 24 40 -83
        E 0 89 2d 40 55
        E 40 99 30 7e -37
        E 17 b9 04 06
        E 182 89 30 40 -37
        E 4 b9 04 00
        E 37 99 24 51 -91
        E 0 99 2d 7f 5
        E 200 89 24 40 -91
        E 0 89 2d 40 5
        E 280 99 26 7f -10
        E 0 99 29 7f 46
        E 201 89 29 40 46
        E 1 89 26 40 -10
        E 278 99 29 7f 5
        E 200 89 29 40 5
        E 280 99 24 55 31
        E 0 99 29 7f 37
        E 200 89 24 40 31
        E 0 89 29 40 37
        E 280 99 24 3e -31
        E 0 99 29 7f 10
        E 0 99 24 1d 99
        E 128 89 24 40 -31
        E 72 89 24 40 99
        E 1 89 29 40 10
        E 279 99 26 7f 5
        E 0 99 29 7f 51
        E 200 89 26 40 5
        E 0 89 29 40 51
        E 280 99 29 7f -7
        E 200 89 29 40 -7
        E 40 99 26 52 -105
        E 200 89 26 40 -105
        E 40 99 24 64 -22
        E 0 99 29 7f -12
        E 201 89 24 40 -22
        E 0 89 29 40 -12
        E 279 99 29 7f -3
        E 199 89 29 40 -3
        E 281 99 26 7f 9
        E 0 99 29 7f 35
        E 200 89 26 40 9
        E 2 89 29 40 35
        E 278 99 29 7f 19
        E 202 89 29 40 19
        E 278 99 29 7f 38
        E 0 99 24 57 45
        E 200 89 24 40 45
        E 1 89 29 40 38
        E 279 99 24 34 -53
        E 0 99 29 7f 45
        E 200 89 24 40 -53
        E 2 89 29 40 45
        E 278 99 26 7f 21
        E 0 99 29 7f 57
        E 200 89 26 40 21
        E 2 89 29 40 57
        E 278 99 29 7f 15
        E 200 89 29 40 15
        E 40 99 30 7c -45
        E 200 89 30 40 -45
        E 40 99 24 60 -65
        E 0 99 2d 7f 45
        E 200 89 24 40 -65
        E 2 89 2d 40 45
        E 38 99 30 7f -38
        E 200 89 30 40 -38
        E 40 99 24 4b -47
        E 0 99 2d 7f -11
        E 199 89 24 40 -47
        E 1 89 2d 40 -11
        E 280 99 26 7f 1
        E 0 99 29 7f 37
        E 200 89 26 40 1
        E 0 89 29 40 37
        E 280 99 29 7f 27
        E 199 89 29 40 27
        E 281 99 29 7f 25
        E 0 99 24 4f 59
        E 201 89 24 40 59
        E 1 89 29 40 25
        E 278 99 24 42 -15
        E 0 99 29 7f 26
        E 200 89 24 40 -15
        E 1 89 29 40 26
        E 279 99 26 7f 23
        E 0 99 29 7f 77
        E 200 89 26 40 23
        E 0 89 29 40 77
        E 280 99 29 7f 73
        E 200 89 29 40 73
        E 280 99 24 52 77
        E 0 99 29 7f 85
        E 200 89 24 40 77
        E 0 89 29 40 85
        E 280 99 24 3d 15
        E 0 99 29 7f 71
        E 0 99 24 1f 119
        E 104 89 24 40 15
        E 96 89 29 40 71
        E 0 89 24 40 119
        E 280 99 26 7f 25
        E 0 99 29 7f 65
        E 200 89 26 40 25
        E 0 89 29 40 65
        E 280 99 29 7f 49
        E 200 89 29 40 49
        E 40 99 28 58 -2
        E 0 99 28 2a 97
        E 97 89 28 40 -2
        E 103 89 28 40 97
        E 40 99 26 64 66
        E 0 99 24 49 75
        E 126 89 24 40 75
        E 75 89 26 40 66
        E 39 99 24 24 -37
        E 0 99 26 40 37
        E 96 89 26 40 37
        E 104 89 24 40 -37
        E 40 99 26 23 -105
        E 0 99 26 7e 49
        E 152 89 26 40 -105
        E 44 89 26 40 49
        E 44 99 26 66 7
        E 200 89 26 40 7
        E 40 99 26 78 28
        E 201 89 26 40 28
        E 39 99 26 61 17
        E 200 89 26 40 17
        E 40 99 26 7f 25
        E 200 89 26 40 25
        E 40 99 26 68 -9
        E 202 89 26 40 -9
        E 38 99 33 41 -15
        E 0 99 33 7f 30
        E 0 99 24 5f 89
        E 44 89 33 40 -15
        E 157 89 33 40 30
        E 1 89 24 40 89
        E 278 99 29 7f -29
        E 200 89 29 40 -29
        E 280 99 26 7f -23
        E 0 99 29 7f 20
        E 202 89 26 40 -23
        E 0 89 29 40 20
        E 278 99 29 7f 9
        E 200 89 29 40 9
        E 280 99 24 51 15
        E 0 99 29 7f 33
        E 200 89 24 40 15
        E 0 89 29 40 33
        E 280 99 29 7f 25
        E 200 89 29 40 25
        E 280 99 26 7f -7
        E 0 99 29 7f 45
        E 199 89 26 40 -7
        E 2 89 29 40 45
        E 279 99 29 7f 23
        E 200 89 29 40 23
        E 280 99 29 7f 35
        E 0 99 24 4e 45
        E 199 89 24 40 45
        E 1 89 29 40 35
        E 280 99 24 3d -59
        E 0 99 24 1d 33
        E 0 99 29 7f 41
        E 90 89 24 40 -59
        E 109 89 29 40 41
        E 2 89 24 40 33
        E 279 99 26 7f 34
        E 0 99 29 7f 79
        E 200 89 29 40 79
        E 3 89 26 40 34
        E 277 99 29 7f 65
        E 200 89 29 40 65
        E 280 99 24 51 36
        E 0 99 29 7f 59
        E 200 89 29 40 59
        E 1 89 24 40 36
        E 279 99 29 7f 52
        E 201 89 29 40 52
        E 279 99 26 7f 21
        E 0 99 29 7f 73
        E 199 89 26 40 21
        E 1 89 29 40 73
        E 280 99 29 7f 37
        E 200 89 29 40 37
        E 40 99 30 6d -38
        E 203 89 30 40 -38
        E 37 99 24 64 -78
        E 0 99 2d 7f 57
        E 200 89 2d 40 57
        E 1 89 24 40 -78
        E 39 99 30 5c -15
        E 35 b9 04 06
        E 165 89 30 40 -15
        E 40 99 24 51 -32
        E 0 99 2d 7f
        E 26 b9 04 00
        E 174 89 2d 40
        E 1 89 24 40 -32
        E 279 99 26 74 3
        E 0 99 29 7f 41
        E 199 89 26 40 3
        E 2 89 29 40 41
        E 279 99 29 7f 28
        E 200 89 29 40 28
        E 280 99 29 7f 51
        E 0 99 24 54 68
        E 199 89 29 40 51
        E 2 89 24 40 68
        E 279 99 24 41 13
        E 0 99 29 7f 55
        E 0 99 24 22 110
        E 94 89 24 40 13
        E 106 89 29 40 55
        E 1 89 24 40 110
        E 279 99 26 7f 29
        E 0 99 29 7f 71
        E 200 89 26 40 29
        E 0 89 29 40 71
        E 280 99 29 7f 52
        E 200 89 29 40 52
        E 280 99 24 4e 57
        E 0 99 29 7f 70
        E 200 89 24 40 57
        E 1 89 29 40 70
        E 279 99 29 7f 79
        E 199 89 29 40 79
        E 281 99 26 7f 63
        E 0 99 29 7f 84
        E 201 89 26 40 63
        E 0 89 29 40 84
        E 279 99 29 7f 67
        E 200 89 29 40 67
        E 2 b9 04 00
        E 38 99 1a 7f -36
        E 201 89 1a 40 -36
        E 14 b9 04 12
        E 25 99 24 56 -61
        E 0 99 24 28 35
        E 0 99 29 7f 45
        E 29 b9 04 22
        E 60 b9 04 32
        E 4 89 24 40 -61
        E 106 89 24 40 35
        E 0 89 29 40 45
        E 3 b9 04 22
        E 136 b9 04 12
        E 142 99 29 7f 62
        E 201 89 29 40 62
        E 279 99 26 7f 58
        E 0 99 29 7f 80
        E 200 89 26 40 58
        E 3 89 29 40 80
        E 202 b9 04 06
        E 75 99 29 7f 52
        E 201 89 29 40 52
        E 39 99 28 4a -11
        E 5 b9 04 00
        E 195 89 28 40 -11
        E 40 99 24 6b -38
        E 0 99 2d 7f 42
        E 201 89 24 40 -38
        E 0 89 2d 40 42
        E 39 99 30 7f -12
        E 12 b9 04 0f
        E 189 89 30 40 -12
        E 39 99 2d 7f 6
        E 0 99 24 4e 10
        E 98 b9 04 06
        E 104 89 2d 40 6
        E 1 89 24 40 10
        E 146 b9 04 00
        E 131 99 26 7f -46
        E 0 99 29 7f 11
        E 200 89 29 40 11
        E 3 89 26 40 -46
        E 277 99 29 7f -10
        E 199 b9 04 09
        E 2 89 29 40 -10
        E 279 99 24 58 7
        E 0 99 29 7f 10
        E 201 89 29 40 10
        E 1 89 24 40 7
        E 278 99 24 37 -94
        E 0 99 29 7f -4
        E 200 89 24 40 -94
        E 3 89 29 40 -4
        E 25 b9 04 00
        E 252 99 26 7f -35
        E 0 99 29 7f 32
        E 199 89 26 40 -35
        E 2 89 29 40 32
        E 279 99 29 7f -1
        E 0 99 26 21 109
        E 199 89 26 40 109
        E 3 89 29 40 -1
        E 278 99 24 55 10
        E 0 99 29 7f 14
        E 200 89 24 40 10
        E 3 89 29 40 14
        E 37 99 24 29 79
        E 202 89 24 40 79
        E 38 99 29 7f 26
        E 201 89 29 40 26
        E 279 99 26 7b -15
        E 0 99 29 7f 49
        E 200 89 26 40 -15
        E 0 89 29 40 49
        E 280 99 29 7f 22
        E 0 99 1a 7f 98
        E 96 b9 04 00
        E 104 89 1a 40 98
        E 1 89 29 40 22
        E 176 b9 04 12
        E 7 b9 04 25
        E 62 b9 04 36
        E 34 99 24 65 -45
        E 0 99 29 7f -5
        E 52 b9 04 46
        E 110 b9 04 36
        E 39 89 29 40 -5
        E 2 89 24 40 -45
        E 41 b9 04 25
        E 108 b9 04 18
        E 128 99 29 7f 34
        E 21 b9 04 0f
        E 180 89 29 40 34
        E 279 99 26 7f 51
        E 0 99 29 7f 70
        E 64 b9 04 09
        E 135 89 26 40 51
        E 1 89 29 40 70
        E 8 b9 04 00
        E 272 99 29 7f 9
        E 100 b9 04 09
        E 102 89 29 40 9
        E 38 99 30 7f -54
        E 0 99 24 6e 82
        E 25 b9 04 00
        E 175 89 24 40 82
        E 3 89 30 40 -54
        E 27 b9 04 12
        E 10 99 2d 7f 20
        E 128 b9 04 1d
        E 73 89 2d 40 20
        E 39 99 30 64 -37
        E 0 99 24 49 32
        E 116 b9 04 0f
        E 83 89 30 40 -37
        E 1 89 24 40 32
        E 40 99 2d 7f -14
        E 57 b9 04 06
        E 144 89 2d 40 -14
        E 65 b9 04 00
        E 214 99 26 7f -3
        E 0 99 29 7f 18
        E 200 89 29 40 18
        E 2 89 26 40 -3
        E 278 99 29 7f 11
        E 199 89 29 40 11
        E 24 b9 04 09
        E 257 99 24 5d -2
        E 0 99 29 7f 28
        E 200 89 29 40 28
        E 1 89 24 40 -2
        E 39 99 24 16 21
        E 202 89 24 40 21
        E 38 99 29 7f 10
        E 200 89 29 40 10
        E 40 99 24 23 -41
        E 173 b9 04 03
        E 4 b9 04 00
        E 22 89 24 40 -41
        E 41 99 26 7f 60
        E 0 99 29 7f 77
        E 200 89 26 40 60
        E 0 89 29 40 77
        E 280 99 29 7f 52
        E 200 89 29 40 52
        E 280 99 24 5c 70
        E 0 99 29 7f 99
        E 200 89 24 40 70
        E 1 89 29 40 99
        E 57 b9 04 12
        E 40 b9 04 22
        E 40 b9 04 32
        E 142 99 29 7f 95
        E 83 b9 04 22
        E 35 b9 04 12
        E 36 b9 04 00
        E 45 89 29 40 95
        E 281 99 2c 50 33
        E 0 99 26 7f 97
        E 0 99 29 7f 108
        E 18 b9 04 12
        E 4 b9 04 25
        E 4 b9 04 38
        E 2 b9 04 49
        E 2 b9 04 4f
        E 5 b9 04 5b
        E 35 b9 04 6c
        E 115 b9 04 5c
        E 15 89 2c 40 33
        E 2 89 26 40 97
        E 0 89 29 40 108
        E 4 b9 04 4c
        E 19 b9 04 3c
        E 31 b9 04 2c
        E 46 b9 04 1a
        E 124 b9 04 12
        E 54 99 29 7f 106
        E 201 89 29 40 106
        E 16 b9 04 20
        E 280 b9 04 0f
        E 67 b9 04 00
        E 156 99 29 7f -118
        E 0 99 24 64 -85
        E 96 b9 04 0c
        E 103 89 24 40 -85
        E 1 89 29 40 -118
        E 40 99 24 31 -10
        E 0 99 29 7f 118
        E 200 89 24 40 -10
        E 1 89 29 40 118
        E 279 99 26 7f 98
        E 121 b9 04 03
        E 10 b9 04 00
        E 69 89 26 40 98
        E 40 99 29 7f -117
        E 141 b9 04 12
        E 58 89 29 40 -117
        E 41 99 29 7f 83
        E 6 b9 04 00
        E 172 b9 04 12
        E 9 b9 04 22
        E 8 b9 04 32
        E 4 89 29 40 83
        E 7 b9 04 43
        E 4 b9 04 4c
        E 5 b9 04 54
        E 7 b9 04 65
        E 18 99 2c 1c -27
        E 0 99 30 5b -12
        E 15 b9 04 75
        E 62 b9 04 65
        E 18 b9 04 55
        E 11 b9 04 44
        E 11 b9 04 34
        E 8 b9 04 22
        E 12 b9 04 12
        E 11 b9 04 00
        E 52 89 2c 40 -27
        E 0 89 30 40 -12
        E 40 99 24 7f -1
        E 0 99 2d 7f 82
        E 149 b9 04 12
        E 1 b9 04 25
        E 3 b9 04 38
        E 2 b9 04 49
        E 2 b9 04 53
        E 5 b9 04 5a
        E 2 b9 04 6e
        E 10 b9 04 5d
        E 13 b9 04 6e
        E 12 89 24 40 -1
        E 1 89 2d 40 82
        E 40 99 2c 7a -81
        E 46 b9 04 5d
        E 12 b9 04 4c
        E 8 b9 04 3c
        E 11 b9 04 2c
        E 9 b9 04 1a
        E 12 b9 04 09
        E 6 b9 04 00
        E 94 89 2c 40 -81
        E 42 99 24 58 -42
        E 0 99 2d 7f 36
        E 110 b9 04 12
        E 11 b9 04 25
        E 17 b9 04 36
        E 15 b9 04 46
        E 3 b9 04 4c
        E 8 b9 04 56
        E 37 89 2d 40 36
        E 1 89 24 40 -42
        E 25 b9 04 46
        E 13 99 2c 12 -82
        E 15 b9 04 36
        E 186 89 2c 40 -82
        E 39 99 26 7f 57
        E 0 99 29 7f 104
        E 33 b9 04 2e
        E 67 b9 04 1d
        E 99 89 26 40 57
        E 1 89 29 40 104
        E 65 b9 04 0f
        E 142 b9 04 06
        E 73 99 29 7f 85
        E 199 89 29 40 85
        E 64 b9 04 12
        E 217 99 24 64 90
        E 0 99 29 7f 111
        E 41 b9 04 03
        E 6 b9 04 00
        E 153 89 29 40 111
        E 1 89 24 40 90
        E 279 99 24 3d 29
        E 201 89 24 40 29
        E 39 99 29 7f -119
        E 200 89 29 40 -119
        E 40 99 26 7e 75
        E 200 89 26 40 75
        E 40 99 29 7f -113
        E 199 89 29 40 -113
        E 41 99 29 7f 108
        E 200 89 29 40 108
        E 520 99 29 7f -106
        E 0 99 24 72 -96
        E 200 89 29 40 -106
        E 1 89 24 40 -96
        E 39 99 24 3b 61
        E 73 89 24 40 61
        E 167 99 24 19 -102
        E 0 99 29 7f -100
        E 51 b9 04 06
        E 148 89 24 40 -102
        E 3 89 29 40 -100
        E 146 b9 04 00
        E 132 99 26 7f -107
        E 0 99 29 7f -98
        E 200 89 26 40 -107
        E 3 89 29 40 -98
        E 37 99 29 7f 118
        E 200 89 29 40 118
        E 280 99 29 7f 100
        E 0 99 24 60 107
        E 202 89 29 40 100
        E 0 89 24 40 107
        E 278 99 29 7f 70
        E 200 89 29 40 70
        E 280 99 26 7f 29
        E 0 99 29 7f 56
        E 201 89 26 40 29
        E 0 89 29 40 56
        E 279 99 29 7f 44
        E 182 b9 04 09
        E 18 89 29 40 44
        E 40 99 30 5c -34
        E 200 89 30 40 -34
        E 40 99 24 7f -45
        E 0 99 2d 7f 52
        E 109 b9 04 1a
        E 91 89 2d 40 52
        E 2 89 24 40 -45
        E 38 99 30 79 -38
        E 59 b9 04 27
        E 141 89 30 40 -38
        E 40 99 24 5b -10
        E 0 99 2d 7f 9
        E 3 b9 04 18
        E 138 b9 04 0f
        E 58 89 2d 40 9
        E 2 89 24 40 -10
        E 169 b9 04 06
        E 110 99 26 7f 62
        E 0 99 29 7f 70
        E 66 b9 04 00
        E 134 89 26 40 62
        E 0 89 29 40 70
        E 280 99 29 7f 46
        E 200 89 29 40 46
        E 24 b9 04 09
        E 256 99 29 7f 44
        E 0 99 24 7d 54
        E 200 89 29 40 44
        E 0 89 24 40 54
        E 280 99 24 48 24
        E 0 99 29 7f 50
        E 124 89 24 40 24
        E 76 89 29 40 50
        E 40 99 24 21 -90
        E 200 89 24 40 -90
        E 40 99 26 7f -16
        E 0 99 29 7f 38
        E 200 89 29 40 38
        E 2 89 26 40 -16
        E 278 99 29 7f 42
        E 16 b9 04 03
        E 184 89 29 40 42
        E 280 99 29 7f 64
        E 0 99 24 68 78
        E 201 89 29 40 64
        E 2 89 24 40 78
        E 277 99 24 44 -12
        E 0 99 29 7f 58
        E 200 89 29 40 58
        E 2 89 24 40 -12
        E 278 99 26 7f 41
        E 0 99 29 7f 68
        E 199 89 26 40 41
        E 2 89 29 40 68
        E 157 b9 04 00
        E 122 99 29 7f 66
        E 200 89 29 40 66
        E 280 99 29 7f 71
        E 0 99 24 74 93
        E 199 89 29 40 71
        E 2 89 24 40 93
        E 279 99 24 45 26
        E 0 99 29 7f 60
        E 100 89 24 40 26
        E 100 89 29 40 60
        E 40 99 24 1e -112
        E 202 89 24 40 -112
        E 38 99 26 7b 14
        E 0 99 29 7f 56
        E 200 89 26 40 14
        E 0 89 29 40 56
        E 280 99 29 7f 28
        E 200 89 29 40 28
        E 2 b9 04 0c
        E 38 99 30 65 -30
        E 202 89 30 40 -30
        E 38 99 24 7e -23
        E 0 99 2d 7f 38
        E 186 b9 04 18
        E 14 89 2d 40 38
        E 1 89 24 40 -23
        E 39 99 30 60 -48
        E 200 89 30 40 -48
        E 40 99 2d 7f -3
        E 0 99 24 5a
        E 152 b9 04 0f
        E 47 89 2d 40 -3
        E 3 89 24 40
        E 152 b9 04 06
        E 126 99 26 74 45
        E 0 99 29 7f 58
        E 18 b9 04 00
        E 182 89 29 40 58
        E 1 89 26 40 45
        E 279 99 29 7f 34
        E 202 89 29 40 34
        E 278 99 24 67 38
        E 0 99 29 7f 40
        E 200 89 24 40 38
        E 2 89 29 40 40
        E 278 99 24 46 -14
        E 0 99 29 7f 40
        E 0 99 24 20 96
        E 106 89 24 40 -14
        E 92 89 24 40 96
        E 2 89 29 40 40
        E 280 99 26 7f 6
        E 0 99 29 7f 52
        E 200 89 29 40 52
        E 4 89 26 40 6
        E 276 99 29 7f 46
        E 131 b9 04 00
        E 69 89 29 40 46
        E 40 99 1a 7f -107
        E 118 b9 04 12
        E 7 b9 04 25
        E 3 b9 04 38
        E 2 b9 04 4c
        E 6 b9 04 4c
        E 65 89 1a 40 -107
        E 3 b9 04 5c
        E 36 99 2c 46 -108
        E 0 99 24 7e
        E 0 99 29 7f 44
        E 90 b9 04 4c
        E 56 b9 04 3c
        E 54 89 2c 40 -108
        E 0 89 29 40 44
        E 1 89 24 40
        E 161 b9 04 2c
        E 112 b9 04 1d
        E 6 99 29 7f 64
        E 200 89 29 40 64
        E 280 99 26 7f 58
        E 0 99 29 7f 82
        E 200 89 26 40 58
        E 0 89 29 40 82
        E 280 99 29 7f 74
        E 70 b9 04 12
        E 130 89 29 40 74
        E 136 b9 04 18
        E 144 99 24 67 68
        E 0 99 29 7f 90
        E 202 89 24 40 68
        E 0 89 29 40 90
        E 278 99 24 43 -16
        E 0 99 29 7f 70
        E 64 b9 04 12
        E 136 89 24 40 -16
        E 2 89 29 40 70
        E 278 99 26 7c 66
        E 0 99 29 7f 102
        E 110 b9 04 09
        E 90 89 29 40 102
        E 3 89 26 40 66
        E 57 b9 04 00
        E 220 99 29 7f 70
        E 140 b9 04 0f
        E 60 89 29 40 70
        E 40 99 30 77 2
        E 200 89 30 40 2
        E 40 99 24 7f 4
        E 0 99 2d 7f 105
        E 199 89 2d 40 105
        E 2 89 24 40 4
        E 39 99 30 7a 16
        E 0 99 30 23 114
        E 30 b9 04 18
        E 64 89 30 40 16
        E 104 89 30 40 114
        E 6 b9 04 1d
        E 36 99 24 5f 8
        E 0 99 2d 7f 48
        E 200 89 24 40 8
        E 0 89 2d 40 48
        E 112 b9 04 12
        E 168 99 26 66 48
        E 0 99 29 7f 96
        E 132 b9 04 09
        E 68 89 26 40 48
        E 1 89 29 40 96
        E 279 99 29 7f 78
        E 202 89 29 40 78
        E 38 b9 04 12
        E 240 99 24 6f 94
        E 0 99 29 7f 106
        E 72 b9 04 09
        E 128 89 24 40 94
        E 2 89 29 40 106
        E 90 b9 04 12
        E 188 99 24 3c -22
        E 0 99 29 7f 108
        E 200 89 29 40 108
        E 2 89 24 40 -22
        E 278 99 26 7f 104
        E 112 b9 04 09
        E 88 89 26 40 104
        E 40 99 29 7f -102
        E 200 89 29 40 -102
        E 218 b9 04 00
        E 62 99 29 7f -119
        E 0 99 29 34 -16
        E 0 99 1a 7f 104
        E 101 89 29 40 -119
        E 1 b9 04 00
        E 100 89 29 40 -16
        E 0 89 1a 40 104
        E 38 99 2c 2a 58
        E 38 b9 04 12
        E 4 b9 04 22
        E 4 b9 04 34
        E 4 b9 04 46
        E 7 b9 04 4c
        E 27 b9 04 56
        E 38 b9 04 66
        E 80 89 2c 40 58
        E 38 b9 04 56
        E 0 99 24 7f -108
        E 0 99 29 7f -90
        E 48 b9 04 46
        E 67 b9 04 36
        E 85 89 29 40 -90
        E 2 89 24 40 -108
        E 62 b9 04 3a
        E 52 b9 04 29
        E 110 b9 04 1d
        E 54 99 29 7f -112
        E 200 89 29 40 -112
        E 162 b9 04 15
        E 118 99 26 7e -80
        E 0 99 29 7f -54
        E 200 89 29 40 -54
        E 1 89 26 40 -80
        E 147 b9 04 0c
        E 132 99 29 7f -80
        E 188 b9 04 12
        E 12 89 29 40 -80
        E 280 99 24 70 -64
        E 0 99 29 7f -48
        E 200 89 29 40 -48
        E 1 89 24 40 -64
        E 279 99 24 45 -88
        E 0 99 29 7f -34
        E 0 99 24 21 24
        E 110 89 24 40 -88
        E 90 89 29 40 -34
        E 0 89 24 40 24
        E 210 b9 04 09
        E 70 99 26 7a -80
        E 0 99 29 7f -32
        E 14 b9 04 00
        E 186 89 26 40 -80
        E 1 89 29 40 -32
        E 279 99 29 7f -56
        E 18 b9 04 0f
        E 152 b9 04 15
        E 30 89 29 40 -56
        E 40 99 30 7c -120
        E 0 99 30 26 -32
        E 86 89 30 40 -120
        E 63 b9 04 0f
        E 51 89 30 40 -32
        E 40 99 24 7f -116
        E 0 99 2d 7f -44
        E 60 b9 04 1d
        E 140 89 24 40 -116
        E 4 89 2d 40 -44
        E 22 b9 04 27
        E 14 99 30 7f -108
        E 200 89 30 40 -108
        E 36 b9 04 1d
        E 4 99 24 5d -108
        E 0 99 2d 7f -68
        E 196 b9 04 12
        E 4 89 24 40 -108
        E 0 89 2d 40 -68
        E 266 b9 04 06
        E 14 99 26 7f -76
        E 0 99 29 7f -35
        E 122 b9 04 00
        E 77 89 29 40 -35
        E 1 89 26 40 -76
        E 280 99 29 7f -42
        E 116 b9 04 09
        E 84 89 29 40 -42
        E 280 99 24 7f -54
        E 0 99 29 7f -50
        E 200 89 29 40 -50
        E 2 89 24 40 -54
        E 278 99 24 41 -80
        E 0 99 29 7f -58
        E 0 99 24 1a 76
        E 154 89 24 40 -80
        E 46 89 29 40 -58
        E 0 89 24 40 76
        E 280 99 26 7f -80
        E 0 99 29 7f -67
        E 199 89 29 40 -67
        E 3 89 26 40 -80
        E 164 b9 04 00
        E 114 99 29 7f -90
        E 0 99 1a 7f 88
        E 86 b9 04 00
        E 113 89 29 40 -90
        E 1 89 1a 40 88
        E 40 99 2c 34 68
        E 0 99 24 7f 96
        E 52 b9 04 12
        E 4 b9 04 22
        E 4 b9 04 32
        E 4 b9 04 44
        E 2 b9 04 4c
        E 40 b9 04 54
        E 94 89 2c 40 68
        E 2 89 24 40 96
        E 12 b9 04 5f
        E 26 99 29 7f -86
        E 56 b9 04 4f
        E 86 b9 04 3f
        E 62 89 29 40 -86
        E 170 b9 04 2e
        E 106 99 29 71 -110
        E 46 b9 04 20
        E 156 89 29 40 -110
        E 124 b9 04 18
        E 154 99 26 7f -112
        E 0 99 29 7f -88
        E 66 b9 04 0f
        E 135 89 26 40 -112
        E 0 89 29 40 -88
        E 39 99 29 7f 110
        E 34 b9 04 09
        E 166 89 29 40 110
        E 50 b9 04 12
        E 230 99 24 71 40
        E 0 99 29 7f 78
        E 200 89 24 40 40
        E 0 89 29 40 78
        E 280 99 24 3a -42
        E 0 99 24 1b 54
        E 0 99 29 7f 102
        E 94 89 24 40 -42
        E 105 89 29 40 102
        E 3 89 24 40 54
        E 278 99 26 7f 80
        E 0 99 29 7f 112
        E 158 b9 04 09
        E 42 89 26 40 80
        E 1 89 29 40 112
        E 135 b9 04 00
        E 144 99 29 7f 92
        E 200 89 29 40 92
        E 5 b9 04 09
        E 35 99 30 68 25
        E 199 89 30 40 25
        E 41 99 24 7f 28
        E 0 99 2d 7f 92
        E 200 89 2d 40 92
        E 2 89 24 40 28
        E 18 b9 04 18
        E 20 99 30 72 6
        E 200 89 30 40 6
        E 40 99 24 5a 20
        E 0 99 2d 7f 24
        E 201 89 24 40 20
        E 2 89 2d 40 24
        E 20 b9 04 0f
        E 231 b9 04 09
        E 26 99 26 6f 32
        E 0 99 29 7f 66
        E 186 b9 04 00
        E 14 89 29 40 66
        E 2 89 26 40 32
        E 278 99 29 7f 48
        E 200 89 29 40 48
        E 14 b9 04 0c
        E 266 99 24 7f 58
        E 0 99 29 7f 60
        E 200 89 24 40 58
        E 0 89 29 40 60
        E 280 99 24 47 48
        E 0 99 29 7f 70
        E 118 89 24 40 48
        E 84 89 29 40 70
        E 38 99 24 1e -72
        E 202 89 24 40 -72
        E 38 99 26 75 34
        E 0 99 29 7f 68
        E 200 89 26 40 34
        E 1 89 29 40 68
        E 25 b9 04 06
        E 174 b9 04 00
        E 80 99 29 7f 37
        E 202 89 29 40 37
        E 38 99 1a 7f 44
        E 42 b9 04 00
        E 154 b9 04 12
        E 4 89 1a 40 44
        E 4 b9 04 27
        E 8 b9 04 38
        E 28 99 2c 0e 18
        E 0 99 24 7f 54
        E 0 99 29 7f 86
        E 12 b9 04 49
        E 4 b9 04 4c
        E 102 b9 04 57
        E 52 b9 04 47
        E 29 89 29 40 86
        E 1 89 2c 40 18
        E 0 89 24 40 54
        E 14 b9 04 36
        E 56 b9 04 25
        E 104 b9 04 1a
        E 106 99 29 7f 82
        E 202 89 29 40 82
        E 278 99 26 7f 78
        E 0 99 29 7f 112
        E 77 b9 04 12
        E 123 89 26 40 78
        E 0 89 29 40 112
        E 238 b9 04 09
        E 42 99 29 7f 78
        E 200 89 29 40 78
        E 42 b9 04 12
        E 238 99 29 7f 66
        E 0 99 24 7f 76
        E 136 b9 04 0c
        E 66 89 29 40 66
        E 2 89 24 40 76
        E 276 99 24 49 68
        E 0 99 29 7f 78
        E 120 89 24 40 68
        E 80 89 29 40 78
        E 40 99 24 22 -50
        E 200 89 24 40 -50
        E 40 99 26 7f 40
        E 0 99 29 7f 84
        E 200 89 26 40 40
        E 0 89 29 40 84
        E 82 b9 04 03
        E 10 b9 04 00
        E 188 99 29 7f 60
        E 158 b9 04 0c
        E 44 89 29 40 60
        E 38 99 30 7f -20
        E 204 89 30 40 -20
        E 36 99 24 7f 9
        E 0 99 2d 7f 80
        E 201 89 24 40 9
        E 5 89 2d 40 80
        E 2 b9 04 18
        E 32 99 30 67 -28
        E 0 99 30 2b 44
        E 70 89 30 40 -28
        E 132 89 30 40 44
        E 38 99 24 5b 4
        E 0 99 2d 7f 32
        E 200 89 24 40 4
        E 2 89 2d 40 32
        E 46 b9 04 0f
        E 232 99 26 6d 20
        E 0 99 29 7f 58
        E 128 b9 04 06
        E 72 89 26 40 20
        E 2 89 29 40 58
        E 170 b9 04 00
        E 108 99 29 7f 62
        E 198 b9 04 0c
        E 2 89 29 40 62
        E 280 99 29 7f 88
        E 0 99 24 7f 100
        E 200 89 29 40 88
        E 0 89 24 40 100
        E 280 99 24 4a 72
        E 0 99 29 7f 78
        E 200 89 24 40 72
        E 0 89 29 40 78
        E 280 99 26 7f 20
        E 0 99 29 7f 82
        E 200 89 29 40 82
        E 2 89 26 40 20
        E 278 99 29 7f 90
        E 0 99 26 6c 106
        E 200 89 29 40 90
        E 0 89 26 40 106
        E 6 b9 04 00
        E 274 99 2e 7f 70
        E 68 b9 04 09
        E 4 b9 04 12
        E 10 b9 04 25
        E 8 b9 04 36
        E 66 b9 04 46
        E 18 b9 04 4c
        E 28 89 2e 40 70
        E 38 99 24 7a -94
        E 0 99 29 7f -86
        E 0 99 2c 08 -64
        E 66 b9 04 36
        E 120 b9 04 27
        E 14 89 29 40 -86
        E 2 89 24 40 -94
        E 0 89 2c 40 -64
        E 142 b9 04 1d
        E 136 99 29 7f -118
        E 200 89 29 40 -118
        E 40 99 26 7c 108
        E 164 b9 04 15
        E 36 89 26 40 108
        E 40 99 29 7f -112
        E 180 b9 04 0f
        E 22 89 29 40 -112
        E 38 99 29 7f 108
        E 82 b9 04 09
        E 118 89 29 40 108
        E 124 b9 04 0f
        E 396 99 29 7f -102
        E 0 99 24 7f -70
        E 200 89 29 40 -102
        E 2 89 24 40 -70
        E 38 99 24 44 90
        E 0 99 29 7f 96
        E 200 89 24 40 90
        E 4 89 29 40 96
        E 276 99 26 7f 84
        E 0 99 29 7f 112
        E 200 89 29 40 112
        E 2 89 26 40 84
        E 134 b9 04 03
        E 45 b9 04 00
        E 99 99 29 7f 82
        E 116 b9 04 0f
        E 83 89 29 40 82
        E 41 99 30 79 6
        E 200 89 30 40 6
        E 40 90 34 7f
        E 0 99 24 7e -4
        E 0 99 29 69
        E 120 b9 04 1d
        E 80 89 29 40
        E 2 89 24 40 -4
        E 38 80 34 00
        E 240 99 24 4f -36
        E 0 99 29 69 40
        E 200 89 29 40 40
        E 2 89 24 40 -36
        E 278 90 26 7f
        E 0 99 29 69 40
        E 44 b9 04 00
        E 12 b9 04 06
        E 144 89 29 40 40
        E 40 80 26 00
        E 0 99 26 57 -118
        E 108 89 26 40 -118
        E 132 99 29 69 68
        E 200 89 29 40 68
        E 94 b9 04 09
        E 186 99 29 69 66
        E 40 99 24 72
        E 160 89 29 40 66
        E 40 89 24 40
        E 240 99 24 4a 64
        E 0 99 29 69 70
        E 40 99 24 22
        E 62 89 24 40 64
        E 98 89 29 40 70
        E 40 89 24 40
        E 240 99 26 7f 20
        E 0 99 29 69 64
        E 200 89 26 40 20
        E 0 89 29 40 64
        E 238 b9 04 03
        E 6 b9 04 00
        E 36 99 29 69 44
        E 200 89 29 40 44
        E 40 99 2e 7f 22
        E 20 b9 04 00
        E 152 b9 04 12
        E 8 b9 04 22
        E 4 b9 04 34
        E 15 89 2e 40 22
        E 29 b9 04 44
        E 12 99 2c 0e 4
        E 0 99 29 69 56
        E 0 99 24 7f 58
        E 2 b9 04 4c
        E 28 b9 04 54
        E 170 89 2c 40 4
        E 1 89 29 40 56
        E 0 89 24 40 58
        E 5 b9 04 44
        E 76 b9 04 34
        E 156 b9 04 29
        E 42 99 29 69 28
        E 200 89 29 40 28
        E 34 b9 04 1d
        E 246 99 26 7f 40
        E 0 99 29 69 60
        E 199 89 26 40 40
        E 1 89 29 40 60
        E 14 b9 04 18
        E 190 b9 04 0f
        E 76 99 29 69 47
        E 203 89 29 40 47
        E 277 99 29 69 56
        E 0 99 24 7f 86
        E 200 89 24 40 86
        E 1 89 29 40 56
        E 279 99 24 4c
        E 0 99 29 69 31
        E 200 89 24 40
        E 1 89 29 40 31
        E 279 99 26 7f -16
        E 0 99 29 69 30
        E 202 89 26 40 -16
        E 0 89 29 40 30
        E 92 b9 04 03
        E 6 b9 04 00
        E 180 99 29 69 -12
        E 136 b9 04 0c
        E 65 89 29 40 -12
        E 39 99 30 69 -88
        E 202 89 30 40 -88
        E 38 99 24 7f -30
        E 0 99 2d 6d 1
        E 128 b9 04 1a
        E 74 89 24 40 -30
        E 1 89 2d 40 1
        E 37 99 30 61 -58
        E 0 99 30 2c 20
        E 50 b9 04 25
        E 26 89 30 40 -58
        E 124 89 30 40 20
        E 40 99 24 57 -68
        E 0 99 2d 6d -42
        E 16 b9 04 1a
        E 170 b9 04 12
        E 14 89 24 40 -68
        E 0 89 2d 40 -42
        E 280 99 26 7d -82
        E 0 99 29 69 -18
        E 70 b9 04 0c
        E 130 89 29 40 -18
        E 2 89 26 40 -82
        E 178 b9 04 03
        E 100 99 29 69 -28
        E 182 b9 04 0f
        E 18 89 29 40 -28
        E 280 99 29 69 -2
        E 0 99 24 7f 12
        E 200 89 29 40 -2
        E 0 89 24 40 12
        E 280 99 29 69 -24
        E 0 99 24 4e -19
        E 0 99 24 20 78
        E 95 89 24 40 -19
        E 105 89 29 40 -24
        E 0 89 24 40 78
        E 280 99 26 7f -38
        E 0 99 29 69 -6
        E 200 89 29 40 -6
        E 2 89 26 40 -38
        E 192 b9 04 03
        E 40 b9 04 00
        E 46 99 29 69 -11
        E 182 b9 04 00
        E 19 89 29 40 -11
        E 39 99 1a 7f -56
        E 164 b9 04 12
        E 10 b9 04 25
        E 26 89 1a 40 -56
        E 14 b9 04 36
        E 22 b9 04 46
        E 4 99 24 7f 3
        E 0 99 29 69 18
        E 0 99 2c 0a 24
        E 19 b9 04 4c
        E 159 b9 04 36
        E 22 89 29 40 18
        E 2 89 2c 40 24
        E 1 89 24 40 3
        E 73 b9 04 25
        E 130 b9 04 1d
        E 74 99 29 69 16
        E 112 b9 04 25
        E 87 89 29 40 16
        E 26 b9 04 1d
        E 255 99 26 7f 24
        E 0 99 29 69 32
        E 38 b9 04 18
        E 162 89 26 40 24
        E 0 89 29 40 32
        E 104 b9 04 0c
        E 166 b9 04 06
        E 10 99 29 69 12
        E 200 89 29 40 12
        E 70 b9 04 0c
        E 210 99 29 69 32
        E 0 99 24 7f 54
        E 200 89 29 40 32
        E 2 89 24 40 54
        E 56 b9 04 12
        E 222 99 24 4d 18
        E 0 99 29 69 34
        E 116 89 24 40 18
        E 84 89 29 40 34
        E 40 99 24 20 -102
        E 200 89 24 40 -102
        E 22 b9 04 06
        E 18 99 26 7f -16
        E 0 99 29 69 28
        E 94 b9 04 00
        E 105 89 29 40 28
        E 2 89 26 40 -16
        E 279 99 29 69 15
        E 94 b9 04 12
        E 107 89 29 40 15
        E 39 99 30 77 -50
        E 20 b9 04 1a
        E 162 b9 04 0f
        E 20 89 30 40 -50
        E 38 99 24 7f -28
        E 0 99 2d 6d 40
        E 144 b9 04 1d
        E 56 89 24 40 -28
        E 2 89 2d 40 40
        E 38 99 30 51 -16
        E 0 99 30 24 74
        E 8 b9 04 2e
        E 80 89 30 40 -16
        E 114 89 30 40 74
        E 38 99 24 5a -42
        E 0 99 2d 6d -12
        E 74 b9 04 25
        E 107 b9 04 1a
        E 19 89 24 40 -42
        E 0 89 2d 40 -12
        E 148 b9 04 12
        E 132 90 32 7f
        E 0 99 26 7f -42
        E 0 99 29 69 6
        E 88 b9 04 06
        E 112 89 29 40 6
        E 4 89 26 40 -42
        E 36 80 32 00
        E 32 b9 04 00
        E 208 99 29 69 10
        E 144 b9 04 0f
        E 56 89 29 40 10
        E 280 99 29 69 18
        E 0 99 24 7f 54
        E 42 b9 04 09
        E 160 89 29 40 18
        E 0 89 24 40 54
        E 20 b9 04 12
        E 258 99 29 69 24
        E 0 99 24 52 32
        E 102 89 24 40 32
        E 100 89 29 40 24
        E 38 99 24 21 -102
        E 182 b9 04 0c
        E 16 89 24 40 -102
        E 42 99 26 7f -16
        E 0 99 29 69 22
        E 200 89 29 40 22
        E 2 89 26 40 -16
        E 78 b9 04 06
        E 200 99 29 69 -4
        E 6 b9 04 00
        E 196 89 29 40 -4
        E 18 b9 04 00
        E 20 99 2e 7f -18
        E 116 b9 04 12
        E 8 b9 04 25
        E 6 b9 04 36
        E 44 b9 04 46
        E 20 b9 04 4c
        E 6 89 2e 40 -18
        E 40 99 2c 0c -44
        E 0 99 24 7f -2
        E 0 99 29 69 12
        E 44 b9 04 4d
        E 42 b9 04 3c
        E 38 b9 04 2c
        E 76 89 24 40 -2
        E 1 89 2c 40 -44
        E 1 89 29 40 12
        E 38 b9 04 1d
        E 238 b9 04 2e
        E 2 99 29 69 12
        E 200 89 29 40 12
        E 78 b9 04 27
        E 119 b9 04 1a
        E 83 99 26 7f 12
        E 0 99 29 69 26
        E 200 89 26 40 12
        E 2 89 29 40 26
        E 158 b9 04 0f
        E 120 99 29 69 44
        E 200 89 29 40 44
        E 28 b9 04 15
        E 252 99 29 69 46
        E 0 99 24 7f 72
        E 200 89 29 40 46
        E 0 89 24 40 72
        E 280 99 24 4f 26
        E 0 99 29 69 40
        E 200 89 24 40 26
        E 0 89 29 40 40
        E 254 b9 04 0f
        E 26 99 26 7b 2
        E 0 99 29 69 34
        E 200 89 26 40 2
        E 2 89 29 40 34
        E 8 b9 04 03
        E 36 b9 04 00
        E 234 99 29 69 16
        E 26 b9 04 12
        E 176 89 29 40 16
        E 4 b9 04 1a
        E 34 99 31 7f -82
        E 134 b9 04 09
        E 68 89 31 40 -82
        E 38 99 24 7f -14
        E 0 99 2d 6d 13
        E 0 99 29 57 16
        E 164 b9 04 15
        E 38 89 24 40 -14
        E 0 89 29 40 16
        E 1 89 2d 40 13
        E 277 99 24 4c -60
        E 0 99 2d 6d 5
        E 100 b9 04 0f
        E 100 89 24 40 -60
        E 3 89 2d 40 5
        E 277 90 30 6d
        E 0 99 26 7f -12
        E 0 99 29 69 -2
        E 0 99 26 36 80
        E 88 89 26 40 -12
        E 2 b9 04 06
        E 108 89 26 40 80
        E 2 89 29 40 -2
        E 40 80 30 00
        E 240 99 29 69 32
        E 128 b9 04 0f
        E 74 89 29 40 32
        E 200 b9 04 03
        E 16 b9 04 00
        E 62 99 24 7f -42
        E 0 99 29 69 2
        E 176 b9 04 0c
        E 23 89 29 40 2
        E 3 89 24 40 -42
        E 278 99 29 69 -31
        E 203 89 29 40 -31
        E 277 99 26 7f -42
        E 0 99 29 69 -4
        E 200 89 26 40 -42
        E 2 89 29 40 -4
        E 90 b9 04 03
        E 188 99 29 69 -24
        E 104 b9 04 0c
        E 96 89 29 40 -24
        E 40 99 26 3e -32
        E 186 b9 04 06
        E 14 89 26 40 -32
        E 40 99 24 7f -46
        E 0 99 29 69 -23
        E 128 b9 04 0f
        E 73 89 29 40 -23
        E 2 89 24 40 -46
        E 277 99 24 4b -76
        E 0 99 29 69 -38
        E 200 89 24 40 -76
        E 0 89 29 40 -38
        E 280 99 26 7f -38
        E 0 99 29 69 -20
        E 200 89 26 40 -38
        E 0 89 29 40 -20
        E 46 b9 04 06
        E 234 99 29 69 -14
        E 154 b9 04 0f
        E 48 89 29 40 -14
        E 278 99 29 69 -10
        E 0 99 24 7f -4
        E 50 b9 04 09
        E 150 89 29 40 -10
        E 4 89 24 40 -4
        E 276 99 29 69 -24
        E 200 89 29 40 -24
        E 280 99 26 7e -22
        E 0 99 29 69 8
        E 200 89 29 40 8
        E 2 89 26 40 -22
        E 98 b9 04 00
        E 180 99 29 69 -12
        E 106 b9 04 0c
        E 98 89 29 40 -12
        E 36 99 30 77 -71
        E 201 89 30 40 -71
        E 39 99 24 7f -49
        E 0 99 2d 6d 26
        E 160 b9 04 18
        E 41 89 24 40 -49
        E 1 89 2d 40 26
        E 38 99 30 60 -79
        E 0 99 30 11 28
        E 105 89 30 40 -79
        E 95 89 30 40 28
        E 40 99 24 5b -76
        E 0 99 2d 6d -32
        E 191 b9 04 0c
        E 9 89 24 40 -76
        E 0 89 2d 40 -32
        E 280 90 34 7f
        E 0 99 26 7f -58
        E 0 99 29 69 -17
        E 74 b9 04 03
        E 44 b9 04 00
        E 82 89 26 40 -58
        E 3 89 29 40 -17
        E 37 80 34 00
        E 240 99 29 69 -24
        E 114 b9 04 0c
        E 88 89 29 40 -24
        E 79 b9 04 12
        E 199 99 29 69 -14
        E 0 99 24 7f 18
        E 47 b9 04 09
        E 152 89 29 40 -14
        E 1 89 24 40 18
        E 280 99 24 4f -39
        E 0 99 29 69 -22
        E 200 89 24 40 -39
        E 0 89 29 40 -22
        E 280 99 26 7f -8
        E 0 99 29 69 20
        E 136 b9 04 0f
        E 63 89 26 40 -8
        E 1 89 29 40 20
        E 162 b9 04 00
        E 118 99 29 69 -18
        E 0 99 29 16 88
        E 103 89 29 40 -18
        E 91 b9 04 00
        E 6 89 29 40 88
        E 40 99 2e 7f -44
        E 202 89 2e 40 -44
        E 38 99 2c 4a
        E 0 99 24 7f -22
        E 0 99 29 69 12
        E 46 b9 04 5a
        E 32 b9 04 12
        E 6 b9 04 27
        E 2 b9 04 38
        E 4 b9 04 4a
        E 2 b9 04 4f
        E 4 b9 04 5a
        E 14 b9 04 4a
        E 19 b9 04 5a
        E 1 b9 04 3a
        E 46 b9 04 6a
        E 24 89 29 40 12
        E 2 89 2c 40
        E 0 89 24 40 -22
        E 132 b9 04 29
        E 122 b9 04 1d
        E 24 99 24 0a -68
        E 0 99 29 69 28
        E 199 89 24 40 -68
        E 3 89 29 40 28
        E 278 99 26 7f 3
        E 0 99 29 69 18
        E 200 89 26 40 3
        E 0 89 29 40 18
        E 71 b9 04 12
        E 209 99 29 69 9
        E 201 89 29 40 9
        E 43 b9 04 1a
        E 236 99 29 69 25
        E 0 99 24 7f 37
        E 41 b9 04 12
        E 159 89 29 40 25
        E 3 89 24 40 37
        E 277 99 24 50 -24
        E 0 99 29 69 6
        E 202 89 29 40 6
        E 2 89 24 40 -24
        E 276 99 26 7f -32
        E 0 99 29 69 21
        E 153 b9 04 00
        E 47 89 29 40 21
        E 2 89 26 40 -32
        E 278 99 29 69 -28
        E 98 b9 04 12
        E 104 89 29 40 -28
        E 38 99 26 59 -54
        E 46 b9 04 1d
        E 154 89 26 40 -54
        E 40 99 24 7f -4
        E 0 99 31 7f -2
        E 50 b9 04 25
        E 134 b9 04 36
        E 18 89 24 40 -4
        E 0 89 31 40 -2
        E 278 99 24 4b -51
        E 0 99 29 69
        E 4 b9 04 27
        E 114 b9 04 1a
        E 82 89 29 40
        E 3 89 24 40 -51
        E 72 b9 04 12
        E 169 b9 04 09
        E 36 99 26 7f -14
        E 0 99 29 69 16
        E 199 89 26 40 -14
        E 1 89 29 40 16
        E 280 99 29 69 -21
        E 201 89 29 40 -21
        E 254 b9 04 00
        E 25 99 29 69 -12
        E 0 99 24 6e 32
        E 202 89 29 40 -12
        E 0 89 24 40 32
        E 20 b9 04 09
        E 258 99 24 43 -12
        E 0 99 29 69 -4
        E 0 99 24 1f 79
        E 89 89 24 40 -12
        E 111 89 29 40 -4
        E 1 89 24 40 79
        E 279 99 26 7f -2
        E 0 99 29 69 24
        E 150 b9 04 00
        E 50 89 26 40 -2
        E 2 89 29 40 24
        E 278 99 29 69 -31
        E 16 b9 04 0f
        E 166 b9 04 15
        E 21 89 29 40 -31
        E 37 99 30 77 -70
        E 159 b9 04 0f
        E 42 89 30 40 -70
        E 39 99 24 7f -104
        E 0 99 2d 6d -15
        E 44 b9 04 20
        E 149 b9 04 29
        E 7 89 2d 40 -15
        E 2 89 24 40 -104
        E 38 99 30 61 -86
        E 0 99 30 1e 9
        E 91 89 30 40 -86
        E 92 b9 04 18
        E 17 89 30 40 9
        E 40 99 24 60 -114
        E 0 99 2d 6d -50
        E 178 b9 04 0f
        E 22 89 24 40 -114
        E 0 89 2d 40 -50
        E 198 b9 04 09
        E 82 90 38 7f
        E 0 99 26 7f -70
        E 0 99 29 69 -27
        E 157 b9 04 03
        E 45 89 26 40 -70
        E 0 89 29 40 -27
        E 30 b9 04 00
        E 8 80 38 00
        E 240 99 29 5b -26
        E 124 b9 04 09
        E 76 89 29 40 -26
        E 280 99 29 69 -18
        E 0 99 24 7f -15
        E 200 89 29 40 -18
        E 1 89 24 40 -15
        E 48 b9 04 0f
        E 231 99 24 4c -25
        E 0 99 29 69 -8
        E 0 99 24 1e 81
        E 104 89 24 40 -25
        E 96 89 29 40 -8
        E 0 89 24 40 81
        E 80 b9 04 09
        E 200 99 26 7f -64
        E 0 99 29 69 -4
        E 106 b9 04 03
        E 94 89 26 40 -64
        E 2 89 29 40 -4
        E 10 b9 04 00
        E 268 99 29 69 -28
        E 97 b9 04 0f
        E 103 89 29 40 -28
        E 40 99 30 60 -64
        E 200 89 30 40 -64
        E 40 99 24 7f -36
        E 0 99 2d 6d -12
        E 115 b9 04 1d
        E 85 89 2d 40 -12
        E 2 89 24 40 -36
        E 38 99 30 42 -86
        E 201 89 30 40 -86
        E 39 99 24 69 -60
        E 0 99 2d 6d -58
        E 101 b9 04 12
        E 101 89 24 40 -60
        E 0 89 2d 40 -58
        E 230 b9 04 0c
        E 48 90 37 7f
        E 0 99 26 7f -92
        E 0 99 29 69 -24
        E 116 b9 04 03
        E 9 b9 04 00
        E 75 89 26 40 -92
        E 2 89 29 40 -24
        E 38 80 37 00
        E 240 99 29 69 -44
        E 120 b9 04 09
        E 80 89 29 40 -44
        E 280 99 29 69 -41
        E 0 99 24 7c -4
        E 200 89 29 40 -41
        E 2 89 24 40 -4
        E 278 99 29 69 -46
        E 0 99 24 47 -34
        E 0 99 24 1d 56
        E 88 89 24 40 -34
        E 112 89 29 40 -46
        E 0 89 24 40 56
        E 280 99 26 7f -21
        E 0 99 29 69 3
        E 36 b9 04 00
        E 165 89 26 40 -21
        E 0 89 29 40 3
        E 279 99 29 69 -36
        E 0 99 29 18 59
        E 63 b9 04 0f
        E 31 89 29 40 -36
        E 105 89 29 40 59
        E 41 99 30 6f -55
        E 201 89 30 40 -55
        E 39 99 24 7f -66
        E 0 99 2d 6d -7
        E 191 b9 04 1d
        E 11 89 24 40 -66
        E 1 89 2d 40 -7
        E 37 99 30 66 -35
        E 0 99 30 29 44
        E 76 89 30 40 -35
        E 35 b9 04 22
        E 91 89 30 40 44
        E 38 99 24 66 -56
        E 0 99 2d 6d -50
        E 56 b9 04 18
        E 142 b9 04 0f
        E 1 89 2d 40 -50
        E 2 89 24 40 -56
        E 160 b9 04 09
        E 119 99 26 7f -56
        E 0 99 29 69 -2
        E 200 89 29 40 -2
        E 1 89 26 40 -56
        E 89 b9 04 00
        E 190 99 29 65 -29
        E 177 b9 04 06
        E 25 89 29 40 -29
        E 278 99 29 69 -13
        E 0 99 24 7f 29
        E 201 89 29 40 -13
        E 0 89 24 40 29
        E 279 99 29 69 -14
        E 0 99 24 4d 6
        E 0 99 24 1e 94
        E 86 89 24 40 6
        E 113 89 24 40 94
        E 3 89 29 40 -14
        E 278 99 26 7f -4
        E 0 99 29 69 17
        E 133 b9 04 00
        E 70 89 29 40 17
        E 1 89 26 40 -4
        E 276 99 29 69 -6
        E 96 b9 04 0c
        E 104 89 29 40 -6
        E 40 99 30 77 -45
        E 28 b9 04 12
        E 175 89 30 40 -45
        E 13 b9 04 09
        E 24 99 24 7f -50
        E 0 99 2d 6d 34
        E 178 b9 04 12
        E 22 89 2d 40 34
        E 2 89 24 40 -50
        E 38 99 30 5a
        E 104 b9 04 18
        E 98 89 30 40
        E 38 99 24 6a -47
        E 0 99 2d 6d -24
        E 158 b9 04 0f
        E 42 89 2d 40 -24
        E 3 89 24 40 -47
        E 219 b9 04 06
        E 58 99 26 78 -29
        E 0 99 29 69 8
        E 0 99 2e 7f
        E 81 b9 04 00
        E 35 b9 04 12
        E 8 b9 04 25
        E 6 b9 04 36
        E 44 b9 04 46
        E 20 b9 04 4c
        E 6 89 2e 40
        E 2 89 29 40 8
        E 1 89 26 40 -29
        E 277 99 2c 0c
        E 0 99 29 69 -2
        E 44 b9 04 4d
        E 42 b9 04 3c
        E 38 b9 04 2c
        E 18 b9 04 0c
        E 59 89 2c 40
        E 0 89 29 40 -2
        E 279 99 29 69 9
        E 0 99 24 7f 38
        E 44 b9 04 06
        E 157 89 29 40 9
        E 0 89 24 40 38
        E 279 99 24 47 -14
        E 0 99 29 69 18
        E 199 89 24 40 -14
        E 1 89 29 40 18
        E 280 99 26 7f -6
        E 0 99 29 69 35
        E 126 b9 04 00
        E 73 89 26 40 -6
        E 2 89 29 40 35
        E 279 99 29 69 -24
        E 94 b9 04 09
        E 105 89 29 40 -24
        E 41 99 30 6b -35
        E 203 89 30 40 -35
        E 37 99 24 7f -90
        E 0 99 2d 6d 6
        E 147 b9 04 15
        E 52 89 2d 40 6
        E 5 89 24 40 -90
        E 36 99 30 61 -12
        E 66 b9 04 1a
        E 136 89 30 40 -12
        E 38 99 24 66 -85
        E 0 99 2d 6d -31
        E 110 b9 04 12
        E 91 89 2d 40 -31
        E 1 89 24 40 -85
        E 177 b9 04 0c
        E 101 90 3a 7f
        E 0 99 26 7f -24
        E 0 99 29 69 3
        E 156 b9 04 03
        E 45 89 26 40 -24
        E 0 89 29 40 3
        E 39 80 3a 00
        E 8 b9 04 00
        E 232 99 29 69 -1
        E 176 b9 04 09
        E 26 89 29 40 -1
        E 278 99 29 69 -1
        E 0 99 24 7f 29
        E 202 89 29 40 -1
        E 1 89 24 40 29
        E 277 99 24 49 -16
        E 0 99 29 69 -4
        E 199 89 24 40 -16
        E 2 89 29 40 -4
        E 279 99 26 7f -24
        E 0 99 29 69 10
        E 199 89 29 40 10
        E 3 89 26 40 -24
        E 18 b9 04 00
        E 260 99 29 69 -18
        E 48 b9 04 0c
        E 151 89 29 40 -18
        E 13 b9 04 12
        E 28 99 30 77 -53
        E 197 b9 04 09
        E 3 89 30 40 -53
        E 40 99 24 7f -51
        E 0 99 2d 7f
        E 146 b9 04 15
        E 54 89 2d 40
        E 3 89 24 40 -51
        E 37 99 30 6c -11
        E 0 99 30 3b 46
        E 53 89 30 40 -11
        E 11 b9 04 1d
        E 133 89 30 40 46
        E 43 99 24 5e -56
        E 0 99 2d 7f -38
        E 143 b9 04 15
        E 56 89 2d 40 -38
        E 3 89 24 40 -56
        E 175 b9 04 09
        E 103 99 26 78 -64
        E 0 99 29 7f -16
        E 200 89 26 40 -64
        E 0 89 29 40 -16
        E 4 b9 04 00
        E 276 99 29 7f -19
        E 196 b9 04 06
        E 7 89 29 40 -19
        E 277 99 29 7f -4
        E 0 99 24 7f 41
        E 199 89 29 40 -4
        E 1 89 24 40 41
        E 280 99 24 43 -32
        E 0 99 29 7f -5
        E 200 89 24 40 -32
        E 0 89 29 40 -5
        E 280 99 26 7f -49
        E 0 99 29 7f
        E 112 b9 04 00
        E 88 89 29 40
        E 2 89 26 40 -49
        E 278 99 29 7f
        E 109 b9 04 0c
        E 91 89 29 40
        E 40 99 30 71 -81
        E 0 99 30 21 41
        E 121 89 30 40 -81
        E 79 89 30 40 41
        E 35 b9 04 03
        E 5 99 24 7f -42
        E 0 99 2d 7f 12
        E 171 b9 04 0f
        E 28 89 24 40 -42
        E 0 89 2d 40 12
        E 41 99 30 4f -47
        E 0 99 30 30 29
        E 72 89 30 40 -47
        E 127 89 30 40 29
        E 41 99 24 4e -76
        E 0 99 2d 7f -24
        E 202 89 2d 40 -24
        E 1 89 24 40 -76
        E 37 99 30 5c -16
        E 202 89 30 40 -16
        E 38 99 29 2f -39
        E 0 99 2d 7f -31
        E 200 89 2d 40 -31
        E 2 89 29 40 -39
        E 28 b9 04 03
        E 31 b9 04 00
        E 219 99 29 7f -23
        E 154 b9 04 06
        E 47 89 29 40 -23
        E 39 99 26 6b -34
        E 80 b9 04 00
        E 119 89 26 40 -34
        E 41 99 29 7f 11
        E 0 99 24 5a 43
        E 0 99 29 4e 86
        E 71 89 29 40 11
        E 126 89 29 40 86
        E 3 89 24 40 43
        E 40 99 26 5f -18
        E 0 99 26 25 74
        E 41 b9 04 0c
        E 49 89 26 40 -18
        E 112 89 26 40 74
        E 38 99 24 4b -24
        E 0 99 29 1d 13
        E 0 99 2d 7f 19
        E 197 b9 04 18
        E 2 89 24 40 -24
        E 4 89 29 40 13
        E 2 89 2d 40 19
        E 35 99 30 59 -18
        E 0 99 30 37 47
        E 63 89 30 40 -18
        E 137 89 30 40 47
        E 40 99 33 77 -53
        E 0 99 33 2b 104
        E 155 89 33 40 -53
        E 44 89 33 40 104
        E 41 99 26 53 -81
        E 128 b9 04 0f
        E 74 89 26 40 -81
        E 38 99 26 7f -40
        E 200 89 26 40 -40
        E 40 99 26 4f -69
        E 200 89 26 40 -69
        E 40 99 26 7f -37
        E 205 89 26 40 -37
        E 35 99 26 44 -29
        E 202 89 26 40 -29
        E 38 99 26 7f -36
        E 204 89 26 40 -36
        E 36 99 26 53 -21
        E 201 89 26 40 -21
        E 39 99 26 7f -15
        E 201 89 26 40 -15
        E 39 99 26 48 -40
        E 199 89 26 40 -40
        E 41 99 26 76 -19
        E 190 89 26 40 -19
        E 50 99 26 4a -67
        E 200 89 26 40 -67
        E 40 99 26 7f -17
        E 169 b9 04 15
        E 32 89 26 40 -17
        E 39 99 26 72 -35
        E 203 89 26 40 -35
        E 37 99 26 65 41
        E 203 89 26 40 41
        E 37 99 24 41 -120
        E 0 99 24 22 -27
        E 0 99 26 3f 88
        E 91 89 24 40 -120
        E 24 b9 04 1d
        E 37 89 26 40 88
        E 49 89 24 40 -27
        E 39 99 26 5d 1
        E 201 89 26 40 1
        E 39 99 26 47 -31
        E 8 b9 04 27
        E 195 89 26 40 -31
        E 37 99 26 7f 27
        E 151 b9 04 1a
        E 50 89 26 40 27
        E 39 99 24 67 -62
        E 0 99 26 46 24
        E 0 99 24 28 37
        E 97 89 24 40 -62
        E 103 89 26 40 24
        E 0 89 24 40 37
        E 40 99 26 7f 47
        E 110 89 26 40 47
        E 130 99 26 2a -81
        E 0 99 26 54 65
        E 144 89 26 40 -81
        E 56 89 26 40 65
        E 6 b9 04 20
        E 34 99 26 7a 79
        E 0 99 24 4f 97
        E 146 89 24 40 97
        E 46 89 26 40 79
        E 27 b9 04 1a
        E 21 99 24 20 5
        E 0 99 26 56 33
        E 201 89 24 40 5
        E 0 89 26 40 33
        E 39 99 26 6d 80
        E 179 89 26 40 80
        E 61 99 26 39 21
        E 0 99 26 21 91
        E 68 89 26 40 21
        E 132 89 26 40 91
        E 40 99 26 72 55
        E 0 99 24 3f 109
        E 174 89 26 40 55
        E 27 89 24 40 109
        E 39 99 26 3a -9
        E 0 99 26 20 72
        E 0 99 24 14 111
        E 81 89 26 40 -9
        E 118 89 26 40 72
        E 3 89 24 40 111
        E 35 b9 04 25
        E 3 99 26 6c 40
        E 159 b9 04 30
        E 18 89 26 40 40
        E 63 99 26 3e -21
        E 0 99 26 26 47
        E 0 99 2c 04 117
        E 44 b9 04 41
        E 22 89 26 40 -21
        E 49 b9 04 4c
        E 32 b9 04 51
        E 53 89 26 40 47
        E 0 89 2c 40 117
        E 40 99 24 7f 9
        E 0 99 31 7f 81
        E 27 b9 04 5d
        E 175 89 31 40 81
        E 1 89 24 40 9
        E 166 b9 04 64
        E 122 b9 04 54
        E 24 b9 04 44
        E 22 b9 04 34
        E 18 b9 04 22
        E 24 b9 04 12
        E 28 b9 04 00
        E 8428 b0 7b 00
        GUID {B47AA600-2DBD-4449-89A2-01832EFAA2CC}
        IGNTEMPO 0 120 4 4
        SRCCOLOR 151
        VELLANE -1 100 0
        CFGEDITVIEW 329854.512472 0.074447 59 12 0 -1 0 0 0 0.5
        KEYSNAP 0
        TRACKSEL -252
        EVTFILTER 0 -1 -1 -1 -1 0 0 0 0 -1 -1 -1 -1 0 -1 0 -1 -1
        CFGEDIT 1 1 0 1 0 0 1 1 1 1 1 0.25 320 95 2496 860 0 0 0 0 0 0 0 0 0 0.5 0 0 1 64
      >
    >
    <ITEM
      POSITION 314.88000000002307
      SNAPOFFS 0
      LENGTH 30.72
      LOOP 1
      ALLTAKES 0
      FADEIN 1 0 0 1 0 0
      FADEOUT 1 0 0 1 0 0
      MUTE 0
      SEL 0
      IGUID {CA6EEF51-1C75-45FB-B396-BA92A0EE3396}
      IID 5
      NAME "02-EZdrummer-Recorded MIDI"
      VOLPAN 1 0 1 -1
      SOFFS 133.92 279
      PLAYRATE 1 1 0 -1 0 0.0025
      CHANMODE 0
      GUID {7C195E55-FDE8-4A65-9E6B-75DF6D1C7AEF}
      RECPASS 2
      <SOURCE MIDI
        HASDATA 1 960 QN
        POOLEDEVTS {7257FDB9-FDB7-472A-B2D5-E471D0E96F21}
        E 15360 99 24 4a 32
        E 0 99 29 5a 50
        E 90 89 24 40 32
        E 112 89 29 40 50
        E 38 99 24 21 -116
        E 200 89 24 40 -116
        E 40 99 29 51 16
        E 200 89 29 40 16
        E 280 99 26 7f 24
        E 0 99 29 7f 46
        E 200 89 26 40 24
        E 0 89 29 40 46
        E 280 99 29 57 -4
        E 200 89 29 40 -4
        E 280 99 29 66 19
        E 0 99 24 51 38
        E 200 89 24 40 38
        E 1 89 29 40 19
        E 279 99 29 5a 2
        E 0 99 24 3b 34
        E 198 89 24 40 34
        E 4 89 29 40 2
        E 38 99 24 1a -6
        E 198 89 24 40 -6
        E 42 99 29 6b 59
        E 0 99 26 6c 60
        E 199 89 29 40 59
        E 1 89 26 40 60
        E 280 99 29 6a 36
        E 200 89 29 40 36
        E 280 99 29 78 74
        E 0 99 24 49 88
        E 146 89 24 40 88
        E 54 89 29 40 74
        E 40 99 24 20 -5
        E 201 89 24 40 -5
        E 39 99 29 4f 40
        E 202 89 29 40 40
        E 278 99 26 7e 32
        E 0 99 29 7e 50
        E 199 89 26 40 32
        E 1 89 29 40 50
        E 280 99 29 4d 20
        E 200 89 29 40 20
        E 280 99 29 7b 14
        E 0 99 24 53 18
        E 200 89 29 40 14
        E 2 89 24 40 18
        E 278 99 24 40 -10
        E 0 99 29 72 8
        E 182 89 24 40 -10
        E 18 89 29 40 8
        E 40 99 24 20 -66
        E 200 89 24 40 -66
        E 40 99 26 7d 26
        E 0 99 29 7b 38
        E 200 89 26 40 26
        E 0 89 29 40 38
        E 280 99 29 69 11
        E 201 89 29 40 11
        E 279 99 24 51 36
        E 0 99 29 77 44
        E 200 89 24 40 36
        E 0 89 29 40 44
        E 280 99 24 35 -116
        E 0 99 24 14 8
        E 0 99 29 68 14
        E 122 89 24 40 -116
        E 76 89 24 40 8
        E 2 89 29 40 14
        E 280 99 26 78 20
        E 0 99 29 7c 38
        E 202 89 26 40 20
        E 2 89 29 40 38
        E 276 99 29 5d 49
        E 203 89 29 40 49
        E 277 99 24 4a 60
        E 0 99 29 7f 76
        E 168 89 24 40 60
        E 32 89 29 40 76
        E 40 99 24 21 -10
        E 198 89 24 40 -10
        E 42 99 29 63 26
        E 202 89 29 40 26
        E 278 99 26 7f 68
        E 0 99 29 7f 76
        E 200 89 26 40 68
        E 0 89 29 40 76
        E 280 99 29 5b 56
        E 198 89 29 40 56
        E 282 99 29 67 56
        E 0 99 24 4f 58
        E 200 89 29 40 56
        E 0 89 24 40 58
        E 280 99 24 3b -44
        E 0 99 29 62 28
        E 0 99 24 1a 75
        E 118 89 24 40 -44
        E 82 89 29 40 28
        E 3 89 24 40 75
        E 277 99 26 7f 40
        E 0 99 29 7f 58
        E 202 89 26 40 40
        E 2 89 29 40 58
        E 276 99 29 5c 50
        E 200 89 29 40 50
        E 280 99 24 4b 54
        E 0 99 29 73 60
        E 156 89 24 40 54
        E 44 89 29 40 60
        E 40 99 24 1b -30
        E 200 89 24 40 -30
        E 40 99 29 66 28
        E 202 89 29 40 28
        E 278 99 26 76 30
        E 0 99 29 7f 68
        E 200 89 26 40 30
        E 2 89 29 40 68
        E 278 99 29 75 43
        E 201 89 29 40 43
        E 279 99 24 51 70
        E 0 99 29 7f 74
        E 200 89 24 40 70
        E 0 89 29 40 74
        E 280 99 24 44 40
        E 0 99 29 6e 50
        E 184 89 24 40 40
        E 16 89 29 40 50
        E 40 99 24 1d -14
        E 200 89 24 40 -14
        E 40 99 26 76 62
        E 0 99 29 7f 84
        E 200 89 26 40 62
        E 2 89 29 40 84
        E 278 99 29 7f 74
        E 200 89 29 40 74
        E 280 99 24 4b 98
        E 0 99 29 7f 104
        E 200 89 24 40 98
        E 0 89 29 40 104
        E 280 99 24 3d 62
        E 0 99 29 6e 100
        E 184 89 24 40 62
        E 16 89 29 40 100
        E 40 99 24 24 8
        E 200 89 24 40 8
        E 40 99 29 7c 108
        E 0 99 26 5f 116
        E 200 89 29 40 108
        E 0 89 26 40 116
        E 280 99 29 74 118
        E 200 89 29 40 118
        E 520 99 29 7f -106
        E 0 99 24 4c -86
        E 0 99 24 1c 66
        E 150 89 24 40 -86
        E 47 89 24 40 66
        E 5 89 29 40 -106
        E 38 99 29 66 80
        E 200 89 29 40 80
        E 280 99 29 7f 94
        E 0 99 26 7c 99
        E 200 89 29 40 94
        E 1 89 26 40 99
        E 279 99 29 67 62
        E 200 89 29 40 62
        E 280 99 29 7f 36
        E 0 99 24 4c 86
        E 200 89 29 40 36
        E 0 89 24 40 86
        E 280 99 29 7a 56
        E 0 99 24 3d 60
        E 176 89 24 40 60
        E 26 89 29 40 56
        E 38 99 24 1e -2
        E 200 89 24 40 -2
        E 40 99 26 7b 92
        E 0 99 29 7f 96
        E 200 89 29 40 96
        E 2 89 26 40 92
        E 278 99 29 65 102
        E 198 89 29 40 102
        E 282 99 24 49 94
        E 0 99 29 77 104
        E 200 89 24 40 94
        E 0 89 29 40 104
        E 280 99 24 3b 62
        E 0 99 29 6d 110
        E 200 89 24 40 62
        E 2 89 29 40 110
        E 278 99 24 0d -80
        E 0 99 26 69 106
        E 200 89 24 40 -80
        E 0 89 26 40 106
        E 40 99 29 7f -112
        E 200 89 29 40 -112
        E 40 99 29 7f 98
        E 200 89 29 40 98
        E 280 99 24 48 102
        E 0 99 29 7b 108
        E 200 89 24 40 102
        E 0 89 29 40 108
        E 280 99 24 39 36
        E 0 99 29 74 102
        E 156 89 24 40 36
        E 44 89 29 40 102
        E 40 99 24 18 -48
        E 202 89 24 40 -48
        E 38 99 26 7d 100
        E 200 89 26 40 100
        E 40 99 29 7f -114
        E 201 89 29 40 -114
        E 39 99 29 70 88
        E 200 89 29 40 88
        E 40 99 26 36 -46
        E 200 89 26 40 -46
        E 40 99 24 51 20
        E 0 99 29 71 44
        E 141 89 24 40 20
        E 59 89 29 40 44
        E 40 99 24 1d -76
        E 198 89 24 40 -76
        E 42 99 29 78 60
        E 200 89 29 40 60
        E 280 99 26 7f 79
        E 0 99 29 7f 102
        E 201 89 26 40 79
        E 0 89 29 40 102
        E 279 99 29 53 84
        E 200 89 29 40 84
        E 280 99 24 4d 52
        E 0 99 29 7f 60
        E 166 89 24 40 52
        E 38 89 29 40 60
        E 36 99 24 18 -20
        E 200 89 24 40 -20
        E 40 99 24 1c -8
        E 0 99 29 71 66
        E 199 89 24 40 -8
        E 1 89 29 40 66
        E 280 99 26 7f 38
        E 0 99 29 7f 74
        E 200 89 26 40 38
        E 0 89 29 40 74
        E 280 99 29 7f 58
        E 202 89 29 40 58
        E 38 99 30 7f 18
        E 112 89 30 40 18
        E 128 99 30 1f -108
        E 0 99 2d 7f 20
        E 0 99 24 53 22
        E 200 89 2d 40 20
        E 2 89 30 40 -108
        E 0 89 24 40 22
        E 278 99 29 7f 14
        E 200 89 29 40 14
        E 280 99 26 7f -29
        E 0 99 29 7f 12
        E 201 89 26 40 -29
        E 0 89 29 40 12
        E 279 99 29 59 22
        E 202 89 29 40 22
        E 278 99 24 4d
        E 0 99 29 7f 6
        E 200 89 24 40
        E 0 89 29 40 6
        E 280 99 24 3a
        E 0 99 29 7f 12
        E 154 89 24 40
        E 46 89 29 40 12
        E 40 99 24 13 -84
        E 200 89 24 40 -84
        E 40 99 26 7f 21
        E 0 99 29 7f 29
        E 201 89 26 40 21
        E 0 89 29 40 29
        E 279 99 29 78 24
        E 202 89 29 40 24
        E 278 99 24 4d 28
        E 0 99 29 7f 36
        E 199 89 29 40 36
        E 1 89 24 40 28
        E 280 99 24 3b -4
        E 0 99 29 7f 40
        E 199 89 29 40 40
        E 3 89 24 40 -4
        E 38 99 24 1e -26
        E 200 89 24 40 -26
        E 40 99 26 7f 49
        E 0 99 29 7f 66
        E 201 89 26 40 49
        E 1 89 29 40 66
        E 278 99 29 70 64
        E 200 89 29 40 64
        E 280 99 24 47 32
        E 0 99 29 7f 35
        E 199 89 24 40 32
        E 6 89 29 40 35
        E 275 99 24 3b -32
        E 0 99 29 6a 68
        E 199 89 24 40 -32
        E 1 89 29 40 68
        E 40 99 24 17 -59
        E 201 89 24 40 -59
        E 39 99 26 7f 60
        E 0 99 29 7f 68
        E 200 89 26 40 60
        E 0 89 29 40 68
        E 280 99 29 7f 19
        E 201 89 29 40 19
        E 39 99 30 7f 16
        E 0 99 24 4e 108
        E 90 89 24 40 108
        E 110 89 30 40 16
        E 40 99 24 27 -40
        E 0 99 2d 7f
        E 198 89 24 40 -40
        E 2 89 2d 40
        E 280 99 29 7f 5
        E 201 89 29 40 5
        E 279 99 26 7f 10
        E 0 99 29 7f 32
        E 199 89 26 40 10
        E 0 89 29 40 32
        E 281 99 29 7f 16
        E 200 89 29 40 16
        E 280 99 29 7f 41
        E 0 99 24 4e 52
        E 201 89 29 40 41
        E 1 89 24 40 52
        E 278 99 24 3d 14
        E 0 99 29 7f 30
        E 180 89 24 40 14
        E 20 89 29 40 30
        E 40 99 24 19 -45
        E 203 89 24 40 -45
        E 37 99 26 7f 4
        E 0 99 29 7f 22
        E 202 89 26 40 4
        E 0 89 29 40 22
        E 278 99 29 7f 26
        E 202 89 29 40 26
        E 278 99 29 7f 45
        E 0 99 24 50 53
        E 200 89 24 40 53
        E 1 89 29 40 45
        E 279 99 24 33 -29
        E 0 99 29 7f 49
        E 201 89 24 40 -29
        E 0 89 29 40 49
        E 279 99 29 7f 69
        E 0 99 26 7f 73
        E 201 89 26 40 73
        E 1 89 29 40 69
        E 278 99 29 78 68
        E 202 89 29 40 68
        E 278 99 29 7f 68
        E 0 99 24 50 72
        E 200 89 29 40 68
        E 0 89 24 40 72
        E 280 99 24 3d 58
        E 0 99 29 7f 63
        E 144 89 24 40 58
        E 57 89 29 40 63
        E 39 99 24 1a -36
        E 200 89 24 40 -36
        E 40 99 26 7f 74
        E 0 99 29 7f 82
        E 199 89 26 40 74
        E 3 89 29 40 82
        E 278 99 29 7f 39
        E 201 89 29 40 39
        E 39 99 30 7f 16
        E 200 89 30 40 16
        E 40 99 24 53 -66
        E 0 99 24 26 13
        E 0 99 2d 7f 25
        E 77 89 24 40 -66
        E 121 89 24 40 13
        E 3 89 2d 40 25
        E 279 99 2d 5a -86
        E 199 89 2d 40 -86
        E 281 99 29 7f -6
        E 0 99 26 7f -4
        E 200 89 29 40 -6
        E 0 89 26 40 -4
        E 280 99 29 7d -8
        E 199 89 29 40 -8
        E 281 99 24 53 11
        E 0 99 29 7f 28
        E 0 99 24 24 112
        E 99 89 24 40 11
        E 100 89 24 40 112
        E 1 89 29 40 28
        E 280 99 29 7f 23
        E 0 99 24 47 54
        E 134 89 24 40 54
        E 66 89 29 40 23
        E 40 99 24 1e -50
        E 200 89 24 40 -50
        E 40 99 26 7f 38
        E 0 99 29 7f 62
        E 200 89 29 40 62
        E 1 89 26 40 38
        E 279 99 29 7f 47
        E 201 89 29 40 47
        E 279 99 29 7f 66
        E 0 99 24 4b 76
        E 199 89 24 40 76
        E 1 89 29 40 66
        E 280 99 29 7f 52
        E 0 99 24 3a 70
        E 139 89 24 40 70
        E 61 89 29 40 52
        E 40 99 24 1b -28
        E 198 89 24 40 -28
        E 42 99 26 7b 68
        E 0 99 29 7f 84
        E 199 89 26 40 68
        E 1 89 29 40 84
        E 280 99 29 7f 90
        E 202 89 29 40 90
        E 278 99 24 50 42
        E 0 99 29 7f 62
        E 199 89 29 40 62
        E 1 89 24 40 42
        E 280 99 24 39 19
        E 0 99 29 7f 58
        E 171 89 24 40 19
        E 28 89 29 40 58
        E 41 99 24 1a -48
        E 200 89 24 40 -48
        E 40 99 26 7f 87
        E 0 99 29 7f 91
        E 201 89 26 40 87
        E 0 89 29 40 91
        E 279 99 29 7f 42
        E 200 89 29 40 42
        E 40 99 30 7f 9
        E 201 89 30 40 9
        E 39 99 24 52 -86
        E 0 99 24 24 -2
        E 0 99 2d 7f 14
        E 82 89 24 40 -86
        E 118 89 24 40 -2
        E 2 89 2d 40 14
        E 38 99 24 43 59
        E 201 89 24 40 59
        E 39 99 2d 7f -24
        E 200 89 2d 40 -24
        E 280 99 29 7f 3
        E 0 99 26 7b 7
        E 200 89 29 40 3
        E 1 89 26 40 7
        E 279 99 29 7c -10
        E 200 89 29 40 -10
        E 280 99 24 4c 20
        E 0 99 29 7f 30
        E 199 89 29 40 30
        E 1 89 24 40 20
        E 280 99 24 3e 22
        E 0 99 29 7f 46
        E 130 89 24 40 22
        E 70 89 29 40 46
        E 40 99 24 1c -86
        E 200 89 24 40 -86
        E 40 99 26 7f 21
        E 0 99 29 7f 52
        E 201 89 26 40 21
        E 1 89 29 40 52
        E 278 99 29 7f 28
        E 202 89 29 40 28
        E 278 99 29 7f 68
        E 0 99 24 4d 70
        E 116 89 24 40 70
        E 84 89 29 40 68
        E 40 99 24 1f -52
        E 199 89 24 40 -52
        E 41 99 29 72 56
        E 201 89 29 40 56
        E 225 b9 04 12
        E 54 99 26 64 58
        E 0 99 29 7f 78
        E 12 b9 04 22
        E 60 b9 04 32
        E 128 89 29 40 78
        E 2 89 26 40 58
        E 87 b9 04 22
        E 84 b9 04 12
        E 107 99 29 7f 48
        E 38 b9 04 09
        E 162 89 29 40 48
        E 23 b9 04 0f
        E 257 99 24 50 -25
        E 0 99 29 7f 46
        E 39 b9 04 03
        E 32 b9 04 00
        E 129 89 24 40 -25
        E 0 89 29 40 46
        E 280 99 29 68 59
        E 201 89 29 40 59
        E 279 99 26 7f 63
        E 0 99 29 7f 86
        E 200 89 29 40 86
        E 3 89 26 40 63
        E 277 99 29 7f 42
        E 201 89 29 40 42
        E 39 99 30 7f -11
        E 0 99 24 52 92
        E 79 89 24 40 92
        E 124 89 30 40 -11
        E 37 99 24 27 -67
        E 0 99 2d 7f
        E 192 b9 04 0f
        E 6 89 24 40 -67
        E 2 89 2d 40
        E 40 99 30 72 -34
        E 0 99 30 35 32
        E 62 89 30 40 -34
        E 137 89 30 40 32
        E 9 b9 04 00
        E 32 99 2d 7f -77
        E 0 99 24 54 111
        E 109 89 24 40 111
        E 91 89 2d 40 -77
        E 40 99 24 20 -18
        E 197 89 24 40 -18
        E 43 99 26 7f 6
        E 0 99 29 7f 14
        E 199 89 26 40 6
        E 0 89 29 40 14
        E 281 99 29 7d -9
        E 203 89 29 40 -9
        E 277 99 24 5c -21
        E 0 99 29 7f 3
        E 200 89 24 40 -21
        E 1 89 29 40 3
        E 279 99 24 43 10
        E 0 99 29 7f 12
        E 171 89 24 40 10
        E 26 89 29 40 12
        E 43 99 24 1d -54
        E 198 89 24 40 -54
        E 42 99 26 7f 3
        E 0 99 29 7f 26
        E 200 89 29 40 26
        E 1 89 26 40 3
        E 279 99 29 6e 27
        E 200 89 29 40 27
        E 280 99 24 4d 43
        E 0 99 29 7f 56
        E 201 89 24 40 43
        E 1 89 29 40 56
        E 278 99 24 40 -50
        E 0 99 29 7f 22
        E 0 99 24 1e 71
        E 119 89 24 40 -50
        E 80 89 29 40 22
        E 1 89 24 40 71
        E 280 99 26 6c 56
        E 0 99 29 7f 67
        E 199 89 26 40 56
        E 3 89 29 40 67
        E 278 99 29 7f 61
        E 201 89 29 40 61
        E 279 99 24 52 26
        E 0 99 29 7f 48
        E 199 89 29 40 48
        E 1 89 24 40 26
        E 280 99 24 43 -11
        E 0 99 29 7f 24
        E 170 89 24 40 -11
        E 31 89 29 40 24
        E 39 99 24 17 -79
        E 201 89 24 40 -79
        E 39 99 26 7f 10
        E 0 99 29 7f 38
        E 201 89 26 40 10
        E 0 89 29 40 38
        E 279 99 29 7f 35
        E 203 89 29 40 35
        E 37 99 30 7b -15
        E 0 99 24 53 91
        E 0 99 30 1f 99
        E 76 89 24 40 91
        E 36 89 30 40 -15
        E 87 89 30 40 99
        E 41 99 24 25 -70
        E 0 99 2d 7f 7
        E 199 89 24 40 -70
        E 1 89 2d 40 7
        E 280 99 29 7f 26
        E 0 99 24 4a 90
        E 93 89 24 40 90
        E 108 89 29 40 26
        E 39 99 24 1d -54
        E 197 89 24 40 -54
        E 43 99 24 30 -6
        E 0 99 29 7f 37
        E 0 99 26 7f 50
        E 199 89 26 40 50
        E 2 89 24 40 -6
        E 0 89 29 40 37
        E 279 99 29 7f 17
        E 200 89 29 40 17
        E 280 99 24 51 -31
        E 0 99 29 7f 17
        E 200 89 29 40 17
        E 1 89 24 40 -31
        E 279 99 24 3d 16
        E 0 99 29 7f 33
        E 145 89 24 40 16
        E 56 89 29 40 33
        E 39 99 24 1b -78
        E 200 89 24 40 -78
        E 40 99 26 7f 8
        E 0 99 29 7f 31
        E 199 89 26 40 8
        E 1 89 29 40 31
        E 280 99 29 7f 10
        E 200 89 29 40 10
        E 40 99 30 7f -27
        E 0 99 24 54 32
        E 87 89 24 40 32
        E 113 89 30 40 -27
        E 40 99 24 24 -118
        E 0 99 2d 7f 7
        E 197 89 24 40 -118
        E 6 89 2d 40 7
        E 37 99 24 47 -41
        E 0 99 24 1f 43
        E 83 89 24 40 -41
        E 117 89 24 40 43
        E 40 99 2d 60 -69
        E 200 89 2d 40 -69
        E 280 99 26 7f -9
        E 0 99 29 7f 26
        E 199 89 29 40 26
        E 1 89 26 40 -9
        E 280 99 29 7f 5
        E 200 89 29 40 5
        E 280 99 24 5a 8
        E 0 99 29 7f 32
        E 199 89 24 40 8
        E 0 89 29 40 32
        E 281 99 24 46 15
        E 0 99 29 7f 41
        E 148 89 24 40 15
        E 52 89 29 40 41
        E 40 99 24 1e -75
        E 198 89 24 40 -75
        E 42 99 26 7f -7
        E 0 99 29 7f 48
        E 200 89 29 40 48
        E 2 89 26 40 -7
        E 278 99 29 7f 43
        E 0 99 24 3b 101
        E 200 89 29 40 43
        E 0 89 24 40 101
        E 40 99 30 7f 87
        E 89 89 30 40 87
        E 151 99 30 2b -61
        E 0 99 24 5e 27
        E 0 99 2d 7f 79
        E 200 89 30 40 -61
        E 0 89 24 40 27
        E 0 89 2d 40 79
        E 206 b9 04 00
        E 28 b9 04 00
        E 46 99 1a 1a -73
        E 0 99 1a 42 -42
        E 0 99 30 7a -39
        E 0 99 2d 7f 21
        E 28 89 1a 40 -73
        E 169 89 1a 40 -42
        E 4 89 2d 40 21
        E 1 89 30 40 -39
        E 38 99 24 4d -107
        E 0 99 24 23 -27
        E 78 89 24 40 -107
        E 120 89 24 40 -27
        E 42 99 26 6f 42
        E 0 99 29 7f 45
        E 200 89 26 40 42
        E 2 89 29 40 45
        E 278 99 29 7f 55
        E 200 89 29 40 55
        E 280 99 29 7f 59
        E 0 99 24 56 99
        E 200 89 29 40 59
        E 0 89 24 40 99
        E 280 99 24 3a 35
        E 0 99 29 7f 46
        E 168 89 24 40 35
        E 33 89 29 40 46
        E 39 99 24 19 -37
        E 200 89 24 40 -37
        E 40 99 26 7f 15
        E 0 99 29 7f 63
        E 203 89 26 40 15
        E 0 89 29 40 63
        E 277 99 29 7f 65
        E 200 89 29 40 65
        E 40 99 26 4a -1
        E 200 89 26 40 -1
        E 40 99 24 56 -22
        E 0 99 29 7f 59
        E 199 89 24 40 -22
        E 2 89 29 40 59
        E 279 99 24 37 -69
        E 0 99 29 7f 65
        E 198 89 24 40 -69
        E 3 89 29 40 65
        E 39 99 24 16 -109
        E 201 89 24 40 -109
        E 39 99 26 7c 63
        E 0 99 29 7f 85
        E 200 89 26 40 63
        E 0 89 29 40 85
        E 280 99 29 7f 83
        E 200 89 29 40 83
        E 280 99 24 4d 91
        E 0 99 29 7f 107
        E 200 89 24 40 91
        E 0 89 29 40 107
        E 280 99 24 3c 31
        E 0 99 29 7f 105
        E 122 89 24 40 31
        E 78 89 29 40 105
        E 40 99 24 1c -87
        E 200 89 24 40 -87
        E 40 99 26 7f 107
        E 200 89 26 40 107
        E 40 99 29 7f -102
        E 199 89 29 40 -102
        E 281 99 29 7f -118
        E 0 99 30 7f 71
        E 199 89 29 40 -118
        E 3 89 30 40 71
        E 38 99 24 6c -5
        E 0 99 2d 7f 117
        E 200 89 24 40 -5
        E 0 89 2d 40 117
        E 280 99 24 43 -105
        E 0 99 2d 7f 81
        E 200 89 24 40 -105
        E 1 89 2d 40 81
        E 279 99 26 7f 54
        E 0 99 29 7f 95
        E 89 89 26 40 54
        E 114 89 29 40 95
        E 37 99 26 35 -95
        E 198 89 26 40 -95
        E 42 99 29 7f 91
        E 203 89 29 40 91
        E 277 99 29 7f 91
        E 0 99 24 4e 113
        E 200 89 29 40 91
        E 1 89 24 40 113
        E 279 99 29 7f 91
        E 0 99 24 3e 95
        E 158 89 24 40 95
        E 44 89 29 40 91
        E 38 99 24 1f 15
        E 198 89 24 40 15
        E 42 99 26 7f 67
        E 0 99 29 7f 95
        E 200 89 26 40 67
        E 1 89 29 40 95
        E 279 99 29 7f 91
        E 200 89 29 40 91
        E 280 99 24 50 71
        E 0 99 29 7f 89
        E 202 89 24 40 71
        E 0 89 29 40 89
        E 278 99 24 3e 10
        E 0 99 29 7f 101
        E 199 89 24 40 10
        E 1 89 29 40 101
        E 40 99 24 20 -6
        E 201 89 24 40 -6
        E 39 99 26 7e 110
        E 201 89 26 40 110
        E 39 99 29 7f -113
        E 200 89 29 40 -113
        E 280 99 29 7f -93
        E 200 89 29 40 -93
        E 40 99 24 4a 59
        E 0 99 29 7f 91
        E 200 89 24 40 59
        E 1 89 29 40 91
        E 39 99 24 31 113
        E 140 89 24 40 113
        E 100 99 24 0a 17
        E 0 99 29 7f 91
        E 198 89 24 40 17
        E 2 89 29 40 91
        E 280 99 26 7f 67
        E 0 99 29 7f 106
        E 199 89 29 40 106
        E 3 89 26 40 67
        E 278 99 29 7f 61
        E 200 89 29 40 61
        E 40 99 30 7f 32
        E 111 89 30 40 32
        E 129 99 30 25 -95
        E 0 99 24 58 -22
        E 0 99 2d 7f 65
        E 200 89 2d 40 65
        E 1 89 30 40 -95
        E 2 89 24 40 -22
        E 2 b9 04 03
        E 35 99 1a 27 -33
        E 0 99 30 6d 17
        E 0 99 30 28 102
        E 85 89 30 40 17
        E 48 b9 04 06
        E 66 89 30 40 102
        E 1 89 1a 40 -33
        E 40 99 2d 7f 20
        E 0 99 24 49 55
        E 17 b9 04 00
        E 71 89 24 40 55
        E 113 89 2d 40 20
        E 39 99 24 22 -97
        E 202 89 24 40 -97
        E 38 99 26 73 19
        E 0 99 29 7f 47
        E 200 89 26 40 19
        E 4 89 29 40 47
        E 276 99 29 7f 31
        E 200 89 29 40 31
        E 280 99 29 7f 31
        E 0 99 24 53 41
        E 200 89 29 40 31
        E 0 89 24 40 41
        E 280 99 24 3d 58
        E 0 99 29 7f 58
        E 149 89 24 40 58
        E 51 89 29 40 58
        E 40 99 24 1c -31
        E 200 89 24 40 -31
        E 40 99 26 78 45
        E 0 99 29 7f 63
        E 200 89 26 40 45
        E 0 89 29 40 63
        E 280 99 29 7f 47
        E 200 89 29 40 47
        E 40 99 2d 7f -23
        E 203 89 2d 40 -23
        E 37 99 24 5d 11
        E 0 99 2d 7f 15
        E 200 89 24 40 11
        E 2 89 2d 40 15
        E 278 99 2d 7f 23
        E 0 99 24 48 77
        E 184 89 24 40 77
        E 16 89 2d 40 23
        E 40 99 24 28 23
        E 200 89 24 40 23
        E 40 99 2d 7f -73
        E 0 99 26 65 103
        E 62 89 26 40 103
        E 138 89 2d 40 -73
        E 40 99 26 4b -70
        E 199 89 26 40 -70
        E 41 99 29 7f -83
        E 201 89 29 40 -83
        E 39 99 26 6e 100
        E 201 89 26 40 100
        E 39 99 29 7f 49
        E 200 89 29 40 49
        E 280 99 29 7f 99
        E 201 89 29 40 99
        E 39 99 24 37 -79
        E 203 89 24 40 -79
        E 37 99 24 47 55
        E 200 89 24 40 55
        E 40 99 26 6b -98
        E 0 99 29 7f -75
        E 199 89 26 40 -98
        E 1 89 29 40 -75
        E 280 99 29 7f -86
        E 199 89 29 40 -86
        E 281 99 24 4f -107
        E 0 99 29 7f -85
        E 200 89 24 40 -107
        E 0 89 29 40 -85
        E 40 99 24 30 91
        E 200 89 24 40 91
        E 40 99 29 75 -61
        E 200 89 29 40 -61
        E 280 99 24 3f -102
        E 0 99 29 7f -82
        E 201 89 24 40 -102
        E 0 89 29 40 -82
        E 279 99 29 4f -9
        E 200 89 29 40 -9
        E 4840 99 29 7f -6
        E 0 99 24 50 21
        E 201 89 29 40 -6
        E 1 89 24 40 21
        E 278 99 29 7f -55
        E 0 99 24 3a -47
        E 200 89 24 40 -47
        E 2 89 29 40 -55
        E 38 99 24 1e -79
        E 200 89 24 40 -79
        E 40 99 26 7f -59
        E 0 99 29 7f -21
        E 200 89 26 40 -59
        E 0 89 29 40 -21
        E 280 99 29 7f -73
        E 0 99 30 41 81
        E 200 89 29 40 -73
        E 0 89 30 40 81
        E 40 99 24 57 74
        E 199 89 24 40 74
        E 41 99 2d 7f -85
        E 202 89 2d 40 -85
        E 278 99 29 42 -119
        E 0 99 2d 18 -105
        E 200 89 29 40 -119
        E 2 89 2d 40 -105
        E 278 99 26 7f -89
        E 0 99 29 7f -69
        E 200 89 26 40 -89
        E 0 89 29 40 -69
        E 280 99 29 7f -79
        E 201 89 29 40 -79
        E 279 99 24 53 -77
        E 0 99 29 7f -49
        E 200 89 24 40 -77
        E 2 89 29 40 -49
        E 278 99 24 3b -101
        E 0 99 29 7f -55
        E 0 99 24 23 17
        E 116 89 24 40 -101
        E 84 89 29 40 -55
        E 0 89 24 40 17
        E 280 99 26 7f -69
        E 0 99 29 7f -30
        E 199 89 29 40 -30
        E 1 89 26 40 -69
        E 280 99 29 7f -37
        E 200 89 29 40 -37
        E 280 99 24 58 -83
        E 0 99 29 7f -35
        E 200 89 29 40 -35
        E 2 89 24 40 -83
        E 278 99 24 3d -103
        E 0 99 29 7f -17
        E 0 99 24 1f 15
        E 114 89 24 40 -103
        E 84 89 24 40 15
        E 2 89 29 40 -17
        E 280 99 29 7f -11
        E 200 89 29 40 -11
        E 280 99 29 7f 23
        E 200 89 29 40 23
        E 280 99 24 4c 35
        E 0 99 29 7f 69
        E 200 89 24 40 35
        E 0 89 29 40 69
        E 280 99 24 3d 17
        E 0 99 29 7f 83
        E 170 89 24 40 17
        E 32 89 29 40 83
        E 38 99 24 1d -51
        E 198 89 24 40 -51
        E 42 99 26 6c 89
        E 0 99 29 7f 105
        E 78 89 26 40 89
        E 122 89 29 40 105
        E 40 99 26 3d -73
        E 200 89 26 40 -73
        E 40 99 29 7f 47
        E 202 89 29 40 47
        E 38 99 30 7f -5
        E 200 89 30 40 -5
        E 40 99 24 5f -55
        E 0 99 2d 7f 39
        E 200 89 24 40 -55
        E 0 89 2d 40 39
        E 280 99 29 3d 1
        E 0 99 2d 1b 15
        E 202 89 29 40 1
        E 0 89 2d 40 15
        E 278 99 26 7f 29
        E 0 99 29 7f 53
        E 202 89 26 40 29
        E 0 89 29 40 53
        E 278 99 29 7f 41
        E 200 89 29 40 41
        E 280 99 24 56 39
        E 0 99 29 7f 53
        E 200 89 24 40 39
        E 0 89 29 40 53
        E 280 99 24 3d 49
        E 0 99 29 7f 93
        E 146 89 24 40 49
        E 54 89 29 40 93
        E 40 99 24 1f -43
        E 200 89 24 40 -43
        E 40 99 26 7f 39
        E 0 99 29 7f 85
        E 200 89 29 40 85
        E 2 89 26 40 39
        E 278 99 29 7f 71
        E 200 89 29 40 71
        E 280 99 24 4d 75
        E 0 99 29 7f 85
        E 200 89 24 40 75
        E 2 89 29 40 85
        E 278 99 29 7f 85
        E 0 99 24 3a 87
        E 190 89 24 40 87
        E 12 89 29 40 85
        E 38 99 24 19 41
        E 198 89 24 40 41
        E 42 99 26 7f 69
        E 0 99 29 7f 111
        E 200 89 29 40 111
        E 2 89 26 40 69
        E 278 99 29 7f 117
        E 200 89 29 40 117
        E 280 99 24 51 59
        E 0 99 29 7f 101
        E 200 89 29 40 101
        E 2 89 24 40 59
        E 278 99 24 37 22
        E 0 99 29 7f 74
        E 149 89 24 40 22
        E 50 89 29 40 74
        E 41 99 24 18 -67
        E 200 89 24 40 -67
        E 40 99 26 7b 65
        E 0 99 29 7f 103
        E 200 89 26 40 65
        E 0 89 29 40 103
        E 280 99 29 7f 59
        E 201 89 29 40 59
        E 39 99 30 7f -3
        E 200 89 30 40 -3
        E 40 99 24 62 -59
        E 0 99 2d 7f 47
        E 200 89 24 40 -59
        E 0 89 2d 40 47
        E 280 99 29 7f 65
        E 200 89 29 40 65
        E 40 99 26 7f -95
        E 202 89 26 40 -95
        E 38 99 29 7f 61
        E 200 89 29 40 61
        E 280 99 29 7f 73
        E 200 89 29 40 73
        E 280 99 24 5a 77
        E 0 99 29 7f 81
        E 200 89 24 40 77
        E 0 89 29 40 81
        E 280 99 24 45 55
        E 0 99 29 7f 89
        E 114 89 24 40 55
        E 88 89 29 40 89
        E 38 99 24 22 -69
        E 198 89 24 40 -69
        E 42 99 26 7f 19
        E 0 99 29 7f 66
        E 200 89 26 40 19
        E 1 89 29 40 66
        E 279 99 29 7f 61
        E 200 89 29 40 61
        E 280 99 24 52 23
        E 0 99 29 7f 67
        E 200 89 29 40 67
        E 2 89 24 40 23
        E 278 99 24 3d 33
        E 0 99 29 7f 63
        E 144 89 24 40 33
        E 56 89 29 40 63
        E 40 99 24 1f -61
        E 200 89 24 40 -61
        E 40 99 26 7c 53
        E 0 99 29 7f 107
        E 200 89 26 40 53
        E 0 89 29 40 107
        E 280 99 29 7f 91
        E 200 89 29 40 91
        E 280 99 24 56 87
        E 200 89 24 40 87
        E 40 99 29 7f -115
        E 200 89 29 40 -115
        E 40 99 24 3c 47
        E 0 99 29 7f 103
        E 144 89 24 40 47
        E 55 89 29 40 103
        E 41 99 24 19 -47
        E 200 89 24 40 -47
        E 40 99 26 7f 63
        E 0 99 29 7f 105
        E 200 89 26 40 63
        E 0 89 29 40 105
        E 280 99 29 7f 69
        E 181 b9 04 00
        E 19 89 29 40 69
        E 40 99 1a 34 -57
        E 0 99 30 77 -27
        E 200 89 1a 40 -57
        E 0 89 30 40 -27
        E 40 99 24 70 -45
        E 0 99 2d 7f 85
        E 200 89 24 40 -45
        E 0 89 2d 40 85
        E 40 99 24 49 113
        E 200 89 24 40 113
        E 40 99 2d 7f -3
        E 200 89 2d 40 -3
        E 280 99 26 7f 7
        E 0 99 29 7f 37
        E 200 89 26 40 7
        E 0 89 29 40 37
        E 280 99 29 7f 31
        E 200 89 29 40 31
        E 280 99 24 55 -33
        E 0 99 29 7f 31
        E 200 89 29 40 31
        E 2 89 24 40 -33
        E 278 99 24 40 -69
        E 0 99 29 7f 29
        E 200 89 29 40 29
        E 2 89 24 40 -69
        E 278 99 26 7c 9
        E 0 99 29 7f 49
        E 200 89 26 40 9
        E 1 89 29 40 49
        E 279 99 29 7f 59
        E 202 89 29 40 59
        E 278 99 24 53 57
        E 0 99 29 7f 79
        E 200 89 24 40 57
        E 0 89 29 40 79
        E 280 99 24 40 -11
        E 0 99 29 7f 61
        E 0 99 24 22 97
        E 108 89 24 40 -11
        E 92 89 29 40 61
        E 1 89 24 40 97
        E 279 99 26 75 17
        E 0 99 29 7f 75
        E 200 89 26 40 17
        E 4 89 29 40 75
        E 276 99 29 78 87
        E 200 89 29 40 87
        E 280 99 24 54 51
        E 0 99 29 7f 97
        E 104 89 24 40 51
        E 96 89 29 40 97
        E 40 99 24 21 -83
        E 198 89 24 40 -83
        E 42 99 29 7f 87
        E 200 89 29 40 87
        E 40 99 24 43 -109
        E 0 99 24 23 61
        E 168 89 24 40 -109
        E 32 89 24 40 61
        E 40 99 26 7f 83
        E 0 99 29 7f 111
        E 199 89 29 40 111
        E 5 89 26 40 83
        E 276 99 29 7f 71
        E 202 89 29 40 71
        E 38 99 30 7f -7
        E 200 89 30 40 -7
        E 40 99 24 67 -19
        E 0 99 2d 7f 89
        E 200 89 24 40 -19
        E 0 89 2d 40 89
        E 280 99 24 3c -81
        E 0 99 24 1e
        E 0 99 2d 7f 79
        E 80 89 24 40 -81
        E 120 89 2d 40 79
        E 1 89 24 40
        E 279 99 26 7f 43
        E 0 99 29 7f 77
        E 200 89 29 40 77
        E 2 89 26 40 43
        E 278 99 29 7f 61
        E 200 89 29 40 61
        E 280 99 29 7f 67
        E 0 99 24 55 95
        E 200 89 29 40 67
        E 0 89 24 40 95
        E 280 99 24 3e -5
        E 0 99 29 7f 73
        E 200 89 24 40 -5
        E 0 89 29 40 73
        E 280 99 26 7f 39
        E 0 99 29 7f 93
        E 200 89 26 40 39
        E 0 89 29 40 93
        E 280 99 29 7f 62
        E 201 89 29 40 62
        E 279 99 24 53 53
        E 0 99 29 7f 77
        E 200 89 24 40 53
        E 0 89 29 40 77
        E 280 99 24 3f 57
        E 0 99 29 7f 81
        E 156 89 24 40 57
        E 45 89 29 40 81
        E 39 99 24 1c -25
        E 202 89 24 40 -25
        E 38 99 26 7d 46
        E 0 99 29 7f 91
        E 201 89 26 40 46
        E 1 89 29 40 91
        E 278 99 29 7f 63
        E 200 89 29 40 63
        E 40 99 30 78 -17
        E 200 89 30 40 -17
        E 40 99 24 66 -43
        E 0 99 2d 7f 69
        E 201 89 2d 40 69
        E 1 89 24 40 -43
        E 38 99 24 3b 97
        E 202 89 24 40 97
        E 38 99 2d 7f 41
        E 204 89 2d 40 41
        E 276 99 26 7f -1
        E 0 99 29 7f 45
        E 199 89 29 40 45
        E 1 89 26 40 -1
        E 280 99 29 7f 35
        E 200 89 29 40 35
        E 280 99 24 55 25
        E 0 99 29 7f 27
        E 200 89 24 40 25
        E 2 89 29 40 27
        E 278 99 24 3d -23
        E 0 99 29 7f 21
        E 200 89 29 40 21
        E 2 89 24 40 -23
        E 278 99 26 7f -15
        E 0 99 29 7f 38
        E 200 89 29 40 38
        E 2 89 26 40 -15
        E 278 99 29 7f 25
        E 202 89 29 40 25
        E 278 99 29 7f 32
        E 0 99 24 50 38
        E 201 89 29 40 32
        E 0 89 24 40 38
        E 279 99 24 3c -13
        E 0 99 29 7f 26
        E 138 89 24 40 -13
        E 65 89 29 40 26
        E 37 99 24 1c -115
        E 200 89 24 40 -115
        E 40 99 26 7f 8
        E 0 99 29 7f 61
        E 201 89 29 40 61
        E 2 89 26 40 8
        E 277 99 29 7f 35
        E 200 89 29 40 35
        E 280 99 24 50 -1
        E 0 99 29 7f 60
        E 200 89 24 40 -1
        E 1 89 29 40 60
        E 279 99 24 37 -62
        E 0 99 29 7f 22
        E 201 89 24 40 -62
        E 4 89 29 40 22
        E 275 99 26 7f 13
        E 0 99 29 7f 59
        E 200 89 26 40 13
        E 2 89 29 40 59
        E 278 99 29 7f 23
        E 199 89 29 40 23
        E 41 99 30 7f -37
        E 202 89 30 40 -37
        E 38 99 24 62 -83
        E 0 99 2d 7f 55
        E 200 89 24 40 -83
        E 0 89 2d 40 55
        E 40 99 30 7e -37
        E 17 b9 04 06
        E 182 89 30 40 -37
        E 4 b9 04 00
        E 37 99 24 51 -91
        E 0 99 2d 7f 5
        E 200 89 24 40 -91
        E 0 89 2d 40 5
        E 280 99 26 7f -10
        E 0 99 29 7f 46
        E 201 89 29 40 46
        E 1 89 26 40 -10
        E 278 99 29 7f 5
        E 200 89 29 40 5
        E 280 99 24 55 31
        E 0 99 29 7f 37
        E 200 89 24 40 31
        E 0 89 29 40 37
        E 280 99 24 3e -31
        E 0 99 29 7f 10
        E 0 99 24 1d 99
        E 128 89 24 40 -31
        E 72 89 24 40 99
        E 1 89 29 40 10
        E 279 99 26 7f 5
        E 0 99 29 7f 51
        E 200 89 26 40 5
        E 0 89 29 40 51
        E 280 99 29 7f -7
        E 200 89 29 40 -7
        E 40 99 26 52 -105
        E 200 89 26 40 -105
        E 40 99 24 64 -22
        E 0 99 29 7f -12
        E 201 89 24 40 -22
        E 0 89 29 40 -12
        E 279 99 29 7f -3
        E 199 89 29 40 -3
        E 281 99 26 7f 9
        E 0 99 29 7f 35
        E 200 89 26 40 9
        E 2 89 29 40 35
        E 278 99 29 7f 19
        E 202 89 29 40 19
        E 278 99 29 7f 38
        E 0 99 24 57 45
        E 200 89 24 40 45
        E 1 89 29 40 38
        E 279 99 24 34 -53
        E 0 99 29 7f 45
        E 200 89 24 40 -53
        E 2 89 29 40 45
        E 278 99 26 7f 21
        E 0 99 29 7f 57
        E 200 89 26 40 21
        E 2 89 29 40 57
        E 278 99 29 7f 15
        E 200 89 29 40 15
        E 40 99 30 7c -45
        E 200 89 30 40 -45
        E 40 99 24 60 -65
        E 0 99 2d 7f 45
        E 200 89 24 40 -65
        E 2 89 2d 40 45
        E 38 99 30 7f -38
        E 200 89 30 40 -38
        E 40 99 24 4b -47
        E 0 99 2d 7f -11
        E 199 89 24 40 -47
        E 1 89 2d 40 -11
        E 280 99 26 7f 1
        E 0 99 29 7f 37
        E 200 89 26 40 1
        E 0 89 29 40 37
        E 280 99 29 7f 27
        E 199 89 29 40 27
        E 281 99 29 7f 25
        E 0 99 24 4f 59
        E 201 89 24 40 59
        E 1 89 29 40 25
        E 278 99 24 42 -15
        E 0 99 29 7f 26
        E 200 89 24 40 -15
        E 1 89 29 40 26
        E 279 99 26 7f 23
        E 0 99 29 7f 77
        E 200 89 26 40 23
        E 0 89 29 40 77
        E 280 99 29 7f 73
        E 200 89 29 40 73
        E 280 99 24 52 77
        E 0 99 29 7f 85
        E 200 89 24 40 77
        E 0 89 29 40 85
        E 280 99 24 3d 15
        E 0 99 29 7f 71
        E 0 99 24 1f 119
        E 104 89 24 40 15
        E 96 89 29 40 71
        E 0 89 24 40 119
        E 280 99 26 7f 25
        E 0 99 29 7f 65
        E 200 89 26 40 25
        E 0 89 29 40 65
        E 280 99 29 7f 49
        E 200 89 29 40 49
        E 40 99 28 58 -2
        E 0 99 28 2a 97
        E 97 89 28 40 -2
        E 103 89 28 40 97
        E 40 99 26 64 66
        E 0 99 24 49 75
        E 126 89 24 40 75
        E 75 89 26 40 66
        E 39 99 24 24 -37
        E 0 99 26 40 37
        E 96 89 26 40 37
        E 104 89 24 40 -37
        E 40 99 26 23 -105
        E 0 99 26 7e 49
        E 152 89 26 40 -105
        E 44 89 26 40 49
        E 44 99 26 66 7
        E 200 89 26 40 7
        E 40 99 26 78 28
        E 201 89 26 40 28
        E 39 99 26 61 17
        E 200 89 26 40 17
        E 40 99 26 7f 25
        E 200 89 26 40 25
        E 40 99 26 68 -9
        E 202 89 26 40 -9
        E 38 99 33 41 -15
        E 0 99 33 7f 30
        E 0 99 24 5f 89
        E 44 89 33 40 -15
        E 157 89 33 40 30
        E 1 89 24 40 89
        E 278 99 29 7f -29
        E 200 89 29 40 -29
        E 280 99 26 7f -23
        E 0 99 29 7f 20
        E 202 89 26 40 -23
        E 0 89 29 40 20
        E 278 99 29 7f 9
        E 200 89 29 40 9
        E 280 99 24 51 15
        E 0 99 29 7f 33
        E 200 89 24 40 15
        E 0 89 29 40 33
        E 280 99 29 7f 25
        E 200 89 29 40 25
        E 280 99 26 7f -7
        E 0 99 29 7f 45
        E 199 89 26 40 -7
        E 2 89 29 40 45
        E 279 99 29 7f 23
        E 200 89 29 40 23
        E 280 99 29 7f 35
        E 0 99 24 4e 45
        E 199 89 24 40 45
        E 1 89 29 40 35
        E 280 99 24 3d -59
        E 0 99 24 1d 33
        E 0 99 29 7f 41
        E 90 89 24 40 -59
        E 109 89 29 40 41
        E 2 89 24 40 33
        E 279 99 26 7f 34
        E 0 99 29 7f 79
        E 200 89 29 40 79
        E 3 89 26 40 34
        E 277 99 29 7f 65
        E 200 89 29 40 65
        E 280 99 24 51 36
        E 0 99 29 7f 59
        E 200 89 29 40 59
        E 1 89 24 40 36
        E 279 99 29 7f 52
        E 201 89 29 40 52
        E 279 99 26 7f 21
        E 0 99 29 7f 73
        E 199 89 26 40 21
        E 1 89 29 40 73
        E 280 99 29 7f 37
        E 200 89 29 40 37
        E 40 99 30 6d -38
        E 203 89 30 40 -38
        E 37 99 24 64 -78
        E 0 99 2d 7f 57
        E 200 89 2d 40 57
        E 1 89 24 40 -78
        E 39 99 30 5c -15
        E 35 b9 04 06
        E 165 89 30 40 -15
        E 40 99 24 51 -32
        E 0 99 2d 7f
        E 26 b9 04 00
        E 174 89 2d 40
        E 1 89 24 40 -32
        E 279 99 26 74 3
        E 0 99 29 7f 41
        E 199 89 26 40 3
        E 2 89 29 40 41
        E 279 99 29 7f 28
        E 200 89 29 40 28
        E 280 99 29 7f 51
        E 0 99 24 54 68
        E 199 89 29 40 51
        E 2 89 24 40 68
        E 279 99 24 41 13
        E 0 99 29 7f 55
        E 0 99 24 22 110
        E 94 89 24 40 13
        E 106 89 29 40 55
        E 1 89 24 40 110
        E 279 99 26 7f 29
        E 0 99 29 7f 71
        E 200 89 26 40 29
        E 0 89 29 40 71
        E 280 99 29 7f 52
        E 200 89 29 40 52
        E 280 99 24 4e 57
        E 0 99 29 7f 70
        E 200 89 24 40 57
        E 1 89 29 40 70
        E 279 99 29 7f 79
        E 199 89 29 40 79
        E 281 99 26 7f 63
        E 0 99 29 7f 84
        E 201 89 26 40 63
        E 0 89 29 40 84
        E 279 99 29 7f 67
        E 200 89 29 40 67
        E 2 b9 04 00
        E 38 99 1a 7f -36
        E 201 89 1a 40 -36
        E 14 b9 04 12
        E 25 99 24 56 -61
        E 0 99 24 28 35
        E 0 99 29 7f 45
        E 29 b9 04 22
        E 60 b9 04 32
        E 4 89 24 40 -61
        E 106 89 24 40 35
        E 0 89 29 40 45
        E 3 b9 04 22
        E 136 b9 04 12
        E 142 99 29 7f 62
        E 201 89 29 40 62
        E 279 99 26 7f 58
        E 0 99 29 7f 80
        E 200 89 26 40 58
        E 3 89 29 40 80
        E 202 b9 04 06
        E 75 99 29 7f 52
        E 201 89 29 40 52
        E 39 99 28 4a -11
        E 5 b9 04 00
        E 195 89 28 40 -11
        E 40 99 24 6b -38
        E 0 99 2d 7f 42
        E 201 89 24 40 -38
        E 0 89 2d 40 42
        E 39 99 30 7f -12
        E 12 b9 04 0f
        E 189 89 30 40 -12
        E 39 99 2d 7f 6
        E 0 99 24 4e 10
        E 98 b9 04 06
        E 104 89 2d 40 6
        E 1 89 24 40 10
        E 146 b9 04 00
        E 131 99 26 7f -46
        E 0 99 29 7f 11
        E 200 89 29 40 11
        E 3 89 26 40 -46
        E 277 99 29 7f -10
        E 199 b9 04 09
        E 2 89 29 40 -10
        E 279 99 24 58 7
        E 0 99 29 7f 10
        E 201 89 29 40 10
        E 1 89 24 40 7
        E 278 99 24 37 -94
        E 0 99 29 7f -4
        E 200 89 24 40 -94
        E 3 89 29 40 -4
        E 25 b9 04 00
        E 252 99 26 7f -35
        E 0 99 29 7f 32
        E 199 89 26 40 -35
        E 2 89 29 40 32
        E 279 99 29 7f -1
        E 0 99 26 21 109
        E 199 89 26 40 109
        E 3 89 29 40 -1
        E 278 99 24 55 10
        E 0 99 29 7f 14
        E 200 89 24 40 10
        E 3 89 29 40 14
        E 37 99 24 29 79
        E 202 89 24 40 79
        E 38 99 29 7f 26
        E 201 89 29 40 26
        E 279 99 26 7b -15
        E 0 99 29 7f 49
        E 200 89 26 40 -15
        E 0 89 29 40 49
        E 280 99 29 7f 22
        E 0 99 1a 7f 98
        E 96 b9 04 00
        E 104 89 1a 40 98
        E 1 89 29 40 22
        E 176 b9 04 12
        E 7 b9 04 25
        E 62 b9 04 36
        E 34 99 24 65 -45
        E 0 99 29 7f -5
        E 52 b9 04 46
        E 110 b9 04 36
        E 39 89 29 40 -5
        E 2 89 24 40 -45
        E 41 b9 04 25
        E 108 b9 04 18
        E 128 99 29 7f 34
        E 21 b9 04 0f
        E 180 89 29 40 34
        E 279 99 26 7f 51
        E 0 99 29 7f 70
        E 64 b9 04 09
        E 135 89 26 40 51
        E 1 89 29 40 70
        E 8 b9 04 00
        E 272 99 29 7f 9
        E 100 b9 04 09
        E 102 89 29 40 9
        E 38 99 30 7f -54
        E 0 99 24 6e 82
        E 25 b9 04 00
        E 175 89 24 40 82
        E 3 89 30 40 -54
        E 27 b9 04 12
        E 10 99 2d 7f 20
        E 128 b9 04 1d
        E 73 89 2d 40 20
        E 39 99 30 64 -37
        E 0 99 24 49 32
        E 116 b9 04 0f
        E 83 89 30 40 -37
        E 1 89 24 40 32
        E 40 99 2d 7f -14
        E 57 b9 04 06
        E 144 89 2d 40 -14
        E 65 b9 04 00
        E 214 99 26 7f -3
        E 0 99 29 7f 18
        E 200 89 29 40 18
        E 2 89 26 40 -3
        E 278 99 29 7f 11
        E 199 89 29 40 11
        E 24 b9 04 09
        E 257 99 24 5d -2
        E 0 99 29 7f 28
        E 200 89 29 40 28
        E 1 89 24 40 -2
        E 39 99 24 16 21
        E 202 89 24 40 21
        E 38 99 29 7f 10
        E 200 89 29 40 10
        E 40 99 24 23 -41
        E 173 b9 04 03
        E 4 b9 04 00
        E 22 89 24 40 -41
        E 41 99 26 7f 60
        E 0 99 29 7f 77
        E 200 89 26 40 60
        E 0 89 29 40 77
        E 280 99 29 7f 52
        E 200 89 29 40 52
        E 280 99 24 5c 70
        E 0 99 29 7f 99
        E 200 89 24 40 70
        E 1 89 29 40 99
        E 57 b9 04 12
        E 40 b9 04 22
        E 40 b9 04 32
        E 142 99 29 7f 95
        E 83 b9 04 22
        E 35 b9 04 12
        E 36 b9 04 00
        E 45 89 29 40 95
        E 281 99 2c 50 33
        E 0 99 26 7f 97
        E 0 99 29 7f 108
        E 18 b9 04 12
        E 4 b9 04 25
        E 4 b9 04 38
        E 2 b9 04 49
        E 2 b9 04 4f
        E 5 b9 04 5b
        E 35 b9 04 6c
        E 115 b9 04 5c
        E 15 89 2c 40 33
        E 2 89 26 40 97
        E 0 89 29 40 108
        E 4 b9 04 4c
        E 19 b9 04 3c
        E 31 b9 04 2c
        E 46 b9 04 1a
        E 124 b9 04 12
        E 54 99 29 7f 106
        E 201 89 29 40 106
        E 16 b9 04 20
        E 280 b9 04 0f
        E 67 b9 04 00
        E 156 99 29 7f -118
        E 0 99 24 64 -85
        E 96 b9 04 0c
        E 103 89 24 40 -85
        E 1 89 29 40 -118
        E 40 99 24 31 -10
        E 0 99 29 7f 118
        E 200 89 24 40 -10
        E 1 89 29 40 118
        E 279 99 26 7f 98
        E 121 b9 04 03
        E 10 b9 04 00
        E 69 89 26 40 98
        E 40 99 29 7f -117
        E 141 b9 04 12
        E 58 89 29 40 -117
        E 41 99 29 7f 83
        E 6 b9 04 00
        E 172 b9 04 12
        E 9 b9 04 22
        E 8 b9 04 32
        E 4 89 29 40 83
        E 7 b9 04 43
        E 4 b9 04 4c
        E 5 b9 04 54
        E 7 b9 04 65
        E 18 99 2c 1c -27
        E 0 99 30 5b -12
        E 15 b9 04 75
        E 62 b9 04 65
        E 18 b9 04 55
        E 11 b9 04 44
        E 11 b9 04 34
        E 8 b9 04 22
        E 12 b9 04 12
        E 11 b9 04 00
        E 52 89 2c 40 -27
        E 0 89 30 40 -12
        E 40 99 24 7f -1
        E 0 99 2d 7f 82
        E 149 b9 04 12
        E 1 b9 04 25
        E 3 b9 04 38
        E 2 b9 04 49
        E 2 b9 04 53
        E 5 b9 04 5a
        E 2 b9 04 6e
        E 10 b9 04 5d
        E 13 b9 04 6e
        E 12 89 24 40 -1
        E 1 89 2d 40 82
        E 40 99 2c 7a -81
        E 46 b9 04 5d
        E 12 b9 04 4c
        E 8 b9 04 3c
        E 11 b9 04 2c
        E 9 b9 04 1a
        E 12 b9 04 09
        E 6 b9 04 00
        E 94 89 2c 40 -81
        E 42 99 24 58 -42
        E 0 99 2d 7f 36
        E 110 b9 04 12
        E 11 b9 04 25
        E 17 b9 04 36
        E 15 b9 04 46
        E 3 b9 04 4c
        E 8 b9 04 56
        E 37 89 2d 40 36
        E 1 89 24 40 -42
        E 25 b9 04 46
        E 13 99 2c 12 -82
        E 15 b9 04 36
        E 186 89 2c 40 -82
        E 39 99 26 7f 57
        E 0 99 29 7f 104
        E 33 b9 04 2e
        E 67 b9 04 1d
        E 99 89 26 40 57
        E 1 89 29 40 104
        E 65 b9 04 0f
        E 142 b9 04 06
        E 73 99 29 7f 85
        E 199 89 29 40 85
        E 64 b9 04 12
        E 217 99 24 64 90
        E 0 99 29 7f 111
        E 41 b9 04 03
        E 6 b9 04 00
        E 153 89 29 40 111
        E 1 89 24 40 90
        E 279 99 24 3d 29
        E 201 89 24 40 29
        E 39 99 29 7f -119
        E 200 89 29 40 -119
        E 40 99 26 7e 75
        E 200 89 26 40 75
        E 40 99 29 7f -113
        E 199 89 29 40 -113
        E 41 99 29 7f 108
        E 200 89 29 40 108
        E 520 99 29 7f -106
        E 0 99 24 72 -96
        E 200 89 29 40 -106
        E 1 89 24 40 -96
        E 39 99 24 3b 61
        E 73 89 24 40 61
        E 167 99 24 19 -102
        E 0 99 29 7f -100
        E 51 b9 04 06
        E 148 89 24 40 -102
        E 3 89 29 40 -100
        E 146 b9 04 00
        E 132 99 26 7f -107
        E 0 99 29 7f -98
        E 200 89 26 40 -107
        E 3 89 29 40 -98
        E 37 99 29 7f 118
        E 200 89 29 40 118
        E 280 99 29 7f 100
        E 0 99 24 60 107
        E 202 89 29 40 100
        E 0 89 24 40 107
        E 278 99 29 7f 70
        E 200 89 29 40 70
        E 280 99 26 7f 29
        E 0 99 29 7f 56
        E 201 89 26 40 29
        E 0 89 29 40 56
        E 279 99 29 7f 44
        E 182 b9 04 09
        E 18 89 29 40 44
        E 40 99 30 5c -34
        E 200 89 30 40 -34
        E 40 99 24 7f -45
        E 0 99 2d 7f 52
        E 109 b9 04 1a
        E 91 89 2d 40 52
        E 2 89 24 40 -45
        E 38 99 30 79 -38
        E 59 b9 04 27
        E 141 89 30 40 -38
        E 40 99 24 5b -10
        E 0 99 2d 7f 9
        E 3 b9 04 18
        E 138 b9 04 0f
        E 58 89 2d 40 9
        E 2 89 24 40 -10
        E 169 b9 04 06
        E 110 99 26 7f 62
        E 0 99 29 7f 70
        E 66 b9 04 00
        E 134 89 26 40 62
        E 0 89 29 40 70
        E 280 99 29 7f 46
        E 200 89 29 40 46
        E 24 b9 04 09
        E 256 99 29 7f 44
        E 0 99 24 7d 54
        E 200 89 29 40 44
        E 0 89 24 40 54
        E 280 99 24 48 24
        E 0 99 29 7f 50
        E 124 89 24 40 24
        E 76 89 29 40 50
        E 40 99 24 21 -90
        E 200 89 24 40 -90
        E 40 99 26 7f -16
        E 0 99 29 7f 38
        E 200 89 29 40 38
        E 2 89 26 40 -16
        E 278 99 29 7f 42
        E 16 b9 04 03
        E 184 89 29 40 42
        E 280 99 29 7f 64
        E 0 99 24 68 78
        E 201 89 29 40 64
        E 2 89 24 40 78
        E 277 99 24 44 -12
        E 0 99 29 7f 58
        E 200 89 29 40 58
        E 2 89 24 40 -12
        E 278 99 26 7f 41
        E 0 99 29 7f 68
        E 199 89 26 40 41
        E 2 89 29 40 68
        E 157 b9 04 00
        E 122 99 29 7f 66
        E 200 89 29 40 66
        E 280 99 29 7f 71
        E 0 99 24 74 93
        E 199 89 29 40 71
        E 2 89 24 40 93
        E 279 99 24 45 26
        E 0 99 29 7f 60
        E 100 89 24 40 26
        E 100 89 29 40 60
        E 40 99 24 1e -112
        E 202 89 24 40 -112
        E 38 99 26 7b 14
        E 0 99 29 7f 56
        E 200 89 26 40 14
        E 0 89 29 40 56
        E 280 99 29 7f 28
        E 200 89 29 40 28
        E 2 b9 04 0c
        E 38 99 30 65 -30
        E 202 89 30 40 -30
        E 38 99 24 7e -23
        E 0 99 2d 7f 38
        E 186 b9 04 18
        E 14 89 2d 40 38
        E 1 89 24 40 -23
        E 39 99 30 60 -48
        E 200 89 30 40 -48
        E 40 99 2d 7f -3
        E 0 99 24 5a
        E 152 b9 04 0f
        E 47 89 2d 40 -3
        E 3 89 24 40
        E 152 b9 04 06
        E 126 99 26 74 45
        E 0 99 29 7f 58
        E 18 b9 04 00
        E 182 89 29 40 58
        E 1 89 26 40 45
        E 279 99 29 7f 34
        E 202 89 29 40 34
        E 278 99 24 67 38
        E 0 99 29 7f 40
        E 200 89 24 40 38
        E 2 89 29 40 40
        E 278 99 24 46 -14
        E 0 99 29 7f 40
        E 0 99 24 20 96
        E 106 89 24 40 -14
        E 92 89 24 40 96
        E 2 89 29 40 40
        E 280 99 26 7f 6
        E 0 99 29 7f 52
        E 200 89 29 40 52
        E 4 89 26 40 6
        E 276 99 29 7f 46
        E 131 b9 04 00
        E 69 89 29 40 46
        E 40 99 1a 7f -107
        E 118 b9 04 12
        E 7 b9 04 25
        E 3 b9 04 38
        E 2 b9 04 4c
        E 6 b9 04 4c
        E 65 89 1a 40 -107
        E 3 b9 04 5c
        E 36 99 2c 46 -108
        E 0 99 24 7e
        E 0 99 29 7f 44
        E 90 b9 04 4c
        E 56 b9 04 3c
        E 54 89 2c 40 -108
        E 0 89 29 40 44
        E 1 89 24 40
        E 161 b9 04 2c
        E 112 b9 04 1d
        E 6 99 29 7f 64
        E 200 89 29 40 64
        E 280 99 26 7f 58
        E 0 99 29 7f 82
        E 200 89 26 40 58
        E 0 89 29 40 82
        E 280 99 29 7f 74
        E 70 b9 04 12
        E 130 89 29 40 74
        E 136 b9 04 18
        E 144 99 24 67 68
        E 0 99 29 7f 90
        E 202 89 24 40 68
        E 0 89 29 40 90
        E 278 99 24 43 -16
        E 0 99 29 7f 70
        E 64 b9 04 12
        E 136 89 24 40 -16
        E 2 89 29 40 70
        E 278 99 26 7c 66
        E 0 99 29 7f 102
        E 110 b9 04 09
        E 90 89 29 40 102
        E 3 89 26 40 66
        E 57 b9 04 00
        E 220 99 29 7f 70
        E 140 b9 04 0f
        E 60 89 29 40 70
        E 40 99 30 77 2
        E 200 89 30 40 2
        E 40 99 24 7f 4
        E 0 99 2d 7f 105
        E 199 89 2d 40 105
        E 2 89 24 40 4
        E 39 99 30 7a 16
        E 0 99 30 23 114
        E 30 b9 04 18
        E 64 89 30 40 16
        E 104 89 30 40 114
        E 6 b9 04 1d
        E 36 99 24 5f 8
        E 0 99 2d 7f 48
        E 200 89 24 40 8
        E 0 89 2d 40 48
        E 112 b9 04 12
        E 168 99 26 66 48
        E 0 99 29 7f 96
        E 132 b9 04 09
        E 68 89 26 40 48
        E 1 89 29 40 96
        E 279 99 29 7f 78
        E 202 89 29 40 78
        E 38 b9 04 12
        E 240 99 24 6f 94
        E 0 99 29 7f 106
        E 72 b9 04 09
        E 128 89 24 40 94
        E 2 89 29 40 106
        E 90 b9 04 12
        E 188 99 24 3c -22
        E 0 99 29 7f 108
        E 200 89 29 40 108
        E 2 89 24 40 -22
        E 278 99 26 7f 104
        E 112 b9 04 09
        E 88 89 26 40 104
        E 40 99 29 7f -102
        E 200 89 29 40 -102
        E 218 b9 04 00
        E 62 99 29 7f -119
        E 0 99 29 34 -16
        E 0 99 1a 7f 104
        E 101 89 29 40 -119
        E 1 b9 04 00
        E 100 89 29 40 -16
        E 0 89 1a 40 104
        E 38 99 2c 2a 58
        E 38 b9 04 12
        E 4 b9 04 22
        E 4 b9 04 34
        E 4 b9 04 46
        E 7 b9 04 4c
        E 27 b9 04 56
        E 38 b9 04 66
        E 80 89 2c 40 58
        E 38 b9 04 56
        E 0 99 24 7f -108
        E 0 99 29 7f -90
        E 48 b9 04 46
        E 67 b9 04 36
        E 85 89 29 40 -90
        E 2 89 24 40 -108
        E 62 b9 04 3a
        E 52 b9 04 29
        E 110 b9 04 1d
        E 54 99 29 7f -112
        E 200 89 29 40 -112
        E 162 b9 04 15
        E 118 99 26 7e -80
        E 0 99 29 7f -54
        E 200 89 29 40 -54
        E 1 89 26 40 -80
        E 147 b9 04 0c
        E 132 99 29 7f -80
        E 188 b9 04 12
        E 12 89 29 40 -80
        E 280 99 24 70 -64
        E 0 99 29 7f -48
        E 200 89 29 40 -48
        E 1 89 24 40 -64
        E 279 99 24 45 -88
        E 0 99 29 7f -34
        E 0 99 24 21 24
        E 110 89 24 40 -88
        E 90 89 29 40 -34
        E 0 89 24 40 24
        E 210 b9 04 09
        E 70 99 26 7a -80
        E 0 99 29 7f -32
        E 14 b9 04 00
        E 186 89 26 40 -80
        E 1 89 29 40 -32
        E 279 99 29 7f -56
        E 18 b9 04 0f
        E 152 b9 04 15
        E 30 89 29 40 -56
        E 40 99 30 7c -120
        E 0 99 30 26 -32
        E 86 89 30 40 -120
        E 63 b9 04 0f
        E 51 89 30 40 -32
        E 40 99 24 7f -116
        E 0 99 2d 7f -44
        E 60 b9 04 1d
        E 140 89 24 40 -116
        E 4 89 2d 40 -44
        E 22 b9 04 27
        E 14 99 30 7f -108
        E 200 89 30 40 -108
        E 36 b9 04 1d
        E 4 99 24 5d -108
        E 0 99 2d 7f -68
        E 196 b9 04 12
        E 4 89 24 40 -108
        E 0 89 2d 40 -68
        E 266 b9 04 06
        E 14 99 26 7f -76
        E 0 99 29 7f -35
        E 122 b9 04 00
        E 77 89 29 40 -35
        E 1 89 26 40 -76
        E 280 99 29 7f -42
        E 116 b9 04 09
        E 84 89 29 40 -42
        E 280 99 24 7f -54
        E 0 99 29 7f -50
        E 200 89 29 40 -50
        E 2 89 24 40 -54
        E 278 99 24 41 -80
        E 0 99 29 7f -58
        E 0 99 24 1a 76
        E 154 89 24 40 -80
        E 46 89 29 40 -58
        E 0 89 24 40 76
        E 280 99 26 7f -80
        E 0 99 29 7f -67
        E 199 89 29 40 -67
        E 3 89 26 40 -80
        E 164 b9 04 00
        E 114 99 29 7f -90
        E 0 99 1a 7f 88
        E 86 b9 04 00
        E 113 89 29 40 -90
        E 1 89 1a 40 88
        E 40 99 2c 34 68
        E 0 99 24 7f 96
        E 52 b9 04 12
        E 4 b9 04 22
        E 4 b9 04 32
        E 4 b9 04 44
        E 2 b9 04 4c
        E 40 b9 04 54
        E 94 89 2c 40 68
        E 2 89 24 40 96
        E 12 b9 04 5f
        E 26 99 29 7f -86
        E 56 b9 04 4f
        E 86 b9 04 3f
        E 62 89 29 40 -86
        E 170 b9 04 2e
        E 106 99 29 71 -110
        E 46 b9 04 20
        E 156 89 29 40 -110
        E 124 b9 04 18
        E 154 99 26 7f -112
        E 0 99 29 7f -88
        E 66 b9 04 0f
        E 135 89 26 40 -112
        E 0 89 29 40 -88
        E 39 99 29 7f 110
        E 34 b9 04 09
        E 166 89 29 40 110
        E 50 b9 04 12
        E 230 99 24 71 40
        E 0 99 29 7f 78
        E 200 89 24 40 40
        E 0 89 29 40 78
        E 280 99 24 3a -42
        E 0 99 24 1b 54
        E 0 99 29 7f 102
        E 94 89 24 40 -42
        E 105 89 29 40 102
        E 3 89 24 40 54
        E 278 99 26 7f 80
        E 0 99 29 7f 112
        E 158 b9 04 09
        E 42 89 26 40 80
        E 1 89 29 40 112
        E 135 b9 04 00
        E 144 99 29 7f 92
        E 200 89 29 40 92
        E 5 b9 04 09
        E 35 99 30 68 25
        E 199 89 30 40 25
        E 41 99 24 7f 28
        E 0 99 2d 7f 92
        E 200 89 2d 40 92
        E 2 89 24 40 28
        E 18 b9 04 18
        E 20 99 30 72 6
        E 200 89 30 40 6
        E 40 99 24 5a 20
        E 0 99 2d 7f 24
        E 201 89 24 40 20
        E 2 89 2d 40 24
        E 20 b9 04 0f
        E 231 b9 04 09
        E 26 99 26 6f 32
        E 0 99 29 7f 66
        E 186 b9 04 00
        E 14 89 29 40 66
        E 2 89 26 40 32
        E 278 99 29 7f 48
        E 200 89 29 40 48
        E 14 b9 04 0c
        E 266 99 24 7f 58
        E 0 99 29 7f 60
        E 200 89 24 40 58
        E 0 89 29 40 60
        E 280 99 24 47 48
        E 0 99 29 7f 70
        E 118 89 24 40 48
        E 84 89 29 40 70
        E 38 99 24 1e -72
        E 202 89 24 40 -72
        E 38 99 26 75 34
        E 0 99 29 7f 68
        E 200 89 26 40 34
        E 1 89 29 40 68
        E 25 b9 04 06
        E 174 b9 04 00
        E 80 99 29 7f 37
        E 202 89 29 40 37
        E 38 99 1a 7f 44
        E 42 b9 04 00
        E 154 b9 04 12
        E 4 89 1a 40 44
        E 4 b9 04 27
        E 8 b9 04 38
        E 28 99 2c 0e 18
        E 0 99 24 7f 54
        E 0 99 29 7f 86
        E 12 b9 04 49
        E 4 b9 04 4c
        E 102 b9 04 57
        E 52 b9 04 47
        E 29 89 29 40 86
        E 1 89 2c 40 18
        E 0 89 24 40 54
        E 14 b9 04 36
        E 56 b9 04 25
        E 104 b9 04 1a
        E 106 99 29 7f 82
        E 202 89 29 40 82
        E 278 99 26 7f 78
        E 0 99 29 7f 112
        E 77 b9 04 12
        E 123 89 26 40 78
        E 0 89 29 40 112
        E 238 b9 04 09
        E 42 99 29 7f 78
        E 200 89 29 40 78
        E 42 b9 04 12
        E 238 99 29 7f 66
        E 0 99 24 7f 76
        E 136 b9 04 0c
        E 66 89 29 40 66
        E 2 89 24 40 76
        E 276 99 24 49 68
        E 0 99 29 7f 78
        E 120 89 24 40 68
        E 80 89 29 40 78
        E 40 99 24 22 -50
        E 200 89 24 40 -50
        E 40 99 26 7f 40
        E 0 99 29 7f 84
        E 200 89 26 40 40
        E 0 89 29 40 84
        E 82 b9 04 03
        E 10 b9 04 00
        E 188 99 29 7f 60
        E 158 b9 04 0c
        E 44 89 29 40 60
        E 38 99 30 7f -20
        E 204 89 30 40 -20
        E 36 99 24 7f 9
        E 0 99 2d 7f 80
        E 201 89 24 40 9
        E 5 89 2d 40 80
        E 2 b9 04 18
        E 32 99 30 67 -28
        E 0 99 30 2b 44
        E 70 89 30 40 -28
        E 132 89 30 40 44
        E 38 99 24 5b 4
        E 0 99 2d 7f 32
        E 200 89 24 40 4
        E 2 89 2d 40 32
        E 46 b9 04 0f
        E 232 99 26 6d 20
        E 0 99 29 7f 58
        E 128 b9 04 06
        E 72 89 26 40 20
        E 2 89 29 40 58
        E 170 b9 04 00
        E 108 99 29 7f 62
        E 198 b9 04 0c
        E 2 89 29 40 62
        E 280 99 29 7f 88
        E 0 99 24 7f 100
        E 200 89 29 40 88
        E 0 89 24 40 100
        E 280 99 24 4a 72
        E 0 99 29 7f 78
        E 200 89 24 40 72
        E 0 89 29 40 78
        E 280 99 26 7f 20
        E 0 99 29 7f 82
        E 200 89 29 40 82
        E 2 89 26 40 20
        E 278 99 29 7f 90
        E 0 99 26 6c 106
        E 200 89 29 40 90
        E 0 89 26 40 106
        E 6 b9 04 00
        E 274 99 2e 7f 70
        E 68 b9 04 09
        E 4 b9 04 12
        E 10 b9 04 25
        E 8 b9 04 36
        E 66 b9 04 46
        E 18 b9 04 4c
        E 28 89 2e 40 70
        E 38 99 24 7a -94
        E 0 99 29 7f -86
        E 0 99 2c 08 -64
        E 66 b9 04 36
        E 120 b9 04 27
        E 14 89 29 40 -86
        E 2 89 24 40 -94
        E 0 89 2c 40 -64
        E 142 b9 04 1d
        E 136 99 29 7f -118
        E 200 89 29 40 -118
        E 40 99 26 7c 108
        E 164 b9 04 15
        E 36 89 26 40 108
        E 40 99 29 7f -112
        E 180 b9 04 0f
        E 22 89 29 40 -112
        E 38 99 29 7f 108
        E 82 b9 04 09
        E 118 89 29 40 108
        E 124 b9 04 0f
        E 396 99 29 7f -102
        E 0 99 24 7f -70
        E 200 89 29 40 -102
        E 2 89 24 40 -70
        E 38 99 24 44 90
        E 0 99 29 7f 96
        E 200 89 24 40 90
        E 4 89 29 40 96
        E 276 99 26 7f 84
        E 0 99 29 7f 112
        E 200 89 29 40 112
        E 2 89 26 40 84
        E 134 b9 04 03
        E 45 b9 04 00
        E 99 99 29 7f 82
        E 116 b9 04 0f
        E 83 89 29 40 82
        E 41 99 30 79 6
        E 200 89 30 40 6
        E 40 90 34 7f
        E 0 99 24 7e -4
        E 0 99 29 69
        E 120 b9 04 1d
        E 80 89 29 40
        E 2 89 24 40 -4
        E 38 80 34 00
        E 240 99 24 4f -36
        E 0 99 29 69 40
        E 200 89 29 40 40
        E 2 89 24 40 -36
        E 278 90 26 7f
        E 0 99 29 69 40
        E 44 b9 04 00
        E 12 b9 04 06
        E 144 89 29 40 40
        E 40 80 26 00
        E 0 99 26 57 -118
        E 108 89 26 40 -118
        E 132 99 29 69 68
        E 200 89 29 40 68
        E 94 b9 04 09
        E 186 99 29 69 66
        E 40 99 24 72
        E 160 89 29 40 66
        E 40 89 24 40
        E 240 99 24 4a 64
        E 0 99 29 69 70
        E 40 99 24 22
        E 62 89 24 40 64
        E 98 89 29 40 70
        E 40 89 24 40
        E 240 99 26 7f 20
        E 0 99 29 69 64
        E 200 89 26 40 20
        E 0 89 29 40 64
        E 238 b9 04 03
        E 6 b9 04 00
        E 36 99 29 69 44
        E 200 89 29 40 44
        E 40 99 2e 7f 22
        E 20 b9 04 00
        E 152 b9 04 12
        E 8 b9 04 22
        E 4 b9 04 34
        E 15 89 2e 40 22
        E 29 b9 04 44
        E 12 99 2c 0e 4
        E 0 99 29 69 56
        E 0 99 24 7f 58
        E 2 b9 04 4c
        E 28 b9 04 54
        E 170 89 2c 40 4
        E 1 89 29 40 56
        E 0 89 24 40 58
        E 5 b9 04 44
        E 76 b9 04 34
        E 156 b9 04 29
        E 42 99 29 69 28
        E 200 89 29 40 28
        E 34 b9 04 1d
        E 246 99 26 7f 40
        E 0 99 29 69 60
        E 199 89 26 40 40
        E 1 89 29 40 60
        E 14 b9 04 18
        E 190 b9 04 0f
        E 76 99 29 69 47
        E 203 89 29 40 47
        E 277 99 29 69 56
        E 0 99 24 7f 86
        E 200 89 24 40 86
        E 1 89 29 40 56
        E 279 99 24 4c
        E 0 99 29 69 31
        E 200 89 24 40
        E 1 89 29 40 31
        E 279 99 26 7f -16
        E 0 99 29 69 30
        E 202 89 26 40 -16
        E 0 89 29 40 30
        E 92 b9 04 03
        E 6 b9 04 00
        E 180 99 29 69 -12
        E 136 b9 04 0c
        E 65 89 29 40 -12
        E 39 99 30 69 -88
        E 202 89 30 40 -88
        E 38 99 24 7f -30
        E 0 99 2d 6d 1
        E 128 b9 04 1a
        E 74 89 24 40 -30
        E 1 89 2d 40 1
        E 37 99 30 61 -58
        E 0 99 30 2c 20
        E 50 b9 04 25
        E 26 89 30 40 -58
        E 124 89 30 40 20
        E 40 99 24 57 -68
        E 0 99 2d 6d -42
        E 16 b9 04 1a
        E 170 b9 04 12
        E 14 89 24 40 -68
        E 0 89 2d 40 -42
        E 280 99 26 7d -82
        E 0 99 29 69 -18
        E 70 b9 04 0c
        E 130 89 29 40 -18
        E 2 89 26 40 -82
        E 178 b9 04 03
        E 100 99 29 69 -28
        E 182 b9 04 0f
        E 18 89 29 40 -28
        E 280 99 29 69 -2
        E 0 99 24 7f 12
        E 200 89 29 40 -2
        E 0 89 24 40 12
        E 280 99 29 69 -24
        E 0 99 24 4e -19
        E 0 99 24 20 78
        E 95 89 24 40 -19
        E 105 89 29 40 -24
        E 0 89 24 40 78
        E 280 99 26 7f -38
        E 0 99 29 69 -6
        E 200 89 29 40 -6
        E 2 89 26 40 -38
        E 192 b9 04 03
        E 40 b9 04 00
        E 46 99 29 69 -11
        E 182 b9 04 00
        E 19 89 29 40 -11
        E 39 99 1a 7f -56
        E 164 b9 04 12
        E 10 b9 04 25
        E 26 89 1a 40 -56
        E 14 b9 04 36
        E 22 b9 04 46
        E 4 99 24 7f 3
        E 0 99 29 69 18
        E 0 99 2c 0a 24
        E 19 b9 04 4c
        E 159 b9 04 36
        E 22 89 29 40 18
        E 2 89 2c 40 24
        E 1 89 24 40 3
        E 73 b9 04 25
        E 130 b9 04 1d
        E 74 99 29 69 16
        E 112 b9 04 25
        E 87 89 29 40 16
        E 26 b9 04 1d
        E 255 99 26 7f 24
        E 0 99 29 69 32
        E 38 b9 04 18
        E 162 89 26 40 24
        E 0 89 29 40 32
        E 104 b9 04 0c
        E 166 b9 04 06
        E 10 99 29 69 12
        E 200 89 29 40 12
        E 70 b9 04 0c
        E 210 99 29 69 32
        E 0 99 24 7f 54
        E 200 89 29 40 32
        E 2 89 24 40 54
        E 56 b9 04 12
        E 222 99 24 4d 18
        E 0 99 29 69 34
        E 116 89 24 40 18
        E 84 89 29 40 34
        E 40 99 24 20 -102
        E 200 89 24 40 -102
        E 22 b9 04 06
        E 18 99 26 7f -16
        E 0 99 29 69 28
        E 94 b9 04 00
        E 105 89 29 40 28
        E 2 89 26 40 -16
        E 279 99 29 69 15
        E 94 b9 04 12
        E 107 89 29 40 15
        E 39 99 30 77 -50
        E 20 b9 04 1a
        E 162 b9 04 0f
        E 20 89 30 40 -50
        E 38 99 24 7f -28
        E 0 99 2d 6d 40
        E 144 b9 04 1d
        E 56 89 24 40 -28
        E 2 89 2d 40 40
        E 38 99 30 51 -16
        E 0 99 30 24 74
        E 8 b9 04 2e
        E 80 89 30 40 -16
        E 114 89 30 40 74
        E 38 99 24 5a -42
        E 0 99 2d 6d -12
        E 74 b9 04 25
        E 107 b9 04 1a
        E 19 89 24 40 -42
        E 0 89 2d 40 -12
        E 148 b9 04 12
        E 132 90 32 7f
        E 0 99 26 7f -42
        E 0 99 29 69 6
        E 88 b9 04 06
        E 112 89 29 40 6
        E 4 89 26 40 -42
        E 36 80 32 00
        E 32 b9 04 00
        E 208 99 29 69 10
        E 144 b9 04 0f
        E 56 89 29 40 10
        E 280 99 29 69 18
        E 0 99 24 7f 54
        E 42 b9 04 09
        E 160 89 29 40 18
        E 0 89 24 40 54
        E 20 b9 04 12
        E 258 99 29 69 24
        E 0 99 24 52 32
        E 102 89 24 40 32
        E 100 89 29 40 24
        E 38 99 24 21 -102
        E 182 b9 04 0c
        E 16 89 24 40 -102
        E 42 99 26 7f -16
        E 0 99 29 69 22
        E 200 89 29 40 22
        E 2 89 26 40 -16
        E 78 b9 04 06
        E 200 99 29 69 -4
        E 6 b9 04 00
        E 196 89 29 40 -4
        E 18 b9 04 00
        E 20 99 2e 7f -18
        E 116 b9 04 12
        E 8 b9 04 25
        E 6 b9 04 36
        E 44 b9 04 46
        E 20 b9 04 4c
        E 6 89 2e 40 -18
        E 40 99 2c 0c -44
        E 0 99 24 7f -2
        E 0 99 29 69 12
        E 44 b9 04 4d
        E 42 b9 04 3c
        E 38 b9 04 2c
        E 76 89 24 40 -2
        E 1 89 2c 40 -44
        E 1 89 29 40 12
        E 38 b9 04 1d
        E 238 b9 04 2e
        E 2 99 29 69 12
        E 200 89 29 40 12
        E 78 b9 04 27
        E 119 b9 04 1a
        E 83 99 26 7f 12
        E 0 99 29 69 26
        E 200 89 26 40 12
        E 2 89 29 40 26
        E 158 b9 04 0f
        E 120 99 29 69 44
        E 200 89 29 40 44
        E 28 b9 04 15
        E 252 99 29 69 46
        E 0 99 24 7f 72
        E 200 89 29 40 46
        E 0 89 24 40 72
        E 280 99 24 4f 26
        E 0 99 29 69 40
        E 200 89 24 40 26
        E 0 89 29 40 40
        E 254 b9 04 0f
        E 26 99 26 7b 2
        E 0 99 29 69 34
        E 200 89 26 40 2
        E 2 89 29 40 34
        E 8 b9 04 03
        E 36 b9 04 00
        E 234 99 29 69 16
        E 26 b9 04 12
        E 176 89 29 40 16
        E 4 b9 04 1a
        E 34 99 31 7f -82
        E 134 b9 04 09
        E 68 89 31 40 -82
        E 38 99 24 7f -14
        E 0 99 2d 6d 13
        E 0 99 29 57 16
        E 164 b9 04 15
        E 38 89 24 40 -14
        E 0 89 29 40 16
        E 1 89 2d 40 13
        E 277 99 24 4c -60
        E 0 99 2d 6d 5
        E 100 b9 04 0f
        E 100 89 24 40 -60
        E 3 89 2d 40 5
        E 277 90 30 6d
        E 0 99 26 7f -12
        E 0 99 29 69 -2
        E 0 99 26 36 80
        E 88 89 26 40 -12
        E 2 b9 04 06
        E 108 89 26 40 80
        E 2 89 29 40 -2
        E 40 80 30 00
        E 240 99 29 69 32
        E 128 b9 04 0f
        E 74 89 29 40 32
        E 200 b9 04 03
        E 16 b9 04 00
        E 62 99 24 7f -42
        E 0 99 29 69 2
        E 176 b9 04 0c
        E 23 89 29 40 2
        E 3 89 24 40 -42
        E 278 99 29 69 -31
        E 203 89 29 40 -31
        E 277 99 26 7f -42
        E 0 99 29 69 -4
        E 200 89 26 40 -42
        E 2 89 29 40 -4
        E 90 b9 04 03
        E 188 99 29 69 -24
        E 104 b9 04 0c
        E 96 89 29 40 -24
        E 40 99 26 3e -32
        E 186 b9 04 06
        E 14 89 26 40 -32
        E 40 99 24 7f -46
        E 0 99 29 69 -23
        E 128 b9 04 0f
        E 73 89 29 40 -23
        E 2 89 24 40 -46
        E 277 99 24 4b -76
        E 0 99 29 69 -38
        E 200 89 24 40 -76
        E 0 89 29 40 -38
        E 280 99 26 7f -38
        E 0 99 29 69 -20
        E 200 89 26 40 -38
        E 0 89 29 40 -20
        E 46 b9 04 06
        E 234 99 29 69 -14
        E 154 b9 04 0f
        E 48 89 29 40 -14
        E 278 99 29 69 -10
        E 0 99 24 7f -4
        E 50 b9 04 09
        E 150 89 29 40 -10
        E 4 89 24 40 -4
        E 276 99 29 69 -24
        E 200 89 29 40 -24
        E 280 99 26 7e -22
        E 0 99 29 69 8
        E 200 89 29 40 8
        E 2 89 26 40 -22
        E 98 b9 04 00
        E 180 99 29 69 -12
        E 106 b9 04 0c
        E 98 89 29 40 -12
        E 36 99 30 77 -71
        E 201 89 30 40 -71
        E 39 99 24 7f -49
        E 0 99 2d 6d 26
        E 160 b9 04 18
        E 41 89 24 40 -49
        E 1 89 2d 40 26
        E 38 99 30 60 -79
        E 0 99 30 11 28
        E 105 89 30 40 -79
        E 95 89 30 40 28
        E 40 99 24 5b -76
        E 0 99 2d 6d -32
        E 191 b9 04 0c
        E 9 89 24 40 -76
        E 0 89 2d 40 -32
        E 280 90 34 7f
        E 0 99 26 7f -58
        E 0 99 29 69 -17
        E 74 b9 04 03
        E 44 b9 04 00
        E 82 89 26 40 -58
        E 3 89 29 40 -17
        E 37 80 34 00
        E 240 99 29 69 -24
        E 114 b9 04 0c
        E 88 89 29 40 -24
        E 79 b9 04 12
        E 199 99 29 69 -14
        E 0 99 24 7f 18
        E 47 b9 04 09
        E 152 89 29 40 -14
        E 1 89 24 40 18
        E 280 99 24 4f -39
        E 0 99 29 69 -22
        E 200 89 24 40 -39
        E 0 89 29 40 -22
        E 280 99 26 7f -8
        E 0 99 29 69 20
        E 136 b9 04 0f
        E 63 89 26 40 -8
        E 1 89 29 40 20
        E 162 b9 04 00
        E 118 99 29 69 -18
        E 0 99 29 16 88
        E 103 89 29 40 -18
        E 91 b9 04 00
        E 6 89 29 40 88
        E 40 99 2e 7f -44
        E 202 89 2e 40 -44
        E 38 99 2c 4a
        E 0 99 24 7f -22
        E 0 99 29 69 12
        E 46 b9 04 5a
        E 32 b9 04 12
        E 6 b9 04 27
        E 2 b9 04 38
        E 4 b9 04 4a
        E 2 b9 04 4f
        E 4 b9 04 5a
        E 14 b9 04 4a
        E 19 b9 04 5a
        E 1 b9 04 3a
        E 46 b9 04 6a
        E 24 89 29 40 12
        E 2 89 2c 40
        E 0 89 24 40 -22
        E 132 b9 04 29
        E 122 b9 04 1d
        E 24 99 24 0a -68
        E 0 99 29 69 28
        E 199 89 24 40 -68
        E 3 89 29 40 28
        E 278 99 26 7f 3
        E 0 99 29 69 18
        E 200 89 26 40 3
        E 0 89 29 40 18
        E 71 b9 04 12
        E 209 99 29 69 9
        E 201 89 29 40 9
        E 43 b9 04 1a
        E 236 99 29 69 25
        E 0 99 24 7f 37
        E 41 b9 04 12
        E 159 89 29 40 25
        E 3 89 24 40 37
        E 277 99 24 50 -24
        E 0 99 29 69 6
        E 202 89 29 40 6
        E 2 89 24 40 -24
        E 276 99 26 7f -32
        E 0 99 29 69 21
        E 153 b9 04 00
        E 47 89 29 40 21
        E 2 89 26 40 -32
        E 278 99 29 69 -28
        E 98 b9 04 12
        E 104 89 29 40 -28
        E 38 99 26 59 -54
        E 46 b9 04 1d
        E 154 89 26 40 -54
        E 40 99 24 7f -4
        E 0 99 31 7f -2
        E 50 b9 04 25
        E 134 b9 04 36
        E 18 89 24 40 -4
        E 0 89 31 40 -2
        E 278 99 24 4b -51
        E 0 99 29 69
        E 4 b9 04 27
        E 114 b9 04 1a
        E 82 89 29 40
        E 3 89 24 40 -51
        E 72 b9 04 12
        E 169 b9 04 09
        E 36 99 26 7f -14
        E 0 99 29 69 16
        E 199 89 26 40 -14
        E 1 89 29 40 16
        E 280 99 29 69 -21
        E 201 89 29 40 -21
        E 254 b9 04 00
        E 25 99 29 69 -12
        E 0 99 24 6e 32
        E 202 89 29 40 -12
        E 0 89 24 40 32
        E 20 b9 04 09
        E 258 99 24 43 -12
        E 0 99 29 69 -4
        E 0 99 24 1f 79
        E 89 89 24 40 -12
        E 111 89 29 40 -4
        E 1 89 24 40 79
        E 279 99 26 7f -2
        E 0 99 29 69 24
        E 150 b9 04 00
        E 50 89 26 40 -2
        E 2 89 29 40 24
        E 278 99 29 69 -31
        E 16 b9 04 0f
        E 166 b9 04 15
        E 21 89 29 40 -31
        E 37 99 30 77 -70
        E 159 b9 04 0f
        E 42 89 30 40 -70
        E 39 99 24 7f -104
        E 0 99 2d 6d -15
        E 44 b9 04 20
        E 149 b9 04 29
        E 7 89 2d 40 -15
        E 2 89 24 40 -104
        E 38 99 30 61 -86
        E 0 99 30 1e 9
        E 91 89 30 40 -86
        E 92 b9 04 18
        E 17 89 30 40 9
        E 40 99 24 60 -114
        E 0 99 2d 6d -50
        E 178 b9 04 0f
        E 22 89 24 40 -114
        E 0 89 2d 40 -50
        E 198 b9 04 09
        E 82 90 38 7f
        E 0 99 26 7f -70
        E 0 99 29 69 -27
        E 157 b9 04 03
        E 45 89 26 40 -70
        E 0 89 29 40 -27
        E 30 b9 04 00
        E 8 80 38 00
        E 240 99 29 5b -26
        E 124 b9 04 09
        E 76 89 29 40 -26
        E 280 99 29 69 -18
        E 0 99 24 7f -15
        E 200 89 29 40 -18
        E 1 89 24 40 -15
        E 48 b9 04 0f
        E 231 99 24 4c -25
        E 0 99 29 69 -8
        E 0 99 24 1e 81
        E 104 89 24 40 -25
        E 96 89 29 40 -8
        E 0 89 24 40 81
        E 80 b9 04 09
        E 200 99 26 7f -64
        E 0 99 29 69 -4
        E 106 b9 04 03
        E 94 89 26 40 -64
        E 2 89 29 40 -4
        E 10 b9 04 00
        E 268 99 29 69 -28
        E 97 b9 04 0f
        E 103 89 29 40 -28
        E 40 99 30 60 -64
        E 200 89 30 40 -64
        E 40 99 24 7f -36
        E 0 99 2d 6d -12
        E 115 b9 04 1d
        E 85 89 2d 40 -12
        E 2 89 24 40 -36
        E 38 99 30 42 -86
        E 201 89 30 40 -86
        E 39 99 24 69 -60
        E 0 99 2d 6d -58
        E 101 b9 04 12
        E 101 89 24 40 -60
        E 0 89 2d 40 -58
        E 230 b9 04 0c
        E 48 90 37 7f
        E 0 99 26 7f -92
        E 0 99 29 69 -24
        E 116 b9 04 03
        E 9 b9 04 00
        E 75 89 26 40 -92
        E 2 89 29 40 -24
        E 38 80 37 00
        E 240 99 29 69 -44
        E 120 b9 04 09
        E 80 89 29 40 -44
        E 280 99 29 69 -41
        E 0 99 24 7c -4
        E 200 89 29 40 -41
        E 2 89 24 40 -4
        E 278 99 29 69 -46
        E 0 99 24 47 -34
        E 0 99 24 1d 56
        E 88 89 24 40 -34
        E 112 89 29 40 -46
        E 0 89 24 40 56
        E 280 99 26 7f -21
        E 0 99 29 69 3
        E 36 b9 04 00
        E 165 89 26 40 -21
        E 0 89 29 40 3
        E 279 99 29 69 -36
        E 0 99 29 18 59
        E 63 b9 04 0f
        E 31 89 29 40 -36
        E 105 89 29 40 59
        E 41 99 30 6f -55
        E 201 89 30 40 -55
        E 39 99 24 7f -66
        E 0 99 2d 6d -7
        E 191 b9 04 1d
        E 11 89 24 40 -66
        E 1 89 2d 40 -7
        E 37 99 30 66 -35
        E 0 99 30 29 44
        E 76 89 30 40 -35
        E 35 b9 04 22
        E 91 89 30 40 44
        E 38 99 24 66 -56
        E 0 99 2d 6d -50
        E 56 b9 04 18
        E 142 b9 04 0f
        E 1 89 2d 40 -50
        E 2 89 24 40 -56
        E 160 b9 04 09
        E 119 99 26 7f -56
        E 0 99 29 69 -2
        E 200 89 29 40 -2
        E 1 89 26 40 -56
        E 89 b9 04 00
        E 190 99 29 65 -29
        E 177 b9 04 06
        E 25 89 29 40 -29
        E 278 99 29 69 -13
        E 0 99 24 7f 29
        E 201 89 29 40 -13
        E 0 89 24 40 29
        E 279 99 29 69 -14
        E 0 99 24 4d 6
        E 0 99 24 1e 94
        E 86 89 24 40 6
        E 113 89 24 40 94
        E 3 89 29 40 -14
        E 278 99 26 7f -4
        E 0 99 29 69 17
        E 133 b9 04 00
        E 70 89 29 40 17
        E 1 89 26 40 -4
        E 276 99 29 69 -6
        E 96 b9 04 0c
        E 104 89 29 40 -6
        E 40 99 30 77 -45
        E 28 b9 04 12
        E 175 89 30 40 -45
        E 13 b9 04 09
        E 24 99 24 7f -50
        E 0 99 2d 6d 34
        E 178 b9 04 12
        E 22 89 2d 40 34
        E 2 89 24 40 -50
        E 38 99 30 5a
        E 104 b9 04 18
        E 98 89 30 40
        E 38 99 24 6a -47
        E 0 99 2d 6d -24
        E 158 b9 04 0f
        E 42 89 2d 40 -24
        E 3 89 24 40 -47
        E 219 b9 04 06
        E 58 99 26 78 -29
        E 0 99 29 69 8
        E 0 99 2e 7f
        E 81 b9 04 00
        E 35 b9 04 12
        E 8 b9 04 25
        E 6 b9 04 36
        E 44 b9 04 46
        E 20 b9 04 4c
        E 6 89 2e 40
        E 2 89 29 40 8
        E 1 89 26 40 -29
        E 277 99 2c 0c
        E 0 99 29 69 -2
        E 44 b9 04 4d
        E 42 b9 04 3c
        E 38 b9 04 2c
        E 18 b9 04 0c
        E 59 89 2c 40
        E 0 89 29 40 -2
        E 279 99 29 69 9
        E 0 99 24 7f 38
        E 44 b9 04 06
        E 157 89 29 40 9
        E 0 89 24 40 38
        E 279 99 24 47 -14
        E 0 99 29 69 18
        E 199 89 24 40 -14
        E 1 89 29 40 18
        E 280 99 26 7f -6
        E 0 99 29 69 35
        E 126 b9 04 00
        E 73 89 26 40 -6
        E 2 89 29 40 35
        E 279 99 29 69 -24
        E 94 b9 04 09
        E 105 89 29 40 -24
        E 41 99 30 6b -35
        E 203 89 30 40 -35
        E 37 99 24 7f -90
        E 0 99 2d 6d 6
        E 147 b9 04 15
        E 52 89 2d 40 6
        E 5 89 24 40 -90
        E 36 99 30 61 -12
        E 66 b9 04 1a
        E 136 89 30 40 -12
        E 38 99 24 66 -85
        E 0 99 2d 6d -31
        E 110 b9 04 12
        E 91 89 2d 40 -31
        E 1 89 24 40 -85
        E 177 b9 04 0c
        E 101 90 3a 7f
        E 0 99 26 7f -24
        E 0 99 29 69 3
        E 156 b9 04 03
        E 45 89 26 40 -24
        E 0 89 29 40 3
        E 39 80 3a 00
        E 8 b9 04 00
        E 232 99 29 69 -1
        E 176 b9 04 09
        E 26 89 29 40 -1
        E 278 99 29 69 -1
        E 0 99 24 7f 29
        E 202 89 29 40 -1
        E 1 89 24 40 29
        E 277 99 24 49 -16
        E 0 99 29 69 -4
        E 199 89 24 40 -16
        E 2 89 29 40 -4
        E 279 99 26 7f -24
        E 0 99 29 69 10
        E 199 89 29 40 10
        E 3 89 26 40 -24
        E 18 b9 04 00
        E 260 99 29 69 -18
        E 48 b9 04 0c
        E 151 89 29 40 -18
        E 13 b9 04 12
        E 28 99 30 77 -53
        E 197 b9 04 09
        E 3 89 30 40 -53
        E 40 99 24 7f -51
        E 0 99 2d 7f
        E 146 b9 04 15
        E 54 89 2d 40
        E 3 89 24 40 -51
        E 37 99 30 6c -11
        E 0 99 30 3b 46
        E 53 89 30 40 -11
        E 11 b9 04 1d
        E 133 89 30 40 46
        E 43 99 24 5e -56
        E 0 99 2d 7f -38
        E 143 b9 04 15
        E 56 89 2d 40 -38
        E 3 89 24 40 -56
        E 175 b9 04 09
        E 103 99 26 78 -64
        E 0 99 29 7f -16
        E 200 89 26 40 -64
        E 0 89 29 40 -16
        E 4 b9 04 00
        E 276 99 29 7f -19
        E 196 b9 04 06
        E 7 89 29 40 -19
        E 277 99 29 7f -4
        E 0 99 24 7f 41
        E 199 89 29 40 -4
        E 1 89 24 40 41
        E 280 99 24 43 -32
        E 0 99 29 7f -5
        E 200 89 24 40 -32
        E 0 89 29 40 -5
        E 280 99 26 7f -49
        E 0 99 29 7f
        E 112 b9 04 00
        E 88 89 29 40
        E 2 89 26 40 -49
        E 278 99 29 7f
        E 109 b9 04 0c
        E 91 89 29 40
        E 40 99 30 71 -81
        E 0 99 30 21 41
        E 121 89 30 40 -81
        E 79 89 30 40 41
        E 35 b9 04 03
        E 5 99 24 7f -42
        E 0 99 2d 7f 12
        E 171 b9 04 0f
        E 28 89 24 40 -42
        E 0 89 2d 40 12
        E 41 99 30 4f -47
        E 0 99 30 30 29
        E 72 89 30 40 -47
        E 127 89 30 40 29
        E 41 99 24 4e -76
        E 0 99 2d 7f -24
        E 202 89 2d 40 -24
        E 1 89 24 40 -76
        E 37 99 30 5c -16
        E 202 89 30 40 -16
        E 38 99 29 2f -39
        E 0 99 2d 7f -31
        E 200 89 2d 40 -31
        E 2 89 29 40 -39
        E 28 b9 04 03
        E 31 b9 04 00
        E 219 99 29 7f -23
        E 154 b9 04 06
        E 47 89 29 40 -23
        E 39 99 26 6b -34
        E 80 b9 04 00
        E 119 89 26 40 -34
        E 41 99 29 7f 11
        E 0 99 24 5a 43
        E 0 99 29 4e 86
        E 71 89 29 40 11
        E 126 89 29 40 86
        E 3 89 24 40 43
        E 40 99 26 5f -18
        E 0 99 26 25 74
        E 41 b9 04 0c
        E 49 89 26 40 -18
        E 112 89 26 40 74
        E 38 99 24 4b -24
        E 0 99 29 1d 13
        E 0 99 2d 7f 19
        E 197 b9 04 18
        E 2 89 24 40 -24
        E 4 89 29 40 13
        E 2 89 2d 40 19
        E 35 99 30 59 -18
        E 0 99 30 37 47
        E 63 89 30 40 -18
        E 137 89 30 40 47
        E 40 99 33 77 -53
        E 0 99 33 2b 104
        E 155 89 33 40 -53
        E 44 89 33 40 104
        E 41 99 26 53 -81
        E 128 b9 04 0f
        E 74 89 26 40 -81
        E 38 99 26 7f -40
        E 200 89 26 40 -40
        E 40 99 26 4f -69
        E 200 89 26 40 -69
        E 40 99 26 7f -37
        E 205 89 26 40 -37
        E 35 99 26 44 -29
        E 202 89 26 40 -29
        E 38 99 26 7f -36
        E 204 89 26 40 -36
        E 36 99 26 53 -21
        E 201 89 26 40 -21
        E 39 99 26 7f -15
        E 201 89 26 40 -15
        E 39 99 26 48 -40
        E 199 89 26 40 -40
        E 41 99 26 76 -19
        E 190 89 26 40 -19
        E 50 99 26 4a -67
        E 200 89 26 40 -67
        E 40 99 26 7f -17
        E 169 b9 04 15
        E 32 89 26 40 -17
        E 39 99 26 72 -35
        E 203 89 26 40 -35
        E 37 99 26 65 41
        E 203 89 26 40 41
        E 37 99 24 41 -120
        E 0 99 24 22 -27
        E 0 99 26 3f 88
        E 91 89 24 40 -120
        E 24 b9 04 1d
        E 37 89 26 40 88
        E 49 89 24 40 -27
        E 39 99 26 5d 1
        E 201 89 26 40 1
        E 39 99 26 47 -31
        E 8 b9 04 27
        E 195 89 26 40 -31
        E 37 99 26 7f 27
        E 151 b9 04 1a
        E 50 89 26 40 27
        E 39 99 24 67 -62
        E 0 99 26 46 24
        E 0 99 24 28 37
        E 97 89 24 40 -62
        E 103 89 26 40 24
        E 0 89 24 40 37
        E 40 99 26 7f 47
        E 110 89 26 40 47
        E 130 99 26 2a -81
        E 0 99 26 54 65
        E 144 89 26 40 -81
        E 56 89 26 40 65
        E 6 b9 04 20
        E 34 99 26 7a 79
        E 0 99 24 4f 97
        E 146 89 24 40 97
        E 46 89 26 40 79
        E 27 b9 04 1a
        E 21 99 24 20 5
        E 0 99 26 56 33
        E 201 89 24 40 5
        E 0 89 26 40 33
        E 39 99 26 6d 80
        E 179 89 26 40 80
        E 61 99 26 39 21
        E 0 99 26 21 91
        E 68 89 26 40 21
        E 132 89 26 40 91
        E 40 99 26 72 55
        E 0 99 24 3f 109
        E 174 89 26 40 55
        E 27 89 24 40 109
        E 39 99 26 3a -9
        E 0 99 26 20 72
        E 0 99 24 14 111
        E 81 89 26 40 -9
        E 118 89 26 40 72
        E 3 89 24 40 111
        E 35 b9 04 25
        E 3 99 26 6c 40
        E 159 b9 04 30
        E 18 89 26 40 40
        E 63 99 26 3e -21
        E 0 99 26 26 47
        E 0 99 2c 04 117
        E 44 b9 04 41
        E 22 89 26 40 -21
        E 49 b9 04 4c
        E 32 b9 04 51
        E 53 89 26 40 47
        E 0 89 2c 40 117
        E 40 99 24 7f 9
        E 0 99 31 7f 81
        E 27 b9 04 5d
        E 175 89 31 40 81
        E 1 89 24 40 9
        E 166 b9 04 64
        E 122 b9 04 54
        E 24 b9 04 44
        E 22 b9 04 34
        E 18 b9 04 22
        E 24 b9 04 12
        E 28 b9 04 00
        E 8428 b0 7b 00
        GUID {B47AA600-2DBD-4449-89A2-01832EFAA2CC}
        IGNTEMPO 0 120 4 4
        SRCCOLOR 151
        VELLANE -1 100 0
        CFGEDITVIEW 329854.512472 0.074447 59 12 0 -1 0 0 0 0.5
        KEYSNAP 0
        TRACKSEL -252
        EVTFILTER 0 -1 -1 -1 -1 0 0 0 0 -1 -1 -1 -1 0 -1 0 -1 -1
        CFGEDIT 1 1 0 1 0 0 1 1 1 1 1 0.25 320 95 2496 860 0 0 0 0 0 0 0 0 0 0.5 0 0 1 64
      >
    >
  >
  <TRACK {D6B4CDEA-29C6-49BC-8F74-82D447FABA0E}
    NAME Bass
    PEAKCOL 21267841
    BEAT -1
    AUTOMODE 0
    VOLPAN 0.77019387072009 0 -1 -1 1
    MUTESOLO 0 0 0
    IPHASE 0
    ISBUS 0 0
    BUSCOMP 0 0
    SHOWINMIX 1 0.6667 0.5 1 0.5 0 0 0
    FREEMODE 0
    SEL 0
    REC 0 1 0 0 0 0 0
    VU 2
    TRACKHEIGHT 0 0
    INQ 0 0 0 0.5 100 0 0 100
    NCHAN 2
    FX 1
    TRACKID {D6B4CDEA-29C6-49BC-8F74-82D447FABA0E}
    PERF 0
    MIDIOUT -1
    MAINSEND 1 0
    <FXCHAIN
      WNDRECT 661 399 1265 944
      SHOW 0
      LASTSEL 1
      DOCKED 0
      BYPASS 0 0 0
      <VST "VST3: GTR Amp Mono (Waves)" "WaveShell-VST3 9.6_x64.vst3" 0 "" 306114270{56535447414D4D67747220616D70206D}
        3u4+Eu5e7f4BAAAAAQAAAAAAAAABAAAAAwAAAAAAAADwCgAAAQAAAAAAEAA=
        4AoAAAEAAAAAAAq9AAAAAwAAAAFHQU1Nc2V0QQAACp1YUHN0PFByZXNldENodW5rWE1MVHJlZSB2ZXJzaW9uPSIyIj4KICAgIDxQcmVzZXQgTmFtZT0iQmFzc0Z1enoi
        IEdlbmVyaWNUeXBlPSJHQU1QIj4KICAgICAgICA8UHJlc2V0SGVhZGVyPgogICAgICAgICAgICA8UGx1Z2luTmFtZT5HVFIgQW1wPC9QbHVnaW5OYW1lPgogICAgICAg
        ICAgICA8UGx1Z2luU3ViQ29tcD5HQU1NPC9QbHVnaW5TdWJDb21wPgogICAgICAgICAgICA8UGx1Z2luVmVyc2lvbj45LjYuMC4xNTU8L1BsdWdpblZlcnNpb24+CiAg
        ICAgICAgICAgIDxBY3RpdmVTZXR1cD5TRVRVUF9BPC9BY3RpdmVTZXR1cD4KICAgICAgICAgICAgPFJlYWRPbmx5PnRydWU8L1JlYWRPbmx5PgogICAgICAgIDwvUHJl
        c2V0SGVhZGVyPgogICAgICAgIDxQcmVzZXREYXRhIFNldHVwPSJTRVRVUF9BIiBTZXR1cE5hbWU9IkJhc3NGdXp6Ij4KICAgICAgICAgICAgPFBhcmFtZXRlcnMgVHlw
        ZT0iUmVhbFdvcmxkIj4xMCAzLjIwMDAwMDAwMDAwMDAwMDIgKiAqICogKiAyIDAgKiAqCiogKiAqIDUgMCAwIDAgMCAqCjEwIDUuNzk5OTk5OTk5OTk5OTk5OCA2LjQw
        MDAwMDAwMDAwMDAwMDQgNiAxMDAwMCAwIDAuOTAwMDAwMDAwMDAwMDAwMDIgMSAwCjAgLTE4IDUuNTUwMDAwMDAwMDAwMDAwMmUtMDE3IDAgMzAgNS41NTAwMDAwMDAw
        MDAwMDAyZS0wMTcgNS41NTAwMDAwMDAwMDAwMDAyZS0wMTcgMSAwCjAgLTEyIDEyIDc0IDAuODE5OTk5OTk5OTk5OTk5OTUgMCAtMTggOCA3MDYKMC44MTk5OTk5OTk5
        OTk5OTk5NSAwIC0xMiAxMiA0MDQ5IDAuODAwMDAwMDAwMDAwMDAwMDQgMCAtMiA4CjUgNSAwIDAgLTEwMCAxMDAgMCAxIDEKMCAwIDAgMSAwIDEgNDAwMSAtMTMxIDAK
        MCAwIDAgKiAqIDwvUGFyYW1ldGVycz4KICAgICAgICAgICAgPFBsdWdpblNwZWNpZmljIFRhZ05hbWU9IkltcHVsc2UgUmVzcG9uc2UiIE1lbnVJdGVtU3RyaW5nPSJJ
        bXB1bHNlIFJlc3BvbnNlIiBUYWdJRD0iMCIgRGF0YVR5cGU9Ik5vRGF0YSI+CiAgICAgICAgICAgICAgICA8RmxhZ3M+CiAgICAgICAgICAgICAgICAgICAgPGxvYWRf
        d2l0aF9wYXJhbXMvPgogICAgICAgICAgICAgICAgPC9GbGFncz4KICAgICAgICAgICAgICAgIDxEZXNjcmlwdG9ycz4KICAgICAgICAgICAgICAgICAgICA8RGVzY3Jp
        cHRvciBOYW1lPSJBbXBNb2RlbEZpbGUiPjk2X092ZXJCYXNzLnhwczwvRGVzY3JpcHRvcj4KICAgICAgICAgICAgICAgICAgICA8RGVzY3JpcHRvciBOYW1lPSJBbXBN
        b2RlbFByZXNldCI+T3ZlckJhc3M8L0Rlc2NyaXB0b3I+CiAgICAgICAgICAgICAgICAgICAgPERlc2NyaXB0b3IgTmFtZT0iQ2FiaW5ldE1vZGVsRmlsZSI+QjE1MTZf
        Q29uZEdScDIueHBzPC9EZXNjcmlwdG9yPgogICAgICAgICAgICAgICAgICAgIDxEZXNjcmlwdG9yIE5hbWU9IkNhYmluZXRNb2RlbEZvbGRlciI+QkFTU19NMTUxNjwv
        RGVzY3JpcHRvcj4KICAgICAgICAgICAgICAgICAgICA8RGVzY3JpcHRvciBOYW1lPSJDYWJpbmV0TW9kZWxQcmVzZXQiPkNvbmRHUl9wb3MyPC9EZXNjcmlwdG9yPgog
        ICAgICAgICAgICAgICAgPC9EZXNjcmlwdG9ycz4KICAgICAgICAgICAgICAgIDxEYXRhLz4KICAgICAgICAgICAgPC9QbHVnaW5TcGVjaWZpYz4KICAgICAgICA8L1By
        ZXNldERhdGE+CiAgICAgICAgPFByZXNldERhdGEgU2V0dXA9IlNFVFVQX0IiPgogICAgICAgICAgICA8UGFyYW1ldGVycyBUeXBlPSJSZWFsV29ybGQiPjUgNSAqICog
        KiAqIDIgMCAqICoKKiAqICogNSAwIDAgMCAwICoKNSA1IDUgNiAxMDAwMCA1IDAuOTAwMDAwMDAwMDAwMDAwMDIgMiAwCjAgNiAwIDAgMzAgMCAwIDEgMAowIC0xMiAx
        MiAyMTAgMSAwIC04IDggMTAwMQoxIDIgLTEyIDEyIDM2MTIgMC44MDAwMDAwMDAwMDAwMDAwNCAwIC0yIDgKNSA1IDAgMCAtMTAwIDEwMCAwIDEgMQowIDAgMCAxIDAg
        MSA0MDAxIC0xNDAgMAowIDAgMCAqICogPC9QYXJhbWV0ZXJzPgogICAgICAgICAgICA8UGx1Z2luU3BlY2lmaWMgVGFnTmFtZT0iSW1wdWxzZSBSZXNwb25zZSIgTWVu
        dUl0ZW1TdHJpbmc9IkltcHVsc2UgUmVzcG9uc2UiIFRhZ0lEPSIwIiBEYXRhVHlwZT0iTm9EYXRhIj4KICAgICAgICAgICAgICAgIDxGbGFncz4KICAgICAgICAgICAg
        ICAgICAgICA8bG9hZF93aXRoX3BhcmFtcy8+CiAgICAgICAgICAgICAgICA8L0ZsYWdzPgogICAgICAgICAgICAgICAgPERlc2NyaXB0b3JzPgogICAgICAgICAgICAg
        ICAgICAgIDxEZXNjcmlwdG9yIE5hbWU9IkFtcE1vZGVsRmlsZSI+MjBfQ2xlYW4ueHBzPC9EZXNjcmlwdG9yPgogICAgICAgICAgICAgICAgICAgIDxEZXNjcmlwdG9y
        IE5hbWU9IkFtcE1vZGVsUHJlc2V0Ij5DbGVhbjwvRGVzY3JpcHRvcj4KICAgICAgICAgICAgICAgICAgICA8RGVzY3JpcHRvciBOYW1lPSJDYWJpbmV0TW9kZWxGaWxl
        Ij4yXzEyaW5jaF80MDlPblgueHBzPC9EZXNjcmlwdG9yPgogICAgICAgICAgICAgICAgICAgIDxEZXNjcmlwdG9yIE5hbWU9IkNhYmluZXRNb2RlbEZvbGRlciI+Ml8x
        MkluY2hDbG9zZWRCYWNrPC9EZXNjcmlwdG9yPgogICAgICAgICAgICAgICAgICAgIDxEZXNjcmlwdG9yIE5hbWU9IkNhYmluZXRNb2RlbFByZXNldCI+RHluNDA5X09u
        QXhpczwvRGVzY3JpcHRvcj4KICAgICAgICAgICAgICAgIDwvRGVzY3JpcHRvcnM+CiAgICAgICAgICAgICAgICA8RGF0YS8+CiAgICAgICAgICAgIDwvUGx1Z2luU3Bl
        Y2lmaWM+CiAgICAgICAgPC9QcmVzZXREYXRhPgogICAgPC9QcmVzZXQ+CjwvUHJlc2V0Q2h1bmtYTUxUcmVlPgrMgg0APEJ5cGFzcyBWZXJzaW9uPSIxLjAiIEJ5cGFz
        cz0iMCIvPgoAAAAAAAAAAA==
        AEJhc3NGdXp6ABAAAAA=
      >
      PRESETNAME BassFuzz
      FLOATPOS 859 173 804 443
      FXID {3312CE4C-E279-42B6-A4CE-BE8848ECB1E5}
      WAK 0
      BYPASS 0 0 0
      <VST "VST3: CLA-2A Mono (Waves)" "WaveShell-VST3 9.6_x64.vst3" 0 "" 1072405404{5653544C41324D636C612D3261206D6F}
        nJvrP+5e7f4BAAAAAQAAAAAAAAABAAAAAwAAAAAAAADSEQAAAQAAAAAAEAA=
        whEAAAEAAAAAABGfAAAAAwAAAAFMQTJNc2V0QQAAEX9YUHN0PFByZXNldENodW5rWE1MVHJlZSB2ZXJzaW9uPSIyIj4KICAgIDxQcmVzZXQgTmFtZT0iQmFzcyIgR2Vu
        ZXJpY1R5cGU9IkxBMkEiPgogICAgICAgIDxQcmVzZXRIZWFkZXI+CiAgICAgICAgICAgIDxQbHVnaW5OYW1lPkNMQS0yQTwvUGx1Z2luTmFtZT4KICAgICAgICAgICAg
        PFBsdWdpblN1YkNvbXA+TEEyTTwvUGx1Z2luU3ViQ29tcD4KICAgICAgICAgICAgPFBsdWdpblZlcnNpb24+OS42LjAuMTU1PC9QbHVnaW5WZXJzaW9uPgogICAgICAg
        ICAgICA8QWN0aXZlU2V0dXA+U0VUVVBfQTwvQWN0aXZlU2V0dXA+CiAgICAgICAgICAgIDxSZWFkT25seT50cnVlPC9SZWFkT25seT4KICAgICAgICA8L1ByZXNldEhl
        YWRlcj4KICAgICAgICA8UHJlc2V0RGF0YSBTZXR1cD0iU0VUVVBfQSIgU2V0dXBOYW1lPSJCYXNzIj4KICAgICAgICAgICAgPFBhcmFtZXRlcnMgVHlwZT0iUmVhbFdv
        cmxkIj4xMCAzIDMgNiAxIDEgMCAwIDIgNgoqIDEgMSAwIDAgMCA2IDEgKgoqICogKiAqICogKiAqICogKgowIDAgMCAxIDIgMSAwIDcuMDM5OTk5OTk5OTk5OTk5MSAx
        CjAgNDEuNDgwMDAwMDAwMDAwMDA0IDEuNDcgMCAwIDAuMjYwMDAwMDAwMDAwMDAwMDEgMy4wODk5OTk5OTk5OTk5OTk5IDAuMDcxMDAwMDAwMDAwMDAwMDA4IDAuNzEw
        OTk5OTk5OTk5OTk5OTcKLTcuNDY5OTk5OTk5OTk5OTk5OCA0LjI5OTk5OTk5OTk5OTk5OTggMC4wMDIgMSA3LjQxOTk5OTk5OTk5OTk5OTkgMCAwLjIwMDAwMDAwMDAw
        MDAwMDAxIDcuNDY5OTk5OTk5OTk5OTk5OCAwCi0xLjMxMDAwMDAwMDAwMDAwMDEgMCAxIC0wLjAxMDAwMDAwMDAwMDAwMDAwNyAzMCAwIDAgMTguMTk5OTk5OTk5OTk5
        OTk5IDEKMC43Mzk5OTk5OTk5OTk5OTk5OSAwLjA0NDk5OTk5OTk5OTk5OTk5OCA5MCAwLjU3MDAwMDAwMDAwMDAwMDA2IDUuNTk5OTk5OTk5OTk5OTk5NiA1LjA5OTk5
        OTk5OTk5OTk5OTYgLTAuNSAwLjA4OTk5OTk5OTk5OTk5OTk4MyAxCjIuMDY5OTk5OTk5OTk5OTk5OCA0OS4yNDAwMDAwMDAwMDAwMDIgMzIwMDAgMSAtMC4wNTk5OTk5
        OTk5OTk5OTk5MzUgMCAtMi4xMDAwMDAwMDAwMDAwMDAxIDE0NTEwIDAuNDU2MDAwMDAwMDAwMDAwMDIKMCAtMC44MDAwMDAwMDAwMDAwMDAwNCAtMC4yOTk5OTk5OTk5
        OTk5OTk5MyA2MCAwLjUgLTIgNi41IDAgMTAwMDEKMC41MDQgMC4yMDAwMDAwMDAwMDAwMDAwMSA1IC0yMCA3MjMgMC40MDQwMDAwMDAwMDAwMDAwMyAwIC0wLjI5OTk5
        OTk5OTk5OTk5OTkzIDAuMTAwMDAwMDAwMDAwMDAwMDEKMTgwIC0xMi44MDAwMDAwMDAwMDAwMDEgMSAxIDAgMC4yMDAwMDAwMDAwMDAwMDAwMSA1MDUxIC0xMCAxCjAu
        NDA1MDAwMDAwMDAwMDAwMDMgMCAwLjIwMDAwMDAwMDAwMDAwMDAxIDAgMC4xMTcwMDAwMDAwMDAwMDAwMSAwIDAgMCAwCjAgMCAwIC0wLjIwMDAwMDAwMDAwMDAwMDAx
        IC0wLjY5OTk5OTk5OTk5OTk5OTk2IC0xLjYwMDAwMDAwMDAwMDAwMDEgLTMuMTAwMDAwMDAwMDAwMDAwMSAtNiAtOC45MDAwMDAwMDAwMDAwMDA0Ci0xMS44MDAwMDAw
        MDAwMDAwMDEgLTEzLjgwMDAwMDAwMDAwMDAwMSAtMTUuMTk5OTk5OTk5OTk5OTk5IC0xNy44OTk5OTk5OTk5OTk5OTkgLTIxLjMwMDAwMDAwMDAwMDAwMSAtMjMuMTk5
        OTk5OTk5OTk5OTk5IC0yNS44MDAwMDAwMDAwMDAwMDEgLTI2LjY5OTk5OTk5OTk5OTk5OSAtMjkuODAwMDAwMDAwMDAwMDAxCi0yOS44MDAwMDAwMDAwMDAwMDEgLTI5
        LjgwMDAwMDAwMDAwMDAwMSAtMjkuODAwMDAwMDAwMDAwMDAxIC0yOS44MDAwMDAwMDAwMDAwMDEgMSAtOTguNDAwMDAwMDAwMDAwMDA2IC0xLjM5OTk5OTk5OTk5OTk5
        OTkgMCAtMwotOTAuNzAwMDAwMDAwMDAwMDAzIDc5LjQwMDAwMDAwMDAwMDAwNiAxIC0xMi42IDMwMCAxLjMgKiAqIDQzCjAgMCAwLjQwOTk5OTk5OTk5OTk5OTk4IDEg
        MC4wMDAxIDAuMDAwMSAwLjAwMDEgMC4wMTA5OTk5OTk5OTk5OTk5OTkgMC4wMTkKMC4wMjkwMDAwMDAwMDAwMDAwMDEgMC4wNTg5OTk5OTk5OTk5OTk5OTcgMC4xMjUg
        MC4yNjcwMDAwMDAwMDAwMDAwMiAwLjQ0NTAwMDAwMDAwMDAwMDAxIDAuNzIwOTk5OTk5OTk5OTk5ODYgMS4wMjggMC4wMDEgMC4wMDIKMC4wMDMwMDAwMDAwMDAwMDAw
        MDAxIDAuMDgxMDAwMDAwMDAwMDAwMDAzIDAuMTYxIDAuMjExOTk5OTk5OTk5OTk5OTkgMC40NTIwMDAwMDAwMDAwMDAwMSAxLjMgMi44MjAwMDAwMDAwMDAwMDAzIDQu
        ODYwMDAwMDAwMDAwMDAwMyA4LjYzMDAwMDAwMDAwMDAwMDgKOC42MzAwMDAwMDAwMDAwMDA4IC01Ny43MDAwMDAwMDAwMDAwMDMgNTAuMjAwMDAwMDAwMDAwMDAzIDIg
        MjUwIDAgMTAxNzEuNzAwMDAwMDAwMDAxIDYgLTI4Ci0yNyAwLjIwMDAwMDAwMDAwMDAwMDAxIDAgNzIwIDAuNDA0MDAwMDAwMDAwMDAwMDMgMCAwIDAgKgo3MjAgMC40
        MDQwMDAwMDAwMDAwMDAwMyAwIDAgMCA8L1BhcmFtZXRlcnM+CiAgICAgICAgPC9QcmVzZXREYXRhPgogICAgICAgIDxQcmVzZXREYXRhIFNldHVwPSJTRVRVUF9CIj4K
        ICAgICAgICAgICAgPFBhcmFtZXRlcnMgVHlwZT0iUmVhbFdvcmxkIj4xMCAzIDMgNiAxIDEgMCAwIDIgNgoqIDEgMSAwIDAgMCA2IDEgKgoqICogKiAqICogKiAqICog
        KgowIDAgMCAxIDIgMSAwIDcuMDM5OTk5OTk5OTk5OTk5MSAxCjAgNDAgMS40NyAwIDAgMC4yNjAwMDAwMDAwMDAwMDAwMSAzLjA4OTk5OTk5OTk5OTk5OTkgMC4wNzEw
        MDAwMDAwMDAwMDAwMDggMC43MTA5OTk5OTk5OTk5OTk5NwotNy40Njk5OTk5OTk5OTk5OTk4IDQuMjk5OTk5OTk5OTk5OTk5OCAwLjAwMiAxIDcuNDE5OTk5OTk5OTk5
        OTk5OSAwIDAuMjAwMDAwMDAwMDAwMDAwMDEgNy40Njk5OTk5OTk5OTk5OTk4IDAKLTEuMzEwMDAwMDAwMDAwMDAwMSAwIDEgLTAuMDEwMDAwMDAwMDAwMDAwMDA3IDMw
        IDAgMCAxOC4xOTk5OTk5OTk5OTk5OTkgMQowLjczOTk5OTk5OTk5OTk5OTk5IDAuMDQ0OTk5OTk5OTk5OTk5OTk4IDkwIDAuNTcwMDAwMDAwMDAwMDAwMDYgNS41OTk5
        OTk5OTk5OTk5OTk2IDUuMDk5OTk5OTk5OTk5OTk5NiAtMC41IDAuMDg5OTk5OTk5OTk5OTk5OTgzIDEKMi4wNjk5OTk5OTk5OTk5OTk4IDQ2IDMyMDAwIDEgLTAuMDU5
        OTk5OTk5OTk5OTk5OTM1IDAgLTIuMTAwMDAwMDAwMDAwMDAwMSAxNDUxMCAwLjQ1NjAwMDAwMDAwMDAwMDAyCjAgLTAuODAwMDAwMDAwMDAwMDAwMDQgLTAuMjk5OTk5
        OTk5OTk5OTk5OTMgNjAgMC41IC0yIDYuNSAwIDEwMDAxCjAuNTA0IDAuMjAwMDAwMDAwMDAwMDAwMDEgNSAtMjAgNzIzIDAuNDA0MDAwMDAwMDAwMDAwMDMgMCAtMC4y
        OTk5OTk5OTk5OTk5OTk5MyAwLjEwMDAwMDAwMDAwMDAwMDAxCjE4MCAtMTIuODAwMDAwMDAwMDAwMDAxIDEgMSAwIDAuMjAwMDAwMDAwMDAwMDAwMDEgNTA1MSAtMTAg
        MQowLjQwNTAwMDAwMDAwMDAwMDAzIDAgMC4yMDAwMDAwMDAwMDAwMDAwMSAwIDAuMTE3MDAwMDAwMDAwMDAwMDEgMCAwIDAgMAowIDAgMCAtMC4yMDAwMDAwMDAwMDAw
        MDAwMSAtMC42OTk5OTk5OTk5OTk5OTk5NiAtMS42MDAwMDAwMDAwMDAwMDAxIC0zLjEwMDAwMDAwMDAwMDAwMDEgLTYgLTguOTAwMDAwMDAwMDAwMDAwNAotMTEuODAw
        MDAwMDAwMDAwMDAxIC0xMy44MDAwMDAwMDAwMDAwMDEgLTE1LjE5OTk5OTk5OTk5OTk5OSAtMTcuODk5OTk5OTk5OTk5OTk5IC0yMS4zMDAwMDAwMDAwMDAwMDEgLTIz
        LjE5OTk5OTk5OTk5OTk5OSAtMjUuODAwMDAwMDAwMDAwMDAxIC0yNi42OTk5OTk5OTk5OTk5OTkgLTI5LjgwMDAwMDAwMDAwMDAwMQotMjkuODAwMDAwMDAwMDAwMDAx
        IC0yOS44MDAwMDAwMDAwMDAwMDEgLTI5LjgwMDAwMDAwMDAwMDAwMSAtMjkuODAwMDAwMDAwMDAwMDAxIDEgLTk4LjQwMDAwMDAwMDAwMDAwNiAtMS4zOTk5OTk5OTk5
        OTk5OTk5IDAgLTMKLTkwLjcwMDAwMDAwMDAwMDAwMyA3OS40MDAwMDAwMDAwMDAwMDYgMSAtMTIuNiAzMDAgMS4zICogKiA1MAowIDAgMC40MDk5OTk5OTk5OTk5OTk5
        OCAxIDAuMDAwMSAwLjAwMDEgMC4wMDAxIDAuMDEwOTk5OTk5OTk5OTk5OTk5IDAuMDE5CjAuMDI5MDAwMDAwMDAwMDAwMDAxIDAuMDU4OTk5OTk5OTk5OTk5OTk3IDAu
        MTI1IDAuMjY3MDAwMDAwMDAwMDAwMDIgMC40NDUwMDAwMDAwMDAwMDAwMSAwLjcyMDk5OTk5OTk5OTk5OTg2IDEuMDI4IDAuMDAxIDAuMDAyCjAuMDAzMDAwMDAwMDAw
        MDAwMDAwMSAwLjA4MTAwMDAwMDAwMDAwMDAwMyAwLjE2MSAwLjIxMTk5OTk5OTk5OTk5OTk5IDAuNDUyMDAwMDAwMDAwMDAwMDEgMS4zIDIuODIwMDAwMDAwMDAwMDAw
        MyA0Ljg2MDAwMDAwMDAwMDAwMDMgOC42MzAwMDAwMDAwMDAwMDA4CjguNjMwMDAwMDAwMDAwMDAwOCAtNTcuNzAwMDAwMDAwMDAwMDAzIDUwLjIwMDAwMDAwMDAwMDAw
        MyAyIDI1MCAwIDEwMTcxLjcwMDAwMDAwMDAwMSA2IC0yOAotMjcgMC4yMDAwMDAwMDAwMDAwMDAwMSAwIDcyMCAwLjQwNDAwMDAwMDAwMDAwMDAzIDAgMCAwICoKNzIw
        IDAuNDA0MDAwMDAwMDAwMDAwMDMgMCAwIDAgPC9QYXJhbWV0ZXJzPgogICAgICAgIDwvUHJlc2V0RGF0YT4KICAgIDwvUHJlc2V0Pgo8L1ByZXNldENodW5rWE1MVHJl
        ZT4KDQAAADxCeXBhc3MgVmVyc2lvbj0iMS4wIiBCeXBhc3M9IjAiLz4KAAAAAAAAAAA=
        AEJhc3MAEAAAAA==
      >
      PRESETNAME Bass
      FLOATPOS 923 122 676 333
      FXID {97236C6D-B42D-4D94-9827-0AC57A890634}
      WAK 0
      BYPASS 1 0 0
      <VST "VST: Guitar Rig 5 (Native Instruments GmbH)" "Guitar Rig 5.dll" 0 "" 1315522357
        NUdpTu5e7f4EAAAAAQAAAAAAAAACAAAAAAAAAAQAAAAAAAAACAAAAAAAAAACAAAAAQAAAAAAAAACAAAAAAAAAGsSAAABAAAAAQAQAA==
        LWluLQIAAAAjTkkjQ1MjRG9jdW1lbnQjI05JI1NvdW5kU2hlbGwjU291bmQjAAAAAAAAAAAAAABFAQAAYXRhZAIAAABkbnNzYmlsehYAAAAQAAAAeNpjYmBg0PX00zV1
        z/QDMhkAEaUCJ2F0YWQCAAAAb2ZuaWJpbHonAQAADwMAAHjanVLLToQwFF3LV9x0j8VkTIwpnWjUiQvNBHVlXBTmMjZCS9oy+nHu/DF5gyzIxF3PuedxW2DrrzyDAxor
        tQrJ2WlAAFWid1LtQ/LyfOdfELBOqJ3ItMKQKE1gzT1mdakqUapH8yoICPc8AFYYXaBxEi2vYEUokSN/vbn3r4W1b4w2uB2J0r1rw58wFtZJoeDh5zvL0DDaTepAOk2s
        iViojz68PvNNKZ0wEMk9rBhtqMbYCetzovOiuoNyvXEgZu6RX9LB1uiZdgK7TuGckXHphpcYiBZXzEFkJfL6YeAqLyyjLdGPS4vGt+h4tL2kdCIbBm0wnSUvNzW7H1V0
        Mur/23ibppi4P33Hmx/xE6SCTXS+vPBUt7joBNYfidHhV+beL6i68xBhdGFkAgAAAHRzcnBiaWx6fBAAAK60AAB42u1d23bauhbtee1XePCaQfHdZo+0eyQk0DRJSxKS
        ph19EUZgb3yrL5D0c843nA88Mvgi2RAwaZHanb40vrDW9LpMaUmWzF1c3v/n1atX//3fq1eHfz84NjeDQWh57tuG8IZvcNA1vJHlTt42bgfdpt7gwgi4I2B7LnzbcL0G
        9/e714eToGm5YRTEDnSjpmHG7pQbxpY9arqxM4TB24aoykKDMzzHRz9E9/jAmDatEVLS1ni5req62ODGAXDg3AuWV5ByB/zjBc0ckILOWEbgFWeSeywXvwdp8QMYwjUq
        IstBuAcx5I7iCceLnND+S9H+kjRO5AW18e71a447DL3YHTVHIAJDEEJuYntDYDcdGAWe6zkLraaFlDQdbwRTECMLPTdwXWgjhWqjtZSEDBMgGJhNkQoO/TscWw/N3Bwh
        h+zUtCLohOgWOb2nfBeXPIze5nmk0AXJc1yf57eim5MbbRjB4lR6cv2vuThOTmut24ev8yOzN+0c3XZPrPF8cnMyf/u2gYvChTUnsUVeQ1dnFpxjLkZP49sggs0hcKdv
        G41Vl5ZAkqDyAjhqJhJSo8oNrnwUWkMb/T0GdggTAxPKW09gw3CDeGR5hTvERuUpfJBEYYTuQLEPkEb0m8hzQJQFXOKq4qZFxKGciCyDuFGoSMZlL5xhHWWeOHOTrDLg
        kRFZM4ieFdjxIrCqMpCUJCgxBFwAHQ/Z0gEPCzDZobWA21oBo5X/uPL0xaVwvYEXRiSirLiIxWOrGpCHeW4GUY7ssEWE+RPBr+LRa024c89FOWnXTIJ1UtJk+DE9t21d
        Bvz0QBy/FyL36vuPj3STQSCSQWA4Gfg1ydBiMZqk1YHAiXUDar2gNKY+XsFoDsanj9PO48317ZfOzLw/OHoh2BeCZSsl9HWRLNXtaKwXlKZE/ENoX8XdH+r08eauO/ik
        hHobvqTES0owlhIiFshHC0+euTWTYaWINA08/nM/PJA+gdsOvD/p+u0j8c6avPQ2/rjehoDxISoJa4ZQ+ddp9Pjih6+9uwM55MXOdDaHj5+PbfeFRFdEj1CNHm1XEsU4
        1I8jrgcst+DPN8reGbQCsJcB7CFfcZ/c1qfxOEco0Mc3IPANTJRYpmePMCMyAPLyLkN5CcLk5J1nxw7WUr7RVUVSdfpILzKgF5ZjJSdLHucZgNjJMcJxxHWWQ2UsxeR1
        B+uumlWILx2jcvmMjyUOgA9PoDHlhLq18xopaQMnHJjql/PHjsPH1vWVdN+6mw3NyZ/TwEXoiUfoiQUQV1Bn15IQq0ROnaZxl8axvbJxXJMEZCbZeap7nr8hf35CBm1I
        8wq8CObhhpztFRzEswMxyCEGwA19L4QM2jHOQcYug/j8WYav2nDLqiqwgjPIcV5DwwtG5X4GM0CtPjZ2AIOI63uhlfACe763Q5yDuJsINXEMooQEylN3RN3p6/scG3od
        yeU1jdneKmxZwPoSNxaCYqLSjFtUaXXr7SdlpZ2TUY9viWdOJNzCyDwP+sbX3uCBbueEJzonPMPVt8Bv3cMopc0dv5bYGai9T4UM3ekDOucCOwsadmqdC7GoGFFp67JU
        KV5KedkdR5CpGlbGa1imaleFqF1ZgtZVM2hdy0YnBa6Dsp2twYmuRmIUyxhZsKNOYmQqMdpFPwYV78ef/yWDJoSAMOsjNK2E7ptr7ntea/Ysy6212vNbsL3gqtFq7QXP
        1i3Vfqyzbeu0FzTbt0h7gbNDK7QfXPVbnv3g2r612U9w12hhfgWgw9ZW9I5+XT29fQEr40PhsYvMXq9orf4+LVTvbwx7DMa6cqp2pK4uKMfAjq6oFqoiUaiKDBeq6q51
        atfLk8gLpix12Ab5SN4AmY3rW5Fh5vjUNn2AYRQYbpQPv0SBN4StTvKmPEtmHPl1h+n3Ci8YFwPLYxhA1yjgyTIDAMPLYoDNTkjsEpHB71c7JFN1Cdty2aBbi8roJ/6W
        2WW6VgXWHfZcLSRtRlr+lXc6ceH81PnuDw5GXy59cPIHvRmfrfABMWfYyeqhsZVI6vz1rR94ExQZHOoNwfBbx3Mcz00PPoLk/UnuLF//FH7rxVYEAi557VVBN7uoVom+
        5db8ZntzJH4G38zBDD2ubSFNQytyQDhdPMLyzK/RbVqYaie2I8u3l4Zb2lhuoTIiTLLRgAWoZjIf746ShVzocuz7y7/2PSet7D4n3Z/nU6pbvQ5FYTboxs3Z8NE12MM3
        cPw1E+ciMzNql/HKkpwZG97ZNacuGJ/xKxjz5w6mZXLxMivlxSUzI2pq5oRJ8BhGXukdstiW26omtpUtWOw5Qf9rKs9VtvhpJaeKL4Y7cvwjF9iPYe3Kc62YtOfQvvxi
        PgpTXrr9Pru8/xifzR5Nf/LynvIf95a7omCB0F+Iyt5nqRdRTwjK1tRd91T1qNXSbz/dTedTadp/f3919TL7/pO7UuWO1N3aFkyWRPo15UmO7yR43O5Vqr3i+5zj+4xF
        NDv4Lu/zHpT1wBKw/j3GBlyyCIZDCC138m+cbFyIbHo1phlr5u1eRvVr5up+JvW2jP+9gNkl5vcCrCaL/ZqO8YYkeGbPWONXLUyouzXAOilpHya4+S7z9/+cn93Gk874
        s31vXv0zn/95yxtE1pY3qLsPJf0u75UzvgzDusGHu7iBxy2X2b28TP7HvEz+2yx1+ClvvYt03npv4wvo0pWq3fuazdQaIWkr1bswLjsn5rF+a9muOT24GV18mbxsD7bl
        e+67rjKvO2XB5sxocdXw3AhYyTypsZyWai58ZtlW9JiPexVb4q3qCSJvx/bCgqMhZ7lIVrHxn5wJQKeN5JYwF4qMHqC8Cbz58hzm37IG0wsjzFFITcWfwi+f3y2dTC1+
        6Hpuc9WF6iyuhC9e6aJ05jpeMpC9TGf907nZHXrXH04BbN2PZl/l3pcOmc7rU3lDGveSF//WZvLZx7PB5mzGZ3GjICaSeW0ib5vEv2qo7BnJu5eK7YwnNq3AJ54ElZfp
        gPokFG3OFMY+/Xefj/J3jI+iaLHRCl233Sj4GrSOSWw1sqc6exX1r6X9FXRYHtnHX1M8BmHI9QMv4ybzWvvy0TF+eFMxcjstqS11/xEmP42buG4yqLOWn07OuATQ5vcV
        GaMoUf4jOKpzdHODvfQHA+jRHuhaP2qqCLyq0QGFbe9D7DwktBVKiE6KgdynN5PbC5pjnF0w+2i6pLUpDSsXo8oj+q2c08XgcN0Afo+hazzicwK6pNPBNijeqYVDm4Hl
        UHG+vdKtHQWAu6BOSsOct48DFlbXxO9JC723aFtocppTZAB80zK40yvaVpLzTo/Mc+9/4LwkSm2VDqh2DqpdAkUp2wQ9R4T+ZAKSVHRX0Z8kJAkVTxIdWEoBSynDEhWR
        p+XA3H3clAXv5QWdyAaefJmmXMIjqFqbUvdNKHKOJ1HRwQOv8omC0yuOlXXRPTnvxfWu5U2LVX6LWlwQ8IH/TrpH97XnOXhRfvF50nvv6if9WyB25Q8WvP8emFc0BwzX
        rx5koBpv/xkjhsWuohAE1Bfbr59011RdosQIEwGvxJNdK+m6bCISeET6nDmRCEQSA4hkApHMACKFQKQwgEglEKkMINIIRBoDiHQCkU4fkZ+zUR/gZEQPkIgDYoCNfAkH
        xAAZ+TIOiAEu8hUcEANU5Ks4IAaYyNdwQAwQka/jgBjgIUfAF2HiREQJj0jgEanjIfaNwmmIEh6ZwCNTx6MQeBTqeFQCj0odj0bg0ajj0Qk8Om08Yc4/N57t0eefUCTw
        UOefUCLwUOefUCbwUOefUCHwUOefUCXwUOefUCPwUOefUCfwUOcf3yoKMRPpO3Nn9EnIt8QKKJE+KKkCSqIPSq6AkumDUiqgFPqg1AoolT4orQJKow9Kr4Ciz1MmyVMM
        kJRJkhQDDGWSDMUAPZkkPTHATSbJTQwQk0kSEwOsZJKsxAAlmSQl0eejIKejxQQ0dTYKRAIPdS4KJAIPdSYKZAIPdR4KFAIPdRYKVAIPdQ4KNAIPdQYKdAIPff5xSAJi
        Y/Q6cMQqKvpc5EhVVPQZyZGrqOjzkqNUUdFnJ0etoqLPUY5WRUWfqRy9ior+ODdja6VAvnTSov7BiOGaJUCyqEmUFrtG6xe2qLJCabVNBwzzRg/9bbkwot/kXVpGMYVs
        GQwA6nshgQgd00eF/CWWfSdS3z/NMkTcUiILvhPLvhMZ8J1U9p3EgO8k3FISC76Tyr6TGPCdXPadzIDvZNxSMgu+k8u+kxnwnVL2ncKA7xTcUgoLvlPKvlMY8J1a9p3K
        gO9U3FIqC75Ty75TGfCdVvadxoDvNNxSGgu+08q+0xjwnV72nc6A73TcUjoLvtPLvtN/swWCh63Vm4wdtiZBMwDG9N3r5CiAwI4sBxrLBYOjYbF4LguHw/SaDYMRiMDi
        WdGpsTXJtmlLrybblTWw5YnZec72jOlyC7flwMs514cjYGPr7RZXEyxwljzaYrWvLicb7tne8hBdj7zJxCY/y/W0lnPLmJ54c3eDIl6TMEVCoUjYVtHNPPnuHic8rUjg
        5TamSNxdkbhBkcQrmCJpd0XSBkWKivtI3l2RvEGRLmiYImVLRUJVkUIoEirBgBtOxdXg2//ldFFkI/F5C/TfrJGuMV1+1wY8NHOW5RARNHMySb81hyy9EJvvlJnuMRgH
        dnIUgUmyNzbK5+VRMIFFXiyPsh9mh7EzTHKyiVuoVZioltXUDVbT8TDQdjXbR/gQ1TSbyKDZ0g+2PmUwRcLDWa9tsFRFLVPxpKmIDzVuabXlfm+E4ZIvP5ZM9zMCTn/a
        flobp+x2bfthH0R8jg0HwN/adukHGQnjDfznGw8n0/wr74v2dVN7JEoi3h4JuzSxJY0bGiZR0XF+FYS6Gj/COZfubfB0gOBfCiv0ifUTLdvoX3hepPRt8Lh1qKjtaqj4
        dr1Qwc+Uum3pDQAiTOiRt+jELRVXum+JYbGeWeWjqet+XvTLlhIEUoKwWULR4VpKEHeVIGYSpF0lSJkEeVcJciZB2VWCkklQyxKIXTIWIhZRScRy2v+oBtNS25YY1AyD
        tjMGcTcMaWO41K7vakM9k9CuLaFKu2lc10+NKp+mooR6ogiiTEWsS5LDVkoF6eEv25v7cFkIr6g15UZ1W5vmks1tK4ygm1TViZLSuSRuyfBKYTUTzivkk7sxHaamKlQV
        nZuCCZt4/2xL7q/RNUpjHMf7s54k7WqsepT2bo/ydEflFz5K2hSuepQknnd5lqdb0ieeBR98KcVhfkvoAj80vQgfs8nPLSI4P1q7gf1hqyTlsFVKnPT0Vlvc51LTGxf7
        HhUdnuLnuTUkXdr4vYhWfbGirm/8/PgOYvmNm+HvglXRMrG++OFr7+5ADnmxM53N4ePnY9s92lGstnEjrh2kKhu33N4JqpqJFQ5M9cv5Y8fhY+v6Srpv3c2G5q5i1fyL
        Wfc3hj0GY105VTtSVxeUY2BHO5pAbEsbP8S1g1iJz40w6vEt8cyJhFsYmedB3/jaGzzsagRF3fjp07xtriT5chS3MnC7HM9FOkHCWa3lIdKR9v25sRc4DnDBJEGQf1ol
        uQkYybfnm4tyBEQmlx6nxYoXjFCPJENeqlpSCfitljtB3QNE1QsCbb1bDDhb+Xftm4YZu9N3r/8PxDurUmF0YWQCAAAARE5TU2JpbHoWAAAAEAAAAHjaY2JgYND19NM1
        dc/0AzIZABGlAic=
        AG5vIHNvdW5kABAAAAA=
      >
      PRESETNAME "no sound"
      FLOATPOS 1023 159 1035 897
      FXID {47DBD9AD-D63C-4794-8E77-46D2D329AED4}
      WAK 0
    >
    <ITEM
      POSITION 45.6
      SNAPOFFS 0
      LENGTH 170.93798185941048
      LOOP 1
      ALLTAKES 0
      FADEIN 1 0.26592 0 1 0 0
      FADEOUT 1 0.01 0 1 0 0
      MUTE 0
      SEL 0
      IGUID {AC27C3E5-8600-42CB-94BE-BBEC2898E589}
      IID 21
      NAME D__Recording_03-Bass-160723_1706.wav
      VOLPAN 1 0 1 -1
      SOFFS 9.12
      PLAYRATE 1 1 0 -1 0 0.0025
      CHANMODE 0
      GUID {44977267-3F5F-4F98-82E2-0D13D287F14E}
      RECPASS 5
      <SOURCE WAVE
        FILE "D__Recording_03-Bass-160723_1706.wav"
      >
    >
    <ITEM
      POSITION 346.07999999997651
      SNAPOFFS 0
      LENGTH 25.44
      LOOP 1
      ALLTAKES 0
      FADEIN 1 0.01 0 1 0 0
      FADEOUT 1 0.01 0 1 0 0
      MUTE 0
      SEL 0
      IGUID {0A8069AD-146C-4D5F-8EFA-7BA13D75D26C}
      IID 19
      NAME D__Recording_03-Bass-160723_1705.wav
      VOLPAN 1 0 1 -1
      SOFFS 5.28
      PLAYRATE 1 1 0 -1 0 0.0025
      CHANMODE 0
      GUID {39D1861B-9CD9-46DB-A8FC-9D2876E8B7C8}
      RECPASS 4
      <SOURCE WAVE
        FILE "D__Recording_03-Bass-160723_1705.wav"
      >
    >
  >
  <TRACK {0974CC1A-9F6B-45F3-92BE-82FD775AEB7B}
    NAME "Guitar Direct"
    PEAKCOL 26493590
    BEAT -1
    AUTOMODE 0
    VOLPAN 0.50761876644739 -0.44 -1 -1 1
    MUTESOLO 1 0 0
    IPHASE 0
    ISBUS 0 0
    BUSCOMP 0 0
    SHOWINMIX 1 0.6667 0.5 1 0.5 0 0 0
    FREEMODE 0
    SEL 0
    REC 0 1 0 0 0 0 0
    VU 2
    TRACKHEIGHT 0 0
    INQ 0 0 0 0.5 100 0 0 100
    NCHAN 2
    FX 1
    TRACKID {0974CC1A-9F6B-45F3-92BE-82FD775AEB7B}
    PERF 0
    MIDIOUT -1
    MAINSEND 1 0
    <FXCHAIN
      WNDRECT 930 36 1265 944
      SHOW 0
      LASTSEL 2
      DOCKED 0
      BYPASS 1 0 0
      <VST "VST: GTR Tuner Mono (Waves)" "WaveShell-VST 9.6_x64.dll" 0 "" 1414411085
        TTNOVO5e7f4BAAAAAQAAAAAAAAABAAAAAwAAAAAAAAB9BAAAAQAAAAAAEAA=
        AAAEfQAAAAMAAAABVE4zTXNldEEAAARdWFBzdDxQcmVzZXRDaHVua1hNTFRyZWUgdmVyc2lvbj0iMiI+CiAgICA8UHJlc2V0IE5hbWU9IiIgR2VuZXJpY1R5cGU9IlRO
        M00iPgogICAgICAgIDxQcmVzZXRIZWFkZXI+CiAgICAgICAgICAgIDxQbHVnaW5OYW1lPkdUUiBUdW5lcjwvUGx1Z2luTmFtZT4KICAgICAgICAgICAgPFBsdWdpblN1
        YkNvbXA+VE4zTTwvUGx1Z2luU3ViQ29tcD4KICAgICAgICAgICAgPFBsdWdpblZlcnNpb24+OS42LjAuMTU1PC9QbHVnaW5WZXJzaW9uPgogICAgICAgICAgICA8QWN0
        aXZlU2V0dXA+U0VUVVBfQTwvQWN0aXZlU2V0dXA+CiAgICAgICAgICAgIDxSZWFkT25seT50cnVlPC9SZWFkT25seT4KICAgICAgICA8L1ByZXNldEhlYWRlcj4KICAg
        ICAgICA8UHJlc2V0RGF0YSBTZXR1cD0iU0VUVVBfQSI+CiAgICAgICAgICAgIDxQYXJhbWV0ZXJzIFR5cGU9IlJlYWxXb3JsZCI+MCAwIDAgMCAwIDMxIDcgMCAwIDAK
        MCAwIDYyIDcgMCAwIDAgMCAqCiogKiAqICogMC44MDAwMDAwMDAwMDAwMDAwNCAqICogKiAwCjAgMCAwIDAgMCAyMCA0OTk1IDQ5OTUgMC45OTAwMDAwMDAwMDAwMDAy
        MQowIDEgNDAgMCAxLjUgNDQwIDMgMzE0IC02NQowIDIuMjAwMDAwMDAwMDAwMDAwMiAwIDAgMjAgMTk5IDAgKiAqCiogKiAqICogKiAqICogKiAqCiogMSAxIDEgMSAx
        IDEgMSAxCjEgMSAxIDEgKiAqIDE1MCAtNDAgNjAwMAo0MDAwIDwvUGFyYW1ldGVycz4KICAgICAgICA8L1ByZXNldERhdGE+CiAgICAgICAgPFByZXNldERhdGEgU2V0
        dXA9IlNFVFVQX0IiPgogICAgICAgICAgICA8UGFyYW1ldGVycyBUeXBlPSJSZWFsV29ybGQiPjAgMCAwIDAgMCAzMSA3IDAgMCAwCjAgMCA2MiA3IDAgMCAwIDAgKgoq
        ICogKiAqIDAuODAwMDAwMDAwMDAwMDAwMDQgKiAqICogMAowIDAgMCAwIDAgMjAgNDk5NSA0OTk1IDAuOTkwMDAwMDAwMDAwMDAwMjEKMCAxIDQwIDAgMS41IDQ0MCAw
        IDMxNCAtNjUKMCAyLjIwMDAwMDAwMDAwMDAwMDIgMCAwIDIwIDE5OSAwICogKgoqICogKiAqICogKiAqICogKgoqIDEgMSAxIDEgMSAxIDEgMQoxIDEgMSAxICogKiAx
        NTAgLTQwIDYwMDAKNDAwMCA8L1BhcmFtZXRlcnM+CiAgICAgICAgPC9QcmVzZXREYXRhPgogICAgPC9QcmVzZXQ+CjwvUHJlc2V0Q2h1bmtYTUxUcmVlPgojIyMj
        AAAQAAAA
      >
      FLOATPOS 1652 166 882 407
      FXID {5D921FD1-3C9B-4C83-8C15-AC5D485F2E49}
      WAK 0
      BYPASS 0 0 0
      <VST "VST: GTR Stomp 4 Stereo (Waves)" "WaveShell-VST 9.6_x64.dll" 0 "" 1195586643
        UzRDR+5e7f4CAAAAAQAAAAAAAAACAAAAAAAAAAIAAAABAAAAAAAAAAIAAAAAAAAA4S4AAAEAAAAAABAA
        AAAu4QAAAAMAAAABR0M0U3NldEEAAC7BWFBzdDxQcmVzZXRDaHVua1hNTFRyZWUgdmVyc2lvbj0iMiI+CiAgICA8UHJlc2V0IE5hbWU9IkZ1bGwgUmVzZXQiIEdlbmVy
        aWNUeXBlPSJHVFJDIj4KICAgICAgICA8UHJlc2V0SGVhZGVyPgogICAgICAgICAgICA8UGx1Z2luTmFtZT5HVFIgU3RvbXA8L1BsdWdpbk5hbWU+CiAgICAgICAgICAg
        IDxQbHVnaW5TdWJDb21wPkdDNFM8L1BsdWdpblN1YkNvbXA+CiAgICAgICAgICAgIDxQbHVnaW5WZXJzaW9uPjkuNi4wLjE1NTwvUGx1Z2luVmVyc2lvbj4KICAgICAg
        ICAgICAgPEFjdGl2ZVNldHVwPlNFVFVQX0E8L0FjdGl2ZVNldHVwPgogICAgICAgICAgICA8UmVhZE9ubHk+dHJ1ZTwvUmVhZE9ubHk+CiAgICAgICAgPC9QcmVzZXRI
        ZWFkZXI+CiAgICAgICAgPFByZXNldERhdGEgU2V0dXA9IlNFVFVQX0EiIFNldHVwTmFtZT0iRnVsbCBSZXNldCI+CiAgICAgICAgICAgIDxQYXJhbWV0ZXJzIFR5cGU9
        IlJlYWxXb3JsZCI+KiAqICogKiAqICogMCAqICogKgoqICogKiAqIDAgMCAwIDAgPC9QYXJhbWV0ZXJzPgogICAgICAgICAgICA8UGx1Z2luU3BlY2lmaWMgVGFnTmFt
        ZT0iU3RvbXAgUHJlc2V0IiBNZW51SXRlbVN0cmluZz0iU3RvbXAgUHJlc2V0IiBUYWdJRD0iMCIgRGF0YVR5cGU9IkNoYXJhY3RlckRhdGEiPgogICAgICAgICAgICAg
        ICAgPEZsYWdzPgogICAgICAgICAgICAgICAgICAgIDxsb2FkX3dpdGhfcGFyYW1zLz4KICAgICAgICAgICAgICAgIDwvRmxhZ3M+CiAgICAgICAgICAgICAgICA8RGVz
        Y3JpcHRvcnM+CiAgICAgICAgICAgICAgICAgICAgPERlc2NyaXB0b3IgTmFtZT0iU2xvdEluZGV4Ij4wPC9EZXNjcmlwdG9yPgogICAgICAgICAgICAgICAgICAgIDxE
        ZXNjcmlwdG9yIE5hbWU9IlN0b21wTmFtZSI+QnV6eiBTdG9tcDwvRGVzY3JpcHRvcj4KICAgICAgICAgICAgICAgICAgICA8RGVzY3JpcHRvciBOYW1lPSJQbHVnaW5J
        RCI+R0ZaUzwvRGVzY3JpcHRvcj4KICAgICAgICAgICAgICAgICAgICA8RGVzY3JpcHRvciBOYW1lPSJDdXJyZW50U2V0dXAiPnNldEE8L0Rlc2NyaXB0b3I+CiAgICAg
        ICAgICAgICAgICA8L0Rlc2NyaXB0b3JzPgogICAgICAgICAgICAgICAgPERhdGE+CiAgICAgICAgICAgICAgICAgICAgPCFbQ0RBVEFbCiAgICAgICAgICAgICAgICAg
        ICAgPFByZXNldENodW5rWE1MVHJlZSB2ZXJzaW9uPSIyIj4KICAgIDxQcmVzZXQgTmFtZT0iIiBHZW5lcmljVHlwZT0iR0ZaUCI+CiAgICAgICAgPFByZXNldEhlYWRl
        cj4KICAgICAgICAgICAgPFBsdWdpbk5hbWU+U3RvbXAgQnV6ejwvUGx1Z2luTmFtZT4KICAgICAgICAgICAgPFBsdWdpblN1YkNvbXA+R0ZaUzwvUGx1Z2luU3ViQ29t
        cD4KICAgICAgICAgICAgPFBsdWdpblZlcnNpb24+OS42LjAuMTU1PC9QbHVnaW5WZXJzaW9uPgogICAgICAgICAgICA8QWN0aXZlU2V0dXA+U0VUVVBfQTwvQWN0aXZl
        U2V0dXA+CiAgICAgICAgICAgIDxSZWFkT25seT50cnVlPC9SZWFkT25seT4KICAgICAgICA8L1ByZXNldEhlYWRlcj4KICAgICAgICA8UHJlc2V0RGF0YSBTZXR1cD0i
        U0VUVVBfQSI+CiAgICAgICAgICAgIDxQYXJhbWV0ZXJzIFR5cGU9IlJlYWxXb3JsZCI+MCA1MCA1MCA0OSAtOTk5IDAgMi4yMDAwMDAwMDAwMDAwMDAyIDE0LjE5OTk5
        OTk5OTk5OTk5OSAtMjAuMTAwMDAwMDAwMDAwMDAxIDQ2MAowLjYwMDAwMDAwMDAwMDAwMDA5IDAgMS43MDAwMDAwMDAwMDAwMDAyIDcuNDAwMDAwMDAwMDAwMDAwNCAt
        MjAuMTAwMDAwMDAwMDAwMDAxIDEuODk5OTk5OTk5OTk5OTk5OSA8L1BhcmFtZXRlcnM+CiAgICAgICAgPC9QcmVzZXREYXRhPgogICAgICAgIDxQcmVzZXREYXRhIFNl
        dHVwPSJTRVRVUF9CIj4KICAgICAgICAgICAgPFBhcmFtZXRlcnMgVHlwZT0iUmVhbFdvcmxkIj4wIDUwIDUwIDM0IC05OTkgMCAyLjIwMDAwMDAwMDAwMDAwMDIgMTQu
        MTk5OTk5OTk5OTk5OTk5IC0yMC4xMDAwMDAwMDAwMDAwMDEgNDYwCjAuNjAwMDAwMDAwMDAwMDAwMDkgMCAxLjcwMDAwMDAwMDAwMDAwMDIgNy40MDAwMDAwMDAwMDAw
        MDA0IC0yMC4xMDAwMDAwMDAwMDAwMDEgMS44OTk5OTk5OTk5OTk5OTk5IDwvUGFyYW1ldGVycz4KICAgICAgICA8L1ByZXNldERhdGE+CiAgICA8L1ByZXNldD4KPC9Q
        cmVzZXRDaHVua1hNTFRyZWU+CgogICAgICAgICAgICAgICAgICAgIF1dPgogICAgICAgICAgICAgICAgPC9EYXRhPgogICAgICAgICAgICA8L1BsdWdpblNwZWNpZmlj
        PgogICAgICAgICAgICA8UGx1Z2luU3BlY2lmaWMgVGFnTmFtZT0iU3RvbXAgUHJlc2V0IiBNZW51SXRlbVN0cmluZz0iU3RvbXAgUHJlc2V0IiBUYWdJRD0iMSIgRGF0
        YVR5cGU9IkNoYXJhY3RlckRhdGEiPgogICAgICAgICAgICAgICAgPERlc2NyaXB0b3JzPgogICAgICAgICAgICAgICAgICAgIDxEZXNjcmlwdG9yIE5hbWU9IlNsb3RJ
        bmRleCI+MTwvRGVzY3JpcHRvcj4KICAgICAgICAgICAgICAgICAgICA8RGVzY3JpcHRvciBOYW1lPSJTdG9tcE5hbWUiPkRvdWJsZXIgU3RvbXA8L0Rlc2NyaXB0b3I+
        CiAgICAgICAgICAgICAgICAgICAgPERlc2NyaXB0b3IgTmFtZT0iUGx1Z2luSUQiPkdEMlM8L0Rlc2NyaXB0b3I+CiAgICAgICAgICAgICAgICAgICAgPERlc2NyaXB0
        b3IgTmFtZT0iQ3VycmVudFNldHVwIj5zZXRBPC9EZXNjcmlwdG9yPgogICAgICAgICAgICAgICAgPC9EZXNjcmlwdG9ycz4KICAgICAgICAgICAgICAgIDxEYXRhPgog
        ICAgICAgICAgICAgICAgICAgIDwhW0NEQVRBWwogICAgICAgICAgICAgICAgICAgIDxQcmVzZXRDaHVua1hNTFRyZWUgdmVyc2lvbj0iMiI+CiAgICA8UHJlc2V0IE5h
        bWU9IiIgR2VuZXJpY1R5cGU9IkdUUEkiPgogICAgICAgIDxQcmVzZXRIZWFkZXI+CiAgICAgICAgICAgIDxQbHVnaW5OYW1lPlN0b21wRG91YmxlcjwvUGx1Z2luTmFt
        ZT4KICAgICAgICAgICAgPFBsdWdpblN1YkNvbXA+R0QyUzwvUGx1Z2luU3ViQ29tcD4KICAgICAgICAgICAgPFBsdWdpblZlcnNpb24+OS42LjAuMTU1PC9QbHVnaW5W
        ZXJzaW9uPgogICAgICAgICAgICA8QWN0aXZlU2V0dXA+U0VUVVBfQTwvQWN0aXZlU2V0dXA+CiAgICAgICAgICAgIDxSZWFkT25seT50cnVlPC9SZWFkT25seT4KICAg
        ICAgICA8L1ByZXNldEhlYWRlcj4KICAgICAgICA8UHJlc2V0RGF0YSBTZXR1cD0iU0VUVVBfQSI+CiAgICAgICAgICAgIDxQYXJhbWV0ZXJzIFR5cGU9IlJlYWxXb3Js
        ZCI+MCA4IDUwIDAgMTIgNTAgMTIwIDwvUGFyYW1ldGVycz4KICAgICAgICA8L1ByZXNldERhdGE+CiAgICAgICAgPFByZXNldERhdGEgU2V0dXA9IlNFVFVQX0IiPgog
        ICAgICAgICAgICA8UGFyYW1ldGVycyBUeXBlPSJSZWFsV29ybGQiPjAgOCA1MCAwIDEyIDUwIDEyMCA8L1BhcmFtZXRlcnM+CiAgICAgICAgPC9QcmVzZXREYXRhPgog
        ICAgPC9QcmVzZXQ+CjwvUHJlc2V0Q2h1bmtYTUxUcmVlPgoKICAgICAgICAgICAgICAgICAgICBdXT4KICAgICAgICAgICAgICAgIDwvRGF0YT4KICAgICAgICAgICAg
        PC9QbHVnaW5TcGVjaWZpYz4KICAgICAgICAgICAgPFBsdWdpblNwZWNpZmljIFRhZ05hbWU9IlN0b21wIFByZXNldCIgTWVudUl0ZW1TdHJpbmc9IlN0b21wIFByZXNl
        dCIgVGFnSUQ9IjIiIERhdGFUeXBlPSJDaGFyYWN0ZXJEYXRhIj4KICAgICAgICAgICAgICAgIDxEZXNjcmlwdG9ycz4KICAgICAgICAgICAgICAgICAgICA8RGVzY3Jp
        cHRvciBOYW1lPSJTbG90SW5kZXgiPjI8L0Rlc2NyaXB0b3I+CiAgICAgICAgICAgICAgICAgICAgPERlc2NyaXB0b3IgTmFtZT0iU3RvbXBOYW1lIj5GbGFuZ2VyIFN0
        b21wPC9EZXNjcmlwdG9yPgogICAgICAgICAgICAgICAgICAgIDxEZXNjcmlwdG9yIE5hbWU9IlBsdWdpbklEIj5HRkxTPC9EZXNjcmlwdG9yPgogICAgICAgICAgICAg
        ICAgICAgIDxEZXNjcmlwdG9yIE5hbWU9IkN1cnJlbnRTZXR1cCI+c2V0QTwvRGVzY3JpcHRvcj4KICAgICAgICAgICAgICAgIDwvRGVzY3JpcHRvcnM+CiAgICAgICAg
        ICAgICAgICA8RGF0YT4KICAgICAgICAgICAgICAgICAgICA8IVtDREFUQVsKICAgICAgICAgICAgICAgICAgICA8UHJlc2V0Q2h1bmtYTUxUcmVlIHZlcnNpb249IjIi
        PgogICAgPFByZXNldCBOYW1lPSIiIEdlbmVyaWNUeXBlPSJHRkxQIj4KICAgICAgICA8UHJlc2V0SGVhZGVyPgogICAgICAgICAgICA8UGx1Z2luTmFtZT5TdG9tcEZs
        YW5nZXI8L1BsdWdpbk5hbWU+CiAgICAgICAgICAgIDxQbHVnaW5TdWJDb21wPkdGTFM8L1BsdWdpblN1YkNvbXA+CiAgICAgICAgICAgIDxQbHVnaW5WZXJzaW9uPjku
        Ni4wLjE1NTwvUGx1Z2luVmVyc2lvbj4KICAgICAgICAgICAgPEFjdGl2ZVNldHVwPlNFVFVQX0E8L0FjdGl2ZVNldHVwPgogICAgICAgICAgICA8UmVhZE9ubHk+dHJ1
        ZTwvUmVhZE9ubHk+CiAgICAgICAgPC9QcmVzZXRIZWFkZXI+CiAgICAgICAgPFByZXNldERhdGEgU2V0dXA9IlNFVFVQX0EiPgogICAgICAgICAgICA8UGFyYW1ldGVy
        cyBUeXBlPSJSZWFsV29ybGQiPjAgMC4wODk5OTk5OTk5OTk5OTk5ODMgMC4yMDAwMDAwMDAwMDAwMDAwMSA2IDAgMSAzIDcyLjUgMCAwCjAgMTAgMC4yMDAwMDAwMDAw
        MDAwMDAwMSAxMDQ0IDAgPC9QYXJhbWV0ZXJzPgogICAgICAgIDwvUHJlc2V0RGF0YT4KICAgICAgICA8UHJlc2V0RGF0YSBTZXR1cD0iU0VUVVBfQiI+CiAgICAgICAg
        ICAgIDxQYXJhbWV0ZXJzIFR5cGU9IlJlYWxXb3JsZCI+MCAwLjA4OTk5OTk5OTk5OTk5OTk4MyAwLjIwMDAwMDAwMDAwMDAwMDAxIDYgMCAxIDMgNzIuNSAwIDAKMCAx
        MCAwLjIwMDAwMDAwMDAwMDAwMDAxIDEwNDQgMCA8L1BhcmFtZXRlcnM+CiAgICAgICAgPC9QcmVzZXREYXRhPgogICAgPC9QcmVzZXQ+CjwvUHJlc2V0Q2h1bmtYTUxU
        cmVlPgoKICAgICAgICAgICAgICAgICAgICBdXT4KICAgICAgICAgICAgICAgIDwvRGF0YT4KICAgICAgICAgICAgPC9QbHVnaW5TcGVjaWZpYz4KICAgICAgICAgICAg
        PFBsdWdpblNwZWNpZmljIFRhZ05hbWU9IlN0b21wIFByZXNldCIgTWVudUl0ZW1TdHJpbmc9IlN0b21wIFByZXNldCIgVGFnSUQ9IjMiIERhdGFUeXBlPSJDaGFyYWN0
        ZXJEYXRhIj4KICAgICAgICAgICAgICAgIDxEZXNjcmlwdG9ycz4KICAgICAgICAgICAgICAgICAgICA8RGVzY3JpcHRvciBOYW1lPSJTbG90SW5kZXgiPjM8L0Rlc2Ny
        aXB0b3I+CiAgICAgICAgICAgICAgICAgICAgPERlc2NyaXB0b3IgTmFtZT0iU3RvbXBOYW1lIj5EZWxheSBTdG9tcDwvRGVzY3JpcHRvcj4KICAgICAgICAgICAgICAg
        ICAgICA8RGVzY3JpcHRvciBOYW1lPSJQbHVnaW5JRCI+R0QzUzwvRGVzY3JpcHRvcj4KICAgICAgICAgICAgICAgICAgICA8RGVzY3JpcHRvciBOYW1lPSJDdXJyZW50
        U2V0dXAiPnNldEE8L0Rlc2NyaXB0b3I+CiAgICAgICAgICAgICAgICA8L0Rlc2NyaXB0b3JzPgogICAgICAgICAgICAgICAgPERhdGE+CiAgICAgICAgICAgICAgICAg
        ICAgPCFbQ0RBVEFbCiAgICAgICAgICAgICAgICAgICAgPFByZXNldENodW5rWE1MVHJlZSB2ZXJzaW9uPSIyIj4KICAgIDxQcmVzZXQgTmFtZT0iIiBHZW5lcmljVHlw
        ZT0iR0RMUCI+CiAgICAgICAgPFByZXNldEhlYWRlcj4KICAgICAgICAgICAgPFBsdWdpbk5hbWU+U3RvbXBEZWxheTwvUGx1Z2luTmFtZT4KICAgICAgICAgICAgPFBs
        dWdpblN1YkNvbXA+R0QzUzwvUGx1Z2luU3ViQ29tcD4KICAgICAgICAgICAgPFBsdWdpblZlcnNpb24+OS42LjAuMTU1PC9QbHVnaW5WZXJzaW9uPgogICAgICAgICAg
        ICA8QWN0aXZlU2V0dXA+U0VUVVBfQTwvQWN0aXZlU2V0dXA+CiAgICAgICAgICAgIDxSZWFkT25seT50cnVlPC9SZWFkT25seT4KICAgICAgICA8L1ByZXNldEhlYWRl
        cj4KICAgICAgICA8UHJlc2V0RGF0YSBTZXR1cD0iU0VUVVBfQSI+CiAgICAgICAgICAgIDxQYXJhbWV0ZXJzIFR5cGU9IlJlYWxXb3JsZCI+MCAwIDAuNSA0IDUwIDUg
        MTAgMCAwIDcKPC9QYXJhbWV0ZXJzPgogICAgICAgIDwvUHJlc2V0RGF0YT4KICAgICAgICA8UHJlc2V0RGF0YSBTZXR1cD0iU0VUVVBfQiI+CiAgICAgICAgICAgIDxQ
        YXJhbWV0ZXJzIFR5cGU9IlJlYWxXb3JsZCI+MCAwIDAuNSA0IDUwIDUgMTAgMCAwIDcKPC9QYXJhbWV0ZXJzPgogICAgICAgIDwvUHJlc2V0RGF0YT4KICAgIDwvUHJl
        c2V0Pgo8L1ByZXNldENodW5rWE1MVHJlZT4KCiAgICAgICAgICAgICAgICAgICAgXV0+CiAgICAgICAgICAgICAgICA8L0RhdGE+CiAgICAgICAgICAgIDwvUGx1Z2lu
        U3BlY2lmaWM+CiAgICAgICAgPC9QcmVzZXREYXRhPgogICAgICAgIDxQcmVzZXREYXRhIFNldHVwPSJTRVRVUF9CIiBTZXR1cE5hbWU9IkZ1bGwgUmVzZXQiPgogICAg
        ICAgICAgICA8UGFyYW1ldGVycyBUeXBlPSJSZWFsV29ybGQiPiogKiAqICogKiAqIDAgKiAqICoKKiAqICogKiAwIDAgMCAwIDwvUGFyYW1ldGVycz4KICAgICAgICAg
        ICAgPFBsdWdpblNwZWNpZmljIFRhZ05hbWU9IlN0b21wIFByZXNldCIgTWVudUl0ZW1TdHJpbmc9IlN0b21wIFByZXNldCIgVGFnSUQ9IjAiIERhdGFUeXBlPSJDaGFy
        YWN0ZXJEYXRhIj4KICAgICAgICAgICAgICAgIDxGbGFncz4KICAgICAgICAgICAgICAgICAgICA8bG9hZF93aXRoX3BhcmFtcy8+CiAgICAgICAgICAgICAgICA8L0Zs
        YWdzPgogICAgICAgICAgICAgICAgPERlc2NyaXB0b3JzPgogICAgICAgICAgICAgICAgICAgIDxEZXNjcmlwdG9yIE5hbWU9IlNsb3RJbmRleCI+MDwvRGVzY3JpcHRv
        cj4KICAgICAgICAgICAgICAgICAgICA8RGVzY3JpcHRvciBOYW1lPSJTdG9tcE5hbWUiPkJ1enogU3RvbXA8L0Rlc2NyaXB0b3I+CiAgICAgICAgICAgICAgICAgICAg
        PERlc2NyaXB0b3IgTmFtZT0iUGx1Z2luSUQiPkdGWlM8L0Rlc2NyaXB0b3I+CiAgICAgICAgICAgICAgICAgICAgPERlc2NyaXB0b3IgTmFtZT0iQ3VycmVudFNldHVw
        Ij5zZXRBPC9EZXNjcmlwdG9yPgogICAgICAgICAgICAgICAgPC9EZXNjcmlwdG9ycz4KICAgICAgICAgICAgICAgIDxEYXRhPgogICAgICAgICAgICAgICAgICAgIDwh
        W0NEQVRBWwogICAgICAgICAgICAgICAgICAgIDxQcmVzZXRDaHVua1hNTFRyZWUgdmVyc2lvbj0iMiI+CiAgICA8UHJlc2V0IE5hbWU9IiIgR2VuZXJpY1R5cGU9IkdG
        WlAiPgogICAgICAgIDxQcmVzZXRIZWFkZXI+CiAgICAgICAgICAgIDxQbHVnaW5OYW1lPlN0b21wIEJ1eno8L1BsdWdpbk5hbWU+CiAgICAgICAgICAgIDxQbHVnaW5T
        dWJDb21wPkdGWlM8L1BsdWdpblN1YkNvbXA+CiAgICAgICAgICAgIDxQbHVnaW5WZXJzaW9uPjkuNi4wLjE1NTwvUGx1Z2luVmVyc2lvbj4KICAgICAgICAgICAgPEFj
        dGl2ZVNldHVwPlNFVFVQX0E8L0FjdGl2ZVNldHVwPgogICAgICAgICAgICA8UmVhZE9ubHk+dHJ1ZTwvUmVhZE9ubHk+CiAgICAgICAgPC9QcmVzZXRIZWFkZXI+CiAg
        ICAgICAgPFByZXNldERhdGEgU2V0dXA9IlNFVFVQX0EiPgogICAgICAgICAgICA8UGFyYW1ldGVycyBUeXBlPSJSZWFsV29ybGQiPjAgNTAgNTAgNDkgLTk5OSAwIDIu
        MjAwMDAwMDAwMDAwMDAwMiAxNC4xOTk5OTk5OTk5OTk5OTkgLTIwLjEwMDAwMDAwMDAwMDAwMSA0NjAKMC42MDAwMDAwMDAwMDAwMDAwOSAwIDEuNzAwMDAwMDAwMDAw
        MDAwMiA3LjQwMDAwMDAwMDAwMDAwMDQgLTIwLjEwMDAwMDAwMDAwMDAwMSAxLjg5OTk5OTk5OTk5OTk5OTkgPC9QYXJhbWV0ZXJzPgogICAgICAgIDwvUHJlc2V0RGF0
        YT4KICAgICAgICA8UHJlc2V0RGF0YSBTZXR1cD0iU0VUVVBfQiI+CiAgICAgICAgICAgIDxQYXJhbWV0ZXJzIFR5cGU9IlJlYWxXb3JsZCI+MCA1MCA1MCAzNCAtOTk5
        IDAgMi4yMDAwMDAwMDAwMDAwMDAyIDE0LjE5OTk5OTk5OTk5OTk5OSAtMjAuMTAwMDAwMDAwMDAwMDAxIDQ2MAowLjYwMDAwMDAwMDAwMDAwMDA5IDAgMS43MDAwMDAw
        MDAwMDAwMDAyIDcuNDAwMDAwMDAwMDAwMDAwNCAtMjAuMTAwMDAwMDAwMDAwMDAxIDEuODk5OTk5OTk5OTk5OTk5OSA8L1BhcmFtZXRlcnM+CiAgICAgICAgPC9QcmVz
        ZXREYXRhPgogICAgPC9QcmVzZXQ+CjwvUHJlc2V0Q2h1bmtYTUxUcmVlPgoKICAgICAgICAgICAgICAgICAgICBdXT4KICAgICAgICAgICAgICAgIDwvRGF0YT4KICAg
        ICAgICAgICAgPC9QbHVnaW5TcGVjaWZpYz4KICAgICAgICAgICAgPFBsdWdpblNwZWNpZmljIFRhZ05hbWU9IlN0b21wIFByZXNldCIgTWVudUl0ZW1TdHJpbmc9IlN0
        b21wIFByZXNldCIgVGFnSUQ9IjEiIERhdGFUeXBlPSJDaGFyYWN0ZXJEYXRhIj4KICAgICAgICAgICAgICAgIDxEZXNjcmlwdG9ycz4KICAgICAgICAgICAgICAgICAg
        ICA8RGVzY3JpcHRvciBOYW1lPSJTbG90SW5kZXgiPjE8L0Rlc2NyaXB0b3I+CiAgICAgICAgICAgICAgICAgICAgPERlc2NyaXB0b3IgTmFtZT0iU3RvbXBOYW1lIj5E
        b3VibGVyIFN0b21wPC9EZXNjcmlwdG9yPgogICAgICAgICAgICAgICAgICAgIDxEZXNjcmlwdG9yIE5hbWU9IlBsdWdpbklEIj5HRDJTPC9EZXNjcmlwdG9yPgogICAg
        ICAgICAgICAgICAgICAgIDxEZXNjcmlwdG9yIE5hbWU9IkN1cnJlbnRTZXR1cCI+c2V0QTwvRGVzY3JpcHRvcj4KICAgICAgICAgICAgICAgIDwvRGVzY3JpcHRvcnM+
        CiAgICAgICAgICAgICAgICA8RGF0YT4KICAgICAgICAgICAgICAgICAgICA8IVtDREFUQVsKICAgICAgICAgICAgICAgICAgICA8UHJlc2V0Q2h1bmtYTUxUcmVlIHZl
        cnNpb249IjIiPgogICAgPFByZXNldCBOYW1lPSIiIEdlbmVyaWNUeXBlPSJHVFBJIj4KICAgICAgICA8UHJlc2V0SGVhZGVyPgogICAgICAgICAgICA8UGx1Z2luTmFt
        ZT5TdG9tcERvdWJsZXI8L1BsdWdpbk5hbWU+CiAgICAgICAgICAgIDxQbHVnaW5TdWJDb21wPkdEMlM8L1BsdWdpblN1YkNvbXA+CiAgICAgICAgICAgIDxQbHVnaW5W
        ZXJzaW9uPjkuNi4wLjE1NTwvUGx1Z2luVmVyc2lvbj4KICAgICAgICAgICAgPEFjdGl2ZVNldHVwPlNFVFVQX0E8L0FjdGl2ZVNldHVwPgogICAgICAgICAgICA8UmVh
        ZE9ubHk+dHJ1ZTwvUmVhZE9ubHk+CiAgICAgICAgPC9QcmVzZXRIZWFkZXI+CiAgICAgICAgPFByZXNldERhdGEgU2V0dXA9IlNFVFVQX0EiPgogICAgICAgICAgICA8
        UGFyYW1ldGVycyBUeXBlPSJSZWFsV29ybGQiPjAgOCA1MCAwIDEyIDUwIDEyMCA8L1BhcmFtZXRlcnM+CiAgICAgICAgPC9QcmVzZXREYXRhPgogICAgICAgIDxQcmVz
        ZXREYXRhIFNldHVwPSJTRVRVUF9CIj4KICAgICAgICAgICAgPFBhcmFtZXRlcnMgVHlwZT0iUmVhbFdvcmxkIj4wIDggNTAgMCAxMiA1MCAxMjAgPC9QYXJhbWV0ZXJz
        PgogICAgICAgIDwvUHJlc2V0RGF0YT4KICAgIDwvUHJlc2V0Pgo8L1ByZXNldENodW5rWE1MVHJlZT4KCiAgICAgICAgICAgICAgICAgICAgXV0+CiAgICAgICAgICAg
        ICAgICA8L0RhdGE+CiAgICAgICAgICAgIDwvUGx1Z2luU3BlY2lmaWM+CiAgICAgICAgICAgIDxQbHVnaW5TcGVjaWZpYyBUYWdOYW1lPSJTdG9tcCBQcmVzZXQiIE1l
        bnVJdGVtU3RyaW5nPSJTdG9tcCBQcmVzZXQiIFRhZ0lEPSIyIiBEYXRhVHlwZT0iQ2hhcmFjdGVyRGF0YSI+CiAgICAgICAgICAgICAgICA8RGVzY3JpcHRvcnM+CiAg
        ICAgICAgICAgICAgICAgICAgPERlc2NyaXB0b3IgTmFtZT0iU2xvdEluZGV4Ij4yPC9EZXNjcmlwdG9yPgogICAgICAgICAgICAgICAgICAgIDxEZXNjcmlwdG9yIE5h
        bWU9IlN0b21wTmFtZSI+RmxhbmdlciBTdG9tcDwvRGVzY3JpcHRvcj4KICAgICAgICAgICAgICAgICAgICA8RGVzY3JpcHRvciBOYW1lPSJQbHVnaW5JRCI+R0ZMUzwv
        RGVzY3JpcHRvcj4KICAgICAgICAgICAgICAgICAgICA8RGVzY3JpcHRvciBOYW1lPSJDdXJyZW50U2V0dXAiPnNldEE8L0Rlc2NyaXB0b3I+CiAgICAgICAgICAgICAg
        ICA8L0Rlc2NyaXB0b3JzPgogICAgICAgICAgICAgICAgPERhdGE+CiAgICAgICAgICAgICAgICAgICAgPCFbQ0RBVEFbCiAgICAgICAgICAgICAgICAgICAgPFByZXNl
        dENodW5rWE1MVHJlZSB2ZXJzaW9uPSIyIj4KICAgIDxQcmVzZXQgTmFtZT0iIiBHZW5lcmljVHlwZT0iR0ZMUCI+CiAgICAgICAgPFByZXNldEhlYWRlcj4KICAgICAg
        ICAgICAgPFBsdWdpbk5hbWU+U3RvbXBGbGFuZ2VyPC9QbHVnaW5OYW1lPgogICAgICAgICAgICA8UGx1Z2luU3ViQ29tcD5HRkxTPC9QbHVnaW5TdWJDb21wPgogICAg
        ICAgICAgICA8UGx1Z2luVmVyc2lvbj45LjYuMC4xNTU8L1BsdWdpblZlcnNpb24+CiAgICAgICAgICAgIDxBY3RpdmVTZXR1cD5TRVRVUF9BPC9BY3RpdmVTZXR1cD4K
        ICAgICAgICAgICAgPFJlYWRPbmx5PnRydWU8L1JlYWRPbmx5PgogICAgICAgIDwvUHJlc2V0SGVhZGVyPgogICAgICAgIDxQcmVzZXREYXRhIFNldHVwPSJTRVRVUF9B
        Ij4KICAgICAgICAgICAgPFBhcmFtZXRlcnMgVHlwZT0iUmVhbFdvcmxkIj4wIDAuMDg5OTk5OTk5OTk5OTk5OTgzIDAuMjAwMDAwMDAwMDAwMDAwMDEgNiAwIDEgMyA3
        Mi41IDAgMAowIDEwIDAuMjAwMDAwMDAwMDAwMDAwMDEgMTA0NCAwIDwvUGFyYW1ldGVycz4KICAgICAgICA8L1ByZXNldERhdGE+CiAgICAgICAgPFByZXNldERhdGEg
        U2V0dXA9IlNFVFVQX0IiPgogICAgICAgICAgICA8UGFyYW1ldGVycyBUeXBlPSJSZWFsV29ybGQiPjAgMC4wODk5OTk5OTk5OTk5OTk5ODMgMC4yMDAwMDAwMDAwMDAw
        MDAwMSA2IDAgMSAzIDcyLjUgMCAwCjAgMTAgMC4yMDAwMDAwMDAwMDAwMDAwMSAxMDQ0IDAgPC9QYXJhbWV0ZXJzPgogICAgICAgIDwvUHJlc2V0RGF0YT4KICAgIDwv
        UHJlc2V0Pgo8L1ByZXNldENodW5rWE1MVHJlZT4KCiAgICAgICAgICAgICAgICAgICAgXV0+CiAgICAgICAgICAgICAgICA8L0RhdGE+CiAgICAgICAgICAgIDwvUGx1
        Z2luU3BlY2lmaWM+CiAgICAgICAgICAgIDxQbHVnaW5TcGVjaWZpYyBUYWdOYW1lPSJTdG9tcCBQcmVzZXQiIE1lbnVJdGVtU3RyaW5nPSJTdG9tcCBQcmVzZXQiIFRh
        Z0lEPSIzIiBEYXRhVHlwZT0iQ2hhcmFjdGVyRGF0YSI+CiAgICAgICAgICAgICAgICA8RGVzY3JpcHRvcnM+CiAgICAgICAgICAgICAgICAgICAgPERlc2NyaXB0b3Ig
        TmFtZT0iU2xvdEluZGV4Ij4zPC9EZXNjcmlwdG9yPgogICAgICAgICAgICAgICAgICAgIDxEZXNjcmlwdG9yIE5hbWU9IlN0b21wTmFtZSI+RGVsYXkgU3RvbXA8L0Rl
        c2NyaXB0b3I+CiAgICAgICAgICAgICAgICAgICAgPERlc2NyaXB0b3IgTmFtZT0iUGx1Z2luSUQiPkdEM1M8L0Rlc2NyaXB0b3I+CiAgICAgICAgICAgICAgICAgICAg
        PERlc2NyaXB0b3IgTmFtZT0iQ3VycmVudFNldHVwIj5zZXRBPC9EZXNjcmlwdG9yPgogICAgICAgICAgICAgICAgPC9EZXNjcmlwdG9ycz4KICAgICAgICAgICAgICAg
        IDxEYXRhPgogICAgICAgICAgICAgICAgICAgIDwhW0NEQVRBWwogICAgICAgICAgICAgICAgICAgIDxQcmVzZXRDaHVua1hNTFRyZWUgdmVyc2lvbj0iMiI+CiAgICA8
        UHJlc2V0IE5hbWU9IiIgR2VuZXJpY1R5cGU9IkdETFAiPgogICAgICAgIDxQcmVzZXRIZWFkZXI+CiAgICAgICAgICAgIDxQbHVnaW5OYW1lPlN0b21wRGVsYXk8L1Bs
        dWdpbk5hbWU+CiAgICAgICAgICAgIDxQbHVnaW5TdWJDb21wPkdEM1M8L1BsdWdpblN1YkNvbXA+CiAgICAgICAgICAgIDxQbHVnaW5WZXJzaW9uPjkuNi4wLjE1NTwv
        UGx1Z2luVmVyc2lvbj4KICAgICAgICAgICAgPEFjdGl2ZVNldHVwPlNFVFVQX0E8L0FjdGl2ZVNldHVwPgogICAgICAgICAgICA8UmVhZE9ubHk+dHJ1ZTwvUmVhZE9u
        bHk+CiAgICAgICAgPC9QcmVzZXRIZWFkZXI+CiAgICAgICAgPFByZXNldERhdGEgU2V0dXA9IlNFVFVQX0EiPgogICAgICAgICAgICA8UGFyYW1ldGVycyBUeXBlPSJS
        ZWFsV29ybGQiPjAgMCAwLjUgNCA1MCA1IDEwIDAgMCA3CjwvUGFyYW1ldGVycz4KICAgICAgICA8L1ByZXNldERhdGE+CiAgICAgICAgPFByZXNldERhdGEgU2V0dXA9
        IlNFVFVQX0IiPgogICAgICAgICAgICA8UGFyYW1ldGVycyBUeXBlPSJSZWFsV29ybGQiPjAgMCAwLjUgNCA1MCA1IDEwIDAgMCA3CjwvUGFyYW1ldGVycz4KICAgICAg
        ICA8L1ByZXNldERhdGE+CiAgICA8L1ByZXNldD4KPC9QcmVzZXRDaHVua1hNTFRyZWU+CgogICAgICAgICAgICAgICAgICAgIF1dPgogICAgICAgICAgICAgICAgPC9E
        YXRhPgogICAgICAgICAgICA8L1BsdWdpblNwZWNpZmljPgogICAgICAgIDwvUHJlc2V0RGF0YT4KICAgIDwvUHJlc2V0Pgo8L1ByZXNldENodW5rWE1MVHJlZT4KAAAA
        AA==
        AAAQAAAA
      >
      FLOATPOS 1076 76 748 472
      FXID {F40DE120-95B1-49D1-A6DE-902886DBB9D4}
      WAK 0
      BYPASS 0 0 0
      <VST "VST: GTR Amp Stereo (Waves)" "WaveShell-VST 9.6_x64.dll" 0 "" 1195461971
        U01BR+5e7f4CAAAAAQAAAAAAAAACAAAAAAAAAAIAAAABAAAAAAAAAAIAAAAAAAAAXwwAAAEAAAAAABAA
        AAAMXwAAAAMAAAABR0FNU3NldEEAAAw/WFBzdDxQcmVzZXRDaHVua1hNTFRyZWUgdmVyc2lvbj0iMiI+CiAgICA8UHJlc2V0IE5hbWU9IiIgR2VuZXJpY1R5cGU9IkdB
        TVAiPgogICAgICAgIDxQcmVzZXRIZWFkZXI+CiAgICAgICAgICAgIDxQbHVnaW5OYW1lPkdUUiBBbXA8L1BsdWdpbk5hbWU+CiAgICAgICAgICAgIDxQbHVnaW5TdWJD
        b21wPkdBTVM8L1BsdWdpblN1YkNvbXA+CiAgICAgICAgICAgIDxQbHVnaW5WZXJzaW9uPjkuNi4wLjE1NTwvUGx1Z2luVmVyc2lvbj4KICAgICAgICAgICAgPEFjdGl2
        ZVNldHVwPlNFVFVQX0E8L0FjdGl2ZVNldHVwPgogICAgICAgICAgICA8UmVhZE9ubHk+dHJ1ZTwvUmVhZE9ubHk+CiAgICAgICAgPC9QcmVzZXRIZWFkZXI+CiAgICAg
        ICAgPFByZXNldERhdGEgU2V0dXA9IlNFVFVQX0EiPgogICAgICAgICAgICA8UGFyYW1ldGVycyBUeXBlPSJSZWFsV29ybGQiPjUgNSAqICogKiAqIDIgMCAqICoKKiAq
        ICogNCAwIDAgMCAwICoKNSA1IDUgNiAxMDAwMCA1IDAuOTAwMDAwMDAwMDAwMDAwMDIgMSAwCjAgNCA1LjU2MzE0NjQ3MzI0NTcxMzJlLTAxNyAwLjUgMjUgLTI3IC0y
        NyAxLjA4MDAwMDAwMDAwMDAwMDEgMgowIC0xMiAxMiAxNjggMC44MTk5OTk5OTk5OTk5OTk5NSAwIC04IDggMTAwMQoxIDIgLTEyIDEyIDM2MTIgMC44MDAwMDAwMDAw
        MDAwMDAwNCAwIC0yIDgKNSA1IDEgMCAtMTAwIDEwMCAwIDEgMQowIDAgMCAxIDAgMSA0MDAxIC0xNDAgMAowIDAgMCAqICogPC9QYXJhbWV0ZXJzPgogICAgICAgICAg
        ICA8UGx1Z2luU3BlY2lmaWMgVGFnTmFtZT0iSW1wdWxzZSBSZXNwb25zZSIgTWVudUl0ZW1TdHJpbmc9IkltcHVsc2UgUmVzcG9uc2UiIFRhZ0lEPSIwIiBEYXRhVHlw
        ZT0iTm9EYXRhIj4KICAgICAgICAgICAgICAgIDxGbGFncz4KICAgICAgICAgICAgICAgICAgICA8bG9hZF93aXRoX3BhcmFtcy8+CiAgICAgICAgICAgICAgICA8L0Zs
        YWdzPgogICAgICAgICAgICAgICAgPERlc2NyaXB0b3JzPgogICAgICAgICAgICAgICAgICAgIDxEZXNjcmlwdG9yIE5hbWU9IkFtcE1vZGVsRmlsZSI+MzBfRWRneS54
        cHM8L0Rlc2NyaXB0b3I+CiAgICAgICAgICAgICAgICAgICAgPERlc2NyaXB0b3IgTmFtZT0iQW1wTW9kZWxQcmVzZXQiPkVkZ3k8L0Rlc2NyaXB0b3I+CiAgICAgICAg
        ICAgICAgICAgICAgPERlc2NyaXB0b3IgTmFtZT0iQ2FiaW5ldE1vZGVsRmlsZSI+MTJpbmNoT3BlbjQwOU9mZlgueHBzPC9EZXNjcmlwdG9yPgogICAgICAgICAgICAg
        ICAgICAgIDxEZXNjcmlwdG9yIE5hbWU9IkNhYmluZXRNb2RlbEZvbGRlciI+MTJpbmNoT3BlbkJhY2s8L0Rlc2NyaXB0b3I+CiAgICAgICAgICAgICAgICAgICAgPERl
        c2NyaXB0b3IgTmFtZT0iQ2FiaW5ldE1vZGVsUHJlc2V0Ij5EeW40MDlfT2ZmQXhpczwvRGVzY3JpcHRvcj4KICAgICAgICAgICAgICAgICAgICA8RGVzY3JpcHRvciBO
        YW1lPSJDYWJpbmV0Mk1vZGVsRmlsZSI+Ml8xMmluY2hfNDIxT2ZmWC54cHM8L0Rlc2NyaXB0b3I+CiAgICAgICAgICAgICAgICAgICAgPERlc2NyaXB0b3IgTmFtZT0i
        Q2FiaW5ldDJNb2RlbEZvbGRlciI+Ml8xMkluY2hDbG9zZWRCYWNrPC9EZXNjcmlwdG9yPgogICAgICAgICAgICAgICAgICAgIDxEZXNjcmlwdG9yIE5hbWU9IkNhYmlu
        ZXQyTW9kZWxQcmVzZXQiPkR5bjQyMV9PZmZBeGlzPC9EZXNjcmlwdG9yPgogICAgICAgICAgICAgICAgPC9EZXNjcmlwdG9ycz4KICAgICAgICAgICAgICAgIDxEYXRh
        Lz4KICAgICAgICAgICAgPC9QbHVnaW5TcGVjaWZpYz4KICAgICAgICA8L1ByZXNldERhdGE+CiAgICAgICAgPFByZXNldERhdGEgU2V0dXA9IlNFVFVQX0IiPgogICAg
        ICAgICAgICA8UGFyYW1ldGVycyBUeXBlPSJSZWFsV29ybGQiPjUgNSAqICogKiAqIDIgMCAqICoKKiAqICogNSAwIDAgMCAwICoKNSA1IDUgNiAxMDAwMCA1IDAuOTAw
        MDAwMDAwMDAwMDAwMDIgMiAwCjAgNiAwIDAgMzAgMCAwIDEgMAowIC0xMiAxMiAyMTAgMSAwIC04IDggMTAwMQoxIDIgLTEyIDEyIDM2MTIgMC44MDAwMDAwMDAwMDAw
        MDAwNCAwIC0yIDgKNSA1IDAgMCAtMTAwIDEwMCAwIDEgMQowIDAgMCAxIDAgMSA0MDAxIC0xNDAgMAowIDAgMCAqICogPC9QYXJhbWV0ZXJzPgogICAgICAgICAgICA8
        UGx1Z2luU3BlY2lmaWMgVGFnTmFtZT0iSW1wdWxzZSBSZXNwb25zZSIgTWVudUl0ZW1TdHJpbmc9IkltcHVsc2UgUmVzcG9uc2UiIFRhZ0lEPSIwIiBEYXRhVHlwZT0i
        Tm9EYXRhIj4KICAgICAgICAgICAgICAgIDxGbGFncz4KICAgICAgICAgICAgICAgICAgICA8bG9hZF93aXRoX3BhcmFtcy8+CiAgICAgICAgICAgICAgICA8L0ZsYWdz
        PgogICAgICAgICAgICAgICAgPERlc2NyaXB0b3JzPgogICAgICAgICAgICAgICAgICAgIDxEZXNjcmlwdG9yIE5hbWU9IkFtcE1vZGVsRmlsZSI+MjBfQ2xlYW4ueHBz
        PC9EZXNjcmlwdG9yPgogICAgICAgICAgICAgICAgICAgIDxEZXNjcmlwdG9yIE5hbWU9IkFtcE1vZGVsUHJlc2V0Ij5DbGVhbjwvRGVzY3JpcHRvcj4KICAgICAgICAg
        ICAgICAgICAgICA8RGVzY3JpcHRvciBOYW1lPSJDYWJpbmV0TW9kZWxGaWxlIj4yXzEyaW5jaF80MDlPblgueHBzPC9EZXNjcmlwdG9yPgogICAgICAgICAgICAgICAg
        ICAgIDxEZXNjcmlwdG9yIE5hbWU9IkNhYmluZXRNb2RlbEZvbGRlciI+Ml8xMkluY2hDbG9zZWRCYWNrPC9EZXNjcmlwdG9yPgogICAgICAgICAgICAgICAgICAgIDxE
        ZXNjcmlwdG9yIE5hbWU9IkNhYmluZXRNb2RlbFByZXNldCI+RHluNDA5X09uQXhpczwvRGVzY3JpcHRvcj4KICAgICAgICAgICAgICAgICAgICA8RGVzY3JpcHRvciBO
        YW1lPSJDYWJpbmV0Mk1vZGVsRmlsZSI+Ml8xMmluY2hfNDIxT2ZmWC54cHM8L0Rlc2NyaXB0b3I+CiAgICAgICAgICAgICAgICAgICAgPERlc2NyaXB0b3IgTmFtZT0i
        Q2FiaW5ldDJNb2RlbEZvbGRlciI+Ml8xMkluY2hDbG9zZWRCYWNrPC9EZXNjcmlwdG9yPgogICAgICAgICAgICAgICAgICAgIDxEZXNjcmlwdG9yIE5hbWU9IkNhYmlu
        ZXQyTW9kZWxQcmVzZXQiPkR5bjQyMV9PZmZBeGlzPC9EZXNjcmlwdG9yPgogICAgICAgICAgICAgICAgPC9EZXNjcmlwdG9ycz4KICAgICAgICAgICAgICAgIDxEYXRh
        Lz4KICAgICAgICAgICAgPC9QbHVnaW5TcGVjaWZpYz4KICAgICAgICA8L1ByZXNldERhdGE+CiAgICA8L1ByZXNldD4KPC9QcmVzZXRDaHVua1hNTFRyZWU+CgAAAAA=
        AAAQAAAA
      >
      FLOATPOS 1015 304 959 467
      FXID {F8632E2F-C54E-45F4-9B4E-948B4C716BAF}
      WAK 0
    >
    <ITEM
      POSITION 60.96
      SNAPOFFS 0
      LENGTH 284.10768707482993
      LOOP 1
      ALLTAKES 0
      FADEIN 1 0.164465 0 1 0 0
      FADEOUT 1 0.01 0 1 0 0
      MUTE 0
      SEL 0
      IGUID {BE2F6239-446F-456A-9293-5D5EF37C2D70}
      IID 22
      NAME "D__Recording_04-Guitar Direct-160723_1722.wav"
      VOLPAN 1 0 1 -1
      SOFFS 18.72
      PLAYRATE 1 1 0 -1 0 0.0025
      CHANMODE 0
      GUID {3E5D7513-E04A-4255-9ABE-4F8B3E326CF4}
      RECPASS 6
      <SOURCE WAVE
        FILE "D__Recording_04-Guitar Direct-160723_1722.wav"
      >
    >
  >
  <TRACK {049605C0-DE08-46B9-809B-8FC0434F2377}
    NAME "Guitar Direct"
    PEAKCOL 33311093
    BEAT -1
    AUTOMODE 0
    VOLPAN 0.36739544054905 0 -1 -1 1
    MUTESOLO 0 0 0
    IPHASE 0
    ISBUS 0 0
    BUSCOMP 0 0
    SHOWINMIX 1 0.6667 0.5 1 0.5 0 0 0
    FREEMODE 0
    SEL 0
    REC 0 1 0 0 0 0 0
    VU 2
    TRACKHEIGHT 0 0
    INQ 0 0 0 0.5 100 0 0 100
    NCHAN 2
    FX 1
    TRACKID {049605C0-DE08-46B9-809B-8FC0434F2377}
    PERF 0
    MIDIOUT -1
    MAINSEND 1 0
    <FXCHAIN
      WNDRECT 706 118 1265 944
      SHOW 0
      LASTSEL 3
      DOCKED 0
      BYPASS 1 0 0
      <VST "VST: GTR Stomp 2 Mono/Stereo (Waves)" "WaveShell-VST 9.6_x64.dll" 0 "" 1195586136
        WDJDR+5e7f4BAAAAAQAAAAAAAAACAAAAAQAAAAAAAAACAAAAAAAAAP8NAAABAAAAAAAQAA==
        AAAN/wAAAAMAAAABR0MyWHNldEEAAA3fWFBzdDxQcmVzZXRDaHVua1hNTFRyZWUgdmVyc2lvbj0iMiI+CiAgICA8UHJlc2V0IE5hbWU9IkZ1bGwgUmVzZXQiIEdlbmVy
        aWNUeXBlPSJHVFJDIj4KICAgICAgICA8UHJlc2V0SGVhZGVyPgogICAgICAgICAgICA8UGx1Z2luTmFtZT5HVFIgU3RvbXA8L1BsdWdpbk5hbWU+CiAgICAgICAgICAg
        IDxQbHVnaW5TdWJDb21wPkdDMlg8L1BsdWdpblN1YkNvbXA+CiAgICAgICAgICAgIDxQbHVnaW5WZXJzaW9uPjkuNi4wLjE1NTwvUGx1Z2luVmVyc2lvbj4KICAgICAg
        ICAgICAgPEFjdGl2ZVNldHVwPlNFVFVQX0E8L0FjdGl2ZVNldHVwPgogICAgICAgICAgICA8UmVhZE9ubHk+dHJ1ZTwvUmVhZE9ubHk+CiAgICAgICAgPC9QcmVzZXRI
        ZWFkZXI+CiAgICAgICAgPFByZXNldERhdGEgU2V0dXA9IlNFVFVQX0EiIFNldHVwTmFtZT0iRnVsbCBSZXNldCI+CiAgICAgICAgICAgIDxQYXJhbWV0ZXJzIFR5cGU9
        IlJlYWxXb3JsZCI+KiAqICogKiAqICogMCAqICogKgoqICogKiAqIDAgMCAwIDAgPC9QYXJhbWV0ZXJzPgogICAgICAgICAgICA8UGx1Z2luU3BlY2lmaWMgVGFnTmFt
        ZT0iU3RvbXAgUHJlc2V0IiBNZW51SXRlbVN0cmluZz0iU3RvbXAgUHJlc2V0IiBUYWdJRD0iMCIgRGF0YVR5cGU9IkNoYXJhY3RlckRhdGEiPgogICAgICAgICAgICAg
        ICAgPEZsYWdzPgogICAgICAgICAgICAgICAgICAgIDxsb2FkX3dpdGhfcGFyYW1zLz4KICAgICAgICAgICAgICAgIDwvRmxhZ3M+CiAgICAgICAgICAgICAgICA8RGVz
        Y3JpcHRvcnM+CiAgICAgICAgICAgICAgICAgICAgPERlc2NyaXB0b3IgTmFtZT0iU2xvdEluZGV4Ij4wPC9EZXNjcmlwdG9yPgogICAgICAgICAgICAgICAgICAgIDxE
        ZXNjcmlwdG9yIE5hbWU9IlN0b21wTmFtZSI+TGF5RCBTdG9tcDwvRGVzY3JpcHRvcj4KICAgICAgICAgICAgICAgICAgICA8RGVzY3JpcHRvciBOYW1lPSJQbHVnaW5J
        RCI+R0RSTTwvRGVzY3JpcHRvcj4KICAgICAgICAgICAgICAgICAgICA8RGVzY3JpcHRvciBOYW1lPSJDdXJyZW50U2V0dXAiPnNldEE8L0Rlc2NyaXB0b3I+CiAgICAg
        ICAgICAgICAgICA8L0Rlc2NyaXB0b3JzPgogICAgICAgICAgICAgICAgPERhdGE+CiAgICAgICAgICAgICAgICAgICAgPCFbQ0RBVEFbCiAgICAgICAgICAgICAgICAg
        ICAgPFByZXNldENodW5rWE1MVHJlZSB2ZXJzaW9uPSIyIj4KICAgIDxQcmVzZXQgTmFtZT0iIiBHZW5lcmljVHlwZT0iR0RMUiI+CiAgICAgICAgPFByZXNldEhlYWRl
        cj4KICAgICAgICAgICAgPFBsdWdpbk5hbWU+U3RvbXBMYXlEPC9QbHVnaW5OYW1lPgogICAgICAgICAgICA8UGx1Z2luU3ViQ29tcD5HRFJNPC9QbHVnaW5TdWJDb21w
        PgogICAgICAgICAgICA8UGx1Z2luVmVyc2lvbj45LjYuMC4xNTU8L1BsdWdpblZlcnNpb24+CiAgICAgICAgICAgIDxBY3RpdmVTZXR1cD5TRVRVUF9BPC9BY3RpdmVT
        ZXR1cD4KICAgICAgICAgICAgPFJlYWRPbmx5PnRydWU8L1JlYWRPbmx5PgogICAgICAgIDwvUHJlc2V0SGVhZGVyPgogICAgICAgIDxQcmVzZXREYXRhIFNldHVwPSJT
        RVRVUF9BIj4KICAgICAgICAgICAgPFBhcmFtZXRlcnMgVHlwZT0iUmVhbFdvcmxkIj4wIDAgMC41IDQgNTAgNTAgMTAwIDAgMCA0LjU5OTk5OTk5OTk5OTk5OTYKMCAw
        IDwvUGFyYW1ldGVycz4KICAgICAgICA8L1ByZXNldERhdGE+CiAgICAgICAgPFByZXNldERhdGEgU2V0dXA9IlNFVFVQX0IiPgogICAgICAgICAgICA8UGFyYW1ldGVy
        cyBUeXBlPSJSZWFsV29ybGQiPjAgMCAwLjUgNCA1MCA1MCAxMDAgMCAwIDQuNTk5OTk5OTk5OTk5OTk5NgowIDAgPC9QYXJhbWV0ZXJzPgogICAgICAgIDwvUHJlc2V0
        RGF0YT4KICAgIDwvUHJlc2V0Pgo8L1ByZXNldENodW5rWE1MVHJlZT4KCiAgICAgICAgICAgICAgICAgICAgXV0+CiAgICAgICAgICAgICAgICA8L0RhdGE+CiAgICAg
        ICAgICAgIDwvUGx1Z2luU3BlY2lmaWM+CiAgICAgICAgPC9QcmVzZXREYXRhPgogICAgICAgIDxQcmVzZXREYXRhIFNldHVwPSJTRVRVUF9CIiBTZXR1cE5hbWU9IkZ1
        bGwgUmVzZXQiPgogICAgICAgICAgICA8UGFyYW1ldGVycyBUeXBlPSJSZWFsV29ybGQiPiogKiAqICogKiAqIDAgKiAqICoKKiAqICogKiAwIDAgMCAwIDwvUGFyYW1l
        dGVycz4KICAgICAgICAgICAgPFBsdWdpblNwZWNpZmljIFRhZ05hbWU9IlN0b21wIFByZXNldCIgTWVudUl0ZW1TdHJpbmc9IlN0b21wIFByZXNldCIgVGFnSUQ9IjAi
        IERhdGFUeXBlPSJDaGFyYWN0ZXJEYXRhIj4KICAgICAgICAgICAgICAgIDxGbGFncz4KICAgICAgICAgICAgICAgICAgICA8bG9hZF93aXRoX3BhcmFtcy8+CiAgICAg
        ICAgICAgICAgICA8L0ZsYWdzPgogICAgICAgICAgICAgICAgPERlc2NyaXB0b3JzPgogICAgICAgICAgICAgICAgICAgIDxEZXNjcmlwdG9yIE5hbWU9IlNsb3RJbmRl
        eCI+MDwvRGVzY3JpcHRvcj4KICAgICAgICAgICAgICAgICAgICA8RGVzY3JpcHRvciBOYW1lPSJTdG9tcE5hbWUiPkxheUQgU3RvbXA8L0Rlc2NyaXB0b3I+CiAgICAg
        ICAgICAgICAgICAgICAgPERlc2NyaXB0b3IgTmFtZT0iUGx1Z2luSUQiPkdEUk08L0Rlc2NyaXB0b3I+CiAgICAgICAgICAgICAgICAgICAgPERlc2NyaXB0b3IgTmFt
        ZT0iQ3VycmVudFNldHVwIj5zZXRBPC9EZXNjcmlwdG9yPgogICAgICAgICAgICAgICAgPC9EZXNjcmlwdG9ycz4KICAgICAgICAgICAgICAgIDxEYXRhPgogICAgICAg
        ICAgICAgICAgICAgIDwhW0NEQVRBWwogICAgICAgICAgICAgICAgICAgIDxQcmVzZXRDaHVua1hNTFRyZWUgdmVyc2lvbj0iMiI+CiAgICA8UHJlc2V0IE5hbWU9IiIg
        R2VuZXJpY1R5cGU9IkdETFIiPgogICAgICAgIDxQcmVzZXRIZWFkZXI+CiAgICAgICAgICAgIDxQbHVnaW5OYW1lPlN0b21wTGF5RDwvUGx1Z2luTmFtZT4KICAgICAg
        ICAgICAgPFBsdWdpblN1YkNvbXA+R0RSTTwvUGx1Z2luU3ViQ29tcD4KICAgICAgICAgICAgPFBsdWdpblZlcnNpb24+OS42LjAuMTU1PC9QbHVnaW5WZXJzaW9uPgog
        ICAgICAgICAgICA8QWN0aXZlU2V0dXA+U0VUVVBfQTwvQWN0aXZlU2V0dXA+CiAgICAgICAgICAgIDxSZWFkT25seT50cnVlPC9SZWFkT25seT4KICAgICAgICA8L1By
        ZXNldEhlYWRlcj4KICAgICAgICA8UHJlc2V0RGF0YSBTZXR1cD0iU0VUVVBfQSI+CiAgICAgICAgICAgIDxQYXJhbWV0ZXJzIFR5cGU9IlJlYWxXb3JsZCI+MCAwIDAu
        NSA0IDUwIDUwIDEwMCAwIDAgNC41OTk5OTk5OTk5OTk5OTk2CjAgMCA8L1BhcmFtZXRlcnM+CiAgICAgICAgPC9QcmVzZXREYXRhPgogICAgICAgIDxQcmVzZXREYXRh
        IFNldHVwPSJTRVRVUF9CIj4KICAgICAgICAgICAgPFBhcmFtZXRlcnMgVHlwZT0iUmVhbFdvcmxkIj4wIDAgMC41IDQgNTAgNTAgMTAwIDAgMCA0LjU5OTk5OTk5OTk5
        OTk5OTYKMCAwIDwvUGFyYW1ldGVycz4KICAgICAgICA8L1ByZXNldERhdGE+CiAgICA8L1ByZXNldD4KPC9QcmVzZXRDaHVua1hNTFRyZWU+CgogICAgICAgICAgICAg
        ICAgICAgIF1dPgogICAgICAgICAgICAgICAgPC9EYXRhPgogICAgICAgICAgICA8L1BsdWdpblNwZWNpZmljPgogICAgICAgIDwvUHJlc2V0RGF0YT4KICAgIDwvUHJl
        c2V0Pgo8L1ByZXNldENodW5rWE1MVHJlZT4KAAAAAA==
        AAAQAAAA
      >
      FLOATPOS 108 585 461 472
      FXID {022238C2-BEEA-4610-B4C4-5DDBC6C3D0CB}
      WAK 0
      BYPASS 1 0 0
      <VST "VST: RVerb Mono/Stereo (Waves)" "WaveShell-VST 9.6_x64.dll" 0 "" 1381123672
        WEZSUu5e7f4BAAAAAQAAAAAAAAACAAAAAQAAAAAAAAACAAAAAAAAAIIFAAABAAAAAAAQAA==
        AAAFggAAAAMAAAABUlJGWHNldEEAAAViWFBzdDxQcmVzZXRDaHVua1hNTFRyZWUgdmVyc2lvbj0iMiI+CiAgICA8UHJlc2V0IE5hbWU9IkJpZyBXYXJtIFBsYXRlIiBH
        ZW5lcmljVHlwZT0iUlJWQiI+CiAgICAgICAgPFByZXNldEhlYWRlcj4KICAgICAgICAgICAgPFBsdWdpbk5hbWU+UlZlcmI8L1BsdWdpbk5hbWU+CiAgICAgICAgICAg
        IDxQbHVnaW5TdWJDb21wPlJSRlg8L1BsdWdpblN1YkNvbXA+CiAgICAgICAgICAgIDxQbHVnaW5WZXJzaW9uPjkuNi4wLjE1NTwvUGx1Z2luVmVyc2lvbj4KICAgICAg
        ICAgICAgPEFjdGl2ZVNldHVwPlNFVFVQX0E8L0FjdGl2ZVNldHVwPgogICAgICAgICAgICA8UmVhZE9ubHk+dHJ1ZTwvUmVhZE9ubHk+CiAgICAgICAgPC9QcmVzZXRI
        ZWFkZXI+CiAgICAgICAgPFByZXNldERhdGEgU2V0dXA9IlNFVFVQX0EiIFNldHVwTmFtZT0iQmlnIFdhcm0gUGxhdGUiPgogICAgICAgICAgICA8UGFyYW1ldGVycyBU
        eXBlPSJSZWFsV29ybGQiPjMgMCAyLjk1MDAwMDAwMDAwMDAwMDIgNTUgMCAwIDEwIDEuNjAwMDAwMDAwMDAwMDAwMSAwLjQyOTk5OTk5OTk5OTk5OTk5IDAuNDI5OTk5
        OTk5OTk5OTk5OTkKMzI4IDI0MTEgMC43MDk5OTk5OTk5OTk5OTk5NiAwLjEwMTAwMDAwMDAwMDAwMDAxIDEgKiAqIDM5IDAKLTQuMjk5OTk5OTk5OTk5OTk5OCAyMDMg
        MjQzMi42OTk5OTk5OTk5OTk4IDAgMTk4OCA3IDAgMiA0MAoxIDIuMjcgMi40MzYzNjE4MDg1NzUxMTU1IDUwIDAgLTMgMiAxLjUgMzM2OAotNiAxIDAuODQ5OTk5OTk5
        OTk5OTk5OTggMSA5ICogMSAxIDEKMSAtMSA1IDQ5LjI5OTk5OTk5OTk5OTk5NyAzLjUgMCAxIDEgODAKLTMwLjE5OTk5OTk5OTk5OTk5OSAxIDAgMTg0IDAgMCAwICog
        KgoqIDAgKiAqICogPC9QYXJhbWV0ZXJzPgogICAgICAgIDwvUHJlc2V0RGF0YT4KICAgICAgICA8UHJlc2V0RGF0YSBTZXR1cD0iU0VUVVBfQiI+CiAgICAgICAgICAg
        IDxQYXJhbWV0ZXJzIFR5cGU9IlJlYWxXb3JsZCI+MSAyIDIuMzk5OTk5OTk5OTk5OTk5OSAxMDAgMCAwIDcgMS42MDAwMDAwMDAwMDAwMDAxIDEgMC41OTk5OTk5OTk5
        OTk5OTk5OAo0OTIgMjAwOCAwLjcwOTk5OTk5OTk5OTk5OTk2IDAuMjg3MDAwMDAwMDAwMDAwMDMgMSAqICogMCAwCi0xMC42OTk5OTk5OTk5OTk5OTkgMTU2IDU3MjMu
        MTAwMDAwMDAwMDAwNCAwIDE5ODggNyAwIDEgMTAuMDIKMSAzIDEwLjEgOTAyNy41IDAgLTIgMiAxLjUgMjg4NQotMy41IDEgMC44NDk5OTk5OTk5OTk5OTk5OCAwLjIy
        IDAgKiAxIDEgMQowIC0xIDAgMCAzLjUgMCAxIDIgODAKLTQwIDMgMCAzNDAgLTAuNSAxIDAuMjk5OTk5OTk5OTk5OTk5OTkgKiAqCiogMCAqICogKiA8L1BhcmFtZXRl
        cnM+CiAgICAgICAgPC9QcmVzZXREYXRhPgogICAgPC9QcmVzZXQ+CjwvUHJlc2V0Q2h1bmtYTUxUcmVlPgoAAACm
        AAAQAAAA
      >
      FLOATPOS 971 96 651 381
      FXID {E7BDCB99-36C9-43EC-B7E3-178F1A6D79B1}
      WAK 0
      BYPASS 1 0 0
      <VST "VST: Guitar Rig 5 (Native Instruments GmbH)" "Guitar Rig 5.dll" 0 "" 1315522357
        NUdpTu5e7f4EAAAAAQAAAAAAAAACAAAAAAAAAAQAAAAAAAAACAAAAAAAAAACAAAAAQAAAAAAAAACAAAAAAAAABYTAAABAAAAAgAQAA==
        LWluLQIAAAAjTkkjQ1MjRG9jdW1lbnQjI05JI1NvdW5kU2hlbGwjU291bmQjAAAAAAAAAAAAAABFAQAAYXRhZAIAAABkbnNzYmlsehYAAAAQAAAAeNpjYmBg0PX00zV1
        z/QDMhkAEaUCJ2F0YWQCAAAAb2ZuaWJpbHpUAQAAtQQAAHjanZRfb8IgFMWf7ae44d2hiSbLgpht2bqXLab7844VHbG9NECd+/Yrra3VZNr0jXs45/6AQtl8nyawk8Yq
        jTMyvhkRkBjrlcLNjHx+PA9vCVgncCUSjXJGUBOY84BZnWNhWutjeDIaER4EACwzOpPGKWl5URYCilTyB6O/BMK7TwKjpVZNi9x9a8PDAgsvKlmlApHRg+ob0nZHLywF
        buvmfszDXDlhIFIbmDBaSmXwYPTjWKdZsQd0dbARztJH/ZIPFkafeVvlgSmcM2qZu+YkGqGqC2Unklzyx0RYq2KIdLxltNJqR26lGVrpeLS4o/Td/SbSDk4DjaWi0DPM
        v9in9VrG7gTYPRxG8Kr2l1dbe/ouMIymXQCD0tcbUn3W+zSzV2BtY1/am/wBhXB1Z21fX1Z1WbpcqP4M/6in484HN6j9F3mt0j8lRpsfDg/+AKX9cN5hdGFkAgAAAHRz
        cnBiaWx6+hAAAFGcAAB42u1d23baSLPOvs1TaLHX2jdZGnRCSLPJzDIYOzjGxgYfMis3DQjoIKmJDmD8LP/D/t06tjhLtpGSceZijNSq/rq6qrqq+sRcth//58OHD83/
        fPhQ+/vJ0Jm5ZtkQmZ9L/B9cidHMARpCc/y5dNc7Y5USYzvAHAIdmdrnkolKzN9/fayNLRaatmO5hmY67GDimlOm70J9yJqu0deszyVBlvgSM0DGDH+Iy8zAYMrCIa5E
        rXKSKiuKUGJGFjC0BbL8N7hyA/xAFhsBquAncGCh+AkpA026DK5lZmm2tqUKBxoYd8/VmBN3zHACw6t/Vqp/ilVG4Hi59NfHjwxTs5FrDtkhcEAf2Boz1lEf6KyhORYy
        keHVOoG4EtZAQy0AMYS43cA0NR1XKJfKPiXMGAvDoHiKq2Dwv9oIPrERO2wG84mFjmbYuIgUlFktxZDGKCrH4QpNQNpx+zUqiguTgrrmaPGj4OH2rxnXJY+lx/GnBe98
        WjYFDlmPIuj/GJ0sPn8u0aRoYuzYhcl3+O0caguqi3FrZjpwNLYPzOnnUmnTKx8IESpkaUOWUAiYKpWY1V827Ov47xHQbY0wOFF5eQc2CjdwhxDF3SGU1loxA0QKHVwC
        yz7ANeJvHGQAJxQ40lVxIU/isE44cJAoyK9Rpml7nQFPwp5omUSrBtrJwIFzDbcV6K4nWOs0MBUilBQCxtIMhHlpgCcPTPgTenDLG2CUo4/XWh+/srcz2GNiQsril5Q8
        ltcFshbppuVEyGrlhJjvEH6Zll44Zr4iE+uknlIJtlEJlOFHw7yfNFFZrJ/fDMcnV9PnQfNqnKsy8All4AusDNwWZSgXUZrEzYLACGkFajuhQKbO9QfYqV5+u7i7Rpfu
        zU91uXS5dwP7bmALphLKNkkW0zoa2wkFKjF3ZicKBDNwp32a3XYaXMNo3Z+8q8S7ShRLJQRKkE+8nmyZKZVhI4lADVAbtuuDxXzSdGXZnDtqg7tA797G7+dt8JQ9xCFh
        ShFa/TqQngUcP3Pq9U2be/g5b4FO70nsXr4b0Q3Sw69LTzWrEaVs6Mx1mHMAzdh+/lE5ugVdA3geAjzHfcVcm+Xr0ShCyOePr5fA15tgxZogfUgxsQAg2/chyjawycN7
        pLsGNVL+ocgVUVbyR3oZAr2EBiQPV3qcKwDERoRRGzlMw0+VFUkmbxuUuzpZh/juGK2Gz3QusQdm2qk2mDJ82th5C5VggPs2EeoXP3vTizvj66nWcrvN7jznZMyrDnAO
        bvEQt5gH7hrq8B0RsTXJSTM0Zhkc1YMHxzVN0iNVR2i2R39eQYP2qPkaPEeLxA13NoptEFcciFYE0QKmPUO2VkA+uhFI1ywgvtk8xLc+cEuyzBcFpxXhvNUGyBqu+hmF
        AQo7VO5Asxymg2xI7ELx+l63aRvEdB08xBUQpZZA2TSHuXf6dp9jj9dBXm8ZzI4WYUs85Ut0IYYywaEZ40VpaePtnbRC58T5oUHTcr/dfbruw3u53G4Jer7OCZdwTrgC
        R988lzX8vue2GvYCxN5NPkTXfMLPTKCHQlOcWOdSiCNGHNqaRYoU22IUdruOVqgYVqJj2ELFrpVE7FokaGdyCO0M6vghzzSwthcrOXFWTWIUVjEWgY9KEmOhFEON/Rgc
        vNcf/iVJkwQBO/QRWEjMPbul3MtGsxdxbivXXj6CHQVXilHrKHgOHqmOw51DR6ejoDl8RDoKnAyj0HFwpR95joPr8NHmOMKdYoR5C0C18kHmHX+9/vjwAFaiU+Guidme
        Lmhd/z4IVLXWZZm7vjj90mwY6BNw3Jvu7U2+y8+ERKAqFDhQlbPGqWcoUiJkTYvksPWiTF4Ps43pQGcwifDJav4AbccamE6UfnEs1NfKDbJSvkhsHM7SpumPCs8axYnl
        kWZp5iCGJ0kFAGi34wSbToxYGxuDXy92IFN1xNoyYdKtnEv2k15l1g72qmhp056biQTDyPPZidt4kKT2HUTP5a/CYHijjha/z1q1cIcPcJmBTnYPjSCh1Pjze8dCYywZ
        DPaGNPt7AxkGMoMfV4Csn2Ra0f4n+/u5Cx1gMWTZawUXNnGs4nyPuPldRwtMfq79sQBz3Fwd4pr60DGAPfWa4D95m7onkKracHUHznSfcT6PpTIOI2yijQMtBsWS+Xhz
        SDZy4dfubOb/dew56Ur2OenOIppSPWg5VA6zQV0zsoZLc1A8fD1jtmXiXKgUBWPb3RiSF4aH93rKqYuCz/jFFvN1k2khXTrMCuyib5mxaWIjg5mwY5TxCkpIgiqpclVQ
        KwdYsZcI/dtEnpt48Wohp0xvhjsxZicm0Jd26shzK5kwAP1iPthdt9uaug8urDzcOctzd/y+Tvm3W+VeqVCC0PFIhetZ0knUDkKhN3p6X+fHCnd1d/3s3grjaXf58Pw+
        +/7artSqI3W/fQTjhPxjytMI36m1PGwp1VHxPUT4HiiJLg6+9mPkQcGnIgHrPFLWgCGbYBiMEJrjf+Nko0eSRSmmGVPq7VGy+il19TiTegfK/1HAZJH5owBLacXexjHe
        owQv9Iyr3KaNCWmPBthGJfBhuAFXvTee3Yum0H26/HJTf7z4CX7D7Q1C0bY3yNlTSb/KuvKCb8OAXTrdxfQQ42+ze19M/tssJv9ltjq8yqp3IZ9V7yq9gS7YqXr2mHKY
        2kIkGKVcQ9Af7MkPowms1tXkovc4GnM379mbw9a5Z460U05ZFHNmNH47QKYDIJknHfjTUqzXZ1CHzjLKe8VH4m3yBHFvu7rHwWGfgSamFR/8J4UE8OMBKWJHRDHTLaw3
        Flr4z6j+Xa1hgmyH6ihczVp/Sm8+v7vyMOB4zUQmu+nF+iyuSK8EugcmU4k21IIFelAvb/Wbrz8vuncGuHq++2flqL/tevyWOkzP3TqWm1Dhrep7qOpmUNvNG2C53dMF
        aXT2KIFa46TbpdbRaJaG8o4db+OTTCZLZ2IwJLZdPUNDVBUpp6WGfLyOFgw3gZMkIaeEST1aAV0Htk3zq8pX+dxXQcPhUKfDIU4VK0o+qHpSvDRL6ydQyZIqVnPK50Sr
        ojt4nEnKVV4LteXYJbeRCehFYliuFL4q5sSramL2ZwWXkJt96ChxHy7yXxl9r8bjvAXBgBZ0XpJy2kLS5eO9syD3bOUtz1NCjv0FO/fdGnU+NuUQ2LlvreFFetTbfzzP
        UVB94SMr/gUSY1mIbUh1PrLidSuxuSUnWWrwkQ1vWK5JLeU+1uaITcHh1sBwQ8C0eniokshGOIOJNmQaoI+Dx2jvfd047zWfOue3U3DnqOdl7nZoz09eJ445v5V2hDIX
        LlkTlGZHQwHCGfm3iGb2H8kmSCKXk8s5iJUQ2fYIDBMOS0UW1XxwgWhdFszdW8FKHHEp1OcAkZCTT27nGx6/uvGs0ueWzHQYWcybZeub/oy+3GqyMpQ50Tn5cnc/LkDm
        hyuWqeS2mMry64xtq93D1MMOUuuXi3r9ftrty1X95p9+z15W7t476MgdxAu0Bt1D0wFjjbnXrH7YT2fze8e6OpvdTDVNeTx3lE9Pj9KruR6VHV3Vumr1frlMqvRbuB7d
        KIRs3dqarg1yd/vbwqaVSsQFqvwLz0N49XFUoBcgN2+Y7kTT597SK98K/PPt1OpWLff2+lpoonav3vwJWkcJQA6zAtx7APIG2Ta0YwMPL3M5+bBn8ZwFYs4s7Sd9krZK
        /ssH1zmNa2UWhVMrgqjkdb6FECeWVhmmSuRfTgyjca1OOwlKpcr/msZUXfN6vTHLt6SN5Y9G127C2672Y/nt6QE0dPOf9ynpA/ds7DOhwIyuK8B/Mye0ClaVY21j24Sr
        TuOq0xooK9WcYD2eeXmb7YkcSSA3Sea0Xj46L+HUBTrTRmbuk/n0mcBz70zgCbB/ed+PF+lzEPy8EOOfcu2bLMWpyw+dvnk9vW59+nTa5GfL5/b4PQR8VctVuOwztzng
        qqhKXn7MKR/voIHUqW/YTnFiNadVKl1hJf8YgRKl3PYadcUYlKUB+q4ZparK0i9hqGrlzWsAa+XgomH/1mHcPp1cdDzw79wb9jfcPxy80zUrvOeYLJ0cwXG4ijJ4S4xh
        iTKT4XNGR4Opv8IyuEyY6WhDoFPK770lWLQ5aZoXVCvkGmhbR054xbODxmM9eWrO7lq+wsH0FC3MPRVxVZGqiI8r4g+tqLsgx2Ix/O6KeE5SqYqE7BUJiYr4tYpErkJV
        JNIV0YtMI6mPhWrDMObbbf/0BPDERoaVXKfNRoN3dKIR45Flk9Y4WM/qWjpxph0wJvuwsHD6v6yxFgL3B9PgUeDyEeMePgnuCKcZVo45loqJ4h4mVmRa/qTUTEzmg4/J
        xSAtfRQuSntkXuGrFBcrB8o8v15RZXd3CbTEy6k7Kzg2AP9vnrKvxGRfHdxLqx201jts6u7ZwDV5D9cUWsarWdl2pT05KdkmFJBtwUGYuxhWEWlxVlIzLKjiJdYgcQDe
        gVyT1g0COVHvpfZgg8Apu/lXVemxVk3NP+qguZfwsAdmKczpOvN6s9c1ptHp2Z5jtM+REESBdiT4LL7RSo3CnhorCm1feT5tjVc4jG34b3cLCH0CU1yfkF7RqPvhXiIp
        HR0sDxaV4Ia6hKjM9HSiQj9Z8beDAkDDmHCTD/C+/YrX/G7CWMqlXjuMctvnsUPtU+CTFPj9FGJP2acgZKUghBTErBTEkIKUlYIUUqhkpVAJKcirFBK5Fo+EJ5UJWQ78
        j3Vh8ms7EIMcYqhmxiBkwxAMhn7tSlYeKiEFNTWFdbMbyHV61Vi3pwEpPh2phKEMSGxTklo5MAXBzzfb81jzMxgbkgRSaT0vyvrWXPduXiDpEFLJyjOiM0nxCmCxxObF
        9JOzpLWAVXFVdNQY20KWjn0PtP5poqVAzGnIr9aYIHjb1BjpV2uMtLUpSram7HZa37RbtjZFzdaU3S7kGzYlcFI2NYVYmixt2e3j7GgLnc9csRBREdsEM3uCHDoNGj3z
        bEv0a+uW7Vp5hUqtvGLSgscHbeqOqAYFvXmN2BWNP4+4ISjK3pOxy+nJ8srePQ4ZqApVee+dyhnIiuLeWfxMYPeusspCVRX3nruUhQXK3lnBTFTFvcdvZCHLyXtvr8zC
        WnHv4tgsVGVh7w0mWchWIvFawPEzp17ftLmHn/MW6PSexO5lVrQVee/RpBnIcntPbogcxzU7588NrU0H+bNEuEbgDTRBHIw/nCBc4TkaQuYL1IcGMM0oSsYmnRwwTyX1
        wi1wiBww0UWuOWTCySUSSw/IMOQNDlGb8ePQt+78WS4HR9WfGDObYsz2Qv/3v0/q/wenWURtXq/KOzEZ+AMS+YmZF0TczAhZBm4VGBPGevPiAZmxV4sFx1SJMZ1/6KMn
        duWIGUbXRg47Il3HJifbGR3OtWAmPihrQnbqs3+NDEk6+Ldz2CypHovDOEhZUG82fEU6IcC6CoDMBa49g+MAArBtODaN6AgWiuwCmkMcMsBnjX3yrkQXE8+W2MiJlQ3h
        AeYPwR5zzMdH4Q68E+8EmMRTXBCT7gOLnQX3SRMzlQipgKONkbWMj5ChvIYwlRKcLWMPiP9DkUquMohpkft9GYg/TGAsby3MpykspCkspikspSlcSVNYTlO4mqawkqaw
        mqIwn6YH+TQ9yKfpQT5ND/K7e7BWTgo05VRv1YLajKj7u3LkphzbO21Tz9TKm4cbf/CKhyt/+AIDcscL66WngTNhgt+B/UfWULMi567EjKCFfQCSetfJJ/HpTxZCief0
        4JvIfXujLmncx/jIKq8WaNIjbfkvb9EJjK6eYQcT15z+9fG/yaDRimF0YWQCAAAARE5TU2JpbHoWAAAAEAAAAHjaY2JgYND19NM1dc/0AzIZABGlAic=
        AEJyb1ZhbiBTb3VuZCAAEAAAAA==
      >
      PRESETNAME "BroVan Sound "
      FLOATPOS 1125 98 1035 897
      FXID {5A7AC32B-CD18-4205-80A2-AAA8AF0FA36B}
      WAK 0
      BYPASS 0 0 0
      <VST "VST: GTR Amp Mono/Stereo (Waves)" "WaveShell-VST 9.6_x64.dll" 0 "" 1195461976
        WE1BR+5e7f4BAAAAAQAAAAAAAAACAAAAAQAAAAAAAAACAAAAAAAAAJcMAAABAAAAAAAQAA==
        AAAMlwAAAAMAAAABR0FNWHNldEEAAAx3WFBzdDxQcmVzZXRDaHVua1hNTFRyZWUgdmVyc2lvbj0iMiI+CiAgICA8UHJlc2V0IE5hbWU9IlN1cGVybmF0dXJhbCBEZWZh
        dWx0IiBHZW5lcmljVHlwZT0iR0FNUCI+CiAgICAgICAgPFByZXNldEhlYWRlcj4KICAgICAgICAgICAgPFBsdWdpbk5hbWU+R1RSIEFtcDwvUGx1Z2luTmFtZT4KICAg
        ICAgICAgICAgPFBsdWdpblN1YkNvbXA+R0FNWDwvUGx1Z2luU3ViQ29tcD4KICAgICAgICAgICAgPFBsdWdpblZlcnNpb24+OS42LjAuMTU1PC9QbHVnaW5WZXJzaW9u
        PgogICAgICAgICAgICA8QWN0aXZlU2V0dXA+U0VUVVBfQTwvQWN0aXZlU2V0dXA+CiAgICAgICAgICAgIDxSZWFkT25seT50cnVlPC9SZWFkT25seT4KICAgICAgICA8
        L1ByZXNldEhlYWRlcj4KICAgICAgICA8UHJlc2V0RGF0YSBTZXR1cD0iU0VUVVBfQSIgU2V0dXBOYW1lPSJTdXBlcm5hdHVyYWwgRGVmYXVsdCI+CiAgICAgICAgICAg
        IDxQYXJhbWV0ZXJzIFR5cGU9IlJlYWxXb3JsZCI+NSA1ICogKiAqICogMiAwICogKgoqICogKiA1IDAgMCAwIDAgKgo1IDUgNSA2IDgwOTEgNSAwLjcwOTk5OTk5OTk5
        OTk5OTk2IDAgMAowIC0yIDAgMCAzMCAwIDAgMSAwCjEgLTEyIDEyIDI1MyAxLjE2OTk5OTk5OTk5OTk5OTkgMCAtMTQgOCAxMjM5CjAuODE5OTk5OTk5OTk5OTk5OTUg
        MiAtMTIgMTIgNTUwMiAwLjY5OTk5OTk5OTk5OTk5OTk2IDAgLTIgOAo1IDMuNzAwMDAwMDAwMDAwMDAwMiAwIDAgLTEwMCAxMDAgMCAxIDEKMCAwIDAgMSAwIDEgNDAw
        MSAtMTMyIDAKMCAwIDAgKiAqIDwvUGFyYW1ldGVycz4KICAgICAgICAgICAgPFBsdWdpblNwZWNpZmljIFRhZ05hbWU9IkltcHVsc2UgUmVzcG9uc2UiIE1lbnVJdGVt
        U3RyaW5nPSJJbXB1bHNlIFJlc3BvbnNlIiBUYWdJRD0iMCIgRGF0YVR5cGU9Ik5vRGF0YSI+CiAgICAgICAgICAgICAgICA8RmxhZ3M+CiAgICAgICAgICAgICAgICAg
        ICAgPGxvYWRfd2l0aF9wYXJhbXMvPgogICAgICAgICAgICAgICAgPC9GbGFncz4KICAgICAgICAgICAgICAgIDxEZXNjcmlwdG9ycz4KICAgICAgICAgICAgICAgICAg
        ICA8RGVzY3JpcHRvciBOYW1lPSJBbXBNb2RlbEZpbGUiPjg0X1N1cGVybmF0dXJhbC54cHM8L0Rlc2NyaXB0b3I+CiAgICAgICAgICAgICAgICAgICAgPERlc2NyaXB0
        b3IgTmFtZT0iQW1wTW9kZWxQcmVzZXQiPlN1cGVybmF0dXJhbDwvRGVzY3JpcHRvcj4KICAgICAgICAgICAgICAgICAgICA8RGVzY3JpcHRvciBOYW1lPSJDYWJpbmV0
        TW9kZWxGaWxlIj4yXzEyaW5jaF80MDlPblgueHBzPC9EZXNjcmlwdG9yPgogICAgICAgICAgICAgICAgICAgIDxEZXNjcmlwdG9yIE5hbWU9IkNhYmluZXRNb2RlbEZv
        bGRlciI+Ml8xMkluY2hDbG9zZWRCYWNrPC9EZXNjcmlwdG9yPgogICAgICAgICAgICAgICAgICAgIDxEZXNjcmlwdG9yIE5hbWU9IkNhYmluZXRNb2RlbFByZXNldCI+
        RHluNDA5X09uQXhpczwvRGVzY3JpcHRvcj4KICAgICAgICAgICAgICAgICAgICA8RGVzY3JpcHRvciBOYW1lPSJDYWJpbmV0Mk1vZGVsRmlsZSI+Ml8xMmluY2hfNTdP
        blgueHBzPC9EZXNjcmlwdG9yPgogICAgICAgICAgICAgICAgICAgIDxEZXNjcmlwdG9yIE5hbWU9IkNhYmluZXQyTW9kZWxGb2xkZXIiPjJfMTJJbmNoQ2xvc2VkQmFj
        azwvRGVzY3JpcHRvcj4KICAgICAgICAgICAgICAgICAgICA8RGVzY3JpcHRvciBOYW1lPSJDYWJpbmV0Mk1vZGVsUHJlc2V0Ij5EeW41N19PbkF4aXM8L0Rlc2NyaXB0
        b3I+CiAgICAgICAgICAgICAgICA8L0Rlc2NyaXB0b3JzPgogICAgICAgICAgICAgICAgPERhdGEvPgogICAgICAgICAgICA8L1BsdWdpblNwZWNpZmljPgogICAgICAg
        IDwvUHJlc2V0RGF0YT4KICAgICAgICA8UHJlc2V0RGF0YSBTZXR1cD0iU0VUVVBfQiI+CiAgICAgICAgICAgIDxQYXJhbWV0ZXJzIFR5cGU9IlJlYWxXb3JsZCI+NSA1
        ICogKiAqICogMiAwICogKgoqICogKiA1IDAgMCAwIDAgKgo1IDUgNSA2IDEwMDAwIDUgMC45MDAwMDAwMDAwMDAwMDAwMiAyIDAKMCA2IDAgMCAzMCAwIDAgMSAwCjAg
        LTEyIDEyIDIxMCAxIDAgLTggOCAxMDAxCjEgMiAtMTIgMTIgMzYxMiAwLjgwMDAwMDAwMDAwMDAwMDA0IDAgLTIgOAo1IDUgMCAwIC0xMDAgMTAwIDAgMSAxCjAgMCAw
        IDEgMCAxIDQwMDEgLTE0MCAwCjAgMCAwICogKiA8L1BhcmFtZXRlcnM+CiAgICAgICAgICAgIDxQbHVnaW5TcGVjaWZpYyBUYWdOYW1lPSJJbXB1bHNlIFJlc3BvbnNl
        IiBNZW51SXRlbVN0cmluZz0iSW1wdWxzZSBSZXNwb25zZSIgVGFnSUQ9IjAiIERhdGFUeXBlPSJOb0RhdGEiPgogICAgICAgICAgICAgICAgPEZsYWdzPgogICAgICAg
        ICAgICAgICAgICAgIDxsb2FkX3dpdGhfcGFyYW1zLz4KICAgICAgICAgICAgICAgIDwvRmxhZ3M+CiAgICAgICAgICAgICAgICA8RGVzY3JpcHRvcnM+CiAgICAgICAg
        ICAgICAgICAgICAgPERlc2NyaXB0b3IgTmFtZT0iQW1wTW9kZWxGaWxlIj4yMF9DbGVhbi54cHM8L0Rlc2NyaXB0b3I+CiAgICAgICAgICAgICAgICAgICAgPERlc2Ny
        aXB0b3IgTmFtZT0iQW1wTW9kZWxQcmVzZXQiPkNsZWFuPC9EZXNjcmlwdG9yPgogICAgICAgICAgICAgICAgICAgIDxEZXNjcmlwdG9yIE5hbWU9IkNhYmluZXRNb2Rl
        bEZpbGUiPjJfMTJpbmNoXzQwOU9uWC54cHM8L0Rlc2NyaXB0b3I+CiAgICAgICAgICAgICAgICAgICAgPERlc2NyaXB0b3IgTmFtZT0iQ2FiaW5ldE1vZGVsRm9sZGVy
        Ij4yXzEySW5jaENsb3NlZEJhY2s8L0Rlc2NyaXB0b3I+CiAgICAgICAgICAgICAgICAgICAgPERlc2NyaXB0b3IgTmFtZT0iQ2FiaW5ldE1vZGVsUHJlc2V0Ij5EeW40
        MDlfT25BeGlzPC9EZXNjcmlwdG9yPgogICAgICAgICAgICAgICAgICAgIDxEZXNjcmlwdG9yIE5hbWU9IkNhYmluZXQyTW9kZWxGaWxlIj4yXzEyaW5jaF80MjFPZmZY
        LnhwczwvRGVzY3JpcHRvcj4KICAgICAgICAgICAgICAgICAgICA8RGVzY3JpcHRvciBOYW1lPSJDYWJpbmV0Mk1vZGVsRm9sZGVyIj4yXzEySW5jaENsb3NlZEJhY2s8
        L0Rlc2NyaXB0b3I+CiAgICAgICAgICAgICAgICAgICAgPERlc2NyaXB0b3IgTmFtZT0iQ2FiaW5ldDJNb2RlbFByZXNldCI+RHluNDIxX09mZkF4aXM8L0Rlc2NyaXB0
        b3I+CiAgICAgICAgICAgICAgICA8L0Rlc2NyaXB0b3JzPgogICAgICAgICAgICAgICAgPERhdGEvPgogICAgICAgICAgICA8L1BsdWdpblNwZWNpZmljPgogICAgICAg
        IDwvUHJlc2V0RGF0YT4KICAgIDwvUHJlc2V0Pgo8L1ByZXNldENodW5rWE1MVHJlZT4KTgAAAA==
        AAAQAAAA
      >
      FLOATPOS 738 150 959 467
      FXID {36EFAF89-2C7A-4B97-B4D3-D1F5AF0B8D4F}
      WAK 0
    >
    <ITEM
      POSITION 76.32
      SNAPOFFS 0
      LENGTH 185.83358276643997
      LOOP 1
      ALLTAKES 0
      FADEIN 1 0.01 0 1 0 0
      FADEOUT 1 0.01 0 1 0 0
      MUTE 0
      SEL 0
      IGUID {4B8F57B2-6D3C-40E7-BA55-D16F70070D6C}
      IID 25
      NAME "D__Recording_05-Guitar Direct-160723_1824.wav"
      VOLPAN 1 0 1 -1
      SOFFS 39.84
      PLAYRATE 1 1 0 -1 0 0.0025
      CHANMODE 0
      GUID {DF6AFC1F-84B5-4F5B-9471-2AABB572B66D}
      RECPASS 7
      <SOURCE WAVE
        FILE "D__Recording_05-Guitar Direct-160723_1824.wav"
      >
    >
  >
  <TRACK {9BE14A76-245C-4AE7-967D-AA27D03F1119}
    NAME "Guitar Direct"
    PEAKCOL 33311093
    BEAT -1
    AUTOMODE 0
    VOLPAN 0.31308033777812 0 -1 -1 1
    MUTESOLO 1 0 0
    IPHASE 0
    ISBUS 0 0
    BUSCOMP 0 0
    SHOWINMIX 1 0.6667 0.5 1 0.5 0 0 0
    FREEMODE 0
    SEL 0
    REC 0 1 0 0 0 0 0
    VU 2
    TRACKHEIGHT 0 0
    INQ 0 0 0 0.5 100 0 0 100
    NCHAN 2
    FX 1
    TRACKID {9BE14A76-245C-4AE7-967D-AA27D03F1119}
    PERF 0
    MIDIOUT -1
    MAINSEND 1 0
    <FXCHAIN
      WNDRECT 1007 33 1265 944
      SHOW 0
      LASTSEL 0
      DOCKED 0
      BYPASS 0 0 0
      <VST "VST: Guitar Rig 5 (Native Instruments GmbH)" "Guitar Rig 5.dll" 0 "" 1315522357
        NUdpTu5e7f4EAAAAAQAAAAAAAAACAAAAAAAAAAQAAAAAAAAACAAAAAAAAAACAAAAAQAAAAAAAAACAAAAAAAAAKUTAAABAAAACQAQAA==
        LWluLQIAAAAjTkkjQ1MjRG9jdW1lbnQjI05JI1NvdW5kU2hlbGwjU291bmQjAAAAAAAAAAAAAABFAQAAYXRhZAIAAABkbnNzYmlsehYAAAAQAAAAeNpjYmBg0PX00zV1
        z/QDMhkAEaUCJ2F0YWQCAAAAb2ZuaWJpbHpVAQAAHAMAAHjalZJRT8IwFIWf3a+42TsUEx6MKSU+iIkJyQKamBgfuu0Oqlu7tHcE/73dCmPwgPrWc/qd3Z52fL6vStih
        dcroWXw7nsSAOjO50ptZ/PqyGN3F4EjqXJZG4yzWJoa5iLgzjfZQYU7h6WQSiygC4LU1NVpS6ISX3tCyQvGeWGxhzGHVLlL3wVm3EyDZ0NZY8YzWfsMyS7aeNZqzgx+g
        zFQVahLrulQEsqrBnw36D3eLFMhKVY7hIf9sHEFgl2oPtdTaN+syldeFsSBLQqslIXSd3Jiz45C2CxuWaY1U6q9jr3YtnhpF0sJKbWDKWWd1wQMYhVPX/vo0uVONYFyk
        T/41DhJrLtiBPMyURFalDfWP0BtBe2cnywbFY1FgRpwFFVh2Af8Sdmdpv9k4tCOHJFbJPWM91Nv/nLKuMVOyhMXbnwbdDPmrMweyvTbO+v9aRD8ayf7/YXRhZAIAAAB0
        c3JwYmlseogRAADuswAAeNrtHdl22koy85qv0PGrD0H7co+TORi8xUvYvJCTFyEakNFCtICd35o/mi+Z1tZqIWSQbCPFQ15iLVRXV9de1S3i6vrhX58+ffrvfz59Ovr3
        k64RC2DZqml8PaC+kAcEMBRzpBqTrwe3/dOaeEDYjmyMZM00wNcDwzwg/v3t89HEqqmG7ViuDgynpkxdY0YMXVUb1QxXHwLr6wHNs9QBoZj6HP4QvjOXlVlNHcFBJIFk
        JV4U6QNibMk6WJpW8AQOrsuPplVDCHHwjqpYZnzHe0c18HfgKHML2CBjCEfVId59FxANd0KQNEFJ/3DCP4xA0CTFH3z7/JkgjmzTNUa1kezIQ9kGxEQzh7JW04FjmYap
        +6NOVThITTdHIERipMJ5y4YBNDggf1APIEHCWBANjKZwCAL+OxqrTzVEDpuAdKqpDtBt+AobvrP6FuFNRpRIEg5oyN48upfoVfiy96IGHBDfCm9m/5pwXe92e6g1FwPh
        t3rLn1LaYKoOwNXN8uvXAxwUDqw2cdXkM/h0oYIltsRwNnNNdkBtKBuzrwcH6x4FiHhMZVpgVPMghERlD4jVK1sdavDvsazZwCNwYvD6C7hheMvuSDXj5aAPUrOYyx4X
        OvANyPsyHBH+xjF12YkYzluq+CWf46BMOKqSeJFKQcZh+4uhNqKVuDA8qVJAQ3HUBYBzlTXXZ6w0DAjFY0oMA8ICuglpqctPPjLRpeqjW1+DRh39ODX7+JGdTWCfiAku
        ix9i/FhPM+QRkk3LQZgd1RNs/gLz8zj3qhPi0jSgTGo5hSALSigMf2aXmiayMjk7pMfnlGN0fv8pWRiohDBQFRYGMkMY6lXkJmY9IxB0XobKBhTyVFcympNFt+GSZ/qd
        /Kfz5N7dTfYKdq9gKyYSYhYnM3kdjWxAoUg0FufXzMg09Nlh71KQluJPiZcne5HYi0S1RILGGLnhr+SFkVMY1oIIxeB7w+IvryYjbQY0bS50jSedXnT23saH8zYoTB/C
        kDAnC63+OuSee+NC6Dw6FHuiMiT3sACdpXDW2SvRNPdQae4RiipRTIfOXYc4k1Uj1p9fuJ1r0BSCZxGCZ3CtiB9G/cd4jDCkysevn8CvP4WCNTW1EUbECiB5fRdheS3b
        3s07U3N1zFJ+EXmO4cXyMb2KEL1SddW7ubLiZAVQbCIcwdghmkGqrEo82W1i7uo0jeLeMVoNn/FcYl+egxZQZgSVN3bOgBIauN7pU3t81hybJN+Z3oM+LdXvuA8UJThw
        xiM4Y0p2U1hHzzwWS3FOHtNYxDhKa41jhhAkJUlDom6a8w3y8wYStEHMU+g5ALEbXGwz1kFkdVC0EIqWbNhz0wYVpKOLkHSNCuI3X0T4pQ03y/NUVfC0EJ5doJjWaNXP
        qAyiahvLHQDLIdqmrXp6oXprr9m4DiJ6DjRxFcQSJLA8MUalL3q2z7HB6/AeZxiznUXYLIX5Ej0VojKFoRnhR2l54+0XYYXOyc1Jz1as1qx1ct99bMyc5pjttMrN6pMJ
        54SscPRNkVt7GCtic0dmKvYKxN4nVITdyRO8Z8haxDTViXWu6DhihKGtUaVI8ZpBYbfrgErFsCwew1YqduUSsWuVUDvlI9ROVQ3epIgmlPZqJSdOhSSO9CqOVaCjmMSx
        UoIhxX4MDN6P7/9PkiYJAHbkI9RUT93XMt57nTV7FeUyqfZ6C7YTvHJYrZ3gs7Wl2g11trVOO8Fme4u0E3QKWKHd4JXf8uwGr+2tzW6YO4eFeQ+EjupbqXf46/Tt7QNY
        Fk+FuwYke76gNf37MFAdSINpW1RokzyTTjS1O7AfL5lys+h0IlClKxyo8kXj1FMTCZFpzarksPVRJq8PyUa0VUeZIvx4qXwEbcdSDAelXxzLHIJ60+uUrxIZR/O8afqd
        omeN48TyGFjAUGL0WLYCCNrXcYJN85TYNVQGf1/s4JXqPG1LREm3einZT7zL7DrcqwLypj3XA4m6jYbOglUXV9atrlpn9HHj+8/F+QfqjI92+MguoWje7qGx6kFq/vOr
        bZkTyBkE9IaA/atp6rpphBc3stc/SVyg/U/2rzNXdWSL8NpeOfiyAWMV5xei5i/NXELwC/BlKS/gdDUVjjRUHV22Z/4UgjvvM/ZUxYbWXc1R51pAuIDGbB2GEbYnjQqI
        kap59Xhj5G3kgo/d+Tz4a9c1aa54Tbq9RCXVrdqhSqgG9QykDZ8NpXr49fV5RuGc5qqC47W7NiSvDA3vtJyli4pX/GKN+bbJtAguHmaFejHQzFA11ZDCTOgxTHmFb7C0
        xEq8QEvcFlrsNUz/PpHnOlq8WcjJ45vhGvq8Ycjas5078swEE3oOC3A4HB+KJnvrTu076/G5b51b+/1PH6/LneMwRmj7oKJ+lnwc9QKgkKeenxW1fm3U27Nm40yWBsc0
        o/zYV9/f2pVadaTuqlx8byHsWtbzdo1UO8XvHuF3j/FzdfC7fkD+k/pUJcTaD5guILwtMATEUDUm/4+lRh9kzcxRZMwltTvJ6OeU1N0U9Lbk/p0gU4Tjd4JYTh32Pk7x
        BhF4pVcskOs2JeQ9FiALSui/TCWp/v2422dmz+fWqfH9vscczjsfb2sDXbWtDXzxNNLf0lNe8S0Yag9PdRF9kwi22O0byT9MI/lfs83hTTre6XI63iV881y4S/X0IaeZ
        ygASWqnWlfP4nWb5wUnvpnl//yjp7M/O/piOLXvci+4wz1uuqGZVNH6qmIYjq16NVAlKUjV/zVRNdZ5Rzis+Dm+dJwhX29V8Co6GhGpAWPGhf2wEAN5WvFdsBBQS3YJy
        Y5nL4B62vqsjTE3bwRYKDpNaT/7da7srN0OKHxmmUVv3YK3TiYzrHNI3EmStez0dXTSHPVZnqcaS5ectx0i6m9lC/J5pMrxo61huQn4zZXdbuc0vs1nbUjKwSvD9Gn5Y
        bdHCC+xNGa3O7XgxnN+ezvoTXbis9w2d+u1Ky3dfnYubi36+snoFVmi7rcmv0Kg7CaObjV4P63ACFjDLjuyzk0SCIIl8SYkilCdSPT5N7jf9wvGcVBJip1ktsl8EmqJK
        SqsdR0gdy7ZdfpbvWIvx0bQKINSPO/bAUKtAHvQH3om5c3TW+3avsG8Mfu5fz/EVfxdA1T+MLJ1knTQGgsx1qMPl8nJ+dXN6P2p09pZunaUTP4SluwcOljEuG5u+juXV
        ay2gyc+Y2NECI5SkCXp/UILENHWip/4pvSByjrS3VYVdPFdVU97NqZXhwZVEIfU6eTRdCRvT3t6k4L1FbftZmYJQagODwgvdzu2Pgd0b/eg8ag2ly18dtid7g7I2IcV8
        CIvS8/pj1/TKkiWHKFUwbyhc8mSE6KuJOE6iWYYuaUfowo4LAB5Dl27dWk5MK8c1KmBP4pASgNHQP+cVocTQJFeWuDn9pJlLslVpWHUXK2itMhZZFmatlcwOscphJfkr
        SI83LdO2iRSbldXrgsx7YicilEOKJ+m9K/VWrpSIu1JNFzovOnHSiRyp2e14yKvG4MctXTfa9d+cPmzd7CPzV/TPVt2PcjKSTzwv0iWZwKwGm5IohLbQnlrgtwsMBU8W
        sBxDMeXghXypnpLo8PkicDRH/aXaabV0SRxHqkm029TpYV/of/99dXnXWx7+cX72Jvvi5W6LlxxuPq6APCJE7zpYop+dwblwId30L0B/Nrh4oJ/ISb+xtx5rw3BuX8J8
        pxImhXdNN/R5RVrL7+hNHxMQRIGqVs2Q5yi2JOf7Om7Ex78KIXK0wFatcCgIolRW3GQldsjhB3xAYpEMV9LytZcIL3NZ/ulRdzKiE/xTlRWcyUWSFUpKE0yQ7pQneNBL
        szwplZSls+dxls6G1s9OpMUkki5J/o5VpKVUGddSjMhRJXWAnKMFPDZN2ymbzc9YpDbPumzyMJ2/NSQQE73JjjIFI6IpD1UDoNa5c3uu6sdXrTnJjy87p5dS5/ZPq5zG
        RirzULMKOJ38h/A5N3+ViYUqvSTtqSTSq2MZP83qC83zZfkJMjqaQS3dGEPpjftfQ0GOWKqknJNdbhDz5lpTEFc2HhInytSM9eXF3YLVrP4xqP/8cdkyKaFF7+vla3Um
        /THq5Y6dOMSG2HDA1E5wmqJI/dzLJDXiowlLwodO4HOM8Ck9wzsHAA+CWYrneaHsdHi6QM1yElfS2g2r1fXsVK1PDaCqimcI1rhMlESVpAbwbaFem3AKuZKqv3rp1d/0
        cbM6fmRGFTByhgkvYzV/KAl0SXrKcRKIpeSQJSmupKTByIpX0Zyb7otHGu8EI3Tu5I2plt88g1KH97KVXDSeIcvahDTFfQPLNPXydXoc0ykK0IAlJ3ZGleXU6QknqgLH
        6GTHdmUtnOWsWLyVHs2ygmAtdjgt1ZgQV8CYONO/f0uSlGor8NkyCIYPH25vnnr8oHsrXw3I7uzM7X5/blQgefgh+p1ko4EKQbKBxXgl2RaIxDGO0HHZ2unh1M8RZicN
        yzqdDVUSWq6sEdemUXplH//67ML/+uxUtv+2jsyj+vqDHI7qE6tmwXj622fvygKy5kCr4B2WYZnaaBgLcsSoR+EzaPlHsiP7c4W3xuokOgojfOpv+sBUY3Sf0ExlFhyT
        ERijS6INRrKGyb7/1MMF2ik4NW8VaJH1DjXRzOASPnfMyURLfvbg5VEuVWXWMpfGhoFIgcEGogoM1Ft63cQElRiIXh2IIlkJG4iOB0p8yj5mxnitU320gS4NzqSWn2pI
        txCQyWqIUdF3IggfaC2ZKQxPCnEtzTMTjjzxTriDHBNcWRMQ4Bm28oZ3QpXm5R2jO64+9Bc/YTiyZxG3c+1wElz+SXgiFa15LjagE2xApdiAITmMDZjcbJDYmfYaGuIJ
        hy3pyKyho9e//g5kZDaQkeNx/cDmJuPKnvFdE5LZGSHZDYQUKQEjJJebkFjdZ8dEDMtPSSLqrycilSYi9zIRaVyk+fwiHRw7Dv9b5CQikyTi1qRbJVuKaLW3oBq/gWoi
        LsJCUbLdgCcnJ9noCpIt/JDeSwTjGFxUxfyiGgzxGjFNfEBrS6qxaTG1r99FTMWX6SdIuKsn5aYf9qGq19AQasytaRd+KCtBvP78bQ0F+vqu75ev+LFph5mhcT+WKuKa
        r4xIbxiRE3H9SuX20W/AkmgGT19mEPwLLvF4dCGb6B/CTL2OU9q+k7clq/BSmlXmWj5Wwe+shHvhC7LneMIpbxH8BQOnwj6PsFhEl/qYXdbP43gugEDlhhAHagEEOgmB
        2hoCHUFgikJgIghsUQhsBIErCoGLIPCrEBKZPh+Ez5UJXg79jzQzBaNtiQMf4SAUxoEuhkNoDIPRxaI0FCMIUm4IabUb8nV+0Ujr0xBUThlJKMoQRJaQHNVDVRBevtu5
        qUdBAm1Njoo9SKfia4E21/wvt3vZOG+QlXveeifZK0Sr5um8GH6yqHwUkioeCsuPxKqwhqd4tlT+ObMr9RWM32ou3AeaC5M9F6bYXF6Oz99zKkzmVNi/bCphyL5uKlzB
        qeglTYXNnIlYbCZ2WYsSxhjrpiIVm8rLEco7TiX0gddNhSqowl52oV+YC16tWTFA6BXbkOf21HTwIg+655sudJV5qvhRfQXKUX3FYoa3tzp3HEENX/SLtnGkE/8cUYP2
        ouoNn5qp5wfLiMzGbwMUAEvz6MM4A2kwbYsKbZJn0ommdgf24yVTFCwnoK9XGxdC59Gh2BOVIbmHBegshbOCRIALsun0uQJQxY1npBZZLxLhenPSsxWrNWud3HcfGzOn
        OWY7rWVBwgoIbO/0qT0+a45Nku9M70Gflup3XEESsOLGbV0FoJIbj1kvAJRjNu6oKABVEDa2phRZLVHc+BH3Qry18eygIlC5jWdKFNIE/MYvh6IQKqWSgyJ9qi4flOvh
        mLJnYerBJRwjTNEQY9PSddmQJx4G6Osk3kuy4n26veZnjWRnSoTXYU7JtEYwcIyUDbmSXQpB4O+qxgSGcdCy+vau/s1vKFDRd+FrytQ1Zt8+/w/Sv2eQYXRhZAIAAABE
        TlNTYmlsehYAAAAQAAAAeNpjYmBg0PX00zV1z/QDMhkAEaUCJw==
        AG5vIHNvdW5kABAAAAA=
      >
      PRESETNAME "no sound"
      FLOATPOS 923 49 1035 897
      FXID {6716B542-9243-4C30-9B12-E4564305AB1D}
      WAK 0
    >
    <ITEM
      POSITION 76.8
      SNAPOFFS 0
      LENGTH 115.25253968253971
      LOOP 1
      ALLTAKES 0
      FADEIN 1 0.254752 0 1 0 0
      FADEOUT 1 0.01 0 1 0 0
      MUTE 0
      SEL 0
      IGUID {0D539C7A-CAF8-4216-9906-B59EE35A471D}
      IID 27
      NAME "D__Recording_06-Guitar Direct-160723_1845.wav"
      VOLPAN 1 0 1 -1
      SOFFS 40.32
      PLAYRATE 1 1 0 -1 0 0.0025
      CHANMODE 0
      GUID {7FE6C084-488B-4BCF-8BED-91089AEC6C54}
      RECPASS 8
      <SOURCE WAVE
        FILE "D__Recording_06-Guitar Direct-160723_1845.wav"
      >
    >
  >
  <TRACK {2F688749-AE51-4D10-B68A-75D813DF076C}
    NAME "Guitar Direct"
    PEAKCOL 33311093
    BEAT -1
    AUTOMODE 0
    VOLPAN 0.51975514380336 0 -1 -1 1
    MUTESOLO 0 0 0
    IPHASE 0
    ISBUS 0 0
    BUSCOMP 0 0
    SHOWINMIX 1 0.6667 0.5 1 0.5 0 0 0
    FREEMODE 0
    SEL 0
    REC 0 1 0 0 0 0 0
    VU 2
    TRACKHEIGHT 0 0
    INQ 0 0 0 0.5 100 0 0 100
    NCHAN 2
    FX 1
    TRACKID {2F688749-AE51-4D10-B68A-75D813DF076C}
    PERF 0
    MIDIOUT -1
    MAINSEND 1 0
    <FXCHAIN
      WNDRECT 1007 33 1265 944
      SHOW 0
      LASTSEL 1
      DOCKED 0
      BYPASS 0 0 0
      <VST "VST: Guitar Rig 5 (Native Instruments GmbH)" "Guitar Rig 5.dll" 0 "" 1315522357
        NUdpTu5e7f4EAAAAAQAAAAAAAAACAAAAAAAAAAQAAAAAAAAACAAAAAAAAAACAAAAAQAAAAAAAAACAAAAAAAAAKsSAAABAAAAIwAQAA==
        LWluLQIAAAAjTkkjQ1MjRG9jdW1lbnQjI05JI1NvdW5kU2hlbGwjU291bmQjAAAAAAAAAAAAAABFAQAAYXRhZAIAAABkbnNzYmlsehYAAAAQAAAAeNpjYmBg0PX00zV1
        z/QDMhkAEaUCJ2F0YWQCAAAAb2ZuaWJpbHpHAQAA9wMAAHjanVNLT8JAED63v2KyV4OLCQdjluWi9UpAjYnxsLQLblx2mn0Q/fduW2grEhBuO998j5lJyyZfaw0baZ1C
        MyY310MC0uRYKLMak+enbHBLwHlhCqHRyDExSGDCU+YwmEhaYiceDYeEpykAKy2W0nolHY9lBIxYS/4296FUBWQY7DujNda0RfAfaPm9MujgRWithBEeHaPbTmVK+64V
        sBDmcxdQvfljUF5YmKkVjBitoVq4JVbvHNdl3MP4nbAF9tQdfowHmcg92m+YSy1zH8+wp+yV2wmE91Ytgm9v0wJNHZGN0EHyh+UyWjLaVA2X7pFPiN0vdWwGJ+3ASc9n
        0ztKW1ILn5lyYPt/5CXzUuZKaMhekz8OyVVSc6cWi1CRD2RcOu7O8/iUHevSnG6/s+9xcvukb350wF5ZfXqMtr8sT38ApqpB4GF0YWQCAAAAdHNycGJpbHqcEAAAbasA
        AHja7V1Zd9q81u5321/hxW0XxfPwrrRnESBpmpAmgYSmqzfCFuBgy7wegPQvnT/5yeBBxkx2Euzm0JsG2d56vLX31h4kmbpq//y/Dx8+gP9++HDyn7lpUFNoO7qFvlSY
        z3SFgki1NB0Nv1Tuu2dVuUI5LkAaMCwEv1SQVaH+8/XjydCu6shxbc+EyK2qIw+Nqb6nG1oVeWYf2l8qrMgzFUq1zAl+EN8zAeq4qmu4E0WieUWUZbZCDWxgwpllL6/g
        zk3wZNnVCJCAW3TVtuIW/x4dkffgXiY2dOCGLlzdxLi7HqTq3pCiWYpR/hGkfziJYmlGrHz9+JGiThzLQ1pVAy7oAwdSQ8PqA6NqQte2kGUueh3puJOqaWkwAKHp+L0B
        QtDAHYqV2pISZoyNYRA8xV1Q+N/JQJ9XI3Y4FOZTVXeh6eBb+OCe1bso/2VkhaZxhwj473F3Gd2Kb/ZvNKAL46agcfPTlOf5zYP6t3979ODh6Z5tnN32H2lLA5PZly8V
        khRJrDr09OQ1fHWqwxkxxPhtJgZwYbUP0PhLpbLu0hKIL1SWDbWqTyFgKl+hVn85et/Afw+A4UCfwYnOa1uwEbiBp+lWPBxsJfUWE+BLoYvvwLIPcI/4GdcygRsKnD9U
        8U0LicM64epq4kYmRZmkvRgMvR6OxAXytUqFddXVpxC/KzC8hWClaWAqvlASCCgbmhbmpQnmCzDhT30Bt7YGRi16OPX28SVnM4MXTExIWXyRkMdaWiBPIt203QjZSS0h
        5luEXySlVx9SlxbCOmlkVIJNVAJlqPOjq5u71vOQ1jXPPD03r1FrPjwqw17KQG9QhloZpYlbLwgUm1WgNhMKZOpOQY3h9K7u0efmA/hzO/ceHoZHA3s0sCVTCXmTJHNZ
        HY3NhEIzO/3W5jQLmeNPnUtJmcm/FBEczexRJUqmEiwhyPXFSF6gjMqwlkSgBt8bf3705qj97z349cn9MXp0Pn2bFqsGTEINmKO38SpyxBD2EIeEGUVo9elAenroQrp9
        chm+pXO08HMKb2fS+e3RiKalh0lLj5TXiBI2dOK51DnQUWw/PwsHt6ApgOchwHM8VtQPVPsxGEQImeLxdRP4uiOsWCPL0AgmlgBk+yFE2QaO3/hgGZ5JzJSfZVHgRLl4
        pFch0Cvd1P3GlRGnSwCxEWGEA5dqLFNlZZLJuwbhro7SEI+O0Wr4TOYSu2ACm1AdU0zW2HkDlWCC65zNbwbnjYFFi7ejHuyySu1BeEdRgovfWMNvzAAvhTq85otYSnKy
        TI15Jkdl7eS4QQmSmmREqm5Zkx368woatEPNU/BcGIkbHmwrtkF0eSDaEUQbIGdiObCEfPQikB4qIb7JNMSXnrh5UWTKgtOOcN5B1bK1VT+jNED1GyJ3AG2XurEc3bcL
        5Rt7wyFtENVx8RRXQpQwgbKFtMIHfbPPscPr8C9vmMwOFmHzDOFLdHQMZYRDM2oRpWWNt7fSCpyT61bHUe3muNnq3T3Vx25jwN82i83q0wnnhC5x9M3Qe3sYK2rzQG80
        7CWIvVtMiK41x20IGKHQlCfWuWLjiBGHtqhMkWKbi8Juz4WlimF5MoYtVewqJGLXMkE7E0NoZ7qBGxmqgbW9XMmJMymJkV3FWAY+ykmMpVIMJfZjcPB+2vsfSZokCDih
        j1DVfXNf3XDfy2azF3FuI9dePoMdBFeGWesgePaeqQ7DnX1np4Og2X9GOgicHLPQYXBln3kOg2v/2eYwwp1hhnkLQCe1vcw7fjrdvH8Ay5OpcA9htmcLWtPPB4Hqo/I4
        upFV1qLPlZah3z06T5dcsVl0NhGosiUOVMW8ceqZFSmRZY/L5LB1o0xeF7ONutFddRThE5XiATqurSI3Sr+4ttWHtYa/Ur5MbNQmWdP0B4VnD+LE8gDaEKkxPJ4vAUCn
        HSfYDN+ItbEx+PtiB79U51tbKky61QrJfpKrzNrBXhWYNe25nki42qjvTnl9emXfm7p9zp7Wv/+afpu9n7Vq4Q4f4FGq4e8eGug+pcY/v29sa4glg8LeEHR+NyzTtFDw
        4xr46yepi2j/k/P73NNdYFP+slcB34xwrOL+jrj527BmmPwUfp6BKX5dQ8c99XXXBM548QrLlrfpe6QTXZue4eoTY8m4JY/5Gg4jHF8bVRiDqvr1eKT5G7nwZW8yWf51
        6Jq0kL8mfTOLSqp7LYcqoBrUQZE1fEZq+fB1zcmGwjkrlAVj21sbkpeGhw9GxtJFySt+scV83WRaSJcMswK7uLTM2DRVI4OZsGOE8Qru4FmFV0SJVYQ9rNhLhP5tIs91
        vHi1kFMkN8PVzUkdAePZyRx5biQTbvboPJs3zfofeQxmTzT7BOUz9fa42eP9rXIXBEIQbhakwvUs2SRqC6FApp6fVb3WRrWbcaN+DpTHU5ZTfxyr76/tSq06Ug9lLr43
        I3RN+3m/hVQHxdeL8PUIeS4PvvbPyH/S52UCdvOTsAWUvwWGwgh1NPxfLDUuSFatDEXGTFp7kIx+Rk09TEFvT+k/CJg8En8QYBlt2Ns4xTtU4IVesUSv25SQ9ViATVQC
        /2WkKLXvp3ddbvz8zT5D33sd7tPk9v1tbWDLtrVBzJ9G+lvWlJd8C4beIVNdVNeillvsjgvJ381C8r9mm8OrrHhni1nxrpCb54Jdqmc/M05TG4gEs1Tzyn36zvLiY6tz
        3ej1nhST/3XM3Oy7xj3vDvOs5YpyVkXjq6qFXKD7NVJ1WZKqLsZMN3T3Ocp5xcfhrfME8Wh7xoKDWp/SEaYVH/rHhwRws+rf4kREMdNtrDe2NVu2EeO72sPIclxioHA3
        qfHk37y2u9IYcPwEWai67sJapzOaXCeYv5G7Kc0fPJEeP9GdxrnepB9bz3/0ekKRNyvxWyowmSZzbS+hvxt1d1+9za6zm7albECVkPs18rCaKOcTaU2rGq6vWw7SpO8h
        Cczv6PG53pPO5r/6/Stt+OaDdHF90d09UEy5Bmq/FOYLDOthVlpGa8Rs+K8HkfpMxBQSI9IF5WeGsbfmWAiQa4foz4IoKRn5hR+SJJYTXwle5JZ3DGtS+NrrfuQ+bV/A
        9Da5kHXT80tMlEzW8hAwrCHVWcomsaLUvh51Zu0a2/qknj9q3cHzFK4cPHQ0VIGhYsV3YakcJl6PCSf+ER2xPZBlmi0IFZtAxRZtChwugYcjM0SSQksFoeITqPjCuSQk
        8AgEl0RGKYpJYgKUWDiTpAQeqXADICfwyKRo05KkFIRKSaBSSFGiOVksyljSSWtJFy5NzIr9ZoqfUJK2myneeDNJ682Q5lvgZb6oSY5J2m+meAPOJC04IxQvTUnzzYjk
        2HG0WBAuEEcqulZ4pIKiytA1JkZdQTR0R4WDiqK5a8+k/NGLt/kwBRlw3YkPO1IxRT86SiIriFlaBKwJSwXM1BgiDKaacOKOElGCyClFZTNMjU1jY4tfBWNqXBoXVwZc
        fBoXf3Bcr57bkFez49RpmNE4rXdEpdO5BPd6f1y7urEeWsidHfPjh82Py+QGtCY0wDPVBtFh6fxgYD+f3/b4Fnh8thqKULOY8THrtL72+D7y405SGHZsjToMJCOxJSSJ
        qaDJ15jGS37glDy2GEfBPFNQRiXagHwGodZfnFsfwVIYhpELmt3WLfP0CxQswxfk1CWknMDEK5wiFOQE6LEH7ELk6C4JjBZEuqCMjxqtJGqMLNtzqAe9bwPXKloH3fg0
        ANg3yHoZz7OCXHBp6hQ4DmkVeImVCo6I66oKDWiD5BmynwVakgsy7aq9Ilp3gDzZ6TMjy2JBXJtG0AJxX8VWVKjgJr+GUcBZWK9fAk0c/upnk1IFUMvidNTsN9z7zv3t
        4Pl68mPcu6gfXdF1rihHv/MC6LH0ubX0yRyLntuLnsd6599V7yxbpfNY4zzWOF+jxnmsbv6N1c1iEM2iXaC6RpYQi4pD4qjSdZOZJqHwnI6ayOmItMgWhCk6kRK70w50
        i2eSGmcthyVI4RzL48fyeFHlcVk6FsePxfECs15Kqji+qI8s810m5wwvGb6J7vWO3ZY7Zw0OzW5LUB5/F7uSAIq+KYz/purFCzmGcUpCOiUdmKLcl59nQIu2ujdsy3EG
        QEsUWhgeO1cFnWgTnWbc9IBBtS1UuDtDfrFvuvhi3wg4f312niFX8QSfPA7NFMddXv4Bbdi473XgfOY2f4y1+XGFyDveQHllJkSBNAYyzxXlU93F2ycNiPujurpZ+OLf
        byGob5ahlQLR5mPJJO5gg/dSA3VSW787/6Q2tKs2UMdfP/q/bAgMF/PcPwHBxgPQjzU5VJ2T4JoBbQ24YPGuuGmgD8PzDYKr+BGuQpjHsJ0yLHW8PPtgKX2X1A3UgEEo
        /+KqjwVO/VfzR4GVef+kCsNa/sTXXWs4NJJn2W/v5VJXx01rhnZ0REsc0RETd8Ts21Fn5n+sgmK2d8TQvEJ0xObviN3REUcLREdc/o64HR0JIjlGfP6O+ERHTKojmZGI
        jgSyI/JAi0iPYzVJrdpczkPLM5rBvBpNFBTWz2pkeaLvJlALotX0aoLg9AzPNvxZ2AVD/9Q3rHDLX/YQLrEGi0eDliUZf3lC2OCZ/YXqEAyrxRzbzEQmzURhOxNZUijE
        zCwMzrvF/00zMpFLMnFv1q2yLcW06mtwTdzBNZkUcSkv267h3M3INraEbAu+4LSNYQJHqqqcmWFBFy9R08SXW/bkGp9WU/9TMG+gpvJ2/kkKOR0pmflHfCHlJTzsgsne
        vGPW2Lju5OXMIyeK6LOPC99h11zLciw51zJ53IeVHndMuqwgk/aVYbL2eI3DvMby6vaeyE8HxP2tcydILq/4bsENwJ8XMZY9PLnlYKZ8OB8B4Z6lPje06fHYOVtSYJIU
        mN0UYq9rSYHNS4ENKXB5KXAhBT4vBT6kIOSlIIQUxFUKibh9QWIhWgnzEEzUaQVd9rYnBjHEIOXGwObDEMway97lvDyUQwpKZgpp+xTIdXbVSBuegBSTjVTCogQkNinJ
        SS0wBcHPrCfbsWtOtmMr6/JCBGmSRJpkQmjWPkQB0/KQuwjNffG3PFuFVWKxbNASeAXR7x2rZcN5i5DNjQ69jjQ4T/tcWvR7xyYxQtjX8+Vt2cZKC/eWYJy8m3Ebz1na
        zjiR34NxZyuM23j43J6MI69q/aBtmZBZk/PgK+n0bnU58xqLzzv72R2f4yttvulMWrgARdWfdmP6yWX6J4G2xl0R8hXPxlUy7t3TpcsQbgZ2lgT8Wq/Cb3wTOd+bbPfI
        3/BNmM2DouR7le3+8ZZXIXOAK2IY3eIgMHFGlkumDqO2hQBHvzYeQHpSW6FyUlvRm6B5ryNKI6rBjYtaQBzExI9H3GD9OGjHqfS17GQ5mdt5jHAOspK4syidgyorsjs/
        l5yHrCBFn89EF9Ltk8vwLZ2jhZ9TeDuTznOiFXYexJdnvOiIs9etjqPazXGz1bt7qo/dxoC/bc5ysiAesM7Z/GZw3hhYtHg76sEuq9QehJyc5cWde3HygFV2bjbPQdWf
        +XcUKPNgleWdn2bNQZbeeRptLj0Qd364K/KPU2ZuWU5JVVCWhRXcJ/Ctdm35E/cRxN/UwLJNEyAw9BFEh4P7NwHV/3JqdZFmAe6ICn4HSRjL1nBUEGqFuJKOCUiQ9+po
        iP0hPFkt5pDa10XpR48+y1pVRx4af/34/xeiuGRhdGFkAgAAAEROU1NiaWx6FgAAABAAAAB42mNiYGDQ9fTTNXXP9AMyGQARpQIn
        AG5vIHNvdW5kABAAAAA=
      >
      PRESETNAME "no sound"
      FLOATPOS 923 49 1035 897
      FXID {6716B542-9243-4C30-9B12-E4564305AB1D}
      WAK 0
      BYPASS 0 0 0
      <VST "VST: H-Delay Stereo (Waves)" "WaveShell-VST 9.6_x64.dll" 0 "" 1212302419
        U0RCSO5e7f4CAAAAAQAAAAAAAAACAAAAAAAAAAIAAAABAAAAAAAAAAIAAAAAAAAAngMAAAEAAAAAABAA
        AAADngAAAAMAAAABSEJEU3NldEEAAAN+WFBzdDxQcmVzZXRDaHVua1hNTFRyZWUgdmVyc2lvbj0iMiI+CiAgICA8UHJlc2V0IE5hbWU9IkJhc2ljIFN0ZXJlbyIgR2Vu
        ZXJpY1R5cGU9IkhCREwiPgogICAgICAgIDxQcmVzZXRIZWFkZXI+CiAgICAgICAgICAgIDxQbHVnaW5OYW1lPkgtRGVsYXk8L1BsdWdpbk5hbWU+CiAgICAgICAgICAg
        IDxQbHVnaW5TdWJDb21wPkhCRFM8L1BsdWdpblN1YkNvbXA+CiAgICAgICAgICAgIDxQbHVnaW5WZXJzaW9uPjkuNi40Ny4xPC9QbHVnaW5WZXJzaW9uPgogICAgICAg
        ICAgICA8QWN0aXZlU2V0dXA+U0VUVVBfQTwvQWN0aXZlU2V0dXA+CiAgICAgICAgICAgIDxSZWFkT25seT50cnVlPC9SZWFkT25seT4KICAgICAgICA8L1ByZXNldEhl
        YWRlcj4KICAgICAgICA8UHJlc2V0RGF0YSBTZXR1cD0iU0VUVVBfQSIgU2V0dXBOYW1lPSJCYXNpYyBTdGVyZW8iPgogICAgICAgICAgICA8UGFyYW1ldGVycyBUeXBl
        PSJSZWFsV29ybGQiPiogMSAxMjUgMjQwIDEwICogMTAwIDYwIDAgMAoxICogKiAqIDAgMjAxMzkgKiAxNjYgKgowIDAuMTAwMDAwMDAwMDAwMDAwMDEgMCAqIDEgKiAq
        ICogKgoqICogKiAqICogKiAqICogKgoqICogKiAqICogKiAqICogPC9QYXJhbWV0ZXJzPgogICAgICAgIDwvUHJlc2V0RGF0YT4KICAgICAgICA8UHJlc2V0RGF0YSBT
        ZXR1cD0iU0VUVVBfQiI+CiAgICAgICAgICAgIDxQYXJhbWV0ZXJzIFR5cGU9IlJlYWxXb3JsZCI+KiAxIDEyMCAzNjYgMTEgKiAxMDAgNjAgMCAwCjAgKiAqICogMCAy
        MDEwMCAqIDE5ICoKMCAwLjEwMDAwMDAwMDAwMDAwMDAxIDAgKiAyICogKiAqICoKKiAqICogKiAqICogKiAqICoKKiAqICogKiAqICogKiAqIDwvUGFyYW1ldGVycz4K
        ICAgICAgICA8L1ByZXNldERhdGE+CiAgICA8L1ByZXNldD4KPC9QcmVzZXRDaHVua1hNTFRyZWU+CmEAbAA=
        AAAQAAAA
      >
      FLOATPOS 1186 361 766 354
      FXID {651DED01-F66E-4957-BAF5-89AF2C5AE1FA}
      WAK 0
    >
    <ITEM
      POSITION 34.08
      SNAPOFFS 0
      LENGTH 7.2
      LOOP 1
      ALLTAKES 0
      FADEIN 1 0.01 0 1 0 0
      FADEOUT 1 0.01 0 1 0 0
      MUTE 0
      SEL 0
      IGUID {C9E408E9-0462-4675-BF43-75914521F8A1}
      IID 31
      NAME "D__Recording_07-Guitar Direct-160723_1857-01.wav"
      VOLPAN 1 0 1 -1
      SOFFS 11.52
      PLAYRATE 1 1 0 -1 0 0.0025
      CHANMODE 0
      GUID {2E2E1143-3EAB-41BF-B4F5-614AB0D18FD9}
      RECPASS 11
      <SOURCE WAVE
        FILE "D__Recording_07-Guitar Direct-160723_1857-01.wav"
      >
    >
    <ITEM
      POSITION 41.28
      SNAPOFFS 0
      LENGTH 7.68
      LOOP 1
      ALLTAKES 0
      FADEIN 1 0.01 0 1 0 0
      FADEOUT 1 0.01 0 1 0 0
      MUTE 0
      SEL 0
      IGUID {F7B13B9C-814B-4614-956D-075122224BEB}
      IID 29
      NAME "D__Recording_07-Guitar Direct-160723_1855.wav"
      VOLPAN 1 0 1 -1
      SOFFS 1.44
      PLAYRATE 1 1 0 -1 0 0.0025
      CHANMODE 0
      GUID {A226E95B-C8B1-4A69-9F26-9F4A57EDC7BB}
      RECPASS 9
      <SOURCE WAVE
        FILE "D__Recording_07-Guitar Direct-160723_1855.wav"
      >
    >
    <ITEM
      POSITION 56.64
      SNAPOFFS 0
      LENGTH 100.55068027210883
      LOOP 1
      ALLTAKES 0
      FADEIN 1 0.01 0 1 0 0
      FADEOUT 1 0.01 0 1 0 0
      MUTE 0
      SEL 0
      IGUID {083620DB-30FC-4ADC-8218-B78F43A9467B}
      IID 29
      NAME "D__Recording_07-Guitar Direct-160723_1855.wav"
      VOLPAN 1 0 1 -1
      SOFFS 8.64
      PLAYRATE 1 1 0 -1 0 0.0025
      CHANMODE 0
      GUID {FE24058B-08FB-4CAC-ACBF-DD335F9B9B80}
      RECPASS 9
      <SOURCE WAVE
        FILE "D__Recording_07-Guitar Direct-160723_1855.wav"
      >
    >
    <ITEM
      POSITION 145.92
      SNAPOFFS 0
      LENGTH 0.65480725623584
      LOOP 1
      ALLTAKES 0
      FADEIN 1 0.01 0 1 0 0
      FADEOUT 1 0.01 0 1 0 0
      MUTE 0
      SEL 0
      IGUID {35A165D1-3E70-4ADA-9FBB-56EE2D249811}
      IID 30
      NAME "D__Recording_07-Guitar Direct-160723_1857.wav"
      VOLPAN 1 0 1 -1
      SOFFS 0
      PLAYRATE 1 1 0 -1 0 0.0025
      CHANMODE 0
      GUID {A4AB029F-4C68-4D64-9FD7-B5A3E2A67FC6}
      RECPASS 10
      <SOURCE WAVE
        FILE "D__Recording_07-Guitar Direct-160723_1857.wav"
      >
    >
  >
  <TRACK {BA9571D5-CFD4-47FD-ACF8-F5906FAC9766}
    NAME "Guitar 58"
    PEAKCOL 19369832
    BEAT -1
    AUTOMODE 0
    VOLPAN 1 0 -1 -1 1
    MUTESOLO 0 0 0
    IPHASE 0
    ISBUS 0 0
    BUSCOMP 0 0
    SHOWINMIX 1 0.6667 0.5 1 0.5 0 0 0
    FREEMODE 0
    SEL 1
    REC 0 4 0 0 0 0 0
    VU 2
    TRACKHEIGHT 0 0
    INQ 0 0 0 0.5 100 0 0 100
    NCHAN 2
    FX 1
    TRACKID {BA9571D5-CFD4-47FD-ACF8-F5906FAC9766}
    PERF 0
    MIDIOUT -1
    MAINSEND 1 0
  >
  <TRACK {0252A555-2EAF-4891-8D51-F507C83FDC1F}
    NAME "Guitar B1"
    PEAKCOL 24944419
    BEAT -1
    AUTOMODE 0
    VOLPAN 1 0 -1 -1 1
    MUTESOLO 0 0 0
    IPHASE 0
    ISBUS 0 0
    BUSCOMP 0 0
    SHOWINMIX 1 0.6667 0.5 1 0.5 0 0 0
    FREEMODE 0
    SEL 0
    REC 0 0 0 0 0 0 0
    VU 2
    TRACKHEIGHT 0 0
    INQ 0 0 0 0.5 100 0 0 100
    NCHAN 2
    FX 1
    TRACKID {0252A555-2EAF-4891-8D51-F507C83FDC1F}
    PERF 0
    MIDIOUT -1
    MAINSEND 1 0
  >
  <TRACK {5BF75D34-8B61-4DCC-8782-7990F470CFA3}
    NAME "Keys Left"
    PEAKCOL 25100162
    BEAT -1
    AUTOMODE 0
    VOLPAN 1 0 -1 -1 1
    MUTESOLO 0 0 0
    IPHASE 0
    ISBUS 0 0
    BUSCOMP 0 0
    SHOWINMIX 1 0.6667 0.5 1 0.5 0 0 0
    FREEMODE 0
    SEL 0
    REC 0 2 0 0 0 0 0
    VU 2
    TRACKHEIGHT 0 0
    INQ 0 0 0 0.5 100 0 0 100
    NCHAN 2
    FX 1
    TRACKID {5BF75D34-8B61-4DCC-8782-7990F470CFA3}
    PERF 0
    MIDIOUT -1
    MAINSEND 1 0
  >
  <TRACK {994C3B7F-A23F-4363-82E3-4C5DDEF04DF6}
    NAME "Keys Right"
    PEAKCOL 19439350
    BEAT -1
    AUTOMODE 0
    VOLPAN 1 0 -1 -1 1
    MUTESOLO 0 0 0
    IPHASE 0
    ISBUS 0 0
    BUSCOMP 0 0
    SHOWINMIX 1 0.6667 0.5 1 0.5 0 0 0
    FREEMODE 0
    SEL 0
    REC 0 3 0 0 0 0 0
    VU 2
    TRACKHEIGHT 0 0
    INQ 0 0 0 0.5 100 0 0 100
    NCHAN 2
    FX 1
    TRACKID {994C3B7F-A23F-4363-82E3-4C5DDEF04DF6}
    PERF 0
    MIDIOUT -1
    MAINSEND 1 0
  >
>
